%TF.GenerationSoftware,KiCad,Pcbnew,9.0.0-rc1-661-gd7f89c6576*%
%TF.CreationDate,2025-01-26T19:33:11-05:00*%
%TF.ProjectId,TS_Front_Endcap,54535f46-726f-46e7-945f-456e64636170,rev?*%
%TF.SameCoordinates,Original*%
%TF.FileFunction,Legend,Bot*%
%TF.FilePolarity,Positive*%
%FSLAX46Y46*%
G04 Gerber Fmt 4.6, Leading zero omitted, Abs format (unit mm)*
G04 Created by KiCad (PCBNEW 9.0.0-rc1-661-gd7f89c6576) date 2025-01-26 19:33:11*
%MOMM*%
%LPD*%
G01*
G04 APERTURE LIST*
%ADD10C,0.300000*%
%ADD11C,0.150000*%
%ADD12C,0.800000*%
G04 APERTURE END LIST*
D10*
G36*
X127704635Y-115997061D02*
G01*
X127704635Y-117122533D01*
X127962830Y-117122533D01*
X127962830Y-115997061D01*
X128329652Y-115997061D01*
X128329652Y-115786036D01*
X127337812Y-115786036D01*
X127337812Y-115997061D01*
X127704635Y-115997061D01*
G37*
G36*
X126212158Y-116718250D02*
G01*
X126222773Y-116822916D01*
X126252641Y-116908667D01*
X126301228Y-116982473D01*
X126365848Y-117042116D01*
X126443963Y-117087323D01*
X126539047Y-117120426D01*
X126642160Y-117139368D01*
X126758316Y-117145980D01*
X126862834Y-117142887D01*
X126962197Y-117133798D01*
X127059908Y-117117596D01*
X127156920Y-117093223D01*
X127156920Y-116847027D01*
X127058551Y-116876702D01*
X126955511Y-116900974D01*
X126852563Y-116917277D01*
X126753187Y-116923230D01*
X126684134Y-116919889D01*
X126631187Y-116910957D01*
X126584014Y-116895641D01*
X126549213Y-116877068D01*
X126521365Y-116853016D01*
X126503143Y-116825869D01*
X126492431Y-116794900D01*
X126488763Y-116760198D01*
X126496031Y-116714445D01*
X126516973Y-116677858D01*
X126548704Y-116647248D01*
X126591254Y-116619056D01*
X126696308Y-116572986D01*
X126816201Y-116528931D01*
X126936094Y-116475716D01*
X126992019Y-116442318D01*
X127041149Y-116402077D01*
X127082517Y-116354212D01*
X127115429Y-116297205D01*
X127136067Y-116232360D01*
X127143548Y-116150385D01*
X127136323Y-116073356D01*
X127114880Y-116001000D01*
X127078346Y-115935326D01*
X127024754Y-115877718D01*
X126956742Y-115831552D01*
X126866943Y-115793821D01*
X126765116Y-115771016D01*
X126634301Y-115762588D01*
X126550862Y-115766618D01*
X126464766Y-115776877D01*
X126382792Y-115791806D01*
X126310527Y-115809483D01*
X126310527Y-116038094D01*
X126382243Y-116014647D01*
X126462660Y-115996054D01*
X126546191Y-115983781D01*
X126626058Y-115979476D01*
X126690137Y-115982404D01*
X126738807Y-115990192D01*
X126782250Y-116003446D01*
X126814644Y-116019684D01*
X126840617Y-116041039D01*
X126857692Y-116065938D01*
X126867573Y-116094496D01*
X126870973Y-116126846D01*
X126863914Y-116165938D01*
X126842854Y-116199020D01*
X126811192Y-116226804D01*
X126768024Y-116253242D01*
X126662511Y-116298213D01*
X126541611Y-116343276D01*
X126420711Y-116398047D01*
X126364583Y-116432216D01*
X126315106Y-116472694D01*
X126273257Y-116520440D01*
X126240368Y-116576558D01*
X126219597Y-116639974D01*
X126212158Y-116718250D01*
G37*
G36*
X125845794Y-116677034D02*
G01*
X125845794Y-116454284D01*
X125208412Y-116454284D01*
X125208412Y-116677034D01*
X125845794Y-116677034D01*
G37*
G36*
X123886020Y-116630597D02*
G01*
X123895097Y-116753809D01*
X123920366Y-116855087D01*
X123962869Y-116944880D01*
X124018735Y-117016195D01*
X124089094Y-117072215D01*
X124174990Y-117113282D01*
X124270794Y-117137476D01*
X124381985Y-117145980D01*
X124505881Y-117137205D01*
X124603361Y-117113282D01*
X124688308Y-117072522D01*
X124753021Y-117019218D01*
X124801991Y-116952007D01*
X124836002Y-116869924D01*
X124854875Y-116778851D01*
X124861556Y-116672546D01*
X124861556Y-115786036D01*
X124609498Y-115786036D01*
X124609498Y-116659082D01*
X124606385Y-116724676D01*
X124597774Y-116778974D01*
X124581256Y-116827975D01*
X124556741Y-116867543D01*
X124523922Y-116899358D01*
X124483468Y-116922406D01*
X124436165Y-116935803D01*
X124372735Y-116940816D01*
X124313002Y-116936528D01*
X124267222Y-116924971D01*
X124227732Y-116904153D01*
X124195506Y-116873680D01*
X124170985Y-116834632D01*
X124152458Y-116783004D01*
X124141986Y-116724647D01*
X124138078Y-116648823D01*
X124138078Y-115786036D01*
X123886020Y-115786036D01*
X123886020Y-116630597D01*
G37*
G36*
X122752214Y-116718250D02*
G01*
X122762828Y-116822916D01*
X122792697Y-116908667D01*
X122841284Y-116982473D01*
X122905904Y-117042116D01*
X122984019Y-117087323D01*
X123079102Y-117120426D01*
X123182216Y-117139368D01*
X123298371Y-117145980D01*
X123402890Y-117142887D01*
X123502253Y-117133798D01*
X123599964Y-117117596D01*
X123696976Y-117093223D01*
X123696976Y-116847027D01*
X123598607Y-116876702D01*
X123495567Y-116900974D01*
X123392619Y-116917277D01*
X123293242Y-116923230D01*
X123224190Y-116919889D01*
X123171243Y-116910957D01*
X123124070Y-116895641D01*
X123089269Y-116877068D01*
X123061421Y-116853016D01*
X123043199Y-116825869D01*
X123032487Y-116794900D01*
X123028819Y-116760198D01*
X123036086Y-116714445D01*
X123057029Y-116677858D01*
X123088760Y-116647248D01*
X123131309Y-116619056D01*
X123236364Y-116572986D01*
X123356257Y-116528931D01*
X123476150Y-116475716D01*
X123532074Y-116442318D01*
X123581205Y-116402077D01*
X123622572Y-116354212D01*
X123655485Y-116297205D01*
X123676123Y-116232360D01*
X123683603Y-116150385D01*
X123676379Y-116073356D01*
X123654935Y-116001000D01*
X123618402Y-115935326D01*
X123564810Y-115877718D01*
X123496798Y-115831552D01*
X123406998Y-115793821D01*
X123305172Y-115771016D01*
X123174357Y-115762588D01*
X123090918Y-115766618D01*
X123004822Y-115776877D01*
X122922848Y-115791806D01*
X122850583Y-115809483D01*
X122850583Y-116038094D01*
X122922299Y-116014647D01*
X123002715Y-115996054D01*
X123086247Y-115983781D01*
X123166114Y-115979476D01*
X123230193Y-115982404D01*
X123278863Y-115990192D01*
X123322306Y-116003446D01*
X123354700Y-116019684D01*
X123380673Y-116041039D01*
X123397748Y-116065938D01*
X123407629Y-116094496D01*
X123411028Y-116126846D01*
X123403970Y-116165938D01*
X123382910Y-116199020D01*
X123351248Y-116226804D01*
X123308080Y-116253242D01*
X123202567Y-116298213D01*
X123081667Y-116343276D01*
X122960767Y-116398047D01*
X122904639Y-116432216D01*
X122855162Y-116472694D01*
X122813313Y-116520440D01*
X122780424Y-116576558D01*
X122759653Y-116639974D01*
X122752214Y-116718250D01*
G37*
G36*
X122511879Y-117122533D02*
G01*
X122103016Y-117122533D01*
X121970979Y-117114908D01*
X121863530Y-117093895D01*
X121776515Y-117061669D01*
X121706427Y-117019493D01*
X121647467Y-116962974D01*
X121605107Y-116894613D01*
X121578578Y-116811990D01*
X121569580Y-116716235D01*
X121840700Y-116716235D01*
X121844725Y-116757220D01*
X121856636Y-116795278D01*
X121876151Y-116829675D01*
X121903256Y-116859391D01*
X121936910Y-116883213D01*
X121979552Y-116901981D01*
X122027325Y-116913293D01*
X122085614Y-116917369D01*
X122261835Y-116917369D01*
X122261835Y-116530488D01*
X122105031Y-116530488D01*
X122016487Y-116537020D01*
X121951984Y-116554265D01*
X121905821Y-116579764D01*
X121869743Y-116616684D01*
X121848223Y-116661340D01*
X121840700Y-116716235D01*
X121569580Y-116716235D01*
X121569132Y-116711472D01*
X121574302Y-116648933D01*
X121589099Y-116594602D01*
X121612937Y-116545323D01*
X121643412Y-116503926D01*
X121680574Y-116469054D01*
X121723371Y-116441370D01*
X121770210Y-116421215D01*
X121819176Y-116409038D01*
X121771759Y-116388107D01*
X121732073Y-116361136D01*
X121698157Y-116328145D01*
X121670615Y-116290794D01*
X121649295Y-116249287D01*
X121634253Y-116203599D01*
X121625407Y-116155658D01*
X121625068Y-116150019D01*
X121884755Y-116150019D01*
X121887769Y-116187756D01*
X121896570Y-116222192D01*
X121912029Y-116253608D01*
X121935496Y-116281635D01*
X121965676Y-116304291D01*
X122005197Y-116322301D01*
X122050316Y-116333053D01*
X122109153Y-116337048D01*
X122261835Y-116337048D01*
X122261835Y-115985338D01*
X122109153Y-115985338D01*
X122051051Y-115988518D01*
X122006205Y-115997061D01*
X121966389Y-116011643D01*
X121936504Y-116030034D01*
X121912911Y-116053826D01*
X121897028Y-116081875D01*
X121887927Y-116113590D01*
X121884755Y-116150019D01*
X121625068Y-116150019D01*
X121622438Y-116106238D01*
X121630228Y-116027681D01*
X121652151Y-115963171D01*
X121687345Y-115909772D01*
X121736744Y-115865628D01*
X121794481Y-115833597D01*
X121868366Y-115808643D01*
X121961978Y-115792106D01*
X122079478Y-115786036D01*
X122511879Y-115786036D01*
X122511879Y-117122533D01*
G37*
G36*
X121450796Y-116636276D02*
G01*
X121450796Y-116852888D01*
X120827794Y-116852888D01*
X120827794Y-117122533D01*
X120583887Y-117122533D01*
X120583887Y-116852888D01*
X120381013Y-116852888D01*
X120381013Y-116630139D01*
X120583887Y-116630139D01*
X120824680Y-116630139D01*
X121205882Y-116630139D01*
X120824680Y-116027928D01*
X120824680Y-116630139D01*
X120583887Y-116630139D01*
X120583887Y-115786036D01*
X120928178Y-115786036D01*
X121450796Y-116636276D01*
G37*
G36*
X120079220Y-116677034D02*
G01*
X120079220Y-116454284D01*
X119441838Y-116454284D01*
X119441838Y-116677034D01*
X120079220Y-116677034D01*
G37*
G36*
X118995515Y-117122533D02*
G01*
X118995515Y-115786036D01*
X118189147Y-115786036D01*
X118189147Y-115997061D01*
X118739426Y-115997061D01*
X118739426Y-116331186D01*
X118214792Y-116331186D01*
X118214792Y-116536350D01*
X118739426Y-116536350D01*
X118739426Y-116911507D01*
X118189147Y-116911507D01*
X118189147Y-117122533D01*
X118995515Y-117122533D01*
G37*
G36*
X117272504Y-117122533D02*
G01*
X117631174Y-116324957D01*
X117704905Y-116153133D01*
X117704905Y-116707350D01*
X117704905Y-117122533D01*
X117934432Y-117122533D01*
X117934432Y-115786036D01*
X117625038Y-115786036D01*
X117259223Y-116588740D01*
X117194651Y-116745177D01*
X117194651Y-116155148D01*
X117194651Y-115786036D01*
X116965124Y-115786036D01*
X116965124Y-117122533D01*
X117272504Y-117122533D01*
G37*
G36*
X116789361Y-117122533D02*
G01*
X116449191Y-117122533D01*
X116331546Y-117116620D01*
X116230875Y-117099991D01*
X116144834Y-117073989D01*
X116063618Y-117036148D01*
X115994605Y-116990147D01*
X115936373Y-116935961D01*
X115887402Y-116873041D01*
X115847440Y-116801339D01*
X115816480Y-116719715D01*
X115788018Y-116588540D01*
X115779092Y-116453735D01*
X116048481Y-116453735D01*
X116055825Y-116574964D01*
X116075763Y-116670130D01*
X116105872Y-116744164D01*
X116144834Y-116801139D01*
X116196485Y-116847973D01*
X116259026Y-116882158D01*
X116334713Y-116903780D01*
X116426660Y-116911507D01*
X116537302Y-116911507D01*
X116537302Y-115997061D01*
X116409166Y-115997061D01*
X116310694Y-116005358D01*
X116236059Y-116027744D01*
X116173025Y-116065699D01*
X116124867Y-116117137D01*
X116090019Y-116180707D01*
X116065883Y-116260661D01*
X116053091Y-116348501D01*
X116048481Y-116453735D01*
X115779092Y-116453735D01*
X115778012Y-116437431D01*
X115782720Y-116324395D01*
X115795932Y-116227605D01*
X115816480Y-116144981D01*
X115847255Y-116066003D01*
X115885719Y-115999006D01*
X115931702Y-115942473D01*
X115986426Y-115894475D01*
X116050076Y-115855149D01*
X116123860Y-115824412D01*
X116244628Y-115796221D01*
X116392771Y-115786036D01*
X116789361Y-115786036D01*
X116789361Y-117122533D01*
G37*
G36*
X114695406Y-117063914D02*
G01*
X114784512Y-117098056D01*
X114868055Y-117121342D01*
X114952696Y-117135366D01*
X115041711Y-117140118D01*
X115137373Y-117135059D01*
X115222152Y-117120592D01*
X115297434Y-117097528D01*
X115368334Y-117064162D01*
X115430555Y-117022034D01*
X115485012Y-116970858D01*
X115530865Y-116911703D01*
X115569512Y-116842602D01*
X115600783Y-116762213D01*
X115621970Y-116678220D01*
X115635424Y-116582166D01*
X115640168Y-116472419D01*
X115635045Y-116360104D01*
X115620401Y-116260230D01*
X115597120Y-116171359D01*
X115563437Y-116086154D01*
X115522407Y-116012398D01*
X115474205Y-115948793D01*
X115417199Y-115893114D01*
X115352742Y-115847088D01*
X115280031Y-115810307D01*
X115202483Y-115784257D01*
X115117300Y-115768154D01*
X115023302Y-115762588D01*
X114936748Y-115764603D01*
X114857339Y-115772114D01*
X114778479Y-115786494D01*
X114695406Y-115809483D01*
X114695406Y-116061542D01*
X114782345Y-116025596D01*
X114861460Y-116002832D01*
X114938852Y-115989458D01*
X115004892Y-115985338D01*
X115095597Y-115994427D01*
X115167832Y-116019684D01*
X115229432Y-116060859D01*
X115279024Y-116115855D01*
X115316185Y-116182286D01*
X115343046Y-116263225D01*
X115358165Y-116351079D01*
X115363471Y-116450987D01*
X115357939Y-116556312D01*
X115342497Y-116644885D01*
X115314968Y-116725394D01*
X115277375Y-116789691D01*
X115227319Y-116841903D01*
X115164718Y-116880274D01*
X115091930Y-116903252D01*
X115001778Y-116911507D01*
X114928505Y-116904729D01*
X114848638Y-116886777D01*
X114768679Y-116860490D01*
X114695406Y-116829441D01*
X114695406Y-117063914D01*
G37*
G36*
X114566720Y-117122533D02*
G01*
X114316677Y-117122533D01*
X114240931Y-116858750D01*
X113773633Y-116858750D01*
X113699902Y-117122533D01*
X113421191Y-117122533D01*
X113560313Y-116653586D01*
X113829962Y-116653586D01*
X114180481Y-116653586D01*
X114004168Y-116027103D01*
X113829962Y-116653586D01*
X113560313Y-116653586D01*
X113817688Y-115786036D01*
X114170222Y-115786036D01*
X114566720Y-117122533D01*
G37*
G36*
X113279225Y-117122533D02*
G01*
X113025059Y-117122533D01*
X113025059Y-116694619D01*
X112897015Y-116694619D01*
X112766605Y-116685153D01*
X112659336Y-116658807D01*
X112563805Y-116614867D01*
X112488244Y-116558423D01*
X112428082Y-116487939D01*
X112384746Y-116405283D01*
X112358772Y-116313753D01*
X112351394Y-116229703D01*
X112614182Y-116229703D01*
X112618834Y-116285740D01*
X112632134Y-116334300D01*
X112654317Y-116377918D01*
X112684432Y-116414534D01*
X112722125Y-116443785D01*
X112768879Y-116465825D01*
X112821385Y-116478912D01*
X112884650Y-116483593D01*
X113025059Y-116483593D01*
X113025059Y-115997061D01*
X112892893Y-115997061D01*
X112823869Y-116001431D01*
X112768971Y-116013365D01*
X112720209Y-116033664D01*
X112682326Y-116060076D01*
X112652388Y-116093639D01*
X112631126Y-116133715D01*
X112618557Y-116178503D01*
X112614182Y-116229703D01*
X112351394Y-116229703D01*
X112349850Y-116212117D01*
X112359056Y-116113621D01*
X112385204Y-116030401D01*
X112428740Y-115957286D01*
X112488702Y-115896678D01*
X112562953Y-115849820D01*
X112656772Y-115814246D01*
X112760811Y-115793509D01*
X112886757Y-115786036D01*
X113279225Y-115786036D01*
X113279225Y-117122533D01*
G37*
G36*
X112006017Y-116677034D02*
G01*
X112006017Y-116454284D01*
X111368635Y-116454284D01*
X111368635Y-116677034D01*
X112006017Y-116677034D01*
G37*
G36*
X110666223Y-115997061D02*
G01*
X110666223Y-116372218D01*
X110159999Y-116372218D01*
X110159999Y-116577382D01*
X110666223Y-116577382D01*
X110666223Y-117122533D01*
X110922312Y-117122533D01*
X110922312Y-115786036D01*
X110131331Y-115786036D01*
X110131331Y-115997061D01*
X110666223Y-115997061D01*
G37*
G36*
X109825417Y-117122533D02*
G01*
X109573358Y-117122533D01*
X109573358Y-116571521D01*
X109525181Y-116571521D01*
X109463953Y-116579532D01*
X109412982Y-116602570D01*
X109371344Y-116640211D01*
X109338702Y-116694711D01*
X109150116Y-117122533D01*
X108854002Y-117122533D01*
X109068142Y-116676392D01*
X109111519Y-116597014D01*
X109150208Y-116544868D01*
X109194383Y-116507000D01*
X109240333Y-116488448D01*
X109178659Y-116474194D01*
X109123005Y-116452635D01*
X109072686Y-116422860D01*
X109030315Y-116385591D01*
X108995939Y-116340576D01*
X108969773Y-116286764D01*
X108953885Y-116226860D01*
X108950179Y-116180060D01*
X109212673Y-116180060D01*
X109217465Y-116224923D01*
X109231174Y-116262950D01*
X109253337Y-116296021D01*
X109283381Y-116323492D01*
X109319807Y-116344426D01*
X109364897Y-116360037D01*
X109414047Y-116369038D01*
X109470868Y-116372218D01*
X109573358Y-116372218D01*
X109573358Y-115997061D01*
X109462716Y-115997061D01*
X109379955Y-116002722D01*
X109319137Y-116017683D01*
X109275229Y-116039743D01*
X109241504Y-116072821D01*
X109220410Y-116118184D01*
X109212673Y-116180060D01*
X108950179Y-116180060D01*
X108948249Y-116155697D01*
X108957430Y-116058309D01*
X108982596Y-115982682D01*
X109024349Y-115918540D01*
X109080507Y-115868010D01*
X109148968Y-115830929D01*
X109234197Y-115804995D01*
X109327062Y-115791004D01*
X109434964Y-115786036D01*
X109825417Y-115786036D01*
X109825417Y-117122533D01*
G37*
G36*
X108330158Y-115772953D02*
G01*
X108432866Y-115803530D01*
X108496259Y-115835511D01*
X108554115Y-115877228D01*
X108606981Y-115929376D01*
X108651567Y-115988990D01*
X108690643Y-116060692D01*
X108723851Y-116146263D01*
X108746574Y-116235236D01*
X108761159Y-116339218D01*
X108766349Y-116460421D01*
X108756473Y-116630856D01*
X108729283Y-116769173D01*
X108687635Y-116880846D01*
X108633176Y-116970491D01*
X108575959Y-117032490D01*
X108509260Y-117080700D01*
X108431744Y-117115984D01*
X108341380Y-117138153D01*
X108235579Y-117145980D01*
X108124618Y-117135613D01*
X108021989Y-117105039D01*
X107958537Y-117073052D01*
X107900652Y-117031334D01*
X107847783Y-116979192D01*
X107803205Y-116919575D01*
X107764159Y-116847873D01*
X107731004Y-116762305D01*
X107708232Y-116673328D01*
X107693616Y-116569346D01*
X107688941Y-116460421D01*
X107954853Y-116460421D01*
X107958949Y-116567468D01*
X107970240Y-116655784D01*
X107990789Y-116736531D01*
X108018417Y-116799033D01*
X108056446Y-116850778D01*
X108102864Y-116887327D01*
X108158328Y-116909484D01*
X108227336Y-116917369D01*
X108296818Y-116909568D01*
X108352970Y-116887620D01*
X108398794Y-116852044D01*
X108435889Y-116801139D01*
X108468539Y-116720521D01*
X108491223Y-116606186D01*
X108499911Y-116448147D01*
X108495813Y-116341111D01*
X108484524Y-116252875D01*
X108463861Y-116172084D01*
X108435889Y-116109535D01*
X108397445Y-116057739D01*
X108351350Y-116021333D01*
X108296338Y-115999126D01*
X108227336Y-115991200D01*
X108157368Y-115999033D01*
X108101038Y-116021036D01*
X108055268Y-116056639D01*
X108018417Y-116107520D01*
X107986013Y-116188049D01*
X107963484Y-116302347D01*
X107954853Y-116460421D01*
X107688941Y-116460421D01*
X107688414Y-116448147D01*
X107698316Y-116277128D01*
X107725553Y-116138599D01*
X107767232Y-116026993D01*
X107821679Y-115937619D01*
X107878836Y-115875807D01*
X107945491Y-115827724D01*
X108022986Y-115792523D01*
X108113353Y-115770400D01*
X108219184Y-115762588D01*
X108330158Y-115772953D01*
G37*
G36*
X106892671Y-117122533D02*
G01*
X107251342Y-116324957D01*
X107325072Y-116153133D01*
X107325072Y-116707350D01*
X107325072Y-117122533D01*
X107554600Y-117122533D01*
X107554600Y-115786036D01*
X107245205Y-115786036D01*
X106879390Y-116588740D01*
X106814819Y-116745177D01*
X106814819Y-116155148D01*
X106814819Y-115786036D01*
X106585291Y-115786036D01*
X106585291Y-117122533D01*
X106892671Y-117122533D01*
G37*
G36*
X105791655Y-115997061D02*
G01*
X105791655Y-117122533D01*
X106049850Y-117122533D01*
X106049850Y-115997061D01*
X106416672Y-115997061D01*
X106416672Y-115786036D01*
X105424833Y-115786036D01*
X105424833Y-115997061D01*
X105791655Y-115997061D01*
G37*
G36*
X105086129Y-116677034D02*
G01*
X105086129Y-116454284D01*
X104448747Y-116454284D01*
X104448747Y-116677034D01*
X105086129Y-116677034D01*
G37*
G36*
X103448114Y-117122533D02*
G01*
X103782147Y-117122533D01*
X104191009Y-115786036D01*
X103905154Y-115786036D01*
X103678649Y-116590846D01*
X103605926Y-116854629D01*
X103530088Y-116575459D01*
X103305690Y-115786036D01*
X103037237Y-115786036D01*
X103448114Y-117122533D01*
G37*
G36*
X101992549Y-116716418D02*
G01*
X102002068Y-116812292D01*
X102029460Y-116895387D01*
X102075627Y-116968259D01*
X102142667Y-117030667D01*
X102225976Y-117078719D01*
X102334825Y-117116304D01*
X102455982Y-117138022D01*
X102607308Y-117145980D01*
X102680673Y-117144240D01*
X102756968Y-117139568D01*
X102830790Y-117132516D01*
X102895270Y-117122533D01*
X102895270Y-116905645D01*
X102750282Y-116926802D01*
X102582762Y-116934954D01*
X102500686Y-116931118D01*
X102436216Y-116920757D01*
X102378378Y-116902657D01*
X102334825Y-116879633D01*
X102299720Y-116849154D01*
X102275840Y-116813138D01*
X102261766Y-116771642D01*
X102256881Y-116723745D01*
X102261849Y-116681450D01*
X102276390Y-116643969D01*
X102300415Y-116611418D01*
X102335832Y-116583153D01*
X102379312Y-116561655D01*
X102437773Y-116544318D01*
X102502633Y-116534219D01*
X102584777Y-116530488D01*
X102733337Y-116530488D01*
X102733337Y-116337048D01*
X102597050Y-116337048D01*
X102520712Y-116332687D01*
X102464426Y-116321202D01*
X102415365Y-116301879D01*
X102380345Y-116278887D01*
X102353431Y-116249682D01*
X102335832Y-116216147D01*
X102325827Y-116179123D01*
X102322460Y-116140035D01*
X102328867Y-116088121D01*
X102346737Y-116047702D01*
X102375766Y-116016021D01*
X102413746Y-115994067D01*
X102467102Y-115979237D01*
X102540721Y-115973614D01*
X102620143Y-115977625D01*
X102698533Y-115989643D01*
X102859367Y-116032232D01*
X102859367Y-115821207D01*
X102771256Y-115794554D01*
X102687267Y-115776510D01*
X102602179Y-115765794D01*
X102513061Y-115762588D01*
X102406136Y-115768875D01*
X102318888Y-115786219D01*
X102240330Y-115815585D01*
X102178479Y-115853355D01*
X102128447Y-115901972D01*
X102092933Y-115959601D01*
X102071630Y-116024794D01*
X102064265Y-116099094D01*
X102071096Y-116178766D01*
X102090130Y-116243612D01*
X102120135Y-116296564D01*
X102161354Y-116342009D01*
X102212912Y-116380443D01*
X102276390Y-116411969D01*
X102214035Y-116426202D01*
X102159611Y-116447323D01*
X102110691Y-116476269D01*
X102069943Y-116511895D01*
X102036895Y-116554262D01*
X102012516Y-116602662D01*
X101997702Y-116655790D01*
X101992549Y-116716418D01*
G37*
D11*
X167799411Y-101744852D02*
X168370839Y-101744852D01*
X168085125Y-101744852D02*
X168085125Y-100744852D01*
X168085125Y-100744852D02*
X168180363Y-100887709D01*
X168180363Y-100887709D02*
X168275601Y-100982947D01*
X168275601Y-100982947D02*
X168370839Y-101030566D01*
X166370839Y-100840090D02*
X166323220Y-100792471D01*
X166323220Y-100792471D02*
X166227982Y-100744852D01*
X166227982Y-100744852D02*
X165989887Y-100744852D01*
X165989887Y-100744852D02*
X165894649Y-100792471D01*
X165894649Y-100792471D02*
X165847030Y-100840090D01*
X165847030Y-100840090D02*
X165799411Y-100935328D01*
X165799411Y-100935328D02*
X165799411Y-101030566D01*
X165799411Y-101030566D02*
X165847030Y-101173423D01*
X165847030Y-101173423D02*
X166418458Y-101744852D01*
X166418458Y-101744852D02*
X165799411Y-101744852D01*
X123070839Y-100840090D02*
X123023220Y-100792471D01*
X123023220Y-100792471D02*
X122927982Y-100744852D01*
X122927982Y-100744852D02*
X122689887Y-100744852D01*
X122689887Y-100744852D02*
X122594649Y-100792471D01*
X122594649Y-100792471D02*
X122547030Y-100840090D01*
X122547030Y-100840090D02*
X122499411Y-100935328D01*
X122499411Y-100935328D02*
X122499411Y-101030566D01*
X122499411Y-101030566D02*
X122547030Y-101173423D01*
X122547030Y-101173423D02*
X123118458Y-101744852D01*
X123118458Y-101744852D02*
X122499411Y-101744852D01*
X124499411Y-101744852D02*
X125070839Y-101744852D01*
X124785125Y-101744852D02*
X124785125Y-100744852D01*
X124785125Y-100744852D02*
X124880363Y-100887709D01*
X124880363Y-100887709D02*
X124975601Y-100982947D01*
X124975601Y-100982947D02*
X125070839Y-101030566D01*
D12*
%TO.C,REF\u002A\u002A*%
X189633958Y-110667129D02*
G75*
G02*
X182492500Y-110667129I-3570729J0D01*
G01*
X182492500Y-110667129D02*
G75*
G02*
X189633958Y-110667129I3570729J0D01*
G01*
%TD*%
M02*
