G04*
G04 #@! TF.GenerationSoftware,Altium Limited,Altium Designer,23.10.1 (27)*
G04*
G04 Layer_Physical_Order=2*
G04 Layer_Color=16711680*
%FSLAX25Y25*%
%MOIN*%
G70*
G04*
G04 #@! TF.SameCoordinates,E2D8A25C-67B8-4452-94EE-BD48DEAA500E*
G04*
G04*
G04 #@! TF.FilePolarity,Positive*
G04*
G01*
G75*
%ADD29C,0.01000*%
G04:AMPARAMS|DCode=32|XSize=59.06mil|YSize=59.06mil|CornerRadius=14.76mil|HoleSize=0mil|Usage=FLASHONLY|Rotation=90.000|XOffset=0mil|YOffset=0mil|HoleType=Round|Shape=RoundedRectangle|*
%AMROUNDEDRECTD32*
21,1,0.05906,0.02953,0,0,90.0*
21,1,0.02953,0.05906,0,0,90.0*
1,1,0.02953,0.01476,0.01476*
1,1,0.02953,0.01476,-0.01476*
1,1,0.02953,-0.01476,-0.01476*
1,1,0.02953,-0.01476,0.01476*
%
%ADD32ROUNDEDRECTD32*%
G04:AMPARAMS|DCode=33|XSize=59.06mil|YSize=59.06mil|CornerRadius=14.76mil|HoleSize=0mil|Usage=FLASHONLY|Rotation=0.000|XOffset=0mil|YOffset=0mil|HoleType=Round|Shape=RoundedRectangle|*
%AMROUNDEDRECTD33*
21,1,0.05906,0.02953,0,0,0.0*
21,1,0.02953,0.05906,0,0,0.0*
1,1,0.02953,0.01476,-0.01476*
1,1,0.02953,-0.01476,-0.01476*
1,1,0.02953,-0.01476,0.01476*
1,1,0.02953,0.01476,0.01476*
%
%ADD33ROUNDEDRECTD33*%
%ADD34C,0.02000*%
G36*
X36197Y1204D02*
X16586D01*
Y1476D01*
X16424Y2286D01*
X15966Y2973D01*
X15279Y3432D01*
X14469Y3593D01*
X11516D01*
X10706Y3432D01*
X10019Y2973D01*
X9560Y2286D01*
X9399Y1476D01*
Y1204D01*
X1204D01*
Y14517D01*
X1476D01*
X2286Y14678D01*
X2973Y15137D01*
X3432Y15824D01*
X3593Y16634D01*
Y19587D01*
X3432Y20397D01*
X2973Y21084D01*
X2286Y21542D01*
X1476Y21704D01*
X1204D01*
Y48008D01*
X26328D01*
Y47736D01*
X26489Y46926D01*
X26948Y46239D01*
X27635Y45780D01*
X28445Y45619D01*
X31398D01*
X32208Y45780D01*
X32895Y46239D01*
X33353Y46926D01*
X33515Y47736D01*
Y48008D01*
X36197D01*
Y1204D01*
D02*
G37*
%LPC*%
G36*
X21972Y30734D02*
X21335D01*
X20747Y30490D01*
X20297Y30040D01*
X20054Y29452D01*
Y28816D01*
X20297Y28227D01*
X20747Y27777D01*
X21335Y27534D01*
X21667D01*
X23813Y25388D01*
Y21891D01*
X22965Y21043D01*
X21085D01*
X20656Y20957D01*
X20292Y20714D01*
X20292Y20714D01*
X18105Y18527D01*
X17862Y18163D01*
X17776Y17734D01*
X17776Y17733D01*
Y9803D01*
X17541Y9568D01*
X17298Y8980D01*
Y8343D01*
X17541Y7755D01*
X17991Y7305D01*
X18579Y7061D01*
X19216D01*
X19804Y7305D01*
X20032Y7533D01*
X20532Y7326D01*
Y5472D01*
X20297Y5237D01*
X20053Y4649D01*
Y4012D01*
X20297Y3424D01*
X20747Y2974D01*
X21335Y2731D01*
X21972D01*
X22560Y2974D01*
X23010Y3424D01*
X23254Y4012D01*
Y4649D01*
X23010Y5237D01*
X22775Y5472D01*
Y16378D01*
X23010Y16613D01*
X23254Y17201D01*
Y17838D01*
X23062Y18300D01*
X23290Y18800D01*
X23430D01*
X23430Y18800D01*
X23859Y18885D01*
X24223Y19128D01*
X25728Y20633D01*
X25728Y20633D01*
X25971Y20997D01*
X26056Y21426D01*
X26056Y21426D01*
Y25853D01*
X25971Y26282D01*
X25728Y26646D01*
X25728Y26646D01*
X23254Y29120D01*
Y29452D01*
X23010Y30040D01*
X22560Y30490D01*
X21972Y30734D01*
D02*
G37*
%LPD*%
D29*
X23430Y19921D02*
X24935Y21426D01*
Y25853D01*
X21654Y29134D02*
X24935Y25853D01*
X21085Y19921D02*
X23430D01*
X18898Y8661D02*
Y17734D01*
X21085Y19921D01*
X21654Y4331D02*
Y17520D01*
X21654Y17520D01*
X21654Y4331D02*
X21654Y4331D01*
D32*
X37402Y34252D02*
D03*
X12992Y0D02*
D03*
D33*
X0Y18110D02*
D03*
X29921Y49213D02*
D03*
D34*
X21654Y4331D02*
D03*
X22835Y22835D02*
D03*
X19853Y22882D02*
D03*
X18898Y8661D02*
D03*
X31890Y30315D02*
D03*
X29528D02*
D03*
X32087Y14173D02*
D03*
X35039D02*
D03*
X12992Y28346D02*
D03*
X21654Y17520D02*
D03*
X27756Y19488D02*
D03*
X15945Y28346D02*
D03*
X21654Y29134D02*
D03*
X17323Y20276D02*
D03*
X27559Y13150D02*
D03*
M02*
