G04*
G04 #@! TF.GenerationSoftware,Altium Limited,Altium Designer,23.0.1 (38)*
G04*
G04 Layer_Physical_Order=4*
G04 Layer_Color=16777215*
%FSAX25Y25*%
%MOIN*%
G70*
G04*
G04 #@! TF.SameCoordinates,B9DD0259-405E-4331-997F-192D94839516*
G04*
G04*
G04 #@! TF.FilePolarity,Positive*
G04*
G01*
G75*
%ADD101C,0.05906*%
%ADD105C,0.01600*%
G36*
X0391316Y0080468D02*
X0391051Y0080348D01*
X0390815Y0080314D01*
X0390500Y0080630D01*
X0390022Y0080828D01*
X0389505D01*
X0389027Y0080630D01*
X0388662Y0080264D01*
X0388464Y0079786D01*
Y0079269D01*
X0388662Y0078791D01*
X0389027Y0078426D01*
X0389505Y0078228D01*
X0390022D01*
X0390500Y0078426D01*
X0390815Y0078741D01*
X0391051Y0078707D01*
X0391316Y0078588D01*
Y0071806D01*
X0391051Y0071687D01*
X0390815Y0071653D01*
X0390500Y0071968D01*
X0390022Y0072166D01*
X0389505D01*
X0389027Y0071968D01*
X0388662Y0071602D01*
X0388464Y0071125D01*
Y0070608D01*
X0388662Y0070130D01*
X0389027Y0069764D01*
X0389505Y0069566D01*
X0390022D01*
X0390500Y0069764D01*
X0390815Y0070079D01*
X0391051Y0070046D01*
X0391316Y0069926D01*
X0391316Y0063932D01*
X0391051Y0063813D01*
X0390815Y0063779D01*
X0390500Y0064094D01*
X0390022Y0064292D01*
X0389505D01*
X0389027Y0064094D01*
X0388662Y0063728D01*
X0388464Y0063251D01*
Y0062734D01*
X0388662Y0062256D01*
X0389027Y0061890D01*
X0389505Y0061692D01*
X0390022D01*
X0390500Y0061890D01*
X0390815Y0062205D01*
X0391051Y0062172D01*
X0391316Y0062052D01*
Y0056058D01*
X0391051Y0055939D01*
X0390815Y0055905D01*
X0390500Y0056220D01*
X0390022Y0056418D01*
X0389505D01*
X0389027Y0056220D01*
X0388662Y0055854D01*
X0388464Y0055377D01*
Y0054860D01*
X0388662Y0054382D01*
X0389027Y0054016D01*
X0389505Y0053818D01*
X0390022D01*
X0390500Y0054016D01*
X0390815Y0054331D01*
X0391051Y0054298D01*
X0391316Y0054178D01*
Y0048184D01*
X0391051Y0048065D01*
X0390815Y0048031D01*
X0390500Y0048346D01*
X0390022Y0048544D01*
X0389505D01*
X0389027Y0048346D01*
X0388662Y0047980D01*
X0388464Y0047503D01*
Y0046986D01*
X0388662Y0046508D01*
X0389027Y0046142D01*
X0389505Y0045944D01*
X0390022D01*
X0390500Y0046142D01*
X0390815Y0046457D01*
X0391051Y0046424D01*
X0391316Y0046304D01*
Y0040310D01*
X0391051Y0040190D01*
X0390815Y0040157D01*
X0390500Y0040472D01*
X0390022Y0040670D01*
X0389505D01*
X0389027Y0040472D01*
X0388662Y0040106D01*
X0388464Y0039629D01*
Y0039112D01*
X0388662Y0038634D01*
X0389027Y0038268D01*
X0389505Y0038070D01*
X0390022D01*
X0390500Y0038268D01*
X0390815Y0038583D01*
X0391051Y0038550D01*
X0391316Y0038430D01*
Y0032436D01*
X0391051Y0032316D01*
X0390815Y0032283D01*
X0390500Y0032598D01*
X0390022Y0032796D01*
X0389505D01*
X0389027Y0032598D01*
X0388662Y0032232D01*
X0388464Y0031755D01*
Y0031238D01*
X0388662Y0030760D01*
X0389027Y0030394D01*
X0389505Y0030196D01*
X0390022D01*
X0390500Y0030394D01*
X0390815Y0030709D01*
X0391051Y0030676D01*
X0391316Y0030556D01*
Y0024562D01*
X0391051Y0024442D01*
X0390815Y0024409D01*
X0390500Y0024724D01*
X0390022Y0024922D01*
X0389505D01*
X0389027Y0024724D01*
X0388662Y0024358D01*
X0388464Y0023881D01*
Y0023363D01*
X0388662Y0022886D01*
X0389027Y0022520D01*
X0389505Y0022322D01*
X0390022D01*
X0390500Y0022520D01*
X0390815Y0022835D01*
X0391051Y0022802D01*
X0391316Y0022682D01*
Y0016688D01*
X0391051Y0016568D01*
X0390815Y0016535D01*
X0390500Y0016850D01*
X0390022Y0017048D01*
X0389505D01*
X0389027Y0016850D01*
X0388662Y0016484D01*
X0388464Y0016007D01*
Y0015489D01*
X0388662Y0015012D01*
X0389027Y0014646D01*
X0389505Y0014448D01*
X0390022D01*
X0390500Y0014646D01*
X0390815Y0014961D01*
X0391051Y0014928D01*
X0391316Y0014808D01*
Y0008814D01*
X0391051Y0008694D01*
X0390815Y0008661D01*
X0390500Y0008976D01*
X0390022Y0009174D01*
X0389505D01*
X0389027Y0008976D01*
X0388662Y0008610D01*
X0388464Y0008133D01*
Y0007615D01*
X0388662Y0007138D01*
X0389027Y0006772D01*
X0389505Y0006574D01*
X0390022D01*
X0390500Y0006772D01*
X0390815Y0007087D01*
X0391051Y0007054D01*
X0391316Y0006934D01*
Y0001204D01*
X0308837Y0001204D01*
X0308646Y0001666D01*
X0309047Y0002067D01*
X0309667Y0003142D01*
X0309988Y0004340D01*
Y0005581D01*
X0309667Y0006780D01*
X0309047Y0007854D01*
X0308169Y0008732D01*
X0307095Y0009352D01*
X0305896Y0009673D01*
X0304655D01*
X0303457Y0009352D01*
X0302382Y0008732D01*
X0301505Y0007854D01*
X0300884Y0006780D01*
X0300563Y0005581D01*
Y0004340D01*
X0300884Y0003142D01*
X0301505Y0002067D01*
X0301905Y0001666D01*
X0301714Y0001204D01*
X0288837D01*
X0288646Y0001666D01*
X0289047Y0002067D01*
X0289667Y0003142D01*
X0289988Y0004340D01*
Y0005581D01*
X0289667Y0006780D01*
X0289047Y0007854D01*
X0288169Y0008732D01*
X0287095Y0009352D01*
X0285896Y0009673D01*
X0284655D01*
X0283457Y0009352D01*
X0282382Y0008732D01*
X0281505Y0007854D01*
X0280884Y0006780D01*
X0280563Y0005581D01*
Y0004340D01*
X0280884Y0003142D01*
X0281505Y0002067D01*
X0281906Y0001666D01*
X0281714Y0001204D01*
X0269467D01*
X0269276Y0001666D01*
X0269676Y0002067D01*
X0270297Y0003142D01*
X0270618Y0004340D01*
Y0005581D01*
X0270297Y0006780D01*
X0269676Y0007854D01*
X0268799Y0008732D01*
X0267724Y0009352D01*
X0266526Y0009673D01*
X0265285D01*
X0264087Y0009352D01*
X0263012Y0008732D01*
X0262135Y0007854D01*
X0261514Y0006780D01*
X0261193Y0005581D01*
Y0004340D01*
X0261514Y0003142D01*
X0262135Y0002067D01*
X0262535Y0001666D01*
X0262344Y0001204D01*
X0249467D01*
X0249276Y0001666D01*
X0249676Y0002067D01*
X0250297Y0003142D01*
X0250618Y0004340D01*
Y0005581D01*
X0250297Y0006780D01*
X0249676Y0007854D01*
X0248799Y0008732D01*
X0247725Y0009352D01*
X0246526Y0009673D01*
X0245285D01*
X0244087Y0009352D01*
X0243012Y0008732D01*
X0242134Y0007854D01*
X0241514Y0006780D01*
X0241193Y0005581D01*
Y0004340D01*
X0241514Y0003142D01*
X0242134Y0002067D01*
X0242535Y0001666D01*
X0242344Y0001204D01*
X0230097D01*
X0229906Y0001666D01*
X0230306Y0002067D01*
X0230927Y0003142D01*
X0231248Y0004340D01*
Y0005581D01*
X0230927Y0006780D01*
X0230306Y0007854D01*
X0229429Y0008732D01*
X0228354Y0009352D01*
X0227156Y0009673D01*
X0225915D01*
X0224716Y0009352D01*
X0223642Y0008732D01*
X0222764Y0007854D01*
X0222144Y0006780D01*
X0221823Y0005581D01*
Y0004340D01*
X0222144Y0003142D01*
X0222764Y0002067D01*
X0223165Y0001666D01*
X0222974Y0001204D01*
X0210097D01*
X0209906Y0001666D01*
X0210306Y0002067D01*
X0210927Y0003142D01*
X0211248Y0004340D01*
Y0005581D01*
X0210927Y0006780D01*
X0210306Y0007854D01*
X0209429Y0008732D01*
X0208354Y0009352D01*
X0207156Y0009673D01*
X0205915D01*
X0204716Y0009352D01*
X0203642Y0008732D01*
X0202764Y0007854D01*
X0202144Y0006780D01*
X0201823Y0005581D01*
Y0004340D01*
X0202144Y0003142D01*
X0202764Y0002067D01*
X0203165Y0001666D01*
X0202974Y0001204D01*
X0199360D01*
Y0041677D01*
X0199860Y0041777D01*
X0199981Y0041486D01*
X0200346Y0041120D01*
X0200824Y0040922D01*
X0201341D01*
X0201819Y0041120D01*
X0202185Y0041486D01*
X0202383Y0041963D01*
Y0042481D01*
X0202185Y0042958D01*
X0201819Y0043324D01*
X0201341Y0043522D01*
X0200824D01*
X0200346Y0043324D01*
X0199981Y0042958D01*
X0199860Y0042667D01*
X0199360Y0042767D01*
Y0044094D01*
X0199393Y0044144D01*
X0216093D01*
Y0021949D01*
X0216251Y0021566D01*
X0216634Y0021408D01*
X0222255D01*
X0222323Y0021436D01*
X0222395Y0021426D01*
X0222508Y0021512D01*
X0222638Y0021566D01*
X0223128Y0021703D01*
X0223642Y0021190D01*
X0224716Y0020569D01*
X0225915Y0020248D01*
X0227156D01*
X0228354Y0020569D01*
X0229429Y0021190D01*
X0229943Y0021703D01*
X0230433Y0021566D01*
X0230563Y0021512D01*
X0230676Y0021426D01*
X0230748Y0021436D01*
X0230816Y0021408D01*
X0241625D01*
X0241693Y0021436D01*
X0241765Y0021426D01*
X0241878Y0021512D01*
X0242008Y0021566D01*
X0242498Y0021703D01*
X0243012Y0021190D01*
X0244087Y0020569D01*
X0245285Y0020248D01*
X0246526D01*
X0247725Y0020569D01*
X0248799Y0021190D01*
X0249313Y0021703D01*
X0249803Y0021566D01*
X0249934Y0021512D01*
X0250046Y0021426D01*
X0250118Y0021436D01*
X0250186Y0021408D01*
X0261625D01*
X0261693Y0021436D01*
X0261766Y0021426D01*
X0261877Y0021512D01*
X0262008Y0021566D01*
X0262498Y0021703D01*
X0263012Y0021190D01*
X0264087Y0020569D01*
X0265285Y0020248D01*
X0266526D01*
X0267724Y0020569D01*
X0268799Y0021190D01*
X0269313Y0021703D01*
X0269803Y0021566D01*
X0269934Y0021512D01*
X0270046Y0021426D01*
X0270118Y0021436D01*
X0270186Y0021408D01*
X0280995D01*
X0281063Y0021436D01*
X0281136Y0021426D01*
X0281248Y0021512D01*
X0281378Y0021566D01*
X0281868Y0021703D01*
X0282382Y0021190D01*
X0283457Y0020569D01*
X0284655Y0020248D01*
X0285896D01*
X0287095Y0020569D01*
X0288169Y0021190D01*
X0288683Y0021703D01*
X0289173Y0021566D01*
X0289303Y0021512D01*
X0289416Y0021426D01*
X0289488Y0021436D01*
X0289556Y0021408D01*
X0300995D01*
X0301063Y0021436D01*
X0301135Y0021426D01*
X0301248Y0021512D01*
X0301378Y0021566D01*
X0301868Y0021703D01*
X0302382Y0021190D01*
X0303457Y0020569D01*
X0304655Y0020248D01*
X0305896D01*
X0307095Y0020569D01*
X0308169Y0021190D01*
X0308683Y0021703D01*
X0309173Y0021566D01*
X0309303Y0021512D01*
X0309416Y0021426D01*
X0309488Y0021436D01*
X0309556Y0021408D01*
X0340453D01*
X0340835Y0021566D01*
X0340994Y0021949D01*
Y0048985D01*
X0340959Y0049069D01*
X0340964Y0049161D01*
X0340883Y0049253D01*
X0340835Y0049367D01*
X0340557Y0049862D01*
X0340670Y0050135D01*
Y0050652D01*
X0340557Y0050925D01*
X0340835Y0051420D01*
X0340883Y0051534D01*
X0340964Y0051626D01*
X0340959Y0051718D01*
X0340994Y0051803D01*
Y0052528D01*
X0340959Y0052613D01*
X0340964Y0052705D01*
X0340883Y0052797D01*
X0340835Y0052911D01*
X0340557Y0053406D01*
X0340670Y0053678D01*
Y0054196D01*
X0340557Y0054468D01*
X0340835Y0054963D01*
X0340883Y0055077D01*
X0340964Y0055169D01*
X0340959Y0055261D01*
X0340994Y0055346D01*
Y0059769D01*
X0340934Y0059915D01*
X0340903Y0060070D01*
X0340857Y0060100D01*
X0340835Y0060152D01*
X0340754Y0060433D01*
X0340835Y0060715D01*
X0340857Y0060766D01*
X0340903Y0060796D01*
X0340934Y0060951D01*
X0340994Y0061097D01*
Y0061185D01*
X0341488Y0061398D01*
X0341966Y0061200D01*
X0342483D01*
X0342961Y0061398D01*
X0343326Y0061764D01*
X0343524Y0062241D01*
Y0062759D01*
X0343326Y0063236D01*
X0343093Y0063470D01*
X0343009Y0063780D01*
X0343093Y0064089D01*
X0343326Y0064323D01*
X0343524Y0064801D01*
Y0065318D01*
X0343326Y0065795D01*
X0342961Y0066161D01*
X0342483Y0066359D01*
X0341966D01*
X0341488Y0066161D01*
X0340994Y0066374D01*
Y0068882D01*
X0341494Y0069089D01*
X0341508Y0069075D01*
X0341986Y0068877D01*
X0342503D01*
X0342981Y0069075D01*
X0343346Y0069441D01*
X0343544Y0069919D01*
Y0070436D01*
X0343346Y0070914D01*
X0342981Y0071279D01*
X0342503Y0071477D01*
X0341986D01*
X0341508Y0071279D01*
X0341494Y0071266D01*
X0340994Y0071473D01*
Y0077165D01*
X0340835Y0077548D01*
X0340453Y0077707D01*
X0284830Y0077706D01*
X0284765Y0077680D01*
X0284696Y0077690D01*
X0284581Y0077603D01*
X0284447Y0077548D01*
X0284427Y0077499D01*
X0284409Y0077474D01*
X0284365Y0077442D01*
X0284293Y0077321D01*
X0284203Y0077201D01*
X0283732Y0077281D01*
X0283723Y0077285D01*
X0283206D01*
X0283197Y0077281D01*
X0282727Y0077201D01*
X0282636Y0077321D01*
X0282565Y0077442D01*
X0282521Y0077474D01*
X0282502Y0077499D01*
X0282482Y0077548D01*
X0282348Y0077603D01*
X0282233Y0077690D01*
X0282164Y0077680D01*
X0282099Y0077706D01*
X0263308D01*
X0262925Y0077548D01*
X0262767Y0077165D01*
Y0076916D01*
X0262651Y0076637D01*
X0262438Y0076424D01*
X0262159Y0076308D01*
X0261857D01*
X0261578Y0076424D01*
X0261365Y0076637D01*
X0261249Y0076916D01*
Y0077165D01*
X0261091Y0077548D01*
X0260708Y0077706D01*
X0259686D01*
X0259551Y0077651D01*
X0259488Y0077803D01*
X0259122Y0078169D01*
X0258644Y0078367D01*
X0258127D01*
X0257649Y0078169D01*
X0257284Y0077803D01*
X0257221Y0077651D01*
X0257086Y0077706D01*
X0246576D01*
Y0077719D01*
X0246378Y0078197D01*
X0246012Y0078563D01*
X0245534Y0078761D01*
X0245017D01*
X0244539Y0078563D01*
X0244174Y0078197D01*
X0243976Y0077719D01*
Y0077706D01*
X0157335Y0077706D01*
X0157242Y0077668D01*
X0157141Y0077671D01*
X0157058Y0077592D01*
X0156952Y0077548D01*
X0156914Y0077455D01*
X0156841Y0077385D01*
X0156717Y0077108D01*
X0156656Y0076911D01*
X0156139D01*
X0156078Y0077108D01*
X0155955Y0077385D01*
X0155882Y0077455D01*
X0155843Y0077548D01*
X0155737Y0077592D01*
X0155654Y0077671D01*
X0155553Y0077668D01*
X0155460Y0077706D01*
X0146642D01*
X0146543Y0077665D01*
X0146435D01*
X0146359Y0077589D01*
X0146260Y0077548D01*
X0146219Y0077449D01*
X0146142Y0077372D01*
X0145982Y0076986D01*
X0145731Y0077090D01*
X0145214D01*
X0144963Y0076986D01*
X0144802Y0077372D01*
X0144726Y0077449D01*
X0144685Y0077548D01*
X0144586Y0077589D01*
X0144509Y0077665D01*
X0144402D01*
X0144302Y0077706D01*
X0134449D01*
X0134066Y0077548D01*
X0133908Y0077165D01*
Y0076397D01*
X0133959Y0076273D01*
X0133779Y0076199D01*
X0133414Y0075833D01*
X0133216Y0075355D01*
Y0074838D01*
X0133414Y0074360D01*
X0133779Y0073994D01*
X0133959Y0073920D01*
X0133908Y0073797D01*
Y0072463D01*
X0133959Y0072340D01*
X0133779Y0072265D01*
X0133414Y0071900D01*
X0133216Y0071422D01*
Y0070905D01*
X0133414Y0070427D01*
X0133779Y0070061D01*
X0133959Y0069987D01*
X0133908Y0069863D01*
Y0027606D01*
X0133929Y0027555D01*
X0133918Y0027501D01*
X0134006Y0027370D01*
X0134066Y0027224D01*
X0134154Y0026741D01*
X0134134Y0026721D01*
X0133936Y0026243D01*
Y0025726D01*
X0134134Y0025248D01*
X0134154Y0025228D01*
X0134066Y0024745D01*
X0134006Y0024599D01*
X0133918Y0024468D01*
X0133929Y0024413D01*
X0133908Y0024362D01*
Y0015531D01*
X0133822Y0015473D01*
X0133304D01*
X0132827Y0015275D01*
X0132461Y0014910D01*
X0132263Y0014432D01*
Y0013915D01*
X0132461Y0013437D01*
X0132827Y0013071D01*
X0133304Y0012873D01*
X0133822D01*
X0133908Y0012816D01*
Y0009074D01*
X0133408Y0008740D01*
X0133261Y0008801D01*
X0132744D01*
X0132266Y0008603D01*
X0131900Y0008237D01*
X0131702Y0007759D01*
Y0007242D01*
X0131900Y0006764D01*
X0132266Y0006399D01*
X0132744Y0006201D01*
X0133261D01*
X0133408Y0006262D01*
X0133908Y0005928D01*
Y0001204D01*
X0001204Y0001204D01*
X0001204Y0091316D01*
X0391316Y0091316D01*
Y0080468D01*
D02*
G37*
G36*
X0340453Y0061097D02*
X0339953Y0060998D01*
X0339882Y0061169D01*
X0339516Y0061535D01*
X0339038Y0061733D01*
X0338521D01*
X0338043Y0061535D01*
X0337677Y0061169D01*
X0337479Y0060692D01*
Y0060175D01*
X0337677Y0059697D01*
X0338043Y0059331D01*
X0338521Y0059133D01*
X0339038D01*
X0339516Y0059331D01*
X0339882Y0059697D01*
X0339953Y0059868D01*
X0340453Y0059769D01*
Y0055346D01*
X0339953Y0055103D01*
X0339629Y0055237D01*
X0339111D01*
X0338634Y0055039D01*
X0338268Y0054673D01*
X0338070Y0054196D01*
Y0053678D01*
X0338268Y0053201D01*
X0338634Y0052835D01*
X0339111Y0052637D01*
X0339629D01*
X0339953Y0052771D01*
X0340453Y0052528D01*
Y0051803D01*
X0339953Y0051560D01*
X0339629Y0051694D01*
X0339111D01*
X0338634Y0051496D01*
X0338268Y0051130D01*
X0338070Y0050652D01*
Y0050135D01*
X0338268Y0049657D01*
X0338634Y0049292D01*
X0339111Y0049094D01*
X0339629D01*
X0339953Y0049228D01*
X0340453Y0048985D01*
Y0021949D01*
X0309556D01*
X0309267Y0022449D01*
X0309667Y0023142D01*
X0309988Y0024340D01*
Y0025581D01*
X0309667Y0026780D01*
X0309047Y0027854D01*
X0308169Y0028732D01*
X0307095Y0029352D01*
X0305896Y0029673D01*
X0304655D01*
X0303457Y0029352D01*
X0302382Y0028732D01*
X0301505Y0027854D01*
X0300884Y0026780D01*
X0300563Y0025581D01*
Y0024340D01*
X0300884Y0023142D01*
X0301284Y0022449D01*
X0300995Y0021949D01*
X0289556D01*
X0289267Y0022449D01*
X0289667Y0023142D01*
X0289988Y0024340D01*
Y0025581D01*
X0289667Y0026780D01*
X0289047Y0027854D01*
X0288169Y0028732D01*
X0287095Y0029352D01*
X0285896Y0029673D01*
X0284655D01*
X0283457Y0029352D01*
X0282382Y0028732D01*
X0281505Y0027854D01*
X0280884Y0026780D01*
X0280563Y0025581D01*
Y0024340D01*
X0280884Y0023142D01*
X0281284Y0022449D01*
X0280995Y0021949D01*
X0270186D01*
X0269897Y0022449D01*
X0270297Y0023142D01*
X0270618Y0024340D01*
Y0025581D01*
X0270297Y0026780D01*
X0269676Y0027854D01*
X0268799Y0028732D01*
X0267724Y0029352D01*
X0266526Y0029673D01*
X0265285D01*
X0264087Y0029352D01*
X0263012Y0028732D01*
X0262135Y0027854D01*
X0261514Y0026780D01*
X0261193Y0025581D01*
Y0024340D01*
X0261514Y0023142D01*
X0261914Y0022449D01*
X0261625Y0021949D01*
X0250186D01*
X0249897Y0022449D01*
X0250297Y0023142D01*
X0250618Y0024340D01*
Y0025581D01*
X0250297Y0026780D01*
X0249676Y0027854D01*
X0248799Y0028732D01*
X0247725Y0029352D01*
X0246526Y0029673D01*
X0245285D01*
X0244087Y0029352D01*
X0243012Y0028732D01*
X0242134Y0027854D01*
X0241514Y0026780D01*
X0241193Y0025581D01*
Y0024340D01*
X0241514Y0023142D01*
X0241914Y0022449D01*
X0241625Y0021949D01*
X0230816D01*
X0230527Y0022449D01*
X0230927Y0023142D01*
X0231248Y0024340D01*
Y0025581D01*
X0230927Y0026780D01*
X0230306Y0027854D01*
X0229429Y0028732D01*
X0228354Y0029352D01*
X0227156Y0029673D01*
X0225915D01*
X0224716Y0029352D01*
X0223642Y0028732D01*
X0222764Y0027854D01*
X0222144Y0026780D01*
X0221823Y0025581D01*
Y0024340D01*
X0222144Y0023142D01*
X0222544Y0022449D01*
X0222255Y0021949D01*
X0216634D01*
Y0044685D01*
X0194637D01*
X0194537Y0045185D01*
X0194903Y0045337D01*
X0195269Y0045702D01*
X0195467Y0046180D01*
Y0046697D01*
X0195269Y0047175D01*
X0194903Y0047541D01*
X0194425Y0047739D01*
X0193908D01*
X0193430Y0047541D01*
X0193352Y0047463D01*
X0193008Y0047220D01*
X0192699Y0047463D01*
X0192603Y0047559D01*
X0192125Y0047757D01*
X0191608D01*
X0191130Y0047559D01*
X0191044Y0047472D01*
X0190717Y0047229D01*
X0190390Y0047472D01*
X0190303Y0047559D01*
X0189825Y0047757D01*
X0189308D01*
X0188830Y0047559D01*
X0188465Y0047193D01*
X0188267Y0046715D01*
Y0046198D01*
X0188465Y0045720D01*
X0188830Y0045355D01*
X0189308Y0045157D01*
X0189240Y0044685D01*
X0189075D01*
Y0044513D01*
X0188987Y0044477D01*
X0188829Y0044094D01*
Y0033254D01*
X0188852Y0033198D01*
X0188841Y0033138D01*
X0188929Y0033013D01*
X0188987Y0032872D01*
X0189044Y0032848D01*
X0189075Y0032804D01*
Y0030949D01*
X0189044Y0030905D01*
X0188987Y0030881D01*
X0188929Y0030740D01*
X0188841Y0030615D01*
X0188852Y0030555D01*
X0188829Y0030499D01*
Y0021768D01*
X0188876Y0021655D01*
X0188883Y0021533D01*
X0188952Y0021471D01*
X0188987Y0021385D01*
X0189075Y0021349D01*
Y0020383D01*
X0188987Y0020347D01*
X0188952Y0020261D01*
X0188883Y0020199D01*
X0188876Y0020077D01*
X0188829Y0019964D01*
Y0010859D01*
X0188894Y0010701D01*
X0188936Y0010535D01*
Y0010528D01*
X0188894Y0010362D01*
X0188829Y0010204D01*
Y0001204D01*
X0188329Y0001204D01*
X0134449Y0001204D01*
Y0013221D01*
X0134665Y0013437D01*
X0134863Y0013915D01*
Y0014432D01*
X0134665Y0014910D01*
X0134449Y0015126D01*
Y0024362D01*
X0134949Y0024696D01*
X0134978Y0024684D01*
X0135495D01*
X0135973Y0024882D01*
X0136338Y0025248D01*
X0136536Y0025726D01*
Y0026243D01*
X0136338Y0026721D01*
X0135973Y0027086D01*
X0135495Y0027284D01*
X0134978D01*
X0134949Y0027272D01*
X0134449Y0027606D01*
Y0069863D01*
X0134774D01*
X0135252Y0070061D01*
X0135618Y0070427D01*
X0135816Y0070905D01*
Y0071422D01*
X0135618Y0071900D01*
X0135252Y0072265D01*
X0134774Y0072463D01*
X0134449D01*
Y0073797D01*
X0134774D01*
X0135252Y0073994D01*
X0135618Y0074360D01*
X0135816Y0074838D01*
Y0075355D01*
X0135618Y0075833D01*
X0135252Y0076199D01*
X0134774Y0076397D01*
X0134449D01*
Y0077165D01*
X0144302D01*
X0144509Y0076665D01*
X0144370Y0076526D01*
X0144173Y0076048D01*
Y0075531D01*
X0144370Y0075053D01*
X0144736Y0074688D01*
X0145214Y0074490D01*
X0145731D01*
X0146209Y0074688D01*
X0146574Y0075053D01*
X0146773Y0075531D01*
Y0076048D01*
X0146574Y0076526D01*
X0146435Y0076665D01*
X0146642Y0077165D01*
X0155460D01*
X0155583Y0076888D01*
X0155614Y0076665D01*
X0155296Y0076347D01*
X0155098Y0075870D01*
Y0075352D01*
X0155296Y0074875D01*
X0155661Y0074509D01*
X0156139Y0074311D01*
X0156656D01*
X0157134Y0074509D01*
X0157500Y0074875D01*
X0157698Y0075352D01*
Y0075870D01*
X0157500Y0076347D01*
X0157182Y0076665D01*
X0157212Y0076888D01*
X0157335Y0077165D01*
X0243991Y0077165D01*
X0244174Y0076724D01*
X0244539Y0076358D01*
X0245017Y0076161D01*
X0245534D01*
X0246012Y0076358D01*
X0246378Y0076724D01*
X0246560Y0077165D01*
X0257086D01*
Y0076808D01*
X0257284Y0076331D01*
X0257649Y0075965D01*
X0258127Y0075767D01*
X0258644D01*
X0259122Y0075965D01*
X0259488Y0076331D01*
X0259686Y0076808D01*
Y0077165D01*
X0260708D01*
Y0076808D01*
X0260906Y0076331D01*
X0261272Y0075965D01*
X0261749Y0075767D01*
X0262266D01*
X0262744Y0075965D01*
X0263110Y0076331D01*
X0263308Y0076808D01*
Y0077165D01*
X0282099D01*
X0282244Y0076922D01*
X0282339Y0076665D01*
X0282165Y0076244D01*
Y0075727D01*
X0282363Y0075249D01*
X0282728Y0074883D01*
X0283206Y0074685D01*
X0283723D01*
X0284201Y0074883D01*
X0284567Y0075249D01*
X0284765Y0075727D01*
Y0076244D01*
X0284590Y0076665D01*
X0284685Y0076922D01*
X0284830Y0077165D01*
X0340453Y0077165D01*
Y0061097D01*
D02*
G37*
G36*
X0198819Y0001204D02*
X0189370D01*
Y0010204D01*
X0189842Y0010273D01*
X0190040Y0009795D01*
X0190405Y0009429D01*
X0190883Y0009232D01*
X0191400D01*
X0191878Y0009429D01*
X0192244Y0009795D01*
X0192442Y0010273D01*
Y0010790D01*
X0192244Y0011268D01*
X0191878Y0011634D01*
X0191400Y0011831D01*
X0190883D01*
X0190405Y0011634D01*
X0190040Y0011268D01*
X0189842Y0010790D01*
X0189370Y0010859D01*
Y0019964D01*
X0189735Y0020092D01*
X0189870Y0020102D01*
X0190208Y0019764D01*
X0190686Y0019566D01*
X0191203D01*
X0191681Y0019764D01*
X0192047Y0020130D01*
X0192245Y0020608D01*
Y0021125D01*
X0192047Y0021602D01*
X0191681Y0021968D01*
X0191203Y0022166D01*
X0190686D01*
X0190208Y0021968D01*
X0189870Y0021630D01*
X0189735Y0021640D01*
X0189370Y0021768D01*
Y0030499D01*
X0189584Y0030635D01*
X0189870Y0030746D01*
X0190279Y0030576D01*
X0190796D01*
X0191274Y0030774D01*
X0191640Y0031140D01*
X0191838Y0031618D01*
Y0032135D01*
X0191640Y0032613D01*
X0191274Y0032978D01*
X0190796Y0033176D01*
X0190279D01*
X0189870Y0033007D01*
X0189584Y0033118D01*
X0189370Y0033254D01*
Y0044094D01*
X0198819D01*
Y0001204D01*
D02*
G37*
%LPC*%
G36*
X0242828Y0080848D02*
X0242311D01*
X0241833Y0080650D01*
X0241467Y0080285D01*
X0241269Y0079807D01*
Y0079290D01*
X0241467Y0078812D01*
X0241833Y0078446D01*
X0242311Y0078248D01*
X0242828D01*
X0243306Y0078446D01*
X0243671Y0078812D01*
X0243869Y0079290D01*
Y0079807D01*
X0243671Y0080285D01*
X0243306Y0080650D01*
X0242828Y0080848D01*
D02*
G37*
G36*
X0234954D02*
X0234437D01*
X0233959Y0080650D01*
X0233593Y0080285D01*
X0233395Y0079807D01*
Y0079290D01*
X0233593Y0078812D01*
X0233959Y0078446D01*
X0234437Y0078248D01*
X0234954D01*
X0235432Y0078446D01*
X0235797Y0078812D01*
X0235995Y0079290D01*
Y0079807D01*
X0235797Y0080285D01*
X0235432Y0080650D01*
X0234954Y0080848D01*
D02*
G37*
G36*
X0227080D02*
X0226563D01*
X0226085Y0080650D01*
X0225719Y0080285D01*
X0225521Y0079807D01*
Y0079290D01*
X0225719Y0078812D01*
X0226085Y0078446D01*
X0226563Y0078248D01*
X0227080D01*
X0227558Y0078446D01*
X0227923Y0078812D01*
X0228121Y0079290D01*
Y0079807D01*
X0227923Y0080285D01*
X0227558Y0080650D01*
X0227080Y0080848D01*
D02*
G37*
G36*
X0219206D02*
X0218689D01*
X0218211Y0080650D01*
X0217845Y0080285D01*
X0217647Y0079807D01*
Y0079290D01*
X0217845Y0078812D01*
X0218211Y0078446D01*
X0218689Y0078248D01*
X0219206D01*
X0219684Y0078446D01*
X0220049Y0078812D01*
X0220247Y0079290D01*
Y0079807D01*
X0220049Y0080285D01*
X0219684Y0080650D01*
X0219206Y0080848D01*
D02*
G37*
G36*
X0211332D02*
X0210815D01*
X0210337Y0080650D01*
X0209971Y0080285D01*
X0209773Y0079807D01*
Y0079290D01*
X0209971Y0078812D01*
X0210337Y0078446D01*
X0210815Y0078248D01*
X0211332D01*
X0211810Y0078446D01*
X0212175Y0078812D01*
X0212373Y0079290D01*
Y0079807D01*
X0212175Y0080285D01*
X0211810Y0080650D01*
X0211332Y0080848D01*
D02*
G37*
G36*
X0203458D02*
X0202941D01*
X0202463Y0080650D01*
X0202097Y0080285D01*
X0201899Y0079807D01*
Y0079290D01*
X0202097Y0078812D01*
X0202463Y0078446D01*
X0202941Y0078248D01*
X0203458D01*
X0203936Y0078446D01*
X0204301Y0078812D01*
X0204499Y0079290D01*
Y0079807D01*
X0204301Y0080285D01*
X0203936Y0080650D01*
X0203458Y0080848D01*
D02*
G37*
G36*
X0195584D02*
X0195067D01*
X0194589Y0080650D01*
X0194223Y0080285D01*
X0194025Y0079807D01*
Y0079290D01*
X0194223Y0078812D01*
X0194589Y0078446D01*
X0195067Y0078248D01*
X0195584D01*
X0196062Y0078446D01*
X0196427Y0078812D01*
X0196625Y0079290D01*
Y0079807D01*
X0196427Y0080285D01*
X0196062Y0080650D01*
X0195584Y0080848D01*
D02*
G37*
G36*
X0187710D02*
X0187193D01*
X0186715Y0080650D01*
X0186349Y0080285D01*
X0186151Y0079807D01*
Y0079290D01*
X0186349Y0078812D01*
X0186715Y0078446D01*
X0187193Y0078248D01*
X0187710D01*
X0188188Y0078446D01*
X0188553Y0078812D01*
X0188751Y0079290D01*
Y0079807D01*
X0188553Y0080285D01*
X0188188Y0080650D01*
X0187710Y0080848D01*
D02*
G37*
G36*
X0179836D02*
X0179319D01*
X0178841Y0080650D01*
X0178475Y0080285D01*
X0178277Y0079807D01*
Y0079290D01*
X0178475Y0078812D01*
X0178841Y0078446D01*
X0179319Y0078248D01*
X0179836D01*
X0180314Y0078446D01*
X0180679Y0078812D01*
X0180877Y0079290D01*
Y0079807D01*
X0180679Y0080285D01*
X0180314Y0080650D01*
X0179836Y0080848D01*
D02*
G37*
G36*
X0171962D02*
X0171445D01*
X0170967Y0080650D01*
X0170601Y0080285D01*
X0170403Y0079807D01*
Y0079290D01*
X0170601Y0078812D01*
X0170967Y0078446D01*
X0171445Y0078248D01*
X0171962D01*
X0172440Y0078446D01*
X0172805Y0078812D01*
X0173003Y0079290D01*
Y0079807D01*
X0172805Y0080285D01*
X0172440Y0080650D01*
X0171962Y0080848D01*
D02*
G37*
G36*
X0166844D02*
X0166326D01*
X0165849Y0080650D01*
X0165483Y0080285D01*
X0165285Y0079807D01*
Y0079290D01*
X0165483Y0078812D01*
X0165849Y0078446D01*
X0166326Y0078248D01*
X0166844D01*
X0167321Y0078446D01*
X0167687Y0078812D01*
X0167885Y0079290D01*
Y0079807D01*
X0167687Y0080285D01*
X0167321Y0080650D01*
X0166844Y0080848D01*
D02*
G37*
G36*
X0161725D02*
X0161208D01*
X0160731Y0080650D01*
X0160365Y0080285D01*
X0160167Y0079807D01*
Y0079290D01*
X0160365Y0078812D01*
X0160731Y0078446D01*
X0161208Y0078248D01*
X0161725D01*
X0162203Y0078446D01*
X0162569Y0078812D01*
X0162767Y0079290D01*
Y0079807D01*
X0162569Y0080285D01*
X0162203Y0080650D01*
X0161725Y0080848D01*
D02*
G37*
G36*
X0156607D02*
X0156090D01*
X0155612Y0080650D01*
X0155247Y0080285D01*
X0155049Y0079807D01*
Y0079290D01*
X0155247Y0078812D01*
X0155612Y0078446D01*
X0156090Y0078248D01*
X0156607D01*
X0157085Y0078446D01*
X0157451Y0078812D01*
X0157649Y0079290D01*
Y0079807D01*
X0157451Y0080285D01*
X0157085Y0080650D01*
X0156607Y0080848D01*
D02*
G37*
G36*
X0072495D02*
X0071978D01*
X0071500Y0080650D01*
X0071134Y0080285D01*
X0070936Y0079807D01*
Y0079290D01*
X0071134Y0078812D01*
X0071500Y0078446D01*
X0071978Y0078248D01*
X0072495D01*
X0072973Y0078446D01*
X0073338Y0078812D01*
X0073536Y0079290D01*
Y0079807D01*
X0073338Y0080285D01*
X0072973Y0080650D01*
X0072495Y0080848D01*
D02*
G37*
G36*
X0067377D02*
X0066860D01*
X0066382Y0080650D01*
X0066016Y0080285D01*
X0065818Y0079807D01*
Y0079290D01*
X0066016Y0078812D01*
X0066382Y0078446D01*
X0066860Y0078248D01*
X0067377D01*
X0067854Y0078446D01*
X0068220Y0078812D01*
X0068418Y0079290D01*
Y0079807D01*
X0068220Y0080285D01*
X0067854Y0080650D01*
X0067377Y0080848D01*
D02*
G37*
G36*
X0062259D02*
X0061741D01*
X0061264Y0080650D01*
X0060898Y0080285D01*
X0060700Y0079807D01*
Y0079290D01*
X0060898Y0078812D01*
X0061264Y0078446D01*
X0061741Y0078248D01*
X0062259D01*
X0062736Y0078446D01*
X0063102Y0078812D01*
X0063300Y0079290D01*
Y0079807D01*
X0063102Y0080285D01*
X0062736Y0080650D01*
X0062259Y0080848D01*
D02*
G37*
G36*
X0057140D02*
X0056623D01*
X0056146Y0080650D01*
X0055780Y0080285D01*
X0055582Y0079807D01*
Y0079290D01*
X0055780Y0078812D01*
X0056146Y0078446D01*
X0056623Y0078248D01*
X0057140D01*
X0057618Y0078446D01*
X0057984Y0078812D01*
X0058182Y0079290D01*
Y0079807D01*
X0057984Y0080285D01*
X0057618Y0080650D01*
X0057140Y0080848D01*
D02*
G37*
G36*
X0049266D02*
X0048749D01*
X0048272Y0080650D01*
X0047906Y0080285D01*
X0047708Y0079807D01*
Y0079290D01*
X0047906Y0078812D01*
X0048272Y0078446D01*
X0048749Y0078248D01*
X0049266D01*
X0049744Y0078446D01*
X0050110Y0078812D01*
X0050308Y0079290D01*
Y0079807D01*
X0050110Y0080285D01*
X0049744Y0080650D01*
X0049266Y0080848D01*
D02*
G37*
G36*
X0041392D02*
X0040875D01*
X0040398Y0080650D01*
X0040032Y0080285D01*
X0039834Y0079807D01*
Y0079290D01*
X0040032Y0078812D01*
X0040398Y0078446D01*
X0040875Y0078248D01*
X0041392D01*
X0041870Y0078446D01*
X0042236Y0078812D01*
X0042434Y0079290D01*
Y0079807D01*
X0042236Y0080285D01*
X0041870Y0080650D01*
X0041392Y0080848D01*
D02*
G37*
G36*
X0033518D02*
X0033001D01*
X0032523Y0080650D01*
X0032158Y0080285D01*
X0031960Y0079807D01*
Y0079290D01*
X0032158Y0078812D01*
X0032523Y0078446D01*
X0033001Y0078248D01*
X0033518D01*
X0033996Y0078446D01*
X0034362Y0078812D01*
X0034560Y0079290D01*
Y0079807D01*
X0034362Y0080285D01*
X0033996Y0080650D01*
X0033518Y0080848D01*
D02*
G37*
G36*
X0025644D02*
X0025127D01*
X0024649Y0080650D01*
X0024284Y0080285D01*
X0024086Y0079807D01*
Y0079290D01*
X0024284Y0078812D01*
X0024649Y0078446D01*
X0025127Y0078248D01*
X0025644D01*
X0026122Y0078446D01*
X0026488Y0078812D01*
X0026686Y0079290D01*
Y0079807D01*
X0026488Y0080285D01*
X0026122Y0080650D01*
X0025644Y0080848D01*
D02*
G37*
G36*
X0017770D02*
X0017253D01*
X0016775Y0080650D01*
X0016410Y0080285D01*
X0016212Y0079807D01*
Y0079290D01*
X0016410Y0078812D01*
X0016775Y0078446D01*
X0017253Y0078248D01*
X0017770D01*
X0018248Y0078446D01*
X0018614Y0078812D01*
X0018812Y0079290D01*
Y0079807D01*
X0018614Y0080285D01*
X0018248Y0080650D01*
X0017770Y0080848D01*
D02*
G37*
G36*
X0009896D02*
X0009379D01*
X0008901Y0080650D01*
X0008536Y0080285D01*
X0008338Y0079807D01*
Y0079290D01*
X0008536Y0078812D01*
X0008901Y0078446D01*
X0009379Y0078248D01*
X0009896D01*
X0010374Y0078446D01*
X0010740Y0078812D01*
X0010938Y0079290D01*
Y0079807D01*
X0010740Y0080285D01*
X0010374Y0080650D01*
X0009896Y0080848D01*
D02*
G37*
G36*
X0143093Y0080828D02*
X0142576D01*
X0142098Y0080630D01*
X0141733Y0080264D01*
X0141535Y0079786D01*
Y0079269D01*
X0141733Y0078791D01*
X0142098Y0078426D01*
X0142576Y0078228D01*
X0143093D01*
X0143571Y0078426D01*
X0143937Y0078791D01*
X0144135Y0079269D01*
Y0079786D01*
X0143937Y0080264D01*
X0143571Y0080630D01*
X0143093Y0080828D01*
D02*
G37*
G36*
X0138172D02*
X0137655D01*
X0137177Y0080630D01*
X0136811Y0080264D01*
X0136613Y0079786D01*
Y0079269D01*
X0136811Y0078791D01*
X0137177Y0078426D01*
X0137655Y0078228D01*
X0138172D01*
X0138650Y0078426D01*
X0139015Y0078791D01*
X0139213Y0079269D01*
Y0079786D01*
X0139015Y0080264D01*
X0138650Y0080630D01*
X0138172Y0080828D01*
D02*
G37*
G36*
X0133251D02*
X0132734D01*
X0132256Y0080630D01*
X0131890Y0080264D01*
X0131692Y0079786D01*
Y0079269D01*
X0131890Y0078791D01*
X0132256Y0078426D01*
X0132734Y0078228D01*
X0133251D01*
X0133729Y0078426D01*
X0134094Y0078791D01*
X0134292Y0079269D01*
Y0079786D01*
X0134094Y0080264D01*
X0133729Y0080630D01*
X0133251Y0080828D01*
D02*
G37*
G36*
X0119471D02*
X0118954D01*
X0118476Y0080630D01*
X0118111Y0080264D01*
X0117913Y0079786D01*
Y0079269D01*
X0118111Y0078791D01*
X0118476Y0078426D01*
X0118954Y0078228D01*
X0119471D01*
X0119949Y0078426D01*
X0120315Y0078791D01*
X0120513Y0079269D01*
Y0079786D01*
X0120315Y0080264D01*
X0119949Y0080630D01*
X0119471Y0080828D01*
D02*
G37*
G36*
X0114550D02*
X0114033D01*
X0113555Y0080630D01*
X0113189Y0080264D01*
X0112991Y0079786D01*
Y0079269D01*
X0113189Y0078791D01*
X0113555Y0078426D01*
X0114033Y0078228D01*
X0114550D01*
X0115028Y0078426D01*
X0115393Y0078791D01*
X0115591Y0079269D01*
Y0079786D01*
X0115393Y0080264D01*
X0115028Y0080630D01*
X0114550Y0080828D01*
D02*
G37*
G36*
X0109629D02*
X0109111D01*
X0108634Y0080630D01*
X0108268Y0080264D01*
X0108070Y0079786D01*
Y0079269D01*
X0108268Y0078791D01*
X0108634Y0078426D01*
X0109111Y0078228D01*
X0109629D01*
X0110106Y0078426D01*
X0110472Y0078791D01*
X0110670Y0079269D01*
Y0079786D01*
X0110472Y0080264D01*
X0110106Y0080630D01*
X0109629Y0080828D01*
D02*
G37*
G36*
X0095849D02*
X0095332D01*
X0094854Y0080630D01*
X0094489Y0080264D01*
X0094291Y0079786D01*
Y0079269D01*
X0094489Y0078791D01*
X0094854Y0078426D01*
X0095332Y0078228D01*
X0095849D01*
X0096327Y0078426D01*
X0096693Y0078791D01*
X0096891Y0079269D01*
Y0079786D01*
X0096693Y0080264D01*
X0096327Y0080630D01*
X0095849Y0080828D01*
D02*
G37*
G36*
X0090928D02*
X0090411D01*
X0089933Y0080630D01*
X0089567Y0080264D01*
X0089369Y0079786D01*
Y0079269D01*
X0089567Y0078791D01*
X0089933Y0078426D01*
X0090411Y0078228D01*
X0090928D01*
X0091406Y0078426D01*
X0091771Y0078791D01*
X0091969Y0079269D01*
Y0079786D01*
X0091771Y0080264D01*
X0091406Y0080630D01*
X0090928Y0080828D01*
D02*
G37*
G36*
X0086007D02*
X0085489D01*
X0085012Y0080630D01*
X0084646Y0080264D01*
X0084448Y0079786D01*
Y0079269D01*
X0084646Y0078791D01*
X0085012Y0078426D01*
X0085489Y0078228D01*
X0086007D01*
X0086484Y0078426D01*
X0086850Y0078791D01*
X0087048Y0079269D01*
Y0079786D01*
X0086850Y0080264D01*
X0086484Y0080630D01*
X0086007Y0080828D01*
D02*
G37*
G36*
X0382148Y0080828D02*
X0381631D01*
X0381153Y0080630D01*
X0380788Y0080264D01*
X0380590Y0079786D01*
Y0079269D01*
X0380788Y0078791D01*
X0381153Y0078426D01*
X0381631Y0078228D01*
X0382148D01*
X0382626Y0078426D01*
X0382992Y0078791D01*
X0383190Y0079269D01*
Y0079786D01*
X0382992Y0080264D01*
X0382626Y0080630D01*
X0382148Y0080828D01*
D02*
G37*
G36*
X0374274D02*
X0373757D01*
X0373279Y0080630D01*
X0372914Y0080264D01*
X0372716Y0079786D01*
Y0079269D01*
X0372914Y0078791D01*
X0373279Y0078426D01*
X0373757Y0078228D01*
X0374274D01*
X0374752Y0078426D01*
X0375118Y0078791D01*
X0375316Y0079269D01*
Y0079786D01*
X0375118Y0080264D01*
X0374752Y0080630D01*
X0374274Y0080828D01*
D02*
G37*
G36*
X0366400D02*
X0365883D01*
X0365405Y0080630D01*
X0365040Y0080264D01*
X0364842Y0079786D01*
Y0079269D01*
X0365040Y0078791D01*
X0365405Y0078426D01*
X0365883Y0078228D01*
X0366400D01*
X0366878Y0078426D01*
X0367244Y0078791D01*
X0367442Y0079269D01*
Y0079786D01*
X0367244Y0080264D01*
X0366878Y0080630D01*
X0366400Y0080828D01*
D02*
G37*
G36*
X0358526D02*
X0358009D01*
X0357531Y0080630D01*
X0357166Y0080264D01*
X0356968Y0079786D01*
Y0079269D01*
X0357166Y0078791D01*
X0357531Y0078426D01*
X0358009Y0078228D01*
X0358526D01*
X0359004Y0078426D01*
X0359370Y0078791D01*
X0359568Y0079269D01*
Y0079786D01*
X0359370Y0080264D01*
X0359004Y0080630D01*
X0358526Y0080828D01*
D02*
G37*
G36*
X0350652D02*
X0350135D01*
X0349657Y0080630D01*
X0349292Y0080264D01*
X0349094Y0079786D01*
Y0079269D01*
X0349292Y0078791D01*
X0349657Y0078426D01*
X0350135Y0078228D01*
X0350652D01*
X0351130Y0078426D01*
X0351496Y0078791D01*
X0351694Y0079269D01*
Y0079786D01*
X0351496Y0080264D01*
X0351130Y0080630D01*
X0350652Y0080828D01*
D02*
G37*
G36*
X0342778D02*
X0342261D01*
X0341783Y0080630D01*
X0341418Y0080264D01*
X0341220Y0079786D01*
Y0079269D01*
X0341418Y0078791D01*
X0341783Y0078426D01*
X0342261Y0078228D01*
X0342778D01*
X0343256Y0078426D01*
X0343622Y0078791D01*
X0343820Y0079269D01*
Y0079786D01*
X0343622Y0080264D01*
X0343256Y0080630D01*
X0342778Y0080828D01*
D02*
G37*
G36*
X0334904D02*
X0334387D01*
X0333909Y0080630D01*
X0333544Y0080264D01*
X0333346Y0079786D01*
Y0079269D01*
X0333544Y0078791D01*
X0333909Y0078426D01*
X0334387Y0078228D01*
X0334904D01*
X0335382Y0078426D01*
X0335748Y0078791D01*
X0335946Y0079269D01*
Y0079786D01*
X0335748Y0080264D01*
X0335382Y0080630D01*
X0334904Y0080828D01*
D02*
G37*
G36*
X0327030D02*
X0326513D01*
X0326035Y0080630D01*
X0325670Y0080264D01*
X0325472Y0079786D01*
Y0079269D01*
X0325670Y0078791D01*
X0326035Y0078426D01*
X0326513Y0078228D01*
X0327030D01*
X0327508Y0078426D01*
X0327874Y0078791D01*
X0328072Y0079269D01*
Y0079786D01*
X0327874Y0080264D01*
X0327508Y0080630D01*
X0327030Y0080828D01*
D02*
G37*
G36*
X0319156D02*
X0318639D01*
X0318161Y0080630D01*
X0317796Y0080264D01*
X0317598Y0079786D01*
Y0079269D01*
X0317796Y0078791D01*
X0318161Y0078426D01*
X0318639Y0078228D01*
X0319156D01*
X0319634Y0078426D01*
X0320000Y0078791D01*
X0320198Y0079269D01*
Y0079786D01*
X0320000Y0080264D01*
X0319634Y0080630D01*
X0319156Y0080828D01*
D02*
G37*
G36*
X0311282D02*
X0310765D01*
X0310287Y0080630D01*
X0309922Y0080264D01*
X0309724Y0079786D01*
Y0079269D01*
X0309922Y0078791D01*
X0310287Y0078426D01*
X0310765Y0078228D01*
X0311282D01*
X0311760Y0078426D01*
X0312126Y0078791D01*
X0312324Y0079269D01*
Y0079786D01*
X0312126Y0080264D01*
X0311760Y0080630D01*
X0311282Y0080828D01*
D02*
G37*
G36*
X0303408D02*
X0302891D01*
X0302413Y0080630D01*
X0302047Y0080264D01*
X0301850Y0079786D01*
Y0079269D01*
X0302047Y0078791D01*
X0302413Y0078426D01*
X0302891Y0078228D01*
X0303408D01*
X0303886Y0078426D01*
X0304252Y0078791D01*
X0304450Y0079269D01*
Y0079786D01*
X0304252Y0080264D01*
X0303886Y0080630D01*
X0303408Y0080828D01*
D02*
G37*
G36*
X0295534D02*
X0295017D01*
X0294539Y0080630D01*
X0294174Y0080264D01*
X0293976Y0079786D01*
Y0079269D01*
X0294174Y0078791D01*
X0294539Y0078426D01*
X0295017Y0078228D01*
X0295534D01*
X0296012Y0078426D01*
X0296378Y0078791D01*
X0296576Y0079269D01*
Y0079786D01*
X0296378Y0080264D01*
X0296012Y0080630D01*
X0295534Y0080828D01*
D02*
G37*
G36*
X0279786D02*
X0279269D01*
X0278791Y0080630D01*
X0278426Y0080264D01*
X0278228Y0079786D01*
Y0079269D01*
X0278426Y0078791D01*
X0278791Y0078426D01*
X0279269Y0078228D01*
X0279786D01*
X0280264Y0078426D01*
X0280630Y0078791D01*
X0280828Y0079269D01*
Y0079786D01*
X0280630Y0080264D01*
X0280264Y0080630D01*
X0279786Y0080828D01*
D02*
G37*
G36*
X0004196D02*
X0003678D01*
X0003201Y0080630D01*
X0002835Y0080264D01*
X0002637Y0079786D01*
Y0079269D01*
X0002835Y0078791D01*
X0003201Y0078426D01*
X0003678Y0078228D01*
X0004196D01*
X0004673Y0078426D01*
X0005039Y0078791D01*
X0005237Y0079269D01*
Y0079786D01*
X0005039Y0080264D01*
X0004673Y0080630D01*
X0004196Y0080828D01*
D02*
G37*
G36*
X0093566Y0075611D02*
X0093049D01*
X0092571Y0075413D01*
X0092205Y0075047D01*
X0092007Y0074570D01*
Y0074052D01*
X0092205Y0073575D01*
X0092571Y0073209D01*
X0093049Y0073011D01*
X0093566D01*
X0094043Y0073209D01*
X0094409Y0073575D01*
X0094607Y0074052D01*
Y0074570D01*
X0094409Y0075047D01*
X0094043Y0075413D01*
X0093566Y0075611D01*
D02*
G37*
G36*
X0057140Y0074943D02*
X0056623D01*
X0056146Y0074745D01*
X0055780Y0074379D01*
X0055582Y0073901D01*
Y0073384D01*
X0055780Y0072906D01*
X0056146Y0072540D01*
X0056623Y0072343D01*
X0057140D01*
X0057618Y0072540D01*
X0057984Y0072906D01*
X0058182Y0073384D01*
Y0073901D01*
X0057984Y0074379D01*
X0057618Y0074745D01*
X0057140Y0074943D01*
D02*
G37*
G36*
X0128802Y0074331D02*
X0128285D01*
X0127807Y0074134D01*
X0127441Y0073768D01*
X0127243Y0073290D01*
Y0072773D01*
X0127441Y0072295D01*
X0127807Y0071929D01*
X0128285Y0071732D01*
X0128802D01*
X0129280Y0071929D01*
X0129645Y0072295D01*
X0129843Y0072773D01*
Y0073290D01*
X0129645Y0073768D01*
X0129280Y0074134D01*
X0128802Y0074331D01*
D02*
G37*
G36*
X0096223Y0073150D02*
X0095706D01*
X0095228Y0072953D01*
X0094863Y0072587D01*
X0094665Y0072109D01*
Y0071592D01*
X0094863Y0071114D01*
X0095228Y0070748D01*
X0095706Y0070550D01*
X0096223D01*
X0096701Y0070748D01*
X0097067Y0071114D01*
X0097265Y0071592D01*
Y0072109D01*
X0097067Y0072587D01*
X0096701Y0072953D01*
X0096223Y0073150D01*
D02*
G37*
G36*
X0004196Y0072166D02*
X0003678D01*
X0003201Y0071968D01*
X0002835Y0071602D01*
X0002637Y0071125D01*
Y0070608D01*
X0002835Y0070130D01*
X0003201Y0069764D01*
X0003678Y0069566D01*
X0004196D01*
X0004673Y0069764D01*
X0005039Y0070130D01*
X0005237Y0070608D01*
Y0071125D01*
X0005039Y0071602D01*
X0004673Y0071968D01*
X0004196Y0072166D01*
D02*
G37*
G36*
X0124767Y0070099D02*
X0124249D01*
X0123772Y0069901D01*
X0123406Y0069536D01*
X0123208Y0069058D01*
Y0068541D01*
X0123406Y0068063D01*
X0123772Y0067697D01*
X0124249Y0067499D01*
X0124767D01*
X0125244Y0067697D01*
X0125610Y0068063D01*
X0125808Y0068541D01*
Y0069058D01*
X0125610Y0069536D01*
X0125244Y0069901D01*
X0124767Y0070099D01*
D02*
G37*
G36*
X0096322Y0069312D02*
X0095804D01*
X0095327Y0069114D01*
X0094961Y0068748D01*
X0094763Y0068270D01*
Y0067753D01*
X0094961Y0067275D01*
X0095327Y0066910D01*
X0095804Y0066712D01*
X0096322D01*
X0096799Y0066910D01*
X0097165Y0067275D01*
X0097363Y0067753D01*
Y0068270D01*
X0097165Y0068748D01*
X0096799Y0069114D01*
X0096322Y0069312D01*
D02*
G37*
G36*
X0057140Y0069037D02*
X0056623D01*
X0056146Y0068839D01*
X0055780Y0068474D01*
X0055582Y0067996D01*
Y0067479D01*
X0055780Y0067001D01*
X0056146Y0066635D01*
X0056623Y0066437D01*
X0057140D01*
X0057618Y0066635D01*
X0057984Y0067001D01*
X0058182Y0067479D01*
Y0067996D01*
X0057984Y0068474D01*
X0057618Y0068839D01*
X0057140Y0069037D01*
D02*
G37*
G36*
X0061184Y0066556D02*
X0060667D01*
X0060189Y0066358D01*
X0059823Y0065992D01*
X0059625Y0065514D01*
Y0064997D01*
X0059823Y0064520D01*
X0060189Y0064154D01*
X0060667Y0063956D01*
X0061184D01*
X0061662Y0064154D01*
X0062027Y0064520D01*
X0062225Y0064997D01*
Y0065514D01*
X0062027Y0065992D01*
X0061662Y0066358D01*
X0061184Y0066556D01*
D02*
G37*
G36*
X0128802Y0066064D02*
X0128285D01*
X0127807Y0065866D01*
X0127441Y0065500D01*
X0127243Y0065022D01*
Y0064505D01*
X0127441Y0064027D01*
X0127807Y0063662D01*
X0128285Y0063464D01*
X0128802D01*
X0129280Y0063662D01*
X0129645Y0064027D01*
X0129843Y0064505D01*
Y0065022D01*
X0129645Y0065500D01*
X0129280Y0065866D01*
X0128802Y0066064D01*
D02*
G37*
G36*
X0096322Y0065473D02*
X0095804D01*
X0095327Y0065275D01*
X0094961Y0064910D01*
X0094763Y0064432D01*
Y0063915D01*
X0094961Y0063437D01*
X0095327Y0063071D01*
X0095804Y0062873D01*
X0096322D01*
X0096799Y0063071D01*
X0097165Y0063437D01*
X0097363Y0063915D01*
Y0064432D01*
X0097165Y0064910D01*
X0096799Y0065275D01*
X0096322Y0065473D01*
D02*
G37*
G36*
X0004196Y0064292D02*
X0003678D01*
X0003201Y0064094D01*
X0002835Y0063728D01*
X0002637Y0063251D01*
Y0062734D01*
X0002835Y0062256D01*
X0003201Y0061890D01*
X0003678Y0061692D01*
X0004196D01*
X0004673Y0061890D01*
X0005039Y0062256D01*
X0005237Y0062734D01*
Y0063251D01*
X0005039Y0063728D01*
X0004673Y0064094D01*
X0004196Y0064292D01*
D02*
G37*
G36*
X0057140Y0063132D02*
X0056623D01*
X0056146Y0062934D01*
X0055780Y0062568D01*
X0055582Y0062090D01*
Y0061573D01*
X0055780Y0061095D01*
X0056146Y0060729D01*
X0056623Y0060532D01*
X0057140D01*
X0057618Y0060729D01*
X0057984Y0061095D01*
X0058182Y0061573D01*
Y0062090D01*
X0057984Y0062568D01*
X0057618Y0062934D01*
X0057140Y0063132D01*
D02*
G37*
G36*
X0093762Y0062914D02*
X0093245D01*
X0092768Y0062716D01*
X0092402Y0062351D01*
X0092204Y0061873D01*
Y0061356D01*
X0092402Y0060878D01*
X0092768Y0060512D01*
X0093245Y0060314D01*
X0093762D01*
X0094240Y0060512D01*
X0094606Y0060878D01*
X0094804Y0061356D01*
Y0061873D01*
X0094606Y0062351D01*
X0094240Y0062716D01*
X0093762Y0062914D01*
D02*
G37*
G36*
X0064727D02*
X0064210D01*
X0063732Y0062716D01*
X0063366Y0062351D01*
X0063169Y0061873D01*
Y0061356D01*
X0063366Y0060878D01*
X0063732Y0060512D01*
X0064210Y0060314D01*
X0064727D01*
X0065205Y0060512D01*
X0065571Y0060878D01*
X0065768Y0061356D01*
Y0061873D01*
X0065571Y0062351D01*
X0065205Y0062716D01*
X0064727Y0062914D01*
D02*
G37*
G36*
X0383625Y0062816D02*
X0383107D01*
X0382630Y0062618D01*
X0382264Y0062252D01*
X0382066Y0061774D01*
Y0061257D01*
X0382264Y0060779D01*
X0382630Y0060414D01*
X0383107Y0060216D01*
X0383625D01*
X0384103Y0060414D01*
X0384468Y0060779D01*
X0384666Y0061257D01*
Y0061774D01*
X0384468Y0062252D01*
X0384103Y0062618D01*
X0383625Y0062816D01*
D02*
G37*
G36*
X0355081Y0059961D02*
X0354564D01*
X0354086Y0059763D01*
X0353721Y0059398D01*
X0353523Y0058920D01*
Y0058403D01*
X0353721Y0057925D01*
X0354086Y0057559D01*
X0354564Y0057361D01*
X0355081D01*
X0355559Y0057559D01*
X0355925Y0057925D01*
X0356123Y0058403D01*
Y0058920D01*
X0355925Y0059398D01*
X0355559Y0059763D01*
X0355081Y0059961D01*
D02*
G37*
G36*
X0086676Y0058288D02*
X0086159D01*
X0085681Y0058090D01*
X0085315Y0057725D01*
X0085117Y0057247D01*
Y0056730D01*
X0085315Y0056252D01*
X0085681Y0055886D01*
X0086159Y0055688D01*
X0086676D01*
X0087154Y0055886D01*
X0087519Y0056252D01*
X0087717Y0056730D01*
Y0057247D01*
X0087519Y0057725D01*
X0087154Y0058090D01*
X0086676Y0058288D01*
D02*
G37*
G36*
X0004196Y0056418D02*
X0003678D01*
X0003201Y0056220D01*
X0002835Y0055854D01*
X0002637Y0055377D01*
Y0054860D01*
X0002835Y0054382D01*
X0003201Y0054016D01*
X0003678Y0053818D01*
X0004196D01*
X0004673Y0054016D01*
X0005039Y0054382D01*
X0005237Y0054860D01*
Y0055377D01*
X0005039Y0055854D01*
X0004673Y0056220D01*
X0004196Y0056418D01*
D02*
G37*
G36*
X0118172Y0055532D02*
X0117655D01*
X0117177Y0055334D01*
X0116811Y0054969D01*
X0116613Y0054491D01*
Y0053974D01*
X0116811Y0053496D01*
X0117177Y0053130D01*
X0117655Y0052932D01*
X0118172D01*
X0118650Y0053130D01*
X0119016Y0053496D01*
X0119213Y0053974D01*
Y0054491D01*
X0119016Y0054969D01*
X0118650Y0055334D01*
X0118172Y0055532D01*
D02*
G37*
G36*
X0368074Y0061241D02*
X0367556D01*
X0367079Y0061043D01*
X0366713Y0060677D01*
X0366515Y0060199D01*
Y0059682D01*
X0366713Y0059205D01*
X0367026Y0058891D01*
X0366713Y0058577D01*
X0366515Y0058100D01*
Y0057582D01*
X0366713Y0057105D01*
X0367026Y0056791D01*
X0366713Y0056477D01*
X0366515Y0055999D01*
Y0055482D01*
X0366713Y0055005D01*
X0367026Y0054691D01*
X0366713Y0054377D01*
X0366515Y0053900D01*
Y0053382D01*
X0366713Y0052905D01*
X0367079Y0052539D01*
X0367556Y0052341D01*
X0368074D01*
X0368551Y0052539D01*
X0368917Y0052905D01*
X0369115Y0053382D01*
Y0053900D01*
X0368917Y0054377D01*
X0368603Y0054691D01*
X0368917Y0055005D01*
X0369115Y0055482D01*
Y0055999D01*
X0368917Y0056477D01*
X0368603Y0056791D01*
X0368917Y0057105D01*
X0369115Y0057582D01*
Y0058100D01*
X0368917Y0058577D01*
X0368603Y0058891D01*
X0368917Y0059205D01*
X0369115Y0059682D01*
Y0060199D01*
X0368917Y0060677D01*
X0368551Y0061043D01*
X0368074Y0061241D01*
D02*
G37*
G36*
X0372601Y0053957D02*
X0372084D01*
X0371606Y0053760D01*
X0371240Y0053394D01*
X0371042Y0052916D01*
Y0052399D01*
X0371240Y0051921D01*
X0371606Y0051555D01*
X0372084Y0051358D01*
X0372601D01*
X0373079Y0051555D01*
X0373445Y0051921D01*
X0373642Y0052399D01*
Y0052916D01*
X0373445Y0053394D01*
X0373079Y0053760D01*
X0372601Y0053957D01*
D02*
G37*
G36*
X0057148Y0049725D02*
X0056631D01*
X0056153Y0049527D01*
X0055788Y0049162D01*
X0055590Y0048684D01*
Y0048167D01*
X0055788Y0047689D01*
X0056153Y0047323D01*
X0056631Y0047125D01*
X0057148D01*
X0057626Y0047323D01*
X0057992Y0047689D01*
X0058190Y0048167D01*
Y0048684D01*
X0057992Y0049162D01*
X0057626Y0049527D01*
X0057148Y0049725D01*
D02*
G37*
G36*
X0004196Y0048544D02*
X0003678D01*
X0003201Y0048346D01*
X0002835Y0047980D01*
X0002637Y0047503D01*
Y0046986D01*
X0002835Y0046508D01*
X0003201Y0046142D01*
X0003678Y0045944D01*
X0004196D01*
X0004673Y0046142D01*
X0005039Y0046508D01*
X0005237Y0046986D01*
Y0047503D01*
X0005039Y0047980D01*
X0004673Y0048346D01*
X0004196Y0048544D01*
D02*
G37*
G36*
X0355081Y0046969D02*
X0354564D01*
X0354086Y0046771D01*
X0353721Y0046406D01*
X0353523Y0045928D01*
Y0045411D01*
X0353721Y0044933D01*
X0354086Y0044567D01*
X0354564Y0044369D01*
X0355081D01*
X0355559Y0044567D01*
X0355925Y0044933D01*
X0356123Y0045411D01*
Y0045928D01*
X0355925Y0046406D01*
X0355559Y0046771D01*
X0355081Y0046969D01*
D02*
G37*
G36*
X0372601Y0046576D02*
X0372084D01*
X0371606Y0046378D01*
X0371240Y0046012D01*
X0371042Y0045534D01*
Y0045017D01*
X0371240Y0044539D01*
X0371606Y0044173D01*
X0372084Y0043976D01*
X0372601D01*
X0373079Y0044173D01*
X0373445Y0044539D01*
X0373642Y0045017D01*
Y0045534D01*
X0373445Y0046012D01*
X0373079Y0046378D01*
X0372601Y0046576D01*
D02*
G37*
G36*
X0381361Y0045001D02*
X0380844D01*
X0380366Y0044803D01*
X0380000Y0044437D01*
X0379802Y0043959D01*
Y0043442D01*
X0379823Y0043392D01*
X0379399Y0043108D01*
X0379181Y0043327D01*
X0378703Y0043524D01*
X0378186D01*
X0377709Y0043327D01*
X0377343Y0042961D01*
X0377145Y0042483D01*
Y0041966D01*
X0377343Y0041488D01*
X0377709Y0041122D01*
X0378186Y0040924D01*
X0378703D01*
X0379181Y0041122D01*
X0379547Y0041488D01*
X0379745Y0041966D01*
Y0042483D01*
X0379724Y0042534D01*
X0380148Y0042817D01*
X0380366Y0042599D01*
X0380844Y0042401D01*
X0381361D01*
X0381839Y0042599D01*
X0382204Y0042964D01*
X0382402Y0043442D01*
Y0043959D01*
X0382204Y0044437D01*
X0381839Y0044803D01*
X0381361Y0045001D01*
D02*
G37*
G36*
X0343704Y0045493D02*
X0343186D01*
X0342708Y0045295D01*
X0342343Y0044929D01*
X0342145Y0044451D01*
Y0043934D01*
X0342343Y0043457D01*
X0342708Y0043091D01*
X0343186Y0042893D01*
X0343704D01*
X0344181Y0043091D01*
X0344547Y0043457D01*
X0344745Y0043934D01*
Y0044451D01*
X0344547Y0044929D01*
X0344181Y0045295D01*
X0343704Y0045493D01*
D02*
G37*
G36*
X0057148Y0044804D02*
X0056631D01*
X0056153Y0044606D01*
X0055788Y0044240D01*
X0055590Y0043762D01*
Y0043245D01*
X0055788Y0042768D01*
X0056153Y0042402D01*
X0056631Y0042204D01*
X0057148D01*
X0057626Y0042402D01*
X0057992Y0042768D01*
X0058190Y0043245D01*
Y0043762D01*
X0057992Y0044240D01*
X0057626Y0044606D01*
X0057148Y0044804D01*
D02*
G37*
G36*
X0107247Y0044509D02*
X0106730D01*
X0106252Y0044311D01*
X0105886Y0043945D01*
X0105688Y0043467D01*
Y0042950D01*
X0105886Y0042472D01*
X0106252Y0042107D01*
X0106730Y0041909D01*
X0107247D01*
X0107725Y0042107D01*
X0108090Y0042472D01*
X0108288Y0042950D01*
Y0043467D01*
X0108090Y0043945D01*
X0107725Y0044311D01*
X0107247Y0044509D01*
D02*
G37*
G36*
X0073192D02*
X0072675D01*
X0072197Y0044311D01*
X0071831Y0043945D01*
X0071633Y0043467D01*
Y0042950D01*
X0071831Y0042472D01*
X0072197Y0042107D01*
X0072675Y0041909D01*
X0073192D01*
X0073669Y0042107D01*
X0074035Y0042472D01*
X0074233Y0042950D01*
Y0043467D01*
X0074035Y0043945D01*
X0073669Y0044311D01*
X0073192Y0044509D01*
D02*
G37*
G36*
X0374551Y0043506D02*
X0374034D01*
X0373556Y0043308D01*
X0373191Y0042942D01*
X0372993Y0042465D01*
Y0041947D01*
X0373191Y0041470D01*
X0373556Y0041104D01*
X0374034Y0040906D01*
X0374551D01*
X0375029Y0041104D01*
X0375395Y0041470D01*
X0375593Y0041947D01*
Y0042465D01*
X0375395Y0042942D01*
X0375029Y0043308D01*
X0374551Y0043506D01*
D02*
G37*
G36*
X0346361Y0042835D02*
X0345844D01*
X0345366Y0042638D01*
X0345000Y0042272D01*
X0344802Y0041794D01*
Y0041277D01*
X0345000Y0040799D01*
X0345366Y0040433D01*
X0345844Y0040235D01*
X0346361D01*
X0346839Y0040433D01*
X0347204Y0040799D01*
X0347402Y0041277D01*
Y0041794D01*
X0347204Y0042272D01*
X0346839Y0042638D01*
X0346361Y0042835D01*
D02*
G37*
G36*
X0004196Y0040670D02*
X0003678D01*
X0003201Y0040472D01*
X0002835Y0040106D01*
X0002637Y0039629D01*
Y0039112D01*
X0002835Y0038634D01*
X0003201Y0038268D01*
X0003678Y0038070D01*
X0004196D01*
X0004673Y0038268D01*
X0005039Y0038634D01*
X0005237Y0039112D01*
Y0039629D01*
X0005039Y0040106D01*
X0004673Y0040472D01*
X0004196Y0040670D01*
D02*
G37*
G36*
X0057148Y0039883D02*
X0056631D01*
X0056153Y0039685D01*
X0055788Y0039319D01*
X0055590Y0038841D01*
Y0038324D01*
X0055788Y0037846D01*
X0056153Y0037481D01*
X0056631Y0037283D01*
X0057148D01*
X0057626Y0037481D01*
X0057992Y0037846D01*
X0058190Y0038324D01*
Y0038841D01*
X0057992Y0039319D01*
X0057626Y0039685D01*
X0057148Y0039883D01*
D02*
G37*
G36*
X0019036Y0045874D02*
X0017775D01*
X0016537Y0045628D01*
X0015371Y0045145D01*
X0014322Y0044444D01*
X0013430Y0043552D01*
X0012729Y0042503D01*
X0012246Y0041337D01*
X0012000Y0040099D01*
Y0038838D01*
X0012246Y0037600D01*
X0012729Y0036434D01*
X0013430Y0035385D01*
X0014322Y0034493D01*
X0015371Y0033792D01*
X0016537Y0033309D01*
X0017775Y0033063D01*
X0019036D01*
X0020274Y0033309D01*
X0021440Y0033792D01*
X0022489Y0034493D01*
X0023381Y0035385D01*
X0024082Y0036434D01*
X0024565Y0037600D01*
X0024811Y0038838D01*
Y0040099D01*
X0024565Y0041337D01*
X0024082Y0042503D01*
X0023381Y0043552D01*
X0022489Y0044444D01*
X0021440Y0045145D01*
X0020274Y0045628D01*
X0019036Y0045874D01*
D02*
G37*
G36*
X0056473Y0036060D02*
X0055956D01*
X0055478Y0035862D01*
X0055112Y0035497D01*
X0054914Y0035019D01*
Y0034672D01*
X0054682Y0034377D01*
X0054472Y0034264D01*
X0054076D01*
X0053598Y0034066D01*
X0053232Y0033701D01*
X0053034Y0033223D01*
Y0032851D01*
X0052866Y0032595D01*
X0052609Y0032426D01*
X0052237D01*
X0051759Y0032228D01*
X0051394Y0031862D01*
X0051265Y0031550D01*
X0050912Y0031365D01*
X0050696Y0031350D01*
X0050323Y0031505D01*
X0049806D01*
X0049328Y0031307D01*
X0049019Y0030998D01*
X0048896Y0030941D01*
X0048421Y0030942D01*
X0048205Y0031158D01*
X0047727Y0031356D01*
X0047210D01*
X0046732Y0031158D01*
X0046367Y0030792D01*
X0046169Y0030314D01*
Y0030307D01*
X0045669Y0029996D01*
X0045461Y0030082D01*
X0044944D01*
X0044466Y0029884D01*
X0044100Y0029518D01*
X0043902Y0029041D01*
Y0028523D01*
X0043941Y0028429D01*
X0043607Y0027929D01*
X0043486D01*
X0043008Y0027731D01*
X0042643Y0027365D01*
X0042445Y0026887D01*
Y0026370D01*
X0042643Y0025892D01*
X0042769Y0025766D01*
X0042652Y0025176D01*
X0042615Y0025161D01*
X0042249Y0024795D01*
X0042051Y0024317D01*
Y0023800D01*
X0042249Y0023322D01*
X0042615Y0022957D01*
X0042863Y0022854D01*
X0043027Y0022331D01*
X0043020Y0022289D01*
X0042833Y0021838D01*
Y0021321D01*
X0043031Y0020843D01*
X0043397Y0020477D01*
X0043875Y0020279D01*
X0044213D01*
X0044519Y0020026D01*
X0044616Y0019831D01*
Y0019428D01*
X0044814Y0018950D01*
X0045179Y0018584D01*
X0045657Y0018386D01*
X0046174D01*
X0046555Y0018544D01*
X0046748Y0018537D01*
X0047127Y0018352D01*
X0047253Y0018049D01*
X0047618Y0017684D01*
X0048096Y0017486D01*
X0048613D01*
X0049091Y0017684D01*
X0049439Y0018032D01*
X0049470Y0018051D01*
X0050020Y0018103D01*
X0050208Y0017916D01*
X0050686Y0017718D01*
X0051203D01*
X0051681Y0017916D01*
X0052047Y0018282D01*
X0052244Y0018759D01*
Y0018811D01*
X0052744Y0019145D01*
X0052900Y0019080D01*
X0053417D01*
X0053895Y0019278D01*
X0054261Y0019644D01*
X0054459Y0020122D01*
Y0020639D01*
X0054261Y0021117D01*
X0053895Y0021482D01*
X0053417Y0021680D01*
X0053183D01*
X0052892Y0022177D01*
X0053249Y0022795D01*
X0053551Y0023924D01*
Y0025092D01*
X0053249Y0026221D01*
X0052665Y0027232D01*
X0051839Y0028058D01*
X0050898Y0028602D01*
X0050840Y0028903D01*
X0050852Y0029153D01*
X0051167Y0029468D01*
X0051296Y0029780D01*
X0051649Y0029965D01*
X0051864Y0029980D01*
X0052237Y0029826D01*
X0052754D01*
X0053232Y0030024D01*
X0053598Y0030389D01*
X0053796Y0030867D01*
Y0031239D01*
X0053965Y0031495D01*
X0054221Y0031664D01*
X0054593D01*
X0055071Y0031862D01*
X0055436Y0032228D01*
X0055634Y0032706D01*
Y0033052D01*
X0055867Y0033348D01*
X0056077Y0033460D01*
X0056473D01*
X0056951Y0033658D01*
X0057317Y0034024D01*
X0057515Y0034502D01*
Y0035019D01*
X0057317Y0035497D01*
X0056951Y0035862D01*
X0056473Y0036060D01*
D02*
G37*
G36*
X0004196Y0032796D02*
X0003678D01*
X0003201Y0032598D01*
X0002835Y0032232D01*
X0002637Y0031755D01*
Y0031238D01*
X0002835Y0030760D01*
X0003201Y0030394D01*
X0003678Y0030196D01*
X0004196D01*
X0004673Y0030394D01*
X0005039Y0030760D01*
X0005237Y0031238D01*
Y0031755D01*
X0005039Y0032232D01*
X0004673Y0032598D01*
X0004196Y0032796D01*
D02*
G37*
G36*
X0128605Y0029647D02*
X0128088D01*
X0127610Y0029449D01*
X0127244Y0029083D01*
X0127047Y0028605D01*
Y0028088D01*
X0127244Y0027610D01*
X0127610Y0027244D01*
X0128088Y0027046D01*
X0128605D01*
X0129083Y0027244D01*
X0129449Y0027610D01*
X0129647Y0028088D01*
Y0028605D01*
X0129449Y0029083D01*
X0129083Y0029449D01*
X0128605Y0029647D01*
D02*
G37*
G36*
X0057148Y0026497D02*
X0056631D01*
X0056153Y0026299D01*
X0055788Y0025933D01*
X0055590Y0025455D01*
Y0024938D01*
X0055788Y0024461D01*
X0056153Y0024095D01*
X0056631Y0023897D01*
X0057148D01*
X0057626Y0024095D01*
X0057992Y0024461D01*
X0058190Y0024938D01*
Y0025455D01*
X0057992Y0025933D01*
X0057626Y0026299D01*
X0057148Y0026497D01*
D02*
G37*
G36*
X0004196Y0024922D02*
X0003678D01*
X0003201Y0024724D01*
X0002835Y0024358D01*
X0002637Y0023881D01*
Y0023363D01*
X0002835Y0022886D01*
X0003201Y0022520D01*
X0003678Y0022322D01*
X0004196D01*
X0004673Y0022520D01*
X0005039Y0022886D01*
X0005237Y0023363D01*
Y0023881D01*
X0005039Y0024358D01*
X0004673Y0024724D01*
X0004196Y0024922D01*
D02*
G37*
G36*
X0131203Y0023406D02*
X0130686D01*
X0130209Y0023208D01*
X0129843Y0022843D01*
X0129645Y0022365D01*
Y0021848D01*
X0129843Y0021370D01*
X0130209Y0021004D01*
X0130686Y0020806D01*
X0131203D01*
X0131681Y0021004D01*
X0132047Y0021370D01*
X0132245Y0021848D01*
Y0022365D01*
X0132047Y0022843D01*
X0131681Y0023208D01*
X0131203Y0023406D01*
D02*
G37*
G36*
X0207156Y0029673D02*
X0205915D01*
X0204716Y0029352D01*
X0203642Y0028732D01*
X0202764Y0027854D01*
X0202144Y0026780D01*
X0201823Y0025581D01*
Y0024340D01*
X0202144Y0023142D01*
X0202764Y0022067D01*
X0203642Y0021190D01*
X0204716Y0020569D01*
X0205915Y0020248D01*
X0207156D01*
X0208354Y0020569D01*
X0209429Y0021190D01*
X0210306Y0022067D01*
X0210927Y0023142D01*
X0211248Y0024340D01*
Y0025581D01*
X0210927Y0026780D01*
X0210306Y0027854D01*
X0209429Y0028732D01*
X0208354Y0029352D01*
X0207156Y0029673D01*
D02*
G37*
G36*
X0057148Y0020591D02*
X0056631D01*
X0056153Y0020393D01*
X0055788Y0020028D01*
X0055590Y0019550D01*
Y0019033D01*
X0055788Y0018555D01*
X0056153Y0018189D01*
X0056631Y0017991D01*
X0057148D01*
X0057626Y0018189D01*
X0057992Y0018555D01*
X0058190Y0019033D01*
Y0019550D01*
X0057992Y0020028D01*
X0057626Y0020393D01*
X0057148Y0020591D01*
D02*
G37*
G36*
X0126243Y0018721D02*
X0125726D01*
X0125248Y0018523D01*
X0124882Y0018158D01*
X0124684Y0017680D01*
Y0017163D01*
X0124882Y0016685D01*
X0125248Y0016319D01*
X0125726Y0016121D01*
X0126243D01*
X0126721Y0016319D01*
X0127086Y0016685D01*
X0127284Y0017163D01*
Y0017680D01*
X0127086Y0018158D01*
X0126721Y0018523D01*
X0126243Y0018721D01*
D02*
G37*
G36*
X0004196Y0017048D02*
X0003678D01*
X0003201Y0016850D01*
X0002835Y0016484D01*
X0002637Y0016007D01*
Y0015489D01*
X0002835Y0015012D01*
X0003201Y0014646D01*
X0003678Y0014448D01*
X0004196D01*
X0004673Y0014646D01*
X0005039Y0015012D01*
X0005237Y0015489D01*
Y0016007D01*
X0005039Y0016484D01*
X0004673Y0016850D01*
X0004196Y0017048D01*
D02*
G37*
G36*
X0374785Y0020264D02*
X0373876D01*
X0372998Y0020029D01*
X0372211Y0019574D01*
X0371568Y0018931D01*
X0371113Y0018144D01*
X0370878Y0017266D01*
Y0016356D01*
X0371113Y0015478D01*
X0371568Y0014691D01*
X0372211Y0014048D01*
X0372998Y0013594D01*
X0373876Y0013358D01*
X0374785D01*
X0375663Y0013594D01*
X0376451Y0014048D01*
X0377094Y0014691D01*
X0377548Y0015478D01*
X0377783Y0016356D01*
Y0017266D01*
X0377548Y0018144D01*
X0377094Y0018931D01*
X0376451Y0019574D01*
X0375663Y0020029D01*
X0374785Y0020264D01*
D02*
G37*
G36*
X0364785D02*
X0363876D01*
X0362998Y0020029D01*
X0362211Y0019574D01*
X0361568Y0018931D01*
X0361113Y0018144D01*
X0360878Y0017266D01*
Y0016356D01*
X0361113Y0015478D01*
X0361568Y0014691D01*
X0362211Y0014048D01*
X0362998Y0013594D01*
X0363876Y0013358D01*
X0364785D01*
X0365663Y0013594D01*
X0366451Y0014048D01*
X0367094Y0014691D01*
X0367548Y0015478D01*
X0367783Y0016356D01*
Y0017266D01*
X0367548Y0018144D01*
X0367094Y0018931D01*
X0366451Y0019574D01*
X0365663Y0020029D01*
X0364785Y0020264D01*
D02*
G37*
G36*
X0354785D02*
X0353876D01*
X0352998Y0020029D01*
X0352211Y0019574D01*
X0351568Y0018931D01*
X0351113Y0018144D01*
X0350878Y0017266D01*
Y0016356D01*
X0351113Y0015478D01*
X0351568Y0014691D01*
X0352211Y0014048D01*
X0352998Y0013594D01*
X0353876Y0013358D01*
X0354785D01*
X0355663Y0013594D01*
X0356451Y0014048D01*
X0357094Y0014691D01*
X0357548Y0015478D01*
X0357784Y0016356D01*
Y0017266D01*
X0357548Y0018144D01*
X0357094Y0018931D01*
X0356451Y0019574D01*
X0355663Y0020029D01*
X0354785Y0020264D01*
D02*
G37*
G36*
X0344785D02*
X0343876D01*
X0342998Y0020029D01*
X0342211Y0019574D01*
X0341568Y0018931D01*
X0341113Y0018144D01*
X0340878Y0017266D01*
Y0016356D01*
X0341113Y0015478D01*
X0341568Y0014691D01*
X0342211Y0014048D01*
X0342998Y0013594D01*
X0343876Y0013358D01*
X0344785D01*
X0345663Y0013594D01*
X0346451Y0014048D01*
X0347094Y0014691D01*
X0347548Y0015478D01*
X0347783Y0016356D01*
Y0017266D01*
X0347548Y0018144D01*
X0347094Y0018931D01*
X0346451Y0019574D01*
X0345663Y0020029D01*
X0344785Y0020264D01*
D02*
G37*
G36*
X0334832D02*
X0333923D01*
X0333044Y0020029D01*
X0332257Y0019574D01*
X0331614Y0018931D01*
X0331160Y0018144D01*
X0330924Y0017266D01*
Y0016356D01*
X0331160Y0015478D01*
X0331614Y0014691D01*
X0332257Y0014048D01*
X0333044Y0013594D01*
X0333923Y0013358D01*
X0334832D01*
X0335710Y0013594D01*
X0336497Y0014048D01*
X0337140Y0014691D01*
X0337595Y0015478D01*
X0337830Y0016356D01*
Y0017266D01*
X0337595Y0018144D01*
X0337140Y0018931D01*
X0336497Y0019574D01*
X0335710Y0020029D01*
X0334832Y0020264D01*
D02*
G37*
G36*
X0324831D02*
X0323922D01*
X0323044Y0020029D01*
X0322257Y0019574D01*
X0321614Y0018931D01*
X0321159Y0018144D01*
X0320924Y0017266D01*
Y0016356D01*
X0321159Y0015478D01*
X0321614Y0014691D01*
X0322257Y0014048D01*
X0323044Y0013594D01*
X0323922Y0013358D01*
X0324831D01*
X0325710Y0013594D01*
X0326497Y0014048D01*
X0327140Y0014691D01*
X0327594Y0015478D01*
X0327830Y0016356D01*
Y0017266D01*
X0327594Y0018144D01*
X0327140Y0018931D01*
X0326497Y0019574D01*
X0325710Y0020029D01*
X0324831Y0020264D01*
D02*
G37*
G36*
X0385807Y0020302D02*
X0382854D01*
X0382083Y0020149D01*
X0381429Y0019712D01*
X0380993Y0019059D01*
X0380839Y0018287D01*
Y0015335D01*
X0380993Y0014563D01*
X0381429Y0013910D01*
X0382083Y0013473D01*
X0382854Y0013320D01*
X0385807D01*
X0386578Y0013473D01*
X0387232Y0013910D01*
X0387669Y0014563D01*
X0387822Y0015335D01*
Y0018287D01*
X0387669Y0019059D01*
X0387232Y0019712D01*
X0386578Y0020149D01*
X0385807Y0020302D01*
D02*
G37*
G36*
X0129589Y0015473D02*
X0129072D01*
X0128594Y0015275D01*
X0128229Y0014910D01*
X0128031Y0014432D01*
Y0013915D01*
X0128229Y0013437D01*
X0128594Y0013071D01*
X0129072Y0012873D01*
X0129589D01*
X0130067Y0013071D01*
X0130433Y0013437D01*
X0130631Y0013915D01*
Y0014432D01*
X0130433Y0014910D01*
X0130067Y0015275D01*
X0129589Y0015473D01*
D02*
G37*
G36*
X0057148Y0014686D02*
X0056631D01*
X0056153Y0014488D01*
X0055788Y0014122D01*
X0055590Y0013644D01*
Y0013127D01*
X0055788Y0012649D01*
X0056153Y0012284D01*
X0056631Y0012086D01*
X0057148D01*
X0057626Y0012284D01*
X0057992Y0012649D01*
X0058190Y0013127D01*
Y0013644D01*
X0057992Y0014122D01*
X0057626Y0014488D01*
X0057148Y0014686D01*
D02*
G37*
G36*
X0295896Y0019673D02*
X0294655D01*
X0293457Y0019352D01*
X0292382Y0018732D01*
X0291505Y0017854D01*
X0290884Y0016780D01*
X0290563Y0015581D01*
Y0014340D01*
X0290884Y0013142D01*
X0291505Y0012067D01*
X0292382Y0011190D01*
X0293457Y0010569D01*
X0294655Y0010248D01*
X0295896D01*
X0297095Y0010569D01*
X0298169Y0011190D01*
X0299047Y0012067D01*
X0299667Y0013142D01*
X0299988Y0014340D01*
Y0015581D01*
X0299667Y0016780D01*
X0299047Y0017854D01*
X0298169Y0018732D01*
X0297095Y0019352D01*
X0295896Y0019673D01*
D02*
G37*
G36*
X0256526D02*
X0255285D01*
X0254086Y0019352D01*
X0253012Y0018732D01*
X0252134Y0017854D01*
X0251514Y0016780D01*
X0251193Y0015581D01*
Y0014340D01*
X0251514Y0013142D01*
X0252134Y0012067D01*
X0253012Y0011190D01*
X0254086Y0010569D01*
X0255285Y0010248D01*
X0256526D01*
X0257724Y0010569D01*
X0258799Y0011190D01*
X0259677Y0012067D01*
X0260297Y0013142D01*
X0260618Y0014340D01*
Y0015581D01*
X0260297Y0016780D01*
X0259677Y0017854D01*
X0258799Y0018732D01*
X0257724Y0019352D01*
X0256526Y0019673D01*
D02*
G37*
G36*
X0217156D02*
X0215915D01*
X0214716Y0019352D01*
X0213642Y0018732D01*
X0212764Y0017854D01*
X0212144Y0016780D01*
X0211823Y0015581D01*
Y0014340D01*
X0212144Y0013142D01*
X0212764Y0012067D01*
X0213642Y0011190D01*
X0214716Y0010569D01*
X0215915Y0010248D01*
X0217156D01*
X0218354Y0010569D01*
X0219429Y0011190D01*
X0220306Y0012067D01*
X0220927Y0013142D01*
X0221248Y0014340D01*
Y0015581D01*
X0220927Y0016780D01*
X0220306Y0017854D01*
X0219429Y0018732D01*
X0218354Y0019352D01*
X0217156Y0019673D01*
D02*
G37*
G36*
X0126243Y0012028D02*
X0125726D01*
X0125248Y0011830D01*
X0124882Y0011465D01*
X0124684Y0010987D01*
Y0010470D01*
X0124882Y0009992D01*
X0125248Y0009626D01*
X0125726Y0009428D01*
X0126243D01*
X0126721Y0009626D01*
X0127086Y0009992D01*
X0127284Y0010470D01*
Y0010987D01*
X0127086Y0011465D01*
X0126721Y0011830D01*
X0126243Y0012028D01*
D02*
G37*
G36*
X0324877Y0010402D02*
Y0007358D01*
X0327921D01*
X0327687Y0008230D01*
X0327220Y0009040D01*
X0326558Y0009701D01*
X0325748Y0010169D01*
X0324877Y0010402D01*
D02*
G37*
G36*
X0334877D02*
Y0007358D01*
X0337921D01*
X0337688Y0008230D01*
X0337220Y0009040D01*
X0336559Y0009701D01*
X0335748Y0010169D01*
X0334877Y0010402D01*
D02*
G37*
G36*
X0323877Y0010402D02*
X0323006Y0010169D01*
X0322195Y0009701D01*
X0321534Y0009040D01*
X0321066Y0008230D01*
X0320833Y0007358D01*
X0323877D01*
Y0010402D01*
D02*
G37*
G36*
X0333877D02*
X0333006Y0010169D01*
X0332196Y0009701D01*
X0331534Y0009040D01*
X0331066Y0008230D01*
X0330833Y0007358D01*
X0333877D01*
Y0010402D01*
D02*
G37*
G36*
X0344831Y0010355D02*
Y0007311D01*
X0347875D01*
X0347641Y0008182D01*
X0347174Y0008992D01*
X0346512Y0009654D01*
X0345702Y0010122D01*
X0344831Y0010355D01*
D02*
G37*
G36*
X0343831Y0010355D02*
X0342959Y0010122D01*
X0342149Y0009654D01*
X0341488Y0008992D01*
X0341020Y0008182D01*
X0340787Y0007311D01*
X0343831D01*
Y0010355D01*
D02*
G37*
G36*
X0004196Y0009174D02*
X0003678D01*
X0003201Y0008976D01*
X0002835Y0008610D01*
X0002637Y0008133D01*
Y0007615D01*
X0002835Y0007138D01*
X0003201Y0006772D01*
X0003678Y0006574D01*
X0004196D01*
X0004673Y0006772D01*
X0005039Y0007138D01*
X0005237Y0007615D01*
Y0008133D01*
X0005039Y0008610D01*
X0004673Y0008976D01*
X0004196Y0009174D01*
D02*
G37*
G36*
X0119481Y0008801D02*
X0118964D01*
X0118486Y0008603D01*
X0118121Y0008237D01*
X0117923Y0007759D01*
Y0007242D01*
X0118121Y0006764D01*
X0118486Y0006399D01*
X0118964Y0006201D01*
X0119481D01*
X0119959Y0006399D01*
X0120325Y0006764D01*
X0120523Y0007242D01*
Y0007759D01*
X0120325Y0008237D01*
X0119959Y0008603D01*
X0119481Y0008801D01*
D02*
G37*
G36*
X0114560D02*
X0114043D01*
X0113565Y0008603D01*
X0113199Y0008237D01*
X0113002Y0007759D01*
Y0007242D01*
X0113199Y0006764D01*
X0113565Y0006399D01*
X0114043Y0006201D01*
X0114560D01*
X0115038Y0006399D01*
X0115404Y0006764D01*
X0115602Y0007242D01*
Y0007759D01*
X0115404Y0008237D01*
X0115038Y0008603D01*
X0114560Y0008801D01*
D02*
G37*
G36*
X0109639D02*
X0109122D01*
X0108644Y0008603D01*
X0108278Y0008237D01*
X0108080Y0007759D01*
Y0007242D01*
X0108278Y0006764D01*
X0108644Y0006399D01*
X0109122Y0006201D01*
X0109639D01*
X0110117Y0006399D01*
X0110482Y0006764D01*
X0110680Y0007242D01*
Y0007759D01*
X0110482Y0008237D01*
X0110117Y0008603D01*
X0109639Y0008801D01*
D02*
G37*
G36*
X0095859D02*
X0095342D01*
X0094864Y0008603D01*
X0094499Y0008237D01*
X0094301Y0007759D01*
Y0007242D01*
X0094499Y0006764D01*
X0094864Y0006399D01*
X0095342Y0006201D01*
X0095859D01*
X0096337Y0006399D01*
X0096703Y0006764D01*
X0096901Y0007242D01*
Y0007759D01*
X0096703Y0008237D01*
X0096337Y0008603D01*
X0095859Y0008801D01*
D02*
G37*
G36*
X0090938D02*
X0090421D01*
X0089943Y0008603D01*
X0089577Y0008237D01*
X0089380Y0007759D01*
Y0007242D01*
X0089577Y0006764D01*
X0089943Y0006399D01*
X0090421Y0006201D01*
X0090938D01*
X0091416Y0006399D01*
X0091782Y0006764D01*
X0091979Y0007242D01*
Y0007759D01*
X0091782Y0008237D01*
X0091416Y0008603D01*
X0090938Y0008801D01*
D02*
G37*
G36*
X0086017D02*
X0085500D01*
X0085022Y0008603D01*
X0084656Y0008237D01*
X0084458Y0007759D01*
Y0007242D01*
X0084656Y0006764D01*
X0085022Y0006399D01*
X0085500Y0006201D01*
X0086017D01*
X0086495Y0006399D01*
X0086860Y0006764D01*
X0087058Y0007242D01*
Y0007759D01*
X0086860Y0008237D01*
X0086495Y0008603D01*
X0086017Y0008801D01*
D02*
G37*
G36*
X0072503Y0008780D02*
X0071986D01*
X0071508Y0008582D01*
X0071142Y0008217D01*
X0070944Y0007739D01*
Y0007222D01*
X0071142Y0006744D01*
X0071508Y0006378D01*
X0071986Y0006180D01*
X0072503D01*
X0072980Y0006378D01*
X0073346Y0006744D01*
X0073544Y0007222D01*
Y0007739D01*
X0073346Y0008217D01*
X0072980Y0008582D01*
X0072503Y0008780D01*
D02*
G37*
G36*
X0067385D02*
X0066867D01*
X0066390Y0008582D01*
X0066024Y0008217D01*
X0065826Y0007739D01*
Y0007222D01*
X0066024Y0006744D01*
X0066390Y0006378D01*
X0066867Y0006180D01*
X0067385D01*
X0067862Y0006378D01*
X0068228Y0006744D01*
X0068426Y0007222D01*
Y0007739D01*
X0068228Y0008217D01*
X0067862Y0008582D01*
X0067385Y0008780D01*
D02*
G37*
G36*
X0062266D02*
X0061749D01*
X0061272Y0008582D01*
X0060906Y0008217D01*
X0060708Y0007739D01*
Y0007222D01*
X0060906Y0006744D01*
X0061272Y0006378D01*
X0061749Y0006180D01*
X0062266D01*
X0062744Y0006378D01*
X0063110Y0006744D01*
X0063308Y0007222D01*
Y0007739D01*
X0063110Y0008217D01*
X0062744Y0008582D01*
X0062266Y0008780D01*
D02*
G37*
G36*
X0057148D02*
X0056631D01*
X0056153Y0008582D01*
X0055788Y0008217D01*
X0055590Y0007739D01*
Y0007222D01*
X0055788Y0006744D01*
X0056153Y0006378D01*
X0056631Y0006180D01*
X0057148D01*
X0057626Y0006378D01*
X0057992Y0006744D01*
X0058190Y0007222D01*
Y0007739D01*
X0057992Y0008217D01*
X0057626Y0008582D01*
X0057148Y0008780D01*
D02*
G37*
G36*
X0384785Y0010264D02*
X0383876D01*
X0382998Y0010029D01*
X0382211Y0009574D01*
X0381568Y0008931D01*
X0381113Y0008144D01*
X0380878Y0007266D01*
Y0006357D01*
X0381113Y0005478D01*
X0381568Y0004691D01*
X0382211Y0004048D01*
X0382998Y0003594D01*
X0383876Y0003358D01*
X0384785D01*
X0385663Y0003594D01*
X0386451Y0004048D01*
X0387094Y0004691D01*
X0387548Y0005478D01*
X0387784Y0006357D01*
Y0007266D01*
X0387548Y0008144D01*
X0387094Y0008931D01*
X0386451Y0009574D01*
X0385663Y0010029D01*
X0384785Y0010264D01*
D02*
G37*
G36*
X0374785D02*
X0373876D01*
X0372998Y0010029D01*
X0372211Y0009574D01*
X0371568Y0008931D01*
X0371113Y0008144D01*
X0370878Y0007266D01*
Y0006357D01*
X0371113Y0005478D01*
X0371568Y0004691D01*
X0372211Y0004048D01*
X0372998Y0003594D01*
X0373876Y0003358D01*
X0374785D01*
X0375663Y0003594D01*
X0376451Y0004048D01*
X0377094Y0004691D01*
X0377548Y0005478D01*
X0377783Y0006357D01*
Y0007266D01*
X0377548Y0008144D01*
X0377094Y0008931D01*
X0376451Y0009574D01*
X0375663Y0010029D01*
X0374785Y0010264D01*
D02*
G37*
G36*
X0364785D02*
X0363876D01*
X0362998Y0010029D01*
X0362211Y0009574D01*
X0361568Y0008931D01*
X0361113Y0008144D01*
X0360878Y0007266D01*
Y0006357D01*
X0361113Y0005478D01*
X0361568Y0004691D01*
X0362211Y0004048D01*
X0362998Y0003594D01*
X0363876Y0003358D01*
X0364785D01*
X0365663Y0003594D01*
X0366451Y0004048D01*
X0367094Y0004691D01*
X0367548Y0005478D01*
X0367783Y0006357D01*
Y0007266D01*
X0367548Y0008144D01*
X0367094Y0008931D01*
X0366451Y0009574D01*
X0365663Y0010029D01*
X0364785Y0010264D01*
D02*
G37*
G36*
X0354785D02*
X0353876D01*
X0352998Y0010029D01*
X0352211Y0009574D01*
X0351568Y0008931D01*
X0351113Y0008144D01*
X0350878Y0007266D01*
Y0006357D01*
X0351113Y0005478D01*
X0351568Y0004691D01*
X0352211Y0004048D01*
X0352998Y0003594D01*
X0353876Y0003358D01*
X0354785D01*
X0355663Y0003594D01*
X0356451Y0004048D01*
X0357094Y0004691D01*
X0357548Y0005478D01*
X0357784Y0006357D01*
Y0007266D01*
X0357548Y0008144D01*
X0357094Y0008931D01*
X0356451Y0009574D01*
X0355663Y0010029D01*
X0354785Y0010264D01*
D02*
G37*
G36*
X0337921Y0006358D02*
X0334877D01*
Y0003314D01*
X0335748Y0003548D01*
X0336559Y0004016D01*
X0337220Y0004677D01*
X0337688Y0005487D01*
X0337921Y0006358D01*
D02*
G37*
G36*
X0327921D02*
X0324877D01*
Y0003314D01*
X0325748Y0003548D01*
X0326558Y0004016D01*
X0327220Y0004677D01*
X0327687Y0005487D01*
X0327921Y0006358D01*
D02*
G37*
G36*
X0333877D02*
X0330833D01*
X0331066Y0005487D01*
X0331534Y0004677D01*
X0332196Y0004016D01*
X0333006Y0003548D01*
X0333877Y0003314D01*
Y0006358D01*
D02*
G37*
G36*
X0323877D02*
X0320833D01*
X0321066Y0005487D01*
X0321534Y0004677D01*
X0322195Y0004016D01*
X0323006Y0003548D01*
X0323877Y0003314D01*
Y0006358D01*
D02*
G37*
G36*
X0347875Y0006311D02*
X0344831D01*
Y0003267D01*
X0345702Y0003500D01*
X0346512Y0003968D01*
X0347174Y0004630D01*
X0347641Y0005440D01*
X0347875Y0006311D01*
D02*
G37*
G36*
X0343831D02*
X0340787D01*
X0341020Y0005440D01*
X0341488Y0004630D01*
X0342149Y0003968D01*
X0342959Y0003500D01*
X0343831Y0003267D01*
Y0006311D01*
D02*
G37*
G36*
X0019036Y0015953D02*
X0017775D01*
X0016537Y0015707D01*
X0015371Y0015224D01*
X0014322Y0014523D01*
X0013430Y0013631D01*
X0012729Y0012581D01*
X0012246Y0011416D01*
X0012000Y0010178D01*
Y0008916D01*
X0012246Y0007679D01*
X0012729Y0006513D01*
X0013430Y0005464D01*
X0014322Y0004572D01*
X0015371Y0003871D01*
X0016537Y0003388D01*
X0017775Y0003142D01*
X0019036D01*
X0020274Y0003388D01*
X0021440Y0003871D01*
X0022489Y0004572D01*
X0023381Y0005464D01*
X0024082Y0006513D01*
X0024565Y0007679D01*
X0024811Y0008916D01*
Y0010178D01*
X0024565Y0011416D01*
X0024082Y0012581D01*
X0023381Y0013631D01*
X0022489Y0014523D01*
X0021440Y0015224D01*
X0020274Y0015707D01*
X0019036Y0015953D01*
D02*
G37*
G36*
X0183950Y0076562D02*
X0183433D01*
X0182955Y0076364D01*
X0182589Y0075999D01*
X0182392Y0075521D01*
Y0075004D01*
X0182589Y0074526D01*
X0182955Y0074160D01*
X0183433Y0073962D01*
X0183950D01*
X0184428Y0074160D01*
X0184794Y0074526D01*
X0184992Y0075004D01*
Y0075521D01*
X0184794Y0075999D01*
X0184428Y0076364D01*
X0183950Y0076562D01*
D02*
G37*
G36*
X0199244Y0076562D02*
X0198727D01*
X0198249Y0076364D01*
X0197884Y0075999D01*
X0197686Y0075521D01*
Y0075004D01*
X0197884Y0074526D01*
X0198249Y0074160D01*
X0198727Y0073962D01*
X0199244D01*
X0199722Y0074160D01*
X0200088Y0074526D01*
X0200286Y0075004D01*
Y0075521D01*
X0200088Y0075999D01*
X0199722Y0076364D01*
X0199244Y0076562D01*
D02*
G37*
G36*
X0254786Y0073642D02*
X0254269D01*
X0253791Y0073445D01*
X0253557Y0073211D01*
X0253248Y0073127D01*
X0252939Y0073211D01*
X0252705Y0073445D01*
X0252227Y0073642D01*
X0251710D01*
X0251232Y0073445D01*
X0250866Y0073079D01*
X0250669Y0072601D01*
Y0072084D01*
X0250866Y0071606D01*
X0251232Y0071240D01*
X0251710Y0071043D01*
X0252227D01*
X0252705Y0071240D01*
X0252939Y0071474D01*
X0253248Y0071558D01*
X0253557Y0071474D01*
X0253791Y0071240D01*
X0254269Y0071043D01*
X0254786D01*
X0255264Y0071240D01*
X0255630Y0071606D01*
X0255828Y0072084D01*
Y0072601D01*
X0255630Y0073079D01*
X0255264Y0073445D01*
X0254786Y0073642D01*
D02*
G37*
G36*
X0166893Y0075414D02*
X0166375D01*
X0165898Y0075216D01*
X0165532Y0074851D01*
X0165334Y0074373D01*
Y0073856D01*
X0165532Y0073378D01*
X0165898Y0073012D01*
X0166375Y0072814D01*
X0166893D01*
X0167370Y0073012D01*
X0167736Y0073378D01*
X0167934Y0073856D01*
Y0074373D01*
X0167736Y0074851D01*
X0167370Y0075216D01*
X0166893Y0075414D01*
D02*
G37*
G36*
X0171962Y0074943D02*
X0171445D01*
X0170967Y0074745D01*
X0170601Y0074379D01*
X0170403Y0073901D01*
Y0073384D01*
X0170601Y0072906D01*
X0170967Y0072540D01*
X0171445Y0072343D01*
X0171962D01*
X0172440Y0072540D01*
X0172805Y0072906D01*
X0173003Y0073384D01*
Y0073901D01*
X0172805Y0074379D01*
X0172440Y0074745D01*
X0171962Y0074943D01*
D02*
G37*
G36*
X0223782Y0074725D02*
X0223265D01*
X0222787Y0074527D01*
X0222422Y0074162D01*
X0222224Y0073684D01*
Y0073167D01*
X0222422Y0072689D01*
X0222787Y0072323D01*
X0223265Y0072125D01*
X0223782D01*
X0224260Y0072323D01*
X0224626Y0072689D01*
X0224824Y0073167D01*
Y0073684D01*
X0224626Y0074162D01*
X0224260Y0074527D01*
X0223782Y0074725D01*
D02*
G37*
G36*
X0240219Y0073741D02*
X0239702D01*
X0239224Y0073543D01*
X0238859Y0073177D01*
X0238661Y0072699D01*
Y0072182D01*
X0238859Y0071705D01*
X0239224Y0071339D01*
X0239702Y0071141D01*
X0240219D01*
X0240697Y0071339D01*
X0241063Y0071705D01*
X0241261Y0072182D01*
Y0072699D01*
X0241063Y0073177D01*
X0240697Y0073543D01*
X0240219Y0073741D01*
D02*
G37*
G36*
X0232542D02*
X0232025D01*
X0231547Y0073543D01*
X0231181Y0073177D01*
X0230983Y0072699D01*
Y0072182D01*
X0231181Y0071705D01*
X0231547Y0071339D01*
X0232025Y0071141D01*
X0232542D01*
X0233020Y0071339D01*
X0233386Y0071705D01*
X0233583Y0072182D01*
Y0072699D01*
X0233386Y0073177D01*
X0233020Y0073543D01*
X0232542Y0073741D01*
D02*
G37*
G36*
X0265022Y0073741D02*
X0264505D01*
X0264027Y0073543D01*
X0263662Y0073177D01*
X0263464Y0072699D01*
Y0072182D01*
X0263662Y0071705D01*
X0264027Y0071339D01*
X0264505Y0071141D01*
X0265022D01*
X0265500Y0071339D01*
X0265705Y0071544D01*
X0266120Y0071594D01*
X0266321Y0071506D01*
X0266586Y0071240D01*
X0267064Y0071043D01*
X0267581D01*
X0268059Y0071240D01*
X0268425Y0071606D01*
X0268623Y0072084D01*
Y0072601D01*
X0268425Y0073079D01*
X0268059Y0073445D01*
X0267581Y0073642D01*
X0267064D01*
X0266586Y0073445D01*
X0266381Y0073239D01*
X0265967Y0073190D01*
X0265766Y0073277D01*
X0265500Y0073543D01*
X0265022Y0073741D01*
D02*
G37*
G36*
X0183822Y0073150D02*
X0183304D01*
X0182827Y0072953D01*
X0182461Y0072587D01*
X0182263Y0072109D01*
Y0071592D01*
X0182461Y0071114D01*
X0182827Y0070748D01*
X0183304Y0070550D01*
X0183822D01*
X0184299Y0070748D01*
X0184665Y0071114D01*
X0184863Y0071592D01*
Y0072109D01*
X0184665Y0072587D01*
X0184299Y0072953D01*
X0183822Y0073150D01*
D02*
G37*
G36*
X0292387Y0072875D02*
X0291869D01*
X0291392Y0072677D01*
X0291026Y0072312D01*
X0290828Y0071834D01*
Y0071317D01*
X0291026Y0070839D01*
X0291392Y0070473D01*
X0291869Y0070275D01*
X0292387D01*
X0292864Y0070473D01*
X0293230Y0070839D01*
X0293428Y0071317D01*
Y0071834D01*
X0293230Y0072312D01*
X0292864Y0072677D01*
X0292387Y0072875D01*
D02*
G37*
G36*
X0199317Y0072575D02*
X0198800D01*
X0198322Y0072377D01*
X0197957Y0072011D01*
X0197759Y0071534D01*
Y0071016D01*
X0197957Y0070539D01*
X0198322Y0070173D01*
X0198800Y0069975D01*
X0199317D01*
X0199795Y0070173D01*
X0200161Y0070539D01*
X0200359Y0071016D01*
Y0071534D01*
X0200161Y0072011D01*
X0199795Y0072377D01*
X0199317Y0072575D01*
D02*
G37*
G36*
X0166936Y0071462D02*
X0166418D01*
X0165940Y0071264D01*
X0165575Y0070899D01*
X0165377Y0070421D01*
Y0069904D01*
X0165575Y0069426D01*
X0165940Y0069060D01*
X0166418Y0068862D01*
X0166936D01*
X0167413Y0069060D01*
X0167779Y0069426D01*
X0167977Y0069904D01*
Y0070421D01*
X0167779Y0070899D01*
X0167413Y0071264D01*
X0166936Y0071462D01*
D02*
G37*
G36*
X0171962Y0069037D02*
X0171445D01*
X0170967Y0068839D01*
X0170601Y0068474D01*
X0170403Y0067996D01*
Y0067479D01*
X0170601Y0067001D01*
X0170967Y0066635D01*
X0171445Y0066437D01*
X0171962D01*
X0172440Y0066635D01*
X0172805Y0067001D01*
X0173003Y0067479D01*
Y0067996D01*
X0172805Y0068474D01*
X0172440Y0068839D01*
X0171962Y0069037D01*
D02*
G37*
G36*
X0199247Y0068560D02*
X0198729D01*
X0198252Y0068362D01*
X0197886Y0067996D01*
X0197688Y0067518D01*
Y0067001D01*
X0197886Y0066523D01*
X0198252Y0066158D01*
X0198729Y0065960D01*
X0199247D01*
X0199724Y0066158D01*
X0200090Y0066523D01*
X0200288Y0067001D01*
Y0067518D01*
X0200090Y0067996D01*
X0199724Y0068362D01*
X0199247Y0068560D01*
D02*
G37*
G36*
X0184060Y0068299D02*
X0183543D01*
X0183065Y0068101D01*
X0182700Y0067736D01*
X0182502Y0067258D01*
Y0066741D01*
X0182700Y0066263D01*
X0183065Y0065897D01*
X0183543Y0065699D01*
X0184060D01*
X0184538Y0065897D01*
X0184904Y0066263D01*
X0185102Y0066741D01*
Y0067258D01*
X0184904Y0067736D01*
X0184538Y0068101D01*
X0184060Y0068299D01*
D02*
G37*
G36*
X0317680Y0068153D02*
X0317163D01*
X0316685Y0067955D01*
X0316319Y0067590D01*
X0316121Y0067112D01*
Y0066595D01*
X0316319Y0066117D01*
X0316685Y0065751D01*
X0317163Y0065553D01*
X0317680D01*
X0318158Y0065751D01*
X0318523Y0066117D01*
X0318721Y0066595D01*
Y0067112D01*
X0318523Y0067590D01*
X0318158Y0067955D01*
X0317680Y0068153D01*
D02*
G37*
G36*
X0237660Y0065670D02*
X0237143D01*
X0236665Y0065472D01*
X0236431Y0065238D01*
X0236122Y0065154D01*
X0235813Y0065238D01*
X0235579Y0065472D01*
X0235101Y0065670D01*
X0234584D01*
X0234106Y0065472D01*
X0233740Y0065106D01*
X0233542Y0064629D01*
Y0064112D01*
X0233740Y0063634D01*
X0234106Y0063268D01*
X0234584Y0063070D01*
X0235101D01*
X0235579Y0063268D01*
X0235813Y0063502D01*
X0236122Y0063586D01*
X0236431Y0063502D01*
X0236665Y0063268D01*
X0237143Y0063070D01*
X0237660D01*
X0238138Y0063268D01*
X0238504Y0063634D01*
X0238702Y0064112D01*
Y0064629D01*
X0238504Y0065106D01*
X0238138Y0065472D01*
X0237660Y0065670D01*
D02*
G37*
G36*
X0153310Y0066457D02*
X0152793D01*
X0152315Y0066260D01*
X0151949Y0065894D01*
X0151751Y0065416D01*
Y0064899D01*
X0151949Y0064421D01*
X0152315Y0064055D01*
X0152793Y0063858D01*
X0153310D01*
X0153788Y0064055D01*
X0154153Y0064421D01*
X0154351Y0064899D01*
Y0065416D01*
X0154153Y0065894D01*
X0153788Y0066260D01*
X0153310Y0066457D01*
D02*
G37*
G36*
X0148585D02*
X0148068D01*
X0147590Y0066260D01*
X0147225Y0065894D01*
X0147027Y0065416D01*
Y0064899D01*
X0147225Y0064421D01*
X0147590Y0064055D01*
X0148068Y0063858D01*
X0148585D01*
X0149063Y0064055D01*
X0149429Y0064421D01*
X0149627Y0064899D01*
Y0065416D01*
X0149429Y0065894D01*
X0149063Y0066260D01*
X0148585Y0066457D01*
D02*
G37*
G36*
X0270042Y0065768D02*
X0269525D01*
X0269047Y0065571D01*
X0268681Y0065205D01*
X0268483Y0064727D01*
Y0064210D01*
X0268681Y0063732D01*
X0269047Y0063366D01*
X0269525Y0063169D01*
X0270042D01*
X0270520Y0063366D01*
X0270886Y0063732D01*
X0271083Y0064210D01*
Y0064727D01*
X0270886Y0065205D01*
X0270520Y0065571D01*
X0270042Y0065768D01*
D02*
G37*
G36*
X0329491Y0065079D02*
X0328974D01*
X0328496Y0064882D01*
X0328130Y0064516D01*
X0327932Y0064038D01*
Y0063521D01*
X0328130Y0063043D01*
X0328496Y0062677D01*
X0328974Y0062480D01*
X0329491D01*
X0329969Y0062677D01*
X0330334Y0063043D01*
X0330532Y0063521D01*
Y0064038D01*
X0330334Y0064516D01*
X0329969Y0064882D01*
X0329491Y0065079D01*
D02*
G37*
G36*
X0321108Y0064981D02*
X0320591D01*
X0320113Y0064783D01*
X0319747Y0064417D01*
X0319549Y0063940D01*
Y0063423D01*
X0319747Y0062945D01*
X0320113Y0062579D01*
X0320591Y0062381D01*
X0321108D01*
X0321586Y0062579D01*
X0321951Y0062945D01*
X0322149Y0063423D01*
Y0063940D01*
X0321951Y0064417D01*
X0321586Y0064783D01*
X0321108Y0064981D01*
D02*
G37*
G36*
X0308665D02*
X0308148D01*
X0307670Y0064783D01*
X0307305Y0064417D01*
X0307107Y0063940D01*
Y0063423D01*
X0307305Y0062945D01*
X0307670Y0062579D01*
X0308148Y0062381D01*
X0308665D01*
X0309143Y0062579D01*
X0309509Y0062945D01*
X0309707Y0063423D01*
Y0063940D01*
X0309509Y0064417D01*
X0309143Y0064783D01*
X0308665Y0064981D01*
D02*
G37*
G36*
X0260647Y0064876D02*
X0260129D01*
X0259652Y0064678D01*
X0259286Y0064312D01*
X0259088Y0063835D01*
Y0063317D01*
X0259286Y0062840D01*
X0259652Y0062474D01*
X0260129Y0062276D01*
X0260647D01*
X0261124Y0062474D01*
X0261490Y0062840D01*
X0261688Y0063317D01*
Y0063835D01*
X0261490Y0064312D01*
X0261124Y0064678D01*
X0260647Y0064876D01*
D02*
G37*
G36*
X0255893Y0064866D02*
X0255375D01*
X0254898Y0064668D01*
X0254532Y0064302D01*
X0254334Y0063825D01*
Y0063308D01*
X0254532Y0062830D01*
X0254898Y0062464D01*
X0255375Y0062266D01*
X0255893D01*
X0256370Y0062464D01*
X0256736Y0062830D01*
X0256934Y0063308D01*
Y0063825D01*
X0256736Y0064302D01*
X0256370Y0064668D01*
X0255893Y0064866D01*
D02*
G37*
G36*
X0202572Y0064805D02*
X0202055D01*
X0201577Y0064607D01*
X0201211Y0064241D01*
X0201013Y0063763D01*
Y0063246D01*
X0201211Y0062768D01*
X0201577Y0062403D01*
X0202055Y0062205D01*
X0202572D01*
X0203050Y0062403D01*
X0203415Y0062768D01*
X0203613Y0063246D01*
Y0063763D01*
X0203415Y0064241D01*
X0203050Y0064607D01*
X0202572Y0064805D01*
D02*
G37*
G36*
X0150948Y0064095D02*
X0150430D01*
X0149953Y0063897D01*
X0149587Y0063532D01*
X0149389Y0063054D01*
Y0062537D01*
X0149587Y0062059D01*
X0149953Y0061693D01*
X0150430Y0061495D01*
X0150948D01*
X0151425Y0061693D01*
X0151791Y0062059D01*
X0151989Y0062537D01*
Y0063054D01*
X0151791Y0063532D01*
X0151425Y0063897D01*
X0150948Y0064095D01*
D02*
G37*
G36*
X0305967Y0063330D02*
X0305450D01*
X0304972Y0063133D01*
X0304607Y0062767D01*
X0304409Y0062289D01*
Y0061772D01*
X0304607Y0061294D01*
X0304972Y0060928D01*
X0305450Y0060730D01*
X0305967D01*
X0306445Y0060928D01*
X0306811Y0061294D01*
X0307009Y0061772D01*
Y0062289D01*
X0306811Y0062767D01*
X0306445Y0063133D01*
X0305967Y0063330D01*
D02*
G37*
G36*
X0159530Y0063229D02*
X0159013D01*
X0158535Y0063031D01*
X0158170Y0062665D01*
X0157972Y0062188D01*
Y0061671D01*
X0158170Y0061193D01*
X0158535Y0060827D01*
X0159013Y0060629D01*
X0159530D01*
X0160008Y0060827D01*
X0160374Y0061193D01*
X0160572Y0061671D01*
Y0062188D01*
X0160374Y0062665D01*
X0160008Y0063031D01*
X0159530Y0063229D01*
D02*
G37*
G36*
X0183625Y0062520D02*
X0183108D01*
X0182630Y0062323D01*
X0182264Y0061957D01*
X0182066Y0061479D01*
Y0060962D01*
X0182264Y0060484D01*
X0182630Y0060118D01*
X0183108Y0059921D01*
X0183625D01*
X0184102Y0060118D01*
X0184468Y0060484D01*
X0184666Y0060962D01*
Y0061479D01*
X0184468Y0061957D01*
X0184102Y0062323D01*
X0183625Y0062520D01*
D02*
G37*
G36*
X0193566Y0062324D02*
X0193049D01*
X0192571Y0062126D01*
X0192205Y0061760D01*
X0192007Y0061282D01*
Y0060765D01*
X0192205Y0060287D01*
X0192571Y0059921D01*
X0193049Y0059724D01*
X0193566D01*
X0194044Y0059921D01*
X0194409Y0060287D01*
X0194607Y0060765D01*
Y0061282D01*
X0194409Y0061760D01*
X0194044Y0062126D01*
X0193566Y0062324D01*
D02*
G37*
G36*
X0153310Y0061733D02*
X0152793D01*
X0152315Y0061535D01*
X0151949Y0061169D01*
X0151751Y0060692D01*
Y0060175D01*
X0151949Y0059697D01*
X0152315Y0059331D01*
X0152793Y0059133D01*
X0153310D01*
X0153788Y0059331D01*
X0154153Y0059697D01*
X0154351Y0060175D01*
Y0060692D01*
X0154153Y0061169D01*
X0153788Y0061535D01*
X0153310Y0061733D01*
D02*
G37*
G36*
X0148585D02*
X0148068D01*
X0147590Y0061535D01*
X0147225Y0061169D01*
X0147027Y0060692D01*
Y0060175D01*
X0147225Y0059697D01*
X0147590Y0059331D01*
X0148068Y0059133D01*
X0148585D01*
X0149063Y0059331D01*
X0149429Y0059697D01*
X0149627Y0060175D01*
Y0060692D01*
X0149429Y0061169D01*
X0149063Y0061535D01*
X0148585Y0061733D01*
D02*
G37*
G36*
X0302858Y0060060D02*
X0302341D01*
X0301863Y0059862D01*
X0301498Y0059496D01*
X0301300Y0059018D01*
Y0058501D01*
X0301498Y0058024D01*
X0301863Y0057658D01*
X0302341Y0057460D01*
X0302858D01*
X0303336Y0057658D01*
X0303702Y0058024D01*
X0303900Y0058501D01*
Y0059018D01*
X0303702Y0059496D01*
X0303336Y0059862D01*
X0302858Y0060060D01*
D02*
G37*
G36*
X0273684Y0060060D02*
X0273167D01*
X0272689Y0059862D01*
X0272323Y0059496D01*
X0272125Y0059018D01*
Y0058501D01*
X0272323Y0058024D01*
X0272689Y0057658D01*
X0273167Y0057460D01*
X0273684D01*
X0274162Y0057658D01*
X0274527Y0058024D01*
X0274725Y0058501D01*
Y0059018D01*
X0274527Y0059496D01*
X0274162Y0059862D01*
X0273684Y0060060D01*
D02*
G37*
G36*
X0197503Y0058387D02*
X0196985D01*
X0196508Y0058189D01*
X0196142Y0057823D01*
X0195944Y0057345D01*
Y0056828D01*
X0196142Y0056350D01*
X0196508Y0055984D01*
X0196985Y0055787D01*
X0197503D01*
X0197980Y0055984D01*
X0198346Y0056350D01*
X0198544Y0056828D01*
Y0057345D01*
X0198346Y0057823D01*
X0197980Y0058189D01*
X0197503Y0058387D01*
D02*
G37*
G36*
X0193566D02*
X0193049D01*
X0192571Y0058189D01*
X0192205Y0057823D01*
X0192007Y0057345D01*
Y0056828D01*
X0192205Y0056350D01*
X0192571Y0055984D01*
X0193049Y0055787D01*
X0193566D01*
X0194044Y0055984D01*
X0194409Y0056350D01*
X0194607Y0056828D01*
Y0057345D01*
X0194409Y0057823D01*
X0194044Y0058189D01*
X0193566Y0058387D01*
D02*
G37*
G36*
X0189629D02*
X0189111D01*
X0188634Y0058189D01*
X0188268Y0057823D01*
X0188070Y0057345D01*
Y0056828D01*
X0188268Y0056350D01*
X0188634Y0055984D01*
X0189111Y0055787D01*
X0189629D01*
X0190106Y0055984D01*
X0190472Y0056350D01*
X0190670Y0056828D01*
Y0057345D01*
X0190472Y0057823D01*
X0190106Y0058189D01*
X0189629Y0058387D01*
D02*
G37*
G36*
X0278032Y0057858D02*
X0277515D01*
X0277037Y0057660D01*
X0276671Y0057294D01*
X0276473Y0056816D01*
Y0056299D01*
X0276671Y0055821D01*
X0277037Y0055455D01*
X0277515Y0055258D01*
X0278032D01*
X0278509Y0055455D01*
X0278875Y0055821D01*
X0279073Y0056299D01*
Y0056816D01*
X0278875Y0057294D01*
X0278509Y0057660D01*
X0278032Y0057858D01*
D02*
G37*
G36*
X0183329Y0057402D02*
X0182812D01*
X0182334Y0057204D01*
X0181969Y0056839D01*
X0181771Y0056361D01*
Y0055844D01*
X0181969Y0055366D01*
X0182334Y0055000D01*
X0182812Y0054802D01*
X0183329D01*
X0183807Y0055000D01*
X0184173Y0055366D01*
X0184371Y0055844D01*
Y0056361D01*
X0184173Y0056839D01*
X0183807Y0057204D01*
X0183329Y0057402D01*
D02*
G37*
G36*
X0138054Y0056713D02*
X0137537D01*
X0137059Y0056516D01*
X0136693Y0056150D01*
X0136495Y0055672D01*
Y0055155D01*
X0136693Y0054677D01*
X0137059Y0054311D01*
X0137537Y0054113D01*
X0138054D01*
X0138532Y0054311D01*
X0138897Y0054677D01*
X0139095Y0055155D01*
Y0055672D01*
X0138897Y0056150D01*
X0138532Y0056516D01*
X0138054Y0056713D01*
D02*
G37*
G36*
X0145436Y0056617D02*
X0144919D01*
X0144441Y0056419D01*
X0144075Y0056054D01*
X0143877Y0055576D01*
Y0055059D01*
X0144075Y0054581D01*
X0144441Y0054215D01*
X0144919Y0054017D01*
X0145436D01*
X0145914Y0054215D01*
X0146279Y0054581D01*
X0146477Y0055059D01*
Y0055576D01*
X0146279Y0056054D01*
X0145914Y0056419D01*
X0145436Y0056617D01*
D02*
G37*
G36*
X0156558Y0055434D02*
X0156041D01*
X0155563Y0055236D01*
X0155197Y0054870D01*
X0154999Y0054392D01*
Y0053875D01*
X0155197Y0053398D01*
X0155563Y0053032D01*
X0156041Y0052834D01*
X0156558D01*
X0157036Y0053032D01*
X0157401Y0053398D01*
X0157599Y0053875D01*
Y0054392D01*
X0157401Y0054870D01*
X0157036Y0055236D01*
X0156558Y0055434D01*
D02*
G37*
G36*
X0151952Y0055404D02*
X0151435D01*
X0150957Y0055206D01*
X0150592Y0054840D01*
X0150394Y0054363D01*
Y0053846D01*
X0150592Y0053368D01*
X0150957Y0053002D01*
X0151435Y0052804D01*
X0151952D01*
X0152430Y0053002D01*
X0152796Y0053368D01*
X0152994Y0053846D01*
Y0054363D01*
X0152796Y0054840D01*
X0152430Y0055206D01*
X0151952Y0055404D01*
D02*
G37*
G36*
X0203900Y0055335D02*
X0203383D01*
X0202905Y0055137D01*
X0202540Y0054772D01*
X0202342Y0054294D01*
Y0053777D01*
X0202540Y0053299D01*
X0202905Y0052933D01*
X0203383Y0052735D01*
X0203900D01*
X0204378Y0052933D01*
X0204744Y0053299D01*
X0204942Y0053777D01*
Y0054294D01*
X0204744Y0054772D01*
X0204378Y0055137D01*
X0203900Y0055335D01*
D02*
G37*
G36*
X0332542Y0055237D02*
X0332025D01*
X0331547Y0055039D01*
X0331181Y0054673D01*
X0330983Y0054196D01*
Y0053678D01*
X0331181Y0053201D01*
X0331547Y0052835D01*
X0332025Y0052637D01*
X0332542D01*
X0333020Y0052835D01*
X0333386Y0053201D01*
X0333583Y0053678D01*
Y0054196D01*
X0333386Y0054673D01*
X0333020Y0055039D01*
X0332542Y0055237D01*
D02*
G37*
G36*
X0314924Y0062422D02*
X0314407D01*
X0313929Y0062224D01*
X0313563Y0061858D01*
X0313365Y0061381D01*
Y0060864D01*
X0313563Y0060386D01*
X0313929Y0060020D01*
X0314251Y0059887D01*
X0314289Y0059871D01*
X0314189Y0059371D01*
X0314167Y0059371D01*
X0314013D01*
X0313535Y0059173D01*
X0313170Y0058807D01*
X0312972Y0058329D01*
Y0057812D01*
X0313170Y0057335D01*
X0313238Y0057266D01*
X0313510Y0056939D01*
X0313238Y0056612D01*
X0313170Y0056543D01*
X0312972Y0056066D01*
Y0055549D01*
X0313170Y0055071D01*
X0313238Y0055002D01*
X0313510Y0054675D01*
X0313238Y0054349D01*
X0313170Y0054280D01*
X0312972Y0053802D01*
Y0053285D01*
X0313170Y0052807D01*
X0313535Y0052441D01*
X0314013Y0052243D01*
X0314530D01*
X0315008Y0052441D01*
X0315374Y0052807D01*
X0315572Y0053285D01*
Y0053802D01*
X0315374Y0054280D01*
X0315305Y0054349D01*
X0315033Y0054675D01*
X0315305Y0055002D01*
X0315374Y0055071D01*
X0315572Y0055549D01*
Y0056066D01*
X0315374Y0056543D01*
X0315305Y0056612D01*
X0315033Y0056939D01*
X0315305Y0057266D01*
X0315374Y0057335D01*
X0315572Y0057812D01*
Y0058329D01*
X0315374Y0058807D01*
X0315008Y0059173D01*
X0314686Y0059306D01*
X0314648Y0059322D01*
X0314748Y0059822D01*
X0314770Y0059822D01*
X0314924D01*
X0315402Y0060020D01*
X0315767Y0060386D01*
X0315965Y0060864D01*
Y0061381D01*
X0315767Y0061858D01*
X0315402Y0062224D01*
X0314924Y0062422D01*
D02*
G37*
G36*
X0193566Y0054450D02*
X0193049D01*
X0192571Y0054252D01*
X0192205Y0053886D01*
X0192007Y0053408D01*
Y0052891D01*
X0192205Y0052413D01*
X0192571Y0052047D01*
X0193049Y0051850D01*
X0193566D01*
X0194044Y0052047D01*
X0194409Y0052413D01*
X0194607Y0052891D01*
Y0053408D01*
X0194409Y0053886D01*
X0194044Y0054252D01*
X0193566Y0054450D01*
D02*
G37*
G36*
X0183625Y0054253D02*
X0183108D01*
X0182630Y0054055D01*
X0182264Y0053689D01*
X0182066Y0053211D01*
Y0052694D01*
X0182264Y0052216D01*
X0182630Y0051851D01*
X0183108Y0051653D01*
X0183625D01*
X0184102Y0051851D01*
X0184468Y0052216D01*
X0184666Y0052694D01*
Y0053211D01*
X0184468Y0053689D01*
X0184102Y0054055D01*
X0183625Y0054253D01*
D02*
G37*
G36*
X0248585Y0054154D02*
X0248068D01*
X0247590Y0053956D01*
X0247225Y0053591D01*
X0247027Y0053113D01*
Y0052596D01*
X0247225Y0052118D01*
X0247590Y0051752D01*
X0248068Y0051554D01*
X0248585D01*
X0249063Y0051752D01*
X0249429Y0052118D01*
X0249627Y0052596D01*
Y0053113D01*
X0249429Y0053591D01*
X0249063Y0053956D01*
X0248585Y0054154D01*
D02*
G37*
G36*
X0336085Y0053465D02*
X0335568D01*
X0335090Y0053267D01*
X0334725Y0052902D01*
X0334527Y0052424D01*
Y0051907D01*
X0334725Y0051429D01*
X0335090Y0051063D01*
X0335568Y0050865D01*
X0336085D01*
X0336563Y0051063D01*
X0336929Y0051429D01*
X0337127Y0051907D01*
Y0052424D01*
X0336929Y0052902D01*
X0336563Y0053267D01*
X0336085Y0053465D01*
D02*
G37*
G36*
X0332542Y0051694D02*
X0332025D01*
X0331547Y0051496D01*
X0331181Y0051130D01*
X0330983Y0050652D01*
Y0050135D01*
X0331181Y0049657D01*
X0331547Y0049292D01*
X0332025Y0049094D01*
X0332542D01*
X0333020Y0049292D01*
X0333386Y0049657D01*
X0333583Y0050135D01*
Y0050652D01*
X0333386Y0051130D01*
X0333020Y0051496D01*
X0332542Y0051694D01*
D02*
G37*
G36*
X0314826D02*
X0314308D01*
X0313830Y0051496D01*
X0313465Y0051130D01*
X0313267Y0050652D01*
Y0050135D01*
X0313465Y0049657D01*
X0313830Y0049292D01*
X0314308Y0049094D01*
X0314826D01*
X0315303Y0049292D01*
X0315669Y0049657D01*
X0315867Y0050135D01*
Y0050652D01*
X0315669Y0051130D01*
X0315303Y0051496D01*
X0314826Y0051694D01*
D02*
G37*
G36*
X0202562Y0051398D02*
X0202045D01*
X0201567Y0051201D01*
X0201201Y0050835D01*
X0201003Y0050357D01*
Y0049840D01*
X0201201Y0049362D01*
X0201567Y0048996D01*
X0202045Y0048798D01*
X0202562D01*
X0203040Y0048996D01*
X0203405Y0049362D01*
X0203603Y0049840D01*
Y0050357D01*
X0203405Y0050835D01*
X0203040Y0051201D01*
X0202562Y0051398D01*
D02*
G37*
G36*
X0159018Y0051398D02*
X0158501D01*
X0158024Y0051200D01*
X0157658Y0050835D01*
X0157460Y0050357D01*
Y0049840D01*
X0157658Y0049362D01*
X0158024Y0048996D01*
X0158501Y0048798D01*
X0159018D01*
X0159496Y0048996D01*
X0159574Y0049074D01*
X0160118Y0049067D01*
X0160484Y0048701D01*
X0160962Y0048503D01*
X0161479D01*
X0161957Y0048701D01*
X0162323Y0049067D01*
X0162521Y0049545D01*
Y0050062D01*
X0162323Y0050540D01*
X0161957Y0050905D01*
X0161479Y0051103D01*
X0160962D01*
X0160484Y0050905D01*
X0160406Y0050827D01*
X0159862Y0050835D01*
X0159496Y0051200D01*
X0159018Y0051398D01*
D02*
G37*
G36*
X0164885Y0051044D02*
X0164367D01*
X0163890Y0050846D01*
X0163524Y0050481D01*
X0163326Y0050003D01*
Y0049485D01*
X0163524Y0049008D01*
X0163890Y0048642D01*
X0164367Y0048444D01*
X0164885D01*
X0165362Y0048642D01*
X0165728Y0049008D01*
X0165926Y0049485D01*
Y0050003D01*
X0165728Y0050481D01*
X0165362Y0050846D01*
X0164885Y0051044D01*
D02*
G37*
G36*
X0262463Y0050611D02*
X0261946D01*
X0261468Y0050413D01*
X0261103Y0050047D01*
X0260905Y0049570D01*
Y0049052D01*
X0261103Y0048575D01*
X0261468Y0048209D01*
X0261946Y0048011D01*
X0262463D01*
X0262941Y0048209D01*
X0263307Y0048575D01*
X0263505Y0049052D01*
Y0049570D01*
X0263307Y0050047D01*
X0262941Y0050413D01*
X0262463Y0050611D01*
D02*
G37*
G36*
X0245337Y0050316D02*
X0244820D01*
X0244342Y0050118D01*
X0243977Y0049752D01*
X0243779Y0049274D01*
Y0048757D01*
X0243977Y0048279D01*
X0244342Y0047914D01*
X0244820Y0047716D01*
X0245337D01*
X0245815Y0047914D01*
X0246181Y0048279D01*
X0246379Y0048757D01*
Y0049274D01*
X0246181Y0049752D01*
X0245815Y0050118D01*
X0245337Y0050316D01*
D02*
G37*
G36*
X0232542D02*
X0232025D01*
X0231547Y0050118D01*
X0231181Y0049752D01*
X0230983Y0049274D01*
Y0048757D01*
X0231181Y0048279D01*
X0231547Y0047914D01*
X0232025Y0047716D01*
X0232542D01*
X0233020Y0047914D01*
X0233386Y0048279D01*
X0233583Y0048757D01*
Y0049274D01*
X0233386Y0049752D01*
X0233020Y0050118D01*
X0232542Y0050316D01*
D02*
G37*
G36*
X0151833Y0050020D02*
X0151316D01*
X0150838Y0049823D01*
X0150473Y0049457D01*
X0150275Y0048979D01*
Y0048462D01*
X0150473Y0047984D01*
X0150838Y0047618D01*
X0151316Y0047420D01*
X0151833D01*
X0152311Y0047618D01*
X0152677Y0047984D01*
X0152875Y0048462D01*
Y0048979D01*
X0152677Y0049457D01*
X0152311Y0049823D01*
X0151833Y0050020D01*
D02*
G37*
G36*
X0147844Y0047410D02*
X0147327D01*
X0146849Y0047212D01*
X0146568Y0046931D01*
X0146331Y0046866D01*
X0145969Y0046911D01*
X0145717Y0047163D01*
X0145239Y0047361D01*
X0144722D01*
X0144244Y0047163D01*
X0143878Y0046797D01*
X0143680Y0046319D01*
Y0045802D01*
X0143878Y0045324D01*
X0144244Y0044959D01*
X0144722Y0044761D01*
X0145239D01*
X0145717Y0044959D01*
X0145998Y0045240D01*
X0146235Y0045305D01*
X0146597Y0045260D01*
X0146849Y0045008D01*
X0147327Y0044810D01*
X0147844D01*
X0148322Y0045008D01*
X0148393Y0045079D01*
X0148768Y0045308D01*
X0149047Y0045079D01*
X0149165Y0044961D01*
X0149643Y0044763D01*
X0150160D01*
X0150638Y0044961D01*
X0151004Y0045327D01*
X0151202Y0045804D01*
Y0046322D01*
X0151004Y0046799D01*
X0150638Y0047165D01*
X0150160Y0047363D01*
X0149643D01*
X0149165Y0047165D01*
X0149094Y0047094D01*
X0148719Y0046865D01*
X0148441Y0047094D01*
X0148322Y0047212D01*
X0147844Y0047410D01*
D02*
G37*
G36*
X0303703Y0047855D02*
X0303186D01*
X0302709Y0047657D01*
X0302343Y0047291D01*
X0302145Y0046814D01*
Y0046297D01*
X0302343Y0045819D01*
X0302709Y0045453D01*
X0303186Y0045255D01*
X0303703D01*
X0304181Y0045453D01*
X0304547Y0045819D01*
X0304745Y0046297D01*
Y0046814D01*
X0304547Y0047291D01*
X0304181Y0047657D01*
X0303703Y0047855D01*
D02*
G37*
G36*
X0330672Y0045513D02*
X0330154D01*
X0329677Y0045315D01*
X0329443Y0045081D01*
X0329134Y0044997D01*
X0328824Y0045081D01*
X0328590Y0045315D01*
X0328113Y0045513D01*
X0327595D01*
X0327118Y0045315D01*
X0326752Y0044949D01*
X0326554Y0044471D01*
Y0043954D01*
X0326752Y0043476D01*
X0327118Y0043111D01*
X0327595Y0042913D01*
X0328113D01*
X0328590Y0043111D01*
X0328824Y0043345D01*
X0329134Y0043428D01*
X0329443Y0043345D01*
X0329677Y0043111D01*
X0330154Y0042913D01*
X0330672D01*
X0331149Y0043111D01*
X0331515Y0043476D01*
X0331713Y0043954D01*
Y0044471D01*
X0331515Y0044949D01*
X0331149Y0045315D01*
X0330672Y0045513D01*
D02*
G37*
G36*
X0308526Y0049922D02*
X0308009D01*
X0307531Y0049724D01*
X0307166Y0049358D01*
X0306968Y0048881D01*
Y0048364D01*
X0307166Y0047886D01*
X0307531Y0047520D01*
X0307926Y0047357D01*
X0307934Y0047311D01*
Y0046903D01*
X0307926Y0046857D01*
X0307531Y0046693D01*
X0307166Y0046328D01*
X0306968Y0045850D01*
Y0045333D01*
X0307166Y0044855D01*
X0307531Y0044489D01*
X0308009Y0044291D01*
X0308526D01*
X0309004Y0044489D01*
X0309370Y0044855D01*
X0309568Y0045333D01*
Y0045850D01*
X0309370Y0046328D01*
X0309004Y0046693D01*
X0308610Y0046857D01*
X0308602Y0046903D01*
Y0047311D01*
X0308610Y0047357D01*
X0309004Y0047520D01*
X0309370Y0047886D01*
X0309568Y0048364D01*
Y0048881D01*
X0309370Y0049358D01*
X0309004Y0049724D01*
X0308526Y0049922D01*
D02*
G37*
G36*
X0171951Y0044804D02*
X0171434D01*
X0170957Y0044606D01*
X0170591Y0044240D01*
X0170393Y0043762D01*
Y0043245D01*
X0170591Y0042768D01*
X0170957Y0042402D01*
X0171434Y0042204D01*
X0171951D01*
X0172429Y0042402D01*
X0172795Y0042768D01*
X0172993Y0043245D01*
Y0043762D01*
X0172795Y0044240D01*
X0172429Y0044606D01*
X0171951Y0044804D01*
D02*
G37*
G36*
X0142286Y0044804D02*
X0141769D01*
X0141291Y0044606D01*
X0140926Y0044240D01*
X0140728Y0043762D01*
Y0043245D01*
X0140926Y0042768D01*
X0141291Y0042402D01*
X0141769Y0042204D01*
X0142286D01*
X0142764Y0042402D01*
X0143130Y0042768D01*
X0143328Y0043245D01*
Y0043762D01*
X0143130Y0044240D01*
X0142764Y0044606D01*
X0142286Y0044804D01*
D02*
G37*
G36*
X0314924Y0046772D02*
X0314407D01*
X0313929Y0046575D01*
X0313563Y0046209D01*
X0313365Y0045731D01*
Y0045214D01*
X0313563Y0044736D01*
X0313910Y0044390D01*
X0313563Y0044043D01*
X0313365Y0043566D01*
Y0043049D01*
X0313563Y0042571D01*
X0313929Y0042205D01*
X0314407Y0042007D01*
X0314924D01*
X0315402Y0042205D01*
X0315767Y0042571D01*
X0315965Y0043049D01*
Y0043566D01*
X0315767Y0044043D01*
X0315421Y0044390D01*
X0315767Y0044736D01*
X0315965Y0045214D01*
Y0045731D01*
X0315767Y0046209D01*
X0315402Y0046575D01*
X0314924Y0046772D01*
D02*
G37*
G36*
X0250796Y0042698D02*
X0250278D01*
X0249801Y0042500D01*
X0249435Y0042135D01*
X0249237Y0041657D01*
Y0041140D01*
X0249435Y0040662D01*
X0249801Y0040296D01*
X0250278Y0040098D01*
X0250796D01*
X0251273Y0040296D01*
X0251639Y0040662D01*
X0251837Y0041140D01*
Y0041657D01*
X0251639Y0042135D01*
X0251273Y0042500D01*
X0250796Y0042698D01*
D02*
G37*
G36*
X0308526Y0041929D02*
X0308009D01*
X0307531Y0041731D01*
X0307166Y0041366D01*
X0306968Y0040888D01*
Y0040371D01*
X0307166Y0039893D01*
X0307531Y0039527D01*
X0308009Y0039329D01*
X0308526D01*
X0309004Y0039527D01*
X0309370Y0039893D01*
X0309568Y0040371D01*
Y0040888D01*
X0309370Y0041366D01*
X0309004Y0041731D01*
X0308526Y0041929D01*
D02*
G37*
G36*
X0282679Y0041458D02*
X0282162D01*
X0281684Y0041260D01*
X0281318Y0040894D01*
X0281120Y0040416D01*
Y0039899D01*
X0281318Y0039421D01*
X0281684Y0039055D01*
X0282162Y0038857D01*
X0282679D01*
X0283157Y0039055D01*
X0283523Y0039421D01*
X0283720Y0039899D01*
Y0040416D01*
X0283523Y0040894D01*
X0283157Y0041260D01*
X0282679Y0041458D01*
D02*
G37*
G36*
X0266654Y0040397D02*
X0266137D01*
X0265659Y0040199D01*
X0265293Y0039833D01*
X0265095Y0039356D01*
Y0038838D01*
X0265293Y0038361D01*
X0265659Y0037995D01*
X0266137Y0037797D01*
X0266654D01*
X0267132Y0037995D01*
X0267497Y0038361D01*
X0267695Y0038838D01*
Y0039356D01*
X0267497Y0039833D01*
X0267132Y0040199D01*
X0266654Y0040397D01*
D02*
G37*
G36*
X0145407Y0040178D02*
X0144890D01*
X0144412Y0039980D01*
X0144047Y0039614D01*
X0143849Y0039136D01*
Y0038619D01*
X0144047Y0038142D01*
X0144412Y0037776D01*
X0144890Y0037578D01*
X0145407D01*
X0145885Y0037776D01*
X0146251Y0038142D01*
X0146449Y0038619D01*
Y0039136D01*
X0146251Y0039614D01*
X0145885Y0039980D01*
X0145407Y0040178D01*
D02*
G37*
G36*
X0171951Y0039883D02*
X0171434D01*
X0170957Y0039685D01*
X0170591Y0039319D01*
X0170393Y0038841D01*
Y0038324D01*
X0170591Y0037846D01*
X0170957Y0037481D01*
X0171434Y0037283D01*
X0171951D01*
X0172429Y0037481D01*
X0172795Y0037846D01*
X0172993Y0038324D01*
Y0038841D01*
X0172795Y0039319D01*
X0172429Y0039685D01*
X0171951Y0039883D01*
D02*
G37*
G36*
X0250751Y0038209D02*
X0250234D01*
X0249756Y0038012D01*
X0249390Y0037646D01*
X0249192Y0037168D01*
Y0036651D01*
X0249390Y0036173D01*
X0249756Y0035807D01*
X0250234Y0035609D01*
X0250751D01*
X0251228Y0035807D01*
X0251594Y0036173D01*
X0251792Y0036651D01*
Y0037168D01*
X0251594Y0037646D01*
X0251228Y0038012D01*
X0250751Y0038209D01*
D02*
G37*
G36*
X0237151Y0037995D02*
X0236634D01*
X0236156Y0037797D01*
X0235790Y0037432D01*
X0235592Y0036954D01*
Y0036437D01*
X0235790Y0035959D01*
X0236156Y0035593D01*
X0236634Y0035395D01*
X0237151D01*
X0237629Y0035593D01*
X0237994Y0035959D01*
X0238192Y0036437D01*
Y0036954D01*
X0237994Y0037432D01*
X0237629Y0037797D01*
X0237151Y0037995D01*
D02*
G37*
G36*
X0282108Y0037521D02*
X0281591D01*
X0281113Y0037323D01*
X0280748Y0036957D01*
X0280550Y0036479D01*
Y0035962D01*
X0280748Y0035484D01*
X0281113Y0035118D01*
X0281591Y0034920D01*
X0282108D01*
X0282586Y0035118D01*
X0282952Y0035484D01*
X0283150Y0035962D01*
Y0036479D01*
X0282952Y0036957D01*
X0282586Y0037323D01*
X0282108Y0037521D01*
D02*
G37*
G36*
X0298290Y0038308D02*
X0297773D01*
X0297295Y0038110D01*
X0296929Y0037744D01*
X0296731Y0037266D01*
Y0036749D01*
X0296929Y0036272D01*
X0297295Y0035906D01*
X0297773Y0035708D01*
X0298290D01*
X0298505Y0035797D01*
X0298700Y0035667D01*
X0298898Y0035189D01*
X0299264Y0034823D01*
X0299741Y0034625D01*
X0300259D01*
X0300736Y0034823D01*
X0301102Y0035189D01*
X0301300Y0035667D01*
Y0036184D01*
X0301102Y0036662D01*
X0300736Y0037027D01*
X0300259Y0037225D01*
X0299741D01*
X0299527Y0037136D01*
X0299331Y0037266D01*
X0299134Y0037744D01*
X0298768Y0038110D01*
X0298290Y0038308D01*
D02*
G37*
G36*
X0254196Y0036438D02*
X0253678D01*
X0253201Y0036240D01*
X0252835Y0035874D01*
X0252637Y0035396D01*
Y0034879D01*
X0252835Y0034401D01*
X0253201Y0034036D01*
X0253678Y0033838D01*
X0254196D01*
X0254673Y0034036D01*
X0255039Y0034401D01*
X0255237Y0034879D01*
Y0035396D01*
X0255039Y0035874D01*
X0254673Y0036240D01*
X0254196Y0036438D01*
D02*
G37*
G36*
X0302558Y0034997D02*
X0302041D01*
X0301563Y0034799D01*
X0301198Y0034434D01*
X0301000Y0033956D01*
Y0033439D01*
X0301198Y0032961D01*
X0301563Y0032595D01*
X0302041Y0032397D01*
X0302558D01*
X0303036Y0032595D01*
X0303402Y0032961D01*
X0303600Y0033439D01*
Y0033956D01*
X0303402Y0034434D01*
X0303036Y0034799D01*
X0302558Y0034997D01*
D02*
G37*
G36*
X0295830Y0034961D02*
X0295312D01*
X0294834Y0034763D01*
X0294469Y0034397D01*
X0294271Y0033919D01*
Y0033402D01*
X0294469Y0032924D01*
X0294834Y0032559D01*
X0295312Y0032361D01*
X0295830D01*
X0296307Y0032559D01*
X0296673Y0032924D01*
X0296871Y0033402D01*
Y0033919D01*
X0296673Y0034397D01*
X0296307Y0034763D01*
X0295830Y0034961D01*
D02*
G37*
G36*
X0292188Y0034961D02*
X0291671D01*
X0291193Y0034763D01*
X0290827Y0034397D01*
X0290629Y0033919D01*
Y0033402D01*
X0290827Y0032924D01*
X0291193Y0032559D01*
X0291671Y0032361D01*
X0292188D01*
X0292666Y0032559D01*
X0293031Y0032924D01*
X0293229Y0033402D01*
Y0033919D01*
X0293031Y0034397D01*
X0292666Y0034763D01*
X0292188Y0034961D01*
D02*
G37*
G36*
X0325751Y0036832D02*
X0325234D01*
X0324756Y0036634D01*
X0324390Y0036268D01*
X0324192Y0035790D01*
Y0035273D01*
X0324390Y0034795D01*
X0324459Y0034726D01*
X0324731Y0034400D01*
X0324459Y0034073D01*
X0324390Y0034004D01*
X0324192Y0033526D01*
Y0033009D01*
X0324390Y0032531D01*
X0324756Y0032166D01*
X0325234Y0031968D01*
X0325751D01*
X0326228Y0032166D01*
X0326594Y0032531D01*
X0326792Y0033009D01*
Y0033526D01*
X0326594Y0034004D01*
X0326525Y0034073D01*
X0326253Y0034400D01*
X0326525Y0034726D01*
X0326594Y0034795D01*
X0326792Y0035273D01*
Y0035790D01*
X0326594Y0036268D01*
X0326228Y0036634D01*
X0325751Y0036832D01*
D02*
G37*
G36*
X0162365Y0034174D02*
X0161848D01*
X0161370Y0033976D01*
X0161004Y0033610D01*
X0160806Y0033133D01*
Y0032615D01*
X0161004Y0032138D01*
X0161370Y0031772D01*
X0161848Y0031574D01*
X0162365D01*
X0162843Y0031772D01*
X0163208Y0032138D01*
X0163406Y0032615D01*
Y0033133D01*
X0163208Y0033610D01*
X0162843Y0033976D01*
X0162365Y0034174D01*
D02*
G37*
G36*
X0171970Y0026497D02*
X0171452D01*
X0170975Y0026299D01*
X0170609Y0025933D01*
X0170411Y0025455D01*
Y0024938D01*
X0170609Y0024461D01*
X0170975Y0024095D01*
X0171452Y0023897D01*
X0171970D01*
X0172447Y0024095D01*
X0172813Y0024461D01*
X0173011Y0024938D01*
Y0025455D01*
X0172813Y0025933D01*
X0172447Y0026299D01*
X0171970Y0026497D01*
D02*
G37*
G36*
X0184777Y0024646D02*
X0184260D01*
X0183782Y0024448D01*
X0183416Y0024082D01*
X0183219Y0023604D01*
Y0023087D01*
X0183416Y0022609D01*
X0183782Y0022244D01*
X0184260Y0022046D01*
X0184777D01*
X0185255Y0022244D01*
X0185621Y0022609D01*
X0185819Y0023087D01*
Y0023604D01*
X0185621Y0024082D01*
X0185255Y0024448D01*
X0184777Y0024646D01*
D02*
G37*
G36*
X0171970Y0020591D02*
X0171452D01*
X0170975Y0020393D01*
X0170609Y0020028D01*
X0170411Y0019550D01*
Y0019033D01*
X0170609Y0018555D01*
X0170975Y0018189D01*
X0171452Y0017991D01*
X0171970D01*
X0172447Y0018189D01*
X0172813Y0018555D01*
X0173011Y0019033D01*
Y0019550D01*
X0172813Y0020028D01*
X0172447Y0020393D01*
X0171970Y0020591D01*
D02*
G37*
G36*
Y0014686D02*
X0171452D01*
X0170975Y0014488D01*
X0170609Y0014122D01*
X0170411Y0013644D01*
Y0013127D01*
X0170609Y0012649D01*
X0170975Y0012284D01*
X0171452Y0012086D01*
X0171970D01*
X0172447Y0012284D01*
X0172813Y0012649D01*
X0173011Y0013127D01*
Y0013644D01*
X0172813Y0014122D01*
X0172447Y0014488D01*
X0171970Y0014686D01*
D02*
G37*
G36*
X0147404Y0012816D02*
X0146887D01*
X0146409Y0012618D01*
X0146044Y0012252D01*
X0145846Y0011774D01*
Y0011257D01*
X0146044Y0010779D01*
X0146409Y0010414D01*
X0146887Y0010216D01*
X0147404D01*
X0147882Y0010414D01*
X0148248Y0010779D01*
X0148446Y0011257D01*
Y0011774D01*
X0148248Y0012252D01*
X0147882Y0012618D01*
X0147404Y0012816D01*
D02*
G37*
G36*
X0158034Y0012795D02*
X0157517D01*
X0157039Y0012597D01*
X0156674Y0012232D01*
X0156476Y0011754D01*
Y0011237D01*
X0156674Y0010759D01*
X0157039Y0010393D01*
X0157517Y0010195D01*
X0158034D01*
X0158512Y0010393D01*
X0158878Y0010759D01*
X0159076Y0011237D01*
Y0011754D01*
X0158878Y0012232D01*
X0158512Y0012597D01*
X0158034Y0012795D01*
D02*
G37*
G36*
X0154491D02*
X0153974D01*
X0153496Y0012597D01*
X0153130Y0012232D01*
X0152932Y0011754D01*
Y0011237D01*
X0153130Y0010759D01*
X0153496Y0010393D01*
X0153974Y0010195D01*
X0154491D01*
X0154969Y0010393D01*
X0155334Y0010759D01*
X0155532Y0011237D01*
Y0011754D01*
X0155334Y0012232D01*
X0154969Y0012597D01*
X0154491Y0012795D01*
D02*
G37*
G36*
X0165318Y0012619D02*
X0164801D01*
X0164323Y0012421D01*
X0163957Y0012055D01*
X0163759Y0011577D01*
Y0011060D01*
X0163957Y0010582D01*
X0164323Y0010217D01*
X0164801Y0010019D01*
X0165318D01*
X0165796Y0010217D01*
X0166161Y0010582D01*
X0166359Y0011060D01*
Y0011577D01*
X0166161Y0012055D01*
X0165796Y0012421D01*
X0165318Y0012619D01*
D02*
G37*
G36*
X0161873D02*
X0161356D01*
X0160878Y0012421D01*
X0160512Y0012055D01*
X0160314Y0011577D01*
Y0011060D01*
X0160512Y0010582D01*
X0160878Y0010217D01*
X0161356Y0010019D01*
X0161873D01*
X0162351Y0010217D01*
X0162716Y0010582D01*
X0162914Y0011060D01*
Y0011577D01*
X0162716Y0012055D01*
X0162351Y0012421D01*
X0161873Y0012619D01*
D02*
G37*
G36*
X0143104Y0008801D02*
X0142586D01*
X0142109Y0008603D01*
X0141743Y0008237D01*
X0141545Y0007759D01*
Y0007242D01*
X0141743Y0006764D01*
X0142109Y0006399D01*
X0142586Y0006201D01*
X0143104D01*
X0143581Y0006399D01*
X0143947Y0006764D01*
X0144145Y0007242D01*
Y0007759D01*
X0143947Y0008237D01*
X0143581Y0008603D01*
X0143104Y0008801D01*
D02*
G37*
G36*
X0138182D02*
X0137665D01*
X0137187Y0008603D01*
X0136821Y0008237D01*
X0136624Y0007759D01*
Y0007242D01*
X0136821Y0006764D01*
X0137187Y0006399D01*
X0137665Y0006201D01*
X0138182D01*
X0138660Y0006399D01*
X0139026Y0006764D01*
X0139224Y0007242D01*
Y0007759D01*
X0139026Y0008237D01*
X0138660Y0008603D01*
X0138182Y0008801D01*
D02*
G37*
G36*
X0171970Y0008780D02*
X0171452D01*
X0170975Y0008582D01*
X0170609Y0008217D01*
X0170411Y0007739D01*
Y0007222D01*
X0170609Y0006744D01*
X0170975Y0006378D01*
X0171452Y0006180D01*
X0171970D01*
X0172447Y0006378D01*
X0172813Y0006744D01*
X0173011Y0007222D01*
Y0007739D01*
X0172813Y0008217D01*
X0172447Y0008582D01*
X0171970Y0008780D01*
D02*
G37*
G36*
X0166851D02*
X0166334D01*
X0165857Y0008582D01*
X0165491Y0008217D01*
X0165293Y0007739D01*
Y0007222D01*
X0165491Y0006744D01*
X0165857Y0006378D01*
X0166334Y0006180D01*
X0166851D01*
X0167329Y0006378D01*
X0167695Y0006744D01*
X0167893Y0007222D01*
Y0007739D01*
X0167695Y0008217D01*
X0167329Y0008582D01*
X0166851Y0008780D01*
D02*
G37*
G36*
X0161733D02*
X0161216D01*
X0160738Y0008582D01*
X0160373Y0008217D01*
X0160175Y0007739D01*
Y0007222D01*
X0160373Y0006744D01*
X0160738Y0006378D01*
X0161216Y0006180D01*
X0161733D01*
X0162211Y0006378D01*
X0162577Y0006744D01*
X0162775Y0007222D01*
Y0007739D01*
X0162577Y0008217D01*
X0162211Y0008582D01*
X0161733Y0008780D01*
D02*
G37*
G36*
X0156615D02*
X0156098D01*
X0155620Y0008582D01*
X0155255Y0008217D01*
X0155057Y0007739D01*
Y0007222D01*
X0155255Y0006744D01*
X0155620Y0006378D01*
X0156098Y0006180D01*
X0156615D01*
X0157093Y0006378D01*
X0157459Y0006744D01*
X0157657Y0007222D01*
Y0007739D01*
X0157459Y0008217D01*
X0157093Y0008582D01*
X0156615Y0008780D01*
D02*
G37*
%LPD*%
D101*
X0344331Y0006811D02*
D03*
X0334377Y0006858D02*
D03*
X0324377D02*
D03*
D105*
X0143504Y0011516D02*
D03*
X0329035Y0025197D02*
D03*
X0337697Y0031102D02*
D03*
X0337894Y0025984D02*
D03*
X0096653Y0057087D02*
D03*
X0059646Y0054232D02*
D03*
X0158672Y0070108D02*
D03*
X0158858Y0074311D02*
D03*
X0191339Y0075492D02*
D03*
X0187611Y0075518D02*
D03*
X0195048Y0075531D02*
D03*
X0197441Y0042224D02*
D03*
X0142462Y0071149D02*
D03*
X0138484Y0075411D02*
D03*
X0142421Y0075492D02*
D03*
X0147736Y0075787D02*
D03*
X0152657Y0046752D02*
D03*
X0180709Y0031102D02*
D03*
X0192348Y0005118D02*
D03*
X0195472D02*
D03*
X0185236Y0032087D02*
D03*
X0257185Y0079134D02*
D03*
X0381306Y0049029D02*
D03*
X0385426D02*
D03*
X0381288Y0046929D02*
D03*
X0385434Y0046929D02*
D03*
X0383366Y0047933D02*
D03*
X0262008Y0077067D02*
D03*
X0265158Y0061122D02*
D03*
X0277773Y0052935D02*
D03*
X0248009Y0079128D02*
D03*
X0249502Y0066066D02*
D03*
X0262419Y0035160D02*
D03*
X0240536Y0036629D02*
D03*
X0287106Y0075985D02*
D03*
M02*
