G04*
G04 #@! TF.GenerationSoftware,Altium Limited,Altium Designer,23.0.1 (38)*
G04*
G04 Layer_Color=8421504*
%FSAX25Y25*%
%MOIN*%
G70*
G04*
G04 #@! TF.SameCoordinates,B9DD0259-405E-4331-997F-192D94839516*
G04*
G04*
G04 #@! TF.FilePolarity,Positive*
G04*
G01*
G75*
%ADD19R,0.04528X0.04528*%
%ADD20R,0.04331X0.05512*%
%ADD21R,0.04331X0.05512*%
%ADD22R,0.03543X0.02756*%
G04:AMPARAMS|DCode=23|XSize=37.4mil|YSize=41.34mil|CornerRadius=9.35mil|HoleSize=0mil|Usage=FLASHONLY|Rotation=270.000|XOffset=0mil|YOffset=0mil|HoleType=Round|Shape=RoundedRectangle|*
%AMROUNDEDRECTD23*
21,1,0.03740,0.02264,0,0,270.0*
21,1,0.01870,0.04134,0,0,270.0*
1,1,0.01870,-0.01132,-0.00935*
1,1,0.01870,-0.01132,0.00935*
1,1,0.01870,0.01132,0.00935*
1,1,0.01870,0.01132,-0.00935*
%
%ADD23ROUNDEDRECTD23*%
G04:AMPARAMS|DCode=24|XSize=37.4mil|YSize=41.34mil|CornerRadius=9.35mil|HoleSize=0mil|Usage=FLASHONLY|Rotation=180.000|XOffset=0mil|YOffset=0mil|HoleType=Round|Shape=RoundedRectangle|*
%AMROUNDEDRECTD24*
21,1,0.03740,0.02264,0,0,180.0*
21,1,0.01870,0.04134,0,0,180.0*
1,1,0.01870,-0.00935,0.01132*
1,1,0.01870,0.00935,0.01132*
1,1,0.01870,0.00935,-0.01132*
1,1,0.01870,-0.00935,-0.01132*
%
%ADD24ROUNDEDRECTD24*%
G04:AMPARAMS|DCode=25|XSize=23.62mil|YSize=23.62mil|CornerRadius=5.91mil|HoleSize=0mil|Usage=FLASHONLY|Rotation=270.000|XOffset=0mil|YOffset=0mil|HoleType=Round|Shape=RoundedRectangle|*
%AMROUNDEDRECTD25*
21,1,0.02362,0.01181,0,0,270.0*
21,1,0.01181,0.02362,0,0,270.0*
1,1,0.01181,-0.00591,-0.00591*
1,1,0.01181,-0.00591,0.00591*
1,1,0.01181,0.00591,0.00591*
1,1,0.01181,0.00591,-0.00591*
%
%ADD25ROUNDEDRECTD25*%
G04:AMPARAMS|DCode=26|XSize=55.12mil|YSize=51.18mil|CornerRadius=12.8mil|HoleSize=0mil|Usage=FLASHONLY|Rotation=90.000|XOffset=0mil|YOffset=0mil|HoleType=Round|Shape=RoundedRectangle|*
%AMROUNDEDRECTD26*
21,1,0.05512,0.02559,0,0,90.0*
21,1,0.02953,0.05118,0,0,90.0*
1,1,0.02559,0.01280,0.01476*
1,1,0.02559,0.01280,-0.01476*
1,1,0.02559,-0.01280,-0.01476*
1,1,0.02559,-0.01280,0.01476*
%
%ADD26ROUNDEDRECTD26*%
G04:AMPARAMS|DCode=27|XSize=39.37mil|YSize=35.43mil|CornerRadius=8.86mil|HoleSize=0mil|Usage=FLASHONLY|Rotation=180.000|XOffset=0mil|YOffset=0mil|HoleType=Round|Shape=RoundedRectangle|*
%AMROUNDEDRECTD27*
21,1,0.03937,0.01772,0,0,180.0*
21,1,0.02165,0.03543,0,0,180.0*
1,1,0.01772,-0.01083,0.00886*
1,1,0.01772,0.01083,0.00886*
1,1,0.01772,0.01083,-0.00886*
1,1,0.01772,-0.01083,-0.00886*
%
%ADD27ROUNDEDRECTD27*%
G04:AMPARAMS|DCode=28|XSize=31.5mil|YSize=81.1mil|CornerRadius=7.87mil|HoleSize=0mil|Usage=FLASHONLY|Rotation=270.000|XOffset=0mil|YOffset=0mil|HoleType=Round|Shape=RoundedRectangle|*
%AMROUNDEDRECTD28*
21,1,0.03150,0.06535,0,0,270.0*
21,1,0.01575,0.08110,0,0,270.0*
1,1,0.01575,-0.03268,-0.00787*
1,1,0.01575,-0.03268,0.00787*
1,1,0.01575,0.03268,0.00787*
1,1,0.01575,0.03268,-0.00787*
%
%ADD28ROUNDEDRECTD28*%
G04:AMPARAMS|DCode=29|XSize=25.2mil|YSize=25.2mil|CornerRadius=6.3mil|HoleSize=0mil|Usage=FLASHONLY|Rotation=270.000|XOffset=0mil|YOffset=0mil|HoleType=Round|Shape=RoundedRectangle|*
%AMROUNDEDRECTD29*
21,1,0.02520,0.01260,0,0,270.0*
21,1,0.01260,0.02520,0,0,270.0*
1,1,0.01260,-0.00630,-0.00630*
1,1,0.01260,-0.00630,0.00630*
1,1,0.01260,0.00630,0.00630*
1,1,0.01260,0.00630,-0.00630*
%
%ADD29ROUNDEDRECTD29*%
G04:AMPARAMS|DCode=30|XSize=39.37mil|YSize=35.43mil|CornerRadius=8.86mil|HoleSize=0mil|Usage=FLASHONLY|Rotation=90.000|XOffset=0mil|YOffset=0mil|HoleType=Round|Shape=RoundedRectangle|*
%AMROUNDEDRECTD30*
21,1,0.03937,0.01772,0,0,90.0*
21,1,0.02165,0.03543,0,0,90.0*
1,1,0.01772,0.00886,0.01083*
1,1,0.01772,0.00886,-0.01083*
1,1,0.01772,-0.00886,-0.01083*
1,1,0.01772,-0.00886,0.01083*
%
%ADD30ROUNDEDRECTD30*%
G04:AMPARAMS|DCode=31|XSize=23.62mil|YSize=39.37mil|CornerRadius=5.91mil|HoleSize=0mil|Usage=FLASHONLY|Rotation=0.000|XOffset=0mil|YOffset=0mil|HoleType=Round|Shape=RoundedRectangle|*
%AMROUNDEDRECTD31*
21,1,0.02362,0.02756,0,0,0.0*
21,1,0.01181,0.03937,0,0,0.0*
1,1,0.01181,0.00591,-0.01378*
1,1,0.01181,-0.00591,-0.01378*
1,1,0.01181,-0.00591,0.01378*
1,1,0.01181,0.00591,0.01378*
%
%ADD31ROUNDEDRECTD31*%
G04:AMPARAMS|DCode=32|XSize=23.62mil|YSize=23.62mil|CornerRadius=5.91mil|HoleSize=0mil|Usage=FLASHONLY|Rotation=0.000|XOffset=0mil|YOffset=0mil|HoleType=Round|Shape=RoundedRectangle|*
%AMROUNDEDRECTD32*
21,1,0.02362,0.01181,0,0,0.0*
21,1,0.01181,0.02362,0,0,0.0*
1,1,0.01181,0.00591,-0.00591*
1,1,0.01181,-0.00591,-0.00591*
1,1,0.01181,-0.00591,0.00591*
1,1,0.01181,0.00591,0.00591*
%
%ADD32ROUNDEDRECTD32*%
G04:AMPARAMS|DCode=33|XSize=25.2mil|YSize=25.2mil|CornerRadius=6.3mil|HoleSize=0mil|Usage=FLASHONLY|Rotation=180.000|XOffset=0mil|YOffset=0mil|HoleType=Round|Shape=RoundedRectangle|*
%AMROUNDEDRECTD33*
21,1,0.02520,0.01260,0,0,180.0*
21,1,0.01260,0.02520,0,0,180.0*
1,1,0.01260,-0.00630,0.00630*
1,1,0.01260,0.00630,0.00630*
1,1,0.01260,0.00630,-0.00630*
1,1,0.01260,-0.00630,-0.00630*
%
%ADD33ROUNDEDRECTD33*%
G04:AMPARAMS|DCode=34|XSize=31.5mil|YSize=218.5mil|CornerRadius=7.87mil|HoleSize=0mil|Usage=FLASHONLY|Rotation=180.000|XOffset=0mil|YOffset=0mil|HoleType=Round|Shape=RoundedRectangle|*
%AMROUNDEDRECTD34*
21,1,0.03150,0.20276,0,0,180.0*
21,1,0.01575,0.21850,0,0,180.0*
1,1,0.01575,-0.00787,0.10138*
1,1,0.01575,0.00787,0.10138*
1,1,0.01575,0.00787,-0.10138*
1,1,0.01575,-0.00787,-0.10138*
%
%ADD34ROUNDEDRECTD34*%
G04:AMPARAMS|DCode=35|XSize=31.5mil|YSize=196.06mil|CornerRadius=7.87mil|HoleSize=0mil|Usage=FLASHONLY|Rotation=90.000|XOffset=0mil|YOffset=0mil|HoleType=Round|Shape=RoundedRectangle|*
%AMROUNDEDRECTD35*
21,1,0.03150,0.18032,0,0,90.0*
21,1,0.01575,0.19606,0,0,90.0*
1,1,0.01575,0.09016,0.00787*
1,1,0.01575,0.09016,-0.00787*
1,1,0.01575,-0.09016,-0.00787*
1,1,0.01575,-0.09016,0.00787*
%
%ADD35ROUNDEDRECTD35*%
G04:AMPARAMS|DCode=36|XSize=31.5mil|YSize=149.61mil|CornerRadius=7.87mil|HoleSize=0mil|Usage=FLASHONLY|Rotation=0.000|XOffset=0mil|YOffset=0mil|HoleType=Round|Shape=RoundedRectangle|*
%AMROUNDEDRECTD36*
21,1,0.03150,0.13386,0,0,0.0*
21,1,0.01575,0.14961,0,0,0.0*
1,1,0.01575,0.00787,-0.06693*
1,1,0.01575,-0.00787,-0.06693*
1,1,0.01575,-0.00787,0.06693*
1,1,0.01575,0.00787,0.06693*
%
%ADD36ROUNDEDRECTD36*%
G04:AMPARAMS|DCode=37|XSize=31.5mil|YSize=149.61mil|CornerRadius=7.87mil|HoleSize=0mil|Usage=FLASHONLY|Rotation=90.000|XOffset=0mil|YOffset=0mil|HoleType=Round|Shape=RoundedRectangle|*
%AMROUNDEDRECTD37*
21,1,0.03150,0.13386,0,0,90.0*
21,1,0.01575,0.14961,0,0,90.0*
1,1,0.01575,0.06693,0.00787*
1,1,0.01575,0.06693,-0.00787*
1,1,0.01575,-0.06693,-0.00787*
1,1,0.01575,-0.06693,0.00787*
%
%ADD37ROUNDEDRECTD37*%
%ADD38O,0.00984X0.03347*%
%ADD39O,0.03347X0.00984*%
%ADD40O,0.03150X0.00984*%
%ADD41O,0.00984X0.03150*%
G04:AMPARAMS|DCode=42|XSize=58.27mil|YSize=58.27mil|CornerRadius=0mil|HoleSize=0mil|Usage=FLASHONLY|Rotation=0.000|XOffset=0mil|YOffset=0mil|HoleType=Round|Shape=RoundedRectangle|*
%AMROUNDEDRECTD42*
21,1,0.05827,0.05827,0,0,0.0*
21,1,0.05827,0.05827,0,0,0.0*
1,1,0.00000,0.02913,-0.02913*
1,1,0.00000,-0.02913,-0.02913*
1,1,0.00000,-0.02913,0.02913*
1,1,0.00000,0.02913,0.02913*
%
%ADD42ROUNDEDRECTD42*%
%ADD43O,0.02362X0.05709*%
G04:AMPARAMS|DCode=44|XSize=107.09mil|YSize=48.42mil|CornerRadius=12.11mil|HoleSize=0mil|Usage=FLASHONLY|Rotation=270.000|XOffset=0mil|YOffset=0mil|HoleType=Round|Shape=RoundedRectangle|*
%AMROUNDEDRECTD44*
21,1,0.10709,0.02421,0,0,270.0*
21,1,0.08287,0.04842,0,0,270.0*
1,1,0.02421,-0.01211,-0.04144*
1,1,0.02421,-0.01211,0.04144*
1,1,0.02421,0.01211,0.04144*
1,1,0.02421,0.01211,-0.04144*
%
%ADD44ROUNDEDRECTD44*%
G04:AMPARAMS|DCode=45|XSize=59.06mil|YSize=51.18mil|CornerRadius=12.8mil|HoleSize=0mil|Usage=FLASHONLY|Rotation=180.000|XOffset=0mil|YOffset=0mil|HoleType=Round|Shape=RoundedRectangle|*
%AMROUNDEDRECTD45*
21,1,0.05906,0.02559,0,0,180.0*
21,1,0.03347,0.05118,0,0,180.0*
1,1,0.02559,-0.01673,0.01280*
1,1,0.02559,0.01673,0.01280*
1,1,0.02559,0.01673,-0.01280*
1,1,0.02559,-0.01673,-0.01280*
%
%ADD45ROUNDEDRECTD45*%
G04:AMPARAMS|DCode=46|XSize=59.06mil|YSize=51.18mil|CornerRadius=12.8mil|HoleSize=0mil|Usage=FLASHONLY|Rotation=270.000|XOffset=0mil|YOffset=0mil|HoleType=Round|Shape=RoundedRectangle|*
%AMROUNDEDRECTD46*
21,1,0.05906,0.02559,0,0,270.0*
21,1,0.03347,0.05118,0,0,270.0*
1,1,0.02559,-0.01280,-0.01673*
1,1,0.02559,-0.01280,0.01673*
1,1,0.02559,0.01280,0.01673*
1,1,0.02559,0.01280,-0.01673*
%
%ADD46ROUNDEDRECTD46*%
G04:AMPARAMS|DCode=47|XSize=11.81mil|YSize=26.38mil|CornerRadius=2.95mil|HoleSize=0mil|Usage=FLASHONLY|Rotation=270.000|XOffset=0mil|YOffset=0mil|HoleType=Round|Shape=RoundedRectangle|*
%AMROUNDEDRECTD47*
21,1,0.01181,0.02047,0,0,270.0*
21,1,0.00591,0.02638,0,0,270.0*
1,1,0.00591,-0.01024,-0.00295*
1,1,0.00591,-0.01024,0.00295*
1,1,0.00591,0.01024,0.00295*
1,1,0.00591,0.01024,-0.00295*
%
%ADD47ROUNDEDRECTD47*%
G04:AMPARAMS|DCode=48|XSize=9.84mil|YSize=35.43mil|CornerRadius=2.46mil|HoleSize=0mil|Usage=FLASHONLY|Rotation=180.000|XOffset=0mil|YOffset=0mil|HoleType=Round|Shape=RoundedRectangle|*
%AMROUNDEDRECTD48*
21,1,0.00984,0.03051,0,0,180.0*
21,1,0.00492,0.03543,0,0,180.0*
1,1,0.00492,-0.00246,0.01526*
1,1,0.00492,0.00246,0.01526*
1,1,0.00492,0.00246,-0.01526*
1,1,0.00492,-0.00246,-0.01526*
%
%ADD48ROUNDEDRECTD48*%
%ADD49O,0.05512X0.01378*%
%ADD50O,0.01772X0.05512*%
G04:AMPARAMS|DCode=51|XSize=9.84mil|YSize=19.68mil|CornerRadius=2.46mil|HoleSize=0mil|Usage=FLASHONLY|Rotation=90.000|XOffset=0mil|YOffset=0mil|HoleType=Round|Shape=RoundedRectangle|*
%AMROUNDEDRECTD51*
21,1,0.00984,0.01476,0,0,90.0*
21,1,0.00492,0.01968,0,0,90.0*
1,1,0.00492,0.00738,0.00246*
1,1,0.00492,0.00738,-0.00246*
1,1,0.00492,-0.00738,-0.00246*
1,1,0.00492,-0.00738,0.00246*
%
%ADD51ROUNDEDRECTD51*%
D19*
X0190649Y0054429D02*
D03*
Y0059744D02*
D03*
X0195964D02*
D03*
Y0054429D02*
D03*
D20*
X0333268Y0052165D02*
D03*
D21*
X0338386D02*
D03*
D22*
X0314234Y0057581D02*
D03*
Y0054037D02*
D03*
D23*
X0317482Y0047935D02*
D03*
X0311774D02*
D03*
X0077756Y0065158D02*
D03*
X0083465D02*
D03*
X0142421Y0035827D02*
D03*
X0136713D02*
D03*
X0338563Y0063779D02*
D03*
X0332854D02*
D03*
X0329134Y0040551D02*
D03*
X0334842D02*
D03*
X0311774Y0063683D02*
D03*
X0317482D02*
D03*
D24*
X0303445Y0037303D02*
D03*
Y0043012D02*
D03*
X0064468Y0070965D02*
D03*
Y0065256D02*
D03*
X0329035Y0028839D02*
D03*
Y0034547D02*
D03*
X0135335Y0064173D02*
D03*
Y0058465D02*
D03*
X0305770Y0052955D02*
D03*
Y0058663D02*
D03*
D25*
X0311811Y0043110D02*
D03*
X0308268D02*
D03*
X0078740Y0071850D02*
D03*
X0075197D02*
D03*
X0089764Y0071850D02*
D03*
X0093307D02*
D03*
X0082480Y0071850D02*
D03*
X0086024D02*
D03*
X0190157Y0043602D02*
D03*
X0193701D02*
D03*
X0160925Y0056201D02*
D03*
X0143602Y0041240D02*
D03*
X0156398Y0073130D02*
D03*
X0136122Y0014173D02*
D03*
X0132776Y0041240D02*
D03*
X0157776Y0013976D02*
D03*
X0164469Y0056201D02*
D03*
X0140059Y0041240D02*
D03*
X0136319D02*
D03*
X0176969Y0057874D02*
D03*
X0180512D02*
D03*
X0152854Y0073130D02*
D03*
X0139665Y0014173D02*
D03*
X0154232Y0013976D02*
D03*
X0183760Y0029528D02*
D03*
X0187303D02*
D03*
X0360236Y0042717D02*
D03*
X0363780D02*
D03*
X0378445Y0044882D02*
D03*
X0374902D02*
D03*
X0371063Y0042717D02*
D03*
X0367520D02*
D03*
X0232677Y0039272D02*
D03*
X0229134D02*
D03*
X0244685D02*
D03*
X0248228D02*
D03*
X0256398Y0035138D02*
D03*
X0259941D02*
D03*
X0242323Y0074114D02*
D03*
X0245866D02*
D03*
X0229724Y0074114D02*
D03*
X0226181D02*
D03*
X0284902Y0040157D02*
D03*
X0288445D02*
D03*
X0291988D02*
D03*
X0295532D02*
D03*
X0320927Y0039471D02*
D03*
X0317384D02*
D03*
Y0043211D02*
D03*
X0320927D02*
D03*
D26*
X0128543Y0068799D02*
D03*
X0113189D02*
D03*
D27*
X0106496Y0071260D02*
D03*
Y0064961D02*
D03*
X0070374Y0071260D02*
D03*
Y0064961D02*
D03*
X0334941Y0028543D02*
D03*
Y0034843D02*
D03*
X0135335Y0052658D02*
D03*
Y0046358D02*
D03*
X0383366Y0058169D02*
D03*
Y0051870D02*
D03*
X0354823Y0055315D02*
D03*
Y0049016D02*
D03*
D28*
X0089252Y0032972D02*
D03*
X0065079Y0024311D02*
D03*
X0089252D02*
D03*
X0065079Y0032972D02*
D03*
X0089252Y0054232D02*
D03*
X0065079Y0041634D02*
D03*
X0089252D02*
D03*
X0065079Y0054232D02*
D03*
X0123504Y0024311D02*
D03*
X0099331D02*
D03*
Y0032972D02*
D03*
X0123504Y0054232D02*
D03*
X0099331Y0041634D02*
D03*
X0123504D02*
D03*
Y0032972D02*
D03*
X0099331Y0054232D02*
D03*
D29*
X0089823Y0064173D02*
D03*
X0093445D02*
D03*
X0089823Y0068012D02*
D03*
X0093445D02*
D03*
X0143465Y0014075D02*
D03*
X0147087D02*
D03*
X0185787Y0069291D02*
D03*
X0189409D02*
D03*
X0196890D02*
D03*
X0193268D02*
D03*
X0164508Y0068209D02*
D03*
X0160886D02*
D03*
X0196890Y0073228D02*
D03*
X0193268D02*
D03*
X0201122Y0044882D02*
D03*
X0197500D02*
D03*
X0160886Y0052461D02*
D03*
X0164508D02*
D03*
X0158898Y0047441D02*
D03*
X0155276D02*
D03*
X0140295Y0073130D02*
D03*
X0136673D02*
D03*
X0160886Y0072146D02*
D03*
X0164508D02*
D03*
X0140295Y0069193D02*
D03*
X0136673D02*
D03*
X0145433Y0073130D02*
D03*
X0149055D02*
D03*
X0185787Y0073228D02*
D03*
X0189409D02*
D03*
X0156240Y0051378D02*
D03*
X0152618D02*
D03*
X0145039Y0052658D02*
D03*
X0148661D02*
D03*
X0148661Y0048720D02*
D03*
X0145039D02*
D03*
X0165197Y0013976D02*
D03*
X0161575D02*
D03*
X0162756Y0047441D02*
D03*
X0166378D02*
D03*
X0191102Y0007874D02*
D03*
X0194724D02*
D03*
X0191102Y0029528D02*
D03*
X0194724D02*
D03*
X0339823Y0041535D02*
D03*
X0343445D02*
D03*
X0252815Y0039075D02*
D03*
X0256437D02*
D03*
X0236870Y0039173D02*
D03*
X0240492D02*
D03*
X0263917Y0039075D02*
D03*
X0260295D02*
D03*
X0258425Y0074508D02*
D03*
X0262047D02*
D03*
X0283445Y0073425D02*
D03*
X0287067D02*
D03*
X0288032Y0036220D02*
D03*
X0284409D02*
D03*
X0295532Y0036221D02*
D03*
X0291910D02*
D03*
D30*
X0114173Y0014075D02*
D03*
X0107874D02*
D03*
X0119685Y0014075D02*
D03*
X0125984D02*
D03*
X0102362Y0014075D02*
D03*
X0096063D02*
D03*
X0332598Y0070177D02*
D03*
X0338898D02*
D03*
D31*
X0143504Y0019094D02*
D03*
X0136024D02*
D03*
Y0029724D02*
D03*
X0139764D02*
D03*
X0143504D02*
D03*
X0194685Y0024016D02*
D03*
X0190945D02*
D03*
X0187205D02*
D03*
Y0013386D02*
D03*
X0194685D02*
D03*
D32*
X0176969Y0054331D02*
D03*
Y0057874D02*
D03*
X0140354Y0065256D02*
D03*
X0141240Y0050591D02*
D03*
Y0047047D02*
D03*
X0161811Y0060039D02*
D03*
Y0063583D02*
D03*
X0140354Y0061713D02*
D03*
X0311811Y0072244D02*
D03*
Y0068701D02*
D03*
D33*
X0140354Y0054390D02*
D03*
X0130905Y0024764D02*
D03*
Y0028386D02*
D03*
X0140354Y0058012D02*
D03*
X0275295Y0056535D02*
D03*
Y0052913D02*
D03*
X0321850Y0055079D02*
D03*
Y0058701D02*
D03*
D34*
X0171703Y0016853D02*
D03*
X0056900D02*
D03*
X0056890Y0070176D02*
D03*
X0171693D02*
D03*
D35*
X0163474Y0007501D02*
D03*
X0065127D02*
D03*
X0065119Y0079528D02*
D03*
X0163466D02*
D03*
D36*
X0171693Y0043504D02*
D03*
X0056890D02*
D03*
D37*
X0114302Y0007501D02*
D03*
X0137924D02*
D03*
X0090680D02*
D03*
X0114291Y0079528D02*
D03*
X0137913D02*
D03*
X0090669D02*
D03*
D38*
X0192323Y0064665D02*
D03*
X0190354D02*
D03*
Y0049508D02*
D03*
X0196260D02*
D03*
X0194291D02*
D03*
X0192323D02*
D03*
X0194291Y0064665D02*
D03*
X0196260D02*
D03*
D39*
X0185728Y0060039D02*
D03*
Y0056102D02*
D03*
Y0054134D02*
D03*
X0200886D02*
D03*
X0185728Y0058071D02*
D03*
X0200886Y0056102D02*
D03*
Y0058071D02*
D03*
Y0060039D02*
D03*
D40*
X0144980Y0065748D02*
D03*
X0156398Y0061811D02*
D03*
Y0065748D02*
D03*
X0144980Y0063779D02*
D03*
Y0059842D02*
D03*
X0156398Y0063779D02*
D03*
X0144980Y0061811D02*
D03*
X0156398Y0059842D02*
D03*
D41*
X0147736Y0057087D02*
D03*
X0149705D02*
D03*
X0153642D02*
D03*
X0149705Y0068504D02*
D03*
X0151673Y0057087D02*
D03*
Y0068504D02*
D03*
X0147736D02*
D03*
X0153642D02*
D03*
D42*
X0150689Y0062795D02*
D03*
D43*
X0164980Y0020177D02*
D03*
X0154980Y0041634D02*
D03*
X0159980D02*
D03*
X0154980Y0020177D02*
D03*
X0159980D02*
D03*
X0149980D02*
D03*
Y0041634D02*
D03*
X0164980D02*
D03*
X0282087Y0045965D02*
D03*
X0287087D02*
D03*
X0292087D02*
D03*
X0297087D02*
D03*
X0282087Y0067421D02*
D03*
X0287087D02*
D03*
X0292087D02*
D03*
X0297087D02*
D03*
D44*
X0361968Y0067421D02*
D03*
X0373268D02*
D03*
D45*
X0376575Y0050098D02*
D03*
Y0057579D02*
D03*
D46*
X0369193Y0048917D02*
D03*
X0361713D02*
D03*
D47*
X0364902Y0054823D02*
D03*
Y0056791D02*
D03*
Y0058760D02*
D03*
X0370728D02*
D03*
Y0056791D02*
D03*
Y0054823D02*
D03*
D48*
X0332874Y0046673D02*
D03*
X0334842D02*
D03*
X0336811D02*
D03*
X0338779D02*
D03*
X0332874Y0057657D02*
D03*
X0334842D02*
D03*
X0336811D02*
D03*
X0338779D02*
D03*
D49*
X0269587Y0054823D02*
D03*
Y0056791D02*
D03*
Y0058760D02*
D03*
Y0060728D02*
D03*
X0252264Y0052854D02*
D03*
Y0054823D02*
D03*
Y0056791D02*
D03*
Y0058760D02*
D03*
Y0060728D02*
D03*
X0269587Y0052854D02*
D03*
D50*
X0229724Y0045079D02*
D03*
X0232283D02*
D03*
X0234842D02*
D03*
X0237402D02*
D03*
X0242520D02*
D03*
X0245079D02*
D03*
X0229724Y0068307D02*
D03*
X0232283D02*
D03*
X0234842D02*
D03*
X0237402D02*
D03*
X0239961D02*
D03*
X0242520D02*
D03*
X0245079D02*
D03*
X0239961Y0045079D02*
D03*
X0251969Y0045177D02*
D03*
X0254528D02*
D03*
X0257087D02*
D03*
X0259646D02*
D03*
X0262205D02*
D03*
X0264764D02*
D03*
X0267323D02*
D03*
X0269882D02*
D03*
X0251969Y0068405D02*
D03*
X0254528D02*
D03*
X0257087D02*
D03*
X0259646D02*
D03*
X0262205D02*
D03*
X0264764D02*
D03*
X0267323D02*
D03*
X0269882D02*
D03*
D51*
X0317974Y0052856D02*
D03*
Y0054825D02*
D03*
Y0056793D02*
D03*
Y0058762D02*
D03*
X0310494Y0052856D02*
D03*
Y0054825D02*
D03*
Y0056793D02*
D03*
Y0058762D02*
D03*
M02*
