%TF.GenerationSoftware,KiCad,Pcbnew,9.0.0-rc1-661-gd7f89c6576*%
%TF.CreationDate,2025-01-23T21:52:25-05:00*%
%TF.ProjectId,TS_Front_Endcap,54535f46-726f-46e7-945f-456e64636170,rev?*%
%TF.SameCoordinates,Original*%
%TF.FileFunction,Soldermask,Bot*%
%TF.FilePolarity,Negative*%
%FSLAX46Y46*%
G04 Gerber Fmt 4.6, Leading zero omitted, Abs format (unit mm)*
G04 Created by KiCad (PCBNEW 9.0.0-rc1-661-gd7f89c6576) date 2025-01-23 21:52:25*
%MOMM*%
%LPD*%
G01*
G04 APERTURE LIST*
G04 Aperture macros list*
%AMRoundRect*
0 Rectangle with rounded corners*
0 $1 Rounding radius*
0 $2 $3 $4 $5 $6 $7 $8 $9 X,Y pos of 4 corners*
0 Add a 4 corners polygon primitive as box body*
4,1,4,$2,$3,$4,$5,$6,$7,$8,$9,$2,$3,0*
0 Add four circle primitives for the rounded corners*
1,1,$1+$1,$2,$3*
1,1,$1+$1,$4,$5*
1,1,$1+$1,$6,$7*
1,1,$1+$1,$8,$9*
0 Add four rect primitives between the rounded corners*
20,1,$1+$1,$2,$3,$4,$5,0*
20,1,$1+$1,$4,$5,$6,$7,0*
20,1,$1+$1,$6,$7,$8,$9,0*
20,1,$1+$1,$8,$9,$2,$3,0*%
G04 Aperture macros list end*
%ADD10C,1.000000*%
%ADD11C,0.200000*%
%ADD12C,0.800000*%
%ADD13C,0.010000*%
%ADD14C,2.220000*%
%ADD15C,5.250000*%
%ADD16RoundRect,0.150000X0.350000X0.850000X-0.350000X0.850000X-0.350000X-0.850000X0.350000X-0.850000X0*%
G04 APERTURE END LIST*
D10*
X146010000Y-103729993D02*
G75*
G02*
X145010000Y-103729993I-500000J0D01*
G01*
X145010000Y-103729993D02*
G75*
G02*
X146010000Y-103729993I500000J0D01*
G01*
D11*
G36*
X180648980Y-110056629D02*
G01*
X180305536Y-110056629D01*
X180194624Y-110050224D01*
X180104367Y-110032573D01*
X180031274Y-110005503D01*
X179972401Y-109970075D01*
X179922874Y-109922600D01*
X179887292Y-109865176D01*
X179865007Y-109795772D01*
X179857449Y-109715338D01*
X180085189Y-109715338D01*
X180088571Y-109749766D01*
X180098576Y-109781734D01*
X180114968Y-109810628D01*
X180137737Y-109835590D01*
X180166006Y-109855600D01*
X180201825Y-109871365D01*
X180241955Y-109880868D01*
X180290918Y-109884291D01*
X180438943Y-109884291D01*
X180438943Y-109559311D01*
X180307228Y-109559311D01*
X180232851Y-109564798D01*
X180178668Y-109579283D01*
X180139891Y-109600703D01*
X180109586Y-109631716D01*
X180091509Y-109669227D01*
X180085189Y-109715338D01*
X179857449Y-109715338D01*
X179857073Y-109711338D01*
X179861416Y-109658805D01*
X179873845Y-109613167D01*
X179893869Y-109571772D01*
X179919468Y-109536999D01*
X179950684Y-109507707D01*
X179986634Y-109484452D01*
X180025978Y-109467522D01*
X180067109Y-109457293D01*
X180027280Y-109439711D01*
X179993943Y-109417055D01*
X179965454Y-109389343D01*
X179942318Y-109357968D01*
X179924409Y-109323103D01*
X179911775Y-109284725D01*
X179904343Y-109244454D01*
X179904059Y-109239717D01*
X180122196Y-109239717D01*
X180124728Y-109271417D01*
X180132121Y-109300343D01*
X180145106Y-109326732D01*
X180164819Y-109350275D01*
X180190169Y-109369306D01*
X180223367Y-109384434D01*
X180261268Y-109393466D01*
X180310690Y-109396821D01*
X180438943Y-109396821D01*
X180438943Y-109101385D01*
X180310690Y-109101385D01*
X180261884Y-109104057D01*
X180224214Y-109111233D01*
X180190768Y-109123482D01*
X180165665Y-109138930D01*
X180145847Y-109158915D01*
X180132505Y-109182476D01*
X180124860Y-109209117D01*
X180122196Y-109239717D01*
X179904059Y-109239717D01*
X179901850Y-109202941D01*
X179908394Y-109136953D01*
X179926808Y-109082764D01*
X179956371Y-109037909D01*
X179997867Y-109000829D01*
X180046366Y-108973923D01*
X180108429Y-108952961D01*
X180187064Y-108939070D01*
X180285763Y-108933971D01*
X180648980Y-108933971D01*
X180648980Y-110056629D01*
G37*
G36*
X179382654Y-109174128D02*
G01*
X179462004Y-109199325D01*
X179532609Y-109240430D01*
X179591565Y-109295496D01*
X179638293Y-109362911D01*
X179674195Y-109444906D01*
X179695850Y-109535065D01*
X179703431Y-109638479D01*
X179695717Y-109741936D01*
X179674195Y-109827358D01*
X179637899Y-109903244D01*
X179589795Y-109964305D01*
X179529301Y-110012508D01*
X179455541Y-110048012D01*
X179373132Y-110068937D01*
X179276510Y-110076324D01*
X179194726Y-110073170D01*
X179111250Y-110063861D01*
X179030313Y-110049781D01*
X178957147Y-110032009D01*
X178957147Y-109864595D01*
X179035109Y-109885078D01*
X179108250Y-109898524D01*
X179179973Y-109906410D01*
X179244658Y-109908910D01*
X179298153Y-109904886D01*
X179344907Y-109893369D01*
X179387257Y-109874054D01*
X179422382Y-109848131D01*
X179450744Y-109815149D01*
X179472313Y-109774348D01*
X179485304Y-109728168D01*
X179489932Y-109672562D01*
X178914985Y-109672562D01*
X178911139Y-109608320D01*
X178909831Y-109552618D01*
X178912381Y-109519919D01*
X179123252Y-109519919D01*
X179486547Y-109519919D01*
X179474861Y-109459398D01*
X179454541Y-109411779D01*
X179426305Y-109374510D01*
X179389682Y-109346096D01*
X179346949Y-109328939D01*
X179296283Y-109322962D01*
X179261004Y-109325959D01*
X179228732Y-109334733D01*
X179199260Y-109349561D01*
X179173646Y-109370740D01*
X179152801Y-109397695D01*
X179136178Y-109432366D01*
X179126260Y-109471547D01*
X179123252Y-109519919D01*
X178912381Y-109519919D01*
X178916265Y-109470126D01*
X178934835Y-109396744D01*
X178965892Y-109330017D01*
X179008002Y-109274184D01*
X179061336Y-109228905D01*
X179127638Y-109194093D01*
X179202470Y-109172916D01*
X179291974Y-109165396D01*
X179382654Y-109174128D01*
G37*
G36*
X177981515Y-110046781D02*
G01*
X178095996Y-110068246D01*
X178205323Y-110076324D01*
X178288224Y-110071444D01*
X178353811Y-110058167D01*
X178411880Y-110034699D01*
X178457136Y-110002850D01*
X178492273Y-109961160D01*
X178517378Y-109908218D01*
X178531515Y-109847650D01*
X178536689Y-109771271D01*
X178536689Y-109342658D01*
X178771653Y-109342658D01*
X178771653Y-109180168D01*
X178536689Y-109180168D01*
X178536689Y-108955667D01*
X178321497Y-108899504D01*
X178321497Y-109180168D01*
X177981515Y-109180168D01*
X177981515Y-109342658D01*
X178321497Y-109342658D01*
X178321497Y-109756499D01*
X178317111Y-109805607D01*
X178305266Y-109842634D01*
X178287107Y-109870365D01*
X178261378Y-109890501D01*
X178224262Y-109903848D01*
X178171702Y-109908910D01*
X178071069Y-109899986D01*
X177981515Y-109879367D01*
X177981515Y-110046781D01*
G37*
G36*
X177012730Y-110046781D02*
G01*
X177127212Y-110068246D01*
X177236539Y-110076324D01*
X177319440Y-110071444D01*
X177385026Y-110058167D01*
X177443096Y-110034699D01*
X177488352Y-110002850D01*
X177523489Y-109961160D01*
X177548593Y-109908218D01*
X177562730Y-109847650D01*
X177567904Y-109771271D01*
X177567904Y-109342658D01*
X177802868Y-109342658D01*
X177802868Y-109180168D01*
X177567904Y-109180168D01*
X177567904Y-108955667D01*
X177352713Y-108899504D01*
X177352713Y-109180168D01*
X177012730Y-109180168D01*
X177012730Y-109342658D01*
X177352713Y-109342658D01*
X177352713Y-109756499D01*
X177348327Y-109805607D01*
X177336481Y-109842634D01*
X177318322Y-109870365D01*
X177292594Y-109890501D01*
X177255477Y-109903848D01*
X177202918Y-109908910D01*
X177102285Y-109899986D01*
X177012730Y-109879367D01*
X177012730Y-110046781D01*
G37*
G36*
X176476300Y-109174128D02*
G01*
X176555651Y-109199325D01*
X176626256Y-109240430D01*
X176685212Y-109295496D01*
X176731940Y-109362911D01*
X176767842Y-109444906D01*
X176789497Y-109535065D01*
X176797077Y-109638479D01*
X176789364Y-109741936D01*
X176767842Y-109827358D01*
X176731546Y-109903244D01*
X176683442Y-109964305D01*
X176622947Y-110012508D01*
X176549188Y-110048012D01*
X176466779Y-110068937D01*
X176370157Y-110076324D01*
X176288373Y-110073170D01*
X176204897Y-110063861D01*
X176123960Y-110049781D01*
X176050793Y-110032009D01*
X176050793Y-109864595D01*
X176128756Y-109885078D01*
X176201897Y-109898524D01*
X176273620Y-109906410D01*
X176338305Y-109908910D01*
X176391800Y-109904886D01*
X176438553Y-109893369D01*
X176480904Y-109874054D01*
X176516028Y-109848131D01*
X176544391Y-109815149D01*
X176565960Y-109774348D01*
X176578951Y-109728168D01*
X176583579Y-109672562D01*
X176008632Y-109672562D01*
X176004785Y-109608320D01*
X176003478Y-109552618D01*
X176006028Y-109519919D01*
X176216899Y-109519919D01*
X176580193Y-109519919D01*
X176568508Y-109459398D01*
X176548188Y-109411779D01*
X176519952Y-109374510D01*
X176483329Y-109346096D01*
X176440596Y-109328939D01*
X176389930Y-109322962D01*
X176354651Y-109325959D01*
X176322379Y-109334733D01*
X176292907Y-109349561D01*
X176267293Y-109370740D01*
X176246448Y-109397695D01*
X176229825Y-109432366D01*
X176219907Y-109471547D01*
X176216899Y-109519919D01*
X176006028Y-109519919D01*
X176009912Y-109470126D01*
X176028482Y-109396744D01*
X176059539Y-109330017D01*
X176101648Y-109274184D01*
X176154983Y-109228905D01*
X176221285Y-109194093D01*
X176296116Y-109172916D01*
X176385621Y-109165396D01*
X176476300Y-109174128D01*
G37*
G36*
X175233497Y-109519919D02*
G01*
X175233954Y-109474206D01*
X175238267Y-109439213D01*
X175246977Y-109407869D01*
X175258886Y-109384280D01*
X175274994Y-109365333D01*
X175293815Y-109352660D01*
X175315495Y-109345252D01*
X175341054Y-109342658D01*
X175386521Y-109351420D01*
X175437071Y-109380511D01*
X175485269Y-109426344D01*
X175545936Y-109505148D01*
X175545936Y-110056629D01*
X175761128Y-110056629D01*
X175761128Y-109180168D01*
X175570941Y-109180168D01*
X175563170Y-109313114D01*
X175514546Y-109252334D01*
X175454305Y-109205788D01*
X175419686Y-109188685D01*
X175380677Y-109175859D01*
X175339074Y-109168106D01*
X175292046Y-109165396D01*
X175228263Y-109171275D01*
X175174564Y-109187939D01*
X175127453Y-109215880D01*
X175088472Y-109254719D01*
X175058801Y-109303125D01*
X175036847Y-109365662D01*
X175025132Y-109435155D01*
X175022614Y-109519919D01*
X175233497Y-109519919D01*
G37*
G36*
X173137593Y-110046781D02*
G01*
X173252075Y-110068246D01*
X173361401Y-110076324D01*
X173444303Y-110071444D01*
X173509889Y-110058167D01*
X173567958Y-110034699D01*
X173613214Y-110002850D01*
X173648351Y-109961160D01*
X173673456Y-109908218D01*
X173687593Y-109847650D01*
X173692767Y-109771271D01*
X173692767Y-109342658D01*
X173927731Y-109342658D01*
X173927731Y-109180168D01*
X173692767Y-109180168D01*
X173692767Y-108955667D01*
X173477575Y-108899504D01*
X173477575Y-109180168D01*
X173137593Y-109180168D01*
X173137593Y-109342658D01*
X173477575Y-109342658D01*
X173477575Y-109756499D01*
X173473189Y-109805607D01*
X173461344Y-109842634D01*
X173443185Y-109870365D01*
X173417456Y-109890501D01*
X173380340Y-109903848D01*
X173327780Y-109908910D01*
X173227147Y-109899986D01*
X173137593Y-109879367D01*
X173137593Y-110046781D01*
G37*
G36*
X172368459Y-110056629D02*
G01*
X172368459Y-109490453D01*
X172373917Y-109433135D01*
X172388075Y-109394205D01*
X172409070Y-109368550D01*
X172437271Y-109353125D01*
X172475170Y-109347582D01*
X172509262Y-109352071D01*
X172542969Y-109365878D01*
X172577188Y-109390358D01*
X172624877Y-109438196D01*
X172680052Y-109506686D01*
X172680052Y-110056629D01*
X172890088Y-110056629D01*
X172890088Y-108840416D01*
X172680052Y-108840416D01*
X172680052Y-109141161D01*
X172690361Y-109300189D01*
X172636198Y-109243102D01*
X172576803Y-109200633D01*
X172507945Y-109174398D01*
X172469839Y-109167740D01*
X172426161Y-109165396D01*
X172361775Y-109171172D01*
X172309141Y-109187323D01*
X172263081Y-109213860D01*
X172225665Y-109249103D01*
X172196621Y-109292417D01*
X172175271Y-109345274D01*
X172162874Y-109403493D01*
X172158499Y-109471065D01*
X172158499Y-110056629D01*
X172368459Y-110056629D01*
G37*
G36*
X171406599Y-108939357D02*
G01*
X171409225Y-108967131D01*
X171416985Y-108992904D01*
X171429408Y-109016454D01*
X171445836Y-109036604D01*
X171465829Y-109053150D01*
X171489306Y-109065994D01*
X171515066Y-109074024D01*
X171543469Y-109076765D01*
X171571937Y-109074034D01*
X171598094Y-109065994D01*
X171621908Y-109053131D01*
X171642024Y-109036604D01*
X171658409Y-109016462D01*
X171670876Y-108992904D01*
X171678577Y-108967135D01*
X171681185Y-108939357D01*
X171678576Y-108911512D01*
X171670876Y-108885732D01*
X171658427Y-108862106D01*
X171642024Y-108841647D01*
X171621872Y-108824771D01*
X171598094Y-108811873D01*
X171571933Y-108803775D01*
X171543469Y-108801025D01*
X171515070Y-108803785D01*
X171489306Y-108811873D01*
X171465865Y-108824751D01*
X171445836Y-108841647D01*
X171429390Y-108862114D01*
X171416985Y-108885732D01*
X171409227Y-108911515D01*
X171406599Y-108939357D01*
G37*
G36*
X171638947Y-109342658D02*
G01*
X171885990Y-109342658D01*
X171885990Y-109180168D01*
X171423833Y-109180168D01*
X171423833Y-109894139D01*
X171171635Y-109894139D01*
X171171635Y-110056629D01*
X171916149Y-110056629D01*
X171916149Y-109894139D01*
X171638947Y-109894139D01*
X171638947Y-109342658D01*
G37*
G36*
X170430890Y-110056629D02*
G01*
X170430890Y-109490453D01*
X170436349Y-109433135D01*
X170450506Y-109394205D01*
X170471501Y-109368550D01*
X170499703Y-109353125D01*
X170537601Y-109347582D01*
X170571694Y-109352071D01*
X170605401Y-109365878D01*
X170639619Y-109390358D01*
X170687308Y-109438196D01*
X170742483Y-109506686D01*
X170742483Y-110056629D01*
X170952520Y-110056629D01*
X170952520Y-109180168D01*
X170770872Y-109180168D01*
X170765718Y-109309575D01*
X170710247Y-109250103D01*
X170647851Y-109204403D01*
X170613114Y-109187769D01*
X170575531Y-109175475D01*
X170535433Y-109168036D01*
X170488592Y-109165396D01*
X170424206Y-109171172D01*
X170371572Y-109187323D01*
X170325512Y-109213860D01*
X170288096Y-109249103D01*
X170259052Y-109292417D01*
X170237703Y-109345274D01*
X170225305Y-109403493D01*
X170220930Y-109471065D01*
X170220930Y-110056629D01*
X170430890Y-110056629D01*
G37*
G36*
X169706436Y-109170603D02*
G01*
X169772468Y-109185630D01*
X169832846Y-109210960D01*
X169883102Y-109245025D01*
X169924356Y-109288497D01*
X169955807Y-109341427D01*
X169975235Y-109401366D01*
X169982043Y-109471757D01*
X169976339Y-109536329D01*
X169960962Y-109584931D01*
X169936800Y-109627245D01*
X169907953Y-109661944D01*
X169942420Y-109704105D01*
X169971271Y-109748883D01*
X169991506Y-109797429D01*
X169999199Y-109852131D01*
X169993741Y-109893765D01*
X169977273Y-109932992D01*
X169950701Y-109967000D01*
X169913184Y-109994925D01*
X169968271Y-110039472D01*
X170007047Y-110085249D01*
X170030282Y-110134411D01*
X170037975Y-110190113D01*
X170032105Y-110237940D01*
X170014741Y-110281206D01*
X169985976Y-110319029D01*
X169942882Y-110352680D01*
X169889903Y-110378401D01*
X169818091Y-110399381D01*
X169738106Y-110411558D01*
X169635982Y-110416076D01*
X169530312Y-110409895D01*
X169444026Y-110392841D01*
X169366181Y-110364568D01*
X169305925Y-110329753D01*
X169256767Y-110285649D01*
X169222833Y-110235814D01*
X169202182Y-110180043D01*
X169197295Y-110138027D01*
X169412174Y-110138027D01*
X169414960Y-110162896D01*
X169423407Y-110187113D01*
X169437818Y-110208857D01*
X169460413Y-110228582D01*
X169488661Y-110244089D01*
X169527117Y-110257356D01*
X169570363Y-110265355D01*
X169627365Y-110268358D01*
X169714678Y-110261621D01*
X169771621Y-110244661D01*
X169800847Y-110225175D01*
X169817211Y-110201134D01*
X169822784Y-110171033D01*
X169819784Y-110138797D01*
X169807781Y-110108715D01*
X169782777Y-110078709D01*
X169741847Y-110046550D01*
X169556815Y-110050012D01*
X169498728Y-110057167D01*
X169453104Y-110073247D01*
X169422945Y-110099482D01*
X169414993Y-110116521D01*
X169412174Y-110138027D01*
X169197295Y-110138027D01*
X169195290Y-110120794D01*
X169200960Y-110069735D01*
X169217294Y-110025931D01*
X169243633Y-109987678D01*
X169279689Y-109955149D01*
X169323108Y-109929716D01*
X169376475Y-109910064D01*
X169434798Y-109897876D01*
X169502574Y-109892369D01*
X169709995Y-109884598D01*
X169751772Y-109876905D01*
X169783623Y-109859440D01*
X169803858Y-109835051D01*
X169810705Y-109807739D01*
X169808069Y-109786471D01*
X169800396Y-109768040D01*
X169775468Y-109735957D01*
X169753022Y-109746529D01*
X169716996Y-109757115D01*
X169677234Y-109763788D01*
X169632597Y-109766116D01*
X169557165Y-109761112D01*
X169490957Y-109746805D01*
X169430532Y-109722384D01*
X169380784Y-109689564D01*
X169339998Y-109647298D01*
X169309310Y-109595702D01*
X169290549Y-109536872D01*
X169283994Y-109467372D01*
X169479340Y-109467372D01*
X169488803Y-109526536D01*
X169500700Y-109553199D01*
X169517192Y-109576237D01*
X169538305Y-109595278D01*
X169564970Y-109610474D01*
X169595418Y-109619943D01*
X169632520Y-109623322D01*
X169679666Y-109618364D01*
X169716963Y-109604588D01*
X169746617Y-109582623D01*
X169768835Y-109553176D01*
X169782580Y-109517110D01*
X169787470Y-109472527D01*
X169778007Y-109411670D01*
X169766076Y-109384156D01*
X169749617Y-109360661D01*
X169728469Y-109341250D01*
X169701840Y-109325963D01*
X169671392Y-109316493D01*
X169634290Y-109313114D01*
X169587145Y-109318074D01*
X169549877Y-109331851D01*
X169520270Y-109353814D01*
X169498165Y-109383339D01*
X169484319Y-109420457D01*
X169479340Y-109467372D01*
X169283994Y-109467372D01*
X169283921Y-109466603D01*
X169286401Y-109431717D01*
X169293846Y-109397514D01*
X169307101Y-109364771D01*
X169327852Y-109332810D01*
X169190135Y-109332810D01*
X169190135Y-109180168D01*
X169493111Y-109180168D01*
X169558122Y-109168704D01*
X169632597Y-109165396D01*
X169706436Y-109170603D01*
G37*
G36*
X168293671Y-109799891D02*
G01*
X168302344Y-109870568D01*
X168326831Y-109927375D01*
X168365179Y-109975093D01*
X168414615Y-110013236D01*
X168472112Y-110041430D01*
X168538560Y-110061245D01*
X168608400Y-110072536D01*
X168680123Y-110076324D01*
X168774205Y-110073663D01*
X168854000Y-110066246D01*
X168930139Y-110053714D01*
X169000333Y-110036933D01*
X169000333Y-109849823D01*
X168918840Y-109879089D01*
X168838920Y-109898678D01*
X168759382Y-109910177D01*
X168687047Y-109913834D01*
X168610484Y-109906477D01*
X168563564Y-109888215D01*
X168540123Y-109868560D01*
X168527009Y-109846618D01*
X168522634Y-109821357D01*
X168531251Y-109785273D01*
X168542758Y-109770155D01*
X168563564Y-109753960D01*
X168630268Y-109723109D01*
X168742980Y-109687410D01*
X168805205Y-109667616D01*
X168856154Y-109646634D01*
X168901558Y-109621190D01*
X168936629Y-109593009D01*
X168964541Y-109559557D01*
X168984407Y-109521304D01*
X168996116Y-109478363D01*
X169000333Y-109425518D01*
X168994305Y-109373765D01*
X168976252Y-109325116D01*
X168946718Y-109281372D01*
X168904393Y-109242256D01*
X168852373Y-109211183D01*
X168785142Y-109186015D01*
X168710376Y-109170892D01*
X168618189Y-109165396D01*
X168471856Y-109173090D01*
X168359067Y-109190016D01*
X168359067Y-109362354D01*
X168433213Y-109341246D01*
X168499784Y-109328040D01*
X168565561Y-109320520D01*
X168630191Y-109318038D01*
X168690700Y-109324504D01*
X168733902Y-109341735D01*
X168756099Y-109360083D01*
X168768755Y-109381622D01*
X168773062Y-109407515D01*
X168765369Y-109442752D01*
X168754745Y-109457052D01*
X168734825Y-109472757D01*
X168671122Y-109503301D01*
X168563026Y-109538000D01*
X168490675Y-109561182D01*
X168435696Y-109583931D01*
X168387741Y-109610945D01*
X168352681Y-109639325D01*
X168325489Y-109672621D01*
X168307443Y-109709722D01*
X168297285Y-109750898D01*
X168293671Y-109799891D01*
G37*
G36*
X180369898Y-111286445D02*
G01*
X180453177Y-111298968D01*
X180532539Y-111318526D01*
X180598202Y-111341283D01*
X180598202Y-111508697D01*
X180526425Y-111479642D01*
X180452330Y-111457919D01*
X180376471Y-111444301D01*
X180299535Y-111439762D01*
X180252522Y-111442634D01*
X180216905Y-111450302D01*
X180185694Y-111463355D01*
X180162203Y-111480000D01*
X180144068Y-111501190D01*
X180131659Y-111526700D01*
X180124656Y-111555273D01*
X180122196Y-111588326D01*
X180122196Y-111641643D01*
X180236677Y-111641643D01*
X180341430Y-111647368D01*
X180425633Y-111663032D01*
X180501496Y-111689303D01*
X180559965Y-111721888D01*
X180607438Y-111763722D01*
X180639979Y-111811519D01*
X180659570Y-111865586D01*
X180666214Y-111925077D01*
X180661669Y-111983165D01*
X180648595Y-112034404D01*
X180626509Y-112080611D01*
X180596509Y-112118881D01*
X180558501Y-112149695D01*
X180511264Y-112173505D01*
X180457968Y-112187956D01*
X180393397Y-112193124D01*
X180343715Y-112190566D01*
X180299996Y-112183276D01*
X180258601Y-112171272D01*
X180221213Y-112155502D01*
X180154971Y-112113110D01*
X180097269Y-112059639D01*
X180092114Y-112173429D01*
X179912159Y-112173429D01*
X179912159Y-111904535D01*
X180122196Y-111904535D01*
X180179101Y-111958359D01*
X180226368Y-111994397D01*
X180274332Y-112018387D01*
X180317615Y-112025710D01*
X180372581Y-112018283D01*
X180411477Y-111998167D01*
X180430227Y-111977588D01*
X180441747Y-111951494D01*
X180445868Y-111918153D01*
X180443157Y-111892529D01*
X180435097Y-111868606D01*
X180421484Y-111847012D01*
X180401091Y-111827522D01*
X180375457Y-111812086D01*
X180340849Y-111799517D01*
X180301714Y-111792127D01*
X180250449Y-111789362D01*
X180122196Y-111789362D01*
X180122196Y-111904535D01*
X179912159Y-111904535D01*
X179912159Y-111577555D01*
X179917849Y-111506539D01*
X179933702Y-111448379D01*
X179961181Y-111397504D01*
X180000405Y-111356055D01*
X180050178Y-111324492D01*
X180115349Y-111300661D01*
X180188652Y-111287184D01*
X180282301Y-111282196D01*
X180369898Y-111286445D01*
G37*
G36*
X179108635Y-111636719D02*
G01*
X179109092Y-111591006D01*
X179113405Y-111556013D01*
X179122114Y-111524669D01*
X179134024Y-111501080D01*
X179150131Y-111482133D01*
X179168953Y-111469460D01*
X179190632Y-111462052D01*
X179216192Y-111459458D01*
X179261658Y-111468220D01*
X179312209Y-111497311D01*
X179360406Y-111543144D01*
X179421074Y-111621948D01*
X179421074Y-112173429D01*
X179636265Y-112173429D01*
X179636265Y-111296968D01*
X179446078Y-111296968D01*
X179438307Y-111429914D01*
X179389684Y-111369134D01*
X179329442Y-111322588D01*
X179294823Y-111305485D01*
X179255814Y-111292659D01*
X179214211Y-111284906D01*
X179167183Y-111282196D01*
X179103400Y-111288075D01*
X179049701Y-111304739D01*
X179002590Y-111332680D01*
X178963609Y-111371519D01*
X178933938Y-111419925D01*
X178911985Y-111482462D01*
X178900269Y-111551955D01*
X178897752Y-111636719D01*
X179108635Y-111636719D01*
G37*
G36*
X178413869Y-111290928D02*
G01*
X178493219Y-111316125D01*
X178563825Y-111357230D01*
X178622781Y-111412296D01*
X178669509Y-111479711D01*
X178705410Y-111561706D01*
X178727066Y-111651865D01*
X178734646Y-111755279D01*
X178726933Y-111858736D01*
X178705410Y-111944158D01*
X178669114Y-112020044D01*
X178621011Y-112081105D01*
X178560516Y-112129308D01*
X178486757Y-112164812D01*
X178404348Y-112185737D01*
X178307726Y-112193124D01*
X178225942Y-112189970D01*
X178142466Y-112180661D01*
X178061529Y-112166581D01*
X177988362Y-112148809D01*
X177988362Y-111981395D01*
X178066324Y-112001878D01*
X178139465Y-112015324D01*
X178211188Y-112023210D01*
X178275874Y-112025710D01*
X178329368Y-112021686D01*
X178376122Y-112010169D01*
X178418472Y-111990854D01*
X178453597Y-111964931D01*
X178481960Y-111931949D01*
X178503529Y-111891148D01*
X178516520Y-111844968D01*
X178521147Y-111789362D01*
X177946201Y-111789362D01*
X177942354Y-111725120D01*
X177941046Y-111669418D01*
X177943596Y-111636719D01*
X178154468Y-111636719D01*
X178517762Y-111636719D01*
X178506077Y-111576198D01*
X178485757Y-111528579D01*
X178457521Y-111491310D01*
X178420898Y-111462896D01*
X178378165Y-111445739D01*
X178327498Y-111439762D01*
X178292219Y-111442759D01*
X178259948Y-111451533D01*
X178230475Y-111466361D01*
X178204862Y-111487540D01*
X178184017Y-111514495D01*
X178167393Y-111549166D01*
X178157476Y-111588347D01*
X178154468Y-111636719D01*
X177943596Y-111636719D01*
X177947480Y-111586926D01*
X177966051Y-111513544D01*
X177997108Y-111446817D01*
X178039217Y-111390984D01*
X178092552Y-111345705D01*
X178158853Y-111310893D01*
X178233685Y-111289716D01*
X178323190Y-111282196D01*
X178413869Y-111290928D01*
G37*
G36*
X176348139Y-111284836D02*
G01*
X176388237Y-111292275D01*
X176425820Y-111304569D01*
X176460557Y-111321203D01*
X176522953Y-111366903D01*
X176578424Y-111426375D01*
X176583579Y-111296968D01*
X176765226Y-111296968D01*
X176765226Y-112513180D01*
X176555189Y-112513180D01*
X176555189Y-112172736D01*
X176495794Y-112183892D01*
X176430398Y-112188200D01*
X176335599Y-112181050D01*
X176250521Y-112160349D01*
X176173043Y-112124730D01*
X176107265Y-112074565D01*
X176053891Y-112010248D01*
X176012556Y-111929155D01*
X175994285Y-111869832D01*
X175982664Y-111801107D01*
X175979003Y-111730274D01*
X176198896Y-111730274D01*
X176202960Y-111795445D01*
X176214437Y-111851295D01*
X176233728Y-111902076D01*
X176258753Y-111942619D01*
X176290699Y-111975870D01*
X176328457Y-112000398D01*
X176371081Y-112015577D01*
X176419242Y-112020786D01*
X176493717Y-112014862D01*
X176555189Y-111999552D01*
X176555189Y-111622409D01*
X176500020Y-111554367D01*
X176452325Y-111506851D01*
X176418128Y-111482554D01*
X176384444Y-111468841D01*
X176350384Y-111464382D01*
X176315750Y-111468218D01*
X176286296Y-111479230D01*
X176260962Y-111497935D01*
X176238903Y-111526393D01*
X176222382Y-111561510D01*
X176209206Y-111608792D01*
X176201706Y-111661537D01*
X176198896Y-111730274D01*
X175979003Y-111730274D01*
X175978550Y-111721504D01*
X175984198Y-111623100D01*
X176000092Y-111539164D01*
X176027126Y-111462548D01*
X176062488Y-111401063D01*
X176108414Y-111350338D01*
X176163582Y-111313125D01*
X176226982Y-111290189D01*
X176301299Y-111282196D01*
X176348139Y-111284836D01*
G37*
G36*
X175520081Y-111290779D02*
G01*
X175603639Y-111315279D01*
X175677995Y-111355390D01*
X175739201Y-111408449D01*
X175787724Y-111473911D01*
X175824369Y-111553551D01*
X175846375Y-111641537D01*
X175854067Y-111742353D01*
X175846541Y-111850796D01*
X175825677Y-111939465D01*
X175790325Y-112018159D01*
X175743894Y-112080258D01*
X175685125Y-112129208D01*
X175613948Y-112164812D01*
X175534066Y-112185733D01*
X175440072Y-112193124D01*
X175341375Y-112184406D01*
X175257655Y-112159657D01*
X175183360Y-112119005D01*
X175122478Y-112065256D01*
X175074338Y-111998987D01*
X175038155Y-111918846D01*
X175016411Y-111830513D01*
X175009232Y-111735506D01*
X175227496Y-111735506D01*
X175230602Y-111792517D01*
X175239575Y-111844140D01*
X175254969Y-111892155D01*
X175275735Y-111931848D01*
X175303506Y-111964984D01*
X175338592Y-111990012D01*
X175379728Y-112005473D01*
X175429762Y-112010939D01*
X175490157Y-112002951D01*
X175539480Y-111980136D01*
X175580404Y-111942080D01*
X175609217Y-111893043D01*
X175628340Y-111826493D01*
X175635490Y-111737199D01*
X175632513Y-111681833D01*
X175623873Y-111631180D01*
X175608633Y-111583974D01*
X175587328Y-111544396D01*
X175558844Y-111511069D01*
X175523625Y-111485770D01*
X175482066Y-111470029D01*
X175429762Y-111464382D01*
X175366563Y-111472502D01*
X175317351Y-111495222D01*
X175278736Y-111532394D01*
X175252063Y-111580577D01*
X175234206Y-111646515D01*
X175227496Y-111735506D01*
X175009232Y-111735506D01*
X175008842Y-111730351D01*
X175016242Y-111624316D01*
X175036847Y-111536779D01*
X175071775Y-111458755D01*
X175118169Y-111396447D01*
X175176914Y-111346990D01*
X175248115Y-111310970D01*
X175328123Y-111289721D01*
X175422838Y-111282196D01*
X175520081Y-111290779D01*
G37*
G36*
X174106377Y-111916691D02*
G01*
X174115050Y-111987368D01*
X174139537Y-112044175D01*
X174177885Y-112091893D01*
X174227322Y-112130036D01*
X174284818Y-112158230D01*
X174351266Y-112178045D01*
X174421107Y-112189336D01*
X174492829Y-112193124D01*
X174586911Y-112190463D01*
X174666706Y-112183046D01*
X174742845Y-112170514D01*
X174813039Y-112153733D01*
X174813039Y-111966623D01*
X174731547Y-111995889D01*
X174651626Y-112015478D01*
X174572088Y-112026977D01*
X174499754Y-112030634D01*
X174423190Y-112023277D01*
X174376271Y-112005015D01*
X174352829Y-111985360D01*
X174339716Y-111963418D01*
X174335340Y-111938157D01*
X174343957Y-111902073D01*
X174355464Y-111886955D01*
X174376271Y-111870760D01*
X174442975Y-111839909D01*
X174555687Y-111804210D01*
X174617911Y-111784416D01*
X174668860Y-111763434D01*
X174714264Y-111737990D01*
X174749336Y-111709809D01*
X174777247Y-111676357D01*
X174797113Y-111638104D01*
X174808822Y-111595163D01*
X174813039Y-111542318D01*
X174807011Y-111490565D01*
X174788958Y-111441916D01*
X174759424Y-111398172D01*
X174717099Y-111359056D01*
X174665079Y-111327983D01*
X174597848Y-111302815D01*
X174523082Y-111287692D01*
X174430896Y-111282196D01*
X174284562Y-111289890D01*
X174171773Y-111306816D01*
X174171773Y-111479154D01*
X174245919Y-111458046D01*
X174312490Y-111444840D01*
X174378267Y-111437320D01*
X174442898Y-111434838D01*
X174503407Y-111441304D01*
X174546608Y-111458535D01*
X174568805Y-111476883D01*
X174581461Y-111498422D01*
X174585769Y-111524315D01*
X174578075Y-111559552D01*
X174567451Y-111573852D01*
X174547531Y-111589557D01*
X174483828Y-111620101D01*
X174375732Y-111654800D01*
X174303381Y-111677982D01*
X174248402Y-111700731D01*
X174200447Y-111727745D01*
X174165388Y-111756125D01*
X174138195Y-111789421D01*
X174120149Y-111826522D01*
X174109991Y-111867698D01*
X174106377Y-111916691D01*
G37*
G36*
X173137593Y-111916691D02*
G01*
X173146266Y-111987368D01*
X173170753Y-112044175D01*
X173209101Y-112091893D01*
X173258537Y-112130036D01*
X173316034Y-112158230D01*
X173382482Y-112178045D01*
X173452322Y-112189336D01*
X173524045Y-112193124D01*
X173618126Y-112190463D01*
X173697922Y-112183046D01*
X173774061Y-112170514D01*
X173844255Y-112153733D01*
X173844255Y-111966623D01*
X173762762Y-111995889D01*
X173682842Y-112015478D01*
X173603304Y-112026977D01*
X173530969Y-112030634D01*
X173454406Y-112023277D01*
X173407486Y-112005015D01*
X173384045Y-111985360D01*
X173370931Y-111963418D01*
X173366556Y-111938157D01*
X173375173Y-111902073D01*
X173386680Y-111886955D01*
X173407486Y-111870760D01*
X173474190Y-111839909D01*
X173586902Y-111804210D01*
X173649126Y-111784416D01*
X173700076Y-111763434D01*
X173745479Y-111737990D01*
X173780551Y-111709809D01*
X173808462Y-111676357D01*
X173828329Y-111638104D01*
X173840038Y-111595163D01*
X173844255Y-111542318D01*
X173838227Y-111490565D01*
X173820174Y-111441916D01*
X173790640Y-111398172D01*
X173748315Y-111359056D01*
X173696295Y-111327983D01*
X173629063Y-111302815D01*
X173554298Y-111287692D01*
X173462111Y-111282196D01*
X173315778Y-111289890D01*
X173202989Y-111306816D01*
X173202989Y-111479154D01*
X173277135Y-111458046D01*
X173343706Y-111444840D01*
X173409483Y-111437320D01*
X173474113Y-111434838D01*
X173534622Y-111441304D01*
X173577824Y-111458535D01*
X173600020Y-111476883D01*
X173612677Y-111498422D01*
X173616984Y-111524315D01*
X173609291Y-111559552D01*
X173598667Y-111573852D01*
X173578747Y-111589557D01*
X173515043Y-111620101D01*
X173406948Y-111654800D01*
X173334597Y-111677982D01*
X173279618Y-111700731D01*
X173231662Y-111727745D01*
X173196603Y-111756125D01*
X173169411Y-111789421D01*
X173151365Y-111826522D01*
X173141206Y-111867698D01*
X173137593Y-111916691D01*
G37*
G36*
X172375383Y-111056157D02*
G01*
X172378010Y-111083931D01*
X172385770Y-111109704D01*
X172398192Y-111133254D01*
X172414621Y-111153404D01*
X172434613Y-111169950D01*
X172458090Y-111182794D01*
X172483850Y-111190824D01*
X172512253Y-111193565D01*
X172540721Y-111190834D01*
X172566878Y-111182794D01*
X172590693Y-111169931D01*
X172610809Y-111153404D01*
X172627193Y-111133262D01*
X172639660Y-111109704D01*
X172647362Y-111083935D01*
X172649969Y-111056157D01*
X172647360Y-111028312D01*
X172639660Y-111002532D01*
X172627212Y-110978906D01*
X172610809Y-110958447D01*
X172590657Y-110941571D01*
X172566878Y-110928673D01*
X172540718Y-110920575D01*
X172512253Y-110917825D01*
X172483854Y-110920585D01*
X172458090Y-110928673D01*
X172434649Y-110941551D01*
X172414621Y-110958447D01*
X172398174Y-110978914D01*
X172385770Y-111002532D01*
X172378011Y-111028315D01*
X172375383Y-111056157D01*
G37*
G36*
X172607731Y-111459458D02*
G01*
X172854774Y-111459458D01*
X172854774Y-111296968D01*
X172392617Y-111296968D01*
X172392617Y-112010939D01*
X172140419Y-112010939D01*
X172140419Y-112173429D01*
X172884934Y-112173429D01*
X172884934Y-112010939D01*
X172607731Y-112010939D01*
X172607731Y-111459458D01*
G37*
G36*
X171921304Y-112135730D02*
G01*
X171845182Y-112157192D01*
X171764277Y-112173967D01*
X171680250Y-112184517D01*
X171586476Y-112188200D01*
X171491678Y-112181050D01*
X171406599Y-112160349D01*
X171329121Y-112124730D01*
X171263343Y-112074565D01*
X171209969Y-112010248D01*
X171168634Y-111929155D01*
X171150363Y-111869832D01*
X171138742Y-111801107D01*
X171135081Y-111730274D01*
X171354974Y-111730274D01*
X171359038Y-111795445D01*
X171370516Y-111851295D01*
X171389806Y-111902076D01*
X171414831Y-111942619D01*
X171446777Y-111975870D01*
X171484535Y-112000398D01*
X171527159Y-112015577D01*
X171575321Y-112020786D01*
X171649795Y-112014862D01*
X171711267Y-111999552D01*
X171711267Y-111622409D01*
X171656098Y-111554367D01*
X171608403Y-111506851D01*
X171574207Y-111482554D01*
X171540522Y-111468841D01*
X171506462Y-111464382D01*
X171471828Y-111468218D01*
X171442374Y-111479230D01*
X171417040Y-111497935D01*
X171394981Y-111526393D01*
X171378460Y-111561510D01*
X171365284Y-111608792D01*
X171357784Y-111661537D01*
X171354974Y-111730274D01*
X171135081Y-111730274D01*
X171134628Y-111721504D01*
X171140277Y-111623100D01*
X171156170Y-111539164D01*
X171183204Y-111462548D01*
X171218566Y-111401063D01*
X171264492Y-111350338D01*
X171319661Y-111313125D01*
X171383060Y-111290189D01*
X171457377Y-111282196D01*
X171515488Y-111286596D01*
X171565693Y-111299126D01*
X171609326Y-111319203D01*
X171668225Y-111361928D01*
X171719884Y-111417374D01*
X171711267Y-111244959D01*
X171711267Y-110957216D01*
X171921304Y-110957216D01*
X171921304Y-112135730D01*
G37*
G36*
X170670163Y-111119706D02*
G01*
X170917206Y-111119706D01*
X170917206Y-110957216D01*
X170455048Y-110957216D01*
X170455048Y-112010939D01*
X170202850Y-112010939D01*
X170202850Y-112173429D01*
X170947365Y-112173429D01*
X170947365Y-112010939D01*
X170670163Y-112010939D01*
X170670163Y-111119706D01*
G37*
G36*
X169694810Y-111290928D02*
G01*
X169774160Y-111316125D01*
X169844765Y-111357230D01*
X169903721Y-111412296D01*
X169950450Y-111479711D01*
X169986351Y-111561706D01*
X170008006Y-111651865D01*
X170015587Y-111755279D01*
X170007873Y-111858736D01*
X169986351Y-111944158D01*
X169950055Y-112020044D01*
X169901952Y-112081105D01*
X169841457Y-112129308D01*
X169767698Y-112164812D01*
X169685288Y-112185737D01*
X169588666Y-112193124D01*
X169506883Y-112189970D01*
X169423407Y-112180661D01*
X169342469Y-112166581D01*
X169269303Y-112148809D01*
X169269303Y-111981395D01*
X169347265Y-112001878D01*
X169420406Y-112015324D01*
X169492129Y-112023210D01*
X169556815Y-112025710D01*
X169610309Y-112021686D01*
X169657063Y-112010169D01*
X169699413Y-111990854D01*
X169734538Y-111964931D01*
X169762901Y-111931949D01*
X169784470Y-111891148D01*
X169797460Y-111844968D01*
X169802088Y-111789362D01*
X169227142Y-111789362D01*
X169223295Y-111725120D01*
X169221987Y-111669418D01*
X169224537Y-111636719D01*
X169435409Y-111636719D01*
X169798703Y-111636719D01*
X169787017Y-111576198D01*
X169766698Y-111528579D01*
X169738462Y-111491310D01*
X169701839Y-111462896D01*
X169659105Y-111445739D01*
X169608439Y-111439762D01*
X169573160Y-111442759D01*
X169540889Y-111451533D01*
X169511416Y-111466361D01*
X169485802Y-111487540D01*
X169464958Y-111514495D01*
X169448334Y-111549166D01*
X169438416Y-111588347D01*
X169435409Y-111636719D01*
X169224537Y-111636719D01*
X169228421Y-111586926D01*
X169246991Y-111513544D01*
X169278048Y-111446817D01*
X169320158Y-111390984D01*
X169373493Y-111345705D01*
X169439794Y-111310893D01*
X169514626Y-111289716D01*
X169604131Y-111282196D01*
X169694810Y-111290928D01*
G37*
D12*
%TO.C,REF\u002A\u002A*%
X187690417Y-111050358D02*
X184409584Y-111050358D01*
D13*
X186427500Y-107517129D02*
X188752500Y-112342129D01*
X188747500Y-112352129D01*
X188677500Y-112462129D01*
X188567500Y-112612129D01*
X188527500Y-112662129D01*
X188417500Y-112792129D01*
X188193023Y-113016167D01*
X186059860Y-108580334D01*
X183897500Y-112982129D01*
X183627500Y-112702129D01*
X183497500Y-112532129D01*
X183347500Y-112302129D01*
X185687500Y-107522129D01*
X185887500Y-107502129D01*
X186267500Y-107502129D01*
X186427500Y-107517129D01*
G36*
X186427500Y-107517129D02*
G01*
X188752500Y-112342129D01*
X188747500Y-112352129D01*
X188677500Y-112462129D01*
X188567500Y-112612129D01*
X188527500Y-112662129D01*
X188417500Y-112792129D01*
X188193023Y-113016167D01*
X186059860Y-108580334D01*
X183897500Y-112982129D01*
X183627500Y-112702129D01*
X183497500Y-112532129D01*
X183347500Y-112302129D01*
X185687500Y-107522129D01*
X185887500Y-107502129D01*
X186267500Y-107502129D01*
X186427500Y-107517129D01*
G37*
%TD*%
D14*
%TO.C,TP2*%
X101360000Y-100454993D03*
%TD*%
D15*
%TO.C,H4*%
X193010000Y-116500033D03*
%TD*%
%TO.C,H2*%
X98010000Y-116500033D03*
%TD*%
%TO.C,H1*%
X98010000Y-94000033D03*
%TD*%
D14*
%TO.C,TP3*%
X101360000Y-110044993D03*
%TD*%
D15*
%TO.C,H3*%
X193010000Y-94000033D03*
%TD*%
D16*
%TO.C,TP4*%
X168160000Y-103125033D03*
X166160000Y-103125033D03*
%TD*%
%TO.C,TP1*%
X124860000Y-103125033D03*
X122860000Y-103125033D03*
%TD*%
M02*
