%TF.GenerationSoftware,KiCad,Pcbnew,9.0.0*%
%TF.CreationDate,2025-05-19T23:18:48-04:00*%
%TF.ProjectId,TS_Back_Endcap,54535f42-6163-46b5-9f45-6e646361702e,rev?*%
%TF.SameCoordinates,Original*%
%TF.FileFunction,Profile,NP*%
%FSLAX46Y46*%
G04 Gerber Fmt 4.6, Leading zero omitted, Abs format (unit mm)*
G04 Created by KiCad (PCBNEW 9.0.0) date 2025-05-19 23:18:48*
%MOMM*%
%LPD*%
G01*
G04 APERTURE LIST*
%TA.AperFunction,Profile*%
%ADD10C,0.100000*%
%TD*%
%TA.AperFunction,Profile*%
%ADD11C,0.050000*%
%TD*%
G04 APERTURE END LIST*
D10*
X184568596Y-94904105D02*
X185786776Y-95731585D01*
X134210000Y-94195000D02*
X132710000Y-94195000D01*
X168810000Y-105715000D02*
G75*
G02*
X168310000Y-105215000I0J500000D01*
G01*
X176738243Y-103971757D02*
G75*
G02*
X181458793Y-94499780I9421757J1216757D01*
G01*
X186060469Y-109629279D02*
G75*
G02*
X186533236Y-109778398I-12469J-863521D01*
G01*
D11*
X203000000Y-116000000D02*
X203000000Y-93500000D01*
D10*
X179285721Y-102655469D02*
G75*
G02*
X183236103Y-96532746I6874279J-99531D01*
G01*
X146260000Y-112680000D02*
X156760000Y-112680000D01*
X132210000Y-94695000D02*
G75*
G02*
X132710000Y-94195000I500000J0D01*
G01*
X183261026Y-94981738D02*
G75*
G02*
X183236077Y-96532689I-392526J-769362D01*
G01*
X156760000Y-116180000D02*
X146260000Y-116180000D01*
X168310000Y-94695000D02*
G75*
G02*
X168810000Y-94195000I500000J0D01*
G01*
X194010895Y-101163596D02*
G75*
G02*
X195581789Y-101538239I714405J-485204D01*
G01*
X177904780Y-107456207D02*
G75*
G02*
X177885780Y-106636616I750220J427407D01*
G01*
X141260000Y-103730000D02*
X161760000Y-103730000D01*
X184943243Y-93333243D02*
G75*
G02*
X194415220Y-98053793I1216757J-9421757D01*
G01*
X132710000Y-105715000D02*
X134210000Y-105715000D01*
X194415220Y-98053793D02*
G75*
G02*
X194434139Y-98873343I-750020J-427307D01*
G01*
X134710000Y-105215000D02*
G75*
G02*
X134210000Y-105715000I-500000J0D01*
G01*
X141260000Y-101729999D02*
X161760000Y-101729999D01*
X193034279Y-102854531D02*
G75*
G02*
X189083897Y-108977254I-6874279J99531D01*
G01*
X132710000Y-105715000D02*
G75*
G02*
X132210000Y-105215000I0J500000D01*
G01*
X194010895Y-101163596D02*
X193183415Y-102381776D01*
X186060469Y-109629279D02*
G75*
G02*
X179937746Y-105678897I99531J6874279D01*
G01*
X193933262Y-99856026D02*
G75*
G02*
X192382308Y-99831078I-769362J392626D01*
G01*
X186259531Y-95880721D02*
G75*
G02*
X185786764Y-95731602I12469J863521D01*
G01*
X168310000Y-94695000D02*
X168310000Y-95036349D01*
X193034279Y-102854531D02*
G75*
G02*
X193183398Y-102381764I863521J-12469D01*
G01*
X170310000Y-94195000D02*
X168810000Y-94195000D01*
X156760000Y-112680000D02*
X156760000Y-116180000D01*
X179310000Y-110855000D02*
G75*
G02*
X176810000Y-110855000I-1250000J0D01*
G01*
X176810000Y-110855000D02*
G75*
G02*
X179310000Y-110855000I1250000J0D01*
G01*
D11*
X199000000Y-89500000D02*
X104000000Y-89500000D01*
D10*
X195635000Y-110855000D02*
G75*
G02*
X192885000Y-110855000I-1375000J0D01*
G01*
X192885000Y-110855000D02*
G75*
G02*
X195635000Y-110855000I1375000J0D01*
G01*
X179285721Y-102655469D02*
G75*
G02*
X179136602Y-103128236I-863521J12469D01*
G01*
X168810000Y-105715000D02*
X170310000Y-105715000D01*
D11*
X100000000Y-93500000D02*
X100000000Y-116000000D01*
D10*
X181458793Y-94499780D02*
G75*
G02*
X182278343Y-94480861I427307J-750020D01*
G01*
X134710000Y-105215000D02*
X134710000Y-104873651D01*
X190861207Y-111010220D02*
G75*
G02*
X190041657Y-111029139I-427307J750020D01*
G01*
X170810000Y-105215000D02*
G75*
G02*
X170310000Y-105715000I-500000J0D01*
G01*
X132210000Y-104873651D02*
G75*
G02*
X132210000Y-95036349I1250000J4918651D01*
G01*
X132210000Y-94695000D02*
X132210000Y-95036349D01*
X189058974Y-110528262D02*
G75*
G02*
X189083923Y-108977311I392526J769362D01*
G01*
X193933262Y-99856026D02*
X194434179Y-98873363D01*
X170810000Y-105215000D02*
X170810000Y-104873651D01*
D11*
X104000000Y-120000000D02*
X199000000Y-120000000D01*
D10*
X187376757Y-112176757D02*
G75*
G02*
X177904780Y-107456207I-1216757J9421757D01*
G01*
X189058974Y-110528262D02*
X190041637Y-111029179D01*
X168310000Y-104873651D02*
G75*
G02*
X168310000Y-95036349I1250000J4918651D01*
G01*
X179310000Y-94655000D02*
G75*
G02*
X176810000Y-94655000I-1250000J0D01*
G01*
X176810000Y-94655000D02*
G75*
G02*
X179310000Y-94655000I1250000J0D01*
G01*
X187751404Y-110605895D02*
X186533224Y-109778415D01*
X134210000Y-94195000D02*
G75*
G02*
X134710000Y-94695000I0J-500000D01*
G01*
X195581757Y-101538243D02*
G75*
G02*
X190861207Y-111010220I-9421757J-1216757D01*
G01*
X132210000Y-104873651D02*
X132210000Y-105215000D01*
X187751404Y-110605895D02*
G75*
G02*
X187376761Y-112176789I-485204J-714405D01*
G01*
X168310000Y-104873651D02*
X168310000Y-105215000D01*
D11*
X199000000Y-89500000D02*
G75*
G02*
X203000000Y-93500000I0J-4000000D01*
G01*
X100000000Y-93500000D02*
G75*
G02*
X104000000Y-89500000I4000000J0D01*
G01*
D10*
X134710000Y-95036349D02*
X134710000Y-94695000D01*
X178386738Y-105653974D02*
X177885821Y-106636637D01*
X184568596Y-94904105D02*
G75*
G02*
X184943239Y-93333211I485204J714405D01*
G01*
X134710000Y-95036349D02*
G75*
G02*
X134710000Y-104873651I-1250000J-4918651D01*
G01*
X178309105Y-104346404D02*
G75*
G02*
X176738211Y-103971761I-714405J485204D01*
G01*
X141260000Y-103730000D02*
X141260000Y-101729999D01*
X178386738Y-105653974D02*
G75*
G02*
X179937689Y-105678923I769362J-392526D01*
G01*
X170810000Y-95036349D02*
X170810000Y-94695000D01*
X182278363Y-94480821D02*
X183261026Y-94981738D01*
D11*
X203000000Y-116000000D02*
G75*
G02*
X199000000Y-120000000I-4000000J0D01*
G01*
D10*
X146260000Y-116180000D02*
X146260000Y-112680000D01*
X179136585Y-103128224D02*
X178309105Y-104346404D01*
X170310000Y-94195000D02*
G75*
G02*
X170810000Y-94695000I0J-500000D01*
G01*
X186259531Y-95880721D02*
G75*
G02*
X192382254Y-99831103I-99531J-6874279D01*
G01*
D11*
X104000000Y-120000000D02*
G75*
G02*
X100000000Y-116000000I0J4000000D01*
G01*
D10*
X161760000Y-103729999D02*
X161760000Y-101729999D01*
X170810000Y-95036349D02*
G75*
G02*
X170810000Y-104873651I-1250000J-4918651D01*
G01*
M02*
