%TF.GenerationSoftware,KiCad,Pcbnew,9.0.0*%
%TF.CreationDate,2025-05-19T23:18:48-04:00*%
%TF.ProjectId,TS_Back_Endcap,54535f42-6163-46b5-9f45-6e646361702e,rev?*%
%TF.SameCoordinates,Original*%
%TF.FileFunction,Soldermask,Top*%
%TF.FilePolarity,Negative*%
%FSLAX46Y46*%
G04 Gerber Fmt 4.6, Leading zero omitted, Abs format (unit mm)*
G04 Created by KiCad (PCBNEW 9.0.0) date 2025-05-19 23:18:48*
%MOMM*%
%LPD*%
G01*
G04 APERTURE LIST*
%ADD10C,0.500000*%
%ADD11C,0.252000*%
%ADD12C,5.250000*%
%ADD13C,8.000000*%
G04 APERTURE END LIST*
D10*
G36*
X142179143Y-91461793D02*
G01*
X142179143Y-93150000D01*
X141791851Y-93150000D01*
X141791851Y-91461793D01*
X141241617Y-91461793D01*
X141241617Y-91145254D01*
X142729377Y-91145254D01*
X142729377Y-91461793D01*
X142179143Y-91461793D01*
G37*
G36*
X143995257Y-93150000D02*
G01*
X143995257Y-92138971D01*
X143985510Y-92036619D01*
X143960229Y-91967101D01*
X143922737Y-91921287D01*
X143872377Y-91893743D01*
X143804702Y-91883845D01*
X143743822Y-91891861D01*
X143683631Y-91916517D01*
X143622527Y-91960232D01*
X143537368Y-92045656D01*
X143438841Y-92167960D01*
X143438841Y-93150000D01*
X143063776Y-93150000D01*
X143063776Y-90978192D01*
X143438841Y-90978192D01*
X143438841Y-91515236D01*
X143420431Y-91799214D01*
X143517152Y-91697274D01*
X143623214Y-91621436D01*
X143746175Y-91574587D01*
X143814222Y-91562699D01*
X143892217Y-91558513D01*
X144007193Y-91568828D01*
X144101182Y-91597668D01*
X144183432Y-91645055D01*
X144250246Y-91707990D01*
X144302111Y-91785336D01*
X144340235Y-91879723D01*
X144362372Y-91983685D01*
X144370185Y-92104350D01*
X144370185Y-93150000D01*
X143995257Y-93150000D01*
G37*
G36*
X145165653Y-91584891D02*
G01*
X145165653Y-92601827D01*
X145179055Y-92719527D01*
X145213327Y-92794580D01*
X145249557Y-92830148D01*
X145296526Y-92851988D01*
X145357720Y-92859839D01*
X145417545Y-92851772D01*
X145477218Y-92826834D01*
X145538383Y-92782353D01*
X145623580Y-92695799D01*
X145722069Y-92572564D01*
X145722069Y-91584891D01*
X146097135Y-91584891D01*
X146097135Y-93150000D01*
X145772765Y-93150000D01*
X145763560Y-92918915D01*
X145663680Y-93028275D01*
X145553771Y-93112081D01*
X145492313Y-93142674D01*
X145424627Y-93165936D01*
X145352541Y-93180175D01*
X145270205Y-93185170D01*
X145155230Y-93174848D01*
X145060415Y-93145878D01*
X144977635Y-93098022D01*
X144910526Y-93034183D01*
X144858739Y-92955872D01*
X144820676Y-92860938D01*
X144798539Y-92756550D01*
X144790725Y-92635349D01*
X144790725Y-91584891D01*
X145165653Y-91584891D01*
G37*
G36*
X147455201Y-93150000D02*
G01*
X147455201Y-92138971D01*
X147445454Y-92036619D01*
X147420173Y-91967101D01*
X147382681Y-91921287D01*
X147332322Y-91893743D01*
X147264646Y-91883845D01*
X147203766Y-91891861D01*
X147143575Y-91916517D01*
X147082471Y-91960232D01*
X146997312Y-92045656D01*
X146898785Y-92167960D01*
X146898785Y-93150000D01*
X146523720Y-93150000D01*
X146523720Y-91584891D01*
X146848090Y-91584891D01*
X146857295Y-91815976D01*
X146956350Y-91709776D01*
X147067771Y-91628168D01*
X147129801Y-91598465D01*
X147196914Y-91576511D01*
X147268517Y-91563227D01*
X147352161Y-91558513D01*
X147467137Y-91568828D01*
X147561126Y-91597668D01*
X147643376Y-91645055D01*
X147710191Y-91707990D01*
X147762055Y-91785336D01*
X147800179Y-91879723D01*
X147822316Y-91983685D01*
X147830129Y-92104350D01*
X147830129Y-93150000D01*
X147455201Y-93150000D01*
G37*
G36*
X149560101Y-93150000D02*
G01*
X149235869Y-93150000D01*
X149226664Y-92919465D01*
X149125135Y-93028550D01*
X149012890Y-93112218D01*
X148951063Y-93142874D01*
X148884571Y-93165936D01*
X148814109Y-93180170D01*
X148733309Y-93185170D01*
X148600589Y-93170868D01*
X148487249Y-93129804D01*
X148388710Y-93062982D01*
X148306586Y-92972084D01*
X148243554Y-92861656D01*
X148195165Y-92723551D01*
X148166847Y-92572435D01*
X148156834Y-92397258D01*
X148157717Y-92380085D01*
X148550310Y-92380085D01*
X148555092Y-92503759D01*
X148567895Y-92599354D01*
X148590923Y-92685033D01*
X148620239Y-92748281D01*
X148659767Y-92799443D01*
X148705557Y-92833186D01*
X148758866Y-92852976D01*
X148820824Y-92859839D01*
X148881677Y-92851807D01*
X148941593Y-92827138D01*
X149002174Y-92783452D01*
X149086686Y-92697820D01*
X149185173Y-92574075D01*
X149185173Y-91895660D01*
X149075264Y-91868183D01*
X148943785Y-91857466D01*
X148856582Y-91866893D01*
X148780844Y-91894149D01*
X148714106Y-91938205D01*
X148657059Y-91998150D01*
X148612463Y-92070973D01*
X148577924Y-92162327D01*
X148557534Y-92262769D01*
X148550310Y-92380085D01*
X148157717Y-92380085D01*
X148164172Y-92254466D01*
X148184917Y-92130950D01*
X148217559Y-92024116D01*
X148291280Y-91877768D01*
X148385858Y-91762395D01*
X148502788Y-91672380D01*
X148640985Y-91608522D01*
X148792940Y-91571354D01*
X148962332Y-91558513D01*
X149079798Y-91566207D01*
X149185173Y-91586128D01*
X149185173Y-90978192D01*
X149560101Y-90978192D01*
X149560101Y-93150000D01*
G37*
G36*
X150821359Y-91571941D02*
G01*
X150954987Y-91609758D01*
X151073383Y-91671922D01*
X151168624Y-91752778D01*
X151243819Y-91852478D01*
X151299278Y-91971635D01*
X151332440Y-92102673D01*
X151343929Y-92249980D01*
X151341593Y-92349448D01*
X151334724Y-92464166D01*
X150308034Y-92464166D01*
X150316298Y-92563464D01*
X150339495Y-92645928D01*
X150378011Y-92718786D01*
X150428659Y-92777682D01*
X150491382Y-92823974D01*
X150567008Y-92858465D01*
X150650497Y-92879031D01*
X150746022Y-92886217D01*
X150861532Y-92881751D01*
X150989609Y-92867670D01*
X151120218Y-92843660D01*
X151259436Y-92807083D01*
X151259436Y-93106036D01*
X151128781Y-93137772D01*
X150984251Y-93162914D01*
X150835186Y-93179538D01*
X150689144Y-93185170D01*
X150516605Y-93171979D01*
X150369446Y-93134612D01*
X150237733Y-93071212D01*
X150129706Y-92985136D01*
X150043807Y-92876099D01*
X149978993Y-92740587D01*
X149940560Y-92588048D01*
X149926786Y-92403303D01*
X149940323Y-92218637D01*
X149946819Y-92191591D01*
X150314079Y-92191591D01*
X150962818Y-92191591D01*
X150957448Y-92105212D01*
X150939737Y-92035245D01*
X150910053Y-91973333D01*
X150872830Y-91925198D01*
X150827091Y-91887379D01*
X150774461Y-91860901D01*
X150716834Y-91845233D01*
X150653836Y-91839881D01*
X150563360Y-91850554D01*
X150487051Y-91881192D01*
X150421653Y-91931930D01*
X150371231Y-91998482D01*
X150334946Y-92083517D01*
X150314079Y-92191591D01*
X149946819Y-92191591D01*
X149978993Y-92057639D01*
X150043102Y-91911217D01*
X150126546Y-91790834D01*
X150231825Y-91692502D01*
X150357905Y-91619101D01*
X150499602Y-91574106D01*
X150661530Y-91558513D01*
X150821359Y-91571941D01*
G37*
G36*
X152718894Y-92191591D02*
G01*
X152718077Y-92109960D01*
X152710376Y-92047472D01*
X152694824Y-91991501D01*
X152673556Y-91949378D01*
X152644793Y-91915542D01*
X152611183Y-91892912D01*
X152572470Y-91879685D01*
X152526827Y-91875052D01*
X152445637Y-91890699D01*
X152355369Y-91942646D01*
X152269302Y-92024491D01*
X152160967Y-92165212D01*
X152160967Y-93150000D01*
X151776697Y-93150000D01*
X151776697Y-91584891D01*
X152116316Y-91584891D01*
X152130192Y-91822295D01*
X152217021Y-91713760D01*
X152324594Y-91630641D01*
X152386414Y-91600100D01*
X152456073Y-91577198D01*
X152530364Y-91563352D01*
X152614343Y-91558513D01*
X152728241Y-91569011D01*
X152824132Y-91598767D01*
X152908259Y-91648663D01*
X152977868Y-91718019D01*
X153030852Y-91804458D01*
X153070054Y-91916130D01*
X153090975Y-92040226D01*
X153095471Y-92191591D01*
X152718894Y-92191591D01*
G37*
G36*
X154797691Y-92543575D02*
G01*
X154781769Y-92700575D01*
X154736966Y-92829202D01*
X154664085Y-92939910D01*
X154567156Y-93029374D01*
X154449983Y-93097186D01*
X154307358Y-93146840D01*
X154152688Y-93175253D01*
X153978454Y-93185170D01*
X153821677Y-93180531D01*
X153672632Y-93166898D01*
X153526066Y-93142595D01*
X153380548Y-93106036D01*
X153380548Y-92736741D01*
X153528101Y-92781254D01*
X153682661Y-92817661D01*
X153837083Y-92842116D01*
X153986148Y-92851046D01*
X154089727Y-92846034D01*
X154169147Y-92832636D01*
X154239907Y-92809663D01*
X154292108Y-92781803D01*
X154333880Y-92745724D01*
X154361213Y-92705004D01*
X154377281Y-92658551D01*
X154382783Y-92606498D01*
X154371882Y-92537868D01*
X154340468Y-92482988D01*
X154292871Y-92437072D01*
X154229047Y-92394785D01*
X154071465Y-92325680D01*
X153891626Y-92259597D01*
X153711787Y-92179775D01*
X153627900Y-92129678D01*
X153554204Y-92069316D01*
X153492153Y-91997519D01*
X153442784Y-91912009D01*
X153411828Y-91814740D01*
X153400606Y-91691778D01*
X153411443Y-91576235D01*
X153443608Y-91467701D01*
X153498408Y-91369190D01*
X153578797Y-91282778D01*
X153680814Y-91213528D01*
X153815514Y-91156932D01*
X153968254Y-91122725D01*
X154164476Y-91110083D01*
X154289635Y-91116128D01*
X154418778Y-91131516D01*
X154541739Y-91153910D01*
X154650137Y-91180425D01*
X154650137Y-91523342D01*
X154542564Y-91488171D01*
X154421938Y-91460282D01*
X154296642Y-91441872D01*
X154176841Y-91435415D01*
X154080723Y-91439807D01*
X154007718Y-91451489D01*
X153942553Y-91471370D01*
X153893962Y-91495727D01*
X153855002Y-91527759D01*
X153829390Y-91565108D01*
X153814568Y-91607945D01*
X153809469Y-91656470D01*
X153820057Y-91715107D01*
X153851646Y-91764730D01*
X153899139Y-91806406D01*
X153963891Y-91846063D01*
X154122161Y-91913520D01*
X154303511Y-91981114D01*
X154484861Y-92063271D01*
X154569053Y-92114525D01*
X154643268Y-92175242D01*
X154706042Y-92246861D01*
X154755376Y-92331038D01*
X154786532Y-92426162D01*
X154797691Y-92543575D01*
G37*
G36*
X156436988Y-93088450D02*
G01*
X156324554Y-93127399D01*
X156207964Y-93154808D01*
X156088045Y-93170890D01*
X155960531Y-93176378D01*
X155780429Y-93163171D01*
X155626956Y-93125819D01*
X155489231Y-93062218D01*
X155376363Y-92975656D01*
X155286436Y-92865551D01*
X155218918Y-92728910D01*
X155178738Y-92574763D01*
X155164375Y-92388740D01*
X155179657Y-92207676D01*
X155223452Y-92050082D01*
X155295475Y-91908317D01*
X155390239Y-91791109D01*
X155507827Y-91696719D01*
X155649213Y-91625558D01*
X155806408Y-91582367D01*
X155986634Y-91567306D01*
X156132860Y-91572097D01*
X156242586Y-91584754D01*
X156429294Y-91628855D01*
X156429294Y-91989357D01*
X156330882Y-91948746D01*
X156222527Y-91917916D01*
X156112199Y-91898744D01*
X156011226Y-91892637D01*
X155910339Y-91901758D01*
X155823694Y-91927808D01*
X155746704Y-91970119D01*
X155683834Y-92025490D01*
X155634268Y-92093688D01*
X155597006Y-92177302D01*
X155574777Y-92269449D01*
X155567056Y-92373353D01*
X155575468Y-92481159D01*
X155599341Y-92573388D01*
X155638867Y-92656091D01*
X155690704Y-92723689D01*
X155755489Y-92777916D01*
X155832899Y-92818211D01*
X155919149Y-92842580D01*
X156017409Y-92851046D01*
X156121136Y-92843902D01*
X156230221Y-92823294D01*
X156337794Y-92792382D01*
X156436988Y-92754326D01*
X156436988Y-93088450D01*
G37*
G36*
X157739835Y-91571951D02*
G01*
X157882707Y-91609896D01*
X158009851Y-91674217D01*
X158114753Y-91762532D01*
X158197600Y-91873796D01*
X158259970Y-92013125D01*
X158296766Y-92169442D01*
X158309979Y-92358790D01*
X158296465Y-92537650D01*
X158257635Y-92695387D01*
X158193022Y-92838497D01*
X158107059Y-92956834D01*
X157998340Y-93052814D01*
X157865671Y-93125407D01*
X157716170Y-93169603D01*
X157539927Y-93185170D01*
X157372081Y-93171971D01*
X157229433Y-93134612D01*
X157102332Y-93071035D01*
X156997387Y-92983624D01*
X156914475Y-92872733D01*
X156851346Y-92732207D01*
X156814089Y-92573870D01*
X156800650Y-92380222D01*
X156801352Y-92371017D01*
X157190965Y-92371017D01*
X157203733Y-92530472D01*
X157237881Y-92649310D01*
X157289334Y-92736878D01*
X157362413Y-92804834D01*
X157450490Y-92845576D01*
X157558337Y-92859839D01*
X157647683Y-92850079D01*
X157721140Y-92822470D01*
X157783794Y-92777777D01*
X157833385Y-92718606D01*
X157870467Y-92647726D01*
X157897957Y-92561985D01*
X157913980Y-92469800D01*
X157919526Y-92367995D01*
X157907545Y-92209082D01*
X157875656Y-92091336D01*
X157828027Y-92005294D01*
X157759071Y-91938917D01*
X157671192Y-91898345D01*
X157558337Y-91883845D01*
X157464938Y-91893928D01*
X157390725Y-91922038D01*
X157327833Y-91967215D01*
X157276969Y-92026727D01*
X157238925Y-92097403D01*
X157211711Y-92181699D01*
X157196282Y-92272151D01*
X157190965Y-92371017D01*
X156801352Y-92371017D01*
X156814385Y-92200193D01*
X156853681Y-92043076D01*
X156919119Y-91900861D01*
X157005768Y-91783965D01*
X157115065Y-91689216D01*
X157247843Y-91617589D01*
X157397053Y-91573840D01*
X157570702Y-91558513D01*
X157739835Y-91571951D01*
G37*
G36*
X159594674Y-91572786D02*
G01*
X159707888Y-91613743D01*
X159806402Y-91680196D01*
X159888414Y-91770775D01*
X159951561Y-91880571D01*
X159999834Y-92017384D01*
X160028216Y-92167270D01*
X160038303Y-92342991D01*
X160030957Y-92485140D01*
X160010205Y-92607863D01*
X159977578Y-92713797D01*
X159903765Y-92858607D01*
X159808455Y-92973458D01*
X159690994Y-93063038D01*
X159552641Y-93126644D01*
X159400714Y-93163609D01*
X159231431Y-93176378D01*
X159114652Y-93168684D01*
X159008590Y-93148763D01*
X159008590Y-93756699D01*
X158633525Y-93756699D01*
X158633525Y-92166037D01*
X159008590Y-92166037D01*
X159008590Y-92839506D01*
X159118362Y-92866846D01*
X159251352Y-92877424D01*
X159337355Y-92868121D01*
X159413468Y-92841017D01*
X159480893Y-92797216D01*
X159537941Y-92737840D01*
X159582627Y-92665442D01*
X159617075Y-92574762D01*
X159637571Y-92475029D01*
X159644827Y-92358653D01*
X159639810Y-92235907D01*
X159626418Y-92141719D01*
X159602889Y-92057288D01*
X159573386Y-91994578D01*
X159533996Y-91943760D01*
X159488756Y-91910360D01*
X159436161Y-91890696D01*
X159374313Y-91883845D01*
X159313492Y-91891807D01*
X159253341Y-91916294D01*
X159192276Y-91959682D01*
X159107106Y-92044532D01*
X159008590Y-92166037D01*
X158633525Y-92166037D01*
X158633525Y-91584891D01*
X158957894Y-91584891D01*
X158967099Y-91815976D01*
X159066155Y-91709776D01*
X159177575Y-91628168D01*
X159239606Y-91598465D01*
X159306719Y-91576511D01*
X159378322Y-91563227D01*
X159461966Y-91558513D01*
X159594674Y-91572786D01*
G37*
G36*
X161201192Y-91571941D02*
G01*
X161334820Y-91609758D01*
X161453216Y-91671922D01*
X161548456Y-91752778D01*
X161623652Y-91852478D01*
X161679111Y-91971635D01*
X161712272Y-92102673D01*
X161723761Y-92249980D01*
X161721426Y-92349448D01*
X161714556Y-92464166D01*
X160687866Y-92464166D01*
X160696130Y-92563464D01*
X160719328Y-92645928D01*
X160757844Y-92718786D01*
X160808492Y-92777682D01*
X160871215Y-92823974D01*
X160946840Y-92858465D01*
X161030329Y-92879031D01*
X161125855Y-92886217D01*
X161241365Y-92881751D01*
X161369441Y-92867670D01*
X161500050Y-92843660D01*
X161639269Y-92807083D01*
X161639269Y-93106036D01*
X161508614Y-93137772D01*
X161364083Y-93162914D01*
X161215019Y-93179538D01*
X161068977Y-93185170D01*
X160896437Y-93171979D01*
X160749278Y-93134612D01*
X160617565Y-93071212D01*
X160509539Y-92985136D01*
X160423640Y-92876099D01*
X160358825Y-92740587D01*
X160320393Y-92588048D01*
X160306619Y-92403303D01*
X160320155Y-92218637D01*
X160326651Y-92191591D01*
X160693911Y-92191591D01*
X161342651Y-92191591D01*
X161337280Y-92105212D01*
X161319570Y-92035245D01*
X161289885Y-91973333D01*
X161252663Y-91925198D01*
X161206924Y-91887379D01*
X161154294Y-91860901D01*
X161096666Y-91845233D01*
X161033668Y-91839881D01*
X160943193Y-91850554D01*
X160866883Y-91881192D01*
X160801485Y-91931930D01*
X160751064Y-91998482D01*
X160714779Y-92083517D01*
X160693911Y-92191591D01*
X160326651Y-92191591D01*
X160358825Y-92057639D01*
X160422935Y-91911217D01*
X160506379Y-91790834D01*
X160611657Y-91692502D01*
X160737738Y-91619101D01*
X160879435Y-91574106D01*
X161041362Y-91558513D01*
X161201192Y-91571941D01*
G37*
D11*
G36*
X131978269Y-108378336D02*
G01*
X131965885Y-108500447D01*
X131931039Y-108600490D01*
X131874354Y-108686596D01*
X131798964Y-108756180D01*
X131707830Y-108808922D01*
X131596899Y-108847542D01*
X131476601Y-108869641D01*
X131341085Y-108877355D01*
X131219148Y-108873746D01*
X131103223Y-108863143D01*
X130989228Y-108844240D01*
X130876047Y-108815806D01*
X130876047Y-108528576D01*
X130990811Y-108563197D01*
X131111024Y-108591514D01*
X131231130Y-108610535D01*
X131347069Y-108617480D01*
X131427631Y-108613582D01*
X131489402Y-108603162D01*
X131544437Y-108585293D01*
X131585038Y-108563625D01*
X131617528Y-108535563D01*
X131638787Y-108503892D01*
X131651284Y-108467762D01*
X131655563Y-108427276D01*
X131647085Y-108373897D01*
X131622652Y-108331212D01*
X131585632Y-108295501D01*
X131535991Y-108262611D01*
X131413427Y-108208862D01*
X131273552Y-108157464D01*
X131133677Y-108095381D01*
X131068432Y-108056416D01*
X131011113Y-108009468D01*
X130962851Y-107953626D01*
X130924453Y-107887118D01*
X130900376Y-107811464D01*
X130891648Y-107715827D01*
X130900076Y-107625960D01*
X130925094Y-107541545D01*
X130967716Y-107464925D01*
X131030241Y-107397716D01*
X131109588Y-107343855D01*
X131214354Y-107299836D01*
X131333152Y-107273230D01*
X131485769Y-107263398D01*
X131583115Y-107268100D01*
X131683560Y-107280068D01*
X131779196Y-107297485D01*
X131863506Y-107318108D01*
X131863506Y-107584822D01*
X131779837Y-107557466D01*
X131686017Y-107535775D01*
X131588564Y-107521456D01*
X131495386Y-107516434D01*
X131420627Y-107519850D01*
X131363846Y-107528936D01*
X131313162Y-107544399D01*
X131275369Y-107563343D01*
X131245067Y-107588257D01*
X131225146Y-107617306D01*
X131213618Y-107650624D01*
X131209652Y-107688365D01*
X131217887Y-107733972D01*
X131242457Y-107772568D01*
X131279396Y-107804982D01*
X131329759Y-107835827D01*
X131452857Y-107888293D01*
X131593907Y-107940867D01*
X131734957Y-108004767D01*
X131800440Y-108044630D01*
X131858163Y-108091854D01*
X131906987Y-108147558D01*
X131945357Y-108213029D01*
X131969590Y-108287014D01*
X131978269Y-108378336D01*
G37*
G36*
X132923306Y-108297660D02*
G01*
X132923306Y-108850000D01*
X132624536Y-108850000D01*
X132624536Y-108300010D01*
X132116434Y-107290753D01*
X132442773Y-107290753D01*
X132672300Y-107772675D01*
X132777554Y-108008934D01*
X132882700Y-107765515D01*
X133123020Y-107290753D01*
X133436216Y-107290753D01*
X132923306Y-108297660D01*
G37*
G36*
X134334663Y-108850000D02*
G01*
X133916214Y-107919495D01*
X133830195Y-107719033D01*
X133830195Y-108365620D01*
X133830195Y-108850000D01*
X133562413Y-108850000D01*
X133562413Y-107290753D01*
X133923373Y-107290753D01*
X134350157Y-108227241D01*
X134425491Y-108409752D01*
X134425491Y-107721384D01*
X134425491Y-107290753D01*
X134693273Y-107290753D01*
X134693273Y-108850000D01*
X134334663Y-108850000D01*
G37*
G36*
X135995743Y-108781612D02*
G01*
X135891786Y-108821444D01*
X135794319Y-108848610D01*
X135695571Y-108864971D01*
X135591720Y-108870516D01*
X135480115Y-108864614D01*
X135381206Y-108847735D01*
X135293377Y-108820828D01*
X135210661Y-108781900D01*
X135138069Y-108732751D01*
X135074536Y-108673046D01*
X135021041Y-108604032D01*
X134975953Y-108523414D01*
X134939469Y-108429627D01*
X134914752Y-108331635D01*
X134899055Y-108219572D01*
X134893521Y-108091534D01*
X134899497Y-107960500D01*
X134916582Y-107843980D01*
X134943744Y-107740297D01*
X134983040Y-107640891D01*
X135030909Y-107554842D01*
X135087145Y-107480637D01*
X135153651Y-107415678D01*
X135228851Y-107361981D01*
X135313680Y-107319070D01*
X135404153Y-107288679D01*
X135503534Y-107269891D01*
X135613198Y-107263398D01*
X135714177Y-107265749D01*
X135806822Y-107274511D01*
X135898825Y-107291287D01*
X135995743Y-107318108D01*
X135995743Y-107612177D01*
X135894314Y-107570240D01*
X135802013Y-107543682D01*
X135711722Y-107528079D01*
X135634676Y-107523272D01*
X135528854Y-107533876D01*
X135444579Y-107563343D01*
X135372712Y-107611380D01*
X135314855Y-107675543D01*
X135271501Y-107753045D01*
X135240163Y-107847474D01*
X135222524Y-107949971D01*
X135216334Y-108066530D01*
X135222788Y-108189408D01*
X135240804Y-108292744D01*
X135272920Y-108386671D01*
X135316779Y-108461684D01*
X135375178Y-108522598D01*
X135448212Y-108567365D01*
X135533132Y-108594172D01*
X135638309Y-108603803D01*
X135723794Y-108595895D01*
X135816973Y-108574952D01*
X135910258Y-108544284D01*
X135995743Y-108508060D01*
X135995743Y-108781612D01*
G37*
G36*
X131128335Y-112049874D02*
G01*
X130845059Y-112049874D01*
X131679392Y-110100816D01*
X131963950Y-110100816D01*
X131128335Y-112049874D01*
G37*
G36*
X133445726Y-111790000D02*
G01*
X133120562Y-111790000D01*
X133034543Y-111482254D01*
X132489363Y-111482254D01*
X132400992Y-111790000D01*
X132109275Y-111790000D01*
X132271584Y-111242896D01*
X132559888Y-111242896D01*
X132968827Y-111242896D01*
X132765586Y-110511999D01*
X132559888Y-111242896D01*
X132271584Y-111242896D01*
X132571856Y-110230753D01*
X132983145Y-110230753D01*
X133445726Y-111790000D01*
G37*
G36*
X134692097Y-111216075D02*
G01*
X134681507Y-111359822D01*
X134652026Y-111477979D01*
X134602440Y-111582739D01*
X134537262Y-111665939D01*
X134455177Y-111731296D01*
X134354966Y-111779207D01*
X134243194Y-111807434D01*
X134113471Y-111817355D01*
X133968926Y-111807117D01*
X133855199Y-111779207D01*
X133756094Y-111731654D01*
X133680596Y-111669466D01*
X133623464Y-111591053D01*
X133583784Y-111495290D01*
X133561766Y-111389038D01*
X133553971Y-111265015D01*
X133553971Y-110230753D01*
X133848040Y-110230753D01*
X133848040Y-111249307D01*
X133851671Y-111325834D01*
X133861717Y-111389182D01*
X133880988Y-111446349D01*
X133909589Y-111492512D01*
X133947878Y-111529630D01*
X133995074Y-111556519D01*
X134050262Y-111572148D01*
X134124263Y-111577997D01*
X134193951Y-111572995D01*
X134247361Y-111559511D01*
X134293433Y-111535223D01*
X134331030Y-111499671D01*
X134359637Y-111454115D01*
X134381252Y-111393883D01*
X134393470Y-111325799D01*
X134398029Y-111237339D01*
X134398029Y-110230753D01*
X134692097Y-110230753D01*
X134692097Y-111216075D01*
G37*
G36*
X135757881Y-111790000D02*
G01*
X135456654Y-111216181D01*
X135160128Y-111790000D01*
X134805151Y-111790000D01*
X135283974Y-110989326D01*
X134834964Y-110230753D01*
X135180430Y-110230753D01*
X135463813Y-110768561D01*
X135737579Y-110230753D01*
X136083045Y-110230753D01*
X135638630Y-110981525D01*
X136132092Y-111790000D01*
X135757881Y-111790000D01*
G37*
G36*
X166249007Y-107296550D02*
G01*
X166357349Y-107312872D01*
X166456783Y-107343129D01*
X166536654Y-107386390D01*
X166602171Y-107445342D01*
X166650883Y-107520174D01*
X166680243Y-107608406D01*
X166690954Y-107722025D01*
X166684379Y-107805048D01*
X166665843Y-107874936D01*
X166635316Y-107937717D01*
X166595211Y-107990234D01*
X166545778Y-108033715D01*
X166487073Y-108068453D01*
X166422143Y-108093605D01*
X166350190Y-108110234D01*
X166403798Y-108131878D01*
X166455336Y-108176057D01*
X166500473Y-108236894D01*
X166551080Y-108329503D01*
X166800909Y-108850000D01*
X166455443Y-108850000D01*
X166235426Y-108350874D01*
X166197344Y-108287291D01*
X166148766Y-108243377D01*
X166089301Y-108216499D01*
X166017867Y-108207152D01*
X165961660Y-108207152D01*
X165961660Y-108850000D01*
X165667592Y-108850000D01*
X165667592Y-107974633D01*
X165961660Y-107974633D01*
X166081233Y-107974633D01*
X166147524Y-107970923D01*
X166204865Y-107960421D01*
X166257470Y-107942209D01*
X166299967Y-107917786D01*
X166335018Y-107885736D01*
X166360875Y-107847154D01*
X166376870Y-107802788D01*
X166382460Y-107750449D01*
X166373434Y-107678260D01*
X166348824Y-107625336D01*
X166309478Y-107586745D01*
X166258252Y-107561009D01*
X166187298Y-107543554D01*
X166090743Y-107536950D01*
X165961660Y-107536950D01*
X165961660Y-107974633D01*
X165667592Y-107974633D01*
X165667592Y-107290753D01*
X166123120Y-107290753D01*
X166249007Y-107296550D01*
G37*
G36*
X167078949Y-108850000D02*
G01*
X167078949Y-107290753D01*
X168019712Y-107290753D01*
X168019712Y-107536950D01*
X167377719Y-107536950D01*
X167377719Y-107926762D01*
X167989792Y-107926762D01*
X167989792Y-108166120D01*
X167377719Y-108166120D01*
X167377719Y-108603803D01*
X168019712Y-108603803D01*
X168019712Y-108850000D01*
X167078949Y-108850000D01*
G37*
G36*
X168723253Y-107536950D02*
G01*
X168723253Y-107974633D01*
X169313848Y-107974633D01*
X169313848Y-108213991D01*
X168723253Y-108213991D01*
X168723253Y-108850000D01*
X168424483Y-108850000D01*
X168424483Y-107290753D01*
X169347294Y-107290753D01*
X169347294Y-107536950D01*
X168723253Y-107536950D01*
G37*
G36*
X170750209Y-108781612D02*
G01*
X170646252Y-108821444D01*
X170548785Y-108848610D01*
X170450037Y-108864971D01*
X170346186Y-108870516D01*
X170234581Y-108864614D01*
X170135672Y-108847735D01*
X170047843Y-108820828D01*
X169965127Y-108781900D01*
X169892535Y-108732751D01*
X169829002Y-108673046D01*
X169775507Y-108604032D01*
X169730419Y-108523414D01*
X169693935Y-108429627D01*
X169669218Y-108331635D01*
X169653521Y-108219572D01*
X169647987Y-108091534D01*
X169653963Y-107960500D01*
X169671048Y-107843980D01*
X169698210Y-107740297D01*
X169737506Y-107640891D01*
X169785375Y-107554842D01*
X169841611Y-107480637D01*
X169908117Y-107415678D01*
X169983317Y-107361981D01*
X170068146Y-107319070D01*
X170158619Y-107288679D01*
X170258000Y-107269891D01*
X170367664Y-107263398D01*
X170468643Y-107265749D01*
X170561288Y-107274511D01*
X170653291Y-107291287D01*
X170750209Y-107318108D01*
X170750209Y-107612177D01*
X170648780Y-107570240D01*
X170556479Y-107543682D01*
X170466188Y-107528079D01*
X170389142Y-107523272D01*
X170283320Y-107533876D01*
X170199045Y-107563343D01*
X170127178Y-107611380D01*
X170069321Y-107675543D01*
X170025967Y-107753045D01*
X169994629Y-107847474D01*
X169976990Y-107949971D01*
X169970800Y-108066530D01*
X169977254Y-108189408D01*
X169995270Y-108292744D01*
X170027386Y-108386671D01*
X170071245Y-108461684D01*
X170129644Y-108522598D01*
X170202678Y-108567365D01*
X170287598Y-108594172D01*
X170392775Y-108603803D01*
X170478260Y-108595895D01*
X170571439Y-108574952D01*
X170664724Y-108544284D01*
X170750209Y-108508060D01*
X170750209Y-108781612D01*
G37*
G36*
X171131045Y-108850000D02*
G01*
X171131045Y-107290753D01*
X171429922Y-107290753D01*
X171429922Y-108596964D01*
X172089759Y-108596964D01*
X172089759Y-108850000D01*
X171131045Y-108850000D01*
G37*
G36*
X173163985Y-108850000D02*
G01*
X172694138Y-108096022D01*
X172694138Y-108850000D01*
X172395261Y-108850000D01*
X172395261Y-107290753D01*
X172694138Y-107290753D01*
X172694138Y-108004873D01*
X173161527Y-107290753D01*
X173516611Y-107290753D01*
X172985856Y-108035648D01*
X173544073Y-108850000D01*
X173163985Y-108850000D01*
G37*
G36*
X165692703Y-110470111D02*
G01*
X165692703Y-110230753D01*
X166680162Y-110230753D01*
X166680162Y-110470111D01*
X166335871Y-110470111D01*
X166335871Y-111550642D01*
X166680162Y-111550642D01*
X166680162Y-111790000D01*
X165692703Y-111790000D01*
X165692703Y-111550642D01*
X166036994Y-111550642D01*
X166036994Y-110470111D01*
X165692703Y-110470111D01*
G37*
G36*
X167743595Y-111790000D02*
G01*
X167325146Y-110859495D01*
X167239127Y-110659033D01*
X167239127Y-111305620D01*
X167239127Y-111790000D01*
X166971345Y-111790000D01*
X166971345Y-110230753D01*
X167332306Y-110230753D01*
X167759089Y-111167241D01*
X167834423Y-111349752D01*
X167834423Y-110661384D01*
X167834423Y-110230753D01*
X168102205Y-110230753D01*
X168102205Y-111790000D01*
X167743595Y-111790000D01*
G37*
G36*
X168573868Y-112049874D02*
G01*
X168290592Y-112049874D01*
X169124926Y-110100816D01*
X169409484Y-110100816D01*
X168573868Y-112049874D01*
G37*
G36*
X170356068Y-110212512D02*
G01*
X170461496Y-110238322D01*
X170551906Y-110279390D01*
X170629671Y-110335486D01*
X170696354Y-110407600D01*
X170759876Y-110511870D01*
X170808501Y-110642077D01*
X170840277Y-110803694D01*
X170851830Y-111003217D01*
X170845761Y-111144615D01*
X170828709Y-111265928D01*
X170802142Y-111369734D01*
X170763461Y-111469564D01*
X170717907Y-111553216D01*
X170665900Y-111622769D01*
X170604219Y-111683602D01*
X170536686Y-111732272D01*
X170462659Y-111769590D01*
X170342925Y-111805260D01*
X170213470Y-111817355D01*
X170090036Y-111808223D01*
X169984612Y-111782360D01*
X169894176Y-111741195D01*
X169816360Y-111684950D01*
X169749608Y-111612618D01*
X169686073Y-111508032D01*
X169637483Y-111377747D01*
X169605761Y-111216377D01*
X169594239Y-111017536D01*
X169594852Y-111003217D01*
X169905083Y-111003217D01*
X169915220Y-111187596D01*
X169941685Y-111320986D01*
X169979776Y-111415041D01*
X170023054Y-111474429D01*
X170076514Y-111515935D01*
X170142025Y-111541541D01*
X170223088Y-111550642D01*
X170303597Y-111541443D01*
X170368305Y-111515593D01*
X170422460Y-111472953D01*
X170466827Y-111412583D01*
X170499059Y-111339664D01*
X170523033Y-111245460D01*
X170536206Y-111142424D01*
X170540985Y-111017536D01*
X170530914Y-110833116D01*
X170504631Y-110699768D01*
X170466827Y-110605819D01*
X170423833Y-110546457D01*
X170370436Y-110504920D01*
X170304716Y-110479250D01*
X170223088Y-110470111D01*
X170142585Y-110479358D01*
X170078404Y-110505267D01*
X170024628Y-110547741D01*
X169979776Y-110608169D01*
X169947142Y-110681143D01*
X169923035Y-110775399D01*
X169909864Y-110878341D01*
X169905083Y-111003217D01*
X169594852Y-111003217D01*
X169600294Y-110876132D01*
X169617310Y-110754820D01*
X169643820Y-110651019D01*
X169682563Y-110551186D01*
X169728152Y-110467533D01*
X169780168Y-110397983D01*
X169841846Y-110337144D01*
X169909344Y-110288475D01*
X169983302Y-110251163D01*
X170103128Y-110215491D01*
X170232598Y-110203398D01*
X170356068Y-110212512D01*
G37*
G36*
X172137631Y-111216075D02*
G01*
X172127040Y-111359822D01*
X172097560Y-111477979D01*
X172047974Y-111582739D01*
X171982796Y-111665939D01*
X171900711Y-111731296D01*
X171800499Y-111779207D01*
X171688728Y-111807434D01*
X171559004Y-111817355D01*
X171414460Y-111807117D01*
X171300733Y-111779207D01*
X171201628Y-111731654D01*
X171126130Y-111669466D01*
X171068998Y-111591053D01*
X171029318Y-111495290D01*
X171007300Y-111389038D01*
X170999505Y-111265015D01*
X170999505Y-110230753D01*
X171293573Y-110230753D01*
X171293573Y-111249307D01*
X171297204Y-111325834D01*
X171307251Y-111389182D01*
X171326521Y-111446349D01*
X171355123Y-111492512D01*
X171393411Y-111529630D01*
X171440608Y-111556519D01*
X171495795Y-111572148D01*
X171569797Y-111577997D01*
X171639485Y-111572995D01*
X171692895Y-111559511D01*
X171738967Y-111535223D01*
X171776564Y-111499671D01*
X171805171Y-111454115D01*
X171826786Y-111393883D01*
X171839003Y-111325799D01*
X171843562Y-111237339D01*
X171843562Y-110230753D01*
X172137631Y-110230753D01*
X172137631Y-111216075D01*
G37*
G36*
X173064716Y-110476950D02*
G01*
X173064716Y-111790000D01*
X172763488Y-111790000D01*
X172763488Y-110476950D01*
X172335529Y-110476950D01*
X172335529Y-110230753D01*
X173492675Y-110230753D01*
X173492675Y-110476950D01*
X173064716Y-110476950D01*
G37*
D12*
%TO.C,H1*%
X104000000Y-116000000D03*
%TD*%
D13*
%TO.C,H5*%
X115160000Y-99375000D03*
%TD*%
D12*
%TO.C,H4*%
X104000000Y-93500000D03*
%TD*%
%TO.C,H3*%
X199000000Y-93500000D03*
%TD*%
%TO.C,H2*%
X199000000Y-116000000D03*
%TD*%
M02*
