G04 #@! TF.FileFunction,Copper,L3,Inr,Signal*
%FSLAX46Y46*%
G04 Gerber Fmt 4.6, Leading zero omitted, Abs format (unit mm)*
G04 Created by KiCad (PCBNEW 4.0.7) date 07/13/18 19:56:19*
%MOMM*%
%LPD*%
G01*
G04 APERTURE LIST*
%ADD10C,0.100000*%
%ADD11O,2.200000X2.200000*%
%ADD12R,1.700000X1.700000*%
%ADD13O,1.700000X1.700000*%
%ADD14C,4.500000*%
%ADD15C,0.457200*%
%ADD16C,0.254000*%
%ADD17C,0.127000*%
G04 APERTURE END LIST*
D10*
D11*
X140660000Y-109728000D03*
X159060000Y-109728000D03*
X162185000Y-107353000D03*
X162185000Y-112103000D03*
X137535000Y-112103000D03*
X137535000Y-107353000D03*
X180650000Y-93472000D03*
X162250000Y-93472000D03*
X159125000Y-95847000D03*
X159125000Y-91097000D03*
X183775000Y-91097000D03*
X183775000Y-95847000D03*
X223830000Y-93472000D03*
X205430000Y-93472000D03*
X202305000Y-95847000D03*
X202305000Y-91097000D03*
X226955000Y-91097000D03*
X226955000Y-95847000D03*
D12*
X131445000Y-109220000D03*
D13*
X131445000Y-111760000D03*
X128905000Y-109220000D03*
X128905000Y-111760000D03*
X126365000Y-109220000D03*
X126365000Y-111760000D03*
X123825000Y-109220000D03*
X123825000Y-111760000D03*
X121285000Y-109220000D03*
X121285000Y-111760000D03*
D11*
X137470000Y-93472000D03*
X119070000Y-93472000D03*
X115945000Y-95847000D03*
X115945000Y-91097000D03*
X140595000Y-91097000D03*
X140595000Y-95847000D03*
X94290000Y-93472000D03*
X75890000Y-93472000D03*
X72765000Y-95847000D03*
X72765000Y-91097000D03*
X97415000Y-91097000D03*
X97415000Y-95847000D03*
D14*
X67310000Y-110490000D03*
X232410000Y-110490000D03*
X67310000Y-92710000D03*
X232410000Y-92710000D03*
D12*
X195072000Y-111760000D03*
D13*
X192532000Y-111760000D03*
X189992000Y-111760000D03*
D12*
X168148000Y-111760000D03*
D13*
X170688000Y-111760000D03*
X173228000Y-111760000D03*
D15*
X183896000Y-109728000D03*
X185166000Y-109728000D03*
X190500000Y-109220000D03*
X179070000Y-108712000D03*
X175260000Y-108712000D03*
X176530000Y-108712000D03*
X177800000Y-108712000D03*
X193040000Y-109220000D03*
X132080000Y-92710000D03*
X129540000Y-92710000D03*
X215900000Y-92075000D03*
X218440000Y-92710000D03*
X218440000Y-95250000D03*
X219710000Y-93980000D03*
X220980000Y-95250000D03*
X168275000Y-98425000D03*
X170815000Y-98425000D03*
X179705000Y-98425000D03*
X173355000Y-98425000D03*
X174625000Y-98425000D03*
X86360000Y-94615000D03*
X87630000Y-93345000D03*
X89535000Y-93091000D03*
X91440000Y-93091000D03*
X145415000Y-100330000D03*
X145415000Y-98044000D03*
X180848000Y-112903000D03*
X181864000Y-112903000D03*
X180975000Y-108712000D03*
X181991000Y-108712000D03*
X181483000Y-109601000D03*
X180975000Y-110490000D03*
X181991000Y-110490000D03*
X189230000Y-107315000D03*
X186690000Y-107315000D03*
X187325000Y-108585000D03*
X186055000Y-108585000D03*
X188595000Y-109855000D03*
X188595000Y-108585000D03*
X205740000Y-106680000D03*
X195580000Y-107315000D03*
X200660000Y-107315000D03*
X191770000Y-107315000D03*
X167640000Y-109220000D03*
X173990000Y-107315000D03*
X171450000Y-107315000D03*
X168910000Y-107315000D03*
X166370000Y-107315000D03*
X205740000Y-98425000D03*
X201930000Y-101600000D03*
X200025000Y-103505000D03*
X198120000Y-105410000D03*
X195580000Y-105410000D03*
X193040000Y-105410000D03*
X190500000Y-105410000D03*
X187960000Y-105410000D03*
X185420000Y-105410000D03*
X182880000Y-105410000D03*
X180340000Y-105410000D03*
X177800000Y-105410000D03*
X175260000Y-105410000D03*
X172720000Y-105410000D03*
X170180000Y-105410000D03*
X167640000Y-105410000D03*
X165100000Y-105410000D03*
X177038000Y-92964000D03*
X174244000Y-92964000D03*
X172720000Y-92075000D03*
X171450000Y-93345000D03*
X168910000Y-93345000D03*
X166370000Y-93345000D03*
X165100000Y-94615000D03*
X167640000Y-94615000D03*
X170180000Y-94615000D03*
X172720000Y-94615000D03*
X158115000Y-102870000D03*
X160655000Y-102870000D03*
X163195000Y-102870000D03*
X162560000Y-96520000D03*
X156845000Y-98425000D03*
X158750000Y-98425000D03*
X160655000Y-98425000D03*
X162560000Y-98425000D03*
X200025000Y-95885000D03*
X197485000Y-95885000D03*
X194945000Y-95885000D03*
X192405000Y-95885000D03*
X189865000Y-95885000D03*
X187325000Y-95885000D03*
X224155000Y-90805000D03*
X221615000Y-92710000D03*
X210820000Y-95250000D03*
X213360000Y-95250000D03*
X215900000Y-95250000D03*
X152654000Y-103632000D03*
X153035000Y-102235000D03*
X130175000Y-100330000D03*
X132715000Y-100330000D03*
X135255000Y-100330000D03*
X137795000Y-100330000D03*
X140335000Y-100330000D03*
X142875000Y-100330000D03*
X151765000Y-101600000D03*
X197485000Y-101600000D03*
X185928000Y-98425000D03*
X188595000Y-98425000D03*
X191135000Y-98425000D03*
X193675000Y-98425000D03*
X194945000Y-101600000D03*
X200660000Y-98425000D03*
X196215000Y-102870000D03*
X193675000Y-102870000D03*
X191135000Y-102870000D03*
X188595000Y-102870000D03*
X186055000Y-102870000D03*
X183515000Y-102870000D03*
X180975000Y-102870000D03*
X178435000Y-102870000D03*
X175895000Y-102870000D03*
X173355000Y-102870000D03*
X170815000Y-102870000D03*
X168275000Y-102870000D03*
X155448000Y-103632000D03*
X160020000Y-113030000D03*
X160020000Y-106680000D03*
X148590000Y-107950000D03*
X151130000Y-107950000D03*
X153670000Y-107950000D03*
X156210000Y-107950000D03*
X154940000Y-110490000D03*
X152400000Y-110490000D03*
X149860000Y-110490000D03*
X147320000Y-110490000D03*
X71120000Y-99060000D03*
X210820000Y-106680000D03*
X233680000Y-104140000D03*
X233680000Y-99060000D03*
X213360000Y-99060000D03*
X215900000Y-101600000D03*
X213360000Y-104140000D03*
X218440000Y-104140000D03*
X223520000Y-104140000D03*
X226060000Y-101600000D03*
X228600000Y-99060000D03*
X228600000Y-104140000D03*
X104775000Y-102108000D03*
X107315000Y-102108000D03*
X109855000Y-102108000D03*
X99060000Y-102616000D03*
X96520000Y-100330000D03*
X100965000Y-104521000D03*
X102235000Y-102108000D03*
X100330000Y-100330000D03*
X102235000Y-100330000D03*
X104775000Y-100330000D03*
X107315000Y-100330000D03*
X109855000Y-100330000D03*
X116840000Y-100330000D03*
X119380000Y-99695000D03*
X124460000Y-99695000D03*
X127000000Y-99695000D03*
X103505000Y-104521000D03*
X106045000Y-104521000D03*
X108585000Y-104521000D03*
X111125000Y-104521000D03*
X113665000Y-104521000D03*
X116205000Y-104521000D03*
X118745000Y-104521000D03*
X126365000Y-104521000D03*
X128905000Y-104521000D03*
X131445000Y-104521000D03*
X133985000Y-104521000D03*
X96520000Y-104521000D03*
X139065000Y-104521000D03*
X136525000Y-104521000D03*
X78740000Y-94615000D03*
X86995000Y-92075000D03*
X85725000Y-93345000D03*
X83185000Y-93345000D03*
X84455000Y-94615000D03*
X66040000Y-99060000D03*
X76200000Y-99060000D03*
X149860000Y-95504000D03*
X150114000Y-97409000D03*
X149860000Y-93726000D03*
X148971000Y-92837000D03*
X149860000Y-92075000D03*
X150749000Y-92964000D03*
X151638000Y-93726000D03*
X150749000Y-94615000D03*
X148971000Y-94615000D03*
X148082000Y-93726000D03*
X150114000Y-103632000D03*
X148844000Y-102616000D03*
X205740000Y-101600000D03*
X210820000Y-101600000D03*
X71120000Y-104140000D03*
X76200000Y-104140000D03*
X86360000Y-104521000D03*
X91440000Y-104521000D03*
X66040000Y-104140000D03*
X93980000Y-99060000D03*
X231140000Y-96520000D03*
X231140000Y-101600000D03*
X231140000Y-106680000D03*
X215900000Y-106680000D03*
X220980000Y-106680000D03*
X226060000Y-106680000D03*
X228600000Y-109220000D03*
X223520000Y-109220000D03*
X218440000Y-109220000D03*
X213360000Y-109220000D03*
X208280000Y-109220000D03*
X203200000Y-109220000D03*
X198120000Y-109220000D03*
X200660000Y-111760000D03*
X205740000Y-111760000D03*
X210820000Y-111760000D03*
X215900000Y-111760000D03*
X220980000Y-111760000D03*
X226060000Y-111760000D03*
X104140000Y-93980000D03*
X111760000Y-96520000D03*
X106680000Y-96520000D03*
X101600000Y-96520000D03*
X101600000Y-91440000D03*
X109220000Y-93980000D03*
X68580000Y-101600000D03*
X83820000Y-101600000D03*
X73660000Y-101600000D03*
X68580000Y-96520000D03*
X68580000Y-106680000D03*
X78740000Y-106680000D03*
X73660000Y-106680000D03*
X116840000Y-109220000D03*
X111760000Y-109220000D03*
X106680000Y-109220000D03*
X101600000Y-109220000D03*
X96520000Y-109220000D03*
X91440000Y-109220000D03*
X86360000Y-109220000D03*
X81280000Y-109220000D03*
X76200000Y-109220000D03*
X71120000Y-109220000D03*
X187960000Y-91440000D03*
X193040000Y-91440000D03*
X198120000Y-91440000D03*
X106680000Y-91440000D03*
X111760000Y-91440000D03*
X73660000Y-111760000D03*
X78740000Y-111760000D03*
X83820000Y-111760000D03*
X88900000Y-111760000D03*
X93980000Y-111760000D03*
X99060000Y-111760000D03*
X104140000Y-111760000D03*
X109220000Y-111760000D03*
X114300000Y-111760000D03*
X99568000Y-96520000D03*
X89535000Y-98933000D03*
X146304000Y-110490000D03*
X146304000Y-109728000D03*
X145415000Y-110490000D03*
X145415000Y-109728000D03*
X142113000Y-94869000D03*
X211201000Y-92202000D03*
X212344000Y-92202000D03*
X169164000Y-92202000D03*
X168021000Y-92202000D03*
X81661000Y-92202000D03*
X82804000Y-92202000D03*
X125984000Y-92202000D03*
X124841000Y-92202000D03*
X185928000Y-96774000D03*
X175895000Y-98425000D03*
X208597500Y-98425000D03*
X208597500Y-102997000D03*
X144653000Y-111125000D03*
X128651000Y-98425000D03*
X85471000Y-98425000D03*
X171831000Y-98425000D03*
X147066000Y-107950000D03*
X215011000Y-98425000D03*
X144653000Y-104902000D03*
X80708500Y-98425000D03*
X123888500Y-98425000D03*
X210185000Y-98425000D03*
X167005000Y-100584000D03*
X143827500Y-104902000D03*
X79883000Y-98425000D03*
X123063000Y-98425000D03*
X209423000Y-98425000D03*
X166243000Y-100076000D03*
X142240000Y-104902000D03*
X154686000Y-97409000D03*
X154686000Y-99060000D03*
X163830000Y-99060000D03*
X77470000Y-98425000D03*
X120650000Y-98425000D03*
X207010000Y-98425000D03*
X143065500Y-104902000D03*
X153543000Y-96266000D03*
X153543000Y-99568000D03*
X78295500Y-98425000D03*
X121475500Y-98425000D03*
X207772000Y-98425000D03*
X164592000Y-99568000D03*
X165481000Y-98425000D03*
X165481000Y-102997000D03*
X143891000Y-111125000D03*
X122237500Y-98425000D03*
X79121000Y-98425000D03*
X213614000Y-92202000D03*
X214376000Y-92202000D03*
X170434000Y-92202000D03*
X171196000Y-92202000D03*
X84074000Y-92202000D03*
X84836000Y-92202000D03*
X127254000Y-92202000D03*
X128016000Y-92202000D03*
X80645000Y-92202000D03*
X145923000Y-92964000D03*
X79883000Y-92202000D03*
X146304000Y-93599000D03*
X79057500Y-92202000D03*
X146304000Y-94996000D03*
X146685000Y-95885000D03*
X78232000Y-92202000D03*
X77470000Y-92202000D03*
X147447000Y-95885000D03*
X143383000Y-91440000D03*
X123825000Y-92202000D03*
X147828000Y-91338400D03*
X123063000Y-92202000D03*
X146558000Y-91440000D03*
X122301000Y-92202000D03*
X145923000Y-91948000D03*
X121412000Y-92202000D03*
X145415000Y-92456000D03*
X120650000Y-92202000D03*
X153543000Y-93154500D03*
X210185000Y-92202000D03*
X154305000Y-93154500D03*
X209423000Y-92202000D03*
X208661000Y-92202000D03*
X155003500Y-93154500D03*
X155702000Y-93154500D03*
X207772000Y-92202000D03*
X206248000Y-89789000D03*
X151968200Y-91389200D03*
D16*
X176530000Y-108712000D02*
X177800000Y-108712000D01*
X208597500Y-102997000D02*
X205676500Y-105918000D01*
X144653000Y-108585000D02*
X144653000Y-109982000D01*
X147320000Y-105918000D02*
X144653000Y-108585000D01*
X203073000Y-105918000D02*
X147320000Y-105918000D01*
X144653000Y-109982000D02*
X144653000Y-111125000D01*
X203835000Y-105918000D02*
X203073000Y-105918000D01*
X205676500Y-105918000D02*
X203835000Y-105918000D01*
X135636000Y-110109000D02*
X137922000Y-110109000D01*
X137922000Y-110109000D02*
X139954000Y-112141000D01*
X139954000Y-112141000D02*
X143637000Y-112141000D01*
X135636000Y-110109000D02*
X133985000Y-111760000D01*
X133985000Y-111760000D02*
X131445000Y-111760000D01*
X144653000Y-111125000D02*
X143637000Y-112141000D01*
D17*
X131445000Y-111760000D02*
X131445002Y-111760000D01*
D16*
X144653000Y-104902000D02*
X148971000Y-100584000D01*
X167005000Y-100584000D02*
X149606000Y-100584000D01*
X148971000Y-100584000D02*
X149606000Y-100584000D01*
X123888500Y-98425000D02*
X123888500Y-104203500D01*
X123888500Y-104203500D02*
X128905000Y-109220000D01*
X167005000Y-100584000D02*
X208026000Y-100584000D01*
X208026000Y-100584000D02*
X210185000Y-98425000D01*
X143827500Y-104902000D02*
X148653500Y-100076000D01*
X166243000Y-100076000D02*
X149352000Y-100076000D01*
X148653500Y-100076000D02*
X149352000Y-100076000D01*
X123063000Y-98425000D02*
X123063000Y-105918000D01*
X123063000Y-105918000D02*
X126365000Y-109220000D01*
X166243000Y-100076000D02*
X207772000Y-100076000D01*
X207772000Y-100076000D02*
X209423000Y-98425000D01*
X148844000Y-99060000D02*
X148082000Y-99060000D01*
X163068000Y-99060000D02*
X148844000Y-99060000D01*
X148082000Y-99060000D02*
X142240000Y-104902000D01*
X163830000Y-99060000D02*
X154686000Y-99060000D01*
X163830000Y-99060000D02*
X163322000Y-99060000D01*
X163322000Y-99060000D02*
X163068000Y-99060000D01*
X120650000Y-98425000D02*
X120650000Y-108585000D01*
X120650000Y-108585000D02*
X121285000Y-109220000D01*
D17*
X121221500Y-109220000D02*
X121285000Y-109220000D01*
D16*
X163068000Y-99060000D02*
X163830000Y-99060000D01*
X163830000Y-99060000D02*
X206375000Y-99060000D01*
X206375000Y-99060000D02*
X207010000Y-98425000D01*
X149098000Y-99568000D02*
X148399500Y-99568000D01*
X164592000Y-99568000D02*
X149098000Y-99568000D01*
X148399500Y-99568000D02*
X143065500Y-104902000D01*
X164592000Y-99568000D02*
X153543000Y-99568000D01*
X121475500Y-98425000D02*
X121475500Y-106870500D01*
X121475500Y-106870500D02*
X123825000Y-109220000D01*
X164592000Y-99568000D02*
X206629000Y-99568000D01*
X206629000Y-99568000D02*
X207772000Y-98425000D01*
X165481000Y-102997000D02*
X163068000Y-105410000D01*
X163068000Y-105410000D02*
X146812000Y-105410000D01*
X140208000Y-111633000D02*
X138176000Y-109601000D01*
X134493000Y-110490000D02*
X135382000Y-109601000D01*
X135382000Y-109601000D02*
X138176000Y-109601000D01*
X143383000Y-111633000D02*
X140208000Y-111633000D01*
X128905000Y-111760000D02*
X130175000Y-110490000D01*
X143383000Y-111633000D02*
X143891000Y-111125000D01*
X130175000Y-110490000D02*
X134493000Y-110490000D01*
X143891000Y-109982000D02*
X143891000Y-111125000D01*
X143891000Y-108331000D02*
X143891000Y-109982000D01*
X146812000Y-105410000D02*
X143891000Y-108331000D01*
X122237500Y-98425000D02*
X122237500Y-105854500D01*
X122237500Y-105854500D02*
X125095000Y-108712000D01*
X125095000Y-108712000D02*
X125095000Y-110490000D01*
X125095000Y-110490000D02*
X126365000Y-111760000D01*
X141478000Y-97409000D02*
X139700000Y-97409000D01*
X116459000Y-97409000D02*
X113030000Y-97409000D01*
X139700000Y-97409000D02*
X139446000Y-97409000D01*
X139446000Y-97409000D02*
X138176000Y-96139000D01*
X138176000Y-96139000D02*
X137668000Y-95631000D01*
X137668000Y-95631000D02*
X137541000Y-95504000D01*
X137541000Y-95504000D02*
X118745000Y-95504000D01*
X118745000Y-95504000D02*
X116840000Y-97409000D01*
X116840000Y-97409000D02*
X116459000Y-97409000D01*
X80772000Y-92329000D02*
X80645000Y-92202000D01*
X83947000Y-95504000D02*
X80772000Y-92329000D01*
X94996000Y-95504000D02*
X83947000Y-95504000D01*
X95504000Y-96012000D02*
X94996000Y-95504000D01*
X96901000Y-97409000D02*
X95504000Y-96012000D01*
X113030000Y-97409000D02*
X96901000Y-97409000D01*
X141478000Y-97409000D02*
X145923000Y-92964000D01*
X145923000Y-92964000D02*
X145923000Y-92964000D01*
X144907000Y-94996000D02*
X146304000Y-93599000D01*
X141986000Y-97917000D02*
X139192000Y-97917000D01*
X139192000Y-97917000D02*
X137414000Y-96139000D01*
X137414000Y-96139000D02*
X137287000Y-96012000D01*
X137287000Y-96012000D02*
X118999000Y-96012000D01*
X118999000Y-96012000D02*
X117094000Y-97917000D01*
X117094000Y-97917000D02*
X96647000Y-97917000D01*
X96647000Y-97917000D02*
X95504000Y-96774000D01*
X95504000Y-96774000D02*
X94996000Y-96266000D01*
X94996000Y-96266000D02*
X94869000Y-96139000D01*
X94869000Y-96139000D02*
X94742000Y-96012000D01*
X94742000Y-96012000D02*
X83693000Y-96012000D01*
X83693000Y-96012000D02*
X79883000Y-92202000D01*
X144907000Y-94996000D02*
X141986000Y-97917000D01*
X146304000Y-94996000D02*
X142875000Y-98425000D01*
X96393000Y-98425000D02*
X94488000Y-96520000D01*
X117348000Y-98425000D02*
X119253000Y-96520000D01*
X119253000Y-96520000D02*
X137033000Y-96520000D01*
X96393000Y-98425000D02*
X117348000Y-98425000D01*
X137033000Y-96520000D02*
X138938000Y-98425000D01*
X79121000Y-92329000D02*
X79121000Y-92202000D01*
X83312000Y-96520000D02*
X79121000Y-92329000D01*
X94488000Y-96520000D02*
X83312000Y-96520000D01*
X142875000Y-98425000D02*
X138938000Y-98425000D01*
X96139000Y-98933000D02*
X117602000Y-98933000D01*
X119507000Y-97028000D02*
X136779000Y-97028000D01*
X136779000Y-97028000D02*
X138684000Y-98933000D01*
X138684000Y-98933000D02*
X143637000Y-98933000D01*
X143637000Y-98933000D02*
X146685000Y-95885000D01*
X117602000Y-98933000D02*
X119507000Y-97028000D01*
X78994000Y-92964000D02*
X78232000Y-92202000D01*
X80391000Y-94361000D02*
X78994000Y-92964000D01*
X82296000Y-96266000D02*
X80391000Y-94361000D01*
X83058000Y-97028000D02*
X82296000Y-96266000D01*
X94234000Y-97028000D02*
X83058000Y-97028000D01*
X96139000Y-98933000D02*
X94234000Y-97028000D01*
X93980000Y-97536000D02*
X82804000Y-97536000D01*
X82804000Y-97536000D02*
X77470000Y-92202000D01*
X117856000Y-99441000D02*
X95885000Y-99441000D01*
X144907000Y-99441000D02*
X138430000Y-99441000D01*
X117856000Y-99441000D02*
X119761000Y-97536000D01*
X138430000Y-99441000D02*
X136525000Y-97536000D01*
X136525000Y-97536000D02*
X119761000Y-97536000D01*
X147447000Y-96901000D02*
X144907000Y-99441000D01*
X147447000Y-95885000D02*
X147447000Y-96901000D01*
X95885000Y-99441000D02*
X93980000Y-97536000D01*
X141478000Y-89535000D02*
X143383000Y-91440000D01*
X141478000Y-89535000D02*
X137033000Y-89535000D01*
X126492000Y-89535000D02*
X123825000Y-92202000D01*
X137033000Y-89535000D02*
X126492000Y-89535000D01*
X141478000Y-92583000D02*
X140208000Y-92583000D01*
X147447000Y-90932000D02*
X144653000Y-90932000D01*
X144653000Y-90932000D02*
X143256000Y-92329000D01*
X143256000Y-92329000D02*
X143002000Y-92583000D01*
X143002000Y-92583000D02*
X141478000Y-92583000D01*
X147828000Y-91338400D02*
X147447000Y-90932000D01*
X124333000Y-93472000D02*
X123063000Y-92202000D01*
X133858000Y-93472000D02*
X124333000Y-93472000D01*
X134493000Y-92837000D02*
X133858000Y-93472000D01*
X136398000Y-90932000D02*
X134493000Y-92837000D01*
X138303000Y-90932000D02*
X136398000Y-90932000D01*
X138430000Y-91059000D02*
X138303000Y-90932000D01*
X138557000Y-91186000D02*
X138430000Y-91059000D01*
X139065000Y-91694000D02*
X138557000Y-91186000D01*
X139954000Y-92583000D02*
X139065000Y-91694000D01*
X140208000Y-92583000D02*
X139954000Y-92583000D01*
X138176000Y-91440000D02*
X139827000Y-93091000D01*
X146558000Y-91440000D02*
X145161000Y-91440000D01*
X124079000Y-93980000D02*
X122301000Y-92202000D01*
X134112000Y-93980000D02*
X124079000Y-93980000D01*
X134239000Y-93853000D02*
X134112000Y-93980000D01*
X136652000Y-91440000D02*
X134239000Y-93853000D01*
X138176000Y-91440000D02*
X136652000Y-91440000D01*
X144907000Y-91440000D02*
X143256000Y-93091000D01*
X145161000Y-91440000D02*
X144907000Y-91440000D01*
X139827000Y-93091000D02*
X143256000Y-93091000D01*
X137985500Y-91948000D02*
X139636500Y-93599000D01*
X145923000Y-91948000D02*
X145288000Y-91948000D01*
X123698000Y-94488000D02*
X121412000Y-92202000D01*
X134366000Y-94488000D02*
X123698000Y-94488000D01*
X137985500Y-91948000D02*
X136906000Y-91948000D01*
X143510000Y-93599000D02*
X139636500Y-93599000D01*
X144145000Y-92964000D02*
X143510000Y-93599000D01*
X145161000Y-91948000D02*
X144145000Y-92964000D01*
X145288000Y-91948000D02*
X145161000Y-91948000D01*
X134366000Y-94488000D02*
X136906000Y-91948000D01*
X145415000Y-92456000D02*
X143764000Y-94107000D01*
X123444000Y-94996000D02*
X120650000Y-92202000D01*
X136779000Y-94996000D02*
X123444000Y-94996000D01*
X138684000Y-94996000D02*
X136779000Y-94996000D01*
X139573000Y-94107000D02*
X138684000Y-94996000D01*
X143764000Y-94107000D02*
X139573000Y-94107000D01*
X157797500Y-97409000D02*
X153543000Y-93154500D01*
X210185000Y-93726000D02*
X206502000Y-97409000D01*
X210185000Y-93726000D02*
X210185000Y-92202000D01*
X206502000Y-97409000D02*
X157797500Y-97409000D01*
X155511500Y-94361000D02*
X154305000Y-93154500D01*
X209423000Y-92202000D02*
X209423000Y-93218000D01*
X157099000Y-94361000D02*
X155511500Y-94361000D01*
X160020000Y-94361000D02*
X157099000Y-94361000D01*
X161417000Y-95758000D02*
X160020000Y-94361000D01*
X176276000Y-95758000D02*
X161417000Y-95758000D01*
X180086000Y-91948000D02*
X176276000Y-95758000D01*
X181165500Y-91948000D02*
X180086000Y-91948000D01*
X202882500Y-94361000D02*
X183578500Y-94361000D01*
X206629000Y-96012000D02*
X204533500Y-96012000D01*
X209423000Y-93218000D02*
X206629000Y-96012000D01*
X204533500Y-96012000D02*
X202882500Y-94361000D01*
X183578500Y-94361000D02*
X181165500Y-91948000D01*
X155575000Y-93726000D02*
X155003500Y-93154500D01*
X206375000Y-95504000D02*
X208661000Y-93218000D01*
X203073000Y-93853000D02*
X183769000Y-93853000D01*
X181356000Y-91440000D02*
X179832000Y-91440000D01*
X179832000Y-91440000D02*
X178308000Y-92964000D01*
X178308000Y-92964000D02*
X176149000Y-95123000D01*
X176149000Y-95123000D02*
X176022000Y-95250000D01*
X176022000Y-95250000D02*
X161671000Y-95250000D01*
X208661000Y-92202000D02*
X208661000Y-92837000D01*
X206375000Y-95504000D02*
X204724000Y-95504000D01*
X208661000Y-92837000D02*
X208661000Y-93218000D01*
X204724000Y-95504000D02*
X203073000Y-93853000D01*
X160147000Y-93726000D02*
X155575000Y-93726000D01*
X160147000Y-93726000D02*
X161671000Y-95250000D01*
X181356000Y-91440000D02*
X183769000Y-93853000D01*
X160147000Y-92837000D02*
X159829500Y-93154500D01*
X181483000Y-90932000D02*
X179959000Y-90932000D01*
X184023000Y-93345000D02*
X183896000Y-93345000D01*
X183896000Y-93345000D02*
X181610000Y-91059000D01*
X181610000Y-91059000D02*
X181483000Y-90932000D01*
X205105000Y-94996000D02*
X204978000Y-94996000D01*
X207772000Y-92202000D02*
X207772000Y-93218000D01*
X206121000Y-94996000D02*
X205359000Y-94996000D01*
X207772000Y-93345000D02*
X206121000Y-94996000D01*
X207772000Y-93218000D02*
X207772000Y-93345000D01*
X205105000Y-94996000D02*
X205359000Y-94996000D01*
X203200000Y-93345000D02*
X184277000Y-93345000D01*
X203962000Y-94107000D02*
X203200000Y-93345000D01*
X204851000Y-94996000D02*
X203962000Y-94107000D01*
X204978000Y-94996000D02*
X204851000Y-94996000D01*
X184277000Y-93345000D02*
X184023000Y-93345000D01*
X162052000Y-90932000D02*
X160147000Y-92837000D01*
X179959000Y-90932000D02*
X162052000Y-90932000D01*
X155702000Y-93154500D02*
X159829500Y-93154500D01*
X151968200Y-91389200D02*
X154101800Y-91389200D01*
X154432000Y-91389200D02*
X156311600Y-89509600D01*
X156311600Y-89509600D02*
X156311600Y-89535000D01*
X206248000Y-89789000D02*
X205994000Y-89535000D01*
X156311600Y-89535000D02*
X205994000Y-89535000D01*
X154101800Y-91389200D02*
X154432000Y-91389200D01*
G36*
X123716275Y-91592304D02*
X123704275Y-91592294D01*
X123480140Y-91684905D01*
X123444088Y-91720894D01*
X123408762Y-91685507D01*
X123184789Y-91592506D01*
X122942275Y-91592294D01*
X122718140Y-91684905D01*
X122682088Y-91720894D01*
X122646762Y-91685507D01*
X122422789Y-91592506D01*
X122180275Y-91592294D01*
X121956140Y-91684905D01*
X121856476Y-91784394D01*
X121757762Y-91685507D01*
X121533789Y-91592506D01*
X121291275Y-91592294D01*
X121067140Y-91684905D01*
X121031088Y-91720894D01*
X120995762Y-91685507D01*
X120771789Y-91592506D01*
X120529275Y-91592294D01*
X120305140Y-91684905D01*
X120133507Y-91856238D01*
X120040506Y-92080211D01*
X120040294Y-92322725D01*
X120132905Y-92546860D01*
X120304238Y-92718493D01*
X120528211Y-92811494D01*
X120541085Y-92811505D01*
X122725580Y-94996000D01*
X118745000Y-94996000D01*
X118550597Y-95034669D01*
X118385790Y-95144790D01*
X116629580Y-96901000D01*
X100049193Y-96901000D01*
X100084493Y-96865762D01*
X100177494Y-96641789D01*
X100177706Y-96399275D01*
X100085095Y-96175140D01*
X99913762Y-96003507D01*
X99689789Y-95910506D01*
X99447275Y-95910294D01*
X99223140Y-96002905D01*
X99051507Y-96174238D01*
X98958506Y-96398211D01*
X98958294Y-96640725D01*
X99050905Y-96864860D01*
X99086982Y-96901000D01*
X97111420Y-96901000D01*
X95863212Y-95652792D01*
X95863210Y-95652789D01*
X95355210Y-95144790D01*
X95190403Y-95034669D01*
X94996000Y-94996000D01*
X84157420Y-94996000D01*
X81917164Y-92755744D01*
X82005860Y-92719095D01*
X82177493Y-92547762D01*
X82232521Y-92415240D01*
X82286905Y-92546860D01*
X82458238Y-92718493D01*
X82682211Y-92811494D01*
X82924725Y-92811706D01*
X83148860Y-92719095D01*
X83320493Y-92547762D01*
X83413494Y-92323789D01*
X83413494Y-92322725D01*
X83464294Y-92322725D01*
X83556905Y-92546860D01*
X83728238Y-92718493D01*
X83952211Y-92811494D01*
X84194725Y-92811706D01*
X84418860Y-92719095D01*
X84454912Y-92683106D01*
X84490238Y-92718493D01*
X84714211Y-92811494D01*
X84956725Y-92811706D01*
X85180860Y-92719095D01*
X85352493Y-92547762D01*
X85445494Y-92323789D01*
X85445706Y-92081275D01*
X85353095Y-91857140D01*
X85181762Y-91685507D01*
X84957789Y-91592506D01*
X84715275Y-91592294D01*
X84491140Y-91684905D01*
X84455088Y-91720894D01*
X84419762Y-91685507D01*
X84195789Y-91592506D01*
X83953275Y-91592294D01*
X83729140Y-91684905D01*
X83557507Y-91856238D01*
X83464506Y-92080211D01*
X83464294Y-92322725D01*
X83413494Y-92322725D01*
X83413706Y-92081275D01*
X83321095Y-91857140D01*
X83149762Y-91685507D01*
X82925789Y-91592506D01*
X82683275Y-91592294D01*
X82459140Y-91684905D01*
X82287507Y-91856238D01*
X82232479Y-91988760D01*
X82178095Y-91857140D01*
X82006762Y-91685507D01*
X81782789Y-91592506D01*
X81540275Y-91592294D01*
X81316140Y-91684905D01*
X81152865Y-91847894D01*
X80990762Y-91685507D01*
X80766789Y-91592506D01*
X80524275Y-91592294D01*
X80300140Y-91684905D01*
X80264088Y-91720894D01*
X80228762Y-91685507D01*
X80004789Y-91592506D01*
X79762275Y-91592294D01*
X79538140Y-91684905D01*
X79470282Y-91752644D01*
X79403262Y-91685507D01*
X79179289Y-91592506D01*
X78936775Y-91592294D01*
X78712640Y-91684905D01*
X78644782Y-91752644D01*
X78577762Y-91685507D01*
X78353789Y-91592506D01*
X78111275Y-91592294D01*
X77887140Y-91684905D01*
X77851088Y-91720894D01*
X77815762Y-91685507D01*
X77591789Y-91592506D01*
X77349275Y-91592294D01*
X77125140Y-91684905D01*
X76953507Y-91856238D01*
X76860506Y-92080211D01*
X76860294Y-92322725D01*
X76952905Y-92546860D01*
X77124238Y-92718493D01*
X77348211Y-92811494D01*
X77361085Y-92811505D01*
X82444790Y-97895210D01*
X82609596Y-98005331D01*
X82804000Y-98044000D01*
X84989807Y-98044000D01*
X84954507Y-98079238D01*
X84861506Y-98303211D01*
X84861294Y-98545725D01*
X84953905Y-98769860D01*
X85125238Y-98941493D01*
X85349211Y-99034494D01*
X85591725Y-99034706D01*
X85815860Y-98942095D01*
X85987493Y-98770762D01*
X86080494Y-98546789D01*
X86080706Y-98304275D01*
X85988095Y-98080140D01*
X85952018Y-98044000D01*
X93769580Y-98044000D01*
X95525790Y-99800210D01*
X95690597Y-99910331D01*
X95885000Y-99949000D01*
X117856000Y-99949000D01*
X118050403Y-99910331D01*
X118215210Y-99800210D01*
X119971420Y-98044000D01*
X120168807Y-98044000D01*
X120133507Y-98079238D01*
X120040506Y-98303211D01*
X120040294Y-98545725D01*
X120132905Y-98769860D01*
X120142000Y-98778971D01*
X120142000Y-108585000D01*
X120164737Y-108699308D01*
X120147704Y-108724800D01*
X120054000Y-109195883D01*
X120054000Y-109244117D01*
X120147704Y-109715200D01*
X120414552Y-110114565D01*
X120813917Y-110381413D01*
X121285000Y-110475117D01*
X121756083Y-110381413D01*
X122155448Y-110114565D01*
X122422296Y-109715200D01*
X122516000Y-109244117D01*
X122516000Y-109195883D01*
X122422296Y-108724800D01*
X122155448Y-108325435D01*
X121756083Y-108058587D01*
X121285000Y-107964883D01*
X121158000Y-107990145D01*
X121158000Y-107271420D01*
X122675041Y-108788461D01*
X122594000Y-109195883D01*
X122594000Y-109244117D01*
X122687704Y-109715200D01*
X122954552Y-110114565D01*
X123353917Y-110381413D01*
X123825000Y-110475117D01*
X124296083Y-110381413D01*
X124587000Y-110187028D01*
X124587000Y-110490000D01*
X124625669Y-110684403D01*
X124735790Y-110849210D01*
X125215041Y-111328461D01*
X125134000Y-111735883D01*
X125134000Y-111784117D01*
X125227704Y-112255200D01*
X125494552Y-112654565D01*
X125893917Y-112921413D01*
X126365000Y-113015117D01*
X126836083Y-112921413D01*
X127235448Y-112654565D01*
X127502296Y-112255200D01*
X127596000Y-111784117D01*
X127596000Y-111735883D01*
X127674000Y-111735883D01*
X127674000Y-111784117D01*
X127767704Y-112255200D01*
X128034552Y-112654565D01*
X128433917Y-112921413D01*
X128905000Y-113015117D01*
X129376083Y-112921413D01*
X129775448Y-112654565D01*
X130042296Y-112255200D01*
X130136000Y-111784117D01*
X130136000Y-111735883D01*
X130054959Y-111328461D01*
X130385420Y-110998000D01*
X130485975Y-110998000D01*
X130307704Y-111264800D01*
X130214000Y-111735883D01*
X130214000Y-111784117D01*
X130307704Y-112255200D01*
X130574552Y-112654565D01*
X130973917Y-112921413D01*
X131445000Y-113015117D01*
X131916083Y-112921413D01*
X132315448Y-112654565D01*
X132573743Y-112268000D01*
X133985000Y-112268000D01*
X134179403Y-112229331D01*
X134344210Y-112119210D01*
X135846421Y-110617000D01*
X137711580Y-110617000D01*
X139594790Y-112500210D01*
X139759597Y-112610331D01*
X139954000Y-112649000D01*
X143637000Y-112649000D01*
X143831403Y-112610331D01*
X143996210Y-112500210D01*
X144760537Y-111735883D01*
X169457000Y-111735883D01*
X169457000Y-111784117D01*
X169550704Y-112255200D01*
X169817552Y-112654565D01*
X170216917Y-112921413D01*
X170688000Y-113015117D01*
X171159083Y-112921413D01*
X171558448Y-112654565D01*
X171825296Y-112255200D01*
X171919000Y-111784117D01*
X171919000Y-111735883D01*
X171997000Y-111735883D01*
X171997000Y-111784117D01*
X172090704Y-112255200D01*
X172357552Y-112654565D01*
X172756917Y-112921413D01*
X173228000Y-113015117D01*
X173699083Y-112921413D01*
X174098448Y-112654565D01*
X174365296Y-112255200D01*
X174459000Y-111784117D01*
X174459000Y-111735883D01*
X188761000Y-111735883D01*
X188761000Y-111784117D01*
X188854704Y-112255200D01*
X189121552Y-112654565D01*
X189520917Y-112921413D01*
X189992000Y-113015117D01*
X190463083Y-112921413D01*
X190862448Y-112654565D01*
X191129296Y-112255200D01*
X191223000Y-111784117D01*
X191223000Y-111735883D01*
X191301000Y-111735883D01*
X191301000Y-111784117D01*
X191394704Y-112255200D01*
X191661552Y-112654565D01*
X192060917Y-112921413D01*
X192532000Y-113015117D01*
X193003083Y-112921413D01*
X193402448Y-112654565D01*
X193669296Y-112255200D01*
X193763000Y-111784117D01*
X193763000Y-111735883D01*
X193669296Y-111264800D01*
X193402448Y-110865435D01*
X193003083Y-110598587D01*
X192532000Y-110504883D01*
X192060917Y-110598587D01*
X191661552Y-110865435D01*
X191394704Y-111264800D01*
X191301000Y-111735883D01*
X191223000Y-111735883D01*
X191129296Y-111264800D01*
X190862448Y-110865435D01*
X190463083Y-110598587D01*
X189992000Y-110504883D01*
X189520917Y-110598587D01*
X189121552Y-110865435D01*
X188854704Y-111264800D01*
X188761000Y-111735883D01*
X174459000Y-111735883D01*
X174365296Y-111264800D01*
X174098448Y-110865435D01*
X173699083Y-110598587D01*
X173228000Y-110504883D01*
X172756917Y-110598587D01*
X172357552Y-110865435D01*
X172090704Y-111264800D01*
X171997000Y-111735883D01*
X171919000Y-111735883D01*
X171825296Y-111264800D01*
X171558448Y-110865435D01*
X171159083Y-110598587D01*
X170688000Y-110504883D01*
X170216917Y-110598587D01*
X169817552Y-110865435D01*
X169550704Y-111264800D01*
X169457000Y-111735883D01*
X144760537Y-111735883D01*
X144761724Y-111734696D01*
X144773725Y-111734706D01*
X144997860Y-111642095D01*
X145169493Y-111470762D01*
X145262494Y-111246789D01*
X145262634Y-111086797D01*
X145293211Y-111099494D01*
X145535725Y-111099706D01*
X145759860Y-111007095D01*
X145859524Y-110907606D01*
X145958238Y-111006493D01*
X146182211Y-111099494D01*
X146424725Y-111099706D01*
X146648860Y-111007095D01*
X146820493Y-110835762D01*
X146913494Y-110611789D01*
X146913706Y-110369275D01*
X146821095Y-110145140D01*
X146785106Y-110109088D01*
X146820493Y-110073762D01*
X146913494Y-109849789D01*
X146913706Y-109607275D01*
X146821095Y-109383140D01*
X146649762Y-109211507D01*
X146425789Y-109118506D01*
X146183275Y-109118294D01*
X145959140Y-109210905D01*
X145859476Y-109310394D01*
X145760762Y-109211507D01*
X145536789Y-109118506D01*
X145294275Y-109118294D01*
X145161000Y-109173362D01*
X145161000Y-108795420D01*
X145885695Y-108070725D01*
X146456294Y-108070725D01*
X146548905Y-108294860D01*
X146720238Y-108466493D01*
X146944211Y-108559494D01*
X147186725Y-108559706D01*
X147410860Y-108467095D01*
X147582493Y-108295762D01*
X147675494Y-108071789D01*
X147675706Y-107829275D01*
X147583095Y-107605140D01*
X147411762Y-107433507D01*
X147187789Y-107340506D01*
X146945275Y-107340294D01*
X146721140Y-107432905D01*
X146549507Y-107604238D01*
X146456506Y-107828211D01*
X146456294Y-108070725D01*
X145885695Y-108070725D01*
X147530421Y-106426000D01*
X205676500Y-106426000D01*
X205870903Y-106387331D01*
X206035710Y-106277210D01*
X208706224Y-103606696D01*
X208718225Y-103606706D01*
X208942360Y-103514095D01*
X209113993Y-103342762D01*
X209206994Y-103118789D01*
X209207206Y-102876275D01*
X209114595Y-102652140D01*
X208943262Y-102480507D01*
X208719289Y-102387506D01*
X208476775Y-102387294D01*
X208252640Y-102479905D01*
X208081007Y-102651238D01*
X207988006Y-102875211D01*
X207987995Y-102888085D01*
X205466080Y-105410000D01*
X163786420Y-105410000D01*
X165589724Y-103606696D01*
X165601725Y-103606706D01*
X165825860Y-103514095D01*
X165997493Y-103342762D01*
X166090494Y-103118789D01*
X166090706Y-102876275D01*
X165998095Y-102652140D01*
X165826762Y-102480507D01*
X165602789Y-102387506D01*
X165360275Y-102387294D01*
X165136140Y-102479905D01*
X164964507Y-102651238D01*
X164871506Y-102875211D01*
X164871495Y-102888085D01*
X162857580Y-104902000D01*
X146812000Y-104902000D01*
X146617597Y-104940669D01*
X146452790Y-105050790D01*
X143531790Y-107971790D01*
X143421669Y-108136597D01*
X143383000Y-108331000D01*
X143383000Y-110770760D01*
X143374507Y-110779238D01*
X143281506Y-111003211D01*
X143281495Y-111016085D01*
X143172580Y-111125000D01*
X140418420Y-111125000D01*
X138535210Y-109241790D01*
X138370403Y-109131669D01*
X138176000Y-109093000D01*
X135382000Y-109093000D01*
X135187597Y-109131669D01*
X135022790Y-109241790D01*
X134282580Y-109982000D01*
X132683464Y-109982000D01*
X132683464Y-108370000D01*
X132656897Y-108228810D01*
X132573454Y-108099135D01*
X132446134Y-108012141D01*
X132295000Y-107981536D01*
X130595000Y-107981536D01*
X130453810Y-108008103D01*
X130324135Y-108091546D01*
X130237141Y-108218866D01*
X130206536Y-108370000D01*
X130206536Y-109982000D01*
X130175000Y-109982000D01*
X130012850Y-110014254D01*
X129980596Y-110020669D01*
X129815790Y-110130790D01*
X129352653Y-110593927D01*
X128905000Y-110504883D01*
X128433917Y-110598587D01*
X128034552Y-110865435D01*
X127767704Y-111264800D01*
X127674000Y-111735883D01*
X127596000Y-111735883D01*
X127502296Y-111264800D01*
X127235448Y-110865435D01*
X126836083Y-110598587D01*
X126365000Y-110504883D01*
X125917347Y-110593927D01*
X125603000Y-110279580D01*
X125603000Y-110187028D01*
X125893917Y-110381413D01*
X126365000Y-110475117D01*
X126836083Y-110381413D01*
X127235448Y-110114565D01*
X127502296Y-109715200D01*
X127596000Y-109244117D01*
X127596000Y-109195883D01*
X127502296Y-108724800D01*
X127235448Y-108325435D01*
X126836083Y-108058587D01*
X126365000Y-107964883D01*
X125917347Y-108053927D01*
X123571000Y-105707580D01*
X123571000Y-104604420D01*
X127755041Y-108788461D01*
X127674000Y-109195883D01*
X127674000Y-109244117D01*
X127767704Y-109715200D01*
X128034552Y-110114565D01*
X128433917Y-110381413D01*
X128905000Y-110475117D01*
X129376083Y-110381413D01*
X129775448Y-110114565D01*
X130042296Y-109715200D01*
X130136000Y-109244117D01*
X130136000Y-109195883D01*
X130042296Y-108724800D01*
X129775448Y-108325435D01*
X129376083Y-108058587D01*
X128905000Y-107964883D01*
X128457347Y-108053927D01*
X125426145Y-105022725D01*
X141630294Y-105022725D01*
X141722905Y-105246860D01*
X141894238Y-105418493D01*
X142118211Y-105511494D01*
X142360725Y-105511706D01*
X142584860Y-105419095D01*
X142652718Y-105351356D01*
X142719738Y-105418493D01*
X142943711Y-105511494D01*
X143186225Y-105511706D01*
X143410360Y-105419095D01*
X143446412Y-105383106D01*
X143481738Y-105418493D01*
X143705711Y-105511494D01*
X143948225Y-105511706D01*
X144172360Y-105419095D01*
X144240218Y-105351356D01*
X144307238Y-105418493D01*
X144531211Y-105511494D01*
X144773725Y-105511706D01*
X144997860Y-105419095D01*
X145169493Y-105247762D01*
X145262494Y-105023789D01*
X145262505Y-105010915D01*
X149181420Y-101092000D01*
X166650760Y-101092000D01*
X166659238Y-101100493D01*
X166883211Y-101193494D01*
X167125725Y-101193706D01*
X167349860Y-101101095D01*
X167358971Y-101092000D01*
X208026000Y-101092000D01*
X208220403Y-101053331D01*
X208385210Y-100943210D01*
X210293724Y-99034696D01*
X210305725Y-99034706D01*
X210529860Y-98942095D01*
X210701493Y-98770762D01*
X210794494Y-98546789D01*
X210794494Y-98545725D01*
X214401294Y-98545725D01*
X214493905Y-98769860D01*
X214665238Y-98941493D01*
X214889211Y-99034494D01*
X215131725Y-99034706D01*
X215355860Y-98942095D01*
X215527493Y-98770762D01*
X215620494Y-98546789D01*
X215620706Y-98304275D01*
X215528095Y-98080140D01*
X215356762Y-97908507D01*
X215132789Y-97815506D01*
X214890275Y-97815294D01*
X214666140Y-97907905D01*
X214494507Y-98079238D01*
X214401506Y-98303211D01*
X214401294Y-98545725D01*
X210794494Y-98545725D01*
X210794706Y-98304275D01*
X210702095Y-98080140D01*
X210530762Y-97908507D01*
X210306789Y-97815506D01*
X210064275Y-97815294D01*
X209840140Y-97907905D01*
X209804088Y-97943894D01*
X209768762Y-97908507D01*
X209544789Y-97815506D01*
X209302275Y-97815294D01*
X209078140Y-97907905D01*
X209010282Y-97975644D01*
X208943262Y-97908507D01*
X208719289Y-97815506D01*
X208476775Y-97815294D01*
X208252640Y-97907905D01*
X208184782Y-97975644D01*
X208117762Y-97908507D01*
X207893789Y-97815506D01*
X207651275Y-97815294D01*
X207427140Y-97907905D01*
X207391088Y-97943894D01*
X207355762Y-97908507D01*
X207131789Y-97815506D01*
X206889275Y-97815294D01*
X206665140Y-97907905D01*
X206493507Y-98079238D01*
X206400506Y-98303211D01*
X206400495Y-98316085D01*
X206164580Y-98552000D01*
X176502330Y-98552000D01*
X176504494Y-98546789D01*
X176504706Y-98304275D01*
X176412095Y-98080140D01*
X176249240Y-97917000D01*
X206502000Y-97917000D01*
X206696403Y-97878331D01*
X206861210Y-97768210D01*
X210544211Y-94085210D01*
X210654331Y-93920403D01*
X210693000Y-93726000D01*
X210693000Y-92556240D01*
X210693135Y-92556106D01*
X210855238Y-92718493D01*
X211079211Y-92811494D01*
X211321725Y-92811706D01*
X211545860Y-92719095D01*
X211717493Y-92547762D01*
X211772521Y-92415240D01*
X211826905Y-92546860D01*
X211998238Y-92718493D01*
X212222211Y-92811494D01*
X212464725Y-92811706D01*
X212688860Y-92719095D01*
X212860493Y-92547762D01*
X212953494Y-92323789D01*
X212953494Y-92322725D01*
X213004294Y-92322725D01*
X213096905Y-92546860D01*
X213268238Y-92718493D01*
X213492211Y-92811494D01*
X213734725Y-92811706D01*
X213958860Y-92719095D01*
X213994912Y-92683106D01*
X214030238Y-92718493D01*
X214254211Y-92811494D01*
X214496725Y-92811706D01*
X214720860Y-92719095D01*
X214892493Y-92547762D01*
X214985494Y-92323789D01*
X214985706Y-92081275D01*
X214893095Y-91857140D01*
X214721762Y-91685507D01*
X214497789Y-91592506D01*
X214255275Y-91592294D01*
X214031140Y-91684905D01*
X213995088Y-91720894D01*
X213959762Y-91685507D01*
X213735789Y-91592506D01*
X213493275Y-91592294D01*
X213269140Y-91684905D01*
X213097507Y-91856238D01*
X213004506Y-92080211D01*
X213004294Y-92322725D01*
X212953494Y-92322725D01*
X212953706Y-92081275D01*
X212861095Y-91857140D01*
X212689762Y-91685507D01*
X212465789Y-91592506D01*
X212223275Y-91592294D01*
X211999140Y-91684905D01*
X211827507Y-91856238D01*
X211772479Y-91988760D01*
X211718095Y-91857140D01*
X211546762Y-91685507D01*
X211322789Y-91592506D01*
X211080275Y-91592294D01*
X210856140Y-91684905D01*
X210692865Y-91847894D01*
X210530762Y-91685507D01*
X210306789Y-91592506D01*
X210064275Y-91592294D01*
X209840140Y-91684905D01*
X209804088Y-91720894D01*
X209768762Y-91685507D01*
X209544789Y-91592506D01*
X209302275Y-91592294D01*
X209078140Y-91684905D01*
X209042088Y-91720894D01*
X209006762Y-91685507D01*
X208782789Y-91592506D01*
X208540275Y-91592294D01*
X208316140Y-91684905D01*
X208216476Y-91784394D01*
X208117762Y-91685507D01*
X207893789Y-91592506D01*
X207651275Y-91592294D01*
X207427140Y-91684905D01*
X207255507Y-91856238D01*
X207162506Y-92080211D01*
X207162294Y-92322725D01*
X207254905Y-92546860D01*
X207264000Y-92555971D01*
X207264000Y-93134579D01*
X205910580Y-94488000D01*
X205061420Y-94488000D01*
X203559210Y-92985790D01*
X203394403Y-92875669D01*
X203200000Y-92837000D01*
X184106420Y-92837000D01*
X181842210Y-90572790D01*
X181677403Y-90462669D01*
X181483000Y-90424000D01*
X162052000Y-90424000D01*
X161857597Y-90462669D01*
X161692790Y-90572790D01*
X159619080Y-92646500D01*
X156056240Y-92646500D01*
X156047762Y-92638007D01*
X155823789Y-92545006D01*
X155581275Y-92544794D01*
X155357140Y-92637405D01*
X155352893Y-92641644D01*
X155349262Y-92638007D01*
X155125289Y-92545006D01*
X154882775Y-92544794D01*
X154658640Y-92637405D01*
X154654393Y-92641644D01*
X154650762Y-92638007D01*
X154426789Y-92545006D01*
X154184275Y-92544794D01*
X153960140Y-92637405D01*
X153924088Y-92673394D01*
X153888762Y-92638007D01*
X153664789Y-92545006D01*
X153422275Y-92544794D01*
X153198140Y-92637405D01*
X153026507Y-92808738D01*
X152933506Y-93032711D01*
X152933294Y-93275225D01*
X153025905Y-93499360D01*
X153197238Y-93670993D01*
X153421211Y-93763994D01*
X153434085Y-93764005D01*
X157438290Y-97768211D01*
X157603097Y-97878331D01*
X157797500Y-97917000D01*
X165127029Y-97917000D01*
X164964507Y-98079238D01*
X164871506Y-98303211D01*
X164871294Y-98545725D01*
X164873887Y-98552000D01*
X164184240Y-98552000D01*
X164175762Y-98543507D01*
X163951789Y-98450506D01*
X163709275Y-98450294D01*
X163485140Y-98542905D01*
X163476029Y-98552000D01*
X155040240Y-98552000D01*
X155031762Y-98543507D01*
X154807789Y-98450506D01*
X154565275Y-98450294D01*
X154341140Y-98542905D01*
X154332029Y-98552000D01*
X148082000Y-98552000D01*
X147887597Y-98590669D01*
X147722790Y-98700789D01*
X142131275Y-104292304D01*
X142119275Y-104292294D01*
X141895140Y-104384905D01*
X141723507Y-104556238D01*
X141630506Y-104780211D01*
X141630294Y-105022725D01*
X125426145Y-105022725D01*
X124396500Y-103993080D01*
X124396500Y-98779240D01*
X124404993Y-98770762D01*
X124497994Y-98546789D01*
X124498206Y-98304275D01*
X124405595Y-98080140D01*
X124369518Y-98044000D01*
X128169807Y-98044000D01*
X128134507Y-98079238D01*
X128041506Y-98303211D01*
X128041294Y-98545725D01*
X128133905Y-98769860D01*
X128305238Y-98941493D01*
X128529211Y-99034494D01*
X128771725Y-99034706D01*
X128995860Y-98942095D01*
X129167493Y-98770762D01*
X129260494Y-98546789D01*
X129260706Y-98304275D01*
X129168095Y-98080140D01*
X129132018Y-98044000D01*
X136314580Y-98044000D01*
X138070790Y-99800210D01*
X138235597Y-99910331D01*
X138430000Y-99949000D01*
X144907000Y-99949000D01*
X145101403Y-99910331D01*
X145266210Y-99800210D01*
X147536695Y-97529725D01*
X154076294Y-97529725D01*
X154168905Y-97753860D01*
X154340238Y-97925493D01*
X154564211Y-98018494D01*
X154806725Y-98018706D01*
X155030860Y-97926095D01*
X155202493Y-97754762D01*
X155295494Y-97530789D01*
X155295706Y-97288275D01*
X155203095Y-97064140D01*
X155031762Y-96892507D01*
X154807789Y-96799506D01*
X154565275Y-96799294D01*
X154341140Y-96891905D01*
X154169507Y-97063238D01*
X154076506Y-97287211D01*
X154076294Y-97529725D01*
X147536695Y-97529725D01*
X147806210Y-97260211D01*
X147916330Y-97095404D01*
X147916331Y-97095403D01*
X147955000Y-96901000D01*
X147955000Y-96386725D01*
X152933294Y-96386725D01*
X153025905Y-96610860D01*
X153197238Y-96782493D01*
X153421211Y-96875494D01*
X153663725Y-96875706D01*
X153887860Y-96783095D01*
X154059493Y-96611762D01*
X154152494Y-96387789D01*
X154152706Y-96145275D01*
X154060095Y-95921140D01*
X153888762Y-95749507D01*
X153664789Y-95656506D01*
X153422275Y-95656294D01*
X153198140Y-95748905D01*
X153026507Y-95920238D01*
X152933506Y-96144211D01*
X152933294Y-96386725D01*
X147955000Y-96386725D01*
X147955000Y-96239240D01*
X147963493Y-96230762D01*
X148056494Y-96006789D01*
X148056706Y-95764275D01*
X147964095Y-95540140D01*
X147792762Y-95368507D01*
X147568789Y-95275506D01*
X147326275Y-95275294D01*
X147102140Y-95367905D01*
X147066088Y-95403894D01*
X147030762Y-95368507D01*
X146841943Y-95290103D01*
X146913494Y-95117789D01*
X146913706Y-94875275D01*
X146821095Y-94651140D01*
X146649762Y-94479507D01*
X146425789Y-94386506D01*
X146235081Y-94386339D01*
X146412724Y-94208696D01*
X146424725Y-94208706D01*
X146648860Y-94116095D01*
X146820493Y-93944762D01*
X146913494Y-93720789D01*
X146913706Y-93478275D01*
X146821095Y-93254140D01*
X146649762Y-93082507D01*
X146532539Y-93033832D01*
X146532706Y-92843275D01*
X146440095Y-92619140D01*
X146277106Y-92455865D01*
X146439493Y-92293762D01*
X146532494Y-92069789D01*
X146532512Y-92049578D01*
X146678725Y-92049706D01*
X146902860Y-91957095D01*
X147074493Y-91785762D01*
X147167494Y-91561789D01*
X147167600Y-91440000D01*
X147218311Y-91440000D01*
X147218294Y-91459125D01*
X147310905Y-91683260D01*
X147482238Y-91854893D01*
X147706211Y-91947894D01*
X147948725Y-91948106D01*
X148172860Y-91855495D01*
X148344493Y-91684162D01*
X148437494Y-91460189D01*
X148437706Y-91217675D01*
X148345095Y-90993540D01*
X148173762Y-90821907D01*
X147954934Y-90731042D01*
X147817605Y-90584558D01*
X147810835Y-90579711D01*
X147806210Y-90572790D01*
X147730491Y-90522196D01*
X147656434Y-90469181D01*
X147648325Y-90467294D01*
X147641403Y-90462669D01*
X147552082Y-90444902D01*
X147463379Y-90424264D01*
X147455165Y-90425624D01*
X147447000Y-90424000D01*
X144653000Y-90424000D01*
X144490850Y-90456254D01*
X144458596Y-90462669D01*
X144293790Y-90572790D01*
X143835824Y-91030756D01*
X143728762Y-90923507D01*
X143504789Y-90830506D01*
X143491915Y-90830495D01*
X141992420Y-89331000D01*
X155771780Y-89331000D01*
X154221580Y-90881200D01*
X152322440Y-90881200D01*
X152313962Y-90872707D01*
X152089989Y-90779706D01*
X151847475Y-90779494D01*
X151623340Y-90872105D01*
X151451707Y-91043438D01*
X151358706Y-91267411D01*
X151358494Y-91509925D01*
X151451105Y-91734060D01*
X151622438Y-91905693D01*
X151846411Y-91998694D01*
X152088925Y-91998906D01*
X152313060Y-91906295D01*
X152322171Y-91897200D01*
X154432000Y-91897200D01*
X154626403Y-91858531D01*
X154791210Y-91748410D01*
X156496620Y-90043000D01*
X205693362Y-90043000D01*
X205730905Y-90133860D01*
X205902238Y-90305493D01*
X206126211Y-90398494D01*
X206368725Y-90398706D01*
X206592860Y-90306095D01*
X206764493Y-90134762D01*
X206857494Y-89910789D01*
X206857706Y-89668275D01*
X206765095Y-89444140D01*
X206652153Y-89331000D01*
X235789000Y-89331000D01*
X235789000Y-113869000D01*
X63931000Y-113869000D01*
X63931000Y-111735883D01*
X122594000Y-111735883D01*
X122594000Y-111784117D01*
X122687704Y-112255200D01*
X122954552Y-112654565D01*
X123353917Y-112921413D01*
X123825000Y-113015117D01*
X124296083Y-112921413D01*
X124695448Y-112654565D01*
X124962296Y-112255200D01*
X125056000Y-111784117D01*
X125056000Y-111735883D01*
X124962296Y-111264800D01*
X124695448Y-110865435D01*
X124296083Y-110598587D01*
X123825000Y-110504883D01*
X123353917Y-110598587D01*
X122954552Y-110865435D01*
X122687704Y-111264800D01*
X122594000Y-111735883D01*
X63931000Y-111735883D01*
X63931000Y-99053725D01*
X88925294Y-99053725D01*
X89017905Y-99277860D01*
X89189238Y-99449493D01*
X89413211Y-99542494D01*
X89655725Y-99542706D01*
X89879860Y-99450095D01*
X90051493Y-99278762D01*
X90144494Y-99054789D01*
X90144706Y-98812275D01*
X90052095Y-98588140D01*
X89880762Y-98416507D01*
X89656789Y-98323506D01*
X89414275Y-98323294D01*
X89190140Y-98415905D01*
X89018507Y-98587238D01*
X88925506Y-98811211D01*
X88925294Y-99053725D01*
X63931000Y-99053725D01*
X63931000Y-98545725D01*
X76860294Y-98545725D01*
X76952905Y-98769860D01*
X77124238Y-98941493D01*
X77348211Y-99034494D01*
X77590725Y-99034706D01*
X77814860Y-98942095D01*
X77882718Y-98874356D01*
X77949738Y-98941493D01*
X78173711Y-99034494D01*
X78416225Y-99034706D01*
X78640360Y-98942095D01*
X78708218Y-98874356D01*
X78775238Y-98941493D01*
X78999211Y-99034494D01*
X79241725Y-99034706D01*
X79465860Y-98942095D01*
X79501912Y-98906106D01*
X79537238Y-98941493D01*
X79761211Y-99034494D01*
X80003725Y-99034706D01*
X80227860Y-98942095D01*
X80295718Y-98874356D01*
X80362738Y-98941493D01*
X80586711Y-99034494D01*
X80829225Y-99034706D01*
X81053360Y-98942095D01*
X81224993Y-98770762D01*
X81317994Y-98546789D01*
X81318206Y-98304275D01*
X81225595Y-98080140D01*
X81054262Y-97908507D01*
X80830289Y-97815506D01*
X80587775Y-97815294D01*
X80363640Y-97907905D01*
X80295782Y-97975644D01*
X80228762Y-97908507D01*
X80004789Y-97815506D01*
X79762275Y-97815294D01*
X79538140Y-97907905D01*
X79502088Y-97943894D01*
X79466762Y-97908507D01*
X79242789Y-97815506D01*
X79000275Y-97815294D01*
X78776140Y-97907905D01*
X78708282Y-97975644D01*
X78641262Y-97908507D01*
X78417289Y-97815506D01*
X78174775Y-97815294D01*
X77950640Y-97907905D01*
X77882782Y-97975644D01*
X77815762Y-97908507D01*
X77591789Y-97815506D01*
X77349275Y-97815294D01*
X77125140Y-97907905D01*
X76953507Y-98079238D01*
X76860506Y-98303211D01*
X76860294Y-98545725D01*
X63931000Y-98545725D01*
X63931000Y-89331000D01*
X125977579Y-89331000D01*
X123716275Y-91592304D01*
X123716275Y-91592304D01*
G37*
X123716275Y-91592304D02*
X123704275Y-91592294D01*
X123480140Y-91684905D01*
X123444088Y-91720894D01*
X123408762Y-91685507D01*
X123184789Y-91592506D01*
X122942275Y-91592294D01*
X122718140Y-91684905D01*
X122682088Y-91720894D01*
X122646762Y-91685507D01*
X122422789Y-91592506D01*
X122180275Y-91592294D01*
X121956140Y-91684905D01*
X121856476Y-91784394D01*
X121757762Y-91685507D01*
X121533789Y-91592506D01*
X121291275Y-91592294D01*
X121067140Y-91684905D01*
X121031088Y-91720894D01*
X120995762Y-91685507D01*
X120771789Y-91592506D01*
X120529275Y-91592294D01*
X120305140Y-91684905D01*
X120133507Y-91856238D01*
X120040506Y-92080211D01*
X120040294Y-92322725D01*
X120132905Y-92546860D01*
X120304238Y-92718493D01*
X120528211Y-92811494D01*
X120541085Y-92811505D01*
X122725580Y-94996000D01*
X118745000Y-94996000D01*
X118550597Y-95034669D01*
X118385790Y-95144790D01*
X116629580Y-96901000D01*
X100049193Y-96901000D01*
X100084493Y-96865762D01*
X100177494Y-96641789D01*
X100177706Y-96399275D01*
X100085095Y-96175140D01*
X99913762Y-96003507D01*
X99689789Y-95910506D01*
X99447275Y-95910294D01*
X99223140Y-96002905D01*
X99051507Y-96174238D01*
X98958506Y-96398211D01*
X98958294Y-96640725D01*
X99050905Y-96864860D01*
X99086982Y-96901000D01*
X97111420Y-96901000D01*
X95863212Y-95652792D01*
X95863210Y-95652789D01*
X95355210Y-95144790D01*
X95190403Y-95034669D01*
X94996000Y-94996000D01*
X84157420Y-94996000D01*
X81917164Y-92755744D01*
X82005860Y-92719095D01*
X82177493Y-92547762D01*
X82232521Y-92415240D01*
X82286905Y-92546860D01*
X82458238Y-92718493D01*
X82682211Y-92811494D01*
X82924725Y-92811706D01*
X83148860Y-92719095D01*
X83320493Y-92547762D01*
X83413494Y-92323789D01*
X83413494Y-92322725D01*
X83464294Y-92322725D01*
X83556905Y-92546860D01*
X83728238Y-92718493D01*
X83952211Y-92811494D01*
X84194725Y-92811706D01*
X84418860Y-92719095D01*
X84454912Y-92683106D01*
X84490238Y-92718493D01*
X84714211Y-92811494D01*
X84956725Y-92811706D01*
X85180860Y-92719095D01*
X85352493Y-92547762D01*
X85445494Y-92323789D01*
X85445706Y-92081275D01*
X85353095Y-91857140D01*
X85181762Y-91685507D01*
X84957789Y-91592506D01*
X84715275Y-91592294D01*
X84491140Y-91684905D01*
X84455088Y-91720894D01*
X84419762Y-91685507D01*
X84195789Y-91592506D01*
X83953275Y-91592294D01*
X83729140Y-91684905D01*
X83557507Y-91856238D01*
X83464506Y-92080211D01*
X83464294Y-92322725D01*
X83413494Y-92322725D01*
X83413706Y-92081275D01*
X83321095Y-91857140D01*
X83149762Y-91685507D01*
X82925789Y-91592506D01*
X82683275Y-91592294D01*
X82459140Y-91684905D01*
X82287507Y-91856238D01*
X82232479Y-91988760D01*
X82178095Y-91857140D01*
X82006762Y-91685507D01*
X81782789Y-91592506D01*
X81540275Y-91592294D01*
X81316140Y-91684905D01*
X81152865Y-91847894D01*
X80990762Y-91685507D01*
X80766789Y-91592506D01*
X80524275Y-91592294D01*
X80300140Y-91684905D01*
X80264088Y-91720894D01*
X80228762Y-91685507D01*
X80004789Y-91592506D01*
X79762275Y-91592294D01*
X79538140Y-91684905D01*
X79470282Y-91752644D01*
X79403262Y-91685507D01*
X79179289Y-91592506D01*
X78936775Y-91592294D01*
X78712640Y-91684905D01*
X78644782Y-91752644D01*
X78577762Y-91685507D01*
X78353789Y-91592506D01*
X78111275Y-91592294D01*
X77887140Y-91684905D01*
X77851088Y-91720894D01*
X77815762Y-91685507D01*
X77591789Y-91592506D01*
X77349275Y-91592294D01*
X77125140Y-91684905D01*
X76953507Y-91856238D01*
X76860506Y-92080211D01*
X76860294Y-92322725D01*
X76952905Y-92546860D01*
X77124238Y-92718493D01*
X77348211Y-92811494D01*
X77361085Y-92811505D01*
X82444790Y-97895210D01*
X82609596Y-98005331D01*
X82804000Y-98044000D01*
X84989807Y-98044000D01*
X84954507Y-98079238D01*
X84861506Y-98303211D01*
X84861294Y-98545725D01*
X84953905Y-98769860D01*
X85125238Y-98941493D01*
X85349211Y-99034494D01*
X85591725Y-99034706D01*
X85815860Y-98942095D01*
X85987493Y-98770762D01*
X86080494Y-98546789D01*
X86080706Y-98304275D01*
X85988095Y-98080140D01*
X85952018Y-98044000D01*
X93769580Y-98044000D01*
X95525790Y-99800210D01*
X95690597Y-99910331D01*
X95885000Y-99949000D01*
X117856000Y-99949000D01*
X118050403Y-99910331D01*
X118215210Y-99800210D01*
X119971420Y-98044000D01*
X120168807Y-98044000D01*
X120133507Y-98079238D01*
X120040506Y-98303211D01*
X120040294Y-98545725D01*
X120132905Y-98769860D01*
X120142000Y-98778971D01*
X120142000Y-108585000D01*
X120164737Y-108699308D01*
X120147704Y-108724800D01*
X120054000Y-109195883D01*
X120054000Y-109244117D01*
X120147704Y-109715200D01*
X120414552Y-110114565D01*
X120813917Y-110381413D01*
X121285000Y-110475117D01*
X121756083Y-110381413D01*
X122155448Y-110114565D01*
X122422296Y-109715200D01*
X122516000Y-109244117D01*
X122516000Y-109195883D01*
X122422296Y-108724800D01*
X122155448Y-108325435D01*
X121756083Y-108058587D01*
X121285000Y-107964883D01*
X121158000Y-107990145D01*
X121158000Y-107271420D01*
X122675041Y-108788461D01*
X122594000Y-109195883D01*
X122594000Y-109244117D01*
X122687704Y-109715200D01*
X122954552Y-110114565D01*
X123353917Y-110381413D01*
X123825000Y-110475117D01*
X124296083Y-110381413D01*
X124587000Y-110187028D01*
X124587000Y-110490000D01*
X124625669Y-110684403D01*
X124735790Y-110849210D01*
X125215041Y-111328461D01*
X125134000Y-111735883D01*
X125134000Y-111784117D01*
X125227704Y-112255200D01*
X125494552Y-112654565D01*
X125893917Y-112921413D01*
X126365000Y-113015117D01*
X126836083Y-112921413D01*
X127235448Y-112654565D01*
X127502296Y-112255200D01*
X127596000Y-111784117D01*
X127596000Y-111735883D01*
X127674000Y-111735883D01*
X127674000Y-111784117D01*
X127767704Y-112255200D01*
X128034552Y-112654565D01*
X128433917Y-112921413D01*
X128905000Y-113015117D01*
X129376083Y-112921413D01*
X129775448Y-112654565D01*
X130042296Y-112255200D01*
X130136000Y-111784117D01*
X130136000Y-111735883D01*
X130054959Y-111328461D01*
X130385420Y-110998000D01*
X130485975Y-110998000D01*
X130307704Y-111264800D01*
X130214000Y-111735883D01*
X130214000Y-111784117D01*
X130307704Y-112255200D01*
X130574552Y-112654565D01*
X130973917Y-112921413D01*
X131445000Y-113015117D01*
X131916083Y-112921413D01*
X132315448Y-112654565D01*
X132573743Y-112268000D01*
X133985000Y-112268000D01*
X134179403Y-112229331D01*
X134344210Y-112119210D01*
X135846421Y-110617000D01*
X137711580Y-110617000D01*
X139594790Y-112500210D01*
X139759597Y-112610331D01*
X139954000Y-112649000D01*
X143637000Y-112649000D01*
X143831403Y-112610331D01*
X143996210Y-112500210D01*
X144760537Y-111735883D01*
X169457000Y-111735883D01*
X169457000Y-111784117D01*
X169550704Y-112255200D01*
X169817552Y-112654565D01*
X170216917Y-112921413D01*
X170688000Y-113015117D01*
X171159083Y-112921413D01*
X171558448Y-112654565D01*
X171825296Y-112255200D01*
X171919000Y-111784117D01*
X171919000Y-111735883D01*
X171997000Y-111735883D01*
X171997000Y-111784117D01*
X172090704Y-112255200D01*
X172357552Y-112654565D01*
X172756917Y-112921413D01*
X173228000Y-113015117D01*
X173699083Y-112921413D01*
X174098448Y-112654565D01*
X174365296Y-112255200D01*
X174459000Y-111784117D01*
X174459000Y-111735883D01*
X188761000Y-111735883D01*
X188761000Y-111784117D01*
X188854704Y-112255200D01*
X189121552Y-112654565D01*
X189520917Y-112921413D01*
X189992000Y-113015117D01*
X190463083Y-112921413D01*
X190862448Y-112654565D01*
X191129296Y-112255200D01*
X191223000Y-111784117D01*
X191223000Y-111735883D01*
X191301000Y-111735883D01*
X191301000Y-111784117D01*
X191394704Y-112255200D01*
X191661552Y-112654565D01*
X192060917Y-112921413D01*
X192532000Y-113015117D01*
X193003083Y-112921413D01*
X193402448Y-112654565D01*
X193669296Y-112255200D01*
X193763000Y-111784117D01*
X193763000Y-111735883D01*
X193669296Y-111264800D01*
X193402448Y-110865435D01*
X193003083Y-110598587D01*
X192532000Y-110504883D01*
X192060917Y-110598587D01*
X191661552Y-110865435D01*
X191394704Y-111264800D01*
X191301000Y-111735883D01*
X191223000Y-111735883D01*
X191129296Y-111264800D01*
X190862448Y-110865435D01*
X190463083Y-110598587D01*
X189992000Y-110504883D01*
X189520917Y-110598587D01*
X189121552Y-110865435D01*
X188854704Y-111264800D01*
X188761000Y-111735883D01*
X174459000Y-111735883D01*
X174365296Y-111264800D01*
X174098448Y-110865435D01*
X173699083Y-110598587D01*
X173228000Y-110504883D01*
X172756917Y-110598587D01*
X172357552Y-110865435D01*
X172090704Y-111264800D01*
X171997000Y-111735883D01*
X171919000Y-111735883D01*
X171825296Y-111264800D01*
X171558448Y-110865435D01*
X171159083Y-110598587D01*
X170688000Y-110504883D01*
X170216917Y-110598587D01*
X169817552Y-110865435D01*
X169550704Y-111264800D01*
X169457000Y-111735883D01*
X144760537Y-111735883D01*
X144761724Y-111734696D01*
X144773725Y-111734706D01*
X144997860Y-111642095D01*
X145169493Y-111470762D01*
X145262494Y-111246789D01*
X145262634Y-111086797D01*
X145293211Y-111099494D01*
X145535725Y-111099706D01*
X145759860Y-111007095D01*
X145859524Y-110907606D01*
X145958238Y-111006493D01*
X146182211Y-111099494D01*
X146424725Y-111099706D01*
X146648860Y-111007095D01*
X146820493Y-110835762D01*
X146913494Y-110611789D01*
X146913706Y-110369275D01*
X146821095Y-110145140D01*
X146785106Y-110109088D01*
X146820493Y-110073762D01*
X146913494Y-109849789D01*
X146913706Y-109607275D01*
X146821095Y-109383140D01*
X146649762Y-109211507D01*
X146425789Y-109118506D01*
X146183275Y-109118294D01*
X145959140Y-109210905D01*
X145859476Y-109310394D01*
X145760762Y-109211507D01*
X145536789Y-109118506D01*
X145294275Y-109118294D01*
X145161000Y-109173362D01*
X145161000Y-108795420D01*
X145885695Y-108070725D01*
X146456294Y-108070725D01*
X146548905Y-108294860D01*
X146720238Y-108466493D01*
X146944211Y-108559494D01*
X147186725Y-108559706D01*
X147410860Y-108467095D01*
X147582493Y-108295762D01*
X147675494Y-108071789D01*
X147675706Y-107829275D01*
X147583095Y-107605140D01*
X147411762Y-107433507D01*
X147187789Y-107340506D01*
X146945275Y-107340294D01*
X146721140Y-107432905D01*
X146549507Y-107604238D01*
X146456506Y-107828211D01*
X146456294Y-108070725D01*
X145885695Y-108070725D01*
X147530421Y-106426000D01*
X205676500Y-106426000D01*
X205870903Y-106387331D01*
X206035710Y-106277210D01*
X208706224Y-103606696D01*
X208718225Y-103606706D01*
X208942360Y-103514095D01*
X209113993Y-103342762D01*
X209206994Y-103118789D01*
X209207206Y-102876275D01*
X209114595Y-102652140D01*
X208943262Y-102480507D01*
X208719289Y-102387506D01*
X208476775Y-102387294D01*
X208252640Y-102479905D01*
X208081007Y-102651238D01*
X207988006Y-102875211D01*
X207987995Y-102888085D01*
X205466080Y-105410000D01*
X163786420Y-105410000D01*
X165589724Y-103606696D01*
X165601725Y-103606706D01*
X165825860Y-103514095D01*
X165997493Y-103342762D01*
X166090494Y-103118789D01*
X166090706Y-102876275D01*
X165998095Y-102652140D01*
X165826762Y-102480507D01*
X165602789Y-102387506D01*
X165360275Y-102387294D01*
X165136140Y-102479905D01*
X164964507Y-102651238D01*
X164871506Y-102875211D01*
X164871495Y-102888085D01*
X162857580Y-104902000D01*
X146812000Y-104902000D01*
X146617597Y-104940669D01*
X146452790Y-105050790D01*
X143531790Y-107971790D01*
X143421669Y-108136597D01*
X143383000Y-108331000D01*
X143383000Y-110770760D01*
X143374507Y-110779238D01*
X143281506Y-111003211D01*
X143281495Y-111016085D01*
X143172580Y-111125000D01*
X140418420Y-111125000D01*
X138535210Y-109241790D01*
X138370403Y-109131669D01*
X138176000Y-109093000D01*
X135382000Y-109093000D01*
X135187597Y-109131669D01*
X135022790Y-109241790D01*
X134282580Y-109982000D01*
X132683464Y-109982000D01*
X132683464Y-108370000D01*
X132656897Y-108228810D01*
X132573454Y-108099135D01*
X132446134Y-108012141D01*
X132295000Y-107981536D01*
X130595000Y-107981536D01*
X130453810Y-108008103D01*
X130324135Y-108091546D01*
X130237141Y-108218866D01*
X130206536Y-108370000D01*
X130206536Y-109982000D01*
X130175000Y-109982000D01*
X130012850Y-110014254D01*
X129980596Y-110020669D01*
X129815790Y-110130790D01*
X129352653Y-110593927D01*
X128905000Y-110504883D01*
X128433917Y-110598587D01*
X128034552Y-110865435D01*
X127767704Y-111264800D01*
X127674000Y-111735883D01*
X127596000Y-111735883D01*
X127502296Y-111264800D01*
X127235448Y-110865435D01*
X126836083Y-110598587D01*
X126365000Y-110504883D01*
X125917347Y-110593927D01*
X125603000Y-110279580D01*
X125603000Y-110187028D01*
X125893917Y-110381413D01*
X126365000Y-110475117D01*
X126836083Y-110381413D01*
X127235448Y-110114565D01*
X127502296Y-109715200D01*
X127596000Y-109244117D01*
X127596000Y-109195883D01*
X127502296Y-108724800D01*
X127235448Y-108325435D01*
X126836083Y-108058587D01*
X126365000Y-107964883D01*
X125917347Y-108053927D01*
X123571000Y-105707580D01*
X123571000Y-104604420D01*
X127755041Y-108788461D01*
X127674000Y-109195883D01*
X127674000Y-109244117D01*
X127767704Y-109715200D01*
X128034552Y-110114565D01*
X128433917Y-110381413D01*
X128905000Y-110475117D01*
X129376083Y-110381413D01*
X129775448Y-110114565D01*
X130042296Y-109715200D01*
X130136000Y-109244117D01*
X130136000Y-109195883D01*
X130042296Y-108724800D01*
X129775448Y-108325435D01*
X129376083Y-108058587D01*
X128905000Y-107964883D01*
X128457347Y-108053927D01*
X125426145Y-105022725D01*
X141630294Y-105022725D01*
X141722905Y-105246860D01*
X141894238Y-105418493D01*
X142118211Y-105511494D01*
X142360725Y-105511706D01*
X142584860Y-105419095D01*
X142652718Y-105351356D01*
X142719738Y-105418493D01*
X142943711Y-105511494D01*
X143186225Y-105511706D01*
X143410360Y-105419095D01*
X143446412Y-105383106D01*
X143481738Y-105418493D01*
X143705711Y-105511494D01*
X143948225Y-105511706D01*
X144172360Y-105419095D01*
X144240218Y-105351356D01*
X144307238Y-105418493D01*
X144531211Y-105511494D01*
X144773725Y-105511706D01*
X144997860Y-105419095D01*
X145169493Y-105247762D01*
X145262494Y-105023789D01*
X145262505Y-105010915D01*
X149181420Y-101092000D01*
X166650760Y-101092000D01*
X166659238Y-101100493D01*
X166883211Y-101193494D01*
X167125725Y-101193706D01*
X167349860Y-101101095D01*
X167358971Y-101092000D01*
X208026000Y-101092000D01*
X208220403Y-101053331D01*
X208385210Y-100943210D01*
X210293724Y-99034696D01*
X210305725Y-99034706D01*
X210529860Y-98942095D01*
X210701493Y-98770762D01*
X210794494Y-98546789D01*
X210794494Y-98545725D01*
X214401294Y-98545725D01*
X214493905Y-98769860D01*
X214665238Y-98941493D01*
X214889211Y-99034494D01*
X215131725Y-99034706D01*
X215355860Y-98942095D01*
X215527493Y-98770762D01*
X215620494Y-98546789D01*
X215620706Y-98304275D01*
X215528095Y-98080140D01*
X215356762Y-97908507D01*
X215132789Y-97815506D01*
X214890275Y-97815294D01*
X214666140Y-97907905D01*
X214494507Y-98079238D01*
X214401506Y-98303211D01*
X214401294Y-98545725D01*
X210794494Y-98545725D01*
X210794706Y-98304275D01*
X210702095Y-98080140D01*
X210530762Y-97908507D01*
X210306789Y-97815506D01*
X210064275Y-97815294D01*
X209840140Y-97907905D01*
X209804088Y-97943894D01*
X209768762Y-97908507D01*
X209544789Y-97815506D01*
X209302275Y-97815294D01*
X209078140Y-97907905D01*
X209010282Y-97975644D01*
X208943262Y-97908507D01*
X208719289Y-97815506D01*
X208476775Y-97815294D01*
X208252640Y-97907905D01*
X208184782Y-97975644D01*
X208117762Y-97908507D01*
X207893789Y-97815506D01*
X207651275Y-97815294D01*
X207427140Y-97907905D01*
X207391088Y-97943894D01*
X207355762Y-97908507D01*
X207131789Y-97815506D01*
X206889275Y-97815294D01*
X206665140Y-97907905D01*
X206493507Y-98079238D01*
X206400506Y-98303211D01*
X206400495Y-98316085D01*
X206164580Y-98552000D01*
X176502330Y-98552000D01*
X176504494Y-98546789D01*
X176504706Y-98304275D01*
X176412095Y-98080140D01*
X176249240Y-97917000D01*
X206502000Y-97917000D01*
X206696403Y-97878331D01*
X206861210Y-97768210D01*
X210544211Y-94085210D01*
X210654331Y-93920403D01*
X210693000Y-93726000D01*
X210693000Y-92556240D01*
X210693135Y-92556106D01*
X210855238Y-92718493D01*
X211079211Y-92811494D01*
X211321725Y-92811706D01*
X211545860Y-92719095D01*
X211717493Y-92547762D01*
X211772521Y-92415240D01*
X211826905Y-92546860D01*
X211998238Y-92718493D01*
X212222211Y-92811494D01*
X212464725Y-92811706D01*
X212688860Y-92719095D01*
X212860493Y-92547762D01*
X212953494Y-92323789D01*
X212953494Y-92322725D01*
X213004294Y-92322725D01*
X213096905Y-92546860D01*
X213268238Y-92718493D01*
X213492211Y-92811494D01*
X213734725Y-92811706D01*
X213958860Y-92719095D01*
X213994912Y-92683106D01*
X214030238Y-92718493D01*
X214254211Y-92811494D01*
X214496725Y-92811706D01*
X214720860Y-92719095D01*
X214892493Y-92547762D01*
X214985494Y-92323789D01*
X214985706Y-92081275D01*
X214893095Y-91857140D01*
X214721762Y-91685507D01*
X214497789Y-91592506D01*
X214255275Y-91592294D01*
X214031140Y-91684905D01*
X213995088Y-91720894D01*
X213959762Y-91685507D01*
X213735789Y-91592506D01*
X213493275Y-91592294D01*
X213269140Y-91684905D01*
X213097507Y-91856238D01*
X213004506Y-92080211D01*
X213004294Y-92322725D01*
X212953494Y-92322725D01*
X212953706Y-92081275D01*
X212861095Y-91857140D01*
X212689762Y-91685507D01*
X212465789Y-91592506D01*
X212223275Y-91592294D01*
X211999140Y-91684905D01*
X211827507Y-91856238D01*
X211772479Y-91988760D01*
X211718095Y-91857140D01*
X211546762Y-91685507D01*
X211322789Y-91592506D01*
X211080275Y-91592294D01*
X210856140Y-91684905D01*
X210692865Y-91847894D01*
X210530762Y-91685507D01*
X210306789Y-91592506D01*
X210064275Y-91592294D01*
X209840140Y-91684905D01*
X209804088Y-91720894D01*
X209768762Y-91685507D01*
X209544789Y-91592506D01*
X209302275Y-91592294D01*
X209078140Y-91684905D01*
X209042088Y-91720894D01*
X209006762Y-91685507D01*
X208782789Y-91592506D01*
X208540275Y-91592294D01*
X208316140Y-91684905D01*
X208216476Y-91784394D01*
X208117762Y-91685507D01*
X207893789Y-91592506D01*
X207651275Y-91592294D01*
X207427140Y-91684905D01*
X207255507Y-91856238D01*
X207162506Y-92080211D01*
X207162294Y-92322725D01*
X207254905Y-92546860D01*
X207264000Y-92555971D01*
X207264000Y-93134579D01*
X205910580Y-94488000D01*
X205061420Y-94488000D01*
X203559210Y-92985790D01*
X203394403Y-92875669D01*
X203200000Y-92837000D01*
X184106420Y-92837000D01*
X181842210Y-90572790D01*
X181677403Y-90462669D01*
X181483000Y-90424000D01*
X162052000Y-90424000D01*
X161857597Y-90462669D01*
X161692790Y-90572790D01*
X159619080Y-92646500D01*
X156056240Y-92646500D01*
X156047762Y-92638007D01*
X155823789Y-92545006D01*
X155581275Y-92544794D01*
X155357140Y-92637405D01*
X155352893Y-92641644D01*
X155349262Y-92638007D01*
X155125289Y-92545006D01*
X154882775Y-92544794D01*
X154658640Y-92637405D01*
X154654393Y-92641644D01*
X154650762Y-92638007D01*
X154426789Y-92545006D01*
X154184275Y-92544794D01*
X153960140Y-92637405D01*
X153924088Y-92673394D01*
X153888762Y-92638007D01*
X153664789Y-92545006D01*
X153422275Y-92544794D01*
X153198140Y-92637405D01*
X153026507Y-92808738D01*
X152933506Y-93032711D01*
X152933294Y-93275225D01*
X153025905Y-93499360D01*
X153197238Y-93670993D01*
X153421211Y-93763994D01*
X153434085Y-93764005D01*
X157438290Y-97768211D01*
X157603097Y-97878331D01*
X157797500Y-97917000D01*
X165127029Y-97917000D01*
X164964507Y-98079238D01*
X164871506Y-98303211D01*
X164871294Y-98545725D01*
X164873887Y-98552000D01*
X164184240Y-98552000D01*
X164175762Y-98543507D01*
X163951789Y-98450506D01*
X163709275Y-98450294D01*
X163485140Y-98542905D01*
X163476029Y-98552000D01*
X155040240Y-98552000D01*
X155031762Y-98543507D01*
X154807789Y-98450506D01*
X154565275Y-98450294D01*
X154341140Y-98542905D01*
X154332029Y-98552000D01*
X148082000Y-98552000D01*
X147887597Y-98590669D01*
X147722790Y-98700789D01*
X142131275Y-104292304D01*
X142119275Y-104292294D01*
X141895140Y-104384905D01*
X141723507Y-104556238D01*
X141630506Y-104780211D01*
X141630294Y-105022725D01*
X125426145Y-105022725D01*
X124396500Y-103993080D01*
X124396500Y-98779240D01*
X124404993Y-98770762D01*
X124497994Y-98546789D01*
X124498206Y-98304275D01*
X124405595Y-98080140D01*
X124369518Y-98044000D01*
X128169807Y-98044000D01*
X128134507Y-98079238D01*
X128041506Y-98303211D01*
X128041294Y-98545725D01*
X128133905Y-98769860D01*
X128305238Y-98941493D01*
X128529211Y-99034494D01*
X128771725Y-99034706D01*
X128995860Y-98942095D01*
X129167493Y-98770762D01*
X129260494Y-98546789D01*
X129260706Y-98304275D01*
X129168095Y-98080140D01*
X129132018Y-98044000D01*
X136314580Y-98044000D01*
X138070790Y-99800210D01*
X138235597Y-99910331D01*
X138430000Y-99949000D01*
X144907000Y-99949000D01*
X145101403Y-99910331D01*
X145266210Y-99800210D01*
X147536695Y-97529725D01*
X154076294Y-97529725D01*
X154168905Y-97753860D01*
X154340238Y-97925493D01*
X154564211Y-98018494D01*
X154806725Y-98018706D01*
X155030860Y-97926095D01*
X155202493Y-97754762D01*
X155295494Y-97530789D01*
X155295706Y-97288275D01*
X155203095Y-97064140D01*
X155031762Y-96892507D01*
X154807789Y-96799506D01*
X154565275Y-96799294D01*
X154341140Y-96891905D01*
X154169507Y-97063238D01*
X154076506Y-97287211D01*
X154076294Y-97529725D01*
X147536695Y-97529725D01*
X147806210Y-97260211D01*
X147916330Y-97095404D01*
X147916331Y-97095403D01*
X147955000Y-96901000D01*
X147955000Y-96386725D01*
X152933294Y-96386725D01*
X153025905Y-96610860D01*
X153197238Y-96782493D01*
X153421211Y-96875494D01*
X153663725Y-96875706D01*
X153887860Y-96783095D01*
X154059493Y-96611762D01*
X154152494Y-96387789D01*
X154152706Y-96145275D01*
X154060095Y-95921140D01*
X153888762Y-95749507D01*
X153664789Y-95656506D01*
X153422275Y-95656294D01*
X153198140Y-95748905D01*
X153026507Y-95920238D01*
X152933506Y-96144211D01*
X152933294Y-96386725D01*
X147955000Y-96386725D01*
X147955000Y-96239240D01*
X147963493Y-96230762D01*
X148056494Y-96006789D01*
X148056706Y-95764275D01*
X147964095Y-95540140D01*
X147792762Y-95368507D01*
X147568789Y-95275506D01*
X147326275Y-95275294D01*
X147102140Y-95367905D01*
X147066088Y-95403894D01*
X147030762Y-95368507D01*
X146841943Y-95290103D01*
X146913494Y-95117789D01*
X146913706Y-94875275D01*
X146821095Y-94651140D01*
X146649762Y-94479507D01*
X146425789Y-94386506D01*
X146235081Y-94386339D01*
X146412724Y-94208696D01*
X146424725Y-94208706D01*
X146648860Y-94116095D01*
X146820493Y-93944762D01*
X146913494Y-93720789D01*
X146913706Y-93478275D01*
X146821095Y-93254140D01*
X146649762Y-93082507D01*
X146532539Y-93033832D01*
X146532706Y-92843275D01*
X146440095Y-92619140D01*
X146277106Y-92455865D01*
X146439493Y-92293762D01*
X146532494Y-92069789D01*
X146532512Y-92049578D01*
X146678725Y-92049706D01*
X146902860Y-91957095D01*
X147074493Y-91785762D01*
X147167494Y-91561789D01*
X147167600Y-91440000D01*
X147218311Y-91440000D01*
X147218294Y-91459125D01*
X147310905Y-91683260D01*
X147482238Y-91854893D01*
X147706211Y-91947894D01*
X147948725Y-91948106D01*
X148172860Y-91855495D01*
X148344493Y-91684162D01*
X148437494Y-91460189D01*
X148437706Y-91217675D01*
X148345095Y-90993540D01*
X148173762Y-90821907D01*
X147954934Y-90731042D01*
X147817605Y-90584558D01*
X147810835Y-90579711D01*
X147806210Y-90572790D01*
X147730491Y-90522196D01*
X147656434Y-90469181D01*
X147648325Y-90467294D01*
X147641403Y-90462669D01*
X147552082Y-90444902D01*
X147463379Y-90424264D01*
X147455165Y-90425624D01*
X147447000Y-90424000D01*
X144653000Y-90424000D01*
X144490850Y-90456254D01*
X144458596Y-90462669D01*
X144293790Y-90572790D01*
X143835824Y-91030756D01*
X143728762Y-90923507D01*
X143504789Y-90830506D01*
X143491915Y-90830495D01*
X141992420Y-89331000D01*
X155771780Y-89331000D01*
X154221580Y-90881200D01*
X152322440Y-90881200D01*
X152313962Y-90872707D01*
X152089989Y-90779706D01*
X151847475Y-90779494D01*
X151623340Y-90872105D01*
X151451707Y-91043438D01*
X151358706Y-91267411D01*
X151358494Y-91509925D01*
X151451105Y-91734060D01*
X151622438Y-91905693D01*
X151846411Y-91998694D01*
X152088925Y-91998906D01*
X152313060Y-91906295D01*
X152322171Y-91897200D01*
X154432000Y-91897200D01*
X154626403Y-91858531D01*
X154791210Y-91748410D01*
X156496620Y-90043000D01*
X205693362Y-90043000D01*
X205730905Y-90133860D01*
X205902238Y-90305493D01*
X206126211Y-90398494D01*
X206368725Y-90398706D01*
X206592860Y-90306095D01*
X206764493Y-90134762D01*
X206857494Y-89910789D01*
X206857706Y-89668275D01*
X206765095Y-89444140D01*
X206652153Y-89331000D01*
X235789000Y-89331000D01*
X235789000Y-113869000D01*
X63931000Y-113869000D01*
X63931000Y-111735883D01*
X122594000Y-111735883D01*
X122594000Y-111784117D01*
X122687704Y-112255200D01*
X122954552Y-112654565D01*
X123353917Y-112921413D01*
X123825000Y-113015117D01*
X124296083Y-112921413D01*
X124695448Y-112654565D01*
X124962296Y-112255200D01*
X125056000Y-111784117D01*
X125056000Y-111735883D01*
X124962296Y-111264800D01*
X124695448Y-110865435D01*
X124296083Y-110598587D01*
X123825000Y-110504883D01*
X123353917Y-110598587D01*
X122954552Y-110865435D01*
X122687704Y-111264800D01*
X122594000Y-111735883D01*
X63931000Y-111735883D01*
X63931000Y-99053725D01*
X88925294Y-99053725D01*
X89017905Y-99277860D01*
X89189238Y-99449493D01*
X89413211Y-99542494D01*
X89655725Y-99542706D01*
X89879860Y-99450095D01*
X90051493Y-99278762D01*
X90144494Y-99054789D01*
X90144706Y-98812275D01*
X90052095Y-98588140D01*
X89880762Y-98416507D01*
X89656789Y-98323506D01*
X89414275Y-98323294D01*
X89190140Y-98415905D01*
X89018507Y-98587238D01*
X88925506Y-98811211D01*
X88925294Y-99053725D01*
X63931000Y-99053725D01*
X63931000Y-98545725D01*
X76860294Y-98545725D01*
X76952905Y-98769860D01*
X77124238Y-98941493D01*
X77348211Y-99034494D01*
X77590725Y-99034706D01*
X77814860Y-98942095D01*
X77882718Y-98874356D01*
X77949738Y-98941493D01*
X78173711Y-99034494D01*
X78416225Y-99034706D01*
X78640360Y-98942095D01*
X78708218Y-98874356D01*
X78775238Y-98941493D01*
X78999211Y-99034494D01*
X79241725Y-99034706D01*
X79465860Y-98942095D01*
X79501912Y-98906106D01*
X79537238Y-98941493D01*
X79761211Y-99034494D01*
X80003725Y-99034706D01*
X80227860Y-98942095D01*
X80295718Y-98874356D01*
X80362738Y-98941493D01*
X80586711Y-99034494D01*
X80829225Y-99034706D01*
X81053360Y-98942095D01*
X81224993Y-98770762D01*
X81317994Y-98546789D01*
X81318206Y-98304275D01*
X81225595Y-98080140D01*
X81054262Y-97908507D01*
X80830289Y-97815506D01*
X80587775Y-97815294D01*
X80363640Y-97907905D01*
X80295782Y-97975644D01*
X80228762Y-97908507D01*
X80004789Y-97815506D01*
X79762275Y-97815294D01*
X79538140Y-97907905D01*
X79502088Y-97943894D01*
X79466762Y-97908507D01*
X79242789Y-97815506D01*
X79000275Y-97815294D01*
X78776140Y-97907905D01*
X78708282Y-97975644D01*
X78641262Y-97908507D01*
X78417289Y-97815506D01*
X78174775Y-97815294D01*
X77950640Y-97907905D01*
X77882782Y-97975644D01*
X77815762Y-97908507D01*
X77591789Y-97815506D01*
X77349275Y-97815294D01*
X77125140Y-97907905D01*
X76953507Y-98079238D01*
X76860506Y-98303211D01*
X76860294Y-98545725D01*
X63931000Y-98545725D01*
X63931000Y-89331000D01*
X125977579Y-89331000D01*
X123716275Y-91592304D01*
G36*
X171314507Y-98079238D02*
X171221506Y-98303211D01*
X171221294Y-98545725D01*
X171223887Y-98552000D01*
X166088330Y-98552000D01*
X166090494Y-98546789D01*
X166090706Y-98304275D01*
X165998095Y-98080140D01*
X165835240Y-97917000D01*
X171477029Y-97917000D01*
X171314507Y-98079238D01*
X171314507Y-98079238D01*
G37*
X171314507Y-98079238D02*
X171221506Y-98303211D01*
X171221294Y-98545725D01*
X171223887Y-98552000D01*
X166088330Y-98552000D01*
X166090494Y-98546789D01*
X166090706Y-98304275D01*
X165998095Y-98080140D01*
X165835240Y-97917000D01*
X171477029Y-97917000D01*
X171314507Y-98079238D01*
G36*
X175378507Y-98079238D02*
X175285506Y-98303211D01*
X175285294Y-98545725D01*
X175287887Y-98552000D01*
X172438330Y-98552000D01*
X172440494Y-98546789D01*
X172440706Y-98304275D01*
X172348095Y-98080140D01*
X172185240Y-97917000D01*
X175541029Y-97917000D01*
X175378507Y-98079238D01*
X175378507Y-98079238D01*
G37*
X175378507Y-98079238D02*
X175285506Y-98303211D01*
X175285294Y-98545725D01*
X175287887Y-98552000D01*
X172438330Y-98552000D01*
X172440494Y-98546789D01*
X172440706Y-98304275D01*
X172348095Y-98080140D01*
X172185240Y-97917000D01*
X175541029Y-97917000D01*
X175378507Y-98079238D01*
G36*
X183219290Y-94720210D02*
X183384096Y-94830331D01*
X183416350Y-94836746D01*
X183578500Y-94869000D01*
X202672080Y-94869000D01*
X204174290Y-96371211D01*
X204339097Y-96481331D01*
X204533500Y-96520000D01*
X206629000Y-96520000D01*
X206683401Y-96509179D01*
X206291580Y-96901000D01*
X186535330Y-96901000D01*
X186537494Y-96895789D01*
X186537706Y-96653275D01*
X186445095Y-96429140D01*
X186273762Y-96257507D01*
X186049789Y-96164506D01*
X185807275Y-96164294D01*
X185583140Y-96256905D01*
X185411507Y-96428238D01*
X185318506Y-96652211D01*
X185318294Y-96894725D01*
X185320887Y-96901000D01*
X158007921Y-96901000D01*
X155975920Y-94869000D01*
X159809580Y-94869000D01*
X161057790Y-96117210D01*
X161222596Y-96227331D01*
X161254850Y-96233746D01*
X161417000Y-96266000D01*
X176276000Y-96266000D01*
X176470403Y-96227331D01*
X176635210Y-96117210D01*
X180296420Y-92456000D01*
X180955080Y-92456000D01*
X183219290Y-94720210D01*
X183219290Y-94720210D01*
G37*
X183219290Y-94720210D02*
X183384096Y-94830331D01*
X183416350Y-94836746D01*
X183578500Y-94869000D01*
X202672080Y-94869000D01*
X204174290Y-96371211D01*
X204339097Y-96481331D01*
X204533500Y-96520000D01*
X206629000Y-96520000D01*
X206683401Y-96509179D01*
X206291580Y-96901000D01*
X186535330Y-96901000D01*
X186537494Y-96895789D01*
X186537706Y-96653275D01*
X186445095Y-96429140D01*
X186273762Y-96257507D01*
X186049789Y-96164506D01*
X185807275Y-96164294D01*
X185583140Y-96256905D01*
X185411507Y-96428238D01*
X185318506Y-96652211D01*
X185318294Y-96894725D01*
X185320887Y-96901000D01*
X158007921Y-96901000D01*
X155975920Y-94869000D01*
X159809580Y-94869000D01*
X161057790Y-96117210D01*
X161222596Y-96227331D01*
X161254850Y-96233746D01*
X161417000Y-96266000D01*
X176276000Y-96266000D01*
X176470403Y-96227331D01*
X176635210Y-96117210D01*
X180296420Y-92456000D01*
X180955080Y-92456000D01*
X183219290Y-94720210D01*
G36*
X177948791Y-92604789D02*
X175811580Y-94742000D01*
X161881421Y-94742000D01*
X160506210Y-93366790D01*
X160403955Y-93298465D01*
X161379695Y-92322725D01*
X167411294Y-92322725D01*
X167503905Y-92546860D01*
X167675238Y-92718493D01*
X167899211Y-92811494D01*
X168141725Y-92811706D01*
X168365860Y-92719095D01*
X168537493Y-92547762D01*
X168592521Y-92415240D01*
X168646905Y-92546860D01*
X168818238Y-92718493D01*
X169042211Y-92811494D01*
X169284725Y-92811706D01*
X169508860Y-92719095D01*
X169680493Y-92547762D01*
X169773494Y-92323789D01*
X169773494Y-92322725D01*
X169824294Y-92322725D01*
X169916905Y-92546860D01*
X170088238Y-92718493D01*
X170312211Y-92811494D01*
X170554725Y-92811706D01*
X170778860Y-92719095D01*
X170814912Y-92683106D01*
X170850238Y-92718493D01*
X171074211Y-92811494D01*
X171316725Y-92811706D01*
X171540860Y-92719095D01*
X171712493Y-92547762D01*
X171805494Y-92323789D01*
X171805706Y-92081275D01*
X171713095Y-91857140D01*
X171541762Y-91685507D01*
X171317789Y-91592506D01*
X171075275Y-91592294D01*
X170851140Y-91684905D01*
X170815088Y-91720894D01*
X170779762Y-91685507D01*
X170555789Y-91592506D01*
X170313275Y-91592294D01*
X170089140Y-91684905D01*
X169917507Y-91856238D01*
X169824506Y-92080211D01*
X169824294Y-92322725D01*
X169773494Y-92322725D01*
X169773706Y-92081275D01*
X169681095Y-91857140D01*
X169509762Y-91685507D01*
X169285789Y-91592506D01*
X169043275Y-91592294D01*
X168819140Y-91684905D01*
X168647507Y-91856238D01*
X168592479Y-91988760D01*
X168538095Y-91857140D01*
X168366762Y-91685507D01*
X168142789Y-91592506D01*
X167900275Y-91592294D01*
X167676140Y-91684905D01*
X167504507Y-91856238D01*
X167411506Y-92080211D01*
X167411294Y-92322725D01*
X161379695Y-92322725D01*
X162262420Y-91440000D01*
X179113579Y-91440000D01*
X177948791Y-92604789D01*
X177948791Y-92604789D01*
G37*
X177948791Y-92604789D02*
X175811580Y-94742000D01*
X161881421Y-94742000D01*
X160506210Y-93366790D01*
X160403955Y-93298465D01*
X161379695Y-92322725D01*
X167411294Y-92322725D01*
X167503905Y-92546860D01*
X167675238Y-92718493D01*
X167899211Y-92811494D01*
X168141725Y-92811706D01*
X168365860Y-92719095D01*
X168537493Y-92547762D01*
X168592521Y-92415240D01*
X168646905Y-92546860D01*
X168818238Y-92718493D01*
X169042211Y-92811494D01*
X169284725Y-92811706D01*
X169508860Y-92719095D01*
X169680493Y-92547762D01*
X169773494Y-92323789D01*
X169773494Y-92322725D01*
X169824294Y-92322725D01*
X169916905Y-92546860D01*
X170088238Y-92718493D01*
X170312211Y-92811494D01*
X170554725Y-92811706D01*
X170778860Y-92719095D01*
X170814912Y-92683106D01*
X170850238Y-92718493D01*
X171074211Y-92811494D01*
X171316725Y-92811706D01*
X171540860Y-92719095D01*
X171712493Y-92547762D01*
X171805494Y-92323789D01*
X171805706Y-92081275D01*
X171713095Y-91857140D01*
X171541762Y-91685507D01*
X171317789Y-91592506D01*
X171075275Y-91592294D01*
X170851140Y-91684905D01*
X170815088Y-91720894D01*
X170779762Y-91685507D01*
X170555789Y-91592506D01*
X170313275Y-91592294D01*
X170089140Y-91684905D01*
X169917507Y-91856238D01*
X169824506Y-92080211D01*
X169824294Y-92322725D01*
X169773494Y-92322725D01*
X169773706Y-92081275D01*
X169681095Y-91857140D01*
X169509762Y-91685507D01*
X169285789Y-91592506D01*
X169043275Y-91592294D01*
X168819140Y-91684905D01*
X168647507Y-91856238D01*
X168592479Y-91988760D01*
X168538095Y-91857140D01*
X168366762Y-91685507D01*
X168142789Y-91592506D01*
X167900275Y-91592294D01*
X167676140Y-91684905D01*
X167504507Y-91856238D01*
X167411506Y-92080211D01*
X167411294Y-92322725D01*
X161379695Y-92322725D01*
X162262420Y-91440000D01*
X179113579Y-91440000D01*
X177948791Y-92604789D01*
G36*
X141503506Y-94747211D02*
X141503294Y-94989725D01*
X141595905Y-95213860D01*
X141767238Y-95385493D01*
X141991211Y-95478494D01*
X142233725Y-95478706D01*
X142457860Y-95386095D01*
X142629493Y-95214762D01*
X142722494Y-94990789D01*
X142722706Y-94748275D01*
X142667638Y-94615000D01*
X143553580Y-94615000D01*
X141267580Y-96901000D01*
X139656420Y-96901000D01*
X138535212Y-95779792D01*
X138535210Y-95779789D01*
X138259420Y-95504000D01*
X138684000Y-95504000D01*
X138878403Y-95465331D01*
X139043210Y-95355210D01*
X139783420Y-94615000D01*
X141558404Y-94615000D01*
X141503506Y-94747211D01*
X141503506Y-94747211D01*
G37*
X141503506Y-94747211D02*
X141503294Y-94989725D01*
X141595905Y-95213860D01*
X141767238Y-95385493D01*
X141991211Y-95478494D01*
X142233725Y-95478706D01*
X142457860Y-95386095D01*
X142629493Y-95214762D01*
X142722494Y-94990789D01*
X142722706Y-94748275D01*
X142667638Y-94615000D01*
X143553580Y-94615000D01*
X141267580Y-96901000D01*
X139656420Y-96901000D01*
X138535212Y-95779792D01*
X138535210Y-95779789D01*
X138259420Y-95504000D01*
X138684000Y-95504000D01*
X138878403Y-95465331D01*
X139043210Y-95355210D01*
X139783420Y-94615000D01*
X141558404Y-94615000D01*
X141503506Y-94747211D01*
G36*
X139140330Y-93821250D02*
X138473580Y-94488000D01*
X135084420Y-94488000D01*
X137116421Y-92456000D01*
X137775080Y-92456000D01*
X139140330Y-93821250D01*
X139140330Y-93821250D01*
G37*
X139140330Y-93821250D02*
X138473580Y-94488000D01*
X135084420Y-94488000D01*
X137116421Y-92456000D01*
X137775080Y-92456000D01*
X139140330Y-93821250D01*
G36*
X142773304Y-91548724D02*
X142773294Y-91560725D01*
X142865905Y-91784860D01*
X142973718Y-91892862D01*
X142791580Y-92075000D01*
X140164420Y-92075000D01*
X139424212Y-91334792D01*
X139424210Y-91334789D01*
X138916210Y-90826790D01*
X138662210Y-90572790D01*
X138497403Y-90462669D01*
X138303000Y-90424000D01*
X136398000Y-90424000D01*
X136203597Y-90462669D01*
X136038790Y-90572790D01*
X134133793Y-92477787D01*
X134133790Y-92477789D01*
X133647580Y-92964000D01*
X124543420Y-92964000D01*
X124234244Y-92654824D01*
X124333135Y-92556106D01*
X124495238Y-92718493D01*
X124719211Y-92811494D01*
X124961725Y-92811706D01*
X125185860Y-92719095D01*
X125357493Y-92547762D01*
X125412521Y-92415240D01*
X125466905Y-92546860D01*
X125638238Y-92718493D01*
X125862211Y-92811494D01*
X126104725Y-92811706D01*
X126328860Y-92719095D01*
X126500493Y-92547762D01*
X126593494Y-92323789D01*
X126593494Y-92322725D01*
X126644294Y-92322725D01*
X126736905Y-92546860D01*
X126908238Y-92718493D01*
X127132211Y-92811494D01*
X127374725Y-92811706D01*
X127598860Y-92719095D01*
X127634912Y-92683106D01*
X127670238Y-92718493D01*
X127894211Y-92811494D01*
X128136725Y-92811706D01*
X128360860Y-92719095D01*
X128532493Y-92547762D01*
X128625494Y-92323789D01*
X128625706Y-92081275D01*
X128533095Y-91857140D01*
X128361762Y-91685507D01*
X128137789Y-91592506D01*
X127895275Y-91592294D01*
X127671140Y-91684905D01*
X127635088Y-91720894D01*
X127599762Y-91685507D01*
X127375789Y-91592506D01*
X127133275Y-91592294D01*
X126909140Y-91684905D01*
X126737507Y-91856238D01*
X126644506Y-92080211D01*
X126644294Y-92322725D01*
X126593494Y-92322725D01*
X126593706Y-92081275D01*
X126501095Y-91857140D01*
X126329762Y-91685507D01*
X126105789Y-91592506D01*
X125863275Y-91592294D01*
X125639140Y-91684905D01*
X125467507Y-91856238D01*
X125412479Y-91988760D01*
X125358095Y-91857140D01*
X125186762Y-91685507D01*
X125097131Y-91648289D01*
X126702421Y-90043000D01*
X141267580Y-90043000D01*
X142773304Y-91548724D01*
X142773304Y-91548724D01*
G37*
X142773304Y-91548724D02*
X142773294Y-91560725D01*
X142865905Y-91784860D01*
X142973718Y-91892862D01*
X142791580Y-92075000D01*
X140164420Y-92075000D01*
X139424212Y-91334792D01*
X139424210Y-91334789D01*
X138916210Y-90826790D01*
X138662210Y-90572790D01*
X138497403Y-90462669D01*
X138303000Y-90424000D01*
X136398000Y-90424000D01*
X136203597Y-90462669D01*
X136038790Y-90572790D01*
X134133793Y-92477787D01*
X134133790Y-92477789D01*
X133647580Y-92964000D01*
X124543420Y-92964000D01*
X124234244Y-92654824D01*
X124333135Y-92556106D01*
X124495238Y-92718493D01*
X124719211Y-92811494D01*
X124961725Y-92811706D01*
X125185860Y-92719095D01*
X125357493Y-92547762D01*
X125412521Y-92415240D01*
X125466905Y-92546860D01*
X125638238Y-92718493D01*
X125862211Y-92811494D01*
X126104725Y-92811706D01*
X126328860Y-92719095D01*
X126500493Y-92547762D01*
X126593494Y-92323789D01*
X126593494Y-92322725D01*
X126644294Y-92322725D01*
X126736905Y-92546860D01*
X126908238Y-92718493D01*
X127132211Y-92811494D01*
X127374725Y-92811706D01*
X127598860Y-92719095D01*
X127634912Y-92683106D01*
X127670238Y-92718493D01*
X127894211Y-92811494D01*
X128136725Y-92811706D01*
X128360860Y-92719095D01*
X128532493Y-92547762D01*
X128625494Y-92323789D01*
X128625706Y-92081275D01*
X128533095Y-91857140D01*
X128361762Y-91685507D01*
X128137789Y-91592506D01*
X127895275Y-91592294D01*
X127671140Y-91684905D01*
X127635088Y-91720894D01*
X127599762Y-91685507D01*
X127375789Y-91592506D01*
X127133275Y-91592294D01*
X126909140Y-91684905D01*
X126737507Y-91856238D01*
X126644506Y-92080211D01*
X126644294Y-92322725D01*
X126593494Y-92322725D01*
X126593706Y-92081275D01*
X126501095Y-91857140D01*
X126329762Y-91685507D01*
X126105789Y-91592506D01*
X125863275Y-91592294D01*
X125639140Y-91684905D01*
X125467507Y-91856238D01*
X125412479Y-91988760D01*
X125358095Y-91857140D01*
X125186762Y-91685507D01*
X125097131Y-91648289D01*
X126702421Y-90043000D01*
X141267580Y-90043000D01*
X142773304Y-91548724D01*
M02*
