%TF.GenerationSoftware,KiCad,Pcbnew,8.99.0-3402-gadd58faa30*%
%TF.CreationDate,2024-12-15T16:52:02-05:00*%
%TF.ProjectId,Interposer_Board_JoneyTech,496e7465-7270-46f7-9365-725f426f6172,rev?*%
%TF.SameCoordinates,Original*%
%TF.FileFunction,Soldermask,Bot*%
%TF.FilePolarity,Negative*%
%FSLAX46Y46*%
G04 Gerber Fmt 4.6, Leading zero omitted, Abs format (unit mm)*
G04 Created by KiCad (PCBNEW 8.99.0-3402-gadd58faa30) date 2024-12-15 16:52:02*
%MOMM*%
%LPD*%
G01*
G04 APERTURE LIST*
%ADD10R,2.500000X0.350000*%
%ADD11C,5.500000*%
%ADD12R,0.350000X2.500000*%
G04 APERTURE END LIST*
D10*
%TO.C,J1*%
X107688600Y-89303600D03*
X107688600Y-88803600D03*
X107688600Y-88303600D03*
X107688600Y-87803600D03*
X107688600Y-87303600D03*
X107688600Y-86803600D03*
X107688600Y-86303600D03*
X107688600Y-85803600D03*
X107688600Y-85303600D03*
X107688600Y-84803600D03*
X107688600Y-84303600D03*
X107688600Y-83803600D03*
X107688600Y-83303600D03*
X107688600Y-82803600D03*
X107688600Y-82303600D03*
X107688600Y-81803600D03*
X107688600Y-81303600D03*
X107688600Y-80803600D03*
X107688600Y-80303600D03*
X107688600Y-79803600D03*
X107688600Y-79303600D03*
X107688600Y-78803600D03*
X107688600Y-78303600D03*
X107688600Y-77803600D03*
X107688600Y-77303600D03*
X107688600Y-76803600D03*
X107688600Y-76303600D03*
X107688600Y-75803600D03*
X107688600Y-75303600D03*
X107688600Y-72803600D03*
X107688600Y-72303600D03*
X107688600Y-71803600D03*
X107688600Y-71303600D03*
%TD*%
D11*
%TO.C,REF\u002A\u002A*%
X167251100Y-42353600D03*
%TD*%
%TO.C,REF\u002A\u002A*%
X186451100Y-80353600D03*
%TD*%
D12*
%TO.C,J2*%
X158001100Y-97103600D03*
X158501100Y-97103600D03*
X159001100Y-97103600D03*
X159501100Y-97103600D03*
X160001100Y-97103600D03*
X160501100Y-97103600D03*
X161001100Y-97103600D03*
X161501100Y-97103600D03*
X162001100Y-97103600D03*
X162501100Y-97103600D03*
X163001100Y-97103600D03*
X163501100Y-97103600D03*
X164001100Y-97103600D03*
X164501100Y-97103600D03*
X165001100Y-97103600D03*
X165501100Y-97103600D03*
X166001100Y-97103600D03*
X166501100Y-97103600D03*
X167001100Y-97103600D03*
X167501100Y-97103600D03*
X168001100Y-97103600D03*
X168501100Y-97103600D03*
X169001100Y-97103600D03*
X169501100Y-97103600D03*
X170001100Y-97103600D03*
X170501100Y-97103600D03*
X171001100Y-97103600D03*
X171501100Y-97103600D03*
X172001100Y-97103600D03*
X174501100Y-97103600D03*
X175001100Y-97103600D03*
X175501100Y-97103600D03*
X176001100Y-97103600D03*
X176501100Y-97103600D03*
%TD*%
M02*
