%TF.GenerationSoftware,KiCad,Pcbnew,8.99.0-3402-gadd58faa30*%
%TF.CreationDate,2024-12-15T16:52:02-05:00*%
%TF.ProjectId,Interposer_Board_JoneyTech,496e7465-7270-46f7-9365-725f426f6172,rev?*%
%TF.SameCoordinates,Original*%
%TF.FileFunction,Soldermask,Top*%
%TF.FilePolarity,Negative*%
%FSLAX46Y46*%
G04 Gerber Fmt 4.6, Leading zero omitted, Abs format (unit mm)*
G04 Created by KiCad (PCBNEW 8.99.0-3402-gadd58faa30) date 2024-12-15 16:52:02*
%MOMM*%
%LPD*%
G01*
G04 APERTURE LIST*
G04 Aperture macros list*
%AMRoundRect*
0 Rectangle with rounded corners*
0 $1 Rounding radius*
0 $2 $3 $4 $5 $6 $7 $8 $9 X,Y pos of 4 corners*
0 Add a 4 corners polygon primitive as box body*
4,1,4,$2,$3,$4,$5,$6,$7,$8,$9,$2,$3,0*
0 Add four circle primitives for the rounded corners*
1,1,$1+$1,$2,$3*
1,1,$1+$1,$4,$5*
1,1,$1+$1,$6,$7*
1,1,$1+$1,$8,$9*
0 Add four rect primitives between the rounded corners*
20,1,$1+$1,$2,$3,$4,$5,0*
20,1,$1+$1,$4,$5,$6,$7,0*
20,1,$1+$1,$6,$7,$8,$9,0*
20,1,$1+$1,$8,$9,$2,$3,0*%
G04 Aperture macros list end*
%ADD10RoundRect,0.101600X-1.250000X0.175000X-1.250000X-0.175000X1.250000X-0.175000X1.250000X0.175000X0*%
%ADD11C,5.703200*%
%ADD12RoundRect,0.101600X0.175000X1.250000X-0.175000X1.250000X-0.175000X-1.250000X0.175000X-1.250000X0*%
G04 APERTURE END LIST*
D10*
%TO.C,J1*%
X107688600Y-89553600D03*
X107688600Y-89053600D03*
X107688600Y-88553600D03*
X107688600Y-88053600D03*
X107688600Y-87553600D03*
X107688600Y-87053600D03*
X107688600Y-86553600D03*
X107688600Y-86053600D03*
X107688600Y-85553600D03*
X107688600Y-85053600D03*
X107688600Y-84553600D03*
X107688600Y-84053600D03*
X107688600Y-83553600D03*
X107688600Y-83053600D03*
X107688600Y-82553600D03*
X107688600Y-82053600D03*
X107688600Y-81553600D03*
X107688600Y-81053600D03*
X107688600Y-80553600D03*
X107688600Y-80053600D03*
X107688600Y-79553600D03*
X107688600Y-79053600D03*
X107688600Y-78553600D03*
X107688600Y-78053600D03*
X107688600Y-77553600D03*
X107688600Y-77053600D03*
X107688600Y-76553600D03*
X107688600Y-76053600D03*
X107688600Y-75553600D03*
X107688600Y-73053600D03*
X107688600Y-72553600D03*
X107688600Y-72053600D03*
X107688600Y-71553600D03*
X107688600Y-71053600D03*
%TD*%
D11*
%TO.C,REF\u002A\u002A*%
X167251100Y-42353600D03*
%TD*%
%TO.C,REF\u002A\u002A*%
X186451100Y-80353600D03*
%TD*%
D12*
%TO.C,J2*%
X158251100Y-97103600D03*
X158751100Y-97103600D03*
X159251100Y-97103600D03*
X159751100Y-97103600D03*
X160251100Y-97103600D03*
X160751100Y-97103600D03*
X161251100Y-97103600D03*
X161751100Y-97103600D03*
X162251100Y-97103600D03*
X162751100Y-97103600D03*
X163251100Y-97103600D03*
X163751100Y-97103600D03*
X164251100Y-97103600D03*
X164751100Y-97103600D03*
X165251100Y-97103600D03*
X165751100Y-97103600D03*
X166251100Y-97103600D03*
X166751100Y-97103600D03*
X167251100Y-97103600D03*
X167751100Y-97103600D03*
X168251100Y-97103600D03*
X168751100Y-97103600D03*
X169251100Y-97103600D03*
X169751100Y-97103600D03*
X170251100Y-97103600D03*
X170751100Y-97103600D03*
X171251100Y-97103600D03*
X171751100Y-97103600D03*
X172251100Y-97103600D03*
X174751100Y-97103600D03*
X175251100Y-97103600D03*
X175751100Y-97103600D03*
X176251100Y-97103600D03*
%TD*%
M02*
