%TF.GenerationSoftware,KiCad,Pcbnew,9.0.0*%
%TF.CreationDate,2025-04-28T22:50:06-04:00*%
%TF.ProjectId,Interposer_Board_JoneyTech,496e7465-7270-46f7-9365-725f426f6172,rev?*%
%TF.SameCoordinates,Original*%
%TF.FileFunction,Copper,L1,Top*%
%TF.FilePolarity,Positive*%
%FSLAX46Y46*%
G04 Gerber Fmt 4.6, Leading zero omitted, Abs format (unit mm)*
G04 Created by KiCad (PCBNEW 9.0.0) date 2025-04-28 22:50:06*
%MOMM*%
%LPD*%
G01*
G04 APERTURE LIST*
%TA.AperFunction,SMDPad,CuDef*%
%ADD10R,2.500000X0.350000*%
%TD*%
%TA.AperFunction,ComponentPad*%
%ADD11C,0.700000*%
%TD*%
%TA.AperFunction,ComponentPad*%
%ADD12C,4.400000*%
%TD*%
%TA.AperFunction,SMDPad,CuDef*%
%ADD13R,0.350000X2.500000*%
%TD*%
%TA.AperFunction,ViaPad*%
%ADD14C,0.508000*%
%TD*%
%TA.AperFunction,Conductor*%
%ADD15C,0.350000*%
%TD*%
%TA.AperFunction,Conductor*%
%ADD16C,0.188000*%
%TD*%
%TA.AperFunction,Conductor*%
%ADD17C,0.152400*%
%TD*%
G04 APERTURE END LIST*
D10*
%TO.P,J1,1,1*%
%TO.N,GND*%
X107188600Y-89553600D03*
%TO.P,J1,3,3*%
X107188600Y-89053600D03*
%TO.P,J1,5,5*%
%TO.N,/TX3_N*%
X107188600Y-88553600D03*
%TO.P,J1,7,7*%
%TO.N,/TX3_P*%
X107188600Y-88053600D03*
%TO.P,J1,9,9*%
%TO.N,GND*%
X107188600Y-87553600D03*
%TO.P,J1,11,11*%
%TO.N,/RX3_N*%
X107188600Y-87053600D03*
%TO.P,J1,13,13*%
%TO.N,/RX3_P*%
X107188600Y-86553600D03*
%TO.P,J1,15,15*%
%TO.N,GND*%
X107188600Y-86053600D03*
%TO.P,J1,17,17*%
%TO.N,/TX2_N*%
X107188600Y-85553600D03*
%TO.P,J1,19,19*%
%TO.N,/TX2_P*%
X107188600Y-85053600D03*
%TO.P,J1,21,21*%
%TO.N,GND*%
X107188600Y-84553600D03*
%TO.P,J1,23,23*%
%TO.N,/RX2_N*%
X107188600Y-84053600D03*
%TO.P,J1,25,25*%
%TO.N,/RX2_P*%
X107188600Y-83553600D03*
%TO.P,J1,27,27*%
%TO.N,GND*%
X107188600Y-83053600D03*
%TO.P,J1,29,29*%
%TO.N,/TX1_N*%
X107188600Y-82553600D03*
%TO.P,J1,31,31*%
%TO.N,/TX1_P*%
X107188600Y-82053600D03*
%TO.P,J1,33,33*%
%TO.N,GND*%
X107188600Y-81553600D03*
%TO.P,J1,35,35*%
%TO.N,/RX1_N*%
X107188600Y-81053600D03*
%TO.P,J1,37,37*%
%TO.N,/RX1_P*%
X107188600Y-80553600D03*
%TO.P,J1,39,39*%
%TO.N,GND*%
X107188600Y-80053600D03*
%TO.P,J1,41,41*%
%TO.N,/TX0_N*%
X107188600Y-79553600D03*
%TO.P,J1,43,43*%
%TO.N,/TX0_P*%
X107188600Y-79053600D03*
%TO.P,J1,45,45*%
%TO.N,GND*%
X107188600Y-78553600D03*
%TO.P,J1,47,47*%
%TO.N,/RX0_N*%
X107188600Y-78053600D03*
%TO.P,J1,49,49*%
%TO.N,/RX0_P*%
X107188600Y-77553600D03*
%TO.P,J1,51,51*%
%TO.N,GND*%
X107188600Y-77053600D03*
%TO.P,J1,53,53*%
%TO.N,/REFCLK_N*%
X107188600Y-76553600D03*
%TO.P,J1,55,55*%
%TO.N,/REFCLK_P*%
X107188600Y-76053600D03*
%TO.P,J1,57,57*%
%TO.N,GND*%
X107188600Y-75553600D03*
%TO.P,J1,67,67*%
%TO.N,unconnected-(J1-Pad67)*%
X107188600Y-73053600D03*
%TO.P,J1,69,69*%
%TO.N,unconnected-(J1-Pad69)*%
X107188600Y-72553600D03*
%TO.P,J1,71,71*%
%TO.N,GND*%
X107188600Y-72053600D03*
%TO.P,J1,73,73*%
X107188600Y-71553600D03*
%TO.P,J1,75,75*%
X107188600Y-71053600D03*
%TD*%
D11*
%TO.P,H2,1,1*%
%TO.N,GND*%
X165601100Y-42353600D03*
X166084374Y-41186874D03*
X166084374Y-43520326D03*
X167251100Y-40703600D03*
D12*
X167251100Y-42353600D03*
D11*
X167251100Y-44003600D03*
X168417826Y-41186874D03*
X168417826Y-43520326D03*
X168901100Y-42353600D03*
%TD*%
%TO.P,H4,1,1*%
%TO.N,GND*%
X78126100Y-91778600D03*
X78609374Y-90611874D03*
X78609374Y-92945326D03*
X79776100Y-90128600D03*
D12*
X79776100Y-91778600D03*
D11*
X79776100Y-93428600D03*
X80942826Y-90611874D03*
X80942826Y-92945326D03*
X81426100Y-91778600D03*
%TD*%
%TO.P,H1,1,1*%
%TO.N,GND*%
X184301100Y-80353600D03*
X184784374Y-79186874D03*
X184784374Y-81520326D03*
X185951100Y-78703600D03*
D12*
X185951100Y-80353600D03*
D11*
X185951100Y-82003600D03*
X187117826Y-79186874D03*
X187117826Y-81520326D03*
X187601100Y-80353600D03*
%TD*%
%TO.P,H3,1,1*%
%TO.N,GND*%
X78126100Y-48478600D03*
X78609374Y-47311874D03*
X78609374Y-49645326D03*
X79776100Y-46828600D03*
D12*
X79776100Y-48478600D03*
D11*
X79776100Y-50128600D03*
X80942826Y-47311874D03*
X80942826Y-49645326D03*
X81426100Y-48478600D03*
%TD*%
D13*
%TO.P,J2,2,2*%
%TO.N,GND*%
X158251100Y-97103600D03*
%TO.P,J2,4,4*%
X158751100Y-97103600D03*
%TO.P,J2,6,6*%
%TO.N,/TX3_N*%
X159251100Y-97103600D03*
%TO.P,J2,8,8*%
%TO.N,/TX3_P*%
X159751100Y-97103600D03*
%TO.P,J2,10,10*%
%TO.N,GND*%
X160251100Y-97103600D03*
%TO.P,J2,12,12*%
%TO.N,/RX3_N*%
X160751100Y-97103600D03*
%TO.P,J2,14,14*%
%TO.N,/RX3_P*%
X161251100Y-97103600D03*
%TO.P,J2,16,16*%
%TO.N,GND*%
X161751100Y-97103600D03*
%TO.P,J2,18,18*%
%TO.N,/TX2_N*%
X162251100Y-97103600D03*
%TO.P,J2,20,20*%
%TO.N,/TX2_P*%
X162751100Y-97103600D03*
%TO.P,J2,22,22*%
%TO.N,GND*%
X163251100Y-97103600D03*
%TO.P,J2,24,24*%
%TO.N,/RX2_N*%
X163751100Y-97103600D03*
%TO.P,J2,26,26*%
%TO.N,/RX2_P*%
X164251100Y-97103600D03*
%TO.P,J2,28,28*%
%TO.N,GND*%
X164751100Y-97103600D03*
%TO.P,J2,30,30*%
%TO.N,/TX1_N*%
X165251100Y-97103600D03*
%TO.P,J2,32,32*%
%TO.N,/TX1_P*%
X165751100Y-97103600D03*
%TO.P,J2,34,34*%
%TO.N,GND*%
X166251100Y-97103600D03*
%TO.P,J2,36,36*%
%TO.N,/RX1_N*%
X166751100Y-97103600D03*
%TO.P,J2,38,38*%
%TO.N,/RX1_P*%
X167251100Y-97103600D03*
%TO.P,J2,40,40*%
%TO.N,GND*%
X167751100Y-97103600D03*
%TO.P,J2,42,42*%
%TO.N,/TX0_N*%
X168251100Y-97103600D03*
%TO.P,J2,44,44*%
%TO.N,/TX0_P*%
X168751100Y-97103600D03*
%TO.P,J2,46,46*%
%TO.N,GND*%
X169251100Y-97103600D03*
%TO.P,J2,48,48*%
%TO.N,/RX0_N*%
X169751100Y-97103600D03*
%TO.P,J2,50,50*%
%TO.N,/RX0_P*%
X170251100Y-97103600D03*
%TO.P,J2,52,52*%
%TO.N,GND*%
X170751100Y-97103600D03*
%TO.P,J2,54,54*%
%TO.N,/REFCLK_N*%
X171251100Y-97103600D03*
%TO.P,J2,56,56*%
%TO.N,/REFCLK_P*%
X171751100Y-97103600D03*
%TO.P,J2,58,58*%
%TO.N,GND*%
X172251100Y-97103600D03*
%TO.P,J2,68,68*%
%TO.N,unconnected-(J2-Pad68)*%
X174751100Y-97103600D03*
%TO.P,J2,70,70*%
%TO.N,GND*%
X175251100Y-97103600D03*
%TO.P,J2,72,72*%
X175751100Y-97103600D03*
%TO.P,J2,74,74*%
X176251100Y-97103600D03*
%TD*%
D14*
%TO.N,GND*%
X170776100Y-66878600D03*
X173276100Y-64378600D03*
X105776100Y-41878600D03*
X178276100Y-54378600D03*
X85776100Y-22128600D03*
X162629100Y-88151600D03*
X112026100Y-22128600D03*
X95776100Y-46878600D03*
X179526100Y-118878600D03*
X188276100Y-94378600D03*
X70776100Y-26378600D03*
X100776100Y-66878600D03*
X189361886Y-46964386D03*
X155296100Y-75558600D03*
X118276100Y-64378600D03*
X133276100Y-49378600D03*
X123276100Y-118878600D03*
X127296100Y-77058600D03*
X180776100Y-96878600D03*
X85776100Y-81878600D03*
X93276100Y-114378600D03*
X162776100Y-21378600D03*
X104526100Y-118878600D03*
X151296100Y-77058600D03*
X70776100Y-32378600D03*
X123296100Y-87558600D03*
X83276100Y-114378600D03*
X170776100Y-51878600D03*
X165457100Y-90979600D03*
X173276100Y-59378600D03*
X73276100Y-109378600D03*
X153296100Y-84558600D03*
X188276100Y-99378600D03*
X108276100Y-64378600D03*
X153276100Y-39378600D03*
X80776100Y-106878600D03*
X153276100Y-49378600D03*
X95776100Y-71878600D03*
X168276100Y-49378600D03*
X143276100Y-109378600D03*
X138276100Y-69378600D03*
X168276100Y-114378600D03*
X98276100Y-114378600D03*
X113276100Y-49378600D03*
X145776100Y-61878600D03*
X70776100Y-46378600D03*
X143276100Y-104378600D03*
X166526100Y-21378600D03*
X117296100Y-84558600D03*
X73276100Y-104378600D03*
X103276100Y-44378600D03*
X131296100Y-81558600D03*
X151526100Y-21378600D03*
X167771100Y-92163600D03*
X190776100Y-116378600D03*
X125296100Y-77058600D03*
X103276100Y-114378600D03*
X87776100Y-21378600D03*
X88276100Y-84378600D03*
X110776100Y-96878600D03*
X115776100Y-96878600D03*
X83276100Y-74378600D03*
X170756100Y-90288600D03*
X90776100Y-66878600D03*
X95276100Y-118128600D03*
X70776100Y-66378600D03*
X135776100Y-41878600D03*
X180776100Y-116378600D03*
X161538100Y-82800600D03*
X110776100Y-41878600D03*
X187361885Y-46964386D03*
X155776100Y-31878600D03*
X121296100Y-83058600D03*
X188276100Y-89378600D03*
X167771100Y-94163600D03*
X98276100Y-99378600D03*
X185776100Y-66878600D03*
X190776100Y-74378600D03*
X167064100Y-90456600D03*
X148276100Y-44378600D03*
X143296100Y-86058600D03*
X160776100Y-56878600D03*
X123276100Y-39378600D03*
X85776100Y-61878600D03*
X115776100Y-111878600D03*
X190776100Y-104378600D03*
X125776100Y-96878600D03*
X140776100Y-41878600D03*
X70776100Y-54378600D03*
X180776100Y-71878600D03*
X125776100Y-116378600D03*
X130776100Y-96878600D03*
X73276100Y-69378600D03*
X103276100Y-99378600D03*
X135296100Y-83058600D03*
X103276100Y-39378600D03*
X109296100Y-81558600D03*
X153276100Y-24378600D03*
X170276100Y-118128600D03*
X149296100Y-84558600D03*
X118276100Y-99378600D03*
X119526100Y-22128600D03*
X160776100Y-46878600D03*
X158276100Y-114378600D03*
X70776100Y-106378600D03*
X118276100Y-44378600D03*
X147296100Y-86058600D03*
X147296100Y-87558600D03*
X113276100Y-99378600D03*
X95776100Y-111878600D03*
X125296100Y-86058600D03*
X133276100Y-34378600D03*
X188276100Y-114378600D03*
X70776100Y-48378600D03*
X80776100Y-86878600D03*
X145776100Y-71878600D03*
X70776100Y-72378600D03*
X70776100Y-30378600D03*
X113296100Y-75558600D03*
X145776100Y-56878600D03*
X138276100Y-22128600D03*
X70776100Y-98378600D03*
X167437100Y-86589600D03*
X185776100Y-61878600D03*
X144026100Y-118128600D03*
X135296100Y-84558600D03*
X135296100Y-86058600D03*
X70776100Y-78378600D03*
X72526100Y-21378600D03*
X95776100Y-66878600D03*
X190776100Y-58378600D03*
X153296100Y-78558600D03*
X125776100Y-66878600D03*
X150776100Y-116378600D03*
X100776100Y-96878600D03*
X125296100Y-75558600D03*
X119296100Y-83058600D03*
X168276100Y-24378600D03*
X120776100Y-46878600D03*
X74526100Y-118878600D03*
X150776100Y-66878600D03*
X169246100Y-94648600D03*
X95776100Y-91878600D03*
X85776100Y-66878600D03*
X70776100Y-34378600D03*
X148276100Y-99378600D03*
X115296100Y-87558600D03*
X161215100Y-86737600D03*
X153953100Y-90105600D03*
X85776100Y-96878600D03*
X138276100Y-118878600D03*
X178276100Y-41378600D03*
X133276100Y-54378600D03*
X131296100Y-87558600D03*
X155216100Y-84968600D03*
X118276100Y-114378600D03*
X170756100Y-92288600D03*
X100776100Y-51878600D03*
X138276100Y-29378600D03*
X128276100Y-64378600D03*
X131296100Y-84558600D03*
X190776100Y-100378600D03*
X120776100Y-66878600D03*
X115296100Y-77058600D03*
X143276100Y-94378600D03*
X143276100Y-29378600D03*
X163276100Y-29378600D03*
X150776100Y-46878600D03*
X78276100Y-84378600D03*
X119296100Y-81558600D03*
X155276100Y-21378600D03*
X151296100Y-80058600D03*
X148276100Y-114378600D03*
X75776100Y-91878600D03*
X110776100Y-116378600D03*
X83276100Y-79378600D03*
X145296100Y-75558600D03*
X155776100Y-51878600D03*
X166023100Y-85175600D03*
X183276100Y-118878600D03*
X119296100Y-87558600D03*
X159026100Y-21378600D03*
X160124100Y-81386600D03*
X153276100Y-54378600D03*
X153276100Y-29378600D03*
X90776100Y-51878600D03*
X168276100Y-22128600D03*
X131296100Y-77058600D03*
X140776100Y-51878600D03*
X121296100Y-75558600D03*
X163276100Y-39378600D03*
X123276100Y-54378600D03*
X128276100Y-69378600D03*
X157296100Y-77058600D03*
X190776100Y-60378600D03*
X83276100Y-64378600D03*
X108276100Y-99378600D03*
X95776100Y-81878600D03*
X88276100Y-94378600D03*
X85776100Y-91878600D03*
X84026100Y-118128600D03*
X157337100Y-87089600D03*
X147296100Y-83058600D03*
X133296100Y-80058600D03*
X160776100Y-118878600D03*
X70776100Y-44378600D03*
X113276100Y-64378600D03*
X170756100Y-94288600D03*
X163276100Y-34378600D03*
X130776100Y-71878600D03*
X100776100Y-118878600D03*
X83276100Y-104378600D03*
X143276100Y-64378600D03*
X158187100Y-85809600D03*
X159026100Y-118128600D03*
X125776100Y-56878600D03*
X80776100Y-96878600D03*
X147296100Y-84558600D03*
X93276100Y-24378600D03*
X150776100Y-71878600D03*
X158276100Y-59378600D03*
X160776100Y-22128600D03*
X133296100Y-77058600D03*
X131296100Y-89058600D03*
X160256100Y-94658600D03*
X88276100Y-114378600D03*
X113276100Y-39378600D03*
X117296100Y-83058600D03*
X158953100Y-78105600D03*
X133276100Y-64378600D03*
X113276100Y-94378600D03*
X73276100Y-44378600D03*
X190776100Y-54378600D03*
X73276100Y-89378600D03*
X129296100Y-89058600D03*
X190776100Y-86378600D03*
X115776100Y-71878600D03*
X156417100Y-88299600D03*
X93276100Y-49378600D03*
X190776100Y-114378600D03*
X168276100Y-74378600D03*
X103276100Y-54378600D03*
X145296100Y-81558600D03*
X190776100Y-88378600D03*
X108276100Y-104378600D03*
X88276100Y-79378600D03*
X188276100Y-84378600D03*
X95776100Y-86878600D03*
X158580100Y-81972600D03*
X111296100Y-86058600D03*
X99026100Y-118128600D03*
X150776100Y-91878600D03*
X128276100Y-39378600D03*
X80776100Y-76878600D03*
X145776100Y-41878600D03*
X155776100Y-46878600D03*
X99026100Y-21378600D03*
X93276100Y-89378600D03*
X118276100Y-94378600D03*
X170776100Y-71878600D03*
X175776100Y-81878600D03*
X190776100Y-66378600D03*
X143296100Y-77058600D03*
X76526100Y-118128600D03*
X138276100Y-99378600D03*
X165776100Y-31878600D03*
X119526100Y-118878600D03*
X145776100Y-101878600D03*
X117296100Y-81558600D03*
X169246100Y-92648600D03*
X115296100Y-86058600D03*
X75776100Y-71878600D03*
X174026100Y-118128600D03*
X135296100Y-77058600D03*
X103276100Y-24378600D03*
X170776100Y-36878600D03*
X129296100Y-87558600D03*
X189026100Y-118128600D03*
X70776100Y-116378600D03*
X148276100Y-64378600D03*
X145296100Y-84558600D03*
X180776100Y-56878600D03*
X123276100Y-99378600D03*
X109296100Y-75558600D03*
X147296100Y-80058600D03*
X123276100Y-34378600D03*
X185776100Y-111878600D03*
X157026100Y-118878600D03*
X173276100Y-34378600D03*
X164366100Y-85628600D03*
X90776100Y-56878600D03*
X70776100Y-56378600D03*
X113276100Y-69378600D03*
X120776100Y-96878600D03*
X164609100Y-83761600D03*
X109296100Y-86058600D03*
X113276100Y-44378600D03*
X70776100Y-92378600D03*
X98276100Y-44378600D03*
X153296100Y-83058600D03*
X160638461Y-88284503D03*
X183276100Y-89378600D03*
X70776100Y-114378600D03*
X118276100Y-54378600D03*
X108276100Y-109378600D03*
X142026100Y-22128600D03*
X151296100Y-78558600D03*
X108276100Y-54378600D03*
X156247100Y-90239600D03*
X190776100Y-80378600D03*
X149526100Y-118878600D03*
X180776100Y-101878600D03*
X170776100Y-111878600D03*
X145296100Y-86058600D03*
X159601100Y-87223600D03*
X145776100Y-51878600D03*
X127296100Y-86058600D03*
X141296100Y-83058600D03*
X153276100Y-94378600D03*
X144026100Y-21378600D03*
X100776100Y-56878600D03*
X115776100Y-91878600D03*
X73276100Y-64378600D03*
X160776100Y-116378600D03*
X102776100Y-118128600D03*
X145776100Y-66878600D03*
X145776100Y-106878600D03*
X167590100Y-84612600D03*
X83276100Y-84378600D03*
X178276100Y-45378600D03*
X123276100Y-59378600D03*
X145296100Y-77058600D03*
X139296100Y-83058600D03*
X118276100Y-39378600D03*
X135776100Y-66878600D03*
X70776100Y-110378600D03*
X83276100Y-24378600D03*
X175776100Y-31878600D03*
X173276100Y-24378600D03*
X98276100Y-104378600D03*
X159075100Y-93067600D03*
X157296100Y-78558600D03*
X78276100Y-22128600D03*
X153276100Y-104378600D03*
X76526100Y-21378600D03*
X145296100Y-80058600D03*
X85776100Y-101878600D03*
X183276100Y-69378600D03*
X138276100Y-114378600D03*
X175776100Y-22128600D03*
X158276100Y-64378600D03*
X158276100Y-44378600D03*
X137296100Y-75558600D03*
X119296100Y-75558600D03*
X100776100Y-116378600D03*
X190776100Y-90378600D03*
X170776100Y-41878600D03*
X149296100Y-75558600D03*
X130776100Y-56878600D03*
X190776100Y-64378600D03*
X162822100Y-86214600D03*
X185776100Y-51878600D03*
X145776100Y-118878600D03*
X73276100Y-94378600D03*
X161408100Y-84800600D03*
X123296100Y-81558600D03*
X153276100Y-99378600D03*
X70776100Y-74378600D03*
X139296100Y-84558600D03*
X168276100Y-29378600D03*
X168276100Y-34378600D03*
X120776100Y-41878600D03*
X155776100Y-56878600D03*
X93276100Y-22128600D03*
X183276100Y-74378600D03*
X158276100Y-34378600D03*
X125776100Y-71878600D03*
X158276100Y-69378600D03*
X149296100Y-86058600D03*
X93276100Y-94378600D03*
X83276100Y-69378600D03*
X111296100Y-83058600D03*
X115776100Y-66878600D03*
X119296100Y-80058600D03*
X157026100Y-22128600D03*
X90776100Y-81878600D03*
X95776100Y-56878600D03*
X117296100Y-80058600D03*
X103276100Y-59378600D03*
X175776100Y-66878600D03*
X70776100Y-104378600D03*
X187026100Y-118878600D03*
X170776100Y-61878600D03*
X90776100Y-46878600D03*
X158276100Y-39378600D03*
X143276100Y-49378600D03*
X88276100Y-49378600D03*
X123276100Y-69378600D03*
X160776100Y-41878600D03*
X161579100Y-91331600D03*
X121296100Y-87558600D03*
X170776100Y-76878600D03*
X148276100Y-29378600D03*
X70776100Y-70378600D03*
X123296100Y-83058600D03*
X190776100Y-112378600D03*
X133276100Y-59378600D03*
X115296100Y-81558600D03*
X73276100Y-99378600D03*
X78276100Y-24378600D03*
X120776100Y-56878600D03*
X183276100Y-99378600D03*
X143276100Y-39378600D03*
X136526100Y-118128600D03*
X135776100Y-101878600D03*
X70776100Y-100378600D03*
X70776100Y-84378600D03*
X109296100Y-83058600D03*
X160367100Y-79519600D03*
X139296100Y-81558600D03*
X121296100Y-77058600D03*
X170276100Y-21378600D03*
X105776100Y-66878600D03*
X137296100Y-80058600D03*
X155003100Y-86885600D03*
X75776100Y-101878600D03*
X133276100Y-109378600D03*
X172246100Y-92768600D03*
X111296100Y-78558600D03*
X73276100Y-74378600D03*
X165776100Y-66878600D03*
X145296100Y-78558600D03*
X95776100Y-106878600D03*
X128276100Y-59378600D03*
X113296100Y-83058600D03*
X70776100Y-102378600D03*
X185361886Y-46964386D03*
X118276100Y-49378600D03*
X178276100Y-59378600D03*
X109296100Y-77058600D03*
X93276100Y-59378600D03*
X164043100Y-89565600D03*
X153296100Y-77058600D03*
X175776100Y-51878600D03*
X180776100Y-61878600D03*
X110776100Y-111878600D03*
X93276100Y-74378600D03*
X143276100Y-54378600D03*
X164550100Y-92172600D03*
X151296100Y-75558600D03*
X164236100Y-87628600D03*
X70776100Y-88378600D03*
X78276100Y-64378600D03*
X125296100Y-83058600D03*
X110276100Y-21378600D03*
X127296100Y-78558600D03*
X148276100Y-39378600D03*
X175776100Y-41878600D03*
X143296100Y-83058600D03*
X159106100Y-76128600D03*
X105776100Y-106878600D03*
X123276100Y-64378600D03*
X161722100Y-89344600D03*
X113296100Y-77058600D03*
X120776100Y-51878600D03*
X143296100Y-75558600D03*
X133296100Y-89058600D03*
X170776100Y-81878600D03*
X175776100Y-111878600D03*
X163276100Y-109378600D03*
X123276100Y-94378600D03*
X117296100Y-86058600D03*
X85776100Y-111878600D03*
X145296100Y-89058600D03*
X70776100Y-36378600D03*
X90776100Y-61878600D03*
X70776100Y-68378600D03*
X190776100Y-50378600D03*
X128276100Y-54378600D03*
X139296100Y-77058600D03*
X115776100Y-41878600D03*
X113276100Y-104378600D03*
X70776100Y-86378600D03*
X121296100Y-86058600D03*
X105776100Y-101878600D03*
X75776100Y-111878600D03*
X153296100Y-80058600D03*
X131296100Y-83058600D03*
X103276100Y-104378600D03*
X117296100Y-77058600D03*
X148276100Y-54378600D03*
X74526100Y-22128600D03*
X82026100Y-22128600D03*
X169246100Y-90648600D03*
X166246100Y-92678600D03*
X148276100Y-49378600D03*
X137296100Y-77058600D03*
X130776100Y-106878600D03*
X190776100Y-106378600D03*
X80776100Y-116378600D03*
X145776100Y-111878600D03*
X133276100Y-29378600D03*
X188276100Y-74378600D03*
X166526100Y-118128600D03*
X98276100Y-24378600D03*
X70776100Y-96378600D03*
X121296100Y-89058600D03*
X115776100Y-106878600D03*
X141296100Y-78558600D03*
X110776100Y-101878600D03*
X115776100Y-101878600D03*
X119296100Y-89058600D03*
X175776100Y-116378600D03*
X127296100Y-89058600D03*
X178276100Y-23378600D03*
X165776100Y-51878600D03*
X140776100Y-71878600D03*
X173276100Y-114378600D03*
X111296100Y-87558600D03*
X158276100Y-29378600D03*
X141296100Y-87558600D03*
X130776100Y-116378600D03*
X168276100Y-118878600D03*
X138276100Y-44378600D03*
X70776100Y-94378600D03*
X188276100Y-54378600D03*
X70776100Y-80378600D03*
X111296100Y-81558600D03*
X70776100Y-42378600D03*
X148276100Y-104378600D03*
X113296100Y-87558600D03*
X163276100Y-59378600D03*
X155296100Y-78558600D03*
X137296100Y-87558600D03*
X175776100Y-118878600D03*
X138276100Y-24378600D03*
X159994100Y-83386600D03*
X112026100Y-118878600D03*
X190776100Y-62378600D03*
X149296100Y-81558600D03*
X111296100Y-75558600D03*
X141296100Y-84558600D03*
X165776100Y-116378600D03*
X141296100Y-81558600D03*
X73276100Y-79378600D03*
X100776100Y-41878600D03*
X78276100Y-74378600D03*
X80276100Y-118128600D03*
X135296100Y-80058600D03*
X93276100Y-99378600D03*
X128276100Y-114378600D03*
X125296100Y-81558600D03*
X164762100Y-81784600D03*
X117776100Y-118128600D03*
X111296100Y-77058600D03*
X85776100Y-116378600D03*
X183361885Y-46964386D03*
X157296100Y-75558600D03*
X125296100Y-78558600D03*
X91526100Y-21378600D03*
X80276100Y-21378600D03*
X138276100Y-109378600D03*
X128276100Y-104378600D03*
X83276100Y-109378600D03*
X90776100Y-101878600D03*
X106526100Y-118128600D03*
X178276100Y-49378600D03*
X137296100Y-84558600D03*
X113276100Y-114378600D03*
X88276100Y-69378600D03*
X178276100Y-89378600D03*
X120776100Y-116378600D03*
X123276100Y-104378600D03*
X140276100Y-21378600D03*
X190776100Y-108378600D03*
X95776100Y-101878600D03*
X125276100Y-21378600D03*
X91526100Y-118128600D03*
X130776100Y-101878600D03*
X75776100Y-61878600D03*
X90776100Y-71878600D03*
X121296100Y-81558600D03*
X70776100Y-28378600D03*
X121296100Y-80058600D03*
X158276100Y-24378600D03*
X133296100Y-86058600D03*
X178276100Y-39378600D03*
X173276100Y-44378600D03*
X166176100Y-83198600D03*
X93276100Y-44378600D03*
X75776100Y-96878600D03*
X178276100Y-27378600D03*
X85776100Y-56878600D03*
X123296100Y-75558600D03*
X78276100Y-79378600D03*
X145296100Y-83058600D03*
X83276100Y-94378600D03*
X179361885Y-46964386D03*
X165776100Y-111878600D03*
X129296100Y-78558600D03*
X148276100Y-109378600D03*
X160776100Y-61878600D03*
X131296100Y-80058600D03*
X125776100Y-111878600D03*
X153276100Y-44378600D03*
X75776100Y-66878600D03*
X138276100Y-59378600D03*
X188276100Y-49378600D03*
X143296100Y-87558600D03*
X183276100Y-104378600D03*
X190776100Y-84378600D03*
X102776100Y-21378600D03*
X90776100Y-96878600D03*
X175776100Y-26878600D03*
X185776100Y-96878600D03*
X103276100Y-109378600D03*
X155296100Y-77058600D03*
X175776100Y-36878600D03*
X190776100Y-82378600D03*
X166246100Y-94678600D03*
X135296100Y-89058600D03*
X85776100Y-118878600D03*
X181526100Y-118128600D03*
X83276100Y-44378600D03*
X138276100Y-34378600D03*
X123276100Y-22128600D03*
X95776100Y-51878600D03*
X157831100Y-89713600D03*
X70776100Y-38378600D03*
X114026100Y-21378600D03*
X161934100Y-78956600D03*
X115776100Y-51878600D03*
X150776100Y-101878600D03*
X78276100Y-114378600D03*
X73276100Y-39378600D03*
X153276100Y-109378600D03*
X115776100Y-22128600D03*
X123296100Y-80058600D03*
X93276100Y-109378600D03*
X149296100Y-89058600D03*
X138276100Y-104378600D03*
X175776100Y-91878600D03*
X88276100Y-59378600D03*
X163256100Y-94718600D03*
X190776100Y-70378600D03*
X140276100Y-118128600D03*
X133276100Y-114378600D03*
X88276100Y-64378600D03*
X138276100Y-39378600D03*
X115296100Y-83058600D03*
X73276100Y-59378600D03*
X155776100Y-41878600D03*
X145776100Y-22128600D03*
X185776100Y-76878600D03*
X90776100Y-41878600D03*
X143296100Y-89058600D03*
X131296100Y-75558600D03*
X137296100Y-83058600D03*
X111296100Y-84558600D03*
X133296100Y-81558600D03*
X110776100Y-71878600D03*
X190776100Y-102378600D03*
X117296100Y-87558600D03*
X125776100Y-61878600D03*
X173276100Y-109378600D03*
X163276100Y-44378600D03*
X133276100Y-104378600D03*
X103276100Y-49378600D03*
X114026100Y-118128600D03*
X131296100Y-78558600D03*
X140776100Y-101878600D03*
X129296100Y-80058600D03*
X133276100Y-24378600D03*
X163276100Y-69378600D03*
X88276100Y-74378600D03*
X139296100Y-80058600D03*
X151296100Y-81558600D03*
X120776100Y-61878600D03*
X190776100Y-94378600D03*
X155276100Y-118128600D03*
X103276100Y-94378600D03*
X70776100Y-58378600D03*
X139296100Y-89058600D03*
X162952100Y-84214600D03*
X95776100Y-76878600D03*
X143276100Y-34378600D03*
X121296100Y-84558600D03*
X165776100Y-56878600D03*
X115296100Y-80058600D03*
X190776100Y-48378600D03*
X155296100Y-83058600D03*
X183276100Y-49378600D03*
X113276100Y-54378600D03*
X149296100Y-87558600D03*
X134526100Y-22128600D03*
X100776100Y-61878600D03*
X170776100Y-46878600D03*
X109296100Y-78558600D03*
X150776100Y-41878600D03*
X125776100Y-106878600D03*
X118276100Y-109378600D03*
X123296100Y-84558600D03*
X133296100Y-75558600D03*
X150776100Y-31878600D03*
X190776100Y-72378600D03*
X140776100Y-46878600D03*
X113296100Y-80058600D03*
X140776100Y-91878600D03*
X150776100Y-106878600D03*
X109296100Y-84558600D03*
X143276100Y-44378600D03*
X108276100Y-59378600D03*
X162776100Y-118128600D03*
X113296100Y-84558600D03*
X149296100Y-78558600D03*
X153296100Y-81558600D03*
X133276100Y-39378600D03*
X173276100Y-74378600D03*
X129296100Y-77058600D03*
X149296100Y-80058600D03*
X111296100Y-89058600D03*
X105776100Y-56878600D03*
X178276100Y-37378600D03*
X133276100Y-99378600D03*
X147296100Y-78558600D03*
X148276100Y-34378600D03*
X155776100Y-71878600D03*
X83276100Y-49378600D03*
X163276100Y-24378600D03*
X75776100Y-81878600D03*
X150776100Y-56878600D03*
X90776100Y-86878600D03*
X148276100Y-69378600D03*
X115776100Y-56878600D03*
X90776100Y-111878600D03*
X185776100Y-106878600D03*
X115776100Y-46878600D03*
X180776100Y-91878600D03*
X190776100Y-96378600D03*
X155776100Y-61878600D03*
X164756100Y-94158600D03*
X188276100Y-109378600D03*
X137296100Y-78558600D03*
X185776100Y-101878600D03*
X127296100Y-84558600D03*
X175776100Y-71878600D03*
X80776100Y-71878600D03*
X138276100Y-94378600D03*
X98276100Y-109378600D03*
X80776100Y-111878600D03*
X135296100Y-75558600D03*
X70776100Y-64378600D03*
X168221502Y-89492714D03*
X85776100Y-51878600D03*
X111296100Y-80058600D03*
X130776100Y-111878600D03*
X141296100Y-80058600D03*
X183276100Y-59378600D03*
X125776100Y-51878600D03*
X178276100Y-84378600D03*
X75776100Y-86878600D03*
X165776100Y-61878600D03*
X129296100Y-83058600D03*
X178276100Y-74378600D03*
X140776100Y-56878600D03*
X180776100Y-66878600D03*
X178276100Y-79378600D03*
X190776100Y-68378600D03*
X78276100Y-109378600D03*
X188276100Y-69378600D03*
X170776100Y-31878600D03*
X135776100Y-91878600D03*
X143276100Y-69378600D03*
X154833100Y-88825600D03*
X170776100Y-116378600D03*
X117776100Y-21378600D03*
X85776100Y-106878600D03*
X110776100Y-106878600D03*
X125296100Y-84558600D03*
X149526100Y-22128600D03*
X148276100Y-24378600D03*
X143296100Y-80058600D03*
X127296100Y-75558600D03*
X139296100Y-78558600D03*
X115776100Y-61878600D03*
X83276100Y-99378600D03*
X133276100Y-69378600D03*
X125296100Y-80058600D03*
X123296100Y-89058600D03*
X141296100Y-86058600D03*
X147776100Y-21378600D03*
X136526100Y-21378600D03*
X98276100Y-54378600D03*
X105776100Y-96878600D03*
X173276100Y-69378600D03*
X178276100Y-35378600D03*
X95776100Y-116378600D03*
X135776100Y-116378600D03*
X128276100Y-44378600D03*
X110776100Y-51878600D03*
X139296100Y-87558600D03*
X127026100Y-118878600D03*
X113296100Y-81558600D03*
X143276100Y-59378600D03*
X178276100Y-109378600D03*
X133296100Y-87558600D03*
X115296100Y-84558600D03*
X134526100Y-118878600D03*
X172246100Y-94768600D03*
X129296100Y-84558600D03*
X121296100Y-78558600D03*
X174026100Y-21378600D03*
X180776100Y-111878600D03*
X172246100Y-90768600D03*
X169004100Y-86026600D03*
X183276100Y-109378600D03*
X98276100Y-49378600D03*
X155296100Y-81558600D03*
X78276100Y-104378600D03*
X120776100Y-106878600D03*
X151526100Y-118128600D03*
X178276100Y-25378600D03*
X150776100Y-51878600D03*
X123296100Y-77058600D03*
X150776100Y-61878600D03*
X158276100Y-49378600D03*
X115296100Y-89058600D03*
X70776100Y-60378600D03*
X78276100Y-69378600D03*
X121526100Y-21378600D03*
X141296100Y-75558600D03*
X123276100Y-44378600D03*
X139296100Y-86058600D03*
X175776100Y-46878600D03*
X178276100Y-43378600D03*
X85776100Y-86878600D03*
X108276100Y-39378600D03*
X160776100Y-51878600D03*
X151296100Y-84558600D03*
X110776100Y-56878600D03*
X185776100Y-116378600D03*
X78276100Y-59378600D03*
X133296100Y-83058600D03*
X135776100Y-96878600D03*
X73276100Y-24378600D03*
X170026100Y-89128600D03*
X153296100Y-87558600D03*
X83276100Y-59378600D03*
X188276100Y-104378600D03*
X130776100Y-41878600D03*
X95776100Y-96878600D03*
X168276100Y-79378600D03*
X90776100Y-76878600D03*
X97026100Y-118878600D03*
X130776100Y-22128600D03*
X110776100Y-61878600D03*
X95776100Y-41878600D03*
X108276100Y-118878600D03*
X135776100Y-46878600D03*
X129026100Y-21378600D03*
X113276100Y-109378600D03*
X160165100Y-89917600D03*
X100776100Y-106878600D03*
X143276100Y-114378600D03*
X172026100Y-22128600D03*
X160659100Y-92541600D03*
X109296100Y-89058600D03*
X88276100Y-44378600D03*
X178276100Y-31378600D03*
X168276100Y-59378600D03*
X150776100Y-96878600D03*
X83276100Y-89378600D03*
X165776100Y-76878600D03*
X109296100Y-87558600D03*
X163276100Y-74378600D03*
X123276100Y-49378600D03*
X105776100Y-46878600D03*
X110276100Y-118128600D03*
X130776100Y-66878600D03*
X165776100Y-26878600D03*
X180776100Y-86878600D03*
X149296100Y-77058600D03*
X73276100Y-34378600D03*
X183276100Y-64378600D03*
X168276100Y-69378600D03*
X167194100Y-88456600D03*
X160520100Y-77542600D03*
X82026100Y-118878600D03*
X100776100Y-101878600D03*
X113276100Y-59378600D03*
X93276100Y-54378600D03*
X153296100Y-86058600D03*
X147776100Y-118128600D03*
X185776100Y-56878600D03*
X80776100Y-56878600D03*
X70776100Y-52378600D03*
X123276100Y-109378600D03*
X140776100Y-111878600D03*
X88276100Y-24378600D03*
X118276100Y-104378600D03*
X148276100Y-59378600D03*
X105776100Y-116378600D03*
X105776100Y-61878600D03*
X164526100Y-118878600D03*
X125296100Y-89058600D03*
X130776100Y-46878600D03*
X151296100Y-86058600D03*
X155776100Y-111878600D03*
X175776100Y-76878600D03*
X140776100Y-61878600D03*
X138276100Y-54378600D03*
X127296100Y-87558600D03*
X137296100Y-89058600D03*
X119296100Y-86058600D03*
X173276100Y-39378600D03*
X80776100Y-66878600D03*
X98276100Y-64378600D03*
X156781100Y-92933600D03*
X121526100Y-118128600D03*
X88276100Y-104378600D03*
X153276100Y-69378600D03*
X173276100Y-54378600D03*
X130776100Y-118878600D03*
X157166100Y-80558600D03*
X130776100Y-61878600D03*
X180776100Y-51878600D03*
X177776100Y-21378600D03*
X155776100Y-116378600D03*
X135296100Y-81558600D03*
X185776100Y-86878600D03*
X113296100Y-86058600D03*
X158387100Y-83909600D03*
X143296100Y-81558600D03*
X160776100Y-111878600D03*
X147296100Y-77058600D03*
X105776100Y-111878600D03*
X173276100Y-79378600D03*
X85776100Y-71878600D03*
X183276100Y-54378600D03*
X73276100Y-114378600D03*
X140776100Y-31878600D03*
X138276100Y-64378600D03*
X156259248Y-86004306D03*
X141296100Y-77058600D03*
X123296100Y-78558600D03*
X125776100Y-101878600D03*
X177776100Y-118128600D03*
X98276100Y-39378600D03*
X93276100Y-104378600D03*
X190776100Y-56378600D03*
X127296100Y-81558600D03*
X120776100Y-91878600D03*
X93276100Y-118878600D03*
X170776100Y-26878600D03*
X125776100Y-91878600D03*
X135776100Y-31878600D03*
X163276100Y-54378600D03*
X188276100Y-59378600D03*
X142026100Y-118878600D03*
X135776100Y-106878600D03*
X78276100Y-99378600D03*
X90776100Y-116378600D03*
X163136100Y-90758600D03*
X170418100Y-87440600D03*
X129026100Y-118128600D03*
X155296100Y-80058600D03*
X125276100Y-118128600D03*
X115776100Y-118878600D03*
X85776100Y-76878600D03*
X127026100Y-22128600D03*
X93276100Y-64378600D03*
X70776100Y-62378600D03*
X183276100Y-84378600D03*
X185776100Y-71878600D03*
X156973100Y-82495600D03*
X165650100Y-89042600D03*
X161746100Y-94168600D03*
X125776100Y-41878600D03*
X88276100Y-54378600D03*
X135776100Y-56878600D03*
X158195100Y-94347600D03*
X153276100Y-64378600D03*
X80776100Y-81878600D03*
X145776100Y-31878600D03*
X135776100Y-61878600D03*
X145776100Y-96878600D03*
X123276100Y-114378600D03*
X137296100Y-86058600D03*
X135776100Y-71878600D03*
X180776100Y-81878600D03*
X168276100Y-54378600D03*
X80776100Y-61878600D03*
X120776100Y-111878600D03*
X70776100Y-118878600D03*
X155776100Y-66878600D03*
X118276100Y-24378600D03*
X135296100Y-78558600D03*
X185776100Y-91878600D03*
X119296100Y-78558600D03*
X150776100Y-111878600D03*
X88276100Y-89378600D03*
X140776100Y-96878600D03*
X115776100Y-116378600D03*
X128276100Y-94378600D03*
X95276100Y-21378600D03*
X178276100Y-33378600D03*
X108276100Y-22128600D03*
X190776100Y-52378600D03*
X143276100Y-99378600D03*
X133276100Y-44378600D03*
X115296100Y-78558600D03*
X123276100Y-24378600D03*
X178276100Y-64378600D03*
X108276100Y-44378600D03*
X85776100Y-46878600D03*
X129296100Y-86058600D03*
X190776100Y-118878600D03*
X113276100Y-24378600D03*
X93276100Y-69378600D03*
X70776100Y-22128600D03*
X161781100Y-80933600D03*
X108276100Y-49378600D03*
X78276100Y-44378600D03*
X160776100Y-71878600D03*
X103276100Y-64378600D03*
X120776100Y-101878600D03*
X105776100Y-51878600D03*
X90776100Y-106878600D03*
X90776100Y-91878600D03*
X127296100Y-83058600D03*
X128276100Y-24378600D03*
X153276100Y-34378600D03*
X129296100Y-75558600D03*
X117296100Y-75558600D03*
X159245100Y-91127600D03*
X185276100Y-118128600D03*
X153276100Y-114378600D03*
X73276100Y-54378600D03*
X113296100Y-78558600D03*
X168276100Y-109378600D03*
X100776100Y-22128600D03*
X85776100Y-41878600D03*
X170776100Y-56878600D03*
X140776100Y-66878600D03*
X98276100Y-59378600D03*
X72526100Y-118128600D03*
X118276100Y-59378600D03*
X110776100Y-66878600D03*
X127296100Y-80058600D03*
X183276100Y-114378600D03*
X153276100Y-22128600D03*
X73276100Y-49378600D03*
X160776100Y-31878600D03*
X178276100Y-114378600D03*
X145776100Y-91878600D03*
X175776100Y-56878600D03*
X183276100Y-94378600D03*
X119296100Y-84558600D03*
X190776100Y-98378600D03*
X148276100Y-94378600D03*
X123296100Y-86058600D03*
X128276100Y-49378600D03*
X181361886Y-46964386D03*
X143296100Y-78558600D03*
X80776100Y-101878600D03*
X117296100Y-89058600D03*
X153296100Y-75558600D03*
X165780100Y-87042600D03*
X135776100Y-111878600D03*
X75776100Y-76878600D03*
X172026100Y-118878600D03*
X133276100Y-94378600D03*
X108276100Y-24378600D03*
X151296100Y-83058600D03*
X165776100Y-71878600D03*
X139296100Y-75558600D03*
X171832100Y-88854600D03*
X88276100Y-99378600D03*
X163195100Y-82347600D03*
X163276100Y-114378600D03*
X168851100Y-88003600D03*
X137296100Y-81558600D03*
X75776100Y-56878600D03*
X153276100Y-59378600D03*
X125776100Y-46878600D03*
X163348100Y-80370600D03*
X153276100Y-118878600D03*
X118276100Y-69378600D03*
X159801100Y-85323600D03*
X147296100Y-81558600D03*
X70776100Y-82378600D03*
X132776100Y-118128600D03*
X73276100Y-29378600D03*
X80776100Y-51878600D03*
X129296100Y-81558600D03*
X115296100Y-75558600D03*
X190776100Y-76378600D03*
X156773100Y-84395600D03*
X160776100Y-26878600D03*
X135296100Y-87558600D03*
X78276100Y-54378600D03*
X168276100Y-64378600D03*
X89526100Y-22128600D03*
X128276100Y-34378600D03*
X141296100Y-89058600D03*
X149296100Y-83058600D03*
X190776100Y-92378600D03*
X84026100Y-21378600D03*
X108276100Y-114378600D03*
X100776100Y-111878600D03*
X178276100Y-69378600D03*
X175776100Y-86878600D03*
X133296100Y-78558600D03*
X75776100Y-46878600D03*
X151296100Y-89058600D03*
X70776100Y-112378600D03*
X93276100Y-79378600D03*
X89526100Y-118878600D03*
X173276100Y-84378600D03*
X145776100Y-116378600D03*
X100776100Y-46878600D03*
X160776100Y-66878600D03*
X173276100Y-29378600D03*
X180776100Y-76878600D03*
X110776100Y-91878600D03*
X120776100Y-71878600D03*
X190776100Y-110378600D03*
X128276100Y-109378600D03*
X135776100Y-51878600D03*
X164526100Y-22128600D03*
X88276100Y-109378600D03*
X93276100Y-39378600D03*
X133296100Y-84558600D03*
X70776100Y-40378600D03*
X151296100Y-87558600D03*
X145296100Y-87558600D03*
X147296100Y-75558600D03*
X70776100Y-90378600D03*
X165776100Y-46878600D03*
X163276100Y-49378600D03*
X78276100Y-118878600D03*
X106526100Y-21378600D03*
X152878282Y-89131229D03*
X132776100Y-21378600D03*
X188276100Y-64378600D03*
X87776100Y-118128600D03*
X113296100Y-89058600D03*
X145776100Y-46878600D03*
X104526100Y-22128600D03*
X75776100Y-116378600D03*
X98276100Y-94378600D03*
X128276100Y-99378600D03*
X162993100Y-92745600D03*
X190776100Y-78378600D03*
X175776100Y-61878600D03*
X130776100Y-51878600D03*
X70776100Y-24378600D03*
X158276100Y-109378600D03*
X110776100Y-46878600D03*
X155367100Y-91519600D03*
X75776100Y-106878600D03*
X109296100Y-80058600D03*
X143296100Y-84558600D03*
X140776100Y-116378600D03*
X138276100Y-49378600D03*
X140776100Y-106878600D03*
X70776100Y-108378600D03*
X70776100Y-76378600D03*
X75776100Y-51878600D03*
X158751100Y-88503600D03*
X147296100Y-89058600D03*
X131296100Y-86058600D03*
X108276100Y-94378600D03*
X70776100Y-50378600D03*
X178276100Y-29378600D03*
X73276100Y-84378600D03*
X158710100Y-79972600D03*
X93276100Y-84378600D03*
X143276100Y-24378600D03*
X125296100Y-87558600D03*
X117296100Y-78558600D03*
X157661100Y-91653600D03*
X119296100Y-77058600D03*
X163276100Y-64378600D03*
X158276100Y-54378600D03*
X83276100Y-54378600D03*
X180776100Y-106878600D03*
X97026100Y-22128600D03*
X95776100Y-61878600D03*
%TO.N,/PERST#*%
X110296100Y-74558600D03*
X173246100Y-93768600D03*
%TD*%
D15*
%TO.N,GND*%
X176251100Y-97103600D02*
X176251100Y-95541100D01*
X175751100Y-97103600D02*
X175751100Y-95541100D01*
X107188600Y-71553600D02*
X108751100Y-71553600D01*
X107188600Y-83053600D02*
X108751100Y-83053600D01*
X161751100Y-97103600D02*
X161751100Y-95541100D01*
X160251100Y-97103600D02*
X160251100Y-95541100D01*
X158251100Y-97103600D02*
X158251100Y-95541100D01*
X158751100Y-97103600D02*
X158751100Y-95541100D01*
X107188600Y-84553600D02*
X108751100Y-84553600D01*
X170751100Y-97103600D02*
X170751100Y-95541100D01*
X107188600Y-75553600D02*
X108751100Y-75553600D01*
X107188600Y-81553600D02*
X108751100Y-81553600D01*
X163251100Y-97103600D02*
X163251100Y-95541100D01*
X107188600Y-80053600D02*
X108751100Y-80053600D01*
X107188600Y-71053600D02*
X108751100Y-71053600D01*
X166251100Y-97103600D02*
X166251100Y-95541100D01*
X107188600Y-87553600D02*
X108751100Y-87553600D01*
X169251100Y-97103600D02*
X169251100Y-95541100D01*
X175251100Y-97103600D02*
X175251100Y-95541100D01*
X107188600Y-89053600D02*
X108751100Y-89053600D01*
X164751100Y-97103600D02*
X164751100Y-95541100D01*
X107188600Y-89553600D02*
X108751100Y-89553600D01*
X107188600Y-72053600D02*
X108751100Y-72053600D01*
X167751100Y-97103600D02*
X167751100Y-95541100D01*
X107188600Y-78553600D02*
X108751100Y-78553600D01*
X107188600Y-86053600D02*
X108751100Y-86053600D01*
X107188600Y-77053600D02*
X108751100Y-77053600D01*
X172251100Y-97103600D02*
X172251100Y-95541100D01*
D16*
%TO.N,/RX1_P*%
X167164950Y-95142449D02*
X167251100Y-95228599D01*
X109063601Y-80553600D02*
X109149751Y-80639750D01*
X109149751Y-80639750D02*
X156418970Y-80639750D01*
X156418970Y-80639750D02*
X167164950Y-91385730D01*
X167251100Y-95228599D02*
X167251100Y-97103600D01*
X167164950Y-91385730D02*
X167164950Y-95142449D01*
X107188600Y-80553600D02*
X109063601Y-80553600D01*
%TO.N,/RX2_P*%
X164164950Y-95142449D02*
X164251100Y-95228599D01*
X164251100Y-95228599D02*
X164251100Y-97103600D01*
X107188600Y-83553600D02*
X109063601Y-83553600D01*
X155168970Y-83639750D02*
X164164950Y-92635730D01*
X164164950Y-92635730D02*
X164164950Y-95142449D01*
X109063601Y-83553600D02*
X109149751Y-83639750D01*
X109149751Y-83639750D02*
X155168970Y-83639750D01*
%TO.N,/RX0_N*%
X169751100Y-95228599D02*
X169751100Y-97103600D01*
X110859453Y-77967450D02*
X110962357Y-77967450D01*
X110962357Y-77967450D02*
X157533230Y-77967450D01*
X109063601Y-78053600D02*
X109149751Y-77967450D01*
X157533230Y-77967450D02*
X169837250Y-90271470D01*
X109149751Y-77967450D02*
X109659453Y-77967450D01*
X169837250Y-90271470D02*
X169837250Y-95142449D01*
X169837250Y-95142449D02*
X169751100Y-95228599D01*
X110134949Y-78442946D02*
X110259453Y-78442946D01*
X110734949Y-77967450D02*
X110859453Y-77967450D01*
X107188600Y-78053600D02*
X109063601Y-78053600D01*
X110259453Y-78442946D02*
G75*
G03*
X110497246Y-78205198I47J237746D01*
G01*
X110497201Y-78205198D02*
G75*
G02*
X110734949Y-77967501I237699J-2D01*
G01*
X109897201Y-78205198D02*
G75*
G03*
X110134949Y-78442899I237699J-2D01*
G01*
X109659453Y-77967450D02*
G75*
G02*
X109897250Y-78205198I47J-237750D01*
G01*
%TO.N,/REFCLK_P*%
X171664950Y-89510730D02*
X171664950Y-95142449D01*
X171751100Y-95228599D02*
X171751100Y-97103600D01*
X109149751Y-76139750D02*
X158293970Y-76139750D01*
X109063601Y-76053600D02*
X109149751Y-76139750D01*
X107188600Y-76053600D02*
X109063601Y-76053600D01*
X171664950Y-95142449D02*
X171751100Y-95228599D01*
X158293970Y-76139750D02*
X171664950Y-89510730D01*
%TO.N,/TX2_N*%
X109063601Y-85553600D02*
X109149751Y-85467450D01*
X109149751Y-85467450D02*
X109657384Y-85467450D01*
X162337250Y-95142449D02*
X162251100Y-95228599D01*
X162251100Y-95228599D02*
X162251100Y-97103600D01*
X154433230Y-85467450D02*
X162337250Y-93371470D01*
X110132950Y-85943016D02*
X110257384Y-85943016D01*
X162337250Y-93371470D02*
X162337250Y-95142449D01*
X110732950Y-85467450D02*
X110857384Y-85467450D01*
X110857384Y-85467450D02*
X110997935Y-85467450D01*
X110997935Y-85467450D02*
X154433230Y-85467450D01*
X107188600Y-85553600D02*
X109063601Y-85553600D01*
X110257384Y-85943016D02*
G75*
G03*
X110495216Y-85705233I16J237816D01*
G01*
X110495167Y-85705233D02*
G75*
G02*
X110732950Y-85467467I237733J33D01*
G01*
X109895167Y-85705233D02*
G75*
G03*
X110132950Y-85942933I237733J33D01*
G01*
X109657384Y-85467450D02*
G75*
G02*
X109895150Y-85705233I16J-237750D01*
G01*
%TO.N,/TX0_P*%
X168751100Y-95228599D02*
X168751100Y-97103600D01*
X168664950Y-90760730D02*
X168664950Y-95142449D01*
X107188600Y-79053600D02*
X109063601Y-79053600D01*
X109063601Y-79053600D02*
X109149751Y-79139750D01*
X157043970Y-79139750D02*
X168664950Y-90760730D01*
X168664950Y-95142449D02*
X168751100Y-95228599D01*
X109149751Y-79139750D02*
X157043970Y-79139750D01*
%TO.N,/TX1_N*%
X109149751Y-82467450D02*
X109643085Y-82467450D01*
X110718649Y-82467450D02*
X110843085Y-82467450D01*
X110893611Y-82467450D02*
X155658230Y-82467450D01*
X165337250Y-95142449D02*
X165251100Y-95228599D01*
X107188600Y-82553600D02*
X109063601Y-82553600D01*
X110843085Y-82467450D02*
X110893611Y-82467450D01*
X110118649Y-82943014D02*
X110243085Y-82943014D01*
X165337250Y-92146470D02*
X165337250Y-95142449D01*
X165251100Y-95228599D02*
X165251100Y-97103600D01*
X109063601Y-82553600D02*
X109149751Y-82467450D01*
X155658230Y-82467450D02*
X165337250Y-92146470D01*
X109643085Y-82467450D02*
G75*
G02*
X109880850Y-82705232I15J-237750D01*
G01*
X110243085Y-82943014D02*
G75*
G03*
X110480914Y-82705232I15J237814D01*
G01*
X110480867Y-82705232D02*
G75*
G02*
X110718649Y-82467467I237733J32D01*
G01*
X109880867Y-82705232D02*
G75*
G03*
X110118649Y-82942933I237733J32D01*
G01*
%TO.N,/TX0_N*%
X109063601Y-79553600D02*
X109149751Y-79467450D01*
X107188600Y-79553600D02*
X109063601Y-79553600D01*
X156908230Y-79467450D02*
X168337250Y-90896470D01*
X168337250Y-95142449D02*
X168251100Y-95228599D01*
X168337250Y-90896470D02*
X168337250Y-95142449D01*
X109149751Y-79467450D02*
X109636538Y-79467450D01*
X110712182Y-79467450D02*
X110836538Y-79467450D01*
X110112182Y-79943094D02*
X110236538Y-79943094D01*
X110903432Y-79467450D02*
X156908230Y-79467450D01*
X168251100Y-95228599D02*
X168251100Y-97103600D01*
X110836538Y-79467450D02*
X110903432Y-79467450D01*
X109874360Y-79705272D02*
G75*
G03*
X110112182Y-79943140I237840J-28D01*
G01*
X110474360Y-79705272D02*
G75*
G02*
X110712182Y-79467460I237840J-28D01*
G01*
X110236538Y-79943094D02*
G75*
G03*
X110474294Y-79705272I-38J237794D01*
G01*
X109636538Y-79467450D02*
G75*
G02*
X109874350Y-79705272I-38J-237850D01*
G01*
%TO.N,/RX3_N*%
X109149751Y-86967450D02*
X109671359Y-86967450D01*
X160837250Y-93996470D02*
X160837250Y-95142449D01*
X160837250Y-95142449D02*
X160751100Y-95228599D01*
X109063601Y-87053600D02*
X109149751Y-86967450D01*
X107188600Y-87053600D02*
X109063601Y-87053600D01*
X160751100Y-95228599D02*
X160751100Y-97103600D01*
X110746925Y-86967450D02*
X110871359Y-86967450D01*
X153808230Y-86967450D02*
X160837250Y-93996470D01*
X110871359Y-86967450D02*
X111187049Y-86967450D01*
X111187049Y-86967450D02*
X153808230Y-86967450D01*
X110146925Y-87443016D02*
X110271359Y-87443016D01*
X109909142Y-87205233D02*
G75*
G03*
X110146925Y-87442958I237758J33D01*
G01*
X110271359Y-87443016D02*
G75*
G03*
X110509216Y-87205233I41J237816D01*
G01*
X110509142Y-87205233D02*
G75*
G02*
X110746925Y-86967442I237758J33D01*
G01*
X109671359Y-86967450D02*
G75*
G02*
X109909150Y-87205233I41J-237750D01*
G01*
%TO.N,/TX2_P*%
X162664950Y-93235730D02*
X162664950Y-95142449D01*
X162751100Y-95228599D02*
X162751100Y-97103600D01*
X107188600Y-85053600D02*
X109063601Y-85053600D01*
X162664950Y-95142449D02*
X162751100Y-95228599D01*
X109063601Y-85053600D02*
X109149751Y-85139750D01*
X109149751Y-85139750D02*
X154568970Y-85139750D01*
X154568970Y-85139750D02*
X162664950Y-93235730D01*
D17*
%TO.N,/PERST#*%
X173246100Y-93768600D02*
X173246100Y-88848600D01*
X173246100Y-88848600D02*
X158956100Y-74558600D01*
X158956100Y-74558600D02*
X110296100Y-74558600D01*
D16*
%TO.N,/RX0_P*%
X107188600Y-77553600D02*
X109063601Y-77553600D01*
X170251100Y-95228599D02*
X170251100Y-97103600D01*
X170164950Y-95142449D02*
X170251100Y-95228599D01*
X109063601Y-77553600D02*
X109149751Y-77639750D01*
X109149751Y-77639750D02*
X157668970Y-77639750D01*
X170164950Y-90135730D02*
X170164950Y-95142449D01*
X157668970Y-77639750D02*
X170164950Y-90135730D01*
%TO.N,/TX3_N*%
X159337250Y-95142449D02*
X159251100Y-95228599D01*
X159337250Y-94621470D02*
X159337250Y-95142449D01*
X107188600Y-88553600D02*
X109063601Y-88553600D01*
X110877906Y-88467450D02*
X110974263Y-88467450D01*
X110153550Y-88943094D02*
X110277906Y-88943094D01*
X109063601Y-88553600D02*
X109149751Y-88467450D01*
X153183230Y-88467450D02*
X159337250Y-94621470D01*
X159251100Y-95228599D02*
X159251100Y-97103600D01*
X110974263Y-88467450D02*
X153183230Y-88467450D01*
X109149751Y-88467450D02*
X109677906Y-88467450D01*
X110753550Y-88467450D02*
X110877906Y-88467450D01*
X109677906Y-88467450D02*
G75*
G02*
X109915750Y-88705272I-6J-237850D01*
G01*
X110515728Y-88705272D02*
G75*
G02*
X110753550Y-88467528I237772J-28D01*
G01*
X110277906Y-88943094D02*
G75*
G03*
X110515694Y-88705272I-6J237794D01*
G01*
X109915728Y-88705272D02*
G75*
G03*
X110153550Y-88943072I237772J-28D01*
G01*
%TO.N,/TX3_P*%
X153318970Y-88139750D02*
X159664950Y-94485730D01*
X159751100Y-95228599D02*
X159751100Y-97103600D01*
X159664950Y-95142449D02*
X159751100Y-95228599D01*
X107188600Y-88053600D02*
X109063601Y-88053600D01*
X109149751Y-88139750D02*
X153318970Y-88139750D01*
X109063601Y-88053600D02*
X109149751Y-88139750D01*
X159664950Y-94485730D02*
X159664950Y-95142449D01*
%TO.N,/RX3_P*%
X153943970Y-86639750D02*
X161164950Y-93860730D01*
X161164950Y-95142449D02*
X161251100Y-95228599D01*
X161164950Y-93860730D02*
X161164950Y-95142449D01*
X109063601Y-86553600D02*
X109149751Y-86639750D01*
X107188600Y-86553600D02*
X109063601Y-86553600D01*
X109149751Y-86639750D02*
X153943970Y-86639750D01*
X161251100Y-95228599D02*
X161251100Y-97103600D01*
%TO.N,/TX1_P*%
X107188600Y-82053600D02*
X109063601Y-82053600D01*
X165751100Y-95228599D02*
X165751100Y-97103600D01*
X165664950Y-92010730D02*
X165664950Y-95142449D01*
X165664950Y-95142449D02*
X165751100Y-95228599D01*
X155793970Y-82139750D02*
X165664950Y-92010730D01*
X109063601Y-82053600D02*
X109149751Y-82139750D01*
X109149751Y-82139750D02*
X155793970Y-82139750D01*
%TO.N,/REFCLK_N*%
X107188600Y-76553600D02*
X109063601Y-76553600D01*
X110890120Y-76467450D02*
X111074865Y-76467450D01*
X171337250Y-95142449D02*
X171251100Y-95228599D01*
X110165750Y-76943080D02*
X110290120Y-76943080D01*
X171337250Y-89646470D02*
X171337250Y-95142449D01*
X111074865Y-76467450D02*
X158158230Y-76467450D01*
X109063601Y-76553600D02*
X109149751Y-76467450D01*
X158158230Y-76467450D02*
X171337250Y-89646470D01*
X110765750Y-76467450D02*
X110890120Y-76467450D01*
X109149751Y-76467450D02*
X109690120Y-76467450D01*
X171251100Y-95228599D02*
X171251100Y-97103600D01*
X109927935Y-76705265D02*
G75*
G03*
X110165750Y-76943065I237765J-35D01*
G01*
X110527935Y-76705265D02*
G75*
G02*
X110765750Y-76467535I237765J-35D01*
G01*
X109690120Y-76467450D02*
G75*
G02*
X109927950Y-76705265I-20J-237850D01*
G01*
X110290120Y-76943080D02*
G75*
G03*
X110527880Y-76705265I-20J237780D01*
G01*
%TO.N,/RX1_N*%
X110911183Y-80967450D02*
X156283230Y-80967450D01*
X166837250Y-95142449D02*
X166751100Y-95228599D01*
X107188600Y-81053600D02*
X109063601Y-81053600D01*
X110710050Y-80967450D02*
X110834468Y-80967450D01*
X110110050Y-81443032D02*
X110234468Y-81443032D01*
X110834468Y-80967450D02*
X110911183Y-80967450D01*
X156283230Y-80967450D02*
X166837250Y-91521470D01*
X166837250Y-91521470D02*
X166837250Y-95142449D01*
X109063601Y-81053600D02*
X109149751Y-80967450D01*
X109149751Y-80967450D02*
X109634468Y-80967450D01*
X166751100Y-95228599D02*
X166751100Y-97103600D01*
X109634468Y-80967450D02*
G75*
G02*
X109872250Y-81205241I32J-237750D01*
G01*
X110472259Y-81205241D02*
G75*
G02*
X110710050Y-80967459I237741J41D01*
G01*
X110234468Y-81443032D02*
G75*
G03*
X110472332Y-81205241I32J237832D01*
G01*
X109872259Y-81205241D02*
G75*
G03*
X110110050Y-81442941I237741J41D01*
G01*
%TO.N,/RX2_N*%
X107188600Y-84053600D02*
X109063601Y-84053600D01*
X109063601Y-84053600D02*
X109149751Y-83967450D01*
X163837250Y-95142449D02*
X163751100Y-95228599D01*
X110952536Y-83967450D02*
X155033230Y-83967450D01*
X110731747Y-83967450D02*
X110856179Y-83967450D01*
X155033230Y-83967450D02*
X163837250Y-92771470D01*
X109149751Y-83967450D02*
X109656179Y-83967450D01*
X163751100Y-95228599D02*
X163751100Y-97103600D01*
X163837250Y-92771470D02*
X163837250Y-95142449D01*
X110131747Y-84443018D02*
X110256179Y-84443018D01*
X110856179Y-83967450D02*
X110952536Y-83967450D01*
X109656179Y-83967450D02*
G75*
G02*
X109893950Y-84205234I21J-237750D01*
G01*
X109893963Y-84205234D02*
G75*
G03*
X110131747Y-84442937I237737J34D01*
G01*
X110256179Y-84443018D02*
G75*
G03*
X110494018Y-84205234I21J237818D01*
G01*
X110493963Y-84205234D02*
G75*
G02*
X110731747Y-83967463I237737J34D01*
G01*
%TD*%
%TA.AperFunction,Conductor*%
%TO.N,GND*%
G36*
X153704492Y-87279263D02*
G01*
X153716496Y-87289515D01*
X160515185Y-94088204D01*
X160543411Y-94143602D01*
X160544650Y-94159339D01*
X160544650Y-94979580D01*
X160531429Y-95029432D01*
X160524734Y-95041165D01*
X160516961Y-95048939D01*
X160478440Y-95115659D01*
X160478440Y-95115660D01*
X160475080Y-95128196D01*
X160475080Y-95128198D01*
X160458500Y-95190074D01*
X160458500Y-95627130D01*
X160447354Y-95673155D01*
X160414954Y-95736128D01*
X160410927Y-95740123D01*
X160409147Y-95745992D01*
X160389021Y-95776112D01*
X160387825Y-95779001D01*
X160384456Y-95782944D01*
X160383519Y-95784348D01*
X160383352Y-95784236D01*
X160347445Y-95826277D01*
X160294884Y-95841100D01*
X160207315Y-95841100D01*
X160148184Y-95821887D01*
X160121336Y-95792730D01*
X160114120Y-95780851D01*
X160113177Y-95776110D01*
X160091849Y-95744190D01*
X160090721Y-95742333D01*
X160086438Y-95724186D01*
X160080931Y-95706031D01*
X160073165Y-95698265D01*
X160044939Y-95642867D01*
X160043700Y-95627130D01*
X160043700Y-95190078D01*
X160043699Y-95190072D01*
X160023761Y-95115663D01*
X160023760Y-95115661D01*
X160023760Y-95115660D01*
X159985238Y-95048938D01*
X159985235Y-95048935D01*
X159985234Y-95048933D01*
X159981222Y-95043704D01*
X159982818Y-95042478D01*
X159958789Y-94995317D01*
X159957550Y-94979580D01*
X159957550Y-94447209D01*
X159957549Y-94447205D01*
X159945221Y-94401196D01*
X159945220Y-94401193D01*
X159937610Y-94372790D01*
X159920589Y-94343309D01*
X159899089Y-94306070D01*
X153498630Y-87905611D01*
X153465270Y-87886350D01*
X153431909Y-87867089D01*
X153409138Y-87860988D01*
X153394700Y-87857120D01*
X153357494Y-87847150D01*
X153357492Y-87847150D01*
X110601472Y-87847150D01*
X110542341Y-87827937D01*
X110505796Y-87777637D01*
X110505796Y-87715463D01*
X110542341Y-87665163D01*
X110550559Y-87660253D01*
X110550490Y-87660144D01*
X110555262Y-87657145D01*
X110555272Y-87657141D01*
X110648723Y-87582640D01*
X110723252Y-87489213D01*
X110775123Y-87381543D01*
X110775123Y-87381539D01*
X110775126Y-87381533D01*
X110785012Y-87338250D01*
X110816908Y-87284881D01*
X110874083Y-87260454D01*
X110883086Y-87260050D01*
X111148527Y-87260050D01*
X153645361Y-87260050D01*
X153704492Y-87279263D01*
G37*
%TD.AperFunction*%
%TA.AperFunction,Conductor*%
G36*
X154329492Y-85779263D02*
G01*
X154341496Y-85789515D01*
X162015185Y-93463203D01*
X162043411Y-93518601D01*
X162044650Y-93534338D01*
X162044650Y-94979580D01*
X162031429Y-95029432D01*
X162024734Y-95041165D01*
X162016961Y-95048939D01*
X161978440Y-95115659D01*
X161978440Y-95115660D01*
X161975080Y-95128196D01*
X161975080Y-95128198D01*
X161958500Y-95190074D01*
X161958500Y-95627130D01*
X161947354Y-95673155D01*
X161914954Y-95736128D01*
X161910927Y-95740123D01*
X161909147Y-95745992D01*
X161889021Y-95776112D01*
X161887825Y-95779001D01*
X161884456Y-95782944D01*
X161883519Y-95784348D01*
X161883352Y-95784236D01*
X161847445Y-95826277D01*
X161794884Y-95841100D01*
X161707315Y-95841100D01*
X161648184Y-95821887D01*
X161621336Y-95792730D01*
X161614120Y-95780851D01*
X161613177Y-95776110D01*
X161591849Y-95744190D01*
X161590721Y-95742333D01*
X161586438Y-95724186D01*
X161580931Y-95706031D01*
X161573165Y-95698265D01*
X161544939Y-95642867D01*
X161543700Y-95627130D01*
X161543700Y-95190078D01*
X161543699Y-95190072D01*
X161523761Y-95115663D01*
X161523760Y-95115661D01*
X161523760Y-95115660D01*
X161485238Y-95048938D01*
X161485235Y-95048935D01*
X161485234Y-95048933D01*
X161481222Y-95043704D01*
X161482818Y-95042478D01*
X161458789Y-94995317D01*
X161457550Y-94979580D01*
X161457550Y-93822209D01*
X161457549Y-93822205D01*
X161437610Y-93747792D01*
X161437610Y-93747790D01*
X161415223Y-93709015D01*
X161399089Y-93681070D01*
X154123630Y-86405611D01*
X154090270Y-86386350D01*
X154056909Y-86367089D01*
X154034138Y-86360988D01*
X154019700Y-86357120D01*
X153982494Y-86347150D01*
X153982492Y-86347150D01*
X110587521Y-86347150D01*
X110528390Y-86327937D01*
X110491845Y-86277637D01*
X110491845Y-86215463D01*
X110528390Y-86165163D01*
X110536599Y-86160258D01*
X110536531Y-86160150D01*
X110541312Y-86157146D01*
X110550341Y-86149947D01*
X110634760Y-86082638D01*
X110709284Y-85989209D01*
X110761150Y-85881540D01*
X110771036Y-85838251D01*
X110802932Y-85784882D01*
X110860106Y-85760454D01*
X110869111Y-85760050D01*
X110959413Y-85760050D01*
X154270361Y-85760050D01*
X154329492Y-85779263D01*
G37*
%TD.AperFunction*%
%TA.AperFunction,Conductor*%
G36*
X154929492Y-84279263D02*
G01*
X154941496Y-84289515D01*
X163515185Y-92863204D01*
X163543411Y-92918602D01*
X163544650Y-92934339D01*
X163544650Y-94979580D01*
X163531429Y-95029432D01*
X163524734Y-95041165D01*
X163516961Y-95048939D01*
X163478440Y-95115659D01*
X163478440Y-95115660D01*
X163475080Y-95128196D01*
X163475080Y-95128198D01*
X163458500Y-95190074D01*
X163458500Y-95627130D01*
X163447354Y-95673155D01*
X163414954Y-95736128D01*
X163410927Y-95740123D01*
X163409147Y-95745992D01*
X163389021Y-95776112D01*
X163387825Y-95779001D01*
X163384456Y-95782944D01*
X163383519Y-95784348D01*
X163383352Y-95784236D01*
X163347445Y-95826277D01*
X163294884Y-95841100D01*
X163207315Y-95841100D01*
X163148184Y-95821887D01*
X163121336Y-95792730D01*
X163114120Y-95780851D01*
X163113177Y-95776110D01*
X163091849Y-95744190D01*
X163090721Y-95742333D01*
X163086438Y-95724186D01*
X163080931Y-95706031D01*
X163073165Y-95698265D01*
X163044939Y-95642867D01*
X163043700Y-95627130D01*
X163043700Y-95190078D01*
X163043699Y-95190072D01*
X163023761Y-95115663D01*
X163023760Y-95115661D01*
X163023760Y-95115660D01*
X162985238Y-95048938D01*
X162985235Y-95048935D01*
X162985234Y-95048933D01*
X162981222Y-95043704D01*
X162982818Y-95042478D01*
X162958789Y-94995317D01*
X162957550Y-94979580D01*
X162957550Y-93197209D01*
X162957549Y-93197205D01*
X162937610Y-93122792D01*
X162937610Y-93122790D01*
X162899088Y-93056069D01*
X154748631Y-84905612D01*
X154748630Y-84905611D01*
X154715270Y-84886350D01*
X154681909Y-84867089D01*
X154659138Y-84860988D01*
X154644700Y-84857120D01*
X154607494Y-84847150D01*
X154607492Y-84847150D01*
X110586311Y-84847150D01*
X110527180Y-84827937D01*
X110490635Y-84777637D01*
X110490635Y-84715463D01*
X110527180Y-84665163D01*
X110535391Y-84660257D01*
X110535323Y-84660148D01*
X110540098Y-84657147D01*
X110540107Y-84657143D01*
X110633553Y-84582640D01*
X110708078Y-84489211D01*
X110759945Y-84381542D01*
X110769832Y-84338250D01*
X110801729Y-84284882D01*
X110858903Y-84260454D01*
X110867907Y-84260050D01*
X110914014Y-84260050D01*
X154870361Y-84260050D01*
X154929492Y-84279263D01*
G37*
%TD.AperFunction*%
%TA.AperFunction,Conductor*%
G36*
X155554492Y-82779263D02*
G01*
X155566496Y-82789515D01*
X165015185Y-92238204D01*
X165043411Y-92293602D01*
X165044650Y-92309339D01*
X165044650Y-94979580D01*
X165031429Y-95029432D01*
X165024734Y-95041165D01*
X165016961Y-95048939D01*
X164978440Y-95115659D01*
X164978440Y-95115660D01*
X164975080Y-95128196D01*
X164975080Y-95128198D01*
X164958500Y-95190074D01*
X164958500Y-95627130D01*
X164947354Y-95673155D01*
X164914954Y-95736128D01*
X164910927Y-95740123D01*
X164909147Y-95745992D01*
X164889021Y-95776112D01*
X164887825Y-95779001D01*
X164884456Y-95782944D01*
X164883519Y-95784348D01*
X164883352Y-95784236D01*
X164847445Y-95826277D01*
X164794884Y-95841100D01*
X164707315Y-95841100D01*
X164648184Y-95821887D01*
X164621336Y-95792730D01*
X164614120Y-95780851D01*
X164613177Y-95776110D01*
X164591849Y-95744190D01*
X164590721Y-95742333D01*
X164586438Y-95724186D01*
X164580931Y-95706031D01*
X164573165Y-95698265D01*
X164544939Y-95642867D01*
X164543700Y-95627130D01*
X164543700Y-95190078D01*
X164543699Y-95190072D01*
X164523761Y-95115663D01*
X164523760Y-95115661D01*
X164523760Y-95115660D01*
X164485238Y-95048938D01*
X164485235Y-95048935D01*
X164485234Y-95048933D01*
X164481222Y-95043704D01*
X164482818Y-95042478D01*
X164458789Y-94995317D01*
X164457550Y-94979580D01*
X164457550Y-92597209D01*
X164457549Y-92597205D01*
X164437610Y-92522791D01*
X164437610Y-92522790D01*
X164399089Y-92456070D01*
X155348630Y-83405611D01*
X155315270Y-83386350D01*
X155281909Y-83367089D01*
X155259138Y-83360988D01*
X155244700Y-83357120D01*
X155207494Y-83347150D01*
X155207492Y-83347150D01*
X110573217Y-83347150D01*
X110514086Y-83327937D01*
X110477541Y-83277637D01*
X110477541Y-83215463D01*
X110514086Y-83165163D01*
X110522307Y-83160251D01*
X110522239Y-83160143D01*
X110527011Y-83157144D01*
X110527018Y-83157141D01*
X110620462Y-83082636D01*
X110694985Y-82989207D01*
X110746851Y-82881538D01*
X110756736Y-82838251D01*
X110788632Y-82784883D01*
X110845806Y-82760454D01*
X110854811Y-82760050D01*
X110855089Y-82760050D01*
X155495361Y-82760050D01*
X155554492Y-82779263D01*
G37*
%TD.AperFunction*%
%TA.AperFunction,Conductor*%
G36*
X156179492Y-81279263D02*
G01*
X156191496Y-81289515D01*
X166515185Y-91613203D01*
X166543411Y-91668601D01*
X166544650Y-91684338D01*
X166544650Y-94979580D01*
X166531429Y-95029432D01*
X166524734Y-95041165D01*
X166516961Y-95048939D01*
X166478440Y-95115659D01*
X166478440Y-95115660D01*
X166475080Y-95128196D01*
X166475080Y-95128198D01*
X166458500Y-95190074D01*
X166458500Y-95627130D01*
X166447354Y-95673155D01*
X166414954Y-95736128D01*
X166410927Y-95740123D01*
X166409147Y-95745992D01*
X166389021Y-95776112D01*
X166387825Y-95779001D01*
X166384456Y-95782944D01*
X166383519Y-95784348D01*
X166383352Y-95784236D01*
X166347445Y-95826277D01*
X166294884Y-95841100D01*
X166207315Y-95841100D01*
X166148184Y-95821887D01*
X166121336Y-95792730D01*
X166114120Y-95780851D01*
X166113177Y-95776110D01*
X166091849Y-95744190D01*
X166090721Y-95742333D01*
X166086438Y-95724186D01*
X166080931Y-95706031D01*
X166073165Y-95698265D01*
X166044939Y-95642867D01*
X166043700Y-95627130D01*
X166043700Y-95190078D01*
X166043699Y-95190072D01*
X166023761Y-95115663D01*
X166023760Y-95115661D01*
X166023760Y-95115660D01*
X165985238Y-95048938D01*
X165985235Y-95048935D01*
X165985234Y-95048933D01*
X165981222Y-95043704D01*
X165982818Y-95042478D01*
X165958789Y-94995317D01*
X165957550Y-94979580D01*
X165957550Y-91972208D01*
X165957549Y-91972205D01*
X165944249Y-91922569D01*
X165944248Y-91922567D01*
X165937610Y-91897790D01*
X165899089Y-91831070D01*
X155973630Y-81905611D01*
X155940270Y-81886350D01*
X155906909Y-81867089D01*
X155884138Y-81860988D01*
X155869700Y-81857120D01*
X155832494Y-81847150D01*
X155832492Y-81847150D01*
X110564608Y-81847150D01*
X110505477Y-81827937D01*
X110468932Y-81777637D01*
X110468932Y-81715463D01*
X110505477Y-81665163D01*
X110513672Y-81660266D01*
X110513603Y-81660156D01*
X110518385Y-81657152D01*
X110518385Y-81657151D01*
X110518387Y-81657151D01*
X110611836Y-81582651D01*
X110686364Y-81489225D01*
X110738236Y-81381558D01*
X110741457Y-81367454D01*
X110748129Y-81338248D01*
X110780027Y-81284880D01*
X110837202Y-81260453D01*
X110846203Y-81260050D01*
X110872661Y-81260050D01*
X156120361Y-81260050D01*
X156179492Y-81279263D01*
G37*
%TD.AperFunction*%
%TA.AperFunction,Conductor*%
G36*
X156804492Y-79779263D02*
G01*
X156816496Y-79789515D01*
X168015185Y-90988204D01*
X168043411Y-91043602D01*
X168044650Y-91059339D01*
X168044650Y-94979580D01*
X168031429Y-95029432D01*
X168024734Y-95041165D01*
X168016961Y-95048939D01*
X167978440Y-95115659D01*
X167978440Y-95115660D01*
X167975080Y-95128196D01*
X167975080Y-95128198D01*
X167958500Y-95190074D01*
X167958500Y-95627130D01*
X167947354Y-95673155D01*
X167914954Y-95736128D01*
X167910927Y-95740123D01*
X167909147Y-95745992D01*
X167889021Y-95776112D01*
X167887825Y-95779001D01*
X167884456Y-95782944D01*
X167883519Y-95784348D01*
X167883352Y-95784236D01*
X167847445Y-95826277D01*
X167794884Y-95841100D01*
X167707315Y-95841100D01*
X167648184Y-95821887D01*
X167621336Y-95792730D01*
X167614120Y-95780851D01*
X167613177Y-95776110D01*
X167591849Y-95744190D01*
X167590721Y-95742333D01*
X167586438Y-95724186D01*
X167580931Y-95706031D01*
X167573165Y-95698265D01*
X167544939Y-95642867D01*
X167543700Y-95627130D01*
X167543700Y-95190078D01*
X167543699Y-95190072D01*
X167523761Y-95115663D01*
X167523760Y-95115661D01*
X167523760Y-95115660D01*
X167485238Y-95048938D01*
X167485235Y-95048935D01*
X167485234Y-95048933D01*
X167481222Y-95043704D01*
X167482818Y-95042478D01*
X167458789Y-94995317D01*
X167457550Y-94979580D01*
X167457550Y-91347209D01*
X167457549Y-91347205D01*
X167437610Y-91272791D01*
X167437610Y-91272790D01*
X167399089Y-91206070D01*
X156598630Y-80405611D01*
X156565270Y-80386350D01*
X156531909Y-80367089D01*
X156509138Y-80360988D01*
X156494700Y-80357120D01*
X156457494Y-80347150D01*
X156457492Y-80347150D01*
X110567008Y-80347150D01*
X110507877Y-80327937D01*
X110471332Y-80277637D01*
X110471332Y-80215463D01*
X110507877Y-80165163D01*
X110515866Y-80160388D01*
X110515788Y-80160263D01*
X110520566Y-80157258D01*
X110520573Y-80157255D01*
X110614018Y-80082713D01*
X110688533Y-79989248D01*
X110740383Y-79881545D01*
X110748446Y-79846199D01*
X110750254Y-79838276D01*
X110782136Y-79784899D01*
X110839305Y-79760456D01*
X110848334Y-79760050D01*
X110864910Y-79760050D01*
X156745361Y-79760050D01*
X156804492Y-79779263D01*
G37*
%TD.AperFunction*%
%TA.AperFunction,Conductor*%
G36*
X157429492Y-78279263D02*
G01*
X157441496Y-78289515D01*
X169515185Y-90363204D01*
X169543411Y-90418602D01*
X169544650Y-90434339D01*
X169544650Y-94979580D01*
X169531429Y-95029432D01*
X169524734Y-95041165D01*
X169516961Y-95048939D01*
X169478440Y-95115659D01*
X169478440Y-95115660D01*
X169475080Y-95128196D01*
X169475080Y-95128198D01*
X169458500Y-95190074D01*
X169458500Y-95627130D01*
X169447354Y-95673155D01*
X169414954Y-95736128D01*
X169410927Y-95740123D01*
X169409147Y-95745992D01*
X169389021Y-95776112D01*
X169387825Y-95779001D01*
X169384456Y-95782944D01*
X169383519Y-95784348D01*
X169383352Y-95784236D01*
X169347445Y-95826277D01*
X169294884Y-95841100D01*
X169207315Y-95841100D01*
X169148184Y-95821887D01*
X169121336Y-95792730D01*
X169114120Y-95780851D01*
X169113177Y-95776110D01*
X169091849Y-95744190D01*
X169090721Y-95742333D01*
X169086438Y-95724186D01*
X169080931Y-95706031D01*
X169073165Y-95698265D01*
X169044939Y-95642867D01*
X169043700Y-95627130D01*
X169043700Y-95190078D01*
X169043699Y-95190072D01*
X169023761Y-95115663D01*
X169023760Y-95115661D01*
X169023760Y-95115660D01*
X168985238Y-95048938D01*
X168985235Y-95048935D01*
X168985234Y-95048933D01*
X168981222Y-95043704D01*
X168982818Y-95042478D01*
X168958789Y-94995317D01*
X168957550Y-94979580D01*
X168957550Y-90722209D01*
X168957549Y-90722203D01*
X168937611Y-90647794D01*
X168937611Y-90647793D01*
X168930997Y-90636337D01*
X168899088Y-90581069D01*
X168844611Y-90526592D01*
X157223630Y-78905611D01*
X157190270Y-78886350D01*
X157156909Y-78867089D01*
X157134138Y-78860988D01*
X157119700Y-78857120D01*
X157082494Y-78847150D01*
X157082492Y-78847150D01*
X110589475Y-78847150D01*
X110530344Y-78827937D01*
X110493799Y-78777637D01*
X110493799Y-78715463D01*
X110530344Y-78665163D01*
X110538642Y-78660205D01*
X110538579Y-78660104D01*
X110543363Y-78657098D01*
X110543363Y-78657097D01*
X110543367Y-78657096D01*
X110636817Y-78582588D01*
X110711342Y-78489152D01*
X110763204Y-78381474D01*
X110772944Y-78338805D01*
X110773068Y-78338263D01*
X110804958Y-78284890D01*
X110862129Y-78260455D01*
X110871145Y-78260050D01*
X110923835Y-78260050D01*
X157370361Y-78260050D01*
X157429492Y-78279263D01*
G37*
%TD.AperFunction*%
%TA.AperFunction,Conductor*%
G36*
X158054492Y-76779263D02*
G01*
X158066496Y-76789515D01*
X171015185Y-89738204D01*
X171043411Y-89793602D01*
X171044650Y-89809339D01*
X171044650Y-94979580D01*
X171031429Y-95029432D01*
X171024734Y-95041165D01*
X171016961Y-95048939D01*
X170978440Y-95115659D01*
X170978440Y-95115660D01*
X170975080Y-95128196D01*
X170975080Y-95128198D01*
X170958500Y-95190074D01*
X170958500Y-95627130D01*
X170947354Y-95673155D01*
X170914954Y-95736128D01*
X170910927Y-95740123D01*
X170909147Y-95745992D01*
X170889021Y-95776112D01*
X170887825Y-95779001D01*
X170884456Y-95782944D01*
X170883519Y-95784348D01*
X170883352Y-95784236D01*
X170847445Y-95826277D01*
X170794884Y-95841100D01*
X170707315Y-95841100D01*
X170648184Y-95821887D01*
X170621336Y-95792730D01*
X170614120Y-95780851D01*
X170613177Y-95776110D01*
X170591849Y-95744190D01*
X170590721Y-95742333D01*
X170586438Y-95724186D01*
X170580931Y-95706031D01*
X170573165Y-95698265D01*
X170544939Y-95642867D01*
X170543700Y-95627130D01*
X170543700Y-95190078D01*
X170543699Y-95190072D01*
X170523761Y-95115663D01*
X170523760Y-95115661D01*
X170523760Y-95115660D01*
X170485238Y-95048938D01*
X170485235Y-95048935D01*
X170485234Y-95048933D01*
X170481222Y-95043704D01*
X170482818Y-95042478D01*
X170458789Y-94995317D01*
X170457550Y-94979580D01*
X170457550Y-90097209D01*
X170457549Y-90097203D01*
X170437611Y-90022794D01*
X170437611Y-90022793D01*
X170437610Y-90022791D01*
X170399088Y-89956069D01*
X170344611Y-89901592D01*
X157848630Y-77405611D01*
X157815270Y-77386350D01*
X157781909Y-77367089D01*
X157759138Y-77360988D01*
X157744700Y-77357120D01*
X157707494Y-77347150D01*
X157707492Y-77347150D01*
X110620552Y-77347150D01*
X110561421Y-77327937D01*
X110524876Y-77277637D01*
X110524876Y-77215463D01*
X110561421Y-77165163D01*
X110569441Y-77160370D01*
X110569363Y-77160246D01*
X110574138Y-77157244D01*
X110574142Y-77157243D01*
X110667591Y-77082704D01*
X110742109Y-76989238D01*
X110793960Y-76881533D01*
X110803826Y-76838275D01*
X110835708Y-76784900D01*
X110892876Y-76760456D01*
X110901907Y-76760050D01*
X111036343Y-76760050D01*
X157995361Y-76760050D01*
X158054492Y-76779263D01*
G37*
%TD.AperFunction*%
%TA.AperFunction,Conductor*%
G36*
X109594270Y-87279263D02*
G01*
X109630815Y-87329563D01*
X109633211Y-87338243D01*
X109633213Y-87338250D01*
X109633214Y-87338251D01*
X109643105Y-87381562D01*
X109694967Y-87489219D01*
X109694978Y-87489241D01*
X109769512Y-87582680D01*
X109862969Y-87657191D01*
X109862972Y-87657193D01*
X109867751Y-87660195D01*
X109866639Y-87661964D01*
X109905248Y-87698869D01*
X109916356Y-87760043D01*
X109889386Y-87816063D01*
X109834639Y-87845531D01*
X109816665Y-87847150D01*
X109312620Y-87847150D01*
X109268059Y-87836742D01*
X109253201Y-87829401D01*
X109243261Y-87819461D01*
X109176541Y-87780940D01*
X109139331Y-87770970D01*
X109129727Y-87768396D01*
X109129724Y-87768395D01*
X109102125Y-87761000D01*
X109102123Y-87761000D01*
X108665070Y-87761000D01*
X108619045Y-87749854D01*
X108556072Y-87717454D01*
X108552076Y-87713426D01*
X108546207Y-87711646D01*
X108516089Y-87691521D01*
X108513202Y-87690326D01*
X108509257Y-87686957D01*
X108507852Y-87686018D01*
X108507963Y-87685851D01*
X108465924Y-87649947D01*
X108451100Y-87597384D01*
X108451100Y-87509815D01*
X108470313Y-87450684D01*
X108499469Y-87423837D01*
X108511349Y-87416619D01*
X108516090Y-87415677D01*
X108548012Y-87394347D01*
X108549865Y-87393222D01*
X108568011Y-87388939D01*
X108586168Y-87383431D01*
X108593935Y-87375665D01*
X108649333Y-87347439D01*
X108665070Y-87346200D01*
X109102121Y-87346200D01*
X109102122Y-87346200D01*
X109102123Y-87346200D01*
X109162295Y-87330077D01*
X109176541Y-87326260D01*
X109243261Y-87287739D01*
X109252001Y-87278998D01*
X109265106Y-87271977D01*
X109281786Y-87268980D01*
X109296883Y-87261289D01*
X109312620Y-87260050D01*
X109535139Y-87260050D01*
X109594270Y-87279263D01*
G37*
%TD.AperFunction*%
%TA.AperFunction,Conductor*%
G36*
X109580271Y-85779263D02*
G01*
X109616816Y-85829563D01*
X109619214Y-85838249D01*
X109629109Y-85881574D01*
X109680987Y-85989254D01*
X109680990Y-85989260D01*
X109755532Y-86082700D01*
X109849000Y-86157210D01*
X109853777Y-86160210D01*
X109852657Y-86161992D01*
X109891234Y-86198859D01*
X109902350Y-86260031D01*
X109875386Y-86316054D01*
X109820642Y-86345529D01*
X109802657Y-86347150D01*
X109312620Y-86347150D01*
X109268059Y-86336742D01*
X109253201Y-86329401D01*
X109243261Y-86319461D01*
X109176541Y-86280940D01*
X109139331Y-86270970D01*
X109129727Y-86268396D01*
X109129724Y-86268395D01*
X109102125Y-86261000D01*
X109102123Y-86261000D01*
X108665070Y-86261000D01*
X108619045Y-86249854D01*
X108556072Y-86217454D01*
X108552076Y-86213426D01*
X108546207Y-86211646D01*
X108516089Y-86191521D01*
X108513202Y-86190326D01*
X108509257Y-86186957D01*
X108507852Y-86186018D01*
X108507963Y-86185851D01*
X108465924Y-86149947D01*
X108451100Y-86097384D01*
X108451100Y-86009815D01*
X108470313Y-85950684D01*
X108499469Y-85923837D01*
X108511349Y-85916619D01*
X108516090Y-85915677D01*
X108548012Y-85894347D01*
X108549865Y-85893222D01*
X108568011Y-85888939D01*
X108586168Y-85883431D01*
X108593935Y-85875665D01*
X108649333Y-85847439D01*
X108665070Y-85846200D01*
X109102121Y-85846200D01*
X109102122Y-85846200D01*
X109102123Y-85846200D01*
X109162295Y-85830077D01*
X109176541Y-85826260D01*
X109243261Y-85787739D01*
X109252001Y-85778998D01*
X109265106Y-85771977D01*
X109281786Y-85768980D01*
X109296883Y-85761289D01*
X109312620Y-85760050D01*
X109521140Y-85760050D01*
X109580271Y-85779263D01*
G37*
%TD.AperFunction*%
%TA.AperFunction,Conductor*%
G36*
X109579069Y-84279263D02*
G01*
X109615614Y-84329563D01*
X109618012Y-84338250D01*
X109627906Y-84381572D01*
X109661203Y-84450684D01*
X109679787Y-84489258D01*
X109679789Y-84489260D01*
X109754325Y-84582695D01*
X109754327Y-84582696D01*
X109754329Y-84582699D01*
X109847796Y-84657210D01*
X109847798Y-84657211D01*
X109852579Y-84660214D01*
X109851458Y-84661998D01*
X109890029Y-84698859D01*
X109901145Y-84760031D01*
X109874181Y-84816054D01*
X109819437Y-84845529D01*
X109801452Y-84847150D01*
X109312620Y-84847150D01*
X109268059Y-84836742D01*
X109253201Y-84829401D01*
X109243261Y-84819461D01*
X109176541Y-84780940D01*
X109139331Y-84770970D01*
X109129727Y-84768396D01*
X109129724Y-84768395D01*
X109102125Y-84761000D01*
X109102123Y-84761000D01*
X108665070Y-84761000D01*
X108619045Y-84749854D01*
X108556072Y-84717454D01*
X108552076Y-84713426D01*
X108546207Y-84711646D01*
X108516089Y-84691521D01*
X108513202Y-84690326D01*
X108509257Y-84686957D01*
X108507852Y-84686018D01*
X108507963Y-84685851D01*
X108465924Y-84649947D01*
X108451100Y-84597384D01*
X108451100Y-84509815D01*
X108470313Y-84450684D01*
X108499469Y-84423837D01*
X108511349Y-84416619D01*
X108516090Y-84415677D01*
X108548012Y-84394347D01*
X108549865Y-84393222D01*
X108568011Y-84388939D01*
X108586168Y-84383431D01*
X108593935Y-84375665D01*
X108649333Y-84347439D01*
X108665070Y-84346200D01*
X109102121Y-84346200D01*
X109102122Y-84346200D01*
X109102123Y-84346200D01*
X109139331Y-84336230D01*
X109176541Y-84326260D01*
X109243261Y-84287739D01*
X109253202Y-84277797D01*
X109268060Y-84270457D01*
X109283227Y-84268246D01*
X109296883Y-84261289D01*
X109312620Y-84260050D01*
X109519938Y-84260050D01*
X109579069Y-84279263D01*
G37*
%TD.AperFunction*%
%TA.AperFunction,Conductor*%
G36*
X109565973Y-82779263D02*
G01*
X109602518Y-82829563D01*
X109604917Y-82838252D01*
X109614809Y-82881567D01*
X109614810Y-82881570D01*
X109666666Y-82989206D01*
X109666690Y-82989255D01*
X109711076Y-83044895D01*
X109741182Y-83082635D01*
X109741232Y-83082697D01*
X109834699Y-83157207D01*
X109834704Y-83157209D01*
X109834705Y-83157210D01*
X109839486Y-83160214D01*
X109838366Y-83161995D01*
X109876940Y-83198862D01*
X109888053Y-83260035D01*
X109861087Y-83316057D01*
X109806343Y-83345530D01*
X109788361Y-83347150D01*
X109312620Y-83347150D01*
X109268059Y-83336742D01*
X109253201Y-83329401D01*
X109243261Y-83319461D01*
X109176541Y-83280940D01*
X109139331Y-83270970D01*
X109129727Y-83268396D01*
X109129724Y-83268395D01*
X109102125Y-83261000D01*
X109102123Y-83261000D01*
X108665070Y-83261000D01*
X108619045Y-83249854D01*
X108556072Y-83217454D01*
X108552076Y-83213426D01*
X108546207Y-83211646D01*
X108516089Y-83191521D01*
X108513202Y-83190326D01*
X108509257Y-83186957D01*
X108507852Y-83186018D01*
X108507963Y-83185851D01*
X108465924Y-83149947D01*
X108451100Y-83097384D01*
X108451100Y-83009815D01*
X108470313Y-82950684D01*
X108499469Y-82923837D01*
X108511349Y-82916619D01*
X108516090Y-82915677D01*
X108548012Y-82894347D01*
X108549865Y-82893222D01*
X108568011Y-82888939D01*
X108586168Y-82883431D01*
X108593935Y-82875665D01*
X108649333Y-82847439D01*
X108665070Y-82846200D01*
X109102121Y-82846200D01*
X109102122Y-82846200D01*
X109102123Y-82846200D01*
X109139331Y-82836230D01*
X109176541Y-82826260D01*
X109243261Y-82787739D01*
X109253202Y-82777797D01*
X109268060Y-82770457D01*
X109283227Y-82768246D01*
X109296883Y-82761289D01*
X109312620Y-82760050D01*
X109506842Y-82760050D01*
X109565973Y-82779263D01*
G37*
%TD.AperFunction*%
%TA.AperFunction,Conductor*%
G36*
X109557354Y-81279263D02*
G01*
X109593899Y-81329563D01*
X109596297Y-81338247D01*
X109606197Y-81381589D01*
X109606198Y-81381592D01*
X109658080Y-81489273D01*
X109658081Y-81489274D01*
X109658082Y-81489276D01*
X109732627Y-81582717D01*
X109826097Y-81657227D01*
X109826102Y-81657229D01*
X109830882Y-81660232D01*
X109829755Y-81662025D01*
X109868299Y-81698868D01*
X109879408Y-81760041D01*
X109852439Y-81816062D01*
X109797692Y-81845531D01*
X109779717Y-81847150D01*
X109312620Y-81847150D01*
X109268059Y-81836742D01*
X109253201Y-81829401D01*
X109243261Y-81819461D01*
X109176541Y-81780940D01*
X109139331Y-81770970D01*
X109129727Y-81768396D01*
X109129724Y-81768395D01*
X109102125Y-81761000D01*
X109102123Y-81761000D01*
X108665070Y-81761000D01*
X108619045Y-81749854D01*
X108556072Y-81717454D01*
X108552076Y-81713426D01*
X108546207Y-81711646D01*
X108516089Y-81691521D01*
X108513202Y-81690326D01*
X108509257Y-81686957D01*
X108507852Y-81686018D01*
X108507963Y-81685851D01*
X108465924Y-81649947D01*
X108451100Y-81597384D01*
X108451100Y-81509815D01*
X108470313Y-81450684D01*
X108499469Y-81423837D01*
X108511349Y-81416619D01*
X108516090Y-81415677D01*
X108548012Y-81394347D01*
X108549865Y-81393222D01*
X108568011Y-81388939D01*
X108586168Y-81383431D01*
X108593935Y-81375665D01*
X108649333Y-81347439D01*
X108665070Y-81346200D01*
X109102121Y-81346200D01*
X109102122Y-81346200D01*
X109102123Y-81346200D01*
X109139331Y-81336230D01*
X109176541Y-81326260D01*
X109243261Y-81287739D01*
X109253202Y-81277797D01*
X109268060Y-81270457D01*
X109283227Y-81268246D01*
X109296883Y-81261289D01*
X109312620Y-81260050D01*
X109498223Y-81260050D01*
X109557354Y-81279263D01*
G37*
%TD.AperFunction*%
%TA.AperFunction,Conductor*%
G36*
X109559566Y-79779263D02*
G01*
X109596111Y-79829563D01*
X109598515Y-79838276D01*
X109608381Y-79881527D01*
X109608382Y-79881530D01*
X109660234Y-79989231D01*
X109734742Y-80082679D01*
X109734745Y-80082682D01*
X109828189Y-80157215D01*
X109832971Y-80160220D01*
X109831853Y-80161997D01*
X109870429Y-80198884D01*
X109881527Y-80260060D01*
X109854547Y-80316075D01*
X109799795Y-80345534D01*
X109781838Y-80347150D01*
X109312620Y-80347150D01*
X109268059Y-80336742D01*
X109253201Y-80329401D01*
X109243261Y-80319461D01*
X109176541Y-80280940D01*
X109139331Y-80270970D01*
X109129727Y-80268396D01*
X109129724Y-80268395D01*
X109102125Y-80261000D01*
X109102123Y-80261000D01*
X108665070Y-80261000D01*
X108619045Y-80249854D01*
X108556072Y-80217454D01*
X108552076Y-80213426D01*
X108546207Y-80211646D01*
X108516089Y-80191521D01*
X108513202Y-80190326D01*
X108509257Y-80186957D01*
X108507852Y-80186018D01*
X108507963Y-80185851D01*
X108465924Y-80149947D01*
X108451100Y-80097384D01*
X108451100Y-80009815D01*
X108470313Y-79950684D01*
X108499469Y-79923837D01*
X108511349Y-79916619D01*
X108516090Y-79915677D01*
X108548012Y-79894347D01*
X108549865Y-79893222D01*
X108568011Y-79888939D01*
X108586168Y-79883431D01*
X108593935Y-79875665D01*
X108649333Y-79847439D01*
X108665070Y-79846200D01*
X109102121Y-79846200D01*
X109102122Y-79846200D01*
X109102123Y-79846200D01*
X109162004Y-79830155D01*
X109176541Y-79826260D01*
X109243261Y-79787739D01*
X109252017Y-79778982D01*
X109265150Y-79771954D01*
X109281807Y-79768970D01*
X109296883Y-79761289D01*
X109312620Y-79760050D01*
X109500435Y-79760050D01*
X109559566Y-79779263D01*
G37*
%TD.AperFunction*%
%TA.AperFunction,Conductor*%
G36*
X109582340Y-78279263D02*
G01*
X109618885Y-78329563D01*
X109621286Y-78338262D01*
X109631153Y-78381488D01*
X109631154Y-78381490D01*
X109683021Y-78489177D01*
X109757553Y-78582622D01*
X109850966Y-78657098D01*
X109851015Y-78657137D01*
X109855797Y-78660141D01*
X109854707Y-78661876D01*
X109893407Y-78698872D01*
X109904514Y-78760046D01*
X109877541Y-78816065D01*
X109822793Y-78845532D01*
X109804823Y-78847150D01*
X109312620Y-78847150D01*
X109268059Y-78836742D01*
X109253201Y-78829401D01*
X109243261Y-78819461D01*
X109176541Y-78780940D01*
X109139331Y-78770970D01*
X109129727Y-78768396D01*
X109129724Y-78768395D01*
X109102125Y-78761000D01*
X109102123Y-78761000D01*
X108665070Y-78761000D01*
X108619045Y-78749854D01*
X108556072Y-78717454D01*
X108552076Y-78713426D01*
X108546207Y-78711646D01*
X108516089Y-78691521D01*
X108513202Y-78690326D01*
X108509257Y-78686957D01*
X108507852Y-78686018D01*
X108507963Y-78685851D01*
X108465924Y-78649947D01*
X108451100Y-78597384D01*
X108451100Y-78509815D01*
X108470313Y-78450684D01*
X108499469Y-78423837D01*
X108511349Y-78416619D01*
X108516090Y-78415677D01*
X108548012Y-78394347D01*
X108549865Y-78393222D01*
X108568011Y-78388939D01*
X108586168Y-78383431D01*
X108593935Y-78375665D01*
X108649333Y-78347439D01*
X108665070Y-78346200D01*
X109102121Y-78346200D01*
X109102122Y-78346200D01*
X109102123Y-78346200D01*
X109139331Y-78336230D01*
X109176541Y-78326260D01*
X109243261Y-78287739D01*
X109253202Y-78277797D01*
X109268060Y-78270457D01*
X109283227Y-78268246D01*
X109296883Y-78261289D01*
X109312620Y-78260050D01*
X109523209Y-78260050D01*
X109582340Y-78279263D01*
G37*
%TD.AperFunction*%
%TA.AperFunction,Conductor*%
G36*
X109613082Y-76779263D02*
G01*
X109649627Y-76829563D01*
X109652031Y-76838274D01*
X109661902Y-76881545D01*
X109713768Y-76989258D01*
X109788302Y-77082718D01*
X109788308Y-77082724D01*
X109881765Y-77157245D01*
X109881773Y-77157251D01*
X109881779Y-77157254D01*
X109886554Y-77160254D01*
X109885420Y-77162059D01*
X109923930Y-77198876D01*
X109935034Y-77260050D01*
X109908060Y-77316068D01*
X109853310Y-77345533D01*
X109835344Y-77347150D01*
X109312620Y-77347150D01*
X109268059Y-77336742D01*
X109253201Y-77329401D01*
X109243261Y-77319461D01*
X109176541Y-77280940D01*
X109139331Y-77270970D01*
X109129727Y-77268396D01*
X109129724Y-77268395D01*
X109102125Y-77261000D01*
X109102123Y-77261000D01*
X108665070Y-77261000D01*
X108619045Y-77249854D01*
X108556072Y-77217454D01*
X108552076Y-77213426D01*
X108546207Y-77211646D01*
X108516089Y-77191521D01*
X108513202Y-77190326D01*
X108509257Y-77186957D01*
X108507852Y-77186018D01*
X108507963Y-77185851D01*
X108465924Y-77149947D01*
X108451100Y-77097384D01*
X108451100Y-77009815D01*
X108470313Y-76950684D01*
X108499469Y-76923837D01*
X108511349Y-76916619D01*
X108516090Y-76915677D01*
X108548012Y-76894347D01*
X108549865Y-76893222D01*
X108568011Y-76888939D01*
X108586168Y-76883431D01*
X108593935Y-76875665D01*
X108649333Y-76847439D01*
X108665070Y-76846200D01*
X109102121Y-76846200D01*
X109102122Y-76846200D01*
X109102123Y-76846200D01*
X109139331Y-76836230D01*
X109176541Y-76826260D01*
X109243261Y-76787739D01*
X109253202Y-76777797D01*
X109268060Y-76770457D01*
X109283227Y-76768246D01*
X109296883Y-76761289D01*
X109312620Y-76760050D01*
X109553951Y-76760050D01*
X109613082Y-76779263D01*
G37*
%TD.AperFunction*%
%TA.AperFunction,Conductor*%
G36*
X178695401Y-20679101D02*
G01*
X178703505Y-20679101D01*
X178743185Y-20679101D01*
X178758922Y-20680339D01*
X178804735Y-20687596D01*
X178834667Y-20697321D01*
X178868859Y-20714742D01*
X178894324Y-20733243D01*
X178921456Y-20760375D01*
X178939957Y-20785840D01*
X178957378Y-20820032D01*
X178967103Y-20849963D01*
X178969332Y-20864034D01*
X178972890Y-20886499D01*
X178974361Y-20895782D01*
X178975600Y-20911521D01*
X178975600Y-45730997D01*
X178975599Y-45731004D01*
X178975599Y-45778598D01*
X178975600Y-45778598D01*
X178975600Y-45857440D01*
X179006363Y-46012098D01*
X179066704Y-46157774D01*
X179066705Y-46157777D01*
X179066706Y-46157778D01*
X179154311Y-46288888D01*
X179265811Y-46400388D01*
X179396921Y-46487993D01*
X179542603Y-46548337D01*
X179697258Y-46579100D01*
X179736538Y-46579100D01*
X191728505Y-46579100D01*
X191768180Y-46579100D01*
X191783916Y-46580338D01*
X191791297Y-46581506D01*
X191822013Y-46586371D01*
X191851945Y-46596097D01*
X191879166Y-46609967D01*
X191904629Y-46628467D01*
X191926232Y-46650070D01*
X191944732Y-46675533D01*
X191958601Y-46702752D01*
X191968327Y-46732686D01*
X191974361Y-46770782D01*
X191975600Y-46786520D01*
X191975600Y-119370679D01*
X191974361Y-119386414D01*
X191974361Y-119386417D01*
X191968327Y-119424513D01*
X191958601Y-119454447D01*
X191944732Y-119481666D01*
X191926232Y-119507129D01*
X191904629Y-119528732D01*
X191879166Y-119547232D01*
X191851947Y-119561101D01*
X191822013Y-119570827D01*
X191783918Y-119576861D01*
X191768180Y-119578100D01*
X70284020Y-119578100D01*
X70268282Y-119576861D01*
X70230186Y-119570827D01*
X70200252Y-119561101D01*
X70173033Y-119547232D01*
X70147570Y-119528732D01*
X70125967Y-119507129D01*
X70107467Y-119481666D01*
X70093598Y-119454447D01*
X70083871Y-119424510D01*
X70077838Y-119386414D01*
X70076600Y-119370679D01*
X70076600Y-91624414D01*
X77423700Y-91624414D01*
X77423700Y-91932785D01*
X77463950Y-92238513D01*
X77463953Y-92238527D01*
X77543761Y-92536377D01*
X77543762Y-92536379D01*
X77661769Y-92821271D01*
X77815951Y-93088323D01*
X77990896Y-93316315D01*
X78884442Y-92422769D01*
X78937067Y-92495202D01*
X79059498Y-92617633D01*
X79131929Y-92670256D01*
X78238383Y-93563802D01*
X78466376Y-93738748D01*
X78733428Y-93892930D01*
X79018320Y-94010937D01*
X79018322Y-94010938D01*
X79316172Y-94090746D01*
X79316186Y-94090749D01*
X79621915Y-94131000D01*
X79930285Y-94131000D01*
X80236013Y-94090749D01*
X80236027Y-94090746D01*
X80533877Y-94010938D01*
X80533879Y-94010937D01*
X80818771Y-93892930D01*
X81085823Y-93738748D01*
X81313816Y-93563803D01*
X80420270Y-92670257D01*
X80492702Y-92617633D01*
X80615133Y-92495202D01*
X80667757Y-92422770D01*
X81561303Y-93316316D01*
X81736248Y-93088323D01*
X81890430Y-92821271D01*
X82008437Y-92536379D01*
X82008438Y-92536377D01*
X82088246Y-92238527D01*
X82088249Y-92238513D01*
X82128500Y-91932785D01*
X82128500Y-91624414D01*
X82088249Y-91318686D01*
X82088246Y-91318672D01*
X82008438Y-91020822D01*
X82008437Y-91020820D01*
X81890430Y-90735928D01*
X81736248Y-90468876D01*
X81561302Y-90240883D01*
X80667756Y-91134428D01*
X80615133Y-91061998D01*
X80492702Y-90939567D01*
X80420269Y-90886941D01*
X81313815Y-89993396D01*
X81085823Y-89818451D01*
X80818771Y-89664269D01*
X80533879Y-89546262D01*
X80533877Y-89546261D01*
X80236027Y-89466453D01*
X80236013Y-89466450D01*
X79930285Y-89426200D01*
X79621915Y-89426200D01*
X79316186Y-89466450D01*
X79316172Y-89466453D01*
X79018322Y-89546261D01*
X79018320Y-89546262D01*
X78733428Y-89664269D01*
X78466376Y-89818451D01*
X78238383Y-89993395D01*
X78238383Y-89993396D01*
X79131929Y-90886942D01*
X79059498Y-90939567D01*
X78937067Y-91061998D01*
X78884442Y-91134429D01*
X77990896Y-90240883D01*
X77990895Y-90240883D01*
X77815951Y-90468876D01*
X77661769Y-90735928D01*
X77543762Y-91020820D01*
X77543761Y-91020822D01*
X77463953Y-91318672D01*
X77463950Y-91318686D01*
X77423700Y-91624414D01*
X70076600Y-91624414D01*
X70076600Y-69274758D01*
X97650600Y-69274758D01*
X97650600Y-91482441D01*
X97681362Y-91637095D01*
X97739975Y-91778599D01*
X97741707Y-91782779D01*
X97773974Y-91831070D01*
X97829310Y-91913887D01*
X97829312Y-91913889D01*
X97940812Y-92025389D01*
X98071922Y-92112994D01*
X98144763Y-92143165D01*
X98217601Y-92173336D01*
X98217602Y-92173336D01*
X98217604Y-92173337D01*
X98372259Y-92204100D01*
X98411538Y-92204100D01*
X109391002Y-92204100D01*
X109391005Y-92204101D01*
X109438600Y-92204101D01*
X109438600Y-92204100D01*
X109517442Y-92204100D01*
X109672097Y-92173337D01*
X109817779Y-92112994D01*
X109948889Y-92025389D01*
X110060389Y-91913889D01*
X110147994Y-91782779D01*
X110208337Y-91637097D01*
X110239100Y-91482442D01*
X110239100Y-91403600D01*
X110239100Y-91356005D01*
X110239100Y-91064038D01*
X110239100Y-90878649D01*
X128738600Y-90878649D01*
X128738600Y-91098550D01*
X128767302Y-91316560D01*
X128767303Y-91316568D01*
X128824216Y-91528972D01*
X128824217Y-91528974D01*
X128908368Y-91732133D01*
X129018314Y-91922565D01*
X129018316Y-91922567D01*
X129018317Y-91922569D01*
X129152183Y-92097026D01*
X129307674Y-92252517D01*
X129381726Y-92309339D01*
X129482134Y-92386385D01*
X129672566Y-92496331D01*
X129875725Y-92580482D01*
X129875727Y-92580483D01*
X129938150Y-92597209D01*
X130088134Y-92637397D01*
X130269814Y-92661316D01*
X130306150Y-92666100D01*
X130306151Y-92666100D01*
X130526050Y-92666100D01*
X130557194Y-92661999D01*
X130744066Y-92637397D01*
X130956472Y-92580483D01*
X131159631Y-92496332D01*
X131350069Y-92386383D01*
X131524526Y-92252517D01*
X131680017Y-92097026D01*
X131813883Y-91922569D01*
X131887182Y-91795610D01*
X131923831Y-91732133D01*
X131981323Y-91593336D01*
X132007983Y-91528972D01*
X132064897Y-91316566D01*
X132093600Y-91098549D01*
X132093600Y-90878651D01*
X132064897Y-90660634D01*
X132027241Y-90520100D01*
X132007983Y-90448227D01*
X132007982Y-90448225D01*
X131923831Y-90245066D01*
X131813885Y-90054634D01*
X131813092Y-90053600D01*
X131680017Y-89880174D01*
X131524526Y-89724683D01*
X131350069Y-89590817D01*
X131350068Y-89590816D01*
X131350065Y-89590814D01*
X131159633Y-89480868D01*
X130956474Y-89396717D01*
X130956472Y-89396716D01*
X130744068Y-89339803D01*
X130744060Y-89339802D01*
X130526050Y-89311100D01*
X130526049Y-89311100D01*
X130306151Y-89311100D01*
X130306150Y-89311100D01*
X130088139Y-89339802D01*
X130088131Y-89339803D01*
X129875727Y-89396716D01*
X129875725Y-89396717D01*
X129672566Y-89480868D01*
X129482134Y-89590814D01*
X129307670Y-89724686D01*
X129152186Y-89880170D01*
X129018314Y-90054634D01*
X128908368Y-90245066D01*
X128824217Y-90448225D01*
X128824216Y-90448227D01*
X128767303Y-90660631D01*
X128767302Y-90660639D01*
X128738600Y-90878649D01*
X110239100Y-90878649D01*
X110239100Y-90714038D01*
X110239100Y-90674758D01*
X110208337Y-90520103D01*
X110147994Y-90374421D01*
X110060389Y-90243311D01*
X109948889Y-90131811D01*
X109817779Y-90044206D01*
X109817780Y-90044206D01*
X109817778Y-90044205D01*
X109817775Y-90044204D01*
X109672099Y-89983863D01*
X109568993Y-89963354D01*
X109517442Y-89953100D01*
X109517441Y-89953100D01*
X108660094Y-89953100D01*
X108600963Y-89933887D01*
X108564418Y-89883587D01*
X108564418Y-89821413D01*
X108576448Y-89796610D01*
X108582157Y-89788065D01*
X108582158Y-89788063D01*
X108591000Y-89743611D01*
X108591000Y-89728600D01*
X108551700Y-89728600D01*
X108536546Y-89723676D01*
X108520613Y-89723676D01*
X108507722Y-89714310D01*
X108492569Y-89709387D01*
X108483203Y-89696496D01*
X108470313Y-89687131D01*
X108465389Y-89671977D01*
X108456024Y-89659087D01*
X108451100Y-89628000D01*
X108451100Y-89479200D01*
X108470313Y-89420069D01*
X108520613Y-89383524D01*
X108551700Y-89378600D01*
X108591000Y-89378600D01*
X108591000Y-89363589D01*
X108582971Y-89323227D01*
X108582971Y-89283973D01*
X108591000Y-89243610D01*
X108591000Y-89228600D01*
X108551700Y-89228600D01*
X108536546Y-89223676D01*
X108520613Y-89223676D01*
X108507722Y-89214310D01*
X108492569Y-89209387D01*
X108483203Y-89196496D01*
X108470313Y-89187131D01*
X108465389Y-89171977D01*
X108456024Y-89159087D01*
X108451100Y-89128000D01*
X108451100Y-89009815D01*
X108470313Y-88950684D01*
X108513206Y-88916871D01*
X108516082Y-88915678D01*
X108516090Y-88915677D01*
X108546207Y-88895553D01*
X108586168Y-88883431D01*
X108593935Y-88875665D01*
X108649333Y-88847439D01*
X108665070Y-88846200D01*
X109102121Y-88846200D01*
X109102122Y-88846200D01*
X109102123Y-88846200D01*
X109162004Y-88830155D01*
X109176541Y-88826260D01*
X109243261Y-88787739D01*
X109252017Y-88778982D01*
X109265150Y-88771954D01*
X109281807Y-88768970D01*
X109296883Y-88761289D01*
X109312620Y-88760050D01*
X109541737Y-88760050D01*
X109600868Y-88779263D01*
X109637413Y-88829563D01*
X109639816Y-88838271D01*
X109649694Y-88881563D01*
X109649695Y-88881566D01*
X109701558Y-88989267D01*
X109701563Y-88989275D01*
X109776093Y-89082730D01*
X109776097Y-89082734D01*
X109776099Y-89082736D01*
X109869570Y-89157265D01*
X109900129Y-89171977D01*
X109977281Y-89209121D01*
X109977282Y-89209121D01*
X109977284Y-89209122D01*
X110093838Y-89235705D01*
X110153602Y-89235694D01*
X110153613Y-89235694D01*
X110226317Y-89235694D01*
X110226320Y-89235695D01*
X110236206Y-89235694D01*
X110236311Y-89235728D01*
X110277913Y-89235727D01*
X110277913Y-89235728D01*
X110337682Y-89235726D01*
X110454220Y-89209122D01*
X110499879Y-89187131D01*
X110561910Y-89157255D01*
X110561911Y-89157253D01*
X110561917Y-89157251D01*
X110655369Y-89082715D01*
X110729892Y-88989252D01*
X110781747Y-88881548D01*
X110791619Y-88838273D01*
X110823503Y-88784898D01*
X110880671Y-88760456D01*
X110889699Y-88760050D01*
X110935741Y-88760050D01*
X153020361Y-88760050D01*
X153079492Y-88779263D01*
X153091496Y-88789515D01*
X159015185Y-94713204D01*
X159018870Y-94720437D01*
X159025437Y-94725208D01*
X159032716Y-94747613D01*
X159043411Y-94768602D01*
X159044650Y-94784339D01*
X159044650Y-94979580D01*
X159025437Y-95038711D01*
X159019253Y-95045950D01*
X159016961Y-95048937D01*
X158978439Y-95115659D01*
X158978440Y-95115659D01*
X158978440Y-95115660D01*
X158973455Y-95134264D01*
X158958500Y-95190074D01*
X158958500Y-95627130D01*
X158947354Y-95673155D01*
X158914954Y-95736128D01*
X158910927Y-95740123D01*
X158909147Y-95745992D01*
X158889021Y-95776112D01*
X158887825Y-95779001D01*
X158884456Y-95782944D01*
X158883519Y-95784348D01*
X158883352Y-95784236D01*
X158847445Y-95826277D01*
X158794884Y-95841100D01*
X158676700Y-95841100D01*
X158617569Y-95821887D01*
X158581024Y-95771587D01*
X158576100Y-95740500D01*
X158576100Y-95701200D01*
X158561087Y-95701200D01*
X158520725Y-95709228D01*
X158481475Y-95709228D01*
X158441113Y-95701200D01*
X158426100Y-95701200D01*
X158426100Y-95740500D01*
X158421176Y-95755654D01*
X158421176Y-95771587D01*
X158411810Y-95784477D01*
X158406887Y-95799631D01*
X158393996Y-95808996D01*
X158384631Y-95821887D01*
X158369477Y-95826810D01*
X158356587Y-95836176D01*
X158325500Y-95841100D01*
X158176700Y-95841100D01*
X158117569Y-95821887D01*
X158081024Y-95771587D01*
X158076100Y-95740500D01*
X158076100Y-95701200D01*
X158061089Y-95701200D01*
X158016636Y-95710041D01*
X158016633Y-95710043D01*
X157966227Y-95743724D01*
X157966224Y-95743727D01*
X157931035Y-95796391D01*
X157917015Y-95807443D01*
X157906521Y-95821887D01*
X157893203Y-95826214D01*
X157882208Y-95834882D01*
X157847390Y-95841100D01*
X157702200Y-95841100D01*
X157643069Y-95821887D01*
X157606524Y-95771587D01*
X157601600Y-95740500D01*
X157601600Y-94774758D01*
X157595217Y-94742669D01*
X157570837Y-94620103D01*
X157510494Y-94474421D01*
X157422889Y-94343311D01*
X157311389Y-94231811D01*
X157180279Y-94144206D01*
X157180280Y-94144206D01*
X157180278Y-94144205D01*
X157180275Y-94144204D01*
X157034599Y-94083863D01*
X156931493Y-94063354D01*
X156879942Y-94053100D01*
X156879941Y-94053100D01*
X156292771Y-94053100D01*
X156292768Y-94053099D01*
X156251100Y-94053099D01*
X156172258Y-94053099D01*
X156133594Y-94060789D01*
X156017600Y-94083862D01*
X155871924Y-94144203D01*
X155871921Y-94144204D01*
X155740809Y-94231811D01*
X155629311Y-94343309D01*
X155541704Y-94474421D01*
X155541703Y-94474424D01*
X155481362Y-94620100D01*
X155450599Y-94774758D01*
X155450599Y-94814038D01*
X155450600Y-106306004D01*
X155450600Y-106432440D01*
X155481363Y-106587098D01*
X155541704Y-106732774D01*
X155541705Y-106732777D01*
X155541706Y-106732778D01*
X155629311Y-106863888D01*
X155740811Y-106975388D01*
X155871921Y-107062993D01*
X156017603Y-107123337D01*
X156172258Y-107154100D01*
X156172259Y-107154100D01*
X178379941Y-107154100D01*
X178379942Y-107154100D01*
X178534597Y-107123337D01*
X178680279Y-107062993D01*
X178811389Y-106975388D01*
X178922889Y-106863888D01*
X179010494Y-106732778D01*
X179070837Y-106587096D01*
X179101600Y-106432441D01*
X179101600Y-106353598D01*
X179101600Y-106306004D01*
X179101601Y-94814038D01*
X179101600Y-94814034D01*
X179101600Y-94774758D01*
X179070837Y-94620103D01*
X179010494Y-94474421D01*
X178922889Y-94343311D01*
X178811389Y-94231811D01*
X178680279Y-94144206D01*
X178680280Y-94144206D01*
X178680278Y-94144205D01*
X178680275Y-94144204D01*
X178534599Y-94083863D01*
X178431493Y-94063354D01*
X178379942Y-94053100D01*
X178340662Y-94053100D01*
X178090662Y-94053100D01*
X177748695Y-94053100D01*
X177701100Y-94053100D01*
X177622258Y-94053100D01*
X177583594Y-94060790D01*
X177467600Y-94083863D01*
X177321924Y-94144204D01*
X177321921Y-94144205D01*
X177190809Y-94231812D01*
X177079312Y-94343309D01*
X176991705Y-94474421D01*
X176991704Y-94474424D01*
X176931363Y-94620100D01*
X176900600Y-94774758D01*
X176900600Y-95740500D01*
X176895676Y-95755654D01*
X176895676Y-95771587D01*
X176886310Y-95784477D01*
X176881387Y-95799631D01*
X176868496Y-95808996D01*
X176859131Y-95821887D01*
X176843977Y-95826810D01*
X176831087Y-95836176D01*
X176800000Y-95841100D01*
X176654810Y-95841100D01*
X176595679Y-95821887D01*
X176571165Y-95796391D01*
X176535975Y-95743727D01*
X176535972Y-95743724D01*
X176485566Y-95710043D01*
X176485563Y-95710041D01*
X176441111Y-95701200D01*
X176426100Y-95701200D01*
X176426100Y-95740500D01*
X176421176Y-95755654D01*
X176421176Y-95771587D01*
X176411810Y-95784477D01*
X176406887Y-95799631D01*
X176393996Y-95808996D01*
X176384631Y-95821887D01*
X176369477Y-95826810D01*
X176356587Y-95836176D01*
X176325500Y-95841100D01*
X176176700Y-95841100D01*
X176117569Y-95821887D01*
X176081024Y-95771587D01*
X176076100Y-95740500D01*
X176076100Y-95701200D01*
X176061087Y-95701200D01*
X176020725Y-95709228D01*
X175981475Y-95709228D01*
X175941113Y-95701200D01*
X175926100Y-95701200D01*
X175926100Y-95740500D01*
X175921176Y-95755654D01*
X175921176Y-95771587D01*
X175911810Y-95784477D01*
X175906887Y-95799631D01*
X175893996Y-95808996D01*
X175884631Y-95821887D01*
X175869477Y-95826810D01*
X175856587Y-95836176D01*
X175825500Y-95841100D01*
X175676700Y-95841100D01*
X175617569Y-95821887D01*
X175581024Y-95771587D01*
X175576100Y-95740500D01*
X175576100Y-95701200D01*
X175561087Y-95701200D01*
X175520725Y-95709228D01*
X175481475Y-95709228D01*
X175441113Y-95701200D01*
X175426100Y-95701200D01*
X175426100Y-95740500D01*
X175421176Y-95755654D01*
X175421176Y-95771587D01*
X175411810Y-95784477D01*
X175406887Y-95799631D01*
X175393996Y-95808996D01*
X175384631Y-95821887D01*
X175369477Y-95826810D01*
X175356587Y-95836176D01*
X175325500Y-95841100D01*
X175207315Y-95841100D01*
X175148184Y-95821887D01*
X175114371Y-95778994D01*
X175113177Y-95776112D01*
X175113177Y-95776110D01*
X175093052Y-95745991D01*
X175080931Y-95706031D01*
X175071786Y-95696886D01*
X175030116Y-95684246D01*
X175003591Y-95666523D01*
X174974625Y-95660761D01*
X174945661Y-95655000D01*
X174945660Y-95655000D01*
X174556540Y-95655000D01*
X174498609Y-95666523D01*
X174498606Y-95666524D01*
X174433089Y-95710301D01*
X174373249Y-95727177D01*
X174314918Y-95705657D01*
X174280377Y-95653961D01*
X174276600Y-95626655D01*
X174276600Y-95364909D01*
X174275832Y-95361049D01*
X174241994Y-95190934D01*
X174241639Y-95190078D01*
X174183178Y-95048938D01*
X174174113Y-95027053D01*
X174075564Y-94879565D01*
X173950135Y-94754136D01*
X173950133Y-94754134D01*
X173857442Y-94692200D01*
X173802647Y-94655587D01*
X173802644Y-94655585D01*
X173802643Y-94655585D01*
X173638768Y-94587706D01*
X173522782Y-94564635D01*
X173464791Y-94553100D01*
X173423695Y-94553100D01*
X173376100Y-94553100D01*
X173287409Y-94553100D01*
X173243915Y-94561751D01*
X173113431Y-94587706D01*
X172949556Y-94655585D01*
X172802066Y-94754134D01*
X172802065Y-94754136D01*
X172676636Y-94879565D01*
X172676634Y-94879566D01*
X172578085Y-95027056D01*
X172510206Y-95190931D01*
X172475600Y-95364909D01*
X172475600Y-95610030D01*
X172469058Y-95645715D01*
X172419558Y-95776185D01*
X172411073Y-95786746D01*
X172406887Y-95799631D01*
X172392081Y-95810388D01*
X172380619Y-95824656D01*
X172367546Y-95828213D01*
X172356587Y-95836176D01*
X172325500Y-95841100D01*
X172207315Y-95841100D01*
X172148184Y-95821887D01*
X172114371Y-95778994D01*
X172113177Y-95776112D01*
X172113177Y-95776110D01*
X172093052Y-95745991D01*
X172080931Y-95706031D01*
X172073165Y-95698265D01*
X172044939Y-95642867D01*
X172043700Y-95627130D01*
X172043700Y-95190078D01*
X172043699Y-95190072D01*
X172023761Y-95115663D01*
X172023760Y-95115661D01*
X172023760Y-95115660D01*
X171985238Y-95048938D01*
X171985235Y-95048935D01*
X171985234Y-95048933D01*
X171981222Y-95043704D01*
X171982818Y-95042478D01*
X171958789Y-94995317D01*
X171957550Y-94979580D01*
X171957550Y-89472209D01*
X171957549Y-89472203D01*
X171937611Y-89397794D01*
X171937611Y-89397793D01*
X171917863Y-89363589D01*
X171899088Y-89331069D01*
X171844611Y-89276592D01*
X171841103Y-89273084D01*
X171841092Y-89273074D01*
X158473631Y-75905612D01*
X158473630Y-75905611D01*
X158440270Y-75886350D01*
X158406909Y-75867089D01*
X158384138Y-75860988D01*
X158369700Y-75857120D01*
X158332494Y-75847150D01*
X158332492Y-75847150D01*
X109312620Y-75847150D01*
X109268059Y-75836742D01*
X109253201Y-75829401D01*
X109243261Y-75819461D01*
X109176541Y-75780940D01*
X109139331Y-75770970D01*
X109129727Y-75768396D01*
X109129724Y-75768395D01*
X109102125Y-75761000D01*
X109102123Y-75761000D01*
X108665070Y-75761000D01*
X108619045Y-75749854D01*
X108556072Y-75717454D01*
X108552076Y-75713426D01*
X108546207Y-75711646D01*
X108516089Y-75691521D01*
X108513202Y-75690326D01*
X108509257Y-75686957D01*
X108507852Y-75686018D01*
X108507963Y-75685851D01*
X108465924Y-75649947D01*
X108451100Y-75597384D01*
X108451100Y-75479200D01*
X108470313Y-75420069D01*
X108520613Y-75383524D01*
X108551700Y-75378600D01*
X108591000Y-75378600D01*
X108591000Y-75363588D01*
X108582158Y-75319136D01*
X108582156Y-75319133D01*
X108548475Y-75268727D01*
X108548474Y-75268726D01*
X108540421Y-75263345D01*
X108501930Y-75214518D01*
X108499490Y-75152392D01*
X108534033Y-75100696D01*
X108592365Y-75079177D01*
X108596313Y-75079100D01*
X108927290Y-75079100D01*
X108927291Y-75079100D01*
X109101266Y-75044494D01*
X109265147Y-74976613D01*
X109412635Y-74878064D01*
X109538064Y-74752635D01*
X109636613Y-74605147D01*
X109649958Y-74572928D01*
X109690336Y-74525652D01*
X109750792Y-74511137D01*
X109808234Y-74534930D01*
X109840720Y-74587941D01*
X109843500Y-74611427D01*
X109843500Y-74618190D01*
X109874342Y-74733293D01*
X109874344Y-74733298D01*
X109933930Y-74836503D01*
X110018196Y-74920769D01*
X110018195Y-74920769D01*
X110114922Y-74976614D01*
X110121403Y-74980356D01*
X110121404Y-74980356D01*
X110121406Y-74980357D01*
X110236509Y-75011199D01*
X110236511Y-75011199D01*
X110236514Y-75011200D01*
X110236516Y-75011200D01*
X110355684Y-75011200D01*
X110355686Y-75011200D01*
X110470797Y-74980356D01*
X110574003Y-74920770D01*
X110631908Y-74862865D01*
X110687306Y-74834639D01*
X110703043Y-74833400D01*
X158800604Y-74833400D01*
X158859735Y-74852613D01*
X158871739Y-74862865D01*
X172941835Y-88932961D01*
X172970061Y-88988359D01*
X172971300Y-89004096D01*
X172971300Y-93361657D01*
X172952087Y-93420788D01*
X172941835Y-93432792D01*
X172883930Y-93490696D01*
X172824344Y-93593901D01*
X172824342Y-93593906D01*
X172793500Y-93709009D01*
X172793500Y-93828190D01*
X172824342Y-93943293D01*
X172824344Y-93943298D01*
X172883930Y-94046503D01*
X172968196Y-94130769D01*
X172968195Y-94130769D01*
X172991464Y-94144203D01*
X173071403Y-94190356D01*
X173071404Y-94190356D01*
X173071406Y-94190357D01*
X173186509Y-94221199D01*
X173186511Y-94221199D01*
X173186514Y-94221200D01*
X173186516Y-94221200D01*
X173305684Y-94221200D01*
X173305686Y-94221200D01*
X173420797Y-94190356D01*
X173524003Y-94130770D01*
X173608270Y-94046503D01*
X173667856Y-93943297D01*
X173698700Y-93828186D01*
X173698700Y-93709014D01*
X173691212Y-93681070D01*
X173667857Y-93593906D01*
X173667855Y-93593901D01*
X173608269Y-93490696D01*
X173550365Y-93432792D01*
X173522139Y-93377394D01*
X173520900Y-93361657D01*
X173520900Y-88793939D01*
X173520899Y-88793937D01*
X173519067Y-88789515D01*
X173479064Y-88692938D01*
X173401762Y-88615636D01*
X164985540Y-80199414D01*
X183598700Y-80199414D01*
X183598700Y-80507785D01*
X183638950Y-80813513D01*
X183638953Y-80813527D01*
X183718761Y-81111377D01*
X183718762Y-81111379D01*
X183836769Y-81396271D01*
X183990951Y-81663323D01*
X184165896Y-81891315D01*
X185059442Y-80997769D01*
X185112067Y-81070202D01*
X185234498Y-81192633D01*
X185306929Y-81245256D01*
X184413383Y-82138802D01*
X184641376Y-82313748D01*
X184908428Y-82467930D01*
X185193320Y-82585937D01*
X185193322Y-82585938D01*
X185491172Y-82665746D01*
X185491186Y-82665749D01*
X185796915Y-82706000D01*
X186105285Y-82706000D01*
X186411013Y-82665749D01*
X186411027Y-82665746D01*
X186708877Y-82585938D01*
X186708879Y-82585937D01*
X186993771Y-82467930D01*
X187260823Y-82313748D01*
X187488816Y-82138803D01*
X186595270Y-81245257D01*
X186667702Y-81192633D01*
X186790133Y-81070202D01*
X186842757Y-80997770D01*
X187736303Y-81891316D01*
X187911248Y-81663323D01*
X188065430Y-81396271D01*
X188183437Y-81111379D01*
X188183438Y-81111377D01*
X188263246Y-80813527D01*
X188263249Y-80813513D01*
X188303500Y-80507785D01*
X188303500Y-80199414D01*
X188263249Y-79893686D01*
X188263246Y-79893672D01*
X188183438Y-79595822D01*
X188183437Y-79595820D01*
X188065430Y-79310928D01*
X187911248Y-79043876D01*
X187736302Y-78815883D01*
X186842756Y-79709428D01*
X186790133Y-79636998D01*
X186667702Y-79514567D01*
X186595269Y-79461941D01*
X187488815Y-78568396D01*
X187260823Y-78393451D01*
X186993771Y-78239269D01*
X186708879Y-78121262D01*
X186708877Y-78121261D01*
X186411027Y-78041453D01*
X186411013Y-78041450D01*
X186105285Y-78001200D01*
X185796915Y-78001200D01*
X185491186Y-78041450D01*
X185491172Y-78041453D01*
X185193322Y-78121261D01*
X185193320Y-78121262D01*
X184908428Y-78239269D01*
X184641376Y-78393451D01*
X184413383Y-78568395D01*
X184413383Y-78568396D01*
X185306929Y-79461942D01*
X185234498Y-79514567D01*
X185112067Y-79636998D01*
X185059442Y-79709429D01*
X184165896Y-78815883D01*
X184165895Y-78815883D01*
X183990951Y-79043876D01*
X183836769Y-79310928D01*
X183718762Y-79595820D01*
X183718761Y-79595822D01*
X183638953Y-79893672D01*
X183638950Y-79893686D01*
X183598700Y-80199414D01*
X164985540Y-80199414D01*
X159111762Y-74325636D01*
X159111759Y-74325634D01*
X159010762Y-74283800D01*
X159010761Y-74283800D01*
X110703043Y-74283800D01*
X110643912Y-74264587D01*
X110631908Y-74254335D01*
X110574003Y-74196430D01*
X110574004Y-74196430D01*
X110470798Y-74136844D01*
X110470793Y-74136842D01*
X110355690Y-74106000D01*
X110355686Y-74106000D01*
X110236514Y-74106000D01*
X110236509Y-74106000D01*
X110121406Y-74136842D01*
X110121401Y-74136844D01*
X110018196Y-74196430D01*
X109933930Y-74280696D01*
X109926821Y-74293010D01*
X109880616Y-74334612D01*
X109818782Y-74341109D01*
X109764938Y-74310021D01*
X109739651Y-74253221D01*
X109739100Y-74242708D01*
X109739100Y-74089909D01*
X109738332Y-74086049D01*
X109704494Y-73915934D01*
X109680754Y-73858621D01*
X109636614Y-73752056D01*
X109636613Y-73752053D01*
X109538064Y-73604565D01*
X109412635Y-73479136D01*
X109412633Y-73479134D01*
X109339390Y-73430195D01*
X109265147Y-73380587D01*
X109265144Y-73380585D01*
X109265143Y-73380585D01*
X109101268Y-73312706D01*
X108985282Y-73289635D01*
X108927291Y-73278100D01*
X108927290Y-73278100D01*
X108737800Y-73278100D01*
X108678669Y-73258887D01*
X108642124Y-73208587D01*
X108637200Y-73177500D01*
X108637199Y-72859041D01*
X108637199Y-72859040D01*
X108630075Y-72823222D01*
X108630075Y-72783979D01*
X108637200Y-72748161D01*
X108637199Y-72359040D01*
X108625677Y-72301110D01*
X108625675Y-72301108D01*
X108625675Y-72301106D01*
X108613274Y-72282547D01*
X108613273Y-72282546D01*
X108581783Y-72235417D01*
X108537688Y-72205954D01*
X108537687Y-72205953D01*
X108516089Y-72191521D01*
X108513202Y-72190326D01*
X108509257Y-72186957D01*
X108507852Y-72186018D01*
X108507963Y-72185851D01*
X108465924Y-72149947D01*
X108451100Y-72097384D01*
X108451100Y-71979200D01*
X108470313Y-71920069D01*
X108520613Y-71883524D01*
X108551700Y-71878600D01*
X108591000Y-71878600D01*
X108591000Y-71863589D01*
X108582971Y-71823227D01*
X108582971Y-71783973D01*
X108591000Y-71743610D01*
X108591000Y-71728600D01*
X108551700Y-71728600D01*
X108536546Y-71723676D01*
X108520613Y-71723676D01*
X108507722Y-71714310D01*
X108492569Y-71709387D01*
X108483203Y-71696496D01*
X108470313Y-71687131D01*
X108465389Y-71671977D01*
X108456024Y-71659087D01*
X108451100Y-71628000D01*
X108451100Y-71479200D01*
X108470313Y-71420069D01*
X108520613Y-71383524D01*
X108551700Y-71378600D01*
X108591000Y-71378600D01*
X108591000Y-71363589D01*
X108582971Y-71323227D01*
X108582971Y-71283973D01*
X108591000Y-71243610D01*
X108591000Y-71228600D01*
X108551700Y-71228600D01*
X108536546Y-71223676D01*
X108520613Y-71223676D01*
X108507722Y-71214310D01*
X108492569Y-71209387D01*
X108483203Y-71196496D01*
X108470313Y-71187131D01*
X108465389Y-71171977D01*
X108456024Y-71159087D01*
X108451100Y-71128000D01*
X108451100Y-70979200D01*
X108470313Y-70920069D01*
X108520613Y-70883524D01*
X108551700Y-70878600D01*
X108591000Y-70878600D01*
X108591000Y-70863588D01*
X108582158Y-70819136D01*
X108582157Y-70819134D01*
X108576448Y-70810590D01*
X108559572Y-70750750D01*
X108581091Y-70692419D01*
X108632787Y-70657877D01*
X108660094Y-70654100D01*
X109517441Y-70654100D01*
X109517442Y-70654100D01*
X109672097Y-70623337D01*
X109817779Y-70562994D01*
X109948889Y-70475389D01*
X110060389Y-70363889D01*
X110147994Y-70232779D01*
X110208337Y-70087097D01*
X110239100Y-69932442D01*
X110239100Y-69853600D01*
X110239100Y-69806005D01*
X110239100Y-69464038D01*
X110239100Y-69395271D01*
X110239101Y-69395267D01*
X110239101Y-69274758D01*
X110208338Y-69120103D01*
X110147995Y-68974421D01*
X110060390Y-68843311D01*
X109948889Y-68731810D01*
X109883334Y-68688007D01*
X109817778Y-68644204D01*
X109817775Y-68644203D01*
X109672099Y-68583862D01*
X109568993Y-68563353D01*
X109517442Y-68553099D01*
X109438600Y-68553099D01*
X109391005Y-68553099D01*
X109391004Y-68553099D01*
X98411538Y-68553100D01*
X98372259Y-68553100D01*
X98333595Y-68560790D01*
X98217601Y-68583863D01*
X98071925Y-68644204D01*
X98071922Y-68644205D01*
X97940810Y-68731812D01*
X97829312Y-68843311D01*
X97829310Y-68843312D01*
X97741705Y-68974424D01*
X97681362Y-69120104D01*
X97650600Y-69274758D01*
X70076600Y-69274758D01*
X70076600Y-48324414D01*
X77423700Y-48324414D01*
X77423700Y-48632785D01*
X77463950Y-48938513D01*
X77463953Y-48938527D01*
X77543761Y-49236377D01*
X77543762Y-49236379D01*
X77661769Y-49521271D01*
X77815951Y-49788323D01*
X77990896Y-50016315D01*
X78884442Y-49122769D01*
X78937067Y-49195202D01*
X79059498Y-49317633D01*
X79131929Y-49370256D01*
X78238383Y-50263802D01*
X78466376Y-50438748D01*
X78733428Y-50592930D01*
X79018320Y-50710937D01*
X79018322Y-50710938D01*
X79316172Y-50790746D01*
X79316186Y-50790749D01*
X79621915Y-50831000D01*
X79930285Y-50831000D01*
X80236013Y-50790749D01*
X80236027Y-50790746D01*
X80533877Y-50710938D01*
X80533879Y-50710937D01*
X80818771Y-50592930D01*
X81085823Y-50438748D01*
X81313816Y-50263803D01*
X80420270Y-49370257D01*
X80492702Y-49317633D01*
X80615133Y-49195202D01*
X80667757Y-49122770D01*
X81561303Y-50016316D01*
X81736248Y-49788323D01*
X81890430Y-49521271D01*
X82008437Y-49236379D01*
X82008438Y-49236376D01*
X82029265Y-49158649D01*
X170458600Y-49158649D01*
X170458600Y-49378550D01*
X170487302Y-49596560D01*
X170487303Y-49596568D01*
X170544216Y-49808972D01*
X170544217Y-49808974D01*
X170628368Y-50012133D01*
X170738314Y-50202565D01*
X170738316Y-50202568D01*
X170738317Y-50202569D01*
X170872183Y-50377026D01*
X171027674Y-50532517D01*
X171202131Y-50666383D01*
X171202134Y-50666385D01*
X171392566Y-50776331D01*
X171595725Y-50860482D01*
X171595727Y-50860483D01*
X171718358Y-50893341D01*
X171808134Y-50917397D01*
X171989814Y-50941316D01*
X172026150Y-50946100D01*
X172026151Y-50946100D01*
X172246050Y-50946100D01*
X172277194Y-50941999D01*
X172464066Y-50917397D01*
X172676472Y-50860483D01*
X172879631Y-50776332D01*
X173070069Y-50666383D01*
X173244526Y-50532517D01*
X173400017Y-50377026D01*
X173533883Y-50202569D01*
X173641416Y-50016316D01*
X173643831Y-50012133D01*
X173727982Y-49808974D01*
X173727983Y-49808972D01*
X173784896Y-49596568D01*
X173784897Y-49596566D01*
X173813600Y-49378549D01*
X173813600Y-49158651D01*
X173784897Y-48940634D01*
X173727983Y-48728228D01*
X173688450Y-48632785D01*
X173643831Y-48525066D01*
X173533885Y-48334634D01*
X173526043Y-48324414D01*
X173400017Y-48160174D01*
X173244526Y-48004683D01*
X173070069Y-47870817D01*
X173070068Y-47870816D01*
X173070065Y-47870814D01*
X172879633Y-47760868D01*
X172676474Y-47676717D01*
X172676472Y-47676716D01*
X172464068Y-47619803D01*
X172464060Y-47619802D01*
X172246050Y-47591100D01*
X172246049Y-47591100D01*
X172026151Y-47591100D01*
X172026150Y-47591100D01*
X171808139Y-47619802D01*
X171808131Y-47619803D01*
X171595727Y-47676716D01*
X171595725Y-47676717D01*
X171392566Y-47760868D01*
X171202134Y-47870814D01*
X171027670Y-48004686D01*
X170872186Y-48160170D01*
X170738314Y-48334634D01*
X170628368Y-48525066D01*
X170544217Y-48728225D01*
X170544216Y-48728227D01*
X170487303Y-48940631D01*
X170487302Y-48940639D01*
X170458600Y-49158649D01*
X82029265Y-49158649D01*
X82037124Y-49129321D01*
X82088246Y-48938527D01*
X82088249Y-48938513D01*
X82128500Y-48632785D01*
X82128500Y-48324414D01*
X82088249Y-48018686D01*
X82088246Y-48018672D01*
X82008438Y-47720822D01*
X82008437Y-47720820D01*
X81890430Y-47435928D01*
X81736248Y-47168876D01*
X81561302Y-46940883D01*
X80667756Y-47834428D01*
X80615133Y-47761998D01*
X80492702Y-47639567D01*
X80420269Y-47586941D01*
X81313815Y-46693396D01*
X81085823Y-46518451D01*
X80818771Y-46364269D01*
X80533879Y-46246262D01*
X80533877Y-46246261D01*
X80236027Y-46166453D01*
X80236013Y-46166450D01*
X79930285Y-46126200D01*
X79621915Y-46126200D01*
X79316186Y-46166450D01*
X79316172Y-46166453D01*
X79018322Y-46246261D01*
X79018320Y-46246262D01*
X78733428Y-46364269D01*
X78466376Y-46518451D01*
X78238383Y-46693395D01*
X78238383Y-46693396D01*
X79131929Y-47586942D01*
X79059498Y-47639567D01*
X78937067Y-47761998D01*
X78884442Y-47834429D01*
X77990896Y-46940883D01*
X77990895Y-46940883D01*
X77815951Y-47168876D01*
X77661769Y-47435928D01*
X77543762Y-47720820D01*
X77543761Y-47720822D01*
X77463953Y-48018672D01*
X77463950Y-48018686D01*
X77423700Y-48324414D01*
X70076600Y-48324414D01*
X70076600Y-42199414D01*
X164898700Y-42199414D01*
X164898700Y-42507785D01*
X164938950Y-42813513D01*
X164938953Y-42813527D01*
X165018761Y-43111377D01*
X165018762Y-43111379D01*
X165136769Y-43396271D01*
X165290951Y-43663323D01*
X165465896Y-43891315D01*
X166359442Y-42997769D01*
X166412067Y-43070202D01*
X166534498Y-43192633D01*
X166606929Y-43245256D01*
X165713383Y-44138802D01*
X165941376Y-44313748D01*
X166208428Y-44467930D01*
X166493320Y-44585937D01*
X166493322Y-44585938D01*
X166791172Y-44665746D01*
X166791186Y-44665749D01*
X167096915Y-44706000D01*
X167405285Y-44706000D01*
X167711013Y-44665749D01*
X167711027Y-44665746D01*
X168008877Y-44585938D01*
X168008879Y-44585937D01*
X168293771Y-44467930D01*
X168560823Y-44313748D01*
X168788816Y-44138803D01*
X167895270Y-43245257D01*
X167967702Y-43192633D01*
X168090133Y-43070202D01*
X168142757Y-42997770D01*
X169036303Y-43891316D01*
X169211248Y-43663323D01*
X169365430Y-43396271D01*
X169483437Y-43111379D01*
X169483438Y-43111377D01*
X169563246Y-42813527D01*
X169563249Y-42813513D01*
X169603500Y-42507785D01*
X169603500Y-42199414D01*
X169563249Y-41893686D01*
X169563246Y-41893672D01*
X169483438Y-41595822D01*
X169483437Y-41595820D01*
X169365430Y-41310928D01*
X169211248Y-41043876D01*
X169036302Y-40815883D01*
X168142756Y-41709428D01*
X168090133Y-41636998D01*
X167967702Y-41514567D01*
X167895269Y-41461941D01*
X168788815Y-40568396D01*
X168560823Y-40393451D01*
X168293771Y-40239269D01*
X168008879Y-40121262D01*
X168008877Y-40121261D01*
X167711027Y-40041453D01*
X167711013Y-40041450D01*
X167405285Y-40001200D01*
X167096915Y-40001200D01*
X166791186Y-40041450D01*
X166791172Y-40041453D01*
X166493322Y-40121261D01*
X166493320Y-40121262D01*
X166208428Y-40239269D01*
X165941376Y-40393451D01*
X165713383Y-40568395D01*
X165713383Y-40568396D01*
X166606929Y-41461942D01*
X166534498Y-41514567D01*
X166412067Y-41636998D01*
X166359442Y-41709429D01*
X165465896Y-40815883D01*
X165465895Y-40815883D01*
X165290951Y-41043876D01*
X165136769Y-41310928D01*
X165018762Y-41595820D01*
X165018761Y-41595822D01*
X164938953Y-41893672D01*
X164938950Y-41893686D01*
X164898700Y-42199414D01*
X70076600Y-42199414D01*
X70076600Y-20934324D01*
X70076600Y-20926207D01*
X70076605Y-20926195D01*
X70076605Y-20886503D01*
X70076606Y-20886499D01*
X70077842Y-20870789D01*
X70083877Y-20832683D01*
X70093598Y-20802765D01*
X70107475Y-20775529D01*
X70125967Y-20750077D01*
X70147577Y-20728467D01*
X70173030Y-20709974D01*
X70200259Y-20696100D01*
X70230184Y-20686376D01*
X70268314Y-20680337D01*
X70284047Y-20679100D01*
X70323693Y-20679100D01*
X178695389Y-20679100D01*
X178695401Y-20679101D01*
G37*
%TD.AperFunction*%
%TD*%
M02*
