G04*
G04 #@! TF.GenerationSoftware,Altium Limited,Altium Designer,23.10.1 (27)*
G04*
G04 Layer_Physical_Order=1*
G04 Layer_Color=255*
%FSAX25Y25*%
%MOIN*%
G70*
G04*
G04 #@! TF.SameCoordinates,9A25CA80-9317-414E-98C9-A3F1B825D269*
G04*
G04*
G04 #@! TF.FilePolarity,Positive*
G04*
G01*
G75*
%ADD11C,0.00984*%
%ADD16C,0.00500*%
%ADD17C,0.01000*%
G04:AMPARAMS|DCode=23|XSize=9.84mil|YSize=19.68mil|CornerRadius=2.46mil|HoleSize=0mil|Usage=FLASHONLY|Rotation=90.000|XOffset=0mil|YOffset=0mil|HoleType=Round|Shape=RoundedRectangle|*
%AMROUNDEDRECTD23*
21,1,0.00984,0.01476,0,0,90.0*
21,1,0.00492,0.01968,0,0,90.0*
1,1,0.00492,0.00738,0.00246*
1,1,0.00492,0.00738,-0.00246*
1,1,0.00492,-0.00738,-0.00246*
1,1,0.00492,-0.00738,0.00246*
%
%ADD23ROUNDEDRECTD23*%
%ADD24O,0.00984X0.03347*%
%ADD25O,0.03347X0.00984*%
%ADD26O,0.03150X0.00984*%
%ADD27O,0.00984X0.03150*%
G04:AMPARAMS|DCode=29|XSize=11.81mil|YSize=26.38mil|CornerRadius=2.95mil|HoleSize=0mil|Usage=FLASHONLY|Rotation=270.000|XOffset=0mil|YOffset=0mil|HoleType=Round|Shape=RoundedRectangle|*
%AMROUNDEDRECTD29*
21,1,0.01181,0.02047,0,0,270.0*
21,1,0.00591,0.02638,0,0,270.0*
1,1,0.00591,-0.01024,-0.00295*
1,1,0.00591,-0.01024,0.00295*
1,1,0.00591,0.01024,0.00295*
1,1,0.00591,0.01024,-0.00295*
%
%ADD29ROUNDEDRECTD29*%
%ADD30O,0.02362X0.05709*%
G04:AMPARAMS|DCode=31|XSize=31.5mil|YSize=149.61mil|CornerRadius=7.87mil|HoleSize=0mil|Usage=FLASHONLY|Rotation=180.000|XOffset=0mil|YOffset=0mil|HoleType=Round|Shape=RoundedRectangle|*
%AMROUNDEDRECTD31*
21,1,0.03150,0.13386,0,0,180.0*
21,1,0.01575,0.14961,0,0,180.0*
1,1,0.01575,-0.00787,0.06693*
1,1,0.01575,0.00787,0.06693*
1,1,0.01575,0.00787,-0.06693*
1,1,0.01575,-0.00787,-0.06693*
%
%ADD31ROUNDEDRECTD31*%
G04:AMPARAMS|DCode=32|XSize=31.5mil|YSize=149.61mil|CornerRadius=7.87mil|HoleSize=0mil|Usage=FLASHONLY|Rotation=270.000|XOffset=0mil|YOffset=0mil|HoleType=Round|Shape=RoundedRectangle|*
%AMROUNDEDRECTD32*
21,1,0.03150,0.13386,0,0,270.0*
21,1,0.01575,0.14961,0,0,270.0*
1,1,0.01575,-0.06693,-0.00787*
1,1,0.01575,-0.06693,0.00787*
1,1,0.01575,0.06693,0.00787*
1,1,0.01575,0.06693,-0.00787*
%
%ADD32ROUNDEDRECTD32*%
G04:AMPARAMS|DCode=33|XSize=31.5mil|YSize=218.5mil|CornerRadius=7.87mil|HoleSize=0mil|Usage=FLASHONLY|Rotation=180.000|XOffset=0mil|YOffset=0mil|HoleType=Round|Shape=RoundedRectangle|*
%AMROUNDEDRECTD33*
21,1,0.03150,0.20276,0,0,180.0*
21,1,0.01575,0.21850,0,0,180.0*
1,1,0.01575,-0.00787,0.10138*
1,1,0.01575,0.00787,0.10138*
1,1,0.01575,0.00787,-0.10138*
1,1,0.01575,-0.00787,-0.10138*
%
%ADD33ROUNDEDRECTD33*%
G04:AMPARAMS|DCode=34|XSize=31.5mil|YSize=196.06mil|CornerRadius=7.87mil|HoleSize=0mil|Usage=FLASHONLY|Rotation=270.000|XOffset=0mil|YOffset=0mil|HoleType=Round|Shape=RoundedRectangle|*
%AMROUNDEDRECTD34*
21,1,0.03150,0.18032,0,0,270.0*
21,1,0.01575,0.19606,0,0,270.0*
1,1,0.01575,-0.09016,-0.00787*
1,1,0.01575,-0.09016,0.00787*
1,1,0.01575,0.09016,0.00787*
1,1,0.01575,0.09016,-0.00787*
%
%ADD34ROUNDEDRECTD34*%
%ADD35O,0.01772X0.05512*%
%ADD36O,0.01378X0.05512*%
G04:AMPARAMS|DCode=37|XSize=23.62mil|YSize=39.37mil|CornerRadius=5.91mil|HoleSize=0mil|Usage=FLASHONLY|Rotation=180.000|XOffset=0mil|YOffset=0mil|HoleType=Round|Shape=RoundedRectangle|*
%AMROUNDEDRECTD37*
21,1,0.02362,0.02756,0,0,180.0*
21,1,0.01181,0.03937,0,0,180.0*
1,1,0.01181,-0.00591,0.01378*
1,1,0.01181,0.00591,0.01378*
1,1,0.01181,0.00591,-0.01378*
1,1,0.01181,-0.00591,-0.01378*
%
%ADD37ROUNDEDRECTD37*%
G04:AMPARAMS|DCode=38|XSize=25.2mil|YSize=27.56mil|CornerRadius=6.3mil|HoleSize=0mil|Usage=FLASHONLY|Rotation=90.000|XOffset=0mil|YOffset=0mil|HoleType=Round|Shape=RoundedRectangle|*
%AMROUNDEDRECTD38*
21,1,0.02520,0.01496,0,0,90.0*
21,1,0.01260,0.02756,0,0,90.0*
1,1,0.01260,0.00748,0.00630*
1,1,0.01260,0.00748,-0.00630*
1,1,0.01260,-0.00748,-0.00630*
1,1,0.01260,-0.00748,0.00630*
%
%ADD38ROUNDEDRECTD38*%
G04:AMPARAMS|DCode=39|XSize=88.58mil|YSize=30mil|CornerRadius=7.5mil|HoleSize=0mil|Usage=FLASHONLY|Rotation=180.000|XOffset=0mil|YOffset=0mil|HoleType=Round|Shape=RoundedRectangle|*
%AMROUNDEDRECTD39*
21,1,0.08858,0.01500,0,0,180.0*
21,1,0.07358,0.03000,0,0,180.0*
1,1,0.01500,-0.03679,0.00750*
1,1,0.01500,0.03679,0.00750*
1,1,0.01500,0.03679,-0.00750*
1,1,0.01500,-0.03679,-0.00750*
%
%ADD39ROUNDEDRECTD39*%
G04:AMPARAMS|DCode=40|XSize=23.62mil|YSize=23.62mil|CornerRadius=5.91mil|HoleSize=0mil|Usage=FLASHONLY|Rotation=0.000|XOffset=0mil|YOffset=0mil|HoleType=Round|Shape=RoundedRectangle|*
%AMROUNDEDRECTD40*
21,1,0.02362,0.01181,0,0,0.0*
21,1,0.01181,0.02362,0,0,0.0*
1,1,0.01181,0.00591,-0.00591*
1,1,0.01181,-0.00591,-0.00591*
1,1,0.01181,-0.00591,0.00591*
1,1,0.01181,0.00591,0.00591*
%
%ADD40ROUNDEDRECTD40*%
G04:AMPARAMS|DCode=41|XSize=107.09mil|YSize=48.42mil|CornerRadius=12.11mil|HoleSize=0mil|Usage=FLASHONLY|Rotation=270.000|XOffset=0mil|YOffset=0mil|HoleType=Round|Shape=RoundedRectangle|*
%AMROUNDEDRECTD41*
21,1,0.10709,0.02421,0,0,270.0*
21,1,0.08287,0.04842,0,0,270.0*
1,1,0.02421,-0.01211,-0.04144*
1,1,0.02421,-0.01211,0.04144*
1,1,0.02421,0.01211,0.04144*
1,1,0.02421,0.01211,-0.04144*
%
%ADD41ROUNDEDRECTD41*%
G04:AMPARAMS|DCode=42|XSize=59.06mil|YSize=51.18mil|CornerRadius=12.8mil|HoleSize=0mil|Usage=FLASHONLY|Rotation=270.000|XOffset=0mil|YOffset=0mil|HoleType=Round|Shape=RoundedRectangle|*
%AMROUNDEDRECTD42*
21,1,0.05906,0.02559,0,0,270.0*
21,1,0.03347,0.05118,0,0,270.0*
1,1,0.02559,-0.01280,-0.01673*
1,1,0.02559,-0.01280,0.01673*
1,1,0.02559,0.01280,0.01673*
1,1,0.02559,0.01280,-0.01673*
%
%ADD42ROUNDEDRECTD42*%
G04:AMPARAMS|DCode=43|XSize=31.5mil|YSize=81.1mil|CornerRadius=7.87mil|HoleSize=0mil|Usage=FLASHONLY|Rotation=270.000|XOffset=0mil|YOffset=0mil|HoleType=Round|Shape=RoundedRectangle|*
%AMROUNDEDRECTD43*
21,1,0.03150,0.06535,0,0,270.0*
21,1,0.01575,0.08110,0,0,270.0*
1,1,0.01575,-0.03268,-0.00787*
1,1,0.01575,-0.03268,0.00787*
1,1,0.01575,0.03268,0.00787*
1,1,0.01575,0.03268,-0.00787*
%
%ADD43ROUNDEDRECTD43*%
G04:AMPARAMS|DCode=44|XSize=9.84mil|YSize=35.43mil|CornerRadius=2.46mil|HoleSize=0mil|Usage=FLASHONLY|Rotation=180.000|XOffset=0mil|YOffset=0mil|HoleType=Round|Shape=RoundedRectangle|*
%AMROUNDEDRECTD44*
21,1,0.00984,0.03051,0,0,180.0*
21,1,0.00492,0.03543,0,0,180.0*
1,1,0.00492,-0.00246,0.01526*
1,1,0.00492,0.00246,0.01526*
1,1,0.00492,0.00246,-0.01526*
1,1,0.00492,-0.00246,-0.01526*
%
%ADD44ROUNDEDRECTD44*%
G04:AMPARAMS|DCode=45|XSize=37.4mil|YSize=41.34mil|CornerRadius=9.35mil|HoleSize=0mil|Usage=FLASHONLY|Rotation=270.000|XOffset=0mil|YOffset=0mil|HoleType=Round|Shape=RoundedRectangle|*
%AMROUNDEDRECTD45*
21,1,0.03740,0.02264,0,0,270.0*
21,1,0.01870,0.04134,0,0,270.0*
1,1,0.01870,-0.01132,-0.00935*
1,1,0.01870,-0.01132,0.00935*
1,1,0.01870,0.01132,0.00935*
1,1,0.01870,0.01132,-0.00935*
%
%ADD45ROUNDEDRECTD45*%
G04:AMPARAMS|DCode=46|XSize=25.2mil|YSize=25.2mil|CornerRadius=6.3mil|HoleSize=0mil|Usage=FLASHONLY|Rotation=180.000|XOffset=0mil|YOffset=0mil|HoleType=Round|Shape=RoundedRectangle|*
%AMROUNDEDRECTD46*
21,1,0.02520,0.01260,0,0,180.0*
21,1,0.01260,0.02520,0,0,180.0*
1,1,0.01260,-0.00630,0.00630*
1,1,0.01260,0.00630,0.00630*
1,1,0.01260,0.00630,-0.00630*
1,1,0.01260,-0.00630,-0.00630*
%
%ADD46ROUNDEDRECTD46*%
G04:AMPARAMS|DCode=47|XSize=25.2mil|YSize=25.2mil|CornerRadius=6.3mil|HoleSize=0mil|Usage=FLASHONLY|Rotation=270.000|XOffset=0mil|YOffset=0mil|HoleType=Round|Shape=RoundedRectangle|*
%AMROUNDEDRECTD47*
21,1,0.02520,0.01260,0,0,270.0*
21,1,0.01260,0.02520,0,0,270.0*
1,1,0.01260,-0.00630,-0.00630*
1,1,0.01260,-0.00630,0.00630*
1,1,0.01260,0.00630,0.00630*
1,1,0.01260,0.00630,-0.00630*
%
%ADD47ROUNDEDRECTD47*%
G04:AMPARAMS|DCode=48|XSize=37.4mil|YSize=41.34mil|CornerRadius=9.35mil|HoleSize=0mil|Usage=FLASHONLY|Rotation=0.000|XOffset=0mil|YOffset=0mil|HoleType=Round|Shape=RoundedRectangle|*
%AMROUNDEDRECTD48*
21,1,0.03740,0.02264,0,0,0.0*
21,1,0.01870,0.04134,0,0,0.0*
1,1,0.01870,0.00935,-0.01132*
1,1,0.01870,-0.00935,-0.01132*
1,1,0.01870,-0.00935,0.01132*
1,1,0.01870,0.00935,0.01132*
%
%ADD48ROUNDEDRECTD48*%
G04:AMPARAMS|DCode=49|XSize=39.37mil|YSize=35.43mil|CornerRadius=8.86mil|HoleSize=0mil|Usage=FLASHONLY|Rotation=270.000|XOffset=0mil|YOffset=0mil|HoleType=Round|Shape=RoundedRectangle|*
%AMROUNDEDRECTD49*
21,1,0.03937,0.01772,0,0,270.0*
21,1,0.02165,0.03543,0,0,270.0*
1,1,0.01772,-0.00886,-0.01083*
1,1,0.01772,-0.00886,0.01083*
1,1,0.01772,0.00886,0.01083*
1,1,0.01772,0.00886,-0.01083*
%
%ADD49ROUNDEDRECTD49*%
G04:AMPARAMS|DCode=50|XSize=23.62mil|YSize=23.62mil|CornerRadius=5.91mil|HoleSize=0mil|Usage=FLASHONLY|Rotation=270.000|XOffset=0mil|YOffset=0mil|HoleType=Round|Shape=RoundedRectangle|*
%AMROUNDEDRECTD50*
21,1,0.02362,0.01181,0,0,270.0*
21,1,0.01181,0.02362,0,0,270.0*
1,1,0.01181,-0.00591,-0.00591*
1,1,0.01181,-0.00591,0.00591*
1,1,0.01181,0.00591,0.00591*
1,1,0.01181,0.00591,-0.00591*
%
%ADD50ROUNDEDRECTD50*%
G04:AMPARAMS|DCode=51|XSize=59.06mil|YSize=51.18mil|CornerRadius=12.8mil|HoleSize=0mil|Usage=FLASHONLY|Rotation=180.000|XOffset=0mil|YOffset=0mil|HoleType=Round|Shape=RoundedRectangle|*
%AMROUNDEDRECTD51*
21,1,0.05906,0.02559,0,0,180.0*
21,1,0.03347,0.05118,0,0,180.0*
1,1,0.02559,-0.01673,0.01280*
1,1,0.02559,0.01673,0.01280*
1,1,0.02559,0.01673,-0.01280*
1,1,0.02559,-0.01673,-0.01280*
%
%ADD51ROUNDEDRECTD51*%
G04:AMPARAMS|DCode=52|XSize=39.37mil|YSize=35.43mil|CornerRadius=8.86mil|HoleSize=0mil|Usage=FLASHONLY|Rotation=0.000|XOffset=0mil|YOffset=0mil|HoleType=Round|Shape=RoundedRectangle|*
%AMROUNDEDRECTD52*
21,1,0.03937,0.01772,0,0,0.0*
21,1,0.02165,0.03543,0,0,0.0*
1,1,0.01772,0.01083,-0.00886*
1,1,0.01772,-0.01083,-0.00886*
1,1,0.01772,-0.01083,0.00886*
1,1,0.01772,0.01083,0.00886*
%
%ADD52ROUNDEDRECTD52*%
G04:AMPARAMS|DCode=93|XSize=62.99mil|YSize=35.43mil|CornerRadius=1.77mil|HoleSize=0mil|Usage=FLASHONLY|Rotation=90.000|XOffset=0mil|YOffset=0mil|HoleType=Round|Shape=RoundedRectangle|*
%AMROUNDEDRECTD93*
21,1,0.06299,0.03189,0,0,90.0*
21,1,0.05945,0.03543,0,0,90.0*
1,1,0.00354,0.01595,0.02972*
1,1,0.00354,0.01595,-0.02972*
1,1,0.00354,-0.01595,-0.02972*
1,1,0.00354,-0.01595,0.02972*
%
%ADD93ROUNDEDRECTD93*%
G04:AMPARAMS|DCode=94|XSize=102.36mil|YSize=102.36mil|CornerRadius=2.56mil|HoleSize=0mil|Usage=FLASHONLY|Rotation=270.000|XOffset=0mil|YOffset=0mil|HoleType=Round|Shape=RoundedRectangle|*
%AMROUNDEDRECTD94*
21,1,0.10236,0.09724,0,0,270.0*
21,1,0.09724,0.10236,0,0,270.0*
1,1,0.00512,-0.04862,-0.04862*
1,1,0.00512,-0.04862,0.04862*
1,1,0.00512,0.04862,0.04862*
1,1,0.00512,0.04862,-0.04862*
%
%ADD94ROUNDEDRECTD94*%
G04:AMPARAMS|DCode=95|XSize=66.14mil|YSize=66.14mil|CornerRadius=3.31mil|HoleSize=0mil|Usage=FLASHONLY|Rotation=0.000|XOffset=0mil|YOffset=0mil|HoleType=Round|Shape=RoundedRectangle|*
%AMROUNDEDRECTD95*
21,1,0.06614,0.05953,0,0,0.0*
21,1,0.05953,0.06614,0,0,0.0*
1,1,0.00661,0.02976,-0.02976*
1,1,0.00661,-0.02976,-0.02976*
1,1,0.00661,-0.02976,0.02976*
1,1,0.00661,0.02976,0.02976*
%
%ADD95ROUNDEDRECTD95*%
G04:AMPARAMS|DCode=96|XSize=96.06mil|YSize=58.66mil|CornerRadius=2.93mil|HoleSize=0mil|Usage=FLASHONLY|Rotation=180.000|XOffset=0mil|YOffset=0mil|HoleType=Round|Shape=RoundedRectangle|*
%AMROUNDEDRECTD96*
21,1,0.09606,0.05280,0,0,180.0*
21,1,0.09020,0.05866,0,0,180.0*
1,1,0.00587,-0.04510,0.02640*
1,1,0.00587,0.04510,0.02640*
1,1,0.00587,0.04510,-0.02640*
1,1,0.00587,-0.04510,-0.02640*
%
%ADD96ROUNDEDRECTD96*%
%ADD97C,0.01181*%
%ADD98C,0.00839*%
%ADD99C,0.00837*%
%ADD100C,0.03740*%
%ADD101C,0.02000*%
%ADD102C,0.05906*%
%ADD103C,0.03543*%
%ADD104C,0.01968*%
%ADD105C,0.08425*%
%ADD106C,0.07874*%
%ADD107C,0.11811*%
%ADD108C,0.05386*%
%ADD109R,0.05386X0.05386*%
%ADD110C,0.05906*%
G04:AMPARAMS|DCode=111|XSize=59.06mil|YSize=59.06mil|CornerRadius=14.76mil|HoleSize=0mil|Usage=FLASHONLY|Rotation=180.000|XOffset=0mil|YOffset=0mil|HoleType=Round|Shape=RoundedRectangle|*
%AMROUNDEDRECTD111*
21,1,0.05906,0.02953,0,0,180.0*
21,1,0.02953,0.05906,0,0,180.0*
1,1,0.02953,-0.01476,0.01476*
1,1,0.02953,0.01476,0.01476*
1,1,0.02953,0.01476,-0.01476*
1,1,0.02953,-0.01476,-0.01476*
%
%ADD111ROUNDEDRECTD111*%
%ADD112C,0.01600*%
G36*
X0392497Y0001204D02*
X0268401D01*
X0267987Y0002204D01*
X0268576Y0002793D01*
X0269209Y0003890D01*
X0269537Y0005114D01*
Y0005248D01*
X0259912D01*
Y0005114D01*
X0260240Y0003890D01*
X0260873Y0002793D01*
X0261462Y0002204D01*
X0261048Y0001204D01*
X0248401D01*
X0247987Y0002204D01*
X0248575Y0002793D01*
X0249209Y0003890D01*
X0249537Y0005114D01*
Y0005248D01*
X0239912D01*
Y0005114D01*
X0240240Y0003890D01*
X0240873Y0002793D01*
X0241462Y0002204D01*
X0241048Y0001204D01*
X0229031D01*
X0228616Y0002204D01*
X0229205Y0002793D01*
X0229839Y0003890D01*
X0230167Y0005114D01*
Y0005248D01*
X0220542D01*
Y0005114D01*
X0220870Y0003890D01*
X0221503Y0002793D01*
X0222092Y0002204D01*
X0221678Y0001204D01*
X0209031D01*
X0208616Y0002204D01*
X0209205Y0002793D01*
X0209839Y0003890D01*
X0210167Y0005114D01*
Y0005248D01*
X0200542D01*
Y0005114D01*
X0200870Y0003890D01*
X0201503Y0002793D01*
X0202092Y0002204D01*
X0201678Y0001204D01*
X0001204D01*
Y0081658D01*
X0185178D01*
X0185592Y0080658D01*
X0185482Y0080547D01*
X0185208Y0079886D01*
Y0079352D01*
X0185133Y0079283D01*
X0184625Y0078973D01*
X0184309Y0078867D01*
X0183987Y0079057D01*
X0183366Y0079181D01*
X0182185D01*
X0181564Y0079057D01*
X0181038Y0078706D01*
X0180687Y0078180D01*
X0180563Y0077559D01*
Y0076378D01*
X0180687Y0075757D01*
X0180813Y0074935D01*
X0180453Y0074396D01*
X0180326Y0073760D01*
Y0072500D01*
X0180453Y0071864D01*
X0180813Y0071325D01*
X0180453Y0070459D01*
X0180326Y0069823D01*
Y0068563D01*
X0180453Y0067927D01*
X0180813Y0067388D01*
X0181352Y0067028D01*
X0181988Y0066901D01*
X0182042D01*
Y0065847D01*
X0177657D01*
Y0059474D01*
X0177383Y0059420D01*
X0170383D01*
X0170177Y0059625D01*
Y0077953D01*
X0058465D01*
Y0035904D01*
X0051432Y0028871D01*
X0051020Y0029108D01*
X0049764Y0029445D01*
X0048464D01*
X0047209Y0029108D01*
X0046083Y0028458D01*
X0045164Y0027539D01*
X0044514Y0026414D01*
X0044177Y0025158D01*
Y0023858D01*
X0044514Y0022602D01*
X0045164Y0021476D01*
X0046083Y0020557D01*
X0047209Y0019907D01*
X0048464Y0019571D01*
X0049764D01*
X0051020Y0019907D01*
X0052146Y0020557D01*
X0053065Y0021476D01*
X0053715Y0022602D01*
X0054051Y0023858D01*
Y0025158D01*
X0053715Y0026414D01*
X0053477Y0026825D01*
X0057541Y0030889D01*
X0058465Y0030506D01*
Y0009055D01*
X0170177D01*
Y0056525D01*
X0174370D01*
X0174479Y0056362D01*
Y0055646D01*
X0174754Y0054984D01*
X0175260Y0054478D01*
X0175921Y0054204D01*
X0176638D01*
X0176657Y0054212D01*
X0177657Y0053544D01*
Y0051266D01*
X0177608Y0051217D01*
X0177334Y0050555D01*
Y0049839D01*
X0177608Y0049177D01*
X0177657Y0049128D01*
Y0048130D01*
X0180587D01*
X0180809Y0047879D01*
X0181147Y0047130D01*
X0180976Y0046716D01*
Y0046000D01*
X0181250Y0045339D01*
X0181503Y0045085D01*
Y0045053D01*
X0181277Y0044715D01*
X0181154Y0044094D01*
Y0042913D01*
X0181277Y0042293D01*
X0181629Y0041767D01*
X0182155Y0041415D01*
X0182776Y0041292D01*
X0183957D01*
X0184577Y0041415D01*
X0185103Y0041767D01*
X0185172D01*
X0185698Y0041415D01*
X0186319Y0041292D01*
X0187106D01*
X0187452Y0040946D01*
X0187948Y0040615D01*
X0188533Y0040498D01*
X0189876D01*
X0190292Y0040326D01*
X0191008D01*
X0191669Y0040600D01*
X0192176Y0041106D01*
X0192450Y0041768D01*
Y0042484D01*
X0192303Y0042838D01*
X0192514Y0042978D01*
X0192874Y0043518D01*
X0193000Y0044153D01*
Y0045413D01*
X0192874Y0046049D01*
X0192514Y0046589D01*
X0191974Y0046949D01*
X0191339Y0047075D01*
X0190998D01*
Y0048130D01*
X0195374D01*
Y0052506D01*
X0196611D01*
X0197613Y0051504D01*
X0197883Y0050850D01*
X0197869Y0050359D01*
X0197518Y0049833D01*
X0197394Y0049213D01*
Y0048031D01*
X0197518Y0047411D01*
X0197869Y0046885D01*
X0198395Y0046533D01*
X0199016Y0046410D01*
X0200197D01*
X0200469Y0046464D01*
X0201219Y0045884D01*
X0201336Y0045694D01*
X0201331Y0045669D01*
Y0044488D01*
X0201454Y0043868D01*
X0201806Y0043341D01*
X0202014Y0043203D01*
Y0038822D01*
X0200154Y0036963D01*
X0188583D01*
X0187997Y0036846D01*
X0187501Y0036514D01*
X0184870Y0033883D01*
X0184217Y0033613D01*
X0183710Y0033106D01*
X0183436Y0032445D01*
Y0031740D01*
X0183169D01*
X0182879Y0031682D01*
X0182454D01*
X0182390Y0031746D01*
X0182235Y0032122D01*
X0181728Y0032628D01*
X0181067Y0032902D01*
X0180351D01*
X0179689Y0032628D01*
X0179183Y0032122D01*
X0178909Y0031460D01*
Y0030744D01*
X0179183Y0030083D01*
X0179689Y0029576D01*
X0180351Y0029302D01*
X0180508D01*
X0180739Y0029071D01*
X0181235Y0028740D01*
X0181601Y0028667D01*
X0181671Y0028316D01*
X0182023Y0027790D01*
X0182549Y0027439D01*
X0183169Y0027315D01*
X0184350D01*
X0185231Y0026501D01*
Y0026186D01*
X0185116Y0026014D01*
X0184877Y0025146D01*
X0184160D01*
X0183499Y0024872D01*
X0182993Y0024365D01*
X0182719Y0023704D01*
Y0022988D01*
X0182993Y0022326D01*
X0183499Y0021820D01*
X0184160Y0021546D01*
X0184877D01*
X0185379Y0020671D01*
Y0019657D01*
X0185532Y0018883D01*
X0185971Y0018226D01*
X0186812Y0017386D01*
X0186702Y0016827D01*
X0186450Y0016353D01*
X0185994Y0016262D01*
X0185468Y0015911D01*
X0185116Y0015384D01*
X0184993Y0014764D01*
Y0012008D01*
X0185116Y0011387D01*
X0185468Y0010861D01*
X0185994Y0010510D01*
X0186614Y0010386D01*
X0187795D01*
X0188416Y0010510D01*
X0188942Y0010861D01*
X0189294Y0011387D01*
X0189417Y0012008D01*
Y0014764D01*
X0189294Y0015384D01*
X0189229Y0015481D01*
X0189751Y0016481D01*
X0192138D01*
X0192661Y0015481D01*
X0192596Y0015384D01*
X0192473Y0014764D01*
Y0012008D01*
X0192596Y0011387D01*
X0192682Y0011259D01*
Y0009323D01*
X0192559Y0009140D01*
X0192433Y0008504D01*
Y0007528D01*
X0191705Y0006800D01*
X0191328Y0006644D01*
X0190822Y0006138D01*
X0190548Y0005476D01*
Y0004760D01*
X0190822Y0004098D01*
X0191328Y0003592D01*
X0191990Y0003318D01*
X0192706D01*
X0193367Y0003592D01*
X0193910Y0004067D01*
X0194453Y0003592D01*
X0195114Y0003318D01*
X0195831D01*
X0196492Y0003592D01*
X0196998Y0004098D01*
X0197273Y0004760D01*
Y0005476D01*
X0196998Y0006138D01*
X0196887Y0006249D01*
Y0006604D01*
X0196890Y0006608D01*
X0197016Y0007244D01*
Y0008504D01*
X0196890Y0009140D01*
X0196728Y0009382D01*
Y0011318D01*
X0196774Y0011387D01*
X0196897Y0012008D01*
Y0014764D01*
X0196774Y0015384D01*
X0196422Y0015911D01*
X0195896Y0016262D01*
X0195440Y0016353D01*
X0195188Y0016827D01*
X0195078Y0017386D01*
X0195919Y0018226D01*
X0196357Y0018883D01*
X0196511Y0019657D01*
Y0021624D01*
X0196774Y0022017D01*
X0196897Y0022638D01*
Y0025394D01*
X0196774Y0026014D01*
X0196728Y0026083D01*
Y0028019D01*
X0196890Y0028262D01*
X0197016Y0028898D01*
Y0030158D01*
X0196890Y0030793D01*
X0196529Y0031333D01*
X0195990Y0031693D01*
X0195354Y0031819D01*
X0194095D01*
X0193459Y0031693D01*
X0192919Y0031333D01*
X0192559Y0030793D01*
X0192433Y0030158D01*
Y0028898D01*
X0192559Y0028262D01*
X0192682Y0028078D01*
Y0026142D01*
X0192596Y0026014D01*
X0192473Y0025394D01*
Y0023858D01*
X0192465Y0023819D01*
Y0020527D01*
X0189425D01*
Y0023819D01*
X0189417Y0023858D01*
Y0025394D01*
X0189294Y0026014D01*
X0189277Y0026039D01*
Y0028144D01*
X0189392Y0028316D01*
X0189515Y0028937D01*
Y0030118D01*
X0189392Y0030739D01*
X0189041Y0031265D01*
X0188514Y0031616D01*
X0188372Y0031645D01*
X0188019Y0032707D01*
X0189216Y0033904D01*
X0200787D01*
X0201373Y0034020D01*
X0201869Y0034352D01*
X0204625Y0037108D01*
X0204956Y0037604D01*
X0205073Y0038189D01*
Y0043203D01*
X0205281Y0043341D01*
X0205632Y0043868D01*
X0205756Y0044488D01*
Y0045669D01*
X0205632Y0046290D01*
X0205281Y0046816D01*
Y0046885D01*
X0205632Y0047411D01*
X0205756Y0048031D01*
Y0049213D01*
X0205632Y0049833D01*
X0205281Y0050359D01*
X0204754Y0050711D01*
X0204134Y0050834D01*
X0202953D01*
X0202332Y0050711D01*
X0201390Y0051232D01*
X0201209Y0051512D01*
Y0052228D01*
X0201160Y0052346D01*
X0201853Y0052954D01*
X0201962Y0053025D01*
X0202559Y0052906D01*
X0203740D01*
X0204361Y0053029D01*
X0204792Y0053318D01*
X0226707Y0031403D01*
X0226189Y0030507D01*
X0225988Y0030561D01*
X0225854D01*
Y0026248D01*
X0230167D01*
Y0026382D01*
X0230113Y0026583D01*
X0231010Y0027101D01*
X0233259Y0024852D01*
Y0017022D01*
X0220409D01*
X0220212Y0017760D01*
X0219525Y0018949D01*
X0218555Y0019919D01*
X0217366Y0020605D01*
X0216041Y0020961D01*
X0214668D01*
X0213342Y0020605D01*
X0212154Y0019919D01*
X0211183Y0018949D01*
X0210497Y0017760D01*
X0210142Y0016434D01*
Y0015062D01*
X0210497Y0013736D01*
X0211183Y0012547D01*
X0212154Y0011577D01*
X0213342Y0010891D01*
X0214668Y0010535D01*
X0216041D01*
X0217366Y0010891D01*
X0218555Y0011577D01*
X0219525Y0012547D01*
X0220212Y0013736D01*
X0220409Y0014473D01*
X0234240D01*
X0234728Y0014571D01*
X0235039Y0014779D01*
X0235351Y0014571D01*
X0235839Y0014473D01*
X0249669D01*
X0249867Y0013736D01*
X0250553Y0012547D01*
X0251524Y0011577D01*
X0252712Y0010891D01*
X0254038Y0010535D01*
X0255411D01*
X0256736Y0010891D01*
X0257925Y0011577D01*
X0258895Y0012547D01*
X0259582Y0013736D01*
X0259937Y0015062D01*
Y0016434D01*
X0259582Y0017760D01*
X0258895Y0018949D01*
X0257925Y0019919D01*
X0256736Y0020605D01*
X0255411Y0020961D01*
X0254038D01*
X0252712Y0020605D01*
X0251524Y0019919D01*
X0250553Y0018949D01*
X0249867Y0017760D01*
X0249669Y0017022D01*
X0236820D01*
Y0025799D01*
X0236723Y0026287D01*
X0236447Y0026700D01*
X0205314Y0057833D01*
X0205362Y0058071D01*
Y0059252D01*
X0205238Y0059873D01*
X0204887Y0060399D01*
X0204361Y0060750D01*
X0203740Y0060874D01*
X0202559D01*
X0201939Y0060750D01*
X0201378Y0060419D01*
X0200817Y0060750D01*
X0200197Y0060874D01*
X0199016D01*
X0198395Y0060750D01*
X0197869Y0060399D01*
X0197758Y0060233D01*
X0196697Y0060444D01*
X0196681Y0060523D01*
X0196351Y0061017D01*
X0195858Y0061347D01*
X0195374Y0061443D01*
Y0065847D01*
X0190970D01*
X0190874Y0066330D01*
X0190544Y0066824D01*
X0190051Y0067154D01*
X0189469Y0067269D01*
X0189395Y0067255D01*
X0189091Y0067527D01*
X0188682Y0068128D01*
X0188768Y0068563D01*
Y0069823D01*
X0188642Y0070459D01*
X0188281Y0070998D01*
Y0071325D01*
X0188642Y0071864D01*
X0188768Y0072500D01*
Y0073760D01*
X0188739Y0073905D01*
X0189488Y0074775D01*
X0190748D01*
X0191384Y0074902D01*
X0191923Y0075262D01*
X0192283Y0075801D01*
X0192410Y0076437D01*
Y0077697D01*
X0192283Y0078333D01*
X0191923Y0078872D01*
X0191776Y0078970D01*
X0191859Y0079169D01*
Y0079886D01*
X0191585Y0080547D01*
X0191475Y0080658D01*
X0191889Y0081658D01*
X0392497D01*
Y0001204D01*
D02*
G37*
%LPC*%
G36*
X0248783Y0075914D02*
X0248067D01*
X0247406Y0075640D01*
X0247401Y0075635D01*
X0246457D01*
X0246457Y0075635D01*
X0245875Y0075520D01*
X0245381Y0075190D01*
X0245381Y0075190D01*
X0244003Y0073812D01*
X0243673Y0073318D01*
X0243576Y0072832D01*
X0243537Y0072723D01*
X0242557Y0072092D01*
X0242520Y0072100D01*
X0241784Y0071954D01*
X0241160Y0071537D01*
X0240743Y0070913D01*
X0240597Y0070177D01*
Y0066437D01*
X0240743Y0065701D01*
X0240990Y0065332D01*
Y0061811D01*
X0241107Y0061226D01*
X0241438Y0060730D01*
X0244203Y0057965D01*
X0243820Y0057041D01*
X0232917D01*
X0231254Y0058704D01*
Y0065332D01*
X0231501Y0065701D01*
X0231647Y0066437D01*
Y0070177D01*
X0231501Y0070913D01*
X0231084Y0071537D01*
X0230460Y0071954D01*
X0229724Y0072100D01*
X0228989Y0071954D01*
X0228509Y0071633D01*
X0228440Y0071612D01*
X0227997Y0071615D01*
X0227312Y0071761D01*
X0227257Y0071843D01*
X0225324Y0073777D01*
Y0073783D01*
X0225050Y0074445D01*
X0224543Y0074951D01*
X0223882Y0075225D01*
X0223166D01*
X0222504Y0074951D01*
X0221998Y0074445D01*
X0221724Y0073783D01*
Y0073067D01*
X0221998Y0072406D01*
X0222504Y0071899D01*
X0223166Y0071625D01*
X0223172D01*
X0224660Y0070138D01*
Y0052756D01*
X0224776Y0052174D01*
X0225105Y0051680D01*
X0228203Y0048582D01*
Y0048066D01*
X0227948Y0047685D01*
X0227802Y0046949D01*
Y0043209D01*
X0227948Y0042473D01*
X0228365Y0041849D01*
X0228989Y0041432D01*
X0229724Y0041286D01*
X0230460Y0041432D01*
X0231004Y0041796D01*
X0231548Y0041432D01*
X0232283Y0041286D01*
X0233019Y0041432D01*
X0233563Y0041796D01*
X0234107Y0041432D01*
X0234842Y0041286D01*
X0235578Y0041432D01*
X0236122Y0041796D01*
X0236666Y0041432D01*
X0237402Y0041286D01*
X0237432Y0041292D01*
X0238226Y0040741D01*
X0238337Y0040455D01*
X0238327Y0040439D01*
X0238200Y0039803D01*
Y0038543D01*
X0238327Y0037907D01*
X0238687Y0037368D01*
X0238849Y0037260D01*
X0238736Y0036987D01*
Y0036271D01*
X0239011Y0035609D01*
X0239517Y0035103D01*
X0240178Y0034829D01*
X0240895D01*
X0241556Y0035103D01*
X0242062Y0035609D01*
X0242336Y0036271D01*
Y0036987D01*
X0242204Y0037306D01*
X0242297Y0037368D01*
X0242657Y0037907D01*
X0242784Y0038543D01*
Y0039803D01*
X0242683Y0040312D01*
X0242715Y0040543D01*
X0243083Y0041205D01*
X0244149Y0041561D01*
X0244343Y0041432D01*
X0245079Y0041286D01*
X0245815Y0041432D01*
X0246438Y0041849D01*
X0246855Y0042473D01*
X0247002Y0043209D01*
Y0043527D01*
X0247513Y0043822D01*
X0248002Y0044002D01*
X0248559Y0043771D01*
X0249275D01*
X0249542Y0043881D01*
X0250474Y0043380D01*
X0250542Y0043295D01*
Y0043012D01*
X0250673Y0042353D01*
X0250764Y0042216D01*
Y0041143D01*
X0250518Y0040978D01*
X0250158Y0040439D01*
X0250031Y0039803D01*
Y0038543D01*
X0250158Y0037907D01*
X0250518Y0037368D01*
X0250540Y0037353D01*
X0250464Y0037169D01*
Y0036453D01*
X0250738Y0035791D01*
X0251244Y0035285D01*
X0251906Y0035011D01*
X0252622D01*
X0253283Y0035285D01*
X0253790Y0035791D01*
X0254064Y0036453D01*
Y0037169D01*
X0254013Y0037291D01*
X0254128Y0037368D01*
X0254488Y0037907D01*
X0254615Y0038543D01*
Y0039803D01*
X0254511Y0040325D01*
X0254526Y0040533D01*
X0254647Y0040827D01*
X0255542Y0041421D01*
X0256201Y0041290D01*
X0256860Y0041421D01*
X0257418Y0041794D01*
X0257614Y0042086D01*
X0257792Y0042137D01*
X0258547D01*
X0258725Y0042086D01*
X0258920Y0041794D01*
X0259479Y0041421D01*
X0260138Y0041290D01*
X0260797Y0041421D01*
X0261355Y0041794D01*
X0261729Y0042353D01*
X0261860Y0043012D01*
Y0047146D01*
X0261729Y0047805D01*
X0261355Y0048363D01*
X0260797Y0048737D01*
X0260138Y0048868D01*
X0259479Y0048737D01*
X0258920Y0048363D01*
X0257908Y0048535D01*
X0257736Y0048807D01*
X0257705Y0048876D01*
Y0049571D01*
X0257432Y0050232D01*
X0257128Y0050536D01*
X0261219Y0054627D01*
X0261551Y0055123D01*
X0261667Y0055709D01*
Y0059583D01*
X0261729Y0059676D01*
X0261860Y0060335D01*
Y0064468D01*
X0261729Y0065127D01*
X0261355Y0065686D01*
X0260797Y0066059D01*
X0260138Y0066191D01*
X0259479Y0066059D01*
X0259154Y0065842D01*
X0258828Y0066059D01*
X0258169Y0066191D01*
X0257510Y0066059D01*
X0257185Y0065842D01*
X0256860Y0066059D01*
X0256201Y0066191D01*
X0255542Y0066059D01*
X0255217Y0065842D01*
X0254891Y0066059D01*
X0254232Y0066191D01*
X0253573Y0066059D01*
X0253015Y0065686D01*
X0252641Y0065127D01*
X0252510Y0064468D01*
Y0060335D01*
X0252628Y0059743D01*
X0252041Y0058911D01*
X0247582D01*
X0244049Y0062445D01*
Y0063746D01*
X0245049Y0064520D01*
X0245079Y0064514D01*
X0245815Y0064661D01*
X0246438Y0065077D01*
X0246855Y0065701D01*
X0246989Y0066374D01*
X0247307Y0066581D01*
X0248002Y0066837D01*
X0248559Y0066606D01*
X0249275D01*
X0249937Y0066879D01*
X0250443Y0067386D01*
X0250717Y0068047D01*
Y0068764D01*
X0250443Y0069425D01*
X0249937Y0069932D01*
X0249275Y0070205D01*
X0248559D01*
X0248002Y0069974D01*
X0247669Y0070042D01*
X0246956Y0070404D01*
X0246855Y0070913D01*
X0246674Y0071185D01*
X0246784Y0071904D01*
X0247738Y0072451D01*
X0248067Y0072314D01*
X0248783D01*
X0249445Y0072588D01*
X0249951Y0073095D01*
X0250225Y0073756D01*
Y0074472D01*
X0249951Y0075134D01*
X0249445Y0075640D01*
X0248783Y0075914D01*
D02*
G37*
G36*
X0237402Y0072100D02*
X0236666Y0071954D01*
X0236122Y0071590D01*
X0235578Y0071954D01*
X0234842Y0072100D01*
X0234107Y0071954D01*
X0233483Y0071537D01*
X0233066Y0070913D01*
X0232920Y0070177D01*
Y0066437D01*
X0233066Y0065701D01*
X0233313Y0065332D01*
Y0063413D01*
X0233043Y0062760D01*
Y0062043D01*
X0233317Y0061382D01*
X0233823Y0060876D01*
X0234485Y0060602D01*
X0235201D01*
X0235862Y0060876D01*
X0236368Y0061382D01*
X0236505Y0061711D01*
X0237044Y0062570D01*
X0237760D01*
X0238421Y0062844D01*
X0238928Y0063350D01*
X0239202Y0064012D01*
Y0064728D01*
X0238944Y0065351D01*
X0239178Y0065701D01*
X0239324Y0066437D01*
Y0070177D01*
X0239178Y0070913D01*
X0238761Y0071537D01*
X0238137Y0071954D01*
X0237402Y0072100D01*
D02*
G37*
G36*
X0296913Y0077785D02*
X0296197D01*
X0295535Y0077511D01*
X0295029Y0077005D01*
X0294755Y0076343D01*
Y0075627D01*
X0294874Y0075340D01*
X0294711Y0075230D01*
X0294351Y0074691D01*
X0294224Y0074055D01*
Y0072795D01*
X0294351Y0072159D01*
X0294711Y0071620D01*
X0294719Y0071615D01*
X0294861Y0070514D01*
X0294580Y0070094D01*
X0294036Y0070012D01*
X0293491Y0070094D01*
X0293108Y0070667D01*
X0292387Y0071149D01*
X0291535Y0071318D01*
X0290685Y0071149D01*
X0289963Y0070667D01*
X0289481Y0069946D01*
X0289312Y0069094D01*
Y0065748D01*
X0289481Y0064897D01*
X0289963Y0064175D01*
X0290685Y0063693D01*
X0291535Y0063524D01*
X0292387Y0063693D01*
X0293108Y0064175D01*
X0293491Y0064749D01*
X0294036Y0064830D01*
X0294580Y0064749D01*
X0294963Y0064175D01*
X0295685Y0063693D01*
X0296535Y0063524D01*
X0297387Y0063693D01*
X0298108Y0064175D01*
X0298176Y0064277D01*
X0299278Y0064127D01*
X0299397Y0063765D01*
X0284951Y0049319D01*
X0284619Y0048822D01*
X0284503Y0048237D01*
Y0048105D01*
X0284465Y0048069D01*
X0283503Y0047662D01*
X0283274Y0047815D01*
X0282638Y0047941D01*
X0281142D01*
X0280506Y0047815D01*
X0279967Y0047455D01*
X0279664Y0047001D01*
X0279134Y0046952D01*
X0278604Y0047001D01*
X0278301Y0047455D01*
X0277762Y0047815D01*
X0277126Y0047941D01*
X0275630D01*
X0274994Y0047815D01*
X0274455Y0047455D01*
X0274095Y0046916D01*
X0273968Y0046279D01*
Y0045020D01*
X0274059Y0044563D01*
X0273478Y0043710D01*
X0272589Y0043649D01*
X0269443Y0046795D01*
Y0050278D01*
X0270443Y0050725D01*
X0270644Y0050591D01*
X0271280Y0050464D01*
X0272539D01*
X0273175Y0050591D01*
X0273714Y0050951D01*
X0274075Y0051490D01*
X0274201Y0052126D01*
Y0053386D01*
X0274075Y0054022D01*
X0273714Y0054561D01*
X0273836Y0055622D01*
X0273939Y0055777D01*
X0274063Y0056398D01*
Y0059153D01*
X0273939Y0059774D01*
X0273588Y0060300D01*
X0273061Y0060652D01*
X0272441Y0060775D01*
X0271260D01*
X0270639Y0060652D01*
X0270443Y0060520D01*
X0269449Y0060957D01*
X0269443Y0060963D01*
Y0063048D01*
X0271801Y0065406D01*
X0272441D01*
X0273061Y0065529D01*
X0273588Y0065881D01*
X0273939Y0066407D01*
X0274063Y0067028D01*
Y0069784D01*
X0273939Y0070404D01*
X0273844Y0070547D01*
X0273714Y0071620D01*
X0274075Y0072159D01*
X0274201Y0072795D01*
Y0074055D01*
X0274075Y0074691D01*
X0273714Y0075230D01*
X0273677Y0075255D01*
X0273749Y0075429D01*
Y0076145D01*
X0273475Y0076807D01*
X0272968Y0077313D01*
X0272307Y0077587D01*
X0271591D01*
X0270929Y0077313D01*
X0270423Y0076807D01*
X0270149Y0076145D01*
Y0075429D01*
X0270204Y0075297D01*
X0270104Y0075230D01*
X0269744Y0074691D01*
X0269618Y0074055D01*
Y0072795D01*
X0269744Y0072159D01*
X0270104Y0071620D01*
X0269903Y0070617D01*
X0269762Y0070404D01*
X0269638Y0069784D01*
Y0067569D01*
X0266832Y0064763D01*
X0266500Y0064266D01*
X0266384Y0063681D01*
Y0046161D01*
X0266500Y0045576D01*
X0266832Y0045080D01*
X0271044Y0040867D01*
X0271541Y0040536D01*
X0272126Y0040419D01*
X0274271D01*
X0274455Y0040144D01*
X0274994Y0039783D01*
X0275630Y0039657D01*
X0277126D01*
X0277762Y0039783D01*
X0278301Y0040144D01*
X0278604Y0040597D01*
X0279134Y0040647D01*
X0279664Y0040597D01*
X0279967Y0040144D01*
X0280506Y0039783D01*
X0281142Y0039657D01*
X0282638D01*
X0283274Y0039783D01*
X0283813Y0040144D01*
X0284758Y0039823D01*
X0285394Y0039696D01*
X0286653D01*
X0287290Y0039823D01*
X0287829Y0040183D01*
X0288000Y0040439D01*
X0295895D01*
X0296480Y0040556D01*
X0296976Y0040887D01*
X0297562Y0041473D01*
X0297894Y0041969D01*
X0298010Y0042554D01*
Y0042654D01*
X0298108Y0042719D01*
X0298590Y0043440D01*
X0298759Y0044291D01*
Y0047638D01*
X0298590Y0048489D01*
X0298108Y0049210D01*
X0297387Y0049692D01*
X0296535Y0049862D01*
X0295685Y0049692D01*
X0294963Y0049210D01*
X0294580Y0048637D01*
X0294036Y0048556D01*
X0293491Y0048637D01*
X0293108Y0049210D01*
X0292387Y0049692D01*
X0291535Y0049862D01*
X0291159Y0049787D01*
X0290667Y0050708D01*
X0302428Y0062470D01*
X0302760Y0062966D01*
X0302876Y0063552D01*
Y0064021D01*
X0303108Y0064175D01*
X0303491Y0064749D01*
X0304035Y0064830D01*
X0304580Y0064749D01*
X0304963Y0064175D01*
X0305684Y0063693D01*
X0306536Y0063524D01*
X0307386Y0063693D01*
X0308108Y0064175D01*
X0308590Y0064897D01*
X0308759Y0065748D01*
Y0069094D01*
X0308590Y0069946D01*
X0308108Y0070667D01*
X0307386Y0071149D01*
X0306536Y0071318D01*
X0305684Y0071149D01*
X0304963Y0070667D01*
X0304742Y0070336D01*
X0303683Y0070322D01*
X0303285Y0070995D01*
X0303377Y0071217D01*
Y0071933D01*
X0303103Y0072595D01*
X0302596Y0073101D01*
X0301935Y0073375D01*
X0301219D01*
X0300557Y0073101D01*
X0300051Y0072595D01*
X0299777Y0071933D01*
Y0071217D01*
X0299879Y0070972D01*
X0299411Y0070202D01*
X0298412Y0070212D01*
X0298200Y0070530D01*
X0298321Y0071620D01*
X0298681Y0072159D01*
X0298808Y0072795D01*
Y0074055D01*
X0298681Y0074691D01*
X0298321Y0075230D01*
X0298219Y0075298D01*
X0298355Y0075627D01*
Y0076343D01*
X0298081Y0077005D01*
X0297575Y0077511D01*
X0296913Y0077785D01*
D02*
G37*
G36*
X0279787Y0077686D02*
X0279071D01*
X0278410Y0077412D01*
X0277903Y0076905D01*
X0277629Y0076244D01*
Y0075528D01*
X0277716Y0075318D01*
X0277585Y0075230D01*
X0277224Y0074691D01*
X0277098Y0074055D01*
Y0072795D01*
X0277224Y0072159D01*
X0277585Y0071620D01*
X0277401Y0070643D01*
X0277242Y0070404D01*
X0277118Y0069784D01*
Y0067028D01*
X0277242Y0066407D01*
X0277593Y0065881D01*
X0278119Y0065529D01*
X0278740Y0065406D01*
X0279250D01*
X0280445Y0064210D01*
X0280445Y0064210D01*
X0281252Y0063403D01*
Y0062778D01*
X0279250Y0060775D01*
X0278740D01*
X0278119Y0060652D01*
X0277593Y0060300D01*
X0277242Y0059774D01*
X0277118Y0059153D01*
Y0056398D01*
X0277242Y0055777D01*
X0277593Y0055251D01*
X0278119Y0054899D01*
X0278740Y0054776D01*
X0279921D01*
X0280542Y0054899D01*
X0281068Y0055251D01*
X0281419Y0055777D01*
X0281543Y0056398D01*
Y0058482D01*
X0284021Y0060960D01*
X0284372Y0061486D01*
X0284496Y0062106D01*
Y0064075D01*
X0284372Y0064695D01*
X0284021Y0065222D01*
X0282738Y0066504D01*
X0282738Y0066504D01*
X0281543Y0067699D01*
Y0069784D01*
X0281419Y0070404D01*
X0281290Y0070597D01*
X0281195Y0071620D01*
X0281555Y0072159D01*
X0281681Y0072795D01*
Y0074055D01*
X0281555Y0074691D01*
X0281195Y0075230D01*
X0281125Y0075277D01*
X0281229Y0075528D01*
Y0076244D01*
X0280955Y0076905D01*
X0280449Y0077412D01*
X0279787Y0077686D01*
D02*
G37*
G36*
X0346211Y0049469D02*
X0345719D01*
X0345232Y0049373D01*
X0344980Y0049204D01*
X0344728Y0049373D01*
X0344242Y0049469D01*
X0343750D01*
X0343264Y0049373D01*
X0343012Y0049204D01*
X0342760Y0049373D01*
X0342274Y0049469D01*
X0341781D01*
X0341295Y0049373D01*
X0341043Y0049204D01*
X0340791Y0049373D01*
X0340305Y0049469D01*
X0339813D01*
X0339327Y0049373D01*
X0338915Y0049097D01*
X0338639Y0048685D01*
X0338543Y0048199D01*
Y0046738D01*
X0338530Y0046673D01*
Y0042558D01*
X0338646Y0041973D01*
X0338934Y0041542D01*
X0338923Y0041486D01*
Y0040101D01*
X0338387Y0039566D01*
X0338055Y0039070D01*
X0337939Y0038484D01*
Y0038118D01*
X0337668Y0037464D01*
Y0036748D01*
X0337943Y0036087D01*
X0338449Y0035580D01*
X0339110Y0035306D01*
X0339827D01*
X0340488Y0035580D01*
X0340846Y0035939D01*
X0341303Y0035482D01*
X0341965Y0035208D01*
X0342681D01*
X0343342Y0035482D01*
X0343701Y0035840D01*
X0344059Y0035482D01*
X0344721Y0035208D01*
X0345437D01*
X0346098Y0035482D01*
X0346605Y0035988D01*
X0346879Y0036650D01*
Y0037366D01*
X0346605Y0038028D01*
X0346461Y0038171D01*
X0346447Y0038244D01*
X0346957Y0039085D01*
X0347145Y0039244D01*
X0347638D01*
X0348274Y0039370D01*
X0348813Y0039730D01*
X0349173Y0040270D01*
X0349300Y0040905D01*
Y0042165D01*
X0349173Y0042801D01*
X0348813Y0043341D01*
X0348274Y0043701D01*
X0347638Y0043827D01*
X0347494D01*
Y0046673D01*
X0347481Y0046738D01*
Y0048199D01*
X0347384Y0048685D01*
X0347109Y0049097D01*
X0346697Y0049373D01*
X0346211Y0049469D01*
D02*
G37*
G36*
X0355118Y0078677D02*
X0318504D01*
X0318114Y0078600D01*
X0317783Y0078378D01*
X0317562Y0078048D01*
X0317484Y0077658D01*
Y0070776D01*
X0317520Y0070595D01*
X0317551Y0070414D01*
X0317559Y0070401D01*
X0317562Y0070386D01*
X0317664Y0070233D01*
X0317762Y0070076D01*
X0317775Y0070068D01*
X0317783Y0070055D01*
X0317936Y0069953D01*
X0318087Y0069846D01*
X0318438Y0069688D01*
X0318359Y0069291D01*
Y0068110D01*
X0318482Y0067490D01*
X0318518Y0067435D01*
X0318617Y0066671D01*
X0318249Y0066175D01*
X0318007Y0066013D01*
X0317624Y0065440D01*
X0317525Y0065481D01*
X0316809D01*
X0316147Y0065207D01*
X0315641Y0064701D01*
X0315367Y0064039D01*
Y0063323D01*
X0315641Y0062661D01*
X0316147Y0062155D01*
X0316809Y0061881D01*
X0317525D01*
X0317725Y0060957D01*
Y0059978D01*
X0317618Y0059906D01*
X0317342Y0059494D01*
X0317245Y0059008D01*
Y0058516D01*
X0317342Y0058030D01*
X0317618Y0057617D01*
X0318030Y0057342D01*
X0317870Y0056354D01*
X0316438D01*
X0315853Y0056238D01*
X0315559Y0056041D01*
X0315465Y0056060D01*
X0313595D01*
X0312840Y0055910D01*
X0312199Y0055482D01*
X0311772Y0054842D01*
X0311622Y0054087D01*
Y0051823D01*
X0311772Y0051068D01*
X0312199Y0050428D01*
X0312840Y0050000D01*
X0313595Y0049850D01*
X0314506D01*
X0315228Y0048980D01*
Y0048264D01*
X0315502Y0047602D01*
X0315997Y0047107D01*
X0315502Y0046611D01*
X0315228Y0045949D01*
Y0045834D01*
X0314988Y0045150D01*
X0314304Y0044910D01*
X0314188D01*
X0313527Y0044636D01*
X0313020Y0044130D01*
X0312747Y0043468D01*
Y0042752D01*
X0313020Y0042091D01*
X0313527Y0041584D01*
X0314188Y0041310D01*
X0314304D01*
X0314988Y0041071D01*
X0315228Y0040386D01*
Y0040271D01*
X0315502Y0039610D01*
X0316008Y0039103D01*
X0316670Y0038829D01*
X0317386D01*
X0318047Y0039103D01*
X0318553Y0039610D01*
X0318796Y0040195D01*
X0318864Y0040295D01*
X0319828Y0040928D01*
X0319980Y0040898D01*
X0320620D01*
X0323027Y0038491D01*
X0323523Y0038160D01*
X0324108Y0038043D01*
X0324199D01*
X0324407Y0037733D01*
X0324933Y0037382D01*
X0325553Y0037258D01*
X0326734D01*
X0327355Y0037382D01*
X0327916Y0037713D01*
X0328476Y0037382D01*
X0329097Y0037258D01*
X0330278D01*
X0330898Y0037382D01*
X0331424Y0037733D01*
X0331776Y0038259D01*
X0331899Y0038880D01*
Y0040061D01*
X0331776Y0040682D01*
X0331483Y0041341D01*
X0331776Y0042000D01*
X0331899Y0042620D01*
Y0043801D01*
X0331776Y0044422D01*
X0331424Y0044948D01*
X0331217Y0045087D01*
Y0050380D01*
X0331216Y0050383D01*
X0331932Y0051383D01*
X0331988D01*
X0332476Y0051480D01*
X0332889Y0051756D01*
X0333972Y0052839D01*
X0334248Y0053252D01*
X0334345Y0053740D01*
Y0061409D01*
X0335345Y0062031D01*
X0335469Y0061980D01*
X0336185D01*
X0337085Y0062089D01*
X0337512Y0061449D01*
X0338152Y0061022D01*
X0338530Y0060947D01*
Y0057706D01*
X0338522Y0057665D01*
X0338543Y0057561D01*
Y0056132D01*
X0338639Y0055646D01*
X0338915Y0055234D01*
X0339327Y0054958D01*
X0339813Y0054861D01*
X0340305D01*
X0340791Y0054958D01*
X0341043Y0055127D01*
X0341295Y0054958D01*
X0341781Y0054861D01*
X0342274D01*
X0342760Y0054958D01*
X0343172Y0055234D01*
X0343447Y0055646D01*
X0343486Y0055841D01*
X0344506D01*
X0344545Y0055646D01*
X0344820Y0055234D01*
X0345232Y0054958D01*
X0345719Y0054861D01*
X0346211D01*
X0346697Y0054958D01*
X0347109Y0055234D01*
X0347384Y0055646D01*
X0347481Y0056132D01*
Y0057633D01*
X0347486Y0057657D01*
Y0059409D01*
X0347491Y0059413D01*
X0347765Y0060075D01*
Y0060791D01*
X0347491Y0061453D01*
X0346984Y0061959D01*
X0346323Y0062233D01*
X0345607D01*
X0344945Y0061959D01*
X0344549Y0061563D01*
X0343950Y0061656D01*
X0343740Y0061744D01*
X0343541Y0061862D01*
X0343433Y0062406D01*
X0343143Y0062840D01*
X0343144Y0062844D01*
Y0064714D01*
X0343105Y0064909D01*
X0343811Y0065909D01*
X0350260D01*
Y0045965D01*
X0350338Y0045575D01*
X0350559Y0045244D01*
X0350889Y0045023D01*
X0351280Y0044945D01*
X0354475D01*
X0354921Y0044374D01*
X0355000Y0043931D01*
X0354998Y0043928D01*
X0354874Y0043307D01*
Y0042126D01*
X0354998Y0041505D01*
X0355349Y0040979D01*
X0355875Y0040628D01*
X0356496Y0040504D01*
X0357677D01*
X0358298Y0040628D01*
X0358824Y0040979D01*
X0358893D01*
X0359419Y0040628D01*
X0360039Y0040504D01*
X0361221D01*
X0361841Y0040628D01*
X0362367Y0040979D01*
X0362633D01*
X0363159Y0040628D01*
X0363780Y0040504D01*
X0364961D01*
X0365581Y0040628D01*
X0366107Y0040979D01*
X0366176D01*
X0366702Y0040628D01*
X0367323Y0040504D01*
X0368504D01*
X0369125Y0040628D01*
X0369198Y0040677D01*
X0370132D01*
X0370785Y0040406D01*
X0371501D01*
X0372163Y0040680D01*
X0372669Y0041186D01*
X0372943Y0041848D01*
Y0042564D01*
X0372898Y0042672D01*
X0372963Y0042793D01*
X0373489Y0043145D01*
X0373841Y0043671D01*
X0373964Y0044291D01*
Y0045472D01*
X0373841Y0046093D01*
X0373489Y0046619D01*
X0372963Y0046971D01*
X0372343Y0047094D01*
X0371162D01*
X0370541Y0046971D01*
X0370015Y0046619D01*
X0369663Y0046093D01*
X0369577Y0045657D01*
X0369453Y0045425D01*
X0368540Y0044922D01*
X0368504Y0044929D01*
X0367323D01*
X0366702Y0044805D01*
X0366176Y0044454D01*
X0366107D01*
X0365581Y0044805D01*
X0364961Y0044929D01*
X0363780D01*
X0363159Y0044805D01*
X0362907Y0044637D01*
X0361847Y0044941D01*
X0361836Y0044962D01*
X0361790Y0045102D01*
X0361660Y0045861D01*
X0361990Y0046355D01*
X0362167Y0047244D01*
Y0050591D01*
X0361990Y0051480D01*
X0361486Y0052234D01*
X0361497Y0052363D01*
X0361830Y0053207D01*
X0362776D01*
X0363281Y0053307D01*
X0363709Y0053594D01*
X0363996Y0054022D01*
X0364096Y0054528D01*
Y0055118D01*
X0363996Y0055624D01*
X0363873Y0055807D01*
X0363996Y0055991D01*
X0364096Y0056496D01*
Y0057087D01*
X0363996Y0057592D01*
X0363709Y0058021D01*
X0363281Y0058307D01*
X0362776Y0058407D01*
X0360728D01*
X0360348Y0059351D01*
Y0061087D01*
X0360892Y0061195D01*
X0361623Y0061684D01*
X0362112Y0062415D01*
X0362283Y0063278D01*
Y0071565D01*
X0362112Y0072427D01*
X0361623Y0073159D01*
X0360892Y0073647D01*
X0360030Y0073819D01*
X0357608D01*
X0357138Y0073725D01*
X0356138Y0074352D01*
Y0077658D01*
X0356060Y0078048D01*
X0355839Y0078378D01*
X0355508Y0078600D01*
X0355118Y0078677D01*
D02*
G37*
G36*
X0019046Y0045974D02*
X0018905D01*
Y0039968D01*
X0024911D01*
Y0040109D01*
X0024661Y0041366D01*
X0024171Y0042550D01*
X0023459Y0043615D01*
X0022553Y0044522D01*
X0021487Y0045234D01*
X0020303Y0045724D01*
X0019046Y0045974D01*
D02*
G37*
G36*
X0017906D02*
X0017765D01*
X0016508Y0045724D01*
X0015324Y0045234D01*
X0014258Y0044522D01*
X0013352Y0043615D01*
X0012640Y0042550D01*
X0012150Y0041366D01*
X0011900Y0040109D01*
Y0039968D01*
X0017906D01*
Y0045974D01*
D02*
G37*
G36*
X0306536Y0049862D02*
X0305684Y0049692D01*
X0304963Y0049210D01*
X0304481Y0048489D01*
X0304312Y0047638D01*
Y0044291D01*
X0304481Y0043440D01*
X0304814Y0042942D01*
X0304849Y0041864D01*
X0304488Y0041325D01*
X0304362Y0040689D01*
Y0039429D01*
X0304488Y0038793D01*
X0304849Y0038254D01*
X0305012Y0038145D01*
X0304893Y0037857D01*
Y0037141D01*
X0305167Y0036480D01*
X0305673Y0035973D01*
X0306335Y0035699D01*
X0307051D01*
X0307713Y0035973D01*
X0308219Y0036480D01*
X0308493Y0037141D01*
Y0037237D01*
X0308772Y0037949D01*
X0309417Y0038161D01*
X0309572D01*
X0310233Y0038435D01*
X0310739Y0038941D01*
X0311014Y0039603D01*
Y0040319D01*
X0310739Y0040980D01*
X0310233Y0041487D01*
X0309572Y0041761D01*
X0308855D01*
X0308357Y0042361D01*
X0308274Y0042967D01*
X0308590Y0043440D01*
X0308759Y0044291D01*
Y0047638D01*
X0308590Y0048489D01*
X0308108Y0049210D01*
X0307386Y0049692D01*
X0306536Y0049862D01*
D02*
G37*
G36*
X0024911Y0038969D02*
X0018905D01*
Y0032963D01*
X0019046D01*
X0020303Y0033213D01*
X0021487Y0033703D01*
X0022553Y0034415D01*
X0023459Y0035322D01*
X0024171Y0036387D01*
X0024661Y0037571D01*
X0024911Y0038828D01*
Y0038969D01*
D02*
G37*
G36*
X0017906D02*
X0011900D01*
Y0038828D01*
X0012150Y0037571D01*
X0012640Y0036387D01*
X0013352Y0035322D01*
X0014258Y0034415D01*
X0015324Y0033703D01*
X0016508Y0033213D01*
X0017765Y0032963D01*
X0017906D01*
Y0038969D01*
D02*
G37*
G36*
X0261382Y0036446D02*
X0260666D01*
X0260004Y0036172D01*
X0259498Y0035665D01*
X0259224Y0035004D01*
Y0034288D01*
X0259498Y0033626D01*
X0260004Y0033120D01*
X0260666Y0032846D01*
X0261382D01*
X0262043Y0033120D01*
X0262550Y0033626D01*
X0262824Y0034288D01*
Y0035004D01*
X0262550Y0035665D01*
X0262043Y0036172D01*
X0261382Y0036446D01*
D02*
G37*
G36*
X0371329Y0073819D02*
X0368907D01*
X0368789Y0073795D01*
X0366240D01*
X0365850Y0073718D01*
X0365519Y0073497D01*
X0365298Y0073166D01*
X0365221Y0072776D01*
Y0060843D01*
X0365298Y0060453D01*
X0365298Y0060453D01*
X0365446Y0060096D01*
Y0059786D01*
X0365381Y0059629D01*
X0365335Y0059561D01*
X0365319Y0059479D01*
X0365298Y0059429D01*
X0365298Y0059429D01*
X0365221Y0059039D01*
Y0058829D01*
X0365234Y0058759D01*
Y0058465D01*
X0365335Y0057959D01*
X0365458Y0057776D01*
X0365335Y0057592D01*
X0365234Y0057087D01*
Y0056496D01*
X0365335Y0055991D01*
X0365458Y0055807D01*
X0365335Y0055624D01*
X0365234Y0055118D01*
Y0054528D01*
X0365335Y0054022D01*
X0365621Y0053594D01*
X0366050Y0053307D01*
X0366469Y0053224D01*
X0367393Y0053016D01*
Y0052299D01*
X0367667Y0051638D01*
X0368173Y0051131D01*
X0368835Y0050858D01*
X0369551D01*
X0370213Y0051131D01*
X0370719Y0051638D01*
X0370993Y0052299D01*
X0371376Y0052564D01*
X0377432D01*
X0377439Y0052529D01*
X0377790Y0052003D01*
X0378316Y0051651D01*
X0378937Y0051528D01*
X0380118D01*
X0380658Y0051635D01*
X0380784Y0051623D01*
X0381658Y0051063D01*
Y0041276D01*
X0377165D01*
X0376775Y0041198D01*
X0376444Y0040977D01*
X0376223Y0040646D01*
X0376146Y0040256D01*
Y0029921D01*
X0376223Y0029531D01*
X0376444Y0029200D01*
X0376775Y0028979D01*
X0377165Y0028902D01*
X0379327D01*
X0379664Y0028320D01*
X0379785Y0027902D01*
X0379412Y0027255D01*
X0379205Y0026484D01*
X0382480D01*
X0385755D01*
X0385549Y0027255D01*
X0385176Y0027902D01*
X0385297Y0028320D01*
X0385634Y0028902D01*
X0387795D01*
X0388186Y0028979D01*
X0388516Y0029200D01*
X0388737Y0029531D01*
X0388815Y0029921D01*
Y0052461D01*
X0388737Y0052851D01*
X0388636Y0053002D01*
X0388737Y0053153D01*
X0388815Y0053543D01*
Y0072776D01*
X0388737Y0073166D01*
X0388516Y0073497D01*
X0388186Y0073718D01*
X0387795Y0073795D01*
X0371448D01*
X0371329Y0073819D01*
D02*
G37*
G36*
X0265358Y0030561D02*
X0265224D01*
Y0026248D01*
X0269537D01*
Y0026382D01*
X0269209Y0027606D01*
X0268576Y0028703D01*
X0267679Y0029599D01*
X0266582Y0030233D01*
X0265358Y0030561D01*
D02*
G37*
G36*
X0264224D02*
X0264091D01*
X0262867Y0030233D01*
X0261769Y0029599D01*
X0260873Y0028703D01*
X0260240Y0027606D01*
X0259912Y0026382D01*
Y0026248D01*
X0264224D01*
Y0030561D01*
D02*
G37*
G36*
X0245358D02*
X0245224D01*
Y0026248D01*
X0249537D01*
Y0026382D01*
X0249209Y0027606D01*
X0248575Y0028703D01*
X0247679Y0029599D01*
X0246582Y0030233D01*
X0245358Y0030561D01*
D02*
G37*
G36*
X0244224D02*
X0244091D01*
X0242867Y0030233D01*
X0241769Y0029599D01*
X0240873Y0028703D01*
X0240240Y0027606D01*
X0239912Y0026382D01*
Y0026248D01*
X0244224D01*
Y0030561D01*
D02*
G37*
G36*
X0224854D02*
X0224721D01*
X0223497Y0030233D01*
X0222399Y0029599D01*
X0221503Y0028703D01*
X0220870Y0027606D01*
X0220542Y0026382D01*
Y0026248D01*
X0224854D01*
Y0030561D01*
D02*
G37*
G36*
X0205988D02*
X0205854D01*
Y0026248D01*
X0210167D01*
Y0026382D01*
X0209839Y0027606D01*
X0209205Y0028703D01*
X0208309Y0029599D01*
X0207212Y0030233D01*
X0205988Y0030561D01*
D02*
G37*
G36*
X0204854D02*
X0204721D01*
X0203497Y0030233D01*
X0202399Y0029599D01*
X0201503Y0028703D01*
X0200870Y0027606D01*
X0200542Y0026382D01*
Y0026248D01*
X0204854D01*
Y0030561D01*
D02*
G37*
G36*
X0385755Y0025484D02*
X0382980D01*
Y0022709D01*
X0383751Y0022916D01*
X0384502Y0023349D01*
X0385115Y0023962D01*
X0385549Y0024713D01*
X0385755Y0025484D01*
D02*
G37*
G36*
X0381980D02*
X0379205D01*
X0379412Y0024713D01*
X0379845Y0023962D01*
X0380458Y0023349D01*
X0381209Y0022916D01*
X0381980Y0022709D01*
Y0025484D01*
D02*
G37*
G36*
X0179689Y0025127D02*
X0178973D01*
X0178311Y0024853D01*
X0177805Y0024346D01*
X0177531Y0023685D01*
Y0022969D01*
X0177805Y0022307D01*
X0178311Y0021801D01*
X0178973Y0021527D01*
X0179689D01*
X0180350Y0021801D01*
X0180857Y0022307D01*
X0181131Y0022969D01*
Y0023685D01*
X0180857Y0024346D01*
X0180350Y0024853D01*
X0179689Y0025127D01*
D02*
G37*
G36*
X0269537Y0025248D02*
X0265224D01*
Y0020935D01*
X0265358D01*
X0266582Y0021263D01*
X0267679Y0021897D01*
X0268576Y0022793D01*
X0269209Y0023890D01*
X0269537Y0025114D01*
Y0025248D01*
D02*
G37*
G36*
X0264224D02*
X0259912D01*
Y0025114D01*
X0260240Y0023890D01*
X0260873Y0022793D01*
X0261769Y0021897D01*
X0262867Y0021263D01*
X0264091Y0020935D01*
X0264224D01*
Y0025248D01*
D02*
G37*
G36*
X0249537D02*
X0245224D01*
Y0020935D01*
X0245358D01*
X0246582Y0021263D01*
X0247679Y0021897D01*
X0248575Y0022793D01*
X0249209Y0023890D01*
X0249537Y0025114D01*
Y0025248D01*
D02*
G37*
G36*
X0244224D02*
X0239912D01*
Y0025114D01*
X0240240Y0023890D01*
X0240873Y0022793D01*
X0241769Y0021897D01*
X0242867Y0021263D01*
X0244091Y0020935D01*
X0244224D01*
Y0025248D01*
D02*
G37*
G36*
X0230167D02*
X0225854D01*
Y0020935D01*
X0225988D01*
X0227212Y0021263D01*
X0228309Y0021897D01*
X0229205Y0022793D01*
X0229839Y0023890D01*
X0230167Y0025114D01*
Y0025248D01*
D02*
G37*
G36*
X0224854D02*
X0220542D01*
Y0025114D01*
X0220870Y0023890D01*
X0221503Y0022793D01*
X0222399Y0021897D01*
X0223497Y0021263D01*
X0224721Y0020935D01*
X0224854D01*
Y0025248D01*
D02*
G37*
G36*
X0210167D02*
X0205854D01*
Y0020935D01*
X0205988D01*
X0207212Y0021263D01*
X0208309Y0021897D01*
X0209205Y0022793D01*
X0209839Y0023890D01*
X0210167Y0025114D01*
Y0025248D01*
D02*
G37*
G36*
X0204854D02*
X0200542D01*
Y0025114D01*
X0200870Y0023890D01*
X0201503Y0022793D01*
X0202399Y0021897D01*
X0203497Y0021263D01*
X0204721Y0020935D01*
X0204854D01*
Y0025248D01*
D02*
G37*
G36*
X0346898Y0020370D02*
X0345858D01*
X0344852Y0020101D01*
X0343951Y0019580D01*
X0343215Y0018844D01*
X0342695Y0017943D01*
X0342425Y0016938D01*
Y0015897D01*
X0342695Y0014892D01*
X0343215Y0013990D01*
X0343951Y0013254D01*
X0344852Y0012734D01*
X0345858Y0012465D01*
X0346898D01*
X0347904Y0012734D01*
X0348805Y0013254D01*
X0349541Y0013990D01*
X0350061Y0014892D01*
X0350331Y0015897D01*
Y0016938D01*
X0350061Y0017943D01*
X0349541Y0018844D01*
X0348805Y0019580D01*
X0347904Y0020101D01*
X0346898Y0020370D01*
D02*
G37*
G36*
X0336898D02*
X0335858D01*
X0334852Y0020101D01*
X0333951Y0019580D01*
X0333215Y0018844D01*
X0332695Y0017943D01*
X0332425Y0016938D01*
Y0015897D01*
X0332695Y0014892D01*
X0333215Y0013990D01*
X0333951Y0013254D01*
X0334852Y0012734D01*
X0335858Y0012465D01*
X0336898D01*
X0337904Y0012734D01*
X0338805Y0013254D01*
X0339541Y0013990D01*
X0340061Y0014892D01*
X0340331Y0015897D01*
Y0016938D01*
X0340061Y0017943D01*
X0339541Y0018844D01*
X0338805Y0019580D01*
X0337904Y0020101D01*
X0336898Y0020370D01*
D02*
G37*
G36*
X0326898D02*
X0325858D01*
X0324852Y0020101D01*
X0323951Y0019580D01*
X0323215Y0018844D01*
X0322695Y0017943D01*
X0322425Y0016938D01*
Y0015897D01*
X0322695Y0014892D01*
X0323215Y0013990D01*
X0323951Y0013254D01*
X0324852Y0012734D01*
X0325858Y0012465D01*
X0326898D01*
X0327904Y0012734D01*
X0328805Y0013254D01*
X0329541Y0013990D01*
X0330061Y0014892D01*
X0330331Y0015897D01*
Y0016938D01*
X0330061Y0017943D01*
X0329541Y0018844D01*
X0328805Y0019580D01*
X0327904Y0020101D01*
X0326898Y0020370D01*
D02*
G37*
G36*
X0316898D02*
X0315858D01*
X0314852Y0020101D01*
X0313951Y0019580D01*
X0313215Y0018844D01*
X0312695Y0017943D01*
X0312425Y0016938D01*
Y0015897D01*
X0312695Y0014892D01*
X0313215Y0013990D01*
X0313951Y0013254D01*
X0314852Y0012734D01*
X0315858Y0012465D01*
X0316898D01*
X0317904Y0012734D01*
X0318805Y0013254D01*
X0319541Y0013990D01*
X0320061Y0014892D01*
X0320331Y0015897D01*
Y0016938D01*
X0320061Y0017943D01*
X0319541Y0018844D01*
X0318805Y0019580D01*
X0317904Y0020101D01*
X0316898Y0020370D01*
D02*
G37*
G36*
X0306945D02*
X0305904D01*
X0304899Y0020101D01*
X0303997Y0019580D01*
X0303261Y0018844D01*
X0302741Y0017943D01*
X0302472Y0016938D01*
Y0015897D01*
X0302741Y0014892D01*
X0303261Y0013990D01*
X0303997Y0013254D01*
X0304899Y0012734D01*
X0305904Y0012465D01*
X0306945D01*
X0307950Y0012734D01*
X0308851Y0013254D01*
X0309587Y0013990D01*
X0310108Y0014892D01*
X0310377Y0015897D01*
Y0016938D01*
X0310108Y0017943D01*
X0309587Y0018844D01*
X0308851Y0019580D01*
X0307950Y0020101D01*
X0306945Y0020370D01*
D02*
G37*
G36*
X0296944D02*
X0295904D01*
X0294898Y0020101D01*
X0293997Y0019580D01*
X0293261Y0018844D01*
X0292741Y0017943D01*
X0292471Y0016938D01*
Y0015897D01*
X0292741Y0014892D01*
X0293261Y0013990D01*
X0293997Y0013254D01*
X0294898Y0012734D01*
X0295904Y0012465D01*
X0296944D01*
X0297950Y0012734D01*
X0298851Y0013254D01*
X0299587Y0013990D01*
X0300107Y0014892D01*
X0300377Y0015897D01*
Y0016938D01*
X0300107Y0017943D01*
X0299587Y0018844D01*
X0298851Y0019580D01*
X0297950Y0020101D01*
X0296944Y0020370D01*
D02*
G37*
G36*
X0357854Y0020419D02*
X0354902D01*
X0353935Y0020226D01*
X0353116Y0019679D01*
X0352569Y0018860D01*
X0352377Y0017894D01*
Y0014941D01*
X0352569Y0013975D01*
X0353116Y0013156D01*
X0353935Y0012608D01*
X0354902Y0012416D01*
X0357854D01*
X0358821Y0012608D01*
X0359640Y0013156D01*
X0360187Y0013975D01*
X0360379Y0014941D01*
Y0017894D01*
X0360187Y0018860D01*
X0359640Y0019679D01*
X0358821Y0020226D01*
X0357854Y0020419D01*
D02*
G37*
G36*
X0019046Y0016053D02*
X0018905D01*
Y0010047D01*
X0024911D01*
Y0010188D01*
X0024661Y0011445D01*
X0024171Y0012629D01*
X0023459Y0013694D01*
X0022553Y0014600D01*
X0021487Y0015312D01*
X0020303Y0015803D01*
X0019046Y0016053D01*
D02*
G37*
G36*
X0017906D02*
X0017765D01*
X0016508Y0015803D01*
X0015324Y0015312D01*
X0014258Y0014600D01*
X0013352Y0013694D01*
X0012640Y0012629D01*
X0012150Y0011445D01*
X0011900Y0010188D01*
Y0010047D01*
X0017906D01*
Y0016053D01*
D02*
G37*
G36*
X0336878Y0009961D02*
Y0006917D01*
X0339922D01*
X0339689Y0007789D01*
X0339221Y0008599D01*
X0338559Y0009260D01*
X0337749Y0009728D01*
X0336878Y0009961D01*
D02*
G37*
G36*
X0346878D02*
Y0006917D01*
X0349922D01*
X0349689Y0007789D01*
X0349221Y0008599D01*
X0348559Y0009260D01*
X0347749Y0009728D01*
X0346878Y0009961D01*
D02*
G37*
G36*
X0326878D02*
Y0006917D01*
X0329922D01*
X0329689Y0007789D01*
X0329221Y0008599D01*
X0328559Y0009260D01*
X0327749Y0009728D01*
X0326878Y0009961D01*
D02*
G37*
G36*
X0335878D02*
X0335007Y0009728D01*
X0334196Y0009260D01*
X0333535Y0008599D01*
X0333067Y0007789D01*
X0332834Y0006917D01*
X0335878D01*
Y0009961D01*
D02*
G37*
G36*
X0325878D02*
X0325007Y0009728D01*
X0324197Y0009260D01*
X0323535Y0008599D01*
X0323067Y0007789D01*
X0322834Y0006917D01*
X0325878D01*
Y0009961D01*
D02*
G37*
G36*
X0345878D02*
X0345007Y0009728D01*
X0344197Y0009260D01*
X0343535Y0008599D01*
X0343067Y0007789D01*
X0342834Y0006917D01*
X0345878D01*
Y0009961D01*
D02*
G37*
G36*
X0265358Y0010561D02*
X0265224D01*
Y0006248D01*
X0269537D01*
Y0006382D01*
X0269209Y0007606D01*
X0268576Y0008703D01*
X0267679Y0009599D01*
X0266582Y0010233D01*
X0265358Y0010561D01*
D02*
G37*
G36*
X0264224D02*
X0264091D01*
X0262867Y0010233D01*
X0261769Y0009599D01*
X0260873Y0008703D01*
X0260240Y0007606D01*
X0259912Y0006382D01*
Y0006248D01*
X0264224D01*
Y0010561D01*
D02*
G37*
G36*
X0245358D02*
X0245224D01*
Y0006248D01*
X0249537D01*
Y0006382D01*
X0249209Y0007606D01*
X0248575Y0008703D01*
X0247679Y0009599D01*
X0246582Y0010233D01*
X0245358Y0010561D01*
D02*
G37*
G36*
X0244224D02*
X0244091D01*
X0242867Y0010233D01*
X0241769Y0009599D01*
X0240873Y0008703D01*
X0240240Y0007606D01*
X0239912Y0006382D01*
Y0006248D01*
X0244224D01*
Y0010561D01*
D02*
G37*
G36*
X0225988D02*
X0225854D01*
Y0006248D01*
X0230167D01*
Y0006382D01*
X0229839Y0007606D01*
X0229205Y0008703D01*
X0228309Y0009599D01*
X0227212Y0010233D01*
X0225988Y0010561D01*
D02*
G37*
G36*
X0224854D02*
X0224721D01*
X0223497Y0010233D01*
X0222399Y0009599D01*
X0221503Y0008703D01*
X0220870Y0007606D01*
X0220542Y0006382D01*
Y0006248D01*
X0224854D01*
Y0010561D01*
D02*
G37*
G36*
X0205988D02*
X0205854D01*
Y0006248D01*
X0210167D01*
Y0006382D01*
X0209839Y0007606D01*
X0209205Y0008703D01*
X0208309Y0009599D01*
X0207212Y0010233D01*
X0205988Y0010561D01*
D02*
G37*
G36*
X0204854D02*
X0204721D01*
X0203497Y0010233D01*
X0202399Y0009599D01*
X0201503Y0008703D01*
X0200870Y0007606D01*
X0200542Y0006382D01*
Y0006248D01*
X0204854D01*
Y0010561D01*
D02*
G37*
G36*
X0024911Y0009047D02*
X0018905D01*
Y0003042D01*
X0019046D01*
X0020303Y0003292D01*
X0021487Y0003782D01*
X0022553Y0004494D01*
X0023459Y0005400D01*
X0024171Y0006466D01*
X0024661Y0007650D01*
X0024911Y0008907D01*
Y0009047D01*
D02*
G37*
G36*
X0017906D02*
X0011900D01*
Y0008907D01*
X0012150Y0007650D01*
X0012640Y0006466D01*
X0013352Y0005400D01*
X0014258Y0004494D01*
X0015324Y0003782D01*
X0016508Y0003292D01*
X0017765Y0003042D01*
X0017906D01*
Y0009047D01*
D02*
G37*
G36*
X0349922Y0005917D02*
X0346878D01*
Y0002873D01*
X0347749Y0003107D01*
X0348559Y0003574D01*
X0349221Y0004236D01*
X0349689Y0005046D01*
X0349922Y0005917D01*
D02*
G37*
G36*
X0339922D02*
X0336878D01*
Y0002873D01*
X0337749Y0003107D01*
X0338559Y0003574D01*
X0339221Y0004236D01*
X0339689Y0005046D01*
X0339922Y0005917D01*
D02*
G37*
G36*
X0329922D02*
X0326878D01*
Y0002873D01*
X0327749Y0003107D01*
X0328559Y0003574D01*
X0329221Y0004236D01*
X0329689Y0005046D01*
X0329922Y0005917D01*
D02*
G37*
G36*
X0345878D02*
X0342834D01*
X0343067Y0005046D01*
X0343535Y0004236D01*
X0344197Y0003574D01*
X0345007Y0003107D01*
X0345878Y0002873D01*
Y0005917D01*
D02*
G37*
G36*
X0335878D02*
X0332834D01*
X0333067Y0005046D01*
X0333535Y0004236D01*
X0334196Y0003574D01*
X0335007Y0003107D01*
X0335878Y0002873D01*
Y0005917D01*
D02*
G37*
G36*
X0325878D02*
X0322834D01*
X0323067Y0005046D01*
X0323535Y0004236D01*
X0324197Y0003574D01*
X0325007Y0003107D01*
X0325878Y0002873D01*
Y0005917D01*
D02*
G37*
G36*
X0306945Y0010417D02*
X0305904D01*
X0304899Y0010148D01*
X0303997Y0009628D01*
X0303261Y0008892D01*
X0302741Y0007990D01*
X0302472Y0006985D01*
Y0005944D01*
X0302741Y0004939D01*
X0303261Y0004038D01*
X0303997Y0003302D01*
X0304899Y0002781D01*
X0305904Y0002512D01*
X0306945D01*
X0307950Y0002781D01*
X0308851Y0003302D01*
X0309587Y0004038D01*
X0310108Y0004939D01*
X0310377Y0005944D01*
Y0006985D01*
X0310108Y0007990D01*
X0309587Y0008892D01*
X0308851Y0009628D01*
X0307950Y0010148D01*
X0306945Y0010417D01*
D02*
G37*
G36*
X0296944D02*
X0295904D01*
X0294898Y0010148D01*
X0293997Y0009628D01*
X0293261Y0008892D01*
X0292741Y0007990D01*
X0292471Y0006985D01*
Y0005944D01*
X0292741Y0004939D01*
X0293261Y0004038D01*
X0293997Y0003302D01*
X0294898Y0002781D01*
X0295904Y0002512D01*
X0296944D01*
X0297950Y0002781D01*
X0298851Y0003302D01*
X0299587Y0004038D01*
X0300107Y0004939D01*
X0300377Y0005944D01*
Y0006985D01*
X0300107Y0007990D01*
X0299587Y0008892D01*
X0298851Y0009628D01*
X0297950Y0010148D01*
X0296944Y0010417D01*
D02*
G37*
G36*
X0356898Y0010370D02*
X0355858D01*
X0354852Y0010101D01*
X0353951Y0009580D01*
X0353215Y0008844D01*
X0352695Y0007943D01*
X0352425Y0006938D01*
Y0005897D01*
X0352695Y0004892D01*
X0353215Y0003990D01*
X0353951Y0003254D01*
X0354852Y0002734D01*
X0355858Y0002465D01*
X0356898D01*
X0357904Y0002734D01*
X0358805Y0003254D01*
X0359541Y0003990D01*
X0360061Y0004892D01*
X0360331Y0005897D01*
Y0006938D01*
X0360061Y0007943D01*
X0359541Y0008844D01*
X0358805Y0009580D01*
X0357904Y0010101D01*
X0356898Y0010370D01*
D02*
G37*
G36*
X0316898D02*
X0315858D01*
X0314852Y0010101D01*
X0313951Y0009580D01*
X0313215Y0008844D01*
X0312695Y0007943D01*
X0312425Y0006938D01*
Y0005897D01*
X0312695Y0004892D01*
X0313215Y0003990D01*
X0313951Y0003254D01*
X0314852Y0002734D01*
X0315858Y0002465D01*
X0316898D01*
X0317904Y0002734D01*
X0318805Y0003254D01*
X0319541Y0003990D01*
X0320061Y0004892D01*
X0320331Y0005897D01*
Y0006938D01*
X0320061Y0007943D01*
X0319541Y0008844D01*
X0318805Y0009580D01*
X0317904Y0010101D01*
X0316898Y0010370D01*
D02*
G37*
%LPD*%
G36*
X0331796Y0064728D02*
Y0061449D01*
X0331240Y0060993D01*
X0329980D01*
X0329344Y0060866D01*
X0328805Y0060506D01*
X0328657Y0060283D01*
X0326774D01*
X0326734Y0060291D01*
X0326670Y0060278D01*
X0325996D01*
X0325510Y0060182D01*
X0325098Y0059906D01*
X0324822Y0059494D01*
X0324726Y0059008D01*
Y0058516D01*
X0324822Y0058030D01*
X0324991Y0057778D01*
X0324822Y0057526D01*
X0324726Y0057039D01*
Y0056547D01*
X0324822Y0056061D01*
X0324991Y0055809D01*
X0324822Y0055557D01*
X0324726Y0055071D01*
Y0054579D01*
X0324822Y0054093D01*
X0324991Y0053841D01*
X0324822Y0053589D01*
X0324726Y0053102D01*
Y0052610D01*
X0324822Y0052124D01*
X0325098Y0051712D01*
X0325510Y0051437D01*
X0325996Y0051340D01*
X0326564D01*
X0328158Y0049747D01*
Y0045087D01*
X0327950Y0044948D01*
X0327598Y0044422D01*
X0327475Y0043801D01*
Y0042620D01*
X0327488Y0042552D01*
X0326752Y0041703D01*
X0326699Y0041683D01*
X0325553D01*
X0324933Y0041559D01*
X0324544Y0041300D01*
X0322783Y0043061D01*
Y0043701D01*
X0322660Y0044321D01*
X0322466Y0045015D01*
X0322959Y0045537D01*
X0323061Y0045605D01*
X0323488Y0046245D01*
X0323639Y0047000D01*
Y0048870D01*
X0323488Y0049625D01*
X0323061Y0050265D01*
X0322421Y0050693D01*
X0321666Y0050843D01*
X0321390D01*
X0321128Y0051300D01*
X0320978Y0051843D01*
X0321166Y0052124D01*
X0321263Y0052610D01*
Y0053102D01*
X0321166Y0053589D01*
X0320998Y0053841D01*
X0321166Y0054093D01*
X0321263Y0054579D01*
Y0055071D01*
X0321166Y0055557D01*
X0320891Y0055969D01*
X0320479Y0056245D01*
X0320283Y0056284D01*
Y0057303D01*
X0320479Y0057342D01*
X0320891Y0057617D01*
X0321166Y0058030D01*
X0321263Y0058516D01*
Y0059008D01*
X0321166Y0059494D01*
X0320978Y0059775D01*
X0321128Y0060319D01*
X0321390Y0060775D01*
X0321666D01*
X0322421Y0060925D01*
X0323061Y0061353D01*
X0323488Y0061993D01*
X0323639Y0062748D01*
Y0064618D01*
X0323488Y0065373D01*
X0323061Y0066013D01*
X0322870Y0066141D01*
X0322675Y0066426D01*
X0323081Y0067426D01*
X0329098D01*
X0331796Y0064728D01*
D02*
G37*
G36*
X0355118Y0045965D02*
X0351280D01*
Y0066929D01*
X0342579D01*
Y0069029D01*
X0342592Y0069095D01*
Y0071260D01*
X0342446Y0071996D01*
X0342029Y0072620D01*
X0341405Y0073036D01*
X0340669Y0073183D01*
X0338898D01*
X0338162Y0073036D01*
X0337538Y0072620D01*
X0337121Y0071996D01*
X0336975Y0071260D01*
Y0069095D01*
X0336988Y0069029D01*
Y0066929D01*
X0333200D01*
X0330527Y0069602D01*
X0330114Y0069878D01*
X0329626Y0069975D01*
X0322617D01*
X0322308Y0070438D01*
X0321782Y0070790D01*
X0321161Y0070913D01*
X0319980D01*
X0319360Y0070790D01*
X0319004Y0070552D01*
X0318504Y0070776D01*
Y0077658D01*
X0355118D01*
Y0045965D01*
D02*
G37*
G36*
X0387795Y0053543D02*
X0382677D01*
Y0055118D01*
X0381505D01*
X0381265Y0055477D01*
X0380739Y0055829D01*
X0380118Y0055952D01*
X0378937D01*
X0378316Y0055829D01*
X0377790Y0055477D01*
X0377550Y0055118D01*
X0371723D01*
X0370606Y0056391D01*
X0370573Y0056417D01*
X0370550Y0056451D01*
X0370538Y0056463D01*
X0370538Y0056463D01*
X0370537Y0056464D01*
X0369937Y0057064D01*
X0369937Y0057065D01*
X0369923Y0057078D01*
Y0057087D01*
X0369823Y0057592D01*
X0369536Y0058021D01*
X0369108Y0058307D01*
X0368602Y0058407D01*
X0366555D01*
X0366240Y0058829D01*
Y0059039D01*
X0366465Y0059583D01*
Y0060299D01*
X0366240Y0060843D01*
Y0072776D01*
X0387795D01*
Y0053543D01*
D02*
G37*
G36*
X0387795Y0029921D02*
X0377165Y0029921D01*
Y0040256D01*
X0382677D01*
Y0052461D01*
X0387795D01*
Y0029921D01*
D02*
G37*
%LPC*%
G36*
X0385773Y0037151D02*
X0382980D01*
Y0034358D01*
X0385773D01*
Y0037151D01*
D02*
G37*
G36*
X0381980D02*
X0379187D01*
Y0034358D01*
X0381980D01*
Y0037151D01*
D02*
G37*
G36*
X0385773Y0033358D02*
X0382980D01*
Y0030565D01*
X0385773D01*
Y0033358D01*
D02*
G37*
G36*
X0381980D02*
X0379187D01*
Y0030565D01*
X0381980D01*
Y0033358D01*
D02*
G37*
%LPD*%
D11*
X0160813Y0072146D02*
Y0072288D01*
X0147854Y0074406D02*
X0149705Y0072555D01*
X0140370Y0073130D02*
Y0073279D01*
X0226181Y0052756D02*
Y0070768D01*
X0223524Y0073425D02*
X0226181Y0070768D01*
X0245079Y0068307D02*
Y0072736D01*
X0246457Y0074114D02*
X0248425D01*
X0245079Y0072736D02*
X0246457Y0074114D01*
X0183024Y0043944D02*
X0183465Y0043504D01*
X0185531Y0049409D02*
X0185531Y0049409D01*
X0185076Y0046710D02*
X0185531Y0047166D01*
Y0049409D01*
X0185076Y0046358D02*
Y0046710D01*
X0187500Y0046465D02*
Y0049409D01*
X0187375Y0046340D02*
X0187500Y0046465D01*
X0183563Y0064567D02*
Y0068173D01*
X0185531Y0064567D02*
Y0068173D01*
X0186476Y0069118D02*
Y0069193D01*
X0185531Y0068173D02*
X0186476Y0069118D01*
X0186398Y0073209D02*
X0186476Y0073130D01*
Y0069193D02*
Y0073130D01*
X0182618Y0069118D02*
X0183563Y0068173D01*
X0156398Y0061811D02*
X0158957D01*
X0158957Y0061811D01*
X0182697Y0073209D02*
Y0076890D01*
X0182776Y0076968D01*
X0182697Y0077047D02*
X0182776Y0076968D01*
X0182618Y0069193D02*
Y0073204D01*
X0182618Y0073130D02*
X0182697Y0073209D01*
X0182618Y0073130D02*
X0186476D01*
X0306673Y0037519D02*
Y0045827D01*
X0306536Y0045965D02*
X0306673Y0045827D01*
X0149154Y0049213D02*
X0149346Y0049021D01*
X0309164Y0040010D02*
X0309213Y0039961D01*
X0306673Y0037519D02*
X0306693Y0037499D01*
X0306703Y0040010D02*
X0309164D01*
X0343996Y0061985D02*
X0345748Y0063736D01*
X0343996Y0057657D02*
Y0061985D01*
X0345748Y0063736D02*
Y0063779D01*
X0343012Y0052165D02*
X0343996Y0053150D01*
Y0057657D01*
X0136623Y0069173D02*
X0136673D01*
X0177756Y0054035D02*
X0183563D01*
X0226181Y0052756D02*
X0229724Y0049213D01*
Y0045079D02*
Y0049213D01*
X0342028Y0057657D02*
Y0061823D01*
X0340051Y0057665D02*
Y0063729D01*
X0340072Y0063779D02*
X0342028Y0061823D01*
X0345965Y0057657D02*
Y0060433D01*
X0160886Y0052461D02*
X0160906Y0052480D01*
Y0056181D01*
X0160925Y0056201D01*
X0160886Y0052461D02*
X0161103Y0052244D01*
X0164567Y0049803D02*
X0164626Y0049744D01*
X0164567Y0049803D02*
Y0052402D01*
X0164508Y0052461D02*
X0164567Y0052402D01*
X0152657Y0046752D02*
X0152775Y0046870D01*
X0155098D02*
X0155241Y0047013D01*
X0152775Y0046870D02*
X0155098D01*
X0159039Y0048551D02*
Y0049653D01*
X0158760Y0049932D02*
X0159039Y0049653D01*
X0158760Y0049932D02*
Y0050098D01*
X0158593D02*
X0158760D01*
X0157996Y0050695D02*
X0158593Y0050098D01*
X0156270Y0054104D02*
X0156299Y0054134D01*
X0156923Y0050695D02*
X0157996D01*
X0156240Y0051378D02*
X0156923Y0050695D01*
X0156240Y0051378D02*
X0156270Y0051407D01*
Y0054104D01*
X0147736Y0075787D02*
X0147854Y0075670D01*
Y0074406D02*
Y0075670D01*
X0149705Y0068504D02*
Y0072555D01*
X0149705Y0053906D02*
Y0057087D01*
X0153642Y0052607D02*
Y0057087D01*
X0148661Y0052863D02*
X0149705Y0053906D01*
X0147736Y0053788D02*
X0148661Y0052863D01*
X0147736Y0053788D02*
Y0057087D01*
X0152618Y0051584D02*
X0153642Y0052607D01*
X0148661Y0048720D02*
X0149154Y0049213D01*
X0149032Y0048280D02*
X0149819Y0047492D01*
X0148661Y0048720D02*
X0148661Y0048720D01*
X0149819Y0046145D02*
X0149902Y0046063D01*
X0149819Y0046145D02*
Y0047492D01*
X0149346Y0049021D02*
X0151058D01*
X0151358Y0048720D01*
X0151575D01*
X0145453Y0075770D02*
X0145473Y0075790D01*
X0145453Y0073150D02*
Y0075770D01*
X0145433Y0073130D02*
X0145453Y0073150D01*
X0158858Y0074242D02*
Y0074311D01*
X0160811Y0072146D02*
X0160813D01*
X0158858Y0074242D02*
X0160813Y0072288D01*
X0158774Y0070108D02*
X0160811Y0072146D01*
X0158828Y0069952D02*
X0159068D01*
X0158672Y0070108D02*
X0158774D01*
X0158672D02*
X0158828Y0069952D01*
X0159068D02*
X0160811Y0068209D01*
X0160886D01*
X0156398Y0065748D02*
X0158425D01*
X0160886Y0068209D01*
X0145108Y0055248D02*
X0145177Y0055317D01*
X0145039Y0052658D02*
X0145108Y0052726D01*
Y0055248D01*
X0145039Y0048720D02*
Y0052658D01*
X0159980Y0020177D02*
Y0021850D01*
X0156929Y0024902D02*
X0159980Y0021850D01*
X0140453Y0061811D02*
X0144980D01*
X0140354Y0061713D02*
X0140453Y0061811D01*
X0151683Y0054114D02*
Y0057076D01*
X0164469Y0056201D02*
X0167224Y0053445D01*
X0166378Y0047441D02*
X0167224Y0048287D01*
Y0045669D02*
Y0048287D01*
Y0053445D01*
X0142210Y0059842D02*
X0144980D01*
X0141240Y0050591D02*
X0142618Y0051968D01*
X0140354Y0058012D02*
X0140380D01*
X0142210Y0059842D01*
X0142618Y0051968D02*
Y0055748D01*
X0140354Y0058012D02*
X0142618Y0055748D01*
X0143898Y0065748D02*
X0144980D01*
X0140295Y0069193D02*
X0143732Y0065756D01*
X0143890D01*
X0143898Y0065748D01*
X0134633Y0071163D02*
X0136623Y0069173D01*
X0140366Y0069193D02*
X0140370D01*
X0142326Y0071149D02*
X0142462D01*
X0134633Y0071163D02*
X0134636D01*
X0142225Y0071162D02*
Y0071275D01*
X0140370Y0069193D02*
X0142326Y0071149D01*
X0134516Y0071163D02*
X0134633D01*
X0136603Y0073130D02*
X0136673D01*
X0134636Y0071163D02*
X0136603Y0073130D01*
X0134636Y0075097D02*
X0136603Y0073130D01*
X0142421Y0075331D02*
Y0075492D01*
X0138640Y0074859D02*
Y0075255D01*
X0138484Y0075411D02*
X0138640Y0075255D01*
X0140370Y0073279D02*
X0142421Y0075331D01*
X0138640Y0074859D02*
X0140295Y0073204D01*
Y0073130D02*
Y0073204D01*
Y0073130D02*
X0140370D01*
X0142225Y0071275D01*
X0145039Y0048720D02*
X0145039Y0048720D01*
X0145355Y0046181D02*
Y0048405D01*
Y0046181D02*
X0145473Y0046063D01*
X0145039Y0048720D02*
X0145355Y0048405D01*
X0140354Y0043406D02*
X0140472Y0043288D01*
X0142100D01*
X0144018Y0041358D02*
X0144667D01*
X0144785Y0041240D01*
X0142618Y0042717D02*
X0142660D01*
X0144018Y0041358D01*
X0176575Y0052854D02*
X0176575D01*
X0177756Y0054035D01*
X0176575Y0061122D02*
Y0061122D01*
X0177756Y0059941D02*
X0178937D01*
X0176575Y0061122D02*
X0177756Y0059941D01*
X0178937D02*
X0183563D01*
X0182618Y0069118D02*
Y0069193D01*
X0182618Y0069193D01*
X0232283Y0042996D02*
Y0049016D01*
X0245079Y0045079D02*
Y0049016D01*
Y0045079D02*
X0245229Y0044928D01*
X0317028Y0043110D02*
X0317028Y0043110D01*
X0314546Y0043110D02*
X0317028D01*
X0317028Y0043110D01*
Y0040629D02*
Y0043110D01*
Y0043110D02*
Y0045591D01*
X0176279Y0056004D02*
X0178937D01*
X0176224D02*
X0176279D01*
X0183024Y0047559D02*
X0183563Y0048097D01*
X0182776Y0046358D02*
X0183024Y0046110D01*
X0182841Y0046358D02*
X0183024Y0046541D01*
X0183563Y0048097D02*
Y0049409D01*
X0183024Y0046541D02*
Y0047559D01*
Y0043944D02*
Y0046110D01*
D16*
X0204295Y0057049D02*
X0235546Y0025799D01*
X0204200Y0057049D02*
X0204295D01*
X0235546Y0016041D02*
Y0025799D01*
X0205242Y0054670D02*
X0234533Y0025379D01*
Y0016041D02*
Y0025379D01*
X0203598Y0054670D02*
X0205242D01*
X0203871Y0057379D02*
X0204200Y0057049D01*
X0203871Y0057379D02*
Y0057941D01*
X0194159Y0058037D02*
X0198982D01*
X0199606Y0058661D01*
X0198536Y0056004D02*
X0199422Y0055118D01*
X0194305Y0056004D02*
X0198536D01*
X0199422Y0055118D02*
X0199606D01*
X0203150Y0058661D02*
X0203871Y0057941D01*
X0203150Y0055118D02*
X0203598Y0054670D01*
X0215354Y0015748D02*
X0234240D01*
X0235839D02*
X0254724D01*
X0235546Y0016041D02*
X0235839Y0015748D01*
X0234240D02*
X0234533Y0016041D01*
X0369648Y0055551D02*
X0371000Y0054009D01*
X0371171Y0053839D01*
X0371376Y0053839D01*
X0369636Y0055563D02*
X0369648Y0055551D01*
X0371376Y0053839D02*
X0379528D01*
X0379552D01*
X0369035Y0056163D02*
X0369636Y0055563D01*
X0368913Y0056285D02*
X0369035Y0056163D01*
X0368679Y0056479D02*
X0368810Y0056385D01*
X0367891Y0056479D02*
X0368518D01*
X0368679Y0056479D01*
X0367579Y0056791D02*
X0367891Y0056479D01*
X0379528Y0053839D02*
X0379528Y0053839D01*
X0148661Y0052658D02*
Y0052863D01*
X0152618Y0051378D02*
Y0051584D01*
X0151673Y0057087D02*
X0151683Y0057076D01*
Y0054114D02*
X0151694Y0054104D01*
X0333071Y0053740D02*
Y0065256D01*
X0329626Y0068701D02*
X0333071Y0065256D01*
X0331988Y0052658D02*
X0333071Y0053740D01*
X0329394Y0052658D02*
X0331988D01*
X0327226Y0054825D02*
X0329394Y0052658D01*
X0326734Y0054825D02*
X0327226D01*
X0320571Y0068701D02*
X0329626D01*
X0194095Y0057972D02*
X0194159Y0058037D01*
D17*
X0252293Y0036841D02*
Y0039340D01*
X0143465Y0012795D02*
X0143484Y0012815D01*
X0143415Y0012746D02*
X0143465Y0012795D01*
X0139075Y0024606D02*
X0147835D01*
X0136575Y0027106D02*
X0139075Y0024606D01*
X0135350Y0027598D02*
X0136575D01*
Y0027106D02*
Y0027598D01*
X0240514Y0036651D02*
Y0039151D01*
X0240492Y0039173D02*
X0240514Y0039151D01*
Y0036651D02*
X0240536Y0036629D01*
X0239962Y0039704D02*
Y0045078D01*
Y0039704D02*
X0240492Y0039173D01*
X0239813Y0045226D02*
X0239961Y0045079D01*
X0239813Y0045226D02*
Y0048573D01*
X0238218Y0049340D02*
X0239046D01*
X0237402Y0048524D02*
X0238218Y0049340D01*
X0239046D02*
X0239813Y0048573D01*
X0237402Y0045079D02*
Y0048524D01*
X0160886Y0052461D02*
X0161106Y0052241D01*
X0160886Y0052461D02*
X0160886D01*
X0161106Y0049918D02*
X0161221Y0049803D01*
X0161106Y0049918D02*
Y0052241D01*
X0065158Y0035925D02*
X0065158Y0035925D01*
X0094636Y0054921D02*
X0096900Y0057185D01*
X0099429D01*
X0119587Y0064468D02*
X0119636Y0064518D01*
Y0066683D01*
X0094587Y0054921D02*
X0094636D01*
X0060364Y0054921D02*
X0062628Y0057185D01*
X0063325Y0057677D02*
X0065177D01*
X0089367Y0057661D02*
X0092247D01*
X0093898Y0059311D01*
Y0059350D01*
X0119636Y0066683D02*
X0119685Y0066732D01*
X0119685Y0066732D01*
X0122047D01*
X0123622Y0074213D02*
X0124275Y0073560D01*
Y0073166D02*
Y0073560D01*
Y0073166D02*
X0125099Y0072342D01*
X0126575Y0073819D01*
Y0074213D01*
X0126132Y0057185D02*
X0128297Y0059350D01*
X0123602Y0057185D02*
X0126132D01*
X0128297Y0059350D02*
X0128347D01*
X0123622Y0070472D02*
X0124902Y0071752D01*
X0125099D01*
Y0072342D01*
Y0071752D02*
X0125595D01*
X0126575Y0070772D01*
Y0070472D02*
Y0070772D01*
X0275590Y0057776D02*
Y0060827D01*
X0277907Y0044970D02*
X0280249Y0042628D01*
X0281210D02*
X0281890Y0041949D01*
X0277058Y0044970D02*
X0277907D01*
X0280249Y0042628D02*
X0281210D01*
X0276378Y0045650D02*
X0277058Y0044970D01*
X0272126Y0041949D02*
X0276378D01*
X0286032Y0045619D02*
Y0048237D01*
X0301347Y0063552D01*
Y0067233D01*
X0301556Y0067442D01*
X0286004Y0041969D02*
X0295895D01*
X0296481Y0042554D01*
Y0045910D01*
X0281909Y0041969D02*
X0286004D01*
Y0045630D02*
X0286024Y0045610D01*
X0281909Y0045630D02*
X0286004D01*
Y0041969D02*
X0286024Y0041988D01*
Y0045610D02*
X0286032Y0045619D01*
X0281890Y0045650D02*
X0281909Y0045630D01*
X0267913Y0046161D02*
X0272126Y0041949D01*
X0267913Y0063681D02*
X0271850Y0067618D01*
X0267913Y0046161D02*
Y0063681D01*
X0271850Y0068405D02*
Y0073563D01*
Y0067618D02*
Y0068405D01*
X0271929Y0073642D02*
Y0075768D01*
X0271949Y0075787D01*
X0271850Y0073563D02*
X0271929Y0073642D01*
X0275532Y0052756D02*
X0275561Y0052785D01*
Y0057746D01*
X0275590Y0057776D01*
X0296481Y0045910D02*
X0296535Y0045965D01*
X0283012Y0073425D02*
X0283041Y0073455D01*
Y0075758D01*
X0283071Y0075787D01*
X0275541Y0073238D02*
Y0075856D01*
X0275532Y0073228D02*
X0275541Y0073238D01*
Y0075856D02*
X0275551Y0075866D01*
X0275492Y0050295D02*
X0275512Y0050315D01*
Y0052736D01*
X0275532Y0052756D01*
X0271880Y0052884D02*
Y0057746D01*
Y0052884D02*
X0271909Y0052854D01*
X0271850Y0057776D02*
X0271880Y0057746D01*
X0123602Y0035138D02*
X0123750Y0035285D01*
X0130659D02*
X0130807Y0035433D01*
X0153386Y0028445D02*
X0156929Y0024902D01*
X0143504Y0028445D02*
X0153386D01*
X0135350Y0027598D02*
Y0028022D01*
X0131329D02*
X0135350D01*
Y0027598D02*
X0136024Y0028273D01*
Y0028445D01*
X0130905Y0027598D02*
X0131329Y0028022D01*
X0188583Y0035433D02*
X0200787D01*
X0185236Y0032087D02*
X0188583Y0035433D01*
X0200787D02*
X0203543Y0038189D01*
Y0045079D01*
X0194311Y0044764D02*
X0194478Y0044931D01*
X0199459D02*
X0199606Y0045079D01*
X0194478Y0044931D02*
X0199459D01*
X0199606Y0048622D02*
X0203543D01*
X0199409Y0051870D02*
X0199508Y0051772D01*
Y0048720D02*
X0199606Y0048622D01*
X0199508Y0048720D02*
Y0051772D01*
X0369193Y0045276D02*
Y0045325D01*
X0371143Y0042206D02*
Y0044273D01*
X0375295Y0042224D02*
Y0044882D01*
X0371143Y0044273D02*
X0371752Y0044882D01*
X0375295Y0044882D02*
X0377953D01*
X0375295Y0044882D02*
X0375295Y0044882D01*
X0375295Y0044882D01*
X0368424Y0042206D02*
X0371143D01*
X0367913Y0042717D02*
X0368424Y0042206D01*
X0360630Y0042717D02*
X0364370D01*
X0366043Y0048474D02*
X0369193Y0045325D01*
X0369078Y0052772D02*
X0369193Y0052658D01*
X0357087Y0042717D02*
Y0042717D01*
X0358563Y0044193D01*
Y0048917D01*
X0366043Y0048474D02*
Y0048917D01*
X0366437Y0048524D01*
X0364665Y0050295D02*
X0366043Y0048917D01*
X0364665Y0050295D02*
Y0053641D01*
X0358465Y0049016D02*
X0358563Y0048917D01*
X0359593Y0049947D01*
Y0053392D01*
X0358819Y0057913D02*
Y0067421D01*
X0359593Y0053392D02*
X0361024Y0054823D01*
X0364665Y0053641D02*
Y0055741D01*
X0361024Y0054823D02*
X0361752D01*
X0364665Y0055741D02*
Y0057841D01*
X0361729Y0056815D02*
X0361752Y0056791D01*
X0359918Y0056815D02*
X0361729D01*
X0358819Y0057913D02*
X0359918Y0056815D01*
X0361752Y0058760D02*
X0362480D01*
X0362571Y0058850D01*
X0364665Y0057841D02*
Y0059941D01*
X0362571Y0058850D02*
Y0059355D01*
X0363157Y0059941D01*
X0364665D01*
X0369078Y0052772D02*
Y0054052D01*
X0368307Y0054823D02*
X0369078Y0054052D01*
X0367579Y0054823D02*
X0368307D01*
X0255906Y0049050D02*
Y0049213D01*
Y0049050D02*
X0256129Y0048827D01*
Y0045151D02*
X0256201Y0045079D01*
X0256129Y0045151D02*
Y0048827D01*
X0253150Y0049050D02*
Y0049213D01*
X0254160Y0045151D02*
Y0048040D01*
X0253150Y0049050D02*
X0254160Y0048040D01*
X0336417Y0063779D02*
X0340039D01*
X0320571Y0072244D02*
X0320620Y0072293D01*
X0323474D02*
X0323524Y0072342D01*
X0346083Y0070177D02*
X0349429D01*
X0192142Y0075016D02*
Y0075399D01*
X0192028Y0074902D02*
X0192142Y0075016D01*
X0193740Y0076997D02*
Y0077067D01*
X0192142Y0075399D02*
X0193740Y0076997D01*
X0190169Y0073130D02*
X0191940Y0074902D01*
X0190129Y0073130D02*
X0190169D01*
X0191940Y0074902D02*
X0192028D01*
X0190059Y0079528D02*
X0190089Y0079498D01*
Y0077096D02*
X0190118Y0077067D01*
X0190089Y0077096D02*
Y0079498D01*
X0186368Y0077018D02*
X0186853Y0077502D01*
X0186368Y0077018D02*
X0190069D01*
X0186319Y0076968D02*
X0186368Y0077018D01*
X0190069D02*
X0190118Y0077067D01*
X0186853Y0077502D02*
Y0079210D01*
X0187008Y0079365D01*
Y0079528D01*
X0186319Y0076968D02*
X0186811D01*
X0178996Y0073130D02*
Y0073199D01*
X0176772Y0075423D02*
X0178996Y0073199D01*
X0176772Y0075423D02*
Y0075492D01*
X0160886Y0056201D02*
X0160906Y0056181D01*
X0301556Y0067442D02*
Y0071554D01*
X0301577Y0071575D01*
X0303041Y0037509D02*
Y0040049D01*
Y0037509D02*
X0303051Y0037499D01*
X0303032Y0040059D02*
X0303041Y0040049D01*
X0275512Y0073209D02*
X0275532Y0073228D01*
X0275541Y0073219D01*
X0178996Y0069123D02*
Y0069246D01*
X0255915Y0036841D02*
Y0039270D01*
X0234842Y0062402D02*
Y0068307D01*
X0254160Y0045151D02*
X0254232Y0045079D01*
X0255906Y0051476D02*
X0260138Y0055709D01*
X0242667Y0049262D02*
X0244882Y0051476D01*
X0255906D01*
X0254921Y0053543D02*
X0258169Y0056791D01*
X0234842Y0049114D02*
X0239272Y0053543D01*
X0254921D01*
X0253937Y0055512D02*
X0256177Y0057752D01*
X0229724Y0058071D02*
X0232283Y0055512D01*
X0253937D01*
X0242520Y0061811D02*
X0246949Y0057382D01*
X0252854D01*
X0254232Y0058760D01*
Y0062402D01*
X0256177Y0057752D02*
Y0062281D01*
X0258169Y0056791D02*
Y0062402D01*
X0260138Y0055709D02*
Y0062402D01*
X0256129Y0062329D02*
X0256201Y0062402D01*
X0256129Y0062329D02*
X0256177Y0062281D01*
X0242520Y0061811D02*
Y0068307D01*
X0229724Y0058071D02*
Y0068307D01*
X0234842Y0045079D02*
Y0049114D01*
X0234746Y0044982D02*
X0234842Y0045079D01*
X0242667Y0045033D02*
Y0049262D01*
X0242616Y0044982D02*
X0242667Y0045033D01*
X0252264Y0036811D02*
X0252293Y0036841D01*
X0255886Y0036811D02*
X0255915Y0036841D01*
X0252293Y0039340D02*
X0252323Y0039370D01*
X0255915Y0039270D02*
X0257770Y0041125D01*
X0258054D01*
X0252293Y0039400D02*
X0252323Y0039370D01*
X0258054Y0041125D02*
X0258169Y0041240D01*
X0252264Y0062402D02*
X0252264Y0062402D01*
X0252264Y0062402D02*
Y0066339D01*
X0252293Y0039400D02*
Y0045049D01*
X0258169Y0041240D02*
Y0045079D01*
X0258169Y0045079D01*
X0252264D02*
X0252293Y0045049D01*
X0350630Y0041535D02*
X0350630Y0041535D01*
X0353287D01*
X0350630Y0041535D02*
X0350630Y0041535D01*
Y0044193D01*
X0342027Y0040590D02*
Y0046673D01*
X0340059Y0042558D02*
Y0046673D01*
X0343996Y0042559D02*
Y0046673D01*
X0345965Y0042649D02*
Y0046673D01*
X0342027Y0046673D02*
X0342028Y0046673D01*
X0340051Y0057665D02*
X0340059Y0057657D01*
X0340051Y0063729D02*
Y0063768D01*
X0340039Y0063779D02*
X0340051Y0063768D01*
X0340039Y0063779D02*
X0340072D01*
X0340039Y0063779D02*
X0340039Y0063779D01*
X0336417Y0063779D02*
X0336417Y0063779D01*
X0345965Y0060433D02*
X0345965Y0060433D01*
X0346063Y0062500D02*
X0349410D01*
X0346063Y0065059D02*
X0349410D01*
X0339469Y0037106D02*
Y0038484D01*
X0335039Y0040866D02*
Y0044213D01*
X0337598Y0040866D02*
Y0044213D01*
X0344964Y0037123D02*
X0345079Y0037008D01*
X0344964Y0037123D02*
Y0038008D01*
X0342323Y0037008D02*
Y0039665D01*
X0339469Y0038484D02*
X0340165Y0039181D01*
X0340225D01*
X0342421Y0040551D02*
X0344964Y0038008D01*
X0342027Y0039961D02*
X0342323Y0039665D01*
X0340225Y0039181D02*
X0341595Y0040551D01*
X0342027Y0039961D02*
Y0040551D01*
X0341595D02*
X0342027D01*
X0342421D01*
X0342027D02*
X0342027Y0040551D01*
Y0040590D01*
X0347008Y0041535D02*
Y0041606D01*
X0340059Y0042558D02*
X0342027Y0040590D01*
X0342027Y0040590D02*
X0343996Y0042559D01*
X0345965Y0042649D02*
X0347008Y0041606D01*
X0154980Y0041634D02*
X0155241Y0041895D01*
Y0047013D01*
X0155177Y0041634D02*
X0155325Y0041781D01*
X0164508Y0068209D02*
X0165077Y0067639D01*
X0164508Y0068209D02*
X0164578D01*
X0166562Y0070162D02*
X0166677D01*
X0166532D02*
X0166562D01*
X0164578Y0068209D02*
X0166532Y0070162D01*
X0166547Y0074114D02*
X0166634D01*
X0164578Y0072146D02*
X0166562Y0070162D01*
X0164578Y0072146D02*
X0166547Y0074114D01*
X0164508Y0072146D02*
X0164578D01*
X0156398Y0073130D02*
X0156398Y0073130D01*
Y0075611D01*
X0154232Y0011495D02*
X0154232Y0011495D01*
Y0013976D01*
X0152854Y0073081D02*
Y0073130D01*
X0151673Y0071900D02*
X0152854Y0073081D01*
X0151673Y0068504D02*
Y0071900D01*
X0155241Y0016511D02*
X0157776Y0013976D01*
X0154980Y0020177D02*
X0155241Y0019917D01*
Y0016511D02*
Y0019917D01*
X0162381Y0017820D02*
Y0024093D01*
X0160884Y0016323D02*
X0162381Y0017820D01*
X0157776Y0013976D02*
X0160122Y0016323D01*
X0160884D01*
X0162381Y0024093D02*
X0167224Y0028937D01*
Y0045669D01*
X0167161Y0047051D02*
Y0047831D01*
X0157421Y0037402D02*
X0160241Y0040221D01*
Y0044532D01*
X0163150Y0047441D01*
X0148425Y0037402D02*
X0157421D01*
X0146949Y0038878D02*
X0148425Y0037402D01*
X0137958Y0055413D02*
X0138401Y0054970D01*
X0139704D02*
X0140284Y0054390D01*
X0137795Y0055413D02*
X0137958D01*
X0138401Y0054970D02*
X0139704D01*
X0143484Y0018287D02*
X0143504Y0018307D01*
X0143484Y0012815D02*
Y0017795D01*
X0136024Y0018307D02*
X0136073Y0018258D01*
X0143504Y0029773D02*
Y0033760D01*
X0139735Y0028965D02*
X0139764Y0028937D01*
X0139735Y0028965D02*
Y0031820D01*
X0136713Y0034843D02*
X0139735Y0031820D01*
X0140847Y0012697D02*
X0140896Y0012746D01*
X0143415D01*
X0135925Y0013386D02*
X0135974Y0013435D01*
Y0017766D02*
X0136024Y0017815D01*
X0135974Y0013435D02*
Y0017766D01*
X0135119Y0033249D02*
X0135179D01*
X0130807Y0031890D02*
X0133760D01*
X0136713Y0034783D02*
Y0034843D01*
X0135179Y0033249D02*
X0136713Y0034783D01*
X0133760Y0031890D02*
X0135119Y0033249D01*
X0141865Y0046422D02*
X0142456D01*
X0146949Y0038878D02*
Y0041929D01*
X0142456Y0046422D02*
X0146949Y0041929D01*
X0141240Y0047047D02*
X0141865Y0046422D01*
X0142520Y0039075D02*
X0142618Y0039173D01*
X0142421Y0034350D02*
X0142520Y0034449D01*
Y0039075D01*
X0194291Y0042124D02*
X0194311Y0042143D01*
Y0044764D01*
X0188533Y0042028D02*
X0190551D01*
X0187008Y0043504D02*
X0187057D01*
X0188533Y0042028D01*
X0190551D02*
X0190650Y0042126D01*
X0190679Y0042156D02*
Y0044754D01*
X0190650Y0042126D02*
X0190679Y0042156D01*
X0189469Y0046094D02*
X0190709Y0044854D01*
X0190679Y0044754D02*
X0190709Y0044783D01*
X0189469Y0046094D02*
Y0049409D01*
X0190709Y0044783D02*
Y0044854D01*
X0177125Y0067016D02*
Y0067252D01*
X0177010Y0066901D02*
X0177125Y0067016D01*
X0176886Y0071355D02*
X0178996Y0069246D01*
X0177125Y0067252D02*
X0178996Y0069123D01*
X0176886Y0071355D02*
Y0071637D01*
X0176772Y0071752D02*
X0176886Y0071637D01*
X0176772Y0071752D02*
X0177470Y0072450D01*
X0178316D02*
X0178996Y0073130D01*
X0177470Y0072450D02*
X0178316D01*
X0190098Y0069193D02*
X0190132D01*
X0190169D01*
X0192163Y0067161D02*
X0192197D01*
X0190132Y0069193D02*
X0192163Y0067161D01*
X0190169Y0069193D02*
X0192152Y0071176D01*
X0192122D02*
X0192152D01*
X0192268D01*
X0190169Y0073130D02*
X0192122Y0071176D01*
X0191102Y0010492D02*
X0191142Y0010531D01*
X0191102Y0007874D02*
Y0010492D01*
X0190945Y0020866D02*
Y0024016D01*
X0190653Y0029977D02*
X0191102Y0029528D01*
X0190653Y0029977D02*
Y0031762D01*
X0190538Y0031876D02*
X0190653Y0031762D01*
X0184633Y0023461D02*
X0186650D01*
X0187205Y0024016D01*
X0184519Y0023346D02*
X0184633Y0023461D01*
X0183135Y0030153D02*
X0183760Y0029528D01*
X0180709Y0031102D02*
X0180871D01*
X0181821Y0030153D01*
X0183135D01*
X0194045Y0007194D02*
X0194724Y0007874D01*
X0192348Y0005280D02*
X0194045Y0006977D01*
Y0007194D01*
X0192348Y0005118D02*
Y0005280D01*
X0195358Y0005233D02*
X0195473Y0005118D01*
X0195358Y0005233D02*
Y0007241D01*
X0194724Y0007874D02*
X0195358Y0007241D01*
X0183760Y0029528D02*
Y0029577D01*
X0185121Y0031972D02*
X0185236Y0032087D01*
X0183760Y0029577D02*
X0185121Y0030938D01*
Y0031972D01*
X0194095Y0054035D02*
X0197244D01*
X0199409Y0051870D01*
X0354823Y0049016D02*
X0354823Y0049016D01*
X0237402Y0064370D02*
Y0068307D01*
X0236870Y0036718D02*
Y0039173D01*
X0239961Y0068307D02*
Y0072441D01*
X0232283Y0068307D02*
Y0072441D01*
X0236870Y0039173D02*
X0237254Y0039557D01*
X0242520Y0045079D02*
X0242616Y0044982D01*
X0229724Y0068307D02*
X0229724Y0068307D01*
X0292904Y0075975D02*
X0292913Y0075985D01*
X0292904Y0073435D02*
Y0075975D01*
X0292894Y0073425D02*
X0292904Y0073435D01*
X0296535Y0073445D02*
Y0075965D01*
X0296516Y0073425D02*
X0296535Y0073445D01*
X0296516Y0073425D02*
X0296526Y0073415D01*
Y0067431D02*
X0296535Y0067421D01*
X0296535Y0075965D02*
X0296555Y0075985D01*
X0296526Y0067431D02*
Y0073415D01*
X0330557Y0058754D02*
X0330610Y0058701D01*
X0326042Y0039573D02*
X0326144Y0039471D01*
X0324108Y0039573D02*
X0326042D01*
X0329687Y0039471D02*
Y0043211D01*
X0329687Y0043211D02*
X0329687Y0043211D01*
X0326096Y0043259D02*
X0326144Y0043211D01*
X0323473Y0043259D02*
X0326096D01*
X0323425Y0043307D02*
X0323473Y0043259D01*
X0323425Y0045472D02*
X0323504D01*
X0320571Y0043110D02*
X0324108Y0039573D01*
X0320552Y0043129D02*
X0320571Y0043110D01*
X0320552Y0043129D02*
Y0047916D01*
X0323504Y0045472D02*
X0325967Y0047935D01*
X0329687Y0043211D02*
Y0050380D01*
X0320534Y0047935D02*
X0320552Y0047916D01*
X0325967Y0047935D02*
X0326014D01*
X0326242D01*
X0323457Y0050492D02*
X0326014Y0047935D01*
X0323425Y0050492D02*
X0323457D01*
X0327211Y0052856D02*
X0329687Y0050380D01*
X0326734Y0052856D02*
X0327211D01*
X0328896Y0056793D02*
X0330610Y0055079D01*
X0326734Y0056793D02*
X0328896D01*
X0326742Y0058754D02*
X0330557D01*
X0326734Y0058762D02*
X0326742Y0058754D01*
X0323425Y0061122D02*
X0325986Y0063683D01*
X0319962Y0048507D02*
X0320534Y0047935D01*
X0317142Y0048507D02*
X0319962D01*
X0317028Y0048622D02*
X0317142Y0048507D01*
X0319254Y0049215D02*
X0319962Y0048507D01*
X0319254Y0049215D02*
Y0052856D01*
X0314530Y0052955D02*
X0314568D01*
X0316438Y0054825D01*
X0319254D01*
X0316438Y0056793D02*
X0319254D01*
X0314568Y0058663D02*
X0316438Y0056793D01*
X0314530Y0058663D02*
X0314568D01*
X0314499Y0058694D02*
X0314530Y0058663D01*
X0314481Y0058712D02*
X0314499Y0058694D01*
X0311408Y0058712D02*
X0314481D01*
X0311360Y0058760D02*
X0311408Y0058712D01*
X0314499Y0058694D02*
Y0062000D01*
X0319254Y0058762D02*
Y0062404D01*
X0314469Y0062030D02*
X0314499Y0062000D01*
X0319254Y0062404D02*
X0320533Y0063682D01*
X0329608D02*
X0329609Y0063681D01*
X0326243Y0063682D02*
X0329608D01*
X0326242Y0063683D02*
X0326243Y0063682D01*
X0325986Y0063683D02*
X0326242D01*
X0326212Y0063714D02*
X0326242Y0063683D01*
X0326212Y0063714D02*
Y0066823D01*
X0326181Y0066853D02*
X0326212Y0066823D01*
X0317167Y0063681D02*
X0317168Y0063682D01*
X0320533D01*
X0320534Y0063683D01*
X0320552Y0063702D01*
Y0068682D01*
X0320571Y0068701D01*
D23*
X0326734Y0052856D02*
D03*
Y0054825D02*
D03*
Y0056793D02*
D03*
Y0058762D02*
D03*
X0319254Y0052856D02*
D03*
Y0054825D02*
D03*
Y0056793D02*
D03*
Y0058762D02*
D03*
D24*
X0185531Y0064567D02*
D03*
X0183563D02*
D03*
X0189469Y0049409D02*
D03*
X0187500D02*
D03*
X0185531D02*
D03*
X0183563D02*
D03*
X0187500Y0064567D02*
D03*
X0189469D02*
D03*
D25*
X0194095Y0059941D02*
D03*
Y0057972D02*
D03*
Y0056004D02*
D03*
Y0054035D02*
D03*
X0178937D02*
D03*
Y0056004D02*
D03*
Y0057972D02*
D03*
Y0059941D02*
D03*
D26*
X0156398Y0059842D02*
D03*
X0144980Y0061811D02*
D03*
X0156398Y0063779D02*
D03*
X0144980Y0059842D02*
D03*
Y0063779D02*
D03*
X0156398Y0065748D02*
D03*
Y0061811D02*
D03*
X0144980Y0065748D02*
D03*
D27*
X0153642Y0068504D02*
D03*
X0147736D02*
D03*
X0151673D02*
D03*
Y0057087D02*
D03*
X0149705Y0068504D02*
D03*
X0153642Y0057087D02*
D03*
X0149705D02*
D03*
X0147736D02*
D03*
D29*
X0367579Y0054823D02*
D03*
Y0056791D02*
D03*
Y0058760D02*
D03*
X0361752D02*
D03*
Y0056791D02*
D03*
Y0054823D02*
D03*
D30*
X0164980Y0020177D02*
D03*
X0154980Y0041634D02*
D03*
X0159980D02*
D03*
X0154980Y0020177D02*
D03*
X0159980D02*
D03*
X0149980D02*
D03*
Y0041634D02*
D03*
X0164980D02*
D03*
X0306536Y0067421D02*
D03*
X0301536D02*
D03*
X0296535D02*
D03*
X0291535D02*
D03*
X0306536Y0045965D02*
D03*
X0301536D02*
D03*
X0296535D02*
D03*
X0291535D02*
D03*
D31*
X0056890Y0043504D02*
D03*
X0171693D02*
D03*
D32*
X0090669Y0079528D02*
D03*
X0137913D02*
D03*
X0114291D02*
D03*
X0090680Y0007501D02*
D03*
X0137924D02*
D03*
X0114302D02*
D03*
D33*
X0171693Y0070176D02*
D03*
X0056890D02*
D03*
X0056900Y0016853D02*
D03*
X0171703D02*
D03*
D34*
X0163466Y0079528D02*
D03*
X0065119D02*
D03*
X0065127Y0007501D02*
D03*
X0163474D02*
D03*
D35*
X0239961Y0045079D02*
D03*
X0245079Y0068307D02*
D03*
X0242520D02*
D03*
X0239961D02*
D03*
X0237402D02*
D03*
X0234842D02*
D03*
X0232283D02*
D03*
X0229724D02*
D03*
X0245079Y0045079D02*
D03*
X0242520D02*
D03*
X0237402D02*
D03*
X0234842D02*
D03*
X0232283D02*
D03*
X0229724D02*
D03*
D36*
X0252264Y0045079D02*
D03*
X0260138Y0062402D02*
D03*
X0258169D02*
D03*
X0256201D02*
D03*
X0254232D02*
D03*
X0252264D02*
D03*
X0260138Y0045079D02*
D03*
X0258169D02*
D03*
X0256201D02*
D03*
X0254232D02*
D03*
D37*
X0271850Y0057776D02*
D03*
X0275590D02*
D03*
X0279331D02*
D03*
Y0068405D02*
D03*
X0271850D02*
D03*
X0194685Y0024016D02*
D03*
X0190945D02*
D03*
X0187205D02*
D03*
Y0013386D02*
D03*
X0194685D02*
D03*
X0143504Y0028445D02*
D03*
X0139764D02*
D03*
X0136024D02*
D03*
Y0017815D02*
D03*
X0143504D02*
D03*
D38*
X0281890Y0045650D02*
D03*
X0276378D02*
D03*
Y0041949D02*
D03*
X0281890D02*
D03*
D39*
X0071260Y0017815D02*
D03*
Y0013287D02*
D03*
D40*
X0199606Y0045079D02*
D03*
Y0048622D02*
D03*
X0320571Y0072244D02*
D03*
Y0068701D02*
D03*
X0379528Y0053740D02*
D03*
Y0057284D02*
D03*
X0140354Y0061713D02*
D03*
Y0065256D02*
D03*
X0130807Y0031890D02*
D03*
Y0035433D02*
D03*
X0141240Y0047047D02*
D03*
Y0050591D02*
D03*
X0142618Y0042717D02*
D03*
Y0039173D02*
D03*
X0203543Y0045079D02*
D03*
Y0048622D02*
D03*
D41*
X0370118Y0067421D02*
D03*
X0358819D02*
D03*
D42*
X0125099Y0072342D02*
D03*
X0117618D02*
D03*
X0358563Y0048917D02*
D03*
X0366043D02*
D03*
D43*
X0065158Y0027264D02*
D03*
X0089331D02*
D03*
Y0035925D02*
D03*
X0065158D02*
D03*
X0089331Y0057185D02*
D03*
X0065158D02*
D03*
Y0044587D02*
D03*
X0089331D02*
D03*
X0123602Y0044587D02*
D03*
X0099429D02*
D03*
Y0057185D02*
D03*
X0123602D02*
D03*
X0099429Y0035925D02*
D03*
X0123602D02*
D03*
Y0027264D02*
D03*
X0099429D02*
D03*
D44*
X0345965Y0057657D02*
D03*
X0343996D02*
D03*
X0342028D02*
D03*
X0340059D02*
D03*
X0345965Y0046673D02*
D03*
X0343996D02*
D03*
X0342028D02*
D03*
X0340059D02*
D03*
D45*
X0320534Y0047935D02*
D03*
X0326242D02*
D03*
X0340039Y0063779D02*
D03*
X0345748D02*
D03*
X0342027Y0040551D02*
D03*
X0336319D02*
D03*
X0320534Y0063683D02*
D03*
X0326242D02*
D03*
X0136713Y0034350D02*
D03*
X0142421D02*
D03*
X0071457Y0073130D02*
D03*
X0077165D02*
D03*
X0111221Y0073130D02*
D03*
X0105512D02*
D03*
D46*
X0330610Y0055079D02*
D03*
Y0058701D02*
D03*
X0286024Y0045610D02*
D03*
Y0041988D02*
D03*
X0140354Y0058012D02*
D03*
Y0054390D02*
D03*
X0130905Y0023976D02*
D03*
Y0027598D02*
D03*
D47*
X0350630Y0041535D02*
D03*
X0347008D02*
D03*
X0252323Y0039173D02*
D03*
X0255945D02*
D03*
X0292894Y0073425D02*
D03*
X0296516D02*
D03*
X0303032Y0040059D02*
D03*
X0306654D02*
D03*
X0194331Y0044783D02*
D03*
X0190709D02*
D03*
X0186476Y0073130D02*
D03*
X0190098D02*
D03*
X0186476Y0069193D02*
D03*
X0190098D02*
D03*
X0182618D02*
D03*
X0178996D02*
D03*
X0236870Y0039173D02*
D03*
X0240492D02*
D03*
X0191102Y0029528D02*
D03*
X0194724D02*
D03*
X0191102Y0007874D02*
D03*
X0194724D02*
D03*
X0147087Y0012795D02*
D03*
X0143465D02*
D03*
X0164508Y0052461D02*
D03*
X0160886D02*
D03*
X0166378Y0047441D02*
D03*
X0162756D02*
D03*
X0155276D02*
D03*
X0158898D02*
D03*
X0140295Y0073130D02*
D03*
X0136673D02*
D03*
X0164508Y0072146D02*
D03*
X0160886D02*
D03*
X0140295Y0069193D02*
D03*
X0136673D02*
D03*
X0149055Y0073130D02*
D03*
X0145433D02*
D03*
X0152618Y0051378D02*
D03*
X0156240D02*
D03*
X0148661Y0052658D02*
D03*
X0145039D02*
D03*
X0145039Y0048720D02*
D03*
X0148661D02*
D03*
X0161575Y0013976D02*
D03*
X0165197D02*
D03*
X0178996Y0073130D02*
D03*
X0182618D02*
D03*
X0164508Y0068209D02*
D03*
X0160886D02*
D03*
X0279390Y0073425D02*
D03*
X0283012D02*
D03*
X0271909Y0073425D02*
D03*
X0275532D02*
D03*
X0275532Y0052756D02*
D03*
X0271909D02*
D03*
X0193740Y0077067D02*
D03*
X0190118D02*
D03*
D48*
X0314530Y0052955D02*
D03*
Y0058663D02*
D03*
X0135335Y0064173D02*
D03*
Y0058465D02*
D03*
D49*
X0346083Y0070177D02*
D03*
X0339784D02*
D03*
X0071161Y0067224D02*
D03*
X0077461D02*
D03*
X0105217Y0067224D02*
D03*
X0111516D02*
D03*
X0085532Y0017224D02*
D03*
X0079232D02*
D03*
D50*
X0317028Y0043110D02*
D03*
X0320571D02*
D03*
X0360630Y0042717D02*
D03*
X0357087D02*
D03*
X0329687Y0039471D02*
D03*
X0326144D02*
D03*
X0364370Y0042717D02*
D03*
X0367913D02*
D03*
X0326144Y0043211D02*
D03*
X0329687D02*
D03*
X0203150Y0055118D02*
D03*
X0199606D02*
D03*
X0203150Y0058661D02*
D03*
X0199606D02*
D03*
X0186909Y0043504D02*
D03*
X0183366D02*
D03*
X0371752Y0044882D02*
D03*
X0375295D02*
D03*
X0183760Y0029528D02*
D03*
X0187303D02*
D03*
X0119685Y0066732D02*
D03*
X0116142D02*
D03*
X0161024Y0059842D02*
D03*
X0164567D02*
D03*
X0164469Y0056201D02*
D03*
X0160925D02*
D03*
X0152854Y0073130D02*
D03*
X0156398D02*
D03*
X0154232Y0013976D02*
D03*
X0157776D02*
D03*
X0164567Y0064075D02*
D03*
X0161024D02*
D03*
X0186319Y0076968D02*
D03*
X0182776D02*
D03*
D51*
X0373425Y0057579D02*
D03*
Y0050098D02*
D03*
D52*
X0384843Y0050689D02*
D03*
Y0056988D02*
D03*
X0135335Y0052658D02*
D03*
Y0046358D02*
D03*
X0083150Y0067028D02*
D03*
Y0073327D02*
D03*
D93*
X0322994Y0055809D02*
D03*
D94*
X0186516Y0056988D02*
D03*
D95*
X0150689Y0062795D02*
D03*
D96*
X0343012Y0052165D02*
D03*
D97*
X0279360Y0067589D02*
Y0068435D01*
X0282874Y0062106D02*
Y0064075D01*
X0281592Y0065357D02*
X0282874Y0064075D01*
X0279331Y0058563D02*
X0282874Y0062106D01*
X0281592Y0065357D02*
X0281592D01*
X0279921Y0067027D02*
X0279921D01*
X0279921D02*
X0281592Y0065357D01*
X0279331Y0067618D02*
X0279360Y0067589D01*
X0279921Y0067027D01*
X0279331Y0067618D02*
Y0068405D01*
Y0057776D02*
Y0058563D01*
Y0068405D02*
X0279360Y0068435D01*
Y0073396D02*
X0279390Y0073425D01*
X0279360Y0068435D02*
Y0073396D01*
X0279390Y0073425D02*
X0279410Y0073445D01*
Y0075866D01*
X0279429Y0075886D01*
X0130261Y0023310D02*
X0130750Y0023799D01*
X0130261Y0022559D02*
Y0023310D01*
X0129774Y0022073D02*
X0130261Y0022559D01*
X0129774Y0021959D02*
Y0022073D01*
X0130750Y0023799D02*
X0130925D01*
X0165128Y0013848D02*
X0165256Y0013976D01*
X0165079Y0020079D02*
X0165177Y0020177D01*
X0164272Y0011319D02*
Y0011432D01*
X0164552Y0011712D02*
Y0013310D01*
X0164272Y0011432D02*
X0164552Y0011712D01*
X0164882Y0014193D02*
Y0020079D01*
X0147106Y0012618D02*
X0147283Y0012795D01*
X0161594Y0011339D02*
X0161614Y0011319D01*
X0161594Y0011339D02*
Y0013799D01*
X0161506Y0013888D02*
X0161594Y0013799D01*
X0148661Y0052658D02*
X0148661Y0052658D01*
X0152059Y0050819D02*
X0152618Y0051378D01*
X0148629Y0048667D02*
Y0048688D01*
X0147586Y0047624D02*
X0148629Y0048667D01*
X0147586Y0046110D02*
Y0047624D01*
X0152059Y0049373D02*
Y0050819D01*
X0151575Y0048888D02*
X0152059Y0049373D01*
X0151575Y0048720D02*
Y0048888D01*
X0147283Y0012795D02*
X0149705D01*
X0149705Y0012795D01*
D98*
X0167717Y0060039D02*
Y0062894D01*
X0169783Y0057972D02*
X0178937D01*
X0167717Y0060039D02*
X0169783Y0057972D01*
X0130561Y0035679D02*
X0130807Y0035433D01*
X0123602Y0035925D02*
X0123848Y0035679D01*
X0130561D01*
X0087446Y0027264D02*
X0087938Y0027756D01*
X0086811Y0026628D02*
X0087446Y0027264D01*
X0087938Y0027756D02*
X0089350D01*
X0087446Y0027264D02*
X0089331D01*
X0084646Y0018110D02*
Y0024860D01*
X0086613Y0026827D01*
X0065158Y0020988D02*
Y0027264D01*
Y0020988D02*
X0068331Y0017815D01*
X0071260D01*
X0078937Y0017520D02*
X0079232Y0017224D01*
X0071260Y0017815D02*
X0071555Y0017520D01*
X0078937D01*
X0084646Y0018110D02*
X0085532Y0017224D01*
X0106102Y0048720D02*
Y0066339D01*
X0111516Y0054134D02*
Y0067224D01*
Y0054134D02*
X0121063Y0044587D01*
X0086850Y0044587D02*
X0089331D01*
X0083150Y0048287D02*
X0086850Y0044587D01*
X0065158D02*
X0067716D01*
X0071339Y0048209D01*
X0099429Y0044587D02*
X0101969D01*
X0106102Y0048720D01*
X0071339Y0048209D02*
Y0067027D01*
X0083150Y0048287D02*
Y0067028D01*
X0077165Y0073130D02*
X0077313Y0072982D01*
Y0067372D02*
Y0072982D01*
Y0067372D02*
X0077461Y0067224D01*
X0105020Y0072342D02*
X0105364Y0071998D01*
X0105217Y0067224D02*
X0105364Y0067372D01*
Y0071998D01*
X0105217Y0067224D02*
X0106102Y0066339D01*
X0111221Y0072835D02*
X0111516Y0072539D01*
Y0067224D02*
Y0071555D01*
Y0067224D02*
X0111762Y0066978D01*
X0115896D01*
X0116142Y0066732D01*
X0077244Y0073327D02*
X0083150D01*
X0083150Y0073327D01*
X0099429Y0027264D02*
X0123602D01*
X0130807Y0035433D02*
X0135335Y0039961D01*
Y0046358D01*
X0164567Y0064075D02*
X0166535D01*
X0167717Y0062894D01*
X0164518Y0056250D02*
Y0059793D01*
X0164567Y0059842D01*
X0164469Y0056201D02*
X0164518Y0056250D01*
X0161024Y0059842D02*
X0161024Y0059842D01*
Y0064075D01*
X0160756Y0063807D02*
X0161024Y0064075D01*
X0156398Y0063779D02*
X0156425Y0063807D01*
X0160756D01*
X0141884Y0063779D02*
X0144980D01*
X0140408Y0065256D02*
X0141884Y0063779D01*
X0140354Y0065256D02*
X0140408D01*
X0139813Y0064715D02*
X0140354Y0065256D01*
X0135335Y0064173D02*
X0135876Y0064715D01*
X0135335Y0064173D02*
Y0064610D01*
Y0052658D02*
Y0058465D01*
X0135876Y0064715D02*
X0139813D01*
X0135335Y0046358D02*
X0135531D01*
D99*
X0059847Y0035240D02*
X0064473D01*
X0065158Y0035925D01*
X0049114Y0024508D02*
X0059847Y0035240D01*
X0089331Y0035925D02*
X0089331Y0035925D01*
X0099429D02*
X0099429Y0035925D01*
X0089331Y0035925D02*
X0099429D01*
D100*
X0117618Y0072342D02*
Y0072441D01*
X0116929Y0073130D02*
X0117618Y0072441D01*
X0111221Y0073130D02*
X0116929D01*
D101*
X0068504Y0072244D02*
Y0074213D01*
X0070669D01*
X0070472Y0073917D02*
Y0076083D01*
Y0073917D02*
X0071260Y0073130D01*
X0070472Y0076083D02*
X0072441D01*
X0071752Y0073228D02*
X0072441Y0073917D01*
X0068504Y0072244D02*
X0070669D01*
X0072441Y0073917D02*
Y0076083D01*
X0190945Y0024016D02*
X0191024Y0024094D01*
Y0029449D01*
X0191102Y0029528D01*
D102*
X0354823Y0048917D02*
X0357480D01*
D103*
X0339882Y0063779D02*
X0340039D01*
X0339784Y0063878D02*
X0339882Y0063779D01*
X0339784Y0063878D02*
Y0070177D01*
D104*
X0148661Y0048720D02*
Y0052658D01*
X0188555Y0018504D02*
X0193335D01*
X0194488Y0019657D01*
X0187402D02*
X0188555Y0018504D01*
X0187402Y0019657D02*
Y0023819D01*
X0194488Y0019657D02*
Y0023819D01*
X0194705Y0007894D02*
X0194724Y0007874D01*
X0194685Y0013386D02*
X0194705Y0013366D01*
Y0007894D02*
Y0013366D01*
X0187205Y0024016D02*
X0187402Y0023819D01*
X0194488D02*
X0194705Y0024035D01*
Y0029508D01*
X0194724Y0029528D01*
X0187205Y0024016D02*
X0187254Y0024065D01*
Y0029478D02*
X0187303Y0029528D01*
X0187254Y0024065D02*
Y0029478D01*
D105*
X0244724Y0005748D02*
D03*
X0264724D02*
D03*
Y0025748D02*
D03*
X0244724D02*
D03*
X0254724Y0015748D02*
D03*
X0205354Y0005748D02*
D03*
X0225354D02*
D03*
Y0025748D02*
D03*
X0205354D02*
D03*
X0215354Y0015748D02*
D03*
D106*
X0049114Y0024508D02*
D03*
D107*
X0018406Y0009547D02*
D03*
Y0039469D02*
D03*
D108*
X0382480Y0025984D02*
D03*
D109*
Y0033858D02*
D03*
D110*
X0296424Y0006465D02*
D03*
Y0016417D02*
D03*
X0306424D02*
D03*
Y0006465D02*
D03*
X0316378Y0006417D02*
D03*
Y0016417D02*
D03*
X0326378Y0006417D02*
D03*
Y0016417D02*
D03*
X0356378Y0006417D02*
D03*
X0346378Y0016417D02*
D03*
Y0006417D02*
D03*
X0336378Y0016417D02*
D03*
Y0006417D02*
D03*
D111*
X0356378Y0016417D02*
D03*
D112*
X0150689Y0024606D02*
D03*
X0171752Y0029134D02*
D03*
X0168012Y0017323D02*
D03*
Y0020177D02*
D03*
X0162598Y0031398D02*
D03*
X0179331Y0023327D02*
D03*
X0147835Y0024606D02*
D03*
X0153051Y0031398D02*
D03*
X0167028Y0057185D02*
D03*
X0167421Y0067126D02*
D03*
X0072441Y0013287D02*
D03*
X0070079Y0013287D02*
D03*
X0074803Y0013287D02*
D03*
X0067716D02*
D03*
X0060315Y0054921D02*
D03*
X0068504Y0072244D02*
D03*
Y0074213D02*
D03*
X0070472Y0076083D02*
D03*
X0072441D02*
D03*
X0072835Y0046654D02*
D03*
X0094587Y0054921D02*
D03*
X0115157Y0046555D02*
D03*
X0093898Y0059350D02*
D03*
X0119587Y0064468D02*
D03*
X0122047Y0066732D02*
D03*
X0128347Y0059350D02*
D03*
X0123622Y0070472D02*
D03*
Y0074213D02*
D03*
X0125099Y0072342D02*
D03*
X0126575Y0070472D02*
D03*
Y0074213D02*
D03*
X0217028Y0067224D02*
D03*
X0222933D02*
D03*
X0205217D02*
D03*
X0199311D02*
D03*
X0223524Y0073425D02*
D03*
X0275590Y0060827D02*
D03*
X0271949Y0075787D02*
D03*
X0279429Y0075886D02*
D03*
X0283071Y0075787D02*
D03*
X0275551Y0075866D02*
D03*
X0275492Y0050295D02*
D03*
X0129774Y0021959D02*
D03*
X0135827Y0024016D02*
D03*
X0185076Y0046358D02*
D03*
X0187375Y0046340D02*
D03*
X0364665Y0057841D02*
D03*
Y0059941D02*
D03*
Y0055741D02*
D03*
Y0053641D02*
D03*
X0369193Y0045276D02*
D03*
Y0052658D02*
D03*
X0371143Y0042206D02*
D03*
X0375295Y0042224D02*
D03*
X0377953Y0044882D02*
D03*
X0182579Y0060925D02*
D03*
X0261024Y0034646D02*
D03*
X0255906Y0049213D02*
D03*
X0253150D02*
D03*
X0171693Y0035433D02*
D03*
X0335827Y0068110D02*
D03*
X0192028Y0074902D02*
D03*
X0190059Y0079528D02*
D03*
X0187008D02*
D03*
X0158957Y0061811D02*
D03*
X0176772Y0075492D02*
D03*
X0179134Y0050197D02*
D03*
X0176279Y0056004D02*
D03*
X0161221Y0049803D02*
D03*
X0303051Y0037499D02*
D03*
X0306693Y0037499D02*
D03*
X0164272Y0011319D02*
D03*
X0053150Y0034252D02*
D03*
X0050197Y0031299D02*
D03*
X0248425Y0074114D02*
D03*
X0289813Y0079548D02*
D03*
X0281939D02*
D03*
X0274065D02*
D03*
X0266191D02*
D03*
X0258317D02*
D03*
X0250443D02*
D03*
X0248917Y0045571D02*
D03*
X0248917Y0068405D02*
D03*
X0234842Y0062402D02*
D03*
X0255886Y0036811D02*
D03*
X0252264D02*
D03*
X0252264Y0066339D02*
D03*
X0258169Y0041240D02*
D03*
X0182579Y0053051D02*
D03*
X0190453Y0060925D02*
D03*
X0335827Y0063779D02*
D03*
X0339469Y0053937D02*
D03*
X0343012Y0052165D02*
D03*
X0345965Y0060433D02*
D03*
X0346555Y0053937D02*
D03*
X0349410Y0062500D02*
D03*
Y0065059D02*
D03*
X0335039Y0044213D02*
D03*
X0339469Y0037106D02*
D03*
X0342323Y0037008D02*
D03*
X0345079D02*
D03*
X0350630Y0044193D02*
D03*
X0353287Y0041535D02*
D03*
X0337598Y0044213D02*
D03*
X0339469Y0050394D02*
D03*
X0346555D02*
D03*
X0164626Y0049744D02*
D03*
X0153051Y0065158D02*
D03*
X0150689Y0062795D02*
D03*
X0148327Y0065158D02*
D03*
Y0060433D02*
D03*
X0152657Y0046752D02*
D03*
X0158760Y0050098D02*
D03*
X0156299Y0054134D02*
D03*
X0153051Y0060433D02*
D03*
X0161614Y0011319D02*
D03*
X0166677Y0070162D02*
D03*
X0166634Y0074114D02*
D03*
X0156398Y0075611D02*
D03*
X0147736Y0075787D02*
D03*
X0157776Y0011495D02*
D03*
X0149902Y0046063D02*
D03*
X0147586Y0046110D02*
D03*
X0151575Y0048720D02*
D03*
X0145473Y0075790D02*
D03*
X0158858Y0074311D02*
D03*
X0158672Y0070108D02*
D03*
X0145177Y0055317D02*
D03*
X0154232Y0011495D02*
D03*
X0151694Y0054104D02*
D03*
X0137795Y0055413D02*
D03*
X0140847Y0012697D02*
D03*
X0149705Y0012795D02*
D03*
X0135925Y0013386D02*
D03*
X0134516Y0071163D02*
D03*
X0142462Y0071149D02*
D03*
X0134516Y0075097D02*
D03*
X0138484Y0075411D02*
D03*
X0142421Y0075492D02*
D03*
X0145473Y0046063D02*
D03*
X0140354Y0043406D02*
D03*
X0144882Y0041240D02*
D03*
X0166593Y0007480D02*
D03*
X0171711D02*
D03*
Y0019291D02*
D03*
Y0013386D02*
D03*
Y0025197D02*
D03*
X0156357Y0007480D02*
D03*
X0161475D02*
D03*
X0171693Y0043504D02*
D03*
Y0038583D02*
D03*
X0056890Y0007480D02*
D03*
X0062008D02*
D03*
X0056890Y0013386D02*
D03*
Y0019291D02*
D03*
Y0025197D02*
D03*
X0114302Y0007501D02*
D03*
X0109380D02*
D03*
X0119223D02*
D03*
X0133002D02*
D03*
X0137924D02*
D03*
X0142845D02*
D03*
X0085758D02*
D03*
X0090680D02*
D03*
X0095601D02*
D03*
X0056882Y0073643D02*
D03*
X0067118Y0079548D02*
D03*
X0072236D02*
D03*
X0056882D02*
D03*
X0062000D02*
D03*
X0114291Y0079528D02*
D03*
X0119213D02*
D03*
X0109370D02*
D03*
X0132992D02*
D03*
X0137913D02*
D03*
X0142835D02*
D03*
X0156349Y0079548D02*
D03*
X0171703Y0073643D02*
D03*
Y0079548D02*
D03*
X0161467D02*
D03*
X0166585D02*
D03*
X0171703Y0067737D02*
D03*
X0085748Y0079528D02*
D03*
X0090669D02*
D03*
X0095591D02*
D03*
X0056890Y0038583D02*
D03*
Y0043504D02*
D03*
Y0048425D02*
D03*
X0182579Y0056988D02*
D03*
X0186516Y0060925D02*
D03*
Y0053051D02*
D03*
X0190453Y0056988D02*
D03*
X0186516D02*
D03*
X0194291Y0042124D02*
D03*
X0190650Y0042126D02*
D03*
X0176575Y0052854D02*
D03*
Y0061122D02*
D03*
X0177010Y0066901D02*
D03*
X0176772Y0071752D02*
D03*
X0192197Y0067161D02*
D03*
X0192268Y0071176D02*
D03*
X0191142Y0010531D02*
D03*
X0190945Y0020866D02*
D03*
X0190538Y0031876D02*
D03*
X0184519Y0023346D02*
D03*
X0180709Y0031102D02*
D03*
X0192348Y0005118D02*
D03*
X0195473D02*
D03*
X0185236Y0032087D02*
D03*
X0232283Y0049016D02*
D03*
X0301577Y0071575D02*
D03*
X0067126Y0007480D02*
D03*
X0199409Y0051870D02*
D03*
X0218947Y0079548D02*
D03*
X0226821D02*
D03*
X0211073D02*
D03*
X0203199D02*
D03*
X0195325D02*
D03*
X0184547Y0079547D02*
D03*
X0179577Y0079548D02*
D03*
X0242569D02*
D03*
X0234695D02*
D03*
X0303150Y0079528D02*
D03*
X0295276D02*
D03*
X0358268D02*
D03*
X0350394D02*
D03*
X0342520D02*
D03*
X0334646D02*
D03*
X0326772D02*
D03*
X0311024D02*
D03*
X0318898D02*
D03*
X0049008Y0079548D02*
D03*
X0033260D02*
D03*
X0041134D02*
D03*
X0374016Y0079528D02*
D03*
X0366142D02*
D03*
X0381890D02*
D03*
X0237402Y0064370D02*
D03*
X0236892Y0036695D02*
D03*
X0240536Y0036629D02*
D03*
X0239961Y0072441D02*
D03*
X0232283D02*
D03*
X0245079Y0049016D02*
D03*
X0309213Y0039961D02*
D03*
X0292913Y0075985D02*
D03*
X0296555Y0075985D02*
D03*
X0317028Y0045591D02*
D03*
X0314546Y0043110D02*
D03*
X0317028Y0040629D02*
D03*
X0323031Y0053543D02*
D03*
X0323425Y0043307D02*
D03*
Y0045472D02*
D03*
Y0050492D02*
D03*
X0317028Y0048622D02*
D03*
X0323031Y0055807D02*
D03*
Y0058071D02*
D03*
X0311360Y0058760D02*
D03*
X0323425Y0061122D02*
D03*
X0314469Y0062030D02*
D03*
X0329609Y0063681D02*
D03*
X0317167D02*
D03*
X0326181Y0066853D02*
D03*
X0182776Y0046358D02*
D03*
X0003937Y0070866D02*
D03*
Y0062992D02*
D03*
Y0055118D02*
D03*
Y0047244D02*
D03*
Y0039370D02*
D03*
Y0031496D02*
D03*
Y0023622D02*
D03*
Y0015748D02*
D03*
Y0007874D02*
D03*
X0056882Y0061832D02*
D03*
Y0067737D02*
D03*
X0072244Y0007480D02*
D03*
M02*
