G04*
G04 #@! TF.GenerationSoftware,Altium Limited,Altium Designer,23.10.1 (27)*
G04*
G04 Layer_Physical_Order=4*
G04 Layer_Color=6736896*
%FSAX25Y25*%
%MOIN*%
G70*
G04*
G04 #@! TF.SameCoordinates,9A25CA80-9317-414E-98C9-A3F1B825D269*
G04*
G04*
G04 #@! TF.FilePolarity,Positive*
G04*
G01*
G75*
%ADD97C,0.01181*%
%ADD107C,0.11811*%
%ADD110C,0.05906*%
%ADD112C,0.01600*%
G36*
X0392497Y0001204D02*
X0268232D01*
X0268052Y0001704D01*
X0268896Y0002547D01*
X0269582Y0003736D01*
X0269937Y0005062D01*
Y0006434D01*
X0269582Y0007760D01*
X0268896Y0008949D01*
X0267925Y0009919D01*
X0266736Y0010605D01*
X0265411Y0010961D01*
X0264038D01*
X0262712Y0010605D01*
X0261524Y0009919D01*
X0260553Y0008949D01*
X0259867Y0007760D01*
X0259512Y0006434D01*
Y0005062D01*
X0259867Y0003736D01*
X0260553Y0002547D01*
X0261397Y0001704D01*
X0261216Y0001204D01*
X0248232D01*
X0248052Y0001704D01*
X0248896Y0002547D01*
X0249582Y0003736D01*
X0249937Y0005062D01*
Y0006434D01*
X0249582Y0007760D01*
X0248896Y0008949D01*
X0247925Y0009919D01*
X0246736Y0010605D01*
X0245411Y0010961D01*
X0244038D01*
X0242712Y0010605D01*
X0241524Y0009919D01*
X0240553Y0008949D01*
X0239867Y0007760D01*
X0239512Y0006434D01*
Y0005062D01*
X0239867Y0003736D01*
X0240553Y0002547D01*
X0241396Y0001704D01*
X0241216Y0001204D01*
X0228862D01*
X0228682Y0001704D01*
X0229525Y0002547D01*
X0230212Y0003736D01*
X0230567Y0005062D01*
Y0006434D01*
X0230212Y0007760D01*
X0229525Y0008949D01*
X0228555Y0009919D01*
X0227366Y0010605D01*
X0226041Y0010961D01*
X0224668D01*
X0223342Y0010605D01*
X0222154Y0009919D01*
X0221183Y0008949D01*
X0220497Y0007760D01*
X0220142Y0006434D01*
Y0005062D01*
X0220497Y0003736D01*
X0221183Y0002547D01*
X0222026Y0001704D01*
X0221846Y0001204D01*
X0208862D01*
X0208682Y0001704D01*
X0209525Y0002547D01*
X0210212Y0003736D01*
X0210567Y0005062D01*
Y0006434D01*
X0210212Y0007760D01*
X0209525Y0008949D01*
X0208555Y0009919D01*
X0207366Y0010605D01*
X0206041Y0010961D01*
X0204668D01*
X0203342Y0010605D01*
X0202154Y0009919D01*
X0201183Y0008949D01*
X0200497Y0007760D01*
X0200339Y0007169D01*
X0199838Y0007235D01*
Y0024261D01*
X0200339Y0024327D01*
X0200497Y0023736D01*
X0201183Y0022547D01*
X0202154Y0021577D01*
X0203342Y0020891D01*
X0204668Y0020535D01*
X0206041D01*
X0207366Y0020891D01*
X0208555Y0021577D01*
X0209525Y0022547D01*
X0210212Y0023736D01*
X0210567Y0025062D01*
Y0026434D01*
X0210212Y0027760D01*
X0209525Y0028949D01*
X0208555Y0029919D01*
X0207366Y0030605D01*
X0206041Y0030961D01*
X0204668D01*
X0203342Y0030605D01*
X0202154Y0029919D01*
X0201183Y0028949D01*
X0200497Y0027760D01*
X0200339Y0027169D01*
X0199838Y0027235D01*
Y0034675D01*
X0200000Y0034807D01*
X0234854D01*
X0234952Y0034827D01*
X0235053D01*
X0235145Y0034865D01*
X0235244Y0034885D01*
X0235327Y0034941D01*
X0235420Y0034979D01*
X0235873Y0035169D01*
X0236534Y0034895D01*
X0237250D01*
X0237912Y0035169D01*
X0238364Y0034979D01*
X0238457Y0034941D01*
X0238541Y0034885D01*
X0238639Y0034865D01*
X0238732Y0034827D01*
X0238832D01*
X0238931Y0034807D01*
X0253895D01*
X0253994Y0034827D01*
X0254094D01*
X0254187Y0034865D01*
X0254285Y0034885D01*
X0254369Y0034941D01*
X0254462Y0034979D01*
X0254533Y0035050D01*
X0254616Y0035106D01*
X0254866Y0035285D01*
X0255528Y0035011D01*
X0256244D01*
X0256906Y0035285D01*
X0257155Y0035106D01*
X0257239Y0035050D01*
X0257310Y0034979D01*
X0257403Y0034941D01*
X0257486Y0034885D01*
X0257585Y0034865D01*
X0257678Y0034827D01*
X0257778D01*
X0257876Y0034807D01*
X0259659D01*
X0260049Y0034885D01*
X0260380Y0035106D01*
X0260582Y0035307D01*
X0260868Y0035426D01*
X0261179D01*
X0261466Y0035307D01*
X0261667Y0035106D01*
X0261998Y0034885D01*
X0262388Y0034807D01*
X0270634D01*
Y0027559D01*
X0270712Y0027169D01*
X0270933Y0026838D01*
X0271263Y0026617D01*
X0271654Y0026539D01*
X0347244D01*
X0347634Y0026617D01*
X0347965Y0026838D01*
X0348186Y0027169D01*
X0348264Y0027559D01*
Y0034252D01*
Y0048373D01*
X0348244Y0048471D01*
Y0048572D01*
X0348206Y0048664D01*
X0348186Y0048763D01*
X0348130Y0048846D01*
X0348092Y0048939D01*
X0348021Y0049010D01*
X0347965Y0049093D01*
X0348081Y0049374D01*
X0348355Y0050036D01*
Y0050752D01*
X0348081Y0051413D01*
X0347610Y0051884D01*
X0347591Y0052165D01*
X0347610Y0052446D01*
X0348081Y0052917D01*
X0348355Y0053579D01*
Y0054295D01*
X0348081Y0054957D01*
X0347965Y0055237D01*
X0348021Y0055321D01*
X0348092Y0055392D01*
X0348130Y0055484D01*
X0348186Y0055568D01*
X0348206Y0055666D01*
X0348244Y0055759D01*
Y0055860D01*
X0348264Y0055958D01*
Y0058514D01*
X0348238Y0058641D01*
X0348231Y0058770D01*
X0348200Y0058834D01*
X0348186Y0058904D01*
X0348114Y0059012D01*
X0348058Y0059128D01*
X0348005Y0059175D01*
X0347965Y0059235D01*
X0347857Y0059307D01*
X0347761Y0059393D01*
X0347536Y0059525D01*
X0347765Y0060075D01*
Y0060791D01*
X0347693Y0060964D01*
X0348117Y0061247D01*
X0348390Y0060974D01*
X0349051Y0060700D01*
X0349767D01*
X0350429Y0060974D01*
X0350935Y0061480D01*
X0351209Y0062142D01*
Y0062858D01*
X0350935Y0063520D01*
X0350676Y0063779D01*
X0350935Y0064039D01*
X0351209Y0064701D01*
Y0065417D01*
X0350935Y0066079D01*
X0350429Y0066585D01*
X0349767Y0066859D01*
X0349051D01*
X0348764Y0066740D01*
X0348264Y0067074D01*
Y0078660D01*
X0348764Y0078759D01*
X0348868Y0078508D01*
X0349374Y0078002D01*
X0350036Y0077728D01*
X0350752D01*
X0351413Y0078002D01*
X0351920Y0078508D01*
X0352194Y0079169D01*
Y0079886D01*
X0351920Y0080547D01*
X0351413Y0081054D01*
X0350752Y0081328D01*
X0350036D01*
X0349374Y0081054D01*
X0348868Y0080547D01*
X0348764Y0080296D01*
X0348264Y0080395D01*
Y0091316D01*
X0392497D01*
Y0001204D01*
D02*
G37*
G36*
X0172061Y0065937D02*
X0172463Y0065850D01*
X0172684Y0065519D01*
X0173015Y0065298D01*
X0173405Y0065221D01*
X0175008D01*
X0175107Y0065240D01*
X0175207D01*
X0175300Y0065279D01*
X0175398Y0065298D01*
X0175482Y0065354D01*
X0175575Y0065392D01*
X0175991Y0065375D01*
X0176652Y0065101D01*
X0177368D01*
X0178030Y0065375D01*
X0178185Y0065530D01*
X0178292Y0065519D01*
X0178375Y0065463D01*
X0178446Y0065392D01*
X0178539Y0065354D01*
X0178622Y0065298D01*
X0178721Y0065279D01*
X0178814Y0065240D01*
X0178914D01*
X0179013Y0065221D01*
X0190180D01*
X0190278Y0065240D01*
X0190379D01*
X0190472Y0065279D01*
X0190570Y0065298D01*
X0190654Y0065354D01*
X0190746Y0065392D01*
X0190817Y0065463D01*
X0190901Y0065519D01*
X0191177Y0065635D01*
X0191839Y0065361D01*
X0192555D01*
X0193216Y0065635D01*
X0193492Y0065519D01*
X0193576Y0065463D01*
X0193647Y0065392D01*
X0193740Y0065354D01*
X0193823Y0065298D01*
X0193922Y0065279D01*
X0194015Y0065240D01*
X0194115D01*
X0194213Y0065221D01*
X0197320D01*
X0197419Y0065240D01*
X0197519D01*
X0197612Y0065279D01*
X0197711Y0065298D01*
X0197794Y0065354D01*
X0197887Y0065392D01*
X0197958Y0065463D01*
X0198041Y0065519D01*
X0198291Y0065698D01*
X0198953Y0065424D01*
X0199669D01*
X0200331Y0065698D01*
X0200581Y0065519D01*
X0200664Y0065463D01*
X0200735Y0065392D01*
X0200828Y0065354D01*
X0200911Y0065298D01*
X0201010Y0065279D01*
X0201103Y0065240D01*
X0201203D01*
X0201302Y0065221D01*
X0203226D01*
X0203324Y0065240D01*
X0203425D01*
X0203518Y0065279D01*
X0203616Y0065298D01*
X0203700Y0065354D01*
X0203792Y0065392D01*
X0203863Y0065463D01*
X0203947Y0065519D01*
X0204197Y0065698D01*
X0204858Y0065424D01*
X0205575D01*
X0206236Y0065698D01*
X0206486Y0065519D01*
X0206570Y0065463D01*
X0206641Y0065392D01*
X0206733Y0065354D01*
X0206817Y0065298D01*
X0206915Y0065279D01*
X0207008Y0065240D01*
X0207109D01*
X0207207Y0065221D01*
X0215037D01*
X0215135Y0065240D01*
X0215236D01*
X0215329Y0065279D01*
X0215427Y0065298D01*
X0215511Y0065354D01*
X0215603Y0065392D01*
X0215674Y0065463D01*
X0215758Y0065519D01*
X0216008Y0065698D01*
X0216670Y0065424D01*
X0217386D01*
X0218047Y0065698D01*
X0218297Y0065519D01*
X0218381Y0065463D01*
X0218452Y0065392D01*
X0218545Y0065354D01*
X0218628Y0065298D01*
X0218726Y0065279D01*
X0218819Y0065240D01*
X0218920D01*
X0219018Y0065221D01*
X0220942D01*
X0221041Y0065240D01*
X0221141D01*
X0221234Y0065279D01*
X0221333Y0065298D01*
X0221416Y0065354D01*
X0221509Y0065392D01*
X0221580Y0065463D01*
X0221663Y0065519D01*
X0221914Y0065698D01*
X0222575Y0065424D01*
X0223291D01*
X0223953Y0065698D01*
X0224203Y0065519D01*
X0224286Y0065463D01*
X0224357Y0065392D01*
X0224450Y0065354D01*
X0224534Y0065298D01*
X0224632Y0065279D01*
X0224725Y0065240D01*
X0224825D01*
X0224924Y0065221D01*
X0235356D01*
X0235633Y0064805D01*
X0235602Y0064728D01*
Y0064469D01*
X0235201Y0064202D01*
X0234485D01*
X0233823Y0063928D01*
X0233317Y0063421D01*
X0233043Y0062760D01*
Y0062043D01*
X0233317Y0061382D01*
X0233823Y0060876D01*
X0234485Y0060602D01*
X0235201D01*
X0235862Y0060876D01*
X0236368Y0061382D01*
X0236643Y0062043D01*
Y0062302D01*
X0237044Y0062570D01*
X0237760D01*
X0238421Y0062844D01*
X0238928Y0063350D01*
X0239202Y0064012D01*
Y0064728D01*
X0239170Y0064805D01*
X0239448Y0065221D01*
X0250464D01*
X0250775Y0065282D01*
X0251244Y0064813D01*
X0251906Y0064539D01*
X0252622D01*
X0253283Y0064813D01*
X0253753Y0065282D01*
X0254064Y0065221D01*
X0315453D01*
X0315661Y0064721D01*
X0315641Y0064701D01*
X0315405Y0064132D01*
X0315101Y0063861D01*
X0314967Y0063772D01*
X0314827Y0063830D01*
X0314110D01*
X0313449Y0063556D01*
X0312943Y0063050D01*
X0312668Y0062388D01*
Y0061672D01*
X0312943Y0061011D01*
X0313449Y0060504D01*
X0314110Y0060230D01*
X0314827D01*
X0315488Y0060504D01*
X0315995Y0061011D01*
X0316230Y0061580D01*
X0316535Y0061850D01*
X0316668Y0061939D01*
X0316809Y0061881D01*
X0317525D01*
X0318186Y0062155D01*
X0318693Y0062661D01*
X0318967Y0063323D01*
Y0064039D01*
X0318693Y0064701D01*
X0318673Y0064721D01*
X0318880Y0065221D01*
X0322603D01*
Y0062922D01*
X0322638Y0062744D01*
X0322406Y0062648D01*
X0321899Y0062142D01*
X0321625Y0061480D01*
Y0060764D01*
X0321899Y0060102D01*
X0322077Y0059925D01*
X0322012Y0059597D01*
X0321506Y0059091D01*
X0321232Y0058429D01*
Y0057713D01*
X0321506Y0057051D01*
X0321618Y0056939D01*
X0321506Y0056827D01*
X0321232Y0056165D01*
Y0055449D01*
X0321506Y0054787D01*
X0321618Y0054675D01*
X0321506Y0054563D01*
X0321232Y0053901D01*
Y0053185D01*
X0321506Y0052524D01*
X0322012Y0052017D01*
X0322077Y0051690D01*
X0321899Y0051512D01*
X0321625Y0050850D01*
Y0050134D01*
X0321899Y0049472D01*
X0322406Y0048966D01*
X0322638Y0048870D01*
X0322603Y0048692D01*
Y0047272D01*
X0322638Y0047095D01*
X0322406Y0046998D01*
X0321899Y0046492D01*
X0321625Y0045831D01*
Y0045114D01*
X0321899Y0044453D01*
X0321962Y0044390D01*
X0321899Y0044327D01*
X0321625Y0043665D01*
Y0042949D01*
X0321899Y0042287D01*
X0322406Y0041781D01*
X0322638Y0041685D01*
X0322603Y0041507D01*
Y0035272D01*
X0303683D01*
X0303584Y0035772D01*
X0304071Y0035973D01*
X0304577Y0036480D01*
X0304851Y0037141D01*
Y0037857D01*
X0304577Y0038519D01*
X0304071Y0039025D01*
X0303409Y0039299D01*
X0302693D01*
X0302032Y0039025D01*
X0301525Y0038519D01*
X0301251Y0037857D01*
Y0037141D01*
X0301525Y0036480D01*
X0302032Y0035973D01*
X0302519Y0035772D01*
X0302419Y0035272D01*
X0284878D01*
Y0050394D01*
X0284800Y0050784D01*
X0284579Y0051115D01*
X0284248Y0051336D01*
X0283858Y0051413D01*
X0277292D01*
X0276981Y0051351D01*
X0276512Y0051821D01*
X0275850Y0052095D01*
X0275134D01*
X0274472Y0051821D01*
X0274003Y0051351D01*
X0273692Y0051413D01*
X0257906D01*
X0257807Y0051394D01*
X0257707D01*
X0257614Y0051355D01*
X0257516Y0051336D01*
X0257432Y0051280D01*
X0257339Y0051241D01*
X0257268Y0051170D01*
X0257185Y0051115D01*
X0257129Y0051031D01*
X0257058Y0050960D01*
X0256913Y0050744D01*
X0256264Y0051013D01*
X0255547D01*
X0254886Y0050739D01*
X0254541Y0050394D01*
X0254514D01*
X0254169Y0050739D01*
X0253508Y0051013D01*
X0252792D01*
X0252142Y0050744D01*
X0251997Y0050960D01*
X0251926Y0051031D01*
X0251870Y0051115D01*
X0251787Y0051170D01*
X0251716Y0051241D01*
X0251623Y0051280D01*
X0251539Y0051336D01*
X0251441Y0051355D01*
X0251348Y0051394D01*
X0251248D01*
X0251149Y0051413D01*
X0246900D01*
X0246729Y0051379D01*
X0246556Y0051354D01*
X0246534Y0051341D01*
X0246510Y0051336D01*
X0246364Y0051239D01*
X0246215Y0051149D01*
X0246200Y0051129D01*
X0246179Y0051115D01*
X0246082Y0050969D01*
X0245978Y0050829D01*
X0245884Y0050630D01*
X0245437Y0050816D01*
X0244721D01*
X0244274Y0050630D01*
X0244180Y0050829D01*
X0244076Y0050970D01*
X0243979Y0051115D01*
X0243958Y0051129D01*
X0243943Y0051149D01*
X0243793Y0051239D01*
X0243648Y0051336D01*
X0243623Y0051341D01*
X0243602Y0051354D01*
X0243429Y0051379D01*
X0243258Y0051413D01*
X0234104D01*
X0233933Y0051379D01*
X0233761Y0051354D01*
X0233739Y0051341D01*
X0233714Y0051336D01*
X0233569Y0051239D01*
X0233419Y0051149D01*
X0233404Y0051129D01*
X0233383Y0051115D01*
X0233286Y0050969D01*
X0233183Y0050829D01*
X0233089Y0050630D01*
X0232642Y0050816D01*
X0231925D01*
X0231478Y0050630D01*
X0231384Y0050829D01*
X0231280Y0050970D01*
X0231184Y0051115D01*
X0231163Y0051129D01*
X0231148Y0051149D01*
X0230998Y0051239D01*
X0230853Y0051336D01*
X0230828Y0051341D01*
X0230806Y0051354D01*
X0230634Y0051379D01*
X0230463Y0051413D01*
X0201275D01*
X0201209Y0051512D01*
Y0052228D01*
X0200935Y0052890D01*
X0200429Y0053396D01*
X0199767Y0053670D01*
X0199051D01*
X0198390Y0053396D01*
X0197883Y0052890D01*
X0197609Y0052228D01*
Y0051512D01*
X0197544Y0051413D01*
X0188131D01*
X0187924Y0051913D01*
X0188042Y0052032D01*
X0188316Y0052693D01*
Y0053409D01*
X0188042Y0054071D01*
X0187535Y0054577D01*
X0187120Y0054749D01*
Y0055290D01*
X0187535Y0055462D01*
X0188042Y0055969D01*
X0188214Y0056384D01*
X0188755D01*
X0188927Y0055969D01*
X0189433Y0055462D01*
X0190095Y0055188D01*
X0190811D01*
X0191472Y0055462D01*
X0191979Y0055969D01*
X0192253Y0056630D01*
Y0057346D01*
X0191979Y0058008D01*
X0191472Y0058514D01*
X0191057Y0058686D01*
Y0059227D01*
X0191472Y0059399D01*
X0191979Y0059906D01*
X0192253Y0060567D01*
Y0061283D01*
X0191979Y0061945D01*
X0191472Y0062451D01*
X0190811Y0062725D01*
X0190095D01*
X0189433Y0062451D01*
X0188927Y0061945D01*
X0188755Y0061530D01*
X0188214D01*
X0188042Y0061945D01*
X0187535Y0062451D01*
X0186874Y0062725D01*
X0186158D01*
X0185496Y0062451D01*
X0184990Y0061945D01*
X0184818Y0061530D01*
X0184277D01*
X0184105Y0061945D01*
X0183598Y0062451D01*
X0182937Y0062725D01*
X0182221D01*
X0181559Y0062451D01*
X0181053Y0061945D01*
X0180779Y0061283D01*
Y0060567D01*
X0181053Y0059906D01*
X0181559Y0059399D01*
X0181974Y0059227D01*
Y0058686D01*
X0181559Y0058514D01*
X0181053Y0058008D01*
X0180779Y0057346D01*
Y0056630D01*
X0181053Y0055969D01*
X0181559Y0055462D01*
X0181974Y0055290D01*
Y0054749D01*
X0181559Y0054577D01*
X0181053Y0054071D01*
X0180779Y0053409D01*
Y0052693D01*
X0181053Y0052032D01*
X0181171Y0051913D01*
X0180987Y0051468D01*
X0180502Y0051374D01*
X0180154Y0051723D01*
X0179492Y0051997D01*
X0178776D01*
X0178695Y0051964D01*
X0178313Y0052346D01*
X0178375Y0052496D01*
Y0053212D01*
X0178101Y0053874D01*
X0177594Y0054380D01*
X0177529Y0054708D01*
X0177805Y0054984D01*
X0178079Y0055646D01*
Y0056362D01*
X0177805Y0057024D01*
X0177299Y0057530D01*
X0176638Y0057804D01*
X0175921D01*
X0175260Y0057530D01*
X0174754Y0057024D01*
X0174479Y0056362D01*
Y0055646D01*
X0174754Y0054984D01*
X0175260Y0054478D01*
X0175325Y0054150D01*
X0175049Y0053874D01*
X0174775Y0053212D01*
Y0052496D01*
X0175049Y0051835D01*
X0175555Y0051328D01*
X0176217Y0051054D01*
X0176933D01*
X0177013Y0051088D01*
X0177396Y0050705D01*
X0177334Y0050555D01*
Y0049839D01*
X0177608Y0049177D01*
X0177626Y0048846D01*
X0177570Y0048762D01*
X0177499Y0048691D01*
X0177460Y0048598D01*
X0177404Y0048515D01*
X0177385Y0048416D01*
X0177347Y0048324D01*
Y0048223D01*
X0177327Y0048125D01*
Y0001181D01*
X0147083D01*
Y0024180D01*
X0147054Y0024322D01*
Y0024890D01*
X0147083Y0025033D01*
Y0039240D01*
X0147063Y0039338D01*
Y0039439D01*
X0147025Y0039532D01*
X0147005Y0039630D01*
X0146949Y0039714D01*
X0146911Y0039806D01*
X0146840Y0039877D01*
X0146784Y0039961D01*
X0146700Y0040017D01*
X0146629Y0040088D01*
X0146413Y0040232D01*
X0146682Y0040882D01*
Y0041598D01*
X0146671Y0041624D01*
X0146949Y0042039D01*
X0151141D01*
X0151762Y0042163D01*
X0152288Y0042514D01*
X0153804Y0044030D01*
X0154156Y0044557D01*
X0154279Y0045177D01*
Y0045963D01*
X0154457Y0046394D01*
Y0047110D01*
X0154183Y0047772D01*
X0153677Y0048278D01*
X0153015Y0048552D01*
X0152299D01*
X0151638Y0048278D01*
X0151131Y0047772D01*
X0150857Y0047110D01*
Y0046394D01*
X0151036Y0045963D01*
Y0045849D01*
X0150470Y0045283D01*
X0147548D01*
X0147270Y0045698D01*
X0147273Y0045705D01*
Y0046421D01*
X0146998Y0047083D01*
X0146911Y0047452D01*
X0146949Y0047545D01*
X0147005Y0047628D01*
X0147025Y0047727D01*
X0147063Y0047819D01*
Y0047920D01*
X0147083Y0048018D01*
Y0053286D01*
X0147063Y0053385D01*
Y0053485D01*
X0147025Y0053578D01*
X0147005Y0053676D01*
X0146949Y0053760D01*
X0146911Y0053852D01*
X0146840Y0053923D01*
X0146784Y0054007D01*
X0146703Y0054298D01*
X0146977Y0054959D01*
Y0055675D01*
X0146703Y0056337D01*
X0146784Y0056628D01*
X0146840Y0056711D01*
X0146911Y0056782D01*
X0146949Y0056875D01*
X0147005Y0056959D01*
X0147025Y0057057D01*
X0147063Y0057150D01*
Y0057250D01*
X0147083Y0057349D01*
Y0058478D01*
X0147583Y0058793D01*
X0147969Y0058633D01*
X0148685D01*
X0149346Y0058907D01*
X0149853Y0059413D01*
X0150127Y0060075D01*
Y0060539D01*
X0150268Y0060854D01*
X0150583Y0060995D01*
X0150795D01*
X0151110Y0060854D01*
X0151251Y0060539D01*
Y0060075D01*
X0151525Y0059413D01*
X0152032Y0058907D01*
X0152693Y0058633D01*
X0153409D01*
X0154071Y0058907D01*
X0154577Y0059413D01*
X0154851Y0060075D01*
Y0060791D01*
X0154577Y0061453D01*
X0154071Y0061959D01*
X0153409Y0062233D01*
X0152946D01*
X0152630Y0062374D01*
X0152489Y0062690D01*
Y0062901D01*
X0152630Y0063216D01*
X0152946Y0063358D01*
X0153409D01*
X0154071Y0063632D01*
X0154577Y0064138D01*
X0154851Y0064799D01*
Y0065221D01*
X0165390D01*
X0165488Y0065240D01*
X0165589D01*
X0165682Y0065279D01*
X0165780Y0065298D01*
X0165864Y0065354D01*
X0165956Y0065392D01*
X0166027Y0065463D01*
X0166111Y0065519D01*
X0166402Y0065600D01*
X0167063Y0065326D01*
X0167779D01*
X0168441Y0065600D01*
X0168732Y0065519D01*
X0168815Y0065463D01*
X0168886Y0065392D01*
X0168979Y0065354D01*
X0169062Y0065298D01*
X0169161Y0065279D01*
X0169254Y0065240D01*
X0169354D01*
X0169453Y0065221D01*
X0170001D01*
X0170391Y0065298D01*
X0170722Y0065519D01*
X0170943Y0065850D01*
X0171345Y0065937D01*
X0172061D01*
D02*
G37*
G36*
X0347244Y0062352D02*
X0346744Y0062059D01*
X0346323Y0062233D01*
X0345607D01*
X0344945Y0061959D01*
X0344439Y0061453D01*
X0344165Y0060791D01*
Y0060075D01*
X0344439Y0059413D01*
X0344945Y0058907D01*
X0345607Y0058633D01*
X0346323D01*
X0346744Y0058808D01*
X0347244Y0058514D01*
Y0055958D01*
X0346913Y0055737D01*
X0346197D01*
X0345535Y0055463D01*
X0345029Y0054957D01*
X0344755Y0054295D01*
Y0053675D01*
X0344485Y0053492D01*
X0344293Y0053430D01*
X0344031Y0053691D01*
X0343370Y0053965D01*
X0342654D01*
X0341992Y0053691D01*
X0341730Y0053430D01*
X0341538Y0053492D01*
X0341268Y0053675D01*
Y0054295D01*
X0340995Y0054957D01*
X0340488Y0055463D01*
X0339827Y0055737D01*
X0339110D01*
X0338449Y0055463D01*
X0337943Y0054957D01*
X0337668Y0054295D01*
Y0053579D01*
X0337943Y0052917D01*
X0338414Y0052446D01*
X0338433Y0052165D01*
X0338414Y0051884D01*
X0337943Y0051413D01*
X0337668Y0050752D01*
Y0050036D01*
X0337943Y0049374D01*
X0338449Y0048868D01*
X0339110Y0048594D01*
X0339827D01*
X0340488Y0048868D01*
X0340995Y0049374D01*
X0341268Y0050036D01*
Y0050656D01*
X0341538Y0050839D01*
X0341730Y0050901D01*
X0341992Y0050639D01*
X0342654Y0050365D01*
X0343370D01*
X0344031Y0050639D01*
X0344293Y0050901D01*
X0344485Y0050839D01*
X0344755Y0050656D01*
Y0050036D01*
X0345029Y0049374D01*
X0345535Y0048868D01*
X0346197Y0048594D01*
X0346913D01*
X0347244Y0048373D01*
Y0034252D01*
Y0027559D01*
X0271654D01*
Y0035827D01*
X0262388D01*
X0262043Y0036172D01*
X0261382Y0036446D01*
X0260666D01*
X0260004Y0036172D01*
X0259659Y0035827D01*
X0257876D01*
X0257599Y0036242D01*
X0257686Y0036453D01*
Y0037169D01*
X0257412Y0037831D01*
X0256906Y0038337D01*
X0256244Y0038611D01*
X0255528D01*
X0254866Y0038337D01*
X0254360Y0037831D01*
X0254086Y0037169D01*
Y0036453D01*
X0254173Y0036242D01*
X0253895Y0035827D01*
X0238931D01*
X0238653Y0036242D01*
X0238692Y0036337D01*
Y0037053D01*
X0238418Y0037715D01*
X0237912Y0038221D01*
X0237250Y0038495D01*
X0236534D01*
X0235873Y0038221D01*
X0235366Y0037715D01*
X0235092Y0037053D01*
Y0036337D01*
X0235132Y0036242D01*
X0234854Y0035827D01*
X0200000D01*
X0200000Y0043701D01*
X0199441D01*
X0199209Y0043855D01*
X0198819Y0043933D01*
X0196362D01*
X0196264Y0043913D01*
X0196164D01*
X0196071Y0043875D01*
X0195972Y0043855D01*
X0195889Y0043800D01*
X0195796Y0043761D01*
X0195736Y0043701D01*
X0195187D01*
X0194649Y0043924D01*
X0193933D01*
X0193395Y0043701D01*
X0192847D01*
X0192787Y0043761D01*
X0192694Y0043800D01*
X0192610Y0043855D01*
X0192512Y0043875D01*
X0192419Y0043913D01*
X0192319D01*
X0192220Y0043933D01*
X0189764D01*
X0189374Y0043855D01*
X0189043Y0043634D01*
X0188822Y0043304D01*
X0188744Y0042913D01*
Y0040551D01*
X0188822Y0040161D01*
X0189043Y0039830D01*
X0189764Y0039109D01*
Y0036753D01*
Y0033504D01*
X0189518Y0033402D01*
X0189012Y0032896D01*
X0188738Y0032234D01*
Y0031518D01*
X0189012Y0030857D01*
X0189518Y0030351D01*
X0189764Y0030249D01*
Y0022231D01*
X0189419Y0021886D01*
X0189145Y0021224D01*
Y0020508D01*
X0189419Y0019847D01*
X0189764Y0019502D01*
X0189764Y0011699D01*
X0189616Y0011551D01*
X0189342Y0010889D01*
Y0010173D01*
X0189616Y0009512D01*
X0189764Y0009364D01*
Y0001181D01*
X0178347D01*
Y0048125D01*
X0178762Y0048403D01*
X0178776Y0048397D01*
X0179492D01*
X0180154Y0048671D01*
X0180660Y0049177D01*
X0180934Y0049839D01*
Y0050394D01*
X0198340D01*
X0198390Y0050344D01*
X0199051Y0050070D01*
X0199767D01*
X0200429Y0050344D01*
X0200479Y0050394D01*
X0230463D01*
X0230699Y0049894D01*
X0230484Y0049374D01*
Y0048658D01*
X0230757Y0047996D01*
X0231264Y0047490D01*
X0231925Y0047216D01*
X0232642D01*
X0233303Y0047490D01*
X0233809Y0047996D01*
X0234084Y0048658D01*
Y0049374D01*
X0233868Y0049894D01*
X0234104Y0050394D01*
X0243258D01*
X0243494Y0049894D01*
X0243279Y0049374D01*
Y0048658D01*
X0243553Y0047996D01*
X0244059Y0047490D01*
X0244721Y0047216D01*
X0245437D01*
X0246098Y0047490D01*
X0246605Y0047996D01*
X0246879Y0048658D01*
Y0049374D01*
X0246663Y0049894D01*
X0246900Y0050394D01*
X0251149D01*
X0251483Y0049894D01*
X0251350Y0049571D01*
Y0048855D01*
X0251624Y0048193D01*
X0252130Y0047687D01*
X0252792Y0047413D01*
X0253508D01*
X0254169Y0047687D01*
X0254528Y0048045D01*
X0254886Y0047687D01*
X0255547Y0047413D01*
X0256264D01*
X0256925Y0047687D01*
X0257432Y0048193D01*
X0257705Y0048855D01*
Y0049571D01*
X0257572Y0049894D01*
X0257906Y0050394D01*
X0273692D01*
Y0049937D01*
X0273966Y0049276D01*
X0274472Y0048769D01*
X0275134Y0048495D01*
X0275850D01*
X0276512Y0048769D01*
X0277018Y0049276D01*
X0277292Y0049937D01*
Y0050394D01*
X0283858D01*
Y0034252D01*
X0323622D01*
Y0041507D01*
X0323783D01*
X0324445Y0041781D01*
X0324951Y0042287D01*
X0325225Y0042949D01*
Y0043665D01*
X0324951Y0044327D01*
X0324888Y0044390D01*
X0324951Y0044453D01*
X0325225Y0045114D01*
Y0045831D01*
X0324951Y0046492D01*
X0324445Y0046998D01*
X0323783Y0047272D01*
X0323622D01*
Y0048692D01*
X0323783D01*
X0324445Y0048966D01*
X0324951Y0049472D01*
X0325225Y0050134D01*
Y0050850D01*
X0324951Y0051512D01*
X0324445Y0052018D01*
X0324380Y0052346D01*
X0324557Y0052524D01*
X0324832Y0053185D01*
Y0053901D01*
X0324557Y0054563D01*
X0324445Y0054675D01*
X0324557Y0054787D01*
X0324832Y0055449D01*
Y0056165D01*
X0324557Y0056827D01*
X0324445Y0056939D01*
X0324557Y0057051D01*
X0324832Y0057713D01*
Y0058429D01*
X0324557Y0059091D01*
X0324380Y0059268D01*
X0324445Y0059596D01*
X0324951Y0060102D01*
X0325225Y0060764D01*
Y0061480D01*
X0324951Y0062142D01*
X0324445Y0062648D01*
X0323783Y0062922D01*
X0323622D01*
Y0066240D01*
X0254064D01*
Y0066697D01*
X0253790Y0067358D01*
X0253283Y0067865D01*
X0252622Y0068139D01*
X0251906D01*
X0251244Y0067865D01*
X0250738Y0067358D01*
X0250464Y0066697D01*
Y0066240D01*
X0224924D01*
X0224646Y0066656D01*
X0224733Y0066866D01*
Y0067582D01*
X0224459Y0068244D01*
X0223953Y0068750D01*
X0223291Y0069024D01*
X0222575D01*
X0221914Y0068750D01*
X0221407Y0068244D01*
X0221133Y0067582D01*
Y0066866D01*
X0221220Y0066656D01*
X0220942Y0066240D01*
X0219018D01*
X0218740Y0066656D01*
X0218828Y0066866D01*
Y0067582D01*
X0218553Y0068244D01*
X0218047Y0068750D01*
X0217386Y0069024D01*
X0216670D01*
X0216008Y0068750D01*
X0215502Y0068244D01*
X0215228Y0067582D01*
Y0066866D01*
X0215315Y0066656D01*
X0215037Y0066240D01*
X0207207D01*
X0206929Y0066656D01*
X0207016Y0066866D01*
Y0067582D01*
X0206743Y0068244D01*
X0206236Y0068750D01*
X0205575Y0069024D01*
X0204858D01*
X0204197Y0068750D01*
X0203691Y0068244D01*
X0203416Y0067582D01*
Y0066866D01*
X0203504Y0066656D01*
X0203226Y0066240D01*
X0201302D01*
X0201024Y0066656D01*
X0201111Y0066866D01*
Y0067582D01*
X0200837Y0068244D01*
X0200331Y0068750D01*
X0199669Y0069024D01*
X0198953D01*
X0198291Y0068750D01*
X0197785Y0068244D01*
X0197511Y0067582D01*
Y0066866D01*
X0197598Y0066656D01*
X0197320Y0066240D01*
X0194213D01*
X0193936Y0066656D01*
X0193997Y0066803D01*
Y0067519D01*
X0193723Y0068181D01*
X0193216Y0068687D01*
X0192693Y0068904D01*
X0192679Y0068997D01*
X0192739Y0069423D01*
X0193287Y0069651D01*
X0193793Y0070157D01*
X0194068Y0070818D01*
Y0071535D01*
X0193793Y0072196D01*
X0193287Y0072702D01*
X0193008Y0072818D01*
Y0073359D01*
X0193047Y0073376D01*
X0193553Y0073882D01*
X0193828Y0074543D01*
Y0075260D01*
X0193553Y0075921D01*
X0193047Y0076428D01*
X0192386Y0076702D01*
X0191669D01*
X0191008Y0076428D01*
X0190502Y0075921D01*
X0190228Y0075260D01*
Y0074543D01*
X0190502Y0073882D01*
X0191008Y0073376D01*
X0191287Y0073260D01*
Y0072719D01*
X0191248Y0072702D01*
X0190742Y0072196D01*
X0190468Y0071535D01*
Y0070818D01*
X0190742Y0070157D01*
X0191248Y0069651D01*
X0191771Y0069434D01*
X0191785Y0069340D01*
X0191726Y0068915D01*
X0191177Y0068687D01*
X0190671Y0068181D01*
X0190397Y0067519D01*
Y0066803D01*
X0190458Y0066656D01*
X0190180Y0066240D01*
X0179013D01*
X0178810Y0066543D01*
Y0067259D01*
X0178536Y0067921D01*
X0178030Y0068427D01*
X0177368Y0068701D01*
X0176652D01*
X0175991Y0068427D01*
X0175484Y0067921D01*
X0175210Y0067259D01*
Y0066543D01*
X0175008Y0066240D01*
X0173405D01*
X0173214Y0066702D01*
X0173229Y0066717D01*
X0173503Y0067379D01*
Y0068095D01*
X0173229Y0068757D01*
X0172723Y0069263D01*
X0172061Y0069537D01*
X0171345D01*
X0170684Y0069263D01*
X0170177Y0068757D01*
X0169903Y0068095D01*
Y0067379D01*
X0170177Y0066717D01*
X0170193Y0066702D01*
X0170001Y0066240D01*
X0169453D01*
X0169175Y0066656D01*
X0169221Y0066768D01*
Y0067484D01*
X0168947Y0068146D01*
X0168441Y0068652D01*
X0168372Y0068681D01*
X0168256Y0069270D01*
X0168477Y0069804D01*
Y0070520D01*
X0168203Y0071182D01*
X0167696Y0071688D01*
X0167242Y0071877D01*
Y0072418D01*
X0167654Y0072588D01*
X0168160Y0073095D01*
X0168434Y0073756D01*
Y0074472D01*
X0168160Y0075134D01*
X0167654Y0075640D01*
X0166992Y0075914D01*
X0166276D01*
X0165614Y0075640D01*
X0165108Y0075134D01*
X0164834Y0074472D01*
Y0073756D01*
X0165108Y0073095D01*
X0165614Y0072588D01*
X0166069Y0072400D01*
Y0071859D01*
X0165657Y0071688D01*
X0165151Y0071182D01*
X0164877Y0070520D01*
Y0069804D01*
X0165151Y0069143D01*
X0165657Y0068636D01*
X0165726Y0068607D01*
X0165843Y0068018D01*
X0165621Y0067484D01*
Y0066768D01*
X0165668Y0066656D01*
X0165390Y0066240D01*
X0154514D01*
X0154071Y0066684D01*
X0153409Y0066957D01*
X0152693D01*
X0152032Y0066684D01*
X0151588Y0066240D01*
X0149790D01*
X0149346Y0066684D01*
X0148685Y0066957D01*
X0147969D01*
X0147307Y0066684D01*
X0146864Y0066240D01*
X0146063D01*
Y0057349D01*
X0145647Y0057071D01*
X0145535Y0057117D01*
X0144819D01*
X0144158Y0056843D01*
X0143651Y0056337D01*
X0143377Y0055675D01*
Y0054959D01*
X0143651Y0054298D01*
X0144158Y0053791D01*
X0144819Y0053517D01*
X0145535D01*
X0145647Y0053564D01*
X0146063Y0053286D01*
Y0048018D01*
X0145831Y0047863D01*
X0145114D01*
X0144453Y0047589D01*
X0143947Y0047083D01*
X0143673Y0046421D01*
Y0045705D01*
X0143947Y0045043D01*
X0144453Y0044537D01*
X0145114Y0044263D01*
X0145831D01*
X0146063Y0044108D01*
Y0043240D01*
X0145563Y0042906D01*
X0145240Y0043040D01*
X0144524D01*
X0143862Y0042766D01*
X0143356Y0042260D01*
X0143082Y0041598D01*
Y0040882D01*
X0143356Y0040220D01*
X0143862Y0039714D01*
X0144524Y0039440D01*
X0145240D01*
X0145563Y0039574D01*
X0146063Y0039240D01*
Y0025033D01*
X0146035Y0024964D01*
Y0024248D01*
X0146063Y0024180D01*
Y0001181D01*
X0132535D01*
X0132516Y0001204D01*
Y0005615D01*
X0132644Y0005701D01*
X0133360D01*
X0134022Y0005975D01*
X0134528Y0006481D01*
X0134802Y0007143D01*
Y0007859D01*
X0134528Y0008520D01*
X0134022Y0009027D01*
X0133360Y0009301D01*
X0132644D01*
X0132516Y0009387D01*
Y0069981D01*
X0132886Y0070108D01*
X0133016Y0070118D01*
X0133496Y0069637D01*
X0134158Y0069363D01*
X0134874D01*
X0135535Y0069637D01*
X0136042Y0070144D01*
X0136316Y0070805D01*
Y0071521D01*
X0136042Y0072183D01*
X0135535Y0072689D01*
X0135125Y0072859D01*
Y0073401D01*
X0135535Y0073571D01*
X0136042Y0074077D01*
X0136316Y0074739D01*
Y0075455D01*
X0136042Y0076116D01*
X0135535Y0076622D01*
X0134874Y0076897D01*
X0134158D01*
X0133496Y0076622D01*
X0133016Y0076142D01*
X0132886Y0076152D01*
X0132516Y0076278D01*
Y0077649D01*
X0132634Y0077728D01*
X0133350D01*
X0134012Y0078002D01*
X0134518Y0078508D01*
X0134792Y0079170D01*
Y0079886D01*
X0134518Y0080547D01*
X0134012Y0081054D01*
X0133350Y0081328D01*
X0132634D01*
X0132516Y0081407D01*
Y0091316D01*
X0132535Y0091339D01*
X0347244D01*
Y0062352D01*
D02*
G37*
G36*
X0198819Y0040551D02*
Y0001181D01*
X0190945D01*
Y0008732D01*
X0191500D01*
X0192161Y0009005D01*
X0192668Y0009512D01*
X0192942Y0010173D01*
Y0010889D01*
X0192668Y0011551D01*
X0192161Y0012058D01*
X0191500Y0012331D01*
X0190945D01*
Y0019066D01*
X0191303D01*
X0191964Y0019340D01*
X0192471Y0019847D01*
X0192745Y0020508D01*
Y0021224D01*
X0192471Y0021886D01*
X0191964Y0022392D01*
X0191303Y0022666D01*
X0190945D01*
Y0030097D01*
X0191558Y0030351D01*
X0192064Y0030857D01*
X0192338Y0031518D01*
Y0032234D01*
X0192064Y0032896D01*
X0191558Y0033402D01*
X0190945Y0033656D01*
Y0039370D01*
X0189764Y0040551D01*
Y0042913D01*
X0192220D01*
X0192498Y0042498D01*
X0192491Y0042482D01*
Y0041766D01*
X0192765Y0041104D01*
X0193272Y0040598D01*
X0193933Y0040324D01*
X0194649D01*
X0195311Y0040598D01*
X0195817Y0041104D01*
X0196091Y0041766D01*
Y0042482D01*
X0196085Y0042498D01*
X0196362Y0042913D01*
X0198819D01*
Y0040551D01*
D02*
G37*
G36*
X0131496Y0001204D02*
X0001204D01*
Y0091316D01*
X0131496Y0091316D01*
Y0001204D01*
D02*
G37*
%LPC*%
G36*
X0382248Y0081328D02*
X0381532D01*
X0380870Y0081054D01*
X0380364Y0080547D01*
X0380090Y0079886D01*
Y0079169D01*
X0380364Y0078508D01*
X0380870Y0078002D01*
X0381532Y0077728D01*
X0382248D01*
X0382909Y0078002D01*
X0383416Y0078508D01*
X0383690Y0079169D01*
Y0079886D01*
X0383416Y0080547D01*
X0382909Y0081054D01*
X0382248Y0081328D01*
D02*
G37*
G36*
X0374374D02*
X0373658D01*
X0372996Y0081054D01*
X0372490Y0080547D01*
X0372216Y0079886D01*
Y0079169D01*
X0372490Y0078508D01*
X0372996Y0078002D01*
X0373658Y0077728D01*
X0374374D01*
X0375035Y0078002D01*
X0375542Y0078508D01*
X0375816Y0079169D01*
Y0079886D01*
X0375542Y0080547D01*
X0375035Y0081054D01*
X0374374Y0081328D01*
D02*
G37*
G36*
X0366500D02*
X0365784D01*
X0365122Y0081054D01*
X0364616Y0080547D01*
X0364342Y0079886D01*
Y0079169D01*
X0364616Y0078508D01*
X0365122Y0078002D01*
X0365784Y0077728D01*
X0366500D01*
X0367161Y0078002D01*
X0367668Y0078508D01*
X0367942Y0079169D01*
Y0079886D01*
X0367668Y0080547D01*
X0367161Y0081054D01*
X0366500Y0081328D01*
D02*
G37*
G36*
X0358626D02*
X0357910D01*
X0357248Y0081054D01*
X0356742Y0080547D01*
X0356468Y0079886D01*
Y0079169D01*
X0356742Y0078508D01*
X0357248Y0078002D01*
X0357910Y0077728D01*
X0358626D01*
X0359287Y0078002D01*
X0359794Y0078508D01*
X0360068Y0079169D01*
Y0079886D01*
X0359794Y0080547D01*
X0359287Y0081054D01*
X0358626Y0081328D01*
D02*
G37*
G36*
X0365023Y0061741D02*
X0364307D01*
X0363646Y0061467D01*
X0363139Y0060961D01*
X0362865Y0060299D01*
Y0059583D01*
X0363139Y0058921D01*
X0363170Y0058891D01*
X0363139Y0058861D01*
X0362865Y0058199D01*
Y0057483D01*
X0363139Y0056821D01*
X0363170Y0056791D01*
X0363139Y0056761D01*
X0362865Y0056099D01*
Y0055383D01*
X0363139Y0054721D01*
X0363170Y0054691D01*
X0363139Y0054661D01*
X0362865Y0053999D01*
Y0053283D01*
X0363139Y0052621D01*
X0363646Y0052115D01*
X0364307Y0051841D01*
X0365023D01*
X0365685Y0052115D01*
X0366191Y0052621D01*
X0366465Y0053283D01*
Y0053999D01*
X0366191Y0054661D01*
X0366161Y0054691D01*
X0366191Y0054721D01*
X0366465Y0055383D01*
Y0056099D01*
X0366191Y0056761D01*
X0366161Y0056791D01*
X0366191Y0056821D01*
X0366465Y0057483D01*
Y0058199D01*
X0366191Y0058861D01*
X0366161Y0058891D01*
X0366191Y0058921D01*
X0366465Y0059583D01*
Y0060299D01*
X0366191Y0060961D01*
X0365685Y0061467D01*
X0365023Y0061741D01*
D02*
G37*
G36*
X0369551Y0054457D02*
X0368835D01*
X0368173Y0054183D01*
X0367667Y0053677D01*
X0367393Y0053016D01*
Y0052299D01*
X0367667Y0051638D01*
X0368173Y0051131D01*
X0368835Y0050858D01*
X0369551D01*
X0370213Y0051131D01*
X0370719Y0051638D01*
X0370993Y0052299D01*
Y0053016D01*
X0370719Y0053677D01*
X0370213Y0054183D01*
X0369551Y0054457D01*
D02*
G37*
G36*
X0378311Y0046682D02*
X0377595D01*
X0376933Y0046408D01*
X0376427Y0045902D01*
X0376153Y0045240D01*
Y0044524D01*
X0376235Y0044325D01*
X0375853Y0043942D01*
X0375653Y0044024D01*
X0374937D01*
X0374276Y0043750D01*
X0373769Y0043244D01*
X0373495Y0042582D01*
Y0041866D01*
X0373769Y0041205D01*
X0374276Y0040699D01*
X0374937Y0040424D01*
X0375653D01*
X0376315Y0040699D01*
X0376821Y0041205D01*
X0377095Y0041866D01*
Y0042582D01*
X0377013Y0042782D01*
X0377395Y0043164D01*
X0377595Y0043082D01*
X0378311D01*
X0378972Y0043356D01*
X0379479Y0043862D01*
X0379753Y0044524D01*
Y0045240D01*
X0379479Y0045902D01*
X0378972Y0046408D01*
X0378311Y0046682D01*
D02*
G37*
G36*
X0369551Y0047076D02*
X0368835D01*
X0368173Y0046801D01*
X0367667Y0046295D01*
X0367393Y0045634D01*
Y0044918D01*
X0367667Y0044256D01*
X0368173Y0043750D01*
X0368835Y0043476D01*
X0369214D01*
X0369514Y0042976D01*
X0369343Y0042564D01*
Y0041848D01*
X0369617Y0041186D01*
X0370124Y0040680D01*
X0370785Y0040406D01*
X0371501D01*
X0372163Y0040680D01*
X0372669Y0041186D01*
X0372943Y0041848D01*
Y0042564D01*
X0372669Y0043226D01*
X0372163Y0043732D01*
X0371501Y0044006D01*
X0371122D01*
X0370823Y0044506D01*
X0370993Y0044918D01*
Y0045634D01*
X0370719Y0046295D01*
X0370213Y0046801D01*
X0369551Y0047076D01*
D02*
G37*
G36*
X0350988Y0045993D02*
X0350272D01*
X0349610Y0045719D01*
X0349104Y0045213D01*
X0348830Y0044551D01*
Y0043835D01*
X0349104Y0043173D01*
X0349610Y0042667D01*
X0350272Y0042393D01*
X0350988D01*
X0351187Y0042475D01*
X0351570Y0042093D01*
X0351487Y0041894D01*
Y0041177D01*
X0351762Y0040516D01*
X0352268Y0040009D01*
X0352929Y0039735D01*
X0353645D01*
X0354307Y0040009D01*
X0354813Y0040516D01*
X0355087Y0041177D01*
Y0041894D01*
X0354813Y0042555D01*
X0354307Y0043061D01*
X0353645Y0043335D01*
X0352929D01*
X0352730Y0043253D01*
X0352347Y0043636D01*
X0352430Y0043835D01*
Y0044551D01*
X0352156Y0045213D01*
X0351650Y0045719D01*
X0350988Y0045993D01*
D02*
G37*
G36*
X0386173Y0037551D02*
X0378787D01*
Y0030165D01*
X0381966D01*
X0381994Y0029677D01*
X0381055Y0029425D01*
X0380213Y0028939D01*
X0379525Y0028252D01*
X0379039Y0027410D01*
X0378787Y0026470D01*
Y0025498D01*
X0379039Y0024559D01*
X0379525Y0023717D01*
X0380213Y0023029D01*
X0381055Y0022543D01*
X0381994Y0022291D01*
X0382966D01*
X0383906Y0022543D01*
X0384748Y0023029D01*
X0385435Y0023717D01*
X0385922Y0024559D01*
X0386173Y0025498D01*
Y0026470D01*
X0385922Y0027410D01*
X0385435Y0028252D01*
X0384748Y0028939D01*
X0383906Y0029425D01*
X0382966Y0029677D01*
X0382995Y0030165D01*
X0386173D01*
Y0037551D01*
D02*
G37*
G36*
X0265411Y0030961D02*
X0264038D01*
X0262712Y0030605D01*
X0261524Y0029919D01*
X0260553Y0028949D01*
X0259867Y0027760D01*
X0259512Y0026434D01*
Y0025062D01*
X0259867Y0023736D01*
X0260553Y0022547D01*
X0261524Y0021577D01*
X0262712Y0020891D01*
X0264038Y0020535D01*
X0265411D01*
X0266736Y0020891D01*
X0267925Y0021577D01*
X0268896Y0022547D01*
X0269582Y0023736D01*
X0269937Y0025062D01*
Y0026434D01*
X0269582Y0027760D01*
X0268896Y0028949D01*
X0267925Y0029919D01*
X0266736Y0030605D01*
X0265411Y0030961D01*
D02*
G37*
G36*
X0245411D02*
X0244038D01*
X0242712Y0030605D01*
X0241524Y0029919D01*
X0240553Y0028949D01*
X0239867Y0027760D01*
X0239512Y0026434D01*
Y0025062D01*
X0239867Y0023736D01*
X0240553Y0022547D01*
X0241524Y0021577D01*
X0242712Y0020891D01*
X0244038Y0020535D01*
X0245411D01*
X0246736Y0020891D01*
X0247925Y0021577D01*
X0248896Y0022547D01*
X0249582Y0023736D01*
X0249937Y0025062D01*
Y0026434D01*
X0249582Y0027760D01*
X0248896Y0028949D01*
X0247925Y0029919D01*
X0246736Y0030605D01*
X0245411Y0030961D01*
D02*
G37*
G36*
X0226041D02*
X0224668D01*
X0223342Y0030605D01*
X0222154Y0029919D01*
X0221183Y0028949D01*
X0220497Y0027760D01*
X0220142Y0026434D01*
Y0025062D01*
X0220497Y0023736D01*
X0221183Y0022547D01*
X0222154Y0021577D01*
X0223342Y0020891D01*
X0224668Y0020535D01*
X0226041D01*
X0227366Y0020891D01*
X0228555Y0021577D01*
X0229525Y0022547D01*
X0230212Y0023736D01*
X0230567Y0025062D01*
Y0026434D01*
X0230212Y0027760D01*
X0229525Y0028949D01*
X0228555Y0029919D01*
X0227366Y0030605D01*
X0226041Y0030961D01*
D02*
G37*
G36*
X0346898Y0020370D02*
X0345858D01*
X0344852Y0020101D01*
X0343951Y0019580D01*
X0343215Y0018844D01*
X0342695Y0017943D01*
X0342425Y0016938D01*
Y0015897D01*
X0342695Y0014892D01*
X0343215Y0013990D01*
X0343951Y0013254D01*
X0344852Y0012734D01*
X0345858Y0012465D01*
X0346898D01*
X0347904Y0012734D01*
X0348805Y0013254D01*
X0349541Y0013990D01*
X0350061Y0014892D01*
X0350331Y0015897D01*
Y0016938D01*
X0350061Y0017943D01*
X0349541Y0018844D01*
X0348805Y0019580D01*
X0347904Y0020101D01*
X0346898Y0020370D01*
D02*
G37*
G36*
X0336898D02*
X0335858D01*
X0334852Y0020101D01*
X0333951Y0019580D01*
X0333215Y0018844D01*
X0332695Y0017943D01*
X0332425Y0016938D01*
Y0015897D01*
X0332695Y0014892D01*
X0333215Y0013990D01*
X0333951Y0013254D01*
X0334852Y0012734D01*
X0335858Y0012465D01*
X0336898D01*
X0337904Y0012734D01*
X0338805Y0013254D01*
X0339541Y0013990D01*
X0340061Y0014892D01*
X0340331Y0015897D01*
Y0016938D01*
X0340061Y0017943D01*
X0339541Y0018844D01*
X0338805Y0019580D01*
X0337904Y0020101D01*
X0336898Y0020370D01*
D02*
G37*
G36*
X0326898D02*
X0325858D01*
X0324852Y0020101D01*
X0323951Y0019580D01*
X0323215Y0018844D01*
X0322695Y0017943D01*
X0322425Y0016938D01*
Y0015897D01*
X0322695Y0014892D01*
X0323215Y0013990D01*
X0323951Y0013254D01*
X0324852Y0012734D01*
X0325858Y0012465D01*
X0326898D01*
X0327904Y0012734D01*
X0328805Y0013254D01*
X0329541Y0013990D01*
X0330061Y0014892D01*
X0330331Y0015897D01*
Y0016938D01*
X0330061Y0017943D01*
X0329541Y0018844D01*
X0328805Y0019580D01*
X0327904Y0020101D01*
X0326898Y0020370D01*
D02*
G37*
G36*
X0316898D02*
X0315858D01*
X0314852Y0020101D01*
X0313951Y0019580D01*
X0313215Y0018844D01*
X0312695Y0017943D01*
X0312425Y0016938D01*
Y0015897D01*
X0312695Y0014892D01*
X0313215Y0013990D01*
X0313951Y0013254D01*
X0314852Y0012734D01*
X0315858Y0012465D01*
X0316898D01*
X0317904Y0012734D01*
X0318805Y0013254D01*
X0319541Y0013990D01*
X0320061Y0014892D01*
X0320331Y0015897D01*
Y0016938D01*
X0320061Y0017943D01*
X0319541Y0018844D01*
X0318805Y0019580D01*
X0317904Y0020101D01*
X0316898Y0020370D01*
D02*
G37*
G36*
X0306945D02*
X0305904D01*
X0304899Y0020101D01*
X0303997Y0019580D01*
X0303261Y0018844D01*
X0302741Y0017943D01*
X0302472Y0016938D01*
Y0015897D01*
X0302741Y0014892D01*
X0303261Y0013990D01*
X0303997Y0013254D01*
X0304899Y0012734D01*
X0305904Y0012465D01*
X0306945D01*
X0307950Y0012734D01*
X0308851Y0013254D01*
X0309587Y0013990D01*
X0310108Y0014892D01*
X0310377Y0015897D01*
Y0016938D01*
X0310108Y0017943D01*
X0309587Y0018844D01*
X0308851Y0019580D01*
X0307950Y0020101D01*
X0306945Y0020370D01*
D02*
G37*
G36*
X0296944D02*
X0295904D01*
X0294898Y0020101D01*
X0293997Y0019580D01*
X0293261Y0018844D01*
X0292741Y0017943D01*
X0292471Y0016938D01*
Y0015897D01*
X0292741Y0014892D01*
X0293261Y0013990D01*
X0293997Y0013254D01*
X0294898Y0012734D01*
X0295904Y0012465D01*
X0296944D01*
X0297950Y0012734D01*
X0298851Y0013254D01*
X0299587Y0013990D01*
X0300107Y0014892D01*
X0300377Y0015897D01*
Y0016938D01*
X0300107Y0017943D01*
X0299587Y0018844D01*
X0298851Y0019580D01*
X0297950Y0020101D01*
X0296944Y0020370D01*
D02*
G37*
G36*
X0357854Y0020419D02*
X0354902D01*
X0353935Y0020226D01*
X0353116Y0019679D01*
X0352569Y0018860D01*
X0352377Y0017894D01*
Y0014941D01*
X0352569Y0013975D01*
X0353116Y0013156D01*
X0353935Y0012608D01*
X0354902Y0012416D01*
X0357854D01*
X0358821Y0012608D01*
X0359640Y0013156D01*
X0360187Y0013975D01*
X0360379Y0014941D01*
Y0017894D01*
X0360187Y0018860D01*
X0359640Y0019679D01*
X0358821Y0020226D01*
X0357854Y0020419D01*
D02*
G37*
G36*
X0255411Y0020961D02*
X0254038D01*
X0252712Y0020605D01*
X0251524Y0019919D01*
X0250553Y0018949D01*
X0249867Y0017760D01*
X0249512Y0016434D01*
Y0015062D01*
X0249867Y0013736D01*
X0250553Y0012547D01*
X0251524Y0011577D01*
X0252712Y0010891D01*
X0254038Y0010535D01*
X0255411D01*
X0256736Y0010891D01*
X0257925Y0011577D01*
X0258895Y0012547D01*
X0259582Y0013736D01*
X0259937Y0015062D01*
Y0016434D01*
X0259582Y0017760D01*
X0258895Y0018949D01*
X0257925Y0019919D01*
X0256736Y0020605D01*
X0255411Y0020961D01*
D02*
G37*
G36*
X0216041D02*
X0214668D01*
X0213342Y0020605D01*
X0212154Y0019919D01*
X0211183Y0018949D01*
X0210497Y0017760D01*
X0210142Y0016434D01*
Y0015062D01*
X0210497Y0013736D01*
X0211183Y0012547D01*
X0212154Y0011577D01*
X0213342Y0010891D01*
X0214668Y0010535D01*
X0216041D01*
X0217366Y0010891D01*
X0218555Y0011577D01*
X0219525Y0012547D01*
X0220212Y0013736D01*
X0220567Y0015062D01*
Y0016434D01*
X0220212Y0017760D01*
X0219525Y0018949D01*
X0218555Y0019919D01*
X0217366Y0020605D01*
X0216041Y0020961D01*
D02*
G37*
G36*
X0306924Y0010009D02*
Y0006965D01*
X0309968D01*
X0309735Y0007836D01*
X0309267Y0008646D01*
X0308606Y0009308D01*
X0307796Y0009775D01*
X0306924Y0010009D01*
D02*
G37*
G36*
X0296924D02*
Y0006965D01*
X0299968D01*
X0299735Y0007836D01*
X0299267Y0008646D01*
X0298605Y0009308D01*
X0297795Y0009775D01*
X0296924Y0010009D01*
D02*
G37*
G36*
X0305924D02*
X0305053Y0009775D01*
X0304243Y0009308D01*
X0303581Y0008646D01*
X0303114Y0007836D01*
X0302880Y0006965D01*
X0305924D01*
Y0010009D01*
D02*
G37*
G36*
X0295924D02*
X0295053Y0009775D01*
X0294243Y0009308D01*
X0293581Y0008646D01*
X0293113Y0007836D01*
X0292880Y0006965D01*
X0295924D01*
Y0010009D01*
D02*
G37*
G36*
X0316878Y0009961D02*
Y0006917D01*
X0319922D01*
X0319689Y0007789D01*
X0319221Y0008599D01*
X0318559Y0009260D01*
X0317749Y0009728D01*
X0316878Y0009961D01*
D02*
G37*
G36*
X0315878D02*
X0315007Y0009728D01*
X0314196Y0009260D01*
X0313535Y0008599D01*
X0313067Y0007789D01*
X0312834Y0006917D01*
X0315878D01*
Y0009961D01*
D02*
G37*
G36*
X0309968Y0005965D02*
X0306924D01*
Y0002921D01*
X0307796Y0003154D01*
X0308606Y0003622D01*
X0309267Y0004283D01*
X0309735Y0005093D01*
X0309968Y0005965D01*
D02*
G37*
G36*
X0299968D02*
X0296924D01*
Y0002921D01*
X0297795Y0003154D01*
X0298605Y0003622D01*
X0299267Y0004283D01*
X0299735Y0005093D01*
X0299968Y0005965D01*
D02*
G37*
G36*
X0305924D02*
X0302880D01*
X0303114Y0005093D01*
X0303581Y0004283D01*
X0304243Y0003622D01*
X0305053Y0003154D01*
X0305924Y0002921D01*
Y0005965D01*
D02*
G37*
G36*
X0295924D02*
X0292880D01*
X0293113Y0005093D01*
X0293581Y0004283D01*
X0294243Y0003622D01*
X0295053Y0003154D01*
X0295924Y0002921D01*
Y0005965D01*
D02*
G37*
G36*
X0319922Y0005917D02*
X0316878D01*
Y0002873D01*
X0317749Y0003107D01*
X0318559Y0003574D01*
X0319221Y0004236D01*
X0319689Y0005046D01*
X0319922Y0005917D01*
D02*
G37*
G36*
X0315878D02*
X0312834D01*
X0313067Y0005046D01*
X0313535Y0004236D01*
X0314196Y0003574D01*
X0315007Y0003107D01*
X0315878Y0002873D01*
Y0005917D01*
D02*
G37*
G36*
X0356898Y0010370D02*
X0355858D01*
X0354852Y0010101D01*
X0353951Y0009580D01*
X0353215Y0008844D01*
X0352695Y0007943D01*
X0352425Y0006938D01*
Y0005897D01*
X0352695Y0004892D01*
X0353215Y0003990D01*
X0353951Y0003254D01*
X0354852Y0002734D01*
X0355858Y0002465D01*
X0356898D01*
X0357904Y0002734D01*
X0358805Y0003254D01*
X0359541Y0003990D01*
X0360061Y0004892D01*
X0360331Y0005897D01*
Y0006938D01*
X0360061Y0007943D01*
X0359541Y0008844D01*
X0358805Y0009580D01*
X0357904Y0010101D01*
X0356898Y0010370D01*
D02*
G37*
G36*
X0346898D02*
X0345858D01*
X0344852Y0010101D01*
X0343951Y0009580D01*
X0343215Y0008844D01*
X0342695Y0007943D01*
X0342425Y0006938D01*
Y0005897D01*
X0342695Y0004892D01*
X0343215Y0003990D01*
X0343951Y0003254D01*
X0344852Y0002734D01*
X0345858Y0002465D01*
X0346898D01*
X0347904Y0002734D01*
X0348805Y0003254D01*
X0349541Y0003990D01*
X0350061Y0004892D01*
X0350331Y0005897D01*
Y0006938D01*
X0350061Y0007943D01*
X0349541Y0008844D01*
X0348805Y0009580D01*
X0347904Y0010101D01*
X0346898Y0010370D01*
D02*
G37*
G36*
X0336898D02*
X0335858D01*
X0334852Y0010101D01*
X0333951Y0009580D01*
X0333215Y0008844D01*
X0332695Y0007943D01*
X0332425Y0006938D01*
Y0005897D01*
X0332695Y0004892D01*
X0333215Y0003990D01*
X0333951Y0003254D01*
X0334852Y0002734D01*
X0335858Y0002465D01*
X0336898D01*
X0337904Y0002734D01*
X0338805Y0003254D01*
X0339541Y0003990D01*
X0340061Y0004892D01*
X0340331Y0005897D01*
Y0006938D01*
X0340061Y0007943D01*
X0339541Y0008844D01*
X0338805Y0009580D01*
X0337904Y0010101D01*
X0336898Y0010370D01*
D02*
G37*
G36*
X0326898D02*
X0325858D01*
X0324852Y0010101D01*
X0323951Y0009580D01*
X0323215Y0008844D01*
X0322695Y0007943D01*
X0322425Y0006938D01*
Y0005897D01*
X0322695Y0004892D01*
X0323215Y0003990D01*
X0323951Y0003254D01*
X0324852Y0002734D01*
X0325858Y0002465D01*
X0326898D01*
X0327904Y0002734D01*
X0328805Y0003254D01*
X0329541Y0003990D01*
X0330061Y0004892D01*
X0330331Y0005897D01*
Y0006938D01*
X0330061Y0007943D01*
X0329541Y0008844D01*
X0328805Y0009580D01*
X0327904Y0010101D01*
X0326898Y0010370D01*
D02*
G37*
G36*
X0176933Y0062922D02*
X0176217D01*
X0175555Y0062648D01*
X0175049Y0062142D01*
X0174775Y0061480D01*
Y0060764D01*
X0175049Y0060102D01*
X0175555Y0059596D01*
X0176217Y0059322D01*
X0176933D01*
X0177594Y0059596D01*
X0178101Y0060102D01*
X0178375Y0060764D01*
Y0061480D01*
X0178101Y0062142D01*
X0177594Y0062648D01*
X0176933Y0062922D01*
D02*
G37*
G36*
X0275949Y0062627D02*
X0275233D01*
X0274571Y0062353D01*
X0274065Y0061846D01*
X0273791Y0061185D01*
Y0060469D01*
X0274065Y0059807D01*
X0274571Y0059301D01*
X0275233Y0059027D01*
X0275949D01*
X0276610Y0059301D01*
X0277116Y0059807D01*
X0277391Y0060469D01*
Y0061185D01*
X0277116Y0061846D01*
X0276610Y0062353D01*
X0275949Y0062627D01*
D02*
G37*
G36*
X0311718Y0060560D02*
X0311001D01*
X0310340Y0060286D01*
X0309834Y0059780D01*
X0309560Y0059118D01*
Y0058402D01*
X0309834Y0057740D01*
X0310340Y0057234D01*
X0311001Y0056960D01*
X0311718D01*
X0312379Y0057234D01*
X0312885Y0057740D01*
X0313160Y0058402D01*
Y0059118D01*
X0312885Y0059780D01*
X0312379Y0060286D01*
X0311718Y0060560D01*
D02*
G37*
G36*
X0167386Y0058985D02*
X0166669D01*
X0166008Y0058711D01*
X0165502Y0058205D01*
X0165228Y0057543D01*
Y0056827D01*
X0165502Y0056165D01*
X0166008Y0055659D01*
X0166669Y0055385D01*
X0167386D01*
X0168047Y0055659D01*
X0168553Y0056165D01*
X0168828Y0056827D01*
Y0057543D01*
X0168553Y0058205D01*
X0168047Y0058711D01*
X0167386Y0058985D01*
D02*
G37*
G36*
X0156657Y0055934D02*
X0155941D01*
X0155280Y0055660D01*
X0154773Y0055154D01*
X0154499Y0054492D01*
Y0053776D01*
X0154773Y0053114D01*
X0155280Y0052608D01*
X0155941Y0052334D01*
X0156657D01*
X0157319Y0052608D01*
X0157825Y0053114D01*
X0158099Y0053776D01*
Y0054492D01*
X0157825Y0055154D01*
X0157319Y0055660D01*
X0156657Y0055934D01*
D02*
G37*
G36*
X0152052Y0055904D02*
X0151336D01*
X0150674Y0055630D01*
X0150168Y0055124D01*
X0149894Y0054462D01*
Y0053746D01*
X0150168Y0053084D01*
X0150674Y0052578D01*
X0151336Y0052304D01*
X0152052D01*
X0152713Y0052578D01*
X0153220Y0053084D01*
X0153494Y0053746D01*
Y0054462D01*
X0153220Y0055124D01*
X0152713Y0055630D01*
X0152052Y0055904D01*
D02*
G37*
G36*
X0159118Y0051898D02*
X0158402D01*
X0157740Y0051624D01*
X0157234Y0051118D01*
X0156960Y0050457D01*
Y0049740D01*
X0157234Y0049079D01*
X0157740Y0048572D01*
X0158402Y0048298D01*
X0159118D01*
X0159780Y0048572D01*
X0159843Y0048636D01*
X0160201Y0048277D01*
X0160862Y0048003D01*
X0161579D01*
X0162240Y0048277D01*
X0162596Y0048634D01*
X0162969Y0048701D01*
X0163215Y0048609D01*
X0163606Y0048218D01*
X0164268Y0047944D01*
X0164984D01*
X0165646Y0048218D01*
X0166152Y0048724D01*
X0166426Y0049386D01*
Y0050102D01*
X0166152Y0050764D01*
X0165646Y0051270D01*
X0164984Y0051544D01*
X0164268D01*
X0163606Y0051270D01*
X0163250Y0050914D01*
X0162878Y0050846D01*
X0162631Y0050938D01*
X0162240Y0051329D01*
X0161579Y0051603D01*
X0160862D01*
X0160201Y0051329D01*
X0160138Y0051266D01*
X0159780Y0051624D01*
X0159118Y0051898D01*
D02*
G37*
G36*
X0317386Y0050422D02*
X0316670D01*
X0316008Y0050148D01*
X0315502Y0049642D01*
X0315228Y0048980D01*
Y0048264D01*
X0315502Y0047602D01*
X0316008Y0047096D01*
X0316670Y0046822D01*
X0317386D01*
X0318047Y0047096D01*
X0318553Y0047602D01*
X0318828Y0048264D01*
Y0048980D01*
X0318553Y0049642D01*
X0318047Y0050148D01*
X0317386Y0050422D01*
D02*
G37*
G36*
X0172051Y0045304D02*
X0171335D01*
X0170673Y0045030D01*
X0170167Y0044524D01*
X0169893Y0043862D01*
Y0043146D01*
X0170167Y0042484D01*
X0170673Y0041978D01*
X0171335Y0041704D01*
X0172051D01*
X0172713Y0041978D01*
X0173219Y0042484D01*
X0173493Y0043146D01*
Y0043862D01*
X0173219Y0044524D01*
X0172713Y0045030D01*
X0172051Y0045304D01*
D02*
G37*
G36*
Y0040383D02*
X0171335D01*
X0170673Y0040109D01*
X0170167Y0039602D01*
X0169893Y0038941D01*
Y0038225D01*
X0170167Y0037563D01*
X0170396Y0037334D01*
X0170637Y0037008D01*
X0170396Y0036681D01*
X0170167Y0036453D01*
X0169893Y0035791D01*
Y0035075D01*
X0170167Y0034413D01*
X0170673Y0033907D01*
X0171335Y0033633D01*
X0172051D01*
X0172713Y0033907D01*
X0173219Y0034413D01*
X0173493Y0035075D01*
Y0035791D01*
X0173219Y0036453D01*
X0172990Y0036681D01*
X0172749Y0037008D01*
X0172990Y0037334D01*
X0173219Y0037563D01*
X0173493Y0038225D01*
Y0038941D01*
X0173219Y0039602D01*
X0172713Y0040109D01*
X0172051Y0040383D01*
D02*
G37*
G36*
X0162957Y0033198D02*
X0162240D01*
X0161579Y0032924D01*
X0161073Y0032417D01*
X0160798Y0031756D01*
Y0031040D01*
X0161073Y0030378D01*
X0161579Y0029872D01*
X0162240Y0029598D01*
X0162957D01*
X0163618Y0029872D01*
X0164124Y0030378D01*
X0164398Y0031040D01*
Y0031756D01*
X0164124Y0032417D01*
X0163618Y0032924D01*
X0162957Y0033198D01*
D02*
G37*
G36*
X0172110Y0030934D02*
X0171394D01*
X0170732Y0030660D01*
X0170226Y0030154D01*
X0169952Y0029492D01*
Y0028776D01*
X0170226Y0028114D01*
X0170732Y0027608D01*
X0171127Y0027444D01*
Y0026903D01*
X0170691Y0026723D01*
X0170185Y0026217D01*
X0169911Y0025555D01*
Y0024839D01*
X0170185Y0024177D01*
X0170691Y0023671D01*
X0171353Y0023397D01*
X0172069D01*
X0172731Y0023671D01*
X0173237Y0024177D01*
X0173511Y0024839D01*
Y0025555D01*
X0173237Y0026217D01*
X0172731Y0026723D01*
X0172336Y0026886D01*
Y0027428D01*
X0172772Y0027608D01*
X0173278Y0028114D01*
X0173552Y0028776D01*
Y0029492D01*
X0173278Y0030154D01*
X0172772Y0030660D01*
X0172110Y0030934D01*
D02*
G37*
G36*
X0151047Y0026406D02*
X0150331D01*
X0149669Y0026132D01*
X0149163Y0025626D01*
X0148889Y0024964D01*
Y0024248D01*
X0149163Y0023587D01*
X0149669Y0023080D01*
X0150331Y0022806D01*
X0151047D01*
X0151709Y0023080D01*
X0152215Y0023587D01*
X0152489Y0024248D01*
Y0024964D01*
X0152215Y0025626D01*
X0151709Y0026132D01*
X0151047Y0026406D01*
D02*
G37*
G36*
X0168370Y0021977D02*
X0167654D01*
X0166992Y0021703D01*
X0166486Y0021197D01*
X0166212Y0020535D01*
Y0019819D01*
X0166486Y0019158D01*
X0166893Y0018750D01*
X0166486Y0018342D01*
X0166212Y0017681D01*
Y0016965D01*
X0166486Y0016303D01*
X0166992Y0015797D01*
X0167654Y0015523D01*
X0168370D01*
X0169031Y0015797D01*
X0169538Y0016303D01*
X0169812Y0016965D01*
Y0017681D01*
X0169538Y0018342D01*
X0169346Y0018534D01*
X0169466Y0018759D01*
X0170005Y0018707D01*
X0170185Y0018272D01*
X0170691Y0017765D01*
X0171353Y0017491D01*
X0172069D01*
X0172731Y0017765D01*
X0173237Y0018272D01*
X0173511Y0018933D01*
Y0019649D01*
X0173237Y0020311D01*
X0172731Y0020817D01*
X0172069Y0021091D01*
X0171353D01*
X0170691Y0020817D01*
X0170312Y0020438D01*
X0170011Y0020496D01*
X0169795Y0020576D01*
X0169538Y0021197D01*
X0169031Y0021703D01*
X0168370Y0021977D01*
D02*
G37*
G36*
X0158134Y0013295D02*
X0157418D01*
X0156756Y0013021D01*
X0156285Y0012550D01*
X0156004Y0012531D01*
X0155723Y0012550D01*
X0155252Y0013021D01*
X0154590Y0013295D01*
X0153874D01*
X0153213Y0013021D01*
X0152706Y0012515D01*
X0152432Y0011853D01*
Y0011137D01*
X0152706Y0010476D01*
X0153213Y0009969D01*
X0153874Y0009695D01*
X0154590D01*
X0155252Y0009969D01*
X0155723Y0010440D01*
X0156004Y0010459D01*
X0156285Y0010440D01*
X0156756Y0009969D01*
X0157418Y0009695D01*
X0158134D01*
X0158795Y0009969D01*
X0159302Y0010476D01*
X0159388Y0010684D01*
X0159929D01*
X0160088Y0010299D01*
X0160595Y0009793D01*
X0160821Y0009699D01*
Y0009158D01*
X0160455Y0009006D01*
X0159949Y0008500D01*
X0159675Y0007838D01*
Y0007122D01*
X0159949Y0006461D01*
X0160455Y0005954D01*
X0161117Y0005680D01*
X0161833D01*
X0162495Y0005954D01*
X0163001Y0006461D01*
X0163275Y0007122D01*
Y0007838D01*
X0163001Y0008500D01*
X0162495Y0009006D01*
X0162268Y0009100D01*
Y0009641D01*
X0162634Y0009793D01*
X0163140Y0010299D01*
X0163414Y0010961D01*
Y0011677D01*
X0163140Y0012338D01*
X0162634Y0012845D01*
X0161972Y0013119D01*
X0161256D01*
X0160595Y0012845D01*
X0160088Y0012338D01*
X0160002Y0012130D01*
X0159461D01*
X0159302Y0012515D01*
X0158795Y0013021D01*
X0158134Y0013295D01*
D02*
G37*
G36*
X0172069Y0015186D02*
X0171353D01*
X0170691Y0014912D01*
X0170185Y0014405D01*
X0169911Y0013744D01*
Y0013028D01*
X0170185Y0012366D01*
X0170691Y0011860D01*
X0171353Y0011586D01*
X0172069D01*
X0172731Y0011860D01*
X0173237Y0012366D01*
X0173511Y0013028D01*
Y0013744D01*
X0173237Y0014405D01*
X0172731Y0014912D01*
X0172069Y0015186D01*
D02*
G37*
G36*
X0150063Y0014595D02*
X0149347D01*
X0148685Y0014321D01*
X0148179Y0013815D01*
X0147905Y0013153D01*
Y0012437D01*
X0148179Y0011776D01*
X0148685Y0011269D01*
X0149347Y0010995D01*
X0150063D01*
X0150724Y0011269D01*
X0151231Y0011776D01*
X0151505Y0012437D01*
Y0013153D01*
X0151231Y0013815D01*
X0150724Y0014321D01*
X0150063Y0014595D01*
D02*
G37*
G36*
X0172069Y0009280D02*
X0171353D01*
X0170691Y0009006D01*
X0170185Y0008500D01*
X0169911Y0007838D01*
Y0007122D01*
X0170185Y0006461D01*
X0170691Y0005954D01*
X0171353Y0005680D01*
X0172069D01*
X0172731Y0005954D01*
X0173237Y0006461D01*
X0173511Y0007122D01*
Y0007838D01*
X0173237Y0008500D01*
X0172731Y0009006D01*
X0172069Y0009280D01*
D02*
G37*
G36*
X0166951D02*
X0166235D01*
X0165573Y0009006D01*
X0165067Y0008500D01*
X0164793Y0007838D01*
Y0007122D01*
X0165067Y0006461D01*
X0165573Y0005954D01*
X0166235Y0005680D01*
X0166951D01*
X0167613Y0005954D01*
X0168119Y0006461D01*
X0168393Y0007122D01*
Y0007838D01*
X0168119Y0008500D01*
X0167613Y0009006D01*
X0166951Y0009280D01*
D02*
G37*
G36*
X0156715D02*
X0155999D01*
X0155337Y0009006D01*
X0154831Y0008500D01*
X0154557Y0007838D01*
Y0007122D01*
X0154831Y0006461D01*
X0155337Y0005954D01*
X0155999Y0005680D01*
X0156715D01*
X0157376Y0005954D01*
X0157883Y0006461D01*
X0158157Y0007122D01*
Y0007838D01*
X0157883Y0008500D01*
X0157376Y0009006D01*
X0156715Y0009280D01*
D02*
G37*
G36*
X0290172Y0081348D02*
X0289455D01*
X0288794Y0081074D01*
X0288287Y0080568D01*
X0288013Y0079906D01*
Y0079190D01*
X0288287Y0078528D01*
X0288794Y0078022D01*
X0289455Y0077748D01*
X0290172D01*
X0290833Y0078022D01*
X0291339Y0078528D01*
X0291613Y0079190D01*
Y0079906D01*
X0291339Y0080568D01*
X0290833Y0081074D01*
X0290172Y0081348D01*
D02*
G37*
G36*
X0266549D02*
X0265833D01*
X0265172Y0081074D01*
X0264665Y0080568D01*
X0264391Y0079906D01*
Y0079190D01*
X0264665Y0078528D01*
X0265172Y0078022D01*
X0265833Y0077748D01*
X0266549D01*
X0267211Y0078022D01*
X0267717Y0078528D01*
X0267991Y0079190D01*
Y0079906D01*
X0267717Y0080568D01*
X0267211Y0081074D01*
X0266549Y0081348D01*
D02*
G37*
G36*
X0258675D02*
X0257959D01*
X0257298Y0081074D01*
X0256791Y0080568D01*
X0256517Y0079906D01*
Y0079190D01*
X0256791Y0078528D01*
X0257298Y0078022D01*
X0257959Y0077748D01*
X0258675D01*
X0259337Y0078022D01*
X0259843Y0078528D01*
X0260117Y0079190D01*
Y0079906D01*
X0259843Y0080568D01*
X0259337Y0081074D01*
X0258675Y0081348D01*
D02*
G37*
G36*
X0250801D02*
X0250085D01*
X0249424Y0081074D01*
X0248917Y0080568D01*
X0248643Y0079906D01*
Y0079190D01*
X0248917Y0078528D01*
X0249424Y0078022D01*
X0250085Y0077748D01*
X0250801D01*
X0251463Y0078022D01*
X0251969Y0078528D01*
X0252243Y0079190D01*
Y0079906D01*
X0251969Y0080568D01*
X0251463Y0081074D01*
X0250801Y0081348D01*
D02*
G37*
G36*
X0242927D02*
X0242211D01*
X0241550Y0081074D01*
X0241043Y0080568D01*
X0240769Y0079906D01*
Y0079190D01*
X0241043Y0078528D01*
X0241550Y0078022D01*
X0242211Y0077748D01*
X0242927D01*
X0243589Y0078022D01*
X0244095Y0078528D01*
X0244369Y0079190D01*
Y0079906D01*
X0244095Y0080568D01*
X0243589Y0081074D01*
X0242927Y0081348D01*
D02*
G37*
G36*
X0235053D02*
X0234337D01*
X0233676Y0081074D01*
X0233169Y0080568D01*
X0232895Y0079906D01*
Y0079190D01*
X0233169Y0078528D01*
X0233676Y0078022D01*
X0234337Y0077748D01*
X0235053D01*
X0235715Y0078022D01*
X0236221Y0078528D01*
X0236495Y0079190D01*
Y0079906D01*
X0236221Y0080568D01*
X0235715Y0081074D01*
X0235053Y0081348D01*
D02*
G37*
G36*
X0227179D02*
X0226463D01*
X0225802Y0081074D01*
X0225295Y0080568D01*
X0225021Y0079906D01*
Y0079190D01*
X0225295Y0078528D01*
X0225802Y0078022D01*
X0226463Y0077748D01*
X0227179D01*
X0227841Y0078022D01*
X0228347Y0078528D01*
X0228621Y0079190D01*
Y0079906D01*
X0228347Y0080568D01*
X0227841Y0081074D01*
X0227179Y0081348D01*
D02*
G37*
G36*
X0219305D02*
X0218589D01*
X0217928Y0081074D01*
X0217421Y0080568D01*
X0217147Y0079906D01*
Y0079190D01*
X0217421Y0078528D01*
X0217928Y0078022D01*
X0218589Y0077748D01*
X0219305D01*
X0219967Y0078022D01*
X0220473Y0078528D01*
X0220747Y0079190D01*
Y0079906D01*
X0220473Y0080568D01*
X0219967Y0081074D01*
X0219305Y0081348D01*
D02*
G37*
G36*
X0211431D02*
X0210715D01*
X0210054Y0081074D01*
X0209547Y0080568D01*
X0209273Y0079906D01*
Y0079190D01*
X0209547Y0078528D01*
X0210054Y0078022D01*
X0210715Y0077748D01*
X0211431D01*
X0212093Y0078022D01*
X0212599Y0078528D01*
X0212873Y0079190D01*
Y0079906D01*
X0212599Y0080568D01*
X0212093Y0081074D01*
X0211431Y0081348D01*
D02*
G37*
G36*
X0203557D02*
X0202841D01*
X0202180Y0081074D01*
X0201673Y0080568D01*
X0201399Y0079906D01*
Y0079190D01*
X0201673Y0078528D01*
X0202180Y0078022D01*
X0202841Y0077748D01*
X0203557D01*
X0204219Y0078022D01*
X0204725Y0078528D01*
X0204999Y0079190D01*
Y0079906D01*
X0204725Y0080568D01*
X0204219Y0081074D01*
X0203557Y0081348D01*
D02*
G37*
G36*
X0195683D02*
X0194967D01*
X0194306Y0081074D01*
X0193799Y0080568D01*
X0193525Y0079906D01*
Y0079190D01*
X0193799Y0078528D01*
X0194306Y0078022D01*
X0194967Y0077748D01*
X0195683D01*
X0196345Y0078022D01*
X0196851Y0078528D01*
X0197125Y0079190D01*
Y0079906D01*
X0196851Y0080568D01*
X0196345Y0081074D01*
X0195683Y0081348D01*
D02*
G37*
G36*
X0179935D02*
X0179219D01*
X0178558Y0081074D01*
X0178051Y0080568D01*
X0177777Y0079906D01*
Y0079190D01*
X0178051Y0078528D01*
X0178558Y0078022D01*
X0179219Y0077748D01*
X0179935D01*
X0180597Y0078022D01*
X0181103Y0078528D01*
X0181377Y0079190D01*
Y0079906D01*
X0181103Y0080568D01*
X0180597Y0081074D01*
X0179935Y0081348D01*
D02*
G37*
G36*
X0172061D02*
X0171345D01*
X0170684Y0081074D01*
X0170177Y0080568D01*
X0169903Y0079906D01*
Y0079190D01*
X0170177Y0078528D01*
X0170684Y0078022D01*
X0171345Y0077748D01*
X0172061D01*
X0172723Y0078022D01*
X0173229Y0078528D01*
X0173503Y0079190D01*
Y0079906D01*
X0173229Y0080568D01*
X0172723Y0081074D01*
X0172061Y0081348D01*
D02*
G37*
G36*
X0166943D02*
X0166227D01*
X0165566Y0081074D01*
X0165059Y0080568D01*
X0164785Y0079906D01*
Y0079190D01*
X0165059Y0078528D01*
X0165566Y0078022D01*
X0166227Y0077748D01*
X0166943D01*
X0167605Y0078022D01*
X0168111Y0078528D01*
X0168385Y0079190D01*
Y0079906D01*
X0168111Y0080568D01*
X0167605Y0081074D01*
X0166943Y0081348D01*
D02*
G37*
G36*
X0161825D02*
X0161109D01*
X0160447Y0081074D01*
X0159941Y0080568D01*
X0159667Y0079906D01*
Y0079190D01*
X0159941Y0078528D01*
X0160447Y0078022D01*
X0161109Y0077748D01*
X0161825D01*
X0162487Y0078022D01*
X0162993Y0078528D01*
X0163267Y0079190D01*
Y0079906D01*
X0162993Y0080568D01*
X0162487Y0081074D01*
X0161825Y0081348D01*
D02*
G37*
G36*
X0184905Y0081347D02*
X0184189D01*
X0183528Y0081073D01*
X0183021Y0080567D01*
X0182747Y0079905D01*
Y0079189D01*
X0183021Y0078528D01*
X0183528Y0078021D01*
X0184189Y0077747D01*
X0184905D01*
X0185567Y0078021D01*
X0186073Y0078528D01*
X0186347Y0079189D01*
Y0079905D01*
X0186073Y0080567D01*
X0185567Y0081073D01*
X0184905Y0081347D01*
D02*
G37*
G36*
X0143193Y0081328D02*
X0142477D01*
X0141815Y0081054D01*
X0141309Y0080547D01*
X0141035Y0079886D01*
Y0079170D01*
X0141309Y0078508D01*
X0141815Y0078002D01*
X0142477Y0077728D01*
X0143193D01*
X0143854Y0078002D01*
X0144361Y0078508D01*
X0144635Y0079170D01*
Y0079886D01*
X0144361Y0080547D01*
X0143854Y0081054D01*
X0143193Y0081328D01*
D02*
G37*
G36*
X0138271D02*
X0137555D01*
X0136894Y0081054D01*
X0136387Y0080547D01*
X0136113Y0079886D01*
Y0079170D01*
X0136387Y0078508D01*
X0136894Y0078002D01*
X0137555Y0077728D01*
X0138271D01*
X0138933Y0078002D01*
X0139439Y0078508D01*
X0139713Y0079170D01*
Y0079886D01*
X0139439Y0080547D01*
X0138933Y0081054D01*
X0138271Y0081328D01*
D02*
G37*
G36*
X0342878Y0081328D02*
X0342162D01*
X0341500Y0081054D01*
X0340994Y0080547D01*
X0340720Y0079886D01*
Y0079169D01*
X0340994Y0078508D01*
X0341500Y0078002D01*
X0342162Y0077728D01*
X0342878D01*
X0343539Y0078002D01*
X0344046Y0078508D01*
X0344320Y0079169D01*
Y0079886D01*
X0344046Y0080547D01*
X0343539Y0081054D01*
X0342878Y0081328D01*
D02*
G37*
G36*
X0335004D02*
X0334288D01*
X0333626Y0081054D01*
X0333120Y0080547D01*
X0332846Y0079886D01*
Y0079169D01*
X0333120Y0078508D01*
X0333626Y0078002D01*
X0334288Y0077728D01*
X0335004D01*
X0335665Y0078002D01*
X0336172Y0078508D01*
X0336446Y0079169D01*
Y0079886D01*
X0336172Y0080547D01*
X0335665Y0081054D01*
X0335004Y0081328D01*
D02*
G37*
G36*
X0327130D02*
X0326414D01*
X0325752Y0081054D01*
X0325246Y0080547D01*
X0324972Y0079886D01*
Y0079169D01*
X0325246Y0078508D01*
X0325752Y0078002D01*
X0326414Y0077728D01*
X0327130D01*
X0327791Y0078002D01*
X0328298Y0078508D01*
X0328572Y0079169D01*
Y0079886D01*
X0328298Y0080547D01*
X0327791Y0081054D01*
X0327130Y0081328D01*
D02*
G37*
G36*
X0319256D02*
X0318540D01*
X0317878Y0081054D01*
X0317372Y0080547D01*
X0317098Y0079886D01*
Y0079169D01*
X0317372Y0078508D01*
X0317878Y0078002D01*
X0318540Y0077728D01*
X0319256D01*
X0319917Y0078002D01*
X0320424Y0078508D01*
X0320698Y0079169D01*
Y0079886D01*
X0320424Y0080547D01*
X0319917Y0081054D01*
X0319256Y0081328D01*
D02*
G37*
G36*
X0311382D02*
X0310666D01*
X0310004Y0081054D01*
X0309498Y0080547D01*
X0309224Y0079886D01*
Y0079169D01*
X0309498Y0078508D01*
X0310004Y0078002D01*
X0310666Y0077728D01*
X0311382D01*
X0312043Y0078002D01*
X0312550Y0078508D01*
X0312824Y0079169D01*
Y0079886D01*
X0312550Y0080547D01*
X0312043Y0081054D01*
X0311382Y0081328D01*
D02*
G37*
G36*
X0303508D02*
X0302792D01*
X0302130Y0081054D01*
X0301624Y0080547D01*
X0301350Y0079886D01*
Y0079169D01*
X0301624Y0078508D01*
X0302130Y0078002D01*
X0302792Y0077728D01*
X0303508D01*
X0304169Y0078002D01*
X0304676Y0078508D01*
X0304950Y0079169D01*
Y0079886D01*
X0304676Y0080547D01*
X0304169Y0081054D01*
X0303508Y0081328D01*
D02*
G37*
G36*
X0295634D02*
X0294918D01*
X0294256Y0081054D01*
X0293750Y0080547D01*
X0293476Y0079886D01*
Y0079169D01*
X0293750Y0078508D01*
X0294256Y0078002D01*
X0294918Y0077728D01*
X0295634D01*
X0296295Y0078002D01*
X0296802Y0078508D01*
X0297076Y0079169D01*
Y0079886D01*
X0296802Y0080547D01*
X0296295Y0081054D01*
X0295634Y0081328D01*
D02*
G37*
G36*
X0274423Y0081348D02*
X0273707D01*
X0273046Y0081074D01*
X0272539Y0080568D01*
X0272265Y0079906D01*
Y0079190D01*
X0272539Y0078528D01*
X0273046Y0078022D01*
X0273707Y0077748D01*
X0274184D01*
X0274388Y0077248D01*
X0274025Y0076886D01*
X0274004Y0076835D01*
X0273475Y0076807D01*
X0272968Y0077313D01*
X0272307Y0077587D01*
X0271591D01*
X0270929Y0077313D01*
X0270423Y0076807D01*
X0270149Y0076145D01*
Y0075429D01*
X0270423Y0074768D01*
X0270929Y0074261D01*
X0271591Y0073987D01*
X0272307D01*
X0272968Y0074261D01*
X0273475Y0074768D01*
X0273496Y0074818D01*
X0274025Y0074847D01*
X0274532Y0074340D01*
X0275193Y0074066D01*
X0275909D01*
X0276571Y0074340D01*
X0277077Y0074847D01*
X0277351Y0075508D01*
Y0076224D01*
X0277077Y0076886D01*
X0276571Y0077392D01*
X0275909Y0077666D01*
X0275433D01*
X0275229Y0078166D01*
X0275591Y0078528D01*
X0275865Y0079190D01*
Y0079906D01*
X0275591Y0080568D01*
X0275085Y0081074D01*
X0274423Y0081348D01*
D02*
G37*
G36*
X0293271Y0077785D02*
X0292555D01*
X0291894Y0077511D01*
X0291387Y0077005D01*
X0291113Y0076343D01*
Y0075627D01*
X0291387Y0074966D01*
X0291894Y0074459D01*
X0292555Y0074185D01*
X0293271D01*
X0293933Y0074459D01*
X0294439Y0074966D01*
X0294713Y0075627D01*
Y0076343D01*
X0294439Y0077005D01*
X0293933Y0077511D01*
X0293271Y0077785D01*
D02*
G37*
G36*
X0145831Y0077590D02*
X0145114D01*
X0144453Y0077316D01*
X0143947Y0076809D01*
X0143673Y0076148D01*
Y0075432D01*
X0143947Y0074770D01*
X0144453Y0074264D01*
X0145114Y0073990D01*
X0145831D01*
X0146492Y0074264D01*
X0146998Y0074770D01*
X0147273Y0075432D01*
Y0076148D01*
X0146998Y0076809D01*
X0146492Y0077316D01*
X0145831Y0077590D01*
D02*
G37*
G36*
X0282297Y0081348D02*
X0281581D01*
X0280920Y0081074D01*
X0280414Y0080568D01*
X0280139Y0079906D01*
Y0079190D01*
X0280414Y0078528D01*
X0280920Y0078022D01*
X0281581Y0077748D01*
X0281833D01*
X0281929Y0077556D01*
X0281986Y0077248D01*
X0281545Y0076807D01*
X0281271Y0076145D01*
Y0075429D01*
X0281545Y0074768D01*
X0282051Y0074261D01*
X0282713Y0073987D01*
X0283429D01*
X0284090Y0074261D01*
X0284597Y0074768D01*
X0284871Y0075429D01*
Y0076145D01*
X0284597Y0076807D01*
X0284090Y0077313D01*
X0283429Y0077587D01*
X0283178D01*
X0283081Y0077779D01*
X0283024Y0078087D01*
X0283465Y0078528D01*
X0283739Y0079190D01*
Y0079906D01*
X0283465Y0080568D01*
X0282959Y0081074D01*
X0282297Y0081348D01*
D02*
G37*
G36*
X0156707D02*
X0155991D01*
X0155329Y0081074D01*
X0154823Y0080568D01*
X0154549Y0079906D01*
Y0079190D01*
X0154823Y0078528D01*
X0155329Y0078022D01*
X0155769Y0077840D01*
Y0077299D01*
X0155378Y0077137D01*
X0154872Y0076631D01*
X0154598Y0075969D01*
Y0075253D01*
X0154872Y0074591D01*
X0155378Y0074085D01*
X0156040Y0073811D01*
X0156756D01*
X0157417Y0074085D01*
X0157924Y0074591D01*
X0158198Y0075253D01*
Y0075969D01*
X0157924Y0076631D01*
X0157417Y0077137D01*
X0156978Y0077319D01*
Y0077860D01*
X0157369Y0078022D01*
X0157875Y0078528D01*
X0158149Y0079190D01*
Y0079906D01*
X0157875Y0080568D01*
X0157369Y0081074D01*
X0156707Y0081348D01*
D02*
G37*
G36*
X0248783Y0075914D02*
X0248067D01*
X0247406Y0075640D01*
X0246899Y0075134D01*
X0246625Y0074472D01*
Y0073756D01*
X0246899Y0073095D01*
X0247406Y0072588D01*
X0248067Y0072314D01*
X0248783D01*
X0249445Y0072588D01*
X0249951Y0073095D01*
X0250225Y0073756D01*
Y0074472D01*
X0249951Y0075134D01*
X0249445Y0075640D01*
X0248783Y0075914D01*
D02*
G37*
G36*
X0172061Y0075443D02*
X0171345D01*
X0170684Y0075169D01*
X0170177Y0074662D01*
X0169903Y0074001D01*
Y0073285D01*
X0170177Y0072623D01*
X0170684Y0072117D01*
X0171345Y0071843D01*
X0172061D01*
X0172723Y0072117D01*
X0173229Y0072623D01*
X0173503Y0073285D01*
Y0074001D01*
X0173229Y0074662D01*
X0172723Y0075169D01*
X0172061Y0075443D01*
D02*
G37*
G36*
X0223882Y0075225D02*
X0223166D01*
X0222504Y0074951D01*
X0221998Y0074445D01*
X0221724Y0073783D01*
Y0073067D01*
X0221998Y0072406D01*
X0222504Y0071899D01*
X0223166Y0071625D01*
X0223882D01*
X0224543Y0071899D01*
X0225050Y0072406D01*
X0225324Y0073067D01*
Y0073783D01*
X0225050Y0074445D01*
X0224543Y0074951D01*
X0223882Y0075225D01*
D02*
G37*
G36*
X0240319Y0074241D02*
X0239603D01*
X0238941Y0073967D01*
X0238435Y0073461D01*
X0238161Y0072799D01*
Y0072083D01*
X0238435Y0071421D01*
X0238941Y0070915D01*
X0239603Y0070641D01*
X0240319D01*
X0240980Y0070915D01*
X0241487Y0071421D01*
X0241761Y0072083D01*
Y0072799D01*
X0241487Y0073461D01*
X0240980Y0073967D01*
X0240319Y0074241D01*
D02*
G37*
G36*
X0232642D02*
X0231925D01*
X0231264Y0073967D01*
X0230757Y0073461D01*
X0230484Y0072799D01*
Y0072083D01*
X0230757Y0071421D01*
X0231264Y0070915D01*
X0231925Y0070641D01*
X0232642D01*
X0233303Y0070915D01*
X0233809Y0071421D01*
X0234084Y0072083D01*
Y0072799D01*
X0233809Y0073461D01*
X0233303Y0073967D01*
X0232642Y0074241D01*
D02*
G37*
G36*
X0177130Y0077292D02*
X0176414D01*
X0175752Y0077018D01*
X0175246Y0076512D01*
X0174972Y0075850D01*
Y0075134D01*
X0175246Y0074472D01*
X0175752Y0073966D01*
X0175929Y0073893D01*
Y0073351D01*
X0175752Y0073278D01*
X0175246Y0072772D01*
X0174972Y0072110D01*
Y0071394D01*
X0175246Y0070732D01*
X0175752Y0070226D01*
X0176414Y0069952D01*
X0177130D01*
X0177791Y0070226D01*
X0178298Y0070732D01*
X0178572Y0071394D01*
Y0072110D01*
X0178298Y0072772D01*
X0177791Y0073278D01*
X0177614Y0073351D01*
Y0073893D01*
X0177791Y0073966D01*
X0178298Y0074472D01*
X0178572Y0075134D01*
Y0075850D01*
X0178298Y0076512D01*
X0177791Y0077018D01*
X0177130Y0077292D01*
D02*
G37*
G36*
X0301935Y0073375D02*
X0301219D01*
X0300557Y0073101D01*
X0300051Y0072595D01*
X0299777Y0071933D01*
Y0071217D01*
X0300051Y0070556D01*
X0300557Y0070049D01*
X0301219Y0069775D01*
X0301935D01*
X0302596Y0070049D01*
X0303103Y0070556D01*
X0303377Y0071217D01*
Y0071933D01*
X0303103Y0072595D01*
X0302596Y0073101D01*
X0301935Y0073375D01*
D02*
G37*
G36*
X0336185Y0069910D02*
X0335469D01*
X0334807Y0069636D01*
X0334301Y0069130D01*
X0334027Y0068468D01*
Y0067752D01*
X0334301Y0067091D01*
X0334807Y0066584D01*
X0335469Y0066310D01*
X0336185D01*
X0336846Y0066584D01*
X0337353Y0067091D01*
X0337627Y0067752D01*
Y0068468D01*
X0337353Y0069130D01*
X0336846Y0069636D01*
X0336185Y0069910D01*
D02*
G37*
G36*
X0326539Y0068653D02*
X0325823D01*
X0325162Y0068379D01*
X0324655Y0067873D01*
X0324381Y0067211D01*
Y0066495D01*
X0324655Y0065834D01*
X0325162Y0065327D01*
X0325823Y0065053D01*
X0326539D01*
X0327201Y0065327D01*
X0327707Y0065834D01*
X0327981Y0066495D01*
Y0067211D01*
X0327707Y0067873D01*
X0327201Y0068379D01*
X0326539Y0068653D01*
D02*
G37*
G36*
X0336185Y0065579D02*
X0335469D01*
X0334807Y0065306D01*
X0334301Y0064799D01*
X0334027Y0064138D01*
Y0063421D01*
X0334301Y0062760D01*
X0334807Y0062254D01*
X0335469Y0061980D01*
X0336185D01*
X0336846Y0062254D01*
X0337353Y0062760D01*
X0337627Y0063421D01*
Y0064138D01*
X0337353Y0064799D01*
X0336846Y0065306D01*
X0336185Y0065579D01*
D02*
G37*
G36*
X0329967Y0065481D02*
X0329251D01*
X0328590Y0065207D01*
X0328083Y0064701D01*
X0327809Y0064039D01*
Y0063323D01*
X0328083Y0062661D01*
X0328590Y0062155D01*
X0329251Y0061881D01*
X0329967D01*
X0330629Y0062155D01*
X0331135Y0062661D01*
X0331409Y0063323D01*
Y0064039D01*
X0331135Y0064701D01*
X0330629Y0065207D01*
X0329967Y0065481D01*
D02*
G37*
G36*
X0138153Y0057213D02*
X0137437D01*
X0136776Y0056939D01*
X0136269Y0056433D01*
X0135995Y0055771D01*
Y0055055D01*
X0136269Y0054394D01*
X0136776Y0053887D01*
X0137437Y0053613D01*
X0138153D01*
X0138815Y0053887D01*
X0139321Y0054394D01*
X0139595Y0055055D01*
Y0055771D01*
X0139321Y0056433D01*
X0138815Y0056939D01*
X0138153Y0057213D01*
D02*
G37*
G36*
X0185434Y0048158D02*
X0184718D01*
X0184056Y0047884D01*
X0183926Y0047754D01*
X0183795Y0047884D01*
X0183134Y0048158D01*
X0182418D01*
X0181756Y0047884D01*
X0181250Y0047378D01*
X0180976Y0046716D01*
Y0046000D01*
X0181250Y0045339D01*
X0181756Y0044832D01*
X0182418Y0044558D01*
X0183134D01*
X0183795Y0044832D01*
X0183926Y0044963D01*
X0184056Y0044832D01*
X0184718Y0044558D01*
X0185434D01*
X0186095Y0044832D01*
X0186217Y0044954D01*
X0186356Y0044814D01*
X0187018Y0044540D01*
X0187734D01*
X0188395Y0044814D01*
X0188901Y0045321D01*
X0189175Y0045982D01*
Y0046698D01*
X0188901Y0047360D01*
X0188395Y0047866D01*
X0187734Y0048140D01*
X0187018D01*
X0186356Y0047866D01*
X0186234Y0047745D01*
X0186095Y0047884D01*
X0185434Y0048158D01*
D02*
G37*
G36*
X0337956Y0046013D02*
X0337240D01*
X0336578Y0045739D01*
X0336319Y0045479D01*
X0336059Y0045739D01*
X0335397Y0046013D01*
X0334681D01*
X0334019Y0045739D01*
X0333513Y0045232D01*
X0333239Y0044571D01*
Y0043855D01*
X0333513Y0043193D01*
X0334019Y0042687D01*
X0334681Y0042413D01*
X0335397D01*
X0336059Y0042687D01*
X0336319Y0042947D01*
X0336578Y0042687D01*
X0337240Y0042413D01*
X0337956D01*
X0338618Y0042687D01*
X0339124Y0043193D01*
X0339398Y0043855D01*
Y0044571D01*
X0339124Y0045232D01*
X0338618Y0045739D01*
X0337956Y0046013D01*
D02*
G37*
G36*
X0140712Y0045206D02*
X0139996D01*
X0139335Y0044932D01*
X0138828Y0044425D01*
X0138554Y0043764D01*
Y0043047D01*
X0138828Y0042386D01*
X0139335Y0041880D01*
X0139996Y0041605D01*
X0140712D01*
X0141374Y0041880D01*
X0141880Y0042386D01*
X0142154Y0043047D01*
Y0043764D01*
X0141880Y0044425D01*
X0141374Y0044932D01*
X0140712Y0045206D01*
D02*
G37*
G36*
X0258527Y0043040D02*
X0257811D01*
X0257150Y0042766D01*
X0256643Y0042260D01*
X0256369Y0041598D01*
Y0040882D01*
X0256643Y0040220D01*
X0257150Y0039714D01*
X0257811Y0039440D01*
X0258527D01*
X0259189Y0039714D01*
X0259695Y0040220D01*
X0259969Y0040882D01*
Y0041598D01*
X0259695Y0042260D01*
X0259189Y0042766D01*
X0258527Y0043040D01*
D02*
G37*
G36*
X0136185Y0025816D02*
X0135469D01*
X0134807Y0025542D01*
X0134301Y0025035D01*
X0134027Y0024374D01*
Y0023658D01*
X0134301Y0022996D01*
X0134807Y0022490D01*
X0135469Y0022216D01*
X0136185D01*
X0136846Y0022490D01*
X0137353Y0022996D01*
X0137627Y0023658D01*
Y0024374D01*
X0137353Y0025035D01*
X0136846Y0025542D01*
X0136185Y0025816D01*
D02*
G37*
G36*
X0184877Y0025146D02*
X0184160D01*
X0183499Y0024872D01*
X0182993Y0024365D01*
X0182719Y0023704D01*
Y0022988D01*
X0182993Y0022326D01*
X0183499Y0021820D01*
X0184160Y0021546D01*
X0184877D01*
X0185538Y0021820D01*
X0186045Y0022326D01*
X0186319Y0022988D01*
Y0023704D01*
X0186045Y0024365D01*
X0185538Y0024872D01*
X0184877Y0025146D01*
D02*
G37*
G36*
X0136283Y0015186D02*
X0135567D01*
X0134906Y0014912D01*
X0134399Y0014405D01*
X0134125Y0013744D01*
Y0013028D01*
X0134399Y0012366D01*
X0134906Y0011860D01*
X0135567Y0011586D01*
X0136283D01*
X0136945Y0011860D01*
X0137451Y0012366D01*
X0137725Y0013028D01*
Y0013744D01*
X0137451Y0014405D01*
X0136945Y0014912D01*
X0136283Y0015186D01*
D02*
G37*
G36*
X0143203Y0009301D02*
X0142487D01*
X0141825Y0009027D01*
X0141319Y0008520D01*
X0141045Y0007859D01*
Y0007143D01*
X0141319Y0006481D01*
X0141825Y0005975D01*
X0142487Y0005701D01*
X0143203D01*
X0143865Y0005975D01*
X0144371Y0006481D01*
X0144645Y0007143D01*
Y0007859D01*
X0144371Y0008520D01*
X0143865Y0009027D01*
X0143203Y0009301D01*
D02*
G37*
G36*
X0138282D02*
X0137566D01*
X0136904Y0009027D01*
X0136398Y0008520D01*
X0136124Y0007859D01*
Y0007143D01*
X0136398Y0006481D01*
X0136904Y0005975D01*
X0137566Y0005701D01*
X0138282D01*
X0138943Y0005975D01*
X0139450Y0006481D01*
X0139724Y0007143D01*
Y0007859D01*
X0139450Y0008520D01*
X0138943Y0009027D01*
X0138282Y0009301D01*
D02*
G37*
G36*
X0128705Y0061150D02*
X0127988D01*
X0127327Y0060876D01*
X0126821Y0060370D01*
X0126547Y0059708D01*
Y0058992D01*
X0126821Y0058331D01*
X0127327Y0057824D01*
X0127988Y0057550D01*
X0128705D01*
X0129366Y0057824D01*
X0129872Y0058331D01*
X0130147Y0058992D01*
Y0059708D01*
X0129872Y0060370D01*
X0129366Y0060876D01*
X0128705Y0061150D01*
D02*
G37*
G36*
X0094256D02*
X0093540D01*
X0092878Y0060876D01*
X0092372Y0060370D01*
X0092098Y0059708D01*
Y0058992D01*
X0092372Y0058331D01*
X0092878Y0057824D01*
X0093540Y0057550D01*
X0094256D01*
X0094917Y0057824D01*
X0095424Y0058331D01*
X0095698Y0058992D01*
Y0059708D01*
X0095424Y0060370D01*
X0094917Y0060876D01*
X0094256Y0061150D01*
D02*
G37*
G36*
X0060673Y0056721D02*
X0059957D01*
X0059295Y0056447D01*
X0058789Y0055941D01*
X0058515Y0055279D01*
Y0054563D01*
X0058789Y0053902D01*
X0059295Y0053395D01*
X0059957Y0053121D01*
X0060673D01*
X0061335Y0053395D01*
X0061841Y0053902D01*
X0062115Y0054563D01*
Y0055279D01*
X0061841Y0055941D01*
X0061335Y0056447D01*
X0060673Y0056721D01*
D02*
G37*
G36*
X0094945Y0056721D02*
X0094229D01*
X0093567Y0056447D01*
X0093061Y0055941D01*
X0092787Y0055279D01*
Y0054563D01*
X0093061Y0053902D01*
X0093567Y0053395D01*
X0094229Y0053121D01*
X0094945D01*
X0095606Y0053395D01*
X0096113Y0053902D01*
X0096387Y0054563D01*
Y0055279D01*
X0096113Y0055941D01*
X0095606Y0056447D01*
X0094945Y0056721D01*
D02*
G37*
G36*
X0019046Y0045974D02*
X0018905D01*
Y0039968D01*
X0024911D01*
Y0040109D01*
X0024661Y0041366D01*
X0024171Y0042550D01*
X0023459Y0043615D01*
X0022553Y0044522D01*
X0021487Y0045234D01*
X0020303Y0045724D01*
X0019046Y0045974D01*
D02*
G37*
G36*
X0017906D02*
X0017765D01*
X0016508Y0045724D01*
X0015324Y0045234D01*
X0014258Y0044522D01*
X0013352Y0043615D01*
X0012640Y0042550D01*
X0012150Y0041366D01*
X0011900Y0040109D01*
Y0039968D01*
X0017906D01*
Y0045974D01*
D02*
G37*
G36*
X0024911Y0038969D02*
X0018905D01*
Y0032963D01*
X0019046D01*
X0020303Y0033213D01*
X0021487Y0033703D01*
X0022553Y0034415D01*
X0023459Y0035322D01*
X0024171Y0036387D01*
X0024661Y0037571D01*
X0024911Y0038828D01*
Y0038969D01*
D02*
G37*
G36*
X0017906D02*
X0011900D01*
Y0038828D01*
X0012150Y0037571D01*
X0012640Y0036387D01*
X0013352Y0035322D01*
X0014258Y0034415D01*
X0015324Y0033703D01*
X0016508Y0033213D01*
X0017765Y0032963D01*
X0017906D01*
Y0038969D01*
D02*
G37*
G36*
X0049764Y0029445D02*
X0048464D01*
X0047209Y0029108D01*
X0046083Y0028458D01*
X0045164Y0027539D01*
X0044514Y0026414D01*
X0044177Y0025158D01*
Y0023858D01*
X0044514Y0022602D01*
X0045164Y0021476D01*
X0046083Y0020557D01*
X0047209Y0019907D01*
X0048464Y0019571D01*
X0049764D01*
X0051020Y0019907D01*
X0052146Y0020557D01*
X0053065Y0021476D01*
X0053715Y0022602D01*
X0054051Y0023858D01*
Y0025158D01*
X0053715Y0026414D01*
X0053065Y0027539D01*
X0052146Y0028458D01*
X0051020Y0029108D01*
X0049764Y0029445D01*
D02*
G37*
G36*
X0019046Y0016053D02*
X0018905D01*
Y0010047D01*
X0024911D01*
Y0010188D01*
X0024661Y0011445D01*
X0024171Y0012629D01*
X0023459Y0013694D01*
X0022553Y0014600D01*
X0021487Y0015312D01*
X0020303Y0015803D01*
X0019046Y0016053D01*
D02*
G37*
G36*
X0017906D02*
X0017765D01*
X0016508Y0015803D01*
X0015324Y0015312D01*
X0014258Y0014600D01*
X0013352Y0013694D01*
X0012640Y0012629D01*
X0012150Y0011445D01*
X0011900Y0010188D01*
Y0010047D01*
X0017906D01*
Y0016053D01*
D02*
G37*
G36*
X0024911Y0009047D02*
X0018905D01*
Y0003042D01*
X0019046D01*
X0020303Y0003292D01*
X0021487Y0003782D01*
X0022553Y0004494D01*
X0023459Y0005400D01*
X0024171Y0006466D01*
X0024661Y0007650D01*
X0024911Y0008907D01*
Y0009047D01*
D02*
G37*
G36*
X0017906D02*
X0011900D01*
Y0008907D01*
X0012150Y0007650D01*
X0012640Y0006466D01*
X0013352Y0005400D01*
X0014258Y0004494D01*
X0015324Y0003782D01*
X0016508Y0003292D01*
X0017765Y0003042D01*
X0017906D01*
Y0009047D01*
D02*
G37*
%LPD*%
D97*
X0144773Y0043661D02*
X0151141D01*
X0152657Y0045177D01*
Y0046752D01*
D107*
X0018406Y0009547D02*
D03*
Y0039469D02*
D03*
D110*
X0296424Y0006465D02*
D03*
X0306424D02*
D03*
X0316378Y0006417D02*
D03*
D112*
X0179331Y0023327D02*
D03*
X0147835Y0024606D02*
D03*
X0153051Y0031398D02*
D03*
X0072441Y0013287D02*
D03*
X0070079Y0013287D02*
D03*
X0074803Y0013287D02*
D03*
X0067716D02*
D03*
X0068504Y0072244D02*
D03*
Y0074213D02*
D03*
X0070472Y0076083D02*
D03*
X0072441D02*
D03*
X0072835Y0046654D02*
D03*
X0115157Y0046555D02*
D03*
X0119587Y0064468D02*
D03*
X0122047Y0066732D02*
D03*
X0123622Y0070472D02*
D03*
Y0074213D02*
D03*
X0125099Y0072342D02*
D03*
X0126575Y0070472D02*
D03*
Y0074213D02*
D03*
X0279429Y0075886D02*
D03*
X0129774Y0021959D02*
D03*
X0261024Y0034646D02*
D03*
X0190059Y0079528D02*
D03*
X0187008D02*
D03*
X0158957Y0061811D02*
D03*
X0306693Y0037499D02*
D03*
X0164272Y0011319D02*
D03*
X0053150Y0034252D02*
D03*
X0050197Y0031299D02*
D03*
X0248917Y0045571D02*
D03*
X0248917Y0068405D02*
D03*
X0252264Y0036811D02*
D03*
X0339469Y0037106D02*
D03*
X0342323Y0037008D02*
D03*
X0345079D02*
D03*
X0152657Y0046752D02*
D03*
X0147736Y0075787D02*
D03*
X0149902Y0046063D02*
D03*
X0147586Y0046110D02*
D03*
X0151575Y0048720D02*
D03*
X0158858Y0074311D02*
D03*
X0158672Y0070108D02*
D03*
X0140847Y0012697D02*
D03*
X0142462Y0071149D02*
D03*
X0138484Y0075411D02*
D03*
X0142421Y0075492D02*
D03*
X0056890Y0007480D02*
D03*
X0062008D02*
D03*
X0056890Y0013386D02*
D03*
Y0019291D02*
D03*
Y0025197D02*
D03*
X0114302Y0007501D02*
D03*
X0109380D02*
D03*
X0119223D02*
D03*
X0085758D02*
D03*
X0090680D02*
D03*
X0095601D02*
D03*
X0056882Y0073643D02*
D03*
X0067118Y0079548D02*
D03*
X0072236D02*
D03*
X0056882D02*
D03*
X0062000D02*
D03*
X0114291Y0079528D02*
D03*
X0119213D02*
D03*
X0109370D02*
D03*
X0085748D02*
D03*
X0090669D02*
D03*
X0095591D02*
D03*
X0056890Y0038583D02*
D03*
Y0043504D02*
D03*
Y0048425D02*
D03*
X0190650Y0042126D02*
D03*
X0180709Y0031102D02*
D03*
X0192348Y0005118D02*
D03*
X0195473D02*
D03*
X0185236Y0032087D02*
D03*
X0067126Y0007480D02*
D03*
X0049008Y0079548D02*
D03*
X0033260D02*
D03*
X0041134D02*
D03*
X0240536Y0036629D02*
D03*
X0309213Y0039961D02*
D03*
X0296555Y0075985D02*
D03*
X0317028Y0045591D02*
D03*
X0314546Y0043110D02*
D03*
X0317028Y0040629D02*
D03*
X0003937Y0070866D02*
D03*
Y0062992D02*
D03*
Y0055118D02*
D03*
Y0047244D02*
D03*
Y0039370D02*
D03*
Y0031496D02*
D03*
Y0023622D02*
D03*
Y0015748D02*
D03*
Y0007874D02*
D03*
X0056882Y0061832D02*
D03*
Y0067737D02*
D03*
X0072244Y0007480D02*
D03*
M02*
