M48
;Layer_Color=9474304
;FILE_FORMAT=2:4
INCH
;TYPE=PLATED
T1F00S00C0.0100
T2F00S00C0.0354
T3F00S00C0.0394
T4F00S00C0.0709
T5F00S00C0.1260
;TYPE=NON_PLATED
T6F00S00C0.0591
T7F00S00C0.1252
%
T01
X003327Y003409
X004055Y003248
X004606Y002894
X003642Y004567
X003287Y004541
X005615Y005681
Y006469
Y007256
X006206Y007138
X006580Y006075
X006403Y005681
X007190
X008607
X009395
X010970
X011757
X012520Y005669
X013332Y005681
X013161Y006213
X012820
X012426Y006626
X014059Y006204
X014119Y005681
X015517
X016304
X017092
Y006469
Y007256
X015340Y007217
Y006705
X014060Y007197
X017972Y002853
X018366Y002854
X018366Y002461
X018760
X020728Y002461
X020610Y003307
X020295Y003661
X020610Y003996
X023465Y004665
X024272Y005413
X025650Y005630
X025580Y007023
X026280Y007283
X026752Y007402
X026915Y007239
X027126Y007087
X027323Y007244
X027553
X027736Y007087
X027920Y007244
X028150
X028346Y007087
X028524Y007244
X028754
X028934Y007086
X029101Y007244
X029331
X029530Y007088
X029606Y004902
X030335
X030925Y004134
Y003228
X030906Y002520
X030315Y002382
X029626
X028760
X028071
X027165
X026496
X025453Y002402
X024508
X023346
X024272Y003720
X025689
X027323Y004114
X028031Y004902
X028858Y004114
X028926Y008480
X029517
X028336
X027745
X027155
X026558Y007559
X025580Y008480
X024193Y007579
X023425Y010256
X024409Y011220
X025020Y011201
Y011831
X024783
X024409Y012165
X024429Y012799
X023976Y012697
X023681
X023228
X025020Y012362
X025453Y012087
X025591Y011280
X025886
X025217Y013228
X026181Y013780
X026535Y014094
X026870Y013780
Y013110
X029409Y012697
X029130Y011315
X029567Y010945
X030256Y011319
Y011693
X031208Y011335
X031772Y011339
Y011693
X032185Y011319
Y010728
X033642
Y011122
Y011713
Y012106
X034521Y011926
Y011532
Y010941
Y013501
X032185Y013878
X032185Y014193
X032185Y014862
Y015846
Y016831
X032106Y017766
X031850Y017920
Y018150
X031585Y018266
X033110Y018071
X033386Y018091
X033548Y018253
X033602Y018543
X033260Y018807
X033065Y019406
X033661Y019783
X033465Y019980
X033661Y020177
X034547Y020394
X034921Y020007
X033642Y017815
X033681Y016850
X033509Y016659
X033346Y016496
X033169Y016299
X033642Y015846
X030512Y015748
X028543
X027559Y016732
X026575Y017717
X025591Y018701
X029449Y018839
X029724Y018760
X029887Y018922
X029843Y019193
X031122Y013760
Y012894
X031476Y012657
X032185Y012500
X032185Y012992
X022933Y012697
X021024Y012657
X020472Y012303
X019587Y012500
Y011319
Y010925
X020466Y010745
Y011138
X021043Y010925
Y011516
X021923Y011335
Y010745
X022736Y010256
X023071Y009941
X017530Y009908
X017283Y010321
Y010551
X017530Y010958
X017092Y011291
Y012079
Y012866
X017047Y013406
X017528Y013653
X018010Y013246
X018019Y014495
X017082Y014146
Y014934
Y015721
X017081Y017345
Y018132
X016609Y018182
X016353Y018437
X015920Y018634
X015579
X015349
X015015
X015172Y019382
X015763
X015468Y019678
X015763Y019973
X015172
X015245Y020906
X015463
X015507Y021331
X015103Y021713
X014873Y021980
X014623
X014109Y022610
X013322
X013321Y021349
X014108
X013947Y020886
X013450Y020367
X013620Y020170
X013450Y019264
X012795Y018912
X013046Y018595
X013041Y018170
X012254
X012247Y017303
X012638Y017310
X012653Y016951
X012298
X013032Y017310
X014050Y017335
Y015662
X014050Y014669
X014109Y014146
X013322
X013151Y014678
X012810
X012416Y015091
X011747Y014146
X010960
X010969Y012884
X011756
X012618Y013189
X013331Y012884
X014118
X013957Y012421
X013460Y011902
X013630Y011705
X013460Y010799
X012805Y010447
X013056Y010130
X013051Y009705
X012264
X012256Y008838
X012648Y008844
X012662Y008486
X012308
X013041Y008844
X014060Y008870
X015320Y008102
X015359Y010169
X015589
X015930
X016363Y009972
X016619Y009717
X017091Y009667
Y008880
X016417Y010728
X015773Y010917
X015182
Y011508
X015773
X015477Y011213
X014403Y011070
X015025Y010169
X015255Y012441
X015472
X015517Y012866
X015118Y013071
X014902Y013386
X014626
X015507Y014146
X016294
X016506Y013209
X016304Y012866
X015330Y015170
Y015682
X015310Y016567
X016407Y019193
X017274Y019016
Y018786
X017520Y018373
Y019423
X017082Y019756
Y020544
Y021331
X017274Y021851
Y022245
X017078Y022048
X017082Y022610
X016294
X015507
X016496Y021674
X016294Y021331
X014393Y019535
X012161Y020111
X011806
X011746Y021349
X010959
X010960Y022610
X011747
X012559Y021713
X009384Y021349
X009442Y020869
X009956Y020288
X010330Y019914
X010271Y019583
X010645Y019579
X010891Y019333
X009844Y018071
X011609Y017355
X009385Y014146
X008598
X008606Y012884
X009394
X009451Y012404
X009966Y011823
X010340Y011449
X010281Y011118
X010655Y011114
X010901Y010868
X011816Y011646
X012170
X011619Y008890
X009854Y009606
X008346Y011102
X008568Y012098
X007859Y012197
X007618Y013248
X008130
X007638Y013799
X008337Y019567
X008558Y020563
X007849Y020662
X008120Y021713
X008596Y021349
X008598Y022610
X009385
X007608Y022245
X019587Y019390
Y018406
Y017421
Y016850
Y016437
Y016043
Y015650
Y015276
Y014862
Y014468
Y014075
Y013701
X020472Y013878
X020466Y013501
X020472Y014272
Y014665
Y015079
X020466Y015469
X020472Y015846
Y016240
Y016634
Y017028
X021063Y016831
X021053Y017234
X021043Y016437
X021063Y016043
Y015650
Y015079
Y014665
X021923Y014485
X022049Y014862
X022047Y015256
X021923Y015469
X022047Y015827
X022047Y016240
Y016634
Y017028
X021923Y017438
X021043Y018406
X022638Y022638
X007180Y022610
X006393
X006570Y023004
X005605Y022610
Y021331
X006393
X007180
X007318Y020308
X007023
X006727
X006432
X006137
X005605Y020544
Y019756
X005600Y018132
Y017345
X005605Y015721
X006196Y015603
X005605Y014934
Y014146
X006393
X006570Y014540
X007180Y014146
X007190Y012866
X006403
X005615
Y012079
X006147Y011843
X006442
X006737
X007033
X007328
X005615Y011291
X005610Y009667
Y008880
X005605Y023398
Y024185
X006196Y024067
X005600Y025809
Y026596
X005605Y028220
Y029008
X006137Y028772
X006432
X006727
X007023
X007318
X007180Y029795
X006393
X005605
Y031075
Y031862
Y032650
X006196Y032532
X006570Y031469
X006393Y031075
X007180
X005600Y034274
Y035061
X005605Y036685
Y037472
X006137Y037236
X006432
X006727
X007023
X007318
X007180Y038260
X006393
X005605
X008130Y038602
X008596Y038277
X009384
X009442Y037797
X009956Y037217
X010330Y036843
X010271Y036512
X010645Y036508
X010891Y036262
X011806Y037039
X012161
X013620Y037098
X013450Y037295
X013947Y037815
X014108Y038277
X013321
X011746
X010959
X008558Y037492
X007849Y037591
X008337Y036496
X009844Y035000
X011609Y034283
X012247Y034231
X012638Y034238
X012653Y033880
X012298
X013032Y034238
X013041Y035098
X013046Y035524
X012795Y035841
X013450Y036193
X014393Y036463
X015172Y036311
X015763
X015468Y036606
X015763Y036902
X015172
X015245Y037835
X015463
X015507Y038260
X016294
X016496Y038602
X017234Y038690
X017082Y038260
Y037472
Y036685
X017520Y036351
X017274Y035945
Y035715
X017520Y035302
X017081Y035061
X016609Y035110
X016353Y035366
X015920Y035563
X015579
X015349
X015015
X016407Y036122
X017081Y034274
X017082Y032650
Y031862
Y031075
X017343Y030709
Y030315
X017146Y030512
X017082Y029795
Y029008
Y028220
X017520Y027887
X017274Y027480
Y027250
X017520Y026838
X017081Y026596
X016609Y026646
X016353Y026902
X015920Y027098
X015579
X015349
X015015
X015172Y027846
X015763
X015468Y028142
X015763Y028437
X015172
X015245Y029370
X015463
X015507Y029795
X015157Y030157
X014941Y030444
X014665
X014109Y031075
X014050Y031598
X013151Y031606
X012810
X012416Y032020
X011747Y031075
X010960
X010959Y029813
X011746
X012539Y030177
X013321Y029813
X014108
X013947Y029350
X013450Y028831
X013620Y028634
X013450Y027728
X012795Y027376
X013046Y027059
X013041Y026634
X012254
X012247Y025767
X012638Y025774
X012653Y025415
X012298
X013032Y025774
X014050Y025799
Y024126
X014050Y023133
X013151Y023142
X012810
X012416Y023555
X015330Y023634
Y024146
X015310Y025032
X017081Y025809
X017082Y024185
Y023398
X016407Y027657
X016294Y029795
X016496Y030138
X016294Y031075
X015507
X015330Y032098
Y032610
X015310Y033496
X014050Y034264
Y032591
X013322Y031075
X012161Y028575
X011806
X010330Y028378
X010271Y028047
X010645Y028043
X010891Y027797
X009956Y028752
X009442Y029333
X009384Y029813
X008596
X008558Y029028
X007849Y029126
X008120Y030177
X007608Y030709
X008598Y031075
X009385
X008337Y028031
X009844Y026535
X011609Y025819
X014393Y027999
X021634Y027972
X021634Y027618
X021851Y026889
X022176Y027184
X022528Y027172
X022539Y027854
X022933
X022717Y026220
X023051Y025906
X022618Y032598
X021614Y034272
Y034626
Y035000
Y035374
X021673Y036220
Y036575
X020079Y036614
X018898Y037795
X022972Y037087
X020374Y031890
X019587Y031240
X018799Y031890
X012254Y035098
X014646Y038602
X025658Y036800
X025265Y036099
X025925Y035492
X026575Y035236
Y034154
X025925Y033917
X024902Y033661
X024532Y033655
X024055Y034409
X024996Y035012
X027697Y035059
X027776Y035925
X028406Y035650
X028386Y036890
X028681
X028996
X029310Y036879
X029646Y037480
X030492Y037402
X030768Y037126
X031447Y037128
X031459Y037480
X031161Y037717
X032146Y037146
Y036732
Y036299
Y035709
X031260Y035650
X030492Y036240
X030118Y036594
X029646Y036220
X029129Y038064
X027581Y037697
X027224Y037087
X027697Y033976
X027343Y032598
X026575Y031890
Y030591
X026538Y029469
X025945Y028925
X025551
X025559Y029820
X025166Y029820
X025000Y030591
Y031890
X025768Y031240
Y032598
X024193
Y031240
X023425Y030591
X023406Y029665
X023917
X024488Y029291
Y028780
X024134Y028784
X024193Y028484
X024176Y027556
X025020Y027559
X025224Y027795
X025472Y027559
X026105Y027776
X027163Y027874
Y028465
X027753
X028344
Y027874
X027753
X027753Y027283
X027163
X028344
X029373Y027776
Y028110
X029371Y028359
X030247Y028070
Y027677
X030854Y027861
X030613Y028465
Y028819
X030846Y029429
X030247Y029350
Y029744
X030247Y030137
X029370Y030138
X029646Y030413
X028583Y030098
X028839Y031594
X028012Y031339
X031496Y030059
X032106Y029606
X032854Y029547
X033091Y030059
X033465Y030512
Y031496
Y032480
Y033465
Y034449
Y035433
X033425Y035827
Y036220
X033622Y036024
X033721Y037659
X033976Y038012
X033366Y029232
X032854Y028720
Y027717
X032106Y027303
X031060Y026909
X031122Y026083
X034075Y026772
X034494Y026747
X034488Y026358
X035039Y026319
Y027677
X034213Y027421
X034331Y028586
X034685
X033681Y028346
X024771Y027835
X024843Y026476
X023661Y026713
X023406Y026220
X023327Y027697
Y028031
X023622Y024606
X023425Y031890
X023622Y039272
X024606
X025591
X026575
X027559
X028543
X029528
X030512
X031496
X032480
X033465
X022638
X021654
X020669
X017234Y039084
X017037Y038887
X014833Y038819
X014468Y039272
X012874
X007620Y039096
T02
X001083Y002421
X002083
X023346Y016437
Y017437
Y018437
Y019437
Y020437
Y021437
T03
X030981Y007745
X033806Y009664
Y021455
X021207
Y009664
X023127Y007745
X004911Y007579
Y016102
Y024626
Y033150
T04
X001841Y006083
Y009075
Y014606
Y017598
Y023130
Y026122
Y031654
Y034646
T05
X020361Y006898
X033747Y006898
X020361Y024221
X033747
T06
X023708Y006957
X030401
X033019Y010244
Y020874
X020420
Y010244
T07
X001201Y038799
M30
