G04 #@! TF.FileFunction,Paste,Top*
%FSLAX46Y46*%
G04 Gerber Fmt 4.6, Leading zero omitted, Abs format (unit mm)*
G04 Created by KiCad (PCBNEW 4.0.7) date 07/13/18 19:56:19*
%MOMM*%
%LPD*%
G01*
G04 APERTURE LIST*
%ADD10C,0.100000*%
%ADD11R,0.400000X2.100000*%
%ADD12R,0.500000X0.600000*%
%ADD13R,0.800000X0.750000*%
%ADD14R,0.600000X0.500000*%
%ADD15R,0.750000X0.800000*%
%ADD16R,1.800000X1.300000*%
%ADD17R,3.600000X1.500000*%
%ADD18R,0.400000X0.600000*%
%ADD19R,0.600000X0.400000*%
%ADD20R,1.500000X0.900000*%
%ADD21R,0.600000X0.350000*%
%ADD22R,1.100000X0.600000*%
G04 APERTURE END LIST*
D10*
G36*
X152649537Y-93842673D02*
X153144511Y-94337647D01*
X152946521Y-94535637D01*
X152451547Y-94040663D01*
X152649537Y-93842673D01*
X152649537Y-93842673D01*
G37*
G36*
X152295983Y-94196226D02*
X152790957Y-94691200D01*
X152592967Y-94889190D01*
X152097993Y-94394216D01*
X152295983Y-94196226D01*
X152295983Y-94196226D01*
G37*
G36*
X151942430Y-94549780D02*
X152437404Y-95044754D01*
X152239414Y-95242744D01*
X151744440Y-94747770D01*
X151942430Y-94549780D01*
X151942430Y-94549780D01*
G37*
G36*
X151588877Y-94903333D02*
X152083851Y-95398307D01*
X151885861Y-95596297D01*
X151390887Y-95101323D01*
X151588877Y-94903333D01*
X151588877Y-94903333D01*
G37*
G36*
X151235323Y-95256887D02*
X151730297Y-95751861D01*
X151532307Y-95949851D01*
X151037333Y-95454877D01*
X151235323Y-95256887D01*
X151235323Y-95256887D01*
G37*
G36*
X150881770Y-95610440D02*
X151376744Y-96105414D01*
X151178754Y-96303404D01*
X150683780Y-95808430D01*
X150881770Y-95610440D01*
X150881770Y-95610440D01*
G37*
G36*
X150528216Y-95963993D02*
X151023190Y-96458967D01*
X150825200Y-96656957D01*
X150330226Y-96161983D01*
X150528216Y-95963993D01*
X150528216Y-95963993D01*
G37*
G36*
X150174663Y-96317547D02*
X150669637Y-96812521D01*
X150471647Y-97010511D01*
X149976673Y-96515537D01*
X150174663Y-96317547D01*
X150174663Y-96317547D01*
G37*
G36*
X146773479Y-92916363D02*
X147268453Y-93411337D01*
X147070463Y-93609327D01*
X146575489Y-93114353D01*
X146773479Y-92916363D01*
X146773479Y-92916363D01*
G37*
G36*
X147127033Y-92562810D02*
X147622007Y-93057784D01*
X147424017Y-93255774D01*
X146929043Y-92760800D01*
X147127033Y-92562810D01*
X147127033Y-92562810D01*
G37*
G36*
X147480586Y-92209256D02*
X147975560Y-92704230D01*
X147777570Y-92902220D01*
X147282596Y-92407246D01*
X147480586Y-92209256D01*
X147480586Y-92209256D01*
G37*
G36*
X147834139Y-91855703D02*
X148329113Y-92350677D01*
X148131123Y-92548667D01*
X147636149Y-92053693D01*
X147834139Y-91855703D01*
X147834139Y-91855703D01*
G37*
G36*
X148187693Y-91502149D02*
X148682667Y-91997123D01*
X148484677Y-92195113D01*
X147989703Y-91700139D01*
X148187693Y-91502149D01*
X148187693Y-91502149D01*
G37*
G36*
X148541246Y-91148596D02*
X149036220Y-91643570D01*
X148838230Y-91841560D01*
X148343256Y-91346586D01*
X148541246Y-91148596D01*
X148541246Y-91148596D01*
G37*
G36*
X148894800Y-90795043D02*
X149389774Y-91290017D01*
X149191784Y-91488007D01*
X148696810Y-90993033D01*
X148894800Y-90795043D01*
X148894800Y-90795043D01*
G37*
G36*
X149743327Y-96515537D02*
X149248353Y-97010511D01*
X149050363Y-96812521D01*
X149545337Y-96317547D01*
X149743327Y-96515537D01*
X149743327Y-96515537D01*
G37*
G36*
X149389774Y-96161983D02*
X148894800Y-96656957D01*
X148696810Y-96458967D01*
X149191784Y-95963993D01*
X149389774Y-96161983D01*
X149389774Y-96161983D01*
G37*
G36*
X149036220Y-95808430D02*
X148541246Y-96303404D01*
X148343256Y-96105414D01*
X148838230Y-95610440D01*
X149036220Y-95808430D01*
X149036220Y-95808430D01*
G37*
G36*
X148682667Y-95454877D02*
X148187693Y-95949851D01*
X147989703Y-95751861D01*
X148484677Y-95256887D01*
X148682667Y-95454877D01*
X148682667Y-95454877D01*
G37*
G36*
X148329113Y-95101323D02*
X147834139Y-95596297D01*
X147636149Y-95398307D01*
X148131123Y-94903333D01*
X148329113Y-95101323D01*
X148329113Y-95101323D01*
G37*
G36*
X147975560Y-94747770D02*
X147480586Y-95242744D01*
X147282596Y-95044754D01*
X147777570Y-94549780D01*
X147975560Y-94747770D01*
X147975560Y-94747770D01*
G37*
G36*
X147622007Y-94394216D02*
X147127033Y-94889190D01*
X146929043Y-94691200D01*
X147424017Y-94196226D01*
X147622007Y-94394216D01*
X147622007Y-94394216D01*
G37*
G36*
X147268453Y-94040663D02*
X146773479Y-94535637D01*
X146575489Y-94337647D01*
X147070463Y-93842673D01*
X147268453Y-94040663D01*
X147268453Y-94040663D01*
G37*
G36*
X150669637Y-90639479D02*
X150174663Y-91134453D01*
X149976673Y-90936463D01*
X150471647Y-90441489D01*
X150669637Y-90639479D01*
X150669637Y-90639479D01*
G37*
G36*
X151023190Y-90993033D02*
X150528216Y-91488007D01*
X150330226Y-91290017D01*
X150825200Y-90795043D01*
X151023190Y-90993033D01*
X151023190Y-90993033D01*
G37*
G36*
X151376744Y-91346586D02*
X150881770Y-91841560D01*
X150683780Y-91643570D01*
X151178754Y-91148596D01*
X151376744Y-91346586D01*
X151376744Y-91346586D01*
G37*
G36*
X151730297Y-91700139D02*
X151235323Y-92195113D01*
X151037333Y-91997123D01*
X151532307Y-91502149D01*
X151730297Y-91700139D01*
X151730297Y-91700139D01*
G37*
G36*
X152083851Y-92053693D02*
X151588877Y-92548667D01*
X151390887Y-92350677D01*
X151885861Y-91855703D01*
X152083851Y-92053693D01*
X152083851Y-92053693D01*
G37*
G36*
X152437404Y-92407246D02*
X151942430Y-92902220D01*
X151744440Y-92704230D01*
X152239414Y-92209256D01*
X152437404Y-92407246D01*
X152437404Y-92407246D01*
G37*
G36*
X152790957Y-92760800D02*
X152295983Y-93255774D01*
X152097993Y-93057784D01*
X152592967Y-92562810D01*
X152790957Y-92760800D01*
X152790957Y-92760800D01*
G37*
G36*
X153144511Y-93114353D02*
X152649537Y-93609327D01*
X152451547Y-93411337D01*
X152946521Y-92916363D01*
X153144511Y-93114353D01*
X153144511Y-93114353D01*
G37*
G36*
X149248353Y-90441489D02*
X149743327Y-90936463D01*
X149545337Y-91134453D01*
X149050363Y-90639479D01*
X149248353Y-90441489D01*
X149248353Y-90441489D01*
G37*
G36*
X150284264Y-95536193D02*
X149860000Y-95960457D01*
X149435736Y-95536193D01*
X149860000Y-95111929D01*
X150284264Y-95536193D01*
X150284264Y-95536193D01*
G37*
G36*
X149683223Y-94935153D02*
X149258959Y-95359417D01*
X148834695Y-94935153D01*
X149258959Y-94510889D01*
X149683223Y-94935153D01*
X149683223Y-94935153D01*
G37*
G36*
X149082182Y-94334112D02*
X148657918Y-94758376D01*
X148233654Y-94334112D01*
X148657918Y-93909848D01*
X149082182Y-94334112D01*
X149082182Y-94334112D01*
G37*
G36*
X148481142Y-93733071D02*
X148056878Y-94157335D01*
X147632614Y-93733071D01*
X148056878Y-93308807D01*
X148481142Y-93733071D01*
X148481142Y-93733071D01*
G37*
G36*
X150885305Y-94935153D02*
X150461041Y-95359417D01*
X150036777Y-94935153D01*
X150461041Y-94510889D01*
X150885305Y-94935153D01*
X150885305Y-94935153D01*
G37*
G36*
X150284264Y-94334112D02*
X149860000Y-94758376D01*
X149435736Y-94334112D01*
X149860000Y-93909848D01*
X150284264Y-94334112D01*
X150284264Y-94334112D01*
G37*
G36*
X149683223Y-93733071D02*
X149258959Y-94157335D01*
X148834695Y-93733071D01*
X149258959Y-93308807D01*
X149683223Y-93733071D01*
X149683223Y-93733071D01*
G37*
G36*
X149082182Y-93132030D02*
X148657918Y-93556294D01*
X148233654Y-93132030D01*
X148657918Y-92707766D01*
X149082182Y-93132030D01*
X149082182Y-93132030D01*
G37*
G36*
X151486346Y-94334112D02*
X151062082Y-94758376D01*
X150637818Y-94334112D01*
X151062082Y-93909848D01*
X151486346Y-94334112D01*
X151486346Y-94334112D01*
G37*
G36*
X150885305Y-93733071D02*
X150461041Y-94157335D01*
X150036777Y-93733071D01*
X150461041Y-93308807D01*
X150885305Y-93733071D01*
X150885305Y-93733071D01*
G37*
G36*
X150284264Y-93132030D02*
X149860000Y-93556294D01*
X149435736Y-93132030D01*
X149860000Y-92707766D01*
X150284264Y-93132030D01*
X150284264Y-93132030D01*
G37*
G36*
X149683223Y-92530990D02*
X149258959Y-92955254D01*
X148834695Y-92530990D01*
X149258959Y-92106726D01*
X149683223Y-92530990D01*
X149683223Y-92530990D01*
G37*
G36*
X152087386Y-93733071D02*
X151663122Y-94157335D01*
X151238858Y-93733071D01*
X151663122Y-93308807D01*
X152087386Y-93733071D01*
X152087386Y-93733071D01*
G37*
G36*
X151486346Y-93132030D02*
X151062082Y-93556294D01*
X150637818Y-93132030D01*
X151062082Y-92707766D01*
X151486346Y-93132030D01*
X151486346Y-93132030D01*
G37*
G36*
X150885305Y-92530990D02*
X150461041Y-92955254D01*
X150036777Y-92530990D01*
X150461041Y-92106726D01*
X150885305Y-92530990D01*
X150885305Y-92530990D01*
G37*
G36*
X150284264Y-91929949D02*
X149860000Y-92354213D01*
X149435736Y-91929949D01*
X149860000Y-91505685D01*
X150284264Y-91929949D01*
X150284264Y-91929949D01*
G37*
D11*
X142260000Y-112628000D03*
X157460000Y-106303000D03*
X156660000Y-106328000D03*
X155860000Y-106328000D03*
X155060000Y-106328000D03*
X154260000Y-106328000D03*
X153460000Y-106328000D03*
X152660000Y-106328000D03*
X151860000Y-106328000D03*
X151060000Y-106328000D03*
X150260000Y-106328000D03*
X149460000Y-106328000D03*
X148660000Y-106328000D03*
X147860000Y-106328000D03*
X147060000Y-106328000D03*
X146260000Y-106328000D03*
X145460000Y-106328000D03*
X144660000Y-106328000D03*
X143860000Y-106328000D03*
X143060000Y-106328000D03*
X142260000Y-106328000D03*
X143060000Y-112628000D03*
X143860000Y-112628000D03*
X144660000Y-112628000D03*
X145460000Y-112628000D03*
X146260000Y-112628000D03*
X147060000Y-112628000D03*
X147860000Y-112628000D03*
X148660000Y-112628000D03*
X149460000Y-112628000D03*
X150260000Y-112628000D03*
X151060000Y-112628000D03*
X151860000Y-112628000D03*
X152660000Y-112628000D03*
X153460000Y-112628000D03*
X154260000Y-112628000D03*
X155060000Y-112628000D03*
X155860000Y-112628000D03*
X156660000Y-112628000D03*
X157460000Y-112628000D03*
X179050000Y-90572000D03*
X163850000Y-96897000D03*
X164650000Y-96872000D03*
X165450000Y-96872000D03*
X166250000Y-96872000D03*
X167050000Y-96872000D03*
X167850000Y-96872000D03*
X168650000Y-96872000D03*
X169450000Y-96872000D03*
X170250000Y-96872000D03*
X171050000Y-96872000D03*
X171850000Y-96872000D03*
X172650000Y-96872000D03*
X173450000Y-96872000D03*
X174250000Y-96872000D03*
X175050000Y-96872000D03*
X175850000Y-96872000D03*
X176650000Y-96872000D03*
X177450000Y-96872000D03*
X178250000Y-96872000D03*
X179050000Y-96872000D03*
X178250000Y-90572000D03*
X177450000Y-90572000D03*
X176650000Y-90572000D03*
X175850000Y-90572000D03*
X175050000Y-90572000D03*
X174250000Y-90572000D03*
X173450000Y-90572000D03*
X172650000Y-90572000D03*
X171850000Y-90572000D03*
X171050000Y-90572000D03*
X170250000Y-90572000D03*
X169450000Y-90572000D03*
X168650000Y-90572000D03*
X167850000Y-90572000D03*
X167050000Y-90572000D03*
X166250000Y-90572000D03*
X165450000Y-90572000D03*
X164650000Y-90572000D03*
X163850000Y-90572000D03*
X222230000Y-90572000D03*
X207030000Y-96897000D03*
X207830000Y-96872000D03*
X208630000Y-96872000D03*
X209430000Y-96872000D03*
X210230000Y-96872000D03*
X211030000Y-96872000D03*
X211830000Y-96872000D03*
X212630000Y-96872000D03*
X213430000Y-96872000D03*
X214230000Y-96872000D03*
X215030000Y-96872000D03*
X215830000Y-96872000D03*
X216630000Y-96872000D03*
X217430000Y-96872000D03*
X218230000Y-96872000D03*
X219030000Y-96872000D03*
X219830000Y-96872000D03*
X220630000Y-96872000D03*
X221430000Y-96872000D03*
X222230000Y-96872000D03*
X221430000Y-90572000D03*
X220630000Y-90572000D03*
X219830000Y-90572000D03*
X219030000Y-90572000D03*
X218230000Y-90572000D03*
X217430000Y-90572000D03*
X216630000Y-90572000D03*
X215830000Y-90572000D03*
X215030000Y-90572000D03*
X214230000Y-90572000D03*
X213430000Y-90572000D03*
X212630000Y-90572000D03*
X211830000Y-90572000D03*
X211030000Y-90572000D03*
X210230000Y-90572000D03*
X209430000Y-90572000D03*
X208630000Y-90572000D03*
X207830000Y-90572000D03*
X207030000Y-90572000D03*
D10*
G36*
X151808264Y-96504182D02*
X152161818Y-96857736D01*
X151737554Y-97282000D01*
X151384000Y-96928446D01*
X151808264Y-96504182D01*
X151808264Y-96504182D01*
G37*
G36*
X151030446Y-97282000D02*
X151384000Y-97635554D01*
X150959736Y-98059818D01*
X150606182Y-97706264D01*
X151030446Y-97282000D01*
X151030446Y-97282000D01*
G37*
D12*
X100457000Y-93811000D03*
X100457000Y-94911000D03*
D13*
X180836000Y-111887000D03*
X179336000Y-111887000D03*
D14*
X184700000Y-113538000D03*
X183600000Y-113538000D03*
D15*
X187579000Y-109613000D03*
X187579000Y-111113000D03*
X186309000Y-109613000D03*
X186309000Y-111113000D03*
D12*
X143637000Y-93176000D03*
X143637000Y-94276000D03*
X186817000Y-93811000D03*
X186817000Y-94911000D03*
X222758000Y-100923000D03*
X222758000Y-102023000D03*
D16*
X184531000Y-111228000D03*
X184531000Y-108228000D03*
D11*
X135870000Y-90572000D03*
X120670000Y-96897000D03*
X121470000Y-96872000D03*
X122270000Y-96872000D03*
X123070000Y-96872000D03*
X123870000Y-96872000D03*
X124670000Y-96872000D03*
X125470000Y-96872000D03*
X126270000Y-96872000D03*
X127070000Y-96872000D03*
X127870000Y-96872000D03*
X128670000Y-96872000D03*
X129470000Y-96872000D03*
X130270000Y-96872000D03*
X131070000Y-96872000D03*
X131870000Y-96872000D03*
X132670000Y-96872000D03*
X133470000Y-96872000D03*
X134270000Y-96872000D03*
X135070000Y-96872000D03*
X135870000Y-96872000D03*
X135070000Y-90572000D03*
X134270000Y-90572000D03*
X133470000Y-90572000D03*
X132670000Y-90572000D03*
X131870000Y-90572000D03*
X131070000Y-90572000D03*
X130270000Y-90572000D03*
X129470000Y-90572000D03*
X128670000Y-90572000D03*
X127870000Y-90572000D03*
X127070000Y-90572000D03*
X126270000Y-90572000D03*
X125470000Y-90572000D03*
X124670000Y-90572000D03*
X123870000Y-90572000D03*
X123070000Y-90572000D03*
X122270000Y-90572000D03*
X121470000Y-90572000D03*
X120670000Y-90572000D03*
X92690000Y-90572000D03*
X77490000Y-96897000D03*
X78290000Y-96872000D03*
X79090000Y-96872000D03*
X79890000Y-96872000D03*
X80690000Y-96872000D03*
X81490000Y-96872000D03*
X82290000Y-96872000D03*
X83090000Y-96872000D03*
X83890000Y-96872000D03*
X84690000Y-96872000D03*
X85490000Y-96872000D03*
X86290000Y-96872000D03*
X87090000Y-96872000D03*
X87890000Y-96872000D03*
X88690000Y-96872000D03*
X89490000Y-96872000D03*
X90290000Y-96872000D03*
X91090000Y-96872000D03*
X91890000Y-96872000D03*
X92690000Y-96872000D03*
X91890000Y-90572000D03*
X91090000Y-90572000D03*
X90290000Y-90572000D03*
X89490000Y-90572000D03*
X88690000Y-90572000D03*
X87890000Y-90572000D03*
X87090000Y-90572000D03*
X86290000Y-90572000D03*
X85490000Y-90572000D03*
X84690000Y-90572000D03*
X83890000Y-90572000D03*
X83090000Y-90572000D03*
X82290000Y-90572000D03*
X81490000Y-90572000D03*
X80690000Y-90572000D03*
X79890000Y-90572000D03*
X79090000Y-90572000D03*
X78290000Y-90572000D03*
X77490000Y-90572000D03*
D17*
X177419000Y-107314000D03*
X177419000Y-110364000D03*
D10*
G36*
X152914513Y-98461751D02*
X152490249Y-98037487D01*
X152773091Y-97754645D01*
X153197355Y-98178909D01*
X152914513Y-98461751D01*
X152914513Y-98461751D01*
G37*
G36*
X153550909Y-97825355D02*
X153126645Y-97401091D01*
X153409487Y-97118249D01*
X153833751Y-97542513D01*
X153550909Y-97825355D01*
X153550909Y-97825355D01*
G37*
G36*
X154679487Y-95848249D02*
X155103751Y-96272513D01*
X154820909Y-96555355D01*
X154396645Y-96131091D01*
X154679487Y-95848249D01*
X154679487Y-95848249D01*
G37*
G36*
X154043091Y-96484645D02*
X154467355Y-96908909D01*
X154184513Y-97191751D01*
X153760249Y-96767487D01*
X154043091Y-96484645D01*
X154043091Y-96484645D01*
G37*
G36*
X153536487Y-94705249D02*
X153960751Y-95129513D01*
X153677909Y-95412355D01*
X153253645Y-94988091D01*
X153536487Y-94705249D01*
X153536487Y-94705249D01*
G37*
G36*
X152900091Y-95341645D02*
X153324355Y-95765909D01*
X153041513Y-96048751D01*
X152617249Y-95624487D01*
X152900091Y-95341645D01*
X152900091Y-95341645D01*
G37*
D18*
X184727000Y-112522000D03*
X183827000Y-112522000D03*
X182822000Y-111887000D03*
X181922000Y-111887000D03*
X100515000Y-92837000D03*
X101415000Y-92837000D03*
X143695000Y-92329000D03*
X144595000Y-92329000D03*
X90990000Y-99314000D03*
X91890000Y-99314000D03*
D19*
X101473000Y-93911000D03*
X101473000Y-94811000D03*
D18*
X134170000Y-99314000D03*
X135070000Y-99314000D03*
D19*
X144653000Y-93149000D03*
X144653000Y-94049000D03*
D18*
X186875000Y-92837000D03*
X187775000Y-92837000D03*
D19*
X223774000Y-99372000D03*
X223774000Y-100272000D03*
D18*
X177350000Y-99314000D03*
X178250000Y-99314000D03*
D19*
X187833000Y-93911000D03*
X187833000Y-94811000D03*
D18*
X220530000Y-99314000D03*
X221430000Y-99314000D03*
D19*
X223774000Y-101023000D03*
X223774000Y-101923000D03*
D20*
X181483000Y-110151000D03*
D21*
X180083000Y-108651000D03*
X180083000Y-109601000D03*
X180083000Y-110551000D03*
X182883000Y-110551000D03*
X182883000Y-109601000D03*
X182883000Y-108651000D03*
D20*
X181483000Y-109051000D03*
D13*
X145403000Y-95631000D03*
X143903000Y-95631000D03*
D15*
X147701000Y-98413000D03*
X147701000Y-96913000D03*
D22*
X146461000Y-96713000D03*
X146461000Y-98613000D03*
X143861000Y-98613000D03*
X143861000Y-97663000D03*
X143861000Y-96713000D03*
M02*
