M48
;Layer_Color=9474304
;FILE_FORMAT=2:4
INCH
;TYPE=PLATED
T01F00S00C0.0080
T02F00S00C0.0339
T03F00S00C0.0354
T04F00S00C0.0394
T05F00S00C0.0606
T06F00S00C0.0709
%
T01
X000394Y000787
Y001575
Y002362
Y003150
Y003937
Y004724
Y005512
Y006299
Y007087
X003326Y007955
X004113
X004901
X005688
X006200
X006712
X007224
X007244Y007608
X007047
X006850Y007421
Y007224
X005688Y007364
Y006774
Y006183
X006032Y005492
X005689Y004843
Y004350
Y003858
X005315Y003425
X005020Y003130
X005689Y002520
Y001929
Y001339
Y000748
X006201
X006713
X007224
X007244Y001329
X007008Y001329
X006772Y001329
X007480
X008576Y000750
X009068
X009560
X010938
X011430
X011922
X013300
X013792
X014284
X014085Y001270
X013593Y001339
X013583Y002402
X012977Y002196
X014783Y002461
X015069
X015305Y003140
X016260
X017175Y002913
X017171Y002520
Y001929
X016801Y002018
Y001732
X017171Y001339
Y000748
X016659
X016147
X016161Y001132
X016427
X015778Y001150
X015423
X014970Y001280
X015636Y000748
X019114Y001053
X019235Y000512
X019547
X019094Y002087
X018452Y002335
X017933Y002333
X018071Y003110
X018524Y003209
X019054Y003188
X019065Y004213
X019429Y004212
X018738Y004634
X018508Y004636
X018278
X018258Y005305
X018652
Y005699
X018258
Y006093
X018652Y006093
X019045Y006093
Y005699
X019220Y006716
X019227Y007118
X019203Y007490
X019006Y007953
X018701
X018455Y007955
X017958Y007955
X017677Y007549
Y007175
X017701Y006690
X017170Y006774
X016742Y006713
X016668Y007016
X016663Y007411
X016659Y007955
X017170
Y007364
X015886Y007431
X015640Y007561
X015635Y007955
X016147
X015867Y007011
X015896Y006181
X015305Y006043
Y006516
X014833
X015069Y006280
X014833Y006043
X014518Y005532
X013780Y005541
X012835Y005935
X012657Y007047
X012362
X012510Y007234
X012657Y007421
X012362
X012205Y006673
X011959Y006447
X011921Y007953
X011429
X010937
X009559
X009067
X008575
X009390Y005935
X009459Y005492
X010630Y003533
X011053
Y003120
X009636Y002215
X008858Y002234
X014035Y004341
X014488Y004124
X014547Y004606
X014759Y004611
X014990Y004606
X015266Y004675
X015157Y004872
X015169Y005410
X015630Y005413
X015876Y005010
X016122Y004980
X016463Y004974
X016703Y005719
X017628Y005600
X017657Y005285
X017913Y005020
X017657Y006112
X017169Y004350
Y003858
Y003543
X019941Y005187
X019931Y006722
X020522
X021703
X022293
X022352Y007343
X022682Y007955
X021895
X021107
X020320
X019533
X014774Y007579
X014547Y007579
X014242Y007549
X013848Y007541
X013452Y007510
Y007116
X014246Y007115
X014283Y007953
X013791
X013299
X023470Y007955
X024257
X025044
X024843Y007411
X024892Y006841
X025226Y006634
X023740Y006437
X023484Y006240
X023228Y007244
X023996
X025832Y007955
X026619
X027407
X027555Y007587
X027195Y007579
X027943Y007589
X028307Y007579
X028194Y007955
X028981
X029528Y007953
X029656Y007599
X029291Y007599
X030158Y007158
X030315Y007953
X031102
X031890
X032677
X033465
X034252
X035039
X035827
X036614
X037402
X038189
X036467Y005994
Y005784
Y005574
Y005364
X036919Y005266
Y004528
X037114Y004221
X037530Y004222
X037795Y004488
X035063Y004419
X035329Y004154
X034508Y003701
X034232
X033947Y003711
X033760Y004421
X033504
X033947Y005039
Y005394
X034301Y005217
X034656Y005039
Y005394
X034596Y006043
X034941Y006250
Y006506
X033583Y006378
Y006811
X032961Y006368
X032618Y006685
X032343Y006112
X032303Y005807
Y005581
Y005354
X032343Y005049
Y004547
Y004331
X031703Y004559
Y004862
Y004063
X031455Y004311
X030921Y003996
X030669Y003750
X030305Y003750
X031136Y005876
X031447Y006203
X031717Y006368
X027559Y006083
X027549Y005030
X025591Y004921
X025315
X024892Y004557
X024508Y004902
X023228
X023689Y003670
X024054Y003663
X025226Y003681
X025589
X025758Y003465
X025817Y004124
T02
X038248Y002598
Y003386
T03
X029642Y000646
Y001642
X030642
Y000646
X031638Y000642
Y001642
X032638
Y000642
X033638
X034638
X035638
Y001642
X034638
X033638
T04
X004911Y002451
T05
X020535Y000575
X022535
Y002575
X020535
X021535Y001575
X024472Y000575
X026472
Y002575
X024472
X025472Y001575
T06
X001841Y000955
Y003947
M30
