G04*
G04 #@! TF.GenerationSoftware,Altium Limited,Altium Designer,19.1.8 (144)*
G04*
G04 Layer_Color=8388736*
%FSLAX25Y25*%
%MOIN*%
G70*
G01*
G75*
G04:AMPARAMS|DCode=18|XSize=23.62mil|YSize=23.62mil|CornerRadius=5.91mil|HoleSize=0mil|Usage=FLASHONLY|Rotation=90.000|XOffset=0mil|YOffset=0mil|HoleType=Round|Shape=RoundedRectangle|*
%AMROUNDEDRECTD18*
21,1,0.02362,0.01181,0,0,90.0*
21,1,0.01181,0.02362,0,0,90.0*
1,1,0.01181,0.00591,0.00591*
1,1,0.01181,0.00591,-0.00591*
1,1,0.01181,-0.00591,-0.00591*
1,1,0.01181,-0.00591,0.00591*
%
%ADD18ROUNDEDRECTD18*%
G04:AMPARAMS|DCode=19|XSize=25.2mil|YSize=25.2mil|CornerRadius=6.3mil|HoleSize=0mil|Usage=FLASHONLY|Rotation=180.000|XOffset=0mil|YOffset=0mil|HoleType=Round|Shape=RoundedRectangle|*
%AMROUNDEDRECTD19*
21,1,0.02520,0.01260,0,0,180.0*
21,1,0.01260,0.02520,0,0,180.0*
1,1,0.01260,-0.00630,0.00630*
1,1,0.01260,0.00630,0.00630*
1,1,0.01260,0.00630,-0.00630*
1,1,0.01260,-0.00630,-0.00630*
%
%ADD19ROUNDEDRECTD19*%
G04:AMPARAMS|DCode=20|XSize=37.4mil|YSize=41.34mil|CornerRadius=9.35mil|HoleSize=0mil|Usage=FLASHONLY|Rotation=180.000|XOffset=0mil|YOffset=0mil|HoleType=Round|Shape=RoundedRectangle|*
%AMROUNDEDRECTD20*
21,1,0.03740,0.02264,0,0,180.0*
21,1,0.01870,0.04134,0,0,180.0*
1,1,0.01870,-0.00935,0.01132*
1,1,0.01870,0.00935,0.01132*
1,1,0.01870,0.00935,-0.01132*
1,1,0.01870,-0.00935,-0.01132*
%
%ADD20ROUNDEDRECTD20*%
G04:AMPARAMS|DCode=21|XSize=23.62mil|YSize=39.37mil|CornerRadius=5.91mil|HoleSize=0mil|Usage=FLASHONLY|Rotation=270.000|XOffset=0mil|YOffset=0mil|HoleType=Round|Shape=RoundedRectangle|*
%AMROUNDEDRECTD21*
21,1,0.02362,0.02756,0,0,270.0*
21,1,0.01181,0.03937,0,0,270.0*
1,1,0.01181,-0.01378,-0.00591*
1,1,0.01181,-0.01378,0.00591*
1,1,0.01181,0.01378,0.00591*
1,1,0.01181,0.01378,-0.00591*
%
%ADD21ROUNDEDRECTD21*%
%ADD22O,0.05709X0.02362*%
G04:AMPARAMS|DCode=23|XSize=25.2mil|YSize=25.2mil|CornerRadius=6.3mil|HoleSize=0mil|Usage=FLASHONLY|Rotation=90.000|XOffset=0mil|YOffset=0mil|HoleType=Round|Shape=RoundedRectangle|*
%AMROUNDEDRECTD23*
21,1,0.02520,0.01260,0,0,90.0*
21,1,0.01260,0.02520,0,0,90.0*
1,1,0.01260,0.00630,0.00630*
1,1,0.01260,0.00630,-0.00630*
1,1,0.01260,-0.00630,-0.00630*
1,1,0.01260,-0.00630,0.00630*
%
%ADD23ROUNDEDRECTD23*%
G04:AMPARAMS|DCode=24|XSize=149.61mil|YSize=79.92mil|CornerRadius=4mil|HoleSize=0mil|Usage=FLASHONLY|Rotation=180.000|XOffset=0mil|YOffset=0mil|HoleType=Round|Shape=RoundedRectangle|*
%AMROUNDEDRECTD24*
21,1,0.14961,0.07193,0,0,180.0*
21,1,0.14161,0.07992,0,0,180.0*
1,1,0.00799,-0.07081,0.03597*
1,1,0.00799,0.07081,0.03597*
1,1,0.00799,0.07081,-0.03597*
1,1,0.00799,-0.07081,-0.03597*
%
%ADD24ROUNDEDRECTD24*%
G04:AMPARAMS|DCode=25|XSize=23.62mil|YSize=23.62mil|CornerRadius=5.91mil|HoleSize=0mil|Usage=FLASHONLY|Rotation=180.000|XOffset=0mil|YOffset=0mil|HoleType=Round|Shape=RoundedRectangle|*
%AMROUNDEDRECTD25*
21,1,0.02362,0.01181,0,0,180.0*
21,1,0.01181,0.02362,0,0,180.0*
1,1,0.01181,-0.00591,0.00591*
1,1,0.01181,0.00591,0.00591*
1,1,0.01181,0.00591,-0.00591*
1,1,0.01181,-0.00591,-0.00591*
%
%ADD25ROUNDEDRECTD25*%
G04:AMPARAMS|DCode=26|XSize=7.87mil|YSize=19.68mil|CornerRadius=1.97mil|HoleSize=0mil|Usage=FLASHONLY|Rotation=180.000|XOffset=0mil|YOffset=0mil|HoleType=Round|Shape=RoundedRectangle|*
%AMROUNDEDRECTD26*
21,1,0.00787,0.01575,0,0,180.0*
21,1,0.00394,0.01968,0,0,180.0*
1,1,0.00394,-0.00197,0.00787*
1,1,0.00394,0.00197,0.00787*
1,1,0.00394,0.00197,-0.00787*
1,1,0.00394,-0.00197,-0.00787*
%
%ADD26ROUNDEDRECTD26*%
G04:AMPARAMS|DCode=27|XSize=59.06mil|YSize=35.43mil|CornerRadius=1.77mil|HoleSize=0mil|Usage=FLASHONLY|Rotation=180.000|XOffset=0mil|YOffset=0mil|HoleType=Round|Shape=RoundedRectangle|*
%AMROUNDEDRECTD27*
21,1,0.05906,0.03189,0,0,180.0*
21,1,0.05551,0.03543,0,0,180.0*
1,1,0.00354,-0.02776,0.01595*
1,1,0.00354,0.02776,0.01595*
1,1,0.00354,0.02776,-0.01595*
1,1,0.00354,-0.02776,-0.01595*
%
%ADD27ROUNDEDRECTD27*%
G04:AMPARAMS|DCode=28|XSize=37.4mil|YSize=41.34mil|CornerRadius=9.35mil|HoleSize=0mil|Usage=FLASHONLY|Rotation=270.000|XOffset=0mil|YOffset=0mil|HoleType=Round|Shape=RoundedRectangle|*
%AMROUNDEDRECTD28*
21,1,0.03740,0.02264,0,0,270.0*
21,1,0.01870,0.04134,0,0,270.0*
1,1,0.01870,-0.01132,-0.00935*
1,1,0.01870,-0.01132,0.00935*
1,1,0.01870,0.01132,0.00935*
1,1,0.01870,0.01132,-0.00935*
%
%ADD28ROUNDEDRECTD28*%
G04:AMPARAMS|DCode=29|XSize=9.84mil|YSize=19.68mil|CornerRadius=2.46mil|HoleSize=0mil|Usage=FLASHONLY|Rotation=0.000|XOffset=0mil|YOffset=0mil|HoleType=Round|Shape=RoundedRectangle|*
%AMROUNDEDRECTD29*
21,1,0.00984,0.01476,0,0,0.0*
21,1,0.00492,0.01968,0,0,0.0*
1,1,0.00492,0.00246,-0.00738*
1,1,0.00492,-0.00246,-0.00738*
1,1,0.00492,-0.00246,0.00738*
1,1,0.00492,0.00246,0.00738*
%
%ADD29ROUNDEDRECTD29*%
%ADD30O,0.03347X0.00984*%
%ADD31O,0.00984X0.03347*%
%ADD32O,0.02362X0.05709*%
G04:AMPARAMS|DCode=33|XSize=31.5mil|YSize=31.5mil|CornerRadius=7.87mil|HoleSize=0mil|Usage=FLASHONLY|Rotation=90.000|XOffset=0mil|YOffset=0mil|HoleType=Round|Shape=RoundedRectangle|*
%AMROUNDEDRECTD33*
21,1,0.03150,0.01575,0,0,90.0*
21,1,0.01575,0.03150,0,0,90.0*
1,1,0.01575,0.00787,0.00787*
1,1,0.01575,0.00787,-0.00787*
1,1,0.01575,-0.00787,-0.00787*
1,1,0.01575,-0.00787,0.00787*
%
%ADD33ROUNDEDRECTD33*%
G04:AMPARAMS|DCode=34|XSize=23.62mil|YSize=39.37mil|CornerRadius=5.91mil|HoleSize=0mil|Usage=FLASHONLY|Rotation=180.000|XOffset=0mil|YOffset=0mil|HoleType=Round|Shape=RoundedRectangle|*
%AMROUNDEDRECTD34*
21,1,0.02362,0.02756,0,0,180.0*
21,1,0.01181,0.03937,0,0,180.0*
1,1,0.01181,-0.00591,0.01378*
1,1,0.01181,0.00591,0.01378*
1,1,0.01181,0.00591,-0.01378*
1,1,0.01181,-0.00591,-0.01378*
%
%ADD34ROUNDEDRECTD34*%
%ADD35O,0.01968X0.05315*%
G04:AMPARAMS|DCode=36|XSize=18.5mil|YSize=23.62mil|CornerRadius=4.63mil|HoleSize=0mil|Usage=FLASHONLY|Rotation=0.000|XOffset=0mil|YOffset=0mil|HoleType=Round|Shape=RoundedRectangle|*
%AMROUNDEDRECTD36*
21,1,0.01850,0.01437,0,0,0.0*
21,1,0.00925,0.02362,0,0,0.0*
1,1,0.00925,0.00463,-0.00719*
1,1,0.00925,-0.00463,-0.00719*
1,1,0.00925,-0.00463,0.00719*
1,1,0.00925,0.00463,0.00719*
%
%ADD36ROUNDEDRECTD36*%
%ADD37R,0.03937X0.02559*%
%ADD38R,0.03937X0.02362*%
G04:AMPARAMS|DCode=39|XSize=18.5mil|YSize=23.62mil|CornerRadius=4.63mil|HoleSize=0mil|Usage=FLASHONLY|Rotation=90.000|XOffset=0mil|YOffset=0mil|HoleType=Round|Shape=RoundedRectangle|*
%AMROUNDEDRECTD39*
21,1,0.01850,0.01437,0,0,90.0*
21,1,0.00925,0.02362,0,0,90.0*
1,1,0.00925,0.00719,0.00463*
1,1,0.00925,0.00719,-0.00463*
1,1,0.00925,-0.00719,-0.00463*
1,1,0.00925,-0.00719,0.00463*
%
%ADD39ROUNDEDRECTD39*%
G04:AMPARAMS|DCode=40|XSize=31.5mil|YSize=100.79mil|CornerRadius=7.87mil|HoleSize=0mil|Usage=FLASHONLY|Rotation=90.000|XOffset=0mil|YOffset=0mil|HoleType=Round|Shape=RoundedRectangle|*
%AMROUNDEDRECTD40*
21,1,0.03150,0.08504,0,0,90.0*
21,1,0.01575,0.10079,0,0,90.0*
1,1,0.01575,0.04252,0.00787*
1,1,0.01575,0.04252,-0.00787*
1,1,0.01575,-0.04252,-0.00787*
1,1,0.01575,-0.04252,0.00787*
%
%ADD40ROUNDEDRECTD40*%
G04:AMPARAMS|DCode=41|XSize=23.23mil|YSize=17.72mil|CornerRadius=4.43mil|HoleSize=0mil|Usage=FLASHONLY|Rotation=270.000|XOffset=0mil|YOffset=0mil|HoleType=Round|Shape=RoundedRectangle|*
%AMROUNDEDRECTD41*
21,1,0.02323,0.00886,0,0,270.0*
21,1,0.01437,0.01772,0,0,270.0*
1,1,0.00886,-0.00443,-0.00719*
1,1,0.00886,-0.00443,0.00719*
1,1,0.00886,0.00443,0.00719*
1,1,0.00886,0.00443,-0.00719*
%
%ADD41ROUNDEDRECTD41*%
G04:AMPARAMS|DCode=42|XSize=59.06mil|YSize=165.35mil|CornerRadius=14.76mil|HoleSize=0mil|Usage=FLASHONLY|Rotation=90.000|XOffset=0mil|YOffset=0mil|HoleType=Round|Shape=RoundedRectangle|*
%AMROUNDEDRECTD42*
21,1,0.05906,0.13583,0,0,90.0*
21,1,0.02953,0.16535,0,0,90.0*
1,1,0.02953,0.06791,0.01476*
1,1,0.02953,0.06791,-0.01476*
1,1,0.02953,-0.06791,-0.01476*
1,1,0.02953,-0.06791,0.01476*
%
%ADD42ROUNDEDRECTD42*%
G04:AMPARAMS|DCode=43|XSize=15.75mil|YSize=82.68mil|CornerRadius=3.94mil|HoleSize=0mil|Usage=FLASHONLY|Rotation=0.000|XOffset=0mil|YOffset=0mil|HoleType=Round|Shape=RoundedRectangle|*
%AMROUNDEDRECTD43*
21,1,0.01575,0.07480,0,0,0.0*
21,1,0.00787,0.08268,0,0,0.0*
1,1,0.00787,0.00394,-0.03740*
1,1,0.00787,-0.00394,-0.03740*
1,1,0.00787,-0.00394,0.03740*
1,1,0.00787,0.00394,0.03740*
%
%ADD43ROUNDEDRECTD43*%
G04:AMPARAMS|DCode=44|XSize=62.99mil|YSize=35.43mil|CornerRadius=1.77mil|HoleSize=0mil|Usage=FLASHONLY|Rotation=0.000|XOffset=0mil|YOffset=0mil|HoleType=Round|Shape=RoundedRectangle|*
%AMROUNDEDRECTD44*
21,1,0.06299,0.03189,0,0,0.0*
21,1,0.05945,0.03543,0,0,0.0*
1,1,0.00354,0.02972,-0.01595*
1,1,0.00354,-0.02972,-0.01595*
1,1,0.00354,-0.02972,0.01595*
1,1,0.00354,0.02972,0.01595*
%
%ADD44ROUNDEDRECTD44*%
G04:AMPARAMS|DCode=45|XSize=102.36mil|YSize=102.36mil|CornerRadius=2.56mil|HoleSize=0mil|Usage=FLASHONLY|Rotation=180.000|XOffset=0mil|YOffset=0mil|HoleType=Round|Shape=RoundedRectangle|*
%AMROUNDEDRECTD45*
21,1,0.10236,0.09724,0,0,180.0*
21,1,0.09724,0.10236,0,0,180.0*
1,1,0.00512,-0.04862,0.04862*
1,1,0.00512,0.04862,0.04862*
1,1,0.00512,0.04862,-0.04862*
1,1,0.00512,-0.04862,-0.04862*
%
%ADD45ROUNDEDRECTD45*%
%ADD46C,0.07874*%
%ADD47C,0.11811*%
%ADD48C,0.17717*%
%ADD49C,0.08661*%
D18*
X113976Y94488D02*
D03*
X117520D02*
D03*
X109252Y87795D02*
D03*
X112795D02*
D03*
X73032Y90945D02*
D03*
X69488D02*
D03*
X67520Y135039D02*
D03*
X63976D02*
D03*
X158465Y85433D02*
D03*
X154921D02*
D03*
X134055Y80709D02*
D03*
X137598D02*
D03*
X151378Y95669D02*
D03*
X154921D02*
D03*
X138386Y46457D02*
D03*
X141929D02*
D03*
X134843Y57087D02*
D03*
X138386D02*
D03*
X92716Y105118D02*
D03*
X96260D02*
D03*
X89173D02*
D03*
X85630D02*
D03*
X96260Y101575D02*
D03*
X99803D02*
D03*
X89173D02*
D03*
X92716D02*
D03*
X82087Y105118D02*
D03*
X78543D02*
D03*
X62008Y113386D02*
D03*
X58465D02*
D03*
X54921Y74016D02*
D03*
X51378D02*
D03*
X51378Y77559D02*
D03*
X54921D02*
D03*
X69488Y76378D02*
D03*
X65945D02*
D03*
X65945Y79921D02*
D03*
X69488D02*
D03*
X73032Y94882D02*
D03*
X69488D02*
D03*
X31693Y157874D02*
D03*
X35236D02*
D03*
X24213D02*
D03*
X27756D02*
D03*
X8071Y69291D02*
D03*
X11614D02*
D03*
X11614Y72835D02*
D03*
X8071D02*
D03*
X8071Y76378D02*
D03*
X11614D02*
D03*
X11614Y79921D02*
D03*
X8071D02*
D03*
X10039Y63779D02*
D03*
X13583D02*
D03*
X28150D02*
D03*
X24606D02*
D03*
X12008Y48819D02*
D03*
X15551D02*
D03*
X23031D02*
D03*
X26575D02*
D03*
X67520Y138583D02*
D03*
X63976D02*
D03*
X105315Y83858D02*
D03*
X101772D02*
D03*
D19*
X73228Y87244D02*
D03*
Y83622D02*
D03*
X62205Y128189D02*
D03*
Y124567D02*
D03*
X128347Y60866D02*
D03*
Y57244D02*
D03*
X146850Y76929D02*
D03*
Y80551D02*
D03*
X160236Y76929D02*
D03*
Y80551D02*
D03*
X85433Y97795D02*
D03*
Y101417D02*
D03*
X81496Y97795D02*
D03*
Y101417D02*
D03*
X77559Y97795D02*
D03*
Y101417D02*
D03*
X44882Y54094D02*
D03*
Y57717D02*
D03*
X69291Y67874D02*
D03*
Y71496D02*
D03*
X94882Y47874D02*
D03*
Y44252D02*
D03*
X69291Y87244D02*
D03*
Y83622D02*
D03*
X18898Y146221D02*
D03*
Y149843D02*
D03*
X128347Y73386D02*
D03*
Y77008D02*
D03*
D20*
X66929Y114075D02*
D03*
Y119783D02*
D03*
X143307Y51476D02*
D03*
Y57185D02*
D03*
X159055Y51476D02*
D03*
Y57185D02*
D03*
X72441Y136122D02*
D03*
Y141831D02*
D03*
X104331Y94587D02*
D03*
Y88878D02*
D03*
X116142Y129429D02*
D03*
Y135138D02*
D03*
D21*
X57284Y124606D02*
D03*
Y128347D02*
D03*
Y132087D02*
D03*
X46654D02*
D03*
Y124606D02*
D03*
D22*
X122539Y41713D02*
D03*
Y46713D02*
D03*
Y51713D02*
D03*
Y56713D02*
D03*
X101083Y41713D02*
D03*
Y46713D02*
D03*
Y51713D02*
D03*
Y56713D02*
D03*
X122539Y63366D02*
D03*
Y68366D02*
D03*
Y73366D02*
D03*
Y78366D02*
D03*
X101083Y63366D02*
D03*
Y68366D02*
D03*
Y73366D02*
D03*
Y78366D02*
D03*
D23*
X46614Y119291D02*
D03*
X50236D02*
D03*
X158504Y89370D02*
D03*
X154882D02*
D03*
X147402Y84646D02*
D03*
X151024D02*
D03*
X152126Y46457D02*
D03*
X155748D02*
D03*
X73071Y59842D02*
D03*
X69449D02*
D03*
X73071Y63779D02*
D03*
X69449D02*
D03*
X25433Y92126D02*
D03*
X21811D02*
D03*
X48583Y107874D02*
D03*
X52205D02*
D03*
X48583Y103937D02*
D03*
X52205D02*
D03*
X52205Y100000D02*
D03*
X48583D02*
D03*
X73071Y55905D02*
D03*
X69449D02*
D03*
X73071Y51968D02*
D03*
X69449D02*
D03*
X93543Y61417D02*
D03*
X89921D02*
D03*
X57323Y137402D02*
D03*
X53701D02*
D03*
X109213Y83858D02*
D03*
X112835D02*
D03*
D24*
X19685Y128347D02*
D03*
X150394Y115354D02*
D03*
X20079Y101575D02*
D03*
D25*
X142913Y80512D02*
D03*
Y76968D02*
D03*
X146850Y69488D02*
D03*
Y73032D02*
D03*
X142913Y69488D02*
D03*
Y73032D02*
D03*
X162205Y85630D02*
D03*
Y89173D02*
D03*
X145669Y46654D02*
D03*
Y43110D02*
D03*
X46457Y86024D02*
D03*
Y89567D02*
D03*
X50000Y86024D02*
D03*
Y89567D02*
D03*
X44882Y70276D02*
D03*
Y66732D02*
D03*
X73228Y79724D02*
D03*
Y76181D02*
D03*
X72835Y102165D02*
D03*
Y98622D02*
D03*
X62205Y120669D02*
D03*
Y117126D02*
D03*
X6299Y145866D02*
D03*
Y142323D02*
D03*
Y153347D02*
D03*
Y149803D02*
D03*
X33071Y78150D02*
D03*
Y81693D02*
D03*
X29528Y81693D02*
D03*
Y78150D02*
D03*
X64173Y145866D02*
D03*
Y142323D02*
D03*
X73228Y72638D02*
D03*
Y69095D02*
D03*
X128347Y49803D02*
D03*
Y53347D02*
D03*
Y42717D02*
D03*
Y46260D02*
D03*
X123228Y94291D02*
D03*
Y97835D02*
D03*
D26*
X150394Y73425D02*
D03*
X151969D02*
D03*
X153543D02*
D03*
X155118D02*
D03*
X156693D02*
D03*
X150394Y80905D02*
D03*
X151969D02*
D03*
X153543D02*
D03*
X155118D02*
D03*
X156693D02*
D03*
D27*
X153543Y77165D02*
D03*
D28*
X154035Y63386D02*
D03*
X148327D02*
D03*
X91634Y96850D02*
D03*
X97342D02*
D03*
D29*
X154134Y58464D02*
D03*
X152165D02*
D03*
X150197D02*
D03*
X148228D02*
D03*
X154134Y50984D02*
D03*
X152165D02*
D03*
X150197D02*
D03*
X148228D02*
D03*
D30*
X64567Y59055D02*
D03*
Y61024D02*
D03*
Y62992D02*
D03*
Y64961D02*
D03*
X49409D02*
D03*
Y62992D02*
D03*
Y61024D02*
D03*
Y59055D02*
D03*
D31*
X59941Y69587D02*
D03*
X57972D02*
D03*
X56004D02*
D03*
X54035D02*
D03*
Y54429D02*
D03*
X56004D02*
D03*
X57972D02*
D03*
X59941D02*
D03*
D32*
X93721Y88681D02*
D03*
X88721D02*
D03*
X83720D02*
D03*
X78720D02*
D03*
X93721Y67224D02*
D03*
X88721D02*
D03*
X83720D02*
D03*
X78720D02*
D03*
D33*
X11024Y148917D02*
D03*
Y142421D02*
D03*
D34*
X24213Y152953D02*
D03*
X31693D02*
D03*
Y142323D02*
D03*
X27953D02*
D03*
X24213D02*
D03*
D35*
X16634Y69193D02*
D03*
X19193D02*
D03*
X21752D02*
D03*
X24311D02*
D03*
X16634Y86713D02*
D03*
X19193D02*
D03*
X21752D02*
D03*
X24311D02*
D03*
D36*
X16339Y52559D02*
D03*
X11220D02*
D03*
X13780Y60039D02*
D03*
X27362Y52559D02*
D03*
X22244D02*
D03*
X24803Y60039D02*
D03*
X118701Y98228D02*
D03*
X113583D02*
D03*
X116142Y105709D02*
D03*
D37*
X54724Y93504D02*
D03*
Y86024D02*
D03*
X64173Y89764D02*
D03*
D38*
X67913Y103937D02*
D03*
X57284Y100197D02*
D03*
Y107677D02*
D03*
D39*
X73819Y130512D02*
D03*
Y125394D02*
D03*
X66339Y127953D02*
D03*
D40*
X107165Y144095D02*
D03*
X81024D02*
D03*
Y135433D02*
D03*
X107165D02*
D03*
X81024Y114173D02*
D03*
X107165D02*
D03*
Y126772D02*
D03*
X81024D02*
D03*
D41*
X116142Y109232D02*
D03*
Y117539D02*
D03*
D42*
X115354Y154921D02*
D03*
Y172638D02*
D03*
D43*
X111811Y6496D02*
D03*
X114961D02*
D03*
X108661D02*
D03*
X105512D02*
D03*
X102362D02*
D03*
X86614D02*
D03*
X89764D02*
D03*
X92913D02*
D03*
X99213D02*
D03*
X96063D02*
D03*
X64567D02*
D03*
X67716D02*
D03*
X61417D02*
D03*
X58268D02*
D03*
X55118D02*
D03*
X70866D02*
D03*
X74016D02*
D03*
X77165D02*
D03*
X83465D02*
D03*
X80315D02*
D03*
Y31299D02*
D03*
X83465D02*
D03*
X77165D02*
D03*
X74016D02*
D03*
X70866D02*
D03*
X55118D02*
D03*
X58268D02*
D03*
X61417D02*
D03*
X67716D02*
D03*
X64567D02*
D03*
X96063D02*
D03*
X99213D02*
D03*
X92913D02*
D03*
X89764D02*
D03*
X86614D02*
D03*
X102362D02*
D03*
X105512D02*
D03*
X108661D02*
D03*
X114961D02*
D03*
X111811D02*
D03*
D44*
X151181Y54724D02*
D03*
D45*
X56988Y62008D02*
D03*
D46*
X85039Y155905D02*
D03*
D47*
X70079Y186614D02*
D03*
X100000D02*
D03*
D48*
X155118Y189764D02*
D03*
X14961D02*
D03*
X155118Y14961D02*
D03*
X14961D02*
D03*
D49*
X36516Y10433D02*
D03*
Y29134D02*
D03*
X133563D02*
D03*
X121260Y20079D02*
D03*
X48819D02*
D03*
X133563Y10433D02*
D03*
M02*
