M48
;Layer_Color=9474304
;FILE_FORMAT=2:5
INCH,LZ
;TYPE=PLATED
T1F00S00C0.01000
T2F00S00C0.03937
T3F00S00C0.06693
T4F00S00C0.07087
T5F00S00C0.10630
%
T01
X0055118Y0011811
X0061417
X0070866
X0074016
X0077165
X0080315
X0083465
X0089764
X0092913
X0096063
X0099213
X0105512
X0108661
X0111811
X0114961
Y0036614
X0105512
X0099213
X0089764
X0083465
X0080315
X0077165
X0074016
X0070866
X0067716
X0064567
X0061417
X0066929Y0051968
Y0055905
X0075197
Y0051968
X0073228Y0049606
X0069291
X008Y0048504
X009252Y0048031
Y0051968
X0097244Y0044094
Y0063386
X0105118
X011Y0068504
X0116142Y0078347
X012Y0088504
X0123228Y0092126
Y0100394
X0118504
X0116142Y0111811
X0118504Y0117323
X011811Y0126378
X0114961
X01Y0128504
X011Y0108504
X0105905Y0097638
X010315
X0101181Y0088583
X0086221Y0085433
X0081605Y0085324
X007559Y0087402
Y0090158
X0079528Y0096063
X0083465
X0087402
X0076378Y0105118
X0074803Y0114173
X0071653Y0125591
Y0130315
X0067716Y0140945
X0070866Y0144882
X0074016
X0061417Y0146063
X0059842Y0137402
X0056299Y0113386
X0061811Y0109843
X005748Y0093701
X006Y0088504
X0061024Y0071653
X0059941Y0064961
X0056988Y0062008
X0059842Y0059055
X0075197Y0059842
Y0063779
X0073228Y0066929
X0066929Y006811
X0069291Y0074016
X0094095
X0087795Y0061417
X0128347Y0062992
X013Y0068504
X0130709Y0077165
X0133858Y0078347
X013189Y0080709
X0133858Y0083071
X0145276Y0083465
Y0085827
X0149213Y0087008
X0152362
X0151969Y0077165
X0149213
X0155118
X0157874
X0160236Y0074803
X0156693Y007126
X0153543
X0156693Y0065354
Y0062205
X0155905Y0054724
X015315
X0149213
X0146457
X0140551Y0051575
X0148819Y004685
X0145669Y0040945
X0128347Y0040551
X0135039Y0059842
X0161811Y0058661
Y0055905
Y0051575
X0162598Y0080709
X0160236Y0082677
X0158661Y0091732
X0162205
X0157087Y0110236
X0150394
X0143701
Y0120866
X0150394
X0157087
X014Y0128504
X015Y0148504
X013
X014Y0168504
X01
X008
X006
X013Y0108504
X0052362Y0110236
X0048819
X0046063Y0107874
Y0103937
Y01
X0048425Y0097638
X0052362
X0054331Y0103937
X005Y0091732
X0046457
X0044094Y0089764
X0049213Y0077559
X0052362Y0071653
X0047244Y0070079
Y0066142
X0046063Y0063386
Y006063
X0053937Y0059055
X0054035Y0064961
X0044882Y0051968
X0030315Y0063779
X003Y0068504
X0005906Y0069291
Y0072835
Y0076378
Y0079921
X0007874Y0063779
X002Y0048504
X0022047Y0094488
X0025591
X003Y0108504
X0046457Y0116929
X005
X0043307Y0132283
X0051575Y0137402
X005Y0148504
X003
X0024409Y015
X0016535Y0149606
Y0146063
X0003543
X0024409Y0138976
X0022047Y0157874
X002Y0168504
X004
X0037402Y0157874
X0051181Y0027165
X005Y0188504
X003
X009
X011
X013
T02
X0085039Y0155905
T03
X0036516Y0010433
X0048819Y0020079
X012126
X0133563Y0010433
Y0029134
X0036516
T04
X0070079Y0186614
X01
T05
X0014961Y0014961
X0155118
X0014961Y0189764
X0155118
M30
