G04*
G04 #@! TF.GenerationSoftware,Altium Limited,Altium Designer,22.0.2 (36)*
G04*
G04 Layer_Color=65535*
%FSAX24Y24*%
%MOIN*%
G70*
G04*
G04 #@! TF.SameCoordinates,F6E1E7C7-60DA-40DC-8EC0-405BC10227F4*
G04*
G04*
G04 #@! TF.FilePolarity,Positive*
G04*
G01*
G75*
%ADD10C,0.0098*%
%ADD11C,0.0039*%
%ADD12C,0.0079*%
%ADD13C,0.0100*%
%ADD14C,0.0060*%
G36*
X004921Y003971D02*
X005152Y003740D01*
X004921D01*
Y003971D01*
D02*
G37*
G36*
X005118Y012579D02*
X005493Y012205D01*
X005118D01*
Y012579D01*
D02*
G37*
G36*
X015535Y016841D02*
X015535Y016839D01*
X015536Y016837D01*
X015537Y016833D01*
X015538Y016829D01*
X015539Y016824D01*
X015541Y016819D01*
X015542Y016814D01*
Y016813D01*
X015542Y016812D01*
X015542Y016809D01*
X015543Y016805D01*
X015543Y016801D01*
X015544Y016796D01*
X015544Y016790D01*
Y016783D01*
X015544Y016780D01*
Y016777D01*
X015543Y016773D01*
X015543Y016769D01*
X015542Y016763D01*
X015541Y016758D01*
X015539Y016752D01*
X015538Y016746D01*
X015536Y016741D01*
X015533Y016735D01*
X015531Y016729D01*
X015527Y016723D01*
X015523Y016718D01*
X015519Y016713D01*
X015518Y016712D01*
X015517Y016712D01*
X015516Y016710D01*
X015514Y016709D01*
X015512Y016707D01*
X015508Y016705D01*
X015504Y016702D01*
X015500Y016700D01*
X015495Y016698D01*
X015490Y016695D01*
X015483Y016693D01*
X015477Y016691D01*
X015470Y016690D01*
X015462Y016688D01*
X015454Y016688D01*
X015445Y016687D01*
X015444D01*
X015444D01*
X015442D01*
X015441D01*
X015439Y016688D01*
X015436D01*
X015431Y016688D01*
X015424Y016689D01*
X015417Y016690D01*
X015410Y016692D01*
X015402Y016695D01*
X015402D01*
X015401Y016695D01*
X015400Y016695D01*
X015399Y016696D01*
X015395Y016698D01*
X015391Y016700D01*
X015386Y016703D01*
X015380Y016706D01*
X015375Y016710D01*
X015370Y016715D01*
X015369Y016716D01*
X015367Y016717D01*
X015365Y016720D01*
X015362Y016724D01*
X015358Y016728D01*
X015355Y016734D01*
X015352Y016740D01*
X015349Y016746D01*
Y016747D01*
X015348Y016747D01*
X015348Y016748D01*
X015347Y016750D01*
X015347Y016751D01*
X015346Y016753D01*
X015345Y016759D01*
X015343Y016764D01*
X015342Y016771D01*
X015341Y016779D01*
X015341Y016787D01*
Y016793D01*
X015341Y016797D01*
X015342Y016801D01*
X015342Y016806D01*
X015343Y016816D01*
Y016816D01*
X015344Y016818D01*
X015344Y016821D01*
X015345Y016824D01*
X015346Y016828D01*
X015347Y016832D01*
X015350Y016842D01*
X015383D01*
X015383Y016841D01*
X015382Y016839D01*
X015381Y016837D01*
X015379Y016833D01*
X015378Y016829D01*
X015376Y016825D01*
X015375Y016820D01*
X015374Y016815D01*
Y016814D01*
X015373Y016813D01*
X015373Y016810D01*
X015372Y016807D01*
X015371Y016803D01*
X015371Y016798D01*
X015370Y016793D01*
Y016785D01*
X015371Y016783D01*
X015371Y016780D01*
X015372Y016776D01*
X015373Y016772D01*
X015374Y016767D01*
X015375Y016763D01*
X015376Y016762D01*
X015376Y016761D01*
X015377Y016759D01*
X015379Y016756D01*
X015381Y016753D01*
X015384Y016749D01*
X015387Y016745D01*
X015390Y016742D01*
X015390Y016742D01*
X015392Y016741D01*
X015394Y016739D01*
X015396Y016737D01*
X015400Y016735D01*
X015404Y016733D01*
X015408Y016730D01*
X015413Y016728D01*
X015414Y016728D01*
X015415Y016727D01*
X015418Y016726D01*
X015422Y016726D01*
X015426Y016725D01*
X015432Y016724D01*
X015437Y016723D01*
X015444Y016723D01*
X015444D01*
X015445D01*
X015447D01*
X015450Y016723D01*
X015453Y016724D01*
X015456Y016724D01*
X015460Y016724D01*
X015464Y016725D01*
X015473Y016727D01*
X015481Y016730D01*
X015486Y016732D01*
X015490Y016735D01*
X015494Y016738D01*
X015497Y016741D01*
X015497Y016741D01*
X015498Y016741D01*
X015499Y016743D01*
X015500Y016744D01*
X015501Y016745D01*
X015503Y016748D01*
X015504Y016750D01*
X015506Y016753D01*
X015508Y016756D01*
X015509Y016760D01*
X015511Y016764D01*
X015512Y016768D01*
X015513Y016773D01*
X015514Y016778D01*
X015515Y016783D01*
X015515Y016789D01*
Y016791D01*
X015515Y016794D01*
Y016798D01*
X015514Y016802D01*
X015514Y016806D01*
X015512Y016816D01*
Y016817D01*
X015511Y016818D01*
X015511Y016821D01*
X015510Y016824D01*
X015508Y016828D01*
X015507Y016832D01*
X015502Y016842D01*
X015534D01*
X015535Y016841D01*
D02*
G37*
G36*
X015206Y016652D02*
X015174D01*
Y016718D01*
X014985D01*
X015019Y016656D01*
X014990Y016644D01*
X014947Y016726D01*
Y016756D01*
X015174D01*
Y016814D01*
X015206D01*
Y016652D01*
D02*
G37*
G36*
X015291Y016572D02*
X015295Y016571D01*
X015298Y016570D01*
X015299D01*
X015299Y016570D01*
X015301Y016569D01*
X015304Y016567D01*
X015307Y016564D01*
X015308Y016564D01*
X015309Y016562D01*
X015311Y016559D01*
X015313Y016556D01*
Y016555D01*
X015313Y016555D01*
X015313Y016554D01*
X015314Y016552D01*
X015314Y016549D01*
X015315Y016545D01*
Y016543D01*
X015314Y016542D01*
X015314Y016538D01*
X015313Y016534D01*
Y016534D01*
X015312Y016534D01*
X015312Y016531D01*
X015310Y016529D01*
X015307Y016526D01*
X015307D01*
X015307Y016525D01*
X015305Y016524D01*
X015302Y016522D01*
X015298Y016520D01*
X015298D01*
X015297Y016520D01*
X015296Y016519D01*
X015295Y016519D01*
X015292Y016518D01*
X015288Y016518D01*
X015288D01*
X015287D01*
X015286D01*
X015285Y016518D01*
X015281Y016519D01*
X015277Y016520D01*
X015277D01*
X015276Y016520D01*
X015274Y016521D01*
X015272Y016523D01*
X015269Y016526D01*
X015269Y016526D01*
X015268Y016526D01*
X015267Y016528D01*
X015265Y016531D01*
X015263Y016534D01*
Y016535D01*
X015263Y016535D01*
X015262Y016536D01*
X015262Y016538D01*
X015261Y016541D01*
X015261Y016545D01*
Y016547D01*
X015261Y016548D01*
X015262Y016552D01*
X015263Y016556D01*
Y016556D01*
X015263Y016557D01*
X015264Y016558D01*
X015264Y016559D01*
X015266Y016561D01*
X015269Y016564D01*
Y016565D01*
X015270Y016565D01*
X015271Y016566D01*
X015274Y016568D01*
X015277Y016570D01*
X015278D01*
X015278Y016570D01*
X015279Y016571D01*
X015281Y016571D01*
X015284Y016572D01*
X015288Y016572D01*
X015288D01*
X015289D01*
X015290D01*
X015291Y016572D01*
D02*
G37*
G36*
X015541Y016468D02*
X015513D01*
Y016533D01*
X015372D01*
Y016475D01*
X015344D01*
Y016568D01*
X015513D01*
Y016627D01*
X015541D01*
Y016468D01*
D02*
G37*
G36*
Y016247D02*
X015513D01*
Y016312D01*
X015291D01*
Y016253D01*
X015263D01*
Y016346D01*
X015513D01*
Y016405D01*
X015541D01*
Y016247D01*
D02*
G37*
G36*
X015206Y016304D02*
Y016265D01*
X015008Y016187D01*
Y016226D01*
X015139Y016274D01*
X015171Y016285D01*
X015138Y016296D01*
X015008Y016344D01*
Y016381D01*
X015206Y016304D01*
D02*
G37*
G36*
X015419Y016159D02*
X015419D01*
X015418D01*
X015416D01*
X015415D01*
X015413D01*
X015410Y016158D01*
X015405Y016158D01*
X015398Y016157D01*
X015392Y016155D01*
X015386Y016153D01*
X015384Y016152D01*
X015381Y016151D01*
X015381Y016150D01*
X015379Y016149D01*
X015378Y016148D01*
X015375Y016145D01*
X015373Y016141D01*
X015372Y016137D01*
X015370Y016132D01*
X015370Y016127D01*
Y016124D01*
X015370Y016123D01*
X015371Y016118D01*
X015372Y016113D01*
Y016113D01*
X015373Y016112D01*
X015373Y016110D01*
X015374Y016109D01*
X015375Y016107D01*
X015377Y016104D01*
X015380Y016099D01*
X015381Y016098D01*
X015381Y016097D01*
X015382Y016096D01*
X015384Y016094D01*
X015386Y016092D01*
X015388Y016089D01*
X015391Y016086D01*
X015394Y016083D01*
X015394Y016083D01*
X015395Y016082D01*
X015397Y016080D01*
X015400Y016078D01*
X015403Y016075D01*
X015406Y016072D01*
X015410Y016069D01*
X015415Y016066D01*
X015541D01*
Y016031D01*
X015344D01*
Y016062D01*
X015380Y016063D01*
X015380Y016063D01*
X015379Y016064D01*
X015378Y016065D01*
X015377Y016066D01*
X015373Y016069D01*
X015369Y016074D01*
X015363Y016079D01*
X015358Y016085D01*
X015353Y016091D01*
X015350Y016098D01*
Y016098D01*
X015349Y016098D01*
X015349Y016099D01*
X015348Y016101D01*
X015347Y016104D01*
X015345Y016108D01*
X015343Y016114D01*
X015341Y016119D01*
X015340Y016126D01*
X015340Y016132D01*
Y016135D01*
X015340Y016137D01*
X015341Y016140D01*
X015341Y016143D01*
X015343Y016149D01*
X015345Y016157D01*
X015347Y016161D01*
X015349Y016165D01*
X015351Y016168D01*
X015353Y016172D01*
X015356Y016175D01*
X015360Y016178D01*
X015360Y016179D01*
X015361Y016179D01*
X015362Y016180D01*
X015364Y016181D01*
X015366Y016182D01*
X015369Y016183D01*
X015372Y016185D01*
X015375Y016186D01*
X015379Y016188D01*
X015383Y016189D01*
X015388Y016190D01*
X015394Y016191D01*
X015399Y016192D01*
X015405Y016193D01*
X015412Y016193D01*
X015419D01*
Y016159D01*
D02*
G37*
G36*
X015108Y016150D02*
X015109D01*
X015109D01*
X015110D01*
X015111Y016150D01*
X015114D01*
X015118Y016150D01*
Y016011D01*
X015118D01*
X015119D01*
X015121D01*
X015123Y016011D01*
X015125Y016012D01*
X015128Y016012D01*
X015135Y016013D01*
X015143Y016015D01*
X015150Y016018D01*
X015154Y016020D01*
X015158Y016022D01*
X015161Y016025D01*
X015165Y016028D01*
X015165Y016028D01*
X015165Y016028D01*
X015166Y016029D01*
X015167Y016031D01*
X015168Y016033D01*
X015169Y016035D01*
X015171Y016037D01*
X015172Y016040D01*
X015174Y016044D01*
X015175Y016047D01*
X015177Y016051D01*
X015178Y016056D01*
X015179Y016060D01*
X015180Y016066D01*
X015180Y016071D01*
X015181Y016077D01*
Y016082D01*
X015180Y016085D01*
Y016088D01*
X015180Y016094D01*
Y016096D01*
X015180Y016097D01*
Y016100D01*
X015179Y016102D01*
X015179Y016105D01*
X015178Y016111D01*
Y016111D01*
X015178Y016112D01*
X015178Y016114D01*
X015177Y016116D01*
X015177Y016118D01*
X015177Y016121D01*
X015176Y016126D01*
Y016127D01*
X015175Y016128D01*
X015175Y016129D01*
X015175Y016131D01*
X015173Y016135D01*
X015172Y016140D01*
X015200D01*
Y016140D01*
X015201Y016138D01*
X015202Y016135D01*
X015203Y016131D01*
X015204Y016126D01*
X015205Y016121D01*
X015206Y016115D01*
X015207Y016108D01*
Y016108D01*
X015207Y016107D01*
Y016106D01*
X015207Y016102D01*
X015208Y016097D01*
X015208Y016092D01*
X015209Y016086D01*
X015209Y016079D01*
Y016068D01*
X015209Y016066D01*
Y016063D01*
X015208Y016057D01*
X015208Y016050D01*
X015206Y016043D01*
X015205Y016035D01*
X015202Y016028D01*
Y016028D01*
X015202Y016027D01*
X015202Y016026D01*
X015201Y016025D01*
X015199Y016022D01*
X015197Y016018D01*
X015194Y016013D01*
X015191Y016008D01*
X015187Y016003D01*
X015182Y015998D01*
X015182Y015997D01*
X015180Y015996D01*
X015177Y015994D01*
X015173Y015991D01*
X015169Y015989D01*
X015163Y015986D01*
X015157Y015983D01*
X015150Y015981D01*
X015150D01*
X015149Y015981D01*
X015148Y015980D01*
X015147Y015980D01*
X015145Y015980D01*
X015143Y015979D01*
X015138Y015978D01*
X015131Y015977D01*
X015124Y015976D01*
X015116Y015976D01*
X015107Y015975D01*
X015107D01*
X015106D01*
X015105D01*
X015104D01*
X015102Y015976D01*
X015100D01*
X015094Y015976D01*
X015088Y015977D01*
X015082Y015978D01*
X015075Y015979D01*
X015068Y015981D01*
X015067D01*
X015067Y015982D01*
X015066Y015982D01*
X015065Y015982D01*
X015061Y015984D01*
X015057Y015985D01*
X015052Y015988D01*
X015046Y015991D01*
X015041Y015995D01*
X015035Y015999D01*
X015035D01*
X015034Y015999D01*
X015033Y016001D01*
X015030Y016003D01*
X015027Y016006D01*
X015023Y016010D01*
X015020Y016015D01*
X015016Y016021D01*
X015013Y016027D01*
Y016027D01*
X015012Y016027D01*
X015012Y016028D01*
X015011Y016030D01*
X015010Y016033D01*
X015008Y016038D01*
X015007Y016044D01*
X015005Y016050D01*
X015005Y016057D01*
X015004Y016065D01*
Y016068D01*
X015005Y016070D01*
Y016072D01*
X015005Y016077D01*
X015006Y016083D01*
X015007Y016089D01*
X015008Y016095D01*
X015011Y016102D01*
Y016102D01*
X015011Y016102D01*
X015012Y016104D01*
X015013Y016107D01*
X015016Y016111D01*
X015018Y016115D01*
X015021Y016120D01*
X015025Y016124D01*
X015029Y016128D01*
X015030Y016129D01*
X015031Y016130D01*
X015034Y016132D01*
X015037Y016135D01*
X015042Y016137D01*
X015046Y016140D01*
X015052Y016143D01*
X015058Y016145D01*
X015059D01*
X015059Y016145D01*
X015060Y016146D01*
X015061Y016146D01*
X015065Y016147D01*
X015069Y016148D01*
X015075Y016149D01*
X015082Y016150D01*
X015089Y016150D01*
X015096Y016151D01*
X015097D01*
X015098D01*
X015099D01*
X015101D01*
X015105D01*
X015108Y016150D01*
D02*
G37*
G36*
X015206Y015898D02*
X015124Y015860D01*
X015123Y015859D01*
X015122Y015859D01*
X015120Y015858D01*
X015118Y015857D01*
X015113Y015854D01*
X015108Y015851D01*
X015107Y015850D01*
X015107Y015850D01*
X015106Y015849D01*
X015104Y015848D01*
X015101Y015844D01*
X015098Y015841D01*
X015098Y015841D01*
X015097Y015840D01*
X015097Y015839D01*
X015096Y015838D01*
X015094Y015834D01*
X015093Y015829D01*
Y015829D01*
X015092Y015828D01*
X015092Y015827D01*
X015092Y015825D01*
Y015823D01*
X015091Y015821D01*
X015091Y015816D01*
Y015799D01*
X015206D01*
Y015764D01*
X014948D01*
Y015839D01*
X014948Y015841D01*
X014949Y015846D01*
X014949Y015852D01*
X014950Y015859D01*
X014952Y015865D01*
X014953Y015871D01*
Y015872D01*
X014954Y015872D01*
X014954Y015874D01*
X014955Y015877D01*
X014957Y015881D01*
X014959Y015885D01*
X014961Y015889D01*
X014964Y015894D01*
X014967Y015898D01*
X014967Y015898D01*
X014969Y015900D01*
X014971Y015902D01*
X014973Y015904D01*
X014976Y015906D01*
X014980Y015909D01*
X014984Y015911D01*
X014988Y015913D01*
X014989Y015914D01*
X014991Y015914D01*
X014993Y015915D01*
X014997Y015916D01*
X015001Y015917D01*
X015005Y015918D01*
X015010Y015918D01*
X015016Y015918D01*
X015017D01*
X015018D01*
X015020Y015918D01*
X015024D01*
X015027Y015917D01*
X015031Y015917D01*
X015035Y015916D01*
X015039Y015915D01*
X015039D01*
X015041Y015914D01*
X015043Y015913D01*
X015045Y015912D01*
X015048Y015910D01*
X015052Y015908D01*
X015055Y015906D01*
X015059Y015904D01*
X015059Y015903D01*
X015060Y015903D01*
X015062Y015901D01*
X015064Y015899D01*
X015066Y015897D01*
X015068Y015894D01*
X015071Y015890D01*
X015074Y015886D01*
X015074Y015886D01*
X015075Y015885D01*
X015076Y015882D01*
X015077Y015880D01*
X015079Y015876D01*
X015080Y015872D01*
X015082Y015868D01*
X015083Y015863D01*
Y015863D01*
X015084Y015865D01*
X015085Y015867D01*
X015086Y015869D01*
X015088Y015872D01*
X015090Y015875D01*
X015093Y015878D01*
X015096Y015881D01*
X015097Y015882D01*
X015098Y015882D01*
X015100Y015884D01*
X015103Y015886D01*
X015107Y015888D01*
X015110Y015891D01*
X015115Y015894D01*
X015121Y015897D01*
X015206Y015938D01*
Y015898D01*
D02*
G37*
G36*
X015372Y015943D02*
X015372Y015943D01*
X015373Y015944D01*
X015374Y015945D01*
X015376Y015946D01*
X015379Y015947D01*
X015381Y015949D01*
X015388Y015951D01*
X015388D01*
X015390Y015952D01*
X015392Y015952D01*
X015394Y015953D01*
X015397Y015954D01*
X015400Y015954D01*
X015408Y015955D01*
X015408D01*
X015408D01*
X015410D01*
X015413Y015954D01*
X015417Y015954D01*
X015421Y015953D01*
X015426Y015952D01*
X015431Y015951D01*
X015436Y015949D01*
X015436Y015948D01*
X015438Y015948D01*
X015440Y015946D01*
X015443Y015945D01*
X015447Y015943D01*
X015451Y015940D01*
X015454Y015937D01*
X015458Y015933D01*
X015458Y015933D01*
X015459Y015931D01*
X015461Y015929D01*
X015463Y015926D01*
X015465Y015923D01*
X015467Y015918D01*
X015470Y015914D01*
X015472Y015908D01*
X015472Y015908D01*
X015472Y015906D01*
X015473Y015903D01*
X015474Y015899D01*
X015475Y015895D01*
X015476Y015889D01*
X015476Y015883D01*
X015476Y015877D01*
Y015873D01*
X015476Y015870D01*
X015476Y015866D01*
X015476Y015862D01*
X015474Y015854D01*
Y015854D01*
X015474Y015852D01*
X015473Y015850D01*
X015472Y015848D01*
X015470Y015842D01*
X015469Y015839D01*
X015467Y015837D01*
X015468D01*
X015468Y015836D01*
X015469Y015835D01*
X015471Y015835D01*
X015474Y015832D01*
X015478Y015830D01*
X015478D01*
X015479Y015830D01*
X015480Y015830D01*
X015481Y015829D01*
X015485Y015828D01*
X015489Y015828D01*
X015489D01*
X015490D01*
X015492Y015828D01*
X015493Y015829D01*
X015495Y015830D01*
X015497Y015831D01*
X015499Y015833D01*
X015501Y015835D01*
X015501Y015835D01*
X015502Y015836D01*
X015503Y015838D01*
X015504Y015840D01*
X015504Y015843D01*
X015505Y015846D01*
X015506Y015850D01*
X015506Y015854D01*
X015508Y015906D01*
Y015909D01*
X015509Y015911D01*
X015509Y015915D01*
X015509Y015919D01*
X015510Y015924D01*
X015512Y015933D01*
Y015934D01*
X015513Y015935D01*
X015514Y015938D01*
X015515Y015941D01*
X015516Y015944D01*
X015517Y015947D01*
X015519Y015951D01*
X015522Y015955D01*
X015522Y015955D01*
X015523Y015956D01*
X015524Y015958D01*
X015526Y015960D01*
X015528Y015962D01*
X015531Y015964D01*
X015534Y015967D01*
X015537Y015969D01*
X015538Y015969D01*
X015539Y015970D01*
X015541Y015970D01*
X015543Y015971D01*
X015546Y015972D01*
X015550Y015973D01*
X015554Y015974D01*
X015558Y015974D01*
X015559D01*
X015561D01*
X015563Y015974D01*
X015566Y015973D01*
X015570Y015973D01*
X015575Y015971D01*
X015579Y015970D01*
X015583Y015968D01*
X015584Y015968D01*
X015585Y015967D01*
X015588Y015966D01*
X015590Y015964D01*
X015594Y015961D01*
X015597Y015958D01*
X015601Y015955D01*
X015604Y015950D01*
X015604Y015950D01*
X015606Y015948D01*
X015607Y015946D01*
X015609Y015942D01*
X015612Y015938D01*
X015614Y015933D01*
X015616Y015927D01*
X015619Y015920D01*
Y015920D01*
X015619Y015919D01*
X015619Y015918D01*
X015619Y015917D01*
X015620Y015915D01*
X015620Y015913D01*
X015621Y015911D01*
X015621Y015908D01*
X015622Y015902D01*
X015623Y015894D01*
X015624Y015886D01*
X015624Y015877D01*
Y015871D01*
X015624Y015868D01*
X015623Y015862D01*
X015623Y015856D01*
X015622Y015849D01*
X015621Y015842D01*
X015620Y015836D01*
Y015836D01*
X015620Y015835D01*
X015619Y015833D01*
X015619Y015830D01*
X015617Y015826D01*
X015616Y015822D01*
X015614Y015817D01*
X015612Y015813D01*
X015609Y015808D01*
X015609Y015808D01*
X015608Y015807D01*
X015607Y015805D01*
X015605Y015802D01*
X015602Y015800D01*
X015600Y015797D01*
X015597Y015795D01*
X015593Y015793D01*
X015593Y015792D01*
X015592Y015792D01*
X015590Y015791D01*
X015587Y015790D01*
X015584Y015789D01*
X015581Y015788D01*
X015577Y015788D01*
X015573Y015788D01*
X015572D01*
X015572D01*
X015570D01*
X015568Y015788D01*
X015564Y015789D01*
X015560Y015789D01*
X015556Y015790D01*
X015552Y015792D01*
X015548Y015794D01*
X015547Y015795D01*
X015546Y015796D01*
X015544Y015797D01*
X015541Y015799D01*
X015538Y015802D01*
X015535Y015806D01*
X015531Y015810D01*
X015527Y015815D01*
Y015815D01*
X015527Y015814D01*
X015526Y015813D01*
X015525Y015812D01*
X015523Y015809D01*
X015521Y015806D01*
X015521D01*
X015520Y015805D01*
X015519Y015804D01*
X015516Y015802D01*
X015513Y015800D01*
X015513D01*
X015513Y015800D01*
X015511Y015799D01*
X015508Y015797D01*
X015504Y015796D01*
X015504D01*
X015504D01*
X015501Y015796D01*
X015498Y015796D01*
X015495Y015795D01*
X015495D01*
X015493D01*
X015491Y015796D01*
X015487Y015796D01*
X015484Y015797D01*
X015480Y015798D01*
X015476Y015799D01*
X015472Y015801D01*
X015471Y015801D01*
X015470Y015802D01*
X015468Y015803D01*
X015465Y015805D01*
X015462Y015807D01*
X015459Y015810D01*
X015452Y015816D01*
X015451Y015815D01*
X015451Y015815D01*
X015449Y015813D01*
X015446Y015811D01*
X015443Y015809D01*
X015442D01*
X015442Y015808D01*
X015440Y015807D01*
X015437Y015805D01*
X015434Y015804D01*
X015433D01*
X015433Y015803D01*
X015432Y015803D01*
X015430Y015803D01*
X015427Y015802D01*
X015423Y015801D01*
X015422D01*
X015422D01*
X015420Y015800D01*
X015419D01*
X015417Y015800D01*
X015415D01*
X015409Y015800D01*
X015409D01*
X015409D01*
X015407D01*
X015404Y015800D01*
X015400Y015800D01*
X015395Y015801D01*
X015391Y015802D01*
X015386Y015803D01*
X015381Y015805D01*
X015380Y015806D01*
X015379Y015806D01*
X015376Y015808D01*
X015374Y015809D01*
X015370Y015812D01*
X015367Y015814D01*
X015363Y015818D01*
X015359Y015821D01*
X015359Y015821D01*
X015358Y015823D01*
X015356Y015825D01*
X015354Y015828D01*
X015352Y015832D01*
X015350Y015836D01*
X015347Y015841D01*
X015345Y015845D01*
Y015846D01*
X015345Y015846D01*
X015344Y015848D01*
X015344Y015851D01*
X015343Y015855D01*
X015342Y015860D01*
X015341Y015865D01*
X015340Y015871D01*
X015340Y015877D01*
Y015882D01*
X015341Y015886D01*
X015341Y015891D01*
Y015892D01*
X015342Y015893D01*
X015342Y015895D01*
X015343Y015899D01*
X015344Y015903D01*
Y015975D01*
X015372D01*
Y015943D01*
D02*
G37*
G36*
X015447Y015751D02*
X015449D01*
X015455Y015751D01*
X015461Y015750D01*
X015469Y015749D01*
X015476Y015747D01*
X015483Y015745D01*
X015484D01*
X015484Y015744D01*
X015485Y015744D01*
X015487Y015743D01*
X015490Y015742D01*
X015495Y015740D01*
X015500Y015737D01*
X015505Y015734D01*
X015511Y015730D01*
X015517Y015726D01*
X015517Y015725D01*
X015519Y015723D01*
X015521Y015721D01*
X015524Y015718D01*
X015528Y015713D01*
X015531Y015708D01*
X015535Y015702D01*
X015538Y015696D01*
Y015696D01*
X015538Y015695D01*
X015538Y015694D01*
X015539Y015693D01*
X015539Y015691D01*
X015540Y015689D01*
X015541Y015684D01*
X015543Y015678D01*
X015544Y015672D01*
X015545Y015664D01*
X015545Y015656D01*
Y015653D01*
X015545Y015651D01*
Y015649D01*
X015544Y015644D01*
X015543Y015638D01*
X015542Y015631D01*
X015541Y015625D01*
X015538Y015618D01*
Y015618D01*
X015538Y015617D01*
X015538Y015616D01*
X015537Y015616D01*
X015536Y015612D01*
X015534Y015608D01*
X015531Y015604D01*
X015528Y015599D01*
X015524Y015594D01*
X015519Y015590D01*
X015518Y015589D01*
X015517Y015588D01*
X015514Y015586D01*
X015510Y015583D01*
X015506Y015580D01*
X015500Y015577D01*
X015494Y015574D01*
X015488Y015572D01*
X015487D01*
X015487Y015571D01*
X015486Y015571D01*
X015484Y015571D01*
X015482Y015570D01*
X015480Y015570D01*
X015475Y015569D01*
X015469Y015568D01*
X015461Y015567D01*
X015453Y015566D01*
X015444Y015566D01*
X015444D01*
X015443D01*
X015442D01*
X015440D01*
X015438Y015566D01*
X015435D01*
X015430Y015566D01*
X015423Y015567D01*
X015416Y015568D01*
X015409Y015570D01*
X015402Y015572D01*
X015401D01*
X015401Y015572D01*
X015400Y015573D01*
X015398Y015573D01*
X015395Y015575D01*
X015391Y015577D01*
X015385Y015579D01*
X015380Y015583D01*
X015374Y015586D01*
X015369Y015591D01*
X015369Y015591D01*
X015367Y015593D01*
X015364Y015595D01*
X015361Y015599D01*
X015358Y015603D01*
X015354Y015608D01*
X015351Y015614D01*
X015348Y015620D01*
Y015621D01*
X015348Y015621D01*
X015347Y015622D01*
X015347Y015624D01*
X015346Y015625D01*
X015345Y015627D01*
X015344Y015632D01*
X015343Y015638D01*
X015341Y015645D01*
X015340Y015652D01*
X015340Y015660D01*
Y015664D01*
X015340Y015666D01*
Y015668D01*
X015341Y015673D01*
X015342Y015679D01*
X015343Y015685D01*
X015345Y015692D01*
X015347Y015698D01*
Y015698D01*
X015347Y015699D01*
X015348Y015700D01*
X015348Y015701D01*
X015350Y015704D01*
X015352Y015708D01*
X015354Y015713D01*
X015358Y015718D01*
X015362Y015722D01*
X015366Y015727D01*
X015367Y015728D01*
X015369Y015729D01*
X015371Y015731D01*
X015375Y015734D01*
X015379Y015737D01*
X015385Y015739D01*
X015391Y015742D01*
X015398Y015745D01*
X015398D01*
X015399Y015745D01*
X015400Y015746D01*
X015401Y015746D01*
X015403Y015746D01*
X015405Y015747D01*
X015410Y015748D01*
X015417Y015749D01*
X015424Y015750D01*
X015432Y015751D01*
X015441Y015751D01*
X015441D01*
X015442D01*
X015443D01*
X015445D01*
X015447Y015751D01*
D02*
G37*
G36*
X015541Y015360D02*
X015513D01*
Y015425D01*
X015291D01*
Y015366D01*
X015263D01*
Y015459D01*
X015513D01*
Y015518D01*
X015541D01*
Y015360D01*
D02*
G37*
G36*
X015108Y015485D02*
X015109D01*
X015109D01*
X015110D01*
X015111Y015485D01*
X015114D01*
X015118Y015485D01*
Y015346D01*
X015118D01*
X015119D01*
X015121D01*
X015123Y015346D01*
X015125Y015347D01*
X015128Y015347D01*
X015135Y015348D01*
X015143Y015350D01*
X015150Y015353D01*
X015154Y015355D01*
X015158Y015357D01*
X015161Y015360D01*
X015165Y015363D01*
X015165Y015363D01*
X015165Y015363D01*
X015166Y015364D01*
X015167Y015366D01*
X015168Y015368D01*
X015169Y015370D01*
X015171Y015372D01*
X015172Y015375D01*
X015174Y015378D01*
X015175Y015382D01*
X015177Y015386D01*
X015178Y015390D01*
X015179Y015395D01*
X015180Y015400D01*
X015180Y015406D01*
X015181Y015411D01*
Y015417D01*
X015180Y015420D01*
Y015423D01*
X015180Y015429D01*
Y015431D01*
X015180Y015432D01*
Y015434D01*
X015179Y015437D01*
X015179Y015440D01*
X015178Y015446D01*
Y015446D01*
X015178Y015447D01*
X015178Y015449D01*
X015177Y015451D01*
X015177Y015453D01*
X015177Y015455D01*
X015176Y015461D01*
Y015461D01*
X015175Y015462D01*
X015175Y015464D01*
X015175Y015466D01*
X015173Y015470D01*
X015172Y015475D01*
X015200D01*
Y015474D01*
X015201Y015472D01*
X015202Y015470D01*
X015203Y015466D01*
X015204Y015461D01*
X015205Y015456D01*
X015206Y015450D01*
X015207Y015443D01*
Y015443D01*
X015207Y015442D01*
Y015440D01*
X015207Y015437D01*
X015208Y015432D01*
X015208Y015427D01*
X015209Y015420D01*
X015209Y015414D01*
Y015403D01*
X015209Y015400D01*
Y015398D01*
X015208Y015392D01*
X015208Y015385D01*
X015206Y015378D01*
X015205Y015370D01*
X015202Y015363D01*
Y015363D01*
X015202Y015362D01*
X015202Y015361D01*
X015201Y015360D01*
X015199Y015356D01*
X015197Y015352D01*
X015194Y015348D01*
X015191Y015343D01*
X015187Y015337D01*
X015182Y015333D01*
X015182Y015332D01*
X015180Y015331D01*
X015177Y015329D01*
X015173Y015326D01*
X015169Y015324D01*
X015163Y015321D01*
X015157Y015318D01*
X015150Y015316D01*
X015150D01*
X015149Y015315D01*
X015148Y015315D01*
X015147Y015315D01*
X015145Y015314D01*
X015143Y015314D01*
X015138Y015313D01*
X015131Y015312D01*
X015124Y015311D01*
X015116Y015310D01*
X015107Y015310D01*
X015107D01*
X015106D01*
X015105D01*
X015104D01*
X015102Y015310D01*
X015100D01*
X015094Y015311D01*
X015088Y015311D01*
X015082Y015313D01*
X015075Y015314D01*
X015068Y015316D01*
X015067D01*
X015067Y015316D01*
X015066Y015317D01*
X015065Y015317D01*
X015061Y015319D01*
X015057Y015320D01*
X015052Y015323D01*
X015046Y015326D01*
X015041Y015329D01*
X015035Y015333D01*
X015035D01*
X015034Y015334D01*
X015033Y015335D01*
X015030Y015338D01*
X015027Y015341D01*
X015023Y015345D01*
X015020Y015350D01*
X015016Y015356D01*
X015013Y015362D01*
Y015362D01*
X015012Y015362D01*
X015012Y015363D01*
X015011Y015365D01*
X015010Y015368D01*
X015008Y015373D01*
X015007Y015378D01*
X015005Y015385D01*
X015005Y015392D01*
X015004Y015400D01*
Y015403D01*
X015005Y015405D01*
Y015407D01*
X015005Y015412D01*
X015006Y015418D01*
X015007Y015424D01*
X015008Y015430D01*
X015011Y015436D01*
Y015437D01*
X015011Y015437D01*
X015012Y015439D01*
X015013Y015442D01*
X015016Y015446D01*
X015018Y015450D01*
X015021Y015454D01*
X015025Y015459D01*
X015029Y015463D01*
X015030Y015464D01*
X015031Y015465D01*
X015034Y015467D01*
X015037Y015470D01*
X015042Y015472D01*
X015046Y015475D01*
X015052Y015477D01*
X015058Y015480D01*
X015059D01*
X015059Y015480D01*
X015060Y015480D01*
X015061Y015481D01*
X015065Y015482D01*
X015069Y015483D01*
X015075Y015484D01*
X015082Y015485D01*
X015089Y015485D01*
X015096Y015486D01*
X015097D01*
X015098D01*
X015099D01*
X015101D01*
X015105D01*
X015108Y015485D01*
D02*
G37*
G36*
X015444Y015302D02*
X015445D01*
X015445D01*
X015446D01*
X015447Y015302D01*
X015450D01*
X015454Y015302D01*
Y015163D01*
X015454D01*
X015455D01*
X015456D01*
X015458Y015163D01*
X015461Y015164D01*
X015464Y015164D01*
X015471Y015165D01*
X015478Y015167D01*
X015486Y015170D01*
X015490Y015172D01*
X015494Y015174D01*
X015497Y015177D01*
X015500Y015180D01*
X015501Y015180D01*
X015501Y015180D01*
X015502Y015181D01*
X015503Y015183D01*
X015504Y015185D01*
X015505Y015187D01*
X015507Y015189D01*
X015508Y015192D01*
X015510Y015195D01*
X015511Y015199D01*
X015513Y015203D01*
X015514Y015207D01*
X015515Y015212D01*
X015516Y015217D01*
X015516Y015223D01*
X015517Y015228D01*
Y015234D01*
X015516Y015237D01*
Y015240D01*
X015516Y015246D01*
Y015247D01*
X015516Y015249D01*
Y015251D01*
X015515Y015254D01*
X015515Y015257D01*
X015514Y015263D01*
Y015263D01*
X015514Y015264D01*
X015514Y015266D01*
X015513Y015267D01*
X015513Y015270D01*
X015513Y015272D01*
X015512Y015278D01*
Y015278D01*
X015511Y015279D01*
X015511Y015281D01*
X015511Y015283D01*
X015509Y015287D01*
X015508Y015292D01*
X015536D01*
Y015291D01*
X015537Y015289D01*
X015538Y015287D01*
X015538Y015283D01*
X015539Y015278D01*
X015540Y015273D01*
X015541Y015267D01*
X015542Y015260D01*
Y015260D01*
X015543Y015259D01*
Y015257D01*
X015543Y015254D01*
X015544Y015249D01*
X015544Y015244D01*
X015545Y015237D01*
X015545Y015231D01*
Y015220D01*
X015545Y015217D01*
Y015215D01*
X015544Y015209D01*
X015543Y015202D01*
X015542Y015195D01*
X015540Y015187D01*
X015538Y015180D01*
Y015180D01*
X015538Y015179D01*
X015538Y015178D01*
X015537Y015177D01*
X015535Y015173D01*
X015533Y015169D01*
X015530Y015165D01*
X015527Y015160D01*
X015523Y015154D01*
X015518Y015150D01*
X015517Y015149D01*
X015516Y015148D01*
X015513Y015146D01*
X015509Y015143D01*
X015505Y015141D01*
X015499Y015138D01*
X015493Y015135D01*
X015486Y015133D01*
X015486D01*
X015485Y015132D01*
X015484Y015132D01*
X015483Y015132D01*
X015481Y015131D01*
X015479Y015131D01*
X015474Y015130D01*
X015467Y015129D01*
X015460Y015128D01*
X015452Y015127D01*
X015443Y015127D01*
X015443D01*
X015442D01*
X015441D01*
X015439D01*
X015437Y015127D01*
X015435D01*
X015430Y015128D01*
X015424Y015128D01*
X015417Y015130D01*
X015411Y015131D01*
X015404Y015133D01*
X015403D01*
X015403Y015133D01*
X015402Y015134D01*
X015400Y015134D01*
X015397Y015136D01*
X015393Y015137D01*
X015388Y015140D01*
X015382Y015143D01*
X015376Y015146D01*
X015371Y015150D01*
X015371D01*
X015370Y015151D01*
X015369Y015152D01*
X015366Y015155D01*
X015363Y015158D01*
X015359Y015162D01*
X015355Y015167D01*
X015352Y015173D01*
X015349Y015179D01*
Y015179D01*
X015348Y015179D01*
X015348Y015180D01*
X015347Y015182D01*
X015346Y015185D01*
X015344Y015190D01*
X015343Y015195D01*
X015341Y015202D01*
X015340Y015209D01*
X015340Y015217D01*
Y015220D01*
X015340Y015222D01*
Y015224D01*
X015341Y015229D01*
X015342Y015235D01*
X015343Y015241D01*
X015344Y015247D01*
X015347Y015253D01*
Y015254D01*
X015347Y015254D01*
X015348Y015256D01*
X015349Y015259D01*
X015352Y015263D01*
X015354Y015267D01*
X015357Y015271D01*
X015361Y015276D01*
X015365Y015280D01*
X015366Y015281D01*
X015367Y015282D01*
X015370Y015284D01*
X015373Y015287D01*
X015377Y015289D01*
X015382Y015292D01*
X015388Y015294D01*
X015394Y015297D01*
X015394D01*
X015395Y015297D01*
X015396Y015297D01*
X015397Y015298D01*
X015401Y015299D01*
X015405Y015300D01*
X015411Y015301D01*
X015417Y015302D01*
X015425Y015302D01*
X015432Y015303D01*
X015433D01*
X015434D01*
X015435D01*
X015436D01*
X015440D01*
X015444Y015302D01*
D02*
G37*
G36*
X015206Y015099D02*
X015177D01*
Y015164D01*
X014955D01*
Y015106D01*
X014927D01*
Y015199D01*
X015177D01*
Y015258D01*
X015206D01*
Y015099D01*
D02*
G37*
G36*
X015291Y015054D02*
X015295Y015053D01*
X015298Y015052D01*
X015299D01*
X015299Y015051D01*
X015301Y015050D01*
X015304Y015048D01*
X015307Y015046D01*
X015308Y015045D01*
X015309Y015044D01*
X015311Y015041D01*
X015313Y015037D01*
Y015037D01*
X015313Y015036D01*
X015313Y015035D01*
X015314Y015034D01*
X015314Y015031D01*
X015315Y015027D01*
Y015025D01*
X015314Y015023D01*
X015314Y015020D01*
X015313Y015016D01*
Y015016D01*
X015312Y015015D01*
X015312Y015013D01*
X015310Y015010D01*
X015307Y015007D01*
X015307D01*
X015307Y015007D01*
X015305Y015005D01*
X015302Y015003D01*
X015298Y015002D01*
X015298D01*
X015297Y015001D01*
X015296Y015001D01*
X015295Y015001D01*
X015292Y015000D01*
X015288Y015000D01*
X015288D01*
X015287D01*
X015286D01*
X015285Y015000D01*
X015281Y015001D01*
X015277Y015002D01*
X015277D01*
X015276Y015002D01*
X015274Y015003D01*
X015272Y015005D01*
X015269Y015007D01*
X015269Y015008D01*
X015268Y015008D01*
X015267Y015010D01*
X015265Y015013D01*
X015263Y015016D01*
Y015016D01*
X015263Y015017D01*
X015262Y015018D01*
X015262Y015019D01*
X015261Y015023D01*
X015261Y015027D01*
Y015029D01*
X015261Y015030D01*
X015262Y015034D01*
X015263Y015037D01*
Y015038D01*
X015263Y015038D01*
X015264Y015039D01*
X015264Y015040D01*
X015266Y015043D01*
X015269Y015046D01*
Y015046D01*
X015270Y015047D01*
X015271Y015048D01*
X015274Y015050D01*
X015277Y015052D01*
X015278D01*
X015278Y015052D01*
X015279Y015052D01*
X015281Y015053D01*
X015284Y015054D01*
X015288Y015054D01*
X015288D01*
X015289D01*
X015290D01*
X015291Y015054D01*
D02*
G37*
G36*
X015543Y015047D02*
X015545D01*
X015550Y015047D01*
X015556Y015046D01*
X015562Y015045D01*
X015568Y015043D01*
X015574Y015042D01*
X015575D01*
X015575Y015041D01*
X015577Y015041D01*
X015580Y015039D01*
X015584Y015037D01*
X015588Y015035D01*
X015593Y015032D01*
X015597Y015028D01*
X015601Y015024D01*
X015602Y015024D01*
X015603Y015022D01*
X015605Y015020D01*
X015608Y015017D01*
X015610Y015013D01*
X015613Y015009D01*
X015616Y015003D01*
X015618Y014998D01*
Y014997D01*
X015619Y014997D01*
X015619Y014996D01*
X015619Y014995D01*
X015620Y014991D01*
X015621Y014987D01*
X015622Y014982D01*
X015623Y014976D01*
X015624Y014969D01*
X015624Y014961D01*
Y014956D01*
X015624Y014952D01*
X015623Y014948D01*
X015623Y014943D01*
X015621Y014933D01*
Y014932D01*
X015621Y014931D01*
X015620Y014928D01*
X015619Y014925D01*
X015619Y014921D01*
X015617Y014917D01*
X015614Y014908D01*
X015581D01*
Y014908D01*
X015582Y014909D01*
X015582Y014910D01*
X015583Y014912D01*
X015585Y014916D01*
X015587Y014921D01*
Y014921D01*
X015587Y014922D01*
X015588Y014923D01*
X015588Y014925D01*
X015589Y014927D01*
X015590Y014930D01*
X015591Y014935D01*
Y014936D01*
X015591Y014937D01*
X015592Y014938D01*
X015592Y014940D01*
X015593Y014942D01*
X015593Y014945D01*
X015594Y014950D01*
Y014951D01*
X015594Y014953D01*
Y014955D01*
X015595Y014957D01*
Y014959D01*
X015595Y014965D01*
Y014967D01*
X015595Y014968D01*
Y014970D01*
X015594Y014973D01*
X015593Y014978D01*
X015591Y014983D01*
X015589Y014989D01*
X015585Y014995D01*
X015583Y014997D01*
X015580Y015000D01*
X015580D01*
X015580Y015000D01*
X015578Y015002D01*
X015575Y015004D01*
X015570Y015006D01*
X015564Y015009D01*
X015557Y015011D01*
X015549Y015012D01*
X015539Y015013D01*
X015372D01*
Y014916D01*
X015344D01*
Y015048D01*
X015538D01*
X015538D01*
X015539D01*
X015540D01*
X015541D01*
X015543Y015047D01*
D02*
G37*
G36*
X015206Y015003D02*
X015174Y015002D01*
X015174Y015002D01*
X015175Y015000D01*
X015177Y014999D01*
X015180Y014997D01*
X015182Y014994D01*
X015185Y014991D01*
X015191Y014985D01*
X015191Y014985D01*
X015192Y014984D01*
X015193Y014982D01*
X015195Y014980D01*
X015196Y014978D01*
X015198Y014975D01*
X015202Y014969D01*
Y014969D01*
X015202Y014968D01*
X015203Y014966D01*
X015204Y014964D01*
X015205Y014962D01*
X015206Y014959D01*
X015207Y014953D01*
Y014953D01*
X015208Y014952D01*
X015208Y014950D01*
X015208Y014948D01*
X015209Y014946D01*
X015209Y014943D01*
X015209Y014937D01*
Y014934D01*
X015209Y014932D01*
X015209Y014929D01*
X015208Y014926D01*
X015207Y014919D01*
X015205Y014912D01*
X015202Y014904D01*
X015200Y014900D01*
X015197Y014897D01*
X015194Y014894D01*
X015191Y014891D01*
X015191D01*
X015190Y014890D01*
X015189Y014889D01*
X015188Y014888D01*
X015186Y014887D01*
X015184Y014886D01*
X015181Y014884D01*
X015178Y014883D01*
X015174Y014881D01*
X015170Y014880D01*
X015166Y014879D01*
X015161Y014878D01*
X015156Y014877D01*
X015150Y014876D01*
X015144Y014876D01*
X015137Y014875D01*
X015008D01*
Y014910D01*
X015135D01*
X015135D01*
X015137D01*
X015139Y014910D01*
X015142Y014910D01*
X015145Y014911D01*
X015149Y014912D01*
X015153Y014913D01*
X015157Y014914D01*
X015162Y014916D01*
X015166Y014918D01*
X015169Y014921D01*
X015173Y014924D01*
X015176Y014928D01*
X015178Y014933D01*
X015179Y014938D01*
X015180Y014944D01*
Y014946D01*
X015180Y014948D01*
X015179Y014952D01*
X015178Y014956D01*
Y014956D01*
X015178Y014957D01*
X015177Y014958D01*
X015177Y014960D01*
X015175Y014964D01*
X015172Y014968D01*
X015171Y014969D01*
X015171Y014970D01*
X015170Y014971D01*
X015168Y014973D01*
X015167Y014975D01*
X015165Y014977D01*
X015162Y014980D01*
X015159Y014983D01*
X015159Y014983D01*
X015158Y014984D01*
X015156Y014986D01*
X015154Y014988D01*
X015151Y014990D01*
X015148Y014993D01*
X015144Y014996D01*
X015139Y015000D01*
X015008D01*
Y015034D01*
X015206D01*
Y015003D01*
D02*
G37*
G36*
X015471Y014858D02*
X015476Y014858D01*
X015481Y014857D01*
X015486Y014856D01*
X015492Y014854D01*
X015497Y014852D01*
X015498Y014851D01*
X015500Y014850D01*
X015502Y014849D01*
X015506Y014846D01*
X015510Y014843D01*
X015514Y014840D01*
X015517Y014836D01*
X015521Y014831D01*
X015522Y014831D01*
X015523Y014829D01*
X015525Y014826D01*
X015527Y014822D01*
X015529Y014818D01*
X015532Y014812D01*
X015534Y014806D01*
X015537Y014799D01*
Y014799D01*
X015537Y014798D01*
Y014797D01*
X015537Y014796D01*
X015538Y014795D01*
X015538Y014793D01*
X015539Y014787D01*
X015540Y014781D01*
X015541Y014774D01*
X015541Y014767D01*
X015541Y014758D01*
Y014692D01*
X015284D01*
Y014768D01*
X015284Y014770D01*
Y014772D01*
X015285Y014778D01*
X015286Y014784D01*
X015287Y014791D01*
X015289Y014799D01*
X015292Y014807D01*
X015295Y014815D01*
X015299Y014823D01*
X015304Y014830D01*
X015311Y014836D01*
X015318Y014842D01*
X015322Y014844D01*
X015326Y014846D01*
X015331Y014848D01*
X015336Y014849D01*
X015341Y014849D01*
X015347Y014850D01*
X015347D01*
X015348D01*
X015349D01*
X015351D01*
X015352Y014849D01*
X015354Y014849D01*
X015359Y014848D01*
X015365Y014847D01*
X015371Y014845D01*
X015377Y014843D01*
X015383Y014840D01*
X015383Y014839D01*
X015385Y014838D01*
X015388Y014836D01*
X015391Y014832D01*
X015395Y014828D01*
X015398Y014822D01*
X015402Y014816D01*
X015405Y014808D01*
Y014808D01*
X015405Y014809D01*
X015406Y014811D01*
X015407Y014814D01*
X015408Y014817D01*
X015409Y014820D01*
X015412Y014827D01*
X015412Y014827D01*
X015413Y014829D01*
X015414Y014830D01*
X015415Y014833D01*
X015417Y014835D01*
X015419Y014838D01*
X015424Y014843D01*
X015424Y014844D01*
X015425Y014845D01*
X015427Y014846D01*
X015429Y014848D01*
X015432Y014849D01*
X015435Y014851D01*
X015438Y014853D01*
X015442Y014855D01*
X015442Y014855D01*
X015443Y014855D01*
X015446Y014856D01*
X015448Y014857D01*
X015452Y014857D01*
X015456Y014858D01*
X015460Y014858D01*
X015465Y014859D01*
X015465D01*
X015465D01*
X015466D01*
X015468D01*
X015471Y014858D01*
D02*
G37*
G36*
X015206Y014780D02*
X015168Y014779D01*
X015169D01*
X015169Y014778D01*
X015170Y014778D01*
X015172Y014776D01*
X015176Y014774D01*
X015180Y014770D01*
X015185Y014765D01*
X015190Y014760D01*
X015195Y014754D01*
X015199Y014748D01*
Y014748D01*
X015200Y014747D01*
X015200Y014746D01*
X015201Y014745D01*
X015202Y014742D01*
X015204Y014737D01*
X015206Y014732D01*
X015208Y014726D01*
X015209Y014719D01*
X015209Y014712D01*
Y014709D01*
X015209Y014706D01*
X015208Y014702D01*
X015208Y014697D01*
X015206Y014692D01*
X015205Y014687D01*
X015202Y014682D01*
X015202Y014681D01*
X015201Y014680D01*
X015199Y014677D01*
X015197Y014674D01*
X015194Y014671D01*
X015191Y014667D01*
X015187Y014664D01*
X015182Y014660D01*
X015182Y014660D01*
X015180Y014659D01*
X015177Y014657D01*
X015174Y014655D01*
X015169Y014653D01*
X015164Y014652D01*
X015158Y014649D01*
X015151Y014648D01*
X015151D01*
X015150Y014647D01*
X015149D01*
X015148Y014647D01*
X015147Y014647D01*
X015145Y014646D01*
X015140Y014646D01*
X015133Y014645D01*
X015127Y014644D01*
X015119Y014644D01*
X015111Y014643D01*
X015111D01*
X015110D01*
X015108D01*
X015107D01*
X015105Y014644D01*
X015102D01*
X015096Y014644D01*
X015089Y014645D01*
X015082Y014646D01*
X015074Y014648D01*
X015066Y014650D01*
X015066D01*
X015065Y014651D01*
X015064Y014651D01*
X015063Y014652D01*
X015059Y014653D01*
X015055Y014655D01*
X015049Y014658D01*
X015044Y014661D01*
X015038Y014665D01*
X015033Y014670D01*
X015032Y014670D01*
X015031Y014672D01*
X015028Y014674D01*
X015025Y014678D01*
X015022Y014683D01*
X015019Y014688D01*
X015016Y014694D01*
X015013Y014700D01*
Y014700D01*
X015012Y014701D01*
X015012Y014702D01*
X015012Y014703D01*
X015011Y014705D01*
X015010Y014707D01*
X015009Y014712D01*
X015008Y014718D01*
X015006Y014725D01*
X015006Y014732D01*
X015005Y014740D01*
Y014746D01*
X015006Y014749D01*
X015006Y014752D01*
X015007Y014758D01*
Y014759D01*
X015007Y014760D01*
X015007Y014762D01*
X015008Y014764D01*
X015008Y014767D01*
X015009Y014770D01*
X015011Y014777D01*
X014927D01*
Y014811D01*
X015206D01*
Y014780D01*
D02*
G37*
G36*
X015111Y014604D02*
X015113D01*
X015119Y014603D01*
X015126Y014602D01*
X015133Y014601D01*
X015140Y014600D01*
X015148Y014597D01*
X015148D01*
X015148Y014597D01*
X015149Y014597D01*
X015151Y014596D01*
X015154Y014595D01*
X015159Y014592D01*
X015164Y014590D01*
X015169Y014587D01*
X015175Y014583D01*
X015181Y014578D01*
X015181Y014578D01*
X015183Y014576D01*
X015185Y014573D01*
X015188Y014570D01*
X015192Y014566D01*
X015195Y014561D01*
X015199Y014555D01*
X015202Y014549D01*
Y014548D01*
X015202Y014548D01*
X015202Y014547D01*
X015203Y014546D01*
X015203Y014544D01*
X015204Y014542D01*
X015205Y014537D01*
X015207Y014531D01*
X015208Y014525D01*
X015209Y014517D01*
X015209Y014509D01*
Y014505D01*
X015209Y014504D01*
Y014501D01*
X015208Y014496D01*
X015208Y014490D01*
X015207Y014484D01*
X015205Y014477D01*
X015203Y014471D01*
Y014470D01*
X015202Y014470D01*
X015202Y014469D01*
X015201Y014468D01*
X015200Y014465D01*
X015198Y014461D01*
X015195Y014456D01*
X015192Y014452D01*
X015188Y014447D01*
X015183Y014442D01*
X015183Y014442D01*
X015181Y014440D01*
X015178Y014438D01*
X015174Y014436D01*
X015170Y014433D01*
X015165Y014430D01*
X015158Y014427D01*
X015152Y014424D01*
X015151D01*
X015151Y014424D01*
X015150Y014424D01*
X015148Y014423D01*
X015147Y014423D01*
X015145Y014422D01*
X015139Y014421D01*
X015133Y014420D01*
X015125Y014419D01*
X015117Y014419D01*
X015108Y014418D01*
X015108D01*
X015107D01*
X015106D01*
X015104D01*
X015102Y014419D01*
X015100D01*
X015094Y014419D01*
X015087Y014420D01*
X015081Y014421D01*
X015073Y014423D01*
X015066Y014425D01*
X015066D01*
X015065Y014425D01*
X015064Y014425D01*
X015063Y014426D01*
X015059Y014427D01*
X015055Y014429D01*
X015049Y014432D01*
X015044Y014435D01*
X015039Y014439D01*
X015033Y014443D01*
X015033Y014444D01*
X015031Y014446D01*
X015028Y014448D01*
X015025Y014452D01*
X015022Y014456D01*
X015019Y014461D01*
X015015Y014467D01*
X015012Y014473D01*
Y014473D01*
X015012Y014474D01*
X015011Y014475D01*
X015011Y014476D01*
X015010Y014478D01*
X015009Y014480D01*
X015008Y014485D01*
X015007Y014491D01*
X015005Y014497D01*
X015005Y014505D01*
X015004Y014513D01*
Y014517D01*
X015005Y014518D01*
Y014521D01*
X015005Y014526D01*
X015006Y014531D01*
X015007Y014538D01*
X015009Y014544D01*
X015011Y014551D01*
Y014551D01*
X015011Y014551D01*
X015012Y014552D01*
X015012Y014554D01*
X015014Y014557D01*
X015016Y014561D01*
X015019Y014565D01*
X015022Y014570D01*
X015026Y014575D01*
X015030Y014580D01*
X015031Y014580D01*
X015033Y014582D01*
X015035Y014584D01*
X015039Y014586D01*
X015044Y014589D01*
X015049Y014592D01*
X015055Y014595D01*
X015062Y014598D01*
X015062D01*
X015063Y014598D01*
X015064Y014598D01*
X015065Y014599D01*
X015067Y014599D01*
X015069Y014600D01*
X015074Y014601D01*
X015081Y014602D01*
X015088Y014603D01*
X015096Y014604D01*
X015105Y014604D01*
X015106D01*
X015106D01*
X015107D01*
X015109D01*
X015111Y014604D01*
D02*
G37*
G36*
X015541Y014376D02*
X015515Y014375D01*
X015515Y014375D01*
X015516Y014374D01*
X015517Y014373D01*
X015517Y014372D01*
X015520Y014369D01*
X015524Y014365D01*
X015528Y014360D01*
X015532Y014354D01*
X015535Y014348D01*
X015538Y014342D01*
Y014342D01*
X015538Y014341D01*
X015539Y014340D01*
X015539Y014339D01*
X015540Y014336D01*
X015541Y014331D01*
X015543Y014326D01*
X015544Y014320D01*
X015545Y014314D01*
X015545Y014307D01*
Y014304D01*
X015545Y014301D01*
X015544Y014297D01*
X015544Y014292D01*
X015543Y014288D01*
X015542Y014283D01*
X015541Y014278D01*
X015540Y014277D01*
X015540Y014276D01*
X015539Y014274D01*
X015538Y014271D01*
X015536Y014268D01*
X015534Y014265D01*
X015532Y014262D01*
X015529Y014258D01*
X015529Y014258D01*
X015528Y014257D01*
X015526Y014256D01*
X015524Y014254D01*
X015521Y014252D01*
X015518Y014250D01*
X015515Y014249D01*
X015511Y014247D01*
X015511D01*
X015509Y014246D01*
X015507Y014246D01*
X015504Y014245D01*
X015501Y014245D01*
X015497Y014244D01*
X015493Y014244D01*
X015489Y014243D01*
X015488D01*
X015487D01*
X015486D01*
X015484Y014244D01*
X015481Y014244D01*
X015478Y014245D01*
X015472Y014246D01*
X015464Y014249D01*
X015460Y014251D01*
X015456Y014253D01*
X015453Y014255D01*
X015449Y014258D01*
X015445Y014262D01*
X015442Y014265D01*
X015442Y014266D01*
X015441Y014266D01*
X015440Y014268D01*
X015439Y014270D01*
X015438Y014272D01*
X015437Y014275D01*
X015435Y014278D01*
X015434Y014282D01*
X015432Y014286D01*
X015430Y014291D01*
X015429Y014297D01*
X015428Y014303D01*
X015427Y014309D01*
X015426Y014316D01*
X015425Y014323D01*
X015425Y014331D01*
Y014372D01*
X015408D01*
X015408D01*
X015407D01*
X015406D01*
X015405Y014372D01*
X015402Y014371D01*
X015398Y014371D01*
X015394Y014369D01*
X015389Y014367D01*
X015384Y014365D01*
X015380Y014361D01*
X015380Y014360D01*
X015378Y014359D01*
X015377Y014356D01*
X015374Y014352D01*
X015373Y014347D01*
X015371Y014342D01*
X015370Y014335D01*
X015369Y014326D01*
Y014324D01*
X015370Y014320D01*
Y014316D01*
X015370Y014311D01*
X015371Y014305D01*
X015372Y014300D01*
X015373Y014293D01*
Y014293D01*
X015374Y014292D01*
X015374Y014290D01*
X015375Y014287D01*
X015376Y014283D01*
X015377Y014278D01*
X015379Y014272D01*
X015381Y014266D01*
X015384Y014260D01*
X015353D01*
Y014260D01*
X015353Y014261D01*
X015352Y014262D01*
X015352Y014264D01*
X015351Y014266D01*
X015350Y014268D01*
X015348Y014274D01*
Y014274D01*
X015348Y014275D01*
X015347Y014277D01*
X015347Y014279D01*
X015346Y014282D01*
X015346Y014285D01*
X015344Y014291D01*
Y014291D01*
X015344Y014293D01*
X015344Y014294D01*
X015343Y014297D01*
X015343Y014300D01*
X015342Y014303D01*
X015341Y014309D01*
Y014310D01*
X015341Y014311D01*
Y014313D01*
X015341Y014316D01*
X015340Y014319D01*
Y014322D01*
X015340Y014329D01*
Y014332D01*
X015340Y014336D01*
X015341Y014340D01*
X015341Y014345D01*
X015342Y014350D01*
X015343Y014356D01*
X015344Y014361D01*
Y014362D01*
X015345Y014362D01*
X015345Y014364D01*
X015346Y014366D01*
X015347Y014370D01*
X015349Y014373D01*
X015351Y014378D01*
X015353Y014382D01*
X015356Y014385D01*
X015357Y014386D01*
X015358Y014387D01*
X015360Y014389D01*
X015362Y014391D01*
X015365Y014394D01*
X015368Y014396D01*
X015372Y014399D01*
X015376Y014401D01*
X015377Y014401D01*
X015379Y014402D01*
X015381Y014403D01*
X015385Y014404D01*
X015389Y014405D01*
X015394Y014406D01*
X015399Y014406D01*
X015405Y014406D01*
X015541D01*
Y014376D01*
D02*
G37*
G36*
X015206Y014356D02*
X015045Y014351D01*
X014984Y014349D01*
X015019Y014337D01*
X015122Y014299D01*
Y014275D01*
X015023Y014239D01*
X014984Y014226D01*
X015047Y014226D01*
X015206Y014221D01*
Y014188D01*
X014948Y014201D01*
Y014242D01*
X015045Y014277D01*
X015078Y014288D01*
X015045Y014299D01*
X014948Y014336D01*
Y014378D01*
X015206Y014391D01*
Y014356D01*
D02*
G37*
G36*
X015491Y014183D02*
X015494D01*
X015497Y014182D01*
X015500Y014182D01*
X015503Y014181D01*
X015506Y014180D01*
X015507D01*
X015508Y014179D01*
X015509Y014179D01*
X015511Y014177D01*
X015516Y014174D01*
X015521Y014170D01*
X015521Y014170D01*
X015522Y014169D01*
X015523Y014168D01*
X015525Y014166D01*
X015526Y014164D01*
X015528Y014161D01*
X015532Y014156D01*
X015532Y014156D01*
X015533Y014155D01*
X015534Y014153D01*
X015535Y014151D01*
X015536Y014148D01*
X015537Y014145D01*
X015539Y014139D01*
Y014138D01*
X015540Y014137D01*
X015540Y014135D01*
X015541Y014133D01*
X015541Y014130D01*
X015542Y014127D01*
X015543Y014120D01*
Y014119D01*
X015544Y014118D01*
X015544Y014116D01*
Y014114D01*
X015544Y014111D01*
X015545Y014108D01*
X015545Y014101D01*
Y014094D01*
X015545Y014089D01*
Y014083D01*
X015544Y014077D01*
X015544Y014071D01*
X015543Y014064D01*
Y014063D01*
X015543Y014062D01*
Y014061D01*
X015542Y014058D01*
X015542Y014054D01*
X015541Y014049D01*
X015540Y014043D01*
X015539Y014037D01*
X015538Y014031D01*
X015506D01*
Y014032D01*
X015506Y014032D01*
Y014033D01*
X015507Y014034D01*
X015508Y014037D01*
X015509Y014042D01*
X015510Y014047D01*
X015512Y014053D01*
X015513Y014059D01*
X015514Y014065D01*
Y014066D01*
X015514Y014067D01*
Y014068D01*
X015515Y014072D01*
X015515Y014076D01*
X015516Y014081D01*
X015516Y014087D01*
X015516Y014093D01*
Y014103D01*
X015516Y014106D01*
Y014108D01*
X015515Y014113D01*
X015515Y014119D01*
X015514Y014125D01*
X015512Y014131D01*
X015510Y014136D01*
X015509Y014137D01*
X015508Y014138D01*
X015507Y014140D01*
X015505Y014142D01*
X015502Y014144D01*
X015498Y014146D01*
X015495Y014147D01*
X015490Y014148D01*
X015490D01*
X015489D01*
X015488D01*
X015487Y014148D01*
X015484Y014147D01*
X015481Y014146D01*
X015480D01*
X015480Y014146D01*
X015478Y014144D01*
X015476Y014142D01*
X015473Y014139D01*
X015473Y014139D01*
X015472Y014138D01*
X015472Y014137D01*
X015470Y014136D01*
X015469Y014133D01*
X015468Y014131D01*
X015466Y014127D01*
X015465Y014124D01*
X015465Y014123D01*
X015464Y014122D01*
X015463Y014119D01*
X015462Y014117D01*
X015461Y014113D01*
X015459Y014108D01*
X015457Y014102D01*
X015455Y014096D01*
X015455Y014095D01*
X015455Y014094D01*
X015454Y014091D01*
X015453Y014088D01*
X015451Y014084D01*
X015450Y014080D01*
X015446Y014071D01*
X015446Y014071D01*
X015445Y014069D01*
X015444Y014067D01*
X015443Y014064D01*
X015441Y014061D01*
X015439Y014058D01*
X015435Y014051D01*
X015434Y014051D01*
X015433Y014050D01*
X015432Y014048D01*
X015430Y014047D01*
X015428Y014045D01*
X015425Y014042D01*
X015422Y014040D01*
X015418Y014038D01*
X015418Y014038D01*
X015417Y014038D01*
X015415Y014037D01*
X015412Y014036D01*
X015409Y014035D01*
X015405Y014035D01*
X015401Y014034D01*
X015396Y014034D01*
X015396D01*
X015395D01*
X015393Y014034D01*
X015391D01*
X015389Y014035D01*
X015385Y014036D01*
X015382Y014036D01*
X015378Y014037D01*
X015378Y014038D01*
X015377Y014038D01*
X015375Y014039D01*
X015372Y014041D01*
X015370Y014042D01*
X015366Y014045D01*
X015363Y014047D01*
X015360Y014051D01*
X015360Y014051D01*
X015359Y014052D01*
X015357Y014054D01*
X015355Y014057D01*
X015353Y014061D01*
X015351Y014065D01*
X015348Y014070D01*
X015346Y014076D01*
Y014076D01*
X015346Y014076D01*
X015345Y014077D01*
X015345Y014078D01*
X015344Y014082D01*
X015343Y014086D01*
X015342Y014092D01*
X015341Y014099D01*
X015340Y014106D01*
X015340Y014115D01*
Y014122D01*
X015340Y014126D01*
X015341Y014131D01*
X015341Y014135D01*
X015341Y014140D01*
Y014141D01*
X015342Y014143D01*
X015342Y014146D01*
X015342Y014150D01*
X015343Y014154D01*
X015344Y014159D01*
X015345Y014165D01*
X015346Y014170D01*
X015376D01*
Y014170D01*
X015376Y014170D01*
Y014169D01*
X015375Y014168D01*
X015375Y014164D01*
X015374Y014160D01*
X015373Y014156D01*
X015372Y014150D01*
X015371Y014139D01*
Y014139D01*
X015370Y014137D01*
X015370Y014134D01*
X015370Y014131D01*
X015369Y014127D01*
X015369Y014123D01*
X015369Y014119D01*
Y014110D01*
X015369Y014107D01*
X015369Y014104D01*
X015370Y014100D01*
X015370Y014097D01*
X015371Y014093D01*
Y014093D01*
X015371Y014092D01*
X015372Y014090D01*
X015372Y014088D01*
X015374Y014083D01*
X015376Y014079D01*
Y014078D01*
X015377Y014078D01*
X015379Y014076D01*
X015381Y014074D01*
X015384Y014071D01*
X015385D01*
X015385Y014071D01*
X015386Y014071D01*
X015387Y014070D01*
X015391Y014069D01*
X015394Y014069D01*
X015394D01*
X015395D01*
X015396D01*
X015397Y014069D01*
X015400Y014070D01*
X015404Y014071D01*
X015404D01*
X015405Y014071D01*
X015407Y014073D01*
X015409Y014075D01*
X015411Y014077D01*
X015412Y014078D01*
X015413Y014079D01*
X015413Y014079D01*
X015414Y014081D01*
X015415Y014082D01*
X015416Y014085D01*
X015417Y014087D01*
X015419Y014090D01*
X015420Y014094D01*
X015421Y014094D01*
X015421Y014096D01*
X015422Y014098D01*
X015423Y014101D01*
X015424Y014105D01*
X015426Y014109D01*
X015428Y014115D01*
X015429Y014120D01*
Y014121D01*
X015430Y014121D01*
Y014122D01*
X015430Y014123D01*
X015431Y014127D01*
X015433Y014131D01*
X015434Y014135D01*
X015436Y014140D01*
X015438Y014145D01*
X015440Y014150D01*
X015440Y014150D01*
X015441Y014152D01*
X015442Y014154D01*
X015443Y014157D01*
X015445Y014160D01*
X015447Y014163D01*
X015450Y014166D01*
X015452Y014169D01*
X015453Y014170D01*
X015454Y014171D01*
X015455Y014172D01*
X015457Y014174D01*
X015459Y014175D01*
X015462Y014177D01*
X015465Y014179D01*
X015468Y014180D01*
X015468D01*
X015470Y014181D01*
X015471Y014181D01*
X015474Y014182D01*
X015476Y014182D01*
X015480Y014183D01*
X015484Y014183D01*
X015488D01*
X015488D01*
X015489D01*
X015491Y014183D01*
D02*
G37*
G36*
X015541Y013936D02*
X015435Y013844D01*
X015541D01*
Y013810D01*
X015263D01*
Y013844D01*
X015434D01*
X015344Y013933D01*
Y013978D01*
X015435Y013885D01*
X015541Y013983D01*
Y013936D01*
D02*
G37*
G36*
X015206Y013916D02*
X015149Y013899D01*
Y013791D01*
X015206Y013773D01*
Y013737D01*
X014948Y013822D01*
Y013870D01*
X015206Y013955D01*
Y013916D01*
D02*
G37*
G36*
X015444Y013750D02*
X015445D01*
X015445D01*
X015446D01*
X015447Y013750D01*
X015450D01*
X015454Y013750D01*
Y013611D01*
X015454D01*
X015455D01*
X015456D01*
X015458Y013611D01*
X015461Y013611D01*
X015464Y013612D01*
X015471Y013613D01*
X015478Y013615D01*
X015486Y013618D01*
X015490Y013620D01*
X015494Y013622D01*
X015497Y013625D01*
X015500Y013627D01*
X015501Y013628D01*
X015501Y013628D01*
X015502Y013629D01*
X015503Y013631D01*
X015504Y013632D01*
X015505Y013635D01*
X015507Y013637D01*
X015508Y013640D01*
X015510Y013643D01*
X015511Y013647D01*
X015513Y013651D01*
X015514Y013655D01*
X015515Y013660D01*
X015516Y013665D01*
X015516Y013670D01*
X015517Y013676D01*
Y013682D01*
X015516Y013685D01*
Y013688D01*
X015516Y013694D01*
Y013695D01*
X015516Y013697D01*
Y013699D01*
X015515Y013702D01*
X015515Y013705D01*
X015514Y013710D01*
Y013711D01*
X015514Y013712D01*
X015514Y013713D01*
X015513Y013715D01*
X015513Y013718D01*
X015513Y013720D01*
X015512Y013726D01*
Y013726D01*
X015511Y013727D01*
X015511Y013729D01*
X015511Y013730D01*
X015509Y013735D01*
X015508Y013740D01*
X015536D01*
Y013739D01*
X015537Y013737D01*
X015538Y013735D01*
X015538Y013731D01*
X015539Y013726D01*
X015540Y013721D01*
X015541Y013715D01*
X015542Y013708D01*
Y013708D01*
X015543Y013707D01*
Y013705D01*
X015543Y013702D01*
X015544Y013697D01*
X015544Y013691D01*
X015545Y013685D01*
X015545Y013679D01*
Y013668D01*
X015545Y013665D01*
Y013663D01*
X015544Y013657D01*
X015543Y013650D01*
X015542Y013643D01*
X015540Y013635D01*
X015538Y013628D01*
Y013627D01*
X015538Y013627D01*
X015538Y013626D01*
X015537Y013625D01*
X015535Y013621D01*
X015533Y013617D01*
X015530Y013612D01*
X015527Y013607D01*
X015523Y013602D01*
X015518Y013598D01*
X015517Y013597D01*
X015516Y013596D01*
X015513Y013594D01*
X015509Y013591D01*
X015505Y013588D01*
X015499Y013586D01*
X015493Y013583D01*
X015486Y013581D01*
X015486D01*
X015485Y013580D01*
X015484Y013580D01*
X015483Y013580D01*
X015481Y013579D01*
X015479Y013579D01*
X015474Y013578D01*
X015467Y013577D01*
X015460Y013576D01*
X015452Y013575D01*
X015443Y013575D01*
X015443D01*
X015442D01*
X015441D01*
X015439D01*
X015437Y013575D01*
X015435D01*
X015430Y013576D01*
X015424Y013576D01*
X015417Y013578D01*
X015411Y013579D01*
X015404Y013581D01*
X015403D01*
X015403Y013581D01*
X015402Y013582D01*
X015400Y013582D01*
X015397Y013584D01*
X015393Y013585D01*
X015388Y013588D01*
X015382Y013591D01*
X015376Y013594D01*
X015371Y013598D01*
X015371D01*
X015370Y013599D01*
X015369Y013600D01*
X015366Y013603D01*
X015363Y013606D01*
X015359Y013610D01*
X015355Y013615D01*
X015352Y013621D01*
X015349Y013627D01*
Y013627D01*
X015348Y013627D01*
X015348Y013628D01*
X015347Y013629D01*
X015346Y013633D01*
X015344Y013638D01*
X015343Y013643D01*
X015341Y013649D01*
X015340Y013657D01*
X015340Y013665D01*
Y013668D01*
X015340Y013670D01*
Y013672D01*
X015341Y013677D01*
X015342Y013683D01*
X015343Y013689D01*
X015344Y013695D01*
X015347Y013701D01*
Y013702D01*
X015347Y013702D01*
X015348Y013704D01*
X015349Y013707D01*
X015352Y013711D01*
X015354Y013715D01*
X015357Y013719D01*
X015361Y013724D01*
X015365Y013728D01*
X015366Y013729D01*
X015367Y013730D01*
X015370Y013732D01*
X015373Y013734D01*
X015377Y013737D01*
X015382Y013740D01*
X015388Y013742D01*
X015394Y013745D01*
X015394D01*
X015395Y013745D01*
X015396Y013745D01*
X015397Y013746D01*
X015401Y013747D01*
X015405Y013748D01*
X015411Y013749D01*
X015417Y013750D01*
X015425Y013750D01*
X015432Y013750D01*
X015433D01*
X015434D01*
X015435D01*
X015436D01*
X015440D01*
X015444Y013750D01*
D02*
G37*
G36*
X015194Y013712D02*
X015194Y013711D01*
X015195Y013710D01*
X015196Y013708D01*
X015197Y013705D01*
X015198Y013702D01*
X015200Y013695D01*
Y013695D01*
X015201Y013694D01*
X015201Y013692D01*
X015202Y013690D01*
X015203Y013687D01*
X015204Y013684D01*
X015205Y013677D01*
Y013677D01*
X015206Y013675D01*
X015206Y013674D01*
X015206Y013671D01*
X015207Y013668D01*
X015207Y013666D01*
X015208Y013659D01*
Y013658D01*
X015208Y013657D01*
Y013655D01*
X015209Y013653D01*
X015209Y013650D01*
Y013647D01*
X015209Y013641D01*
Y013636D01*
X015209Y013634D01*
Y013631D01*
X015209Y013628D01*
X015208Y013625D01*
X015207Y013617D01*
X015206Y013609D01*
X015204Y013601D01*
X015201Y013593D01*
Y013593D01*
X015201Y013592D01*
X015200Y013591D01*
X015199Y013589D01*
X015199Y013588D01*
X015197Y013586D01*
X015195Y013581D01*
X015191Y013575D01*
X015187Y013569D01*
X015182Y013563D01*
X015177Y013557D01*
X015176D01*
X015176Y013556D01*
X015175Y013556D01*
X015174Y013555D01*
X015172Y013553D01*
X015170Y013552D01*
X015166Y013549D01*
X015160Y013545D01*
X015153Y013541D01*
X015145Y013538D01*
X015136Y013534D01*
X015136D01*
X015135Y013534D01*
X015134Y013534D01*
X015132Y013533D01*
X015129Y013532D01*
X015127Y013532D01*
X015124Y013531D01*
X015120Y013530D01*
X015116Y013530D01*
X015112Y013529D01*
X015102Y013528D01*
X015091Y013527D01*
X015080Y013526D01*
X015080D01*
X015079D01*
X015077D01*
X015075D01*
X015072Y013527D01*
X015068D01*
X015065Y013527D01*
X015061Y013527D01*
X015052Y013529D01*
X015043Y013530D01*
X015033Y013532D01*
X015023Y013535D01*
X015023D01*
X015022Y013536D01*
X015021Y013536D01*
X015019Y013537D01*
X015017Y013538D01*
X015014Y013539D01*
X015008Y013542D01*
X015002Y013545D01*
X014995Y013549D01*
X014987Y013554D01*
X014981Y013560D01*
X014980Y013560D01*
X014980Y013561D01*
X014979Y013562D01*
X014978Y013563D01*
X014974Y013566D01*
X014970Y013571D01*
X014966Y013576D01*
X014962Y013583D01*
X014958Y013590D01*
X014954Y013599D01*
Y013599D01*
X014953Y013600D01*
X014953Y013601D01*
X014952Y013603D01*
X014951Y013605D01*
X014951Y013607D01*
X014950Y013610D01*
X014949Y013613D01*
X014947Y013621D01*
X014946Y013629D01*
X014945Y013639D01*
X014944Y013648D01*
Y013655D01*
X014945Y013659D01*
X014945Y013664D01*
X014946Y013669D01*
X014948Y013681D01*
Y013682D01*
X014948Y013684D01*
X014949Y013687D01*
X014950Y013691D01*
X014951Y013696D01*
X014953Y013701D01*
X014955Y013706D01*
X014957Y013711D01*
X014992D01*
X014992Y013711D01*
X014991Y013709D01*
X014989Y013706D01*
X014988Y013702D01*
X014986Y013698D01*
X014984Y013693D01*
X014982Y013687D01*
X014980Y013682D01*
X014980Y013681D01*
X014980Y013679D01*
X014979Y013676D01*
X014978Y013672D01*
X014977Y013667D01*
X014977Y013661D01*
X014976Y013655D01*
X014976Y013649D01*
Y013646D01*
X014976Y013644D01*
Y013642D01*
X014977Y013637D01*
X014978Y013631D01*
X014979Y013625D01*
X014981Y013619D01*
X014984Y013612D01*
Y013612D01*
X014984Y013612D01*
X014985Y013610D01*
X014986Y013607D01*
X014989Y013603D01*
X014992Y013599D01*
X014995Y013594D01*
X014999Y013590D01*
X015004Y013586D01*
X015005Y013585D01*
X015006Y013584D01*
X015009Y013582D01*
X015013Y013579D01*
X015018Y013577D01*
X015023Y013574D01*
X015029Y013571D01*
X015036Y013569D01*
X015036D01*
X015037Y013568D01*
X015038Y013568D01*
X015039Y013568D01*
X015041Y013567D01*
X015043Y013567D01*
X015048Y013566D01*
X015054Y013565D01*
X015062Y013564D01*
X015069Y013564D01*
X015078Y013563D01*
X015078D01*
X015079D01*
X015080D01*
X015082D01*
X015084D01*
X015086Y013564D01*
X015092Y013564D01*
X015098Y013564D01*
X015106Y013565D01*
X015113Y013566D01*
X015120Y013568D01*
X015120D01*
X015121Y013568D01*
X015122Y013568D01*
X015123Y013569D01*
X015127Y013570D01*
X015131Y013571D01*
X015136Y013573D01*
X015141Y013576D01*
X015147Y013579D01*
X015152Y013582D01*
X015152Y013583D01*
X015154Y013584D01*
X015156Y013586D01*
X015159Y013589D01*
X015162Y013593D01*
X015166Y013597D01*
X015168Y013603D01*
X015171Y013608D01*
Y013608D01*
X015172Y013609D01*
X015172Y013610D01*
X015172Y013611D01*
X015174Y013614D01*
X015175Y013619D01*
X015176Y013624D01*
X015177Y013630D01*
X015178Y013638D01*
X015178Y013646D01*
Y013651D01*
X015178Y013654D01*
Y013654D01*
X015178Y013656D01*
X015177Y013659D01*
X015177Y013662D01*
Y013663D01*
X015177Y013665D01*
X015176Y013668D01*
X015175Y013670D01*
Y013671D01*
X015175Y013671D01*
X015175Y013673D01*
X015174Y013675D01*
X015173Y013678D01*
X015091D01*
Y013626D01*
X015062D01*
Y013713D01*
X015194D01*
Y013712D01*
D02*
G37*
G36*
X015541Y013364D02*
X015513D01*
Y013429D01*
X015291D01*
Y013371D01*
X015263D01*
Y013464D01*
X015513D01*
Y013523D01*
X015541D01*
Y013364D01*
D02*
G37*
G36*
X015033Y013491D02*
X015037Y013491D01*
X015042Y013490D01*
X015047Y013489D01*
X015052Y013488D01*
X015058Y013486D01*
X015059D01*
X015059Y013485D01*
X015061Y013485D01*
X015064Y013483D01*
X015067Y013481D01*
X015072Y013479D01*
X015076Y013476D01*
X015081Y013472D01*
X015086Y013467D01*
X015086Y013467D01*
X015088Y013465D01*
X015090Y013463D01*
X015093Y013459D01*
X015096Y013454D01*
X015099Y013449D01*
X015103Y013442D01*
X015106Y013436D01*
Y013435D01*
X015106Y013435D01*
X015106Y013434D01*
X015107Y013432D01*
X015107Y013430D01*
X015108Y013428D01*
X015108Y013425D01*
X015109Y013422D01*
X015111Y013416D01*
X015112Y013408D01*
X015113Y013399D01*
X015113Y013390D01*
Y013358D01*
X015206D01*
Y013323D01*
X014948D01*
Y013400D01*
X014948Y013402D01*
X014949Y013407D01*
X014949Y013412D01*
X014950Y013419D01*
X014951Y013425D01*
X014952Y013432D01*
Y013432D01*
X014953Y013432D01*
Y013433D01*
X014953Y013435D01*
X014954Y013438D01*
X014956Y013442D01*
X014958Y013447D01*
X014960Y013452D01*
X014963Y013457D01*
X014966Y013462D01*
X014966Y013463D01*
X014968Y013464D01*
X014970Y013467D01*
X014973Y013470D01*
X014976Y013473D01*
X014981Y013477D01*
X014985Y013480D01*
X014991Y013484D01*
X014991Y013484D01*
X014993Y013485D01*
X014997Y013486D01*
X015001Y013488D01*
X015006Y013489D01*
X015012Y013490D01*
X015019Y013491D01*
X015027Y013492D01*
X015027D01*
X015028D01*
X015030D01*
X015033Y013491D01*
D02*
G37*
G36*
X015541Y013290D02*
X015485Y013272D01*
Y013165D01*
X015541Y013147D01*
Y013110D01*
X015284Y013196D01*
Y013244D01*
X015541Y013328D01*
Y013290D01*
D02*
G37*
G36*
X014978Y013146D02*
X015062D01*
Y013250D01*
X015091D01*
Y013146D01*
X015206D01*
Y013110D01*
X014948D01*
Y013256D01*
X014978D01*
Y013146D01*
D02*
G37*
%LPC*%
G36*
X015091Y016115D02*
X015091D01*
X015089D01*
X015087D01*
X015084Y016115D01*
X015080Y016114D01*
X015076Y016114D01*
X015072Y016113D01*
X015067Y016112D01*
X015067D01*
X015066Y016111D01*
X015064Y016111D01*
X015061Y016110D01*
X015058Y016108D01*
X015055Y016107D01*
X015051Y016105D01*
X015048Y016103D01*
X015048Y016102D01*
X015047Y016101D01*
X015046Y016100D01*
X015044Y016098D01*
X015042Y016096D01*
X015040Y016093D01*
X015038Y016090D01*
X015036Y016086D01*
X015036Y016086D01*
X015035Y016085D01*
X015035Y016082D01*
X015034Y016080D01*
X015033Y016076D01*
X015032Y016072D01*
X015032Y016068D01*
X015031Y016063D01*
Y016061D01*
X015032Y016059D01*
X015032Y016057D01*
X015032Y016053D01*
X015033Y016050D01*
X015034Y016046D01*
X015036Y016043D01*
X015036Y016043D01*
X015037Y016041D01*
X015038Y016040D01*
X015039Y016037D01*
X015041Y016035D01*
X015043Y016032D01*
X015045Y016029D01*
X015048Y016027D01*
X015048Y016026D01*
X015049Y016026D01*
X015051Y016025D01*
X015053Y016023D01*
X015056Y016021D01*
X015060Y016020D01*
X015063Y016018D01*
X015067Y016016D01*
X015068D01*
X015069Y016015D01*
X015071Y016015D01*
X015074Y016014D01*
X015078Y016013D01*
X015082Y016012D01*
X015086Y016012D01*
X015091Y016011D01*
Y016115D01*
D02*
G37*
G36*
X015023Y015882D02*
X015019D01*
X015019D01*
X015018D01*
X015017D01*
X015016Y015881D01*
X015012Y015881D01*
X015007Y015880D01*
X015002Y015878D01*
X014997Y015876D01*
X014992Y015873D01*
X014988Y015868D01*
X014988Y015868D01*
X014986Y015866D01*
X014985Y015863D01*
X014983Y015859D01*
X014981Y015854D01*
X014979Y015848D01*
X014978Y015840D01*
X014978Y015832D01*
Y015799D01*
X015063D01*
Y015832D01*
X015063Y015835D01*
X015062Y015838D01*
X015062Y015842D01*
X015060Y015850D01*
Y015850D01*
X015060Y015851D01*
X015059Y015853D01*
X015058Y015856D01*
X015055Y015861D01*
X015052Y015866D01*
X015051Y015867D01*
X015051Y015868D01*
X015049Y015869D01*
X015048Y015871D01*
X015046Y015872D01*
X015044Y015874D01*
X015038Y015878D01*
X015038Y015878D01*
X015037Y015878D01*
X015035Y015879D01*
X015032Y015880D01*
X015030Y015880D01*
X015026Y015881D01*
X015023Y015882D01*
D02*
G37*
G36*
X015408Y015920D02*
X015408D01*
X015407D01*
X015405D01*
X015403Y015920D01*
X015400Y015919D01*
X015397Y015919D01*
X015391Y015917D01*
X015391D01*
X015390Y015916D01*
X015388Y015915D01*
X015387Y015914D01*
X015382Y015911D01*
X015378Y015908D01*
X015377Y015907D01*
X015377Y015907D01*
X015376Y015905D01*
X015374Y015904D01*
X015373Y015902D01*
X015372Y015900D01*
X015369Y015894D01*
Y015894D01*
X015369Y015893D01*
X015368Y015891D01*
X015368Y015889D01*
X015367Y015887D01*
X015367Y015884D01*
X015366Y015877D01*
Y015876D01*
X015366Y015874D01*
Y015871D01*
X015367Y015868D01*
X015368Y015865D01*
X015368Y015862D01*
X015370Y015859D01*
Y015859D01*
X015370Y015858D01*
X015371Y015856D01*
X015372Y015854D01*
X015375Y015850D01*
X015379Y015845D01*
X015379Y015845D01*
X015380Y015844D01*
X015381Y015843D01*
X015383Y015842D01*
X015385Y015841D01*
X015387Y015840D01*
X015393Y015837D01*
X015393D01*
X015394Y015837D01*
X015395Y015837D01*
X015397Y015836D01*
X015400Y015836D01*
X015402Y015835D01*
X015408Y015835D01*
X015409D01*
X015410D01*
X015412Y015835D01*
X015414D01*
X015417Y015835D01*
X015420Y015836D01*
X015426Y015838D01*
X015426D01*
X015427Y015838D01*
X015428Y015839D01*
X015430Y015840D01*
X015435Y015843D01*
X015439Y015846D01*
X015439Y015847D01*
X015440Y015847D01*
X015441Y015849D01*
X015442Y015850D01*
X015444Y015852D01*
X015445Y015855D01*
X015448Y015860D01*
Y015860D01*
X015448Y015861D01*
X015449Y015863D01*
X015449Y015865D01*
X015450Y015868D01*
X015450Y015871D01*
X015451Y015877D01*
Y015879D01*
X015450Y015881D01*
Y015883D01*
X015450Y015886D01*
X015449Y015889D01*
X015447Y015895D01*
X015447Y015896D01*
X015447Y015897D01*
X015446Y015898D01*
X015445Y015900D01*
X015442Y015904D01*
X015438Y015908D01*
X015437Y015909D01*
X015437Y015909D01*
X015435Y015910D01*
X015434Y015912D01*
X015432Y015913D01*
X015430Y015914D01*
X015424Y015917D01*
X015424D01*
X015423Y015917D01*
X015421Y015918D01*
X015419Y015919D01*
X015417Y015919D01*
X015415Y015920D01*
X015408Y015920D01*
D02*
G37*
G36*
X015562Y015937D02*
X015561D01*
X015560D01*
X015558Y015937D01*
X015555Y015936D01*
X015553Y015935D01*
X015550Y015933D01*
X015547Y015931D01*
X015544Y015927D01*
X015544Y015927D01*
X015543Y015925D01*
X015542Y015923D01*
X015541Y015920D01*
X015540Y015916D01*
X015539Y015911D01*
X015538Y015904D01*
X015538Y015897D01*
X015536Y015846D01*
X015537Y015845D01*
X015537Y015845D01*
X015538Y015843D01*
X015539Y015842D01*
X015541Y015839D01*
X015544Y015835D01*
X015545Y015835D01*
X015545Y015834D01*
X015547Y015833D01*
X015550Y015830D01*
X015553Y015828D01*
X015553D01*
X015554Y015828D01*
X015556Y015827D01*
X015558Y015826D01*
X015561Y015825D01*
X015561D01*
X015562D01*
X015564Y015825D01*
X015567Y015824D01*
X015570Y015824D01*
X015571D01*
X015572Y015824D01*
X015575Y015825D01*
X015578Y015826D01*
X015581Y015828D01*
X015584Y015830D01*
X015588Y015834D01*
X015589Y015836D01*
X015590Y015839D01*
Y015839D01*
X015591Y015839D01*
X015591Y015840D01*
X015591Y015841D01*
X015592Y015844D01*
X015594Y015849D01*
X015595Y015855D01*
X015596Y015862D01*
X015597Y015870D01*
X015597Y015879D01*
Y015882D01*
X015597Y015885D01*
Y015889D01*
X015596Y015893D01*
X015596Y015898D01*
X015595Y015902D01*
X015594Y015906D01*
Y015907D01*
X015593Y015908D01*
X015592Y015910D01*
X015592Y015913D01*
X015589Y015919D01*
X015587Y015922D01*
X015586Y015924D01*
X015585Y015925D01*
X015585Y015925D01*
X015584Y015927D01*
X015583Y015928D01*
X015579Y015932D01*
X015577Y015933D01*
X015575Y015934D01*
X015575D01*
X015574Y015935D01*
X015573Y015935D01*
X015571Y015936D01*
X015567Y015937D01*
X015562Y015937D01*
D02*
G37*
G36*
X015448Y015716D02*
X015443D01*
X015442D01*
X015442D01*
X015441D01*
X015440D01*
X015436Y015716D01*
X015432Y015716D01*
X015427Y015715D01*
X015421Y015715D01*
X015416Y015713D01*
X015411Y015712D01*
X015410Y015712D01*
X015409Y015711D01*
X015406Y015710D01*
X015403Y015709D01*
X015399Y015707D01*
X015395Y015705D01*
X015392Y015703D01*
X015388Y015700D01*
X015388Y015700D01*
X015386Y015699D01*
X015385Y015697D01*
X015383Y015695D01*
X015380Y015693D01*
X015378Y015690D01*
X015376Y015686D01*
X015374Y015682D01*
X015374Y015682D01*
X015374Y015680D01*
X015373Y015678D01*
X015372Y015675D01*
X015371Y015672D01*
X015370Y015668D01*
X015370Y015663D01*
X015369Y015658D01*
Y015656D01*
X015370Y015653D01*
X015370Y015649D01*
X015371Y015645D01*
X015372Y015641D01*
X015374Y015636D01*
X015375Y015632D01*
X015376Y015632D01*
X015376Y015630D01*
X015378Y015628D01*
X015380Y015626D01*
X015382Y015623D01*
X015385Y015620D01*
X015388Y015617D01*
X015392Y015614D01*
X015392Y015614D01*
X015393Y015613D01*
X015395Y015612D01*
X015398Y015610D01*
X015402Y015608D01*
X015406Y015607D01*
X015410Y015605D01*
X015415Y015604D01*
X015416D01*
X015417Y015603D01*
X015420Y015603D01*
X015423Y015602D01*
X015428Y015602D01*
X015432Y015601D01*
X015437Y015601D01*
X015443D01*
X015443D01*
X015443D01*
X015444D01*
X015446D01*
X015449Y015601D01*
X015454Y015601D01*
X015459Y015602D01*
X015464Y015602D01*
X015470Y015603D01*
X015475Y015605D01*
X015476Y015605D01*
X015477Y015605D01*
X015480Y015606D01*
X015483Y015608D01*
X015487Y015609D01*
X015490Y015611D01*
X015494Y015614D01*
X015498Y015616D01*
X015498Y015616D01*
X015499Y015617D01*
X015501Y015619D01*
X015503Y015621D01*
X015505Y015624D01*
X015507Y015627D01*
X015510Y015630D01*
X015512Y015634D01*
X015512Y015635D01*
X015512Y015636D01*
X015513Y015638D01*
X015514Y015641D01*
X015515Y015645D01*
X015516Y015649D01*
X015516Y015654D01*
X015516Y015658D01*
Y015661D01*
X015516Y015664D01*
X015516Y015667D01*
X015515Y015672D01*
X015514Y015676D01*
X015512Y015680D01*
X015510Y015684D01*
X015510Y015685D01*
X015509Y015686D01*
X015508Y015688D01*
X015506Y015691D01*
X015504Y015694D01*
X015501Y015697D01*
X015498Y015700D01*
X015494Y015702D01*
X015494Y015703D01*
X015492Y015704D01*
X015490Y015705D01*
X015487Y015706D01*
X015484Y015708D01*
X015480Y015710D01*
X015476Y015712D01*
X015471Y015713D01*
X015470D01*
X015469Y015714D01*
X015466Y015714D01*
X015462Y015715D01*
X015458Y015715D01*
X015453Y015716D01*
X015448Y015716D01*
D02*
G37*
G36*
X015091Y015450D02*
X015091D01*
X015089D01*
X015087D01*
X015084Y015450D01*
X015080Y015449D01*
X015076Y015449D01*
X015072Y015448D01*
X015067Y015447D01*
X015067D01*
X015066Y015446D01*
X015064Y015446D01*
X015061Y015445D01*
X015058Y015443D01*
X015055Y015442D01*
X015051Y015440D01*
X015048Y015437D01*
X015048Y015437D01*
X015047Y015436D01*
X015046Y015435D01*
X015044Y015433D01*
X015042Y015431D01*
X015040Y015428D01*
X015038Y015425D01*
X015036Y015421D01*
X015036Y015421D01*
X015035Y015419D01*
X015035Y015417D01*
X015034Y015414D01*
X015033Y015411D01*
X015032Y015407D01*
X015032Y015403D01*
X015031Y015398D01*
Y015396D01*
X015032Y015394D01*
X015032Y015391D01*
X015032Y015388D01*
X015033Y015385D01*
X015034Y015381D01*
X015036Y015378D01*
X015036Y015377D01*
X015037Y015376D01*
X015038Y015374D01*
X015039Y015372D01*
X015041Y015370D01*
X015043Y015367D01*
X015045Y015364D01*
X015048Y015362D01*
X015048Y015361D01*
X015049Y015361D01*
X015051Y015359D01*
X015053Y015358D01*
X015056Y015356D01*
X015060Y015354D01*
X015063Y015352D01*
X015067Y015351D01*
X015068D01*
X015069Y015350D01*
X015071Y015349D01*
X015074Y015349D01*
X015078Y015348D01*
X015082Y015347D01*
X015086Y015347D01*
X015091Y015346D01*
Y015450D01*
D02*
G37*
G36*
X015427Y015267D02*
X015427D01*
X015425D01*
X015423D01*
X015419Y015267D01*
X015416Y015266D01*
X015412Y015266D01*
X015408Y015265D01*
X015403Y015264D01*
X015403D01*
X015401Y015263D01*
X015399Y015263D01*
X015397Y015262D01*
X015394Y015260D01*
X015391Y015259D01*
X015387Y015257D01*
X015384Y015254D01*
X015384Y015254D01*
X015383Y015253D01*
X015382Y015252D01*
X015380Y015250D01*
X015378Y015247D01*
X015376Y015245D01*
X015374Y015242D01*
X015372Y015238D01*
X015372Y015238D01*
X015371Y015236D01*
X015371Y015234D01*
X015370Y015231D01*
X015369Y015228D01*
X015368Y015224D01*
X015368Y015220D01*
X015367Y015215D01*
Y015213D01*
X015368Y015211D01*
X015368Y015208D01*
X015368Y015205D01*
X015369Y015202D01*
X015370Y015198D01*
X015372Y015195D01*
X015372Y015194D01*
X015373Y015193D01*
X015374Y015191D01*
X015375Y015189D01*
X015377Y015187D01*
X015379Y015184D01*
X015381Y015181D01*
X015384Y015179D01*
X015384Y015178D01*
X015385Y015178D01*
X015387Y015176D01*
X015389Y015175D01*
X015392Y015173D01*
X015395Y015171D01*
X015399Y015169D01*
X015403Y015168D01*
X015404D01*
X015405Y015167D01*
X015407Y015166D01*
X015410Y015166D01*
X015414Y015165D01*
X015418Y015164D01*
X015422Y015164D01*
X015427Y015163D01*
Y015267D01*
D02*
G37*
G36*
X015470Y014824D02*
X015466D01*
X015465D01*
X015464D01*
X015462Y014823D01*
X015460Y014823D01*
X015457Y014823D01*
X015454Y014822D01*
X015451Y014821D01*
X015448Y014819D01*
X015448Y014819D01*
X015447Y014819D01*
X015445Y014818D01*
X015443Y014816D01*
X015441Y014815D01*
X015439Y014813D01*
X015437Y014810D01*
X015435Y014807D01*
X015435Y014807D01*
X015434Y014806D01*
X015433Y014804D01*
X015432Y014802D01*
X015430Y014799D01*
X015429Y014796D01*
X015428Y014792D01*
X015426Y014788D01*
Y014787D01*
X015426Y014786D01*
X015425Y014784D01*
X015425Y014781D01*
X015424Y014777D01*
X015424Y014773D01*
X015423Y014768D01*
Y014727D01*
X015512D01*
Y014767D01*
X015512Y014769D01*
Y014771D01*
X015511Y014774D01*
X015511Y014781D01*
X015509Y014788D01*
X015507Y014796D01*
X015504Y014802D01*
X015503Y014806D01*
X015501Y014809D01*
Y014809D01*
X015500Y014809D01*
X015499Y014811D01*
X015496Y014814D01*
X015492Y014816D01*
X015487Y014819D01*
X015481Y014821D01*
X015474Y014823D01*
X015470Y014824D01*
D02*
G37*
G36*
X015355Y014815D02*
X015352D01*
X015351D01*
X015350D01*
X015349D01*
X015347Y014814D01*
X015342Y014814D01*
X015337Y014812D01*
X015336D01*
X015335Y014812D01*
X015334Y014811D01*
X015332Y014810D01*
X015329Y014808D01*
X015327Y014806D01*
X015325Y014804D01*
X015324Y014803D01*
X015324Y014803D01*
X015323Y014801D01*
X015322Y014799D01*
X015321Y014797D01*
X015319Y014795D01*
X015318Y014792D01*
X015317Y014788D01*
Y014788D01*
X015316Y014786D01*
X015316Y014784D01*
X015315Y014781D01*
X015314Y014777D01*
X015314Y014773D01*
X015313Y014768D01*
Y014727D01*
X015394D01*
Y014766D01*
X015394Y014769D01*
X015394Y014772D01*
X015393Y014776D01*
X015392Y014783D01*
Y014783D01*
X015391Y014785D01*
X015391Y014787D01*
X015390Y014789D01*
X015387Y014794D01*
X015384Y014800D01*
X015384Y014800D01*
X015383Y014801D01*
X015382Y014802D01*
X015380Y014804D01*
X015378Y014805D01*
X015376Y014807D01*
X015371Y014811D01*
X015370Y014811D01*
X015369Y014811D01*
X015368Y014812D01*
X015365Y014813D01*
X015362Y014813D01*
X015359Y014814D01*
X015355Y014815D01*
D02*
G37*
G36*
X015134Y014777D02*
X015042D01*
X015042Y014776D01*
X015041Y014775D01*
X015041Y014774D01*
X015040Y014771D01*
X015039Y014768D01*
X015038Y014765D01*
X015037Y014762D01*
X015036Y014758D01*
Y014757D01*
X015036Y014756D01*
X015035Y014754D01*
X015035Y014752D01*
X015034Y014748D01*
X015034Y014745D01*
X015034Y014737D01*
Y014735D01*
X015034Y014733D01*
X015034Y014731D01*
X015035Y014728D01*
X015036Y014722D01*
X015038Y014714D01*
X015042Y014707D01*
X015044Y014704D01*
X015046Y014700D01*
X015049Y014697D01*
X015052Y014694D01*
X015052D01*
X015053Y014693D01*
X015054Y014693D01*
X015055Y014692D01*
X015057Y014690D01*
X015060Y014689D01*
X015063Y014688D01*
X015066Y014686D01*
X015070Y014685D01*
X015074Y014683D01*
X015079Y014682D01*
X015084Y014681D01*
X015089Y014680D01*
X015095Y014679D01*
X015102Y014679D01*
X015109Y014678D01*
X015109D01*
X015110D01*
X015112D01*
X015115Y014679D01*
X015118D01*
X015121Y014679D01*
X015125Y014679D01*
X015129Y014680D01*
X015138Y014681D01*
X015147Y014683D01*
X015155Y014685D01*
X015159Y014687D01*
X015163Y014689D01*
X015163D01*
X015163Y014690D01*
X015165Y014691D01*
X015168Y014693D01*
X015171Y014696D01*
X015174Y014701D01*
X015177Y014706D01*
X015179Y014712D01*
X015180Y014715D01*
X015180Y014719D01*
Y014719D01*
X015180Y014721D01*
X015179Y014724D01*
X015179Y014727D01*
X015177Y014731D01*
X015175Y014736D01*
X015172Y014741D01*
X015168Y014746D01*
Y014746D01*
X015168Y014747D01*
X015166Y014749D01*
X015164Y014752D01*
X015160Y014755D01*
X015155Y014760D01*
X015149Y014765D01*
X015142Y014771D01*
X015134Y014777D01*
D02*
G37*
G36*
X015112Y014569D02*
X015107D01*
X015107D01*
X015106D01*
X015105D01*
X015104D01*
X015100Y014569D01*
X015096Y014568D01*
X015091Y014568D01*
X015086Y014567D01*
X015080Y014566D01*
X015075Y014565D01*
X015074Y014564D01*
X015073Y014564D01*
X015070Y014563D01*
X015067Y014562D01*
X015063Y014560D01*
X015060Y014558D01*
X015056Y014556D01*
X015052Y014553D01*
X015052Y014553D01*
X015050Y014552D01*
X015049Y014550D01*
X015047Y014548D01*
X015045Y014545D01*
X015042Y014542D01*
X015040Y014539D01*
X015038Y014535D01*
X015038Y014534D01*
X015038Y014533D01*
X015037Y014531D01*
X015036Y014528D01*
X015035Y014524D01*
X015034Y014520D01*
X015034Y014516D01*
X015033Y014511D01*
Y014509D01*
X015034Y014506D01*
X015034Y014502D01*
X015035Y014498D01*
X015036Y014493D01*
X015038Y014489D01*
X015040Y014485D01*
X015040Y014484D01*
X015041Y014483D01*
X015042Y014481D01*
X015044Y014478D01*
X015046Y014475D01*
X015049Y014472D01*
X015052Y014469D01*
X015056Y014467D01*
X015056Y014466D01*
X015057Y014466D01*
X015060Y014464D01*
X015063Y014463D01*
X015066Y014461D01*
X015070Y014459D01*
X015074Y014458D01*
X015079Y014456D01*
X015080D01*
X015082Y014456D01*
X015084Y014455D01*
X015087Y014455D01*
X015092Y014454D01*
X015096Y014454D01*
X015102Y014453D01*
X015107D01*
X015107D01*
X015107D01*
X015108D01*
X015110D01*
X015113Y014454D01*
X015118Y014454D01*
X015123Y014454D01*
X015128Y014455D01*
X015134Y014456D01*
X015139Y014457D01*
X015140Y014458D01*
X015141Y014458D01*
X015144Y014459D01*
X015147Y014460D01*
X015151Y014462D01*
X015154Y014464D01*
X015158Y014466D01*
X015162Y014469D01*
X015162Y014469D01*
X015164Y014470D01*
X015165Y014472D01*
X015167Y014474D01*
X015169Y014477D01*
X015171Y014480D01*
X015174Y014483D01*
X015176Y014487D01*
X015176Y014488D01*
X015176Y014489D01*
X015177Y014491D01*
X015178Y014494D01*
X015179Y014498D01*
X015180Y014502D01*
X015180Y014506D01*
X015180Y014511D01*
Y014514D01*
X015180Y014516D01*
X015180Y014520D01*
X015179Y014524D01*
X015178Y014529D01*
X015176Y014533D01*
X015174Y014537D01*
X015174Y014538D01*
X015173Y014539D01*
X015172Y014541D01*
X015170Y014544D01*
X015168Y014546D01*
X015165Y014549D01*
X015162Y014552D01*
X015158Y014555D01*
X015158Y014555D01*
X015156Y014556D01*
X015154Y014558D01*
X015151Y014559D01*
X015148Y014561D01*
X015144Y014563D01*
X015140Y014564D01*
X015135Y014566D01*
X015134D01*
X015133Y014566D01*
X015130Y014567D01*
X015127Y014567D01*
X015122Y014568D01*
X015117Y014568D01*
X015112Y014569D01*
D02*
G37*
G36*
X015487Y014372D02*
X015451D01*
Y014324D01*
X015452Y014321D01*
X015452Y014318D01*
X015452Y014314D01*
X015453Y014310D01*
X015454Y014306D01*
Y014306D01*
X015454Y014305D01*
X015455Y014303D01*
X015456Y014301D01*
X015458Y014296D01*
X015461Y014291D01*
X015462Y014291D01*
X015462Y014290D01*
X015463Y014289D01*
X015465Y014288D01*
X015468Y014285D01*
X015473Y014283D01*
X015473D01*
X015474Y014282D01*
X015476Y014282D01*
X015477Y014281D01*
X015479Y014281D01*
X015482Y014280D01*
X015488Y014280D01*
X015488D01*
X015489D01*
X015490D01*
X015491Y014280D01*
X015495Y014281D01*
X015498Y014282D01*
X015499D01*
X015499Y014282D01*
X015500Y014282D01*
X015502Y014283D01*
X015505Y014284D01*
X015508Y014287D01*
Y014287D01*
X015509Y014288D01*
X015509Y014289D01*
X015510Y014290D01*
X015512Y014293D01*
X015514Y014297D01*
Y014298D01*
X015515Y014299D01*
X015515Y014300D01*
X015515Y014302D01*
X015516Y014304D01*
X015516Y014306D01*
X015517Y014313D01*
Y014315D01*
X015516Y014317D01*
X015516Y014321D01*
X015515Y014324D01*
X015514Y014329D01*
X015512Y014334D01*
X015509Y014340D01*
Y014340D01*
X015509Y014340D01*
X015508Y014342D01*
X015506Y014345D01*
X015504Y014349D01*
X015500Y014354D01*
X015497Y014360D01*
X015492Y014366D01*
X015487Y014372D01*
D02*
G37*
G36*
X015118Y013889D02*
X014980Y013845D01*
X015118Y013801D01*
Y013889D01*
D02*
G37*
G36*
X015427Y013715D02*
X015427D01*
X015425D01*
X015423D01*
X015419Y013714D01*
X015416Y013714D01*
X015412Y013714D01*
X015408Y013713D01*
X015403Y013712D01*
X015403D01*
X015401Y013711D01*
X015399Y013710D01*
X015397Y013709D01*
X015394Y013708D01*
X015391Y013707D01*
X015387Y013705D01*
X015384Y013702D01*
X015384Y013702D01*
X015383Y013701D01*
X015382Y013700D01*
X015380Y013698D01*
X015378Y013695D01*
X015376Y013693D01*
X015374Y013689D01*
X015372Y013686D01*
X015372Y013686D01*
X015371Y013684D01*
X015371Y013682D01*
X015370Y013679D01*
X015369Y013676D01*
X015368Y013672D01*
X015368Y013668D01*
X015367Y013663D01*
Y013661D01*
X015368Y013659D01*
X015368Y013656D01*
X015368Y013653D01*
X015369Y013650D01*
X015370Y013646D01*
X015372Y013643D01*
X015372Y013642D01*
X015373Y013641D01*
X015374Y013639D01*
X015375Y013637D01*
X015377Y013635D01*
X015379Y013632D01*
X015381Y013629D01*
X015384Y013627D01*
X015384Y013626D01*
X015385Y013626D01*
X015387Y013624D01*
X015389Y013623D01*
X015392Y013621D01*
X015395Y013619D01*
X015399Y013617D01*
X015403Y013616D01*
X015404D01*
X015405Y013615D01*
X015407Y013614D01*
X015410Y013614D01*
X015414Y013613D01*
X015418Y013612D01*
X015422Y013611D01*
X015427Y013611D01*
Y013715D01*
D02*
G37*
G36*
X015029Y013455D02*
X015028D01*
X015028D01*
X015026D01*
X015025Y013455D01*
X015023D01*
X015020Y013454D01*
X015015Y013453D01*
X015008Y013451D01*
X015002Y013448D01*
X014999Y013446D01*
X014996Y013444D01*
X014993Y013442D01*
X014991Y013439D01*
Y013439D01*
X014990Y013438D01*
X014989Y013437D01*
X014989Y013436D01*
X014987Y013434D01*
X014986Y013432D01*
X014985Y013430D01*
X014984Y013427D01*
X014983Y013424D01*
X014982Y013421D01*
X014980Y013417D01*
X014979Y013413D01*
X014978Y013404D01*
X014977Y013394D01*
Y013358D01*
X015083D01*
Y013393D01*
X015083Y013396D01*
Y013398D01*
X015083Y013401D01*
X015082Y013404D01*
X015082Y013408D01*
X015080Y013416D01*
X015078Y013424D01*
X015074Y013431D01*
X015072Y013435D01*
X015070Y013438D01*
X015069Y013439D01*
X015069Y013439D01*
X015067Y013441D01*
X015064Y013443D01*
X015060Y013447D01*
X015054Y013450D01*
X015047Y013453D01*
X015043Y013454D01*
X015038Y013455D01*
X015034Y013455D01*
X015029Y013455D01*
D02*
G37*
G36*
X015454Y013262D02*
X015316Y013218D01*
X015454Y013175D01*
Y013262D01*
D02*
G37*
%LPD*%
D10*
X000299Y010943D02*
G03*
X000299Y010943I-000039J000000D01*
G01*
X012212Y002742D02*
G03*
X012212Y002742I-000049J000000D01*
G01*
X005226Y011949D02*
G03*
X005226Y011949I-000049J000000D01*
G01*
X005030Y003484D02*
G03*
X005030Y003484I-000049J000000D01*
G01*
D11*
X002925Y004569D02*
G03*
X002925Y004569I-000020J000000D01*
G01*
X012727Y003181D02*
X013590Y002318D01*
X012476Y002930D02*
X013339Y002067D01*
X013590Y002318D01*
X012476Y002930D02*
X012727Y003181D01*
D12*
X006313Y018711D02*
G03*
X006313Y018711I-000004J000000D01*
G01*
X002425Y013303D02*
Y013620D01*
X002425Y011100D02*
X002425Y011417D01*
X000299Y013303D02*
X000299Y013620D01*
X000299Y011100D02*
Y011417D01*
X002358Y013620D02*
X002425Y013620D01*
X000299D02*
X000366Y013620D01*
X002358Y011100D02*
X002425D01*
X000299Y011100D02*
X000366Y011100D01*
X002490Y006150D02*
X002736Y006150D01*
X001959Y006161D02*
X002037Y006161D01*
X001959Y007106D02*
X002037Y007106D01*
X002589Y007106D02*
X002667Y007106D01*
X010630Y012205D02*
Y015354D01*
X005118Y012205D02*
Y015354D01*
X010630Y015354D01*
X005118Y012205D02*
X010630Y012205D01*
X005118Y012579D02*
X005493Y012205D01*
X010827Y003740D02*
Y009646D01*
X004921Y003740D02*
Y009646D01*
X010827D01*
X004921Y003740D02*
X010827D01*
X004921Y003971D02*
X005152Y003740D01*
D13*
X002549Y005522D02*
X002549Y005679D01*
X001998Y006033D02*
X001998Y005758D01*
X001998Y006033D02*
X002549Y006033D01*
X001998Y005167D02*
X001998Y005443D01*
X001998Y005167D02*
X002549D01*
D14*
X009192Y019064D02*
X009425D01*
X011692Y018833D02*
Y019064D01*
X011617Y017354D02*
X011692D01*
X009192D02*
X009192Y017585D01*
X011617Y019064D02*
X011692D01*
X009192D02*
X009192Y018833D01*
X009192Y018471D02*
X009192Y017947D01*
X009767Y017354D02*
X009858D01*
X011692D02*
X011692Y017585D01*
X009767Y019064D02*
X009858Y019064D01*
X009192Y017354D02*
X009425D01*
X004566Y017361D02*
Y018643D01*
Y017361D02*
X006241D01*
Y018643D01*
X004566D02*
X006241D01*
M02*
