%TF.GenerationSoftware,KiCad,Pcbnew,9.0.0*%
%TF.CreationDate,2025-04-15T16:43:56-04:00*%
%TF.ProjectId,Thunderscope_Rev5,5468756e-6465-4727-9363-6f70655f5265,rev?*%
%TF.SameCoordinates,Original*%
%TF.FileFunction,Legend,Top*%
%TF.FilePolarity,Positive*%
%FSLAX46Y46*%
G04 Gerber Fmt 4.6, Leading zero omitted, Abs format (unit mm)*
G04 Created by KiCad (PCBNEW 9.0.0) date 2025-04-15 16:43:56*
%MOMM*%
%LPD*%
G01*
G04 APERTURE LIST*
%ADD10C,0.150000*%
%ADD11C,0.100000*%
%ADD12C,0.120000*%
%ADD13C,0.127000*%
%ADD14C,0.254000*%
%ADD15C,0.200000*%
%ADD16C,0.250000*%
%ADD17C,0.600000*%
%ADD18C,0.155000*%
%ADD19C,0.400000*%
%ADD20C,0.000000*%
G04 APERTURE END LIST*
D10*
X100832395Y-79550990D02*
X131232395Y-79550990D01*
X132951096Y-72408600D02*
X138151095Y-72408600D01*
X138151095Y-78908600D01*
X132951096Y-78908600D01*
X132951096Y-72408600D01*
X131232395Y-141050990D02*
X131232395Y-132228600D01*
X138151095Y-65428600D02*
X138151095Y-59950990D01*
X100832395Y-100050990D02*
X131232395Y-100050990D01*
X138151095Y-91228600D02*
X138151095Y-87778600D01*
X131232395Y-91228600D02*
X138151095Y-91228600D01*
D11*
X132951095Y-133953600D02*
X146601095Y-133953600D01*
X146601095Y-143703596D01*
X132951095Y-143703596D01*
X132951095Y-133953600D01*
D10*
X100832395Y-80450990D02*
X100832395Y-100050990D01*
X100832395Y-100950990D02*
X100832395Y-120550990D01*
X179156072Y-63028598D02*
X186256072Y-63028598D01*
X186256072Y-72403600D01*
X179156072Y-72403600D01*
X179156072Y-63028598D01*
X100832395Y-59950990D02*
X100832395Y-79550990D01*
X100832395Y-121450990D02*
X100832395Y-141050990D01*
X171831072Y-61278599D02*
X178156072Y-61278599D01*
X178156072Y-70653600D01*
X171831072Y-70653600D01*
X171831072Y-61278599D01*
X138151095Y-126928600D02*
X138151095Y-121450990D01*
X100832395Y-80450990D02*
X138151095Y-80450990D01*
X100832395Y-120550990D02*
X131232395Y-120550990D01*
X131232395Y-79550990D02*
X131232395Y-70728600D01*
X138151095Y-132228600D02*
X138151095Y-128778600D01*
X131232395Y-132228600D02*
X138151095Y-132228600D01*
X131232395Y-100050990D02*
X131232395Y-91228600D01*
X100832395Y-59950990D02*
X138151095Y-59950990D01*
X138151095Y-70728600D02*
X138151095Y-67278600D01*
X138151095Y-85928600D02*
X138151095Y-80450990D01*
X149801095Y-59953600D02*
X159631072Y-59953600D01*
X159631072Y-70653600D01*
X149801095Y-70653600D01*
X149801095Y-59953600D01*
X138151095Y-106428600D02*
X138151095Y-100950990D01*
X131232395Y-70728600D02*
X138151095Y-70728600D01*
X138151095Y-111728600D02*
X138151095Y-108278600D01*
X100832395Y-121450990D02*
X138151095Y-121450990D01*
X100832395Y-100950990D02*
X138151095Y-100950990D01*
G36*
X191776095Y-135553600D02*
G01*
X197276095Y-135553600D01*
X197276095Y-141053600D01*
X191776095Y-141053600D01*
X191776095Y-135553600D01*
G37*
D11*
X146601095Y-141903600D02*
X146601094Y-133953600D01*
D10*
X100832395Y-141050990D02*
X131232395Y-141050990D01*
X160631072Y-59953602D02*
X170831072Y-59953602D01*
X170831072Y-70653600D01*
X160631072Y-70653600D01*
X160631072Y-59953602D01*
X131232395Y-111728600D02*
X138151095Y-111728600D01*
X131232395Y-120550990D02*
X131232395Y-111728600D01*
X187256072Y-64028598D02*
X195506071Y-64028598D01*
X195506071Y-74208599D01*
X187256072Y-74208599D01*
X187256072Y-64028598D01*
D11*
X139515990Y-78058599D02*
X138715990Y-78058599D01*
X138715990Y-78058599D02*
X138715990Y-77753837D01*
X138715990Y-77753837D02*
X138754085Y-77677647D01*
X138754085Y-77677647D02*
X138792180Y-77639552D01*
X138792180Y-77639552D02*
X138868371Y-77601456D01*
X138868371Y-77601456D02*
X138982656Y-77601456D01*
X138982656Y-77601456D02*
X139058847Y-77639552D01*
X139058847Y-77639552D02*
X139096942Y-77677647D01*
X139096942Y-77677647D02*
X139135037Y-77753837D01*
X139135037Y-77753837D02*
X139135037Y-78058599D01*
X138754085Y-76839552D02*
X138715990Y-76915742D01*
X138715990Y-76915742D02*
X138715990Y-77030028D01*
X138715990Y-77030028D02*
X138754085Y-77144314D01*
X138754085Y-77144314D02*
X138830275Y-77220504D01*
X138830275Y-77220504D02*
X138906466Y-77258599D01*
X138906466Y-77258599D02*
X139058847Y-77296695D01*
X139058847Y-77296695D02*
X139173133Y-77296695D01*
X139173133Y-77296695D02*
X139325514Y-77258599D01*
X139325514Y-77258599D02*
X139401704Y-77220504D01*
X139401704Y-77220504D02*
X139477895Y-77144314D01*
X139477895Y-77144314D02*
X139515990Y-77030028D01*
X139515990Y-77030028D02*
X139515990Y-76953837D01*
X139515990Y-76953837D02*
X139477895Y-76839552D01*
X139477895Y-76839552D02*
X139439799Y-76801456D01*
X139439799Y-76801456D02*
X139173133Y-76801456D01*
X139173133Y-76801456D02*
X139173133Y-76953837D01*
X139287418Y-76496695D02*
X139287418Y-76115742D01*
X139515990Y-76572885D02*
X138715990Y-76306218D01*
X138715990Y-76306218D02*
X139515990Y-76039552D01*
X139515990Y-74782409D02*
X139515990Y-75163361D01*
X139515990Y-75163361D02*
X138715990Y-75163361D01*
X139515990Y-74515742D02*
X138715990Y-74515742D01*
X138715990Y-74515742D02*
X138715990Y-74325266D01*
X138715990Y-74325266D02*
X138754085Y-74210980D01*
X138754085Y-74210980D02*
X138830275Y-74134790D01*
X138830275Y-74134790D02*
X138906466Y-74096695D01*
X138906466Y-74096695D02*
X139058847Y-74058599D01*
X139058847Y-74058599D02*
X139173133Y-74058599D01*
X139173133Y-74058599D02*
X139325514Y-74096695D01*
X139325514Y-74096695D02*
X139401704Y-74134790D01*
X139401704Y-74134790D02*
X139477895Y-74210980D01*
X139477895Y-74210980D02*
X139515990Y-74325266D01*
X139515990Y-74325266D02*
X139515990Y-74515742D01*
X138715990Y-73563361D02*
X138715990Y-73410980D01*
X138715990Y-73410980D02*
X138754085Y-73334790D01*
X138754085Y-73334790D02*
X138830275Y-73258599D01*
X138830275Y-73258599D02*
X138982656Y-73220504D01*
X138982656Y-73220504D02*
X139249323Y-73220504D01*
X139249323Y-73220504D02*
X139401704Y-73258599D01*
X139401704Y-73258599D02*
X139477895Y-73334790D01*
X139477895Y-73334790D02*
X139515990Y-73410980D01*
X139515990Y-73410980D02*
X139515990Y-73563361D01*
X139515990Y-73563361D02*
X139477895Y-73639552D01*
X139477895Y-73639552D02*
X139401704Y-73715742D01*
X139401704Y-73715742D02*
X139249323Y-73753838D01*
X139249323Y-73753838D02*
X138982656Y-73753838D01*
X138982656Y-73753838D02*
X138830275Y-73715742D01*
X138830275Y-73715742D02*
X138754085Y-73639552D01*
X138754085Y-73639552D02*
X138715990Y-73563361D01*
X136195143Y-144763729D02*
X136804667Y-144763729D01*
X136499905Y-145068491D02*
X136499905Y-144458967D01*
X137071333Y-144268491D02*
X137338000Y-145068491D01*
X137338000Y-145068491D02*
X137604666Y-144268491D01*
X137871333Y-144268491D02*
X137871333Y-144916110D01*
X137871333Y-144916110D02*
X137909428Y-144992300D01*
X137909428Y-144992300D02*
X137947523Y-145030396D01*
X137947523Y-145030396D02*
X138023714Y-145068491D01*
X138023714Y-145068491D02*
X138176095Y-145068491D01*
X138176095Y-145068491D02*
X138252285Y-145030396D01*
X138252285Y-145030396D02*
X138290380Y-144992300D01*
X138290380Y-144992300D02*
X138328476Y-144916110D01*
X138328476Y-144916110D02*
X138328476Y-144268491D01*
X138671332Y-145030396D02*
X138785618Y-145068491D01*
X138785618Y-145068491D02*
X138976094Y-145068491D01*
X138976094Y-145068491D02*
X139052285Y-145030396D01*
X139052285Y-145030396D02*
X139090380Y-144992300D01*
X139090380Y-144992300D02*
X139128475Y-144916110D01*
X139128475Y-144916110D02*
X139128475Y-144839919D01*
X139128475Y-144839919D02*
X139090380Y-144763729D01*
X139090380Y-144763729D02*
X139052285Y-144725634D01*
X139052285Y-144725634D02*
X138976094Y-144687538D01*
X138976094Y-144687538D02*
X138823713Y-144649443D01*
X138823713Y-144649443D02*
X138747523Y-144611348D01*
X138747523Y-144611348D02*
X138709428Y-144573253D01*
X138709428Y-144573253D02*
X138671332Y-144497062D01*
X138671332Y-144497062D02*
X138671332Y-144420872D01*
X138671332Y-144420872D02*
X138709428Y-144344681D01*
X138709428Y-144344681D02*
X138747523Y-144306586D01*
X138747523Y-144306586D02*
X138823713Y-144268491D01*
X138823713Y-144268491D02*
X139014190Y-144268491D01*
X139014190Y-144268491D02*
X139128475Y-144306586D01*
X139737999Y-144649443D02*
X139852285Y-144687538D01*
X139852285Y-144687538D02*
X139890380Y-144725634D01*
X139890380Y-144725634D02*
X139928476Y-144801824D01*
X139928476Y-144801824D02*
X139928476Y-144916110D01*
X139928476Y-144916110D02*
X139890380Y-144992300D01*
X139890380Y-144992300D02*
X139852285Y-145030396D01*
X139852285Y-145030396D02*
X139776095Y-145068491D01*
X139776095Y-145068491D02*
X139471333Y-145068491D01*
X139471333Y-145068491D02*
X139471333Y-144268491D01*
X139471333Y-144268491D02*
X139737999Y-144268491D01*
X139737999Y-144268491D02*
X139814190Y-144306586D01*
X139814190Y-144306586D02*
X139852285Y-144344681D01*
X139852285Y-144344681D02*
X139890380Y-144420872D01*
X139890380Y-144420872D02*
X139890380Y-144497062D01*
X139890380Y-144497062D02*
X139852285Y-144573253D01*
X139852285Y-144573253D02*
X139814190Y-144611348D01*
X139814190Y-144611348D02*
X139737999Y-144649443D01*
X139737999Y-144649443D02*
X139471333Y-144649443D01*
X141147523Y-144649443D02*
X141261809Y-144687538D01*
X141261809Y-144687538D02*
X141299904Y-144725634D01*
X141299904Y-144725634D02*
X141338000Y-144801824D01*
X141338000Y-144801824D02*
X141338000Y-144916110D01*
X141338000Y-144916110D02*
X141299904Y-144992300D01*
X141299904Y-144992300D02*
X141261809Y-145030396D01*
X141261809Y-145030396D02*
X141185619Y-145068491D01*
X141185619Y-145068491D02*
X140880857Y-145068491D01*
X140880857Y-145068491D02*
X140880857Y-144268491D01*
X140880857Y-144268491D02*
X141147523Y-144268491D01*
X141147523Y-144268491D02*
X141223714Y-144306586D01*
X141223714Y-144306586D02*
X141261809Y-144344681D01*
X141261809Y-144344681D02*
X141299904Y-144420872D01*
X141299904Y-144420872D02*
X141299904Y-144497062D01*
X141299904Y-144497062D02*
X141261809Y-144573253D01*
X141261809Y-144573253D02*
X141223714Y-144611348D01*
X141223714Y-144611348D02*
X141147523Y-144649443D01*
X141147523Y-144649443D02*
X140880857Y-144649443D01*
X142023714Y-144535157D02*
X142023714Y-145068491D01*
X141680857Y-144535157D02*
X141680857Y-144954205D01*
X141680857Y-144954205D02*
X141718952Y-145030396D01*
X141718952Y-145030396D02*
X141795142Y-145068491D01*
X141795142Y-145068491D02*
X141909428Y-145068491D01*
X141909428Y-145068491D02*
X141985619Y-145030396D01*
X141985619Y-145030396D02*
X142023714Y-144992300D01*
X142747524Y-145030396D02*
X142671333Y-145068491D01*
X142671333Y-145068491D02*
X142518952Y-145068491D01*
X142518952Y-145068491D02*
X142442762Y-145030396D01*
X142442762Y-145030396D02*
X142404667Y-144992300D01*
X142404667Y-144992300D02*
X142366571Y-144916110D01*
X142366571Y-144916110D02*
X142366571Y-144687538D01*
X142366571Y-144687538D02*
X142404667Y-144611348D01*
X142404667Y-144611348D02*
X142442762Y-144573253D01*
X142442762Y-144573253D02*
X142518952Y-144535157D01*
X142518952Y-144535157D02*
X142671333Y-144535157D01*
X142671333Y-144535157D02*
X142747524Y-144573253D01*
X143090381Y-145068491D02*
X143090381Y-144268491D01*
X143166571Y-144763729D02*
X143395143Y-145068491D01*
X143395143Y-144535157D02*
X143090381Y-144839919D01*
X139439799Y-104239565D02*
X139477895Y-104277661D01*
X139477895Y-104277661D02*
X139515990Y-104391946D01*
X139515990Y-104391946D02*
X139515990Y-104468137D01*
X139515990Y-104468137D02*
X139477895Y-104582423D01*
X139477895Y-104582423D02*
X139401704Y-104658613D01*
X139401704Y-104658613D02*
X139325514Y-104696708D01*
X139325514Y-104696708D02*
X139173133Y-104734804D01*
X139173133Y-104734804D02*
X139058847Y-104734804D01*
X139058847Y-104734804D02*
X138906466Y-104696708D01*
X138906466Y-104696708D02*
X138830275Y-104658613D01*
X138830275Y-104658613D02*
X138754085Y-104582423D01*
X138754085Y-104582423D02*
X138715990Y-104468137D01*
X138715990Y-104468137D02*
X138715990Y-104391946D01*
X138715990Y-104391946D02*
X138754085Y-104277661D01*
X138754085Y-104277661D02*
X138792180Y-104239565D01*
X139515990Y-103896708D02*
X138715990Y-103896708D01*
X139096942Y-103896708D02*
X139096942Y-103439565D01*
X139515990Y-103439565D02*
X138715990Y-103439565D01*
X138715990Y-103134804D02*
X138715990Y-102639566D01*
X138715990Y-102639566D02*
X139020752Y-102906232D01*
X139020752Y-102906232D02*
X139020752Y-102791947D01*
X139020752Y-102791947D02*
X139058847Y-102715756D01*
X139058847Y-102715756D02*
X139096942Y-102677661D01*
X139096942Y-102677661D02*
X139173133Y-102639566D01*
X139173133Y-102639566D02*
X139363609Y-102639566D01*
X139363609Y-102639566D02*
X139439799Y-102677661D01*
X139439799Y-102677661D02*
X139477895Y-102715756D01*
X139477895Y-102715756D02*
X139515990Y-102791947D01*
X139515990Y-102791947D02*
X139515990Y-103020518D01*
X139515990Y-103020518D02*
X139477895Y-103096709D01*
X139477895Y-103096709D02*
X139439799Y-103134804D01*
D12*
X159483140Y-124667885D02*
X159483140Y-124867885D01*
X159797426Y-124867885D02*
X159197426Y-124867885D01*
X159197426Y-124867885D02*
X159197426Y-124582171D01*
X159797426Y-124353599D02*
X159397426Y-124353599D01*
X159511712Y-124353599D02*
X159454569Y-124325028D01*
X159454569Y-124325028D02*
X159425997Y-124296457D01*
X159425997Y-124296457D02*
X159397426Y-124239314D01*
X159397426Y-124239314D02*
X159397426Y-124182171D01*
X159768855Y-123753599D02*
X159797426Y-123810742D01*
X159797426Y-123810742D02*
X159797426Y-123925028D01*
X159797426Y-123925028D02*
X159768855Y-123982170D01*
X159768855Y-123982170D02*
X159711712Y-124010742D01*
X159711712Y-124010742D02*
X159483140Y-124010742D01*
X159483140Y-124010742D02*
X159425997Y-123982170D01*
X159425997Y-123982170D02*
X159397426Y-123925028D01*
X159397426Y-123925028D02*
X159397426Y-123810742D01*
X159397426Y-123810742D02*
X159425997Y-123753599D01*
X159425997Y-123753599D02*
X159483140Y-123725028D01*
X159483140Y-123725028D02*
X159540283Y-123725028D01*
X159540283Y-123725028D02*
X159597426Y-124010742D01*
X159768855Y-123239313D02*
X159797426Y-123296456D01*
X159797426Y-123296456D02*
X159797426Y-123410742D01*
X159797426Y-123410742D02*
X159768855Y-123467884D01*
X159768855Y-123467884D02*
X159711712Y-123496456D01*
X159711712Y-123496456D02*
X159483140Y-123496456D01*
X159483140Y-123496456D02*
X159425997Y-123467884D01*
X159425997Y-123467884D02*
X159397426Y-123410742D01*
X159397426Y-123410742D02*
X159397426Y-123296456D01*
X159397426Y-123296456D02*
X159425997Y-123239313D01*
X159425997Y-123239313D02*
X159483140Y-123210742D01*
X159483140Y-123210742D02*
X159540283Y-123210742D01*
X159540283Y-123210742D02*
X159597426Y-123496456D01*
X159797426Y-122496455D02*
X159197426Y-122496455D01*
X159197426Y-122496455D02*
X159197426Y-122267884D01*
X159197426Y-122267884D02*
X159225997Y-122210741D01*
X159225997Y-122210741D02*
X159254569Y-122182170D01*
X159254569Y-122182170D02*
X159311712Y-122153598D01*
X159311712Y-122153598D02*
X159397426Y-122153598D01*
X159397426Y-122153598D02*
X159454569Y-122182170D01*
X159454569Y-122182170D02*
X159483140Y-122210741D01*
X159483140Y-122210741D02*
X159511712Y-122267884D01*
X159511712Y-122267884D02*
X159511712Y-122496455D01*
X159797426Y-121639313D02*
X159483140Y-121639313D01*
X159483140Y-121639313D02*
X159425997Y-121667884D01*
X159425997Y-121667884D02*
X159397426Y-121725027D01*
X159397426Y-121725027D02*
X159397426Y-121839313D01*
X159397426Y-121839313D02*
X159425997Y-121896455D01*
X159768855Y-121639313D02*
X159797426Y-121696455D01*
X159797426Y-121696455D02*
X159797426Y-121839313D01*
X159797426Y-121839313D02*
X159768855Y-121896455D01*
X159768855Y-121896455D02*
X159711712Y-121925027D01*
X159711712Y-121925027D02*
X159654569Y-121925027D01*
X159654569Y-121925027D02*
X159597426Y-121896455D01*
X159597426Y-121896455D02*
X159568855Y-121839313D01*
X159568855Y-121839313D02*
X159568855Y-121696455D01*
X159568855Y-121696455D02*
X159540283Y-121639313D01*
X159797426Y-121267884D02*
X159768855Y-121325027D01*
X159768855Y-121325027D02*
X159711712Y-121353598D01*
X159711712Y-121353598D02*
X159197426Y-121353598D01*
X159768855Y-120810741D02*
X159797426Y-120867884D01*
X159797426Y-120867884D02*
X159797426Y-120982170D01*
X159797426Y-120982170D02*
X159768855Y-121039312D01*
X159768855Y-121039312D02*
X159711712Y-121067884D01*
X159711712Y-121067884D02*
X159483140Y-121067884D01*
X159483140Y-121067884D02*
X159425997Y-121039312D01*
X159425997Y-121039312D02*
X159397426Y-120982170D01*
X159397426Y-120982170D02*
X159397426Y-120867884D01*
X159397426Y-120867884D02*
X159425997Y-120810741D01*
X159425997Y-120810741D02*
X159483140Y-120782170D01*
X159483140Y-120782170D02*
X159540283Y-120782170D01*
X159540283Y-120782170D02*
X159597426Y-121067884D01*
X159768855Y-120553598D02*
X159797426Y-120496455D01*
X159797426Y-120496455D02*
X159797426Y-120382169D01*
X159797426Y-120382169D02*
X159768855Y-120325026D01*
X159768855Y-120325026D02*
X159711712Y-120296455D01*
X159711712Y-120296455D02*
X159683140Y-120296455D01*
X159683140Y-120296455D02*
X159625997Y-120325026D01*
X159625997Y-120325026D02*
X159597426Y-120382169D01*
X159597426Y-120382169D02*
X159597426Y-120467884D01*
X159597426Y-120467884D02*
X159568855Y-120525026D01*
X159568855Y-120525026D02*
X159511712Y-120553598D01*
X159511712Y-120553598D02*
X159483140Y-120553598D01*
X159483140Y-120553598D02*
X159425997Y-120525026D01*
X159425997Y-120525026D02*
X159397426Y-120467884D01*
X159397426Y-120467884D02*
X159397426Y-120382169D01*
X159397426Y-120382169D02*
X159425997Y-120325026D01*
X159397426Y-120125027D02*
X159397426Y-119896455D01*
X159197426Y-120039312D02*
X159711712Y-120039312D01*
X159711712Y-120039312D02*
X159768855Y-120010741D01*
X159768855Y-120010741D02*
X159797426Y-119953598D01*
X159797426Y-119953598D02*
X159797426Y-119896455D01*
X159797426Y-119696455D02*
X159397426Y-119696455D01*
X159197426Y-119696455D02*
X159225997Y-119725027D01*
X159225997Y-119725027D02*
X159254569Y-119696455D01*
X159254569Y-119696455D02*
X159225997Y-119667884D01*
X159225997Y-119667884D02*
X159197426Y-119696455D01*
X159197426Y-119696455D02*
X159254569Y-119696455D01*
X159397426Y-119410741D02*
X159797426Y-119410741D01*
X159454569Y-119410741D02*
X159425997Y-119382170D01*
X159425997Y-119382170D02*
X159397426Y-119325027D01*
X159397426Y-119325027D02*
X159397426Y-119239313D01*
X159397426Y-119239313D02*
X159425997Y-119182170D01*
X159425997Y-119182170D02*
X159483140Y-119153599D01*
X159483140Y-119153599D02*
X159797426Y-119153599D01*
X159768855Y-118639313D02*
X159797426Y-118696456D01*
X159797426Y-118696456D02*
X159797426Y-118810742D01*
X159797426Y-118810742D02*
X159768855Y-118867884D01*
X159768855Y-118867884D02*
X159711712Y-118896456D01*
X159711712Y-118896456D02*
X159483140Y-118896456D01*
X159483140Y-118896456D02*
X159425997Y-118867884D01*
X159425997Y-118867884D02*
X159397426Y-118810742D01*
X159397426Y-118810742D02*
X159397426Y-118696456D01*
X159397426Y-118696456D02*
X159425997Y-118639313D01*
X159425997Y-118639313D02*
X159483140Y-118610742D01*
X159483140Y-118610742D02*
X159540283Y-118610742D01*
X159540283Y-118610742D02*
X159597426Y-118896456D01*
D11*
X148737418Y-112577410D02*
X148737418Y-112196457D01*
X148965990Y-112653600D02*
X148165990Y-112386933D01*
X148165990Y-112386933D02*
X148965990Y-112120267D01*
X148927895Y-111510743D02*
X148965990Y-111586934D01*
X148965990Y-111586934D02*
X148965990Y-111739315D01*
X148965990Y-111739315D02*
X148927895Y-111815505D01*
X148927895Y-111815505D02*
X148889799Y-111853600D01*
X148889799Y-111853600D02*
X148813609Y-111891696D01*
X148813609Y-111891696D02*
X148585037Y-111891696D01*
X148585037Y-111891696D02*
X148508847Y-111853600D01*
X148508847Y-111853600D02*
X148470752Y-111815505D01*
X148470752Y-111815505D02*
X148432656Y-111739315D01*
X148432656Y-111739315D02*
X148432656Y-111586934D01*
X148432656Y-111586934D02*
X148470752Y-111510743D01*
X148432656Y-110825029D02*
X149232656Y-110825029D01*
X148927895Y-110825029D02*
X148965990Y-110901220D01*
X148965990Y-110901220D02*
X148965990Y-111053601D01*
X148965990Y-111053601D02*
X148927895Y-111129791D01*
X148927895Y-111129791D02*
X148889799Y-111167886D01*
X148889799Y-111167886D02*
X148813609Y-111205982D01*
X148813609Y-111205982D02*
X148585037Y-111205982D01*
X148585037Y-111205982D02*
X148508847Y-111167886D01*
X148508847Y-111167886D02*
X148470752Y-111129791D01*
X148470752Y-111129791D02*
X148432656Y-111053601D01*
X148432656Y-111053601D02*
X148432656Y-110901220D01*
X148432656Y-110901220D02*
X148470752Y-110825029D01*
X148432656Y-110101219D02*
X148965990Y-110101219D01*
X148432656Y-110444076D02*
X148851704Y-110444076D01*
X148851704Y-110444076D02*
X148927895Y-110405981D01*
X148927895Y-110405981D02*
X148965990Y-110329791D01*
X148965990Y-110329791D02*
X148965990Y-110215505D01*
X148965990Y-110215505D02*
X148927895Y-110139314D01*
X148927895Y-110139314D02*
X148889799Y-110101219D01*
X148965990Y-109720266D02*
X148432656Y-109720266D01*
X148165990Y-109720266D02*
X148204085Y-109758362D01*
X148204085Y-109758362D02*
X148242180Y-109720266D01*
X148242180Y-109720266D02*
X148204085Y-109682171D01*
X148204085Y-109682171D02*
X148165990Y-109720266D01*
X148165990Y-109720266D02*
X148242180Y-109720266D01*
X148927895Y-109377410D02*
X148965990Y-109301219D01*
X148965990Y-109301219D02*
X148965990Y-109148838D01*
X148965990Y-109148838D02*
X148927895Y-109072648D01*
X148927895Y-109072648D02*
X148851704Y-109034552D01*
X148851704Y-109034552D02*
X148813609Y-109034552D01*
X148813609Y-109034552D02*
X148737418Y-109072648D01*
X148737418Y-109072648D02*
X148699323Y-109148838D01*
X148699323Y-109148838D02*
X148699323Y-109263124D01*
X148699323Y-109263124D02*
X148661228Y-109339314D01*
X148661228Y-109339314D02*
X148585037Y-109377410D01*
X148585037Y-109377410D02*
X148546942Y-109377410D01*
X148546942Y-109377410D02*
X148470752Y-109339314D01*
X148470752Y-109339314D02*
X148432656Y-109263124D01*
X148432656Y-109263124D02*
X148432656Y-109148838D01*
X148432656Y-109148838D02*
X148470752Y-109072648D01*
X148965990Y-108691695D02*
X148432656Y-108691695D01*
X148165990Y-108691695D02*
X148204085Y-108729791D01*
X148204085Y-108729791D02*
X148242180Y-108691695D01*
X148242180Y-108691695D02*
X148204085Y-108653600D01*
X148204085Y-108653600D02*
X148165990Y-108691695D01*
X148165990Y-108691695D02*
X148242180Y-108691695D01*
X148432656Y-108425029D02*
X148432656Y-108120267D01*
X148165990Y-108310743D02*
X148851704Y-108310743D01*
X148851704Y-108310743D02*
X148927895Y-108272648D01*
X148927895Y-108272648D02*
X148965990Y-108196458D01*
X148965990Y-108196458D02*
X148965990Y-108120267D01*
X148965990Y-107853600D02*
X148432656Y-107853600D01*
X148165990Y-107853600D02*
X148204085Y-107891696D01*
X148204085Y-107891696D02*
X148242180Y-107853600D01*
X148242180Y-107853600D02*
X148204085Y-107815505D01*
X148204085Y-107815505D02*
X148165990Y-107853600D01*
X148165990Y-107853600D02*
X148242180Y-107853600D01*
X148965990Y-107358363D02*
X148927895Y-107434553D01*
X148927895Y-107434553D02*
X148889799Y-107472648D01*
X148889799Y-107472648D02*
X148813609Y-107510744D01*
X148813609Y-107510744D02*
X148585037Y-107510744D01*
X148585037Y-107510744D02*
X148508847Y-107472648D01*
X148508847Y-107472648D02*
X148470752Y-107434553D01*
X148470752Y-107434553D02*
X148432656Y-107358363D01*
X148432656Y-107358363D02*
X148432656Y-107244077D01*
X148432656Y-107244077D02*
X148470752Y-107167886D01*
X148470752Y-107167886D02*
X148508847Y-107129791D01*
X148508847Y-107129791D02*
X148585037Y-107091696D01*
X148585037Y-107091696D02*
X148813609Y-107091696D01*
X148813609Y-107091696D02*
X148889799Y-107129791D01*
X148889799Y-107129791D02*
X148927895Y-107167886D01*
X148927895Y-107167886D02*
X148965990Y-107244077D01*
X148965990Y-107244077D02*
X148965990Y-107358363D01*
X148432656Y-106748838D02*
X148965990Y-106748838D01*
X148508847Y-106748838D02*
X148470752Y-106710743D01*
X148470752Y-106710743D02*
X148432656Y-106634553D01*
X148432656Y-106634553D02*
X148432656Y-106520267D01*
X148432656Y-106520267D02*
X148470752Y-106444076D01*
X148470752Y-106444076D02*
X148546942Y-106405981D01*
X148546942Y-106405981D02*
X148965990Y-106405981D01*
X148927895Y-105453600D02*
X148965990Y-105339314D01*
X148965990Y-105339314D02*
X148965990Y-105148838D01*
X148965990Y-105148838D02*
X148927895Y-105072647D01*
X148927895Y-105072647D02*
X148889799Y-105034552D01*
X148889799Y-105034552D02*
X148813609Y-104996457D01*
X148813609Y-104996457D02*
X148737418Y-104996457D01*
X148737418Y-104996457D02*
X148661228Y-105034552D01*
X148661228Y-105034552D02*
X148623133Y-105072647D01*
X148623133Y-105072647D02*
X148585037Y-105148838D01*
X148585037Y-105148838D02*
X148546942Y-105301219D01*
X148546942Y-105301219D02*
X148508847Y-105377409D01*
X148508847Y-105377409D02*
X148470752Y-105415504D01*
X148470752Y-105415504D02*
X148394561Y-105453600D01*
X148394561Y-105453600D02*
X148318371Y-105453600D01*
X148318371Y-105453600D02*
X148242180Y-105415504D01*
X148242180Y-105415504D02*
X148204085Y-105377409D01*
X148204085Y-105377409D02*
X148165990Y-105301219D01*
X148165990Y-105301219D02*
X148165990Y-105110742D01*
X148165990Y-105110742D02*
X148204085Y-104996457D01*
X148432656Y-104729790D02*
X148965990Y-104539314D01*
X148432656Y-104348837D02*
X148965990Y-104539314D01*
X148965990Y-104539314D02*
X149156466Y-104615504D01*
X149156466Y-104615504D02*
X149194561Y-104653599D01*
X149194561Y-104653599D02*
X149232656Y-104729790D01*
X148927895Y-104082171D02*
X148965990Y-104005980D01*
X148965990Y-104005980D02*
X148965990Y-103853599D01*
X148965990Y-103853599D02*
X148927895Y-103777409D01*
X148927895Y-103777409D02*
X148851704Y-103739313D01*
X148851704Y-103739313D02*
X148813609Y-103739313D01*
X148813609Y-103739313D02*
X148737418Y-103777409D01*
X148737418Y-103777409D02*
X148699323Y-103853599D01*
X148699323Y-103853599D02*
X148699323Y-103967885D01*
X148699323Y-103967885D02*
X148661228Y-104044075D01*
X148661228Y-104044075D02*
X148585037Y-104082171D01*
X148585037Y-104082171D02*
X148546942Y-104082171D01*
X148546942Y-104082171D02*
X148470752Y-104044075D01*
X148470752Y-104044075D02*
X148432656Y-103967885D01*
X148432656Y-103967885D02*
X148432656Y-103853599D01*
X148432656Y-103853599D02*
X148470752Y-103777409D01*
X148432656Y-103510742D02*
X148432656Y-103205980D01*
X148165990Y-103396456D02*
X148851704Y-103396456D01*
X148851704Y-103396456D02*
X148927895Y-103358361D01*
X148927895Y-103358361D02*
X148965990Y-103282171D01*
X148965990Y-103282171D02*
X148965990Y-103205980D01*
X148927895Y-102634551D02*
X148965990Y-102710742D01*
X148965990Y-102710742D02*
X148965990Y-102863123D01*
X148965990Y-102863123D02*
X148927895Y-102939313D01*
X148927895Y-102939313D02*
X148851704Y-102977409D01*
X148851704Y-102977409D02*
X148546942Y-102977409D01*
X148546942Y-102977409D02*
X148470752Y-102939313D01*
X148470752Y-102939313D02*
X148432656Y-102863123D01*
X148432656Y-102863123D02*
X148432656Y-102710742D01*
X148432656Y-102710742D02*
X148470752Y-102634551D01*
X148470752Y-102634551D02*
X148546942Y-102596456D01*
X148546942Y-102596456D02*
X148623133Y-102596456D01*
X148623133Y-102596456D02*
X148699323Y-102977409D01*
X148965990Y-102253599D02*
X148432656Y-102253599D01*
X148508847Y-102253599D02*
X148470752Y-102215504D01*
X148470752Y-102215504D02*
X148432656Y-102139314D01*
X148432656Y-102139314D02*
X148432656Y-102025028D01*
X148432656Y-102025028D02*
X148470752Y-101948837D01*
X148470752Y-101948837D02*
X148546942Y-101910742D01*
X148546942Y-101910742D02*
X148965990Y-101910742D01*
X148546942Y-101910742D02*
X148470752Y-101872647D01*
X148470752Y-101872647D02*
X148432656Y-101796456D01*
X148432656Y-101796456D02*
X148432656Y-101682171D01*
X148432656Y-101682171D02*
X148470752Y-101605980D01*
X148470752Y-101605980D02*
X148546942Y-101567885D01*
X148546942Y-101567885D02*
X148965990Y-101567885D01*
X172860239Y-71713733D02*
X173469763Y-71713733D01*
X174231667Y-71218495D02*
X173850715Y-71218495D01*
X173850715Y-71218495D02*
X173812619Y-71599447D01*
X173812619Y-71599447D02*
X173850715Y-71561352D01*
X173850715Y-71561352D02*
X173926905Y-71523257D01*
X173926905Y-71523257D02*
X174117381Y-71523257D01*
X174117381Y-71523257D02*
X174193572Y-71561352D01*
X174193572Y-71561352D02*
X174231667Y-71599447D01*
X174231667Y-71599447D02*
X174269762Y-71675638D01*
X174269762Y-71675638D02*
X174269762Y-71866114D01*
X174269762Y-71866114D02*
X174231667Y-71942304D01*
X174231667Y-71942304D02*
X174193572Y-71980400D01*
X174193572Y-71980400D02*
X174117381Y-72018495D01*
X174117381Y-72018495D02*
X173926905Y-72018495D01*
X173926905Y-72018495D02*
X173850715Y-71980400D01*
X173850715Y-71980400D02*
X173812619Y-71942304D01*
X174498334Y-71218495D02*
X174765001Y-72018495D01*
X174765001Y-72018495D02*
X175031667Y-71218495D01*
X176365001Y-71942304D02*
X176326905Y-71980400D01*
X176326905Y-71980400D02*
X176212620Y-72018495D01*
X176212620Y-72018495D02*
X176136429Y-72018495D01*
X176136429Y-72018495D02*
X176022143Y-71980400D01*
X176022143Y-71980400D02*
X175945953Y-71904209D01*
X175945953Y-71904209D02*
X175907858Y-71828019D01*
X175907858Y-71828019D02*
X175869762Y-71675638D01*
X175869762Y-71675638D02*
X175869762Y-71561352D01*
X175869762Y-71561352D02*
X175907858Y-71408971D01*
X175907858Y-71408971D02*
X175945953Y-71332780D01*
X175945953Y-71332780D02*
X176022143Y-71256590D01*
X176022143Y-71256590D02*
X176136429Y-71218495D01*
X176136429Y-71218495D02*
X176212620Y-71218495D01*
X176212620Y-71218495D02*
X176326905Y-71256590D01*
X176326905Y-71256590D02*
X176365001Y-71294685D01*
X176707858Y-72018495D02*
X176707858Y-71218495D01*
X176707858Y-71218495D02*
X177012620Y-71218495D01*
X177012620Y-71218495D02*
X177088810Y-71256590D01*
X177088810Y-71256590D02*
X177126905Y-71294685D01*
X177126905Y-71294685D02*
X177165001Y-71370876D01*
X177165001Y-71370876D02*
X177165001Y-71485161D01*
X177165001Y-71485161D02*
X177126905Y-71561352D01*
X177126905Y-71561352D02*
X177088810Y-71599447D01*
X177088810Y-71599447D02*
X177012620Y-71637542D01*
X177012620Y-71637542D02*
X176707858Y-71637542D01*
X180229882Y-73463733D02*
X180839406Y-73463733D01*
X180534644Y-73768495D02*
X180534644Y-73158971D01*
X181601310Y-72968495D02*
X181220358Y-72968495D01*
X181220358Y-72968495D02*
X181182262Y-73349447D01*
X181182262Y-73349447D02*
X181220358Y-73311352D01*
X181220358Y-73311352D02*
X181296548Y-73273257D01*
X181296548Y-73273257D02*
X181487024Y-73273257D01*
X181487024Y-73273257D02*
X181563215Y-73311352D01*
X181563215Y-73311352D02*
X181601310Y-73349447D01*
X181601310Y-73349447D02*
X181639405Y-73425638D01*
X181639405Y-73425638D02*
X181639405Y-73616114D01*
X181639405Y-73616114D02*
X181601310Y-73692304D01*
X181601310Y-73692304D02*
X181563215Y-73730400D01*
X181563215Y-73730400D02*
X181487024Y-73768495D01*
X181487024Y-73768495D02*
X181296548Y-73768495D01*
X181296548Y-73768495D02*
X181220358Y-73730400D01*
X181220358Y-73730400D02*
X181182262Y-73692304D01*
X181867977Y-72968495D02*
X182134644Y-73768495D01*
X182134644Y-73768495D02*
X182401310Y-72968495D01*
X183658453Y-73768495D02*
X183277501Y-73768495D01*
X183277501Y-73768495D02*
X183277501Y-72968495D01*
X183925120Y-73768495D02*
X183925120Y-72968495D01*
X183925120Y-72968495D02*
X184115596Y-72968495D01*
X184115596Y-72968495D02*
X184229882Y-73006590D01*
X184229882Y-73006590D02*
X184306072Y-73082780D01*
X184306072Y-73082780D02*
X184344167Y-73158971D01*
X184344167Y-73158971D02*
X184382263Y-73311352D01*
X184382263Y-73311352D02*
X184382263Y-73425638D01*
X184382263Y-73425638D02*
X184344167Y-73578019D01*
X184344167Y-73578019D02*
X184306072Y-73654209D01*
X184306072Y-73654209D02*
X184229882Y-73730400D01*
X184229882Y-73730400D02*
X184115596Y-73768495D01*
X184115596Y-73768495D02*
X183925120Y-73768495D01*
X184877501Y-72968495D02*
X185029882Y-72968495D01*
X185029882Y-72968495D02*
X185106072Y-73006590D01*
X185106072Y-73006590D02*
X185182263Y-73082780D01*
X185182263Y-73082780D02*
X185220358Y-73235161D01*
X185220358Y-73235161D02*
X185220358Y-73501828D01*
X185220358Y-73501828D02*
X185182263Y-73654209D01*
X185182263Y-73654209D02*
X185106072Y-73730400D01*
X185106072Y-73730400D02*
X185029882Y-73768495D01*
X185029882Y-73768495D02*
X184877501Y-73768495D01*
X184877501Y-73768495D02*
X184801310Y-73730400D01*
X184801310Y-73730400D02*
X184725120Y-73654209D01*
X184725120Y-73654209D02*
X184687024Y-73501828D01*
X184687024Y-73501828D02*
X184687024Y-73235161D01*
X184687024Y-73235161D02*
X184725120Y-73082780D01*
X184725120Y-73082780D02*
X184801310Y-73006590D01*
X184801310Y-73006590D02*
X184877501Y-72968495D01*
X139439799Y-83739565D02*
X139477895Y-83777661D01*
X139477895Y-83777661D02*
X139515990Y-83891946D01*
X139515990Y-83891946D02*
X139515990Y-83968137D01*
X139515990Y-83968137D02*
X139477895Y-84082423D01*
X139477895Y-84082423D02*
X139401704Y-84158613D01*
X139401704Y-84158613D02*
X139325514Y-84196708D01*
X139325514Y-84196708D02*
X139173133Y-84234804D01*
X139173133Y-84234804D02*
X139058847Y-84234804D01*
X139058847Y-84234804D02*
X138906466Y-84196708D01*
X138906466Y-84196708D02*
X138830275Y-84158613D01*
X138830275Y-84158613D02*
X138754085Y-84082423D01*
X138754085Y-84082423D02*
X138715990Y-83968137D01*
X138715990Y-83968137D02*
X138715990Y-83891946D01*
X138715990Y-83891946D02*
X138754085Y-83777661D01*
X138754085Y-83777661D02*
X138792180Y-83739565D01*
X139515990Y-83396708D02*
X138715990Y-83396708D01*
X139096942Y-83396708D02*
X139096942Y-82939565D01*
X139515990Y-82939565D02*
X138715990Y-82939565D01*
X138792180Y-82596709D02*
X138754085Y-82558613D01*
X138754085Y-82558613D02*
X138715990Y-82482423D01*
X138715990Y-82482423D02*
X138715990Y-82291947D01*
X138715990Y-82291947D02*
X138754085Y-82215756D01*
X138754085Y-82215756D02*
X138792180Y-82177661D01*
X138792180Y-82177661D02*
X138868371Y-82139566D01*
X138868371Y-82139566D02*
X138944561Y-82139566D01*
X138944561Y-82139566D02*
X139058847Y-82177661D01*
X139058847Y-82177661D02*
X139515990Y-82634804D01*
X139515990Y-82634804D02*
X139515990Y-82139566D01*
X139439799Y-63242175D02*
X139477895Y-63280271D01*
X139477895Y-63280271D02*
X139515990Y-63394556D01*
X139515990Y-63394556D02*
X139515990Y-63470747D01*
X139515990Y-63470747D02*
X139477895Y-63585033D01*
X139477895Y-63585033D02*
X139401704Y-63661223D01*
X139401704Y-63661223D02*
X139325514Y-63699318D01*
X139325514Y-63699318D02*
X139173133Y-63737414D01*
X139173133Y-63737414D02*
X139058847Y-63737414D01*
X139058847Y-63737414D02*
X138906466Y-63699318D01*
X138906466Y-63699318D02*
X138830275Y-63661223D01*
X138830275Y-63661223D02*
X138754085Y-63585033D01*
X138754085Y-63585033D02*
X138715990Y-63470747D01*
X138715990Y-63470747D02*
X138715990Y-63394556D01*
X138715990Y-63394556D02*
X138754085Y-63280271D01*
X138754085Y-63280271D02*
X138792180Y-63242175D01*
X139515990Y-62899318D02*
X138715990Y-62899318D01*
X139096942Y-62899318D02*
X139096942Y-62442175D01*
X139515990Y-62442175D02*
X138715990Y-62442175D01*
X139515990Y-61642176D02*
X139515990Y-62099319D01*
X139515990Y-61870747D02*
X138715990Y-61870747D01*
X138715990Y-61870747D02*
X138830275Y-61946938D01*
X138830275Y-61946938D02*
X138906466Y-62023128D01*
X138906466Y-62023128D02*
X138944561Y-62099319D01*
X139439799Y-124739565D02*
X139477895Y-124777661D01*
X139477895Y-124777661D02*
X139515990Y-124891946D01*
X139515990Y-124891946D02*
X139515990Y-124968137D01*
X139515990Y-124968137D02*
X139477895Y-125082423D01*
X139477895Y-125082423D02*
X139401704Y-125158613D01*
X139401704Y-125158613D02*
X139325514Y-125196708D01*
X139325514Y-125196708D02*
X139173133Y-125234804D01*
X139173133Y-125234804D02*
X139058847Y-125234804D01*
X139058847Y-125234804D02*
X138906466Y-125196708D01*
X138906466Y-125196708D02*
X138830275Y-125158613D01*
X138830275Y-125158613D02*
X138754085Y-125082423D01*
X138754085Y-125082423D02*
X138715990Y-124968137D01*
X138715990Y-124968137D02*
X138715990Y-124891946D01*
X138715990Y-124891946D02*
X138754085Y-124777661D01*
X138754085Y-124777661D02*
X138792180Y-124739565D01*
X139515990Y-124396708D02*
X138715990Y-124396708D01*
X139096942Y-124396708D02*
X139096942Y-123939565D01*
X139515990Y-123939565D02*
X138715990Y-123939565D01*
X138982656Y-123215756D02*
X139515990Y-123215756D01*
X138677895Y-123406232D02*
X139249323Y-123596709D01*
X139249323Y-123596709D02*
X139249323Y-123101470D01*
D12*
X206564443Y-109753599D02*
X205964443Y-109753599D01*
X206564443Y-109410742D02*
X206221586Y-109667885D01*
X205964443Y-109410742D02*
X206307300Y-109753599D01*
X206535872Y-108925028D02*
X206564443Y-108982171D01*
X206564443Y-108982171D02*
X206564443Y-109096457D01*
X206564443Y-109096457D02*
X206535872Y-109153599D01*
X206535872Y-109153599D02*
X206478729Y-109182171D01*
X206478729Y-109182171D02*
X206250157Y-109182171D01*
X206250157Y-109182171D02*
X206193014Y-109153599D01*
X206193014Y-109153599D02*
X206164443Y-109096457D01*
X206164443Y-109096457D02*
X206164443Y-108982171D01*
X206164443Y-108982171D02*
X206193014Y-108925028D01*
X206193014Y-108925028D02*
X206250157Y-108896457D01*
X206250157Y-108896457D02*
X206307300Y-108896457D01*
X206307300Y-108896457D02*
X206364443Y-109182171D01*
X206564443Y-108639313D02*
X206164443Y-108639313D01*
X205964443Y-108639313D02*
X205993014Y-108667885D01*
X205993014Y-108667885D02*
X206021586Y-108639313D01*
X206021586Y-108639313D02*
X205993014Y-108610742D01*
X205993014Y-108610742D02*
X205964443Y-108639313D01*
X205964443Y-108639313D02*
X206021586Y-108639313D01*
X206164443Y-108353599D02*
X206564443Y-108353599D01*
X206221586Y-108353599D02*
X206193014Y-108325028D01*
X206193014Y-108325028D02*
X206164443Y-108267885D01*
X206164443Y-108267885D02*
X206164443Y-108182171D01*
X206164443Y-108182171D02*
X206193014Y-108125028D01*
X206193014Y-108125028D02*
X206250157Y-108096457D01*
X206250157Y-108096457D02*
X206564443Y-108096457D01*
X206564443Y-107353599D02*
X205964443Y-107353599D01*
X205964443Y-107353599D02*
X206393014Y-107153599D01*
X206393014Y-107153599D02*
X205964443Y-106953599D01*
X205964443Y-106953599D02*
X206564443Y-106953599D01*
X206535872Y-106439314D02*
X206564443Y-106496457D01*
X206564443Y-106496457D02*
X206564443Y-106610743D01*
X206564443Y-106610743D02*
X206535872Y-106667885D01*
X206535872Y-106667885D02*
X206478729Y-106696457D01*
X206478729Y-106696457D02*
X206250157Y-106696457D01*
X206250157Y-106696457D02*
X206193014Y-106667885D01*
X206193014Y-106667885D02*
X206164443Y-106610743D01*
X206164443Y-106610743D02*
X206164443Y-106496457D01*
X206164443Y-106496457D02*
X206193014Y-106439314D01*
X206193014Y-106439314D02*
X206250157Y-106410743D01*
X206250157Y-106410743D02*
X206307300Y-106410743D01*
X206307300Y-106410743D02*
X206364443Y-106696457D01*
X206164443Y-106153599D02*
X206564443Y-106153599D01*
X206221586Y-106153599D02*
X206193014Y-106125028D01*
X206193014Y-106125028D02*
X206164443Y-106067885D01*
X206164443Y-106067885D02*
X206164443Y-105982171D01*
X206164443Y-105982171D02*
X206193014Y-105925028D01*
X206193014Y-105925028D02*
X206250157Y-105896457D01*
X206250157Y-105896457D02*
X206564443Y-105896457D01*
X206535872Y-105639314D02*
X206564443Y-105582171D01*
X206564443Y-105582171D02*
X206564443Y-105467885D01*
X206564443Y-105467885D02*
X206535872Y-105410742D01*
X206535872Y-105410742D02*
X206478729Y-105382171D01*
X206478729Y-105382171D02*
X206450157Y-105382171D01*
X206450157Y-105382171D02*
X206393014Y-105410742D01*
X206393014Y-105410742D02*
X206364443Y-105467885D01*
X206364443Y-105467885D02*
X206364443Y-105553600D01*
X206364443Y-105553600D02*
X206335872Y-105610742D01*
X206335872Y-105610742D02*
X206278729Y-105639314D01*
X206278729Y-105639314D02*
X206250157Y-105639314D01*
X206250157Y-105639314D02*
X206193014Y-105610742D01*
X206193014Y-105610742D02*
X206164443Y-105553600D01*
X206164443Y-105553600D02*
X206164443Y-105467885D01*
X206164443Y-105467885D02*
X206193014Y-105410742D01*
X206535872Y-104867886D02*
X206564443Y-104925028D01*
X206564443Y-104925028D02*
X206564443Y-105039314D01*
X206564443Y-105039314D02*
X206535872Y-105096457D01*
X206535872Y-105096457D02*
X206507300Y-105125028D01*
X206507300Y-105125028D02*
X206450157Y-105153600D01*
X206450157Y-105153600D02*
X206278729Y-105153600D01*
X206278729Y-105153600D02*
X206221586Y-105125028D01*
X206221586Y-105125028D02*
X206193014Y-105096457D01*
X206193014Y-105096457D02*
X206164443Y-105039314D01*
X206164443Y-105039314D02*
X206164443Y-104925028D01*
X206164443Y-104925028D02*
X206193014Y-104867886D01*
X206564443Y-104610742D02*
X205964443Y-104610742D01*
X206564443Y-104353600D02*
X206250157Y-104353600D01*
X206250157Y-104353600D02*
X206193014Y-104382171D01*
X206193014Y-104382171D02*
X206164443Y-104439314D01*
X206164443Y-104439314D02*
X206164443Y-104525028D01*
X206164443Y-104525028D02*
X206193014Y-104582171D01*
X206193014Y-104582171D02*
X206221586Y-104610742D01*
X207530409Y-109110742D02*
X206930409Y-109110742D01*
X207501838Y-108853600D02*
X207530409Y-108796457D01*
X207530409Y-108796457D02*
X207530409Y-108682171D01*
X207530409Y-108682171D02*
X207501838Y-108625028D01*
X207501838Y-108625028D02*
X207444695Y-108596457D01*
X207444695Y-108596457D02*
X207416123Y-108596457D01*
X207416123Y-108596457D02*
X207358980Y-108625028D01*
X207358980Y-108625028D02*
X207330409Y-108682171D01*
X207330409Y-108682171D02*
X207330409Y-108767886D01*
X207330409Y-108767886D02*
X207301838Y-108825028D01*
X207301838Y-108825028D02*
X207244695Y-108853600D01*
X207244695Y-108853600D02*
X207216123Y-108853600D01*
X207216123Y-108853600D02*
X207158980Y-108825028D01*
X207158980Y-108825028D02*
X207130409Y-108767886D01*
X207130409Y-108767886D02*
X207130409Y-108682171D01*
X207130409Y-108682171D02*
X207158980Y-108625028D01*
X207130409Y-108425029D02*
X207130409Y-108196457D01*
X206930409Y-108339314D02*
X207444695Y-108339314D01*
X207444695Y-108339314D02*
X207501838Y-108310743D01*
X207501838Y-108310743D02*
X207530409Y-108253600D01*
X207530409Y-108253600D02*
X207530409Y-108196457D01*
X207530409Y-107539314D02*
X206930409Y-107539314D01*
X207530409Y-107167886D02*
X207501838Y-107225029D01*
X207501838Y-107225029D02*
X207444695Y-107253600D01*
X207444695Y-107253600D02*
X206930409Y-107253600D01*
X207530409Y-106853600D02*
X207501838Y-106910743D01*
X207501838Y-106910743D02*
X207444695Y-106939314D01*
X207444695Y-106939314D02*
X206930409Y-106939314D01*
X207501838Y-106396457D02*
X207530409Y-106453600D01*
X207530409Y-106453600D02*
X207530409Y-106567886D01*
X207530409Y-106567886D02*
X207501838Y-106625028D01*
X207501838Y-106625028D02*
X207444695Y-106653600D01*
X207444695Y-106653600D02*
X207216123Y-106653600D01*
X207216123Y-106653600D02*
X207158980Y-106625028D01*
X207158980Y-106625028D02*
X207130409Y-106567886D01*
X207130409Y-106567886D02*
X207130409Y-106453600D01*
X207130409Y-106453600D02*
X207158980Y-106396457D01*
X207158980Y-106396457D02*
X207216123Y-106367886D01*
X207216123Y-106367886D02*
X207273266Y-106367886D01*
X207273266Y-106367886D02*
X207330409Y-106653600D01*
X207130409Y-105853600D02*
X207616123Y-105853600D01*
X207616123Y-105853600D02*
X207673266Y-105882171D01*
X207673266Y-105882171D02*
X207701838Y-105910742D01*
X207701838Y-105910742D02*
X207730409Y-105967885D01*
X207730409Y-105967885D02*
X207730409Y-106053600D01*
X207730409Y-106053600D02*
X207701838Y-106110742D01*
X207501838Y-105853600D02*
X207530409Y-105910742D01*
X207530409Y-105910742D02*
X207530409Y-106025028D01*
X207530409Y-106025028D02*
X207501838Y-106082171D01*
X207501838Y-106082171D02*
X207473266Y-106110742D01*
X207473266Y-106110742D02*
X207416123Y-106139314D01*
X207416123Y-106139314D02*
X207244695Y-106139314D01*
X207244695Y-106139314D02*
X207187552Y-106110742D01*
X207187552Y-106110742D02*
X207158980Y-106082171D01*
X207158980Y-106082171D02*
X207130409Y-106025028D01*
X207130409Y-106025028D02*
X207130409Y-105910742D01*
X207130409Y-105910742D02*
X207158980Y-105853600D01*
X207530409Y-105310743D02*
X207216123Y-105310743D01*
X207216123Y-105310743D02*
X207158980Y-105339314D01*
X207158980Y-105339314D02*
X207130409Y-105396457D01*
X207130409Y-105396457D02*
X207130409Y-105510743D01*
X207130409Y-105510743D02*
X207158980Y-105567885D01*
X207501838Y-105310743D02*
X207530409Y-105367885D01*
X207530409Y-105367885D02*
X207530409Y-105510743D01*
X207530409Y-105510743D02*
X207501838Y-105567885D01*
X207501838Y-105567885D02*
X207444695Y-105596457D01*
X207444695Y-105596457D02*
X207387552Y-105596457D01*
X207387552Y-105596457D02*
X207330409Y-105567885D01*
X207330409Y-105567885D02*
X207301838Y-105510743D01*
X207301838Y-105510743D02*
X207301838Y-105367885D01*
X207301838Y-105367885D02*
X207273266Y-105310743D01*
X207530409Y-104939314D02*
X207501838Y-104996457D01*
X207501838Y-104996457D02*
X207444695Y-105025028D01*
X207444695Y-105025028D02*
X206930409Y-105025028D01*
D11*
X163565596Y-72018495D02*
X163565596Y-71218495D01*
X163565596Y-71218495D02*
X163756072Y-71218495D01*
X163756072Y-71218495D02*
X163870358Y-71256590D01*
X163870358Y-71256590D02*
X163946548Y-71332780D01*
X163946548Y-71332780D02*
X163984643Y-71408971D01*
X163984643Y-71408971D02*
X164022739Y-71561352D01*
X164022739Y-71561352D02*
X164022739Y-71675638D01*
X164022739Y-71675638D02*
X163984643Y-71828019D01*
X163984643Y-71828019D02*
X163946548Y-71904209D01*
X163946548Y-71904209D02*
X163870358Y-71980400D01*
X163870358Y-71980400D02*
X163756072Y-72018495D01*
X163756072Y-72018495D02*
X163565596Y-72018495D01*
X164822739Y-71942304D02*
X164784643Y-71980400D01*
X164784643Y-71980400D02*
X164670358Y-72018495D01*
X164670358Y-72018495D02*
X164594167Y-72018495D01*
X164594167Y-72018495D02*
X164479881Y-71980400D01*
X164479881Y-71980400D02*
X164403691Y-71904209D01*
X164403691Y-71904209D02*
X164365596Y-71828019D01*
X164365596Y-71828019D02*
X164327500Y-71675638D01*
X164327500Y-71675638D02*
X164327500Y-71561352D01*
X164327500Y-71561352D02*
X164365596Y-71408971D01*
X164365596Y-71408971D02*
X164403691Y-71332780D01*
X164403691Y-71332780D02*
X164479881Y-71256590D01*
X164479881Y-71256590D02*
X164594167Y-71218495D01*
X164594167Y-71218495D02*
X164670358Y-71218495D01*
X164670358Y-71218495D02*
X164784643Y-71256590D01*
X164784643Y-71256590D02*
X164822739Y-71294685D01*
X166041786Y-71599447D02*
X166156072Y-71637542D01*
X166156072Y-71637542D02*
X166194167Y-71675638D01*
X166194167Y-71675638D02*
X166232263Y-71751828D01*
X166232263Y-71751828D02*
X166232263Y-71866114D01*
X166232263Y-71866114D02*
X166194167Y-71942304D01*
X166194167Y-71942304D02*
X166156072Y-71980400D01*
X166156072Y-71980400D02*
X166079882Y-72018495D01*
X166079882Y-72018495D02*
X165775120Y-72018495D01*
X165775120Y-72018495D02*
X165775120Y-71218495D01*
X165775120Y-71218495D02*
X166041786Y-71218495D01*
X166041786Y-71218495D02*
X166117977Y-71256590D01*
X166117977Y-71256590D02*
X166156072Y-71294685D01*
X166156072Y-71294685D02*
X166194167Y-71370876D01*
X166194167Y-71370876D02*
X166194167Y-71447066D01*
X166194167Y-71447066D02*
X166156072Y-71523257D01*
X166156072Y-71523257D02*
X166117977Y-71561352D01*
X166117977Y-71561352D02*
X166041786Y-71599447D01*
X166041786Y-71599447D02*
X165775120Y-71599447D01*
X166575120Y-72018495D02*
X166575120Y-71485161D01*
X166575120Y-71218495D02*
X166537024Y-71256590D01*
X166537024Y-71256590D02*
X166575120Y-71294685D01*
X166575120Y-71294685D02*
X166613215Y-71256590D01*
X166613215Y-71256590D02*
X166575120Y-71218495D01*
X166575120Y-71218495D02*
X166575120Y-71294685D01*
X167298929Y-72018495D02*
X167298929Y-71599447D01*
X167298929Y-71599447D02*
X167260834Y-71523257D01*
X167260834Y-71523257D02*
X167184643Y-71485161D01*
X167184643Y-71485161D02*
X167032262Y-71485161D01*
X167032262Y-71485161D02*
X166956072Y-71523257D01*
X167298929Y-71980400D02*
X167222738Y-72018495D01*
X167222738Y-72018495D02*
X167032262Y-72018495D01*
X167032262Y-72018495D02*
X166956072Y-71980400D01*
X166956072Y-71980400D02*
X166917976Y-71904209D01*
X166917976Y-71904209D02*
X166917976Y-71828019D01*
X166917976Y-71828019D02*
X166956072Y-71751828D01*
X166956072Y-71751828D02*
X167032262Y-71713733D01*
X167032262Y-71713733D02*
X167222738Y-71713733D01*
X167222738Y-71713733D02*
X167298929Y-71675638D01*
X167641786Y-71980400D02*
X167717977Y-72018495D01*
X167717977Y-72018495D02*
X167870358Y-72018495D01*
X167870358Y-72018495D02*
X167946548Y-71980400D01*
X167946548Y-71980400D02*
X167984644Y-71904209D01*
X167984644Y-71904209D02*
X167984644Y-71866114D01*
X167984644Y-71866114D02*
X167946548Y-71789923D01*
X167946548Y-71789923D02*
X167870358Y-71751828D01*
X167870358Y-71751828D02*
X167756072Y-71751828D01*
X167756072Y-71751828D02*
X167679882Y-71713733D01*
X167679882Y-71713733D02*
X167641786Y-71637542D01*
X167641786Y-71637542D02*
X167641786Y-71599447D01*
X167641786Y-71599447D02*
X167679882Y-71523257D01*
X167679882Y-71523257D02*
X167756072Y-71485161D01*
X167756072Y-71485161D02*
X167870358Y-71485161D01*
X167870358Y-71485161D02*
X167946548Y-71523257D01*
D12*
X115597416Y-74496456D02*
X114997416Y-74496456D01*
X114997416Y-74496456D02*
X114997416Y-74353599D01*
X114997416Y-74353599D02*
X115025987Y-74267885D01*
X115025987Y-74267885D02*
X115083130Y-74210742D01*
X115083130Y-74210742D02*
X115140273Y-74182171D01*
X115140273Y-74182171D02*
X115254559Y-74153599D01*
X115254559Y-74153599D02*
X115340273Y-74153599D01*
X115340273Y-74153599D02*
X115454559Y-74182171D01*
X115454559Y-74182171D02*
X115511702Y-74210742D01*
X115511702Y-74210742D02*
X115568845Y-74267885D01*
X115568845Y-74267885D02*
X115597416Y-74353599D01*
X115597416Y-74353599D02*
X115597416Y-74496456D01*
X115597416Y-73810742D02*
X115568845Y-73867885D01*
X115568845Y-73867885D02*
X115540273Y-73896456D01*
X115540273Y-73896456D02*
X115483130Y-73925028D01*
X115483130Y-73925028D02*
X115311702Y-73925028D01*
X115311702Y-73925028D02*
X115254559Y-73896456D01*
X115254559Y-73896456D02*
X115225987Y-73867885D01*
X115225987Y-73867885D02*
X115197416Y-73810742D01*
X115197416Y-73810742D02*
X115197416Y-73725028D01*
X115197416Y-73725028D02*
X115225987Y-73667885D01*
X115225987Y-73667885D02*
X115254559Y-73639314D01*
X115254559Y-73639314D02*
X115311702Y-73610742D01*
X115311702Y-73610742D02*
X115483130Y-73610742D01*
X115483130Y-73610742D02*
X115540273Y-73639314D01*
X115540273Y-73639314D02*
X115568845Y-73667885D01*
X115568845Y-73667885D02*
X115597416Y-73725028D01*
X115597416Y-73725028D02*
X115597416Y-73810742D01*
X115540273Y-72553599D02*
X115568845Y-72582171D01*
X115568845Y-72582171D02*
X115597416Y-72667885D01*
X115597416Y-72667885D02*
X115597416Y-72725028D01*
X115597416Y-72725028D02*
X115568845Y-72810742D01*
X115568845Y-72810742D02*
X115511702Y-72867885D01*
X115511702Y-72867885D02*
X115454559Y-72896456D01*
X115454559Y-72896456D02*
X115340273Y-72925028D01*
X115340273Y-72925028D02*
X115254559Y-72925028D01*
X115254559Y-72925028D02*
X115140273Y-72896456D01*
X115140273Y-72896456D02*
X115083130Y-72867885D01*
X115083130Y-72867885D02*
X115025987Y-72810742D01*
X115025987Y-72810742D02*
X114997416Y-72725028D01*
X114997416Y-72725028D02*
X114997416Y-72667885D01*
X114997416Y-72667885D02*
X115025987Y-72582171D01*
X115025987Y-72582171D02*
X115054559Y-72553599D01*
X115597416Y-72296456D02*
X115197416Y-72296456D01*
X115311702Y-72296456D02*
X115254559Y-72267885D01*
X115254559Y-72267885D02*
X115225987Y-72239314D01*
X115225987Y-72239314D02*
X115197416Y-72182171D01*
X115197416Y-72182171D02*
X115197416Y-72125028D01*
X115597416Y-71925027D02*
X115197416Y-71925027D01*
X114997416Y-71925027D02*
X115025987Y-71953599D01*
X115025987Y-71953599D02*
X115054559Y-71925027D01*
X115054559Y-71925027D02*
X115025987Y-71896456D01*
X115025987Y-71896456D02*
X114997416Y-71925027D01*
X114997416Y-71925027D02*
X115054559Y-71925027D01*
X115597416Y-71639313D02*
X115197416Y-71639313D01*
X115254559Y-71639313D02*
X115225987Y-71610742D01*
X115225987Y-71610742D02*
X115197416Y-71553599D01*
X115197416Y-71553599D02*
X115197416Y-71467885D01*
X115197416Y-71467885D02*
X115225987Y-71410742D01*
X115225987Y-71410742D02*
X115283130Y-71382171D01*
X115283130Y-71382171D02*
X115597416Y-71382171D01*
X115283130Y-71382171D02*
X115225987Y-71353599D01*
X115225987Y-71353599D02*
X115197416Y-71296456D01*
X115197416Y-71296456D02*
X115197416Y-71210742D01*
X115197416Y-71210742D02*
X115225987Y-71153599D01*
X115225987Y-71153599D02*
X115283130Y-71125028D01*
X115283130Y-71125028D02*
X115597416Y-71125028D01*
X115568845Y-70610742D02*
X115597416Y-70667885D01*
X115597416Y-70667885D02*
X115597416Y-70782171D01*
X115597416Y-70782171D02*
X115568845Y-70839313D01*
X115568845Y-70839313D02*
X115511702Y-70867885D01*
X115511702Y-70867885D02*
X115283130Y-70867885D01*
X115283130Y-70867885D02*
X115225987Y-70839313D01*
X115225987Y-70839313D02*
X115197416Y-70782171D01*
X115197416Y-70782171D02*
X115197416Y-70667885D01*
X115197416Y-70667885D02*
X115225987Y-70610742D01*
X115225987Y-70610742D02*
X115283130Y-70582171D01*
X115283130Y-70582171D02*
X115340273Y-70582171D01*
X115340273Y-70582171D02*
X115397416Y-70867885D01*
X106578140Y-71258956D02*
X106606712Y-71173242D01*
X106606712Y-71173242D02*
X106635283Y-71144671D01*
X106635283Y-71144671D02*
X106692426Y-71116099D01*
X106692426Y-71116099D02*
X106778140Y-71116099D01*
X106778140Y-71116099D02*
X106835283Y-71144671D01*
X106835283Y-71144671D02*
X106863855Y-71173242D01*
X106863855Y-71173242D02*
X106892426Y-71230385D01*
X106892426Y-71230385D02*
X106892426Y-71458956D01*
X106892426Y-71458956D02*
X106292426Y-71458956D01*
X106292426Y-71458956D02*
X106292426Y-71258956D01*
X106292426Y-71258956D02*
X106320997Y-71201814D01*
X106320997Y-71201814D02*
X106349569Y-71173242D01*
X106349569Y-71173242D02*
X106406712Y-71144671D01*
X106406712Y-71144671D02*
X106463855Y-71144671D01*
X106463855Y-71144671D02*
X106520997Y-71173242D01*
X106520997Y-71173242D02*
X106549569Y-71201814D01*
X106549569Y-71201814D02*
X106578140Y-71258956D01*
X106578140Y-71258956D02*
X106578140Y-71458956D01*
X106863855Y-70630385D02*
X106892426Y-70687528D01*
X106892426Y-70687528D02*
X106892426Y-70801814D01*
X106892426Y-70801814D02*
X106863855Y-70858956D01*
X106863855Y-70858956D02*
X106806712Y-70887528D01*
X106806712Y-70887528D02*
X106578140Y-70887528D01*
X106578140Y-70887528D02*
X106520997Y-70858956D01*
X106520997Y-70858956D02*
X106492426Y-70801814D01*
X106492426Y-70801814D02*
X106492426Y-70687528D01*
X106492426Y-70687528D02*
X106520997Y-70630385D01*
X106520997Y-70630385D02*
X106578140Y-70601814D01*
X106578140Y-70601814D02*
X106635283Y-70601814D01*
X106635283Y-70601814D02*
X106692426Y-70887528D01*
X106320997Y-69573242D02*
X106292426Y-69630385D01*
X106292426Y-69630385D02*
X106292426Y-69716099D01*
X106292426Y-69716099D02*
X106320997Y-69801813D01*
X106320997Y-69801813D02*
X106378140Y-69858956D01*
X106378140Y-69858956D02*
X106435283Y-69887527D01*
X106435283Y-69887527D02*
X106549569Y-69916099D01*
X106549569Y-69916099D02*
X106635283Y-69916099D01*
X106635283Y-69916099D02*
X106749569Y-69887527D01*
X106749569Y-69887527D02*
X106806712Y-69858956D01*
X106806712Y-69858956D02*
X106863855Y-69801813D01*
X106863855Y-69801813D02*
X106892426Y-69716099D01*
X106892426Y-69716099D02*
X106892426Y-69658956D01*
X106892426Y-69658956D02*
X106863855Y-69573242D01*
X106863855Y-69573242D02*
X106835283Y-69544670D01*
X106835283Y-69544670D02*
X106635283Y-69544670D01*
X106635283Y-69544670D02*
X106635283Y-69658956D01*
X106892426Y-69030385D02*
X106578140Y-69030385D01*
X106578140Y-69030385D02*
X106520997Y-69058956D01*
X106520997Y-69058956D02*
X106492426Y-69116099D01*
X106492426Y-69116099D02*
X106492426Y-69230385D01*
X106492426Y-69230385D02*
X106520997Y-69287527D01*
X106863855Y-69030385D02*
X106892426Y-69087527D01*
X106892426Y-69087527D02*
X106892426Y-69230385D01*
X106892426Y-69230385D02*
X106863855Y-69287527D01*
X106863855Y-69287527D02*
X106806712Y-69316099D01*
X106806712Y-69316099D02*
X106749569Y-69316099D01*
X106749569Y-69316099D02*
X106692426Y-69287527D01*
X106692426Y-69287527D02*
X106663855Y-69230385D01*
X106663855Y-69230385D02*
X106663855Y-69087527D01*
X106663855Y-69087527D02*
X106635283Y-69030385D01*
X106492426Y-68801813D02*
X106892426Y-68658956D01*
X106492426Y-68516099D02*
X106892426Y-68658956D01*
X106892426Y-68658956D02*
X107035283Y-68716099D01*
X107035283Y-68716099D02*
X107063855Y-68744670D01*
X107063855Y-68744670D02*
X107092426Y-68801813D01*
D11*
X187990594Y-75268732D02*
X188600118Y-75268732D01*
X188295356Y-75573494D02*
X188295356Y-74963970D01*
X189362022Y-74773494D02*
X188981070Y-74773494D01*
X188981070Y-74773494D02*
X188942974Y-75154446D01*
X188942974Y-75154446D02*
X188981070Y-75116351D01*
X188981070Y-75116351D02*
X189057260Y-75078256D01*
X189057260Y-75078256D02*
X189247736Y-75078256D01*
X189247736Y-75078256D02*
X189323927Y-75116351D01*
X189323927Y-75116351D02*
X189362022Y-75154446D01*
X189362022Y-75154446D02*
X189400117Y-75230637D01*
X189400117Y-75230637D02*
X189400117Y-75421113D01*
X189400117Y-75421113D02*
X189362022Y-75497303D01*
X189362022Y-75497303D02*
X189323927Y-75535399D01*
X189323927Y-75535399D02*
X189247736Y-75573494D01*
X189247736Y-75573494D02*
X189057260Y-75573494D01*
X189057260Y-75573494D02*
X188981070Y-75535399D01*
X188981070Y-75535399D02*
X188942974Y-75497303D01*
X189628689Y-74773494D02*
X189895356Y-75573494D01*
X189895356Y-75573494D02*
X190162022Y-74773494D01*
X190390593Y-74849684D02*
X190428689Y-74811589D01*
X190428689Y-74811589D02*
X190504879Y-74773494D01*
X190504879Y-74773494D02*
X190695355Y-74773494D01*
X190695355Y-74773494D02*
X190771546Y-74811589D01*
X190771546Y-74811589D02*
X190809641Y-74849684D01*
X190809641Y-74849684D02*
X190847736Y-74925875D01*
X190847736Y-74925875D02*
X190847736Y-75002065D01*
X190847736Y-75002065D02*
X190809641Y-75116351D01*
X190809641Y-75116351D02*
X190352498Y-75573494D01*
X190352498Y-75573494D02*
X190847736Y-75573494D01*
X192066784Y-75154446D02*
X192181070Y-75192541D01*
X192181070Y-75192541D02*
X192219165Y-75230637D01*
X192219165Y-75230637D02*
X192257261Y-75306827D01*
X192257261Y-75306827D02*
X192257261Y-75421113D01*
X192257261Y-75421113D02*
X192219165Y-75497303D01*
X192219165Y-75497303D02*
X192181070Y-75535399D01*
X192181070Y-75535399D02*
X192104880Y-75573494D01*
X192104880Y-75573494D02*
X191800118Y-75573494D01*
X191800118Y-75573494D02*
X191800118Y-74773494D01*
X191800118Y-74773494D02*
X192066784Y-74773494D01*
X192066784Y-74773494D02*
X192142975Y-74811589D01*
X192142975Y-74811589D02*
X192181070Y-74849684D01*
X192181070Y-74849684D02*
X192219165Y-74925875D01*
X192219165Y-74925875D02*
X192219165Y-75002065D01*
X192219165Y-75002065D02*
X192181070Y-75078256D01*
X192181070Y-75078256D02*
X192142975Y-75116351D01*
X192142975Y-75116351D02*
X192066784Y-75154446D01*
X192066784Y-75154446D02*
X191800118Y-75154446D01*
X192714403Y-75573494D02*
X192638213Y-75535399D01*
X192638213Y-75535399D02*
X192600118Y-75497303D01*
X192600118Y-75497303D02*
X192562022Y-75421113D01*
X192562022Y-75421113D02*
X192562022Y-75192541D01*
X192562022Y-75192541D02*
X192600118Y-75116351D01*
X192600118Y-75116351D02*
X192638213Y-75078256D01*
X192638213Y-75078256D02*
X192714403Y-75040160D01*
X192714403Y-75040160D02*
X192828689Y-75040160D01*
X192828689Y-75040160D02*
X192904880Y-75078256D01*
X192904880Y-75078256D02*
X192942975Y-75116351D01*
X192942975Y-75116351D02*
X192981070Y-75192541D01*
X192981070Y-75192541D02*
X192981070Y-75421113D01*
X192981070Y-75421113D02*
X192942975Y-75497303D01*
X192942975Y-75497303D02*
X192904880Y-75535399D01*
X192904880Y-75535399D02*
X192828689Y-75573494D01*
X192828689Y-75573494D02*
X192714403Y-75573494D01*
X193438213Y-75573494D02*
X193362023Y-75535399D01*
X193362023Y-75535399D02*
X193323928Y-75497303D01*
X193323928Y-75497303D02*
X193285832Y-75421113D01*
X193285832Y-75421113D02*
X193285832Y-75192541D01*
X193285832Y-75192541D02*
X193323928Y-75116351D01*
X193323928Y-75116351D02*
X193362023Y-75078256D01*
X193362023Y-75078256D02*
X193438213Y-75040160D01*
X193438213Y-75040160D02*
X193552499Y-75040160D01*
X193552499Y-75040160D02*
X193628690Y-75078256D01*
X193628690Y-75078256D02*
X193666785Y-75116351D01*
X193666785Y-75116351D02*
X193704880Y-75192541D01*
X193704880Y-75192541D02*
X193704880Y-75421113D01*
X193704880Y-75421113D02*
X193666785Y-75497303D01*
X193666785Y-75497303D02*
X193628690Y-75535399D01*
X193628690Y-75535399D02*
X193552499Y-75573494D01*
X193552499Y-75573494D02*
X193438213Y-75573494D01*
X194009642Y-75535399D02*
X194085833Y-75573494D01*
X194085833Y-75573494D02*
X194238214Y-75573494D01*
X194238214Y-75573494D02*
X194314404Y-75535399D01*
X194314404Y-75535399D02*
X194352500Y-75459208D01*
X194352500Y-75459208D02*
X194352500Y-75421113D01*
X194352500Y-75421113D02*
X194314404Y-75344922D01*
X194314404Y-75344922D02*
X194238214Y-75306827D01*
X194238214Y-75306827D02*
X194123928Y-75306827D01*
X194123928Y-75306827D02*
X194047738Y-75268732D01*
X194047738Y-75268732D02*
X194009642Y-75192541D01*
X194009642Y-75192541D02*
X194009642Y-75154446D01*
X194009642Y-75154446D02*
X194047738Y-75078256D01*
X194047738Y-75078256D02*
X194123928Y-75040160D01*
X194123928Y-75040160D02*
X194238214Y-75040160D01*
X194238214Y-75040160D02*
X194314404Y-75078256D01*
X194581071Y-75040160D02*
X194885833Y-75040160D01*
X194695357Y-74773494D02*
X194695357Y-75459208D01*
X194695357Y-75459208D02*
X194733452Y-75535399D01*
X194733452Y-75535399D02*
X194809642Y-75573494D01*
X194809642Y-75573494D02*
X194885833Y-75573494D01*
X188840990Y-117529790D02*
X188040990Y-117529790D01*
X188040990Y-117529790D02*
X188040990Y-117225028D01*
X188040990Y-117225028D02*
X188079085Y-117148838D01*
X188079085Y-117148838D02*
X188117180Y-117110743D01*
X188117180Y-117110743D02*
X188193371Y-117072647D01*
X188193371Y-117072647D02*
X188307656Y-117072647D01*
X188307656Y-117072647D02*
X188383847Y-117110743D01*
X188383847Y-117110743D02*
X188421942Y-117148838D01*
X188421942Y-117148838D02*
X188460037Y-117225028D01*
X188460037Y-117225028D02*
X188460037Y-117529790D01*
X188764799Y-116272647D02*
X188802895Y-116310743D01*
X188802895Y-116310743D02*
X188840990Y-116425028D01*
X188840990Y-116425028D02*
X188840990Y-116501219D01*
X188840990Y-116501219D02*
X188802895Y-116615505D01*
X188802895Y-116615505D02*
X188726704Y-116691695D01*
X188726704Y-116691695D02*
X188650514Y-116729790D01*
X188650514Y-116729790D02*
X188498133Y-116767886D01*
X188498133Y-116767886D02*
X188383847Y-116767886D01*
X188383847Y-116767886D02*
X188231466Y-116729790D01*
X188231466Y-116729790D02*
X188155275Y-116691695D01*
X188155275Y-116691695D02*
X188079085Y-116615505D01*
X188079085Y-116615505D02*
X188040990Y-116501219D01*
X188040990Y-116501219D02*
X188040990Y-116425028D01*
X188040990Y-116425028D02*
X188079085Y-116310743D01*
X188079085Y-116310743D02*
X188117180Y-116272647D01*
X188840990Y-115929790D02*
X188040990Y-115929790D01*
X188802895Y-115244076D02*
X188840990Y-115320267D01*
X188840990Y-115320267D02*
X188840990Y-115472648D01*
X188840990Y-115472648D02*
X188802895Y-115548838D01*
X188802895Y-115548838D02*
X188726704Y-115586934D01*
X188726704Y-115586934D02*
X188421942Y-115586934D01*
X188421942Y-115586934D02*
X188345752Y-115548838D01*
X188345752Y-115548838D02*
X188307656Y-115472648D01*
X188307656Y-115472648D02*
X188307656Y-115320267D01*
X188307656Y-115320267D02*
X188345752Y-115244076D01*
X188345752Y-115244076D02*
X188421942Y-115205981D01*
X188421942Y-115205981D02*
X188498133Y-115205981D01*
X188498133Y-115205981D02*
X188574323Y-115586934D01*
X188612418Y-114291696D02*
X188612418Y-113910743D01*
X188840990Y-114367886D02*
X188040990Y-114101219D01*
X188040990Y-114101219D02*
X188840990Y-113834553D01*
X188840990Y-113225029D02*
X188040990Y-113225029D01*
X188802895Y-113225029D02*
X188840990Y-113301220D01*
X188840990Y-113301220D02*
X188840990Y-113453601D01*
X188840990Y-113453601D02*
X188802895Y-113529791D01*
X188802895Y-113529791D02*
X188764799Y-113567886D01*
X188764799Y-113567886D02*
X188688609Y-113605982D01*
X188688609Y-113605982D02*
X188460037Y-113605982D01*
X188460037Y-113605982D02*
X188383847Y-113567886D01*
X188383847Y-113567886D02*
X188345752Y-113529791D01*
X188345752Y-113529791D02*
X188307656Y-113453601D01*
X188307656Y-113453601D02*
X188307656Y-113301220D01*
X188307656Y-113301220D02*
X188345752Y-113225029D01*
X188840990Y-112501219D02*
X188040990Y-112501219D01*
X188802895Y-112501219D02*
X188840990Y-112577410D01*
X188840990Y-112577410D02*
X188840990Y-112729791D01*
X188840990Y-112729791D02*
X188802895Y-112805981D01*
X188802895Y-112805981D02*
X188764799Y-112844076D01*
X188764799Y-112844076D02*
X188688609Y-112882172D01*
X188688609Y-112882172D02*
X188460037Y-112882172D01*
X188460037Y-112882172D02*
X188383847Y-112844076D01*
X188383847Y-112844076D02*
X188345752Y-112805981D01*
X188345752Y-112805981D02*
X188307656Y-112729791D01*
X188307656Y-112729791D02*
X188307656Y-112577410D01*
X188307656Y-112577410D02*
X188345752Y-112501219D01*
X188802895Y-111815504D02*
X188840990Y-111891695D01*
X188840990Y-111891695D02*
X188840990Y-112044076D01*
X188840990Y-112044076D02*
X188802895Y-112120266D01*
X188802895Y-112120266D02*
X188726704Y-112158362D01*
X188726704Y-112158362D02*
X188421942Y-112158362D01*
X188421942Y-112158362D02*
X188345752Y-112120266D01*
X188345752Y-112120266D02*
X188307656Y-112044076D01*
X188307656Y-112044076D02*
X188307656Y-111891695D01*
X188307656Y-111891695D02*
X188345752Y-111815504D01*
X188345752Y-111815504D02*
X188421942Y-111777409D01*
X188421942Y-111777409D02*
X188498133Y-111777409D01*
X188498133Y-111777409D02*
X188574323Y-112158362D01*
X188840990Y-111091695D02*
X188040990Y-111091695D01*
X188802895Y-111091695D02*
X188840990Y-111167886D01*
X188840990Y-111167886D02*
X188840990Y-111320267D01*
X188840990Y-111320267D02*
X188802895Y-111396457D01*
X188802895Y-111396457D02*
X188764799Y-111434552D01*
X188764799Y-111434552D02*
X188688609Y-111472648D01*
X188688609Y-111472648D02*
X188460037Y-111472648D01*
X188460037Y-111472648D02*
X188383847Y-111434552D01*
X188383847Y-111434552D02*
X188345752Y-111396457D01*
X188345752Y-111396457D02*
X188307656Y-111320267D01*
X188307656Y-111320267D02*
X188307656Y-111167886D01*
X188307656Y-111167886D02*
X188345752Y-111091695D01*
X188840990Y-109758361D02*
X188421942Y-109758361D01*
X188421942Y-109758361D02*
X188345752Y-109796456D01*
X188345752Y-109796456D02*
X188307656Y-109872647D01*
X188307656Y-109872647D02*
X188307656Y-110025028D01*
X188307656Y-110025028D02*
X188345752Y-110101218D01*
X188802895Y-109758361D02*
X188840990Y-109834552D01*
X188840990Y-109834552D02*
X188840990Y-110025028D01*
X188840990Y-110025028D02*
X188802895Y-110101218D01*
X188802895Y-110101218D02*
X188726704Y-110139314D01*
X188726704Y-110139314D02*
X188650514Y-110139314D01*
X188650514Y-110139314D02*
X188574323Y-110101218D01*
X188574323Y-110101218D02*
X188536228Y-110025028D01*
X188536228Y-110025028D02*
X188536228Y-109834552D01*
X188536228Y-109834552D02*
X188498133Y-109758361D01*
X188307656Y-109377408D02*
X188840990Y-109377408D01*
X188383847Y-109377408D02*
X188345752Y-109339313D01*
X188345752Y-109339313D02*
X188307656Y-109263123D01*
X188307656Y-109263123D02*
X188307656Y-109148837D01*
X188307656Y-109148837D02*
X188345752Y-109072646D01*
X188345752Y-109072646D02*
X188421942Y-109034551D01*
X188421942Y-109034551D02*
X188840990Y-109034551D01*
X188840990Y-108310741D02*
X188040990Y-108310741D01*
X188802895Y-108310741D02*
X188840990Y-108386932D01*
X188840990Y-108386932D02*
X188840990Y-108539313D01*
X188840990Y-108539313D02*
X188802895Y-108615503D01*
X188802895Y-108615503D02*
X188764799Y-108653598D01*
X188764799Y-108653598D02*
X188688609Y-108691694D01*
X188688609Y-108691694D02*
X188460037Y-108691694D01*
X188460037Y-108691694D02*
X188383847Y-108653598D01*
X188383847Y-108653598D02*
X188345752Y-108615503D01*
X188345752Y-108615503D02*
X188307656Y-108539313D01*
X188307656Y-108539313D02*
X188307656Y-108386932D01*
X188307656Y-108386932D02*
X188345752Y-108310741D01*
X188840990Y-106863121D02*
X188460037Y-107129788D01*
X188840990Y-107320264D02*
X188040990Y-107320264D01*
X188040990Y-107320264D02*
X188040990Y-107015502D01*
X188040990Y-107015502D02*
X188079085Y-106939312D01*
X188079085Y-106939312D02*
X188117180Y-106901217D01*
X188117180Y-106901217D02*
X188193371Y-106863121D01*
X188193371Y-106863121D02*
X188307656Y-106863121D01*
X188307656Y-106863121D02*
X188383847Y-106901217D01*
X188383847Y-106901217D02*
X188421942Y-106939312D01*
X188421942Y-106939312D02*
X188460037Y-107015502D01*
X188460037Y-107015502D02*
X188460037Y-107320264D01*
X188802895Y-106215502D02*
X188840990Y-106291693D01*
X188840990Y-106291693D02*
X188840990Y-106444074D01*
X188840990Y-106444074D02*
X188802895Y-106520264D01*
X188802895Y-106520264D02*
X188726704Y-106558360D01*
X188726704Y-106558360D02*
X188421942Y-106558360D01*
X188421942Y-106558360D02*
X188345752Y-106520264D01*
X188345752Y-106520264D02*
X188307656Y-106444074D01*
X188307656Y-106444074D02*
X188307656Y-106291693D01*
X188307656Y-106291693D02*
X188345752Y-106215502D01*
X188345752Y-106215502D02*
X188421942Y-106177407D01*
X188421942Y-106177407D02*
X188498133Y-106177407D01*
X188498133Y-106177407D02*
X188574323Y-106558360D01*
X188840990Y-105834550D02*
X188307656Y-105834550D01*
X188383847Y-105834550D02*
X188345752Y-105796455D01*
X188345752Y-105796455D02*
X188307656Y-105720265D01*
X188307656Y-105720265D02*
X188307656Y-105605979D01*
X188307656Y-105605979D02*
X188345752Y-105529788D01*
X188345752Y-105529788D02*
X188421942Y-105491693D01*
X188421942Y-105491693D02*
X188840990Y-105491693D01*
X188421942Y-105491693D02*
X188345752Y-105453598D01*
X188345752Y-105453598D02*
X188307656Y-105377407D01*
X188307656Y-105377407D02*
X188307656Y-105263122D01*
X188307656Y-105263122D02*
X188345752Y-105186931D01*
X188345752Y-105186931D02*
X188421942Y-105148836D01*
X188421942Y-105148836D02*
X188840990Y-105148836D01*
X188840990Y-104653598D02*
X188802895Y-104729788D01*
X188802895Y-104729788D02*
X188764799Y-104767883D01*
X188764799Y-104767883D02*
X188688609Y-104805979D01*
X188688609Y-104805979D02*
X188460037Y-104805979D01*
X188460037Y-104805979D02*
X188383847Y-104767883D01*
X188383847Y-104767883D02*
X188345752Y-104729788D01*
X188345752Y-104729788D02*
X188307656Y-104653598D01*
X188307656Y-104653598D02*
X188307656Y-104539312D01*
X188307656Y-104539312D02*
X188345752Y-104463121D01*
X188345752Y-104463121D02*
X188383847Y-104425026D01*
X188383847Y-104425026D02*
X188460037Y-104386931D01*
X188460037Y-104386931D02*
X188688609Y-104386931D01*
X188688609Y-104386931D02*
X188764799Y-104425026D01*
X188764799Y-104425026D02*
X188802895Y-104463121D01*
X188802895Y-104463121D02*
X188840990Y-104539312D01*
X188840990Y-104539312D02*
X188840990Y-104653598D01*
X188307656Y-104120264D02*
X188840990Y-103929788D01*
X188840990Y-103929788D02*
X188307656Y-103739311D01*
X188802895Y-103129787D02*
X188840990Y-103205978D01*
X188840990Y-103205978D02*
X188840990Y-103358359D01*
X188840990Y-103358359D02*
X188802895Y-103434549D01*
X188802895Y-103434549D02*
X188726704Y-103472645D01*
X188726704Y-103472645D02*
X188421942Y-103472645D01*
X188421942Y-103472645D02*
X188345752Y-103434549D01*
X188345752Y-103434549D02*
X188307656Y-103358359D01*
X188307656Y-103358359D02*
X188307656Y-103205978D01*
X188307656Y-103205978D02*
X188345752Y-103129787D01*
X188345752Y-103129787D02*
X188421942Y-103091692D01*
X188421942Y-103091692D02*
X188498133Y-103091692D01*
X188498133Y-103091692D02*
X188574323Y-103472645D01*
X188840990Y-102405978D02*
X188040990Y-102405978D01*
X188802895Y-102405978D02*
X188840990Y-102482169D01*
X188840990Y-102482169D02*
X188840990Y-102634550D01*
X188840990Y-102634550D02*
X188802895Y-102710740D01*
X188802895Y-102710740D02*
X188764799Y-102748835D01*
X188764799Y-102748835D02*
X188688609Y-102786931D01*
X188688609Y-102786931D02*
X188460037Y-102786931D01*
X188460037Y-102786931D02*
X188383847Y-102748835D01*
X188383847Y-102748835D02*
X188345752Y-102710740D01*
X188345752Y-102710740D02*
X188307656Y-102634550D01*
X188307656Y-102634550D02*
X188307656Y-102482169D01*
X188307656Y-102482169D02*
X188345752Y-102405978D01*
X188840990Y-101415501D02*
X188040990Y-101415501D01*
X188421942Y-101415501D02*
X188421942Y-100958358D01*
X188840990Y-100958358D02*
X188040990Y-100958358D01*
X188802895Y-100272644D02*
X188840990Y-100348835D01*
X188840990Y-100348835D02*
X188840990Y-100501216D01*
X188840990Y-100501216D02*
X188802895Y-100577406D01*
X188802895Y-100577406D02*
X188726704Y-100615502D01*
X188726704Y-100615502D02*
X188421942Y-100615502D01*
X188421942Y-100615502D02*
X188345752Y-100577406D01*
X188345752Y-100577406D02*
X188307656Y-100501216D01*
X188307656Y-100501216D02*
X188307656Y-100348835D01*
X188307656Y-100348835D02*
X188345752Y-100272644D01*
X188345752Y-100272644D02*
X188421942Y-100234549D01*
X188421942Y-100234549D02*
X188498133Y-100234549D01*
X188498133Y-100234549D02*
X188574323Y-100615502D01*
X188840990Y-99891692D02*
X188307656Y-99891692D01*
X188460037Y-99891692D02*
X188383847Y-99853597D01*
X188383847Y-99853597D02*
X188345752Y-99815502D01*
X188345752Y-99815502D02*
X188307656Y-99739311D01*
X188307656Y-99739311D02*
X188307656Y-99663121D01*
X188802895Y-99091692D02*
X188840990Y-99167883D01*
X188840990Y-99167883D02*
X188840990Y-99320264D01*
X188840990Y-99320264D02*
X188802895Y-99396454D01*
X188802895Y-99396454D02*
X188726704Y-99434550D01*
X188726704Y-99434550D02*
X188421942Y-99434550D01*
X188421942Y-99434550D02*
X188345752Y-99396454D01*
X188345752Y-99396454D02*
X188307656Y-99320264D01*
X188307656Y-99320264D02*
X188307656Y-99167883D01*
X188307656Y-99167883D02*
X188345752Y-99091692D01*
X188345752Y-99091692D02*
X188421942Y-99053597D01*
X188421942Y-99053597D02*
X188498133Y-99053597D01*
X188498133Y-99053597D02*
X188574323Y-99434550D01*
X188764799Y-98101216D02*
X188802895Y-98063121D01*
X188802895Y-98063121D02*
X188840990Y-98101216D01*
X188840990Y-98101216D02*
X188802895Y-98139312D01*
X188802895Y-98139312D02*
X188764799Y-98101216D01*
X188764799Y-98101216D02*
X188840990Y-98101216D01*
X188345752Y-98101216D02*
X188383847Y-98063121D01*
X188383847Y-98063121D02*
X188421942Y-98101216D01*
X188421942Y-98101216D02*
X188383847Y-98139312D01*
X188383847Y-98139312D02*
X188345752Y-98101216D01*
X188345752Y-98101216D02*
X188421942Y-98101216D01*
X188536228Y-97720264D02*
X188536228Y-97110741D01*
X189145752Y-96805979D02*
X189107656Y-96767884D01*
X189107656Y-96767884D02*
X188993371Y-96691693D01*
X188993371Y-96691693D02*
X188917180Y-96653598D01*
X188917180Y-96653598D02*
X188802895Y-96615503D01*
X188802895Y-96615503D02*
X188612418Y-96577407D01*
X188612418Y-96577407D02*
X188460037Y-96577407D01*
X188460037Y-96577407D02*
X188269561Y-96615503D01*
X188269561Y-96615503D02*
X188155275Y-96653598D01*
X188155275Y-96653598D02*
X188079085Y-96691693D01*
X188079085Y-96691693D02*
X187964799Y-96767884D01*
X187964799Y-96767884D02*
X187926704Y-96805979D01*
X150649903Y-72018495D02*
X150649903Y-71218495D01*
X150649903Y-71218495D02*
X150840379Y-71218495D01*
X150840379Y-71218495D02*
X150954665Y-71256590D01*
X150954665Y-71256590D02*
X151030855Y-71332780D01*
X151030855Y-71332780D02*
X151068950Y-71408971D01*
X151068950Y-71408971D02*
X151107046Y-71561352D01*
X151107046Y-71561352D02*
X151107046Y-71675638D01*
X151107046Y-71675638D02*
X151068950Y-71828019D01*
X151068950Y-71828019D02*
X151030855Y-71904209D01*
X151030855Y-71904209D02*
X150954665Y-71980400D01*
X150954665Y-71980400D02*
X150840379Y-72018495D01*
X150840379Y-72018495D02*
X150649903Y-72018495D01*
X151907046Y-71942304D02*
X151868950Y-71980400D01*
X151868950Y-71980400D02*
X151754665Y-72018495D01*
X151754665Y-72018495D02*
X151678474Y-72018495D01*
X151678474Y-72018495D02*
X151564188Y-71980400D01*
X151564188Y-71980400D02*
X151487998Y-71904209D01*
X151487998Y-71904209D02*
X151449903Y-71828019D01*
X151449903Y-71828019D02*
X151411807Y-71675638D01*
X151411807Y-71675638D02*
X151411807Y-71561352D01*
X151411807Y-71561352D02*
X151449903Y-71408971D01*
X151449903Y-71408971D02*
X151487998Y-71332780D01*
X151487998Y-71332780D02*
X151564188Y-71256590D01*
X151564188Y-71256590D02*
X151678474Y-71218495D01*
X151678474Y-71218495D02*
X151754665Y-71218495D01*
X151754665Y-71218495D02*
X151868950Y-71256590D01*
X151868950Y-71256590D02*
X151907046Y-71294685D01*
X153011808Y-71218495D02*
X153164189Y-71218495D01*
X153164189Y-71218495D02*
X153240379Y-71256590D01*
X153240379Y-71256590D02*
X153316570Y-71332780D01*
X153316570Y-71332780D02*
X153354665Y-71485161D01*
X153354665Y-71485161D02*
X153354665Y-71751828D01*
X153354665Y-71751828D02*
X153316570Y-71904209D01*
X153316570Y-71904209D02*
X153240379Y-71980400D01*
X153240379Y-71980400D02*
X153164189Y-72018495D01*
X153164189Y-72018495D02*
X153011808Y-72018495D01*
X153011808Y-72018495D02*
X152935617Y-71980400D01*
X152935617Y-71980400D02*
X152859427Y-71904209D01*
X152859427Y-71904209D02*
X152821331Y-71751828D01*
X152821331Y-71751828D02*
X152821331Y-71485161D01*
X152821331Y-71485161D02*
X152859427Y-71332780D01*
X152859427Y-71332780D02*
X152935617Y-71256590D01*
X152935617Y-71256590D02*
X153011808Y-71218495D01*
X153583236Y-71485161D02*
X153887998Y-71485161D01*
X153697522Y-72018495D02*
X153697522Y-71332780D01*
X153697522Y-71332780D02*
X153735617Y-71256590D01*
X153735617Y-71256590D02*
X153811807Y-71218495D01*
X153811807Y-71218495D02*
X153887998Y-71218495D01*
X154040379Y-71485161D02*
X154345141Y-71485161D01*
X154154665Y-72018495D02*
X154154665Y-71332780D01*
X154154665Y-71332780D02*
X154192760Y-71256590D01*
X154192760Y-71256590D02*
X154268950Y-71218495D01*
X154268950Y-71218495D02*
X154345141Y-71218495D01*
X154573712Y-71980400D02*
X154649903Y-72018495D01*
X154649903Y-72018495D02*
X154802284Y-72018495D01*
X154802284Y-72018495D02*
X154878474Y-71980400D01*
X154878474Y-71980400D02*
X154916570Y-71904209D01*
X154916570Y-71904209D02*
X154916570Y-71866114D01*
X154916570Y-71866114D02*
X154878474Y-71789923D01*
X154878474Y-71789923D02*
X154802284Y-71751828D01*
X154802284Y-71751828D02*
X154687998Y-71751828D01*
X154687998Y-71751828D02*
X154611808Y-71713733D01*
X154611808Y-71713733D02*
X154573712Y-71637542D01*
X154573712Y-71637542D02*
X154573712Y-71599447D01*
X154573712Y-71599447D02*
X154611808Y-71523257D01*
X154611808Y-71523257D02*
X154687998Y-71485161D01*
X154687998Y-71485161D02*
X154802284Y-71485161D01*
X154802284Y-71485161D02*
X154878474Y-71523257D01*
X155564189Y-71980400D02*
X155487998Y-72018495D01*
X155487998Y-72018495D02*
X155335617Y-72018495D01*
X155335617Y-72018495D02*
X155259427Y-71980400D01*
X155259427Y-71980400D02*
X155221331Y-71904209D01*
X155221331Y-71904209D02*
X155221331Y-71599447D01*
X155221331Y-71599447D02*
X155259427Y-71523257D01*
X155259427Y-71523257D02*
X155335617Y-71485161D01*
X155335617Y-71485161D02*
X155487998Y-71485161D01*
X155487998Y-71485161D02*
X155564189Y-71523257D01*
X155564189Y-71523257D02*
X155602284Y-71599447D01*
X155602284Y-71599447D02*
X155602284Y-71675638D01*
X155602284Y-71675638D02*
X155221331Y-71751828D01*
X155830855Y-71485161D02*
X156135617Y-71485161D01*
X155945141Y-71218495D02*
X155945141Y-71904209D01*
X155945141Y-71904209D02*
X155983236Y-71980400D01*
X155983236Y-71980400D02*
X156059426Y-72018495D01*
X156059426Y-72018495D02*
X156135617Y-72018495D01*
X157468951Y-71942304D02*
X157430855Y-71980400D01*
X157430855Y-71980400D02*
X157316570Y-72018495D01*
X157316570Y-72018495D02*
X157240379Y-72018495D01*
X157240379Y-72018495D02*
X157126093Y-71980400D01*
X157126093Y-71980400D02*
X157049903Y-71904209D01*
X157049903Y-71904209D02*
X157011808Y-71828019D01*
X157011808Y-71828019D02*
X156973712Y-71675638D01*
X156973712Y-71675638D02*
X156973712Y-71561352D01*
X156973712Y-71561352D02*
X157011808Y-71408971D01*
X157011808Y-71408971D02*
X157049903Y-71332780D01*
X157049903Y-71332780D02*
X157126093Y-71256590D01*
X157126093Y-71256590D02*
X157240379Y-71218495D01*
X157240379Y-71218495D02*
X157316570Y-71218495D01*
X157316570Y-71218495D02*
X157430855Y-71256590D01*
X157430855Y-71256590D02*
X157468951Y-71294685D01*
X157697522Y-71485161D02*
X158002284Y-71485161D01*
X157811808Y-71218495D02*
X157811808Y-71904209D01*
X157811808Y-71904209D02*
X157849903Y-71980400D01*
X157849903Y-71980400D02*
X157926093Y-72018495D01*
X157926093Y-72018495D02*
X158002284Y-72018495D01*
X158268951Y-72018495D02*
X158268951Y-71485161D01*
X158268951Y-71637542D02*
X158307046Y-71561352D01*
X158307046Y-71561352D02*
X158345141Y-71523257D01*
X158345141Y-71523257D02*
X158421332Y-71485161D01*
X158421332Y-71485161D02*
X158497522Y-71485161D01*
X158878474Y-72018495D02*
X158802284Y-71980400D01*
X158802284Y-71980400D02*
X158764189Y-71904209D01*
X158764189Y-71904209D02*
X158764189Y-71218495D01*
D13*
%TO.C,R1033_1*%
X133301095Y-69453600D02*
X133301095Y-70403600D01*
X133301095Y-69453600D02*
X135151095Y-69453600D01*
X133301095Y-70403600D02*
X135151095Y-70403600D01*
X135151095Y-69453600D02*
X135151095Y-70403600D01*
%TO.C,FB1000_4*%
X133926095Y-124188600D02*
X133926095Y-123238600D01*
X135776095Y-123238600D02*
X133926095Y-123238600D01*
X135776095Y-124188600D02*
X133926095Y-124188600D01*
X135776095Y-124188600D02*
X135776095Y-123238600D01*
D14*
%TO.C,J1002_3*%
X87076095Y-113078590D02*
X90076095Y-113078590D01*
X87076095Y-122678600D02*
X87076095Y-113078590D01*
X87076095Y-122678600D02*
X90076095Y-122678600D01*
X93276095Y-113078590D02*
X95876095Y-113078590D01*
X93276095Y-122678600D02*
X95876095Y-122678600D01*
D13*
%TO.C,C1045_1*%
X125951095Y-68253600D02*
X125951095Y-69253600D01*
X127851095Y-68253600D02*
X125951095Y-68253600D01*
X127851095Y-68253600D02*
X127851095Y-69253600D01*
X127851095Y-69253600D02*
X125951095Y-69253600D01*
%TO.C,C185*%
X152831095Y-122843600D02*
X152831095Y-123843600D01*
X154731095Y-122843600D02*
X152831095Y-122843600D01*
X154731095Y-122843600D02*
X154731095Y-123843600D01*
X154731095Y-123843600D02*
X152831095Y-123843600D01*
D14*
%TO.C,J1002_2*%
X87076095Y-91428590D02*
X90076095Y-91428590D01*
X87076095Y-101028600D02*
X87076095Y-91428590D01*
X87076095Y-101028600D02*
X90076095Y-101028600D01*
X93276095Y-91428590D02*
X95876095Y-91428590D01*
X93276095Y-101028600D02*
X95876095Y-101028600D01*
D11*
%TO.C,U15*%
X182806076Y-66728599D02*
X182806076Y-67233600D01*
X182806076Y-68823598D02*
X182806076Y-69328599D01*
X185606076Y-66728599D02*
X185606076Y-67233600D01*
X185606076Y-68823598D02*
X185606076Y-69328599D01*
X182856076Y-69678599D02*
G75*
G02*
X182756076Y-69678599I-50000J0D01*
G01*
X182756076Y-69678599D02*
G75*
G02*
X182856076Y-69678599I50000J0D01*
G01*
D13*
%TO.C,R1042_3*%
X127401105Y-108003590D02*
X127401105Y-107053590D01*
X129251105Y-107053590D02*
X127401105Y-107053590D01*
X129251105Y-108003590D02*
X127401105Y-108003590D01*
X129251105Y-108003590D02*
X129251105Y-107053590D01*
%TO.C,R1039_3*%
X120551095Y-111678600D02*
X120551095Y-110728600D01*
X122401095Y-110728600D02*
X120551095Y-110728600D01*
X122401095Y-111678600D02*
X120551095Y-111678600D01*
X122401095Y-111678600D02*
X122401095Y-110728600D01*
%TO.C,R85*%
X90176095Y-109078600D02*
X90176095Y-108128600D01*
X92026095Y-108128600D02*
X90176095Y-108128600D01*
X92026095Y-109078600D02*
X90176095Y-109078600D01*
X92026095Y-109078600D02*
X92026095Y-108128600D01*
%TO.C,C1047_2*%
X121226095Y-83228590D02*
X123126095Y-83228590D01*
X121226095Y-84228590D02*
X121226095Y-83228590D01*
X121226095Y-84228590D02*
X123126095Y-84228590D01*
X123126095Y-84228590D02*
X123126095Y-83228590D01*
D11*
%TO.C,U22*%
X152701095Y-120158601D02*
X152701095Y-119653600D01*
X152701095Y-122253600D02*
X152701095Y-121748599D01*
X155501095Y-120158601D02*
X155501095Y-119653600D01*
X155501095Y-122253600D02*
X155501095Y-121748599D01*
X155551095Y-119303600D02*
G75*
G02*
X155451095Y-119303600I-50000J0D01*
G01*
X155451095Y-119303600D02*
G75*
G02*
X155551095Y-119303600I50000J0D01*
G01*
D13*
%TO.C,R1022_3*%
X104351095Y-103891100D02*
X104351095Y-105391100D01*
X104351095Y-103891100D02*
X107351095Y-103891100D01*
X104351095Y-105391100D02*
X107351095Y-105391100D01*
X107351095Y-103891100D02*
X107351095Y-105391100D01*
%TO.C,C1039_2*%
X131961095Y-80733590D02*
X134961095Y-80733590D01*
X131961095Y-82233590D02*
X131961095Y-80733590D01*
X131961095Y-82233590D02*
X134961095Y-82233590D01*
X134961095Y-82233590D02*
X134961095Y-80733590D01*
%TO.C,R1037_3*%
X127426095Y-106003600D02*
X127426095Y-105053600D01*
X129276095Y-105053600D02*
X127426095Y-105053600D01*
X129276095Y-106003600D02*
X127426095Y-106003600D01*
X129276095Y-106003600D02*
X129276095Y-105053600D01*
%TO.C,R1025_2*%
X103776085Y-96116110D02*
X106426095Y-96116110D01*
X103776085Y-98466100D02*
X103776085Y-96116110D01*
X103776085Y-98466100D02*
X106426095Y-98466100D01*
X106426095Y-98466100D02*
X106426095Y-96116110D01*
%TO.C,R1043_1*%
X122401095Y-67478590D02*
X123351095Y-67478590D01*
X122401095Y-69328590D02*
X122401095Y-67478590D01*
X122401095Y-69328590D02*
X123351095Y-69328590D01*
X123351095Y-69328590D02*
X123351095Y-67478590D01*
%TO.C,R37*%
X168442200Y-127328600D02*
X169392200Y-127328600D01*
X168442200Y-129178600D02*
X168442200Y-127328600D01*
X168442200Y-129178600D02*
X169392200Y-129178600D01*
X169392200Y-129178600D02*
X169392200Y-127328600D01*
%TO.C,C1024_4*%
X113026095Y-125453610D02*
X113026095Y-126953610D01*
X116026095Y-125453610D02*
X113026095Y-125453610D01*
X116026095Y-125453610D02*
X116026095Y-126953610D01*
X116026095Y-126953610D02*
X113026095Y-126953610D01*
%TO.C,C66*%
X180876095Y-95453600D02*
X180876095Y-96453600D01*
X182776095Y-95453600D02*
X180876095Y-95453600D01*
X182776095Y-95453600D02*
X182776095Y-96453600D01*
X182776095Y-96453600D02*
X180876095Y-96453600D01*
%TO.C,FB1000_3*%
X133926095Y-103688600D02*
X133926095Y-102738600D01*
X135776095Y-102738600D02*
X133926095Y-102738600D01*
X135776095Y-103688600D02*
X133926095Y-103688600D01*
X135776095Y-103688600D02*
X135776095Y-102738600D01*
%TO.C,C85*%
X133701095Y-136078600D02*
X133701095Y-137078600D01*
X135601095Y-136078600D02*
X133701095Y-136078600D01*
X135601095Y-136078600D02*
X135601095Y-137078600D01*
X135601095Y-137078600D02*
X133701095Y-137078600D01*
D14*
%TO.C,K1000_3*%
X103021095Y-105716100D02*
X110221095Y-105716100D01*
X103021095Y-106616100D02*
X103021095Y-105716100D01*
X103021095Y-109816100D02*
X103021095Y-107816100D01*
X103021095Y-112016100D02*
X103021095Y-111016100D01*
X103021095Y-114216100D02*
X103021095Y-113216100D01*
X103021095Y-116316100D02*
X103021095Y-115416100D01*
X103021095Y-116316100D02*
X110221095Y-116316100D01*
X110221095Y-106616100D02*
X110221095Y-105716100D01*
X110221095Y-109816100D02*
X110221095Y-107816100D01*
X110221095Y-112016100D02*
X110221095Y-111016100D01*
X110221095Y-114216100D02*
X110221095Y-113216100D01*
X110221095Y-116316100D02*
X110221095Y-115416100D01*
D13*
%TO.C,C1046_1*%
X127376105Y-61978590D02*
X127376105Y-62978590D01*
X129276105Y-61978590D02*
X127376105Y-61978590D01*
X129276105Y-61978590D02*
X129276105Y-62978590D01*
X129276105Y-62978590D02*
X127376105Y-62978590D01*
%TO.C,R127*%
X152856095Y-118153600D02*
X152856095Y-119103600D01*
X152856095Y-118153600D02*
X154706095Y-118153600D01*
X152856095Y-119103600D02*
X154706095Y-119103600D01*
X154706095Y-118153600D02*
X154706095Y-119103600D01*
%TO.C,R120*%
X150401095Y-117353600D02*
X151901095Y-117353600D01*
X150401095Y-120353600D02*
X150401095Y-117353600D01*
X150401095Y-120353600D02*
X151901095Y-120353600D01*
X151901095Y-120353600D02*
X151901095Y-117353600D01*
%TO.C,C1034_4*%
X122176095Y-127078600D02*
X122176095Y-128978600D01*
X122176095Y-127078600D02*
X123176095Y-127078600D01*
X122176095Y-128978600D02*
X123176095Y-128978600D01*
X123176095Y-127078600D02*
X123176095Y-128978600D01*
%TO.C,R1044_4*%
X126001095Y-138278600D02*
X126001095Y-139228600D01*
X126001095Y-138278600D02*
X127851095Y-138278600D01*
X126001095Y-139228600D02*
X127851095Y-139228600D01*
X127851095Y-138278600D02*
X127851095Y-139228600D01*
%TO.C,R1022_2*%
X104351095Y-83391100D02*
X104351095Y-84891100D01*
X104351095Y-83391100D02*
X107351095Y-83391100D01*
X104351095Y-84891100D02*
X107351095Y-84891100D01*
X107351095Y-83391100D02*
X107351095Y-84891100D01*
%TO.C,C47*%
X157476095Y-127328600D02*
X157476095Y-129228600D01*
X157476095Y-127328600D02*
X158476095Y-127328600D01*
X157476095Y-129228600D02*
X158476095Y-129228600D01*
X158476095Y-127328600D02*
X158476095Y-129228600D01*
%TO.C,R38*%
X167501095Y-127328600D02*
X168451095Y-127328600D01*
X167501095Y-129178600D02*
X167501095Y-127328600D01*
X167501095Y-129178600D02*
X168451095Y-129178600D01*
X168451095Y-129178600D02*
X168451095Y-127328600D01*
D11*
%TO.C,C1059_1*%
X116226095Y-61853600D02*
X116226095Y-65953600D01*
X116726095Y-66453600D02*
X116226095Y-65953600D01*
X116926094Y-61853600D02*
X116226095Y-61853600D01*
X116926094Y-66453600D02*
X116726095Y-66453600D01*
X118926095Y-66453600D02*
X118726096Y-66453600D01*
X119426095Y-61853600D02*
X118726096Y-61853600D01*
X119426095Y-61853600D02*
X119426095Y-65753600D01*
X119426095Y-65753600D02*
X119426095Y-65953600D01*
X119426095Y-65953600D02*
X118926095Y-66453600D01*
D15*
%TO.C,U13*%
X174586077Y-64303596D02*
X174181075Y-64303596D01*
X174586077Y-66703602D02*
X174181075Y-66703602D01*
X176281076Y-64303603D02*
X175876081Y-64303596D01*
X176281076Y-66703595D02*
X175876074Y-66703595D01*
D11*
X173981070Y-64303596D02*
G75*
G02*
X173881070Y-64303596I-50000J0D01*
G01*
X173881070Y-64303596D02*
G75*
G02*
X173981070Y-64303596I50000J0D01*
G01*
D13*
%TO.C,J12*%
X87300000Y-82753600D02*
X87300000Y-88053600D01*
X91650000Y-82753600D02*
X87300000Y-82753600D01*
X91650000Y-82753600D02*
X91650000Y-88053600D01*
X91650000Y-88053600D02*
X87300000Y-88053600D01*
%TO.C,R1041_1*%
X127426095Y-66053600D02*
X127426095Y-65103600D01*
X129276095Y-65103600D02*
X127426095Y-65103600D01*
X129276095Y-66053600D02*
X127426095Y-66053600D01*
X129276095Y-66053600D02*
X129276095Y-65103600D01*
%TO.C,R19*%
X161569155Y-90003600D02*
X161569155Y-90953600D01*
X161569155Y-90003600D02*
X163419155Y-90003600D01*
X161569155Y-90953600D02*
X163419155Y-90953600D01*
X163419155Y-90003600D02*
X163419155Y-90953600D01*
%TO.C,C16*%
X167251095Y-91253600D02*
X167251095Y-92253600D01*
X169151095Y-91253600D02*
X167251095Y-91253600D01*
X169151095Y-91253600D02*
X169151095Y-92253600D01*
X169151095Y-92253600D02*
X167251095Y-92253600D01*
%TO.C,R79*%
X173876095Y-107003600D02*
X174826095Y-107003600D01*
X173876095Y-108853600D02*
X173876095Y-107003600D01*
X173876095Y-108853600D02*
X174826095Y-108853600D01*
X174826095Y-108853600D02*
X174826095Y-107003600D01*
D14*
%TO.C,J1002_4*%
X87076095Y-134728590D02*
X90076095Y-134728590D01*
X87076095Y-144328600D02*
X87076095Y-134728590D01*
X87076095Y-144328600D02*
X90076095Y-144328600D01*
X93276095Y-134728590D02*
X95876095Y-134728590D01*
X93276095Y-144328600D02*
X95876095Y-144328600D01*
D13*
%TO.C,R1039_2*%
X120551095Y-91178600D02*
X120551095Y-90228600D01*
X122401095Y-90228600D02*
X120551095Y-90228600D01*
X122401095Y-91178600D02*
X120551095Y-91178600D01*
X122401095Y-91178600D02*
X122401095Y-90228600D01*
%TO.C,R1044_1*%
X126001095Y-76778600D02*
X126001095Y-77728600D01*
X126001095Y-76778600D02*
X127851095Y-76778600D01*
X126001095Y-77728600D02*
X127851095Y-77728600D01*
X127851095Y-76778600D02*
X127851095Y-77728600D01*
%TO.C,R1024_3*%
X113001095Y-107953600D02*
X113001095Y-106453600D01*
X116001095Y-106453600D02*
X113001095Y-106453600D01*
X116001095Y-107953600D02*
X113001095Y-107953600D01*
X116001095Y-107953600D02*
X116001095Y-106453600D01*
%TO.C,R1021_4*%
X106801095Y-139616100D02*
X106801095Y-138116100D01*
X109801095Y-138116100D02*
X106801095Y-138116100D01*
X109801095Y-139616100D02*
X106801095Y-139616100D01*
X109801095Y-139616100D02*
X109801095Y-138116100D01*
%TO.C,R75*%
X177676095Y-107003600D02*
X178626095Y-107003600D01*
X177676095Y-108853600D02*
X177676095Y-107003600D01*
X177676095Y-108853600D02*
X178626095Y-108853600D01*
X178626095Y-108853600D02*
X178626095Y-107003600D01*
%TO.C,R1025_4*%
X103776085Y-137116110D02*
X106426095Y-137116110D01*
X103776085Y-139466100D02*
X103776085Y-137116110D01*
X103776085Y-139466100D02*
X106426095Y-139466100D01*
X106426095Y-139466100D02*
X106426095Y-137116110D01*
%TO.C,R1022_4*%
X104351095Y-124391100D02*
X104351095Y-125891100D01*
X104351095Y-124391100D02*
X107351095Y-124391100D01*
X104351095Y-125891100D02*
X107351095Y-125891100D01*
X107351095Y-124391100D02*
X107351095Y-125891100D01*
%TO.C,C76*%
X135551094Y-72928600D02*
X137451094Y-72928600D01*
X135551094Y-73928600D02*
X135551094Y-72928600D01*
X135551094Y-73928600D02*
X137451094Y-73928600D01*
X137451094Y-73928600D02*
X137451094Y-72928600D01*
D11*
%TO.C,C1059_3*%
X116226095Y-102853600D02*
X116226095Y-106953600D01*
X116726095Y-107453600D02*
X116226095Y-106953600D01*
X116926095Y-102853600D02*
X116226095Y-102853600D01*
X116926095Y-107453600D02*
X116726095Y-107453600D01*
X118926095Y-107453600D02*
X118726095Y-107453600D01*
X119426095Y-102853600D02*
X118726095Y-102853600D01*
X119426095Y-102853600D02*
X119426095Y-106753600D01*
X119426095Y-106753600D02*
X119426095Y-106953600D01*
X119426095Y-106953600D02*
X118926095Y-107453600D01*
D13*
%TO.C,R29*%
X172242200Y-127328600D02*
X173192200Y-127328600D01*
X172242200Y-129178600D02*
X172242200Y-127328600D01*
X172242200Y-129178600D02*
X173192200Y-129178600D01*
X173192200Y-129178600D02*
X173192200Y-127328600D01*
%TO.C,C126*%
X135551094Y-73928600D02*
X137451094Y-73928600D01*
X135551094Y-74928600D02*
X135551094Y-73928600D01*
X135551094Y-74928600D02*
X137451094Y-74928600D01*
X137451094Y-74928600D02*
X137451094Y-73928600D01*
%TO.C,C1056_4*%
X125276105Y-128753590D02*
X127176105Y-128753590D01*
X125276105Y-129753590D02*
X125276105Y-128753590D01*
X125276105Y-129753590D02*
X127176105Y-129753590D01*
X127176105Y-129753590D02*
X127176105Y-128753590D01*
%TO.C,R129*%
X155151095Y-104553600D02*
X155151095Y-105503600D01*
X155151095Y-104553600D02*
X157001095Y-104553600D01*
X155151095Y-105503600D02*
X157001095Y-105503600D01*
X157001095Y-104553600D02*
X157001095Y-105503600D01*
%TO.C,C122*%
X179656086Y-68028599D02*
X179656086Y-71028599D01*
X179656086Y-68028599D02*
X181156086Y-68028599D01*
X179656086Y-71028599D02*
X181156086Y-71028599D01*
X181156086Y-68028599D02*
X181156086Y-71028599D01*
D11*
%TO.C,U6*%
X159519145Y-91578610D02*
X159944145Y-91578610D01*
X159519145Y-92003610D02*
X159519145Y-91578610D01*
X159519145Y-98878610D02*
X159519145Y-98453610D01*
X159519145Y-98878610D02*
X159944145Y-98878610D01*
X166394145Y-91578610D02*
X166819145Y-91578610D01*
X166394145Y-98878610D02*
X166819145Y-98878610D01*
X166819145Y-92003610D02*
X166819145Y-91578610D01*
X166819145Y-98878610D02*
X166819145Y-98453610D01*
D16*
X158994145Y-91728610D02*
G75*
G02*
X158744145Y-91728610I-125000J0D01*
G01*
X158744145Y-91728610D02*
G75*
G02*
X158994145Y-91728610I125000J0D01*
G01*
D13*
%TO.C,R52_2*%
X137226095Y-86828600D02*
X137226095Y-85878600D01*
X139076095Y-85878600D02*
X137226095Y-85878600D01*
X139076095Y-86828600D02*
X137226095Y-86828600D01*
X139076095Y-86828600D02*
X139076095Y-85878600D01*
%TO.C,C1043_1*%
X135151095Y-68928600D02*
X135151095Y-69928600D01*
X137051095Y-68928600D02*
X135151095Y-68928600D01*
X137051095Y-68928600D02*
X137051095Y-69928600D01*
X137051095Y-69928600D02*
X135151095Y-69928600D01*
%TO.C,C80*%
X136001095Y-143053600D02*
X136001095Y-141153600D01*
X139601095Y-141153600D02*
X136001095Y-141153600D01*
X139601095Y-143053600D02*
X136001095Y-143053600D01*
X139601095Y-143053600D02*
X139601095Y-141153600D01*
%TO.C,C1037_3*%
X133876095Y-103728600D02*
X133876095Y-104728600D01*
X135776095Y-103728600D02*
X133876095Y-103728600D01*
X135776095Y-103728600D02*
X135776095Y-104728600D01*
X135776095Y-104728600D02*
X133876095Y-104728600D01*
%TO.C,C1037_1*%
X133876095Y-62728600D02*
X133876095Y-63728600D01*
X135776095Y-62728600D02*
X133876095Y-62728600D01*
X135776095Y-62728600D02*
X135776095Y-63728600D01*
X135776095Y-63728600D02*
X133876095Y-63728600D01*
%TO.C,C1056_2*%
X125276105Y-87753590D02*
X127176105Y-87753590D01*
X125276105Y-88753590D02*
X125276105Y-87753590D01*
X125276105Y-88753590D02*
X127176105Y-88753590D01*
X127176105Y-88753590D02*
X127176105Y-87753590D01*
D15*
%TO.C,U1011_4*%
X124501095Y-132853590D02*
X129501095Y-132853590D01*
X124501095Y-136053590D02*
X124501095Y-132853590D01*
X124501095Y-136053590D02*
X129501095Y-136053590D01*
X129501095Y-136053590D02*
X129501095Y-132853590D01*
D16*
X124371095Y-137178590D02*
G75*
G02*
X124121095Y-137178590I-125000J0D01*
G01*
X124121095Y-137178590D02*
G75*
G02*
X124371095Y-137178590I125000J0D01*
G01*
D17*
X125801095Y-135053590D02*
G75*
G02*
X125201095Y-135053590I-300000J0D01*
G01*
X125201095Y-135053590D02*
G75*
G02*
X125801095Y-135053590I300000J0D01*
G01*
D13*
%TO.C,R1033_2*%
X133301095Y-89953600D02*
X133301095Y-90903600D01*
X133301095Y-89953600D02*
X135151095Y-89953600D01*
X133301095Y-90903600D02*
X135151095Y-90903600D01*
X135151095Y-89953600D02*
X135151095Y-90903600D01*
%TO.C,C188*%
X153226095Y-103803600D02*
X153226095Y-107403600D01*
X155126095Y-103803600D02*
X153226095Y-103803600D01*
X155126095Y-103803600D02*
X155126095Y-107403600D01*
X155126095Y-107403600D02*
X153226095Y-107403600D01*
D11*
%TO.C,U14*%
X150051095Y-98208601D02*
X150051095Y-97703600D01*
X150051095Y-100303600D02*
X150051095Y-99798599D01*
X152851095Y-98208601D02*
X152851095Y-97703600D01*
X152851095Y-100303600D02*
X152851095Y-99798599D01*
X152901095Y-97353600D02*
G75*
G02*
X152801095Y-97353600I-50000J0D01*
G01*
X152801095Y-97353600D02*
G75*
G02*
X152901095Y-97353600I50000J0D01*
G01*
D13*
%TO.C,R51*%
X180901095Y-93503600D02*
X180901095Y-94453600D01*
X180901095Y-93503600D02*
X182751095Y-93503600D01*
X180901095Y-94453600D02*
X182751095Y-94453600D01*
X182751095Y-93503600D02*
X182751095Y-94453600D01*
%TO.C,C184*%
X157151085Y-120953600D02*
X157151085Y-117953600D01*
X158651085Y-117953600D02*
X157151085Y-117953600D01*
X158651085Y-120953600D02*
X157151085Y-120953600D01*
X158651085Y-120953600D02*
X158651085Y-117953600D01*
%TO.C,R1037_4*%
X127426095Y-126503600D02*
X127426095Y-125553600D01*
X129276095Y-125553600D02*
X127426095Y-125553600D01*
X129276095Y-126503600D02*
X127426095Y-126503600D01*
X129276095Y-126503600D02*
X129276095Y-125553600D01*
%TO.C,R82*%
X171026095Y-107003600D02*
X171976095Y-107003600D01*
X171026095Y-108853600D02*
X171026095Y-107003600D01*
X171026095Y-108853600D02*
X171976095Y-108853600D01*
X171976095Y-108853600D02*
X171976095Y-107003600D01*
D15*
%TO.C,U16*%
X135101094Y-78178600D02*
X135101094Y-75178600D01*
X136001094Y-75178600D02*
X135101094Y-75178600D01*
X136001094Y-78178600D02*
X135101094Y-78178600D01*
X136001094Y-78178600D02*
X136001094Y-75178600D01*
D16*
X134326094Y-74878600D02*
G75*
G02*
X134076094Y-74878600I-125000J0D01*
G01*
X134076094Y-74878600D02*
G75*
G02*
X134326094Y-74878600I125000J0D01*
G01*
D13*
%TO.C,C1050_1*%
X122951095Y-76803600D02*
X122951095Y-77803600D01*
X124851095Y-76803600D02*
X122951095Y-76803600D01*
X124851095Y-76803600D02*
X124851095Y-77803600D01*
X124851095Y-77803600D02*
X122951095Y-77803600D01*
D11*
%TO.C,U17*%
X190426095Y-66628600D02*
X191726095Y-66628600D01*
X190426095Y-68328600D02*
X191726095Y-68328600D01*
D18*
X190251095Y-66478600D02*
G75*
G02*
X190101095Y-66478600I-75000J0D01*
G01*
X190101095Y-66478600D02*
G75*
G02*
X190251095Y-66478600I75000J0D01*
G01*
D14*
%TO.C,K1000_1*%
X103021095Y-64716100D02*
X110221095Y-64716100D01*
X103021095Y-65616100D02*
X103021095Y-64716100D01*
X103021095Y-68816100D02*
X103021095Y-66816100D01*
X103021095Y-71016100D02*
X103021095Y-70016100D01*
X103021095Y-73216100D02*
X103021095Y-72216100D01*
X103021095Y-75316100D02*
X103021095Y-74416100D01*
X103021095Y-75316100D02*
X110221095Y-75316100D01*
X110221095Y-65616100D02*
X110221095Y-64716100D01*
X110221095Y-68816100D02*
X110221095Y-66816100D01*
X110221095Y-71016100D02*
X110221095Y-70016100D01*
X110221095Y-73216100D02*
X110221095Y-72216100D01*
X110221095Y-75316100D02*
X110221095Y-74416100D01*
D15*
%TO.C,U1011_3*%
X124501095Y-112353590D02*
X129501095Y-112353590D01*
X124501095Y-115553590D02*
X124501095Y-112353590D01*
X124501095Y-115553590D02*
X129501095Y-115553590D01*
X129501095Y-115553590D02*
X129501095Y-112353590D01*
D16*
X124371095Y-116678590D02*
G75*
G02*
X124121095Y-116678590I-125000J0D01*
G01*
X124121095Y-116678590D02*
G75*
G02*
X124371095Y-116678590I125000J0D01*
G01*
D17*
X125801095Y-114553590D02*
G75*
G02*
X125201095Y-114553590I-300000J0D01*
G01*
X125201095Y-114553590D02*
G75*
G02*
X125801095Y-114553590I300000J0D01*
G01*
D13*
%TO.C,C1048_3*%
X124321095Y-102753600D02*
X124321095Y-103753600D01*
X126221095Y-102753600D02*
X124321095Y-102753600D01*
X126221095Y-102753600D02*
X126221095Y-103753600D01*
X126221095Y-103753600D02*
X124321095Y-103753600D01*
%TO.C,C81*%
X137701095Y-140153600D02*
X137701095Y-141153600D01*
X139601095Y-140153600D02*
X137701095Y-140153600D01*
X139601095Y-140153600D02*
X139601095Y-141153600D01*
X139601095Y-141153600D02*
X137701095Y-141153600D01*
%TO.C,C1046_2*%
X127376105Y-82478590D02*
X127376105Y-83478590D01*
X129276105Y-82478590D02*
X127376105Y-82478590D01*
X129276105Y-82478590D02*
X129276105Y-83478590D01*
X129276105Y-83478590D02*
X127376105Y-83478590D01*
D11*
%TO.C,U11*%
X139001094Y-138303600D02*
X137701094Y-138303600D01*
X139001094Y-140003600D02*
X137701094Y-140003600D01*
D18*
X139326094Y-140153600D02*
G75*
G02*
X139176094Y-140153600I-75000J0D01*
G01*
X139176094Y-140153600D02*
G75*
G02*
X139326094Y-140153600I75000J0D01*
G01*
D15*
%TO.C,U1008_1*%
X132176095Y-64128600D02*
X133101095Y-64128600D01*
X132176095Y-65053600D02*
X132176095Y-64128600D01*
X132176095Y-68528600D02*
X132176095Y-67603600D01*
X132176095Y-68528600D02*
X133101095Y-68528600D01*
X135651095Y-64128600D02*
X136576095Y-64128600D01*
X135651095Y-68528600D02*
X136576095Y-68528600D01*
X136576095Y-65053600D02*
X136576095Y-64128600D01*
X136576095Y-68528600D02*
X136576095Y-67603600D01*
D16*
X136551095Y-63478600D02*
G75*
G02*
X136301095Y-63478600I-125000J0D01*
G01*
X136301095Y-63478600D02*
G75*
G02*
X136551095Y-63478600I125000J0D01*
G01*
D13*
%TO.C,C1049_4*%
X127376095Y-124478600D02*
X127376095Y-125478600D01*
X129276095Y-124478600D02*
X127376095Y-124478600D01*
X129276095Y-124478600D02*
X129276095Y-125478600D01*
X129276095Y-125478600D02*
X127376095Y-125478600D01*
%TO.C,R1037_2*%
X127426095Y-85503600D02*
X127426095Y-84553600D01*
X129276095Y-84553600D02*
X127426095Y-84553600D01*
X129276095Y-85503600D02*
X127426095Y-85503600D01*
X129276095Y-85503600D02*
X129276095Y-84553600D01*
%TO.C,C73*%
X183576095Y-116142360D02*
X183576095Y-117642360D01*
X186576095Y-116142360D02*
X183576095Y-116142360D01*
X186576095Y-116142360D02*
X186576095Y-117642360D01*
X186576095Y-117642360D02*
X183576095Y-117642360D01*
%TO.C,R110*%
X188876095Y-65028600D02*
X188876095Y-66878600D01*
X189826095Y-65028600D02*
X188876095Y-65028600D01*
X189826095Y-65028600D02*
X189826095Y-66878600D01*
X189826095Y-66878600D02*
X188876095Y-66878600D01*
%TO.C,C71*%
X150401095Y-109403590D02*
X153401095Y-109403590D01*
X150401095Y-110903590D02*
X150401095Y-109403590D01*
X150401095Y-110903590D02*
X153401095Y-110903590D01*
X153401095Y-110903590D02*
X153401095Y-109403590D01*
D15*
%TO.C,U1011_1*%
X124501095Y-71353590D02*
X129501095Y-71353590D01*
X124501095Y-74553590D02*
X124501095Y-71353590D01*
X124501095Y-74553590D02*
X129501095Y-74553590D01*
X129501095Y-74553590D02*
X129501095Y-71353590D01*
D16*
X124371095Y-75678590D02*
G75*
G02*
X124121095Y-75678590I-125000J0D01*
G01*
X124121095Y-75678590D02*
G75*
G02*
X124371095Y-75678590I125000J0D01*
G01*
D17*
X125801095Y-73553590D02*
G75*
G02*
X125201095Y-73553590I-300000J0D01*
G01*
X125201095Y-73553590D02*
G75*
G02*
X125801095Y-73553590I300000J0D01*
G01*
D13*
%TO.C,C1021_3*%
X114801095Y-104953600D02*
X114801095Y-103053600D01*
X115801095Y-103053600D02*
X114801095Y-103053600D01*
X115801095Y-104953600D02*
X114801095Y-104953600D01*
X115801095Y-104953600D02*
X115801095Y-103053600D01*
%TO.C,C46*%
X158476095Y-127328600D02*
X158476095Y-129228600D01*
X158476095Y-127328600D02*
X159476095Y-127328600D01*
X158476095Y-129228600D02*
X159476095Y-129228600D01*
X159476095Y-127328600D02*
X159476095Y-129228600D01*
%TO.C,C186*%
X155126095Y-103553600D02*
X157026095Y-103553600D01*
X155126095Y-104553600D02*
X155126095Y-103553600D01*
X155126095Y-104553600D02*
X157026095Y-104553600D01*
X157026095Y-104553600D02*
X157026095Y-103553600D01*
%TO.C,C112*%
X176626095Y-65953600D02*
X176626095Y-64053600D01*
X177626095Y-64053600D02*
X176626095Y-64053600D01*
X177626095Y-65953600D02*
X176626095Y-65953600D01*
X177626095Y-65953600D02*
X177626095Y-64053600D01*
%TO.C,C107*%
X151451095Y-90178610D02*
X151451095Y-91678610D01*
X154451095Y-90178610D02*
X151451095Y-90178610D01*
X154451095Y-90178610D02*
X154451095Y-91678610D01*
X154451095Y-91678610D02*
X151451095Y-91678610D01*
%TO.C,C1021_1*%
X114801095Y-63953600D02*
X114801095Y-62053600D01*
X115801095Y-62053600D02*
X114801095Y-62053600D01*
X115801095Y-63953600D02*
X114801095Y-63953600D01*
X115801095Y-63953600D02*
X115801095Y-62053600D01*
%TO.C,R1038_4*%
X122201095Y-125228600D02*
X122201095Y-127078600D01*
X123151095Y-125228600D02*
X122201095Y-125228600D01*
X123151095Y-125228600D02*
X123151095Y-127078600D01*
X123151095Y-127078600D02*
X122201095Y-127078600D01*
%TO.C,R1042_4*%
X127401105Y-128503590D02*
X127401105Y-127553590D01*
X129251105Y-127553590D02*
X127401105Y-127553590D01*
X129251105Y-128503590D02*
X127401105Y-128503590D01*
X129251105Y-128503590D02*
X129251105Y-127553590D01*
%TO.C,R1043_2*%
X122401095Y-87978590D02*
X123351095Y-87978590D01*
X122401095Y-89828590D02*
X122401095Y-87978590D01*
X122401095Y-89828590D02*
X123351095Y-89828590D01*
X123351095Y-89828590D02*
X123351095Y-87978590D01*
%TO.C,C1030_1*%
X120551105Y-63728590D02*
X120551105Y-66728590D01*
X120551105Y-63728590D02*
X122051105Y-63728590D01*
X120551105Y-66728590D02*
X122051105Y-66728590D01*
X122051105Y-63728590D02*
X122051105Y-66728590D01*
D15*
%TO.C,U7*%
X171951095Y-90053590D02*
X172351095Y-90053590D01*
X171951095Y-90453590D02*
X171951095Y-90053590D01*
X171951095Y-98353590D02*
X171951095Y-97953590D01*
X171951095Y-98353590D02*
X172351095Y-98353590D01*
X179851095Y-90053590D02*
X180251095Y-90053590D01*
X179851095Y-98353590D02*
X180251095Y-98353590D01*
X180251095Y-90453590D02*
X180251095Y-90053590D01*
X180251095Y-98353590D02*
X180251095Y-97953590D01*
D16*
X172226095Y-99003590D02*
G75*
G02*
X171976095Y-99003590I-125000J0D01*
G01*
X171976095Y-99003590D02*
G75*
G02*
X172226095Y-99003590I125000J0D01*
G01*
D13*
%TO.C,C1032_2*%
X127376095Y-87503600D02*
X129276095Y-87503600D01*
X127376095Y-88503600D02*
X127376095Y-87503600D01*
X127376095Y-88503600D02*
X129276095Y-88503600D01*
X129276095Y-88503600D02*
X129276095Y-87503600D01*
%TO.C,R97_2*%
X137226095Y-87778600D02*
X137226095Y-86828600D01*
X139076095Y-86828600D02*
X137226095Y-86828600D01*
X139076095Y-87778600D02*
X137226095Y-87778600D01*
X139076095Y-87778600D02*
X139076095Y-86828600D01*
%TO.C,C121*%
X181156086Y-68028599D02*
X181156086Y-71028599D01*
X181156086Y-68028599D02*
X182656086Y-68028599D01*
X181156086Y-71028599D02*
X182656086Y-71028599D01*
X182656086Y-68028599D02*
X182656086Y-71028599D01*
%TO.C,R64*%
X90176095Y-109128600D02*
X90176095Y-110078600D01*
X90176095Y-109128600D02*
X92026095Y-109128600D01*
X90176095Y-110078600D02*
X92026095Y-110078600D01*
X92026095Y-109128600D02*
X92026095Y-110078600D01*
%TO.C,C6*%
X161081072Y-65268602D02*
X161081072Y-66268602D01*
X162981072Y-65268602D02*
X161081072Y-65268602D01*
X162981072Y-65268602D02*
X162981072Y-66268602D01*
X162981072Y-66268602D02*
X161081072Y-66268602D01*
%TO.C,C180*%
X151901095Y-114403600D02*
X153801095Y-114403600D01*
X151901095Y-118003600D02*
X151901095Y-114403600D01*
X151901095Y-118003600D02*
X153801095Y-118003600D01*
X153801095Y-118003600D02*
X153801095Y-114403600D01*
%TO.C,C119*%
X179656061Y-68028599D02*
X179656061Y-65028599D01*
X181156061Y-65028599D02*
X179656061Y-65028599D01*
X181156061Y-68028599D02*
X179656061Y-68028599D01*
X181156061Y-68028599D02*
X181156061Y-65028599D01*
%TO.C,R72*%
X188576095Y-66878600D02*
X189526095Y-66878600D01*
X188576095Y-68728600D02*
X188576095Y-66878600D01*
X188576095Y-68728600D02*
X189526095Y-68728600D01*
X189526095Y-68728600D02*
X189526095Y-66878600D01*
D15*
%TO.C,U1008_2*%
X132176095Y-84628600D02*
X133101095Y-84628600D01*
X132176095Y-85553600D02*
X132176095Y-84628600D01*
X132176095Y-89028600D02*
X132176095Y-88103600D01*
X132176095Y-89028600D02*
X133101095Y-89028600D01*
X135651095Y-84628600D02*
X136576095Y-84628600D01*
X135651095Y-89028600D02*
X136576095Y-89028600D01*
X136576095Y-85553600D02*
X136576095Y-84628600D01*
X136576095Y-89028600D02*
X136576095Y-88103600D01*
D16*
X136551095Y-83978600D02*
G75*
G02*
X136301095Y-83978600I-125000J0D01*
G01*
X136301095Y-83978600D02*
G75*
G02*
X136551095Y-83978600I125000J0D01*
G01*
D13*
%TO.C,C68*%
X184376095Y-96103600D02*
X186276095Y-96103600D01*
X184376095Y-97103600D02*
X184376095Y-96103600D01*
X184376095Y-97103600D02*
X186276095Y-97103600D01*
X186276095Y-97103600D02*
X186276095Y-96103600D01*
%TO.C,C1022_2*%
X107401085Y-84891100D02*
X107401085Y-81891100D01*
X108901085Y-81891100D02*
X107401085Y-81891100D01*
X108901085Y-84891100D02*
X107401085Y-84891100D01*
X108901085Y-84891100D02*
X108901085Y-81891100D01*
%TO.C,R57*%
X180126095Y-109842350D02*
X180126095Y-111342350D01*
X180126095Y-109842350D02*
X183126095Y-109842350D01*
X180126095Y-111342350D02*
X183126095Y-111342350D01*
X183126095Y-109842350D02*
X183126095Y-111342350D01*
%TO.C,R1053_2*%
X108326095Y-97066100D02*
X108326095Y-96116100D01*
X110176095Y-96116100D02*
X108326095Y-96116100D01*
X110176095Y-97066100D02*
X108326095Y-97066100D01*
X110176095Y-97066100D02*
X110176095Y-96116100D01*
%TO.C,R99*%
X151776095Y-95203600D02*
X152726095Y-95203600D01*
X151776095Y-97053600D02*
X151776095Y-95203600D01*
X151776095Y-97053600D02*
X152726095Y-97053600D01*
X152726095Y-97053600D02*
X152726095Y-95203600D01*
%TO.C,C72*%
X183576095Y-117642360D02*
X183576095Y-119142360D01*
X186576095Y-117642360D02*
X183576095Y-117642360D01*
X186576095Y-117642360D02*
X186576095Y-119142360D01*
X186576095Y-119142360D02*
X183576095Y-119142360D01*
%TO.C,C1053_2*%
X123351095Y-88453600D02*
X123351095Y-89453600D01*
X125251095Y-88453600D02*
X123351095Y-88453600D01*
X125251095Y-88453600D02*
X125251095Y-89453600D01*
X125251095Y-89453600D02*
X123351095Y-89453600D01*
%TO.C,R43*%
X176176095Y-99878600D02*
X176176095Y-98928600D01*
X178026095Y-98928600D02*
X176176095Y-98928600D01*
X178026095Y-99878600D02*
X176176095Y-99878600D01*
X178026095Y-99878600D02*
X178026095Y-98928600D01*
D15*
%TO.C,U1010_3*%
X121001095Y-115228600D02*
X124001095Y-115228600D01*
X121001095Y-116128600D02*
X121001095Y-115228600D01*
X121001095Y-116128600D02*
X124001095Y-116128600D01*
X124001095Y-116128600D02*
X124001095Y-115228600D01*
D16*
X124426095Y-114328600D02*
G75*
G02*
X124176095Y-114328600I-125000J0D01*
G01*
X124176095Y-114328600D02*
G75*
G02*
X124426095Y-114328600I125000J0D01*
G01*
D13*
%TO.C,R1044_2*%
X126001095Y-97278600D02*
X126001095Y-98228600D01*
X126001095Y-97278600D02*
X127851095Y-97278600D01*
X126001095Y-98228600D02*
X127851095Y-98228600D01*
X127851095Y-97278600D02*
X127851095Y-98228600D01*
%TO.C,L5*%
X179826095Y-111342350D02*
X179826095Y-115942350D01*
X179826095Y-111342350D02*
X183126095Y-111342350D01*
X179826095Y-115942350D02*
X183126095Y-115942350D01*
D15*
X180216095Y-113192349D02*
X180216095Y-114092351D01*
X182736095Y-113192349D02*
X182736095Y-114092351D01*
D13*
X183126095Y-111342350D02*
X183126095Y-115942350D01*
%TO.C,C1043_2*%
X135151095Y-89428600D02*
X135151095Y-90428600D01*
X137051095Y-89428600D02*
X135151095Y-89428600D01*
X137051095Y-89428600D02*
X137051095Y-90428600D01*
X137051095Y-90428600D02*
X135151095Y-90428600D01*
%TO.C,C106*%
X173831072Y-66753609D02*
X173831072Y-68253609D01*
X176831072Y-66753609D02*
X173831072Y-66753609D01*
X176831072Y-66753609D02*
X176831072Y-68253609D01*
X176831072Y-68253609D02*
X173831072Y-68253609D01*
%TO.C,C1052_4*%
X123351095Y-128453600D02*
X123351095Y-129453600D01*
X125251095Y-128453600D02*
X123351095Y-128453600D01*
X125251095Y-128453600D02*
X125251095Y-129453600D01*
X125251095Y-129453600D02*
X123351095Y-129453600D01*
%TO.C,C110*%
X154451095Y-88678590D02*
X157451095Y-88678590D01*
X154451095Y-90178590D02*
X154451095Y-88678590D01*
X154451095Y-90178590D02*
X157451095Y-90178590D01*
X157451095Y-90178590D02*
X157451095Y-88678590D01*
%TO.C,C175*%
X180326095Y-116142340D02*
X183326095Y-116142340D01*
X180326095Y-117642340D02*
X180326095Y-116142340D01*
X180326095Y-117642340D02*
X183326095Y-117642340D01*
X183326095Y-117642340D02*
X183326095Y-116142340D01*
%TO.C,R1033_3*%
X133301095Y-110453600D02*
X133301095Y-111403600D01*
X133301095Y-110453600D02*
X135151095Y-110453600D01*
X133301095Y-111403600D02*
X135151095Y-111403600D01*
X135151095Y-110453600D02*
X135151095Y-111403600D01*
D15*
%TO.C,Y1*%
X187051095Y-92578600D02*
G75*
G02*
X186851095Y-92578600I-100000J0D01*
G01*
X186851095Y-92578600D02*
G75*
G02*
X187051095Y-92578600I100000J0D01*
G01*
D13*
%TO.C,C30*%
X166476095Y-127328600D02*
X166476095Y-129228600D01*
X166476095Y-127328600D02*
X167476095Y-127328600D01*
X166476095Y-129228600D02*
X167476095Y-129228600D01*
X167476095Y-127328600D02*
X167476095Y-129228600D01*
%TO.C,C1039_3*%
X131961095Y-101233590D02*
X134961095Y-101233590D01*
X131961095Y-102733590D02*
X131961095Y-101233590D01*
X131961095Y-102733590D02*
X134961095Y-102733590D01*
X134961095Y-102733590D02*
X134961095Y-101233590D01*
%TO.C,R1041_3*%
X127426095Y-107053600D02*
X127426095Y-106103600D01*
X129276095Y-106103600D02*
X127426095Y-106103600D01*
X129276095Y-107053600D02*
X127426095Y-107053600D01*
X129276095Y-107053600D02*
X129276095Y-106103600D01*
%TO.C,C43*%
X159476095Y-127328600D02*
X159476095Y-129228600D01*
X159476095Y-127328600D02*
X160476095Y-127328600D01*
X159476095Y-129228600D02*
X160476095Y-129228600D01*
X160476095Y-127328600D02*
X160476095Y-129228600D01*
%TO.C,C1058_2*%
X106426095Y-96116100D02*
X108326095Y-96116100D01*
X106426095Y-97116100D02*
X106426095Y-96116100D01*
X106426095Y-97116100D02*
X108326095Y-97116100D01*
X108326095Y-97116100D02*
X108326095Y-96116100D01*
D15*
%TO.C,J3*%
X183751095Y-53218600D02*
X196451095Y-53218600D01*
X183751095Y-58548600D02*
X183751095Y-53218600D01*
X183751095Y-58548600D02*
X196451095Y-58548600D01*
X196451095Y-58548600D02*
X196451095Y-53218600D01*
X183201095Y-61088600D02*
G75*
G02*
X183001095Y-61088600I-100000J0D01*
G01*
X183001095Y-61088600D02*
G75*
G02*
X183201095Y-61088600I100000J0D01*
G01*
D13*
%TO.C,R1024_2*%
X113001095Y-87453600D02*
X113001095Y-85953600D01*
X116001095Y-85953600D02*
X113001095Y-85953600D01*
X116001095Y-87453600D02*
X113001095Y-87453600D01*
X116001095Y-87453600D02*
X116001095Y-85953600D01*
%TO.C,R1024_4*%
X113001095Y-128453600D02*
X113001095Y-126953600D01*
X116001095Y-126953600D02*
X113001095Y-126953600D01*
X116001095Y-128453600D02*
X113001095Y-128453600D01*
X116001095Y-128453600D02*
X116001095Y-126953600D01*
D11*
%TO.C,EMI1*%
X153374547Y-125291417D02*
X151818912Y-126847052D01*
X148707643Y-123735783D01*
X150263278Y-122180148D01*
X153374547Y-125291417D01*
D13*
%TO.C,R1043_4*%
X122401095Y-128978590D02*
X123351095Y-128978590D01*
X122401095Y-130828590D02*
X122401095Y-128978590D01*
X122401095Y-130828590D02*
X123351095Y-130828590D01*
X123351095Y-130828590D02*
X123351095Y-128978590D01*
%TO.C,C182*%
X155651105Y-120953600D02*
X155651105Y-123953600D01*
X155651105Y-120953600D02*
X157151105Y-120953600D01*
X155651105Y-123953600D02*
X157151105Y-123953600D01*
X157151105Y-120953600D02*
X157151105Y-123953600D01*
%TO.C,C1032_1*%
X127376095Y-67003600D02*
X129276095Y-67003600D01*
X127376095Y-68003600D02*
X127376095Y-67003600D01*
X127376095Y-68003600D02*
X129276095Y-68003600D01*
X129276095Y-68003600D02*
X129276095Y-67003600D01*
%TO.C,C1030_3*%
X120551105Y-104728590D02*
X120551105Y-107728590D01*
X120551105Y-104728590D02*
X122051105Y-104728590D01*
X120551105Y-107728590D02*
X122051105Y-107728590D01*
X122051105Y-104728590D02*
X122051105Y-107728590D01*
%TO.C,C1044_1*%
X121226095Y-61728590D02*
X123126095Y-61728590D01*
X121226095Y-62728590D02*
X121226095Y-61728590D01*
X121226095Y-62728590D02*
X123126095Y-62728590D01*
X123126095Y-62728590D02*
X123126095Y-61728590D01*
%TO.C,R96*%
X175556072Y-69203599D02*
X175556072Y-68253599D01*
X177406072Y-68253599D02*
X175556072Y-68253599D01*
X177406072Y-69203599D02*
X175556072Y-69203599D01*
X177406072Y-69203599D02*
X177406072Y-68253599D01*
%TO.C,R55*%
X185026095Y-113142350D02*
X185026095Y-112192350D01*
X186876095Y-112192350D02*
X185026095Y-112192350D01*
X186876095Y-113142350D02*
X185026095Y-113142350D01*
X186876095Y-113142350D02*
X186876095Y-112192350D01*
%TO.C,R14*%
X188026095Y-68753600D02*
X189526095Y-68753600D01*
X188026095Y-71753600D02*
X188026095Y-68753600D01*
X188026095Y-71753600D02*
X189526095Y-71753600D01*
X189526095Y-71753600D02*
X189526095Y-68753600D01*
%TO.C,C8*%
X165781072Y-60668602D02*
X167681072Y-60668602D01*
X165781072Y-61668602D02*
X165781072Y-60668602D01*
X165781072Y-61668602D02*
X167681072Y-61668602D01*
X167681072Y-61668602D02*
X167681072Y-60668602D01*
%TO.C,R1024_1*%
X113001095Y-66953600D02*
X113001095Y-65453600D01*
X116001095Y-65453600D02*
X113001095Y-65453600D01*
X116001095Y-66953600D02*
X113001095Y-66953600D01*
X116001095Y-66953600D02*
X116001095Y-65453600D01*
%TO.C,C1045_3*%
X125951095Y-109253600D02*
X125951095Y-110253600D01*
X127851095Y-109253600D02*
X125951095Y-109253600D01*
X127851095Y-109253600D02*
X127851095Y-110253600D01*
X127851095Y-110253600D02*
X125951095Y-110253600D01*
%TO.C,C178*%
X150001095Y-116353600D02*
X150001095Y-117353600D01*
X151901095Y-116353600D02*
X150001095Y-116353600D01*
X151901095Y-116353600D02*
X151901095Y-117353600D01*
X151901095Y-117353600D02*
X150001095Y-117353600D01*
D15*
%TO.C,U9*%
X154001095Y-94928600D02*
X154001095Y-91928600D01*
X154901095Y-91928600D02*
X154001095Y-91928600D01*
X154901095Y-94928600D02*
X154001095Y-94928600D01*
X154901095Y-94928600D02*
X154901095Y-91928600D01*
D16*
X153226095Y-91628600D02*
G75*
G02*
X152976095Y-91628600I-125000J0D01*
G01*
X152976095Y-91628600D02*
G75*
G02*
X153226095Y-91628600I125000J0D01*
G01*
D13*
%TO.C,C35*%
X163476095Y-127328600D02*
X163476095Y-129228600D01*
X163476095Y-127328600D02*
X164476095Y-127328600D01*
X163476095Y-129228600D02*
X164476095Y-129228600D01*
X164476095Y-127328600D02*
X164476095Y-129228600D01*
%TO.C,C1032_3*%
X127376095Y-108003600D02*
X129276095Y-108003600D01*
X127376095Y-109003600D02*
X127376095Y-108003600D01*
X127376095Y-109003600D02*
X129276095Y-109003600D01*
X129276095Y-109003600D02*
X129276095Y-108003600D01*
%TO.C,R1042_1*%
X127401105Y-67003590D02*
X127401105Y-66053590D01*
X129251105Y-66053590D02*
X127401105Y-66053590D01*
X129251105Y-67003590D02*
X127401105Y-67003590D01*
X129251105Y-67003590D02*
X129251105Y-66053590D01*
D14*
%TO.C,J2*%
X203301095Y-120303600D02*
X200701095Y-120303600D01*
X203301095Y-129903610D02*
X200701095Y-129903610D01*
X209501095Y-120303600D02*
X206501095Y-120303600D01*
X209501095Y-120303600D02*
X209501095Y-129903610D01*
X209501095Y-129903610D02*
X206501095Y-129903610D01*
D13*
%TO.C,R74*%
X135901095Y-138253600D02*
X135901095Y-140103600D01*
X136851095Y-138253600D02*
X135901095Y-138253600D01*
X136851095Y-138253600D02*
X136851095Y-140103600D01*
X136851095Y-140103600D02*
X135901095Y-140103600D01*
%TO.C,R1047_4*%
X122401095Y-131228600D02*
X122401095Y-132178600D01*
X122401095Y-131228600D02*
X124251095Y-131228600D01*
X122401095Y-132178600D02*
X124251095Y-132178600D01*
X124251095Y-131228600D02*
X124251095Y-132178600D01*
%TO.C,C1031_3*%
X120551095Y-113578600D02*
X120551095Y-111678600D01*
X124151095Y-111678600D02*
X120551095Y-111678600D01*
X124151095Y-113578600D02*
X120551095Y-113578600D01*
X124151095Y-113578600D02*
X124151095Y-111678600D01*
D15*
%TO.C,U1010_1*%
X121001095Y-74228600D02*
X124001095Y-74228600D01*
X121001095Y-75128600D02*
X121001095Y-74228600D01*
X121001095Y-75128600D02*
X124001095Y-75128600D01*
X124001095Y-75128600D02*
X124001095Y-74228600D01*
D16*
X124426095Y-73328600D02*
G75*
G02*
X124176095Y-73328600I-125000J0D01*
G01*
X124176095Y-73328600D02*
G75*
G02*
X124426095Y-73328600I125000J0D01*
G01*
D13*
%TO.C,C1053_1*%
X123351095Y-67953600D02*
X123351095Y-68953600D01*
X125251095Y-67953600D02*
X123351095Y-67953600D01*
X125251095Y-67953600D02*
X125251095Y-68953600D01*
X125251095Y-68953600D02*
X123351095Y-68953600D01*
D11*
%TO.C,U23*%
X154301095Y-107553600D02*
X155601095Y-107553600D01*
X154301095Y-109253600D02*
X155601095Y-109253600D01*
D18*
X154126095Y-107403600D02*
G75*
G02*
X153976095Y-107403600I-75000J0D01*
G01*
X153976095Y-107403600D02*
G75*
G02*
X154126095Y-107403600I75000J0D01*
G01*
D14*
%TO.C,J1002_1*%
X87076095Y-69778590D02*
X90076095Y-69778590D01*
X87076095Y-79378600D02*
X87076095Y-69778590D01*
X87076095Y-79378600D02*
X90076095Y-79378600D01*
X93276095Y-69778590D02*
X95876095Y-69778590D01*
X93276095Y-79378600D02*
X95876095Y-79378600D01*
D13*
%TO.C,C10*%
X153626100Y-110903611D02*
X153626100Y-112403611D01*
X156626100Y-110903611D02*
X153626100Y-110903611D01*
X156626100Y-110903611D02*
X156626100Y-112403611D01*
X156626100Y-112403611D02*
X153626100Y-112403611D01*
%TO.C,R81*%
X171976095Y-107003600D02*
X172926095Y-107003600D01*
X171976095Y-108853600D02*
X171976095Y-107003600D01*
X171976095Y-108853600D02*
X172926095Y-108853600D01*
X172926095Y-108853600D02*
X172926095Y-107003600D01*
%TO.C,C1049_2*%
X127376095Y-83478600D02*
X127376095Y-84478600D01*
X129276095Y-83478600D02*
X127376095Y-83478600D01*
X129276095Y-83478600D02*
X129276095Y-84478600D01*
X129276095Y-84478600D02*
X127376095Y-84478600D01*
%TO.C,C1023_2*%
X111501105Y-84453600D02*
X111501105Y-87453600D01*
X111501105Y-84453600D02*
X113001105Y-84453600D01*
X111501105Y-87453600D02*
X113001105Y-87453600D01*
X113001105Y-84453600D02*
X113001105Y-87453600D01*
%TO.C,R21*%
X165276095Y-90003590D02*
X165276095Y-90953590D01*
X165276095Y-90003590D02*
X167126095Y-90003590D01*
X165276095Y-90953590D02*
X167126095Y-90953590D01*
X167126095Y-90003590D02*
X167126095Y-90953590D01*
%TO.C,R1038_1*%
X122201095Y-63728600D02*
X122201095Y-65578600D01*
X123151095Y-63728600D02*
X122201095Y-63728600D01*
X123151095Y-63728600D02*
X123151095Y-65578600D01*
X123151095Y-65578600D02*
X122201095Y-65578600D01*
%TO.C,R103*%
X149926095Y-96153600D02*
X149926095Y-95203600D01*
X151776095Y-95203600D02*
X149926095Y-95203600D01*
X151776095Y-96153600D02*
X149926095Y-96153600D01*
X151776095Y-96153600D02*
X151776095Y-95203600D01*
D10*
%TO.C,HS1*%
X145015398Y-125539297D02*
X149801095Y-120753600D01*
X149801095Y-120753600D02*
X149801095Y-88553600D01*
X150015398Y-130539297D02*
X155001095Y-125553600D01*
X155001095Y-125553600D02*
X187201095Y-125553600D01*
X182001095Y-88553600D02*
X149801095Y-88553600D01*
X186986792Y-83567903D02*
X182001095Y-88553600D01*
X187201095Y-93353600D02*
X187201095Y-125553600D01*
X191986792Y-88567903D02*
X187201095Y-93353600D01*
X151181095Y-127913600D02*
G75*
G02*
X144101095Y-127913600I-3540000J0D01*
G01*
X144101095Y-127913600D02*
G75*
G02*
X151181095Y-127913600I3540000J0D01*
G01*
X192901095Y-86193600D02*
G75*
G02*
X185821095Y-86193600I-3540000J0D01*
G01*
X185821095Y-86193600D02*
G75*
G02*
X192901095Y-86193600I3540000J0D01*
G01*
D13*
%TO.C,R18*%
X159726095Y-90003590D02*
X159726095Y-90953590D01*
X159726095Y-90003590D02*
X161576095Y-90003590D01*
X159726095Y-90953590D02*
X161576095Y-90953590D01*
X161576095Y-90003590D02*
X161576095Y-90953590D01*
%TO.C,R97_3*%
X137226095Y-108278600D02*
X137226095Y-107328600D01*
X139076095Y-107328600D02*
X137226095Y-107328600D01*
X139076095Y-108278600D02*
X137226095Y-108278600D01*
X139076095Y-108278600D02*
X139076095Y-107328600D01*
%TO.C,C1035_1*%
X127851095Y-68253600D02*
X127851095Y-69253600D01*
X129751095Y-68253600D02*
X127851095Y-68253600D01*
X129751095Y-68253600D02*
X129751095Y-69253600D01*
X129751095Y-69253600D02*
X127851095Y-69253600D01*
%TO.C,R1047_1*%
X122401095Y-69728600D02*
X122401095Y-70678600D01*
X122401095Y-69728600D02*
X124251095Y-69728600D01*
X122401095Y-70678600D02*
X124251095Y-70678600D01*
X124251095Y-69728600D02*
X124251095Y-70678600D01*
D11*
%TO.C,U3*%
X156121116Y-64403600D02*
X159121116Y-64403600D01*
X156121116Y-66603600D02*
X156121116Y-64403600D01*
X156121116Y-66603600D02*
X159121116Y-66603600D01*
X159121116Y-66603600D02*
X159121116Y-64403600D01*
D16*
X156021116Y-67703600D02*
G75*
G02*
X155771116Y-67703600I-125000J0D01*
G01*
X155771116Y-67703600D02*
G75*
G02*
X156021116Y-67703600I125000J0D01*
G01*
D19*
X157071116Y-65853600D02*
G75*
G02*
X156671116Y-65853600I-200000J0D01*
G01*
X156671116Y-65853600D02*
G75*
G02*
X157071116Y-65853600I200000J0D01*
G01*
D13*
%TO.C,R77*%
X174826095Y-107003600D02*
X175776095Y-107003600D01*
X174826095Y-108853600D02*
X174826095Y-107003600D01*
X174826095Y-108853600D02*
X175776095Y-108853600D01*
X175776095Y-108853600D02*
X175776095Y-107003600D01*
D15*
%TO.C,U1010_2*%
X121001095Y-94728600D02*
X124001095Y-94728600D01*
X121001095Y-95628600D02*
X121001095Y-94728600D01*
X121001095Y-95628600D02*
X124001095Y-95628600D01*
X124001095Y-95628600D02*
X124001095Y-94728600D01*
D16*
X124426095Y-93828600D02*
G75*
G02*
X124176095Y-93828600I-125000J0D01*
G01*
X124176095Y-93828600D02*
G75*
G02*
X124426095Y-93828600I125000J0D01*
G01*
D13*
%TO.C,C1058_1*%
X106426095Y-75616100D02*
X108326095Y-75616100D01*
X106426095Y-76616100D02*
X106426095Y-75616100D01*
X106426095Y-76616100D02*
X108326095Y-76616100D01*
X108326095Y-76616100D02*
X108326095Y-75616100D01*
%TO.C,R73*%
X133726095Y-138053600D02*
X133726095Y-137103600D01*
X135576095Y-137103600D02*
X133726095Y-137103600D01*
X135576095Y-138053600D02*
X133726095Y-138053600D01*
X135576095Y-138053600D02*
X135576095Y-137103600D01*
%TO.C,C1047_3*%
X121226095Y-103728590D02*
X123126095Y-103728590D01*
X121226095Y-104728590D02*
X121226095Y-103728590D01*
X121226095Y-104728590D02*
X123126095Y-104728590D01*
X123126095Y-104728590D02*
X123126095Y-103728590D01*
%TO.C,C1040_1*%
X135781085Y-63733600D02*
X135781085Y-60733600D01*
X137281085Y-60733600D02*
X135781085Y-60733600D01*
X137281085Y-63733600D02*
X135781085Y-63733600D01*
X137281085Y-63733600D02*
X137281085Y-60733600D01*
%TO.C,C4*%
X163901095Y-66618602D02*
X163901095Y-68518602D01*
X163901095Y-66618602D02*
X164901095Y-66618602D01*
X163901095Y-68518602D02*
X164901095Y-68518602D01*
X164901095Y-66618602D02*
X164901095Y-68518602D01*
%TO.C,C1023_3*%
X111501105Y-104953600D02*
X111501105Y-107953600D01*
X111501105Y-104953600D02*
X113001105Y-104953600D01*
X111501105Y-107953600D02*
X113001105Y-107953600D01*
X113001105Y-104953600D02*
X113001105Y-107953600D01*
%TO.C,C1044_2*%
X121226095Y-82228590D02*
X123126095Y-82228590D01*
X121226095Y-83228590D02*
X121226095Y-82228590D01*
X121226095Y-83228590D02*
X123126095Y-83228590D01*
X123126095Y-83228590D02*
X123126095Y-82228590D01*
%TO.C,C1043_3*%
X135151095Y-109928600D02*
X135151095Y-110928600D01*
X137051095Y-109928600D02*
X135151095Y-109928600D01*
X137051095Y-109928600D02*
X137051095Y-110928600D01*
X137051095Y-110928600D02*
X135151095Y-110928600D01*
%TO.C,C42*%
X160476095Y-127328600D02*
X160476095Y-129228600D01*
X160476095Y-127328600D02*
X161476095Y-127328600D01*
X160476095Y-129228600D02*
X161476095Y-129228600D01*
X161476095Y-127328600D02*
X161476095Y-129228600D01*
%TO.C,C1045_4*%
X125951095Y-129753600D02*
X125951095Y-130753600D01*
X127851095Y-129753600D02*
X125951095Y-129753600D01*
X127851095Y-129753600D02*
X127851095Y-130753600D01*
X127851095Y-130753600D02*
X125951095Y-130753600D01*
%TO.C,C51*%
X171451095Y-88628600D02*
X173351095Y-88628600D01*
X171451095Y-89628600D02*
X171451095Y-88628600D01*
X171451095Y-89628600D02*
X173351095Y-89628600D01*
X173351095Y-89628600D02*
X173351095Y-88628600D01*
%TO.C,C1056_3*%
X125276105Y-108253590D02*
X127176105Y-108253590D01*
X125276105Y-109253590D02*
X125276105Y-108253590D01*
X125276105Y-109253590D02*
X127176105Y-109253590D01*
X127176105Y-109253590D02*
X127176105Y-108253590D01*
%TO.C,C125*%
X133651094Y-73928600D02*
X133651094Y-74928600D01*
X135551094Y-73928600D02*
X133651094Y-73928600D01*
X135551094Y-73928600D02*
X135551094Y-74928600D01*
X135551094Y-74928600D02*
X133651094Y-74928600D01*
%TO.C,R102*%
X149926095Y-97153600D02*
X149926095Y-96203600D01*
X151776095Y-96203600D02*
X149926095Y-96203600D01*
X151776095Y-97153600D02*
X149926095Y-97153600D01*
X151776095Y-97153600D02*
X151776095Y-96203600D01*
%TO.C,C1055_3*%
X127851095Y-117753600D02*
X127851095Y-118753600D01*
X129751095Y-117753600D02*
X127851095Y-117753600D01*
X129751095Y-117753600D02*
X129751095Y-118753600D01*
X129751095Y-118753600D02*
X127851095Y-118753600D01*
%TO.C,L3*%
X153801095Y-117153600D02*
X153801095Y-112553600D01*
D15*
X154191095Y-115303601D02*
X154191095Y-114403599D01*
X156711095Y-115303601D02*
X156711095Y-114403599D01*
D13*
X157101095Y-112553600D02*
X153801095Y-112553600D01*
X157101095Y-117153600D02*
X153801095Y-117153600D01*
X157101095Y-117153600D02*
X157101095Y-112553600D01*
D14*
%TO.C,K1001_1*%
X111726085Y-67253600D02*
X118926085Y-67253600D01*
X111726085Y-68153600D02*
X111726085Y-67253600D01*
X111726085Y-71353600D02*
X111726085Y-69353600D01*
X111726085Y-73553600D02*
X111726085Y-72553600D01*
X111726085Y-75753600D02*
X111726085Y-74753600D01*
X111726085Y-77853600D02*
X111726085Y-76953600D01*
X111726085Y-77853600D02*
X118926085Y-77853600D01*
X118926085Y-68153600D02*
X118926085Y-67253600D01*
X118926085Y-71353600D02*
X118926085Y-69353600D01*
X118926085Y-73553600D02*
X118926085Y-72553600D01*
X118926085Y-75753600D02*
X118926085Y-74753600D01*
X118926085Y-77853600D02*
X118926085Y-76953600D01*
D13*
%TO.C,C1035_3*%
X127851095Y-109253600D02*
X127851095Y-110253600D01*
X129751095Y-109253600D02*
X127851095Y-109253600D01*
X129751095Y-109253600D02*
X129751095Y-110253600D01*
X129751095Y-110253600D02*
X127851095Y-110253600D01*
%TO.C,R22*%
X167458295Y-92303610D02*
X167458295Y-94153610D01*
X168408295Y-92303610D02*
X167458295Y-92303610D01*
X168408295Y-92303610D02*
X168408295Y-94153610D01*
X168408295Y-94153610D02*
X167458295Y-94153610D01*
%TO.C,R1053_4*%
X108326095Y-138066100D02*
X108326095Y-137116100D01*
X110176095Y-137116100D02*
X108326095Y-137116100D01*
X110176095Y-138066100D02*
X108326095Y-138066100D01*
X110176095Y-138066100D02*
X110176095Y-137116100D01*
%TO.C,R6*%
X90176095Y-106128600D02*
X90176095Y-107078600D01*
X90176095Y-106128600D02*
X92026095Y-106128600D01*
X90176095Y-107078600D02*
X92026095Y-107078600D01*
X92026095Y-106128600D02*
X92026095Y-107078600D01*
%TO.C,C109*%
X154451095Y-90178590D02*
X157451095Y-90178590D01*
X154451095Y-91678590D02*
X154451095Y-90178590D01*
X154451095Y-91678590D02*
X157451095Y-91678590D01*
X157451095Y-91678590D02*
X157451095Y-90178590D01*
%TO.C,C62*%
X170376095Y-96278600D02*
X170376095Y-94378600D01*
X171376095Y-94378600D02*
X170376095Y-94378600D01*
X171376095Y-96278600D02*
X170376095Y-96278600D01*
X171376095Y-96278600D02*
X171376095Y-94378600D01*
D15*
%TO.C,U1008_3*%
X132176095Y-105128600D02*
X133101095Y-105128600D01*
X132176095Y-106053600D02*
X132176095Y-105128600D01*
X132176095Y-109528600D02*
X132176095Y-108603600D01*
X132176095Y-109528600D02*
X133101095Y-109528600D01*
X135651095Y-105128600D02*
X136576095Y-105128600D01*
X135651095Y-109528600D02*
X136576095Y-109528600D01*
X136576095Y-106053600D02*
X136576095Y-105128600D01*
X136576095Y-109528600D02*
X136576095Y-108603600D01*
D16*
X136551095Y-104478600D02*
G75*
G02*
X136301095Y-104478600I-125000J0D01*
G01*
X136301095Y-104478600D02*
G75*
G02*
X136551095Y-104478600I125000J0D01*
G01*
D13*
%TO.C,C1030_4*%
X120551105Y-125228590D02*
X120551105Y-128228590D01*
X120551105Y-125228590D02*
X122051105Y-125228590D01*
X120551105Y-128228590D02*
X122051105Y-128228590D01*
X122051105Y-125228590D02*
X122051105Y-128228590D01*
%TO.C,C127*%
X189066095Y-71803600D02*
X189066095Y-73703600D01*
X189066095Y-71803600D02*
X192666095Y-71803600D01*
X189066095Y-73703600D02*
X192666095Y-73703600D01*
X192666095Y-71803600D02*
X192666095Y-73703600D01*
%TO.C,C1050_4*%
X122951095Y-138303600D02*
X122951095Y-139303600D01*
X124851095Y-138303600D02*
X122951095Y-138303600D01*
X124851095Y-138303600D02*
X124851095Y-139303600D01*
X124851095Y-139303600D02*
X122951095Y-139303600D01*
%TO.C,C1056_1*%
X125276105Y-67253590D02*
X127176105Y-67253590D01*
X125276105Y-68253590D02*
X125276105Y-67253590D01*
X125276105Y-68253590D02*
X127176105Y-68253590D01*
X127176105Y-68253590D02*
X127176105Y-67253590D01*
%TO.C,C1025_1*%
X111751095Y-63953600D02*
X111751095Y-62053600D01*
X112751095Y-62053600D02*
X111751095Y-62053600D01*
X112751095Y-63953600D02*
X111751095Y-63953600D01*
X112751095Y-63953600D02*
X112751095Y-62053600D01*
%TO.C,C74*%
X185026095Y-111192350D02*
X186926095Y-111192350D01*
X185026095Y-112192350D02*
X185026095Y-111192350D01*
X185026095Y-112192350D02*
X186926095Y-112192350D01*
X186926095Y-112192350D02*
X186926095Y-111192350D01*
D11*
%TO.C,U8*%
X184251095Y-114242350D02*
X185551095Y-114242350D01*
X184251095Y-115942350D02*
X185551095Y-115942350D01*
D18*
X184076095Y-114092350D02*
G75*
G02*
X183926095Y-114092350I-75000J0D01*
G01*
X183926095Y-114092350D02*
G75*
G02*
X184076095Y-114092350I75000J0D01*
G01*
D13*
%TO.C,R80*%
X172926095Y-107003600D02*
X173876095Y-107003600D01*
X172926095Y-108853600D02*
X172926095Y-107003600D01*
X172926095Y-108853600D02*
X173876095Y-108853600D01*
X173876095Y-108853600D02*
X173876095Y-107003600D01*
%TO.C,C1035_2*%
X127851095Y-88753600D02*
X127851095Y-89753600D01*
X129751095Y-88753600D02*
X127851095Y-88753600D01*
X129751095Y-88753600D02*
X129751095Y-89753600D01*
X129751095Y-89753600D02*
X127851095Y-89753600D01*
%TO.C,R34*%
X169401095Y-127328600D02*
X170351095Y-127328600D01*
X169401095Y-129178600D02*
X169401095Y-127328600D01*
X169401095Y-129178600D02*
X170351095Y-129178600D01*
X170351095Y-129178600D02*
X170351095Y-127328600D01*
%TO.C,R1035_2*%
X120551095Y-87228600D02*
X120551095Y-90228600D01*
X122051095Y-87228600D02*
X120551095Y-87228600D01*
X122051095Y-87228600D02*
X122051095Y-90228600D01*
X122051095Y-90228600D02*
X120551095Y-90228600D01*
%TO.C,R104*%
X183631076Y-69903599D02*
X183631076Y-70853599D01*
X183631076Y-69903599D02*
X185481076Y-69903599D01*
X183631076Y-70853599D02*
X185481076Y-70853599D01*
X185481076Y-69903599D02*
X185481076Y-70853599D01*
%TO.C,Y2*%
X179545345Y-106978600D02*
X181995345Y-106978600D01*
X179545345Y-109028600D02*
X179545345Y-106978600D01*
X179545345Y-109028600D02*
X181995345Y-109028600D01*
X181995345Y-109028600D02*
X181995345Y-106978600D01*
D15*
X182170345Y-106903600D02*
G75*
G02*
X181970345Y-106903600I-100000J0D01*
G01*
X181970345Y-106903600D02*
G75*
G02*
X182170345Y-106903600I100000J0D01*
G01*
D13*
%TO.C,C1025_4*%
X111751095Y-125453600D02*
X111751095Y-123553600D01*
X112751095Y-123553600D02*
X111751095Y-123553600D01*
X112751095Y-125453600D02*
X111751095Y-125453600D01*
X112751095Y-125453600D02*
X112751095Y-123553600D01*
%TO.C,R1026_1*%
X113851095Y-62103600D02*
X114801095Y-62103600D01*
X113851095Y-63953600D02*
X113851095Y-62103600D01*
X113851095Y-63953600D02*
X114801095Y-63953600D01*
X114801095Y-63953600D02*
X114801095Y-62103600D01*
%TO.C,FB1000_1*%
X133926095Y-62688600D02*
X133926095Y-61738600D01*
X135776095Y-61738600D02*
X133926095Y-61738600D01*
X135776095Y-62688600D02*
X133926095Y-62688600D01*
X135776095Y-62688600D02*
X135776095Y-61738600D01*
%TO.C,C1046_3*%
X127376105Y-102978590D02*
X127376105Y-103978590D01*
X129276105Y-102978590D02*
X127376105Y-102978590D01*
X129276105Y-102978590D02*
X129276105Y-103978590D01*
X129276105Y-103978590D02*
X127376105Y-103978590D01*
%TO.C,C1049_1*%
X127376095Y-62978600D02*
X127376095Y-63978600D01*
X129276095Y-62978600D02*
X127376095Y-62978600D01*
X129276095Y-62978600D02*
X129276095Y-63978600D01*
X129276095Y-63978600D02*
X127376095Y-63978600D01*
%TO.C,R78*%
X175776095Y-107003600D02*
X176726095Y-107003600D01*
X175776095Y-108853600D02*
X175776095Y-107003600D01*
X175776095Y-108853600D02*
X176726095Y-108853600D01*
X176726095Y-108853600D02*
X176726095Y-107003600D01*
%TO.C,C18*%
X158101095Y-96678610D02*
X158101095Y-94778610D01*
X159101095Y-94778610D02*
X158101095Y-94778610D01*
X159101095Y-96678610D02*
X158101095Y-96678610D01*
X159101095Y-96678610D02*
X159101095Y-94778610D01*
D15*
%TO.C,U1009_1*%
X123576095Y-63153600D02*
X124001095Y-63153600D01*
X123576095Y-63578600D02*
X123576095Y-63153600D01*
X123576095Y-66553590D02*
X123576095Y-66128600D01*
X123576095Y-66553590D02*
X124001095Y-66553590D01*
X126551095Y-63153600D02*
X126976095Y-63153600D01*
X126551095Y-66553590D02*
X126976095Y-66553590D01*
X126976095Y-63578600D02*
X126976095Y-63153600D01*
X126976095Y-66553590D02*
X126976095Y-66128600D01*
D16*
X123051095Y-63303600D02*
G75*
G02*
X122801095Y-63303600I-125000J0D01*
G01*
X122801095Y-63303600D02*
G75*
G02*
X123051095Y-63303600I125000J0D01*
G01*
D13*
%TO.C,C1031_2*%
X120551095Y-93078600D02*
X120551095Y-91178600D01*
X124151095Y-91178600D02*
X120551095Y-91178600D01*
X124151095Y-93078600D02*
X120551095Y-93078600D01*
X124151095Y-93078600D02*
X124151095Y-91178600D01*
%TO.C,R1053_3*%
X108326095Y-117566100D02*
X108326095Y-116616100D01*
X110176095Y-116616100D02*
X108326095Y-116616100D01*
X110176095Y-117566100D02*
X108326095Y-117566100D01*
X110176095Y-117566100D02*
X110176095Y-116616100D01*
%TO.C,R33*%
X170351095Y-127328600D02*
X171301095Y-127328600D01*
X170351095Y-129178600D02*
X170351095Y-127328600D01*
X170351095Y-129178600D02*
X171301095Y-129178600D01*
X171301095Y-129178600D02*
X171301095Y-127328600D01*
%TO.C,R52_4*%
X137226095Y-127828600D02*
X137226095Y-126878600D01*
X139076095Y-126878600D02*
X137226095Y-126878600D01*
X139076095Y-127828600D02*
X137226095Y-127828600D01*
X139076095Y-127828600D02*
X139076095Y-126878600D01*
D11*
%TO.C,C1059_2*%
X116226095Y-82353600D02*
X116226095Y-86453600D01*
X116726095Y-86953600D02*
X116226095Y-86453600D01*
X116926095Y-82353600D02*
X116226095Y-82353600D01*
X116926095Y-86953600D02*
X116726095Y-86953600D01*
X118926095Y-86953600D02*
X118726095Y-86953600D01*
X119426095Y-82353600D02*
X118726095Y-82353600D01*
X119426095Y-82353600D02*
X119426095Y-86253600D01*
X119426095Y-86253600D02*
X119426095Y-86453600D01*
X119426095Y-86453600D02*
X118926095Y-86953600D01*
D13*
%TO.C,R105*%
X183631076Y-70903599D02*
X183631076Y-71853599D01*
X183631076Y-70903599D02*
X185481076Y-70903599D01*
X183631076Y-71853599D02*
X185481076Y-71853599D01*
X185481076Y-70903599D02*
X185481076Y-71853599D01*
%TO.C,C2*%
X152161095Y-68703600D02*
X154061095Y-68703600D01*
X152161095Y-69703600D02*
X152161095Y-68703600D01*
X152161095Y-69703600D02*
X154061095Y-69703600D01*
X154061095Y-69703600D02*
X154061095Y-68703600D01*
%TO.C,C5*%
X161131072Y-60668602D02*
X161131072Y-61668602D01*
X163031072Y-60668602D02*
X161131072Y-60668602D01*
X163031072Y-60668602D02*
X163031072Y-61668602D01*
X163031072Y-61668602D02*
X161131072Y-61668602D01*
%TO.C,R1021_2*%
X106801095Y-98616100D02*
X106801095Y-97116100D01*
X109801095Y-97116100D02*
X106801095Y-97116100D01*
X109801095Y-98616100D02*
X106801095Y-98616100D01*
X109801095Y-98616100D02*
X109801095Y-97116100D01*
%TO.C,J11*%
X198301095Y-138528600D02*
X198301095Y-148278600D01*
X198301095Y-138528600D02*
X198826095Y-138528600D01*
X198301095Y-148278600D02*
X198826095Y-148278600D01*
X200576095Y-138528600D02*
X203826095Y-138528600D01*
X200576095Y-148278600D02*
X203826095Y-148278600D01*
X205576095Y-138528600D02*
X206301095Y-138528600D01*
X205576095Y-148278600D02*
X206301095Y-148278600D01*
X206301095Y-138528600D02*
X206301095Y-148278600D01*
X206301095Y-138528600D02*
X209801095Y-138528600D01*
X206301095Y-148278600D02*
X209801095Y-148278600D01*
X209801095Y-138528600D02*
X209801095Y-148278600D01*
%TO.C,C124*%
X183756076Y-65128599D02*
X185656076Y-65128599D01*
X183756076Y-66128599D02*
X183756076Y-65128599D01*
X183756076Y-66128599D02*
X185656076Y-66128599D01*
X185656076Y-66128599D02*
X185656076Y-65128599D01*
%TO.C,R94*%
X151376095Y-92953600D02*
X151376095Y-94803600D01*
X152326095Y-92953600D02*
X151376095Y-92953600D01*
X152326095Y-92953600D02*
X152326095Y-94803600D01*
X152326095Y-94803600D02*
X151376095Y-94803600D01*
%TO.C,R25*%
X174151095Y-127328600D02*
X175101095Y-127328600D01*
X174151095Y-129178600D02*
X174151095Y-127328600D01*
X174151095Y-129178600D02*
X175101095Y-129178600D01*
X175101095Y-129178600D02*
X175101095Y-127328600D01*
%TO.C,C1022_3*%
X107401085Y-105391100D02*
X107401085Y-102391100D01*
X108901085Y-102391100D02*
X107401085Y-102391100D01*
X108901085Y-105391100D02*
X107401085Y-105391100D01*
X108901085Y-105391100D02*
X108901085Y-102391100D01*
%TO.C,C1037_2*%
X133876095Y-83228600D02*
X133876095Y-84228600D01*
X135776095Y-83228600D02*
X133876095Y-83228600D01*
X135776095Y-83228600D02*
X135776095Y-84228600D01*
X135776095Y-84228600D02*
X133876095Y-84228600D01*
%TO.C,C1052_3*%
X123351095Y-107953600D02*
X123351095Y-108953600D01*
X125251095Y-107953600D02*
X123351095Y-107953600D01*
X125251095Y-107953600D02*
X125251095Y-108953600D01*
X125251095Y-108953600D02*
X123351095Y-108953600D01*
%TO.C,R1035_1*%
X120551095Y-66728600D02*
X120551095Y-69728600D01*
X122051095Y-66728600D02*
X120551095Y-66728600D01*
X122051095Y-66728600D02*
X122051095Y-69728600D01*
X122051095Y-69728600D02*
X120551095Y-69728600D01*
%TO.C,C1038_3*%
X131976095Y-102728600D02*
X133876095Y-102728600D01*
X131976095Y-103728600D02*
X131976095Y-102728600D01*
X131976095Y-103728600D02*
X133876095Y-103728600D01*
X133876095Y-103728600D02*
X133876095Y-102728600D01*
%TO.C,J13*%
X87300000Y-126053600D02*
X87300000Y-131353600D01*
X91650000Y-126053600D02*
X87300000Y-126053600D01*
X91650000Y-126053600D02*
X91650000Y-131353600D01*
X91650000Y-131353600D02*
X87300000Y-131353600D01*
%TO.C,C1039_4*%
X131961095Y-121733590D02*
X134961095Y-121733590D01*
X131961095Y-123233590D02*
X131961095Y-121733590D01*
X131961095Y-123233590D02*
X134961095Y-123233590D01*
X134961095Y-123233590D02*
X134961095Y-121733590D01*
%TO.C,R1025_1*%
X103776085Y-75616110D02*
X106426095Y-75616110D01*
X103776085Y-77966100D02*
X103776085Y-75616110D01*
X103776085Y-77966100D02*
X106426095Y-77966100D01*
X106426095Y-77966100D02*
X106426095Y-75616110D01*
%TO.C,C1052_1*%
X123351095Y-66953600D02*
X123351095Y-67953600D01*
X125251095Y-66953600D02*
X123351095Y-66953600D01*
X125251095Y-66953600D02*
X125251095Y-67953600D01*
X125251095Y-67953600D02*
X123351095Y-67953600D01*
%TO.C,C31*%
X165476095Y-127328600D02*
X165476095Y-129228600D01*
X165476095Y-127328600D02*
X166476095Y-127328600D01*
X165476095Y-129228600D02*
X166476095Y-129228600D01*
X166476095Y-127328600D02*
X166476095Y-129228600D01*
%TO.C,C75*%
X183126095Y-110492350D02*
X183126095Y-114092350D01*
X185026095Y-110492350D02*
X183126095Y-110492350D01*
X185026095Y-110492350D02*
X185026095Y-114092350D01*
X185026095Y-114092350D02*
X183126095Y-114092350D01*
%TO.C,R1039_1*%
X120551095Y-70678600D02*
X120551095Y-69728600D01*
X122401095Y-69728600D02*
X120551095Y-69728600D01*
X122401095Y-70678600D02*
X120551095Y-70678600D01*
X122401095Y-70678600D02*
X122401095Y-69728600D01*
%TO.C,R26*%
X173192200Y-127328600D02*
X174142200Y-127328600D01*
X173192200Y-129178600D02*
X173192200Y-127328600D01*
X173192200Y-129178600D02*
X174142200Y-129178600D01*
X174142200Y-129178600D02*
X174142200Y-127328600D01*
%TO.C,R83*%
X91926095Y-84478600D02*
X92876095Y-84478600D01*
X91926095Y-86328600D02*
X91926095Y-84478600D01*
X91926095Y-86328600D02*
X92876095Y-86328600D01*
X92876095Y-86328600D02*
X92876095Y-84478600D01*
%TO.C,C91*%
X170376095Y-98178600D02*
X170376095Y-96278600D01*
X171376095Y-96278600D02*
X170376095Y-96278600D01*
X171376095Y-98178600D02*
X170376095Y-98178600D01*
X171376095Y-98178600D02*
X171376095Y-96278600D01*
%TO.C,C181*%
X157151105Y-120953600D02*
X157151105Y-123953600D01*
X157151105Y-120953600D02*
X158651105Y-120953600D01*
X157151105Y-123953600D02*
X158651105Y-123953600D01*
X158651105Y-120953600D02*
X158651105Y-123953600D01*
%TO.C,C1048_1*%
X124321095Y-61753600D02*
X124321095Y-62753600D01*
X126221095Y-61753600D02*
X124321095Y-61753600D01*
X126221095Y-61753600D02*
X126221095Y-62753600D01*
X126221095Y-62753600D02*
X124321095Y-62753600D01*
%TO.C,C69*%
X168426095Y-92253610D02*
X168426095Y-93203610D01*
X168426095Y-92253610D02*
X170276095Y-92253610D01*
X168426095Y-93203610D02*
X170276095Y-93203610D01*
X170276095Y-92253610D02*
X170276095Y-93203610D01*
%TO.C,R116*%
X183776095Y-125428600D02*
X183776095Y-123928600D01*
X186776095Y-123928600D02*
X183776095Y-123928600D01*
X186776095Y-125428600D02*
X183776095Y-125428600D01*
X186776095Y-125428600D02*
X186776095Y-123928600D01*
D15*
%TO.C,U4*%
X162531072Y-61968602D02*
X162531072Y-64968602D01*
X162531072Y-61968602D02*
X163431072Y-61968602D01*
X162531072Y-64968602D02*
X163431072Y-64968602D01*
X163431072Y-61968602D02*
X163431072Y-64968602D01*
D16*
X164456072Y-65268602D02*
G75*
G02*
X164206072Y-65268602I-125000J0D01*
G01*
X164206072Y-65268602D02*
G75*
G02*
X164456072Y-65268602I125000J0D01*
G01*
D14*
%TO.C,K1001_3*%
X111726085Y-108253600D02*
X118926085Y-108253600D01*
X111726085Y-109153600D02*
X111726085Y-108253600D01*
X111726085Y-112353600D02*
X111726085Y-110353600D01*
X111726085Y-114553600D02*
X111726085Y-113553600D01*
X111726085Y-116753600D02*
X111726085Y-115753600D01*
X111726085Y-118853600D02*
X111726085Y-117953600D01*
X111726085Y-118853600D02*
X118926085Y-118853600D01*
X118926085Y-109153600D02*
X118926085Y-108253600D01*
X118926085Y-112353600D02*
X118926085Y-110353600D01*
X118926085Y-114553600D02*
X118926085Y-113553600D01*
X118926085Y-116753600D02*
X118926085Y-115753600D01*
X118926085Y-118853600D02*
X118926085Y-117953600D01*
D13*
%TO.C,L1*%
X189526095Y-68478600D02*
X189526095Y-71778600D01*
D15*
X192276095Y-68868600D02*
X191376095Y-68868600D01*
X192276095Y-71388600D02*
X191376095Y-71388600D01*
D13*
X194126095Y-68478600D02*
X189526095Y-68478600D01*
X194126095Y-68478600D02*
X194126095Y-71778600D01*
X194126095Y-71778600D02*
X189526095Y-71778600D01*
%TO.C,C1034_1*%
X122176095Y-65578600D02*
X122176095Y-67478600D01*
X122176095Y-65578600D02*
X123176095Y-65578600D01*
X122176095Y-67478600D02*
X123176095Y-67478600D01*
X123176095Y-65578600D02*
X123176095Y-67478600D01*
D15*
%TO.C,U1011_2*%
X124501095Y-91853590D02*
X129501095Y-91853590D01*
X124501095Y-95053590D02*
X124501095Y-91853590D01*
X124501095Y-95053590D02*
X129501095Y-95053590D01*
X129501095Y-95053590D02*
X129501095Y-91853590D01*
D16*
X124371095Y-96178590D02*
G75*
G02*
X124121095Y-96178590I-125000J0D01*
G01*
X124121095Y-96178590D02*
G75*
G02*
X124371095Y-96178590I125000J0D01*
G01*
D17*
X125801095Y-94053590D02*
G75*
G02*
X125201095Y-94053590I-300000J0D01*
G01*
X125201095Y-94053590D02*
G75*
G02*
X125801095Y-94053590I300000J0D01*
G01*
D13*
%TO.C,R89*%
X149951095Y-88703600D02*
X149951095Y-91703600D01*
X151451095Y-88703600D02*
X149951095Y-88703600D01*
X151451095Y-88703600D02*
X151451095Y-91703600D01*
X151451095Y-91703600D02*
X149951095Y-91703600D01*
%TO.C,C9*%
X180326095Y-117642340D02*
X183326095Y-117642340D01*
X180326095Y-119142340D02*
X180326095Y-117642340D01*
X180326095Y-119142340D02*
X183326095Y-119142340D01*
X183326095Y-119142340D02*
X183326095Y-117642340D01*
%TO.C,C3*%
X156146106Y-68703600D02*
X156146106Y-69703600D01*
X158046106Y-68703600D02*
X156146106Y-68703600D01*
X158046106Y-68703600D02*
X158046106Y-69703600D01*
X158046106Y-69703600D02*
X156146106Y-69703600D01*
%TO.C,R130*%
X155151095Y-106453600D02*
X155151095Y-107403600D01*
X155151095Y-106453600D02*
X157001095Y-106453600D01*
X155151095Y-107403600D02*
X157001095Y-107403600D01*
X157001095Y-106453600D02*
X157001095Y-107403600D01*
D14*
%TO.C,J1*%
X203301095Y-84203600D02*
X200701095Y-84203600D01*
X203301095Y-93803610D02*
X200701095Y-93803610D01*
X209501095Y-84203600D02*
X206501095Y-84203600D01*
X209501095Y-84203600D02*
X209501095Y-93803610D01*
X209501095Y-93803610D02*
X206501095Y-93803610D01*
D13*
%TO.C,C64*%
X180901095Y-97478600D02*
X180901095Y-99328600D01*
X181851095Y-97478600D02*
X180901095Y-97478600D01*
X181851095Y-97478600D02*
X181851095Y-99328600D01*
X181851095Y-99328600D02*
X180901095Y-99328600D01*
%TO.C,R1038_2*%
X122201095Y-84228600D02*
X122201095Y-86078600D01*
X123151095Y-84228600D02*
X122201095Y-84228600D01*
X123151095Y-84228600D02*
X123151095Y-86078600D01*
X123151095Y-86078600D02*
X122201095Y-86078600D01*
%TO.C,C1048_4*%
X124321095Y-123253600D02*
X124321095Y-124253600D01*
X126221095Y-123253600D02*
X124321095Y-123253600D01*
X126221095Y-123253600D02*
X126221095Y-124253600D01*
X126221095Y-124253600D02*
X124321095Y-124253600D01*
%TO.C,C1022_1*%
X107401085Y-64391100D02*
X107401085Y-61391100D01*
X108901085Y-61391100D02*
X107401085Y-61391100D01*
X108901085Y-64391100D02*
X107401085Y-64391100D01*
X108901085Y-64391100D02*
X108901085Y-61391100D01*
%TO.C,C1023_1*%
X111501105Y-63953600D02*
X111501105Y-66953600D01*
X111501105Y-63953600D02*
X113001105Y-63953600D01*
X111501105Y-66953600D02*
X113001105Y-66953600D01*
X113001105Y-63953600D02*
X113001105Y-66953600D01*
D11*
%TO.C,U21*%
X152726095Y-112553600D02*
X151426095Y-112553600D01*
X152726095Y-114253600D02*
X151426095Y-114253600D01*
D18*
X153051095Y-114403600D02*
G75*
G02*
X152901095Y-114403600I-75000J0D01*
G01*
X152901095Y-114403600D02*
G75*
G02*
X153051095Y-114403600I75000J0D01*
G01*
D13*
%TO.C,C128*%
X189826095Y-66453600D02*
X189826095Y-64553600D01*
X193426095Y-64553600D02*
X189826095Y-64553600D01*
X193426095Y-66453600D02*
X189826095Y-66453600D01*
X193426095Y-66453600D02*
X193426095Y-64553600D01*
%TO.C,C34*%
X164476095Y-127328600D02*
X164476095Y-129228600D01*
X164476095Y-127328600D02*
X165476095Y-127328600D01*
X164476095Y-129228600D02*
X165476095Y-129228600D01*
X165476095Y-127328600D02*
X165476095Y-129228600D01*
%TO.C,R1053_1*%
X108326095Y-76566100D02*
X108326095Y-75616100D01*
X110176095Y-75616100D02*
X108326095Y-75616100D01*
X110176095Y-76566100D02*
X108326095Y-76566100D01*
X110176095Y-76566100D02*
X110176095Y-75616100D01*
%TO.C,R97_1*%
X137226095Y-67278600D02*
X137226095Y-66328600D01*
X139076095Y-66328600D02*
X137226095Y-66328600D01*
X139076095Y-67278600D02*
X137226095Y-67278600D01*
X139076095Y-67278600D02*
X139076095Y-66328600D01*
D11*
%TO.C,C1059_4*%
X116226095Y-123353600D02*
X116226095Y-127453600D01*
X116726095Y-127953600D02*
X116226095Y-127453600D01*
X116926095Y-123353600D02*
X116226095Y-123353600D01*
X116926095Y-127953600D02*
X116726095Y-127953600D01*
X118926095Y-127953600D02*
X118726095Y-127953600D01*
X119426095Y-123353600D02*
X118726095Y-123353600D01*
X119426095Y-123353600D02*
X119426095Y-127253600D01*
X119426095Y-127253600D02*
X119426095Y-127453600D01*
X119426095Y-127453600D02*
X118926095Y-127953600D01*
D13*
%TO.C,C1038_4*%
X131976095Y-123228600D02*
X133876095Y-123228600D01*
X131976095Y-124228600D02*
X131976095Y-123228600D01*
X131976095Y-124228600D02*
X133876095Y-124228600D01*
X133876095Y-124228600D02*
X133876095Y-123228600D01*
%TO.C,R122*%
X150051095Y-116353600D02*
X150051095Y-115403600D01*
X151901095Y-115403600D02*
X150051095Y-115403600D01*
X151901095Y-116353600D02*
X150051095Y-116353600D01*
X151901095Y-116353600D02*
X151901095Y-115403600D01*
%TO.C,R1041_2*%
X127426095Y-86553600D02*
X127426095Y-85603600D01*
X129276095Y-85603600D02*
X127426095Y-85603600D01*
X129276095Y-86553600D02*
X127426095Y-86553600D01*
X129276095Y-86553600D02*
X129276095Y-85603600D01*
%TO.C,C11*%
X168356072Y-69143562D02*
X168356072Y-70143562D01*
X170256072Y-69143562D02*
X168356072Y-69143562D01*
X170256072Y-69143562D02*
X170256072Y-70143562D01*
X170256072Y-70143562D02*
X168356072Y-70143562D01*
%TO.C,R1043_3*%
X122401095Y-108478590D02*
X123351095Y-108478590D01*
X122401095Y-110328590D02*
X122401095Y-108478590D01*
X122401095Y-110328590D02*
X123351095Y-110328590D01*
X123351095Y-110328590D02*
X123351095Y-108478590D01*
%TO.C,C1040_4*%
X135781085Y-125233600D02*
X135781085Y-122233600D01*
X137281085Y-122233600D02*
X135781085Y-122233600D01*
X137281085Y-125233600D02*
X135781085Y-125233600D01*
X137281085Y-125233600D02*
X137281085Y-122233600D01*
%TO.C,R1038_3*%
X122201095Y-104728600D02*
X122201095Y-106578600D01*
X123151095Y-104728600D02*
X122201095Y-104728600D01*
X123151095Y-104728600D02*
X123151095Y-106578600D01*
X123151095Y-106578600D02*
X122201095Y-106578600D01*
%TO.C,C19*%
X167483305Y-95378610D02*
X167483305Y-96378610D01*
X169383305Y-95378610D02*
X167483305Y-95378610D01*
X169383305Y-95378610D02*
X169383305Y-96378610D01*
X169383305Y-96378610D02*
X167483305Y-96378610D01*
%TO.C,R1026_4*%
X113851095Y-123603600D02*
X114801095Y-123603600D01*
X113851095Y-125453600D02*
X113851095Y-123603600D01*
X113851095Y-125453600D02*
X114801095Y-125453600D01*
X114801095Y-125453600D02*
X114801095Y-123603600D01*
%TO.C,C1055_4*%
X127851095Y-138253600D02*
X127851095Y-139253600D01*
X129751095Y-138253600D02*
X127851095Y-138253600D01*
X129751095Y-138253600D02*
X129751095Y-139253600D01*
X129751095Y-139253600D02*
X127851095Y-139253600D01*
%TO.C,C1055_2*%
X127851095Y-97253600D02*
X127851095Y-98253600D01*
X129751095Y-97253600D02*
X127851095Y-97253600D01*
X129751095Y-97253600D02*
X129751095Y-98253600D01*
X129751095Y-98253600D02*
X127851095Y-98253600D01*
%TO.C,R125*%
X153801095Y-117203600D02*
X153801095Y-118153600D01*
X153801095Y-117203600D02*
X155651095Y-117203600D01*
X153801095Y-118153600D02*
X155651095Y-118153600D01*
X155651095Y-117203600D02*
X155651095Y-118153600D01*
%TO.C,R52_3*%
X137226095Y-107328600D02*
X137226095Y-106378600D01*
X139076095Y-106378600D02*
X137226095Y-106378600D01*
X139076095Y-107328600D02*
X137226095Y-107328600D01*
X139076095Y-107328600D02*
X139076095Y-106378600D01*
%TO.C,C1036_4*%
X131976095Y-124228600D02*
X133876095Y-124228600D01*
X131976095Y-125228600D02*
X131976095Y-124228600D01*
X131976095Y-125228600D02*
X133876095Y-125228600D01*
X133876095Y-125228600D02*
X133876095Y-124228600D01*
%TO.C,C1058_4*%
X106426095Y-137116100D02*
X108326095Y-137116100D01*
X106426095Y-138116100D02*
X106426095Y-137116100D01*
X106426095Y-138116100D02*
X108326095Y-138116100D01*
X108326095Y-138116100D02*
X108326095Y-137116100D01*
%TO.C,R93*%
X175556072Y-69203599D02*
X175556072Y-70153599D01*
X175556072Y-69203599D02*
X177406072Y-69203599D01*
X175556072Y-70153599D02*
X177406072Y-70153599D01*
X177406072Y-69203599D02*
X177406072Y-70153599D01*
%TO.C,C17*%
X158101095Y-91053600D02*
X158101095Y-92953600D01*
X158101095Y-91053600D02*
X159101095Y-91053600D01*
X158101095Y-92953600D02*
X159101095Y-92953600D01*
X159101095Y-91053600D02*
X159101095Y-92953600D01*
%TO.C,C1049_3*%
X127376095Y-103978600D02*
X127376095Y-104978600D01*
X129276095Y-103978600D02*
X127376095Y-103978600D01*
X129276095Y-103978600D02*
X129276095Y-104978600D01*
X129276095Y-104978600D02*
X127376095Y-104978600D01*
%TO.C,C1050_2*%
X122951095Y-97303600D02*
X122951095Y-98303600D01*
X124851095Y-97303600D02*
X122951095Y-97303600D01*
X124851095Y-97303600D02*
X124851095Y-98303600D01*
X124851095Y-98303600D02*
X122951095Y-98303600D01*
D14*
%TO.C,K1001_2*%
X111726085Y-87753600D02*
X118926085Y-87753600D01*
X111726085Y-88653600D02*
X111726085Y-87753600D01*
X111726085Y-91853600D02*
X111726085Y-89853600D01*
X111726085Y-94053600D02*
X111726085Y-93053600D01*
X111726085Y-96253600D02*
X111726085Y-95253600D01*
X111726085Y-98353600D02*
X111726085Y-97453600D01*
X111726085Y-98353600D02*
X118926085Y-98353600D01*
X118926085Y-88653600D02*
X118926085Y-87753600D01*
X118926085Y-91853600D02*
X118926085Y-89853600D01*
X118926085Y-94053600D02*
X118926085Y-93053600D01*
X118926085Y-96253600D02*
X118926085Y-95253600D01*
X118926085Y-98353600D02*
X118926085Y-97453600D01*
D13*
%TO.C,C1046_4*%
X127376105Y-123478590D02*
X127376105Y-124478590D01*
X129276105Y-123478590D02*
X127376105Y-123478590D01*
X129276105Y-123478590D02*
X129276105Y-124478590D01*
X129276105Y-124478590D02*
X127376105Y-124478590D01*
%TO.C,R1035_3*%
X120551095Y-107728600D02*
X120551095Y-110728600D01*
X122051095Y-107728600D02*
X120551095Y-107728600D01*
X122051095Y-107728600D02*
X122051095Y-110728600D01*
X122051095Y-110728600D02*
X120551095Y-110728600D01*
%TO.C,C70*%
X168426095Y-93253610D02*
X168426095Y-94203610D01*
X168426095Y-93253610D02*
X170276095Y-93253610D01*
X168426095Y-94203610D02*
X170276095Y-94203610D01*
X170276095Y-93253610D02*
X170276095Y-94203610D01*
%TO.C,R76*%
X176726095Y-107003600D02*
X177676095Y-107003600D01*
X176726095Y-108853600D02*
X176726095Y-107003600D01*
X176726095Y-108853600D02*
X177676095Y-108853600D01*
X177676095Y-108853600D02*
X177676095Y-107003600D01*
%TO.C,C38*%
X162476095Y-127328600D02*
X162476095Y-129228600D01*
X162476095Y-127328600D02*
X163476095Y-127328600D01*
X162476095Y-129228600D02*
X163476095Y-129228600D01*
X163476095Y-127328600D02*
X163476095Y-129228600D01*
%TO.C,C118*%
X154501085Y-99003600D02*
X154501085Y-96003600D01*
X156001085Y-96003600D02*
X154501085Y-96003600D01*
X156001085Y-99003600D02*
X154501085Y-99003600D01*
X156001085Y-99003600D02*
X156001085Y-96003600D01*
%TO.C,C1024_1*%
X113026095Y-63953610D02*
X113026095Y-65453610D01*
X116026095Y-63953610D02*
X113026095Y-63953610D01*
X116026095Y-63953610D02*
X116026095Y-65453610D01*
X116026095Y-65453610D02*
X113026095Y-65453610D01*
D15*
%TO.C,U1010_4*%
X121001095Y-135728600D02*
X124001095Y-135728600D01*
X121001095Y-136628600D02*
X121001095Y-135728600D01*
X121001095Y-136628600D02*
X124001095Y-136628600D01*
X124001095Y-136628600D02*
X124001095Y-135728600D01*
D16*
X124426095Y-134828600D02*
G75*
G02*
X124176095Y-134828600I-125000J0D01*
G01*
X124176095Y-134828600D02*
G75*
G02*
X124426095Y-134828600I125000J0D01*
G01*
D13*
%TO.C,R1039_4*%
X120551095Y-132178600D02*
X120551095Y-131228600D01*
X122401095Y-131228600D02*
X120551095Y-131228600D01*
X122401095Y-132178600D02*
X120551095Y-132178600D01*
X122401095Y-132178600D02*
X122401095Y-131228600D01*
%TO.C,C179*%
X150401095Y-110903590D02*
X153401095Y-110903590D01*
X150401095Y-112403590D02*
X150401095Y-110903590D01*
X150401095Y-112403590D02*
X153401095Y-112403590D01*
X153401095Y-112403590D02*
X153401095Y-110903590D01*
%TO.C,R1022_1*%
X104351095Y-62891100D02*
X104351095Y-64391100D01*
X104351095Y-62891100D02*
X107351095Y-62891100D01*
X104351095Y-64391100D02*
X107351095Y-64391100D01*
X107351095Y-62891100D02*
X107351095Y-64391100D01*
%TO.C,C1038_1*%
X131976095Y-61728600D02*
X133876095Y-61728600D01*
X131976095Y-62728600D02*
X131976095Y-61728600D01*
X131976095Y-62728600D02*
X133876095Y-62728600D01*
X133876095Y-62728600D02*
X133876095Y-61728600D01*
%TO.C,R90*%
X173776095Y-61803600D02*
X173776095Y-62753600D01*
X173776095Y-61803600D02*
X175626095Y-61803600D01*
X173776095Y-62753600D02*
X175626095Y-62753600D01*
X175626095Y-61803600D02*
X175626095Y-62753600D01*
%TO.C,R56*%
X185026095Y-114092350D02*
X185026095Y-113142350D01*
X186876095Y-113142350D02*
X185026095Y-113142350D01*
X186876095Y-114092350D02*
X185026095Y-114092350D01*
X186876095Y-114092350D02*
X186876095Y-113142350D01*
%TO.C,C1055_1*%
X127851095Y-76753600D02*
X127851095Y-77753600D01*
X129751095Y-76753600D02*
X127851095Y-76753600D01*
X129751095Y-76753600D02*
X129751095Y-77753600D01*
X129751095Y-77753600D02*
X127851095Y-77753600D01*
%TO.C,C1024_3*%
X113026095Y-104953610D02*
X113026095Y-106453610D01*
X116026095Y-104953610D02*
X113026095Y-104953610D01*
X116026095Y-104953610D02*
X116026095Y-106453610D01*
X116026095Y-106453610D02*
X113026095Y-106453610D01*
%TO.C,R52_1*%
X137226095Y-66328600D02*
X137226095Y-65378600D01*
X139076095Y-65378600D02*
X137226095Y-65378600D01*
X139076095Y-66328600D02*
X137226095Y-66328600D01*
X139076095Y-66328600D02*
X139076095Y-65378600D01*
%TO.C,J10*%
X204841095Y-131653600D02*
X209191095Y-131653600D01*
X204841095Y-136953600D02*
X204841095Y-131653600D01*
X204841095Y-136953600D02*
X209191095Y-136953600D01*
X209191095Y-136953600D02*
X209191095Y-131653600D01*
%TO.C,C1021_2*%
X114801095Y-84453600D02*
X114801095Y-82553600D01*
X115801095Y-82553600D02*
X114801095Y-82553600D01*
X115801095Y-84453600D02*
X114801095Y-84453600D01*
X115801095Y-84453600D02*
X115801095Y-82553600D01*
%TO.C,R65*%
X90176095Y-108078600D02*
X90176095Y-107128600D01*
X92026095Y-107128600D02*
X90176095Y-107128600D01*
X92026095Y-108078600D02*
X90176095Y-108078600D01*
X92026095Y-108078600D02*
X92026095Y-107128600D01*
%TO.C,C1053_3*%
X123351095Y-108953600D02*
X123351095Y-109953600D01*
X125251095Y-108953600D02*
X123351095Y-108953600D01*
X125251095Y-108953600D02*
X125251095Y-109953600D01*
X125251095Y-109953600D02*
X123351095Y-109953600D01*
%TO.C,L2*%
X183776095Y-123928600D02*
X183776095Y-119328600D01*
D15*
X184166095Y-122078601D02*
X184166095Y-121178599D01*
X186686095Y-122078601D02*
X186686095Y-121178599D01*
D13*
X187076095Y-119328600D02*
X183776095Y-119328600D01*
X187076095Y-123928600D02*
X183776095Y-123928600D01*
X187076095Y-123928600D02*
X187076095Y-119328600D01*
%TO.C,C1058_3*%
X106426095Y-116616100D02*
X108326095Y-116616100D01*
X106426095Y-117616100D02*
X106426095Y-116616100D01*
X106426095Y-117616100D02*
X108326095Y-117616100D01*
X108326095Y-117616100D02*
X108326095Y-116616100D01*
%TO.C,C1052_2*%
X123351095Y-87453600D02*
X123351095Y-88453600D01*
X125251095Y-87453600D02*
X123351095Y-87453600D01*
X125251095Y-87453600D02*
X125251095Y-88453600D01*
X125251095Y-88453600D02*
X123351095Y-88453600D01*
%TO.C,C67*%
X180876095Y-94453600D02*
X180876095Y-95453600D01*
X182776095Y-94453600D02*
X180876095Y-94453600D01*
X182776095Y-94453600D02*
X182776095Y-95453600D01*
X182776095Y-95453600D02*
X180876095Y-95453600D01*
%TO.C,R42*%
X139601095Y-141403600D02*
X139601095Y-142903600D01*
X139601095Y-141403600D02*
X142601095Y-141403600D01*
X139601095Y-142903600D02*
X142601095Y-142903600D01*
X142601095Y-141403600D02*
X142601095Y-142903600D01*
%TO.C,R70*%
X155151095Y-106453600D02*
X155151095Y-105503600D01*
X157001095Y-105503600D02*
X155151095Y-105503600D01*
X157001095Y-106453600D02*
X155151095Y-106453600D01*
X157001095Y-106453600D02*
X157001095Y-105503600D01*
%TO.C,C1038_2*%
X131976095Y-82228600D02*
X133876095Y-82228600D01*
X131976095Y-83228600D02*
X131976095Y-82228600D01*
X131976095Y-83228600D02*
X133876095Y-83228600D01*
X133876095Y-83228600D02*
X133876095Y-82228600D01*
%TO.C,L6*%
X139851095Y-134903600D02*
X140051095Y-134903600D01*
X139851095Y-140903600D02*
X139851095Y-134903600D01*
X140051095Y-140903600D02*
X139851095Y-140903600D01*
X145651095Y-140903600D02*
X145851095Y-140903600D01*
X145851095Y-134903600D02*
X145651095Y-134903600D01*
X145851095Y-140903600D02*
X145851095Y-134903600D01*
%TO.C,C1031_1*%
X120551095Y-72578600D02*
X120551095Y-70678600D01*
X124151095Y-70678600D02*
X120551095Y-70678600D01*
X124151095Y-72578600D02*
X120551095Y-72578600D01*
X124151095Y-72578600D02*
X124151095Y-70678600D01*
%TO.C,C115*%
X154501105Y-99003600D02*
X154501105Y-102003600D01*
X154501105Y-99003600D02*
X156001105Y-99003600D01*
X154501105Y-102003600D02*
X156001105Y-102003600D01*
X156001105Y-99003600D02*
X156001105Y-102003600D01*
%TO.C,J9*%
X204276095Y-95903600D02*
X204276095Y-97838600D01*
X204276095Y-118203600D02*
X204276095Y-116268600D01*
X204276095Y-118203600D02*
X205661095Y-118203600D01*
X205661095Y-95903600D02*
X204276095Y-95903600D01*
X208291095Y-118203600D02*
X209276095Y-118203600D01*
X209276095Y-95903600D02*
X208291095Y-95903600D01*
X209276095Y-118203600D02*
X209276095Y-95903600D01*
D15*
X202891095Y-115803600D02*
G75*
G02*
X202691095Y-115803600I-100000J0D01*
G01*
X202691095Y-115803600D02*
G75*
G02*
X202891095Y-115803600I100000J0D01*
G01*
D13*
%TO.C,R4*%
X181851095Y-98403600D02*
X181851095Y-97453600D01*
X183701095Y-97453600D02*
X181851095Y-97453600D01*
X183701095Y-98403600D02*
X181851095Y-98403600D01*
X183701095Y-98403600D02*
X183701095Y-97453600D01*
%TO.C,C120*%
X181156061Y-68028599D02*
X181156061Y-65028599D01*
X182656061Y-65028599D02*
X181156061Y-65028599D01*
X182656061Y-68028599D02*
X181156061Y-68028599D01*
X182656061Y-68028599D02*
X182656061Y-65028599D01*
%TO.C,R97*%
X153001095Y-103503600D02*
X153001095Y-102003600D01*
X156001095Y-102003600D02*
X153001095Y-102003600D01*
X156001095Y-103503600D02*
X153001095Y-103503600D01*
X156001095Y-103503600D02*
X156001095Y-102003600D01*
%TO.C,R1037_1*%
X127426095Y-65003600D02*
X127426095Y-64053600D01*
X129276095Y-64053600D02*
X127426095Y-64053600D01*
X129276095Y-65003600D02*
X127426095Y-65003600D01*
X129276095Y-65003600D02*
X129276095Y-64053600D01*
%TO.C,R49*%
X180901105Y-90503600D02*
X180901105Y-91453600D01*
X180901105Y-90503600D02*
X182751105Y-90503600D01*
X180901105Y-91453600D02*
X182751105Y-91453600D01*
X182751105Y-90503600D02*
X182751105Y-91453600D01*
%TO.C,R20*%
X163426095Y-90003590D02*
X163426095Y-90953590D01*
X163426095Y-90003590D02*
X165276095Y-90003590D01*
X163426095Y-90953590D02*
X165276095Y-90953590D01*
X165276095Y-90003590D02*
X165276095Y-90953590D01*
%TO.C,R1047_2*%
X122401095Y-90228600D02*
X122401095Y-91178600D01*
X122401095Y-90228600D02*
X124251095Y-90228600D01*
X122401095Y-91178600D02*
X124251095Y-91178600D01*
X124251095Y-90228600D02*
X124251095Y-91178600D01*
D15*
%TO.C,U18*%
X163451095Y-109466100D02*
X178451095Y-109466100D01*
X163451095Y-123879270D02*
X164037925Y-124466100D01*
X163451095Y-124466100D02*
X163451095Y-109466100D01*
X163451095Y-124466100D02*
X178451095Y-124466100D01*
X178451095Y-124466100D02*
X178451095Y-109466100D01*
D16*
X163726095Y-125116100D02*
G75*
G02*
X163476095Y-125116100I-125000J0D01*
G01*
X163476095Y-125116100D02*
G75*
G02*
X163726095Y-125116100I125000J0D01*
G01*
D20*
G36*
X164037925Y-124466100D02*
G01*
X163451095Y-124466100D01*
X163451095Y-123879270D01*
X164037925Y-124466100D01*
G37*
D13*
%TO.C,R123*%
X155651095Y-125453600D02*
X155651095Y-123953600D01*
X158651095Y-123953600D02*
X155651095Y-123953600D01*
X158651095Y-125453600D02*
X155651095Y-125453600D01*
X158651095Y-125453600D02*
X158651095Y-123953600D01*
D15*
%TO.C,U1009_2*%
X123576095Y-83653600D02*
X124001095Y-83653600D01*
X123576095Y-84078600D02*
X123576095Y-83653600D01*
X123576095Y-87053590D02*
X123576095Y-86628600D01*
X123576095Y-87053590D02*
X124001095Y-87053590D01*
X126551095Y-83653600D02*
X126976095Y-83653600D01*
X126551095Y-87053590D02*
X126976095Y-87053590D01*
X126976095Y-84078600D02*
X126976095Y-83653600D01*
X126976095Y-87053590D02*
X126976095Y-86628600D01*
D16*
X123051095Y-83803600D02*
G75*
G02*
X122801095Y-83803600I-125000J0D01*
G01*
X122801095Y-83803600D02*
G75*
G02*
X123051095Y-83803600I125000J0D01*
G01*
D13*
%TO.C,C1021_4*%
X114801095Y-125453600D02*
X114801095Y-123553600D01*
X115801095Y-123553600D02*
X114801095Y-123553600D01*
X115801095Y-125453600D02*
X114801095Y-125453600D01*
X115801095Y-125453600D02*
X115801095Y-123553600D01*
%TO.C,C1037_4*%
X133876095Y-124228600D02*
X133876095Y-125228600D01*
X135776095Y-124228600D02*
X133876095Y-124228600D01*
X135776095Y-124228600D02*
X135776095Y-125228600D01*
X135776095Y-125228600D02*
X133876095Y-125228600D01*
%TO.C,R100*%
X182681076Y-70003600D02*
X182681076Y-71853600D01*
X183631076Y-70003600D02*
X182681076Y-70003600D01*
X183631076Y-70003600D02*
X183631076Y-71853600D01*
X183631076Y-71853600D02*
X182681076Y-71853600D01*
%TO.C,C1024_2*%
X113026095Y-84453610D02*
X113026095Y-85953610D01*
X116026095Y-84453610D02*
X113026095Y-84453610D01*
X116026095Y-84453610D02*
X116026095Y-85953610D01*
X116026095Y-85953610D02*
X113026095Y-85953610D01*
%TO.C,C1050_3*%
X122951095Y-117803600D02*
X122951095Y-118803600D01*
X124851095Y-117803600D02*
X122951095Y-117803600D01*
X124851095Y-117803600D02*
X124851095Y-118803600D01*
X124851095Y-118803600D02*
X122951095Y-118803600D01*
%TO.C,C1044_4*%
X121226095Y-123228590D02*
X123126095Y-123228590D01*
X121226095Y-124228590D02*
X121226095Y-123228590D01*
X121226095Y-124228590D02*
X123126095Y-124228590D01*
X123126095Y-124228590D02*
X123126095Y-123228590D01*
%TO.C,C1053_4*%
X123351095Y-129453600D02*
X123351095Y-130453600D01*
X125251095Y-129453600D02*
X123351095Y-129453600D01*
X125251095Y-129453600D02*
X125251095Y-130453600D01*
X125251095Y-130453600D02*
X123351095Y-130453600D01*
%TO.C,R1047_3*%
X122401095Y-110728600D02*
X122401095Y-111678600D01*
X122401095Y-110728600D02*
X124251095Y-110728600D01*
X122401095Y-111678600D02*
X124251095Y-111678600D01*
X124251095Y-110728600D02*
X124251095Y-111678600D01*
%TO.C,C187*%
X153626100Y-109403611D02*
X153626100Y-110903611D01*
X156626100Y-109403611D02*
X153626100Y-109403611D01*
X156626100Y-109403611D02*
X156626100Y-110903611D01*
X156626100Y-110903611D02*
X153626100Y-110903611D01*
%TO.C,C1047_1*%
X121226095Y-62728590D02*
X123126095Y-62728590D01*
X121226095Y-63728590D02*
X121226095Y-62728590D01*
X121226095Y-63728590D02*
X123126095Y-63728590D01*
X123126095Y-63728590D02*
X123126095Y-62728590D01*
%TO.C,C130*%
X181970345Y-107003600D02*
X181970345Y-108903600D01*
X181970345Y-107003600D02*
X182970345Y-107003600D01*
X181970345Y-108903600D02*
X182970345Y-108903600D01*
X182970345Y-107003600D02*
X182970345Y-108903600D01*
%TO.C,C1043_4*%
X135151095Y-130428600D02*
X135151095Y-131428600D01*
X137051095Y-130428600D02*
X135151095Y-130428600D01*
X137051095Y-130428600D02*
X137051095Y-131428600D01*
X137051095Y-131428600D02*
X135151095Y-131428600D01*
%TO.C,R98*%
X179656071Y-63528599D02*
X179656071Y-65028599D01*
X179656071Y-63528599D02*
X182656071Y-63528599D01*
X179656071Y-65028599D02*
X182656071Y-65028599D01*
X182656071Y-63528599D02*
X182656071Y-65028599D01*
%TO.C,C1039_1*%
X131961095Y-60233590D02*
X134961095Y-60233590D01*
X131961095Y-61733590D02*
X131961095Y-60233590D01*
X131961095Y-61733590D02*
X134961095Y-61733590D01*
X134961095Y-61733590D02*
X134961095Y-60233590D01*
%TO.C,R109*%
X187926095Y-65028600D02*
X187926095Y-66878600D01*
X188876095Y-65028600D02*
X187926095Y-65028600D01*
X188876095Y-65028600D02*
X188876095Y-66878600D01*
X188876095Y-66878600D02*
X187926095Y-66878600D01*
%TO.C,R126*%
X150001095Y-103153600D02*
X150001095Y-104653600D01*
X150001095Y-103153600D02*
X153001095Y-103153600D01*
X150001095Y-104653600D02*
X153001095Y-104653600D01*
X153001095Y-103153600D02*
X153001095Y-104653600D01*
%TO.C,C84*%
X137601095Y-134453600D02*
X137601095Y-138053600D01*
X139501095Y-134453600D02*
X137601095Y-134453600D01*
X139501095Y-134453600D02*
X139501095Y-138053600D01*
X139501095Y-138053600D02*
X137601095Y-138053600D01*
%TO.C,FB1000_2*%
X133926095Y-83188600D02*
X133926095Y-82238600D01*
X135776095Y-82238600D02*
X133926095Y-82238600D01*
X135776095Y-83188600D02*
X133926095Y-83188600D01*
X135776095Y-83188600D02*
X135776095Y-82238600D01*
%TO.C,C176*%
X181826095Y-121178600D02*
X183726095Y-121178600D01*
X181826095Y-124778600D02*
X181826095Y-121178600D01*
X181826095Y-124778600D02*
X183726095Y-124778600D01*
X183726095Y-124778600D02*
X183726095Y-121178600D01*
%TO.C,R112*%
X170076095Y-107003600D02*
X170076095Y-108853600D01*
X171026095Y-107003600D02*
X170076095Y-107003600D01*
X171026095Y-107003600D02*
X171026095Y-108853600D01*
X171026095Y-108853600D02*
X170076095Y-108853600D01*
%TO.C,C1034_2*%
X122176095Y-86078600D02*
X122176095Y-87978600D01*
X122176095Y-86078600D02*
X123176095Y-86078600D01*
X122176095Y-87978600D02*
X123176095Y-87978600D01*
X123176095Y-86078600D02*
X123176095Y-87978600D01*
%TO.C,C1044_3*%
X121226095Y-102728590D02*
X123126095Y-102728590D01*
X121226095Y-103728590D02*
X121226095Y-102728590D01*
X121226095Y-103728590D02*
X123126095Y-103728590D01*
X123126095Y-103728590D02*
X123126095Y-102728590D01*
%TO.C,C1036_2*%
X131976095Y-83228600D02*
X133876095Y-83228600D01*
X131976095Y-84228600D02*
X131976095Y-83228600D01*
X131976095Y-84228600D02*
X133876095Y-84228600D01*
X133876095Y-84228600D02*
X133876095Y-83228600D01*
%TO.C,C1048_2*%
X124321095Y-82253600D02*
X124321095Y-83253600D01*
X126221095Y-82253600D02*
X124321095Y-82253600D01*
X126221095Y-82253600D02*
X126221095Y-83253600D01*
X126221095Y-83253600D02*
X124321095Y-83253600D01*
%TO.C,C24*%
X167483305Y-94203600D02*
X167483305Y-95203600D01*
X169383305Y-94203600D02*
X167483305Y-94203600D01*
X169383305Y-94203600D02*
X169383305Y-95203600D01*
X169383305Y-95203600D02*
X167483305Y-95203600D01*
%TO.C,R48*%
X180901105Y-91478600D02*
X180901105Y-92428600D01*
X180901105Y-91478600D02*
X182751105Y-91478600D01*
X180901105Y-92428600D02*
X182751105Y-92428600D01*
X182751105Y-91478600D02*
X182751105Y-92428600D01*
%TO.C,C1036_1*%
X131976095Y-62728600D02*
X133876095Y-62728600D01*
X131976095Y-63728600D02*
X131976095Y-62728600D01*
X131976095Y-63728600D02*
X133876095Y-63728600D01*
X133876095Y-63728600D02*
X133876095Y-62728600D01*
%TO.C,C183*%
X155651085Y-120953600D02*
X155651085Y-117953600D01*
X157151085Y-117953600D02*
X155651085Y-117953600D01*
X157151085Y-120953600D02*
X155651085Y-120953600D01*
X157151085Y-120953600D02*
X157151085Y-117953600D01*
%TO.C,C177*%
X179826093Y-121178600D02*
X181726093Y-121178600D01*
X179826093Y-124778600D02*
X179826093Y-121178600D01*
X179826093Y-124778600D02*
X181726093Y-124778600D01*
X181726093Y-124778600D02*
X181726093Y-121178600D01*
%TO.C,R124*%
X150051095Y-114453600D02*
X150051095Y-115403600D01*
X150051095Y-114453600D02*
X151901095Y-114453600D01*
X150051095Y-115403600D02*
X151901095Y-115403600D01*
X151901095Y-114453600D02*
X151901095Y-115403600D01*
D14*
%TO.C,K1000_2*%
X103021095Y-85216100D02*
X110221095Y-85216100D01*
X103021095Y-86116100D02*
X103021095Y-85216100D01*
X103021095Y-89316100D02*
X103021095Y-87316100D01*
X103021095Y-91516100D02*
X103021095Y-90516100D01*
X103021095Y-93716100D02*
X103021095Y-92716100D01*
X103021095Y-95816100D02*
X103021095Y-94916100D01*
X103021095Y-95816100D02*
X110221095Y-95816100D01*
X110221095Y-86116100D02*
X110221095Y-85216100D01*
X110221095Y-89316100D02*
X110221095Y-87316100D01*
X110221095Y-91516100D02*
X110221095Y-90516100D01*
X110221095Y-93716100D02*
X110221095Y-92716100D01*
X110221095Y-95816100D02*
X110221095Y-94916100D01*
D15*
%TO.C,U1009_4*%
X123576095Y-124653600D02*
X124001095Y-124653600D01*
X123576095Y-125078600D02*
X123576095Y-124653600D01*
X123576095Y-128053590D02*
X123576095Y-127628600D01*
X123576095Y-128053590D02*
X124001095Y-128053590D01*
X126551095Y-124653600D02*
X126976095Y-124653600D01*
X126551095Y-128053590D02*
X126976095Y-128053590D01*
X126976095Y-125078600D02*
X126976095Y-124653600D01*
X126976095Y-128053590D02*
X126976095Y-127628600D01*
D16*
X123051095Y-124803600D02*
G75*
G02*
X122801095Y-124803600I-125000J0D01*
G01*
X122801095Y-124803600D02*
G75*
G02*
X123051095Y-124803600I125000J0D01*
G01*
D13*
%TO.C,C1030_2*%
X120551105Y-84228590D02*
X120551105Y-87228590D01*
X120551105Y-84228590D02*
X122051105Y-84228590D01*
X120551105Y-87228590D02*
X122051105Y-87228590D01*
X122051105Y-84228590D02*
X122051105Y-87228590D01*
%TO.C,C1040_2*%
X135781085Y-84233600D02*
X135781085Y-81233600D01*
X137281085Y-81233600D02*
X135781085Y-81233600D01*
X137281085Y-84233600D02*
X135781085Y-84233600D01*
X137281085Y-84233600D02*
X137281085Y-81233600D01*
%TO.C,R1044_3*%
X126001095Y-117778600D02*
X126001095Y-118728600D01*
X126001095Y-117778600D02*
X127851095Y-117778600D01*
X126001095Y-118728600D02*
X127851095Y-118728600D01*
X127851095Y-117778600D02*
X127851095Y-118728600D01*
%TO.C,C114*%
X172326105Y-64253600D02*
X172326105Y-67253600D01*
X172326105Y-64253600D02*
X173826105Y-64253600D01*
X172326105Y-67253600D02*
X173826105Y-67253600D01*
X173826105Y-64253600D02*
X173826105Y-67253600D01*
%TO.C,R1025_3*%
X103776085Y-116616110D02*
X106426095Y-116616110D01*
X103776085Y-118966100D02*
X103776085Y-116616110D01*
X103776085Y-118966100D02*
X106426095Y-118966100D01*
X106426095Y-118966100D02*
X106426095Y-116616110D01*
%TO.C,C1047_4*%
X121226095Y-124228590D02*
X123126095Y-124228590D01*
X121226095Y-125228590D02*
X121226095Y-124228590D01*
X121226095Y-125228590D02*
X123126095Y-125228590D01*
X123126095Y-125228590D02*
X123126095Y-124228590D01*
%TO.C,R52*%
X180901105Y-89553600D02*
X180901105Y-90503600D01*
X180901105Y-89553600D02*
X182751105Y-89553600D01*
X180901105Y-90503600D02*
X182751105Y-90503600D01*
X182751105Y-89553600D02*
X182751105Y-90503600D01*
%TO.C,C1034_3*%
X122176095Y-106578600D02*
X122176095Y-108478600D01*
X122176095Y-106578600D02*
X123176095Y-106578600D01*
X122176095Y-108478600D02*
X123176095Y-108478600D01*
X123176095Y-106578600D02*
X123176095Y-108478600D01*
%TO.C,R1041_4*%
X127426095Y-127553600D02*
X127426095Y-126603600D01*
X129276095Y-126603600D02*
X127426095Y-126603600D01*
X129276095Y-127553600D02*
X127426095Y-127553600D01*
X129276095Y-127553600D02*
X129276095Y-126603600D01*
%TO.C,R97_4*%
X137226095Y-128778600D02*
X137226095Y-127828600D01*
X139076095Y-127828600D02*
X137226095Y-127828600D01*
X139076095Y-128778600D02*
X137226095Y-128778600D01*
X139076095Y-128778600D02*
X139076095Y-127828600D01*
%TO.C,C7*%
X162981072Y-65268602D02*
X164881072Y-65268602D01*
X162981072Y-66268602D02*
X162981072Y-65268602D01*
X162981072Y-66268602D02*
X164881072Y-66268602D01*
X164881072Y-66268602D02*
X164881072Y-65268602D01*
%TO.C,C116*%
X153001105Y-99003600D02*
X153001105Y-102003600D01*
X153001105Y-99003600D02*
X154501105Y-99003600D01*
X153001105Y-102003600D02*
X154501105Y-102003600D01*
X154501105Y-99003600D02*
X154501105Y-102003600D01*
%TO.C,R106*%
X133676094Y-72953600D02*
X133676094Y-73903600D01*
X133676094Y-72953600D02*
X135526094Y-72953600D01*
X133676094Y-73903600D02*
X135526094Y-73903600D01*
X135526094Y-72953600D02*
X135526094Y-73903600D01*
%TO.C,R115*%
X161916095Y-119278600D02*
X161916095Y-121128600D01*
X162866095Y-119278600D02*
X161916095Y-119278600D01*
X162866095Y-119278600D02*
X162866095Y-121128600D01*
X162866095Y-121128600D02*
X161916095Y-121128600D01*
%TO.C,C83*%
X135601094Y-134453600D02*
X135601094Y-138053600D01*
X137501094Y-134453600D02*
X135601094Y-134453600D01*
X137501094Y-134453600D02*
X137501094Y-138053600D01*
X137501094Y-138053600D02*
X135601094Y-138053600D01*
D10*
%TO.C,J4*%
X89841095Y-60883600D02*
X97461095Y-60883600D01*
X89841095Y-63423600D02*
X89841095Y-60883600D01*
X89841095Y-63423600D02*
X97461095Y-63423600D01*
X97461095Y-63423600D02*
X97461095Y-60883600D01*
D13*
%TO.C,C39*%
X161476095Y-127328600D02*
X161476095Y-129228600D01*
X161476095Y-127328600D02*
X162476095Y-127328600D01*
X161476095Y-129228600D02*
X162476095Y-129228600D01*
X162476095Y-127328600D02*
X162476095Y-129228600D01*
%TO.C,R71*%
X193526095Y-64528600D02*
X193526095Y-67528600D01*
X195026095Y-64528600D02*
X193526095Y-64528600D01*
X195026095Y-64528600D02*
X195026095Y-67528600D01*
X195026095Y-67528600D02*
X193526095Y-67528600D01*
D15*
%TO.C,U2*%
X150296106Y-62903600D02*
X155396106Y-62903600D01*
X150296106Y-66603600D02*
X150296106Y-62903600D01*
X150296106Y-66603600D02*
X155396106Y-66603600D01*
X155396106Y-66603600D02*
X155396106Y-62903600D01*
D17*
X154696106Y-63903600D02*
G75*
G02*
X154096106Y-63903600I-300000J0D01*
G01*
X154096106Y-63903600D02*
G75*
G02*
X154696106Y-63903600I300000J0D01*
G01*
D16*
X155696106Y-61803600D02*
G75*
G02*
X155446106Y-61803600I-125000J0D01*
G01*
X155446106Y-61803600D02*
G75*
G02*
X155696106Y-61803600I125000J0D01*
G01*
D11*
%TO.C,U20*%
X182651095Y-119328600D02*
X181351095Y-119328600D01*
X182651095Y-121028600D02*
X181351095Y-121028600D01*
D18*
X182976095Y-121178600D02*
G75*
G02*
X182826095Y-121178600I-75000J0D01*
G01*
X182826095Y-121178600D02*
G75*
G02*
X182976095Y-121178600I75000J0D01*
G01*
D13*
%TO.C,C1035_4*%
X127851095Y-129753600D02*
X127851095Y-130753600D01*
X129751095Y-129753600D02*
X127851095Y-129753600D01*
X129751095Y-129753600D02*
X129751095Y-130753600D01*
X129751095Y-130753600D02*
X127851095Y-130753600D01*
%TO.C,C117*%
X153001085Y-99003600D02*
X153001085Y-96003600D01*
X154501085Y-96003600D02*
X153001085Y-96003600D01*
X154501085Y-99003600D02*
X153001085Y-99003600D01*
X154501085Y-99003600D02*
X154501085Y-96003600D01*
D15*
%TO.C,U1008_4*%
X132176095Y-125628600D02*
X133101095Y-125628600D01*
X132176095Y-126553600D02*
X132176095Y-125628600D01*
X132176095Y-130028600D02*
X132176095Y-129103600D01*
X132176095Y-130028600D02*
X133101095Y-130028600D01*
X135651095Y-125628600D02*
X136576095Y-125628600D01*
X135651095Y-130028600D02*
X136576095Y-130028600D01*
X136576095Y-126553600D02*
X136576095Y-125628600D01*
X136576095Y-130028600D02*
X136576095Y-129103600D01*
D16*
X136551095Y-124978600D02*
G75*
G02*
X136301095Y-124978600I-125000J0D01*
G01*
X136301095Y-124978600D02*
G75*
G02*
X136551095Y-124978600I125000J0D01*
G01*
D13*
%TO.C,C1023_4*%
X111501105Y-125453600D02*
X111501105Y-128453600D01*
X111501105Y-125453600D02*
X113001105Y-125453600D01*
X111501105Y-128453600D02*
X113001105Y-128453600D01*
X113001105Y-125453600D02*
X113001105Y-128453600D01*
%TO.C,C111*%
X173251095Y-62753610D02*
X173251095Y-64253610D01*
X176251095Y-62753610D02*
X173251095Y-62753610D01*
X176251095Y-62753610D02*
X176251095Y-64253610D01*
X176251095Y-64253610D02*
X173251095Y-64253610D01*
%TO.C,C1036_3*%
X131976095Y-103728600D02*
X133876095Y-103728600D01*
X131976095Y-104728600D02*
X131976095Y-103728600D01*
X131976095Y-104728600D02*
X133876095Y-104728600D01*
X133876095Y-104728600D02*
X133876095Y-103728600D01*
D14*
%TO.C,K1000_4*%
X103021095Y-126216100D02*
X110221095Y-126216100D01*
X103021095Y-127116100D02*
X103021095Y-126216100D01*
X103021095Y-130316100D02*
X103021095Y-128316100D01*
X103021095Y-132516100D02*
X103021095Y-131516100D01*
X103021095Y-134716100D02*
X103021095Y-133716100D01*
X103021095Y-136816100D02*
X103021095Y-135916100D01*
X103021095Y-136816100D02*
X110221095Y-136816100D01*
X110221095Y-127116100D02*
X110221095Y-126216100D01*
X110221095Y-130316100D02*
X110221095Y-128316100D01*
X110221095Y-132516100D02*
X110221095Y-131516100D01*
X110221095Y-134716100D02*
X110221095Y-133716100D01*
X110221095Y-136816100D02*
X110221095Y-135916100D01*
D15*
%TO.C,U1009_3*%
X123576095Y-104153600D02*
X124001095Y-104153600D01*
X123576095Y-104578600D02*
X123576095Y-104153600D01*
X123576095Y-107553590D02*
X123576095Y-107128600D01*
X123576095Y-107553590D02*
X124001095Y-107553590D01*
X126551095Y-104153600D02*
X126976095Y-104153600D01*
X126551095Y-107553590D02*
X126976095Y-107553590D01*
X126976095Y-104578600D02*
X126976095Y-104153600D01*
X126976095Y-107553590D02*
X126976095Y-107128600D01*
D16*
X123051095Y-104303600D02*
G75*
G02*
X122801095Y-104303600I-125000J0D01*
G01*
X122801095Y-104303600D02*
G75*
G02*
X123051095Y-104303600I125000J0D01*
G01*
D13*
%TO.C,R1033_4*%
X133301105Y-130953600D02*
X133301105Y-131903600D01*
X133301105Y-130953600D02*
X135151105Y-130953600D01*
X133301105Y-131903600D02*
X135151105Y-131903600D01*
X135151105Y-130953600D02*
X135151105Y-131903600D01*
%TO.C,C1045_2*%
X125951095Y-88753600D02*
X125951095Y-89753600D01*
X127851095Y-88753600D02*
X125951095Y-88753600D01*
X127851095Y-88753600D02*
X127851095Y-89753600D01*
X127851095Y-89753600D02*
X125951095Y-89753600D01*
%TO.C,R1026_2*%
X113851095Y-82603600D02*
X114801095Y-82603600D01*
X113851095Y-84453600D02*
X113851095Y-82603600D01*
X113851095Y-84453600D02*
X114801095Y-84453600D01*
X114801095Y-84453600D02*
X114801095Y-82603600D01*
D12*
%TO.C,D1*%
X88500000Y-109253600D02*
X89150000Y-109253600D01*
X89150000Y-109253600D02*
X89150000Y-108553600D01*
X87850000Y-108053600D02*
G75*
G02*
X87850000Y-106053600I400000J1000000D01*
G01*
D13*
%TO.C,R5*%
X181851095Y-99353600D02*
X181851095Y-98403600D01*
X183701095Y-98403600D02*
X181851095Y-98403600D01*
X183701095Y-99353600D02*
X181851095Y-99353600D01*
X183701095Y-99353600D02*
X183701095Y-98403600D01*
%TO.C,R1035_4*%
X120551095Y-128228600D02*
X120551095Y-131228600D01*
X122051095Y-128228600D02*
X120551095Y-128228600D01*
X122051095Y-128228600D02*
X122051095Y-131228600D01*
X122051095Y-131228600D02*
X120551095Y-131228600D01*
%TO.C,C1025_3*%
X111751095Y-104953600D02*
X111751095Y-103053600D01*
X112751095Y-103053600D02*
X111751095Y-103053600D01*
X112751095Y-104953600D02*
X111751095Y-104953600D01*
X112751095Y-104953600D02*
X112751095Y-103053600D01*
%TO.C,C1025_2*%
X111751095Y-84453600D02*
X111751095Y-82553600D01*
X112751095Y-82553600D02*
X111751095Y-82553600D01*
X112751095Y-84453600D02*
X111751095Y-84453600D01*
X112751095Y-84453600D02*
X112751095Y-82553600D01*
%TO.C,C65*%
X180901095Y-96478600D02*
X180901095Y-97428600D01*
X180901095Y-96478600D02*
X182751095Y-96478600D01*
X180901095Y-97428600D02*
X182751095Y-97428600D01*
X182751095Y-96478600D02*
X182751095Y-97428600D01*
%TO.C,L4*%
X149926095Y-104653600D02*
X149926095Y-109253600D01*
X149926095Y-104653600D02*
X153226095Y-104653600D01*
X149926095Y-109253600D02*
X153226095Y-109253600D01*
D15*
X150316095Y-106503599D02*
X150316095Y-107403601D01*
X152836095Y-106503599D02*
X152836095Y-107403601D01*
D13*
X153226095Y-104653600D02*
X153226095Y-109253600D01*
%TO.C,C1031_4*%
X120551095Y-134078600D02*
X120551095Y-132178600D01*
X124151095Y-132178600D02*
X120551095Y-132178600D01*
X124151095Y-134078600D02*
X120551095Y-134078600D01*
X124151095Y-134078600D02*
X124151095Y-132178600D01*
%TO.C,R13*%
X161401095Y-66493602D02*
X161401095Y-68643602D01*
X161401095Y-66493602D02*
X163901095Y-66493602D01*
X161401095Y-68643602D02*
X163901095Y-68643602D01*
X163901095Y-66493602D02*
X163901095Y-68643602D01*
%TO.C,R91*%
X173001095Y-68253600D02*
X173001095Y-69203600D01*
X173001095Y-68253600D02*
X174851095Y-68253600D01*
X173001095Y-69203600D02*
X174851095Y-69203600D01*
X174851095Y-68253600D02*
X174851095Y-69203600D01*
%TO.C,R1021_3*%
X106801095Y-119116100D02*
X106801095Y-117616100D01*
X109801095Y-117616100D02*
X106801095Y-117616100D01*
X109801095Y-119116100D02*
X106801095Y-119116100D01*
X109801095Y-119116100D02*
X109801095Y-117616100D01*
%TO.C,R1021_1*%
X106801095Y-78116100D02*
X106801095Y-76616100D01*
X109801095Y-76616100D02*
X106801095Y-76616100D01*
X109801095Y-78116100D02*
X106801095Y-78116100D01*
X109801095Y-78116100D02*
X109801095Y-76616100D01*
D11*
%TO.C,EMI2*%
X188294547Y-90371417D02*
X186738912Y-91927052D01*
X183627643Y-88815783D01*
X185183278Y-87260148D01*
X188294547Y-90371417D01*
D13*
%TO.C,R1026_3*%
X113851095Y-103103600D02*
X114801095Y-103103600D01*
X113851095Y-104953600D02*
X113851095Y-103103600D01*
X113851095Y-104953600D02*
X114801095Y-104953600D01*
X114801095Y-104953600D02*
X114801095Y-103103600D01*
%TO.C,C1032_4*%
X127376095Y-128503600D02*
X129276095Y-128503600D01*
X127376095Y-129503600D02*
X127376095Y-128503600D01*
X127376095Y-129503600D02*
X129276095Y-129503600D01*
X129276095Y-129503600D02*
X129276095Y-128503600D01*
%TO.C,R1042_2*%
X127401105Y-87503590D02*
X127401105Y-86553590D01*
X129251105Y-86553590D02*
X127401105Y-86553590D01*
X129251105Y-87503590D02*
X127401105Y-87503590D01*
X129251105Y-87503590D02*
X129251105Y-86553590D01*
%TO.C,C1022_4*%
X107401085Y-125891100D02*
X107401085Y-122891100D01*
X108901085Y-122891100D02*
X107401085Y-122891100D01*
X108901085Y-125891100D02*
X107401085Y-125891100D01*
X108901085Y-125891100D02*
X108901085Y-122891100D01*
D14*
%TO.C,K1001_4*%
X111726085Y-128753600D02*
X118926085Y-128753600D01*
X111726085Y-129653600D02*
X111726085Y-128753600D01*
X111726085Y-132853600D02*
X111726085Y-130853600D01*
X111726085Y-135053600D02*
X111726085Y-134053600D01*
X111726085Y-137253600D02*
X111726085Y-136253600D01*
X111726085Y-139353600D02*
X111726085Y-138453600D01*
X111726085Y-139353600D02*
X118926085Y-139353600D01*
X118926085Y-129653600D02*
X118926085Y-128753600D01*
X118926085Y-132853600D02*
X118926085Y-130853600D01*
X118926085Y-135053600D02*
X118926085Y-134053600D01*
X118926085Y-137253600D02*
X118926085Y-136253600D01*
X118926085Y-139353600D02*
X118926085Y-138453600D01*
D13*
%TO.C,R30*%
X171292200Y-127328600D02*
X172242200Y-127328600D01*
X171292200Y-129178600D02*
X171292200Y-127328600D01*
X171292200Y-129178600D02*
X172242200Y-129178600D01*
X172242200Y-129178600D02*
X172242200Y-127328600D01*
D15*
%TO.C,U5*%
X165331072Y-63818602D02*
X170331072Y-63818602D01*
X165331072Y-67018602D02*
X165331072Y-63818602D01*
X165331072Y-67018602D02*
X170331072Y-67018602D01*
X170331072Y-67018602D02*
X170331072Y-63818602D01*
D16*
X165201072Y-68143602D02*
G75*
G02*
X164951072Y-68143602I-125000J0D01*
G01*
X164951072Y-68143602D02*
G75*
G02*
X165201072Y-68143602I125000J0D01*
G01*
D17*
X166631072Y-66018602D02*
G75*
G02*
X166031072Y-66018602I-300000J0D01*
G01*
X166031072Y-66018602D02*
G75*
G02*
X166631072Y-66018602I300000J0D01*
G01*
D13*
%TO.C,R23*%
X175601095Y-127328600D02*
X176551095Y-127328600D01*
X175601095Y-129178600D02*
X175601095Y-127328600D01*
X175601095Y-129178600D02*
X176551095Y-129178600D01*
X176551095Y-129178600D02*
X176551095Y-127328600D01*
%TO.C,C108*%
X151451095Y-88678610D02*
X151451095Y-90178610D01*
X154451095Y-88678610D02*
X151451095Y-88678610D01*
X154451095Y-88678610D02*
X154451095Y-90178610D01*
X154451095Y-90178610D02*
X151451095Y-90178610D01*
%TO.C,C14*%
X167251095Y-89728610D02*
X167251095Y-91228610D01*
X170251095Y-89728610D02*
X167251095Y-89728610D01*
X170251095Y-89728610D02*
X170251095Y-91228610D01*
X170251095Y-91228610D02*
X167251095Y-91228610D01*
%TO.C,C1040_3*%
X135781085Y-104733600D02*
X135781085Y-101733600D01*
X137281085Y-101733600D02*
X135781085Y-101733600D01*
X137281085Y-104733600D02*
X135781085Y-104733600D01*
X137281085Y-104733600D02*
X137281085Y-101733600D01*
%TO.C,C123*%
X149951095Y-100928600D02*
X149951095Y-101928600D01*
X151851095Y-100928600D02*
X149951095Y-100928600D01*
X151851095Y-100928600D02*
X151851095Y-101928600D01*
X151851095Y-101928600D02*
X149951095Y-101928600D01*
%TD*%
M02*
