M48
; DRILL file {KiCad 9.0.0} date 2025-04-15T14:45:57-0400
; FORMAT={-:-/ absolute / inch / decimal}
; #@! TF.CreationDate,2025-04-15T14:45:57-04:00
; #@! TF.GenerationSoftware,Kicad,Pcbnew,9.0.0
; #@! TF.FileFunction,Plated,1,6,PTH
FMAT,2
INCH
; #@! TA.AperFunction,Plated,PTH,ViaDrill
T1C0.0080
; #@! TA.AperFunction,Plated,PTH,ComponentDrill
T2C0.0291
; #@! TA.AperFunction,Plated,PTH,ComponentDrill
T3C0.0354
; #@! TA.AperFunction,Plated,PTH,ComponentDrill
T4C0.0394
; #@! TA.AperFunction,Plated,PTH,ComponentDrill
T5C0.0709
; #@! TA.AperFunction,Plated,PTH,ComponentDrill
T6C0.0748
; #@! TA.AperFunction,Plated,PTH,ComponentDrill
T7C0.1181
%
G90
G05
T1
X3.4547Y-5.2069
X3.4548Y-2.4312
X3.4548Y-2.51
X3.4548Y-2.5887
X3.4548Y-2.6675
X3.4548Y-2.7462
X3.4548Y-2.8249
X3.4548Y-2.9037
X3.4548Y-2.9824
X3.4548Y-3.0612
X3.4548Y-3.1399
X3.4548Y-3.2186
X3.4548Y-3.323
X3.4548Y-3.4017
X3.4548Y-3.5257
X3.4548Y-3.6045
X3.4548Y-3.6832
X3.4548Y-3.762
X3.4548Y-3.8407
X3.4548Y-3.9194
X3.4548Y-3.9982
X3.4548Y-4.0769
X3.4548Y-4.1557
X3.4548Y-4.2147
X3.4548Y-4.3033
X3.4548Y-4.3722
X3.4548Y-4.4509
X3.4548Y-4.5297
X3.4548Y-4.6084
X3.4548Y-4.6871
X3.4548Y-4.7659
X3.4548Y-4.8446
X3.4548Y-4.9234
X3.4548Y-5.0277
X3.4548Y-5.1064
X3.4548Y-5.2639
X3.4548Y-5.3801
X3.4548Y-5.4431
X3.4548Y-5.5454
X3.4548Y-5.6104
X3.4548Y-5.7265
X3.4548Y-5.7895
X3.4548Y-5.886
X3.4941Y-2.4706
X3.4941Y-2.5494
X3.4941Y-2.6281
X3.4941Y-2.7068
X3.4941Y-2.7856
X3.4941Y-2.8643
X3.4941Y-2.9431
X3.4941Y-3.0218
X3.4941Y-3.1005
X3.4941Y-3.1793
X3.4941Y-3.5651
X3.4941Y-3.6438
X3.4941Y-3.7226
X3.4941Y-3.8013
X3.4941Y-3.8801
X3.4941Y-3.9588
X3.4941Y-4.0375
X3.4941Y-4.1163
X3.4941Y-4.3328
X3.4941Y-4.4116
X3.4941Y-4.4903
X3.4941Y-4.569
X3.4941Y-4.6478
X3.4941Y-4.7265
X3.4941Y-4.8053
X3.4941Y-4.884
X3.504Y-3.323
X3.504Y-3.4017
X3.5158Y-4.1557
X3.5197Y-5.632
X3.5237Y-2.7482
X3.5237Y-2.8249
X3.5237Y-3.0612
X3.5237Y-3.6045
X3.5237Y-4.4509
X3.5237Y-4.5297
X3.5237Y-4.7659
X3.5237Y-5.3171
X3.5256Y-2.4312
X3.5335Y-2.51
X3.5335Y-2.5887
X3.5335Y-2.6675
X3.5335Y-2.9037
X3.5335Y-2.9824
X3.5335Y-3.132
X3.5335Y-3.2777
X3.5335Y-3.447
X3.5335Y-3.5257
X3.5335Y-3.6832
X3.5335Y-3.762
X3.5335Y-3.8407
X3.5335Y-3.9982
X3.5335Y-4.0769
X3.5335Y-4.3722
X3.5335Y-4.6084
X3.5335Y-4.6871
X3.5335Y-4.8446
X3.5335Y-4.9234
X3.5335Y-5.2383
X3.5335Y-5.3958
X3.5335Y-5.4746
X3.5335Y-5.5612
X3.5335Y-5.7108
X3.5335Y-5.8683
X3.5532Y-4.1557
X3.563Y-3.2875
X3.5635Y-3.4367
X3.5635Y-4.9923
X3.5635Y-5.1414
X3.5729Y-2.5494
X3.5729Y-2.6202
X3.5729Y-2.7068
X3.5729Y-2.8761
X3.5729Y-2.9431
X3.5729Y-3.0041
X3.5729Y-3.1714
X3.5729Y-3.4864
X3.5729Y-3.5553
X3.5729Y-3.7226
X3.5729Y-3.8013
X3.5729Y-4.0375
X3.5729Y-4.1163
X3.5729Y-4.3427
X3.5729Y-4.4017
X3.5729Y-4.5789
X3.5729Y-4.6478
X3.5729Y-4.7068
X3.5729Y-4.884
X3.5729Y-5.199
X3.5729Y-5.258
X3.5729Y-5.4352
X3.5729Y-5.5139
X3.5985Y-5.0277
X3.5989Y-3.4017
X3.5989Y-5.1064
X3.6122Y-2.51
X3.6122Y-2.5887
X3.6122Y-2.6675
X3.6122Y-2.9037
X3.6122Y-2.9824
X3.6122Y-3.2108
X3.6122Y-3.2895
X3.6122Y-3.447
X3.6122Y-3.5257
X3.6122Y-3.762
X3.6122Y-3.8407
X3.6122Y-4.0769
X3.6122Y-4.1557
X3.6122Y-4.6084
X3.6122Y-4.6871
X3.6122Y-4.9234
X3.6122Y-5.1596
X3.6122Y-5.2383
X3.6122Y-5.4746
X3.6122Y-5.5533
X3.6122Y-5.7895
X3.6122Y-3.3801
X3.6122Y-5.8683
X3.63Y-4.197
X3.63Y-4.3151
X3.63Y-4.2757
X3.6378Y-2.5494
X3.6496Y-3.006
X3.6516Y-2.4706
X3.6516Y-2.8643
X3.6516Y-4.0375
X3.6516Y-4.1163
X3.6516Y-4.4116
X3.6516Y-4.569
X3.6516Y-4.6478
X3.6516Y-4.884
X3.6516Y-4.9627
X3.6516Y-5.0415
X3.6516Y-5.1202
X3.6516Y-5.199
X3.6516Y-5.258
X3.6516Y-5.4352
X3.6516Y-5.5139
X3.6516Y-2.699
X3.6516Y-2.9352
X3.6516Y-3.1714
X3.6516Y-3.2501
X3.6516Y-3.3151
X3.6516Y-3.4864
X3.6516Y-3.5612
X3.6516Y-3.7226
X3.6516Y-3.8013
X3.6634Y-2.6104
X3.6634Y-3.3801
X3.6733Y-4.195
X3.691Y-2.4312
X3.691Y-2.51
X3.691Y-2.6675
X3.691Y-5.7108
X3.691Y-5.8683
X3.7008Y-5.636
X3.7225Y-2.5494
X3.7304Y-5.5966
X3.7304Y-2.4706
X3.7304Y-4.2541
X3.7304Y-4.3328
X3.7304Y-4.4116
X3.7304Y-4.4903
X3.7304Y-4.569
X3.7304Y-4.6478
X3.7304Y-4.7265
X3.7304Y-4.8053
X3.7304Y-4.884
X3.7304Y-4.9627
X3.7304Y-5.199
X3.7304Y-5.2777
X3.7304Y-5.3564
X3.7304Y-5.4352
X3.7304Y-5.5139
X3.7304Y-5.6714
X3.7304Y-2.7777
X3.7304Y-2.8564
X3.7304Y-2.9352
X3.7304Y-3.0139
X3.7304Y-3.0927
X3.7304Y-3.1714
X3.7304Y-3.2501
X3.7304Y-3.4864
X3.7304Y-3.5651
X3.7304Y-3.6438
X3.7304Y-3.7226
X3.7304Y-3.8013
X3.7304Y-3.8801
X3.7304Y-3.9588
X3.7304Y-4.0375
X3.752Y-4.1163
X3.7678Y-2.636
X3.7697Y-2.3643
X3.7697Y-2.2856
X3.7697Y-5.632
X3.7697Y-2.51
X3.7697Y-5.7108
X3.7697Y-5.8683
X3.7993Y-2.7285
X3.7993Y-2.8171
X3.7993Y-3.5356
X3.7993Y-3.6242
X3.7993Y-4.3427
X3.7993Y-4.4312
X3.7993Y-5.3171
X3.7993Y-5.3958
X3.8091Y-2.3249
X3.8091Y-5.5966
X3.8091Y-3.4962
X3.8091Y-4.0631
X3.8091Y-4.2541
X3.8091Y-4.4116
X3.8091Y-4.4903
X3.8091Y-4.569
X3.8091Y-4.6478
X3.8091Y-4.7265
X3.8091Y-4.8053
X3.8091Y-4.884
X3.8091Y-5.199
X3.8091Y-5.2777
X3.8091Y-5.3564
X3.8091Y-5.4352
X3.8091Y-5.5139
X3.8091Y-5.6714
X3.8091Y-5.7895
X3.8091Y-2.699
X3.8091Y-2.7777
X3.8091Y-2.8564
X3.8091Y-2.9352
X3.8091Y-3.0139
X3.8091Y-3.0927
X3.8091Y-3.1714
X3.8091Y-3.5651
X3.8091Y-3.6438
X3.8091Y-3.7226
X3.8091Y-3.8013
X3.8091Y-3.8801
X3.8091Y-3.9588
X3.817Y-2.5494
X3.8229Y-2.4942
X3.8445Y-2.6714
X3.8475Y-3.6822
X3.8485Y-2.3643
X3.8485Y-2.4431
X3.8485Y-2.2856
X3.8485Y-5.632
X3.8485Y-2.7501
X3.8485Y-2.8427
X3.8485Y-4.0238
X3.8485Y-4.136
X3.8485Y-4.2147
X3.8485Y-4.2934
X3.8485Y-4.3722
X3.8485Y-4.4509
X3.8485Y-4.5297
X3.8485Y-4.6084
X3.8485Y-4.6871
X3.8485Y-4.7659
X3.8485Y-4.8446
X3.8485Y-4.9234
X3.8485Y-5.2383
X3.8485Y-5.3171
X3.8485Y-5.3958
X3.8485Y-5.4746
X3.8485Y-2.9135
X3.8485Y-2.9746
X3.8485Y-3.0533
X3.8485Y-3.132
X3.8485Y-3.2108
X3.8485Y-3.6045
X3.8485Y-3.762
X3.8485Y-3.8407
X3.8485Y-3.9194
X3.8485Y-5.7108
X3.8485Y-5.8683
X3.8682Y-2.5297
X3.8819Y-2.6104
X3.8819Y-2.6675
X3.8819Y-5.4312
X3.8839Y-5.3564
X3.8878Y-2.4037
X3.8878Y-2.4824
X3.8878Y-2.3249
X3.8878Y-3.9844
X3.8878Y-4.0966
X3.8878Y-4.1753
X3.8878Y-4.2541
X3.8878Y-4.3328
X3.8878Y-4.4116
X3.8878Y-4.4903
X3.8878Y-4.7265
X3.8878Y-4.8053
X3.8878Y-4.884
X3.8878Y-5.199
X3.8878Y-5.2777
X3.8878Y-3.0139
X3.8878Y-3.0927
X3.8878Y-3.1714
X3.8878Y-3.4864
X3.8878Y-3.5651
X3.8878Y-3.8801
X3.8878Y-5.5966
X3.8878Y-5.6714
X3.8918Y-3.2482
X3.8986Y-2.5651
X3.8986Y-2.7226
X3.8986Y-2.7777
X3.9272Y-2.4431
X3.9272Y-2.5218
X3.9272Y-2.3643
X3.9272Y-2.2856
X3.9272Y-3.9135
X3.9272Y-4.0572
X3.9272Y-4.136
X3.9272Y-4.2147
X3.9272Y-4.2934
X3.9272Y-4.3722
X3.9272Y-4.4509
X3.9272Y-4.7659
X3.9272Y-4.8446
X3.9272Y-4.9234
X3.9272Y-5.1596
X3.9272Y-5.2383
X3.9272Y-3.0533
X3.9272Y-3.132
X3.9272Y-3.2108
X3.9272Y-3.5257
X3.9272Y-3.6045
X3.9272Y-5.632
X3.9272Y-5.7108
X3.9272Y-5.8683
X3.9331Y-3.2895
X3.9379Y-2.6045
X3.9379Y-2.6832
X3.9379Y-2.7501
X3.9469Y-4.9706
X3.9469Y-5.0277
X3.9469Y-5.1025
X3.9528Y-4.569
X3.9528Y-5.199
X3.9528Y-5.3377
X3.9528Y-5.382
X3.9528Y-5.4312
X3.9538Y-4.5139
X3.9548Y-3.8801
X3.9666Y-2.3249
X3.9666Y-5.5966
X3.9666Y-5.6714
X3.9773Y-2.6438
X3.9941Y-2.3858
X3.9941Y-2.4448
X3.9941Y-2.5039
X3.9941Y-2.5629
X3.9941Y-3.1928
X3.9941Y-3.2519
X3.9941Y-3.311
X3.9941Y-3.37
X3.9941Y-3.9999
X3.9941Y-4.059
X3.9941Y-4.118
X3.9941Y-4.1771
X3.9941Y-4.807
X3.9941Y-4.8661
X3.9941Y-4.9251
X3.9941Y-4.9842
X3.9941Y-2.697
X3.9941Y-2.7462
X3.9941Y-2.7954
X3.9941Y-2.9293
X3.9941Y-2.9883
X3.9941Y-3.0474
X3.9941Y-3.1064
X3.9941Y-3.5041
X3.9941Y-3.5533
X3.9941Y-3.6025
X3.9941Y-3.7364
X3.9941Y-3.7954
X3.9941Y-3.8545
X3.9941Y-3.9135
X3.9941Y-4.3112
X3.9941Y-4.3604
X3.9941Y-4.4096
X3.9941Y-4.5434
X3.9941Y-4.6025
X3.9941Y-4.6616
X3.9941Y-4.7206
X3.9941Y-5.1183
X3.9941Y-5.1675
X3.9941Y-5.2167
X3.9941Y-5.3505
X3.9941Y-5.4096
X3.9941Y-5.4686
X3.9941Y-5.5277
X3.9941Y-5.632
X3.9941Y-5.7108
X3.9941Y-5.8683
X3.9951Y-5.7893
X4.0059Y-2.2856
X4.0289Y-2.6251
X4.0289Y-3.4322
X4.0289Y-4.2393
X4.0289Y-5.0464
X4.0447Y-2.5641
X4.0447Y-3.3712
X4.0447Y-4.1783
X4.0447Y-4.9854
X4.0452Y-2.3858
X4.0452Y-2.4448
X4.0452Y-2.5041
X4.0452Y-3.1928
X4.0452Y-3.2519
X4.0452Y-3.3112
X4.0452Y-3.9999
X4.0452Y-4.059
X4.0452Y-4.1183
X4.0452Y-4.807
X4.0452Y-4.8661
X4.0452Y-4.9253
X4.0453Y-2.3249
X4.0453Y-3.1064
X4.0453Y-3.9135
X4.0453Y-4.7206
X4.0453Y-5.5277
X4.0483Y-3.0464
X4.0483Y-3.8535
X4.0483Y-4.6606
X4.0483Y-5.4677
X4.0502Y-2.7757
X4.0502Y-2.8623
X4.0502Y-2.9499
X4.0502Y-3.5828
X4.0502Y-3.6694
X4.0502Y-3.757
X4.0502Y-4.3899
X4.0502Y-4.4765
X4.0502Y-4.5641
X4.0502Y-5.197
X4.0502Y-5.2836
X4.0502Y-5.3712
X4.0621Y-2.637
X4.0621Y-3.444
X4.0621Y-4.2511
X4.0621Y-5.0582
X4.0768Y-3.0021
X4.0768Y-3.8092
X4.0768Y-4.6163
X4.0768Y-5.4234
X4.0827Y-3.0459
X4.0827Y-3.853
X4.0827Y-4.6601
X4.0827Y-5.4672
X4.0847Y-2.2856
X4.0964Y-2.3858
X4.0964Y-2.4448
X4.0964Y-2.5041
X4.0964Y-3.1928
X4.0964Y-3.2519
X4.0964Y-3.3112
X4.0964Y-3.9999
X4.0964Y-4.059
X4.0964Y-4.1183
X4.0964Y-4.807
X4.0964Y-4.8661
X4.0964Y-4.9253
X4.0965Y-3.1064
X4.0965Y-3.9135
X4.0965Y-4.7206
X4.0965Y-5.5277
X4.1044Y-3.069
X4.1044Y-3.8761
X4.1044Y-4.6832
X4.1044Y-5.4903
X4.1075Y-2.5636
X4.1075Y-3.3707
X4.1075Y-4.1778
X4.1075Y-4.9849
X4.1093Y-2.7757
X4.1093Y-2.8623
X4.1093Y-2.9499
X4.1093Y-3.5828
X4.1093Y-3.6694
X4.1093Y-3.757
X4.1093Y-4.3899
X4.1093Y-4.4765
X4.1093Y-4.5641
X4.1093Y-5.197
X4.1093Y-5.2836
X4.1093Y-5.3712
X4.1241Y-2.3249
X4.1378Y-3.07
X4.1378Y-3.8771
X4.1378Y-4.6842
X4.1378Y-5.4912
X4.1398Y-2.8181
X4.1398Y-2.9057
X4.1398Y-3.6251
X4.1398Y-3.7127
X4.1398Y-4.4322
X4.1398Y-4.5198
X4.1398Y-5.2393
X4.1398Y-5.3269
X4.1476Y-2.3858
X4.1476Y-2.4448
X4.1476Y-3.1928
X4.1476Y-3.2519
X4.1476Y-3.9999
X4.1476Y-4.059
X4.1476Y-4.807
X4.1476Y-4.8661
X4.1477Y-3.1064
X4.1477Y-3.9135
X4.1477Y-4.7206
X4.1477Y-5.5277
X4.1541Y-2.6438
X4.1541Y-3.4509
X4.1541Y-4.258
X4.1541Y-5.0651
X4.1634Y-2.2856
X4.1684Y-2.7757
X4.1684Y-2.8623
X4.1684Y-2.9499
X4.1684Y-3.5828
X4.1684Y-3.6694
X4.1684Y-3.757
X4.1684Y-4.3899
X4.1684Y-4.4765
X4.1684Y-4.5641
X4.1684Y-5.197
X4.1684Y-5.2836
X4.1684Y-5.3712
X4.1703Y-2.5631
X4.1703Y-3.3702
X4.1703Y-4.1773
X4.1703Y-4.9844
X4.1713Y-3.069
X4.1713Y-3.8761
X4.1713Y-4.6832
X4.1713Y-5.4903
X4.1851Y-2.6084
X4.1851Y-3.4155
X4.1851Y-4.2226
X4.1851Y-5.0297
X4.189Y-2.4448
X4.189Y-3.2519
X4.189Y-4.059
X4.189Y-4.8661
X4.193Y-5.4672
X4.193Y-3.0459
X4.193Y-3.853
X4.193Y-4.6601
X4.1989Y-2.9057
X4.1989Y-3.7127
X4.1989Y-4.5198
X4.1989Y-5.3269
X4.2028Y-2.3249
X4.2126Y-2.6438
X4.2126Y-3.4509
X4.2126Y-4.258
X4.2126Y-5.0651
X4.2146Y-2.76
X4.2146Y-3.5671
X4.2146Y-4.3742
X4.2146Y-5.1812
X4.227Y-2.6793
X4.227Y-3.4864
X4.227Y-4.2934
X4.227Y-5.1005
X4.2274Y-2.8623
X4.2274Y-2.9499
X4.2274Y-3.6694
X4.2274Y-3.757
X4.2274Y-4.4765
X4.2274Y-4.5641
X4.2274Y-5.2836
X4.2274Y-5.3712
X4.2284Y-2.4348
X4.2284Y-2.46
X4.2284Y-3.2419
X4.2284Y-3.2671
X4.2284Y-4.049
X4.2284Y-4.0742
X4.2284Y-4.856
X4.2284Y-4.8812
X4.2331Y-2.5626
X4.2331Y-3.3697
X4.2331Y-4.1768
X4.2331Y-4.9839
X4.2382Y-2.7147
X4.2382Y-3.5218
X4.2382Y-4.3289
X4.2382Y-5.136
X4.2422Y-2.2856
X4.2556Y-2.9066
X4.2556Y-3.7137
X4.2556Y-4.5208
X4.2556Y-5.3279
X4.2638Y-2.759
X4.2638Y-3.5661
X4.2638Y-4.3732
X4.2638Y-5.1803
X4.2815Y-2.3249
X4.2827Y-2.386
X4.2827Y-3.1931
X4.2827Y-4.0001
X4.2827Y-4.8072
X4.2828Y-3.1062
X4.2828Y-3.9133
X4.2828Y-4.7204
X4.2828Y-5.5275
X4.2865Y-2.9503
X4.2865Y-3.7574
X4.2865Y-4.5645
X4.2865Y-5.3716
X4.2869Y-2.6386
X4.2869Y-3.4457
X4.2869Y-4.2528
X4.2869Y-5.0599
X4.2874Y-2.435
X4.2874Y-2.4602
X4.2874Y-2.699
X4.2874Y-3.2421
X4.2874Y-3.2673
X4.2874Y-3.506
X4.2874Y-4.0492
X4.2874Y-4.0744
X4.2874Y-4.3131
X4.2874Y-4.8562
X4.2874Y-4.8814
X4.2874Y-5.1202
X4.2884Y-2.8623
X4.2884Y-3.6694
X4.2884Y-4.4765
X4.2884Y-5.2836
X4.2959Y-2.5621
X4.2959Y-3.3692
X4.2959Y-4.1763
X4.2959Y-4.9834
X4.2993Y-2.5041
X4.2993Y-3.3112
X4.2993Y-4.1183
X4.2993Y-4.9253
X4.3174Y-2.6694
X4.3174Y-3.4765
X4.3174Y-4.2836
X4.3174Y-5.0907
X4.3189Y-2.7757
X4.3189Y-3.5828
X4.3189Y-4.3899
X4.3189Y-5.197
X4.3209Y-2.2856
X4.3268Y-2.445
X4.3268Y-3.2521
X4.3268Y-4.0592
X4.3268Y-4.8663
X4.3319Y-2.386
X4.3319Y-3.1931
X4.3319Y-4.0001
X4.3319Y-4.8072
X4.332Y-3.1062
X4.332Y-3.9133
X4.332Y-4.7204
X4.332Y-5.5275
X4.3339Y-3.0498
X4.3339Y-3.8569
X4.3339Y-4.664
X4.3339Y-5.4711
X4.3426Y-2.5041
X4.3426Y-3.3112
X4.3426Y-4.1183
X4.3426Y-4.9253
X4.3455Y-2.9499
X4.3455Y-3.757
X4.3455Y-4.5641
X4.3455Y-5.3712
X4.3459Y-2.6386
X4.3459Y-3.4457
X4.3459Y-4.2528
X4.3459Y-5.0599
X4.3465Y-2.699
X4.3465Y-3.506
X4.3465Y-4.3131
X4.3465Y-5.1202
X4.3475Y-2.8623
X4.3475Y-3.6694
X4.3475Y-4.4765
X4.3475Y-5.2836
X4.3544Y-3.0041
X4.3544Y-3.8112
X4.3544Y-4.6183
X4.3544Y-5.4253
X4.3587Y-2.5617
X4.3587Y-3.3687
X4.3587Y-4.1758
X4.3587Y-4.9829
X4.3603Y-2.3249
X4.3642Y-2.445
X4.3642Y-2.5857
X4.3642Y-3.2521
X4.3642Y-3.3928
X4.3642Y-4.0592
X4.3642Y-4.1998
X4.3642Y-4.8663
X4.3642Y-5.0069
X4.3701Y-2.7753
X4.3701Y-3.5824
X4.3701Y-4.3895
X4.3701Y-5.1966
X4.3731Y-2.6832
X4.3731Y-3.4903
X4.3731Y-4.2974
X4.3731Y-5.1045
X4.38Y-2.6064
X4.38Y-3.4135
X4.38Y-4.2206
X4.38Y-5.0277
X4.3811Y-2.386
X4.3811Y-3.1931
X4.3811Y-4.0001
X4.3811Y-4.8072
X4.3812Y-3.1062
X4.3812Y-3.9133
X4.3812Y-4.7204
X4.3812Y-5.5275
X4.3874Y-2.6576
X4.3874Y-3.4647
X4.3874Y-4.2718
X4.3874Y-5.0789
X4.3878Y-2.5041
X4.3878Y-3.3112
X4.3878Y-4.1183
X4.3878Y-4.9253
X4.393Y-2.8756
X4.393Y-2.9632
X4.393Y-3.0498
X4.393Y-3.6827
X4.393Y-3.7703
X4.393Y-3.8569
X4.393Y-4.4898
X4.393Y-4.5774
X4.393Y-4.664
X4.393Y-5.2969
X4.393Y-5.3845
X4.393Y-5.4711
X4.3953Y-2.4623
X4.3953Y-3.2694
X4.3953Y-4.0765
X4.3953Y-4.8836
X4.3996Y-2.2856
X4.4056Y-2.7448
X4.4056Y-3.5519
X4.4056Y-4.359
X4.4056Y-5.1661
X4.4193Y-2.4383
X4.4193Y-3.2454
X4.4193Y-4.0525
X4.4193Y-4.8596
X4.439Y-2.3249
X4.4434Y-2.4623
X4.4434Y-3.2694
X4.4434Y-4.0765
X4.4434Y-4.8836
X4.4502Y-2.6635
X4.4502Y-3.4706
X4.4502Y-4.2777
X4.4502Y-5.0848
X4.452Y-2.8756
X4.452Y-2.9632
X4.452Y-3.0498
X4.452Y-3.6827
X4.452Y-3.7703
X4.452Y-3.8569
X4.452Y-4.4898
X4.452Y-4.5774
X4.452Y-4.664
X4.452Y-5.2969
X4.452Y-5.3845
X4.452Y-5.4711
X4.4587Y-2.5041
X4.4587Y-3.3112
X4.4587Y-4.1183
X4.4587Y-4.9253
X4.477Y-2.4637
X4.477Y-3.2708
X4.477Y-4.0779
X4.477Y-4.885
X4.4784Y-2.2856
X4.4825Y-2.9189
X4.4825Y-3.726
X4.4825Y-4.5331
X4.4825Y-5.3402
X4.4981Y-2.7448
X4.4981Y-3.5519
X4.4981Y-4.359
X4.4981Y-5.1661
X4.501Y-2.4397
X4.501Y-3.2468
X4.501Y-4.0539
X4.501Y-4.861
X4.5111Y-2.8756
X4.5111Y-2.9632
X4.5111Y-3.0498
X4.5111Y-3.6827
X4.5111Y-3.7703
X4.5111Y-3.8569
X4.5111Y-4.4898
X4.5111Y-4.5774
X4.5111Y-4.664
X4.5111Y-5.2969
X4.5111Y-5.3845
X4.5111Y-5.4711
X4.513Y-2.663
X4.513Y-3.4701
X4.513Y-4.2772
X4.513Y-5.0843
X4.5178Y-2.3249
X4.5178Y-2.7049
X4.5178Y-3.512
X4.5178Y-4.319
X4.5178Y-5.1261
X4.5189Y-2.386
X4.5189Y-3.1931
X4.5189Y-4.0001
X4.5189Y-4.8072
X4.519Y-3.1062
X4.519Y-3.9133
X4.519Y-4.7204
X4.519Y-5.5275
X4.5394Y-2.4383
X4.5394Y-3.2454
X4.5394Y-4.0525
X4.5394Y-4.8596
X4.5571Y-2.2856
X4.5571Y-2.8683
X4.5571Y-3.6753
X4.5571Y-4.4824
X4.5571Y-5.2895
X4.563Y-2.7875
X4.563Y-3.5946
X4.563Y-4.4017
X4.563Y-5.2088
X4.5634Y-2.4623
X4.5634Y-3.2694
X4.5634Y-4.0765
X4.5634Y-4.8836
X4.5682Y-2.386
X4.5682Y-3.1931
X4.5682Y-4.0001
X4.5682Y-4.8072
X4.5683Y-3.1062
X4.5683Y-3.9133
X4.5683Y-4.7204
X4.5683Y-5.5275
X4.5701Y-2.9632
X4.5701Y-3.0498
X4.5701Y-3.7703
X4.5701Y-3.8569
X4.5701Y-4.5774
X4.5701Y-4.664
X4.5701Y-5.3845
X4.5701Y-5.4711
X4.5758Y-2.5425
X4.5758Y-2.6625
X4.5758Y-3.3496
X4.5758Y-3.4696
X4.5758Y-4.1566
X4.5758Y-4.2767
X4.5758Y-4.9637
X4.5758Y-5.0838
X4.5817Y-2.823
X4.5817Y-3.6301
X4.5817Y-4.4371
X4.5817Y-5.2442
X4.5965Y-2.3249
X4.6004Y-2.4363
X4.6004Y-2.4615
X4.6004Y-3.2434
X4.6004Y-3.2685
X4.6004Y-4.0504
X4.6004Y-4.0756
X4.6004Y-4.8575
X4.6004Y-4.8827
X4.6063Y-2.8683
X4.6063Y-3.6753
X4.6063Y-4.4824
X4.6063Y-5.2895
X4.6101Y-2.4987
X4.6101Y-3.3058
X4.6101Y-4.1128
X4.6101Y-4.9199
X4.6174Y-2.386
X4.6174Y-3.1931
X4.6174Y-4.0001
X4.6174Y-4.8072
X4.6175Y-3.1062
X4.6175Y-3.9133
X4.6175Y-4.7204
X4.6175Y-5.5275
X4.6292Y-2.9632
X4.6292Y-3.0498
X4.6292Y-3.7703
X4.6292Y-3.8569
X4.6292Y-4.5774
X4.6292Y-4.664
X4.6292Y-5.3845
X4.6292Y-5.4711
X4.6296Y-2.7386
X4.6296Y-3.5456
X4.6296Y-4.3527
X4.6296Y-5.1598
X4.6302Y-2.7989
X4.6302Y-3.6059
X4.6302Y-4.413
X4.6302Y-5.2201
X4.6359Y-2.2856
X4.6386Y-2.543
X4.6386Y-2.6621
X4.6386Y-3.35
X4.6386Y-3.4691
X4.6386Y-4.1571
X4.6386Y-4.2762
X4.6386Y-4.9642
X4.6386Y-5.0833
X4.6601Y-2.7693
X4.6601Y-3.5764
X4.6601Y-4.3835
X4.6601Y-5.1906
X4.6691Y-2.8678
X4.6691Y-3.6748
X4.6691Y-4.4819
X4.6691Y-5.289
X4.6729Y-2.4992
X4.6729Y-3.3062
X4.6729Y-4.1133
X4.6729Y-4.9204
X4.6752Y-2.3249
X4.6772Y-2.4365
X4.6772Y-2.4617
X4.6772Y-3.2435
X4.6772Y-3.2687
X4.6772Y-4.0506
X4.6772Y-4.0758
X4.6772Y-4.8577
X4.6772Y-4.8829
X4.6886Y-2.7386
X4.6886Y-3.5456
X4.6886Y-4.3527
X4.6886Y-5.1598
X4.6892Y-2.7989
X4.6892Y-3.6059
X4.6892Y-4.413
X4.6892Y-5.2201
X4.692Y-2.9627
X4.692Y-3.0498
X4.692Y-3.7698
X4.692Y-3.8569
X4.692Y-4.5769
X4.692Y-4.664
X4.692Y-5.384
X4.692Y-5.4711
X4.6949Y-2.6616
X4.6949Y-3.4686
X4.6949Y-4.2757
X4.6949Y-5.0828
X4.7014Y-2.5434
X4.7014Y-2.6025
X4.7014Y-3.3505
X4.7014Y-3.4096
X4.7014Y-4.1576
X4.7014Y-4.2167
X4.7014Y-4.9647
X4.7014Y-5.0238
X4.7077Y-2.6832
X4.7077Y-3.4903
X4.7077Y-4.2974
X4.7077Y-5.1045
X4.7146Y-2.2856
X4.7225Y-2.9411
X4.7225Y-3.7482
X4.7225Y-4.5553
X4.7225Y-5.3623
X4.73Y-2.4401
X4.73Y-2.4992
X4.73Y-2.573
X4.73Y-2.632
X4.73Y-2.6911
X4.73Y-2.7501
X4.73Y-3.2472
X4.73Y-3.3062
X4.73Y-3.3801
X4.73Y-3.4391
X4.73Y-3.4982
X4.73Y-3.5572
X4.73Y-4.0543
X4.73Y-4.1133
X4.73Y-4.1871
X4.73Y-4.2462
X4.73Y-4.3053
X4.73Y-4.3643
X4.73Y-4.8614
X4.73Y-4.9204
X4.73Y-4.9942
X4.73Y-5.0533
X4.73Y-5.1123
X4.73Y-5.1714
X4.7343Y-3.006
X4.7343Y-3.8131
X4.7343Y-4.6202
X4.7343Y-5.4273
X4.7496Y-2.9175
X4.7496Y-3.7246
X4.7496Y-4.5316
X4.7496Y-5.3387
X4.754Y-2.3249
X4.7552Y-2.386
X4.7552Y-3.1931
X4.7552Y-4.0001
X4.7552Y-4.8072
X4.7553Y-3.1062
X4.7553Y-3.9133
X4.7553Y-4.7204
X4.7553Y-5.5275
X4.7658Y-2.9568
X4.7658Y-3.7639
X4.7658Y-4.571
X4.7658Y-5.3781
X4.7704Y-2.4303
X4.7704Y-2.4696
X4.7704Y-3.2374
X4.7704Y-3.2767
X4.7704Y-4.0445
X4.7704Y-4.0838
X4.7704Y-4.8515
X4.7704Y-4.8909
X4.7717Y-3.0494
X4.7717Y-3.8564
X4.7717Y-4.6635
X4.7717Y-5.4706
X4.7855Y-2.9175
X4.7855Y-3.0238
X4.7855Y-3.7246
X4.7855Y-3.8309
X4.7855Y-4.5316
X4.7855Y-4.6379
X4.7855Y-5.3387
X4.7855Y-5.445
X4.7933Y-2.2856
X4.8044Y-2.386
X4.8044Y-3.1931
X4.8044Y-4.0001
X4.8044Y-4.8072
X4.8045Y-3.1062
X4.8045Y-3.9133
X4.8045Y-4.7204
X4.8045Y-5.5275
X4.8101Y-2.4271
X4.8101Y-3.2342
X4.8101Y-4.0413
X4.8101Y-4.8484
X4.8229Y-2.9568
X4.8229Y-3.7639
X4.8229Y-4.571
X4.8229Y-5.3781
X4.8327Y-2.3249
X4.8374Y-2.7399
X4.8374Y-3.547
X4.8374Y-4.3541
X4.8374Y-5.1612
X4.8495Y-2.4263
X4.8495Y-3.2334
X4.8495Y-4.0405
X4.8495Y-4.8476
X4.8499Y-2.4698
X4.8499Y-3.2768
X4.8499Y-4.0839
X4.8499Y-4.891
X4.8536Y-2.386
X4.8536Y-3.1931
X4.8536Y-4.0001
X4.8536Y-4.8072
X4.8537Y-3.1062
X4.8537Y-3.9133
X4.8537Y-4.7204
X4.8537Y-5.5275
X4.8575Y-2.636
X4.8575Y-3.4431
X4.8575Y-4.2501
X4.8575Y-5.0572
X4.8589Y-3.0671
X4.8589Y-3.8742
X4.8589Y-4.6812
X4.8589Y-5.4883
X4.8721Y-2.2856
X4.8756Y-2.7198
X4.8756Y-3.5269
X4.8756Y-4.334
X4.8756Y-5.1411
X4.88Y-2.9568
X4.88Y-3.7639
X4.88Y-4.571
X4.88Y-5.3781
X4.8878Y-3.006
X4.8878Y-3.8131
X4.8878Y-4.6202
X4.8878Y-5.4273
X4.8961Y-3.0671
X4.8961Y-3.8742
X4.8961Y-4.6812
X4.8961Y-5.4883
X4.9011Y-2.7201
X4.9011Y-3.5272
X4.9011Y-4.3343
X4.9011Y-5.1414
X4.9085Y-2.5297
X4.9085Y-2.5769
X4.9085Y-3.3368
X4.9085Y-3.384
X4.9085Y-4.1438
X4.9085Y-4.1911
X4.9085Y-4.9509
X4.9085Y-4.9982
X4.9115Y-2.3249
X4.9115Y-2.8663
X4.9115Y-2.9057
X4.9115Y-3.6734
X4.9115Y-3.7127
X4.9115Y-4.4805
X4.9115Y-4.5198
X4.9115Y-5.2875
X4.9115Y-5.3269
X4.9217Y-2.4277
X4.9217Y-3.2348
X4.9217Y-4.0419
X4.9217Y-4.849
X4.9243Y-2.7206
X4.9243Y-3.5277
X4.9243Y-4.3348
X4.9243Y-5.1419
X4.9321Y-2.5533
X4.9321Y-3.3604
X4.9321Y-4.1675
X4.9321Y-4.9746
X4.941Y-2.8269
X4.941Y-2.9057
X4.941Y-3.634
X4.941Y-3.7127
X4.941Y-4.4411
X4.941Y-4.5198
X4.941Y-5.2482
X4.941Y-5.3269
X4.941Y-2.694
X4.941Y-3.5011
X4.941Y-4.3082
X4.941Y-5.1153
X4.9422Y-2.6402
X4.9422Y-3.4473
X4.9422Y-4.2544
X4.9422Y-5.0615
X4.9437Y-2.4277
X4.9437Y-3.2348
X4.9437Y-4.0419
X4.9437Y-4.849
X4.9508Y-2.2856
X4.9518Y-2.7137
X4.9518Y-3.5208
X4.9518Y-4.3279
X4.9518Y-5.135
X4.9558Y-2.5297
X4.9558Y-2.5769
X4.9558Y-3.3368
X4.9558Y-3.384
X4.9558Y-4.1438
X4.9558Y-4.1911
X4.9558Y-4.9509
X4.9558Y-4.9982
X4.9705Y-2.8663
X4.9705Y-3.6734
X4.9705Y-4.4805
X4.9705Y-5.2875
X4.9794Y-3.0663
X4.9794Y-3.8734
X4.9794Y-4.6805
X4.9794Y-5.4876
X4.9882Y-2.6399
X4.9882Y-3.447
X4.9882Y-4.2541
X4.9882Y-5.0612
X4.9887Y-2.3858
X4.9887Y-3.1928
X4.9887Y-3.9999
X4.9887Y-4.807
X4.9888Y-3.1064
X4.9888Y-3.9135
X4.9888Y-4.7206
X4.9888Y-5.5277
X4.9902Y-2.3249
X5.0Y-2.8269
X5.0Y-2.9057
X5.0Y-3.634
X5.0Y-3.7127
X5.0Y-4.4411
X5.0Y-4.5198
X5.0Y-5.2482
X5.0Y-5.3269
X5.012Y-2.4381
X5.012Y-2.4802
X5.012Y-3.2452
X5.012Y-3.2872
X5.012Y-4.0523
X5.012Y-4.0943
X5.012Y-4.8594
X5.012Y-4.9014
X5.0128Y-2.6803
X5.0128Y-3.4873
X5.0128Y-4.2944
X5.0128Y-5.1015
X5.0138Y-2.5631
X5.0138Y-3.3702
X5.0138Y-4.1773
X5.0138Y-4.9844
X5.0148Y-3.0681
X5.0148Y-3.8751
X5.0148Y-4.6822
X5.0148Y-5.4893
X5.0296Y-2.2856
X5.0296Y-2.8663
X5.0296Y-3.6734
X5.0296Y-4.4805
X5.0296Y-5.2875
X5.0365Y-2.6824
X5.0365Y-3.4894
X5.0365Y-4.2965
X5.0365Y-5.1036
X5.0399Y-2.3858
X5.0399Y-3.1928
X5.0399Y-3.9999
X5.0399Y-4.807
X5.04Y-3.1064
X5.04Y-3.9135
X5.04Y-4.7206
X5.04Y-5.5277
X5.0532Y-3.0681
X5.0532Y-3.8751
X5.0532Y-4.6822
X5.0532Y-5.4893
X5.0591Y-2.8269
X5.0591Y-2.9057
X5.0591Y-3.634
X5.0591Y-3.7127
X5.0591Y-4.4411
X5.0591Y-4.5198
X5.0591Y-5.2482
X5.0591Y-5.3269
X5.0689Y-2.3249
X5.0709Y-2.6832
X5.0709Y-3.4903
X5.0709Y-4.2974
X5.0709Y-5.1045
X5.0788Y-2.8663
X5.0788Y-3.6734
X5.0788Y-4.4805
X5.0788Y-5.2875
X5.0798Y-3.0681
X5.0798Y-3.8751
X5.0798Y-4.6822
X5.0798Y-5.4893
X5.0911Y-2.3858
X5.0911Y-3.1928
X5.0911Y-3.9999
X5.0911Y-4.807
X5.0912Y-3.1064
X5.0912Y-3.9135
X5.0912Y-4.7206
X5.0912Y-5.5277
X5.0916Y-2.4401
X5.0916Y-3.2472
X5.0916Y-4.0543
X5.0916Y-4.8614
X5.092Y-2.4796
X5.092Y-3.2867
X5.092Y-4.0938
X5.092Y-4.9009
X5.0935Y-2.5198
X5.0935Y-3.3269
X5.0935Y-4.134
X5.0935Y-4.9411
X5.1083Y-2.2856
X5.1422Y-2.697
X5.1422Y-2.7462
X5.1422Y-2.7954
X5.1422Y-3.5041
X5.1422Y-3.5533
X5.1422Y-3.6025
X5.1422Y-4.3112
X5.1422Y-4.3604
X5.1422Y-4.4096
X5.1422Y-5.1183
X5.1422Y-5.1675
X5.1422Y-5.2167
X5.1423Y-2.3858
X5.1423Y-2.4448
X5.1423Y-2.4893
X5.1423Y-3.1928
X5.1423Y-3.2519
X5.1423Y-3.2964
X5.1423Y-3.9999
X5.1423Y-4.059
X5.1423Y-4.1035
X5.1423Y-4.807
X5.1423Y-4.8661
X5.1423Y-4.9106
X5.1424Y-2.9293
X5.1424Y-2.9883
X5.1424Y-3.0474
X5.1424Y-3.1064
X5.1424Y-3.7364
X5.1424Y-3.7954
X5.1424Y-3.8545
X5.1424Y-3.9135
X5.1424Y-4.5434
X5.1424Y-4.6025
X5.1424Y-4.6616
X5.1424Y-4.7206
X5.1424Y-5.3446
X5.1424Y-5.4096
X5.1424Y-5.4686
X5.1424Y-5.5277
X5.1477Y-2.3249
X5.1861Y-2.7797
X5.1861Y-2.8387
X5.1861Y-2.8978
X5.1861Y-2.9568
X5.1861Y-3.0159
X5.1861Y-3.0671
X5.1861Y-3.1438
X5.1861Y-3.5966
X5.1861Y-3.6753
X5.1861Y-3.7541
X5.1861Y-3.8328
X5.1861Y-3.9116
X5.1861Y-4.3958
X5.1861Y-4.4746
X5.1861Y-4.5533
X5.1861Y-4.632
X5.1861Y-4.7108
X5.187Y-2.2856
X5.188Y-2.5818
X5.188Y-2.6212
X5.188Y-2.6517
X5.188Y-3.3889
X5.188Y-3.4283
X5.188Y-3.4588
X5.188Y-4.196
X5.188Y-4.2354
X5.188Y-4.2659
X5.188Y-5.0031
X5.188Y-5.0425
X5.188Y-5.073
X5.189Y-2.381
X5.189Y-2.4145
X5.189Y-2.4519
X5.189Y-2.4893
X5.189Y-2.6812
X5.189Y-3.1842
X5.189Y-3.2216
X5.189Y-3.259
X5.189Y-3.2964
X5.189Y-3.4883
X5.189Y-3.9913
X5.189Y-4.0287
X5.189Y-4.0661
X5.189Y-4.1035
X5.189Y-4.2954
X5.189Y-4.7984
X5.189Y-4.8358
X5.189Y-4.8732
X5.189Y-4.9106
X5.189Y-5.1025
X5.1939Y-5.319
X5.2018Y-5.2501
X5.2117Y-3.5572
X5.2117Y-3.636
X5.2117Y-3.7147
X5.2117Y-3.7934
X5.2117Y-3.8722
X5.2117Y-4.4352
X5.2117Y-4.5139
X5.2117Y-4.5927
X5.2117Y-4.6714
X5.2185Y-5.3761
X5.2185Y-5.4549
X5.2185Y-5.5336
X5.2185Y-5.6123
X5.2185Y-5.6911
X5.2185Y-5.7698
X5.2264Y-2.3249
X5.2363Y-5.3072
X5.2363Y-5.3368
X5.2412Y-5.2108
X5.2475Y-2.8269
X5.2475Y-2.9253
X5.2475Y-2.9844
X5.2481Y-2.7151
X5.2481Y-3.5222
X5.2481Y-4.3293
X5.2481Y-5.1364
X5.2491Y-3.0671
X5.2491Y-3.1438
X5.251Y-2.572
X5.251Y-2.6114
X5.251Y-2.6507
X5.251Y-3.3791
X5.251Y-3.4184
X5.251Y-3.4578
X5.251Y-3.5966
X5.251Y-3.6753
X5.251Y-3.7541
X5.251Y-3.8328
X5.251Y-3.9116
X5.251Y-4.1862
X5.251Y-4.2255
X5.251Y-4.2649
X5.251Y-4.3958
X5.251Y-4.4746
X5.251Y-4.5533
X5.251Y-4.632
X5.251Y-4.7108
X5.251Y-4.9933
X5.251Y-5.0326
X5.251Y-5.072
X5.2579Y-5.4942
X5.2579Y-5.573
X5.2619Y-5.8269
X5.2619Y-5.8564
X5.2658Y-2.2856
X5.2658Y-5.3072
X5.2658Y-5.3368
X5.2713Y-2.7246
X5.2713Y-3.5316
X5.2713Y-4.3387
X5.2713Y-5.1458
X5.2806Y-5.2501
X5.2894Y-2.8653
X5.2904Y-2.572
X5.2904Y-2.6114
X5.2904Y-2.6507
X5.2904Y-3.1045
X5.2904Y-3.3791
X5.2904Y-3.4184
X5.2904Y-3.4578
X5.2904Y-3.636
X5.2904Y-3.7147
X5.2904Y-3.7934
X5.2904Y-3.8722
X5.2904Y-4.1862
X5.2904Y-4.2255
X5.2904Y-4.2649
X5.2904Y-4.4352
X5.2904Y-4.5139
X5.2904Y-4.5927
X5.2904Y-4.6714
X5.2904Y-4.7501
X5.2904Y-4.9933
X5.2904Y-5.0326
X5.2904Y-5.072
X5.2953Y-5.3072
X5.2953Y-5.3368
X5.2973Y-5.5336
X5.2973Y-5.6911
X5.2973Y-5.7698
X5.3012Y-5.8269
X5.3012Y-5.8564
X5.3052Y-2.3249
X5.3095Y-2.7246
X5.3095Y-3.5316
X5.3095Y-4.3387
X5.3095Y-5.1458
X5.3219Y-5.6242
X5.3248Y-5.3072
X5.3248Y-5.3368
X5.3288Y-2.8421
X5.3288Y-2.8653
X5.3298Y-2.3919
X5.3298Y-2.4244
X5.3298Y-2.572
X5.3298Y-2.6114
X5.3298Y-2.6507
X5.3298Y-3.0671
X5.3298Y-3.1438
X5.3298Y-3.2068
X5.3298Y-3.2305
X5.3298Y-3.3791
X5.3298Y-3.4184
X5.3298Y-3.4578
X5.3298Y-3.6025
X5.3298Y-3.6753
X5.3298Y-3.7541
X5.3298Y-3.8328
X5.3298Y-3.9234
X5.3298Y-4.006
X5.3298Y-4.0375
X5.3298Y-4.1862
X5.3298Y-4.2255
X5.3298Y-4.2649
X5.3298Y-4.4746
X5.3298Y-4.5533
X5.3298Y-4.632
X5.3298Y-4.7108
X5.3298Y-4.7895
X5.3298Y-4.8171
X5.3298Y-4.8427
X5.3298Y-4.9933
X5.3298Y-5.0326
X5.3298Y-5.072
X5.3308Y-2.9568
X5.3308Y-2.9883
X5.3308Y-3.0208
X5.3367Y-5.7305
X5.3367Y-5.8092
X5.3396Y-2.759
X5.3396Y-3.5661
X5.3396Y-4.3732
X5.3396Y-5.1803
X5.3406Y-5.8564
X5.3445Y-2.2856
X5.3485Y-5.4401
X5.3485Y-5.5789
X5.3485Y-5.6104
X5.3495Y-2.508
X5.3495Y-3.3151
X5.3495Y-4.1222
X5.3495Y-4.9293
X5.353Y-5.5336
X5.3559Y-2.8653
X5.3593Y-5.2501
X5.376Y-5.7698
X5.376Y-2.76
X5.376Y-3.5671
X5.376Y-4.3742
X5.376Y-5.1813
X5.3825Y-2.8653
X5.3839Y-2.3249
X5.3937Y-5.447
X5.3937Y-5.4785
X5.3957Y-2.51
X5.3957Y-3.3171
X5.3957Y-4.1242
X5.3957Y-4.9312
X5.3959Y-2.5994
X5.3959Y-3.4065
X5.3959Y-4.2136
X5.3959Y-5.0207
X5.3967Y-2.622
X5.3967Y-3.4291
X5.3967Y-4.2362
X5.3967Y-5.0433
X5.3996Y-5.8564
X5.4026Y-2.8653
X5.4056Y-2.4529
X5.4056Y-3.26
X5.4056Y-4.0671
X5.4056Y-4.8742
X5.407Y-2.657
X5.407Y-3.4641
X5.407Y-4.2712
X5.407Y-5.0782
X5.4154Y-5.7305
X5.4154Y-5.8092
X5.4154Y-5.4283
X5.4164Y-2.7915
X5.4164Y-3.0277
X5.4164Y-3.1064
X5.4164Y-3.1852
X5.4164Y-3.6025
X5.4164Y-3.6793
X5.4164Y-3.758
X5.4164Y-3.8368
X5.4164Y-3.9155
X5.4164Y-3.9942
X5.4164Y-4.4667
X5.4164Y-4.5454
X5.4164Y-4.6242
X5.4164Y-4.7029
X5.4164Y-4.7816
X5.4184Y-5.5572
X5.4233Y-2.2856
X5.438Y-5.2501
X5.4469Y-5.4785
X5.4469Y-5.51
X5.4469Y-5.447
X5.4479Y-5.6379
X5.4548Y-5.7698
X5.4587Y-5.8564
X5.4626Y-2.3249
X5.4754Y-5.6379
X5.4774Y-2.9096
X5.4774Y-2.9883
X5.4774Y-3.0671
X5.4774Y-3.1458
X5.4774Y-3.2246
X5.4774Y-3.697
X5.4774Y-3.7757
X5.4774Y-3.8545
X5.4774Y-3.9332
X5.4774Y-4.012
X5.4774Y-4.0907
X5.4774Y-4.4057
X5.4774Y-4.4844
X5.4774Y-4.5631
X5.4774Y-4.6419
X5.4774Y-4.7206
X5.4774Y-4.7994
X5.4774Y-4.8781
X5.4774Y-5.1931
X5.4875Y-2.531
X5.4875Y-3.3381
X5.4875Y-3.3853
X5.4875Y-4.1452
X5.4875Y-4.9523
X5.4882Y-2.695
X5.4882Y-3.4549
X5.4882Y-3.5021
X5.4882Y-4.3092
X5.4882Y-5.1163
X5.4914Y-2.5782
X5.4914Y-4.1924
X5.4914Y-4.9995
X5.4922Y-2.6478
X5.4922Y-4.262
X5.4922Y-5.069
X5.4941Y-5.7305
X5.4941Y-5.8092
X5.502Y-2.3643
X5.502Y-2.2856
X5.503Y-5.6379
X5.5059Y-5.5287
X5.5168Y-2.4765
X5.5168Y-2.5553
X5.5168Y-2.7127
X5.5168Y-2.7915
X5.5168Y-2.8702
X5.5168Y-2.949
X5.5168Y-3.0277
X5.5168Y-3.1064
X5.5168Y-3.1852
X5.5168Y-3.2639
X5.5168Y-3.3427
X5.5168Y-3.6576
X5.5168Y-3.7364
X5.5168Y-3.8151
X5.5168Y-3.8938
X5.5168Y-3.9726
X5.5168Y-4.0513
X5.5168Y-4.1301
X5.5168Y-4.2875
X5.5168Y-4.3663
X5.5168Y-4.445
X5.5168Y-4.5238
X5.5168Y-4.6025
X5.5168Y-4.6812
X5.5168Y-4.76
X5.5168Y-4.8387
X5.5168Y-4.9175
X5.5168Y-5.1537
X5.5168Y-5.2501
X5.5168Y-5.4293
X5.5178Y-5.8564
X5.5246Y-3.5001
X5.5306Y-5.6379
X5.5329Y-5.0647
X5.5335Y-5.7698
X5.5335Y-2.6566
X5.5414Y-2.3249
X5.5483Y-4.9568
X5.5522Y-3.382
X5.5522Y-3.5395
X5.5522Y-4.1694
X5.5561Y-2.5159
X5.5561Y-2.7521
X5.5561Y-2.8309
X5.5561Y-2.9096
X5.5561Y-2.9883
X5.5561Y-3.0671
X5.5561Y-3.1458
X5.5561Y-3.2246
X5.5561Y-3.6183
X5.5561Y-3.697
X5.5561Y-3.7757
X5.5561Y-3.8545
X5.5561Y-3.9332
X5.5561Y-4.012
X5.5561Y-4.0907
X5.5561Y-4.3269
X5.5561Y-4.4057
X5.5561Y-4.4844
X5.5561Y-4.5631
X5.5561Y-4.6419
X5.5561Y-4.7206
X5.5561Y-4.7994
X5.5561Y-4.8781
X5.5561Y-5.1143
X5.5561Y-5.1931
X5.5601Y-2.5907
X5.564Y-3.4608
X5.564Y-4.2482
X5.564Y-5.0356
X5.5729Y-5.7305
X5.5729Y-5.8092
X5.5768Y-5.8564
X5.5808Y-2.3643
X5.5808Y-2.2856
X5.5876Y-4.9175
X5.5916Y-3.5001
X5.5916Y-4.1301
X5.5955Y-2.4765
X5.5955Y-2.5553
X5.5955Y-2.7915
X5.5955Y-2.8702
X5.5955Y-2.949
X5.5955Y-3.0277
X5.5955Y-3.1064
X5.5955Y-3.1852
X5.5955Y-3.6576
X5.5955Y-3.7364
X5.5955Y-3.8151
X5.5955Y-4.0513
X5.5955Y-4.2875
X5.5955Y-4.3663
X5.5955Y-4.445
X5.5955Y-4.5238
X5.5955Y-4.6025
X5.5955Y-4.6812
X5.5955Y-4.76
X5.5955Y-4.8387
X5.5955Y-5.0749
X5.5955Y-5.1537
X5.5955Y-5.2501
X5.5955Y-5.4293
X5.6034Y-3.4214
X5.6034Y-4.2088
X5.6034Y-4.9962
X5.6152Y-5.6379
X5.6201Y-2.3249
X5.627Y-4.8781
X5.6309Y-3.4608
X5.6349Y-2.5159
X5.6349Y-2.5946
X5.6349Y-2.8309
X5.6349Y-2.9096
X5.6349Y-2.9883
X5.6349Y-3.0671
X5.6349Y-3.1458
X5.6349Y-4.2482
X5.6349Y-4.3269
X5.6349Y-4.4057
X5.6349Y-4.4844
X5.6349Y-4.5631
X5.6349Y-4.6419
X5.6349Y-4.7206
X5.6349Y-4.7994
X5.6349Y-5.0356
X5.6349Y-5.1143
X5.6349Y-5.1931
X5.6428Y-3.382
X5.6428Y-4.1694
X5.6428Y-4.9568
X5.6428Y-5.6379
X5.6595Y-2.3643
X5.6595Y-2.2856
X5.6664Y-4.8387
X5.6703Y-3.4214
X5.6703Y-5.6379
X5.6743Y-2.4765
X5.6743Y-2.5553
X5.6743Y-2.634
X5.6743Y-2.8702
X5.6743Y-2.949
X5.6743Y-3.0277
X5.6743Y-3.1064
X5.6743Y-3.6576
X5.6743Y-3.7364
X5.6743Y-3.8151
X5.6743Y-4.0513
X5.6743Y-4.1301
X5.6743Y-4.2088
X5.6743Y-4.2875
X5.6743Y-4.3663
X5.6743Y-4.445
X5.6743Y-4.5238
X5.6743Y-4.6025
X5.6743Y-4.6812
X5.6743Y-4.76
X5.6743Y-4.9962
X5.6743Y-5.0749
X5.6743Y-5.1537
X5.6743Y-5.2501
X5.6743Y-5.4293
X5.6821Y-3.3427
X5.6821Y-3.5001
X5.6821Y-4.9175
X5.6979Y-5.6379
X5.6989Y-2.3249
X5.7058Y-4.7994
X5.7097Y-2.8309
X5.7097Y-3.382
X5.7097Y-3.5395
X5.7136Y-2.5159
X5.7136Y-2.5946
X5.7136Y-2.6734
X5.7136Y-2.9096
X5.7136Y-2.9883
X5.7136Y-3.0671
X5.7136Y-3.1458
X5.7136Y-3.6183
X5.7136Y-3.697
X5.7136Y-3.7757
X5.7136Y-3.8545
X5.7136Y-3.9332
X5.7136Y-4.012
X5.7136Y-4.0907
X5.7136Y-4.1694
X5.7136Y-4.2482
X5.7136Y-4.3269
X5.7136Y-4.4057
X5.7136Y-4.4844
X5.7136Y-4.5631
X5.7136Y-4.6419
X5.7136Y-4.7206
X5.7136Y-4.9568
X5.7136Y-5.0356
X5.7136Y-5.1143
X5.7136Y-5.1931
X5.7215Y-3.3033
X5.7215Y-3.4608
X5.7215Y-4.8781
X5.7363Y-5.8564
X5.7382Y-2.3643
X5.7382Y-2.2856
X5.7451Y-4.76
X5.7481Y-5.6517
X5.7491Y-2.8702
X5.7491Y-3.3427
X5.7491Y-3.5001
X5.7491Y-5.5612
X5.7502Y-3.1852
X5.753Y-2.4765
X5.753Y-2.5553
X5.753Y-2.634
X5.753Y-2.7127
X5.753Y-2.949
X5.753Y-3.0277
X5.753Y-3.1064
X5.753Y-3.6576
X5.753Y-3.7364
X5.753Y-3.8151
X5.753Y-3.8938
X5.753Y-3.9726
X5.753Y-4.0513
X5.753Y-4.1301
X5.753Y-4.2088
X5.753Y-4.2875
X5.753Y-4.3663
X5.753Y-4.445
X5.753Y-4.5238
X5.753Y-4.6025
X5.753Y-4.6812
X5.753Y-4.9175
X5.753Y-5.1537
X5.753Y-5.2501
X5.753Y-5.3289
X5.753Y-5.4076
X5.753Y-5.4864
X5.7589Y-5.7344
X5.7589Y-5.7895
X5.7609Y-2.7915
X5.7609Y-3.2639
X5.7609Y-3.4214
X5.7609Y-4.8387
X5.7776Y-2.3249
X5.7884Y-2.9096
X5.7884Y-3.3033
X5.7884Y-3.4608
X5.7884Y-5.5218
X5.7924Y-2.5159
X5.7924Y-2.5946
X5.7924Y-2.6734
X5.7924Y-2.7521
X5.7924Y-2.9883
X5.7924Y-3.0671
X5.7924Y-3.1458
X5.7924Y-4.8781
X5.7924Y-4.949
X5.7924Y-5.1222
X5.7924Y-5.1931
X5.7924Y-5.3683
X5.7924Y-5.447
X5.8002Y-2.8309
X5.8002Y-3.2246
X5.8002Y-3.382
X5.8002Y-4.7994
X5.817Y-2.3643
X5.817Y-2.2856
X5.8278Y-2.949
X5.8278Y-3.2639
X5.8278Y-3.4214
X5.8278Y-5.4824
X5.8278Y-5.6301
X5.8317Y-2.4765
X5.8317Y-2.5553
X5.8317Y-2.634
X5.8317Y-2.7127
X5.8317Y-2.7915
X5.8317Y-3.0277
X5.8317Y-3.1064
X5.8317Y-3.6576
X5.8317Y-3.7364
X5.8317Y-3.8151
X5.8317Y-3.8938
X5.8317Y-3.9726
X5.8317Y-4.0513
X5.8317Y-4.1301
X5.8317Y-4.2088
X5.8317Y-4.2875
X5.8317Y-4.3663
X5.8317Y-4.445
X5.8317Y-4.5238
X5.8317Y-4.6025
X5.8317Y-4.6812
X5.8317Y-4.76
X5.8317Y-4.8387
X5.8317Y-4.9175
X5.8317Y-5.1537
X5.8317Y-5.2501
X5.8317Y-5.3289
X5.8317Y-5.4076
X5.8396Y-2.8702
X5.8396Y-3.3427
X5.8396Y-3.5001
X5.8396Y-5.569
X5.8563Y-2.3249
X5.8573Y-5.1931
X5.8672Y-2.9883
X5.8672Y-3.2246
X5.8672Y-3.382
X5.8672Y-5.4431
X5.8672Y-5.7344
X5.8672Y-5.7895
X5.8691Y-5.6104
X5.8711Y-2.5159
X5.8711Y-2.5946
X5.8711Y-2.6734
X5.8711Y-2.7521
X5.8711Y-2.8309
X5.8711Y-3.0671
X5.8711Y-3.1458
X5.8711Y-3.5395
X5.8711Y-4.9568
X5.8711Y-5.1143
X5.8711Y-5.2895
X5.8711Y-5.3683
X5.8721Y-5.8446
X5.879Y-2.9096
X5.879Y-3.4608
X5.879Y-5.5297
X5.8957Y-2.3643
X5.8957Y-2.2856
X5.8967Y-3.7669
X5.8967Y-3.8062
X5.8967Y-5.1537
X5.9018Y-3.8978
X5.9065Y-3.0277
X5.9065Y-3.8309
X5.9065Y-3.9677
X5.9065Y-5.4037
X5.9085Y-2.7147
X5.9085Y-5.571
X5.9095Y-4.8968
X5.9105Y-2.4765
X5.9105Y-2.5553
X5.9105Y-2.634
X5.9105Y-2.7915
X5.9105Y-2.8702
X5.9105Y-3.1064
X5.9105Y-3.2639
X5.9105Y-3.3427
X5.9105Y-4.9381
X5.9105Y-4.9962
X5.9105Y-5.0749
X5.9105Y-5.2501
X5.9105Y-5.3289
X5.9115Y-4.0218
X5.916Y-4.3368
X5.916Y-4.3663
X5.916Y-4.3958
X5.9164Y-4.6291
X5.9164Y-4.7019
X5.9164Y-4.7275
X5.9184Y-2.949
X5.9184Y-5.4903
X5.9203Y-3.6143
X5.9203Y-3.6399
X5.9223Y-4.0494
X5.9264Y-4.4344
X5.9323Y-3.883
X5.9323Y-3.9125
X5.9351Y-2.3249
X5.9361Y-5.1143
X5.938Y-4.7433
X5.9408Y-2.7068
X5.941Y-4.8653
X5.943Y-3.9677
X5.9452Y-4.5017
X5.9459Y-3.0671
X5.9459Y-3.6143
X5.9459Y-3.6399
X5.9459Y-4.9736
X5.9459Y-5.3643
X5.9459Y-5.6793
X5.9459Y-5.7344
X5.9459Y-5.7895
X5.9479Y-5.5316
X5.9498Y-2.5159
X5.9498Y-2.5946
X5.9498Y-2.7521
X5.9498Y-2.8309
X5.9498Y-2.9096
X5.9498Y-3.1458
X5.9498Y-3.2246
X5.9498Y-3.382
X5.9498Y-3.4608
X5.9498Y-5.0356
X5.9498Y-5.2108
X5.9498Y-5.2895
X5.9518Y-4.0494
X5.9528Y-3.6921
X5.9528Y-3.7157
X5.9577Y-2.9883
X5.9577Y-5.4509
X5.9626Y-3.8978
X5.9636Y-3.5503
X5.9636Y-4.7433
X5.9664Y-2.7068
X5.9666Y-2.4746
X5.9676Y-5.6104
X5.9705Y-5.8564
X5.9745Y-2.3643
X5.9745Y-2.2856
X5.9754Y-5.0749
X5.9813Y-4.0494
X5.9853Y-5.3249
X5.9872Y-4.4332
X5.9872Y-4.4647
X5.9872Y-4.4962
X5.9872Y-5.4923
X5.9892Y-2.5553
X5.9892Y-2.7915
X5.9892Y-2.8702
X5.9892Y-2.949
X5.9892Y-3.1064
X5.9892Y-3.2639
X5.9892Y-3.3427
X5.9892Y-4.006
X5.9892Y-5.1714
X5.9892Y-5.2501
X5.991Y-4.9779
X5.992Y-2.4746
X5.9932Y-5.7895
X5.9933Y-3.883
X5.9933Y-3.9125
X5.9951Y-5.6891
X5.9951Y-5.7344
X5.9971Y-3.0277
X5.9971Y-5.4116
X6.0059Y-4.6891
X6.0061Y-4.762
X6.0061Y-4.856
X6.0069Y-5.571
X6.0099Y-2.7509
X6.0109Y-4.0494
X6.0138Y-2.3249
X6.0148Y-5.0356
X6.0176Y-2.4746
X6.0178Y-2.6242
X6.0185Y-4.8285
X6.0225Y-4.9464
X6.0239Y-3.8978
X6.0246Y-5.2856
X6.0266Y-4.0848
X6.0266Y-5.4529
X6.0268Y-4.199
X6.0286Y-2.5159
X6.0286Y-2.5946
X6.0286Y-2.8309
X6.0286Y-2.9096
X6.0286Y-2.9883
X6.0286Y-3.1458
X6.0286Y-3.2246
X6.0286Y-3.382
X6.0286Y-3.4608
X6.0286Y-5.2108
X6.0315Y-4.3663
X6.0325Y-5.6202
X6.0351Y-4.2265
X6.0365Y-5.3722
X6.0367Y-4.7472
X6.0367Y-4.7767
X6.0424Y-5.1271
X6.0434Y-2.4746
X6.0441Y-4.3368
X6.0441Y-4.3958
X6.0461Y-2.7509
X6.0463Y-5.5316
X6.0473Y-4.8297
X6.0526Y-4.506
X6.0532Y-2.3643
X6.0532Y-2.2856
X6.0561Y-4.3663
X6.0609Y-4.5336
X6.0611Y-3.7029
X6.0611Y-3.7247
X6.0615Y-3.4864
X6.0615Y-3.6143
X6.0615Y-3.6781
X6.0621Y-5.1468
X6.064Y-5.2462
X6.064Y-5.6891
X6.064Y-5.7344
X6.064Y-5.7895
X6.066Y-5.4135
X6.067Y-4.762
X6.068Y-2.7915
X6.068Y-2.8702
X6.068Y-2.949
X6.068Y-3.0277
X6.068Y-3.1064
X6.068Y-3.2639
X6.068Y-3.3427
X6.068Y-5.1714
X6.0689Y-5.8446
X6.0719Y-5.5809
X6.0725Y-2.5851
X6.0758Y-5.3328
X6.0788Y-4.0129
X6.0808Y-3.5503
X6.0808Y-3.6438
X6.0829Y-3.8978
X6.0857Y-5.4923
X6.0926Y-2.3249
X6.0943Y-2.4746
X6.0943Y-2.7068
X6.0977Y-4.7472
X6.0977Y-4.7767
X6.0985Y-4.8968
X6.0985Y-4.9224
X6.1Y-3.4864
X6.1Y-3.6143
X6.1004Y-4.2364
X6.1004Y-4.2679
X6.1004Y-4.2994
X6.1024Y-3.6625
X6.1034Y-5.2068
X6.1036Y-3.7732
X6.1054Y-5.3742
X6.1073Y-2.7521
X6.1073Y-2.8309
X6.1073Y-2.9096
X6.1073Y-2.9883
X6.1073Y-3.1458
X6.1073Y-3.2246
X6.1073Y-3.382
X6.1073Y-3.4608
X6.1113Y-5.5415
X6.1152Y-5.2934
X6.1241Y-4.8968
X6.1241Y-4.9224
X6.125Y-5.4529
X6.127Y-2.4765
X6.127Y-2.5946
X6.127Y-2.6537
X6.127Y-2.7127
X6.1272Y-3.7732
X6.1292Y-4.762
X6.1309Y-5.1123
X6.1319Y-2.3643
X6.1319Y-2.2856
X6.1428Y-5.632
X6.1428Y-5.6891
X6.1428Y-5.7344
X6.1428Y-5.7895
X6.143Y-4.6373
X6.1447Y-5.3348
X6.1467Y-2.7915
X6.1467Y-2.8702
X6.1467Y-2.949
X6.1467Y-3.0277
X6.1467Y-3.1064
X6.1467Y-3.2639
X6.1467Y-3.3427
X6.1469Y-3.8456
X6.1469Y-3.8978
X6.1469Y-3.9559
X6.1487Y-5.1616
X6.1487Y-5.8446
X6.1506Y-5.5021
X6.1546Y-5.2541
X6.155Y-3.7984
X6.155Y-3.822
X6.1619Y-4.2875
X6.1644Y-3.699
X6.1644Y-5.4135
X6.1664Y-2.4529
X6.1668Y-2.7509
X6.1703Y-5.5809
X6.1713Y-2.3249
X6.1717Y-4.3368
X6.1717Y-4.3663
X6.1717Y-4.3958
X6.1723Y-4.069
X6.1725Y-4.6373
X6.1841Y-5.2954
X6.1861Y-2.5976
X6.1861Y-2.8309
X6.1861Y-2.9096
X6.1861Y-2.9883
X6.1861Y-3.1458
X6.1861Y-3.2246
X6.1861Y-3.382
X6.1861Y-3.4608
X6.1872Y-4.762
X6.188Y-5.1222
X6.189Y-3.7462
X6.19Y-5.0631
X6.19Y-5.4627
X6.191Y-4.8801
X6.1998Y-5.2088
X6.2001Y-5.0019
X6.2018Y-5.632
X6.202Y-4.6373
X6.203Y-2.7509
X6.2038Y-5.3742
X6.2058Y-2.6232
X6.2067Y-3.5198
X6.2067Y-3.5454
X6.2097Y-5.5415
X6.2107Y-2.3643
X6.2107Y-2.2856
X6.217Y-3.6149
X6.2176Y-3.6409
X6.2176Y-3.7513
X6.218Y-3.6669
X6.218Y-3.7773
X6.2182Y-4.0698
X6.2185Y-3.8033
X6.2215Y-5.7344
X6.2215Y-5.7895
X6.2245Y-4.1999
X6.2254Y-2.7059
X6.2254Y-2.7915
X6.2254Y-2.8702
X6.2254Y-2.949
X6.2254Y-3.0277
X6.2254Y-3.1064
X6.2254Y-3.2639
X6.226Y-4.2222
X6.2264Y-5.8446
X6.2288Y-5.0019
X6.2294Y-5.4234
X6.2315Y-4.6373
X6.2323Y-3.5198
X6.2323Y-3.5454
X6.2323Y-5.2482
X6.2372Y-3.3427
X6.2392Y-5.1694
X6.2402Y-5.3377
X6.2412Y-5.5927
X6.2451Y-2.5749
X6.2473Y-4.7098
X6.2473Y-4.762
X6.2473Y-4.8141
X6.2491Y-5.5021
X6.2498Y-5.0019
X6.25Y-2.3249
X6.2648Y-2.7521
X6.2648Y-2.8309
X6.2648Y-2.9096
X6.2648Y-2.9883
X6.2648Y-3.1458
X6.2648Y-3.2246
X6.2648Y-3.4608
X6.2687Y-5.2108
X6.2687Y-5.384
X6.2707Y-5.1694
X6.2712Y-5.1473
X6.2734Y-3.942
X6.2766Y-3.382
X6.2786Y-4.5779
X6.2786Y-5.0019
X6.2806Y-5.5533
X6.2845Y-2.5051
X6.2845Y-2.6114
X6.286Y-5.1325
X6.2863Y-3.9586
X6.2884Y-5.2974
X6.2884Y-5.4627
X6.2894Y-2.3643
X6.2894Y-2.2856
X6.2928Y-5.1117
X6.2963Y-3.3427
X6.3002Y-5.632
X6.3002Y-5.7344
X6.3002Y-5.7895
X6.3042Y-2.4765
X6.3042Y-2.5553
X6.3042Y-2.634
X6.3042Y-2.7915
X6.3042Y-2.8702
X6.3042Y-2.949
X6.3042Y-3.0277
X6.3042Y-3.1064
X6.3042Y-3.2639
X6.3042Y-3.5887
X6.3061Y-5.8446
X6.3074Y-3.9586
X6.3076Y-5.0019
X6.315Y-4.5257
X6.316Y-3.4214
X6.3199Y-5.3348
X6.3199Y-5.5139
X6.3211Y-3.942
X6.3219Y-4.1232
X6.3219Y-4.2283
X6.3239Y-5.6842
X6.3278Y-5.4234
X6.3286Y-5.0019
X6.3288Y-2.3249
X6.334Y-3.9586
X6.3357Y-3.3811
X6.3368Y-5.2283
X6.3376Y-4.821
X6.3376Y-4.8476
X6.3386Y-4.9106
X6.3396Y-3.2246
X6.3396Y-5.5927
X6.3432Y-5.1681
X6.3435Y-2.6734
X6.3435Y-2.7521
X6.3435Y-2.8309
X6.3435Y-2.9096
X6.3435Y-2.9883
X6.3435Y-3.1458
X6.3452Y-3.6704
X6.3452Y-3.7492
X6.3452Y-3.8279
X6.3499Y-5.1473
X6.3514Y-3.3033
X6.3551Y-3.9586
X6.3554Y-3.4608
X6.3573Y-5.0019
X6.3583Y-5.2964
X6.3593Y-5.4746
X6.3611Y-2.5104
X6.363Y-2.3818
X6.3632Y-5.6448
X6.3648Y-5.1325
X6.3672Y-4.5474
X6.3682Y-2.2856
X6.3688Y-3.942
X6.3691Y-4.1738
X6.3715Y-5.1117
X6.375Y-3.1064
X6.375Y-3.5887
X6.379Y-3.2639
X6.379Y-5.5533
X6.379Y-5.7344
X6.379Y-5.7895
X6.38Y-5.3958
X6.3817Y-3.9586
X6.3829Y-2.7127
X6.3829Y-2.7915
X6.3829Y-2.8702
X6.3829Y-2.949
X6.3829Y-3.0277
X6.3839Y-5.8446
X6.3846Y-3.7098
X6.3846Y-3.7885
X6.3863Y-5.0019
X6.3908Y-3.1852
X6.3908Y-3.3427
X6.3948Y-4.8644
X6.3973Y-2.5621
X6.3993Y-2.3818
X6.4026Y-5.6055
X6.4028Y-3.9586
X6.4073Y-5.0019
X6.4075Y-2.3249
X6.4095Y-5.4253
X6.4144Y-3.1458
X6.4164Y-4.1232
X6.4164Y-4.2283
X6.4165Y-3.942
X6.4166Y-2.5312
X6.4184Y-3.3033
X6.4184Y-5.5139
X6.4203Y-5.2334
X6.4219Y-5.1681
X6.4223Y-2.4371
X6.4223Y-2.7521
X6.4223Y-2.8309
X6.4223Y-2.9096
X6.4223Y-2.9883
X6.424Y-3.6704
X6.424Y-3.7492
X6.424Y-3.8279
X6.4252Y-5.3259
X6.4262Y-3.0671
X6.4286Y-5.1473
X6.4302Y-3.2246
X6.4341Y-3.382
X6.4341Y-3.4608
X6.4341Y-3.5887
X6.4359Y-2.499
X6.4359Y-2.5621
X6.4361Y-5.0019
X6.4435Y-5.1325
X6.4457Y-4.382
X6.4459Y-4.5434
X6.4469Y-2.3643
X6.4469Y-2.2856
X6.4469Y-5.5621
X6.4475Y-4.6987
X6.4475Y-4.6672
X6.4476Y-4.7316
X6.4476Y-4.3221
X6.4476Y-4.8261
X6.4476Y-4.8576
X6.4502Y-5.1117
X6.4538Y-3.1852
X6.4577Y-5.6793
X6.4577Y-5.7344
X6.4577Y-5.7895
X6.4617Y-2.3978
X6.4617Y-2.7127
X6.4617Y-2.7915
X6.4617Y-2.8702
X6.4617Y-2.949
X6.4617Y-3.0277
X6.4634Y-3.7098
X6.4634Y-3.7885
X6.4636Y-5.8446
X6.4651Y-5.0019
X6.4656Y-3.1064
X6.4695Y-3.2639
X6.4697Y-2.4356
X6.4775Y-4.8249
X6.4779Y-4.7934
X6.478Y-4.4797
X6.4784Y-4.5425
X6.4784Y-4.762
X6.4784Y-5.6291
X6.479Y-4.6672
X6.479Y-4.6987
X6.4796Y-4.7305
X6.4823Y-5.8102
X6.4861Y-5.0019
X6.4863Y-2.3249
X6.4871Y-4.0576
X6.4932Y-3.2246
X6.4932Y-3.5887
X6.4951Y-4.1232
X6.4951Y-4.2797
X6.4951Y-4.3171
X6.4991Y-5.2334
X6.5006Y-5.1681
X6.501Y-2.4371
X6.501Y-2.5159
X6.501Y-2.5946
X6.501Y-2.7521
X6.501Y-2.8309
X6.501Y-2.9096
X6.501Y-2.9883
X6.501Y-3.0671
X6.5027Y-3.6704
X6.5027Y-3.8279
X6.504Y-5.8505
X6.505Y-3.1458
X6.5069Y-3.3033
X6.5069Y-3.382
X6.5069Y-3.4608
X6.5074Y-5.1473
X6.5079Y-4.383
X6.5089Y-5.4135
X6.5091Y-4.4789
X6.5099Y-4.4155
X6.5099Y-4.447
X6.5099Y-4.5419
X6.5099Y-4.6675
X6.5099Y-4.7623
X6.5099Y-5.3249
X6.5103Y-4.7938
X6.5105Y-4.8562
X6.5111Y-4.6076
X6.5119Y-4.8871
X6.5148Y-5.0019
X6.5168Y-4.1261
X6.5178Y-5.5897
X6.5187Y-3.7541
X6.5222Y-5.1325
X6.5256Y-2.3643
X6.5256Y-2.2856
X6.5256Y-5.632
X6.5256Y-5.7108
X6.5256Y-5.7895
X6.529Y-5.1117
X6.5398Y-4.384
X6.5402Y-4.8246
X6.5402Y-4.6387
X6.5404Y-2.5553
X6.5404Y-2.634
X6.5404Y-2.7915
X6.5404Y-2.8702
X6.5404Y-2.949
X6.5404Y-3.0277
X6.5404Y-3.1064
X6.5406Y-4.6074
X6.5407Y-4.7305
X6.5409Y-4.7934
X6.541Y-4.5738
X6.5414Y-4.4155
X6.5414Y-4.447
X6.5414Y-4.4789
X6.5414Y-4.5405
X6.5414Y-4.6675
X6.5414Y-4.762
X6.542Y-4.6987
X6.5421Y-4.3525
X6.5438Y-5.0019
X6.5443Y-3.1852
X6.5443Y-4.261
X6.5461Y-2.3818
X6.5552Y-3.5946
X6.5648Y-5.0019
X6.565Y-2.3249
X6.5717Y-4.8248
X6.5721Y-4.6041
X6.5722Y-4.7934
X6.5725Y-4.4785
X6.5729Y-4.383
X6.5729Y-4.447
X6.5729Y-4.51
X6.5729Y-4.5413
X6.5729Y-4.6364
X6.5731Y-4.571
X6.5733Y-4.6679
X6.5734Y-4.6994
X6.5735Y-4.7623
X6.5735Y-4.8562
X6.5735Y-4.7309
X6.5748Y-4.8871
X6.5794Y-5.1681
X6.5798Y-2.5159
X6.5798Y-2.5946
X6.5798Y-2.7521
X6.5798Y-2.8309
X6.5798Y-2.9096
X6.5798Y-2.9883
X6.5798Y-3.0671
X6.5798Y-3.1458
X6.5798Y-3.2246
X6.5798Y-3.3033
X6.5798Y-3.382
X6.5798Y-3.4608
X6.5808Y-3.5946
X6.5823Y-2.3818
X6.5847Y-3.699
X6.5847Y-3.7216
X6.5849Y-3.7616
X6.5861Y-5.1473
X6.5863Y-4.0253
X6.5935Y-5.0019
X6.5935Y-5.4234
X6.594Y-3.837
X6.594Y-3.8581
X6.5975Y-5.2482
X6.601Y-5.1325
X6.6014Y-5.3309
X6.6022Y-5.5336
X6.6024Y-3.5307
X6.6025Y-4.0406
X6.6031Y-4.4157
X6.6036Y-4.4785
X6.6039Y-4.7934
X6.604Y-4.8249
X6.6041Y-4.5424
X6.6044Y-2.3643
X6.6044Y-2.2856
X6.6044Y-4.4474
X6.6044Y-4.5112
X6.6044Y-4.5738
X6.6044Y-4.6055
X6.605Y-4.762
X6.6052Y-4.6672
X6.6077Y-5.1117
X6.6126Y-3.8681
X6.6162Y-3.837
X6.6191Y-2.5553
X6.6191Y-2.7915
X6.6191Y-2.8702
X6.6191Y-2.949
X6.6191Y-3.0277
X6.6191Y-3.1064
X6.6191Y-3.1852
X6.6191Y-3.2639
X6.6191Y-3.3427
X6.6191Y-3.4214
X6.6225Y-5.0013
X6.628Y-3.5307
X6.6312Y-3.8584
X6.6325Y-2.4265
X6.6329Y-2.6409
X6.6331Y-4.8234
X6.6339Y-5.4738
X6.6351Y-4.7933
X6.6359Y-4.4155
X6.6359Y-4.4474
X6.6359Y-4.4789
X6.6359Y-4.5104
X6.6359Y-4.574
X6.6359Y-4.6055
X6.6359Y-4.6986
X6.6365Y-4.7617
X6.6365Y-4.8562
X6.6367Y-4.6675
X6.6378Y-4.8871
X6.6408Y-5.3761
X6.6435Y-5.0013
X6.6437Y-2.3249
X6.6475Y-2.7683
X6.6516Y-4.3171
X6.6523Y-3.8584
X6.6565Y-5.2816
X6.6585Y-2.4371
X6.6585Y-2.5159
X6.6585Y-2.5946
X6.6585Y-2.8309
X6.6585Y-2.9096
X6.6585Y-2.9883
X6.6585Y-3.0671
X6.6585Y-3.1458
X6.6585Y-3.2246
X6.6585Y-3.3033
X6.6585Y-3.382
X6.6585Y-3.4608
X6.6595Y-3.5307
X6.6654Y-5.132
X6.6654Y-5.1834
X6.6667Y-4.5112
X6.6669Y-4.7931
X6.6669Y-4.8243
X6.6674Y-4.416
X6.6674Y-4.447
X6.6674Y-4.4789
X6.6674Y-4.6055
X6.6674Y-4.637
X6.6678Y-4.6683
X6.6679Y-4.3845
X6.668Y-4.7617
X6.6703Y-3.7954
X6.6723Y-3.6123
X6.6733Y-3.7285
X6.6742Y-3.8584
X6.6804Y-4.9743
X6.6831Y-2.3643
X6.6831Y-2.2856
X6.6837Y-2.7683
X6.6841Y-5.4234
X6.6851Y-3.5307
X6.6973Y-5.0013
X6.6979Y-2.5553
X6.6979Y-2.634
X6.6979Y-2.7915
X6.6979Y-2.8702
X6.6979Y-2.949
X6.6979Y-3.0277
X6.6979Y-3.1064
X6.6979Y-3.1852
X6.6979Y-3.2639
X6.6979Y-3.3427
X6.6979Y-3.4214
X6.6979Y-5.4726
X6.6982Y-4.7947
X6.6989Y-4.6684
X6.6989Y-4.51
X6.6989Y-4.5425
X6.699Y-4.6049
X6.6992Y-4.6365
X6.6994Y-4.7309
X6.6998Y-4.7623
X6.7008Y-4.823
X6.7018Y-3.8102
X6.7018Y-3.8466
X6.7018Y-3.8751
X6.7038Y-3.7826
X6.7146Y-3.6589
X6.7146Y-3.68
X6.7183Y-5.0013
X6.7225Y-2.3249
X6.7225Y-3.635
X6.7235Y-3.7059
X6.7292Y-4.3852
X6.7292Y-4.4194
X6.7294Y-3.8751
X6.7297Y-4.8262
X6.7297Y-4.8577
X6.73Y-4.3517
X6.7302Y-4.5425
X6.7304Y-4.4785
X6.7304Y-4.6055
X6.7304Y-4.6675
X6.7304Y-4.699
X6.7309Y-4.7933
X6.7372Y-2.4371
X6.7372Y-2.5159
X6.7372Y-2.5946
X6.7372Y-2.6734
X6.7372Y-2.7521
X6.7372Y-2.8309
X6.7372Y-2.9096
X6.7372Y-2.9883
X6.7372Y-3.0671
X6.7372Y-3.1458
X6.7372Y-3.2246
X6.7372Y-3.3033
X6.7372Y-3.382
X6.7372Y-3.4608
X6.7441Y-5.132
X6.7441Y-5.1852
X6.7471Y-5.0013
X6.7471Y-5.4234
X6.7493Y-3.9696
X6.7493Y-4.0169
X6.7493Y-4.0641
X6.7493Y-4.1114
X6.7493Y-4.1586
X6.752Y-3.6912
X6.752Y-3.7186
X6.752Y-3.7482
X6.752Y-4.2059
X6.7544Y-3.5808
X6.7544Y-3.6399
X6.755Y-3.5346
X6.7569Y-3.8751
X6.7609Y-5.256
X6.7611Y-4.4174
X6.7612Y-4.3852
X6.7619Y-2.3643
X6.7619Y-2.2856
X6.7619Y-4.4785
X6.7619Y-4.5425
X6.7619Y-4.6055
X6.7619Y-4.6684
X6.7634Y-4.3114
X6.7668Y-5.4726
X6.7693Y-3.4834
X6.7697Y-4.2856
X6.7718Y-5.0013
X6.7766Y-2.4765
X6.7766Y-2.634
X6.7766Y-2.7127
X6.7766Y-2.7915
X6.7766Y-2.8702
X6.7766Y-2.949
X6.7766Y-3.0277
X6.7766Y-3.1064
X6.7766Y-3.1852
X6.7766Y-3.2639
X6.7766Y-3.3427
X6.7766Y-3.4214
X6.7806Y-2.5474
X6.7806Y-2.573
X6.7824Y-4.3026
X6.7845Y-3.8751
X6.7926Y-4.7309
X6.7927Y-4.3852
X6.7927Y-4.4167
X6.7928Y-5.0013
X6.793Y-4.8572
X6.7934Y-4.8253
X6.7934Y-4.4785
X6.7934Y-4.51
X6.7934Y-4.5425
X6.7934Y-4.6045
X6.7934Y-4.6684
X6.7936Y-4.7943
X6.7938Y-4.6365
X6.8012Y-2.3249
X6.8036Y-2.7058
X6.8036Y-2.7324
X6.8052Y-3.4834
X6.8148Y-4.3033
X6.815Y-3.8919
X6.815Y-5.4234
X6.815Y-5.4726
X6.816Y-2.8309
X6.816Y-2.9096
X6.816Y-2.9883
X6.816Y-3.0671
X6.816Y-3.1458
X6.816Y-3.2246
X6.816Y-3.3033
X6.816Y-3.382
X6.816Y-3.4608
X6.8189Y-5.132
X6.8189Y-5.1852
X6.8215Y-5.0013
X6.8239Y-4.3222
X6.8242Y-4.3537
X6.8242Y-4.3852
X6.8242Y-4.4167
X6.8242Y-4.4482
X6.8248Y-4.5425
X6.8248Y-4.6684
X6.8248Y-4.7309
X6.8268Y-4.2059
X6.8298Y-2.7324
X6.8347Y-4.2934
X6.8371Y-2.4519
X6.8406Y-2.3643
X6.8406Y-2.2856
X6.8466Y-5.0013
X6.8468Y-3.6222
X6.8468Y-3.7088
X6.8468Y-3.7954
X6.8554Y-2.8702
X6.8554Y-2.949
X6.8554Y-3.0277
X6.8554Y-3.1064
X6.8554Y-3.1852
X6.8554Y-3.2639
X6.8554Y-3.3427
X6.8554Y-3.4214
X6.8557Y-4.3537
X6.8557Y-4.3852
X6.8557Y-4.4167
X6.8557Y-4.4482
X6.8559Y-4.6365
X6.8559Y-4.4789
X6.8561Y-4.2992
X6.8563Y-4.5108
X6.8563Y-4.5425
X6.8567Y-4.5726
X6.8567Y-4.7312
X6.857Y-4.6679
X6.8571Y-4.606
X6.8642Y-3.5257
X6.8642Y-3.8909
X6.8652Y-2.7324
X6.8652Y-4.2049
X6.8676Y-5.0013
X6.88Y-2.3249
X6.8867Y-2.5301
X6.8871Y-4.4793
X6.8872Y-4.3537
X6.8872Y-4.3852
X6.8872Y-4.4167
X6.8872Y-4.4482
X6.8874Y-4.8564
X6.8878Y-4.7309
X6.8878Y-4.7623
X6.8878Y-4.8253
X6.8882Y-4.5419
X6.8882Y-4.7936
X6.8885Y-4.5731
X6.8888Y-4.6347
X6.8894Y-4.6675
X6.8901Y-3.6655
X6.8901Y-3.7521
X6.8947Y-2.3978
X6.8947Y-2.8309
X6.8947Y-2.9096
X6.8947Y-2.9883
X6.8947Y-3.0671
X6.8947Y-3.1458
X6.8947Y-3.2246
X6.8947Y-3.3033
X6.8947Y-3.382
X6.8947Y-3.4608
X6.8957Y-4.2915
X6.8963Y-5.0013
X6.8989Y-2.5553
X6.8989Y-2.5789
X6.8989Y-2.6025
X6.8989Y-2.7222
X6.9075Y-2.6281
X6.9075Y-2.6871
X6.9095Y-3.0858
X6.9095Y-3.1251
X6.9095Y-3.1645
X6.9095Y-3.2049
X6.9095Y-3.2442
X6.9095Y-3.2836
X6.9095Y-3.323
X6.9134Y-3.5277
X6.9187Y-4.3537
X6.9187Y-4.3852
X6.9187Y-4.4167
X6.9187Y-4.4797
X6.9189Y-2.4519
X6.9189Y-4.8887
X6.9193Y-2.3643
X6.9193Y-2.2856
X6.9193Y-4.448
X6.9197Y-3.9696
X6.9197Y-4.0169
X6.9197Y-4.0641
X6.9197Y-4.1114
X6.9197Y-4.1586
X6.9197Y-4.5425
X6.9197Y-4.5738
X6.9197Y-4.7307
X6.9201Y-4.6377
X6.9233Y-3.8909
X6.9252Y-5.1202
X6.9321Y-5.0011
X6.9334Y-3.6222
X6.9334Y-3.7088
X6.9334Y-3.7954
X6.9341Y-2.7915
X6.9341Y-2.8702
X6.9341Y-2.949
X6.9341Y-3.0277
X6.9341Y-3.4214
X6.9351Y-3.1064
X6.9351Y-3.1852
X6.9351Y-3.2639
X6.9351Y-3.3427
X6.9434Y-2.5001
X6.947Y-5.1202
X6.9479Y-5.4224
X6.95Y-4.3852
X6.9502Y-4.3529
X6.9502Y-4.4793
X6.9504Y-4.6683
X6.9504Y-4.5109
X6.9508Y-4.7309
X6.9512Y-4.5423
X6.9516Y-4.6368
X6.9524Y-4.3202
X6.9527Y-4.5734
X6.9587Y-2.3249
X6.968Y-5.1202
X6.9705Y-3.5238
X6.9725Y-3.8909
X6.9735Y-2.3978
X6.9735Y-2.8309
X6.9735Y-2.9096
X6.9735Y-2.9883
X6.9735Y-3.0671
X6.9735Y-3.1458
X6.9735Y-3.2246
X6.9735Y-3.3033
X6.9735Y-3.382
X6.9764Y-4.2059
X6.9767Y-3.6655
X6.9767Y-3.7521
X6.9813Y-5.3763
X6.9815Y-4.3852
X6.9815Y-4.4781
X6.9816Y-4.4468
X6.9817Y-4.3529
X6.9819Y-4.7942
X6.9823Y-4.8253
X6.9823Y-4.8568
X6.9823Y-4.3198
X6.9823Y-4.5112
X6.9826Y-4.6684
X6.9826Y-4.7313
X6.9831Y-4.5427
X6.986Y-4.5753
X6.9899Y-5.1202
X6.9961Y-2.6005
X6.9981Y-2.3643
X6.9981Y-2.2856
X7.001Y-3.5247
X7.0069Y-5.4224
X7.0109Y-4.3857
X7.0109Y-4.445
X7.0119Y-3.8909
X7.0128Y-2.5553
X7.0128Y-2.634
X7.0128Y-2.7127
X7.0128Y-2.7915
X7.0128Y-2.8702
X7.0128Y-2.949
X7.0128Y-3.0277
X7.0128Y-3.1064
X7.0128Y-3.1852
X7.0128Y-3.2639
X7.0128Y-3.3427
X7.0128Y-3.4214
X7.0138Y-4.2059
X7.0138Y-4.5112
X7.0146Y-4.4781
X7.0146Y-4.5438
X7.0168Y-5.0848
X7.02Y-3.6222
X7.02Y-3.7088
X7.02Y-3.7954
X7.023Y-3.525
X7.0286Y-5.2639
X7.0325Y-4.2846
X7.0362Y-4.511
X7.0374Y-2.3249
X7.0404Y-5.3763
X7.0437Y-5.1201
X7.0453Y-3.5253
X7.0463Y-5.2206
X7.0489Y-5.0494
X7.0522Y-2.3978
X7.0522Y-2.5159
X7.0522Y-2.8309
X7.0522Y-2.9096
X7.0522Y-2.9883
X7.0522Y-3.0671
X7.0522Y-3.1458
X7.0522Y-3.2246
X7.0522Y-3.3033
X7.0522Y-3.382
X7.0567Y-4.3631
X7.0611Y-3.8909
X7.0655Y-5.1201
X7.066Y-5.4224
X7.0671Y-4.3448
X7.0689Y-3.5247
X7.0719Y-2.6261
X7.0719Y-2.6783
X7.0719Y-2.7305
X7.0758Y-5.0848
X7.0768Y-2.3643
X7.0768Y-2.2856
X7.0837Y-4.2056
X7.0865Y-5.1201
X7.0867Y-4.3373
X7.0867Y-4.3629
X7.0876Y-2.8029
X7.0902Y-3.9696
X7.0902Y-4.0169
X7.0902Y-4.0641
X7.0902Y-4.1114
X7.0902Y-4.1586
X7.0916Y-2.8702
X7.0916Y-2.949
X7.0916Y-3.0277
X7.0916Y-3.1064
X7.0916Y-3.1852
X7.0916Y-3.2639
X7.0916Y-3.3427
X7.0916Y-3.4214
X7.0916Y-5.3112
X7.0935Y-4.7314
X7.0941Y-4.5725
X7.0941Y-4.6021
X7.0941Y-4.6316
X7.0941Y-4.6611
X7.0995Y-5.3763
X7.1024Y-4.3156
X7.1046Y-4.6921
X7.108Y-5.0494
X7.1084Y-5.1201
X7.1122Y-4.7511
X7.1152Y-3.7974
X7.1162Y-2.3249
X7.1162Y-3.6793
X7.1162Y-3.7186
X7.1172Y-2.8029
X7.1182Y-4.2059
X7.1201Y-4.4736
X7.125Y-5.4224
X7.126Y-2.556
X7.128Y-4.3156
X7.1309Y-2.3978
X7.1309Y-2.8309
X7.1309Y-2.9096
X7.1309Y-2.9883
X7.1309Y-3.0671
X7.1309Y-3.1458
X7.1309Y-3.2246
X7.1309Y-3.3033
X7.1309Y-3.4608
X7.1309Y-5.2718
X7.1319Y-2.6783
X7.1319Y-4.9194
X7.1349Y-5.0848
X7.1437Y-4.4736
X7.1467Y-2.8029
X7.1556Y-2.3643
X7.1556Y-2.2856
X7.1585Y-3.6724
X7.1585Y-5.3763
X7.1618Y-5.1202
X7.1644Y-5.2206
X7.1654Y-4.6999
X7.1654Y-4.7314
X7.1654Y-4.7629
X7.1654Y-4.9765
X7.167Y-5.0494
X7.1703Y-2.8702
X7.1703Y-2.949
X7.1703Y-3.2639
X7.1703Y-3.5001
X7.1713Y-4.4623
X7.1762Y-2.8029
X7.1772Y-3.6547
X7.1831Y-4.2934
X7.1836Y-5.1202
X7.1841Y-4.2059
X7.1841Y-5.4224
X7.1861Y-5.3072
X7.189Y-4.9529
X7.191Y-2.6783
X7.1939Y-5.0848
X7.1949Y-2.3249
X7.1979Y-3.757
X7.1989Y-2.5309
X7.1989Y-3.7186
X7.2028Y-3.5838
X7.204Y-4.4623
X7.2046Y-5.1202
X7.2048Y-3.8171
X7.2058Y-4.2934
X7.2097Y-2.3978
X7.2097Y-2.9096
X7.2097Y-2.9883
X7.2097Y-3.3033
X7.2097Y-3.4608
X7.2097Y-3.5395
X7.2097Y-4.6316
X7.2122Y-4.4899
X7.2126Y-4.9765
X7.2215Y-2.6635
X7.2215Y-2.6931
X7.2225Y-4.6021
X7.2225Y-4.6611
X7.2254Y-5.2679
X7.2261Y-5.0494
X7.2265Y-5.1202
X7.2308Y-4.7728
X7.2343Y-2.3643
X7.2343Y-2.2856
X7.2353Y-4.6316
X7.2363Y-4.9529
X7.239Y-4.8003
X7.2432Y-5.4224
X7.2491Y-2.8702
X7.2491Y-2.949
X7.2491Y-3.2639
X7.2491Y-3.3427
X7.2491Y-3.4214
X7.2491Y-3.5001
X7.25Y-4.3368
X7.2522Y-2.6783
X7.253Y-5.0848
X7.2569Y-3.874
X7.2599Y-4.9765
X7.2609Y-3.7108
X7.2611Y-3.9696
X7.2611Y-4.0169
X7.2611Y-4.0641
X7.2611Y-4.1114
X7.2611Y-4.1586
X7.2648Y-3.6419
X7.2707Y-4.7944
X7.2717Y-2.6074
X7.2737Y-2.3249
X7.2766Y-3.5277
X7.2776Y-3.8289
X7.2786Y-3.7738
X7.2796Y-4.4977
X7.2796Y-4.5312
X7.2796Y-4.5647
X7.2799Y-5.1202
X7.2825Y-2.6635
X7.2825Y-2.6931
X7.2825Y-5.2206
X7.2825Y-5.383
X7.2835Y-4.9529
X7.2837Y-2.8358
X7.2851Y-5.0494
X7.2884Y-2.3978
X7.2884Y-2.9096
X7.2884Y-2.9883
X7.2884Y-3.3033
X7.2884Y-3.382
X7.2884Y-3.4608
X7.2914Y-2.745
X7.2983Y-4.339
X7.3017Y-5.1202
X7.3061Y-3.8299
X7.3071Y-4.9765
X7.3121Y-5.0848
X7.313Y-2.3643
X7.313Y-2.2856
X7.313Y-2.6783
X7.313Y-2.7708
X7.313Y-2.8102
X7.315Y-2.5838
X7.316Y-3.4883
X7.3219Y-5.3436
X7.3219Y-5.4224
X7.3227Y-5.1202
X7.3278Y-2.634
X7.3278Y-2.8702
X7.3278Y-2.949
X7.3278Y-3.2639
X7.3278Y-3.3427
X7.3278Y-3.4214
X7.3288Y-4.5651
X7.3308Y-4.9529
X7.3386Y-4.0651
X7.3442Y-5.0494
X7.3446Y-5.1202
X7.3508Y-4.6021
X7.3508Y-4.6316
X7.3508Y-4.6611
X7.3593Y-3.6104
X7.3613Y-5.3043
X7.3613Y-5.383
X7.3672Y-2.5946
X7.3672Y-2.6734
X7.3672Y-2.8309
X7.3672Y-2.9096
X7.3672Y-2.9883
X7.3672Y-3.2246
X7.3672Y-3.3033
X7.3672Y-3.382
X7.3672Y-3.4608
X7.3711Y-5.0848
X7.378Y-4.028
X7.378Y-4.053
X7.378Y-4.0752
X7.378Y-4.1003
X7.38Y-4.824
X7.3918Y-2.2856
X7.3928Y-2.696
X7.3928Y-2.7196
X7.3928Y-2.7433
X7.3957Y-3.9234
X7.3967Y-4.697
X7.3968Y-4.0169
X7.3968Y-4.0641
X7.3968Y-4.1113
X7.398Y-5.1201
X7.3987Y-3.571
X7.4006Y-5.2206
X7.4006Y-5.2649
X7.4006Y-5.3436
X7.4026Y-3.6537
X7.4033Y-5.0494
X7.4065Y-2.8702
X7.4065Y-2.949
X7.4065Y-3.0277
X7.4065Y-3.1064
X7.4065Y-3.1852
X7.4065Y-3.2639
X7.4065Y-3.5001
X7.4065Y-3.7364
X7.4065Y-5.011
X7.4075Y-2.4942
X7.4124Y-5.4184
X7.4125Y-4.6583
X7.4154Y-3.9809
X7.4154Y-4.0059
X7.4154Y-4.1224
X7.4154Y-4.1475
X7.4164Y-2.696
X7.4174Y-4.4962
X7.4184Y-4.3338
X7.4195Y-5.1202
X7.4252Y-4.6084
X7.4262Y-4.7994
X7.4262Y-4.8486
X7.4262Y-4.8978
X7.4321Y-3.884
X7.4342Y-3.9698
X7.4342Y-4.017
X7.4342Y-4.1114
X7.4342Y-4.1586
X7.4344Y-4.6583
X7.44Y-5.2255
X7.44Y-5.3043
X7.4405Y-5.1202
X7.442Y-3.6143
X7.4459Y-2.9096
X7.4459Y-2.9883
X7.4459Y-3.0671
X7.4459Y-3.1458
X7.4459Y-3.2246
X7.4459Y-3.3033
X7.4459Y-3.5395
X7.4459Y-3.697
X7.4459Y-3.7757
X7.4518Y-5.3791
X7.4528Y-3.9336
X7.4528Y-3.9587
X7.4528Y-4.1697
X7.4528Y-4.1948
X7.4555Y-4.6583
X7.4597Y-5.4224
X7.4626Y-2.821
X7.4627Y-5.1201
X7.4666Y-4.5838
X7.4676Y-2.5533
X7.4705Y-2.2856
X7.4715Y-4.8084
X7.4716Y-3.9225
X7.4716Y-3.9698
X7.4716Y-4.1586
X7.4716Y-4.2058
X7.4745Y-4.4962
X7.4756Y-4.0641
X7.4772Y-4.6583
X7.4794Y-5.2649
X7.4813Y-3.5749
X7.4813Y-3.823
X7.4853Y-3.0277
X7.4853Y-3.1064
X7.4853Y-3.1852
X7.4853Y-3.2639
X7.4853Y-3.5001
X7.4853Y-3.6576
X7.4853Y-3.7364
X7.4855Y-4.7916
X7.4912Y-5.3397
X7.4991Y-5.383
X7.5067Y-4.7916
X7.5187Y-5.2255
X7.5187Y-5.4224
X7.5207Y-4.8084
X7.5207Y-3.5356
X7.5217Y-4.1862
X7.5227Y-2.6251
X7.5227Y-2.6566
X7.5227Y-2.6881
X7.5246Y-2.9883
X7.5246Y-3.0671
X7.5246Y-3.1458
X7.5246Y-3.2246
X7.5246Y-3.4608
X7.5246Y-3.6183
X7.5246Y-3.697
X7.5246Y-3.7757
X7.5246Y-3.9225
X7.5246Y-4.012
X7.5296Y-4.8584
X7.5306Y-4.5838
X7.5306Y-5.3003
X7.5315Y-4.4962
X7.5384Y-4.3121
X7.5384Y-5.3436
X7.5434Y-2.7098
X7.5483Y-4.6665
X7.5493Y-2.2856
X7.5502Y-4.819
X7.5502Y-4.8978
X7.5518Y-2.7393
X7.5518Y-2.7787
X7.5518Y-2.8181
X7.5518Y-2.9106
X7.5581Y-5.383
X7.5595Y-5.1222
X7.5601Y-3.0277
X7.5601Y-3.1064
X7.5601Y-3.1852
X7.5601Y-3.2639
X7.5601Y-3.4962
X7.5611Y-2.4942
X7.564Y-2.949
X7.564Y-3.4214
X7.564Y-3.5789
X7.564Y-3.6576
X7.564Y-3.7364
X7.564Y-3.8151
X7.564Y-3.8938
X7.566Y-4.0612
X7.5699Y-5.261
X7.5778Y-5.3043
X7.5778Y-5.4224
X7.5827Y-4.3761
X7.5886Y-4.4962
X7.5886Y-5.2127
X7.5934Y-4.2572
X7.5945Y-2.8643
X7.5955Y-2.9096
X7.5955Y-2.9883
X7.5955Y-3.0671
X7.5955Y-3.1458
X7.5955Y-3.2246
X7.5965Y-4.5838
X7.5975Y-5.3436
X7.5995Y-3.4568
X7.6034Y-3.3033
X7.6034Y-3.5395
X7.6034Y-3.6183
X7.6034Y-3.7757
X7.6034Y-3.9225
X7.6034Y-4.012
X7.6034Y-4.1212
X7.617Y-5.2127
X7.6172Y-4.7354
X7.6172Y-4.8466
X7.6172Y-5.383
X7.6182Y-5.1232
X7.6211Y-4.6744
X7.628Y-2.2856
X7.63Y-5.4175
X7.6359Y-4.9184
X7.6369Y-5.3043
X7.6388Y-4.6271
X7.6428Y-3.3427
X7.6428Y-3.5789
X7.6428Y-3.6576
X7.6428Y-3.7364
X7.6428Y-3.8151
X7.6428Y-3.8938
X7.6428Y-3.9726
X7.6428Y-4.0611
X7.6437Y-4.3141
X7.6437Y-4.4283
X7.6477Y-4.7649
X7.6487Y-2.5366
X7.6496Y-4.4962
X7.6526Y-2.8702
X7.6526Y-2.949
X7.6526Y-3.0277
X7.6526Y-3.1064
X7.6526Y-3.1852
X7.6526Y-3.2639
X7.6536Y-2.6694
X7.6541Y-5.0484
X7.6541Y-5.1272
X7.6541Y-5.2059
X7.6565Y-5.3436
X7.6607Y-4.8875
X7.6644Y-4.7167
X7.6654Y-4.1852
X7.6674Y-2.3249
X7.6674Y-2.4037
X7.6713Y-4.5838
X7.6733Y-4.7649
X7.6772Y-2.6694
X7.6821Y-3.3033
X7.6821Y-3.4608
X7.6821Y-3.6183
X7.6821Y-3.7757
X7.6821Y-3.8545
X7.6821Y-3.9332
X7.6821Y-4.012
X7.6841Y-2.6222
X7.6841Y-2.6458
X7.6861Y-3.386
X7.6926Y-4.8375
X7.6926Y-4.8671
X7.6934Y-4.9303
X7.6934Y-5.0957
X7.6934Y-5.1665
X7.6934Y-5.324
X7.6939Y-4.9992
X7.694Y-4.6714
X7.6959Y-4.1202
X7.6959Y-4.1438
X7.6959Y-4.262
X7.6959Y-4.2856
X7.6959Y-4.3801
X7.6959Y-4.4037
X7.6986Y-4.7639
X7.6989Y-3.5336
X7.7018Y-4.448
X7.7067Y-2.2856
X7.7067Y-2.3643
X7.7067Y-2.4431
X7.7067Y-2.5218
X7.7067Y-2.6005
X7.7067Y-2.6793
X7.7107Y-2.758
X7.7107Y-2.8368
X7.7107Y-2.9155
X7.7107Y-2.9942
X7.7107Y-3.073
X7.7107Y-3.1517
X7.7107Y-3.2305
X7.7195Y-4.0966
X7.7195Y-4.1202
X7.7195Y-4.2383
X7.7195Y-4.262
X7.7195Y-4.3564
X7.7195Y-4.3801
X7.7195Y-4.4962
X7.7214Y-4.7167
X7.7215Y-3.3427
X7.7215Y-3.5789
X7.7215Y-3.6576
X7.7215Y-3.7364
X7.7215Y-3.8151
X7.7215Y-3.8938
X7.7215Y-3.9726
X7.7265Y-4.6261
X7.7328Y-4.8201
X7.7328Y-5.0484
X7.7328Y-5.1272
X7.7432Y-4.073
X7.7432Y-4.0966
X7.7432Y-4.2383
X7.7432Y-4.3328
X7.7432Y-4.3564
X7.7441Y-4.4537
X7.7461Y-3.2958
X7.751Y-4.6714
X7.7556Y-4.7633
X7.759Y-4.5835
X7.7609Y-3.3862
X7.7609Y-3.6183
X7.7609Y-3.7826
X7.7609Y-3.9332
X7.7609Y-4.012
X7.7668Y-4.0494
X7.7668Y-4.073
X7.7722Y-4.8516
X7.7722Y-5.0957
X7.7722Y-5.1665
X7.7784Y-4.7167
X7.7835Y-4.6261
X7.7886Y-5.0234
X7.7898Y-4.8201
X7.7934Y-3.9901
X7.7934Y-4.0901
X7.7934Y-4.1901
X7.7934Y-4.2915
X7.7963Y-4.3938
X7.8002Y-3.3427
X7.8002Y-3.5789
X7.8002Y-3.6576
X7.8002Y-3.7364
X7.8002Y-3.8151
X7.8002Y-3.8938
X7.8012Y-4.5405
X7.808Y-4.6714
X7.8116Y-4.9697
X7.8116Y-5.1272
X7.8126Y-4.7626
X7.816Y-4.5828
X7.816Y-4.886
X7.8229Y-5.0385
X7.8248Y-3.2958
X7.8357Y-4.7167
X7.8396Y-3.3862
X7.8396Y-3.5395
X7.8396Y-3.6183
X7.8396Y-3.7826
X7.8405Y-4.6261
X7.8468Y-4.8201
X7.8504Y-4.5405
X7.8509Y-4.8516
X7.8509Y-4.9303
X7.8509Y-5.009
X7.8509Y-5.0957
X7.8509Y-5.1665
X7.8509Y-5.4027
X7.8652Y-4.6714
X7.8696Y-4.762
X7.8701Y-4.5822
X7.879Y-3.5789
X7.879Y-3.6576
X7.879Y-3.7364
X7.879Y-3.8151
X7.8888Y-3.3515
X7.8903Y-4.8909
X7.8903Y-4.9697
X7.8903Y-5.1272
X7.8924Y-4.7167
X7.8928Y-5.0385
X7.8949Y-4.2157
X7.8957Y-4.0149
X7.8957Y-4.1149
X7.8957Y-4.3151
X7.8957Y-4.4149
X7.8957Y-4.511
X7.9036Y-3.2958
X7.9038Y-4.8201
X7.9184Y-3.5395
X7.9184Y-3.6183
X7.9184Y-3.7826
X7.9223Y-3.385
X7.9266Y-4.7613
X7.9297Y-4.8516
X7.9297Y-4.9303
X7.9297Y-5.009
X7.9297Y-5.0957
X7.9297Y-5.1665
X7.9297Y-5.4027
X7.9361Y-4.6891
X7.9508Y-5.2068
X7.9508Y-5.2364
X7.9508Y-5.3387
X7.9508Y-5.3683
X7.9577Y-3.3427
X7.9577Y-3.4214
X7.9577Y-3.5789
X7.9577Y-3.6576
X7.9608Y-4.8201
X7.9659Y-4.722
X7.969Y-4.8909
X7.969Y-4.9697
X7.969Y-5.0484
X7.969Y-5.1272
X7.969Y-5.4421
X7.969Y-5.5316
X7.9725Y-4.0749
X7.9725Y-4.1507
X7.9725Y-4.2127
X7.9725Y-4.2738
X7.9754Y-4.6497
X7.9804Y-5.2068
X7.9804Y-5.2364
X7.9804Y-5.3387
X7.9804Y-5.3683
X7.9823Y-3.2958
X7.9971Y-3.4608
X7.9971Y-3.5395
X8.0053Y-4.6826
X8.0084Y-4.8516
X8.0084Y-4.9303
X8.0084Y-5.009
X8.0084Y-5.1665
X8.0084Y-5.4027
X8.0365Y-3.5001
X8.0384Y-3.5395
X8.0434Y-4.6557
X8.0478Y-4.8909
X8.0478Y-4.9697
X8.0478Y-5.3634
X8.0542Y-3.9096
X8.0542Y-3.9686
X8.0542Y-4.0277
X8.0542Y-4.0868
X8.0542Y-4.1458
X8.0542Y-4.2049
X8.0542Y-4.2639
X8.0542Y-4.323
X8.0542Y-4.382
X8.0542Y-4.4411
X8.0542Y-4.5001
X8.0542Y-4.5592
X8.0744Y-5.3269
X8.0758Y-3.4608
X8.0758Y-3.5395
X8.0847Y-4.6557
X8.0871Y-4.9303
X8.0871Y-5.1665
X8.0871Y-5.4027
X8.0876Y-4.9962
X8.0995Y-3.8673
X8.0995Y-3.9686
X8.0995Y-4.0553
X8.0995Y-4.134
X8.0995Y-4.2127
X8.0995Y-4.2915
X8.0995Y-4.3702
X8.0995Y-4.449
X8.1094Y-5.3623
X8.1152Y-3.5001
X8.1152Y-3.5789
X8.1211Y-4.6557
X8.1265Y-4.8909
X8.1265Y-4.9697
X8.1265Y-5.2059
X8.1265Y-5.4421
X8.128Y-3.7738
X8.1369Y-4.5966
X8.1428Y-3.8328
X8.1428Y-5.1419
X8.1496Y-3.2958
X8.1546Y-3.382
X8.1546Y-3.4608
X8.1546Y-3.5395
X8.1546Y-3.6183
X8.1546Y-3.697
X8.1546Y-3.9332
X8.1546Y-4.012
X8.1546Y-4.0907
X8.1546Y-4.1694
X8.1546Y-4.2482
X8.1546Y-4.3269
X8.1546Y-4.4844
X8.1546Y-4.5631
X8.1565Y-4.4037
X8.1565Y-4.6557
X8.1624Y-3.7738
X8.1624Y-4.7206
X8.1624Y-4.7728
X8.1659Y-4.8516
X8.1659Y-4.9303
X8.1659Y-5.009
X8.1659Y-5.0878
X8.1743Y-5.5041
X8.2185Y-3.3387
X8.2185Y-3.4175
X8.2185Y-3.4962
X8.2185Y-3.5749
X8.2185Y-3.6537
X8.2185Y-3.7324
X8.2185Y-3.9686
X8.2185Y-4.0474
X8.2185Y-4.1261
X8.2185Y-4.2049
X8.2185Y-4.2836
X8.2185Y-4.3623
X8.2185Y-4.4411
X8.2185Y-4.756
X8.2185Y-4.8348
X8.2185Y-4.9135
X8.2185Y-4.9923
X8.2185Y-5.071
X8.2185Y-5.1399
X8.2185Y-5.4647
X8.2185Y-5.5434
X8.2186Y-5.2482
X8.2186Y-5.3269
X8.2204Y-4.6832
T2
X7.3843Y-2.3551
X7.3843Y-2.4051
X7.4343Y-2.3551
X7.4343Y-2.4051
X7.4843Y-2.3551
X7.4843Y-2.4051
X7.5343Y-2.3551
X7.5343Y-2.4051
X7.5843Y-2.3551
X7.5843Y-2.4051
T3
X3.5871Y-2.447
X3.7871Y-2.447
X7.8504Y-3.9647
X7.8504Y-4.0647
X7.8504Y-4.1647
X7.8504Y-4.2647
X7.8504Y-4.3647
X7.8504Y-4.4647
T4
X3.9164Y-2.9362
X3.9164Y-3.7885
X3.9164Y-4.6409
X3.9164Y-5.4933
X7.7599Y-3.5041
X7.7599Y-4.9253
T5
X3.6093Y-2.7866
X3.6093Y-3.0858
X3.6093Y-3.6389
X3.6093Y-3.9381
X3.6093Y-4.4913
X3.6093Y-4.7905
X3.6093Y-5.3436
X3.6093Y-5.6429
X8.067Y-3.3545
X8.067Y-3.6537
X8.067Y-4.7757
X8.067Y-5.0749
T6
X7.8622Y-5.4982
X7.8622Y-5.7934
X8.0591Y-5.4982
X8.0591Y-5.7934
T7
X3.8189Y-3.3623
X3.8189Y-5.0671
X7.2628Y-3.1212
M30
