G04 #@! TF.FileFunction,Soldermask,Top*
%FSLAX46Y46*%
G04 Gerber Fmt 4.6, Leading zero omitted, Abs format (unit mm)*
G04 Created by KiCad (PCBNEW 4.0.7) date 06/10/18 20:05:32*
%MOMM*%
%LPD*%
G01*
G04 APERTURE LIST*
%ADD10C,0.100000*%
%ADD11R,0.701600X0.451600*%
%ADD12R,1.701600X2.201600*%
%ADD13R,0.701600X0.601600*%
%ADD14R,0.601600X0.701600*%
%ADD15R,0.901600X0.851600*%
%ADD16R,1.401600X1.901600*%
%ADD17R,0.501600X2.201600*%
%ADD18O,2.301600X2.301600*%
%ADD19C,2.701600*%
%ADD20C,2.401600*%
%ADD21R,1.801600X1.801600*%
%ADD22O,1.801600X1.801600*%
%ADD23R,3.701600X1.601600*%
%ADD24R,0.501600X0.701600*%
%ADD25R,0.701600X0.501600*%
%ADD26C,1.701600*%
%ADD27R,1.701600X1.701600*%
%ADD28C,4.601600*%
G04 APERTURE END LIST*
D10*
D11*
X140967000Y-105095000D03*
X140967000Y-106045000D03*
X140967000Y-106995000D03*
X143767000Y-106995000D03*
X143767000Y-106045000D03*
X143767000Y-105095000D03*
D12*
X142367000Y-106045000D03*
D13*
X141012000Y-79502000D03*
X139912000Y-79502000D03*
D14*
X143129000Y-86910000D03*
X143129000Y-85810000D03*
D15*
X142609000Y-108331000D03*
X141109000Y-108331000D03*
D14*
X145669000Y-104987000D03*
X145669000Y-106087000D03*
D15*
X148070000Y-103886000D03*
X146570000Y-103886000D03*
X148070000Y-102616000D03*
X146570000Y-102616000D03*
D16*
X145137000Y-103251000D03*
X142137000Y-103251000D03*
D17*
X138410000Y-69490000D03*
D18*
X140010000Y-72390000D03*
X121610000Y-72390000D03*
X118485000Y-74765000D03*
X118485000Y-70015000D03*
X143135000Y-70015000D03*
X143135000Y-74765000D03*
D17*
X123210000Y-75815000D03*
X124010000Y-75790000D03*
X124810000Y-75790000D03*
X125610000Y-75790000D03*
X126410000Y-75790000D03*
X127210000Y-75790000D03*
X128010000Y-75790000D03*
X128810000Y-75790000D03*
X129610000Y-75790000D03*
X130410000Y-75790000D03*
X131210000Y-75790000D03*
X132010000Y-75790000D03*
X132810000Y-75790000D03*
X133610000Y-75790000D03*
X134410000Y-75790000D03*
X135210000Y-75790000D03*
X136010000Y-75790000D03*
X136810000Y-75790000D03*
X137610000Y-75790000D03*
X138410000Y-75790000D03*
X137610000Y-69490000D03*
X136810000Y-69490000D03*
X136010000Y-69490000D03*
X135210000Y-69490000D03*
X134410000Y-69490000D03*
X133610000Y-69490000D03*
X132810000Y-69490000D03*
X132010000Y-69490000D03*
X131210000Y-69490000D03*
X130410000Y-69490000D03*
X129610000Y-69490000D03*
X128810000Y-69490000D03*
X128010000Y-69490000D03*
X127210000Y-69490000D03*
X126410000Y-69490000D03*
X125610000Y-69490000D03*
X124810000Y-69490000D03*
X124010000Y-69490000D03*
X123210000Y-69490000D03*
D19*
X145415000Y-91948000D03*
X145415000Y-97028000D03*
X150495000Y-97028000D03*
D20*
X147955000Y-94488000D03*
D19*
X150495000Y-91948000D03*
X145415000Y-81788000D03*
X145415000Y-86868000D03*
X150495000Y-86868000D03*
D20*
X147955000Y-84328000D03*
D19*
X150495000Y-81788000D03*
D21*
X140970000Y-86868000D03*
D22*
X140970000Y-84328000D03*
X140970000Y-81788000D03*
D21*
X140970000Y-112268000D03*
D22*
X138430000Y-112268000D03*
D21*
X138430000Y-99568000D03*
D22*
X140970000Y-99568000D03*
D23*
X138303000Y-103504000D03*
X138303000Y-106554000D03*
D24*
X141928000Y-78232000D03*
X141028000Y-78232000D03*
X136760800Y-78232000D03*
X137660800Y-78232000D03*
X140150000Y-78232000D03*
X139250000Y-78232000D03*
D25*
X146685000Y-105087000D03*
X146685000Y-105987000D03*
X144653000Y-107003000D03*
X144653000Y-106103000D03*
D26*
X125222000Y-81788000D03*
X122682000Y-81788000D03*
X120142000Y-81788000D03*
X117602000Y-81788000D03*
X127762000Y-81788000D03*
X130302000Y-81788000D03*
X132842000Y-81788000D03*
X117602000Y-84328000D03*
X117602000Y-86868000D03*
X117602000Y-89408000D03*
X117602000Y-91948000D03*
X117602000Y-94488000D03*
X117602000Y-97028000D03*
X117602000Y-99568000D03*
X117602000Y-102108000D03*
X117602000Y-104648000D03*
X117602000Y-107188000D03*
X117602000Y-109728000D03*
X117602000Y-112268000D03*
X117602000Y-114808000D03*
X132842000Y-84328000D03*
X132842000Y-86868000D03*
X132842000Y-89408000D03*
X132842000Y-91948000D03*
X132842000Y-94488000D03*
X132842000Y-97028000D03*
X132842000Y-99568000D03*
X132842000Y-102108000D03*
X132842000Y-104648000D03*
X132842000Y-107188000D03*
X132842000Y-109728000D03*
X132842000Y-112268000D03*
D27*
X132842000Y-114808000D03*
D28*
X113030000Y-112268000D03*
X148590000Y-112268000D03*
X113030000Y-71628000D03*
X148590000Y-71628000D03*
M02*
