M48
; DRILL file {KiCad 9.0.0-rc1-661-gd7f89c6576} date 2025-02-17T12:45:28-0500
; FORMAT={-:-/ absolute / inch / decimal}
; #@! TF.CreationDate,2025-02-17T12:45:28-05:00
; #@! TF.GenerationSoftware,Kicad,Pcbnew,9.0.0-rc1-661-gd7f89c6576
; #@! TF.FileFunction,Plated,1,2,PTH
FMAT,2
INCH
; #@! TA.AperFunction,Plated,PTH,ViaDrill
T1C0.0100
; #@! TA.AperFunction,Plated,PTH,ComponentDrill
T2C0.1650
; #@! TA.AperFunction,Plated,PTH,ComponentDrill
T3C0.1772
%
G90
G05
T1
X3.9764Y-3.8091
X3.9764Y-3.8878
X3.9764Y-3.9665
X3.9764Y-4.0453
X3.9764Y-4.124
X3.9764Y-4.2028
X3.9764Y-4.2815
X3.9764Y-4.3602
X3.9764Y-4.439
X4.001Y-3.6811
X4.001Y-4.5669
X4.0285Y-3.6152
X4.0285Y-3.747
X4.0285Y-4.501
X4.0285Y-4.6329
X4.0945Y-3.5876
X4.0945Y-3.7746
X4.0945Y-4.4734
X4.0945Y-4.6604
X4.1604Y-3.6152
X4.1604Y-3.747
X4.1604Y-4.501
X4.1604Y-4.6329
X4.188Y-3.6811
X4.188Y-4.5669
X4.2323Y-3.563
X4.2323Y-4.685
X4.311Y-3.563
X4.311Y-4.685
X4.3898Y-3.563
X4.3898Y-4.685
X4.4104Y-3.9124
X4.4466Y-3.8251
X4.4466Y-3.9997
X4.4685Y-3.563
X4.4685Y-4.685
X4.5339Y-3.789
X4.5339Y-4.0358
X4.5472Y-3.563
X4.5472Y-4.685
X4.6211Y-3.8251
X4.6211Y-3.9997
X4.626Y-3.563
X4.626Y-4.685
X4.6573Y-3.9124
X4.7047Y-3.563
X4.7047Y-4.685
X4.7835Y-3.563
X4.7835Y-4.685
X4.8622Y-3.563
X4.8622Y-4.685
X4.9315Y-4.1562
X4.9409Y-3.563
X4.9409Y-4.685
X5.0152Y-3.9352
X5.0197Y-3.563
X5.0197Y-4.685
X5.0984Y-3.563
X5.0984Y-4.685
X5.1715Y-4.1562
X5.1715Y-3.7142
X5.1772Y-3.563
X5.1772Y-4.685
X5.2559Y-3.563
X5.2559Y-4.685
X5.3346Y-3.563
X5.3346Y-4.685
X5.3371Y-3.7142
X5.3371Y-4.1562
X5.4134Y-3.563
X5.4134Y-4.685
X5.4921Y-3.563
X5.4921Y-4.685
X5.4935Y-3.9349
X5.5709Y-3.563
X5.5709Y-4.685
X5.6496Y-3.563
X5.6496Y-4.685
X5.7228Y-4.1562
X5.7228Y-4.5051
X5.7283Y-3.563
X5.7283Y-4.685
X5.8071Y-3.563
X5.8071Y-4.685
X5.8858Y-3.563
X5.8858Y-4.685
X5.9646Y-3.563
X5.9646Y-4.685
X5.965Y-3.935
X5.965Y-4.4008
X6.0433Y-3.563
X6.0433Y-4.685
X6.122Y-3.563
X6.122Y-4.685
X6.2008Y-3.563
X6.2008Y-4.685
X6.2071Y-4.1585
X6.2071Y-4.5051
X6.2795Y-3.563
X6.2795Y-4.685
X6.3583Y-3.563
X6.3583Y-4.685
X6.4364Y-3.9352
X6.437Y-3.563
X6.437Y-4.685
X6.5157Y-3.563
X6.5157Y-4.685
X6.5928Y-4.1562
X6.5928Y-3.7142
X6.5945Y-3.563
X6.5945Y-4.685
X6.6732Y-3.563
X6.6732Y-4.685
X6.752Y-3.563
X6.752Y-4.685
X6.7584Y-3.7142
X6.7584Y-4.1562
X6.8307Y-3.563
X6.8307Y-4.685
X6.9094Y-3.563
X6.9094Y-4.685
X6.9148Y-3.9349
X6.9882Y-3.563
X6.9882Y-4.1562
X6.9882Y-4.685
X7.0669Y-3.563
X7.0669Y-4.685
X7.1457Y-3.563
X7.1457Y-4.685
X7.2244Y-3.563
X7.2244Y-4.685
X7.2726Y-3.7825
X7.3031Y-3.563
X7.3031Y-4.685
X7.3819Y-3.563
X7.3819Y-4.685
X7.3856Y-4.3076
X7.4606Y-3.563
X7.4606Y-4.685
X7.5394Y-3.563
X7.5394Y-4.685
X7.5913Y-3.9882
X7.6181Y-3.563
X7.6181Y-4.685
X7.6969Y-3.563
X7.6969Y-4.685
X7.7411Y-3.6811
X7.7411Y-4.5669
X7.7687Y-3.6152
X7.7687Y-3.747
X7.7687Y-4.501
X7.7687Y-4.6329
X7.8346Y-3.5876
X7.8346Y-3.7746
X7.8346Y-4.4734
X7.8346Y-4.6604
X7.9006Y-3.6152
X7.9006Y-3.747
X7.9006Y-4.501
X7.9006Y-4.6329
X7.9281Y-3.6811
X7.9281Y-4.5669
X7.9528Y-3.8091
X7.9528Y-3.8878
X7.9528Y-3.9665
X7.9528Y-4.0453
X7.9528Y-4.124
X7.9528Y-4.2028
X7.9528Y-4.2815
X7.9528Y-4.3602
X7.9528Y-4.439
T2
X4.0945Y-3.6811
X4.0945Y-4.5669
X7.8346Y-3.6811
X7.8346Y-4.5669
T3
X4.5339Y-3.9124
M30
