M48
;Layer_Color=9474304
;FILE_FORMAT=2:4
INCH
;TYPE=PLATED
T1F00S00C0.0080
T2F00S00C0.0291
T3F00S00C0.0339
T4F00S00C0.0354
T5F00S00C0.0394
T6F00S00C0.0709
T7F00S00C0.0945
;TYPE=NON_PLATED
T8F00S00C0.0150
T10F00S00C0.0430
T11F00S00C0.0591
T12F00S00C0.0630
T13F00S00C0.1252
T14F00S00C0.1260
%
T01
X000787Y003150
X001575
X002362
X003150
X003937
X004724
X005512
Y003937
Y004724
Y005512
X005689Y006457
X006201
X006713
X007224
X005689Y007047
Y007638
Y008228
X000394Y007874
Y007087
Y006299
Y005512
Y004724
Y003937
X007884Y006663
X008576Y006459
X009068
X009560
X010938
X011430
X011922
X013300
X013792
X014284
X014636Y007057
X014272Y007421
X015965Y006919
X016147Y006457
X015636
X016659
X017171
Y007047
X016791Y006919
X017171Y007638
Y008228
X018453Y005679
X018453Y005256
X018453Y004833
X019656Y004929
X019656Y005583
X019154Y003150
X020335
X020728
Y003360
X021896Y003150
X023091
X022753Y006952
X021906
X021483Y007685
X012726Y008169
X011929
X012313Y007766
X008366Y008189
X023176Y007685
X027675Y007771
X028533Y006926
X029121Y006837
X029312Y006926
X029522
X029712Y006837
X029902Y006926
X030112
X030302Y006837
X030493Y006926
X030703
X030893Y006837
X031083Y006926
X031293
X031483Y006837
X031890Y006496
X032677
X033465
X034252
X035292Y006952
X036139
X036562Y007685
X034869
X037402Y006496
X038189
X031486Y008258
X030896
X030305Y008258
X029715Y008258
X029124
X028642Y003349
X028515Y003175
X028305
X028179Y003349
X027067Y003340
X026941Y003167
X026731
X026604Y003340
X025453Y003150
X024972Y003171
X024762
X024636Y003344
X025098
X023917Y003327
X023791Y003153
X023581
X023455Y003327
X029754Y003343
X029880Y003170
X030090
X030217Y003343
X030571Y003346
X030965Y003150
X038976Y006496
X039764
X040551
X041339
X042126
X042913
X043701
X044488
X045276
X046063
Y007087
Y007874
Y008661
Y009449
Y010236
Y011024
Y011811
Y012598
Y013386
Y014173
Y014961
Y015748
Y016535
Y017323
Y018110
Y018898
Y019685
Y020472
Y021260
Y022047
X039390Y015758
X038842Y015776
X038844Y015986
X038898Y014715
X039124
X038996Y014124
X038887Y013338
X038888Y013128
X039646Y014380
Y015256
X039911Y014990
X040716Y010787
X040945Y010598
X041173Y010787
X038189Y011152
X038179Y012087
X037461Y012411
X036475Y012904
Y011919
Y011526
X035625Y011722
Y012707
X035019Y012116
X034168Y011526
Y013297
X034163Y014085
Y014370
X034168Y014675
X035019Y013888
X035625Y014282
X035019Y015659
X034168Y016644
X035625Y017011
Y017221
Y017431
Y017641
X035039Y017628
X035625Y018585
Y018795
Y019005
Y019215
X035019Y019596
X034168Y020187
Y018612
X032392Y018937
X032185Y018986
X032540Y019086
X032491Y019292
X031752Y019281
X031801Y019075
X031653Y018926
X031446Y018976
X026724Y018950
X026724Y018740
Y018530
X025854Y016968
X025689Y016772
X025854Y016575
X024873Y016101
X024855Y015886
X024704Y015740
X024494Y015722
X024803Y014961
X025197Y014567
X025591Y014173
X026724Y013645
X026724Y013435
Y013225
X026724Y013015
Y012257
Y012047
X029092Y011801
X029092Y011378
X029092Y010955
X029075Y010079
X028870Y010029
X028660Y010029
X028445Y010079
X028531Y009322
X028721Y009233
X028931
X029121Y009322
X029312Y009233
X029522
X029712Y009322
X029902Y009233
X030112
X030302Y009322
X030493Y009233
X030703
X030893Y009322
X031083Y009233
X031293
X031484Y009321
X031390Y010029
X031180Y010029
X030965Y010079
X030760Y010029
X030550Y010029
X030335Y010079
X030130Y010029
X029920Y010029
X029705Y010079
X029500Y010029
X029290Y010029
X029311Y008376
X029532
X029902
X030122
X030492
X030713
X031083
X031303
X031594Y010079
X032138Y010955
Y011378
Y011801
X030925Y011705
X030295
X030295Y011051
X030925
X028937Y008376
X028711
X028501Y008382
X027675Y008387
X024262Y008955
X024014Y009557
X023877Y011906
X023878Y012116
X023877Y012333
X023877Y012544
X023876Y012761
X023879Y013286
X023878Y013504
Y013714
X023877Y013930
X023879Y014473
X023878Y014692
Y014902
X023877Y015118
X024140Y017494
X024350Y017490
Y017707
X024134
X023877Y018218
X023937Y020591
X024134Y020787
X023878Y021004
X023868Y021309
X024409Y020394
X025512Y020226
X037598Y019567
Y022126
X036801Y022539
X036475Y016644
X038429Y015986
X038430Y015776
X038636Y015886
X038274Y015226
X038008Y015492
X038061Y014195
X037805
X038671Y014715
X038681Y013228
X038473Y013128
X038475Y013338
X037421Y010266
Y009518
X036139Y008418
X035292
X033327Y013671
X022420Y013297
X022559Y013091
Y012106
Y011722
X022874Y011526
Y011919
Y012303
X022420Y014282
X021565Y014478
X021570Y014872
Y015256
Y015659
Y016053
Y016447
Y016841
X021565Y017234
X021565Y017444
X021565Y017657
Y018022
X022441Y018051
Y017835
Y017618
Y017402
X022420Y017047
Y016654
Y016260
X022874Y016250
X022884Y017192
X022882Y018629
X022882Y018839
Y019055
X022420Y019203
X022461Y018366
X022420Y020187
X019715Y019577
X019723Y019367
X019941Y018967
X019551Y018780
X019429Y017992
X019065Y017992
X018738Y018414
X018508Y018415
X018278
X018652Y019085
Y019478
X018258
X017628Y019380
X017657Y019065
Y019892
X017701Y020470
X017687Y020896
X017690Y021296
X018082Y021322
X018455Y021319
X018826Y021323
X019219Y021296
X019227Y020897
X019220Y020496
X019045Y019478
X018652Y019872
X017170Y020553
X016727Y020619
X016732Y020876
X017170Y021144
Y021734
X016659
X016147
X015635
X015935Y021299
X015934Y021016
X015926Y020613
X015968Y019791
X015364Y019646
X014892
X015128Y019882
X014892Y020118
X015364
X015228Y019013
X015689Y019016
X015955Y018612
X016181Y018583
X016555
X017169Y018130
Y017638
X017171Y016299
Y015709
Y015118
X016791Y014990
X016659Y014528
X016147
X015636
X015965Y014990
X014636Y015128
X014272Y015492
X014284Y014530
X013792
X013300
X013299Y013661
X013791
X014283
X014301Y013081
X014606Y013110
X014833Y013110
X015069Y013228
X015935
X015934Y012945
X015926Y012542
X016727Y012548
X016732Y012805
X017170Y013073
Y012482
X017701Y012399
X017687Y012825
X017690Y013225
X018082Y013251
X018455Y013248
X018826Y013252
X019219Y013225
X019227Y012826
X019220Y012425
X018652Y011801
Y011407
X019045
X019715Y011516
X019723Y011306
X019941Y010896
X019551Y010709
X019429Y009921
X019065Y009921
X018738Y010343
X018508Y010344
X018278
X018652Y011014
X018258Y011407
X017628Y011309
X017657Y010994
Y011821
X015968Y011720
X015364Y011575
X014892
X015128Y011811
X014892Y012047
X015364
X015228Y010942
X015689Y010945
X015955Y010541
X016181Y010512
X016555
X017169Y010059
Y009567
X015335Y010207
X015217Y010404
X015049Y010138
X014818Y010143
X014557Y010138
X014577Y011063
X013858Y011024
X013691Y010817
X013720Y009537
X013474Y009291
X012579Y011083
X012096Y011949
X011921Y013661
X011429
X010937
X010938Y014530
X011430
X011922
X012579Y013474
X013511Y013041
Y012648
X014305Y012646
X013907Y013073
X015635Y013663
X016147
X016659
X017170
X017171Y014528
X021270Y014675
Y015069
Y015472
Y015876
X021906Y008418
X022753
X007884Y009055
X008238Y010600
X008907
X007913Y012402
X008575Y013661
X009067
X009559
X009560Y014530
X009068
X008576
X007884Y014734
X008366Y016260
X007884Y017126
X008238Y018671
X008907
X007913Y020472
X008575Y021732
X009067
X009559
X009560Y022600
X009068
X008576
X007884Y022805
X010938Y022600
X011430
X011922
X011921Y021732
X011429
X010937
X012579Y021545
X013299Y021732
X013791
X014283
X014301Y021152
X014606Y021181
X014833Y021181
X015069Y021299
X013907Y021143
X013511Y021112
Y020719
X014305Y020717
X014577Y019134
X013858Y019094
X013691Y018888
X013720Y017608
X013474Y017362
X012717Y016240
X012323Y015846
X011929Y016240
X012579Y019154
X012096Y020020
X013300Y022600
X013792
X014284
X014636Y023199
X014272Y023563
X015965Y023061
X016147Y022598
X015636
X016659
X017171
Y023189
X016791Y023071
X017171Y023780
X015217Y018474
X015335Y018278
X015049Y018209
X014818Y018213
X014557Y018208
X006415Y017797
X006401Y017387
X006407Y016988
X005689Y017638
Y018130
Y018622
X005688Y019963
Y020553
Y021144
Y021734
X006200
X006712
X007224
X006909Y021348
Y020472
X006713Y022598
X006201
X005689
Y023189
Y023780
X007224Y022598
X000394Y022835
Y023622
Y022047
Y021260
Y020472
X001181Y020079
Y019291
X001258Y019016
X000866Y019173
X000354Y018846
X000394Y018110
Y017323
Y016535
Y015748
Y014961
Y014173
Y013386
Y012598
Y011811
Y011024
Y010236
Y009449
Y008661
X001575Y010608
X002067Y010579
X002470Y010394
X002707
X002943
X003179
X003415
X005689Y010551
Y010059
Y009567
X006415Y009726
X006401Y009317
X006407Y008917
X005688Y011892
Y012482
Y013073
Y013663
X006200
X006712
X007224
X006909Y013278
Y012402
X006713Y014528
X006201
X005689
Y015118
Y015709
Y016299
X007224Y014528
X003415Y018465
X003179
X002943
X002707
X002470
X002067Y018650
X001575Y018679
X001181Y018504
X001258Y010945
X000394Y024409
Y025197
Y025984
Y026772
Y027559
Y028346
Y029134
Y029921
Y030709
Y031496
Y032283
Y033071
Y033858
Y034646
Y035433
Y036220
Y037008
X001258Y035157
X001575Y034821
X002067Y034791
X002470Y034606
X002707
X002943
X003179
X003415
X003465Y035463
X003809Y036123
X004833Y036157
X005688Y036104
Y036695
Y037286
Y037876
X006200
X006712
X007224
X006909Y037490
Y036614
X004833Y037234
X004901Y037876
X004113
X003326
X005689Y034764
Y034272
Y033780
X006415Y033939
X006401Y033529
X006407Y033130
X005689Y032441
Y031850
Y031260
Y030669
X006201
X006713
X007224
X007224Y029805
X006712
X006200
X005688
Y029215
Y028624
Y028034
X005689Y026693
Y026201
Y025709
X006415Y025868
X006401Y025458
X006407Y025059
X005689Y024370
X003415Y026535
X003179
X002943
X002707
X002470
X002067Y026720
X001575Y026750
X001258Y027087
X006909Y028543
X006909Y029419
X007913Y028543
X008575Y029803
X009067
X009559
X009560Y030671
X009068
X008576
X007884Y030876
X008366Y032402
X007884Y033268
X008238Y034813
X008907
X007913Y036614
X008575Y037874
X009067
X009559
X010937
X011429
X011921
X012579Y037687
X013299Y037874
X013791
X014283
X014301Y037293
X014606Y037323
X014833Y037323
X015069Y037441
X015935
X015934Y037158
X015926Y036755
X016727Y036760
X016732Y037018
X017170Y037286
Y036695
X017701Y036611
X017677Y037096
X017690Y037438
X018082Y037463
X018455Y037461
X018826Y037464
X019219Y037438
X019227Y037039
X019220Y036637
X019552Y036262
X019707Y035731
X019715Y035522
X019941Y035108
X019551Y034921
X019429Y034134
X019065Y034134
X018738Y034555
X018508Y034557
X018278
X018652Y035226
Y035620
X019045
X018652Y036014
X018258Y035620
X017628Y035522
X017657Y035207
Y036033
X015968Y035933
X015364Y035787
X015128Y036024
X014892Y035787
Y036260
X015364
X015228Y035155
X015689Y035157
X015955Y034754
X016181Y034724
X016555
X017169Y034272
Y033780
X017171Y032441
Y031850
Y031260
X016791Y031142
X016659Y030669
X017171
X017170Y029805
X016659
X016147
X015635
X015935Y029370
X015934Y029087
X015926Y028684
X016727Y028689
X016732Y028947
X017170Y029215
Y028624
X017701Y028540
X017687Y028967
X017690Y029367
X018082Y029392
X018455Y029390
X018826Y029394
X019219Y029367
X019227Y028968
X019220Y028567
X018652Y027943
Y027549
Y027156
X018738Y026484
X018508Y026486
X018278
X018258Y027549
X017628Y027451
X017657Y027136
Y027963
X015968Y027862
X015364Y027717
X014892
X015128Y027953
X014892Y028189
X015364
X015228Y027084
X015689Y027087
X015955Y026683
X016181Y026654
X016555
X017169Y026201
Y025709
X017171Y024370
X019065Y026063
X019429Y026063
X019551Y026850
X019941Y027037
X019723Y027438
X019715Y027648
X019045Y027549
X022835Y027461
Y027244
X022753Y025741
X021906
X021483Y025008
X021906Y024275
X022753
X015335Y026348
X015217Y026545
X015049Y026280
X014818Y026284
X014557Y026279
X014577Y027205
X013858Y027165
X013691Y026959
X013720Y025679
X013474Y025433
X012726Y024311
X011929
X012313Y023917
X012579Y027224
X012096Y028091
X011921Y029803
X011429
X010937
X010938Y030671
X011430
X011922
X013300
X013792
X014284
X014283Y029803
X013791
X013299
X013511Y029183
Y028790
X014305Y028788
X014301Y029222
X014606Y029252
X014833Y029252
X015069Y029370
X013907Y029214
X012579Y029616
X012313Y031988
X011929Y032382
X012726
X013474Y033504
X013720Y033750
X013691Y035030
X013858Y035236
X014577Y035276
X014557Y034350
X014818Y034355
X015049Y034350
X015335Y034419
X015217Y034616
X014305Y036859
X013511Y036860
Y037254
X013907Y037285
X015635Y037876
X016147
X016659
X017170
X017958
X018745
X019533
X020320
X021107
X021895
X022682
X022352Y037264
X020457Y034597
X015965Y031132
X016147Y030669
X015636
X014636Y031270
X014272Y031634
X012579Y035295
X012096Y036161
X008907Y026742
X008238
X007884Y025197
X008366Y024331
X023176Y025008
X023159Y027026
X024400Y027026
X024970Y027035
X025335Y027343
X025768Y027293
X026014Y027291
X026260Y027293
X026565Y027291
X026902Y027618
X026860Y027844
X026996Y028350
X026998Y028642
X026998Y028858
X027500Y029035
X027727Y028848
X028114Y028853
X028506Y028854
X028465Y029350
X028238
X027913Y029711
X027520
X027146Y029722
X026791
X026543Y029970
X026543Y030325
X026791Y030573
X027146
X027520Y030585
X027913Y030585
X028307
X028830Y030254
X029449Y029331
X030118
X030787
Y028661
Y027992
X030118
Y028661
X029449
Y027992
X028120Y028081
X027727Y028078
X027323Y029518
X026549Y029425
X026329Y029301
X025896Y029904
X024606Y029963
X024171Y028829
X024222Y028494
X024705Y028386
Y028176
Y027966
Y027756
X025207Y027736
X025512Y027717
X024970Y028504
Y026250
X025148Y026073
X025325Y025896
X025689Y026427
X025394Y033435
X025049Y033612
X025054Y034061
X024508Y034823
X024833Y035207
X024950Y036528
X025563Y036278
X026039Y036279
X026516Y036033
X026978Y036368
X027343Y035797
X027777Y035577
Y035215
X028242Y033937
X028185Y033543
X029193Y033287
X029557Y033287
X029809Y033533
X030579Y034232
X030827Y034480
Y034783
Y033984
X031467Y034252
Y034469
Y034970
X031427Y035276
Y035502
Y035728
X031467Y036033
X031742Y036607
X032085Y036289
X032923Y036299
X033228Y035315
Y034961
X033583Y035138
X033937Y034961
Y035315
X033878Y035965
X034222Y036171
Y036427
X034224Y036939
X034252Y037874
X033465
X032677
X031890
X031102
X030315
X029528
X029213Y037079
X028711Y037520
X028346Y037520
X027953Y037874
X026732Y037156
X026476Y037165
X026201Y037628
X025839
X025719Y037835
X024801Y037834
X024528Y037667
X024257Y037876
X023470
X023228Y037165
X023996
X023740Y036358
X023484
X023228Y034823
X023689Y033591
X024054Y033584
X026242Y033437
X026640Y033831
X026220Y034852
X025453Y037156
X025197
X030571Y036124
X030841Y036289
X030260Y035797
X032785Y034343
X033041
X033228Y033632
X033514Y033622
X033789
X034610Y034075
X034344Y034341
X035482Y034488
Y035787
X036781Y035705
Y035495
Y035285
X037234Y035187
Y034449
X037429Y034142
X037844Y034144
X038110Y034409
X038268Y034685
X038524Y035305
X036781Y035915
X036614Y037874
X035827
X035039
X037402
X038189
X038031Y031065
X038378Y030679
X036904Y030915
X036770Y031604
X036215Y031673
X036203Y032047
X035945Y032295
X035591
X035344Y032047
X035335Y031634
X035079Y032258
X034685Y032258
X034163
X034429Y031703
X034431Y031474
X033907Y031634
X033740Y031220
X032860Y031220
Y030827
X032625Y030827
X032369Y031083
X032008
X031751Y030827
Y030433
X031735Y029228
X031766Y029006
X031751Y028465
X032372Y028150
X032726Y028246
X032628Y028858
X032994Y029346
X032994Y029556
X033303Y029653
X033305Y029242
X033474Y030177
X032859Y029911
X032625Y030039
X032872Y031614
X033120Y031862
X033474
X034409Y030709
Y030236
X034882
X035354
Y029764
X034882Y029764
X034409
X034373Y028995
X034583Y028994
X034793Y028994
X035167Y028986
X035482Y028986
X035837
X036624Y029045
X037033Y029193
X036904Y029675
X036904Y030039
X037908Y029193
X035659Y028128
X034931Y028096
X034557Y028128
X034183Y028096
X033937Y028711
X034882Y030709
X035354
X035292Y025741
X036139
X036562Y025008
X036139Y024275
X035292
X034869Y025008
X040716Y027835
X040945Y027646
X041173Y027835
X046063Y027559
Y026772
Y025984
Y025197
Y028346
Y029134
Y029921
Y030709
Y031496
Y032283
Y033858
Y034646
Y035433
Y036220
Y037008
Y037874
X045276
X044488
X043701
X042913
X042126
X041339
X040551
X039764
X038976
X039400Y035955
X039400Y034596
X039606Y034496
X039606Y034706
X039194
X039192Y034496
X043484Y035214
X043295Y035443
X045228Y035443
X045039Y035214
T02
X043264Y036075
X043764
X044264
X044764
X045264
Y036575
X044764
X044264
X043764
X043264
T03
X039252Y032520
Y033307
T04
X042874Y016988
Y017988
Y018988
Y019988
Y020988
Y021988
X002606Y037264
X001606
T05
X004911Y006801
X041968Y011063
X035774Y010451
X032950Y008532
X025096
X023176Y010451
Y022242
X035774
X004911Y023848
Y015325
Y032372
X041968Y028110
T06
X001841Y005305
X045039Y009567
Y012559
X001841Y013829
Y016821
Y022352
Y008297
Y025344
Y030876
Y033868
X045039Y029606
Y026614
T07
X044370Y015354
X045472Y023425
T08
X000197Y002480
X000449
X000701
X000953
X001205
X004701
X004953
X005205
X005457
X005709
X013311
X013563
X013815
X014067
X014319
X014571
X014823
X015075
X015327
X015579
X015831
X016083
X032596Y005728
X032848
X033100
X033352
X033604
X039132
X039384
X039636
X039888
X040140
X045646
X045898
X046150
X046402
X046654
X002758Y039262
X002506
X002254
X002002
X000449Y039252
X000197
T10
X024213Y011555
T11
X025676Y007745
X032369
X034987Y011032
Y021662
X022389
Y011032
T12
X024213Y019429
T13
X001201Y039587
T14
X022330Y007685
X035715Y007685
X022330Y025008
X035715
M30
