G04*
G04 #@! TF.GenerationSoftware,Altium Limited,Altium Designer,24.10.1 (45)*
G04*
G04 Layer_Color=32768*
%FSAX25Y25*%
%MOIN*%
G70*
G04*
G04 #@! TF.SameCoordinates,EC905C38-5B55-41C3-8357-A0E4B0657E30*
G04*
G04*
G04 #@! TF.FilePolarity,Positive*
G04*
G01*
G75*
%ADD120C,0.00197*%
D120*
X0353248Y0044094D02*
G03*
X0353248Y0044094I-0002756J0000000D01*
G01*
X0341240D02*
G03*
X0341240Y0044094I-0002756J0000000D01*
G01*
X0342224Y0065847D02*
G03*
X0342224Y0065847I-0002756J0000000D01*
G01*
X0090945Y0004823D02*
G03*
X0090945Y0004823I-0002756J0000000D01*
G01*
X0202362Y0046850D02*
G03*
X0202362Y0046850I-0002756J0000000D01*
G01*
X0181791Y0046358D02*
G03*
X0181791Y0046358I-0002756J0000000D01*
G01*
X0181890Y0058366D02*
G03*
X0181890Y0058366I-0002756J0000000D01*
G01*
X0256791Y0071063D02*
G03*
X0256791Y0071063I-0002756J0000000D01*
G01*
Y0042520D02*
G03*
X0256791Y0042520I-0002756J0000000D01*
G01*
X0294685Y0066732D02*
G03*
X0294685Y0066732I-0002756J0000000D01*
G01*
X0312795Y0040551D02*
G03*
X0312795Y0040551I-0002756J0000000D01*
G01*
Y0048622D02*
G03*
X0312795Y0048622I-0002756J0000000D01*
G01*
X0309350Y0067421D02*
G03*
X0309350Y0067421I-0002756J0000000D01*
G01*
X0187402Y0018898D02*
G03*
X0187402Y0018898I-0002756J0000000D01*
G01*
X0198031Y0009055D02*
G03*
X0198031Y0009055I-0002756J0000000D01*
G01*
X0183465Y0035039D02*
G03*
X0183465Y0035039I-0002756J0000000D01*
G01*
X0128642Y0031791D02*
G03*
X0128642Y0031791I-0002756J0000000D01*
G01*
X0109941Y0004823D02*
G03*
X0109941Y0004823I-0002756J0000000D01*
G01*
X0100591D02*
G03*
X0100591Y0004823I-0002756J0000000D01*
G01*
X0273819Y0072146D02*
G03*
X0273819Y0072146I-0002756J0000000D01*
G01*
X0323622Y0046457D02*
Y0050394D01*
X0331102Y0046457D02*
Y0050394D01*
X0323622Y0046457D02*
X0331102D01*
X0323622Y0050394D02*
X0331102D01*
X0323721Y0068701D02*
X0331004D01*
X0323721Y0064961D02*
X0331004D01*
Y0068701D01*
X0323721Y0064961D02*
Y0068701D01*
Y0064961D02*
X0331004D01*
X0323721Y0061220D02*
X0331004D01*
Y0064961D01*
X0323721Y0061220D02*
Y0064961D01*
X0330118Y0061221D02*
X0337402D01*
X0330118Y0057480D02*
X0337402D01*
Y0061221D01*
X0330118Y0057480D02*
Y0061221D01*
X0102657Y0010335D02*
X0109941D01*
X0102657Y0014075D02*
X0109941D01*
X0102657Y0010335D02*
Y0014075D01*
X0109941Y0010335D02*
Y0014075D01*
X0095374Y0013976D02*
X0102657D01*
X0095374Y0010236D02*
X0102657D01*
Y0013976D01*
X0095374Y0010236D02*
Y0013976D01*
X0085728D02*
X0093012D01*
X0085728Y0010236D02*
X0093012D01*
Y0013976D01*
X0085728Y0010236D02*
Y0013976D01*
X0207480Y0071161D02*
X0214764D01*
X0207480Y0074902D02*
X0214764D01*
X0207480Y0071161D02*
Y0074902D01*
X0214764Y0071161D02*
Y0074902D01*
X0146949Y0015059D02*
Y0022343D01*
X0150689Y0015059D02*
Y0022343D01*
X0146949D02*
X0150689D01*
X0146949Y0015059D02*
X0150689D01*
Y0026575D02*
X0170768D01*
Y0010827D02*
Y0026575D01*
X0150689Y0010827D02*
X0170768D01*
X0150689D02*
Y0026575D01*
X0106595Y0035531D02*
Y0043012D01*
X0110531Y0035531D02*
Y0043012D01*
X0106595D02*
X0110531D01*
X0106595Y0035531D02*
X0110531D01*
X0084055Y0014075D02*
X0106102D01*
X0084055Y0044783D02*
X0106102D01*
Y0014075D02*
Y0044783D01*
X0084055Y0014075D02*
Y0044783D01*
X0086909Y0049016D02*
Y0060827D01*
X0092815Y0049016D02*
Y0060827D01*
X0086909D02*
X0092815D01*
X0086909Y0049016D02*
X0092815D01*
X0115059Y0062008D02*
X0126870D01*
X0115059Y0056102D02*
X0126870D01*
Y0062008D01*
X0115059Y0056102D02*
Y0062008D01*
X0110630Y0031201D02*
X0116535D01*
X0110630Y0043012D02*
X0116535D01*
Y0031201D02*
Y0043012D01*
X0110630Y0031201D02*
Y0043012D01*
X0374803Y0042520D02*
X0394488D01*
X0374803Y0017323D02*
Y0042520D01*
Y0017323D02*
X0394488D01*
Y0042520D01*
X0095276Y0049016D02*
X0101181D01*
X0095276Y0060827D02*
X0101181D01*
Y0049016D02*
Y0060827D01*
X0095276Y0049016D02*
Y0060827D01*
X0201476Y0064173D02*
X0207382D01*
X0201476Y0075984D02*
X0207382D01*
Y0064173D02*
Y0075984D01*
X0201476Y0064173D02*
Y0075984D01*
X0250787Y0046161D02*
Y0053445D01*
X0247047Y0046161D02*
Y0053445D01*
Y0046161D02*
X0250787D01*
X0247047Y0053445D02*
X0250787D01*
X0247047Y0060532D02*
Y0067815D01*
X0250787Y0060532D02*
Y0067815D01*
X0247047D02*
X0250787D01*
X0247047Y0060532D02*
X0250787D01*
X0262697Y0048524D02*
Y0055807D01*
X0266437Y0048524D02*
Y0055807D01*
X0262697D02*
X0266437D01*
X0262697Y0048524D02*
X0266437D01*
X0262697Y0059744D02*
Y0067028D01*
X0266437Y0059744D02*
Y0067028D01*
X0262697D02*
X0266437D01*
X0262697Y0059744D02*
X0266437D01*
X0251083Y0056299D02*
X0262106D01*
Y0046850D02*
Y0056299D01*
X0251083Y0046850D02*
X0262106D01*
X0251083D02*
Y0056299D01*
Y0067126D02*
X0262106D01*
Y0057677D02*
Y0067126D01*
X0251083Y0057677D02*
X0262106D01*
X0251083D02*
Y0067126D01*
X0171358Y0057874D02*
X0175295D01*
X0171358Y0050394D02*
X0175295D01*
X0171358D02*
Y0057874D01*
X0175295Y0050394D02*
Y0057874D01*
X0167717Y0057874D02*
Y0065158D01*
X0171457Y0057874D02*
Y0065158D01*
X0167717D02*
X0171457D01*
X0167717Y0057874D02*
X0171457D01*
X0175197D02*
Y0065158D01*
X0171457Y0057874D02*
Y0065158D01*
Y0057874D02*
X0175197D01*
X0171457Y0065158D02*
X0175197D01*
X0129134Y0026378D02*
Y0033661D01*
X0132874Y0026378D02*
Y0033661D01*
X0129134D02*
X0132874D01*
X0129134Y0026378D02*
X0132874D01*
X0126279Y0014961D02*
Y0025984D01*
X0135728D01*
Y0014961D02*
Y0025984D01*
X0126279Y0014961D02*
X0135728D01*
X0154429Y0064075D02*
X0158366D01*
X0154429Y0056595D02*
X0158366D01*
X0154429D02*
Y0064075D01*
X0158366Y0056595D02*
Y0064075D01*
X0143110Y0050689D02*
X0150591D01*
X0143110Y0046752D02*
X0150591D01*
Y0050689D01*
X0143110Y0046752D02*
Y0050689D01*
X0150492Y0050787D02*
Y0058071D01*
X0146752Y0050787D02*
Y0058071D01*
Y0050787D02*
X0150492D01*
X0146752Y0058071D02*
X0150492D01*
X0132874Y0026378D02*
Y0033661D01*
X0136614Y0026378D02*
Y0033661D01*
X0132874D02*
X0136614D01*
X0132874Y0026378D02*
X0136614D01*
X0135433Y0011909D02*
X0142717D01*
X0135433Y0008169D02*
X0142717D01*
Y0011909D01*
X0135433Y0008169D02*
Y0011909D01*
X0163779Y0065453D02*
X0167717D01*
X0163779Y0057972D02*
X0167717D01*
X0163779D02*
Y0065453D01*
X0167717Y0057972D02*
Y0065453D01*
X0167421Y0050590D02*
X0171358D01*
X0167421Y0043110D02*
X0171358D01*
X0167421D02*
Y0050590D01*
X0171358Y0043110D02*
Y0050590D01*
X0167618Y0050591D02*
Y0057874D01*
X0171358Y0050591D02*
Y0057874D01*
X0167618D02*
X0171358D01*
X0167618Y0050591D02*
X0171358D01*
X0214862Y0064173D02*
X0220768D01*
X0214862Y0075984D02*
X0220768D01*
Y0064173D02*
Y0075984D01*
X0214862Y0064173D02*
Y0075984D01*
X0073622Y0052067D02*
Y0057972D01*
X0061811Y0052067D02*
Y0057972D01*
X0073622D01*
X0061811Y0052067D02*
X0073622D01*
M02*
