G04*
G04 #@! TF.GenerationSoftware,Altium Limited,Altium Designer,24.10.1 (45)*
G04*
G04 Layer_Color=128*
%FSAX25Y25*%
%MOIN*%
G70*
G04*
G04 #@! TF.SameCoordinates,EC905C38-5B55-41C3-8357-A0E4B0657E30*
G04*
G04*
G04 #@! TF.FilePolarity,Positive*
G04*
G01*
G75*
G04:AMPARAMS|DCode=25|XSize=37.4mil|YSize=41.34mil|CornerRadius=9.35mil|HoleSize=0mil|Usage=FLASHONLY|Rotation=0.000|XOffset=0mil|YOffset=0mil|HoleType=Round|Shape=RoundedRectangle|*
%AMROUNDEDRECTD25*
21,1,0.03740,0.02264,0,0,0.0*
21,1,0.01870,0.04134,0,0,0.0*
1,1,0.01870,0.00935,-0.01132*
1,1,0.01870,-0.00935,-0.01132*
1,1,0.01870,-0.00935,0.01132*
1,1,0.01870,0.00935,0.01132*
%
%ADD25ROUNDEDRECTD25*%
G04:AMPARAMS|DCode=26|XSize=39.37mil|YSize=35.43mil|CornerRadius=8.86mil|HoleSize=0mil|Usage=FLASHONLY|Rotation=270.000|XOffset=0mil|YOffset=0mil|HoleType=Round|Shape=RoundedRectangle|*
%AMROUNDEDRECTD26*
21,1,0.03937,0.01772,0,0,270.0*
21,1,0.02165,0.03543,0,0,270.0*
1,1,0.01772,-0.00886,-0.01083*
1,1,0.01772,-0.00886,0.01083*
1,1,0.01772,0.00886,0.01083*
1,1,0.01772,0.00886,-0.01083*
%
%ADD26ROUNDEDRECTD26*%
G04:AMPARAMS|DCode=27|XSize=23.62mil|YSize=23.62mil|CornerRadius=5.91mil|HoleSize=0mil|Usage=FLASHONLY|Rotation=270.000|XOffset=0mil|YOffset=0mil|HoleType=Round|Shape=RoundedRectangle|*
%AMROUNDEDRECTD27*
21,1,0.02362,0.01181,0,0,270.0*
21,1,0.01181,0.02362,0,0,270.0*
1,1,0.01181,-0.00591,-0.00591*
1,1,0.01181,-0.00591,0.00591*
1,1,0.01181,0.00591,0.00591*
1,1,0.01181,0.00591,-0.00591*
%
%ADD27ROUNDEDRECTD27*%
G04:AMPARAMS|DCode=29|XSize=25.2mil|YSize=25.2mil|CornerRadius=6.3mil|HoleSize=0mil|Usage=FLASHONLY|Rotation=180.000|XOffset=0mil|YOffset=0mil|HoleType=Round|Shape=RoundedRectangle|*
%AMROUNDEDRECTD29*
21,1,0.02520,0.01260,0,0,180.0*
21,1,0.01260,0.02520,0,0,180.0*
1,1,0.01260,-0.00630,0.00630*
1,1,0.01260,0.00630,0.00630*
1,1,0.01260,0.00630,-0.00630*
1,1,0.01260,-0.00630,-0.00630*
%
%ADD29ROUNDEDRECTD29*%
G04:AMPARAMS|DCode=30|XSize=25.2mil|YSize=25.2mil|CornerRadius=6.3mil|HoleSize=0mil|Usage=FLASHONLY|Rotation=270.000|XOffset=0mil|YOffset=0mil|HoleType=Round|Shape=RoundedRectangle|*
%AMROUNDEDRECTD30*
21,1,0.02520,0.01260,0,0,270.0*
21,1,0.01260,0.02520,0,0,270.0*
1,1,0.01260,-0.00630,-0.00630*
1,1,0.01260,-0.00630,0.00630*
1,1,0.01260,0.00630,0.00630*
1,1,0.01260,0.00630,-0.00630*
%
%ADD30ROUNDEDRECTD30*%
%ADD42O,0.01772X0.05512*%
G04:AMPARAMS|DCode=47|XSize=23.62mil|YSize=23.62mil|CornerRadius=5.91mil|HoleSize=0mil|Usage=FLASHONLY|Rotation=0.000|XOffset=0mil|YOffset=0mil|HoleType=Round|Shape=RoundedRectangle|*
%AMROUNDEDRECTD47*
21,1,0.02362,0.01181,0,0,0.0*
21,1,0.01181,0.02362,0,0,0.0*
1,1,0.01181,0.00591,-0.00591*
1,1,0.01181,-0.00591,-0.00591*
1,1,0.01181,-0.00591,0.00591*
1,1,0.01181,0.00591,0.00591*
%
%ADD47ROUNDEDRECTD47*%
G04:AMPARAMS|DCode=51|XSize=39.37mil|YSize=35.43mil|CornerRadius=8.86mil|HoleSize=0mil|Usage=FLASHONLY|Rotation=0.000|XOffset=0mil|YOffset=0mil|HoleType=Round|Shape=RoundedRectangle|*
%AMROUNDEDRECTD51*
21,1,0.03937,0.01772,0,0,0.0*
21,1,0.02165,0.03543,0,0,0.0*
1,1,0.01772,0.01083,-0.00886*
1,1,0.01772,-0.01083,-0.00886*
1,1,0.01772,-0.01083,0.00886*
1,1,0.01772,0.01083,0.00886*
%
%ADD51ROUNDEDRECTD51*%
G04:AMPARAMS|DCode=111|XSize=62.99mil|YSize=59.06mil|CornerRadius=14.76mil|HoleSize=0mil|Usage=FLASHONLY|Rotation=270.000|XOffset=0mil|YOffset=0mil|HoleType=Round|Shape=RoundedRectangle|*
%AMROUNDEDRECTD111*
21,1,0.06299,0.02953,0,0,270.0*
21,1,0.03347,0.05906,0,0,270.0*
1,1,0.02953,-0.01476,-0.01673*
1,1,0.02953,-0.01476,0.01673*
1,1,0.02953,0.01476,0.01673*
1,1,0.02953,0.01476,-0.01673*
%
%ADD111ROUNDEDRECTD111*%
G04:AMPARAMS|DCode=112|XSize=47.24mil|YSize=47.24mil|CornerRadius=11.81mil|HoleSize=0mil|Usage=FLASHONLY|Rotation=270.000|XOffset=0mil|YOffset=0mil|HoleType=Round|Shape=RoundedRectangle|*
%AMROUNDEDRECTD112*
21,1,0.04724,0.02362,0,0,270.0*
21,1,0.02362,0.04724,0,0,270.0*
1,1,0.02362,-0.01181,-0.01181*
1,1,0.02362,-0.01181,0.01181*
1,1,0.02362,0.01181,0.01181*
1,1,0.02362,0.01181,-0.01181*
%
%ADD112ROUNDEDRECTD112*%
G04:AMPARAMS|DCode=113|XSize=18.5mil|YSize=23.62mil|CornerRadius=4.63mil|HoleSize=0mil|Usage=FLASHONLY|Rotation=270.000|XOffset=0mil|YOffset=0mil|HoleType=Round|Shape=RoundedRectangle|*
%AMROUNDEDRECTD113*
21,1,0.01850,0.01437,0,0,270.0*
21,1,0.00925,0.02362,0,0,270.0*
1,1,0.00925,-0.00719,-0.00463*
1,1,0.00925,-0.00719,0.00463*
1,1,0.00925,0.00719,0.00463*
1,1,0.00925,0.00719,-0.00463*
%
%ADD113ROUNDEDRECTD113*%
G04:AMPARAMS|DCode=114|XSize=18.5mil|YSize=23.62mil|CornerRadius=4.63mil|HoleSize=0mil|Usage=FLASHONLY|Rotation=0.000|XOffset=0mil|YOffset=0mil|HoleType=Round|Shape=RoundedRectangle|*
%AMROUNDEDRECTD114*
21,1,0.01850,0.01437,0,0,0.0*
21,1,0.00925,0.02362,0,0,0.0*
1,1,0.00925,0.00463,-0.00719*
1,1,0.00925,-0.00463,-0.00719*
1,1,0.00925,-0.00463,0.00719*
1,1,0.00925,0.00463,0.00719*
%
%ADD114ROUNDEDRECTD114*%
D25*
X0113583Y0034252D02*
D03*
Y0039961D02*
D03*
X0204429Y0067224D02*
D03*
Y0072933D02*
D03*
X0217815Y0067224D02*
D03*
Y0072933D02*
D03*
D26*
X0064567Y0055020D02*
D03*
X0124114Y0059055D02*
D03*
X0117815D02*
D03*
X0070866Y0055020D02*
D03*
D27*
X0329134Y0066831D02*
D03*
X0325591D02*
D03*
X0329134Y0063090D02*
D03*
X0325591D02*
D03*
X0335531Y0059350D02*
D03*
X0331988D02*
D03*
X0104527Y0012205D02*
D03*
X0108071D02*
D03*
X0100787Y0012106D02*
D03*
X0097244D02*
D03*
X0091142D02*
D03*
X0087598D02*
D03*
X0209350Y0073032D02*
D03*
X0212894D02*
D03*
X0137303Y0010039D02*
D03*
X0140847D02*
D03*
D29*
X0108563Y0041083D02*
D03*
Y0037461D02*
D03*
X0173327Y0055945D02*
D03*
Y0052323D02*
D03*
X0156398Y0058524D02*
D03*
Y0062146D02*
D03*
X0165748Y0063524D02*
D03*
Y0059902D02*
D03*
X0169390Y0048661D02*
D03*
Y0045039D02*
D03*
D30*
X0325551Y0048425D02*
D03*
X0329173D02*
D03*
X0148661Y0048720D02*
D03*
X0145039D02*
D03*
D42*
X0104035Y0017815D02*
D03*
X0101476D02*
D03*
X0098917D02*
D03*
X0096358D02*
D03*
X0093799D02*
D03*
X0091240D02*
D03*
X0088681D02*
D03*
X0086122D02*
D03*
X0104035Y0041043D02*
D03*
X0101476D02*
D03*
X0098917D02*
D03*
X0096358D02*
D03*
X0093799D02*
D03*
X0091240D02*
D03*
X0088681D02*
D03*
X0086122D02*
D03*
D47*
X0148819Y0020472D02*
D03*
Y0016929D02*
D03*
X0248917Y0048031D02*
D03*
Y0051575D02*
D03*
X0248917Y0065945D02*
D03*
Y0062402D02*
D03*
X0264567Y0053937D02*
D03*
Y0050394D02*
D03*
Y0065158D02*
D03*
Y0061614D02*
D03*
X0169587Y0063287D02*
D03*
Y0059744D02*
D03*
X0173327Y0059744D02*
D03*
Y0063287D02*
D03*
X0131004Y0031791D02*
D03*
Y0028248D02*
D03*
X0148622Y0056201D02*
D03*
Y0052658D02*
D03*
X0134744Y0031791D02*
D03*
Y0028248D02*
D03*
X0169488Y0056004D02*
D03*
Y0052461D02*
D03*
D51*
X0089862Y0058071D02*
D03*
X0098228D02*
D03*
X0089862Y0051772D02*
D03*
X0098228D02*
D03*
D111*
X0154626Y0018701D02*
D03*
D112*
X0167421Y0014764D02*
D03*
Y0022638D02*
D03*
D113*
X0252854Y0051575D02*
D03*
X0260335Y0054134D02*
D03*
Y0049016D02*
D03*
X0252854Y0062402D02*
D03*
X0260335Y0064961D02*
D03*
Y0059842D02*
D03*
D114*
X0131004Y0016732D02*
D03*
X0128445Y0024213D02*
D03*
X0133563D02*
D03*
M02*
