G04*
G04 #@! TF.GenerationSoftware,Altium Limited,Altium Designer,22.4.2 (48)*
G04*
G04 Layer_Color=128*
%FSAX24Y24*%
%MOIN*%
G70*
G04*
G04 #@! TF.SameCoordinates,AB5D8D99-9076-4583-ABAD-60FF7F719BC9*
G04*
G04*
G04 #@! TF.FilePolarity,Positive*
G04*
G01*
G75*
%ADD68C,0.0020*%
D68*
X033622Y025591D02*
X034882D01*
X034252Y024961D02*
Y026220D01*
X033622Y001969D02*
X034882D01*
X034252Y001339D02*
Y002598D01*
X005276Y001969D02*
X006535D01*
X005906Y001339D02*
Y002598D01*
X005276Y025591D02*
X006535D01*
X005906Y024961D02*
Y026220D01*
X017874Y005118D02*
X019134D01*
X018504Y004488D02*
Y005748D01*
X004488Y005118D02*
X005748D01*
X005118Y004488D02*
Y005748D01*
X017874Y022441D02*
X019134D01*
X018504Y021811D02*
Y023071D01*
X004488Y022441D02*
X005748D01*
X005118Y021811D02*
Y023071D01*
X007687Y005059D02*
X008081D01*
X007884Y004862D02*
Y005256D01*
X015541Y005059D02*
X015935D01*
X015738Y004862D02*
Y005256D01*
X008169Y005846D02*
X008760D01*
X008465Y005551D02*
Y006142D01*
X014862Y005846D02*
X015453D01*
X015157Y005551D02*
Y006142D01*
X004862Y019675D02*
X005256D01*
X005059Y019478D02*
Y019872D01*
X004862Y007884D02*
X005256D01*
X005059Y007687D02*
Y008081D01*
X005551Y019094D02*
X006142D01*
X005846Y018799D02*
Y019390D01*
X005551Y008465D02*
X006142D01*
X005846Y008169D02*
Y008760D01*
X017461Y019675D02*
X017854D01*
X017657Y019478D02*
Y019872D01*
X017461Y007884D02*
X017854D01*
X017657Y007687D02*
Y008081D01*
X018150Y019094D02*
X018740D01*
X018445Y018799D02*
Y019390D01*
X018150Y008465D02*
X018740D01*
X018445Y008169D02*
Y008760D01*
X013316Y010955D02*
X013396D01*
X013356Y010915D02*
Y010995D01*
X013636Y010941D02*
X013716D01*
X013676Y010901D02*
Y010981D01*
X013363Y011873D02*
X013443D01*
X013403Y011833D02*
Y011913D01*
X013976Y011250D02*
X014056D01*
X014016Y011210D02*
Y011290D01*
X013946Y010630D02*
X014026D01*
X013986Y010590D02*
Y010670D01*
X013676Y010616D02*
X013756D01*
X013716Y010576D02*
Y010656D01*
X012952Y023228D02*
X013032D01*
X012992Y023188D02*
Y023268D01*
X013740Y023228D02*
X013820D01*
X013780Y023188D02*
Y023268D01*
X016102Y023228D02*
X016182D01*
X016142Y023188D02*
Y023268D01*
X015314Y023228D02*
X015394D01*
X015354Y023188D02*
Y023268D01*
X015708Y021654D02*
X015788D01*
X015748Y021614D02*
Y021694D01*
X014921Y021654D02*
X015001D01*
X014961Y021614D02*
Y021694D01*
X012558Y021654D02*
X012638D01*
X012598Y021614D02*
Y021694D01*
X011771Y021654D02*
X011851D01*
X011811Y021614D02*
Y021694D01*
X009409Y021654D02*
X009489D01*
X009449Y021614D02*
Y021694D01*
X008621Y021654D02*
X008701D01*
X008661Y021614D02*
Y021694D01*
X010196Y023228D02*
X010276D01*
X010236Y023188D02*
Y023268D01*
X009409Y023228D02*
X009489D01*
X009449Y023188D02*
Y023268D01*
X006653Y004331D02*
X006733D01*
X006693Y004291D02*
Y004371D01*
X004320Y006693D02*
X004400D01*
X004360Y006653D02*
Y006733D01*
X004320Y008661D02*
X004400D01*
X004360Y008621D02*
Y008701D01*
X004320Y009449D02*
X004400D01*
X004360Y009409D02*
Y009489D01*
X004320Y010236D02*
X004400D01*
X004360Y010196D02*
Y010276D01*
X004320Y011024D02*
X004400D01*
X004360Y010984D02*
Y011064D01*
X005157Y011614D02*
X005237D01*
X005197Y011574D02*
Y011654D01*
X005157Y010827D02*
X005237D01*
X005197Y010787D02*
Y010867D01*
X004320Y011811D02*
X004400D01*
X004360Y011771D02*
Y011851D01*
X019251Y007874D02*
X019331D01*
X019291Y007834D02*
Y007914D01*
X019251Y007087D02*
X019331D01*
X019291Y007047D02*
Y007127D01*
X019251Y013386D02*
X019331D01*
X019291Y013346D02*
Y013426D01*
X019251Y012599D02*
X019331D01*
X019291Y012559D02*
Y012639D01*
X019251Y011811D02*
X019331D01*
X019291Y011771D02*
Y011851D01*
X015708Y004331D02*
X015788D01*
X015748Y004291D02*
Y004371D01*
X014921Y004331D02*
X015001D01*
X014961Y004291D02*
Y004371D01*
X009409Y004331D02*
X009489D01*
X009449Y004291D02*
Y004371D01*
X019251Y017717D02*
X019331D01*
X019291Y017677D02*
Y017757D01*
X019251Y018504D02*
X019331D01*
X019291Y018464D02*
Y018544D01*
X019251Y019291D02*
X019331D01*
X019291Y019251D02*
Y019331D01*
X019251Y020079D02*
X019331D01*
X019291Y020039D02*
Y020119D01*
X019251Y020866D02*
X019331D01*
X019291Y020826D02*
Y020906D01*
X016889Y023228D02*
X016969D01*
X016929Y023188D02*
Y023268D01*
X006653Y023228D02*
X006733D01*
X006693Y023188D02*
Y023268D01*
X004291Y019291D02*
X004371D01*
X004331Y019251D02*
Y019331D01*
X004291Y020079D02*
X004371D01*
X004331Y020039D02*
Y020119D01*
X004291Y020866D02*
X004371D01*
X004331Y020826D02*
Y020906D01*
X011269Y016033D02*
X011349D01*
X011309Y015993D02*
Y016073D01*
X011044Y016032D02*
X011124D01*
X011084Y015992D02*
Y016072D01*
X010511Y016319D02*
X010591D01*
X010551Y016279D02*
Y016359D01*
X011131Y016939D02*
X011211D01*
X011171Y016899D02*
Y016979D01*
X013021Y011555D02*
X013101D01*
X013061Y011515D02*
Y011595D01*
X012076Y012215D02*
X012156D01*
X012116Y012175D02*
Y012255D01*
X017894Y012351D02*
X017974D01*
X017934Y012311D02*
Y012391D01*
X012608Y013711D02*
X012688D01*
X012648Y013671D02*
Y013751D01*
X016916Y013057D02*
X016996D01*
X016956Y013017D02*
Y013097D01*
X017775Y016119D02*
X017855D01*
X017815Y016079D02*
Y016159D01*
X017767Y016998D02*
X017847D01*
X017807Y016958D02*
Y017038D01*
X017776Y017600D02*
X017856D01*
X017816Y017560D02*
Y017640D01*
X013346Y013474D02*
X013426D01*
X013386Y013434D02*
Y013514D01*
X013661Y011870D02*
X013741D01*
X013701Y011830D02*
Y011910D01*
X013046Y012186D02*
X013126D01*
X013086Y012146D02*
Y012226D01*
X013680Y012205D02*
X013760D01*
X013720Y012165D02*
Y012245D01*
X013651Y011575D02*
X013731D01*
X013691Y011535D02*
Y011615D01*
X013964Y011553D02*
X014044D01*
X014004Y011513D02*
Y011593D01*
X012706Y012515D02*
X012786D01*
X012746Y012475D02*
Y012555D01*
X012719Y012826D02*
X012799D01*
X012759Y012786D02*
Y012866D01*
X014669Y013462D02*
X014749D01*
X014709Y013422D02*
Y013502D01*
X014594Y012832D02*
X014674D01*
X014634Y012792D02*
Y012872D01*
X014607Y013145D02*
X014687D01*
X014647Y013105D02*
Y013185D01*
X015226Y012832D02*
X015306D01*
X015266Y012792D02*
Y012872D01*
X014594Y012517D02*
X014674D01*
X014634Y012477D02*
Y012557D01*
X015226Y012517D02*
X015306D01*
X015266Y012477D02*
Y012557D01*
X017864Y015057D02*
X017944D01*
X017904Y015017D02*
Y015097D01*
X017767Y014871D02*
X017847D01*
X017807Y014831D02*
Y014911D01*
X017767Y014661D02*
X017847D01*
X017807Y014621D02*
Y014701D01*
X017772Y015246D02*
X017852D01*
X017812Y015206D02*
Y015286D01*
X017772Y015456D02*
X017852D01*
X017812Y015416D02*
Y015496D01*
X018188Y014006D02*
X018268D01*
X018228Y013966D02*
Y014046D01*
X018368Y018130D02*
X018448D01*
X018408Y018090D02*
Y018170D01*
X018377Y018340D02*
X018457D01*
X018417Y018300D02*
Y018380D01*
X015078Y017611D02*
X015158D01*
X015118Y017571D02*
Y017651D01*
X008343Y011139D02*
X008423D01*
X008383Y011099D02*
Y011179D01*
X008839Y010999D02*
X008919D01*
X008879Y010959D02*
Y011039D01*
X009566Y011260D02*
X009646D01*
X009606Y011220D02*
Y011300D01*
X009534Y010942D02*
X009614D01*
X009574Y010902D02*
Y010982D01*
X009864Y010928D02*
X009944D01*
X009904Y010888D02*
Y010968D01*
X009886Y009690D02*
X009966D01*
X009926Y009650D02*
Y009730D01*
X009881Y010279D02*
X009961D01*
X009921Y010239D02*
Y010319D01*
X008129Y009843D02*
X008209D01*
X008169Y009803D02*
Y009883D01*
X009602Y010630D02*
X009682D01*
X009642Y010590D02*
Y010670D01*
X009881Y011260D02*
X009961D01*
X009921Y011220D02*
Y011300D01*
X009865Y011565D02*
X009945D01*
X009905Y011525D02*
Y011605D01*
X010231Y011575D02*
X010311D01*
X010271Y011535D02*
Y011615D01*
X009113Y018664D02*
X009193D01*
X009153Y018624D02*
Y018704D01*
X009254Y013484D02*
X009334D01*
X009294Y013444D02*
Y013524D01*
X008939Y013463D02*
X009019D01*
X008979Y013423D02*
Y013503D01*
X009540Y011567D02*
X009620D01*
X009580Y011527D02*
Y011607D01*
X017028Y006475D02*
X017108D01*
X017068Y006435D02*
Y006515D01*
X017180Y006317D02*
X017260D01*
X017220Y006277D02*
Y006357D01*
X016581Y007503D02*
X016661D01*
X016621Y007463D02*
Y007543D01*
X008685Y010157D02*
X008765D01*
X008725Y010117D02*
Y010197D01*
X008698Y011516D02*
X008778D01*
X008738Y011476D02*
Y011556D01*
X008543Y011661D02*
X008623D01*
X008583Y011621D02*
Y011701D01*
X008946Y011565D02*
X009026D01*
X008986Y011525D02*
Y011605D01*
X008943Y011917D02*
X009023D01*
X008983Y011877D02*
Y011957D01*
X008895Y010157D02*
X008975D01*
X008935Y010117D02*
Y010197D01*
X009192Y016772D02*
X009272D01*
X009232Y016732D02*
Y016812D01*
X009254Y016289D02*
X009334D01*
X009294Y016249D02*
Y016329D01*
X011456Y016604D02*
X011536D01*
X011496Y016564D02*
Y016644D01*
X010510Y016925D02*
X010590D01*
X010550Y016885D02*
Y016965D01*
X010820Y016929D02*
X010900D01*
X010860Y016889D02*
Y016969D01*
X010826Y013648D02*
X010906D01*
X010866Y013608D02*
Y013688D01*
X010829Y013432D02*
X010909D01*
X010869Y013392D02*
Y013472D01*
X006633Y014862D02*
X006713D01*
X006673Y014822D02*
Y014902D01*
X006633Y014468D02*
X006713D01*
X006673Y014428D02*
Y014509D01*
X006633Y014075D02*
X006713D01*
X006673Y014035D02*
Y014115D01*
X006633Y013681D02*
X006713D01*
X006673Y013641D02*
Y013721D01*
X006633Y013287D02*
X006713D01*
X006673Y013247D02*
Y013327D01*
X006633Y012894D02*
X006713D01*
X006673Y012854D02*
Y012934D01*
X006631Y012608D02*
X006711D01*
X006671Y012568D02*
Y012648D01*
X006636Y011752D02*
X006716D01*
X006676Y011712D02*
Y011792D01*
X006636Y011469D02*
X006716D01*
X006676Y011429D02*
Y011509D01*
X012086Y007830D02*
X012166D01*
X012126Y007790D02*
Y007870D01*
X011771Y008110D02*
X011851D01*
X011811Y008070D02*
Y008150D01*
X008895Y009213D02*
X008975D01*
X008935Y009173D02*
Y009253D01*
X013675Y010020D02*
X013755D01*
X013715Y009980D02*
Y010060D01*
X013677Y009702D02*
X013757D01*
X013717Y009662D02*
Y009742D01*
X018080Y011476D02*
X018160D01*
X018120Y011436D02*
Y011516D01*
X014005Y022490D02*
X014085D01*
X014045Y022450D02*
Y022530D01*
X014005Y022274D02*
X014085D01*
X014045Y022234D02*
Y022314D01*
X014005Y022057D02*
X014085D01*
X014045Y022017D02*
Y022097D01*
X010993Y022490D02*
X011073D01*
X011033Y022450D02*
Y022530D01*
X010993Y022274D02*
X011073D01*
X011033Y022234D02*
Y022314D01*
X010993Y022057D02*
X011073D01*
X011033Y022017D02*
Y022097D01*
X008001Y022057D02*
X008081D01*
X008041Y022017D02*
Y022097D01*
X008001Y022274D02*
X008081D01*
X008041Y022234D02*
Y022314D01*
X008001Y022490D02*
X008081D01*
X008041Y022450D02*
Y022530D01*
X013454Y023307D02*
X013534D01*
X013494Y023267D02*
Y023347D01*
X007450Y023307D02*
X007530D01*
X007490Y023267D02*
Y023347D01*
X010442Y023307D02*
X010522D01*
X010482Y023267D02*
Y023347D01*
X005161Y010452D02*
X005241D01*
X005201Y010412D02*
Y010492D01*
X008178Y007687D02*
X008259D01*
X008219Y007647D02*
Y007727D01*
X008178Y008002D02*
X008259D01*
X008219Y007962D02*
Y008042D01*
X008001Y007844D02*
X008081D01*
X008041Y007804D02*
Y007884D01*
X008011Y008150D02*
X008091D01*
X008051Y008110D02*
Y008190D01*
X007696Y007982D02*
X007776D01*
X007736Y007942D02*
Y008022D01*
X007698Y008228D02*
X007778D01*
X007738Y008188D02*
Y008268D01*
X007423Y008536D02*
X007503D01*
X007463Y008496D02*
Y008576D01*
X007667Y008474D02*
X007747D01*
X007707Y008434D02*
Y008514D01*
X013454Y022470D02*
X013534D01*
X013494Y022430D02*
Y022510D01*
X013454Y022077D02*
X013534D01*
X013494Y022037D02*
Y022117D01*
X010442Y022470D02*
X010522D01*
X010482Y022430D02*
Y022510D01*
X007450Y022077D02*
X007530D01*
X007490Y022037D02*
Y022117D01*
X007450Y022470D02*
X007530D01*
X007490Y022430D02*
Y022510D01*
X011456Y011572D02*
X011536D01*
X011496Y011532D02*
Y011612D01*
X011456Y011260D02*
X011536D01*
X011496Y011220D02*
Y011300D01*
X012401Y011555D02*
X012481D01*
X012441Y011515D02*
Y011595D01*
X012716Y011555D02*
X012796D01*
X012756Y011515D02*
Y011595D01*
X012716Y011240D02*
X012796D01*
X012756Y011200D02*
Y011280D01*
X012096Y011270D02*
X012176D01*
X012136Y011230D02*
Y011310D01*
X008935Y009684D02*
X009015D01*
X008975Y009644D02*
Y009724D01*
X006633Y018012D02*
X006713D01*
X006673Y017972D02*
Y018052D01*
X006919Y018209D02*
X006999D01*
X006959Y018169D02*
Y018249D01*
X007581Y009313D02*
X007661D01*
X007621Y009273D02*
Y009353D01*
X014950Y023083D02*
X015030D01*
X014990Y023043D02*
Y023123D01*
X014950Y023297D02*
X015030D01*
X014990Y023257D02*
Y023337D01*
X014734Y023297D02*
X014814D01*
X014774Y023257D02*
Y023337D01*
X014517Y023297D02*
X014597D01*
X014557Y023257D02*
Y023337D01*
X014950Y022873D02*
X015030D01*
X014990Y022833D02*
Y022913D01*
X011938Y023083D02*
X012018D01*
X011978Y023043D02*
Y023123D01*
X011938Y023297D02*
X012018D01*
X011978Y023257D02*
Y023337D01*
X011722Y023297D02*
X011802D01*
X011762Y023257D02*
Y023337D01*
X011505Y023297D02*
X011585D01*
X011545Y023257D02*
Y023337D01*
X011938Y022873D02*
X012018D01*
X011978Y022833D02*
Y022913D01*
X008946Y023083D02*
X009026D01*
X008986Y023043D02*
Y023123D01*
X008946Y023297D02*
X009026D01*
X008986Y023257D02*
Y023337D01*
X008730Y023297D02*
X008810D01*
X008770Y023257D02*
Y023337D01*
X008513Y023297D02*
X008593D01*
X008553Y023257D02*
Y023337D01*
X008946Y022873D02*
X009026D01*
X008986Y022833D02*
Y022913D01*
X012086Y010600D02*
X012166D01*
X012126Y010560D02*
Y010640D01*
X011771Y010600D02*
X011851D01*
X011811Y010560D02*
Y010640D01*
X015728Y020392D02*
X015808D01*
X015768Y020352D02*
Y020432D01*
X015728Y020177D02*
X015808D01*
X015768Y020137D02*
Y020217D01*
X015511Y020177D02*
X015591D01*
X015551Y020137D02*
Y020217D01*
X015295Y020177D02*
X015375D01*
X015335Y020137D02*
Y020217D01*
X015728Y020602D02*
X015808D01*
X015768Y020562D02*
Y020642D01*
X012716Y020392D02*
X012796D01*
X012756Y020352D02*
Y020432D01*
X012716Y020177D02*
X012796D01*
X012756Y020137D02*
Y020217D01*
X012499Y020177D02*
X012579D01*
X012539Y020137D02*
Y020217D01*
X012283Y020177D02*
X012363D01*
X012323Y020137D02*
Y020217D01*
X012716Y020602D02*
X012796D01*
X012756Y020562D02*
Y020642D01*
X009724Y020602D02*
X009804D01*
X009764Y020562D02*
Y020642D01*
X009291Y020177D02*
X009371D01*
X009331Y020137D02*
Y020217D01*
X009507Y020177D02*
X009587D01*
X009547Y020137D02*
Y020217D01*
X009724Y020177D02*
X009804D01*
X009764Y020137D02*
Y020217D01*
X009724Y020392D02*
X009804D01*
X009764Y020352D02*
Y020432D01*
X013362Y009702D02*
X013442D01*
X013402Y009662D02*
Y009742D01*
X013346Y009964D02*
X013426D01*
X013386Y009924D02*
Y010004D01*
X013067Y010000D02*
X013147D01*
X013107Y009960D02*
Y010040D01*
X013346Y010320D02*
X013426D01*
X013386Y010280D02*
Y010360D01*
X012694Y009988D02*
X012774D01*
X012734Y009948D02*
Y010028D01*
X012680Y010315D02*
X012760D01*
X012720Y010275D02*
Y010355D01*
X013667Y009384D02*
X013747D01*
X013707Y009344D02*
Y009424D01*
X010493Y011255D02*
X010573D01*
X010533Y011215D02*
Y011295D01*
X010514Y010940D02*
X010594D01*
X010554Y010900D02*
Y010980D01*
X012716Y010981D02*
X012796D01*
X012756Y010941D02*
Y011021D01*
X011141Y011900D02*
X011221D01*
X011181Y011860D02*
Y011940D01*
X011136Y011565D02*
X011216D01*
X011176Y011525D02*
Y011605D01*
X011456Y010630D02*
X011536D01*
X011496Y010590D02*
Y010670D01*
X011141Y010315D02*
X011221D01*
X011181Y010275D02*
Y010355D01*
X011141Y010630D02*
X011221D01*
X011181Y010590D02*
Y010670D01*
X011141Y011280D02*
X011221D01*
X011181Y011240D02*
Y011320D01*
X010821Y010000D02*
X010901D01*
X010861Y009960D02*
Y010040D01*
X010826Y010315D02*
X010906D01*
X010866Y010275D02*
Y010355D01*
X011766Y011604D02*
X011846D01*
X011806Y011564D02*
Y011644D01*
X012088Y011609D02*
X012168D01*
X012127Y011569D02*
Y011649D01*
X011735Y011890D02*
X011815D01*
X011775Y011850D02*
Y011930D01*
X010196Y010945D02*
X010276D01*
X010236Y010905D02*
Y010985D01*
X010856Y011255D02*
X010936D01*
X010896Y011215D02*
Y011295D01*
X012421Y012215D02*
X012501D01*
X012461Y012175D02*
Y012255D01*
X013345Y012239D02*
X013425D01*
X013385Y012199D02*
Y012279D01*
X014281Y011890D02*
X014361D01*
X014321Y011850D02*
Y011930D01*
X014274Y012188D02*
X014354D01*
X014314Y012148D02*
Y012228D01*
X014596Y012205D02*
X014676D01*
X014636Y012165D02*
Y012245D01*
X014283Y012520D02*
X014363D01*
X014323Y012480D02*
Y012560D01*
X014255Y013150D02*
X014335D01*
X014295Y013110D02*
Y013190D01*
X011795Y009675D02*
X011875D01*
X011835Y009635D02*
Y009715D01*
X010196Y009685D02*
X010276D01*
X010236Y009645D02*
Y009725D01*
X012723Y009658D02*
X012803D01*
X012763Y009618D02*
Y009698D01*
X012411Y009665D02*
X012491D01*
X012451Y009625D02*
Y009705D01*
X013001Y010320D02*
X013081D01*
X013041Y010280D02*
Y010360D01*
X013031Y009649D02*
X013111D01*
X013071Y009609D02*
Y009689D01*
X012074Y010005D02*
X012154D01*
X012114Y009965D02*
Y010045D01*
X010201Y009369D02*
X010281D01*
X010241Y009329D02*
Y009409D01*
X009845Y009370D02*
X009925D01*
X009885Y009330D02*
Y009410D01*
X010511Y009370D02*
X010591D01*
X010551Y009330D02*
Y009410D01*
X009845Y009055D02*
X009925D01*
X009885Y009015D02*
Y009095D01*
X010511Y009055D02*
X010591D01*
X010551Y009015D02*
Y009095D01*
X010201Y010320D02*
X010281D01*
X010241Y010280D02*
Y010360D01*
X009251Y008740D02*
X009331D01*
X009291Y008700D02*
Y008780D01*
X009845Y008740D02*
X009925D01*
X009885Y008700D02*
Y008780D01*
X010511Y010000D02*
X010591D01*
X010551Y009960D02*
Y010040D01*
X010201Y009055D02*
X010281D01*
X010241Y009015D02*
Y009095D01*
X010826Y009055D02*
X010906D01*
X010866Y009015D02*
Y009095D01*
X010196Y008425D02*
X010276D01*
X010236Y008385D02*
Y008465D01*
X010196Y008740D02*
X010276D01*
X010236Y008700D02*
Y008780D01*
X009566Y009055D02*
X009646D01*
X009606Y009015D02*
Y009095D01*
X010547Y011575D02*
X010627D01*
X010587Y011535D02*
Y011615D01*
X010826Y010945D02*
X010906D01*
X010866Y010905D02*
Y010985D01*
X013327Y013164D02*
X013407D01*
X013367Y013124D02*
Y013204D01*
X013310Y012835D02*
X013390D01*
X013350Y012795D02*
Y012875D01*
X013683Y012840D02*
X013763D01*
X013723Y012800D02*
Y012880D01*
X013668Y013177D02*
X013748D01*
X013708Y013137D02*
Y013217D01*
X013671Y013740D02*
X013751D01*
X013711Y013700D02*
Y013780D01*
X014645Y019449D02*
X014725D01*
X014685Y019409D02*
Y019489D01*
X014645Y019213D02*
X014725D01*
X014685Y019173D02*
Y019253D01*
X011772Y013489D02*
X011852D01*
X011812Y013449D02*
Y013529D01*
X014281Y011565D02*
X014361D01*
X014321Y011525D02*
Y011605D01*
X017767Y008957D02*
X017847D01*
X017807Y008917D02*
Y008997D01*
X017944Y009392D02*
X018024D01*
X017984Y009352D02*
Y009432D01*
X017962Y010728D02*
X018042D01*
X018002Y010688D02*
Y010768D01*
X019221Y014203D02*
X019301D01*
X019261Y014163D02*
Y014243D01*
X019261Y014911D02*
X019341D01*
X019301Y014871D02*
Y014951D01*
X019261Y016703D02*
X019341D01*
X019301Y016663D02*
Y016743D01*
X019241Y015984D02*
X019321D01*
X019281Y015944D02*
Y016024D01*
X011127Y005478D02*
X011207D01*
X011167Y005438D02*
Y005518D01*
X010295Y004331D02*
X010375D01*
X010335Y004291D02*
Y004371D01*
X011279Y004331D02*
X011359D01*
X011319Y004291D02*
Y004371D01*
X011825Y005208D02*
X011905D01*
X011865Y005168D02*
Y005248D01*
X010302Y005657D02*
X010382D01*
X010342Y005617D02*
Y005697D01*
X005255Y017618D02*
X005335D01*
X005295Y017578D02*
Y017658D01*
X005169Y018209D02*
X005249D01*
X005209Y018169D02*
Y018249D01*
X018041Y007648D02*
X018121D01*
X018081Y007608D02*
Y007688D01*
X017843Y007451D02*
X017923D01*
X017883Y007411D02*
Y007491D01*
X018036Y007338D02*
X018116D01*
X018076Y007298D02*
Y007378D01*
X018119Y006811D02*
X018199D01*
X018159Y006771D02*
Y006851D01*
X016367Y007274D02*
X016447D01*
X016407Y007234D02*
Y007314D01*
X015201Y006395D02*
X015281D01*
X015241Y006355D02*
Y006435D01*
X013249Y004129D02*
X013329D01*
X013289Y004089D02*
Y004169D01*
X012447Y004339D02*
X012527D01*
X012487Y004299D02*
Y004379D01*
X005472Y016230D02*
X005552D01*
X005512Y016190D02*
Y016270D01*
X005757Y015846D02*
X005837D01*
X005797Y015806D02*
Y015886D01*
X005177Y015846D02*
X005257D01*
X005217Y015806D02*
Y015886D01*
X005177Y016634D02*
X005257D01*
X005217Y016594D02*
Y016674D01*
X005767Y016634D02*
X005847D01*
X005807Y016594D02*
Y016674D01*
X013346Y007795D02*
X013426D01*
X013386Y007755D02*
Y007835D01*
X008002Y005639D02*
X008082D01*
X008042Y005599D02*
Y005679D01*
X007854Y005491D02*
X007934D01*
X007894Y005451D02*
Y005531D01*
X005117Y007264D02*
X005197D01*
X005157Y007224D02*
Y007304D01*
X005482Y007264D02*
X005562D01*
X005522Y007224D02*
Y007304D01*
X004930Y007402D02*
X005010D01*
X004970Y007362D02*
Y007442D01*
X005302Y007402D02*
X005382D01*
X005342Y007362D02*
Y007442D01*
X007430Y009475D02*
X007510D01*
X007470Y009435D02*
Y009515D01*
X014238Y005438D02*
X014318D01*
X014278Y005398D02*
Y005478D01*
X014025Y005433D02*
X014105D01*
X014065Y005393D02*
Y005473D01*
X014025Y005217D02*
X014105D01*
X014065Y005177D02*
Y005257D01*
X014235Y005217D02*
X014315D01*
X014275Y005177D02*
Y005257D01*
X014245Y005776D02*
X014325D01*
X014285Y005736D02*
Y005816D01*
X012470Y005472D02*
X012550D01*
X012510Y005432D02*
Y005512D01*
X017214Y006575D02*
X017294D01*
X017254Y006535D02*
Y006615D01*
X016919Y006280D02*
X016999D01*
X016959Y006240D02*
Y006320D01*
X017096Y006122D02*
X017176D01*
X017136Y006082D02*
Y006162D01*
X017367Y006413D02*
X017447D01*
X017407Y006373D02*
Y006453D01*
X016584Y005689D02*
X016664D01*
X016624Y005649D02*
Y005729D01*
X016835Y008032D02*
X016915D01*
X016875Y007992D02*
Y008072D01*
X016689Y008183D02*
X016769D01*
X016729Y008143D02*
Y008223D01*
X016325Y008472D02*
X016405D01*
X016365Y008432D02*
Y008512D01*
X016722Y007667D02*
X016802D01*
X016762Y007627D02*
Y007707D01*
X016688Y007881D02*
X016768D01*
X016728Y007841D02*
Y007921D01*
X016540Y008034D02*
X016620D01*
X016580Y007994D02*
Y008074D01*
X016181Y008319D02*
X016261D01*
X016221Y008279D02*
Y008359D01*
X007852Y006167D02*
X007932D01*
X007892Y006127D02*
Y006207D01*
X007992Y006004D02*
X008072D01*
X008032Y005964D02*
Y006044D01*
X006673Y006732D02*
X006753D01*
X006713Y006692D02*
Y006772D01*
X006898Y006684D02*
X006978D01*
X006938Y006644D02*
Y006724D01*
X006722Y006508D02*
X006802D01*
X006762Y006468D02*
Y006548D01*
X006625Y006958D02*
X006705D01*
X006665Y006918D02*
Y006998D01*
X006448Y006782D02*
X006528D01*
X006488Y006742D02*
Y006822D01*
X010511Y008740D02*
X010591D01*
X010551Y008700D02*
Y008780D01*
X010826Y008110D02*
X010906D01*
X010866Y008070D02*
Y008150D01*
X010826Y007795D02*
X010906D01*
X010866Y007755D02*
Y007835D01*
X009566Y009370D02*
X009646D01*
X009606Y009330D02*
Y009410D01*
X013333Y010630D02*
X013413D01*
X013373Y010590D02*
Y010670D01*
X012999Y010631D02*
X013079D01*
X013039Y010591D02*
Y010671D01*
X013326Y011250D02*
X013406D01*
X013366Y011210D02*
Y011290D01*
X013031Y011260D02*
X013111D01*
X013071Y011220D02*
Y011300D01*
X013001Y010945D02*
X013081D01*
X013041Y010905D02*
Y010985D01*
X017211Y007490D02*
X017291D01*
X017251Y007450D02*
Y007530D01*
X017362Y007303D02*
X017442D01*
X017402Y007263D02*
Y007343D01*
X011445Y017665D02*
X011525D01*
X011485Y017625D02*
Y017705D01*
X011245Y017729D02*
X011325D01*
X011285Y017689D02*
Y017769D01*
X011771Y016614D02*
X011851D01*
X011811Y016574D02*
Y016654D01*
X012086Y008393D02*
X012166D01*
X012126Y008353D02*
Y008433D01*
X012084Y008768D02*
X012164D01*
X012124Y008728D02*
Y008808D01*
X011771Y009037D02*
X011851D01*
X011811Y008997D02*
Y009077D01*
X011456Y009400D02*
X011536D01*
X011496Y009360D02*
Y009440D01*
X011771Y009400D02*
X011851D01*
X011811Y009360D02*
Y009440D01*
X015354Y009311D02*
X015434D01*
X015394Y009271D02*
Y009351D01*
X010984Y019331D02*
X011064D01*
X011024Y019291D02*
Y019371D01*
X010826Y019154D02*
X010906D01*
X010866Y019114D02*
Y019194D01*
X010511Y018839D02*
X010591D01*
X010551Y018799D02*
Y018879D01*
X010196Y018831D02*
X010276D01*
X010236Y018791D02*
Y018871D01*
X010196Y019151D02*
X010276D01*
X010236Y019111D02*
Y019191D01*
X010511Y019154D02*
X010591D01*
X010551Y019114D02*
Y019194D01*
X009251Y019154D02*
X009331D01*
X009291Y019114D02*
Y019194D01*
X013683Y012516D02*
X013763D01*
X013723Y012476D02*
Y012556D01*
X009232Y011882D02*
X009312D01*
X009272Y011841D02*
Y011921D01*
X009562Y011877D02*
X009642D01*
X009602Y011837D02*
Y011917D01*
X009869Y011882D02*
X009949D01*
X009909Y011842D02*
Y011922D01*
X009576Y013504D02*
X009656D01*
X009616Y013464D02*
Y013544D01*
X009564Y013124D02*
X009644D01*
X009604Y013084D02*
Y013164D01*
X010219Y011258D02*
X010299D01*
X010259Y011218D02*
Y011298D01*
X009231Y012195D02*
X009311D01*
X009271Y012155D02*
Y012235D01*
X009593Y012197D02*
X009673D01*
X009633Y012157D02*
Y012237D01*
X011771Y012815D02*
X011851D01*
X011811Y012775D02*
Y012855D01*
X012086Y012844D02*
X012166D01*
X012126Y012804D02*
Y012884D01*
X011456Y012835D02*
X011536D01*
X011496Y012795D02*
Y012875D01*
X006810Y009485D02*
X006890D01*
X006850Y009445D02*
Y009525D01*
X006810Y009695D02*
X006890D01*
X006850Y009655D02*
Y009735D01*
X009251Y012844D02*
X009331D01*
X009291Y012804D02*
Y012884D01*
X009271Y013159D02*
X009351D01*
X009311Y013119D02*
Y013199D01*
X014281Y012825D02*
X014361D01*
X014321Y012785D02*
Y012865D01*
X014921Y017854D02*
X015001D01*
X014961Y017814D02*
Y017894D01*
X014763Y017579D02*
X014843D01*
X014803Y017539D02*
Y017619D01*
X014606Y017858D02*
X014686D01*
X014646Y017818D02*
Y017898D01*
X014448Y017579D02*
X014528D01*
X014488Y017539D02*
Y017619D01*
X014291Y017854D02*
X014371D01*
X014331Y017814D02*
Y017894D01*
X014131Y017578D02*
X014211D01*
X014171Y017538D02*
Y017618D01*
X013976Y017854D02*
X014056D01*
X014016Y017814D02*
Y017894D01*
X013818Y017579D02*
X013898D01*
X013858Y017539D02*
Y017619D01*
X013661Y017854D02*
X013741D01*
X013701Y017814D02*
Y017894D01*
X013503Y017579D02*
X013583D01*
X013543Y017539D02*
Y017619D01*
X013346Y017854D02*
X013426D01*
X013386Y017814D02*
Y017894D01*
X013189Y017578D02*
X013269D01*
X013229Y017538D02*
Y017618D01*
X013031Y017854D02*
X013111D01*
X013071Y017814D02*
Y017894D01*
X012873Y017579D02*
X012953D01*
X012913Y017539D02*
Y017619D01*
X012558Y017579D02*
X012638D01*
X012598Y017539D02*
Y017619D01*
X012716Y017854D02*
X012796D01*
X012756Y017814D02*
Y017894D01*
X012401Y017854D02*
X012481D01*
X012441Y017814D02*
Y017894D01*
X012243Y017579D02*
X012323D01*
X012283Y017539D02*
Y017619D01*
X012086Y017854D02*
X012166D01*
X012126Y017814D02*
Y017894D01*
X011929Y017578D02*
X012009D01*
X011969Y017538D02*
Y017618D01*
X018274Y009154D02*
X018354D01*
X018314Y009114D02*
Y009194D01*
X019323Y009154D02*
X019403D01*
X019363Y009114D02*
Y009194D01*
X019263Y010115D02*
X019343D01*
X019303Y010075D02*
Y010155D01*
X019264Y010344D02*
X019344D01*
X019304Y010304D02*
Y010384D01*
X019224Y009350D02*
X019304D01*
X019264Y009310D02*
Y009390D01*
X019224Y008957D02*
X019304D01*
X019264Y008917D02*
Y008997D01*
X018373Y009350D02*
X018453D01*
X018413Y009310D02*
Y009390D01*
X018373Y008957D02*
X018453D01*
X018413Y008917D02*
Y008997D01*
X015315Y006783D02*
X015395D01*
X015355Y006743D02*
Y006823D01*
X015136Y006604D02*
X015216D01*
X015176Y006564D02*
Y006644D01*
X015344Y006575D02*
X015424D01*
X015384Y006535D02*
Y006615D01*
X015531Y006752D02*
X015611D01*
X015571Y006712D02*
Y006792D01*
X004261Y018573D02*
X004341D01*
X004301Y018533D02*
Y018613D01*
X004257Y017913D02*
X004337D01*
X004297Y017873D02*
Y017953D01*
X005775Y017815D02*
X005855D01*
X005815Y017775D02*
Y017855D01*
X019263Y014667D02*
X019343D01*
X019303Y014627D02*
Y014707D01*
X019261Y014457D02*
X019341D01*
X019301Y014417D02*
Y014497D01*
X008060Y009189D02*
X008140D01*
X008100Y009149D02*
Y009229D01*
X008135Y008976D02*
X008215D01*
X008175Y008936D02*
Y009016D01*
X008326Y009380D02*
X008406D01*
X008366Y009340D02*
Y009420D01*
X008119Y009528D02*
X008199D01*
X008159Y009488D02*
Y009568D01*
X008326Y009685D02*
X008406D01*
X008366Y009645D02*
Y009725D01*
X006810Y009911D02*
X006890D01*
X006850Y009871D02*
Y009951D01*
X005779Y010030D02*
X005859D01*
X005819Y009990D02*
Y010070D01*
X005787Y011217D02*
X005867D01*
X005827Y011177D02*
Y011257D01*
X005511Y017744D02*
X005591D01*
X005551Y017704D02*
Y017784D01*
X005775Y013091D02*
X005855D01*
X005815Y013051D02*
Y013131D01*
X006753Y010256D02*
X006833D01*
X006793Y010216D02*
Y010296D01*
X008720Y009685D02*
X008800D01*
X008760Y009645D02*
Y009725D01*
X012401Y012815D02*
X012481D01*
X012441Y012775D02*
Y012855D01*
X011456Y011890D02*
X011536D01*
X011496Y011850D02*
Y011930D01*
X011427Y012205D02*
X011507D01*
X011467Y012165D02*
Y012245D01*
X011771Y013179D02*
X011851D01*
X011811Y013139D02*
Y013219D01*
X012736Y012205D02*
X012816D01*
X012776Y012165D02*
Y012245D01*
X012401Y012500D02*
X012481D01*
X012441Y012460D02*
Y012540D01*
X011781Y012500D02*
X011861D01*
X011821Y012460D02*
Y012540D01*
X012716Y009370D02*
X012796D01*
X012756Y009330D02*
Y009410D01*
X019261Y016437D02*
X019341D01*
X019301Y016397D02*
Y016477D01*
X019261Y016218D02*
X019341D01*
X019301Y016178D02*
Y016258D01*
X006948Y018593D02*
X007028D01*
X006988Y018553D02*
Y018633D01*
X006633Y018406D02*
X006713D01*
X006673Y018366D02*
Y018446D01*
X005775Y015453D02*
X005855D01*
X005815Y015413D02*
Y015493D01*
X005169Y014862D02*
X005249D01*
X005209Y014822D02*
Y014902D01*
X005789Y012599D02*
X005869D01*
X005829Y012559D02*
Y012639D01*
X013984Y009704D02*
X014064D01*
X014024Y009664D02*
Y009744D01*
X013346Y009380D02*
X013426D01*
X013386Y009340D02*
Y009420D01*
X013983Y009384D02*
X014063D01*
X014023Y009344D02*
Y009424D01*
X013346Y008110D02*
X013426D01*
X013386Y008070D02*
Y008150D01*
X013031Y008740D02*
X013111D01*
X013071Y008700D02*
Y008780D01*
X012086Y008110D02*
X012166D01*
X012126Y008070D02*
Y008150D01*
X012401Y008110D02*
X012481D01*
X012441Y008070D02*
Y008150D01*
X011456Y008110D02*
X011536D01*
X011496Y008070D02*
Y008150D01*
X011141Y008425D02*
X011221D01*
X011181Y008385D02*
Y008465D01*
X012083Y013169D02*
X012163D01*
X012124Y013129D02*
Y013209D01*
X012086Y012490D02*
X012166D01*
X012126Y012450D02*
Y012530D01*
X012401Y013150D02*
X012481D01*
X012441Y013110D02*
Y013190D01*
X011141Y012490D02*
X011221D01*
X011181Y012450D02*
Y012530D01*
X011141Y012205D02*
X011221D01*
X011181Y012165D02*
Y012245D01*
X012716Y016289D02*
X012796D01*
X012756Y016249D02*
Y016329D01*
X013041Y018819D02*
X013121D01*
X013081Y018779D02*
Y018859D01*
X011774Y019142D02*
X011854D01*
X011814Y019102D02*
Y019182D01*
X011774Y016289D02*
X011854D01*
X011814Y016249D02*
Y016329D01*
X010196Y010000D02*
X010276D01*
X010236Y009960D02*
Y010040D01*
X014596Y011575D02*
X014676D01*
X014636Y011535D02*
Y011615D01*
X013346Y012520D02*
X013426D01*
X013386Y012480D02*
Y012560D01*
X014596Y011890D02*
X014676D01*
X014636Y011850D02*
Y011930D01*
X011771Y017854D02*
X011851D01*
X011811Y017814D02*
Y017894D01*
X010826Y012500D02*
X010906D01*
X010866Y012460D02*
Y012540D01*
X010830Y012232D02*
X010910D01*
X010870Y012192D02*
Y012272D01*
X010826Y018189D02*
X010906D01*
X010866Y018149D02*
Y018229D01*
X011141Y018189D02*
X011221D01*
X011181Y018149D02*
Y018229D01*
X008943Y013153D02*
X009023D01*
X008983Y013113D02*
Y013193D01*
X010301Y017362D02*
X010381D01*
X010341Y017322D02*
Y017402D01*
X010155Y017515D02*
X010235D01*
X010195Y017475D02*
Y017555D01*
X010826Y012835D02*
X010906D01*
X010866Y012795D02*
Y012875D01*
X010511Y017244D02*
X010591D01*
X010551Y017204D02*
Y017284D01*
X009881Y013465D02*
X009961D01*
X009921Y013425D02*
Y013505D01*
X010826Y011900D02*
X010906D01*
X010866Y011860D02*
Y011940D01*
X011456Y013465D02*
X011536D01*
X011496Y013425D02*
Y013505D01*
X010196Y013465D02*
X010276D01*
X010236Y013425D02*
Y013505D01*
X010511Y011900D02*
X010591D01*
X010551Y011860D02*
Y011940D01*
X011456Y013150D02*
X011536D01*
X011496Y013110D02*
Y013190D01*
X010511Y012835D02*
X010591D01*
X010551Y012795D02*
Y012875D01*
X010826Y013150D02*
X010906D01*
X010866Y013110D02*
Y013190D01*
X011072Y017864D02*
X011152D01*
X011112Y017824D02*
Y017904D01*
X011141Y018819D02*
X011221D01*
X011181Y018779D02*
Y018859D01*
X010196Y012520D02*
X010276D01*
X010236Y012480D02*
Y012560D01*
X010590Y017864D02*
X010670D01*
X010630Y017824D02*
Y017904D01*
X011456Y018189D02*
X011536D01*
X011496Y018149D02*
Y018229D01*
X009566Y012864D02*
X009646D01*
X009606Y012824D02*
Y012904D01*
X010826Y016614D02*
X010906D01*
X010866Y016574D02*
Y016654D01*
X010196Y012835D02*
X010276D01*
X010236Y012795D02*
Y012875D01*
X009881Y012520D02*
X009961D01*
X009921Y012480D02*
Y012560D01*
X010826Y017244D02*
X010906D01*
X010866Y017204D02*
Y017284D01*
X009881Y012835D02*
X009961D01*
X009921Y012795D02*
Y012875D01*
X010511Y018179D02*
X010591D01*
X010551Y018139D02*
Y018219D01*
X009881Y010630D02*
X009961D01*
X009921Y010590D02*
Y010670D01*
X011771Y018504D02*
X011851D01*
X011811Y018464D02*
Y018544D01*
X010295Y017677D02*
X010375D01*
X010335Y017637D02*
Y017717D01*
X011781Y018819D02*
X011861D01*
X011821Y018779D02*
Y018859D01*
X010147Y017835D02*
X010227D01*
X010187Y017795D02*
Y017875D01*
X011141Y018504D02*
X011221D01*
X011181Y018464D02*
Y018544D01*
X009251Y012510D02*
X009331D01*
X009291Y012470D02*
Y012550D01*
X010826Y018504D02*
X010906D01*
X010866Y018464D02*
Y018544D01*
X009251Y011555D02*
X009331D01*
X009291Y011515D02*
Y011595D01*
X009881Y012205D02*
X009961D01*
X009921Y012165D02*
Y012245D01*
X014320Y010315D02*
X014400D01*
X014360Y010275D02*
Y010355D01*
X014606Y010279D02*
X014686D01*
X014646Y010239D02*
Y010319D01*
X012402Y013469D02*
X012482D01*
X012442Y013429D02*
Y013509D01*
X013346Y013789D02*
X013426D01*
X013386Y013749D02*
Y013829D01*
X013681Y013465D02*
X013761D01*
X013721Y013425D02*
Y013505D01*
X015226Y013150D02*
X015306D01*
X015266Y013110D02*
Y013190D01*
X012716Y013465D02*
X012796D01*
X012756Y013425D02*
Y013505D01*
X014281Y013474D02*
X014361D01*
X014321Y013434D02*
Y013514D01*
X014596Y011240D02*
X014676D01*
X014636Y011200D02*
Y011280D01*
X012716Y013150D02*
X012796D01*
X012756Y013110D02*
Y013190D01*
X014291Y013784D02*
X014371D01*
X014331Y013744D02*
Y013824D01*
X015226Y011575D02*
X015306D01*
X015266Y011535D02*
Y011615D01*
X015226Y012205D02*
X015306D01*
X015266Y012165D02*
Y012245D01*
X015226Y011890D02*
X015306D01*
X015266Y011850D02*
Y011930D01*
X013651Y010335D02*
X013731D01*
X013691Y010295D02*
Y010375D01*
X012056Y005815D02*
X012136D01*
X012096Y005775D02*
Y005855D01*
X012266Y005815D02*
X012346D01*
X012306Y005775D02*
Y005855D01*
X012647Y005815D02*
X012727D01*
X012687Y005775D02*
Y005855D01*
X012857Y005815D02*
X012937D01*
X012897Y005775D02*
Y005855D01*
X013238Y005815D02*
X013318D01*
X013278Y005775D02*
Y005855D01*
X013448Y005815D02*
X013528D01*
X013488Y005775D02*
Y005855D01*
X013828Y005815D02*
X013908D01*
X013868Y005775D02*
Y005855D01*
X014038Y005815D02*
X014118D01*
X014078Y005775D02*
Y005855D01*
X010826Y008740D02*
X010906D01*
X010866Y008700D02*
Y008780D01*
X012069Y005211D02*
X012149D01*
X012109Y005171D02*
Y005251D01*
X010826Y008425D02*
X010906D01*
X010866Y008385D02*
Y008465D01*
X012279Y005211D02*
X012359D01*
X012319Y005171D02*
Y005251D01*
X009566Y008740D02*
X009646D01*
X009606Y008700D02*
Y008780D01*
X012657Y004350D02*
X012737D01*
X012697Y004310D02*
Y004390D01*
X009566Y008425D02*
X009646D01*
X009606Y008385D02*
Y008465D01*
X012867Y004350D02*
X012947D01*
X012907Y004310D02*
Y004390D01*
X008936Y008740D02*
X009016D01*
X008976Y008700D02*
Y008780D01*
X013247Y004350D02*
X013327D01*
X013287Y004310D02*
Y004390D01*
X008936Y008425D02*
X009016D01*
X008976Y008385D02*
Y008465D01*
X013457Y004350D02*
X013537D01*
X013497Y004310D02*
Y004390D01*
X013838Y004350D02*
X013918D01*
X013878Y004310D02*
Y004390D01*
X014048Y004350D02*
X014128D01*
X014088Y004310D02*
Y004390D01*
X011466Y005815D02*
X011546D01*
X011506Y005775D02*
Y005855D01*
X011676Y005815D02*
X011756D01*
X011716Y005775D02*
Y005855D01*
X013031Y016299D02*
X013111D01*
X013071Y016259D02*
Y016339D01*
X013661Y019134D02*
X013741D01*
X013701Y019094D02*
Y019174D01*
X013031Y019134D02*
X013111D01*
X013071Y019094D02*
Y019174D01*
X014291Y019134D02*
X014371D01*
X014331Y019094D02*
Y019174D01*
X013976Y016299D02*
X014056D01*
X014016Y016259D02*
Y016339D01*
X014606Y010945D02*
X014686D01*
X014646Y010905D02*
Y010985D01*
X014606Y007795D02*
X014686D01*
X014646Y007755D02*
Y007835D01*
X014300Y008746D02*
X014380D01*
X014340Y008706D02*
Y008786D01*
X014232Y004242D02*
X014312D01*
X014272Y004202D02*
Y004282D01*
X013638Y005725D02*
X013718D01*
X013678Y005685D02*
Y005765D01*
X013641Y004242D02*
X013721D01*
X013681Y004202D02*
Y004282D01*
X012716Y009055D02*
X012796D01*
X012756Y009015D02*
Y009095D01*
X012456Y005725D02*
X012536D01*
X012496Y005685D02*
Y005765D01*
X013047Y005725D02*
X013127D01*
X013087Y005685D02*
Y005765D01*
X012489Y005215D02*
X012569D01*
X012529Y005175D02*
Y005255D01*
X012086Y019144D02*
X012166D01*
X012126Y019104D02*
Y019184D01*
X011456Y018819D02*
X011536D01*
X011496Y018779D02*
Y018859D01*
X011141Y019144D02*
X011221D01*
X011181Y019104D02*
Y019184D01*
X010199Y016925D02*
X010279D01*
X010239Y016885D02*
Y016965D01*
X011456Y016299D02*
X011536D01*
X011496Y016259D02*
Y016339D01*
X010511Y016614D02*
X010591D01*
X010551Y016574D02*
Y016654D01*
X010511Y012549D02*
X010591D01*
X010551Y012509D02*
Y012589D01*
X010196Y016299D02*
X010276D01*
X010236Y016259D02*
Y016339D01*
X009566Y019154D02*
X009646D01*
X009606Y019114D02*
Y019194D01*
X009566Y016299D02*
X009646D01*
X009606Y016259D02*
Y016339D01*
X009566Y017224D02*
X009646D01*
X009606Y017184D02*
Y017264D01*
X009566Y012510D02*
X009646D01*
X009606Y012470D02*
Y012550D01*
X005775Y014665D02*
X005855D01*
X005815Y014625D02*
Y014705D01*
X004318Y014665D02*
X004398D01*
X004358Y014625D02*
Y014705D01*
X005169Y013681D02*
X005249D01*
X005209Y013641D02*
Y013721D01*
X004318Y012697D02*
X004398D01*
X004358Y012657D02*
Y012737D01*
X011771Y011260D02*
X011851D01*
X011811Y011220D02*
Y011300D01*
X012401Y011260D02*
X012481D01*
X012441Y011220D02*
Y011300D01*
X012401Y010000D02*
X012481D01*
X012441Y009960D02*
Y010040D01*
X011771Y010000D02*
X011851D01*
X011811Y009960D02*
Y010040D01*
X010826Y011575D02*
X010906D01*
X010866Y011535D02*
Y011615D01*
X011141Y010000D02*
X011221D01*
X011181Y009960D02*
Y010040D01*
X011141Y009370D02*
X011221D01*
X011181Y009330D02*
Y009410D01*
X010826Y009370D02*
X010906D01*
X010866Y009330D02*
Y009410D01*
X011771Y008740D02*
X011851D01*
X011811Y008700D02*
Y008780D01*
X011866Y005725D02*
X011946D01*
X011906Y005685D02*
Y005765D01*
X011141Y009055D02*
X011221D01*
X011181Y009015D02*
Y009095D01*
X011141Y008740D02*
X011221D01*
X011181Y008700D02*
Y008780D01*
X011456Y008425D02*
X011536D01*
X011496Y008385D02*
Y008465D01*
X009251Y009685D02*
X009331D01*
X009291Y009645D02*
Y009725D01*
X010196Y008110D02*
X010276D01*
X010236Y008070D02*
Y008150D01*
X009566Y008110D02*
X009646D01*
X009606Y008070D02*
Y008150D01*
X008936Y007795D02*
X009016D01*
X008976Y007755D02*
Y007835D01*
X004318Y013878D02*
X004398D01*
X004358Y013838D02*
Y013918D01*
X013976Y008776D02*
X014056D01*
X014016Y008736D02*
Y008816D01*
X013959Y009047D02*
X014039D01*
X013999Y009007D02*
Y009087D01*
X013346Y009055D02*
X013426D01*
X013386Y009015D02*
Y009095D01*
X013665Y009031D02*
X013745D01*
X013705Y008991D02*
Y009071D01*
X017775Y015699D02*
X017855D01*
X017815Y015659D02*
Y015739D01*
X017775Y015909D02*
X017855D01*
X017815Y015869D02*
Y015949D01*
X017806Y014249D02*
X017886D01*
X017846Y014209D02*
Y014289D01*
X017824Y014459D02*
X017904D01*
X017864Y014419D02*
Y014499D01*
X004318Y014272D02*
X004398D01*
X004358Y014232D02*
Y014312D01*
X013346Y016299D02*
X013426D01*
X013386Y016259D02*
Y016339D01*
X013976Y019134D02*
X014056D01*
X014016Y019094D02*
Y019174D01*
X013346Y019134D02*
X013426D01*
X013386Y019094D02*
Y019174D01*
X013986Y010315D02*
X014066D01*
X014026Y010275D02*
Y010355D01*
X013661Y016299D02*
X013741D01*
X013701Y016259D02*
Y016339D01*
X012401Y019134D02*
X012481D01*
X012441Y019094D02*
Y019174D01*
X011456Y019144D02*
X011536D01*
X011496Y019104D02*
Y019184D01*
X011456Y018504D02*
X011536D01*
X011496Y018464D02*
Y018544D01*
X009881Y019154D02*
X009961D01*
X009921Y019114D02*
Y019194D01*
X009881Y016929D02*
X009961D01*
X009921Y016889D02*
Y016969D01*
X012086Y016299D02*
X012166D01*
X012126Y016259D02*
Y016339D01*
X010196Y016614D02*
X010276D01*
X010236Y016574D02*
Y016654D01*
X010826Y016299D02*
X010906D01*
X010866Y016259D02*
Y016339D01*
X010196Y011890D02*
X010276D01*
X010236Y011850D02*
Y011930D01*
X009881Y013150D02*
X009961D01*
X009921Y013110D02*
Y013190D01*
X009881Y016299D02*
X009961D01*
X009921Y016259D02*
Y016339D01*
X008936Y012864D02*
X009016D01*
X008976Y012824D02*
Y012904D01*
X009566Y007795D02*
X009646D01*
X009606Y007755D02*
Y007835D01*
X010196Y007795D02*
X010276D01*
X010236Y007755D02*
Y007835D01*
X008936Y008110D02*
X009016D01*
X008976Y008070D02*
Y008150D01*
X011456Y010000D02*
X011536D01*
X011496Y009960D02*
Y010040D01*
X010826Y010630D02*
X010906D01*
X010866Y010590D02*
Y010670D01*
X012716Y010630D02*
X012796D01*
X012756Y010590D02*
Y010670D01*
X010511Y010315D02*
X010591D01*
X010551Y010275D02*
Y010355D01*
X012086Y009370D02*
X012166D01*
X012126Y009330D02*
Y009410D01*
X012401Y008425D02*
X012481D01*
X012441Y008385D02*
Y008465D01*
X013346Y008740D02*
X013426D01*
X013386Y008700D02*
Y008780D01*
X013976Y007795D02*
X014056D01*
X014016Y007755D02*
Y007835D01*
X014635Y009380D02*
X014715D01*
X014675Y009340D02*
Y009420D01*
X005169Y012500D02*
X005249D01*
X005209Y012460D02*
Y012540D01*
X005169Y014468D02*
X005249D01*
X005209Y014428D02*
Y014509D01*
X005775Y013484D02*
X005855D01*
X005815Y013444D02*
Y013524D01*
X005775Y013878D02*
X005855D01*
X005815Y013838D02*
Y013918D01*
X005775Y014272D02*
X005855D01*
X005815Y014232D02*
Y014312D01*
X005775Y015059D02*
X005855D01*
X005815Y015019D02*
Y015099D01*
X005169Y012894D02*
X005249D01*
X005209Y012854D02*
Y012934D01*
X005169Y013287D02*
X005249D01*
X005209Y013247D02*
Y013327D01*
X004318Y013091D02*
X004398D01*
X004358Y013051D02*
Y013131D01*
X004318Y013484D02*
X004398D01*
X004358Y013444D02*
Y013524D01*
X005169Y014075D02*
X005249D01*
X005209Y014035D02*
Y014115D01*
X013346Y008425D02*
X013426D01*
X013386Y008385D02*
Y008465D01*
X013661Y008425D02*
X013741D01*
X013701Y008385D02*
Y008465D01*
X013976Y008110D02*
X014056D01*
X014016Y008070D02*
Y008150D01*
X012716Y008425D02*
X012796D01*
X012756Y008385D02*
Y008465D01*
X012716Y008740D02*
X012796D01*
X012756Y008700D02*
Y008780D01*
X013031Y009055D02*
X013111D01*
X013071Y009015D02*
Y009095D01*
X012401Y008740D02*
X012481D01*
X012441Y008700D02*
Y008780D01*
X012401Y009055D02*
X012481D01*
X012441Y009015D02*
Y009095D01*
X012401Y009370D02*
X012481D01*
X012441Y009330D02*
Y009410D01*
X012086Y009055D02*
X012166D01*
X012126Y009015D02*
Y009095D01*
X011456Y009055D02*
X011536D01*
X011496Y009015D02*
Y009095D01*
X011456Y008740D02*
X011536D01*
X011496Y008700D02*
Y008780D01*
X011771Y008425D02*
X011851D01*
X011811Y008385D02*
Y008465D01*
X012401Y007795D02*
X012481D01*
X012441Y007755D02*
Y007835D01*
X034409Y005118D02*
X035669D01*
X035039Y004488D02*
Y005748D01*
X021024Y005118D02*
X022283D01*
X021654Y004488D02*
Y005748D01*
X034409Y022441D02*
X035669D01*
X035039Y021811D02*
Y023071D01*
X021024Y022441D02*
X022283D01*
X021654Y021811D02*
Y023071D01*
X024222Y005059D02*
X024616D01*
X024419Y004862D02*
Y005256D01*
X032077Y005059D02*
X032470D01*
X032274Y004862D02*
Y005256D01*
X024705Y005846D02*
X025295D01*
X025000Y005551D02*
Y006142D01*
X031398Y005846D02*
X031988D01*
X031693Y005551D02*
Y006142D01*
X021398Y019675D02*
X021791D01*
X021594Y019478D02*
Y019872D01*
X021398Y007884D02*
X021791D01*
X021594Y007687D02*
Y008081D01*
X022087Y019094D02*
X022677D01*
X022382Y018799D02*
Y019390D01*
X022087Y008465D02*
X022677D01*
X022382Y008169D02*
Y008760D01*
X033996Y019675D02*
X034390D01*
X034193Y019478D02*
Y019872D01*
X033996Y007884D02*
X034390D01*
X034193Y007687D02*
Y008081D01*
X034685Y019094D02*
X035276D01*
X034980Y018799D02*
Y019390D01*
X034685Y008465D02*
X035276D01*
X034980Y008169D02*
Y008760D01*
X029852Y010955D02*
X029932D01*
X029892Y010915D02*
Y010995D01*
X030171Y010941D02*
X030251D01*
X030211Y010901D02*
Y010981D01*
X029899Y011873D02*
X029979D01*
X029939Y011833D02*
Y011913D01*
X030511Y011250D02*
X030591D01*
X030551Y011210D02*
Y011290D01*
X030482Y010630D02*
X030562D01*
X030522Y010590D02*
Y010670D01*
X030212Y010616D02*
X030292D01*
X030252Y010576D02*
Y010656D01*
X029488Y023228D02*
X029568D01*
X029528Y023188D02*
Y023268D01*
X030275Y023228D02*
X030355D01*
X030315Y023188D02*
Y023268D01*
X032637Y023228D02*
X032717D01*
X032677Y023188D02*
Y023268D01*
X031850Y023228D02*
X031930D01*
X031890Y023188D02*
Y023268D01*
X032243Y021654D02*
X032323D01*
X032283Y021614D02*
Y021694D01*
X031456Y021654D02*
X031536D01*
X031496Y021614D02*
Y021694D01*
X029094Y021654D02*
X029174D01*
X029134Y021614D02*
Y021694D01*
X028306Y021654D02*
X028386D01*
X028346Y021614D02*
Y021694D01*
X025944Y021654D02*
X026024D01*
X025984Y021614D02*
Y021694D01*
X025157Y021654D02*
X025237D01*
X025197Y021614D02*
Y021694D01*
X026732Y023228D02*
X026812D01*
X026772Y023188D02*
Y023268D01*
X025944Y023228D02*
X026024D01*
X025984Y023188D02*
Y023268D01*
X023188Y004331D02*
X023268D01*
X023228Y004291D02*
Y004371D01*
X020856Y006693D02*
X020936D01*
X020896Y006653D02*
Y006733D01*
X020856Y008661D02*
X020936D01*
X020896Y008621D02*
Y008701D01*
X020856Y009449D02*
X020936D01*
X020896Y009409D02*
Y009489D01*
X020856Y010236D02*
X020936D01*
X020896Y010196D02*
Y010276D01*
X020856Y011024D02*
X020936D01*
X020896Y010984D02*
Y011064D01*
X021692Y011614D02*
X021772D01*
X021732Y011574D02*
Y011654D01*
X021692Y010827D02*
X021772D01*
X021732Y010787D02*
Y010867D01*
X020856Y011811D02*
X020936D01*
X020896Y011771D02*
Y011851D01*
X035787Y007874D02*
X035867D01*
X035827Y007834D02*
Y007914D01*
X035787Y007087D02*
X035867D01*
X035827Y007047D02*
Y007127D01*
X035787Y013386D02*
X035867D01*
X035827Y013346D02*
Y013426D01*
X035787Y012599D02*
X035867D01*
X035827Y012559D02*
Y012639D01*
X035787Y011811D02*
X035867D01*
X035827Y011771D02*
Y011851D01*
X032243Y004331D02*
X032323D01*
X032283Y004291D02*
Y004371D01*
X031456Y004331D02*
X031536D01*
X031496Y004291D02*
Y004371D01*
X025944Y004331D02*
X026024D01*
X025984Y004291D02*
Y004371D01*
X035787Y017717D02*
X035867D01*
X035827Y017677D02*
Y017757D01*
X035787Y018504D02*
X035867D01*
X035827Y018464D02*
Y018544D01*
X035787Y019291D02*
X035867D01*
X035827Y019251D02*
Y019331D01*
X035787Y020079D02*
X035867D01*
X035827Y020039D02*
Y020119D01*
X035787Y020866D02*
X035867D01*
X035827Y020826D02*
Y020906D01*
X033425Y023228D02*
X033505D01*
X033465Y023188D02*
Y023268D01*
X023188Y023228D02*
X023268D01*
X023228Y023188D02*
Y023268D01*
X020826Y019291D02*
X020906D01*
X020866Y019251D02*
Y019331D01*
X020826Y020079D02*
X020906D01*
X020866Y020039D02*
Y020119D01*
X020826Y020866D02*
X020906D01*
X020866Y020826D02*
Y020906D01*
X027804Y016033D02*
X027884D01*
X027844Y015993D02*
Y016073D01*
X027579Y016032D02*
X027659D01*
X027619Y015992D02*
Y016072D01*
X027047Y016319D02*
X027127D01*
X027087Y016279D02*
Y016359D01*
X027667Y016939D02*
X027747D01*
X027707Y016899D02*
Y016979D01*
X029556Y011555D02*
X029636D01*
X029596Y011515D02*
Y011595D01*
X028612Y012215D02*
X028692D01*
X028652Y012175D02*
Y012255D01*
X034430Y012351D02*
X034510D01*
X034470Y012311D02*
Y012391D01*
X029143Y013711D02*
X029223D01*
X029183Y013671D02*
Y013751D01*
X033452Y013057D02*
X033532D01*
X033492Y013017D02*
Y013097D01*
X034310Y016119D02*
X034390D01*
X034350Y016079D02*
Y016159D01*
X034303Y016998D02*
X034383D01*
X034343Y016958D02*
Y017038D01*
X034312Y017600D02*
X034392D01*
X034352Y017560D02*
Y017640D01*
X029881Y013474D02*
X029961D01*
X029921Y013434D02*
Y013514D01*
X030196Y011870D02*
X030276D01*
X030236Y011830D02*
Y011910D01*
X029581Y012186D02*
X029661D01*
X029621Y012146D02*
Y012226D01*
X030216Y012205D02*
X030296D01*
X030256Y012165D02*
Y012245D01*
X030186Y011575D02*
X030266D01*
X030226Y011535D02*
Y011615D01*
X030499Y011553D02*
X030579D01*
X030539Y011513D02*
Y011593D01*
X029241Y012515D02*
X029321D01*
X029281Y012475D02*
Y012555D01*
X029254Y012826D02*
X029334D01*
X029294Y012786D02*
Y012866D01*
X031204Y013462D02*
X031284D01*
X031244Y013422D02*
Y013502D01*
X031129Y012832D02*
X031209D01*
X031169Y012792D02*
Y012872D01*
X031142Y013145D02*
X031222D01*
X031182Y013105D02*
Y013185D01*
X031761Y012832D02*
X031841D01*
X031801Y012792D02*
Y012872D01*
X031130Y012517D02*
X031210D01*
X031170Y012477D02*
Y012557D01*
X031761Y012517D02*
X031841D01*
X031801Y012477D02*
Y012557D01*
X034399Y015057D02*
X034479D01*
X034439Y015017D02*
Y015097D01*
X034303Y014871D02*
X034383D01*
X034343Y014831D02*
Y014911D01*
X034303Y014661D02*
X034383D01*
X034343Y014621D02*
Y014701D01*
X034307Y015246D02*
X034387D01*
X034347Y015206D02*
Y015286D01*
X034307Y015456D02*
X034387D01*
X034347Y015416D02*
Y015496D01*
X034724Y014006D02*
X034804D01*
X034764Y013966D02*
Y014046D01*
X034903Y018130D02*
X034983D01*
X034943Y018090D02*
Y018170D01*
X034913Y018340D02*
X034993D01*
X034953Y018300D02*
Y018380D01*
X031614Y017611D02*
X031694D01*
X031654Y017571D02*
Y017651D01*
X024878Y011139D02*
X024958D01*
X024918Y011099D02*
Y011179D01*
X025374Y010999D02*
X025454D01*
X025414Y010959D02*
Y011039D01*
X026102Y011260D02*
X026182D01*
X026142Y011220D02*
Y011300D01*
X026069Y010942D02*
X026149D01*
X026109Y010902D02*
Y010982D01*
X026400Y010928D02*
X026480D01*
X026440Y010888D02*
Y010968D01*
X026422Y009690D02*
X026502D01*
X026462Y009650D02*
Y009730D01*
X026417Y010279D02*
X026497D01*
X026457Y010239D02*
Y010319D01*
X024665Y009843D02*
X024745D01*
X024705Y009803D02*
Y009883D01*
X026138Y010630D02*
X026218D01*
X026178Y010590D02*
Y010670D01*
X026417Y011260D02*
X026497D01*
X026457Y011220D02*
Y011300D01*
X026400Y011565D02*
X026480D01*
X026440Y011525D02*
Y011605D01*
X026766Y011575D02*
X026846D01*
X026806Y011535D02*
Y011615D01*
X025649Y018664D02*
X025729D01*
X025689Y018624D02*
Y018704D01*
X025789Y013484D02*
X025869D01*
X025829Y013444D02*
Y013524D01*
X025474Y013463D02*
X025554D01*
X025514Y013423D02*
Y013503D01*
X026075Y011567D02*
X026155D01*
X026115Y011527D02*
Y011607D01*
X033564Y006475D02*
X033644D01*
X033604Y006435D02*
Y006515D01*
X033716Y006317D02*
X033796D01*
X033756Y006277D02*
Y006357D01*
X033116Y007503D02*
X033196D01*
X033156Y007463D02*
Y007543D01*
X025220Y010157D02*
X025300D01*
X025260Y010117D02*
Y010197D01*
X025233Y011516D02*
X025313D01*
X025273Y011476D02*
Y011556D01*
X025078Y011661D02*
X025158D01*
X025118Y011621D02*
Y011701D01*
X025482Y011565D02*
X025562D01*
X025522Y011525D02*
Y011605D01*
X025479Y011917D02*
X025559D01*
X025519Y011877D02*
Y011957D01*
X025430Y010157D02*
X025510D01*
X025470Y010117D02*
Y010197D01*
X025728Y016772D02*
X025808D01*
X025768Y016732D02*
Y016812D01*
X025789Y016289D02*
X025869D01*
X025829Y016249D02*
Y016329D01*
X027991Y016604D02*
X028071D01*
X028031Y016564D02*
Y016644D01*
X027045Y016925D02*
X027125D01*
X027085Y016885D02*
Y016965D01*
X027356Y016929D02*
X027436D01*
X027396Y016889D02*
Y016969D01*
X027362Y013648D02*
X027442D01*
X027402Y013608D02*
Y013688D01*
X027364Y013432D02*
X027444D01*
X027404Y013392D02*
Y013472D01*
X023169Y014862D02*
X023249D01*
X023209Y014822D02*
Y014902D01*
X023169Y014468D02*
X023249D01*
X023209Y014428D02*
Y014509D01*
X023169Y014075D02*
X023249D01*
X023209Y014035D02*
Y014115D01*
X023169Y013681D02*
X023249D01*
X023209Y013641D02*
Y013721D01*
X023169Y013287D02*
X023249D01*
X023209Y013247D02*
Y013327D01*
X023169Y012894D02*
X023249D01*
X023209Y012854D02*
Y012934D01*
X023166Y012608D02*
X023246D01*
X023206Y012568D02*
Y012648D01*
X023171Y011752D02*
X023251D01*
X023211Y011712D02*
Y011792D01*
X023171Y011469D02*
X023251D01*
X023211Y011429D02*
Y011509D01*
X028621Y007830D02*
X028701D01*
X028661Y007790D02*
Y007870D01*
X028306Y008110D02*
X028386D01*
X028346Y008070D02*
Y008150D01*
X025430Y009213D02*
X025510D01*
X025470Y009173D02*
Y009253D01*
X030210Y010020D02*
X030290D01*
X030250Y009980D02*
Y010060D01*
X030213Y009702D02*
X030293D01*
X030253Y009662D02*
Y009742D01*
X034616Y011476D02*
X034696D01*
X034656Y011436D02*
Y011516D01*
X030541Y022490D02*
X030621D01*
X030581Y022450D02*
Y022530D01*
X030541Y022274D02*
X030621D01*
X030581Y022234D02*
Y022314D01*
X030541Y022057D02*
X030621D01*
X030581Y022017D02*
Y022097D01*
X027529Y022490D02*
X027609D01*
X027569Y022450D02*
Y022530D01*
X027529Y022274D02*
X027609D01*
X027569Y022234D02*
Y022314D01*
X027529Y022057D02*
X027609D01*
X027569Y022017D02*
Y022097D01*
X024537Y022057D02*
X024617D01*
X024577Y022017D02*
Y022097D01*
X024537Y022274D02*
X024617D01*
X024577Y022234D02*
Y022314D01*
X024537Y022490D02*
X024617D01*
X024577Y022450D02*
Y022530D01*
X029990Y023307D02*
X030070D01*
X030030Y023267D02*
Y023347D01*
X023986Y023307D02*
X024066D01*
X024026Y023267D02*
Y023347D01*
X026978Y023307D02*
X027058D01*
X027018Y023267D02*
Y023347D01*
X021696Y010452D02*
X021776D01*
X021736Y010412D02*
Y010492D01*
X024714Y007687D02*
X024794D01*
X024754Y007647D02*
Y007727D01*
X024714Y008002D02*
X024794D01*
X024754Y007962D02*
Y008042D01*
X024537Y007844D02*
X024617D01*
X024577Y007804D02*
Y007884D01*
X024547Y008150D02*
X024627D01*
X024587Y008110D02*
Y008190D01*
X024232Y007982D02*
X024312D01*
X024272Y007942D02*
Y008022D01*
X024234Y008228D02*
X024314D01*
X024274Y008188D02*
Y008268D01*
X023958Y008536D02*
X024038D01*
X023998Y008496D02*
Y008576D01*
X024202Y008474D02*
X024282D01*
X024242Y008434D02*
Y008514D01*
X029990Y022470D02*
X030070D01*
X030030Y022430D02*
Y022510D01*
X029990Y022077D02*
X030070D01*
X030030Y022037D02*
Y022117D01*
X026978Y022470D02*
X027058D01*
X027018Y022430D02*
Y022510D01*
X023986Y022077D02*
X024066D01*
X024026Y022037D02*
Y022117D01*
X023986Y022470D02*
X024066D01*
X024026Y022430D02*
Y022510D01*
X027991Y011572D02*
X028071D01*
X028031Y011532D02*
Y011612D01*
X027991Y011260D02*
X028071D01*
X028031Y011220D02*
Y011300D01*
X028936Y011555D02*
X029016D01*
X028976Y011515D02*
Y011595D01*
X029251Y011555D02*
X029331D01*
X029291Y011515D02*
Y011595D01*
X029251Y011240D02*
X029331D01*
X029291Y011200D02*
Y011280D01*
X028631Y011270D02*
X028711D01*
X028671Y011230D02*
Y011310D01*
X025471Y009684D02*
X025551D01*
X025511Y009644D02*
Y009724D01*
X023169Y018012D02*
X023249D01*
X023209Y017972D02*
Y018052D01*
X023454Y018209D02*
X023534D01*
X023494Y018169D02*
Y018249D01*
X024117Y009313D02*
X024197D01*
X024157Y009273D02*
Y009353D01*
X031486Y023083D02*
X031566D01*
X031526Y023043D02*
Y023123D01*
X031486Y023297D02*
X031566D01*
X031526Y023257D02*
Y023337D01*
X031269Y023297D02*
X031349D01*
X031309Y023257D02*
Y023337D01*
X031053Y023297D02*
X031133D01*
X031093Y023257D02*
Y023337D01*
X031486Y022873D02*
X031566D01*
X031526Y022833D02*
Y022913D01*
X028474Y023083D02*
X028554D01*
X028514Y023043D02*
Y023123D01*
X028474Y023297D02*
X028554D01*
X028514Y023257D02*
Y023337D01*
X028257Y023297D02*
X028337D01*
X028297Y023257D02*
Y023337D01*
X028041Y023297D02*
X028121D01*
X028081Y023257D02*
Y023337D01*
X028474Y022873D02*
X028554D01*
X028514Y022833D02*
Y022913D01*
X025482Y023083D02*
X025562D01*
X025522Y023043D02*
Y023123D01*
X025482Y023297D02*
X025562D01*
X025522Y023257D02*
Y023337D01*
X025265Y023297D02*
X025345D01*
X025305Y023257D02*
Y023337D01*
X025049Y023297D02*
X025129D01*
X025089Y023257D02*
Y023337D01*
X025482Y022873D02*
X025562D01*
X025522Y022833D02*
Y022913D01*
X028621Y010600D02*
X028701D01*
X028661Y010560D02*
Y010640D01*
X028306Y010600D02*
X028386D01*
X028346Y010560D02*
Y010640D01*
X032263Y020392D02*
X032343D01*
X032303Y020352D02*
Y020432D01*
X032263Y020177D02*
X032343D01*
X032303Y020137D02*
Y020217D01*
X032047Y020177D02*
X032127D01*
X032087Y020137D02*
Y020217D01*
X031830Y020177D02*
X031910D01*
X031870Y020137D02*
Y020217D01*
X032263Y020602D02*
X032343D01*
X032303Y020562D02*
Y020642D01*
X029251Y020392D02*
X029331D01*
X029291Y020352D02*
Y020432D01*
X029251Y020177D02*
X029331D01*
X029291Y020137D02*
Y020217D01*
X029035Y020177D02*
X029115D01*
X029075Y020137D02*
Y020217D01*
X028818Y020177D02*
X028898D01*
X028858Y020137D02*
Y020217D01*
X029251Y020602D02*
X029331D01*
X029291Y020562D02*
Y020642D01*
X026259Y020602D02*
X026339D01*
X026299Y020562D02*
Y020642D01*
X025826Y020177D02*
X025906D01*
X025866Y020137D02*
Y020217D01*
X026043Y020177D02*
X026123D01*
X026083Y020137D02*
Y020217D01*
X026259Y020177D02*
X026339D01*
X026299Y020137D02*
Y020217D01*
X026259Y020392D02*
X026339D01*
X026299Y020352D02*
Y020432D01*
X029898Y009702D02*
X029978D01*
X029938Y009662D02*
Y009742D01*
X029881Y009964D02*
X029961D01*
X029921Y009924D02*
Y010004D01*
X029602Y010000D02*
X029682D01*
X029642Y009960D02*
Y010040D01*
X029881Y010320D02*
X029961D01*
X029921Y010280D02*
Y010360D01*
X029230Y009988D02*
X029310D01*
X029270Y009948D02*
Y010028D01*
X029215Y010315D02*
X029295D01*
X029255Y010275D02*
Y010355D01*
X030202Y009384D02*
X030282D01*
X030242Y009344D02*
Y009424D01*
X027028Y011255D02*
X027108D01*
X027068Y011215D02*
Y011295D01*
X027049Y010940D02*
X027129D01*
X027089Y010900D02*
Y010980D01*
X029251Y010981D02*
X029331D01*
X029291Y010941D02*
Y011021D01*
X027677Y011900D02*
X027757D01*
X027717Y011860D02*
Y011940D01*
X027672Y011565D02*
X027752D01*
X027712Y011525D02*
Y011605D01*
X027991Y010630D02*
X028071D01*
X028031Y010590D02*
Y010670D01*
X027677Y010315D02*
X027757D01*
X027717Y010275D02*
Y010355D01*
X027677Y010630D02*
X027757D01*
X027717Y010590D02*
Y010670D01*
X027677Y011280D02*
X027757D01*
X027717Y011240D02*
Y011320D01*
X027357Y010000D02*
X027437D01*
X027397Y009960D02*
Y010040D01*
X027362Y010315D02*
X027442D01*
X027402Y010275D02*
Y010355D01*
X028301Y011604D02*
X028382D01*
X028342Y011564D02*
Y011644D01*
X028623Y011609D02*
X028703D01*
X028663Y011569D02*
Y011649D01*
X028270Y011890D02*
X028350D01*
X028310Y011850D02*
Y011930D01*
X026732Y010945D02*
X026812D01*
X026772Y010905D02*
Y010985D01*
X027392Y011255D02*
X027472D01*
X027432Y011215D02*
Y011295D01*
X028956Y012215D02*
X029036D01*
X028996Y012175D02*
Y012255D01*
X029880Y012239D02*
X029960D01*
X029920Y012199D02*
Y012279D01*
X030816Y011890D02*
X030896D01*
X030856Y011850D02*
Y011930D01*
X030809Y012188D02*
X030889D01*
X030849Y012148D02*
Y012228D01*
X031131Y012205D02*
X031211D01*
X031171Y012165D02*
Y012245D01*
X030819Y012520D02*
X030899D01*
X030859Y012480D02*
Y012560D01*
X030790Y013150D02*
X030870D01*
X030830Y013110D02*
Y013190D01*
X028330Y009675D02*
X028410D01*
X028370Y009635D02*
Y009715D01*
X026732Y009685D02*
X026812D01*
X026772Y009645D02*
Y009725D01*
X029259Y009658D02*
X029339D01*
X029299Y009618D02*
Y009698D01*
X028946Y009665D02*
X029026D01*
X028986Y009625D02*
Y009705D01*
X029536Y010320D02*
X029616D01*
X029576Y010280D02*
Y010360D01*
X029566Y009649D02*
X029646D01*
X029606Y009609D02*
Y009689D01*
X028610Y010005D02*
X028690D01*
X028650Y009965D02*
Y010045D01*
X026737Y009369D02*
X026817D01*
X026777Y009329D02*
Y009409D01*
X026381Y009370D02*
X026461D01*
X026421Y009330D02*
Y009410D01*
X027047Y009370D02*
X027127D01*
X027087Y009330D02*
Y009410D01*
X026381Y009055D02*
X026461D01*
X026421Y009015D02*
Y009095D01*
X027047Y009055D02*
X027127D01*
X027087Y009015D02*
Y009095D01*
X026737Y010320D02*
X026817D01*
X026777Y010280D02*
Y010360D01*
X025787Y008740D02*
X025867D01*
X025827Y008700D02*
Y008780D01*
X026381Y008740D02*
X026461D01*
X026421Y008700D02*
Y008780D01*
X027047Y010000D02*
X027127D01*
X027087Y009960D02*
Y010040D01*
X026737Y009055D02*
X026817D01*
X026777Y009015D02*
Y009095D01*
X027362Y009055D02*
X027442D01*
X027402Y009015D02*
Y009095D01*
X026732Y008425D02*
X026812D01*
X026772Y008385D02*
Y008465D01*
X026732Y008740D02*
X026812D01*
X026772Y008700D02*
Y008780D01*
X026102Y009055D02*
X026182D01*
X026142Y009015D02*
Y009095D01*
X027083Y011575D02*
X027163D01*
X027123Y011535D02*
Y011615D01*
X027362Y010945D02*
X027442D01*
X027402Y010905D02*
Y010985D01*
X029862Y013164D02*
X029942D01*
X029902Y013124D02*
Y013204D01*
X029845Y012835D02*
X029925D01*
X029885Y012795D02*
Y012875D01*
X030218Y012840D02*
X030298D01*
X030258Y012800D02*
Y012880D01*
X030204Y013177D02*
X030284D01*
X030244Y013137D02*
Y013217D01*
X030206Y013740D02*
X030286D01*
X030246Y013700D02*
Y013780D01*
X031180Y019449D02*
X031260D01*
X031220Y019409D02*
Y019489D01*
X031180Y019213D02*
X031260D01*
X031220Y019173D02*
Y019253D01*
X028307Y013489D02*
X028387D01*
X028347Y013449D02*
Y013529D01*
X030816Y011565D02*
X030896D01*
X030856Y011525D02*
Y011605D01*
X034303Y008957D02*
X034383D01*
X034343Y008917D02*
Y008997D01*
X034479Y009392D02*
X034559D01*
X034519Y009352D02*
Y009432D01*
X034497Y010728D02*
X034577D01*
X034537Y010688D02*
Y010768D01*
X035757Y014203D02*
X035837D01*
X035797Y014163D02*
Y014243D01*
X035797Y014911D02*
X035877D01*
X035837Y014871D02*
Y014951D01*
X035797Y016703D02*
X035877D01*
X035837Y016663D02*
Y016743D01*
X035777Y015984D02*
X035857D01*
X035817Y015944D02*
Y016024D01*
X027662Y005478D02*
X027742D01*
X027702Y005438D02*
Y005518D01*
X026830Y004331D02*
X026910D01*
X026870Y004291D02*
Y004371D01*
X027814Y004331D02*
X027894D01*
X027854Y004291D02*
Y004371D01*
X028361Y005208D02*
X028441D01*
X028401Y005168D02*
Y005248D01*
X026838Y005657D02*
X026918D01*
X026878Y005617D02*
Y005697D01*
X021791Y017618D02*
X021871D01*
X021831Y017578D02*
Y017658D01*
X021704Y018209D02*
X021784D01*
X021744Y018169D02*
Y018249D01*
X034576Y007648D02*
X034656D01*
X034616Y007608D02*
Y007688D01*
X034378Y007451D02*
X034458D01*
X034418Y007411D02*
Y007491D01*
X034571Y007338D02*
X034651D01*
X034611Y007298D02*
Y007378D01*
X034655Y006811D02*
X034735D01*
X034695Y006771D02*
Y006851D01*
X032903Y007274D02*
X032983D01*
X032943Y007234D02*
Y007314D01*
X031737Y006395D02*
X031817D01*
X031777Y006355D02*
Y006435D01*
X029784Y004129D02*
X029864D01*
X029824Y004089D02*
Y004169D01*
X028983Y004339D02*
X029063D01*
X029023Y004299D02*
Y004379D01*
X022007Y016230D02*
X022087D01*
X022047Y016190D02*
Y016270D01*
X022293Y015846D02*
X022373D01*
X022333Y015806D02*
Y015886D01*
X021712Y015846D02*
X021792D01*
X021752Y015806D02*
Y015886D01*
X021712Y016634D02*
X021792D01*
X021752Y016594D02*
Y016674D01*
X022303Y016634D02*
X022383D01*
X022343Y016594D02*
Y016674D01*
X029881Y007795D02*
X029961D01*
X029921Y007755D02*
Y007835D01*
X024538Y005639D02*
X024618D01*
X024578Y005599D02*
Y005679D01*
X024390Y005491D02*
X024469D01*
X024430Y005451D02*
Y005531D01*
X021653Y007264D02*
X021733D01*
X021693Y007224D02*
Y007304D01*
X022017Y007264D02*
X022097D01*
X022057Y007224D02*
Y007304D01*
X021466Y007402D02*
X021546D01*
X021506Y007362D02*
Y007442D01*
X021837Y007402D02*
X021917D01*
X021877Y007362D02*
Y007442D01*
X023966Y009475D02*
X024046D01*
X024006Y009435D02*
Y009515D01*
X030773Y005438D02*
X030853D01*
X030813Y005398D02*
Y005478D01*
X030560Y005433D02*
X030640D01*
X030600Y005393D02*
Y005473D01*
X030560Y005217D02*
X030640D01*
X030600Y005177D02*
Y005257D01*
X030770Y005217D02*
X030850D01*
X030810Y005177D02*
Y005257D01*
X030780Y005776D02*
X030860D01*
X030820Y005736D02*
Y005816D01*
X029005Y005472D02*
X029085D01*
X029045Y005432D02*
Y005512D01*
X033749Y006575D02*
X033829D01*
X033789Y006535D02*
Y006615D01*
X033454Y006280D02*
X033534D01*
X033494Y006240D02*
Y006320D01*
X033631Y006122D02*
X033711D01*
X033671Y006082D02*
Y006162D01*
X033902Y006413D02*
X033982D01*
X033942Y006373D02*
Y006453D01*
X033119Y005689D02*
X033199D01*
X033159Y005649D02*
Y005729D01*
X033370Y008032D02*
X033450D01*
X033410Y007992D02*
Y008072D01*
X033224Y008183D02*
X033304D01*
X033264Y008143D02*
Y008223D01*
X032860Y008472D02*
X032940D01*
X032900Y008432D02*
Y008512D01*
X033257Y007667D02*
X033337D01*
X033297Y007627D02*
Y007707D01*
X033224Y007881D02*
X033304D01*
X033264Y007841D02*
Y007921D01*
X033076Y008034D02*
X033156D01*
X033116Y007994D02*
Y008074D01*
X032717Y008319D02*
X032797D01*
X032757Y008279D02*
Y008359D01*
X024387Y006167D02*
X024467D01*
X024427Y006127D02*
Y006207D01*
X024527Y006004D02*
X024607D01*
X024567Y005964D02*
Y006044D01*
X023208Y006732D02*
X023288D01*
X023248Y006692D02*
Y006772D01*
X023434Y006684D02*
X023514D01*
X023474Y006644D02*
Y006724D01*
X023258Y006508D02*
X023338D01*
X023298Y006468D02*
Y006548D01*
X023160Y006958D02*
X023240D01*
X023200Y006918D02*
Y006998D01*
X022984Y006782D02*
X023064D01*
X023024Y006742D02*
Y006822D01*
X027047Y008740D02*
X027127D01*
X027087Y008700D02*
Y008780D01*
X027362Y008110D02*
X027442D01*
X027402Y008070D02*
Y008150D01*
X027362Y007795D02*
X027442D01*
X027402Y007755D02*
Y007835D01*
X026102Y009370D02*
X026182D01*
X026142Y009330D02*
Y009410D01*
X029869Y010630D02*
X029949D01*
X029909Y010590D02*
Y010670D01*
X029535Y010631D02*
X029615D01*
X029575Y010591D02*
Y010671D01*
X029862Y011250D02*
X029942D01*
X029902Y011210D02*
Y011290D01*
X029566Y011260D02*
X029646D01*
X029606Y011220D02*
Y011300D01*
X029537Y010945D02*
X029617D01*
X029577Y010905D02*
Y010985D01*
X033746Y007490D02*
X033826D01*
X033786Y007450D02*
Y007530D01*
X033897Y007303D02*
X033977D01*
X033937Y007263D02*
Y007343D01*
X027981Y017665D02*
X028061D01*
X028021Y017625D02*
Y017705D01*
X027780Y017729D02*
X027860D01*
X027820Y017689D02*
Y017769D01*
X028306Y016614D02*
X028386D01*
X028346Y016574D02*
Y016654D01*
X028621Y008393D02*
X028701D01*
X028661Y008353D02*
Y008433D01*
X028620Y008768D02*
X028700D01*
X028660Y008728D02*
Y008808D01*
X028307Y009037D02*
X028387D01*
X028347Y008997D02*
Y009077D01*
X027991Y009400D02*
X028071D01*
X028031Y009360D02*
Y009440D01*
X028306Y009400D02*
X028386D01*
X028346Y009360D02*
Y009440D01*
X031889Y009311D02*
X031969D01*
X031929Y009271D02*
Y009351D01*
X027519Y019331D02*
X027599D01*
X027559Y019291D02*
Y019371D01*
X027362Y019154D02*
X027442D01*
X027402Y019114D02*
Y019194D01*
X027047Y018839D02*
X027127D01*
X027087Y018799D02*
Y018879D01*
X026732Y018831D02*
X026812D01*
X026772Y018791D02*
Y018871D01*
X026732Y019151D02*
X026812D01*
X026772Y019111D02*
Y019191D01*
X027047Y019154D02*
X027127D01*
X027087Y019114D02*
Y019194D01*
X025787Y019154D02*
X025867D01*
X025827Y019114D02*
Y019194D01*
X030218Y012516D02*
X030298D01*
X030258Y012476D02*
Y012556D01*
X025767Y011882D02*
X025847D01*
X025807Y011841D02*
Y011921D01*
X026098Y011877D02*
X026178D01*
X026138Y011837D02*
Y011917D01*
X026404Y011882D02*
X026484D01*
X026444Y011842D02*
Y011922D01*
X026112Y013504D02*
X026192D01*
X026152Y013464D02*
Y013544D01*
X026099Y013124D02*
X026179D01*
X026139Y013084D02*
Y013164D01*
X026754Y011258D02*
X026834D01*
X026794Y011218D02*
Y011298D01*
X025767Y012195D02*
X025847D01*
X025807Y012155D02*
Y012235D01*
X026129Y012197D02*
X026209D01*
X026169Y012157D02*
Y012237D01*
X028306Y012815D02*
X028386D01*
X028346Y012775D02*
Y012855D01*
X028621Y012844D02*
X028701D01*
X028661Y012804D02*
Y012884D01*
X027991Y012835D02*
X028071D01*
X028031Y012795D02*
Y012875D01*
X023346Y009485D02*
X023426D01*
X023386Y009445D02*
Y009525D01*
X023346Y009695D02*
X023426D01*
X023386Y009655D02*
Y009735D01*
X025787Y012844D02*
X025867D01*
X025827Y012804D02*
Y012884D01*
X025806Y013159D02*
X025886D01*
X025846Y013119D02*
Y013199D01*
X030816Y012825D02*
X030896D01*
X030856Y012785D02*
Y012865D01*
X031456Y017854D02*
X031536D01*
X031496Y017814D02*
Y017894D01*
X031299Y017579D02*
X031379D01*
X031339Y017539D02*
Y017619D01*
X031141Y017858D02*
X031221D01*
X031181Y017818D02*
Y017898D01*
X030984Y017579D02*
X031064D01*
X031024Y017539D02*
Y017619D01*
X030826Y017854D02*
X030906D01*
X030866Y017814D02*
Y017894D01*
X030666Y017578D02*
X030746D01*
X030706Y017538D02*
Y017618D01*
X030511Y017854D02*
X030591D01*
X030551Y017814D02*
Y017894D01*
X030354Y017579D02*
X030434D01*
X030394Y017539D02*
Y017619D01*
X030196Y017854D02*
X030276D01*
X030236Y017814D02*
Y017894D01*
X030039Y017579D02*
X030119D01*
X030079Y017539D02*
Y017619D01*
X029881Y017854D02*
X029961D01*
X029921Y017814D02*
Y017894D01*
X029725Y017578D02*
X029805D01*
X029765Y017538D02*
Y017618D01*
X029566Y017854D02*
X029646D01*
X029606Y017814D02*
Y017894D01*
X029409Y017579D02*
X029489D01*
X029449Y017539D02*
Y017619D01*
X029094Y017579D02*
X029174D01*
X029134Y017539D02*
Y017619D01*
X029251Y017854D02*
X029331D01*
X029291Y017814D02*
Y017894D01*
X028936Y017854D02*
X029016D01*
X028976Y017814D02*
Y017894D01*
X028779Y017579D02*
X028859D01*
X028819Y017539D02*
Y017619D01*
X028621Y017854D02*
X028701D01*
X028661Y017814D02*
Y017894D01*
X028465Y017578D02*
X028545D01*
X028505Y017538D02*
Y017618D01*
X034810Y009154D02*
X034890D01*
X034850Y009114D02*
Y009194D01*
X035858Y009154D02*
X035938D01*
X035898Y009114D02*
Y009194D01*
X035799Y010115D02*
X035879D01*
X035839Y010075D02*
Y010155D01*
X035799Y010344D02*
X035879D01*
X035839Y010304D02*
Y010384D01*
X035759Y009350D02*
X035839D01*
X035799Y009310D02*
Y009390D01*
X035759Y008957D02*
X035839D01*
X035799Y008917D02*
Y008997D01*
X034909Y009350D02*
X034989D01*
X034949Y009310D02*
Y009390D01*
X034909Y008957D02*
X034989D01*
X034949Y008917D02*
Y008997D01*
X031851Y006783D02*
X031931D01*
X031891Y006743D02*
Y006823D01*
X031671Y006604D02*
X031751D01*
X031711Y006564D02*
Y006644D01*
X031879Y006575D02*
X031959D01*
X031919Y006535D02*
Y006615D01*
X032066Y006752D02*
X032146D01*
X032106Y006712D02*
Y006792D01*
X020797Y018573D02*
X020877D01*
X020837Y018533D02*
Y018613D01*
X020793Y017913D02*
X020873D01*
X020833Y017873D02*
Y017953D01*
X022310Y017815D02*
X022390D01*
X022350Y017775D02*
Y017855D01*
X035798Y014667D02*
X035878D01*
X035838Y014627D02*
Y014707D01*
X035797Y014457D02*
X035877D01*
X035837Y014417D02*
Y014497D01*
X024596Y009189D02*
X024676D01*
X024636Y009149D02*
Y009229D01*
X024671Y008976D02*
X024751D01*
X024711Y008936D02*
Y009016D01*
X024862Y009380D02*
X024942D01*
X024902Y009340D02*
Y009420D01*
X024655Y009528D02*
X024735D01*
X024695Y009488D02*
Y009568D01*
X024862Y009685D02*
X024942D01*
X024902Y009645D02*
Y009725D01*
X023346Y009911D02*
X023426D01*
X023386Y009871D02*
Y009951D01*
X022315Y010030D02*
X022395D01*
X022355Y009990D02*
Y010070D01*
X022322Y011217D02*
X022402D01*
X022362Y011177D02*
Y011257D01*
X022047Y017744D02*
X022127D01*
X022087Y017704D02*
Y017784D01*
X022310Y013091D02*
X022390D01*
X022350Y013051D02*
Y013131D01*
X023289Y010256D02*
X023369D01*
X023329Y010216D02*
Y010296D01*
X025255Y009685D02*
X025335D01*
X025295Y009645D02*
Y009725D01*
X028936Y012815D02*
X029016D01*
X028976Y012775D02*
Y012855D01*
X027991Y011890D02*
X028071D01*
X028031Y011850D02*
Y011930D01*
X027962Y012205D02*
X028042D01*
X028002Y012165D02*
Y012245D01*
X028306Y013179D02*
X028386D01*
X028346Y013139D02*
Y013219D01*
X029271Y012205D02*
X029351D01*
X029311Y012165D02*
Y012245D01*
X028936Y012500D02*
X029016D01*
X028976Y012460D02*
Y012540D01*
X028316Y012500D02*
X028396D01*
X028356Y012460D02*
Y012540D01*
X029251Y009370D02*
X029331D01*
X029291Y009330D02*
Y009410D01*
X035797Y016437D02*
X035877D01*
X035837Y016397D02*
Y016477D01*
X035797Y016218D02*
X035877D01*
X035837Y016178D02*
Y016258D01*
X023484Y018593D02*
X023564D01*
X023524Y018553D02*
Y018633D01*
X023169Y018406D02*
X023249D01*
X023209Y018366D02*
Y018446D01*
X022310Y015453D02*
X022390D01*
X022350Y015413D02*
Y015493D01*
X021704Y014862D02*
X021784D01*
X021744Y014822D02*
Y014902D01*
X022324Y012599D02*
X022404D01*
X022364Y012559D02*
Y012639D01*
X030519Y009704D02*
X030599D01*
X030559Y009664D02*
Y009744D01*
X029881Y009380D02*
X029961D01*
X029921Y009340D02*
Y009420D01*
X030519Y009384D02*
X030599D01*
X030559Y009344D02*
Y009424D01*
X029881Y008110D02*
X029961D01*
X029921Y008070D02*
Y008150D01*
X029566Y008740D02*
X029646D01*
X029606Y008700D02*
Y008780D01*
X028621Y008110D02*
X028701D01*
X028661Y008070D02*
Y008150D01*
X028936Y008110D02*
X029016D01*
X028976Y008070D02*
Y008150D01*
X027991Y008110D02*
X028071D01*
X028031Y008070D02*
Y008150D01*
X027677Y008425D02*
X027757D01*
X027717Y008385D02*
Y008465D01*
X028619Y013169D02*
X028699D01*
X028659Y013129D02*
Y013209D01*
X028621Y012490D02*
X028701D01*
X028661Y012450D02*
Y012530D01*
X028936Y013150D02*
X029016D01*
X028976Y013110D02*
Y013190D01*
X027677Y012490D02*
X027757D01*
X027717Y012450D02*
Y012530D01*
X027677Y012205D02*
X027757D01*
X027717Y012165D02*
Y012245D01*
X029251Y016289D02*
X029331D01*
X029291Y016249D02*
Y016329D01*
X029576Y018819D02*
X029656D01*
X029616Y018779D02*
Y018859D01*
X028310Y019142D02*
X028390D01*
X028350Y019102D02*
Y019182D01*
X028309Y016289D02*
X028389D01*
X028349Y016249D02*
Y016329D01*
X026732Y010000D02*
X026812D01*
X026772Y009960D02*
Y010040D01*
X031131Y011575D02*
X031211D01*
X031171Y011535D02*
Y011615D01*
X029881Y012520D02*
X029961D01*
X029921Y012480D02*
Y012560D01*
X031131Y011890D02*
X031211D01*
X031171Y011850D02*
Y011930D01*
X028306Y017854D02*
X028386D01*
X028346Y017814D02*
Y017894D01*
X027362Y012500D02*
X027442D01*
X027402Y012460D02*
Y012540D01*
X027365Y012232D02*
X027445D01*
X027405Y012192D02*
Y012272D01*
X027362Y018189D02*
X027442D01*
X027402Y018149D02*
Y018229D01*
X027677Y018189D02*
X027757D01*
X027717Y018149D02*
Y018229D01*
X025478Y013153D02*
X025558D01*
X025518Y013113D02*
Y013193D01*
X026836Y017362D02*
X026916D01*
X026876Y017322D02*
Y017402D01*
X026690Y017515D02*
X026770D01*
X026730Y017475D02*
Y017555D01*
X027362Y012835D02*
X027442D01*
X027402Y012795D02*
Y012875D01*
X027047Y017244D02*
X027127D01*
X027087Y017204D02*
Y017284D01*
X026417Y013465D02*
X026497D01*
X026457Y013425D02*
Y013505D01*
X027362Y011900D02*
X027442D01*
X027402Y011860D02*
Y011940D01*
X027992Y013465D02*
X028072D01*
X028032Y013425D02*
Y013505D01*
X026732Y013465D02*
X026812D01*
X026772Y013425D02*
Y013505D01*
X027047Y011900D02*
X027127D01*
X027087Y011860D02*
Y011940D01*
X027992Y013150D02*
X028072D01*
X028032Y013110D02*
Y013190D01*
X027047Y012835D02*
X027127D01*
X027087Y012795D02*
Y012875D01*
X027362Y013150D02*
X027442D01*
X027402Y013110D02*
Y013190D01*
X027608Y017864D02*
X027688D01*
X027648Y017824D02*
Y017904D01*
X027677Y018819D02*
X027757D01*
X027717Y018779D02*
Y018859D01*
X026732Y012520D02*
X026812D01*
X026772Y012480D02*
Y012560D01*
X027125Y017864D02*
X027205D01*
X027165Y017824D02*
Y017904D01*
X027991Y018189D02*
X028071D01*
X028031Y018149D02*
Y018229D01*
X026102Y012864D02*
X026182D01*
X026142Y012824D02*
Y012904D01*
X027362Y016614D02*
X027442D01*
X027402Y016574D02*
Y016654D01*
X026732Y012835D02*
X026812D01*
X026772Y012795D02*
Y012875D01*
X026417Y012520D02*
X026497D01*
X026457Y012480D02*
Y012560D01*
X027362Y017244D02*
X027442D01*
X027402Y017204D02*
Y017284D01*
X026417Y012835D02*
X026497D01*
X026457Y012795D02*
Y012875D01*
X027047Y018179D02*
X027127D01*
X027087Y018139D02*
Y018219D01*
X026417Y010630D02*
X026497D01*
X026457Y010590D02*
Y010670D01*
X028306Y018504D02*
X028386D01*
X028346Y018464D02*
Y018544D01*
X026830Y017677D02*
X026910D01*
X026870Y017637D02*
Y017717D01*
X028316Y018819D02*
X028396D01*
X028356Y018779D02*
Y018859D01*
X026682Y017835D02*
X026762D01*
X026722Y017795D02*
Y017875D01*
X027677Y018504D02*
X027757D01*
X027717Y018464D02*
Y018544D01*
X025787Y012510D02*
X025867D01*
X025827Y012470D02*
Y012550D01*
X027362Y018504D02*
X027442D01*
X027402Y018464D02*
Y018544D01*
X025787Y011555D02*
X025867D01*
X025827Y011515D02*
Y011595D01*
X026417Y012205D02*
X026497D01*
X026457Y012165D02*
Y012245D01*
X030856Y010315D02*
X030936D01*
X030896Y010275D02*
Y010355D01*
X031141Y010279D02*
X031221D01*
X031181Y010239D02*
Y010319D01*
X028937Y013469D02*
X029017D01*
X028977Y013429D02*
Y013509D01*
X029881Y013789D02*
X029961D01*
X029921Y013749D02*
Y013829D01*
X030216Y013465D02*
X030296D01*
X030256Y013425D02*
Y013505D01*
X031761Y013150D02*
X031841D01*
X031801Y013110D02*
Y013190D01*
X029251Y013465D02*
X029331D01*
X029291Y013425D02*
Y013505D01*
X030816Y013474D02*
X030896D01*
X030856Y013434D02*
Y013514D01*
X031131Y011240D02*
X031211D01*
X031171Y011200D02*
Y011280D01*
X029251Y013150D02*
X029331D01*
X029291Y013110D02*
Y013190D01*
X030826Y013784D02*
X030906D01*
X030866Y013744D02*
Y013824D01*
X031761Y011575D02*
X031841D01*
X031801Y011535D02*
Y011615D01*
X031761Y012205D02*
X031841D01*
X031801Y012165D02*
Y012245D01*
X031761Y011890D02*
X031841D01*
X031801Y011850D02*
Y011930D01*
X030186Y010335D02*
X030266D01*
X030226Y010295D02*
Y010375D01*
X028592Y005815D02*
X028672D01*
X028632Y005775D02*
Y005855D01*
X028802Y005815D02*
X028882D01*
X028842Y005775D02*
Y005855D01*
X029182Y005815D02*
X029262D01*
X029222Y005775D02*
Y005855D01*
X029392Y005815D02*
X029472D01*
X029432Y005775D02*
Y005855D01*
X029773Y005815D02*
X029853D01*
X029813Y005775D02*
Y005855D01*
X029983Y005815D02*
X030063D01*
X030023Y005775D02*
Y005855D01*
X030364Y005815D02*
X030444D01*
X030404Y005775D02*
Y005855D01*
X030574Y005815D02*
X030654D01*
X030614Y005775D02*
Y005855D01*
X027362Y008740D02*
X027442D01*
X027402Y008700D02*
Y008780D01*
X028605Y005211D02*
X028685D01*
X028645Y005171D02*
Y005251D01*
X027362Y008425D02*
X027442D01*
X027402Y008385D02*
Y008465D01*
X028815Y005211D02*
X028895D01*
X028855Y005171D02*
Y005251D01*
X026102Y008740D02*
X026182D01*
X026142Y008700D02*
Y008780D01*
X029192Y004350D02*
X029272D01*
X029232Y004310D02*
Y004390D01*
X026102Y008425D02*
X026182D01*
X026142Y008385D02*
Y008465D01*
X029402Y004350D02*
X029482D01*
X029442Y004310D02*
Y004390D01*
X025472Y008740D02*
X025552D01*
X025512Y008700D02*
Y008780D01*
X029783Y004350D02*
X029863D01*
X029823Y004310D02*
Y004390D01*
X025472Y008425D02*
X025552D01*
X025512Y008385D02*
Y008465D01*
X029993Y004350D02*
X030073D01*
X030033Y004310D02*
Y004390D01*
X030373Y004350D02*
X030453D01*
X030413Y004310D02*
Y004390D01*
X030583Y004350D02*
X030663D01*
X030623Y004310D02*
Y004390D01*
X028001Y005815D02*
X028081D01*
X028041Y005775D02*
Y005855D01*
X028211Y005815D02*
X028291D01*
X028251Y005775D02*
Y005855D01*
X029566Y016299D02*
X029646D01*
X029606Y016259D02*
Y016339D01*
X030196Y019134D02*
X030276D01*
X030236Y019094D02*
Y019174D01*
X029566Y019134D02*
X029646D01*
X029606Y019094D02*
Y019174D01*
X030826Y019134D02*
X030906D01*
X030866Y019094D02*
Y019174D01*
X030511Y016299D02*
X030591D01*
X030551Y016259D02*
Y016339D01*
X031141Y010945D02*
X031221D01*
X031181Y010905D02*
Y010985D01*
X031141Y007795D02*
X031221D01*
X031181Y007755D02*
Y007835D01*
X030836Y008746D02*
X030916D01*
X030876Y008706D02*
Y008786D01*
X030767Y004242D02*
X030847D01*
X030807Y004202D02*
Y004282D01*
X030173Y005725D02*
X030253D01*
X030213Y005685D02*
Y005765D01*
X030177Y004242D02*
X030257D01*
X030217Y004202D02*
Y004282D01*
X029251Y009055D02*
X029331D01*
X029291Y009015D02*
Y009095D01*
X028992Y005725D02*
X029072D01*
X029032Y005685D02*
Y005765D01*
X029582Y005725D02*
X029662D01*
X029622Y005685D02*
Y005765D01*
X029025Y005215D02*
X029105D01*
X029065Y005175D02*
Y005255D01*
X028621Y019144D02*
X028701D01*
X028661Y019104D02*
Y019184D01*
X027991Y018819D02*
X028071D01*
X028031Y018779D02*
Y018859D01*
X027677Y019144D02*
X027757D01*
X027717Y019104D02*
Y019184D01*
X026735Y016925D02*
X026815D01*
X026775Y016885D02*
Y016965D01*
X027991Y016299D02*
X028071D01*
X028031Y016259D02*
Y016339D01*
X027047Y016614D02*
X027127D01*
X027087Y016574D02*
Y016654D01*
X027047Y012549D02*
X027127D01*
X027087Y012509D02*
Y012589D01*
X026732Y016299D02*
X026812D01*
X026772Y016259D02*
Y016339D01*
X026102Y019154D02*
X026182D01*
X026142Y019114D02*
Y019194D01*
X026102Y016299D02*
X026182D01*
X026142Y016259D02*
Y016339D01*
X026102Y017224D02*
X026182D01*
X026142Y017184D02*
Y017264D01*
X026102Y012510D02*
X026182D01*
X026142Y012470D02*
Y012550D01*
X022310Y014665D02*
X022390D01*
X022350Y014625D02*
Y014705D01*
X020854Y014665D02*
X020934D01*
X020894Y014625D02*
Y014705D01*
X021704Y013681D02*
X021784D01*
X021744Y013641D02*
Y013721D01*
X020854Y012697D02*
X020934D01*
X020894Y012657D02*
Y012737D01*
X028306Y011260D02*
X028386D01*
X028346Y011220D02*
Y011300D01*
X028936Y011260D02*
X029016D01*
X028976Y011220D02*
Y011300D01*
X028936Y010000D02*
X029016D01*
X028976Y009960D02*
Y010040D01*
X028306Y010000D02*
X028386D01*
X028346Y009960D02*
Y010040D01*
X027362Y011575D02*
X027442D01*
X027402Y011535D02*
Y011615D01*
X027677Y010000D02*
X027757D01*
X027717Y009960D02*
Y010040D01*
X027677Y009370D02*
X027757D01*
X027717Y009330D02*
Y009410D01*
X027362Y009370D02*
X027442D01*
X027402Y009330D02*
Y009410D01*
X028306Y008740D02*
X028386D01*
X028346Y008700D02*
Y008780D01*
X028401Y005725D02*
X028481D01*
X028441Y005685D02*
Y005765D01*
X027677Y009055D02*
X027757D01*
X027717Y009015D02*
Y009095D01*
X027677Y008740D02*
X027757D01*
X027717Y008700D02*
Y008780D01*
X027991Y008425D02*
X028071D01*
X028031Y008385D02*
Y008465D01*
X025787Y009685D02*
X025867D01*
X025827Y009645D02*
Y009725D01*
X026732Y008110D02*
X026812D01*
X026772Y008070D02*
Y008150D01*
X026102Y008110D02*
X026182D01*
X026142Y008070D02*
Y008150D01*
X025472Y007795D02*
X025552D01*
X025512Y007755D02*
Y007835D01*
X020854Y013878D02*
X020934D01*
X020894Y013838D02*
Y013918D01*
X030511Y008776D02*
X030591D01*
X030551Y008736D02*
Y008816D01*
X030494Y009047D02*
X030574D01*
X030534Y009007D02*
Y009087D01*
X029881Y009055D02*
X029961D01*
X029921Y009015D02*
Y009095D01*
X030200Y009031D02*
X030280D01*
X030240Y008991D02*
Y009071D01*
X034310Y015699D02*
X034390D01*
X034350Y015659D02*
Y015739D01*
X034310Y015909D02*
X034390D01*
X034350Y015869D02*
Y015949D01*
X034341Y014249D02*
X034421D01*
X034381Y014209D02*
Y014289D01*
X034360Y014459D02*
X034440D01*
X034400Y014419D02*
Y014499D01*
X020854Y014272D02*
X020934D01*
X020894Y014232D02*
Y014312D01*
X029881Y016299D02*
X029961D01*
X029921Y016259D02*
Y016339D01*
X030511Y019134D02*
X030591D01*
X030551Y019094D02*
Y019174D01*
X029881Y019134D02*
X029961D01*
X029921Y019094D02*
Y019174D01*
X030521Y010315D02*
X030601D01*
X030561Y010275D02*
Y010355D01*
X030196Y016299D02*
X030276D01*
X030236Y016259D02*
Y016339D01*
X028936Y019134D02*
X029016D01*
X028976Y019094D02*
Y019174D01*
X027991Y019144D02*
X028071D01*
X028031Y019104D02*
Y019184D01*
X027991Y018504D02*
X028071D01*
X028031Y018464D02*
Y018544D01*
X026417Y019154D02*
X026497D01*
X026457Y019114D02*
Y019194D01*
X026417Y016929D02*
X026497D01*
X026457Y016889D02*
Y016969D01*
X028621Y016299D02*
X028701D01*
X028661Y016259D02*
Y016339D01*
X026732Y016614D02*
X026812D01*
X026772Y016574D02*
Y016654D01*
X027362Y016299D02*
X027442D01*
X027402Y016259D02*
Y016339D01*
X026732Y011890D02*
X026812D01*
X026772Y011850D02*
Y011930D01*
X026417Y013150D02*
X026497D01*
X026457Y013110D02*
Y013190D01*
X026417Y016299D02*
X026497D01*
X026457Y016259D02*
Y016339D01*
X025472Y012864D02*
X025552D01*
X025512Y012824D02*
Y012904D01*
X026102Y007795D02*
X026182D01*
X026142Y007755D02*
Y007835D01*
X026732Y007795D02*
X026812D01*
X026772Y007755D02*
Y007835D01*
X025472Y008110D02*
X025552D01*
X025512Y008070D02*
Y008150D01*
X027991Y010000D02*
X028071D01*
X028031Y009960D02*
Y010040D01*
X027362Y010630D02*
X027442D01*
X027402Y010590D02*
Y010670D01*
X029251Y010630D02*
X029331D01*
X029291Y010590D02*
Y010670D01*
X027047Y010315D02*
X027127D01*
X027087Y010275D02*
Y010355D01*
X028621Y009370D02*
X028701D01*
X028661Y009330D02*
Y009410D01*
X028936Y008425D02*
X029016D01*
X028976Y008385D02*
Y008465D01*
X029881Y008740D02*
X029961D01*
X029921Y008700D02*
Y008780D01*
X030511Y007795D02*
X030591D01*
X030551Y007755D02*
Y007835D01*
X031171Y009380D02*
X031251D01*
X031211Y009340D02*
Y009420D01*
X021704Y012500D02*
X021784D01*
X021744Y012460D02*
Y012540D01*
X021704Y014468D02*
X021784D01*
X021744Y014428D02*
Y014509D01*
X022310Y013484D02*
X022390D01*
X022350Y013444D02*
Y013524D01*
X022310Y013878D02*
X022390D01*
X022350Y013838D02*
Y013918D01*
X022310Y014272D02*
X022390D01*
X022350Y014232D02*
Y014312D01*
X022310Y015059D02*
X022390D01*
X022350Y015019D02*
Y015099D01*
X021704Y012894D02*
X021784D01*
X021744Y012854D02*
Y012934D01*
X021704Y013287D02*
X021784D01*
X021744Y013247D02*
Y013327D01*
X020854Y013091D02*
X020934D01*
X020894Y013051D02*
Y013131D01*
X020854Y013484D02*
X020934D01*
X020894Y013444D02*
Y013524D01*
X021704Y014075D02*
X021784D01*
X021744Y014035D02*
Y014115D01*
X029881Y008425D02*
X029961D01*
X029921Y008385D02*
Y008465D01*
X030196Y008425D02*
X030276D01*
X030236Y008385D02*
Y008465D01*
X030511Y008110D02*
X030591D01*
X030551Y008070D02*
Y008150D01*
X029251Y008425D02*
X029331D01*
X029291Y008385D02*
Y008465D01*
X029251Y008740D02*
X029331D01*
X029291Y008700D02*
Y008780D01*
X029566Y009055D02*
X029646D01*
X029606Y009015D02*
Y009095D01*
X028936Y008740D02*
X029016D01*
X028976Y008700D02*
Y008780D01*
X028936Y009055D02*
X029016D01*
X028976Y009015D02*
Y009095D01*
X028936Y009370D02*
X029016D01*
X028976Y009330D02*
Y009410D01*
X028621Y009055D02*
X028701D01*
X028661Y009015D02*
Y009095D01*
X027991Y009055D02*
X028071D01*
X028031Y009015D02*
Y009095D01*
X027991Y008740D02*
X028071D01*
X028031Y008700D02*
Y008780D01*
X028306Y008425D02*
X028386D01*
X028346Y008385D02*
Y008465D01*
X028936Y007795D02*
X029016D01*
X028976Y007755D02*
Y007835D01*
M02*
