G04*
G04 #@! TF.GenerationSoftware,Altium Limited,Altium Designer,22.4.2 (48)*
G04*
G04 Layer_Color=16711935*
%FSAX24Y24*%
%MOIN*%
G70*
G04*
G04 #@! TF.SameCoordinates,AB5D8D99-9076-4583-ABAD-60FF7F719BC9*
G04*
G04*
G04 #@! TF.FilePolarity,Negative*
G04*
G01*
G75*
%ADD10C,0.0394*%
%ADD19C,0.0157*%
G04:AMPARAMS|DCode=25|XSize=23.6mil|YSize=23.6mil|CornerRadius=5.9mil|HoleSize=0mil|Usage=FLASHONLY|Rotation=270.000|XOffset=0mil|YOffset=0mil|HoleType=Round|Shape=RoundedRectangle|*
%AMROUNDEDRECTD25*
21,1,0.0236,0.0118,0,0,270.0*
21,1,0.0118,0.0236,0,0,270.0*
1,1,0.0118,-0.0059,-0.0059*
1,1,0.0118,-0.0059,0.0059*
1,1,0.0118,0.0059,0.0059*
1,1,0.0118,0.0059,-0.0059*
%
%ADD25ROUNDEDRECTD25*%
G04:AMPARAMS|DCode=26|XSize=13.8mil|YSize=15.7mil|CornerRadius=3.4mil|HoleSize=0mil|Usage=FLASHONLY|Rotation=270.000|XOffset=0mil|YOffset=0mil|HoleType=Round|Shape=RoundedRectangle|*
%AMROUNDEDRECTD26*
21,1,0.0138,0.0089,0,0,270.0*
21,1,0.0069,0.0157,0,0,270.0*
1,1,0.0069,-0.0044,-0.0034*
1,1,0.0069,-0.0044,0.0034*
1,1,0.0069,0.0044,0.0034*
1,1,0.0069,0.0044,-0.0034*
%
%ADD26ROUNDEDRECTD26*%
G04:AMPARAMS|DCode=29|XSize=23.6mil|YSize=23.6mil|CornerRadius=5.9mil|HoleSize=0mil|Usage=FLASHONLY|Rotation=0.000|XOffset=0mil|YOffset=0mil|HoleType=Round|Shape=RoundedRectangle|*
%AMROUNDEDRECTD29*
21,1,0.0236,0.0118,0,0,0.0*
21,1,0.0118,0.0236,0,0,0.0*
1,1,0.0118,0.0059,-0.0059*
1,1,0.0118,-0.0059,-0.0059*
1,1,0.0118,-0.0059,0.0059*
1,1,0.0118,0.0059,0.0059*
%
%ADD29ROUNDEDRECTD29*%
G04:AMPARAMS|DCode=30|XSize=13.8mil|YSize=15.7mil|CornerRadius=3.4mil|HoleSize=0mil|Usage=FLASHONLY|Rotation=180.000|XOffset=0mil|YOffset=0mil|HoleType=Round|Shape=RoundedRectangle|*
%AMROUNDEDRECTD30*
21,1,0.0138,0.0089,0,0,180.0*
21,1,0.0069,0.0157,0,0,180.0*
1,1,0.0069,-0.0034,0.0044*
1,1,0.0069,0.0034,0.0044*
1,1,0.0069,0.0034,-0.0044*
1,1,0.0069,-0.0034,-0.0044*
%
%ADD30ROUNDEDRECTD30*%
G04:AMPARAMS|DCode=33|XSize=25.2mil|YSize=25.2mil|CornerRadius=6.3mil|HoleSize=0mil|Usage=FLASHONLY|Rotation=0.000|XOffset=0mil|YOffset=0mil|HoleType=Round|Shape=RoundedRectangle|*
%AMROUNDEDRECTD33*
21,1,0.0252,0.0126,0,0,0.0*
21,1,0.0126,0.0252,0,0,0.0*
1,1,0.0126,0.0063,-0.0063*
1,1,0.0126,-0.0063,-0.0063*
1,1,0.0126,-0.0063,0.0063*
1,1,0.0126,0.0063,0.0063*
%
%ADD33ROUNDEDRECTD33*%
G04:AMPARAMS|DCode=34|XSize=25.2mil|YSize=25.2mil|CornerRadius=6.3mil|HoleSize=0mil|Usage=FLASHONLY|Rotation=270.000|XOffset=0mil|YOffset=0mil|HoleType=Round|Shape=RoundedRectangle|*
%AMROUNDEDRECTD34*
21,1,0.0252,0.0126,0,0,270.0*
21,1,0.0126,0.0252,0,0,270.0*
1,1,0.0126,-0.0063,-0.0063*
1,1,0.0126,-0.0063,0.0063*
1,1,0.0126,0.0063,0.0063*
1,1,0.0126,0.0063,-0.0063*
%
%ADD34ROUNDEDRECTD34*%
G04:AMPARAMS|DCode=37|XSize=25.2mil|YSize=25.2mil|CornerRadius=6.3mil|HoleSize=0mil|Usage=FLASHONLY|Rotation=225.000|XOffset=0mil|YOffset=0mil|HoleType=Round|Shape=RoundedRectangle|*
%AMROUNDEDRECTD37*
21,1,0.0252,0.0126,0,0,225.0*
21,1,0.0126,0.0252,0,0,225.0*
1,1,0.0126,-0.0089,0.0000*
1,1,0.0126,0.0000,0.0089*
1,1,0.0126,0.0089,0.0000*
1,1,0.0126,0.0000,-0.0089*
%
%ADD37ROUNDEDRECTD37*%
G04:AMPARAMS|DCode=39|XSize=59.1mil|YSize=51.2mil|CornerRadius=12.8mil|HoleSize=0mil|Usage=FLASHONLY|Rotation=90.000|XOffset=0mil|YOffset=0mil|HoleType=Round|Shape=RoundedRectangle|*
%AMROUNDEDRECTD39*
21,1,0.0591,0.0256,0,0,90.0*
21,1,0.0335,0.0512,0,0,90.0*
1,1,0.0256,0.0128,0.0167*
1,1,0.0256,0.0128,-0.0167*
1,1,0.0256,-0.0128,-0.0167*
1,1,0.0256,-0.0128,0.0167*
%
%ADD39ROUNDEDRECTD39*%
G04:AMPARAMS|DCode=40|XSize=16.5mil|YSize=18.1mil|CornerRadius=4.1mil|HoleSize=0mil|Usage=FLASHONLY|Rotation=270.000|XOffset=0mil|YOffset=0mil|HoleType=Round|Shape=RoundedRectangle|*
%AMROUNDEDRECTD40*
21,1,0.0165,0.0098,0,0,270.0*
21,1,0.0083,0.0181,0,0,270.0*
1,1,0.0083,-0.0049,-0.0041*
1,1,0.0083,-0.0049,0.0041*
1,1,0.0083,0.0049,0.0041*
1,1,0.0083,0.0049,-0.0041*
%
%ADD40ROUNDEDRECTD40*%
%ADD45C,0.1260*%
%ADD46C,0.2362*%
%ADD47C,0.0591*%
G04:AMPARAMS|DCode=51|XSize=11.8mil|YSize=59.1mil|CornerRadius=3mil|HoleSize=0mil|Usage=FLASHONLY|Rotation=0.000|XOffset=0mil|YOffset=0mil|HoleType=Round|Shape=RoundedRectangle|*
%AMROUNDEDRECTD51*
21,1,0.0118,0.0531,0,0,0.0*
21,1,0.0059,0.0591,0,0,0.0*
1,1,0.0059,0.0030,-0.0266*
1,1,0.0059,-0.0030,-0.0266*
1,1,0.0059,-0.0030,0.0266*
1,1,0.0059,0.0030,0.0266*
%
%ADD51ROUNDEDRECTD51*%
G04:AMPARAMS|DCode=52|XSize=11.8mil|YSize=59.1mil|CornerRadius=3mil|HoleSize=0mil|Usage=FLASHONLY|Rotation=270.000|XOffset=0mil|YOffset=0mil|HoleType=Round|Shape=RoundedRectangle|*
%AMROUNDEDRECTD52*
21,1,0.0118,0.0531,0,0,270.0*
21,1,0.0059,0.0591,0,0,270.0*
1,1,0.0059,-0.0266,-0.0030*
1,1,0.0059,-0.0266,0.0030*
1,1,0.0059,0.0266,0.0030*
1,1,0.0059,0.0266,-0.0030*
%
%ADD52ROUNDEDRECTD52*%
G04:AMPARAMS|DCode=53|XSize=16.5mil|YSize=18.1mil|CornerRadius=4.1mil|HoleSize=0mil|Usage=FLASHONLY|Rotation=180.000|XOffset=0mil|YOffset=0mil|HoleType=Round|Shape=RoundedRectangle|*
%AMROUNDEDRECTD53*
21,1,0.0165,0.0098,0,0,180.0*
21,1,0.0083,0.0181,0,0,180.0*
1,1,0.0083,-0.0041,0.0049*
1,1,0.0083,0.0041,0.0049*
1,1,0.0083,0.0041,-0.0049*
1,1,0.0083,-0.0041,-0.0049*
%
%ADD53ROUNDEDRECTD53*%
G04:AMPARAMS|DCode=54|XSize=110.2mil|YSize=65mil|CornerRadius=8.1mil|HoleSize=0mil|Usage=FLASHONLY|Rotation=45.000|XOffset=0mil|YOffset=0mil|HoleType=Round|Shape=RoundedRectangle|*
%AMROUNDEDRECTD54*
21,1,0.1102,0.0487,0,0,45.0*
21,1,0.0940,0.0650,0,0,45.0*
1,1,0.0162,0.0505,0.0160*
1,1,0.0162,-0.0160,-0.0505*
1,1,0.0162,-0.0505,-0.0160*
1,1,0.0162,0.0160,0.0505*
%
%ADD54ROUNDEDRECTD54*%
G04:AMPARAMS|DCode=55|XSize=16.5mil|YSize=18.1mil|CornerRadius=4.1mil|HoleSize=0mil|Usage=FLASHONLY|Rotation=135.000|XOffset=0mil|YOffset=0mil|HoleType=Round|Shape=RoundedRectangle|*
%AMROUNDEDRECTD55*
21,1,0.0165,0.0098,0,0,135.0*
21,1,0.0083,0.0181,0,0,135.0*
1,1,0.0083,0.0006,0.0064*
1,1,0.0083,0.0064,0.0006*
1,1,0.0083,-0.0006,-0.0064*
1,1,0.0083,-0.0064,-0.0006*
%
%ADD55ROUNDEDRECTD55*%
%ADD64C,0.0787*%
D10*
X008110Y011663D02*
D03*
X024646D02*
D03*
D19*
X014173Y016457D02*
D03*
Y016772D02*
D03*
Y017087D02*
D03*
Y018346D02*
D03*
Y018661D02*
D03*
Y018976D02*
D03*
X013858Y016457D02*
D03*
Y016772D02*
D03*
Y017087D02*
D03*
Y018346D02*
D03*
Y018661D02*
D03*
Y018976D02*
D03*
X013543Y016457D02*
D03*
Y016772D02*
D03*
Y017087D02*
D03*
Y018346D02*
D03*
Y018661D02*
D03*
Y018976D02*
D03*
X013228Y016457D02*
D03*
Y016772D02*
D03*
Y017087D02*
D03*
Y018346D02*
D03*
Y018661D02*
D03*
Y018976D02*
D03*
X012913Y016457D02*
D03*
Y016772D02*
D03*
Y017087D02*
D03*
Y018346D02*
D03*
Y018661D02*
D03*
Y018976D02*
D03*
X012598Y016457D02*
D03*
Y016772D02*
D03*
Y017087D02*
D03*
Y018346D02*
D03*
Y018661D02*
D03*
Y018976D02*
D03*
X012283Y016457D02*
D03*
Y016772D02*
D03*
Y017087D02*
D03*
Y018346D02*
D03*
Y018661D02*
D03*
Y018976D02*
D03*
X011969Y016457D02*
D03*
Y016772D02*
D03*
Y017087D02*
D03*
Y018346D02*
D03*
Y018661D02*
D03*
Y018976D02*
D03*
X011654Y016457D02*
D03*
Y016772D02*
D03*
Y017087D02*
D03*
Y018346D02*
D03*
Y018661D02*
D03*
Y018976D02*
D03*
X011339Y016457D02*
D03*
Y016772D02*
D03*
Y017087D02*
D03*
Y018346D02*
D03*
Y018661D02*
D03*
Y018976D02*
D03*
X011024Y016457D02*
D03*
Y016772D02*
D03*
Y017087D02*
D03*
Y018346D02*
D03*
Y018661D02*
D03*
Y018976D02*
D03*
X010709Y016457D02*
D03*
Y016772D02*
D03*
Y017087D02*
D03*
Y018346D02*
D03*
Y018661D02*
D03*
Y018976D02*
D03*
X010394Y016457D02*
D03*
Y016772D02*
D03*
Y017087D02*
D03*
Y018346D02*
D03*
Y018661D02*
D03*
Y018976D02*
D03*
X010079Y016457D02*
D03*
Y016772D02*
D03*
Y017087D02*
D03*
Y018346D02*
D03*
Y018661D02*
D03*
Y018976D02*
D03*
X009764Y016457D02*
D03*
Y016772D02*
D03*
Y017087D02*
D03*
Y018346D02*
D03*
Y018661D02*
D03*
Y018976D02*
D03*
X009449Y016457D02*
D03*
Y016772D02*
D03*
Y017087D02*
D03*
Y018346D02*
D03*
Y018661D02*
D03*
Y018976D02*
D03*
X030709Y016457D02*
D03*
Y016772D02*
D03*
Y017087D02*
D03*
Y018346D02*
D03*
Y018661D02*
D03*
Y018976D02*
D03*
X030394Y016457D02*
D03*
Y016772D02*
D03*
Y017087D02*
D03*
Y018346D02*
D03*
Y018661D02*
D03*
Y018976D02*
D03*
X030079Y016457D02*
D03*
Y016772D02*
D03*
Y017087D02*
D03*
Y018346D02*
D03*
Y018661D02*
D03*
Y018976D02*
D03*
X029764Y016457D02*
D03*
Y016772D02*
D03*
Y017087D02*
D03*
Y018346D02*
D03*
Y018661D02*
D03*
Y018976D02*
D03*
X029449Y016457D02*
D03*
Y016772D02*
D03*
Y017087D02*
D03*
Y018346D02*
D03*
Y018661D02*
D03*
Y018976D02*
D03*
X029134Y016457D02*
D03*
Y016772D02*
D03*
Y017087D02*
D03*
Y018346D02*
D03*
Y018661D02*
D03*
Y018976D02*
D03*
X028819Y016457D02*
D03*
Y016772D02*
D03*
Y017087D02*
D03*
Y018346D02*
D03*
Y018661D02*
D03*
Y018976D02*
D03*
X028504Y016457D02*
D03*
Y016772D02*
D03*
Y017087D02*
D03*
Y018346D02*
D03*
Y018661D02*
D03*
Y018976D02*
D03*
X028189Y016457D02*
D03*
Y016772D02*
D03*
Y017087D02*
D03*
Y018346D02*
D03*
Y018661D02*
D03*
Y018976D02*
D03*
X027874Y016457D02*
D03*
Y016772D02*
D03*
Y017087D02*
D03*
Y018346D02*
D03*
Y018661D02*
D03*
Y018976D02*
D03*
X027559Y016457D02*
D03*
Y016772D02*
D03*
Y017087D02*
D03*
Y018346D02*
D03*
Y018661D02*
D03*
Y018976D02*
D03*
X027244Y016457D02*
D03*
Y016772D02*
D03*
Y017087D02*
D03*
Y018346D02*
D03*
Y018661D02*
D03*
Y018976D02*
D03*
X026929Y016457D02*
D03*
Y016772D02*
D03*
Y017087D02*
D03*
Y018346D02*
D03*
Y018661D02*
D03*
Y018976D02*
D03*
X026614Y016457D02*
D03*
Y016772D02*
D03*
Y017087D02*
D03*
Y018346D02*
D03*
Y018661D02*
D03*
Y018976D02*
D03*
X026299Y016457D02*
D03*
Y016772D02*
D03*
Y017087D02*
D03*
Y018346D02*
D03*
Y018661D02*
D03*
Y018976D02*
D03*
X025984Y016457D02*
D03*
Y016772D02*
D03*
Y017087D02*
D03*
Y018346D02*
D03*
Y018661D02*
D03*
Y018976D02*
D03*
D25*
X012362Y015768D02*
D03*
X012717D02*
D03*
X010846Y009675D02*
D03*
X010492D02*
D03*
X012106Y010256D02*
D03*
X012461D02*
D03*
X011742Y010955D02*
D03*
X011388D02*
D03*
X028898Y015768D02*
D03*
X029252D02*
D03*
X027382Y009675D02*
D03*
X027028D02*
D03*
X028642Y010256D02*
D03*
X028996D02*
D03*
X028278Y010955D02*
D03*
X027923D02*
D03*
D26*
X015098Y012992D02*
D03*
X014843D02*
D03*
X015098Y012047D02*
D03*
X014843D02*
D03*
X014134Y011732D02*
D03*
X013878D02*
D03*
X015098Y012677D02*
D03*
X014843D02*
D03*
X015098Y011732D02*
D03*
X014843D02*
D03*
X015098Y012362D02*
D03*
X014843D02*
D03*
X012254Y013346D02*
D03*
X011998D02*
D03*
X012254Y012667D02*
D03*
X011998D02*
D03*
X012254Y013632D02*
D03*
X011998D02*
D03*
X014144Y013307D02*
D03*
X013888D02*
D03*
X013189Y013622D02*
D03*
X012933D02*
D03*
X015098Y011417D02*
D03*
X014843D02*
D03*
X013189Y013307D02*
D03*
X012933D02*
D03*
X013189Y012362D02*
D03*
X012933D02*
D03*
X013189Y012677D02*
D03*
X012933D02*
D03*
X013189Y012992D02*
D03*
X012933D02*
D03*
X014144Y012362D02*
D03*
X013888D02*
D03*
X014144Y012992D02*
D03*
X013888D02*
D03*
X014144Y013622D02*
D03*
X013888D02*
D03*
X014144Y012677D02*
D03*
X013888D02*
D03*
X014144Y012047D02*
D03*
X013888D02*
D03*
X007106Y009902D02*
D03*
X007362D02*
D03*
X013579Y009209D02*
D03*
X013835D02*
D03*
X031634Y012992D02*
D03*
X031378D02*
D03*
X031634Y012047D02*
D03*
X031378D02*
D03*
X030669Y011732D02*
D03*
X030413D02*
D03*
X031634Y012677D02*
D03*
X031378D02*
D03*
X031634Y011732D02*
D03*
X031378D02*
D03*
X031634Y012362D02*
D03*
X031378D02*
D03*
X028789Y013346D02*
D03*
X028533D02*
D03*
X028789Y012667D02*
D03*
X028533D02*
D03*
X028789Y013632D02*
D03*
X028533D02*
D03*
X030679Y013307D02*
D03*
X030423D02*
D03*
X029724Y013622D02*
D03*
X029469D02*
D03*
X031634Y011417D02*
D03*
X031378D02*
D03*
X029724Y013307D02*
D03*
X029469D02*
D03*
X029724Y012362D02*
D03*
X029469D02*
D03*
X029724Y012677D02*
D03*
X029469D02*
D03*
X029724Y012992D02*
D03*
X029469D02*
D03*
X030679Y012362D02*
D03*
X030423D02*
D03*
X030679Y012992D02*
D03*
X030423D02*
D03*
X030679Y013622D02*
D03*
X030423D02*
D03*
X030679Y012677D02*
D03*
X030423D02*
D03*
X030679Y012047D02*
D03*
X030423D02*
D03*
X023642Y009902D02*
D03*
X023898D02*
D03*
X030114Y009209D02*
D03*
X030370D02*
D03*
D29*
X010482Y022736D02*
D03*
Y023091D02*
D03*
X013494Y022736D02*
D03*
Y023091D02*
D03*
X007490Y022736D02*
D03*
Y023091D02*
D03*
X027018Y022736D02*
D03*
Y023091D02*
D03*
X030030Y022736D02*
D03*
Y023091D02*
D03*
X024026Y022736D02*
D03*
Y023091D02*
D03*
D30*
X012283Y012352D02*
D03*
Y012096D02*
D03*
X013199Y010492D02*
D03*
Y010748D02*
D03*
X013543Y010492D02*
D03*
Y010748D02*
D03*
X014232Y009193D02*
D03*
Y008937D02*
D03*
Y009744D02*
D03*
Y009488D02*
D03*
X013878Y010128D02*
D03*
Y009872D02*
D03*
X028819Y012352D02*
D03*
Y012096D02*
D03*
X029734Y010492D02*
D03*
Y010748D02*
D03*
X030079Y010492D02*
D03*
Y010748D02*
D03*
X030768Y009193D02*
D03*
Y008937D02*
D03*
Y009744D02*
D03*
Y009488D02*
D03*
X030413Y010128D02*
D03*
Y009872D02*
D03*
D33*
X009341Y009394D02*
D03*
Y009032D02*
D03*
X009921Y008134D02*
D03*
Y007772D02*
D03*
X012490Y010626D02*
D03*
Y010988D02*
D03*
X008720Y013331D02*
D03*
Y012968D02*
D03*
X013120Y008106D02*
D03*
Y008469D02*
D03*
X006959Y010537D02*
D03*
Y010900D02*
D03*
X025876Y009394D02*
D03*
Y009032D02*
D03*
X026457Y008134D02*
D03*
Y007772D02*
D03*
X029026Y010626D02*
D03*
Y010988D02*
D03*
X025256Y013331D02*
D03*
Y012968D02*
D03*
X029656Y008106D02*
D03*
Y008469D02*
D03*
X023494Y010537D02*
D03*
Y010900D02*
D03*
D34*
X010213Y010630D02*
D03*
X010575D02*
D03*
X011579Y009685D02*
D03*
X011217D02*
D03*
X008972Y010778D02*
D03*
X009335D02*
D03*
X014640Y010591D02*
D03*
X014278D02*
D03*
X014955Y013711D02*
D03*
X014593D02*
D03*
X014502Y007539D02*
D03*
X014140D02*
D03*
X014039Y015748D02*
D03*
X013677D02*
D03*
X009630Y019685D02*
D03*
X009268D02*
D03*
X011906D02*
D03*
X012268D02*
D03*
X013055D02*
D03*
X012693D02*
D03*
X026748Y010630D02*
D03*
X027110D02*
D03*
X028114Y009685D02*
D03*
X027752D02*
D03*
X025508Y010778D02*
D03*
X025870D02*
D03*
X031175Y010591D02*
D03*
X030813D02*
D03*
X031490Y013711D02*
D03*
X031128D02*
D03*
X031037Y007539D02*
D03*
X030675D02*
D03*
X030575Y015748D02*
D03*
X030213D02*
D03*
X026165Y019685D02*
D03*
X025803D02*
D03*
X028441D02*
D03*
X028803D02*
D03*
X029591D02*
D03*
X029228D02*
D03*
D37*
X013652Y011270D02*
D03*
X013396Y011526D02*
D03*
X030187Y011270D02*
D03*
X029931Y011526D02*
D03*
D39*
X008100Y012343D02*
D03*
X008848D02*
D03*
X012874Y007362D02*
D03*
X013622D02*
D03*
X024636Y012343D02*
D03*
X025384D02*
D03*
X029409Y007362D02*
D03*
X030157D02*
D03*
D40*
X011500Y010384D02*
D03*
X011768D02*
D03*
X012622Y011742D02*
D03*
X012890D02*
D03*
X011945Y012996D02*
D03*
X011677D02*
D03*
X013530Y012047D02*
D03*
X013262D02*
D03*
X009750Y013317D02*
D03*
X009482D02*
D03*
X011944Y009216D02*
D03*
X011676D02*
D03*
X012256Y008583D02*
D03*
X011988D02*
D03*
X014896Y009311D02*
D03*
X015163D02*
D03*
X014039Y019646D02*
D03*
X014307D02*
D03*
X013323Y015787D02*
D03*
X013055D02*
D03*
X011472Y019646D02*
D03*
X011205D02*
D03*
X009984D02*
D03*
X010252D02*
D03*
X010843D02*
D03*
X010575D02*
D03*
X009945Y015787D02*
D03*
X010213D02*
D03*
X013409Y019646D02*
D03*
X013677D02*
D03*
X009305Y015778D02*
D03*
X009573D02*
D03*
X028035Y010384D02*
D03*
X028303D02*
D03*
X029157Y011742D02*
D03*
X029425D02*
D03*
X028481Y012996D02*
D03*
X028213D02*
D03*
X030065Y012047D02*
D03*
X029797D02*
D03*
X026285Y013317D02*
D03*
X026018D02*
D03*
X028480Y009216D02*
D03*
X028212D02*
D03*
X028791Y008583D02*
D03*
X028524D02*
D03*
X031431Y009311D02*
D03*
X031699D02*
D03*
X030575Y019646D02*
D03*
X030843D02*
D03*
X029858Y015787D02*
D03*
X029591D02*
D03*
X028008Y019646D02*
D03*
X027740D02*
D03*
X026520D02*
D03*
X026787D02*
D03*
X027378D02*
D03*
X027110D02*
D03*
X026480Y015787D02*
D03*
X026748D02*
D03*
X029945Y019646D02*
D03*
X030213D02*
D03*
X025841Y015778D02*
D03*
X026108D02*
D03*
D45*
X034252Y025591D02*
D03*
Y001969D02*
D03*
X005906D02*
D03*
Y025591D02*
D03*
D46*
X018504Y005118D02*
D03*
X005118D02*
D03*
X018504Y022441D02*
D03*
X005118D02*
D03*
X035039Y005118D02*
D03*
X021654D02*
D03*
X035039Y022441D02*
D03*
X021654D02*
D03*
D47*
X007884Y005059D02*
D03*
X015738D02*
D03*
X008465Y005846D02*
D03*
X015157D02*
D03*
X005059Y019675D02*
D03*
Y007884D02*
D03*
X005846Y019094D02*
D03*
Y008465D02*
D03*
X017657Y019675D02*
D03*
Y007884D02*
D03*
X018445Y019094D02*
D03*
Y008465D02*
D03*
X024419Y005059D02*
D03*
X032274D02*
D03*
X025000Y005846D02*
D03*
X031693D02*
D03*
X021594Y019675D02*
D03*
Y007884D02*
D03*
X022382Y019094D02*
D03*
Y008465D02*
D03*
X034193Y019675D02*
D03*
Y007884D02*
D03*
X034980Y019094D02*
D03*
Y008465D02*
D03*
D51*
X014665Y006240D02*
D03*
Y004783D02*
D03*
X014468Y006240D02*
D03*
Y004783D02*
D03*
X014272Y006240D02*
D03*
Y004783D02*
D03*
X014075Y006240D02*
D03*
Y004783D02*
D03*
X013878Y006240D02*
D03*
Y004783D02*
D03*
X013681Y006240D02*
D03*
Y004783D02*
D03*
X013484Y006240D02*
D03*
Y004783D02*
D03*
X013287Y006240D02*
D03*
Y004783D02*
D03*
X013091Y006240D02*
D03*
Y004783D02*
D03*
X012894Y006240D02*
D03*
Y004783D02*
D03*
X012697Y006240D02*
D03*
Y004783D02*
D03*
X012500Y006240D02*
D03*
Y004783D02*
D03*
X012303Y006240D02*
D03*
Y004783D02*
D03*
X012106Y006240D02*
D03*
Y004783D02*
D03*
X011909Y006240D02*
D03*
Y004783D02*
D03*
X011713Y006240D02*
D03*
Y004783D02*
D03*
X011516Y006240D02*
D03*
Y004783D02*
D03*
X011319Y006240D02*
D03*
Y004783D02*
D03*
X011122Y006240D02*
D03*
Y004783D02*
D03*
X010925Y006240D02*
D03*
Y004783D02*
D03*
X010728Y006240D02*
D03*
Y004783D02*
D03*
X010532Y006240D02*
D03*
Y004783D02*
D03*
X010335Y006240D02*
D03*
Y004783D02*
D03*
X010138Y006240D02*
D03*
Y004783D02*
D03*
X009941Y006240D02*
D03*
Y004783D02*
D03*
X009744Y006240D02*
D03*
Y004783D02*
D03*
X009547Y006240D02*
D03*
Y004783D02*
D03*
X009350Y006240D02*
D03*
Y004783D02*
D03*
X009154Y006240D02*
D03*
Y004783D02*
D03*
X008957Y006240D02*
D03*
Y004783D02*
D03*
X031201Y006240D02*
D03*
Y004783D02*
D03*
X031004Y006240D02*
D03*
Y004783D02*
D03*
X030807Y006240D02*
D03*
Y004783D02*
D03*
X030610Y006240D02*
D03*
Y004783D02*
D03*
X030413Y006240D02*
D03*
Y004783D02*
D03*
X030217Y006240D02*
D03*
Y004783D02*
D03*
X030020Y006240D02*
D03*
Y004783D02*
D03*
X029823Y006240D02*
D03*
Y004783D02*
D03*
X029626Y006240D02*
D03*
Y004783D02*
D03*
X029429Y006240D02*
D03*
Y004783D02*
D03*
X029232Y006240D02*
D03*
Y004783D02*
D03*
X029035Y006240D02*
D03*
Y004783D02*
D03*
X028839Y006240D02*
D03*
Y004783D02*
D03*
X028642Y006240D02*
D03*
Y004783D02*
D03*
X028445Y006240D02*
D03*
Y004783D02*
D03*
X028248Y006240D02*
D03*
Y004783D02*
D03*
X028051Y006240D02*
D03*
Y004783D02*
D03*
X027854Y006240D02*
D03*
Y004783D02*
D03*
X027657Y006240D02*
D03*
Y004783D02*
D03*
X027461Y006240D02*
D03*
Y004783D02*
D03*
X027264Y006240D02*
D03*
Y004783D02*
D03*
X027067Y006240D02*
D03*
Y004783D02*
D03*
X026870Y006240D02*
D03*
Y004783D02*
D03*
X026673Y006240D02*
D03*
Y004783D02*
D03*
X026476Y006240D02*
D03*
Y004783D02*
D03*
X026280Y006240D02*
D03*
Y004783D02*
D03*
X026083Y006240D02*
D03*
Y004783D02*
D03*
X025886Y006240D02*
D03*
Y004783D02*
D03*
X025689Y006240D02*
D03*
Y004783D02*
D03*
X025492Y006240D02*
D03*
Y004783D02*
D03*
D52*
X006240Y008957D02*
D03*
X004783D02*
D03*
X006240Y009154D02*
D03*
X004783D02*
D03*
X006240Y009350D02*
D03*
X004783D02*
D03*
X006240Y009547D02*
D03*
X004783D02*
D03*
X006240Y009744D02*
D03*
X004783D02*
D03*
X006240Y009941D02*
D03*
X004783D02*
D03*
X006240Y010138D02*
D03*
X004783D02*
D03*
X006240Y010335D02*
D03*
X004783D02*
D03*
X006240Y010532D02*
D03*
X004783D02*
D03*
X006240Y010728D02*
D03*
X004783D02*
D03*
X006240Y010925D02*
D03*
X004783D02*
D03*
X006240Y011122D02*
D03*
X004783D02*
D03*
X006240Y011319D02*
D03*
X004783D02*
D03*
X006240Y011516D02*
D03*
X004783D02*
D03*
X006240Y011713D02*
D03*
X004783D02*
D03*
X006240Y011909D02*
D03*
X004783D02*
D03*
X006240Y012106D02*
D03*
X004783D02*
D03*
X006240Y012303D02*
D03*
X004783D02*
D03*
X006240Y012500D02*
D03*
X004783D02*
D03*
X006240Y012697D02*
D03*
X004783D02*
D03*
X006240Y012894D02*
D03*
X004783D02*
D03*
X006240Y013091D02*
D03*
X004783D02*
D03*
X006240Y013287D02*
D03*
X004783D02*
D03*
X006240Y013484D02*
D03*
X004783D02*
D03*
X006240Y013681D02*
D03*
X004783D02*
D03*
X006240Y013878D02*
D03*
X004783D02*
D03*
X006240Y014075D02*
D03*
X004783D02*
D03*
X006240Y014272D02*
D03*
X004783D02*
D03*
X006240Y014468D02*
D03*
X004783D02*
D03*
X006240Y014665D02*
D03*
X004783D02*
D03*
X006240Y014862D02*
D03*
X004783D02*
D03*
X006240Y015059D02*
D03*
X004783D02*
D03*
X006240Y015256D02*
D03*
X004783D02*
D03*
X006240Y015453D02*
D03*
X004783D02*
D03*
X006240Y015650D02*
D03*
X004783D02*
D03*
X006240Y015846D02*
D03*
X004783D02*
D03*
X006240Y016043D02*
D03*
X004783D02*
D03*
X006240Y016240D02*
D03*
X004783D02*
D03*
X006240Y016437D02*
D03*
X004783D02*
D03*
X006240Y016634D02*
D03*
X004783D02*
D03*
X006240Y016831D02*
D03*
X004783D02*
D03*
X006240Y017028D02*
D03*
X004783D02*
D03*
X006240Y017224D02*
D03*
X004783D02*
D03*
X006240Y017421D02*
D03*
X004783D02*
D03*
X006240Y017618D02*
D03*
X004783D02*
D03*
X006240Y017815D02*
D03*
X004783D02*
D03*
X006240Y018012D02*
D03*
X004783D02*
D03*
X006240Y018209D02*
D03*
X004783D02*
D03*
X006240Y018406D02*
D03*
X004783D02*
D03*
X006240Y018602D02*
D03*
X004783D02*
D03*
X018839Y008957D02*
D03*
X017382D02*
D03*
X018839Y009154D02*
D03*
X017382D02*
D03*
X018839Y009350D02*
D03*
X017382D02*
D03*
X018839Y009547D02*
D03*
X017382D02*
D03*
X018839Y009744D02*
D03*
X017382D02*
D03*
X018839Y009941D02*
D03*
X017382D02*
D03*
X018839Y010138D02*
D03*
X017382D02*
D03*
X018839Y010335D02*
D03*
X017382D02*
D03*
X018839Y010532D02*
D03*
X017382D02*
D03*
X018839Y010728D02*
D03*
X017382D02*
D03*
X018839Y010925D02*
D03*
X017382D02*
D03*
X018839Y011122D02*
D03*
X017382D02*
D03*
X018839Y011319D02*
D03*
X017382D02*
D03*
X018839Y011516D02*
D03*
X017382D02*
D03*
X018839Y011713D02*
D03*
X017382D02*
D03*
X018839Y011909D02*
D03*
X017382D02*
D03*
X018839Y012106D02*
D03*
X017382D02*
D03*
X018839Y012303D02*
D03*
X017382D02*
D03*
X018839Y012500D02*
D03*
X017382D02*
D03*
X018839Y012697D02*
D03*
X017382D02*
D03*
X018839Y012894D02*
D03*
X017382D02*
D03*
X018839Y013091D02*
D03*
X017382D02*
D03*
X018839Y013287D02*
D03*
X017382D02*
D03*
X018839Y013484D02*
D03*
X017382D02*
D03*
X018839Y013681D02*
D03*
X017382D02*
D03*
X018839Y013878D02*
D03*
X017382D02*
D03*
X018839Y014075D02*
D03*
X017382D02*
D03*
X018839Y014272D02*
D03*
X017382D02*
D03*
X018839Y014468D02*
D03*
X017382D02*
D03*
X018839Y014665D02*
D03*
X017382D02*
D03*
X018839Y014862D02*
D03*
X017382D02*
D03*
X018839Y015059D02*
D03*
X017382D02*
D03*
X018839Y015256D02*
D03*
X017382D02*
D03*
X018839Y015453D02*
D03*
X017382D02*
D03*
X018839Y015650D02*
D03*
X017382D02*
D03*
X018839Y015846D02*
D03*
X017382D02*
D03*
X018839Y016043D02*
D03*
X017382D02*
D03*
X018839Y016240D02*
D03*
X017382D02*
D03*
X018839Y016437D02*
D03*
X017382D02*
D03*
X018839Y016634D02*
D03*
X017382D02*
D03*
X018839Y016831D02*
D03*
X017382D02*
D03*
X018839Y017028D02*
D03*
X017382D02*
D03*
X018839Y017224D02*
D03*
X017382D02*
D03*
X018839Y017421D02*
D03*
X017382D02*
D03*
X018839Y017618D02*
D03*
X017382D02*
D03*
X018839Y017815D02*
D03*
X017382D02*
D03*
X018839Y018012D02*
D03*
X017382D02*
D03*
X018839Y018209D02*
D03*
X017382D02*
D03*
X018839Y018406D02*
D03*
X017382D02*
D03*
X018839Y018602D02*
D03*
X017382D02*
D03*
X022776Y008957D02*
D03*
X021319D02*
D03*
X022776Y009154D02*
D03*
X021319D02*
D03*
X022776Y009350D02*
D03*
X021319D02*
D03*
X022776Y009547D02*
D03*
X021319D02*
D03*
X022776Y009744D02*
D03*
X021319D02*
D03*
X022776Y009941D02*
D03*
X021319D02*
D03*
X022776Y010138D02*
D03*
X021319D02*
D03*
X022776Y010335D02*
D03*
X021319D02*
D03*
X022776Y010532D02*
D03*
X021319D02*
D03*
X022776Y010728D02*
D03*
X021319D02*
D03*
X022776Y010925D02*
D03*
X021319D02*
D03*
X022776Y011122D02*
D03*
X021319D02*
D03*
X022776Y011319D02*
D03*
X021319D02*
D03*
X022776Y011516D02*
D03*
X021319D02*
D03*
X022776Y011713D02*
D03*
X021319D02*
D03*
X022776Y011909D02*
D03*
X021319D02*
D03*
X022776Y012106D02*
D03*
X021319D02*
D03*
X022776Y012303D02*
D03*
X021319D02*
D03*
X022776Y012500D02*
D03*
X021319D02*
D03*
X022776Y012697D02*
D03*
X021319D02*
D03*
X022776Y012894D02*
D03*
X021319D02*
D03*
X022776Y013091D02*
D03*
X021319D02*
D03*
X022776Y013287D02*
D03*
X021319D02*
D03*
X022776Y013484D02*
D03*
X021319D02*
D03*
X022776Y013681D02*
D03*
X021319D02*
D03*
X022776Y013878D02*
D03*
X021319D02*
D03*
X022776Y014075D02*
D03*
X021319D02*
D03*
X022776Y014272D02*
D03*
X021319D02*
D03*
X022776Y014468D02*
D03*
X021319D02*
D03*
X022776Y014665D02*
D03*
X021319D02*
D03*
X022776Y014862D02*
D03*
X021319D02*
D03*
X022776Y015059D02*
D03*
X021319D02*
D03*
X022776Y015256D02*
D03*
X021319D02*
D03*
X022776Y015453D02*
D03*
X021319D02*
D03*
X022776Y015650D02*
D03*
X021319D02*
D03*
X022776Y015846D02*
D03*
X021319D02*
D03*
X022776Y016043D02*
D03*
X021319D02*
D03*
X022776Y016240D02*
D03*
X021319D02*
D03*
X022776Y016437D02*
D03*
X021319D02*
D03*
X022776Y016634D02*
D03*
X021319D02*
D03*
X022776Y016831D02*
D03*
X021319D02*
D03*
X022776Y017028D02*
D03*
X021319D02*
D03*
X022776Y017224D02*
D03*
X021319D02*
D03*
X022776Y017421D02*
D03*
X021319D02*
D03*
X022776Y017618D02*
D03*
X021319D02*
D03*
X022776Y017815D02*
D03*
X021319D02*
D03*
X022776Y018012D02*
D03*
X021319D02*
D03*
X022776Y018209D02*
D03*
X021319D02*
D03*
X022776Y018406D02*
D03*
X021319D02*
D03*
X022776Y018602D02*
D03*
X021319D02*
D03*
X035374Y008957D02*
D03*
X033917D02*
D03*
X035374Y009154D02*
D03*
X033917D02*
D03*
X035374Y009350D02*
D03*
X033917D02*
D03*
X035374Y009547D02*
D03*
X033917D02*
D03*
X035374Y009744D02*
D03*
X033917D02*
D03*
X035374Y009941D02*
D03*
X033917D02*
D03*
X035374Y010138D02*
D03*
X033917D02*
D03*
X035374Y010335D02*
D03*
X033917D02*
D03*
X035374Y010532D02*
D03*
X033917D02*
D03*
X035374Y010728D02*
D03*
X033917D02*
D03*
X035374Y010925D02*
D03*
X033917D02*
D03*
X035374Y011122D02*
D03*
X033917D02*
D03*
X035374Y011319D02*
D03*
X033917D02*
D03*
X035374Y011516D02*
D03*
X033917D02*
D03*
X035374Y011713D02*
D03*
X033917D02*
D03*
X035374Y011909D02*
D03*
X033917D02*
D03*
X035374Y012106D02*
D03*
X033917D02*
D03*
X035374Y012303D02*
D03*
X033917D02*
D03*
X035374Y012500D02*
D03*
X033917D02*
D03*
X035374Y012697D02*
D03*
X033917D02*
D03*
X035374Y012894D02*
D03*
X033917D02*
D03*
X035374Y013091D02*
D03*
X033917D02*
D03*
X035374Y013287D02*
D03*
X033917D02*
D03*
X035374Y013484D02*
D03*
X033917D02*
D03*
X035374Y013681D02*
D03*
X033917D02*
D03*
X035374Y013878D02*
D03*
X033917D02*
D03*
X035374Y014075D02*
D03*
X033917D02*
D03*
X035374Y014272D02*
D03*
X033917D02*
D03*
X035374Y014468D02*
D03*
X033917D02*
D03*
X035374Y014665D02*
D03*
X033917D02*
D03*
X035374Y014862D02*
D03*
X033917D02*
D03*
X035374Y015059D02*
D03*
X033917D02*
D03*
X035374Y015256D02*
D03*
X033917D02*
D03*
X035374Y015453D02*
D03*
X033917D02*
D03*
X035374Y015650D02*
D03*
X033917D02*
D03*
X035374Y015846D02*
D03*
X033917D02*
D03*
X035374Y016043D02*
D03*
X033917D02*
D03*
X035374Y016240D02*
D03*
X033917D02*
D03*
X035374Y016437D02*
D03*
X033917D02*
D03*
X035374Y016634D02*
D03*
X033917D02*
D03*
X035374Y016831D02*
D03*
X033917D02*
D03*
X035374Y017028D02*
D03*
X033917D02*
D03*
X035374Y017224D02*
D03*
X033917D02*
D03*
X035374Y017421D02*
D03*
X033917D02*
D03*
X035374Y017618D02*
D03*
X033917D02*
D03*
X035374Y017815D02*
D03*
X033917D02*
D03*
X035374Y018012D02*
D03*
X033917D02*
D03*
X035374Y018209D02*
D03*
X033917D02*
D03*
X035374Y018406D02*
D03*
X033917D02*
D03*
X035374Y018602D02*
D03*
X033917D02*
D03*
D53*
X010069Y009226D02*
D03*
Y009494D02*
D03*
X009705Y009581D02*
D03*
Y009848D02*
D03*
X010551Y008382D02*
D03*
Y008114D02*
D03*
X009183Y008087D02*
D03*
Y007819D02*
D03*
X011959Y011766D02*
D03*
Y012033D02*
D03*
X010715Y011115D02*
D03*
Y011382D02*
D03*
X011053Y010821D02*
D03*
Y011089D02*
D03*
X012923Y010124D02*
D03*
Y009856D02*
D03*
X012254Y009561D02*
D03*
Y009829D02*
D03*
X012136Y011079D02*
D03*
Y010811D02*
D03*
X009453Y012062D02*
D03*
Y012330D02*
D03*
X010089Y011709D02*
D03*
Y011441D02*
D03*
X014222Y011087D02*
D03*
Y011354D02*
D03*
X013543Y012978D02*
D03*
Y012711D02*
D03*
X026604Y009226D02*
D03*
Y009494D02*
D03*
X026240Y009581D02*
D03*
Y009848D02*
D03*
X027087Y008382D02*
D03*
Y008114D02*
D03*
X025719Y008087D02*
D03*
Y007819D02*
D03*
X028494Y011766D02*
D03*
Y012033D02*
D03*
X027250Y011115D02*
D03*
Y011382D02*
D03*
X027589Y010821D02*
D03*
Y011089D02*
D03*
X029459Y010124D02*
D03*
Y009856D02*
D03*
X028789Y009561D02*
D03*
Y009829D02*
D03*
X028671Y011079D02*
D03*
Y010811D02*
D03*
X025989Y012062D02*
D03*
Y012330D02*
D03*
X026624Y011709D02*
D03*
Y011441D02*
D03*
X030758Y011087D02*
D03*
Y011354D02*
D03*
X030079Y012978D02*
D03*
Y012711D02*
D03*
D54*
X016786Y006836D02*
D03*
X016048Y007574D02*
D03*
X033322Y006836D02*
D03*
X032584Y007574D02*
D03*
D55*
X011382Y012405D02*
D03*
X011571Y012595D02*
D03*
X013146Y009435D02*
D03*
X012957Y009246D02*
D03*
X027917Y012405D02*
D03*
X028106Y012595D02*
D03*
X029681Y009435D02*
D03*
X029492Y009246D02*
D03*
D64*
X037795Y005906D02*
D03*
X001969Y022835D02*
D03*
X001969Y001969D02*
D03*
X031102Y025197D02*
D03*
X018898Y006693D02*
D03*
X006693Y005906D02*
D03*
X014567Y015354D02*
D03*
X008661Y020079D02*
D03*
X035433Y006693D02*
D03*
X023228Y005906D02*
D03*
X031102Y015354D02*
D03*
X025197Y020079D02*
D03*
M02*
