G04*
G04 #@! TF.GenerationSoftware,Altium Limited,Altium Designer,22.4.2 (48)*
G04*
G04 Layer_Color=16711935*
%FSAX24Y24*%
%MOIN*%
G70*
G04*
G04 #@! TF.SameCoordinates,77042C60-C616-4B62-9F68-170708952660*
G04*
G04*
G04 #@! TF.FilePolarity,Positive*
G04*
G01*
G75*
%ADD12C,0.0039*%
G36*
X027478Y024235D02*
X027486Y024234D01*
X027496Y024233D01*
X027515Y024230D01*
X027516D01*
X027519Y024229D01*
X027524Y024228D01*
X027530Y024226D01*
X027538Y024224D01*
X027546Y024221D01*
X027564Y024215D01*
Y024157D01*
X027563Y024158D01*
X027560Y024160D01*
X027556Y024162D01*
X027550Y024165D01*
X027542Y024168D01*
X027534Y024171D01*
X027525Y024174D01*
X027516Y024177D01*
X027515Y024177D01*
X027511Y024178D01*
X027506Y024179D01*
X027500Y024180D01*
X027492Y024181D01*
X027482Y024183D01*
X027473Y024183D01*
X027462Y024184D01*
X027457D01*
X027451Y024183D01*
X027444Y024182D01*
X027435Y024181D01*
X027426Y024179D01*
X027416Y024176D01*
X027407Y024172D01*
X027406Y024172D01*
X027403Y024170D01*
X027398Y024167D01*
X027393Y024164D01*
X027386Y024159D01*
X027379Y024153D01*
X027372Y024147D01*
X027366Y024139D01*
X027365Y024138D01*
X027363Y024135D01*
X027360Y024131D01*
X027356Y024124D01*
X027352Y024116D01*
X027348Y024108D01*
X027343Y024098D01*
X027339Y024086D01*
Y024086D01*
X027339Y024085D01*
Y024083D01*
X027338Y024081D01*
X027337Y024078D01*
X027337Y024074D01*
X027335Y024066D01*
X027333Y024056D01*
X027332Y024044D01*
X027331Y024031D01*
X027331Y024016D01*
Y024015D01*
Y024012D01*
Y024008D01*
X027331Y024002D01*
X027332Y023995D01*
X027332Y023988D01*
X027333Y023979D01*
X027335Y023969D01*
X027339Y023949D01*
X027342Y023938D01*
X027345Y023928D01*
X027349Y023918D01*
X027353Y023908D01*
X027358Y023899D01*
X027364Y023890D01*
X027364Y023890D01*
X027366Y023889D01*
X027368Y023887D01*
X027370Y023884D01*
X027374Y023881D01*
X027378Y023877D01*
X027383Y023874D01*
X027389Y023870D01*
X027396Y023865D01*
X027403Y023861D01*
X027411Y023858D01*
X027420Y023855D01*
X027429Y023852D01*
X027440Y023850D01*
X027451Y023849D01*
X027463Y023848D01*
X027468D01*
X027473Y023849D01*
X027480D01*
X027488Y023850D01*
X027497Y023851D01*
X027506Y023852D01*
X027516Y023854D01*
X027516D01*
X027517Y023855D01*
X027520Y023856D01*
X027525Y023857D01*
X027531Y023859D01*
X027539Y023861D01*
X027547Y023865D01*
X027564Y023872D01*
Y023817D01*
X027564D01*
X027562Y023816D01*
X027559Y023815D01*
X027556Y023814D01*
X027551Y023812D01*
X027545Y023811D01*
X027539Y023809D01*
X027532Y023807D01*
X027523Y023805D01*
X027515Y023803D01*
X027497Y023799D01*
X027477Y023797D01*
X027456Y023796D01*
X027452D01*
X027447Y023797D01*
X027441Y023797D01*
X027434Y023798D01*
X027425Y023799D01*
X027415Y023800D01*
X027405Y023803D01*
X027394Y023806D01*
X027382Y023809D01*
X027371Y023813D01*
X027359Y023819D01*
X027348Y023825D01*
X027337Y023832D01*
X027327Y023841D01*
X027317Y023850D01*
X027316Y023851D01*
X027315Y023853D01*
X027313Y023856D01*
X027309Y023860D01*
X027306Y023866D01*
X027302Y023873D01*
X027297Y023881D01*
X027293Y023890D01*
X027288Y023901D01*
X027284Y023913D01*
X027280Y023926D01*
X027276Y023941D01*
X027273Y023957D01*
X027271Y023973D01*
X027269Y023991D01*
X027268Y024011D01*
Y024011D01*
Y024013D01*
Y024015D01*
Y024019D01*
X027269Y024024D01*
Y024029D01*
X027269Y024035D01*
X027270Y024042D01*
X027272Y024056D01*
X027274Y024072D01*
X027277Y024088D01*
X027281Y024104D01*
Y024104D01*
X027282Y024106D01*
X027283Y024108D01*
X027284Y024111D01*
X027285Y024114D01*
X027287Y024119D01*
X027291Y024128D01*
X027297Y024139D01*
X027303Y024151D01*
X027311Y024163D01*
X027320Y024174D01*
X027320Y024175D01*
X027321Y024175D01*
X027322Y024177D01*
X027324Y024179D01*
X027330Y024185D01*
X027337Y024191D01*
X027345Y024198D01*
X027356Y024206D01*
X027368Y024213D01*
X027380Y024220D01*
X027381D01*
X027382Y024220D01*
X027384Y024221D01*
X027386Y024222D01*
X027390Y024223D01*
X027394Y024225D01*
X027398Y024226D01*
X027404Y024228D01*
X027415Y024231D01*
X027429Y024233D01*
X027444Y024235D01*
X027459Y024236D01*
X027470D01*
X027478Y024235D01*
D02*
G37*
G36*
X029048Y023951D02*
Y023950D01*
Y023949D01*
Y023947D01*
Y023944D01*
X029048Y023941D01*
Y023938D01*
X029047Y023929D01*
X029046Y023919D01*
X029044Y023908D01*
X029041Y023897D01*
X029038Y023886D01*
Y023886D01*
X029037Y023885D01*
X029037Y023883D01*
X029036Y023881D01*
X029034Y023876D01*
X029031Y023869D01*
X029027Y023861D01*
X029022Y023854D01*
X029016Y023845D01*
X029008Y023837D01*
X029007Y023836D01*
X029005Y023834D01*
X029001Y023830D01*
X028995Y023826D01*
X028988Y023821D01*
X028981Y023816D01*
X028971Y023811D01*
X028961Y023806D01*
X028960D01*
X028960Y023806D01*
X028958Y023805D01*
X028956Y023805D01*
X028950Y023803D01*
X028942Y023801D01*
X028933Y023799D01*
X028922Y023797D01*
X028910Y023796D01*
X028897Y023795D01*
X028891D01*
X028887Y023796D01*
X028883D01*
X028874Y023797D01*
X028863Y023798D01*
X028851Y023800D01*
X028840Y023803D01*
X028829Y023806D01*
X028828D01*
X028828Y023806D01*
X028824Y023808D01*
X028819Y023810D01*
X028813Y023813D01*
X028805Y023818D01*
X028798Y023823D01*
X028791Y023829D01*
X028784Y023835D01*
X028783Y023836D01*
X028781Y023839D01*
X028778Y023843D01*
X028774Y023848D01*
X028769Y023855D01*
X028766Y023863D01*
X028761Y023871D01*
X028758Y023881D01*
Y023882D01*
X028757Y023882D01*
Y023884D01*
X028757Y023886D01*
X028756Y023892D01*
X028754Y023899D01*
X028752Y023908D01*
X028751Y023918D01*
X028751Y023929D01*
X028750Y023941D01*
Y024230D01*
X028809D01*
Y023946D01*
Y023944D01*
Y023941D01*
Y023937D01*
X028809Y023931D01*
X028810Y023924D01*
X028810Y023916D01*
X028811Y023909D01*
X028813Y023901D01*
Y023900D01*
X028814Y023898D01*
X028815Y023895D01*
X028817Y023890D01*
X028819Y023885D01*
X028822Y023880D01*
X028825Y023875D01*
X028829Y023870D01*
X028829Y023869D01*
X028831Y023868D01*
X028833Y023865D01*
X028836Y023863D01*
X028840Y023859D01*
X028845Y023857D01*
X028851Y023853D01*
X028857Y023851D01*
X028857D01*
X028860Y023849D01*
X028864Y023848D01*
X028869Y023847D01*
X028875Y023846D01*
X028882Y023845D01*
X028890Y023845D01*
X028899Y023844D01*
X028903D01*
X028906Y023845D01*
X028910Y023845D01*
X028915Y023846D01*
X028925Y023847D01*
X028936Y023851D01*
X028947Y023856D01*
X028953Y023858D01*
X028958Y023862D01*
X028963Y023866D01*
X028968Y023871D01*
Y023871D01*
X028969Y023872D01*
X028970Y023874D01*
X028971Y023876D01*
X028973Y023878D01*
X028975Y023882D01*
X028977Y023886D01*
X028979Y023890D01*
X028981Y023895D01*
X028983Y023901D01*
X028985Y023907D01*
X028987Y023914D01*
X028988Y023922D01*
X028989Y023929D01*
X028990Y023947D01*
Y024230D01*
X029048D01*
Y023951D01*
D02*
G37*
G36*
X027941D02*
Y023950D01*
Y023949D01*
Y023947D01*
Y023944D01*
X027940Y023941D01*
Y023938D01*
X027940Y023929D01*
X027938Y023919D01*
X027937Y023908D01*
X027934Y023897D01*
X027931Y023886D01*
Y023886D01*
X027930Y023885D01*
X027930Y023883D01*
X027929Y023881D01*
X027926Y023876D01*
X027924Y023869D01*
X027919Y023861D01*
X027914Y023854D01*
X027908Y023845D01*
X027901Y023837D01*
X027900Y023836D01*
X027898Y023834D01*
X027894Y023830D01*
X027888Y023826D01*
X027881Y023821D01*
X027873Y023816D01*
X027864Y023811D01*
X027854Y023806D01*
X027853D01*
X027853Y023806D01*
X027851Y023805D01*
X027849Y023805D01*
X027843Y023803D01*
X027835Y023801D01*
X027826Y023799D01*
X027815Y023797D01*
X027803Y023796D01*
X027790Y023795D01*
X027783D01*
X027779Y023796D01*
X027776D01*
X027766Y023797D01*
X027755Y023798D01*
X027744Y023800D01*
X027732Y023803D01*
X027722Y023806D01*
X027721D01*
X027720Y023806D01*
X027717Y023808D01*
X027712Y023810D01*
X027706Y023813D01*
X027698Y023818D01*
X027691Y023823D01*
X027683Y023829D01*
X027676Y023835D01*
X027676Y023836D01*
X027674Y023839D01*
X027670Y023843D01*
X027666Y023848D01*
X027662Y023855D01*
X027658Y023863D01*
X027654Y023871D01*
X027651Y023881D01*
Y023882D01*
X027650Y023882D01*
Y023884D01*
X027649Y023886D01*
X027648Y023892D01*
X027647Y023899D01*
X027645Y023908D01*
X027644Y023918D01*
X027643Y023929D01*
X027643Y023941D01*
Y024230D01*
X027701D01*
Y023946D01*
Y023944D01*
Y023941D01*
Y023937D01*
X027702Y023931D01*
X027702Y023924D01*
X027703Y023916D01*
X027704Y023909D01*
X027706Y023901D01*
Y023900D01*
X027707Y023898D01*
X027708Y023895D01*
X027710Y023890D01*
X027712Y023885D01*
X027714Y023880D01*
X027718Y023875D01*
X027722Y023870D01*
X027722Y023869D01*
X027724Y023868D01*
X027726Y023865D01*
X027729Y023863D01*
X027733Y023859D01*
X027738Y023857D01*
X027743Y023853D01*
X027749Y023851D01*
X027750D01*
X027753Y023849D01*
X027757Y023848D01*
X027761Y023847D01*
X027767Y023846D01*
X027775Y023845D01*
X027783Y023845D01*
X027791Y023844D01*
X027796D01*
X027799Y023845D01*
X027803Y023845D01*
X027807Y023846D01*
X027818Y023847D01*
X027829Y023851D01*
X027840Y023856D01*
X027845Y023858D01*
X027851Y023862D01*
X027856Y023866D01*
X027860Y023871D01*
Y023871D01*
X027861Y023872D01*
X027862Y023874D01*
X027864Y023876D01*
X027866Y023878D01*
X027867Y023882D01*
X027870Y023886D01*
X027872Y023890D01*
X027873Y023895D01*
X027876Y023901D01*
X027878Y023907D01*
X027879Y023914D01*
X027880Y023922D01*
X027882Y023929D01*
X027883Y023947D01*
Y024230D01*
X027941D01*
Y023951D01*
D02*
G37*
G36*
X029425Y024180D02*
X029298D01*
Y023801D01*
X029239D01*
Y024180D01*
X029112D01*
Y024230D01*
X029425D01*
Y024180D01*
D02*
G37*
G36*
X028317D02*
X028191D01*
Y023801D01*
X028132D01*
Y024180D01*
X028005D01*
Y024230D01*
X028317D01*
Y024180D01*
D02*
G37*
G36*
X028543Y024236D02*
X028548D01*
X028557Y024234D01*
X028569Y024232D01*
X028581Y024230D01*
X028593Y024226D01*
X028605Y024221D01*
X028606D01*
X028607Y024220D01*
X028608Y024219D01*
X028610Y024218D01*
X028616Y024214D01*
X028623Y024210D01*
X028631Y024203D01*
X028639Y024196D01*
X028648Y024187D01*
X028656Y024177D01*
Y024177D01*
X028657Y024176D01*
X028658Y024174D01*
X028659Y024172D01*
X028661Y024169D01*
X028663Y024166D01*
X028667Y024158D01*
X028672Y024148D01*
X028678Y024137D01*
X028682Y024124D01*
X028686Y024109D01*
Y024108D01*
X028687Y024107D01*
X028687Y024105D01*
X028688Y024102D01*
X028689Y024098D01*
X028690Y024094D01*
X028691Y024089D01*
X028692Y024083D01*
X028692Y024076D01*
X028693Y024069D01*
X028695Y024054D01*
X028696Y024037D01*
X028697Y024018D01*
Y024018D01*
Y024015D01*
Y024013D01*
Y024008D01*
X028696Y024003D01*
Y023997D01*
X028696Y023991D01*
X028695Y023984D01*
X028693Y023969D01*
X028691Y023952D01*
X028687Y023935D01*
X028683Y023918D01*
Y023918D01*
X028683Y023917D01*
X028681Y023914D01*
X028680Y023911D01*
X028679Y023908D01*
X028678Y023904D01*
X028673Y023894D01*
X028668Y023883D01*
X028662Y023871D01*
X028654Y023860D01*
X028646Y023849D01*
Y023848D01*
X028645Y023848D01*
X028642Y023845D01*
X028637Y023840D01*
X028631Y023834D01*
X028622Y023827D01*
X028614Y023821D01*
X028603Y023814D01*
X028592Y023809D01*
X028591D01*
X028590Y023808D01*
X028589Y023807D01*
X028586Y023806D01*
X028584Y023805D01*
X028580Y023804D01*
X028572Y023802D01*
X028562Y023800D01*
X028551Y023798D01*
X028539Y023796D01*
X028526Y023795D01*
X028519D01*
X028516Y023796D01*
X028512D01*
X028502Y023797D01*
X028491Y023799D01*
X028479Y023801D01*
X028466Y023805D01*
X028454Y023810D01*
X028454D01*
X028453Y023811D01*
X028452Y023812D01*
X028449Y023813D01*
X028443Y023816D01*
X028436Y023821D01*
X028429Y023827D01*
X028420Y023835D01*
X028412Y023843D01*
X028404Y023853D01*
Y023854D01*
X028402Y023854D01*
X028402Y023856D01*
X028400Y023858D01*
X028399Y023861D01*
X028397Y023864D01*
X028393Y023872D01*
X028388Y023883D01*
X028383Y023894D01*
X028378Y023907D01*
X028374Y023922D01*
Y023923D01*
X028373Y023924D01*
X028373Y023926D01*
X028372Y023929D01*
X028372Y023933D01*
X028371Y023937D01*
X028370Y023943D01*
X028369Y023949D01*
X028368Y023955D01*
X028367Y023962D01*
X028366Y023978D01*
X028365Y023995D01*
X028364Y024013D01*
Y024014D01*
Y024016D01*
Y024019D01*
Y024023D01*
X028365Y024028D01*
Y024033D01*
X028365Y024040D01*
X028366Y024047D01*
X028367Y024062D01*
X028370Y024079D01*
X028373Y024096D01*
X028377Y024112D01*
Y024113D01*
X028378Y024114D01*
X028379Y024116D01*
X028380Y024119D01*
X028381Y024122D01*
X028383Y024127D01*
X028387Y024137D01*
X028392Y024148D01*
X028399Y024159D01*
X028406Y024171D01*
X028414Y024181D01*
X028414Y024182D01*
X028415Y024183D01*
X028418Y024186D01*
X028423Y024191D01*
X028429Y024197D01*
X028437Y024204D01*
X028446Y024210D01*
X028456Y024217D01*
X028467Y024222D01*
X028468D01*
X028469Y024223D01*
X028471Y024223D01*
X028473Y024225D01*
X028476Y024226D01*
X028479Y024227D01*
X028487Y024230D01*
X028497Y024232D01*
X028508Y024234D01*
X028520Y024236D01*
X028533Y024236D01*
X028540D01*
X028543Y024236D01*
D02*
G37*
G36*
X027478Y003763D02*
X027486Y003762D01*
X027496Y003761D01*
X027515Y003758D01*
X027516D01*
X027519Y003757D01*
X027524Y003755D01*
X027530Y003754D01*
X027538Y003752D01*
X027546Y003749D01*
X027564Y003742D01*
Y003685D01*
X027563Y003686D01*
X027560Y003687D01*
X027556Y003689D01*
X027550Y003692D01*
X027542Y003695D01*
X027534Y003699D01*
X027525Y003701D01*
X027516Y003704D01*
X027515Y003705D01*
X027511Y003705D01*
X027506Y003706D01*
X027500Y003708D01*
X027492Y003709D01*
X027482Y003710D01*
X027473Y003711D01*
X027462Y003711D01*
X027457D01*
X027451Y003711D01*
X027444Y003710D01*
X027435Y003708D01*
X027426Y003706D01*
X027416Y003704D01*
X027407Y003700D01*
X027406Y003699D01*
X027403Y003698D01*
X027398Y003695D01*
X027393Y003692D01*
X027386Y003687D01*
X027379Y003681D01*
X027372Y003674D01*
X027366Y003666D01*
X027365Y003665D01*
X027363Y003663D01*
X027360Y003658D01*
X027356Y003652D01*
X027352Y003644D01*
X027348Y003635D01*
X027343Y003625D01*
X027339Y003614D01*
Y003613D01*
X027339Y003612D01*
Y003611D01*
X027338Y003609D01*
X027337Y003606D01*
X027337Y003602D01*
X027335Y003594D01*
X027333Y003583D01*
X027332Y003571D01*
X027331Y003558D01*
X027331Y003544D01*
Y003542D01*
Y003540D01*
Y003535D01*
X027331Y003530D01*
X027332Y003523D01*
X027332Y003515D01*
X027333Y003506D01*
X027335Y003497D01*
X027339Y003476D01*
X027342Y003466D01*
X027345Y003456D01*
X027349Y003445D01*
X027353Y003435D01*
X027358Y003426D01*
X027364Y003418D01*
X027364Y003417D01*
X027366Y003416D01*
X027368Y003414D01*
X027370Y003411D01*
X027374Y003408D01*
X027378Y003405D01*
X027383Y003401D01*
X027389Y003397D01*
X027396Y003393D01*
X027403Y003389D01*
X027411Y003386D01*
X027420Y003383D01*
X027429Y003380D01*
X027440Y003378D01*
X027451Y003377D01*
X027463Y003376D01*
X027468D01*
X027473Y003377D01*
X027480D01*
X027488Y003378D01*
X027497Y003379D01*
X027506Y003380D01*
X027516Y003382D01*
X027516D01*
X027517Y003383D01*
X027520Y003383D01*
X027525Y003385D01*
X027531Y003387D01*
X027539Y003389D01*
X027547Y003392D01*
X027564Y003400D01*
Y003345D01*
X027564D01*
X027562Y003344D01*
X027559Y003343D01*
X027556Y003342D01*
X027551Y003340D01*
X027545Y003338D01*
X027539Y003336D01*
X027532Y003334D01*
X027523Y003332D01*
X027515Y003330D01*
X027497Y003327D01*
X027477Y003325D01*
X027456Y003324D01*
X027452D01*
X027447Y003324D01*
X027441Y003325D01*
X027434Y003325D01*
X027425Y003326D01*
X027415Y003328D01*
X027405Y003330D01*
X027394Y003333D01*
X027382Y003337D01*
X027371Y003341D01*
X027359Y003346D01*
X027348Y003352D01*
X027337Y003360D01*
X027327Y003368D01*
X027317Y003378D01*
X027316Y003378D01*
X027315Y003380D01*
X027313Y003384D01*
X027309Y003388D01*
X027306Y003393D01*
X027302Y003401D01*
X027297Y003409D01*
X027293Y003418D01*
X027288Y003429D01*
X027284Y003441D01*
X027280Y003454D01*
X027276Y003468D01*
X027273Y003484D01*
X027271Y003501D01*
X027269Y003519D01*
X027268Y003538D01*
Y003539D01*
Y003540D01*
Y003543D01*
Y003547D01*
X027269Y003551D01*
Y003557D01*
X027269Y003563D01*
X027270Y003569D01*
X027272Y003584D01*
X027274Y003599D01*
X027277Y003616D01*
X027281Y003631D01*
Y003632D01*
X027282Y003633D01*
X027283Y003635D01*
X027284Y003639D01*
X027285Y003642D01*
X027287Y003646D01*
X027291Y003656D01*
X027297Y003667D01*
X027303Y003679D01*
X027311Y003690D01*
X027320Y003702D01*
X027320Y003702D01*
X027321Y003703D01*
X027322Y003705D01*
X027324Y003707D01*
X027330Y003712D01*
X027337Y003719D01*
X027345Y003726D01*
X027356Y003734D01*
X027368Y003741D01*
X027380Y003747D01*
X027381D01*
X027382Y003748D01*
X027384Y003749D01*
X027386Y003750D01*
X027390Y003751D01*
X027394Y003752D01*
X027398Y003754D01*
X027404Y003755D01*
X027415Y003758D01*
X027429Y003761D01*
X027444Y003763D01*
X027459Y003763D01*
X027470D01*
X027478Y003763D01*
D02*
G37*
G36*
X029048Y003478D02*
Y003478D01*
Y003476D01*
Y003475D01*
Y003472D01*
X029048Y003469D01*
Y003465D01*
X029047Y003457D01*
X029046Y003447D01*
X029044Y003436D01*
X029041Y003425D01*
X029038Y003414D01*
Y003413D01*
X029037Y003413D01*
X029037Y003411D01*
X029036Y003409D01*
X029034Y003404D01*
X029031Y003397D01*
X029027Y003389D01*
X029022Y003381D01*
X029016Y003373D01*
X029008Y003365D01*
X029007Y003364D01*
X029005Y003362D01*
X029001Y003358D01*
X028995Y003354D01*
X028988Y003349D01*
X028981Y003343D01*
X028971Y003338D01*
X028961Y003334D01*
X028960D01*
X028960Y003333D01*
X028958Y003333D01*
X028956Y003332D01*
X028950Y003331D01*
X028942Y003328D01*
X028933Y003326D01*
X028922Y003325D01*
X028910Y003324D01*
X028897Y003323D01*
X028891D01*
X028887Y003324D01*
X028883D01*
X028874Y003324D01*
X028863Y003326D01*
X028851Y003327D01*
X028840Y003330D01*
X028829Y003333D01*
X028828D01*
X028828Y003334D01*
X028824Y003336D01*
X028819Y003338D01*
X028813Y003341D01*
X028805Y003345D01*
X028798Y003350D01*
X028791Y003356D01*
X028784Y003363D01*
X028783Y003364D01*
X028781Y003366D01*
X028778Y003370D01*
X028774Y003376D01*
X028769Y003383D01*
X028766Y003390D01*
X028761Y003399D01*
X028758Y003409D01*
Y003409D01*
X028757Y003410D01*
Y003411D01*
X028757Y003414D01*
X028756Y003419D01*
X028754Y003427D01*
X028752Y003435D01*
X028751Y003446D01*
X028751Y003457D01*
X028750Y003469D01*
Y003758D01*
X028809D01*
Y003473D01*
Y003472D01*
Y003469D01*
Y003464D01*
X028809Y003458D01*
X028810Y003451D01*
X028810Y003444D01*
X028811Y003437D01*
X028813Y003429D01*
Y003428D01*
X028814Y003426D01*
X028815Y003422D01*
X028817Y003418D01*
X028819Y003413D01*
X028822Y003408D01*
X028825Y003402D01*
X028829Y003397D01*
X028829Y003397D01*
X028831Y003395D01*
X028833Y003393D01*
X028836Y003390D01*
X028840Y003387D01*
X028845Y003384D01*
X028851Y003381D01*
X028857Y003378D01*
X028857D01*
X028860Y003377D01*
X028864Y003376D01*
X028869Y003375D01*
X028875Y003374D01*
X028882Y003373D01*
X028890Y003372D01*
X028899Y003372D01*
X028903D01*
X028906Y003372D01*
X028910Y003373D01*
X028915Y003373D01*
X028925Y003375D01*
X028936Y003378D01*
X028947Y003383D01*
X028953Y003386D01*
X028958Y003390D01*
X028963Y003393D01*
X028968Y003398D01*
Y003399D01*
X028969Y003399D01*
X028970Y003401D01*
X028971Y003403D01*
X028973Y003406D01*
X028975Y003409D01*
X028977Y003413D01*
X028979Y003418D01*
X028981Y003423D01*
X028983Y003429D01*
X028985Y003435D01*
X028987Y003441D01*
X028988Y003449D01*
X028989Y003457D01*
X028990Y003474D01*
Y003758D01*
X029048D01*
Y003478D01*
D02*
G37*
G36*
X027941D02*
Y003478D01*
Y003476D01*
Y003475D01*
Y003472D01*
X027940Y003469D01*
Y003465D01*
X027940Y003457D01*
X027938Y003447D01*
X027937Y003436D01*
X027934Y003425D01*
X027931Y003414D01*
Y003413D01*
X027930Y003413D01*
X027930Y003411D01*
X027929Y003409D01*
X027926Y003404D01*
X027924Y003397D01*
X027919Y003389D01*
X027914Y003381D01*
X027908Y003373D01*
X027901Y003365D01*
X027900Y003364D01*
X027898Y003362D01*
X027894Y003358D01*
X027888Y003354D01*
X027881Y003349D01*
X027873Y003343D01*
X027864Y003338D01*
X027854Y003334D01*
X027853D01*
X027853Y003333D01*
X027851Y003333D01*
X027849Y003332D01*
X027843Y003331D01*
X027835Y003328D01*
X027826Y003326D01*
X027815Y003325D01*
X027803Y003324D01*
X027790Y003323D01*
X027783D01*
X027779Y003324D01*
X027776D01*
X027766Y003324D01*
X027755Y003326D01*
X027744Y003327D01*
X027732Y003330D01*
X027722Y003333D01*
X027721D01*
X027720Y003334D01*
X027717Y003336D01*
X027712Y003338D01*
X027706Y003341D01*
X027698Y003345D01*
X027691Y003350D01*
X027683Y003356D01*
X027676Y003363D01*
X027676Y003364D01*
X027674Y003366D01*
X027670Y003370D01*
X027666Y003376D01*
X027662Y003383D01*
X027658Y003390D01*
X027654Y003399D01*
X027651Y003409D01*
Y003409D01*
X027650Y003410D01*
Y003411D01*
X027649Y003414D01*
X027648Y003419D01*
X027647Y003427D01*
X027645Y003435D01*
X027644Y003446D01*
X027643Y003457D01*
X027643Y003469D01*
Y003758D01*
X027701D01*
Y003473D01*
Y003472D01*
Y003469D01*
Y003464D01*
X027702Y003458D01*
X027702Y003451D01*
X027703Y003444D01*
X027704Y003437D01*
X027706Y003429D01*
Y003428D01*
X027707Y003426D01*
X027708Y003422D01*
X027710Y003418D01*
X027712Y003413D01*
X027714Y003408D01*
X027718Y003402D01*
X027722Y003397D01*
X027722Y003397D01*
X027724Y003395D01*
X027726Y003393D01*
X027729Y003390D01*
X027733Y003387D01*
X027738Y003384D01*
X027743Y003381D01*
X027749Y003378D01*
X027750D01*
X027753Y003377D01*
X027757Y003376D01*
X027761Y003375D01*
X027767Y003374D01*
X027775Y003373D01*
X027783Y003372D01*
X027791Y003372D01*
X027796D01*
X027799Y003372D01*
X027803Y003373D01*
X027807Y003373D01*
X027818Y003375D01*
X027829Y003378D01*
X027840Y003383D01*
X027845Y003386D01*
X027851Y003390D01*
X027856Y003393D01*
X027860Y003398D01*
Y003399D01*
X027861Y003399D01*
X027862Y003401D01*
X027864Y003403D01*
X027866Y003406D01*
X027867Y003409D01*
X027870Y003413D01*
X027872Y003418D01*
X027873Y003423D01*
X027876Y003429D01*
X027878Y003435D01*
X027879Y003441D01*
X027880Y003449D01*
X027882Y003457D01*
X027883Y003474D01*
Y003758D01*
X027941D01*
Y003478D01*
D02*
G37*
G36*
X029425Y003708D02*
X029298D01*
Y003329D01*
X029239D01*
Y003708D01*
X029112D01*
Y003758D01*
X029425D01*
Y003708D01*
D02*
G37*
G36*
X028317D02*
X028191D01*
Y003329D01*
X028132D01*
Y003708D01*
X028005D01*
Y003758D01*
X028317D01*
Y003708D01*
D02*
G37*
G36*
X028543Y003763D02*
X028548D01*
X028557Y003762D01*
X028569Y003760D01*
X028581Y003757D01*
X028593Y003753D01*
X028605Y003748D01*
X028606D01*
X028607Y003748D01*
X028608Y003747D01*
X028610Y003746D01*
X028616Y003742D01*
X028623Y003737D01*
X028631Y003731D01*
X028639Y003723D01*
X028648Y003714D01*
X028656Y003705D01*
Y003704D01*
X028657Y003704D01*
X028658Y003702D01*
X028659Y003700D01*
X028661Y003697D01*
X028663Y003694D01*
X028667Y003686D01*
X028672Y003676D01*
X028678Y003664D01*
X028682Y003651D01*
X028686Y003636D01*
Y003636D01*
X028687Y003635D01*
X028687Y003633D01*
X028688Y003629D01*
X028689Y003625D01*
X028690Y003621D01*
X028691Y003616D01*
X028692Y003610D01*
X028692Y003604D01*
X028693Y003597D01*
X028695Y003581D01*
X028696Y003564D01*
X028697Y003546D01*
Y003545D01*
Y003543D01*
Y003540D01*
Y003536D01*
X028696Y003531D01*
Y003525D01*
X028696Y003518D01*
X028695Y003511D01*
X028693Y003496D01*
X028691Y003479D01*
X028687Y003462D01*
X028683Y003446D01*
Y003445D01*
X028683Y003444D01*
X028681Y003442D01*
X028680Y003439D01*
X028679Y003435D01*
X028678Y003431D01*
X028673Y003422D01*
X028668Y003411D01*
X028662Y003399D01*
X028654Y003387D01*
X028646Y003377D01*
Y003376D01*
X028645Y003375D01*
X028642Y003372D01*
X028637Y003367D01*
X028631Y003361D01*
X028622Y003355D01*
X028614Y003348D01*
X028603Y003342D01*
X028592Y003336D01*
X028591D01*
X028590Y003336D01*
X028589Y003335D01*
X028586Y003334D01*
X028584Y003333D01*
X028580Y003332D01*
X028572Y003330D01*
X028562Y003327D01*
X028551Y003325D01*
X028539Y003324D01*
X028526Y003323D01*
X028519D01*
X028516Y003324D01*
X028512D01*
X028502Y003325D01*
X028491Y003327D01*
X028479Y003329D01*
X028466Y003333D01*
X028454Y003338D01*
X028454D01*
X028453Y003338D01*
X028452Y003339D01*
X028449Y003340D01*
X028443Y003344D01*
X028436Y003349D01*
X028429Y003355D01*
X028420Y003362D01*
X028412Y003371D01*
X028404Y003381D01*
Y003381D01*
X028402Y003382D01*
X028402Y003384D01*
X028400Y003386D01*
X028399Y003389D01*
X028397Y003392D01*
X028393Y003400D01*
X028388Y003410D01*
X028383Y003422D01*
X028378Y003435D01*
X028374Y003450D01*
Y003450D01*
X028373Y003451D01*
X028373Y003453D01*
X028372Y003457D01*
X028372Y003461D01*
X028371Y003465D01*
X028370Y003470D01*
X028369Y003476D01*
X028368Y003482D01*
X028367Y003490D01*
X028366Y003505D01*
X028365Y003522D01*
X028364Y003541D01*
Y003541D01*
Y003544D01*
Y003546D01*
Y003551D01*
X028365Y003556D01*
Y003561D01*
X028365Y003568D01*
X028366Y003575D01*
X028367Y003590D01*
X028370Y003607D01*
X028373Y003623D01*
X028377Y003640D01*
Y003640D01*
X028378Y003641D01*
X028379Y003643D01*
X028380Y003647D01*
X028381Y003650D01*
X028383Y003654D01*
X028387Y003664D01*
X028392Y003675D01*
X028399Y003687D01*
X028406Y003698D01*
X028414Y003709D01*
X028414Y003710D01*
X028415Y003710D01*
X028418Y003713D01*
X028423Y003718D01*
X028429Y003725D01*
X028437Y003731D01*
X028446Y003738D01*
X028456Y003745D01*
X028467Y003750D01*
X028468D01*
X028469Y003751D01*
X028471Y003751D01*
X028473Y003752D01*
X028476Y003753D01*
X028479Y003754D01*
X028487Y003757D01*
X028497Y003759D01*
X028508Y003761D01*
X028520Y003763D01*
X028533Y003764D01*
X028540D01*
X028543Y003763D01*
D02*
G37*
G36*
X010942Y024235D02*
X010951Y024234D01*
X010960Y024233D01*
X010979Y024230D01*
X010980D01*
X010984Y024229D01*
X010988Y024228D01*
X010995Y024226D01*
X011003Y024224D01*
X011011Y024221D01*
X011029Y024215D01*
Y024157D01*
X011028Y024158D01*
X011025Y024160D01*
X011020Y024162D01*
X011014Y024165D01*
X011006Y024168D01*
X010998Y024171D01*
X010990Y024174D01*
X010980Y024177D01*
X010979Y024177D01*
X010976Y024178D01*
X010971Y024179D01*
X010964Y024180D01*
X010956Y024181D01*
X010947Y024183D01*
X010937Y024183D01*
X010926Y024184D01*
X010921D01*
X010915Y024183D01*
X010908Y024182D01*
X010899Y024181D01*
X010891Y024179D01*
X010881Y024176D01*
X010872Y024172D01*
X010871Y024172D01*
X010868Y024170D01*
X010863Y024167D01*
X010857Y024164D01*
X010851Y024159D01*
X010844Y024153D01*
X010837Y024147D01*
X010830Y024139D01*
X010830Y024138D01*
X010827Y024135D01*
X010824Y024131D01*
X010820Y024124D01*
X010816Y024116D01*
X010812Y024108D01*
X010808Y024098D01*
X010804Y024086D01*
Y024086D01*
X010803Y024085D01*
Y024083D01*
X010803Y024081D01*
X010802Y024078D01*
X010801Y024074D01*
X010800Y024066D01*
X010798Y024056D01*
X010797Y024044D01*
X010796Y024031D01*
X010795Y024016D01*
Y024015D01*
Y024012D01*
Y024008D01*
X010796Y024002D01*
X010796Y023995D01*
X010797Y023988D01*
X010798Y023979D01*
X010800Y023969D01*
X010803Y023949D01*
X010806Y023938D01*
X010809Y023928D01*
X010813Y023918D01*
X010818Y023908D01*
X010822Y023899D01*
X010828Y023890D01*
X010829Y023890D01*
X010830Y023889D01*
X010832Y023887D01*
X010835Y023884D01*
X010838Y023881D01*
X010843Y023877D01*
X010848Y023874D01*
X010854Y023870D01*
X010860Y023865D01*
X010867Y023861D01*
X010875Y023858D01*
X010885Y023855D01*
X010894Y023852D01*
X010904Y023850D01*
X010915Y023849D01*
X010927Y023848D01*
X010932D01*
X010938Y023849D01*
X010944D01*
X010952Y023850D01*
X010961Y023851D01*
X010971Y023852D01*
X010980Y023854D01*
X010981D01*
X010981Y023855D01*
X010985Y023856D01*
X010990Y023857D01*
X010996Y023859D01*
X011003Y023861D01*
X011011Y023865D01*
X011029Y023872D01*
Y023817D01*
X011028D01*
X011027Y023816D01*
X011024Y023815D01*
X011020Y023814D01*
X011015Y023812D01*
X011010Y023811D01*
X011003Y023809D01*
X010996Y023807D01*
X010988Y023805D01*
X010980Y023803D01*
X010961Y023799D01*
X010942Y023797D01*
X010921Y023796D01*
X010917D01*
X010912Y023797D01*
X010906Y023797D01*
X010898Y023798D01*
X010890Y023799D01*
X010880Y023800D01*
X010869Y023803D01*
X010859Y023806D01*
X010847Y023809D01*
X010836Y023813D01*
X010824Y023819D01*
X010813Y023825D01*
X010802Y023832D01*
X010791Y023841D01*
X010782Y023850D01*
X010781Y023851D01*
X010779Y023853D01*
X010777Y023856D01*
X010774Y023860D01*
X010770Y023866D01*
X010766Y023873D01*
X010762Y023881D01*
X010758Y023890D01*
X010753Y023901D01*
X010748Y023913D01*
X010744Y023926D01*
X010741Y023941D01*
X010737Y023957D01*
X010735Y023973D01*
X010733Y023991D01*
X010733Y024011D01*
Y024011D01*
Y024013D01*
Y024015D01*
Y024019D01*
X010733Y024024D01*
Y024029D01*
X010734Y024035D01*
X010735Y024042D01*
X010736Y024056D01*
X010738Y024072D01*
X010742Y024088D01*
X010746Y024104D01*
Y024104D01*
X010747Y024106D01*
X010748Y024108D01*
X010749Y024111D01*
X010750Y024114D01*
X010752Y024119D01*
X010756Y024128D01*
X010761Y024139D01*
X010768Y024151D01*
X010776Y024163D01*
X010784Y024174D01*
X010785Y024175D01*
X010785Y024175D01*
X010787Y024177D01*
X010789Y024179D01*
X010794Y024185D01*
X010801Y024191D01*
X010810Y024198D01*
X010820Y024206D01*
X010832Y024213D01*
X010845Y024220D01*
X010845D01*
X010847Y024220D01*
X010849Y024221D01*
X010851Y024222D01*
X010855Y024223D01*
X010859Y024225D01*
X010863Y024226D01*
X010868Y024228D01*
X010880Y024231D01*
X010893Y024233D01*
X010908Y024235D01*
X010924Y024236D01*
X010935D01*
X010942Y024235D01*
D02*
G37*
G36*
X012513Y023951D02*
Y023950D01*
Y023949D01*
Y023947D01*
Y023944D01*
X012512Y023941D01*
Y023938D01*
X012512Y023929D01*
X012510Y023919D01*
X012509Y023908D01*
X012506Y023897D01*
X012503Y023886D01*
Y023886D01*
X012502Y023885D01*
X012501Y023883D01*
X012501Y023881D01*
X012498Y023876D01*
X012495Y023869D01*
X012491Y023861D01*
X012486Y023854D01*
X012480Y023845D01*
X012473Y023837D01*
X012472Y023836D01*
X012470Y023834D01*
X012465Y023830D01*
X012460Y023826D01*
X012453Y023821D01*
X012445Y023816D01*
X012436Y023811D01*
X012426Y023806D01*
X012425D01*
X012424Y023806D01*
X012423Y023805D01*
X012421Y023805D01*
X012415Y023803D01*
X012407Y023801D01*
X012398Y023799D01*
X012387Y023797D01*
X012375Y023796D01*
X012362Y023795D01*
X012355D01*
X012351Y023796D01*
X012347D01*
X012338Y023797D01*
X012327Y023798D01*
X012316Y023800D01*
X012304Y023803D01*
X012293Y023806D01*
X012293D01*
X012292Y023806D01*
X012289Y023808D01*
X012284Y023810D01*
X012278Y023813D01*
X012270Y023818D01*
X012263Y023823D01*
X012255Y023829D01*
X012248Y023835D01*
X012248Y023836D01*
X012245Y023839D01*
X012242Y023843D01*
X012238Y023848D01*
X012234Y023855D01*
X012230Y023863D01*
X012226Y023871D01*
X012222Y023881D01*
Y023882D01*
X012222Y023882D01*
Y023884D01*
X012221Y023886D01*
X012220Y023892D01*
X012219Y023899D01*
X012217Y023908D01*
X012216Y023918D01*
X012215Y023929D01*
X012215Y023941D01*
Y024230D01*
X012273D01*
Y023946D01*
Y023944D01*
Y023941D01*
Y023937D01*
X012274Y023931D01*
X012274Y023924D01*
X012275Y023916D01*
X012276Y023909D01*
X012278Y023901D01*
Y023900D01*
X012279Y023898D01*
X012280Y023895D01*
X012281Y023890D01*
X012284Y023885D01*
X012286Y023880D01*
X012290Y023875D01*
X012293Y023870D01*
X012294Y023869D01*
X012296Y023868D01*
X012298Y023865D01*
X012301Y023863D01*
X012305Y023859D01*
X012310Y023857D01*
X012315Y023853D01*
X012321Y023851D01*
X012322D01*
X012325Y023849D01*
X012328Y023848D01*
X012333Y023847D01*
X012339Y023846D01*
X012346Y023845D01*
X012355Y023845D01*
X012363Y023844D01*
X012368D01*
X012371Y023845D01*
X012375Y023845D01*
X012379Y023846D01*
X012390Y023847D01*
X012400Y023851D01*
X012412Y023856D01*
X012417Y023858D01*
X012423Y023862D01*
X012428Y023866D01*
X012432Y023871D01*
Y023871D01*
X012433Y023872D01*
X012434Y023874D01*
X012435Y023876D01*
X012438Y023878D01*
X012439Y023882D01*
X012441Y023886D01*
X012444Y023890D01*
X012445Y023895D01*
X012447Y023901D01*
X012450Y023907D01*
X012451Y023914D01*
X012452Y023922D01*
X012453Y023929D01*
X012454Y023947D01*
Y024230D01*
X012513D01*
Y023951D01*
D02*
G37*
G36*
X011406D02*
Y023950D01*
Y023949D01*
Y023947D01*
Y023944D01*
X011405Y023941D01*
Y023938D01*
X011405Y023929D01*
X011403Y023919D01*
X011401Y023908D01*
X011399Y023897D01*
X011395Y023886D01*
Y023886D01*
X011395Y023885D01*
X011394Y023883D01*
X011394Y023881D01*
X011391Y023876D01*
X011388Y023869D01*
X011384Y023861D01*
X011379Y023854D01*
X011373Y023845D01*
X011366Y023837D01*
X011365Y023836D01*
X011362Y023834D01*
X011358Y023830D01*
X011353Y023826D01*
X011346Y023821D01*
X011338Y023816D01*
X011329Y023811D01*
X011318Y023806D01*
X011318D01*
X011317Y023806D01*
X011316Y023805D01*
X011313Y023805D01*
X011307Y023803D01*
X011300Y023801D01*
X011290Y023799D01*
X011279Y023797D01*
X011267Y023796D01*
X011254Y023795D01*
X011248D01*
X011244Y023796D01*
X011240D01*
X011231Y023797D01*
X011220Y023798D01*
X011209Y023800D01*
X011197Y023803D01*
X011186Y023806D01*
X011186D01*
X011185Y023806D01*
X011182Y023808D01*
X011176Y023810D01*
X011170Y023813D01*
X011163Y023818D01*
X011156Y023823D01*
X011148Y023829D01*
X011141Y023835D01*
X011140Y023836D01*
X011138Y023839D01*
X011135Y023843D01*
X011131Y023848D01*
X011127Y023855D01*
X011123Y023863D01*
X011118Y023871D01*
X011115Y023881D01*
Y023882D01*
X011115Y023882D01*
Y023884D01*
X011114Y023886D01*
X011113Y023892D01*
X011111Y023899D01*
X011110Y023908D01*
X011109Y023918D01*
X011108Y023929D01*
X011107Y023941D01*
Y024230D01*
X011166D01*
Y023946D01*
Y023944D01*
Y023941D01*
Y023937D01*
X011166Y023931D01*
X011167Y023924D01*
X011168Y023916D01*
X011169Y023909D01*
X011170Y023901D01*
Y023900D01*
X011171Y023898D01*
X011172Y023895D01*
X011174Y023890D01*
X011176Y023885D01*
X011179Y023880D01*
X011182Y023875D01*
X011186Y023870D01*
X011187Y023869D01*
X011188Y023868D01*
X011190Y023865D01*
X011194Y023863D01*
X011198Y023859D01*
X011203Y023857D01*
X011208Y023853D01*
X011214Y023851D01*
X011215D01*
X011217Y023849D01*
X011221Y023848D01*
X011226Y023847D01*
X011232Y023846D01*
X011239Y023845D01*
X011247Y023845D01*
X011256Y023844D01*
X011260D01*
X011264Y023845D01*
X011267Y023845D01*
X011272Y023846D01*
X011282Y023847D01*
X011293Y023851D01*
X011305Y023856D01*
X011310Y023858D01*
X011316Y023862D01*
X011320Y023866D01*
X011325Y023871D01*
Y023871D01*
X011326Y023872D01*
X011327Y023874D01*
X011328Y023876D01*
X011330Y023878D01*
X011332Y023882D01*
X011334Y023886D01*
X011336Y023890D01*
X011338Y023895D01*
X011340Y023901D01*
X011342Y023907D01*
X011344Y023914D01*
X011345Y023922D01*
X011346Y023929D01*
X011347Y023947D01*
Y024230D01*
X011406D01*
Y023951D01*
D02*
G37*
G36*
X012889Y024180D02*
X012762D01*
Y023801D01*
X012703D01*
Y024180D01*
X012577D01*
Y024230D01*
X012889D01*
Y024180D01*
D02*
G37*
G36*
X011782D02*
X011655D01*
Y023801D01*
X011596D01*
Y024180D01*
X011470D01*
Y024230D01*
X011782D01*
Y024180D01*
D02*
G37*
G36*
X012008Y024236D02*
X012012D01*
X012022Y024234D01*
X012034Y024232D01*
X012046Y024230D01*
X012058Y024226D01*
X012070Y024221D01*
X012070D01*
X012071Y024220D01*
X012072Y024219D01*
X012074Y024218D01*
X012080Y024214D01*
X012088Y024210D01*
X012095Y024203D01*
X012104Y024196D01*
X012112Y024187D01*
X012120Y024177D01*
Y024177D01*
X012121Y024176D01*
X012123Y024174D01*
X012124Y024172D01*
X012125Y024169D01*
X012127Y024166D01*
X012132Y024158D01*
X012137Y024148D01*
X012142Y024137D01*
X012147Y024124D01*
X012151Y024109D01*
Y024108D01*
X012151Y024107D01*
X012152Y024105D01*
X012153Y024102D01*
X012153Y024098D01*
X012154Y024094D01*
X012155Y024089D01*
X012156Y024083D01*
X012157Y024076D01*
X012158Y024069D01*
X012160Y024054D01*
X012161Y024037D01*
X012161Y024018D01*
Y024018D01*
Y024015D01*
Y024013D01*
Y024008D01*
X012161Y024003D01*
Y023997D01*
X012160Y023991D01*
X012160Y023984D01*
X012158Y023969D01*
X012155Y023952D01*
X012152Y023935D01*
X012148Y023918D01*
Y023918D01*
X012147Y023917D01*
X012146Y023914D01*
X012145Y023911D01*
X012144Y023908D01*
X012142Y023904D01*
X012138Y023894D01*
X012132Y023883D01*
X012126Y023871D01*
X012119Y023860D01*
X012111Y023849D01*
Y023848D01*
X012109Y023848D01*
X012107Y023845D01*
X012102Y023840D01*
X012095Y023834D01*
X012087Y023827D01*
X012078Y023821D01*
X012068Y023814D01*
X012056Y023809D01*
X012056D01*
X012055Y023808D01*
X012053Y023807D01*
X012051Y023806D01*
X012048Y023805D01*
X012045Y023804D01*
X012037Y023802D01*
X012027Y023800D01*
X012016Y023798D01*
X012003Y023796D01*
X011991Y023795D01*
X011984D01*
X011981Y023796D01*
X011976D01*
X011966Y023797D01*
X011955Y023799D01*
X011943Y023801D01*
X011931Y023805D01*
X011919Y023810D01*
X011918D01*
X011918Y023811D01*
X011916Y023812D01*
X011914Y023813D01*
X011908Y023816D01*
X011901Y023821D01*
X011893Y023827D01*
X011884Y023835D01*
X011876Y023843D01*
X011868Y023853D01*
Y023854D01*
X011867Y023854D01*
X011866Y023856D01*
X011865Y023858D01*
X011863Y023861D01*
X011862Y023864D01*
X011857Y023872D01*
X011852Y023883D01*
X011847Y023894D01*
X011843Y023907D01*
X011839Y023922D01*
Y023923D01*
X011838Y023924D01*
X011838Y023926D01*
X011837Y023929D01*
X011836Y023933D01*
X011835Y023937D01*
X011835Y023943D01*
X011834Y023949D01*
X011833Y023955D01*
X011832Y023962D01*
X011830Y023978D01*
X011829Y023995D01*
X011829Y024013D01*
Y024014D01*
Y024016D01*
Y024019D01*
Y024023D01*
X011829Y024028D01*
Y024033D01*
X011830Y024040D01*
X011830Y024047D01*
X011832Y024062D01*
X011834Y024079D01*
X011838Y024096D01*
X011842Y024112D01*
Y024113D01*
X011842Y024114D01*
X011844Y024116D01*
X011845Y024119D01*
X011846Y024122D01*
X011847Y024127D01*
X011852Y024137D01*
X011857Y024148D01*
X011863Y024159D01*
X011870Y024171D01*
X011878Y024181D01*
X011879Y024182D01*
X011880Y024183D01*
X011882Y024186D01*
X011887Y024191D01*
X011894Y024197D01*
X011901Y024204D01*
X011911Y024210D01*
X011921Y024217D01*
X011932Y024222D01*
X011933D01*
X011934Y024223D01*
X011935Y024223D01*
X011937Y024225D01*
X011940Y024226D01*
X011943Y024227D01*
X011952Y024230D01*
X011961Y024232D01*
X011973Y024234D01*
X011985Y024236D01*
X011997Y024236D01*
X012005D01*
X012008Y024236D01*
D02*
G37*
G36*
X010942Y003763D02*
X010951Y003762D01*
X010960Y003761D01*
X010979Y003758D01*
X010980D01*
X010984Y003757D01*
X010988Y003755D01*
X010995Y003754D01*
X011003Y003752D01*
X011011Y003749D01*
X011029Y003742D01*
Y003685D01*
X011028Y003686D01*
X011025Y003687D01*
X011020Y003689D01*
X011014Y003692D01*
X011006Y003695D01*
X010998Y003699D01*
X010990Y003701D01*
X010980Y003704D01*
X010979Y003705D01*
X010976Y003705D01*
X010971Y003706D01*
X010964Y003708D01*
X010956Y003709D01*
X010947Y003710D01*
X010937Y003711D01*
X010926Y003711D01*
X010921D01*
X010915Y003711D01*
X010908Y003710D01*
X010899Y003708D01*
X010891Y003706D01*
X010881Y003704D01*
X010872Y003700D01*
X010871Y003699D01*
X010868Y003698D01*
X010863Y003695D01*
X010857Y003692D01*
X010851Y003687D01*
X010844Y003681D01*
X010837Y003674D01*
X010830Y003666D01*
X010830Y003665D01*
X010827Y003663D01*
X010824Y003658D01*
X010820Y003652D01*
X010816Y003644D01*
X010812Y003635D01*
X010808Y003625D01*
X010804Y003614D01*
Y003613D01*
X010803Y003612D01*
Y003611D01*
X010803Y003609D01*
X010802Y003606D01*
X010801Y003602D01*
X010800Y003594D01*
X010798Y003583D01*
X010797Y003571D01*
X010796Y003558D01*
X010795Y003544D01*
Y003542D01*
Y003540D01*
Y003535D01*
X010796Y003530D01*
X010796Y003523D01*
X010797Y003515D01*
X010798Y003506D01*
X010800Y003497D01*
X010803Y003476D01*
X010806Y003466D01*
X010809Y003456D01*
X010813Y003445D01*
X010818Y003435D01*
X010822Y003426D01*
X010828Y003418D01*
X010829Y003417D01*
X010830Y003416D01*
X010832Y003414D01*
X010835Y003411D01*
X010838Y003408D01*
X010843Y003405D01*
X010848Y003401D01*
X010854Y003397D01*
X010860Y003393D01*
X010867Y003389D01*
X010875Y003386D01*
X010885Y003383D01*
X010894Y003380D01*
X010904Y003378D01*
X010915Y003377D01*
X010927Y003376D01*
X010932D01*
X010938Y003377D01*
X010944D01*
X010952Y003378D01*
X010961Y003379D01*
X010971Y003380D01*
X010980Y003382D01*
X010981D01*
X010981Y003383D01*
X010985Y003383D01*
X010990Y003385D01*
X010996Y003387D01*
X011003Y003389D01*
X011011Y003392D01*
X011029Y003400D01*
Y003345D01*
X011028D01*
X011027Y003344D01*
X011024Y003343D01*
X011020Y003342D01*
X011015Y003340D01*
X011010Y003338D01*
X011003Y003336D01*
X010996Y003334D01*
X010988Y003332D01*
X010980Y003330D01*
X010961Y003327D01*
X010942Y003325D01*
X010921Y003324D01*
X010917D01*
X010912Y003324D01*
X010906Y003325D01*
X010898Y003325D01*
X010890Y003326D01*
X010880Y003328D01*
X010869Y003330D01*
X010859Y003333D01*
X010847Y003337D01*
X010836Y003341D01*
X010824Y003346D01*
X010813Y003352D01*
X010802Y003360D01*
X010791Y003368D01*
X010782Y003378D01*
X010781Y003378D01*
X010779Y003380D01*
X010777Y003384D01*
X010774Y003388D01*
X010770Y003393D01*
X010766Y003401D01*
X010762Y003409D01*
X010758Y003418D01*
X010753Y003429D01*
X010748Y003441D01*
X010744Y003454D01*
X010741Y003468D01*
X010737Y003484D01*
X010735Y003501D01*
X010733Y003519D01*
X010733Y003538D01*
Y003539D01*
Y003540D01*
Y003543D01*
Y003547D01*
X010733Y003551D01*
Y003557D01*
X010734Y003563D01*
X010735Y003569D01*
X010736Y003584D01*
X010738Y003599D01*
X010742Y003616D01*
X010746Y003631D01*
Y003632D01*
X010747Y003633D01*
X010748Y003635D01*
X010749Y003639D01*
X010750Y003642D01*
X010752Y003646D01*
X010756Y003656D01*
X010761Y003667D01*
X010768Y003679D01*
X010776Y003690D01*
X010784Y003702D01*
X010785Y003702D01*
X010785Y003703D01*
X010787Y003705D01*
X010789Y003707D01*
X010794Y003712D01*
X010801Y003719D01*
X010810Y003726D01*
X010820Y003734D01*
X010832Y003741D01*
X010845Y003747D01*
X010845D01*
X010847Y003748D01*
X010849Y003749D01*
X010851Y003750D01*
X010855Y003751D01*
X010859Y003752D01*
X010863Y003754D01*
X010868Y003755D01*
X010880Y003758D01*
X010893Y003761D01*
X010908Y003763D01*
X010924Y003763D01*
X010935D01*
X010942Y003763D01*
D02*
G37*
G36*
X012513Y003478D02*
Y003478D01*
Y003476D01*
Y003475D01*
Y003472D01*
X012512Y003469D01*
Y003465D01*
X012512Y003457D01*
X012510Y003447D01*
X012509Y003436D01*
X012506Y003425D01*
X012503Y003414D01*
Y003413D01*
X012502Y003413D01*
X012501Y003411D01*
X012501Y003409D01*
X012498Y003404D01*
X012495Y003397D01*
X012491Y003389D01*
X012486Y003381D01*
X012480Y003373D01*
X012473Y003365D01*
X012472Y003364D01*
X012470Y003362D01*
X012465Y003358D01*
X012460Y003354D01*
X012453Y003349D01*
X012445Y003343D01*
X012436Y003338D01*
X012426Y003334D01*
X012425D01*
X012424Y003333D01*
X012423Y003333D01*
X012421Y003332D01*
X012415Y003331D01*
X012407Y003328D01*
X012398Y003326D01*
X012387Y003325D01*
X012375Y003324D01*
X012362Y003323D01*
X012355D01*
X012351Y003324D01*
X012347D01*
X012338Y003324D01*
X012327Y003326D01*
X012316Y003327D01*
X012304Y003330D01*
X012293Y003333D01*
X012293D01*
X012292Y003334D01*
X012289Y003336D01*
X012284Y003338D01*
X012278Y003341D01*
X012270Y003345D01*
X012263Y003350D01*
X012255Y003356D01*
X012248Y003363D01*
X012248Y003364D01*
X012245Y003366D01*
X012242Y003370D01*
X012238Y003376D01*
X012234Y003383D01*
X012230Y003390D01*
X012226Y003399D01*
X012222Y003409D01*
Y003409D01*
X012222Y003410D01*
Y003411D01*
X012221Y003414D01*
X012220Y003419D01*
X012219Y003427D01*
X012217Y003435D01*
X012216Y003446D01*
X012215Y003457D01*
X012215Y003469D01*
Y003758D01*
X012273D01*
Y003473D01*
Y003472D01*
Y003469D01*
Y003464D01*
X012274Y003458D01*
X012274Y003451D01*
X012275Y003444D01*
X012276Y003437D01*
X012278Y003429D01*
Y003428D01*
X012279Y003426D01*
X012280Y003422D01*
X012281Y003418D01*
X012284Y003413D01*
X012286Y003408D01*
X012290Y003402D01*
X012293Y003397D01*
X012294Y003397D01*
X012296Y003395D01*
X012298Y003393D01*
X012301Y003390D01*
X012305Y003387D01*
X012310Y003384D01*
X012315Y003381D01*
X012321Y003378D01*
X012322D01*
X012325Y003377D01*
X012328Y003376D01*
X012333Y003375D01*
X012339Y003374D01*
X012346Y003373D01*
X012355Y003372D01*
X012363Y003372D01*
X012368D01*
X012371Y003372D01*
X012375Y003373D01*
X012379Y003373D01*
X012390Y003375D01*
X012400Y003378D01*
X012412Y003383D01*
X012417Y003386D01*
X012423Y003390D01*
X012428Y003393D01*
X012432Y003398D01*
Y003399D01*
X012433Y003399D01*
X012434Y003401D01*
X012435Y003403D01*
X012438Y003406D01*
X012439Y003409D01*
X012441Y003413D01*
X012444Y003418D01*
X012445Y003423D01*
X012447Y003429D01*
X012450Y003435D01*
X012451Y003441D01*
X012452Y003449D01*
X012453Y003457D01*
X012454Y003474D01*
Y003758D01*
X012513D01*
Y003478D01*
D02*
G37*
G36*
X011406D02*
Y003478D01*
Y003476D01*
Y003475D01*
Y003472D01*
X011405Y003469D01*
Y003465D01*
X011405Y003457D01*
X011403Y003447D01*
X011401Y003436D01*
X011399Y003425D01*
X011395Y003414D01*
Y003413D01*
X011395Y003413D01*
X011394Y003411D01*
X011394Y003409D01*
X011391Y003404D01*
X011388Y003397D01*
X011384Y003389D01*
X011379Y003381D01*
X011373Y003373D01*
X011366Y003365D01*
X011365Y003364D01*
X011362Y003362D01*
X011358Y003358D01*
X011353Y003354D01*
X011346Y003349D01*
X011338Y003343D01*
X011329Y003338D01*
X011318Y003334D01*
X011318D01*
X011317Y003333D01*
X011316Y003333D01*
X011313Y003332D01*
X011307Y003331D01*
X011300Y003328D01*
X011290Y003326D01*
X011279Y003325D01*
X011267Y003324D01*
X011254Y003323D01*
X011248D01*
X011244Y003324D01*
X011240D01*
X011231Y003324D01*
X011220Y003326D01*
X011209Y003327D01*
X011197Y003330D01*
X011186Y003333D01*
X011186D01*
X011185Y003334D01*
X011182Y003336D01*
X011176Y003338D01*
X011170Y003341D01*
X011163Y003345D01*
X011156Y003350D01*
X011148Y003356D01*
X011141Y003363D01*
X011140Y003364D01*
X011138Y003366D01*
X011135Y003370D01*
X011131Y003376D01*
X011127Y003383D01*
X011123Y003390D01*
X011118Y003399D01*
X011115Y003409D01*
Y003409D01*
X011115Y003410D01*
Y003411D01*
X011114Y003414D01*
X011113Y003419D01*
X011111Y003427D01*
X011110Y003435D01*
X011109Y003446D01*
X011108Y003457D01*
X011107Y003469D01*
Y003758D01*
X011166D01*
Y003473D01*
Y003472D01*
Y003469D01*
Y003464D01*
X011166Y003458D01*
X011167Y003451D01*
X011168Y003444D01*
X011169Y003437D01*
X011170Y003429D01*
Y003428D01*
X011171Y003426D01*
X011172Y003422D01*
X011174Y003418D01*
X011176Y003413D01*
X011179Y003408D01*
X011182Y003402D01*
X011186Y003397D01*
X011187Y003397D01*
X011188Y003395D01*
X011191Y003393D01*
X011194Y003390D01*
X011198Y003387D01*
X011203Y003384D01*
X011208Y003381D01*
X011214Y003378D01*
X011215D01*
X011217Y003377D01*
X011221Y003376D01*
X011226Y003375D01*
X011232Y003374D01*
X011239Y003373D01*
X011247Y003372D01*
X011256Y003372D01*
X011260D01*
X011264Y003372D01*
X011267Y003373D01*
X011272Y003373D01*
X011282Y003375D01*
X011293Y003378D01*
X011305Y003383D01*
X011310Y003386D01*
X011316Y003390D01*
X011320Y003393D01*
X011325Y003398D01*
Y003399D01*
X011326Y003399D01*
X011327Y003401D01*
X011328Y003403D01*
X011330Y003406D01*
X011332Y003409D01*
X011334Y003413D01*
X011336Y003418D01*
X011338Y003423D01*
X011340Y003429D01*
X011342Y003435D01*
X011344Y003441D01*
X011345Y003449D01*
X011346Y003457D01*
X011347Y003474D01*
Y003758D01*
X011406D01*
Y003478D01*
D02*
G37*
G36*
X012889Y003708D02*
X012762D01*
Y003329D01*
X012703D01*
Y003708D01*
X012577D01*
Y003758D01*
X012889D01*
Y003708D01*
D02*
G37*
G36*
X011782D02*
X011655D01*
Y003329D01*
X011596D01*
Y003708D01*
X011470D01*
Y003758D01*
X011782D01*
Y003708D01*
D02*
G37*
G36*
X012008Y003763D02*
X012012D01*
X012022Y003762D01*
X012034Y003760D01*
X012046Y003757D01*
X012058Y003753D01*
X012070Y003748D01*
X012070D01*
X012071Y003748D01*
X012072Y003747D01*
X012074Y003746D01*
X012080Y003742D01*
X012088Y003737D01*
X012095Y003731D01*
X012104Y003723D01*
X012112Y003714D01*
X012120Y003705D01*
Y003704D01*
X012121Y003704D01*
X012123Y003702D01*
X012124Y003700D01*
X012125Y003697D01*
X012127Y003694D01*
X012132Y003686D01*
X012137Y003676D01*
X012142Y003664D01*
X012147Y003651D01*
X012151Y003636D01*
Y003636D01*
X012151Y003635D01*
X012152Y003633D01*
X012153Y003629D01*
X012153Y003625D01*
X012154Y003621D01*
X012155Y003616D01*
X012156Y003610D01*
X012157Y003604D01*
X012158Y003597D01*
X012160Y003581D01*
X012161Y003564D01*
X012161Y003546D01*
Y003545D01*
Y003543D01*
Y003540D01*
Y003536D01*
X012161Y003531D01*
Y003525D01*
X012160Y003518D01*
X012160Y003511D01*
X012158Y003496D01*
X012155Y003479D01*
X012152Y003462D01*
X012148Y003446D01*
Y003445D01*
X012147Y003444D01*
X012146Y003442D01*
X012145Y003439D01*
X012144Y003435D01*
X012142Y003431D01*
X012138Y003422D01*
X012132Y003411D01*
X012126Y003399D01*
X012119Y003387D01*
X012111Y003377D01*
Y003376D01*
X012109Y003375D01*
X012107Y003372D01*
X012102Y003367D01*
X012095Y003361D01*
X012087Y003355D01*
X012078Y003348D01*
X012068Y003342D01*
X012056Y003336D01*
X012056D01*
X012055Y003336D01*
X012053Y003335D01*
X012051Y003334D01*
X012048Y003333D01*
X012045Y003332D01*
X012037Y003330D01*
X012027Y003327D01*
X012016Y003325D01*
X012003Y003324D01*
X011991Y003323D01*
X011984D01*
X011981Y003324D01*
X011976D01*
X011966Y003325D01*
X011955Y003327D01*
X011943Y003329D01*
X011931Y003333D01*
X011919Y003338D01*
X011918D01*
X011918Y003338D01*
X011916Y003339D01*
X011914Y003340D01*
X011908Y003344D01*
X011901Y003349D01*
X011893Y003355D01*
X011884Y003362D01*
X011876Y003371D01*
X011868Y003381D01*
Y003381D01*
X011867Y003382D01*
X011866Y003384D01*
X011865Y003386D01*
X011863Y003389D01*
X011862Y003392D01*
X011857Y003400D01*
X011852Y003410D01*
X011847Y003422D01*
X011843Y003435D01*
X011839Y003450D01*
Y003450D01*
X011838Y003451D01*
X011838Y003453D01*
X011837Y003457D01*
X011836Y003461D01*
X011835Y003465D01*
X011835Y003470D01*
X011834Y003476D01*
X011833Y003482D01*
X011832Y003490D01*
X011830Y003505D01*
X011829Y003522D01*
X011829Y003541D01*
Y003541D01*
Y003544D01*
Y003546D01*
Y003551D01*
X011829Y003556D01*
Y003561D01*
X011830Y003568D01*
X011830Y003575D01*
X011832Y003590D01*
X011834Y003607D01*
X011838Y003623D01*
X011842Y003640D01*
Y003640D01*
X011842Y003641D01*
X011844Y003643D01*
X011845Y003647D01*
X011846Y003650D01*
X011847Y003654D01*
X011852Y003664D01*
X011857Y003675D01*
X011863Y003687D01*
X011870Y003698D01*
X011878Y003709D01*
X011879Y003710D01*
X011880Y003710D01*
X011882Y003713D01*
X011887Y003718D01*
X011894Y003725D01*
X011901Y003731D01*
X011911Y003738D01*
X011921Y003745D01*
X011932Y003750D01*
X011933D01*
X011934Y003751D01*
X011935Y003751D01*
X011937Y003752D01*
X011940Y003753D01*
X011943Y003754D01*
X011952Y003757D01*
X011961Y003759D01*
X011973Y003761D01*
X011985Y003763D01*
X011997Y003764D01*
X012005D01*
X012008Y003763D01*
D02*
G37*
G36*
X048831Y004157D02*
X048840Y004156D01*
X048842D01*
X048845Y004156D01*
X048848D01*
X048852Y004155D01*
X048856Y004155D01*
X048865Y004153D01*
X048866D01*
X048868Y004152D01*
X048870D01*
X048874Y004152D01*
X048877Y004151D01*
X048882Y004150D01*
X048891Y004149D01*
X048892D01*
X048893Y004148D01*
X048896D01*
X048899Y004147D01*
X048907Y004146D01*
X048915Y004144D01*
Y004092D01*
X048914D01*
X048914Y004092D01*
X048911Y004093D01*
X048906Y004095D01*
X048899Y004096D01*
X048892Y004098D01*
X048883Y004099D01*
X048874Y004101D01*
X048864Y004103D01*
X048863D01*
X048860Y004103D01*
X048855Y004104D01*
X048849Y004105D01*
X048841Y004105D01*
X048833Y004106D01*
X048815Y004107D01*
X048807D01*
X048803Y004106D01*
X048798Y004105D01*
X048787Y004104D01*
X048775Y004102D01*
X048763Y004099D01*
X048751Y004095D01*
X048746Y004092D01*
X048741Y004090D01*
X048740Y004089D01*
X048738Y004086D01*
X048734Y004083D01*
X048730Y004078D01*
X048726Y004071D01*
X048722Y004063D01*
X048719Y004055D01*
X048718Y004050D01*
X048718Y004045D01*
Y004044D01*
Y004042D01*
X048718Y004039D01*
X048719Y004034D01*
X048720Y004030D01*
X048722Y004025D01*
X048724Y004020D01*
X048727Y004015D01*
X048728Y004014D01*
X048729Y004013D01*
X048731Y004010D01*
X048734Y004007D01*
X048738Y004004D01*
X048742Y004000D01*
X048747Y003996D01*
X048753Y003992D01*
X048753Y003992D01*
X048756Y003991D01*
X048759Y003989D01*
X048763Y003986D01*
X048769Y003984D01*
X048775Y003981D01*
X048782Y003978D01*
X048789Y003974D01*
X048790Y003974D01*
X048792Y003973D01*
X048797Y003972D01*
X048801Y003970D01*
X048808Y003967D01*
X048815Y003964D01*
X048830Y003958D01*
X048831Y003957D01*
X048834Y003956D01*
X048838Y003955D01*
X048843Y003953D01*
X048849Y003950D01*
X048856Y003947D01*
X048871Y003939D01*
X048872Y003939D01*
X048874Y003938D01*
X048878Y003936D01*
X048883Y003932D01*
X048888Y003929D01*
X048894Y003925D01*
X048907Y003915D01*
X048907Y003914D01*
X048910Y003913D01*
X048912Y003909D01*
X048916Y003906D01*
X048920Y003901D01*
X048924Y003896D01*
X048929Y003889D01*
X048933Y003883D01*
X048933Y003882D01*
X048934Y003879D01*
X048936Y003876D01*
X048937Y003870D01*
X048939Y003864D01*
X048941Y003856D01*
X048942Y003848D01*
X048942Y003838D01*
Y003838D01*
Y003837D01*
Y003836D01*
Y003834D01*
X048942Y003828D01*
X048941Y003820D01*
X048939Y003812D01*
X048937Y003803D01*
X048934Y003794D01*
X048930Y003785D01*
X048929Y003784D01*
X048928Y003781D01*
X048925Y003777D01*
X048921Y003772D01*
X048916Y003765D01*
X048910Y003759D01*
X048903Y003753D01*
X048895Y003747D01*
X048894Y003746D01*
X048891Y003744D01*
X048886Y003741D01*
X048880Y003738D01*
X048872Y003734D01*
X048863Y003731D01*
X048852Y003727D01*
X048841Y003724D01*
X048840D01*
X048839Y003723D01*
X048838D01*
X048835Y003723D01*
X048833Y003722D01*
X048829Y003722D01*
X048821Y003721D01*
X048810Y003719D01*
X048799Y003718D01*
X048786Y003717D01*
X048772Y003717D01*
X048762D01*
X048756Y003717D01*
X048751D01*
X048738Y003718D01*
X048735D01*
X048732Y003719D01*
X048728Y003719D01*
X048723D01*
X048717Y003720D01*
X048705Y003722D01*
X048705D01*
X048703Y003722D01*
X048700D01*
X048696Y003723D01*
X048691Y003723D01*
X048686Y003724D01*
X048676Y003725D01*
X048675D01*
X048674Y003726D01*
X048671Y003727D01*
X048668Y003727D01*
X048660Y003729D01*
X048651Y003731D01*
Y003788D01*
X048652D01*
X048652Y003787D01*
X048656Y003786D01*
X048661Y003784D01*
X048668Y003782D01*
X048675Y003780D01*
X048685Y003777D01*
X048696Y003775D01*
X048706Y003773D01*
X048708D01*
X048710Y003772D01*
X048712D01*
X048715Y003772D01*
X048718Y003771D01*
X048727Y003771D01*
X048737Y003770D01*
X048749Y003769D01*
X048762Y003768D01*
X048786D01*
X048793Y003769D01*
X048800Y003769D01*
X048808Y003770D01*
X048816Y003771D01*
X048824Y003772D01*
X048825D01*
X048827Y003773D01*
X048831Y003774D01*
X048835Y003776D01*
X048841Y003777D01*
X048846Y003780D01*
X048852Y003782D01*
X048857Y003785D01*
X048857Y003786D01*
X048859Y003787D01*
X048861Y003789D01*
X048864Y003792D01*
X048866Y003795D01*
X048870Y003798D01*
X048872Y003802D01*
X048875Y003807D01*
X048876Y003807D01*
X048876Y003809D01*
X048877Y003812D01*
X048878Y003815D01*
X048880Y003819D01*
X048880Y003824D01*
X048881Y003829D01*
Y003835D01*
Y003836D01*
Y003838D01*
X048881Y003841D01*
X048880Y003846D01*
X048879Y003850D01*
X048877Y003855D01*
X048875Y003860D01*
X048871Y003865D01*
X048871Y003865D01*
X048870Y003867D01*
X048868Y003869D01*
X048864Y003872D01*
X048861Y003876D01*
X048857Y003879D01*
X048851Y003883D01*
X048846Y003887D01*
X048845Y003887D01*
X048843Y003888D01*
X048840Y003890D01*
X048835Y003893D01*
X048830Y003895D01*
X048824Y003899D01*
X048817Y003901D01*
X048810Y003905D01*
X048809Y003905D01*
X048806Y003906D01*
X048802Y003908D01*
X048797Y003909D01*
X048791Y003912D01*
X048784Y003915D01*
X048769Y003921D01*
X048768Y003921D01*
X048765Y003923D01*
X048761Y003924D01*
X048756Y003926D01*
X048750Y003929D01*
X048743Y003932D01*
X048728Y003939D01*
X048727Y003940D01*
X048724Y003941D01*
X048721Y003943D01*
X048716Y003947D01*
X048710Y003950D01*
X048704Y003954D01*
X048692Y003963D01*
X048691Y003964D01*
X048689Y003966D01*
X048686Y003969D01*
X048682Y003973D01*
X048679Y003977D01*
X048674Y003983D01*
X048670Y003989D01*
X048666Y003995D01*
X048666Y003996D01*
X048664Y003998D01*
X048663Y004002D01*
X048662Y004008D01*
X048660Y004014D01*
X048658Y004021D01*
X048657Y004030D01*
X048657Y004039D01*
Y004040D01*
Y004043D01*
X048657Y004047D01*
X048658Y004052D01*
X048659Y004059D01*
X048661Y004066D01*
X048663Y004074D01*
X048666Y004082D01*
X048666Y004083D01*
X048667Y004086D01*
X048669Y004090D01*
X048673Y004095D01*
X048676Y004101D01*
X048681Y004107D01*
X048687Y004114D01*
X048694Y004120D01*
X048695Y004121D01*
X048698Y004123D01*
X048702Y004126D01*
X048708Y004129D01*
X048715Y004134D01*
X048723Y004138D01*
X048733Y004143D01*
X048744Y004147D01*
X048745D01*
X048746Y004147D01*
X048747Y004148D01*
X048750Y004149D01*
X048752Y004149D01*
X048756Y004150D01*
X048760Y004151D01*
X048765Y004152D01*
X048775Y004154D01*
X048788Y004156D01*
X048801Y004157D01*
X048817Y004157D01*
X048827D01*
X048831Y004157D01*
D02*
G37*
G36*
X047012D02*
X047020Y004156D01*
X047030Y004155D01*
X047049Y004152D01*
X047050D01*
X047054Y004151D01*
X047059Y004150D01*
X047066Y004148D01*
X047073Y004146D01*
X047082Y004143D01*
X047090Y004140D01*
X047100Y004136D01*
Y004078D01*
X047099Y004079D01*
X047095Y004080D01*
X047091Y004083D01*
X047084Y004085D01*
X047077Y004089D01*
X047068Y004092D01*
X047059Y004095D01*
X047050Y004098D01*
X047049Y004098D01*
X047046Y004099D01*
X047041Y004100D01*
X047034Y004102D01*
X047025Y004103D01*
X047016Y004104D01*
X047006Y004104D01*
X046995Y004105D01*
X046990D01*
X046987Y004104D01*
X046983D01*
X046975Y004103D01*
X046966Y004102D01*
X046955Y004099D01*
X046945Y004097D01*
X046935Y004092D01*
X046934D01*
X046934Y004092D01*
X046930Y004090D01*
X046925Y004087D01*
X046919Y004084D01*
X046912Y004079D01*
X046905Y004073D01*
X046897Y004066D01*
X046890Y004058D01*
X046889Y004057D01*
X046887Y004054D01*
X046884Y004049D01*
X046880Y004043D01*
X046875Y004036D01*
X046871Y004026D01*
X046866Y004016D01*
X046862Y004005D01*
Y004004D01*
X046862Y004003D01*
X046861Y004002D01*
X046860Y004000D01*
X046860Y003997D01*
X046859Y003993D01*
X046858Y003985D01*
X046856Y003974D01*
X046854Y003962D01*
X046853Y003950D01*
X046853Y003936D01*
Y003935D01*
Y003934D01*
Y003932D01*
Y003929D01*
Y003926D01*
X046853Y003921D01*
X046854Y003912D01*
X046854Y003901D01*
X046856Y003889D01*
X046858Y003877D01*
X046860Y003865D01*
Y003865D01*
X046861Y003864D01*
X046862Y003862D01*
X046862Y003860D01*
X046864Y003854D01*
X046866Y003847D01*
X046870Y003838D01*
X046874Y003830D01*
X046879Y003821D01*
X046884Y003812D01*
X046885Y003811D01*
X046888Y003809D01*
X046891Y003805D01*
X046896Y003800D01*
X046902Y003795D01*
X046910Y003789D01*
X046918Y003784D01*
X046928Y003779D01*
X046928D01*
X046929Y003779D01*
X046930Y003778D01*
X046933Y003778D01*
X046938Y003776D01*
X046945Y003774D01*
X046954Y003772D01*
X046965Y003770D01*
X046977Y003769D01*
X046990Y003768D01*
X046999D01*
X047003Y003769D01*
X047005D01*
X047008Y003769D01*
X047012Y003770D01*
X047018Y003770D01*
X047019D01*
X047022Y003771D01*
X047026Y003772D01*
X047031Y003773D01*
X047032D01*
X047032Y003773D01*
X047036Y003774D01*
X047040Y003775D01*
X047044Y003777D01*
Y003914D01*
X046957D01*
Y003962D01*
X047102D01*
Y003742D01*
X047101D01*
X047100Y003741D01*
X047097Y003740D01*
X047093Y003739D01*
X047089Y003737D01*
X047084Y003735D01*
X047073Y003731D01*
X047072D01*
X047070Y003731D01*
X047067Y003730D01*
X047064Y003729D01*
X047059Y003727D01*
X047054Y003726D01*
X047042Y003723D01*
X047042D01*
X047040Y003723D01*
X047037Y003722D01*
X047033Y003722D01*
X047028Y003721D01*
X047023Y003721D01*
X047012Y003719D01*
X047011D01*
X047009Y003718D01*
X047006D01*
X047002Y003718D01*
X046997Y003717D01*
X046993D01*
X046982Y003717D01*
X046975D01*
X046970Y003717D01*
X046966D01*
X046961Y003718D01*
X046955Y003718D01*
X046943Y003720D01*
X046930Y003723D01*
X046916Y003726D01*
X046902Y003730D01*
X046902D01*
X046901Y003731D01*
X046899Y003732D01*
X046896Y003733D01*
X046894Y003734D01*
X046890Y003736D01*
X046882Y003741D01*
X046872Y003746D01*
X046863Y003753D01*
X046852Y003761D01*
X046842Y003771D01*
Y003771D01*
X046841Y003772D01*
X046840Y003773D01*
X046839Y003776D01*
X046836Y003778D01*
X046834Y003782D01*
X046829Y003789D01*
X046822Y003799D01*
X046816Y003811D01*
X046810Y003824D01*
X046805Y003838D01*
Y003839D01*
X046804Y003840D01*
X046804Y003842D01*
X046803Y003846D01*
X046801Y003849D01*
X046800Y003854D01*
X046799Y003859D01*
X046798Y003865D01*
X046797Y003872D01*
X046796Y003879D01*
X046794Y003895D01*
X046792Y003913D01*
X046792Y003932D01*
Y003932D01*
Y003934D01*
Y003937D01*
Y003941D01*
X046792Y003945D01*
Y003951D01*
X046793Y003957D01*
X046793Y003963D01*
X046795Y003978D01*
X046798Y003994D01*
X046801Y004010D01*
X046806Y004026D01*
Y004027D01*
X046807Y004028D01*
X046808Y004030D01*
X046809Y004033D01*
X046811Y004037D01*
X046812Y004041D01*
X046817Y004051D01*
X046823Y004062D01*
X046830Y004074D01*
X046838Y004086D01*
X046847Y004097D01*
X046848Y004098D01*
X046848Y004098D01*
X046850Y004100D01*
X046852Y004102D01*
X046858Y004108D01*
X046865Y004114D01*
X046875Y004121D01*
X046886Y004128D01*
X046898Y004135D01*
X046912Y004142D01*
X046912D01*
X046913Y004143D01*
X046916Y004144D01*
X046918Y004144D01*
X046922Y004146D01*
X046926Y004147D01*
X046931Y004148D01*
X046936Y004150D01*
X046948Y004152D01*
X046963Y004155D01*
X046978Y004157D01*
X046995Y004157D01*
X047005D01*
X047012Y004157D01*
D02*
G37*
G36*
X042952Y004157D02*
X042960Y004156D01*
X042970Y004155D01*
X042989Y004152D01*
X042990D01*
X042994Y004151D01*
X042999Y004150D01*
X043006Y004148D01*
X043013Y004146D01*
X043022Y004143D01*
X043030Y004140D01*
X043040Y004136D01*
Y004078D01*
X043038Y004079D01*
X043035Y004080D01*
X043031Y004083D01*
X043024Y004085D01*
X043017Y004089D01*
X043008Y004092D01*
X042999Y004095D01*
X042990Y004098D01*
X042989Y004098D01*
X042985Y004099D01*
X042981Y004100D01*
X042973Y004102D01*
X042965Y004103D01*
X042956Y004104D01*
X042946Y004104D01*
X042935Y004105D01*
X042930D01*
X042927Y004104D01*
X042923D01*
X042915Y004103D01*
X042906Y004102D01*
X042895Y004099D01*
X042885Y004097D01*
X042875Y004092D01*
X042874D01*
X042874Y004092D01*
X042870Y004090D01*
X042865Y004087D01*
X042859Y004084D01*
X042852Y004079D01*
X042845Y004073D01*
X042837Y004066D01*
X042830Y004058D01*
X042829Y004057D01*
X042827Y004054D01*
X042824Y004049D01*
X042819Y004043D01*
X042815Y004036D01*
X042811Y004026D01*
X042806Y004016D01*
X042802Y004005D01*
Y004004D01*
X042801Y004003D01*
X042801Y004002D01*
X042800Y004000D01*
X042800Y003997D01*
X042799Y003993D01*
X042798Y003985D01*
X042795Y003974D01*
X042794Y003962D01*
X042793Y003950D01*
X042793Y003936D01*
Y003935D01*
Y003934D01*
Y003932D01*
Y003929D01*
Y003926D01*
X042793Y003921D01*
X042794Y003912D01*
X042794Y003901D01*
X042796Y003889D01*
X042798Y003877D01*
X042800Y003865D01*
Y003865D01*
X042801Y003864D01*
X042801Y003862D01*
X042802Y003860D01*
X042804Y003854D01*
X042806Y003847D01*
X042810Y003838D01*
X042814Y003830D01*
X042819Y003821D01*
X042824Y003812D01*
X042825Y003811D01*
X042828Y003809D01*
X042831Y003805D01*
X042836Y003800D01*
X042842Y003795D01*
X042850Y003789D01*
X042858Y003784D01*
X042868Y003779D01*
X042868D01*
X042869Y003779D01*
X042870Y003778D01*
X042872Y003778D01*
X042878Y003776D01*
X042885Y003774D01*
X042894Y003772D01*
X042905Y003770D01*
X042917Y003769D01*
X042930Y003768D01*
X042939D01*
X042943Y003769D01*
X042945D01*
X042948Y003769D01*
X042952Y003770D01*
X042958Y003770D01*
X042959D01*
X042962Y003771D01*
X042966Y003772D01*
X042971Y003773D01*
X042972D01*
X042972Y003773D01*
X042976Y003774D01*
X042979Y003775D01*
X042984Y003777D01*
Y003914D01*
X042896D01*
Y003962D01*
X043042D01*
Y003742D01*
X043041D01*
X043040Y003741D01*
X043037Y003740D01*
X043033Y003739D01*
X043029Y003737D01*
X043024Y003735D01*
X043013Y003731D01*
X043012D01*
X043010Y003731D01*
X043007Y003730D01*
X043004Y003729D01*
X042999Y003727D01*
X042994Y003726D01*
X042982Y003723D01*
X042982D01*
X042979Y003723D01*
X042977Y003722D01*
X042973Y003722D01*
X042968Y003721D01*
X042963Y003721D01*
X042952Y003719D01*
X042951D01*
X042949Y003718D01*
X042946D01*
X042942Y003718D01*
X042937Y003717D01*
X042933D01*
X042922Y003717D01*
X042915D01*
X042910Y003717D01*
X042906D01*
X042901Y003718D01*
X042895Y003718D01*
X042883Y003720D01*
X042870Y003723D01*
X042856Y003726D01*
X042842Y003730D01*
X042842D01*
X042841Y003731D01*
X042839Y003732D01*
X042836Y003733D01*
X042834Y003734D01*
X042830Y003736D01*
X042822Y003741D01*
X042812Y003746D01*
X042803Y003753D01*
X042792Y003761D01*
X042782Y003771D01*
Y003771D01*
X042781Y003772D01*
X042780Y003773D01*
X042779Y003776D01*
X042776Y003778D01*
X042774Y003782D01*
X042769Y003789D01*
X042762Y003799D01*
X042756Y003811D01*
X042750Y003824D01*
X042745Y003838D01*
Y003839D01*
X042744Y003840D01*
X042744Y003842D01*
X042743Y003846D01*
X042741Y003849D01*
X042740Y003854D01*
X042739Y003859D01*
X042738Y003865D01*
X042737Y003872D01*
X042736Y003879D01*
X042734Y003895D01*
X042732Y003913D01*
X042732Y003932D01*
Y003932D01*
Y003934D01*
Y003937D01*
Y003941D01*
X042732Y003945D01*
Y003951D01*
X042733Y003957D01*
X042733Y003963D01*
X042735Y003978D01*
X042738Y003994D01*
X042741Y004010D01*
X042746Y004026D01*
Y004027D01*
X042747Y004028D01*
X042748Y004030D01*
X042749Y004033D01*
X042751Y004037D01*
X042752Y004041D01*
X042757Y004051D01*
X042763Y004062D01*
X042770Y004074D01*
X042778Y004086D01*
X042787Y004097D01*
X042788Y004098D01*
X042788Y004098D01*
X042790Y004100D01*
X042792Y004102D01*
X042798Y004108D01*
X042805Y004114D01*
X042815Y004121D01*
X042826Y004128D01*
X042838Y004135D01*
X042852Y004142D01*
X042852D01*
X042853Y004143D01*
X042856Y004144D01*
X042858Y004144D01*
X042862Y004146D01*
X042866Y004147D01*
X042871Y004148D01*
X042876Y004150D01*
X042888Y004152D01*
X042902Y004155D01*
X042918Y004157D01*
X042935Y004157D01*
X042945D01*
X042952Y004157D01*
D02*
G37*
G36*
X048210Y003723D02*
X048152D01*
Y003919D01*
X047972D01*
Y003723D01*
X047914D01*
Y004151D01*
X047972D01*
Y003970D01*
X048152D01*
Y004151D01*
X048210D01*
Y003723D01*
D02*
G37*
G36*
X050422D02*
X050343D01*
X050223Y003990D01*
X050189Y004076D01*
Y003860D01*
Y003723D01*
X050130D01*
Y004151D01*
X050209D01*
X050322Y003897D01*
X050364Y003800D01*
Y004029D01*
Y004151D01*
X050422D01*
Y003723D01*
D02*
G37*
G36*
X046731D02*
X046652D01*
X046532Y003990D01*
X046498Y004076D01*
Y003860D01*
Y003723D01*
X046439D01*
Y004151D01*
X046518D01*
X046631Y003897D01*
X046673Y003800D01*
Y004029D01*
Y004151D01*
X046731D01*
Y003723D01*
D02*
G37*
G36*
X044408Y003723D02*
X044330D01*
X044187Y004151D01*
X044253D01*
X044346Y003862D01*
X044372Y003777D01*
X044399Y003862D01*
X044491Y004151D01*
X044554D01*
X044408Y003723D01*
D02*
G37*
G36*
X042563D02*
X042484D01*
X042342Y004151D01*
X042408D01*
X042500Y003862D01*
X042526Y003777D01*
X042553Y003862D01*
X042646Y004151D01*
X042708D01*
X042563Y003723D01*
D02*
G37*
G36*
X050770Y004102D02*
X050585D01*
Y003970D01*
X050763D01*
Y003920D01*
X050585D01*
Y003772D01*
X050770D01*
Y003723D01*
X050527D01*
Y004151D01*
X050770D01*
Y004102D01*
D02*
G37*
G36*
X050035D02*
X049937D01*
Y003772D01*
X050035D01*
Y003723D01*
X049779D01*
Y003772D01*
X049878D01*
Y004102D01*
X049779D01*
Y004151D01*
X050035D01*
Y004102D01*
D02*
G37*
G36*
X049489Y003772D02*
X049677D01*
Y003723D01*
X049430D01*
Y004151D01*
X049489D01*
Y003772D01*
D02*
G37*
G36*
X048559Y004102D02*
X048460D01*
Y003772D01*
X048559D01*
Y003723D01*
X048302D01*
Y003772D01*
X048401D01*
Y004102D01*
X048302D01*
Y004151D01*
X048559D01*
Y004102D01*
D02*
G37*
G36*
X047849Y004102D02*
X047722D01*
Y003723D01*
X047663D01*
Y004102D01*
X047536D01*
Y004151D01*
X047849D01*
Y004102D01*
D02*
G37*
G36*
X045798Y003772D02*
X045986D01*
Y003723D01*
X045739D01*
Y004151D01*
X045798D01*
Y003772D01*
D02*
G37*
G36*
X045659Y003723D02*
X045595D01*
X045566Y003816D01*
X045387D01*
X045357Y003723D01*
X045296D01*
X045439Y004151D01*
X045518D01*
X045659Y003723D01*
D02*
G37*
G36*
X044865Y004102D02*
X044680D01*
Y003970D01*
X044857D01*
Y003920D01*
X044680D01*
Y003772D01*
X044865D01*
Y003723D01*
X044621D01*
Y004151D01*
X044865D01*
Y004102D01*
D02*
G37*
G36*
X043262Y004151D02*
X043271Y004150D01*
X043281Y004149D01*
X043292Y004147D01*
X043303Y004145D01*
X043313Y004143D01*
X043314D01*
X043314Y004142D01*
X043317Y004141D01*
X043322Y004139D01*
X043329Y004137D01*
X043336Y004133D01*
X043343Y004129D01*
X043351Y004125D01*
X043357Y004120D01*
X043358Y004119D01*
X043360Y004117D01*
X043363Y004114D01*
X043367Y004110D01*
X043372Y004104D01*
X043375Y004098D01*
X043380Y004092D01*
X043383Y004084D01*
X043384Y004083D01*
X043384Y004080D01*
X043386Y004077D01*
X043387Y004071D01*
X043388Y004064D01*
X043390Y004056D01*
X043391Y004048D01*
X043391Y004038D01*
Y004037D01*
Y004035D01*
X043391Y004031D01*
Y004026D01*
X043390Y004020D01*
X043388Y004014D01*
X043387Y004007D01*
X043385Y004000D01*
Y004000D01*
X043384Y003997D01*
X043382Y003994D01*
X043381Y003989D01*
X043378Y003984D01*
X043375Y003979D01*
X043372Y003973D01*
X043367Y003967D01*
X043367Y003967D01*
X043365Y003965D01*
X043363Y003962D01*
X043359Y003959D01*
X043355Y003955D01*
X043350Y003951D01*
X043344Y003947D01*
X043338Y003942D01*
X043338Y003942D01*
X043335Y003941D01*
X043332Y003938D01*
X043327Y003936D01*
X043321Y003934D01*
X043315Y003931D01*
X043307Y003929D01*
X043299Y003926D01*
X043299D01*
X043302Y003925D01*
X043305Y003924D01*
X043309Y003921D01*
X043314Y003918D01*
X043320Y003915D01*
X043325Y003910D01*
X043329Y003905D01*
X043330Y003904D01*
X043332Y003902D01*
X043334Y003899D01*
X043338Y003894D01*
X043341Y003888D01*
X043346Y003881D01*
X043351Y003873D01*
X043356Y003864D01*
X043423Y003723D01*
X043357D01*
X043293Y003859D01*
X043293Y003860D01*
X043292Y003862D01*
X043291Y003865D01*
X043289Y003868D01*
X043284Y003877D01*
X043279Y003885D01*
X043278Y003886D01*
X043278Y003887D01*
X043276Y003889D01*
X043274Y003891D01*
X043268Y003897D01*
X043262Y003902D01*
X043262Y003902D01*
X043261Y003903D01*
X043259Y003904D01*
X043257Y003905D01*
X043251Y003908D01*
X043243Y003911D01*
X043243D01*
X043242Y003911D01*
X043239Y003912D01*
X043237Y003912D01*
X043233D01*
X043229Y003913D01*
X043220Y003913D01*
X043193D01*
Y003723D01*
X043135D01*
Y004151D01*
X043258D01*
X043262Y004151D01*
D02*
G37*
G36*
X046229Y004157D02*
X046234D01*
X046243Y004156D01*
X046255Y004153D01*
X046267Y004151D01*
X046279Y004147D01*
X046291Y004142D01*
X046292D01*
X046293Y004141D01*
X046294Y004140D01*
X046296Y004139D01*
X046302Y004135D01*
X046309Y004131D01*
X046317Y004125D01*
X046325Y004117D01*
X046334Y004108D01*
X046342Y004098D01*
Y004098D01*
X046343Y004097D01*
X046344Y004096D01*
X046345Y004093D01*
X046347Y004091D01*
X046349Y004087D01*
X046353Y004079D01*
X046358Y004069D01*
X046364Y004058D01*
X046368Y004045D01*
X046372Y004030D01*
Y004030D01*
X046373Y004028D01*
X046373Y004026D01*
X046374Y004023D01*
X046375Y004019D01*
X046376Y004015D01*
X046377Y004010D01*
X046378Y004004D01*
X046378Y003997D01*
X046379Y003990D01*
X046381Y003975D01*
X046382Y003958D01*
X046383Y003939D01*
Y003939D01*
Y003937D01*
Y003934D01*
Y003930D01*
X046382Y003925D01*
Y003919D01*
X046382Y003912D01*
X046381Y003905D01*
X046379Y003890D01*
X046377Y003873D01*
X046373Y003856D01*
X046369Y003840D01*
Y003839D01*
X046368Y003838D01*
X046367Y003836D01*
X046366Y003832D01*
X046365Y003829D01*
X046364Y003825D01*
X046359Y003816D01*
X046354Y003805D01*
X046348Y003793D01*
X046340Y003781D01*
X046332Y003770D01*
Y003770D01*
X046331Y003769D01*
X046328Y003766D01*
X046323Y003761D01*
X046317Y003755D01*
X046308Y003748D01*
X046300Y003742D01*
X046289Y003735D01*
X046278Y003730D01*
X046277D01*
X046276Y003729D01*
X046275Y003729D01*
X046272Y003728D01*
X046270Y003727D01*
X046266Y003725D01*
X046258Y003723D01*
X046248Y003721D01*
X046237Y003719D01*
X046225Y003717D01*
X046212Y003717D01*
X046205D01*
X046202Y003717D01*
X046198D01*
X046188Y003718D01*
X046177Y003721D01*
X046165Y003723D01*
X046152Y003727D01*
X046140Y003731D01*
X046140D01*
X046139Y003732D01*
X046138Y003733D01*
X046135Y003734D01*
X046129Y003737D01*
X046122Y003742D01*
X046115Y003748D01*
X046106Y003756D01*
X046098Y003765D01*
X046090Y003775D01*
Y003775D01*
X046088Y003776D01*
X046088Y003777D01*
X046086Y003779D01*
X046085Y003782D01*
X046083Y003785D01*
X046079Y003794D01*
X046074Y003804D01*
X046069Y003816D01*
X046064Y003829D01*
X046060Y003843D01*
Y003844D01*
X046059Y003845D01*
X046059Y003847D01*
X046058Y003850D01*
X046058Y003854D01*
X046057Y003859D01*
X046056Y003864D01*
X046055Y003870D01*
X046054Y003876D01*
X046053Y003883D01*
X046052Y003899D01*
X046051Y003916D01*
X046050Y003935D01*
Y003935D01*
Y003937D01*
Y003940D01*
Y003944D01*
X046051Y003949D01*
Y003955D01*
X046051Y003961D01*
X046052Y003968D01*
X046053Y003984D01*
X046056Y004001D01*
X046059Y004017D01*
X046063Y004033D01*
Y004034D01*
X046064Y004035D01*
X046065Y004037D01*
X046066Y004040D01*
X046067Y004044D01*
X046069Y004048D01*
X046073Y004058D01*
X046078Y004069D01*
X046085Y004080D01*
X046092Y004092D01*
X046100Y004103D01*
X046100Y004103D01*
X046101Y004104D01*
X046104Y004107D01*
X046109Y004112D01*
X046115Y004119D01*
X046123Y004125D01*
X046132Y004132D01*
X046142Y004138D01*
X046153Y004144D01*
X046154D01*
X046155Y004144D01*
X046157Y004145D01*
X046159Y004146D01*
X046162Y004147D01*
X046165Y004148D01*
X046173Y004151D01*
X046183Y004153D01*
X046194Y004155D01*
X046206Y004157D01*
X046219Y004157D01*
X046226D01*
X046229Y004157D01*
D02*
G37*
G36*
X044015Y004157D02*
X044019D01*
X044029Y004156D01*
X044040Y004153D01*
X044052Y004151D01*
X044064Y004147D01*
X044076Y004142D01*
X044077D01*
X044078Y004141D01*
X044079Y004140D01*
X044081Y004139D01*
X044087Y004135D01*
X044094Y004131D01*
X044102Y004125D01*
X044111Y004117D01*
X044119Y004108D01*
X044127Y004098D01*
Y004098D01*
X044128Y004097D01*
X044129Y004096D01*
X044130Y004093D01*
X044132Y004091D01*
X044134Y004087D01*
X044139Y004079D01*
X044144Y004069D01*
X044149Y004058D01*
X044153Y004045D01*
X044158Y004030D01*
Y004030D01*
X044158Y004028D01*
X044159Y004026D01*
X044159Y004023D01*
X044160Y004019D01*
X044161Y004015D01*
X044162Y004010D01*
X044163Y004004D01*
X044164Y003997D01*
X044165Y003990D01*
X044166Y003975D01*
X044168Y003958D01*
X044168Y003939D01*
Y003939D01*
Y003937D01*
Y003934D01*
Y003930D01*
X044168Y003925D01*
Y003919D01*
X044167Y003912D01*
X044166Y003905D01*
X044165Y003890D01*
X044162Y003873D01*
X044159Y003856D01*
X044154Y003840D01*
Y003839D01*
X044154Y003838D01*
X044153Y003836D01*
X044152Y003832D01*
X044151Y003829D01*
X044149Y003825D01*
X044145Y003816D01*
X044139Y003805D01*
X044133Y003793D01*
X044126Y003781D01*
X044117Y003770D01*
Y003770D01*
X044116Y003769D01*
X044114Y003766D01*
X044109Y003761D01*
X044102Y003755D01*
X044094Y003748D01*
X044085Y003742D01*
X044075Y003735D01*
X044063Y003730D01*
X044063D01*
X044062Y003729D01*
X044060Y003729D01*
X044058Y003728D01*
X044055Y003727D01*
X044052Y003725D01*
X044044Y003723D01*
X044034Y003721D01*
X044022Y003719D01*
X044010Y003717D01*
X043998Y003717D01*
X043991D01*
X043987Y003717D01*
X043983D01*
X043973Y003718D01*
X043962Y003721D01*
X043950Y003723D01*
X043938Y003727D01*
X043926Y003731D01*
X043925D01*
X043925Y003732D01*
X043923Y003733D01*
X043921Y003734D01*
X043915Y003737D01*
X043908Y003742D01*
X043900Y003748D01*
X043891Y003756D01*
X043883Y003765D01*
X043875Y003775D01*
Y003775D01*
X043874Y003776D01*
X043873Y003777D01*
X043872Y003779D01*
X043870Y003782D01*
X043868Y003785D01*
X043864Y003794D01*
X043859Y003804D01*
X043854Y003816D01*
X043850Y003829D01*
X043845Y003843D01*
Y003844D01*
X043845Y003845D01*
X043844Y003847D01*
X043844Y003850D01*
X043843Y003854D01*
X043842Y003859D01*
X043842Y003864D01*
X043841Y003870D01*
X043839Y003876D01*
X043839Y003883D01*
X043837Y003899D01*
X043836Y003916D01*
X043836Y003935D01*
Y003935D01*
Y003937D01*
Y003940D01*
Y003944D01*
X043836Y003949D01*
Y003955D01*
X043837Y003961D01*
X043837Y003968D01*
X043839Y003984D01*
X043841Y004001D01*
X043844Y004017D01*
X043849Y004033D01*
Y004034D01*
X043849Y004035D01*
X043850Y004037D01*
X043851Y004040D01*
X043853Y004044D01*
X043854Y004048D01*
X043859Y004058D01*
X043863Y004069D01*
X043870Y004080D01*
X043877Y004092D01*
X043885Y004103D01*
X043886Y004103D01*
X043886Y004104D01*
X043889Y004107D01*
X043894Y004112D01*
X043901Y004119D01*
X043908Y004125D01*
X043918Y004132D01*
X043928Y004138D01*
X043939Y004144D01*
X043939D01*
X043940Y004144D01*
X043942Y004145D01*
X043944Y004146D01*
X043947Y004147D01*
X043950Y004148D01*
X043958Y004151D01*
X043968Y004153D01*
X043980Y004155D01*
X043992Y004157D01*
X044004Y004157D01*
X044011D01*
X044015Y004157D01*
D02*
G37*
G36*
X043646D02*
X043650D01*
X043660Y004156D01*
X043671Y004153D01*
X043683Y004151D01*
X043695Y004147D01*
X043707Y004142D01*
X043708D01*
X043709Y004141D01*
X043710Y004140D01*
X043712Y004139D01*
X043718Y004135D01*
X043725Y004131D01*
X043733Y004125D01*
X043742Y004117D01*
X043750Y004108D01*
X043758Y004098D01*
Y004098D01*
X043759Y004097D01*
X043760Y004096D01*
X043761Y004093D01*
X043763Y004091D01*
X043765Y004087D01*
X043770Y004079D01*
X043774Y004069D01*
X043780Y004058D01*
X043784Y004045D01*
X043789Y004030D01*
Y004030D01*
X043789Y004028D01*
X043790Y004026D01*
X043790Y004023D01*
X043791Y004019D01*
X043792Y004015D01*
X043793Y004010D01*
X043794Y004004D01*
X043795Y003997D01*
X043796Y003990D01*
X043797Y003975D01*
X043798Y003958D01*
X043799Y003939D01*
Y003939D01*
Y003937D01*
Y003934D01*
Y003930D01*
X043798Y003925D01*
Y003919D01*
X043798Y003912D01*
X043797Y003905D01*
X043796Y003890D01*
X043793Y003873D01*
X043790Y003856D01*
X043785Y003840D01*
Y003839D01*
X043785Y003838D01*
X043784Y003836D01*
X043783Y003832D01*
X043782Y003829D01*
X043780Y003825D01*
X043776Y003816D01*
X043770Y003805D01*
X043764Y003793D01*
X043756Y003781D01*
X043748Y003770D01*
Y003770D01*
X043747Y003769D01*
X043744Y003766D01*
X043740Y003761D01*
X043733Y003755D01*
X043725Y003748D01*
X043716Y003742D01*
X043706Y003735D01*
X043694Y003730D01*
X043694D01*
X043693Y003729D01*
X043691Y003729D01*
X043689Y003728D01*
X043686Y003727D01*
X043683Y003725D01*
X043675Y003723D01*
X043665Y003721D01*
X043653Y003719D01*
X043641Y003717D01*
X043629Y003717D01*
X043622D01*
X043618Y003717D01*
X043614D01*
X043604Y003718D01*
X043593Y003721D01*
X043581Y003723D01*
X043569Y003727D01*
X043557Y003731D01*
X043556D01*
X043556Y003732D01*
X043554Y003733D01*
X043552Y003734D01*
X043546Y003737D01*
X043539Y003742D01*
X043531Y003748D01*
X043522Y003756D01*
X043514Y003765D01*
X043506Y003775D01*
Y003775D01*
X043505Y003776D01*
X043504Y003777D01*
X043503Y003779D01*
X043501Y003782D01*
X043499Y003785D01*
X043495Y003794D01*
X043490Y003804D01*
X043485Y003816D01*
X043481Y003829D01*
X043476Y003843D01*
Y003844D01*
X043476Y003845D01*
X043475Y003847D01*
X043475Y003850D01*
X043474Y003854D01*
X043473Y003859D01*
X043473Y003864D01*
X043471Y003870D01*
X043470Y003876D01*
X043470Y003883D01*
X043468Y003899D01*
X043467Y003916D01*
X043467Y003935D01*
Y003935D01*
Y003937D01*
Y003940D01*
Y003944D01*
X043467Y003949D01*
Y003955D01*
X043468Y003961D01*
X043468Y003968D01*
X043470Y003984D01*
X043472Y004001D01*
X043475Y004017D01*
X043480Y004033D01*
Y004034D01*
X043480Y004035D01*
X043481Y004037D01*
X043482Y004040D01*
X043483Y004044D01*
X043485Y004048D01*
X043489Y004058D01*
X043494Y004069D01*
X043501Y004080D01*
X043508Y004092D01*
X043516Y004103D01*
X043517Y004103D01*
X043517Y004104D01*
X043520Y004107D01*
X043525Y004112D01*
X043531Y004119D01*
X043539Y004125D01*
X043548Y004132D01*
X043559Y004138D01*
X043570Y004144D01*
X043570D01*
X043571Y004144D01*
X043573Y004145D01*
X043575Y004146D01*
X043578Y004147D01*
X043581Y004148D01*
X043589Y004151D01*
X043599Y004153D01*
X043611Y004155D01*
X043623Y004157D01*
X043635Y004157D01*
X043642D01*
X043646Y004157D01*
D02*
G37*
G36*
X048831Y023842D02*
X048840Y023841D01*
X048842D01*
X048845Y023841D01*
X048848D01*
X048852Y023840D01*
X048856Y023840D01*
X048865Y023838D01*
X048866D01*
X048868Y023837D01*
X048870D01*
X048874Y023837D01*
X048877Y023836D01*
X048882Y023835D01*
X048891Y023834D01*
X048892D01*
X048893Y023833D01*
X048896D01*
X048899Y023833D01*
X048907Y023831D01*
X048915Y023829D01*
Y023777D01*
X048914D01*
X048914Y023777D01*
X048911Y023778D01*
X048906Y023780D01*
X048899Y023781D01*
X048892Y023783D01*
X048883Y023784D01*
X048874Y023786D01*
X048864Y023788D01*
X048863D01*
X048860Y023788D01*
X048855Y023789D01*
X048849Y023790D01*
X048841Y023790D01*
X048833Y023791D01*
X048815Y023792D01*
X048807D01*
X048803Y023791D01*
X048798Y023790D01*
X048787Y023789D01*
X048775Y023787D01*
X048763Y023784D01*
X048751Y023780D01*
X048746Y023777D01*
X048741Y023775D01*
X048740Y023774D01*
X048738Y023771D01*
X048734Y023768D01*
X048730Y023763D01*
X048726Y023756D01*
X048722Y023748D01*
X048719Y023740D01*
X048718Y023735D01*
X048718Y023730D01*
Y023729D01*
Y023727D01*
X048718Y023724D01*
X048719Y023720D01*
X048720Y023715D01*
X048722Y023710D01*
X048724Y023705D01*
X048727Y023700D01*
X048728Y023699D01*
X048729Y023698D01*
X048731Y023695D01*
X048734Y023692D01*
X048738Y023689D01*
X048742Y023685D01*
X048747Y023681D01*
X048753Y023677D01*
X048753Y023677D01*
X048756Y023676D01*
X048759Y023674D01*
X048763Y023671D01*
X048769Y023669D01*
X048775Y023666D01*
X048782Y023663D01*
X048789Y023659D01*
X048790Y023659D01*
X048792Y023658D01*
X048797Y023657D01*
X048801Y023655D01*
X048808Y023652D01*
X048815Y023649D01*
X048830Y023643D01*
X048831Y023643D01*
X048834Y023641D01*
X048838Y023640D01*
X048843Y023638D01*
X048849Y023635D01*
X048856Y023632D01*
X048871Y023624D01*
X048872Y023624D01*
X048874Y023623D01*
X048878Y023621D01*
X048883Y023617D01*
X048888Y023614D01*
X048894Y023610D01*
X048907Y023600D01*
X048907Y023599D01*
X048910Y023598D01*
X048912Y023594D01*
X048916Y023591D01*
X048920Y023586D01*
X048924Y023581D01*
X048929Y023574D01*
X048933Y023568D01*
X048933Y023567D01*
X048934Y023564D01*
X048936Y023561D01*
X048937Y023555D01*
X048939Y023549D01*
X048941Y023542D01*
X048942Y023533D01*
X048942Y023523D01*
Y023523D01*
Y023522D01*
Y023521D01*
Y023519D01*
X048942Y023513D01*
X048941Y023505D01*
X048939Y023497D01*
X048937Y023488D01*
X048934Y023479D01*
X048930Y023470D01*
X048929Y023469D01*
X048928Y023466D01*
X048925Y023462D01*
X048921Y023457D01*
X048916Y023450D01*
X048910Y023444D01*
X048903Y023438D01*
X048895Y023432D01*
X048894Y023431D01*
X048891Y023429D01*
X048886Y023426D01*
X048880Y023423D01*
X048872Y023419D01*
X048863Y023416D01*
X048852Y023412D01*
X048841Y023409D01*
X048840D01*
X048839Y023408D01*
X048838D01*
X048835Y023408D01*
X048833Y023407D01*
X048829Y023407D01*
X048821Y023406D01*
X048810Y023404D01*
X048799Y023403D01*
X048786Y023402D01*
X048772Y023402D01*
X048762D01*
X048756Y023402D01*
X048751D01*
X048738Y023403D01*
X048735D01*
X048732Y023404D01*
X048728Y023404D01*
X048723D01*
X048717Y023405D01*
X048705Y023407D01*
X048705D01*
X048703Y023407D01*
X048700D01*
X048696Y023408D01*
X048691Y023408D01*
X048686Y023409D01*
X048676Y023410D01*
X048675D01*
X048674Y023411D01*
X048671Y023412D01*
X048668Y023412D01*
X048660Y023414D01*
X048651Y023416D01*
Y023473D01*
X048652D01*
X048652Y023472D01*
X048656Y023471D01*
X048661Y023469D01*
X048668Y023467D01*
X048675Y023465D01*
X048685Y023462D01*
X048696Y023460D01*
X048706Y023458D01*
X048708D01*
X048710Y023457D01*
X048712D01*
X048715Y023457D01*
X048718Y023456D01*
X048727Y023456D01*
X048737Y023455D01*
X048749Y023454D01*
X048762Y023453D01*
X048786D01*
X048793Y023454D01*
X048800Y023454D01*
X048808Y023455D01*
X048816Y023456D01*
X048824Y023457D01*
X048825D01*
X048827Y023459D01*
X048831Y023459D01*
X048835Y023461D01*
X048841Y023462D01*
X048846Y023465D01*
X048852Y023467D01*
X048857Y023471D01*
X048857Y023471D01*
X048859Y023472D01*
X048861Y023474D01*
X048864Y023477D01*
X048866Y023480D01*
X048870Y023483D01*
X048872Y023487D01*
X048875Y023492D01*
X048876Y023492D01*
X048876Y023494D01*
X048877Y023497D01*
X048878Y023500D01*
X048880Y023504D01*
X048880Y023509D01*
X048881Y023514D01*
Y023520D01*
Y023521D01*
Y023523D01*
X048881Y023526D01*
X048880Y023531D01*
X048879Y023535D01*
X048877Y023540D01*
X048875Y023545D01*
X048871Y023550D01*
X048871Y023550D01*
X048870Y023552D01*
X048868Y023554D01*
X048864Y023557D01*
X048861Y023561D01*
X048857Y023564D01*
X048851Y023568D01*
X048846Y023572D01*
X048845Y023572D01*
X048843Y023573D01*
X048840Y023575D01*
X048835Y023578D01*
X048830Y023580D01*
X048824Y023584D01*
X048817Y023586D01*
X048810Y023590D01*
X048809Y023590D01*
X048806Y023591D01*
X048802Y023593D01*
X048797Y023594D01*
X048791Y023597D01*
X048784Y023600D01*
X048769Y023606D01*
X048768Y023606D01*
X048765Y023608D01*
X048761Y023609D01*
X048756Y023611D01*
X048750Y023614D01*
X048743Y023617D01*
X048728Y023624D01*
X048727Y023625D01*
X048724Y023626D01*
X048721Y023628D01*
X048716Y023632D01*
X048710Y023635D01*
X048704Y023639D01*
X048692Y023649D01*
X048691Y023649D01*
X048689Y023651D01*
X048686Y023654D01*
X048682Y023658D01*
X048679Y023662D01*
X048674Y023668D01*
X048670Y023674D01*
X048666Y023680D01*
X048666Y023681D01*
X048664Y023683D01*
X048663Y023687D01*
X048662Y023693D01*
X048660Y023699D01*
X048658Y023706D01*
X048657Y023715D01*
X048657Y023724D01*
Y023725D01*
Y023728D01*
X048657Y023732D01*
X048658Y023738D01*
X048659Y023744D01*
X048661Y023751D01*
X048663Y023759D01*
X048666Y023767D01*
X048666Y023768D01*
X048667Y023771D01*
X048669Y023775D01*
X048673Y023780D01*
X048676Y023786D01*
X048681Y023792D01*
X048687Y023799D01*
X048694Y023805D01*
X048695Y023806D01*
X048698Y023808D01*
X048702Y023811D01*
X048708Y023815D01*
X048715Y023819D01*
X048723Y023823D01*
X048733Y023828D01*
X048744Y023832D01*
X048745D01*
X048746Y023833D01*
X048747Y023833D01*
X048750Y023834D01*
X048752Y023834D01*
X048756Y023835D01*
X048760Y023836D01*
X048765Y023837D01*
X048775Y023839D01*
X048788Y023841D01*
X048801Y023842D01*
X048817Y023842D01*
X048827D01*
X048831Y023842D01*
D02*
G37*
G36*
X047012D02*
X047020Y023841D01*
X047030Y023840D01*
X047049Y023837D01*
X047050D01*
X047054Y023836D01*
X047059Y023835D01*
X047066Y023833D01*
X047073Y023831D01*
X047082Y023828D01*
X047090Y023825D01*
X047100Y023821D01*
Y023763D01*
X047099Y023764D01*
X047095Y023765D01*
X047091Y023768D01*
X047084Y023770D01*
X047077Y023774D01*
X047068Y023777D01*
X047059Y023780D01*
X047050Y023783D01*
X047049Y023783D01*
X047046Y023784D01*
X047041Y023785D01*
X047034Y023787D01*
X047025Y023788D01*
X047016Y023789D01*
X047006Y023789D01*
X046995Y023790D01*
X046990D01*
X046987Y023789D01*
X046983D01*
X046975Y023788D01*
X046966Y023787D01*
X046955Y023784D01*
X046945Y023782D01*
X046935Y023777D01*
X046934D01*
X046934Y023777D01*
X046930Y023775D01*
X046925Y023772D01*
X046919Y023769D01*
X046912Y023764D01*
X046905Y023758D01*
X046897Y023751D01*
X046890Y023743D01*
X046889Y023742D01*
X046887Y023739D01*
X046884Y023734D01*
X046880Y023728D01*
X046875Y023721D01*
X046871Y023711D01*
X046866Y023701D01*
X046862Y023690D01*
Y023689D01*
X046862Y023688D01*
X046861Y023687D01*
X046860Y023685D01*
X046860Y023682D01*
X046859Y023678D01*
X046858Y023670D01*
X046856Y023659D01*
X046854Y023647D01*
X046853Y023635D01*
X046853Y023621D01*
Y023620D01*
Y023619D01*
Y023617D01*
Y023614D01*
Y023611D01*
X046853Y023606D01*
X046854Y023597D01*
X046854Y023586D01*
X046856Y023574D01*
X046858Y023562D01*
X046860Y023550D01*
Y023550D01*
X046861Y023549D01*
X046862Y023548D01*
X046862Y023545D01*
X046864Y023539D01*
X046866Y023532D01*
X046870Y023523D01*
X046874Y023515D01*
X046879Y023506D01*
X046884Y023497D01*
X046885Y023496D01*
X046888Y023494D01*
X046891Y023490D01*
X046896Y023485D01*
X046902Y023480D01*
X046910Y023474D01*
X046918Y023469D01*
X046928Y023465D01*
X046928D01*
X046929Y023464D01*
X046930Y023463D01*
X046933Y023463D01*
X046938Y023461D01*
X046945Y023459D01*
X046954Y023457D01*
X046965Y023455D01*
X046977Y023454D01*
X046990Y023453D01*
X046999D01*
X047003Y023454D01*
X047005D01*
X047008Y023454D01*
X047012Y023455D01*
X047018Y023455D01*
X047019D01*
X047022Y023456D01*
X047026Y023457D01*
X047031Y023458D01*
X047032D01*
X047032Y023459D01*
X047036Y023459D01*
X047040Y023460D01*
X047044Y023462D01*
Y023599D01*
X046957D01*
Y023647D01*
X047102D01*
Y023427D01*
X047101D01*
X047100Y023426D01*
X047097Y023425D01*
X047093Y023424D01*
X047089Y023422D01*
X047084Y023420D01*
X047073Y023416D01*
X047072D01*
X047070Y023416D01*
X047067Y023415D01*
X047064Y023414D01*
X047059Y023412D01*
X047054Y023411D01*
X047042Y023408D01*
X047042D01*
X047040Y023408D01*
X047037Y023407D01*
X047033Y023407D01*
X047028Y023406D01*
X047023Y023406D01*
X047012Y023404D01*
X047011D01*
X047009Y023403D01*
X047006D01*
X047002Y023403D01*
X046997Y023402D01*
X046993D01*
X046982Y023402D01*
X046975D01*
X046970Y023402D01*
X046966D01*
X046961Y023403D01*
X046955Y023403D01*
X046943Y023405D01*
X046930Y023408D01*
X046916Y023411D01*
X046902Y023415D01*
X046902D01*
X046901Y023416D01*
X046899Y023417D01*
X046896Y023418D01*
X046894Y023419D01*
X046890Y023421D01*
X046882Y023426D01*
X046872Y023431D01*
X046863Y023438D01*
X046852Y023447D01*
X046842Y023456D01*
Y023456D01*
X046841Y023457D01*
X046840Y023459D01*
X046839Y023461D01*
X046836Y023463D01*
X046834Y023467D01*
X046829Y023474D01*
X046822Y023484D01*
X046816Y023496D01*
X046810Y023509D01*
X046805Y023523D01*
Y023524D01*
X046804Y023525D01*
X046804Y023527D01*
X046803Y023531D01*
X046801Y023534D01*
X046800Y023539D01*
X046799Y023544D01*
X046798Y023550D01*
X046797Y023557D01*
X046796Y023564D01*
X046794Y023580D01*
X046792Y023598D01*
X046792Y023617D01*
Y023617D01*
Y023619D01*
Y023622D01*
Y023626D01*
X046792Y023631D01*
Y023636D01*
X046793Y023642D01*
X046793Y023649D01*
X046795Y023663D01*
X046798Y023679D01*
X046801Y023695D01*
X046806Y023711D01*
Y023712D01*
X046807Y023713D01*
X046808Y023715D01*
X046809Y023718D01*
X046811Y023722D01*
X046812Y023726D01*
X046817Y023736D01*
X046823Y023747D01*
X046830Y023759D01*
X046838Y023771D01*
X046847Y023782D01*
X046848Y023783D01*
X046848Y023783D01*
X046850Y023785D01*
X046852Y023787D01*
X046858Y023793D01*
X046865Y023799D01*
X046875Y023806D01*
X046886Y023813D01*
X046898Y023821D01*
X046912Y023827D01*
X046912D01*
X046913Y023828D01*
X046916Y023829D01*
X046918Y023829D01*
X046922Y023831D01*
X046926Y023832D01*
X046931Y023833D01*
X046936Y023835D01*
X046948Y023837D01*
X046963Y023840D01*
X046978Y023842D01*
X046995Y023842D01*
X047005D01*
X047012Y023842D01*
D02*
G37*
G36*
X042952Y023842D02*
X042960Y023841D01*
X042970Y023840D01*
X042989Y023837D01*
X042990D01*
X042994Y023836D01*
X042999Y023835D01*
X043006Y023833D01*
X043013Y023831D01*
X043022Y023828D01*
X043030Y023825D01*
X043040Y023821D01*
Y023763D01*
X043038Y023764D01*
X043035Y023765D01*
X043031Y023768D01*
X043024Y023770D01*
X043017Y023774D01*
X043008Y023777D01*
X042999Y023780D01*
X042990Y023783D01*
X042989Y023783D01*
X042985Y023784D01*
X042981Y023785D01*
X042973Y023787D01*
X042965Y023788D01*
X042956Y023789D01*
X042946Y023789D01*
X042935Y023790D01*
X042930D01*
X042927Y023789D01*
X042923D01*
X042915Y023788D01*
X042906Y023787D01*
X042895Y023784D01*
X042885Y023782D01*
X042875Y023777D01*
X042874D01*
X042874Y023777D01*
X042870Y023775D01*
X042865Y023772D01*
X042859Y023769D01*
X042852Y023764D01*
X042845Y023758D01*
X042837Y023751D01*
X042830Y023743D01*
X042829Y023742D01*
X042827Y023739D01*
X042824Y023734D01*
X042819Y023728D01*
X042815Y023721D01*
X042811Y023711D01*
X042806Y023701D01*
X042802Y023690D01*
Y023689D01*
X042801Y023688D01*
X042801Y023687D01*
X042800Y023685D01*
X042800Y023682D01*
X042799Y023678D01*
X042798Y023670D01*
X042795Y023659D01*
X042794Y023647D01*
X042793Y023635D01*
X042793Y023621D01*
Y023620D01*
Y023619D01*
Y023617D01*
Y023614D01*
Y023611D01*
X042793Y023606D01*
X042794Y023597D01*
X042794Y023586D01*
X042796Y023574D01*
X042798Y023562D01*
X042800Y023550D01*
Y023550D01*
X042801Y023549D01*
X042801Y023548D01*
X042802Y023545D01*
X042804Y023539D01*
X042806Y023532D01*
X042810Y023523D01*
X042814Y023515D01*
X042819Y023506D01*
X042824Y023497D01*
X042825Y023496D01*
X042828Y023494D01*
X042831Y023490D01*
X042836Y023485D01*
X042842Y023480D01*
X042850Y023474D01*
X042858Y023469D01*
X042868Y023465D01*
X042868D01*
X042869Y023464D01*
X042870Y023463D01*
X042872Y023463D01*
X042878Y023461D01*
X042885Y023459D01*
X042894Y023457D01*
X042905Y023455D01*
X042917Y023454D01*
X042930Y023453D01*
X042939D01*
X042943Y023454D01*
X042945D01*
X042948Y023454D01*
X042952Y023455D01*
X042958Y023455D01*
X042959D01*
X042962Y023456D01*
X042966Y023457D01*
X042971Y023458D01*
X042972D01*
X042972Y023459D01*
X042976Y023459D01*
X042979Y023460D01*
X042984Y023462D01*
Y023599D01*
X042896D01*
Y023647D01*
X043042D01*
Y023427D01*
X043041D01*
X043040Y023426D01*
X043037Y023425D01*
X043033Y023424D01*
X043029Y023422D01*
X043024Y023420D01*
X043013Y023416D01*
X043012D01*
X043010Y023416D01*
X043007Y023415D01*
X043004Y023414D01*
X042999Y023412D01*
X042994Y023411D01*
X042982Y023408D01*
X042982D01*
X042979Y023408D01*
X042977Y023407D01*
X042973Y023407D01*
X042968Y023406D01*
X042963Y023406D01*
X042952Y023404D01*
X042951D01*
X042949Y023403D01*
X042946D01*
X042942Y023403D01*
X042937Y023402D01*
X042933D01*
X042922Y023402D01*
X042915D01*
X042910Y023402D01*
X042906D01*
X042901Y023403D01*
X042895Y023403D01*
X042883Y023405D01*
X042870Y023408D01*
X042856Y023411D01*
X042842Y023415D01*
X042842D01*
X042841Y023416D01*
X042839Y023417D01*
X042836Y023418D01*
X042834Y023419D01*
X042830Y023421D01*
X042822Y023426D01*
X042812Y023431D01*
X042803Y023438D01*
X042792Y023447D01*
X042782Y023456D01*
Y023456D01*
X042781Y023457D01*
X042780Y023459D01*
X042779Y023461D01*
X042776Y023463D01*
X042774Y023467D01*
X042769Y023474D01*
X042762Y023484D01*
X042756Y023496D01*
X042750Y023509D01*
X042745Y023523D01*
Y023524D01*
X042744Y023525D01*
X042744Y023527D01*
X042743Y023531D01*
X042741Y023534D01*
X042740Y023539D01*
X042739Y023544D01*
X042738Y023550D01*
X042737Y023557D01*
X042736Y023564D01*
X042734Y023580D01*
X042732Y023598D01*
X042732Y023617D01*
Y023617D01*
Y023619D01*
Y023622D01*
Y023626D01*
X042732Y023631D01*
Y023636D01*
X042733Y023642D01*
X042733Y023649D01*
X042735Y023663D01*
X042738Y023679D01*
X042741Y023695D01*
X042746Y023711D01*
Y023712D01*
X042747Y023713D01*
X042748Y023715D01*
X042749Y023718D01*
X042751Y023722D01*
X042752Y023726D01*
X042757Y023736D01*
X042763Y023747D01*
X042770Y023759D01*
X042778Y023771D01*
X042787Y023782D01*
X042788Y023783D01*
X042788Y023783D01*
X042790Y023785D01*
X042792Y023787D01*
X042798Y023793D01*
X042805Y023799D01*
X042815Y023806D01*
X042826Y023813D01*
X042838Y023821D01*
X042852Y023827D01*
X042852D01*
X042853Y023828D01*
X042856Y023829D01*
X042858Y023829D01*
X042862Y023831D01*
X042866Y023832D01*
X042871Y023833D01*
X042876Y023835D01*
X042888Y023837D01*
X042902Y023840D01*
X042918Y023842D01*
X042935Y023842D01*
X042945D01*
X042952Y023842D01*
D02*
G37*
G36*
X048210Y023408D02*
X048152D01*
Y023604D01*
X047972D01*
Y023408D01*
X047914D01*
Y023836D01*
X047972D01*
Y023655D01*
X048152D01*
Y023836D01*
X048210D01*
Y023408D01*
D02*
G37*
G36*
X050422D02*
X050343D01*
X050223Y023675D01*
X050189Y023761D01*
Y023545D01*
Y023408D01*
X050130D01*
Y023836D01*
X050209D01*
X050322Y023582D01*
X050364Y023485D01*
Y023714D01*
Y023836D01*
X050422D01*
Y023408D01*
D02*
G37*
G36*
X046731D02*
X046652D01*
X046532Y023675D01*
X046498Y023761D01*
Y023545D01*
Y023408D01*
X046439D01*
Y023836D01*
X046518D01*
X046631Y023582D01*
X046673Y023485D01*
Y023714D01*
Y023836D01*
X046731D01*
Y023408D01*
D02*
G37*
G36*
X044408Y023408D02*
X044330D01*
X044187Y023836D01*
X044253D01*
X044346Y023547D01*
X044372Y023462D01*
X044399Y023547D01*
X044491Y023836D01*
X044554D01*
X044408Y023408D01*
D02*
G37*
G36*
X042563D02*
X042484D01*
X042342Y023836D01*
X042408D01*
X042500Y023547D01*
X042526Y023462D01*
X042553Y023547D01*
X042646Y023836D01*
X042708D01*
X042563Y023408D01*
D02*
G37*
G36*
X050770Y023787D02*
X050585D01*
Y023655D01*
X050763D01*
Y023605D01*
X050585D01*
Y023457D01*
X050770D01*
Y023408D01*
X050527D01*
Y023836D01*
X050770D01*
Y023787D01*
D02*
G37*
G36*
X050035D02*
X049937D01*
Y023457D01*
X050035D01*
Y023408D01*
X049779D01*
Y023457D01*
X049878D01*
Y023787D01*
X049779D01*
Y023836D01*
X050035D01*
Y023787D01*
D02*
G37*
G36*
X049489Y023457D02*
X049677D01*
Y023408D01*
X049430D01*
Y023836D01*
X049489D01*
Y023457D01*
D02*
G37*
G36*
X048559Y023787D02*
X048460D01*
Y023457D01*
X048559D01*
Y023408D01*
X048302D01*
Y023457D01*
X048401D01*
Y023787D01*
X048302D01*
Y023836D01*
X048559D01*
Y023787D01*
D02*
G37*
G36*
X047849Y023787D02*
X047722D01*
Y023408D01*
X047663D01*
Y023787D01*
X047536D01*
Y023836D01*
X047849D01*
Y023787D01*
D02*
G37*
G36*
X045798Y023457D02*
X045986D01*
Y023408D01*
X045739D01*
Y023836D01*
X045798D01*
Y023457D01*
D02*
G37*
G36*
X045659Y023408D02*
X045595D01*
X045566Y023501D01*
X045387D01*
X045357Y023408D01*
X045296D01*
X045439Y023836D01*
X045518D01*
X045659Y023408D01*
D02*
G37*
G36*
X044865Y023787D02*
X044680D01*
Y023655D01*
X044857D01*
Y023605D01*
X044680D01*
Y023457D01*
X044865D01*
Y023408D01*
X044621D01*
Y023836D01*
X044865D01*
Y023787D01*
D02*
G37*
G36*
X043262Y023836D02*
X043271Y023835D01*
X043281Y023834D01*
X043292Y023833D01*
X043303Y023830D01*
X043313Y023828D01*
X043314D01*
X043314Y023827D01*
X043317Y023826D01*
X043322Y023824D01*
X043329Y023822D01*
X043336Y023818D01*
X043343Y023815D01*
X043351Y023810D01*
X043357Y023805D01*
X043358Y023804D01*
X043360Y023802D01*
X043363Y023799D01*
X043367Y023795D01*
X043372Y023789D01*
X043375Y023783D01*
X043380Y023777D01*
X043383Y023769D01*
X043384Y023768D01*
X043384Y023765D01*
X043386Y023762D01*
X043387Y023756D01*
X043388Y023749D01*
X043390Y023741D01*
X043391Y023733D01*
X043391Y023723D01*
Y023722D01*
Y023720D01*
X043391Y023716D01*
Y023711D01*
X043390Y023705D01*
X043388Y023699D01*
X043387Y023692D01*
X043385Y023685D01*
Y023685D01*
X043384Y023682D01*
X043382Y023679D01*
X043381Y023674D01*
X043378Y023669D01*
X043375Y023664D01*
X043372Y023658D01*
X043367Y023652D01*
X043367Y023652D01*
X043365Y023650D01*
X043363Y023647D01*
X043359Y023644D01*
X043355Y023640D01*
X043350Y023636D01*
X043344Y023632D01*
X043338Y023627D01*
X043338Y023627D01*
X043335Y023626D01*
X043332Y023623D01*
X043327Y023621D01*
X043321Y023619D01*
X043315Y023616D01*
X043307Y023614D01*
X043299Y023611D01*
X043299D01*
X043302Y023610D01*
X043305Y023609D01*
X043309Y023606D01*
X043314Y023603D01*
X043320Y023600D01*
X043325Y023595D01*
X043329Y023590D01*
X043330Y023589D01*
X043332Y023587D01*
X043334Y023584D01*
X043338Y023579D01*
X043341Y023573D01*
X043346Y023566D01*
X043351Y023558D01*
X043356Y023549D01*
X043423Y023408D01*
X043357D01*
X043293Y023544D01*
X043293Y023545D01*
X043292Y023547D01*
X043291Y023550D01*
X043289Y023554D01*
X043284Y023562D01*
X043279Y023570D01*
X043278Y023571D01*
X043278Y023572D01*
X043276Y023574D01*
X043274Y023576D01*
X043268Y023582D01*
X043262Y023587D01*
X043262Y023587D01*
X043261Y023588D01*
X043259Y023589D01*
X043257Y023590D01*
X043251Y023593D01*
X043243Y023596D01*
X043243D01*
X043242Y023596D01*
X043239Y023597D01*
X043237Y023597D01*
X043233D01*
X043229Y023598D01*
X043220Y023598D01*
X043193D01*
Y023408D01*
X043135D01*
Y023836D01*
X043258D01*
X043262Y023836D01*
D02*
G37*
G36*
X046229Y023842D02*
X046234D01*
X046243Y023841D01*
X046255Y023839D01*
X046267Y023836D01*
X046279Y023832D01*
X046291Y023827D01*
X046292D01*
X046293Y023827D01*
X046294Y023825D01*
X046296Y023824D01*
X046302Y023821D01*
X046309Y023816D01*
X046317Y023810D01*
X046325Y023802D01*
X046334Y023793D01*
X046342Y023783D01*
Y023783D01*
X046343Y023782D01*
X046344Y023781D01*
X046345Y023778D01*
X046347Y023776D01*
X046349Y023772D01*
X046353Y023764D01*
X046358Y023754D01*
X046364Y023743D01*
X046368Y023730D01*
X046372Y023715D01*
Y023715D01*
X046373Y023714D01*
X046373Y023711D01*
X046374Y023708D01*
X046375Y023704D01*
X046376Y023700D01*
X046377Y023695D01*
X046378Y023689D01*
X046378Y023682D01*
X046379Y023675D01*
X046381Y023660D01*
X046382Y023643D01*
X046383Y023624D01*
Y023624D01*
Y023622D01*
Y023619D01*
Y023615D01*
X046382Y023610D01*
Y023604D01*
X046382Y023597D01*
X046381Y023590D01*
X046379Y023575D01*
X046377Y023558D01*
X046373Y023541D01*
X046369Y023525D01*
Y023524D01*
X046368Y023523D01*
X046367Y023521D01*
X046366Y023517D01*
X046365Y023514D01*
X046364Y023510D01*
X046359Y023501D01*
X046354Y023490D01*
X046348Y023478D01*
X046340Y023466D01*
X046332Y023455D01*
Y023455D01*
X046331Y023454D01*
X046328Y023451D01*
X046323Y023446D01*
X046317Y023440D01*
X046308Y023433D01*
X046300Y023427D01*
X046289Y023420D01*
X046278Y023415D01*
X046277D01*
X046276Y023414D01*
X046275Y023414D01*
X046272Y023413D01*
X046270Y023412D01*
X046266Y023410D01*
X046258Y023408D01*
X046248Y023406D01*
X046237Y023404D01*
X046225Y023402D01*
X046212Y023402D01*
X046205D01*
X046202Y023402D01*
X046198D01*
X046188Y023403D01*
X046177Y023406D01*
X046165Y023408D01*
X046152Y023412D01*
X046140Y023416D01*
X046140D01*
X046139Y023417D01*
X046138Y023418D01*
X046135Y023419D01*
X046129Y023422D01*
X046122Y023427D01*
X046115Y023433D01*
X046106Y023441D01*
X046098Y023450D01*
X046090Y023460D01*
Y023460D01*
X046088Y023461D01*
X046088Y023462D01*
X046086Y023465D01*
X046085Y023467D01*
X046083Y023471D01*
X046079Y023479D01*
X046074Y023489D01*
X046069Y023501D01*
X046064Y023514D01*
X046060Y023528D01*
Y023529D01*
X046059Y023530D01*
X046059Y023532D01*
X046058Y023536D01*
X046058Y023539D01*
X046057Y023544D01*
X046056Y023549D01*
X046055Y023555D01*
X046054Y023561D01*
X046053Y023568D01*
X046052Y023584D01*
X046051Y023601D01*
X046050Y023620D01*
Y023620D01*
Y023622D01*
Y023625D01*
Y023629D01*
X046051Y023634D01*
Y023640D01*
X046051Y023646D01*
X046052Y023653D01*
X046053Y023669D01*
X046056Y023686D01*
X046059Y023702D01*
X046063Y023718D01*
Y023719D01*
X046064Y023720D01*
X046065Y023722D01*
X046066Y023726D01*
X046067Y023729D01*
X046069Y023733D01*
X046073Y023743D01*
X046078Y023754D01*
X046085Y023765D01*
X046092Y023777D01*
X046100Y023788D01*
X046100Y023788D01*
X046101Y023789D01*
X046104Y023792D01*
X046109Y023797D01*
X046115Y023804D01*
X046123Y023810D01*
X046132Y023817D01*
X046142Y023823D01*
X046153Y023829D01*
X046154D01*
X046155Y023829D01*
X046157Y023830D01*
X046159Y023831D01*
X046162Y023832D01*
X046165Y023833D01*
X046173Y023836D01*
X046183Y023838D01*
X046194Y023840D01*
X046206Y023842D01*
X046219Y023842D01*
X046226D01*
X046229Y023842D01*
D02*
G37*
G36*
X044015Y023842D02*
X044019D01*
X044029Y023841D01*
X044040Y023839D01*
X044052Y023836D01*
X044064Y023832D01*
X044076Y023827D01*
X044077D01*
X044078Y023827D01*
X044079Y023825D01*
X044081Y023824D01*
X044087Y023821D01*
X044094Y023816D01*
X044102Y023810D01*
X044111Y023802D01*
X044119Y023793D01*
X044127Y023783D01*
Y023783D01*
X044128Y023782D01*
X044129Y023781D01*
X044130Y023778D01*
X044132Y023776D01*
X044134Y023772D01*
X044139Y023764D01*
X044144Y023754D01*
X044149Y023743D01*
X044153Y023730D01*
X044158Y023715D01*
Y023715D01*
X044158Y023714D01*
X044159Y023711D01*
X044159Y023708D01*
X044160Y023704D01*
X044161Y023700D01*
X044162Y023695D01*
X044163Y023689D01*
X044164Y023682D01*
X044165Y023675D01*
X044166Y023660D01*
X044168Y023643D01*
X044168Y023624D01*
Y023624D01*
Y023622D01*
Y023619D01*
Y023615D01*
X044168Y023610D01*
Y023604D01*
X044167Y023597D01*
X044166Y023590D01*
X044165Y023575D01*
X044162Y023558D01*
X044159Y023541D01*
X044154Y023525D01*
Y023524D01*
X044154Y023523D01*
X044153Y023521D01*
X044152Y023517D01*
X044151Y023514D01*
X044149Y023510D01*
X044145Y023501D01*
X044139Y023490D01*
X044133Y023478D01*
X044126Y023466D01*
X044117Y023455D01*
Y023455D01*
X044116Y023454D01*
X044114Y023451D01*
X044109Y023446D01*
X044102Y023440D01*
X044094Y023433D01*
X044085Y023427D01*
X044075Y023420D01*
X044063Y023415D01*
X044063D01*
X044062Y023414D01*
X044060Y023414D01*
X044058Y023413D01*
X044055Y023412D01*
X044052Y023410D01*
X044044Y023408D01*
X044034Y023406D01*
X044022Y023404D01*
X044010Y023402D01*
X043998Y023402D01*
X043991D01*
X043987Y023402D01*
X043983D01*
X043973Y023403D01*
X043962Y023406D01*
X043950Y023408D01*
X043938Y023412D01*
X043926Y023416D01*
X043925D01*
X043925Y023417D01*
X043923Y023418D01*
X043921Y023419D01*
X043915Y023422D01*
X043908Y023427D01*
X043900Y023433D01*
X043891Y023441D01*
X043883Y023450D01*
X043875Y023460D01*
Y023460D01*
X043874Y023461D01*
X043873Y023462D01*
X043872Y023465D01*
X043870Y023467D01*
X043868Y023471D01*
X043864Y023479D01*
X043859Y023489D01*
X043854Y023501D01*
X043850Y023514D01*
X043845Y023528D01*
Y023529D01*
X043845Y023530D01*
X043844Y023532D01*
X043844Y023536D01*
X043843Y023539D01*
X043842Y023544D01*
X043842Y023549D01*
X043841Y023555D01*
X043839Y023561D01*
X043839Y023568D01*
X043837Y023584D01*
X043836Y023601D01*
X043836Y023620D01*
Y023620D01*
Y023622D01*
Y023625D01*
Y023629D01*
X043836Y023634D01*
Y023640D01*
X043837Y023646D01*
X043837Y023653D01*
X043839Y023669D01*
X043841Y023686D01*
X043844Y023702D01*
X043849Y023718D01*
Y023719D01*
X043849Y023720D01*
X043850Y023722D01*
X043851Y023726D01*
X043853Y023729D01*
X043854Y023733D01*
X043859Y023743D01*
X043863Y023754D01*
X043870Y023765D01*
X043877Y023777D01*
X043885Y023788D01*
X043886Y023788D01*
X043886Y023789D01*
X043889Y023792D01*
X043894Y023797D01*
X043901Y023804D01*
X043908Y023810D01*
X043918Y023817D01*
X043928Y023823D01*
X043939Y023829D01*
X043939D01*
X043940Y023829D01*
X043942Y023830D01*
X043944Y023831D01*
X043947Y023832D01*
X043950Y023833D01*
X043958Y023836D01*
X043968Y023838D01*
X043980Y023840D01*
X043992Y023842D01*
X044004Y023842D01*
X044011D01*
X044015Y023842D01*
D02*
G37*
G36*
X043646D02*
X043650D01*
X043660Y023841D01*
X043671Y023839D01*
X043683Y023836D01*
X043695Y023832D01*
X043707Y023827D01*
X043708D01*
X043709Y023827D01*
X043710Y023825D01*
X043712Y023824D01*
X043718Y023821D01*
X043725Y023816D01*
X043733Y023810D01*
X043742Y023802D01*
X043750Y023793D01*
X043758Y023783D01*
Y023783D01*
X043759Y023782D01*
X043760Y023781D01*
X043761Y023778D01*
X043763Y023776D01*
X043765Y023772D01*
X043770Y023764D01*
X043774Y023754D01*
X043780Y023743D01*
X043784Y023730D01*
X043789Y023715D01*
Y023715D01*
X043789Y023714D01*
X043790Y023711D01*
X043790Y023708D01*
X043791Y023704D01*
X043792Y023700D01*
X043793Y023695D01*
X043794Y023689D01*
X043795Y023682D01*
X043796Y023675D01*
X043797Y023660D01*
X043798Y023643D01*
X043799Y023624D01*
Y023624D01*
Y023622D01*
Y023619D01*
Y023615D01*
X043798Y023610D01*
Y023604D01*
X043798Y023597D01*
X043797Y023590D01*
X043796Y023575D01*
X043793Y023558D01*
X043790Y023541D01*
X043785Y023525D01*
Y023524D01*
X043785Y023523D01*
X043784Y023521D01*
X043783Y023517D01*
X043782Y023514D01*
X043780Y023510D01*
X043776Y023501D01*
X043770Y023490D01*
X043764Y023478D01*
X043756Y023466D01*
X043748Y023455D01*
Y023455D01*
X043747Y023454D01*
X043744Y023451D01*
X043740Y023446D01*
X043733Y023440D01*
X043725Y023433D01*
X043716Y023427D01*
X043706Y023420D01*
X043694Y023415D01*
X043694D01*
X043693Y023414D01*
X043691Y023414D01*
X043689Y023413D01*
X043686Y023412D01*
X043683Y023410D01*
X043675Y023408D01*
X043665Y023406D01*
X043653Y023404D01*
X043641Y023402D01*
X043629Y023402D01*
X043622D01*
X043618Y023402D01*
X043614D01*
X043604Y023403D01*
X043593Y023406D01*
X043581Y023408D01*
X043569Y023412D01*
X043557Y023416D01*
X043556D01*
X043556Y023417D01*
X043554Y023418D01*
X043552Y023419D01*
X043546Y023422D01*
X043539Y023427D01*
X043531Y023433D01*
X043522Y023441D01*
X043514Y023450D01*
X043506Y023460D01*
Y023460D01*
X043505Y023461D01*
X043504Y023462D01*
X043503Y023465D01*
X043501Y023467D01*
X043499Y023471D01*
X043495Y023479D01*
X043490Y023489D01*
X043485Y023501D01*
X043481Y023514D01*
X043476Y023528D01*
Y023529D01*
X043476Y023530D01*
X043475Y023532D01*
X043475Y023536D01*
X043474Y023539D01*
X043473Y023544D01*
X043473Y023549D01*
X043471Y023555D01*
X043470Y023561D01*
X043470Y023568D01*
X043468Y023584D01*
X043467Y023601D01*
X043467Y023620D01*
Y023620D01*
Y023622D01*
Y023625D01*
Y023629D01*
X043467Y023634D01*
Y023640D01*
X043468Y023646D01*
X043468Y023653D01*
X043470Y023669D01*
X043472Y023686D01*
X043475Y023702D01*
X043480Y023718D01*
Y023719D01*
X043480Y023720D01*
X043481Y023722D01*
X043482Y023726D01*
X043483Y023729D01*
X043485Y023733D01*
X043489Y023743D01*
X043494Y023754D01*
X043501Y023765D01*
X043508Y023777D01*
X043516Y023788D01*
X043517Y023788D01*
X043517Y023789D01*
X043520Y023792D01*
X043525Y023797D01*
X043531Y023804D01*
X043539Y023810D01*
X043548Y023817D01*
X043559Y023823D01*
X043570Y023829D01*
X043570D01*
X043571Y023829D01*
X043573Y023830D01*
X043575Y023831D01*
X043578Y023832D01*
X043581Y023833D01*
X043589Y023836D01*
X043599Y023838D01*
X043611Y023840D01*
X043623Y023842D01*
X043635Y023842D01*
X043642D01*
X043646Y023842D01*
D02*
G37*
G36*
X036450Y014731D02*
X036828D01*
Y014672D01*
X036450D01*
Y014545D01*
X036400D01*
Y014858D01*
X036450D01*
Y014731D01*
D02*
G37*
G36*
X036689Y014481D02*
X036692D01*
X036701Y014480D01*
X036711Y014479D01*
X036721Y014477D01*
X036733Y014474D01*
X036744Y014471D01*
X036744D01*
X036745Y014470D01*
X036747Y014470D01*
X036749Y014469D01*
X036754Y014467D01*
X036761Y014464D01*
X036768Y014460D01*
X036776Y014455D01*
X036785Y014449D01*
X036792Y014442D01*
X036794Y014440D01*
X036796Y014438D01*
X036800Y014434D01*
X036804Y014428D01*
X036809Y014421D01*
X036814Y014414D01*
X036819Y014404D01*
X036824Y014394D01*
Y014394D01*
X036824Y014393D01*
X036825Y014391D01*
X036825Y014389D01*
X036827Y014383D01*
X036829Y014375D01*
X036831Y014366D01*
X036833Y014355D01*
X036834Y014343D01*
X036834Y014330D01*
Y014324D01*
X036834Y014320D01*
Y014316D01*
X036833Y014307D01*
X036832Y014296D01*
X036830Y014284D01*
X036827Y014273D01*
X036824Y014262D01*
Y014261D01*
X036824Y014261D01*
X036822Y014258D01*
X036820Y014252D01*
X036816Y014246D01*
X036812Y014238D01*
X036807Y014231D01*
X036801Y014224D01*
X036795Y014217D01*
X036794Y014216D01*
X036791Y014214D01*
X036787Y014211D01*
X036782Y014207D01*
X036775Y014202D01*
X036767Y014199D01*
X036759Y014194D01*
X036749Y014191D01*
X036748D01*
X036748Y014190D01*
X036746D01*
X036744Y014190D01*
X036738Y014189D01*
X036731Y014187D01*
X036722Y014185D01*
X036712Y014184D01*
X036701Y014184D01*
X036689Y014183D01*
X036400D01*
Y014242D01*
X036684D01*
X036685D01*
X036689D01*
X036693D01*
X036699Y014242D01*
X036706Y014243D01*
X036714Y014243D01*
X036721Y014244D01*
X036729Y014246D01*
X036730D01*
X036732Y014247D01*
X036735Y014248D01*
X036739Y014250D01*
X036745Y014252D01*
X036750Y014255D01*
X036755Y014258D01*
X036760Y014262D01*
X036761Y014262D01*
X036762Y014264D01*
X036765Y014266D01*
X036767Y014270D01*
X036771Y014273D01*
X036773Y014278D01*
X036777Y014284D01*
X036779Y014290D01*
Y014290D01*
X036780Y014293D01*
X036782Y014297D01*
X036783Y014302D01*
X036784Y014308D01*
X036785Y014315D01*
X036785Y014323D01*
X036786Y014332D01*
Y014336D01*
X036785Y014339D01*
X036785Y014343D01*
X036784Y014348D01*
X036783Y014358D01*
X036779Y014369D01*
X036774Y014380D01*
X036772Y014386D01*
X036768Y014391D01*
X036764Y014396D01*
X036759Y014401D01*
X036759D01*
X036758Y014402D01*
X036756Y014403D01*
X036754Y014404D01*
X036751Y014406D01*
X036748Y014408D01*
X036744Y014410D01*
X036739Y014412D01*
X036735Y014414D01*
X036729Y014416D01*
X036723Y014418D01*
X036716Y014420D01*
X036708Y014421D01*
X036701Y014422D01*
X036683Y014423D01*
X036400D01*
Y014481D01*
X036679D01*
X036680D01*
X036681D01*
X036683D01*
X036685D01*
X036689Y014481D01*
D02*
G37*
G36*
X036626Y014129D02*
X036632D01*
X036639Y014129D01*
X036646Y014128D01*
X036661Y014127D01*
X036678Y014124D01*
X036695Y014121D01*
X036712Y014116D01*
X036712D01*
X036713Y014116D01*
X036715Y014115D01*
X036719Y014113D01*
X036722Y014112D01*
X036726Y014111D01*
X036736Y014106D01*
X036747Y014101D01*
X036759Y014095D01*
X036770Y014087D01*
X036781Y014079D01*
X036782D01*
X036782Y014078D01*
X036785Y014075D01*
X036790Y014070D01*
X036796Y014064D01*
X036803Y014056D01*
X036809Y014047D01*
X036816Y014036D01*
X036821Y014025D01*
Y014024D01*
X036822Y014023D01*
X036822Y014022D01*
X036824Y014019D01*
X036825Y014017D01*
X036826Y014013D01*
X036828Y014005D01*
X036830Y013995D01*
X036832Y013984D01*
X036834Y013972D01*
X036834Y013959D01*
Y013952D01*
X036834Y013949D01*
Y013945D01*
X036833Y013935D01*
X036831Y013924D01*
X036828Y013912D01*
X036825Y013899D01*
X036820Y013887D01*
Y013887D01*
X036819Y013886D01*
X036818Y013885D01*
X036817Y013882D01*
X036814Y013876D01*
X036809Y013869D01*
X036803Y013862D01*
X036795Y013853D01*
X036786Y013845D01*
X036777Y013837D01*
X036776D01*
X036776Y013835D01*
X036774Y013835D01*
X036772Y013833D01*
X036769Y013832D01*
X036766Y013830D01*
X036758Y013826D01*
X036747Y013821D01*
X036736Y013816D01*
X036723Y013811D01*
X036708Y013807D01*
X036707D01*
X036706Y013807D01*
X036704Y013806D01*
X036701Y013805D01*
X036697Y013805D01*
X036693Y013804D01*
X036687Y013803D01*
X036681Y013802D01*
X036675Y013801D01*
X036668Y013801D01*
X036652Y013799D01*
X036635Y013798D01*
X036617Y013797D01*
X036616D01*
X036614D01*
X036611D01*
X036607D01*
X036602Y013798D01*
X036596D01*
X036590Y013798D01*
X036583Y013799D01*
X036567Y013801D01*
X036551Y013803D01*
X036534Y013806D01*
X036518Y013810D01*
X036517D01*
X036516Y013811D01*
X036514Y013812D01*
X036511Y013813D01*
X036507Y013814D01*
X036503Y013816D01*
X036493Y013820D01*
X036482Y013825D01*
X036471Y013832D01*
X036459Y013839D01*
X036448Y013847D01*
X036448Y013848D01*
X036447Y013848D01*
X036444Y013851D01*
X036439Y013856D01*
X036433Y013862D01*
X036426Y013870D01*
X036420Y013879D01*
X036413Y013890D01*
X036408Y013900D01*
Y013901D01*
X036407Y013902D01*
X036406Y013904D01*
X036405Y013906D01*
X036404Y013909D01*
X036403Y013912D01*
X036400Y013920D01*
X036398Y013930D01*
X036396Y013941D01*
X036394Y013953D01*
X036394Y013966D01*
Y013973D01*
X036394Y013976D01*
Y013981D01*
X036395Y013991D01*
X036398Y014002D01*
X036400Y014014D01*
X036404Y014026D01*
X036409Y014038D01*
Y014039D01*
X036410Y014040D01*
X036411Y014041D01*
X036412Y014043D01*
X036416Y014049D01*
X036420Y014056D01*
X036427Y014064D01*
X036434Y014072D01*
X036443Y014081D01*
X036453Y014089D01*
X036453D01*
X036454Y014090D01*
X036456Y014091D01*
X036458Y014092D01*
X036460Y014094D01*
X036464Y014096D01*
X036472Y014100D01*
X036482Y014105D01*
X036493Y014111D01*
X036506Y014115D01*
X036521Y014119D01*
X036522D01*
X036523Y014120D01*
X036525Y014121D01*
X036528Y014121D01*
X036532Y014122D01*
X036536Y014123D01*
X036541Y014124D01*
X036547Y014125D01*
X036554Y014125D01*
X036561Y014127D01*
X036576Y014128D01*
X036593Y014129D01*
X036612Y014130D01*
X036612D01*
X036614D01*
X036617D01*
X036622D01*
X036626Y014129D01*
D02*
G37*
G36*
X036450Y013624D02*
X036828D01*
Y013565D01*
X036450D01*
Y013438D01*
X036400D01*
Y013750D01*
X036450D01*
Y013624D01*
D02*
G37*
G36*
X036689Y013374D02*
X036692D01*
X036701Y013373D01*
X036711Y013371D01*
X036721Y013370D01*
X036733Y013367D01*
X036744Y013364D01*
X036744D01*
X036745Y013363D01*
X036747Y013363D01*
X036749Y013362D01*
X036754Y013359D01*
X036761Y013357D01*
X036768Y013352D01*
X036776Y013347D01*
X036785Y013341D01*
X036792Y013334D01*
X036794Y013333D01*
X036796Y013331D01*
X036800Y013327D01*
X036804Y013321D01*
X036809Y013314D01*
X036814Y013306D01*
X036819Y013297D01*
X036824Y013287D01*
Y013286D01*
X036824Y013286D01*
X036825Y013284D01*
X036825Y013282D01*
X036827Y013276D01*
X036829Y013268D01*
X036831Y013259D01*
X036833Y013248D01*
X036834Y013236D01*
X036834Y013223D01*
Y013216D01*
X036834Y013213D01*
Y013209D01*
X036833Y013199D01*
X036832Y013188D01*
X036830Y013177D01*
X036827Y013166D01*
X036824Y013155D01*
Y013154D01*
X036824Y013154D01*
X036822Y013150D01*
X036820Y013145D01*
X036816Y013139D01*
X036812Y013131D01*
X036807Y013124D01*
X036801Y013116D01*
X036795Y013109D01*
X036794Y013109D01*
X036791Y013107D01*
X036787Y013103D01*
X036782Y013099D01*
X036775Y013095D01*
X036767Y013091D01*
X036759Y013087D01*
X036749Y013084D01*
X036748D01*
X036748Y013083D01*
X036746D01*
X036744Y013083D01*
X036738Y013081D01*
X036731Y013080D01*
X036722Y013078D01*
X036712Y013077D01*
X036701Y013077D01*
X036689Y013076D01*
X036400D01*
Y013134D01*
X036684D01*
X036685D01*
X036689D01*
X036693D01*
X036699Y013135D01*
X036706Y013136D01*
X036714Y013136D01*
X036721Y013137D01*
X036729Y013139D01*
X036730D01*
X036732Y013140D01*
X036735Y013141D01*
X036739Y013143D01*
X036745Y013145D01*
X036750Y013148D01*
X036755Y013151D01*
X036760Y013155D01*
X036761Y013155D01*
X036762Y013157D01*
X036765Y013159D01*
X036767Y013162D01*
X036771Y013166D01*
X036773Y013171D01*
X036777Y013176D01*
X036779Y013182D01*
Y013183D01*
X036780Y013186D01*
X036782Y013190D01*
X036783Y013194D01*
X036784Y013201D01*
X036785Y013208D01*
X036785Y013216D01*
X036786Y013225D01*
Y013229D01*
X036785Y013232D01*
X036785Y013236D01*
X036784Y013240D01*
X036783Y013251D01*
X036779Y013262D01*
X036774Y013273D01*
X036772Y013279D01*
X036768Y013284D01*
X036764Y013289D01*
X036759Y013293D01*
X036759D01*
X036758Y013294D01*
X036756Y013296D01*
X036754Y013297D01*
X036751Y013299D01*
X036748Y013300D01*
X036744Y013303D01*
X036739Y013305D01*
X036735Y013306D01*
X036729Y013309D01*
X036723Y013311D01*
X036716Y013312D01*
X036708Y013314D01*
X036701Y013315D01*
X036683Y013316D01*
X036400D01*
Y013374D01*
X036679D01*
X036680D01*
X036681D01*
X036683D01*
X036685D01*
X036689Y013374D01*
D02*
G37*
G36*
X036813Y012997D02*
X036814Y012995D01*
X036815Y012992D01*
X036816Y012989D01*
X036818Y012984D01*
X036819Y012978D01*
X036821Y012972D01*
X036823Y012965D01*
X036825Y012956D01*
X036827Y012948D01*
X036831Y012930D01*
X036833Y012910D01*
X036834Y012889D01*
Y012885D01*
X036833Y012881D01*
X036833Y012875D01*
X036832Y012867D01*
X036831Y012858D01*
X036830Y012848D01*
X036827Y012838D01*
X036824Y012827D01*
X036821Y012816D01*
X036816Y012804D01*
X036811Y012792D01*
X036805Y012781D01*
X036798Y012770D01*
X036789Y012760D01*
X036780Y012750D01*
X036779Y012750D01*
X036777Y012748D01*
X036774Y012746D01*
X036770Y012742D01*
X036764Y012739D01*
X036757Y012735D01*
X036749Y012730D01*
X036739Y012726D01*
X036729Y012721D01*
X036717Y012717D01*
X036703Y012713D01*
X036689Y012709D01*
X036673Y012706D01*
X036656Y012704D01*
X036638Y012702D01*
X036619Y012701D01*
X036619D01*
X036617D01*
X036614D01*
X036611D01*
X036606Y012702D01*
X036601D01*
X036595Y012703D01*
X036588Y012703D01*
X036573Y012705D01*
X036558Y012707D01*
X036542Y012710D01*
X036526Y012715D01*
X036525D01*
X036524Y012715D01*
X036522Y012716D01*
X036519Y012717D01*
X036516Y012718D01*
X036511Y012720D01*
X036501Y012724D01*
X036490Y012730D01*
X036478Y012736D01*
X036467Y012744D01*
X036456Y012753D01*
X036455Y012753D01*
X036454Y012754D01*
X036453Y012756D01*
X036451Y012757D01*
X036445Y012763D01*
X036439Y012770D01*
X036432Y012778D01*
X036424Y012789D01*
X036417Y012801D01*
X036410Y012813D01*
Y012814D01*
X036410Y012815D01*
X036409Y012817D01*
X036408Y012819D01*
X036406Y012823D01*
X036405Y012827D01*
X036404Y012831D01*
X036402Y012837D01*
X036399Y012848D01*
X036397Y012862D01*
X036395Y012877D01*
X036394Y012893D01*
Y012903D01*
X036395Y012911D01*
X036395Y012919D01*
X036397Y012929D01*
X036400Y012948D01*
Y012949D01*
X036401Y012952D01*
X036402Y012957D01*
X036404Y012964D01*
X036406Y012971D01*
X036409Y012979D01*
X036415Y012997D01*
X036472D01*
X036472Y012996D01*
X036470Y012994D01*
X036468Y012989D01*
X036465Y012983D01*
X036462Y012975D01*
X036459Y012967D01*
X036456Y012958D01*
X036453Y012949D01*
X036453Y012948D01*
X036452Y012944D01*
X036451Y012940D01*
X036450Y012933D01*
X036448Y012925D01*
X036447Y012915D01*
X036447Y012906D01*
X036446Y012895D01*
Y012890D01*
X036447Y012884D01*
X036448Y012877D01*
X036449Y012868D01*
X036451Y012859D01*
X036454Y012849D01*
X036458Y012840D01*
X036458Y012839D01*
X036460Y012836D01*
X036463Y012831D01*
X036466Y012826D01*
X036471Y012819D01*
X036477Y012812D01*
X036483Y012805D01*
X036491Y012799D01*
X036492Y012798D01*
X036495Y012796D01*
X036499Y012793D01*
X036506Y012789D01*
X036513Y012785D01*
X036522Y012781D01*
X036532Y012776D01*
X036543Y012772D01*
X036544D01*
X036545Y012772D01*
X036547D01*
X036549Y012771D01*
X036552Y012770D01*
X036555Y012770D01*
X036564Y012768D01*
X036574Y012766D01*
X036586Y012765D01*
X036599Y012764D01*
X036614Y012764D01*
X036615D01*
X036618D01*
X036622D01*
X036628Y012764D01*
X036635Y012765D01*
X036642Y012765D01*
X036651Y012766D01*
X036661Y012768D01*
X036681Y012772D01*
X036691Y012775D01*
X036702Y012778D01*
X036712Y012782D01*
X036722Y012786D01*
X036731Y012791D01*
X036739Y012797D01*
X036740Y012798D01*
X036741Y012799D01*
X036743Y012801D01*
X036746Y012804D01*
X036749Y012807D01*
X036753Y012811D01*
X036756Y012816D01*
X036760Y012822D01*
X036765Y012829D01*
X036768Y012836D01*
X036772Y012844D01*
X036775Y012853D01*
X036778Y012863D01*
X036780Y012873D01*
X036781Y012884D01*
X036782Y012896D01*
Y012901D01*
X036781Y012906D01*
Y012913D01*
X036780Y012921D01*
X036779Y012930D01*
X036778Y012940D01*
X036776Y012949D01*
Y012949D01*
X036775Y012950D01*
X036774Y012953D01*
X036773Y012958D01*
X036771Y012964D01*
X036768Y012972D01*
X036765Y012980D01*
X036758Y012997D01*
X036813D01*
Y012997D01*
D02*
G37*
G36*
X003379Y014731D02*
X003758D01*
Y014672D01*
X003379D01*
Y014545D01*
X003329D01*
Y014858D01*
X003379D01*
Y014731D01*
D02*
G37*
G36*
X003618Y014481D02*
X003621D01*
X003630Y014480D01*
X003640Y014479D01*
X003651Y014477D01*
X003662Y014474D01*
X003673Y014471D01*
X003674D01*
X003674Y014470D01*
X003676Y014470D01*
X003678Y014469D01*
X003683Y014467D01*
X003690Y014464D01*
X003698Y014460D01*
X003705Y014455D01*
X003714Y014449D01*
X003722Y014442D01*
X003723Y014440D01*
X003725Y014438D01*
X003729Y014434D01*
X003733Y014428D01*
X003738Y014421D01*
X003743Y014414D01*
X003748Y014404D01*
X003753Y014394D01*
Y014394D01*
X003753Y014393D01*
X003754Y014391D01*
X003754Y014389D01*
X003756Y014383D01*
X003758Y014375D01*
X003760Y014366D01*
X003762Y014355D01*
X003763Y014343D01*
X003764Y014330D01*
Y014324D01*
X003763Y014320D01*
Y014316D01*
X003763Y014307D01*
X003761Y014296D01*
X003759Y014284D01*
X003757Y014273D01*
X003753Y014262D01*
Y014261D01*
X003753Y014261D01*
X003751Y014258D01*
X003749Y014252D01*
X003746Y014246D01*
X003741Y014238D01*
X003736Y014231D01*
X003730Y014224D01*
X003724Y014217D01*
X003723Y014216D01*
X003720Y014214D01*
X003716Y014211D01*
X003711Y014207D01*
X003704Y014202D01*
X003696Y014199D01*
X003688Y014194D01*
X003678Y014191D01*
X003677D01*
X003677Y014190D01*
X003675D01*
X003673Y014190D01*
X003668Y014189D01*
X003660Y014187D01*
X003651Y014185D01*
X003641Y014184D01*
X003630Y014184D01*
X003618Y014183D01*
X003329D01*
Y014242D01*
X003613D01*
X003615D01*
X003618D01*
X003622D01*
X003628Y014242D01*
X003635Y014243D01*
X003643Y014243D01*
X003650Y014244D01*
X003658Y014246D01*
X003659D01*
X003661Y014247D01*
X003664Y014248D01*
X003669Y014250D01*
X003674Y014252D01*
X003679Y014255D01*
X003684Y014258D01*
X003689Y014262D01*
X003690Y014262D01*
X003692Y014264D01*
X003694Y014266D01*
X003696Y014270D01*
X003700Y014273D01*
X003702Y014278D01*
X003706Y014284D01*
X003708Y014290D01*
Y014290D01*
X003710Y014293D01*
X003711Y014297D01*
X003712Y014302D01*
X003713Y014308D01*
X003714Y014315D01*
X003714Y014323D01*
X003715Y014332D01*
Y014336D01*
X003714Y014339D01*
X003714Y014343D01*
X003713Y014348D01*
X003712Y014358D01*
X003708Y014369D01*
X003704Y014380D01*
X003701Y014386D01*
X003697Y014391D01*
X003693Y014396D01*
X003688Y014401D01*
X003688D01*
X003687Y014402D01*
X003686Y014403D01*
X003683Y014404D01*
X003681Y014406D01*
X003677Y014408D01*
X003674Y014410D01*
X003669Y014412D01*
X003664Y014414D01*
X003658Y014416D01*
X003652Y014418D01*
X003645Y014420D01*
X003637Y014421D01*
X003630Y014422D01*
X003612Y014423D01*
X003329D01*
Y014481D01*
X003609D01*
X003609D01*
X003610D01*
X003612D01*
X003615D01*
X003618Y014481D01*
D02*
G37*
G36*
X003556Y014129D02*
X003562D01*
X003568Y014129D01*
X003575Y014128D01*
X003591Y014127D01*
X003607Y014124D01*
X003624Y014121D01*
X003641Y014116D01*
X003641D01*
X003642Y014116D01*
X003645Y014115D01*
X003648Y014113D01*
X003651Y014112D01*
X003656Y014111D01*
X003665Y014106D01*
X003676Y014101D01*
X003688Y014095D01*
X003699Y014087D01*
X003710Y014079D01*
X003711D01*
X003711Y014078D01*
X003714Y014075D01*
X003719Y014070D01*
X003725Y014064D01*
X003732Y014056D01*
X003738Y014047D01*
X003745Y014036D01*
X003751Y014025D01*
Y014024D01*
X003751Y014023D01*
X003752Y014022D01*
X003753Y014020D01*
X003754Y014017D01*
X003755Y014013D01*
X003757Y014005D01*
X003759Y013995D01*
X003761Y013984D01*
X003763Y013972D01*
X003764Y013959D01*
Y013952D01*
X003763Y013949D01*
Y013945D01*
X003762Y013935D01*
X003760Y013924D01*
X003758Y013912D01*
X003754Y013899D01*
X003749Y013887D01*
Y013887D01*
X003748Y013886D01*
X003747Y013885D01*
X003746Y013882D01*
X003743Y013876D01*
X003738Y013869D01*
X003732Y013862D01*
X003724Y013853D01*
X003716Y013845D01*
X003706Y013837D01*
X003705D01*
X003705Y013835D01*
X003703Y013835D01*
X003701Y013833D01*
X003698Y013832D01*
X003695Y013830D01*
X003687Y013826D01*
X003676Y013821D01*
X003665Y013816D01*
X003652Y013811D01*
X003637Y013807D01*
X003636D01*
X003635Y013807D01*
X003633Y013806D01*
X003630Y013805D01*
X003626Y013805D01*
X003622Y013804D01*
X003616Y013803D01*
X003610Y013802D01*
X003604Y013801D01*
X003597Y013801D01*
X003581Y013799D01*
X003564Y013798D01*
X003546Y013797D01*
X003545D01*
X003543D01*
X003540D01*
X003536D01*
X003531Y013798D01*
X003526D01*
X003519Y013798D01*
X003512Y013799D01*
X003497Y013801D01*
X003480Y013803D01*
X003463Y013806D01*
X003447Y013810D01*
X003446D01*
X003445Y013811D01*
X003443Y013812D01*
X003440Y013813D01*
X003437Y013814D01*
X003432Y013816D01*
X003422Y013820D01*
X003411Y013825D01*
X003400Y013832D01*
X003389Y013839D01*
X003378Y013847D01*
X003377Y013848D01*
X003377Y013848D01*
X003373Y013851D01*
X003368Y013856D01*
X003362Y013862D01*
X003355Y013870D01*
X003349Y013879D01*
X003342Y013890D01*
X003337Y013900D01*
Y013901D01*
X003336Y013902D01*
X003336Y013904D01*
X003334Y013906D01*
X003333Y013909D01*
X003332Y013912D01*
X003330Y013920D01*
X003327Y013930D01*
X003325Y013941D01*
X003324Y013953D01*
X003323Y013966D01*
Y013973D01*
X003324Y013976D01*
Y013981D01*
X003325Y013991D01*
X003327Y014002D01*
X003330Y014014D01*
X003333Y014026D01*
X003338Y014038D01*
Y014039D01*
X003339Y014040D01*
X003340Y014041D01*
X003341Y014043D01*
X003345Y014049D01*
X003349Y014056D01*
X003356Y014064D01*
X003363Y014072D01*
X003372Y014081D01*
X003382Y014089D01*
X003383D01*
X003383Y014090D01*
X003385Y014091D01*
X003387Y014092D01*
X003390Y014094D01*
X003393Y014096D01*
X003401Y014100D01*
X003411Y014105D01*
X003422Y014111D01*
X003435Y014115D01*
X003450Y014119D01*
X003451D01*
X003452Y014120D01*
X003454Y014121D01*
X003457Y014121D01*
X003461Y014122D01*
X003465Y014123D01*
X003470Y014124D01*
X003476Y014125D01*
X003483Y014125D01*
X003490Y014127D01*
X003505Y014128D01*
X003522Y014129D01*
X003541Y014130D01*
X003541D01*
X003544D01*
X003546D01*
X003551D01*
X003556Y014129D01*
D02*
G37*
G36*
X003379Y013624D02*
X003758D01*
Y013565D01*
X003379D01*
Y013438D01*
X003329D01*
Y013750D01*
X003379D01*
Y013624D01*
D02*
G37*
G36*
X003618Y013374D02*
X003621D01*
X003630Y013373D01*
X003640Y013371D01*
X003651Y013370D01*
X003662Y013367D01*
X003673Y013364D01*
X003674D01*
X003674Y013363D01*
X003676Y013363D01*
X003678Y013362D01*
X003683Y013359D01*
X003690Y013357D01*
X003698Y013352D01*
X003705Y013347D01*
X003714Y013341D01*
X003722Y013334D01*
X003723Y013333D01*
X003725Y013331D01*
X003729Y013327D01*
X003733Y013321D01*
X003738Y013314D01*
X003743Y013306D01*
X003748Y013297D01*
X003753Y013287D01*
Y013286D01*
X003753Y013286D01*
X003754Y013284D01*
X003754Y013282D01*
X003756Y013276D01*
X003758Y013268D01*
X003760Y013259D01*
X003762Y013248D01*
X003763Y013236D01*
X003764Y013223D01*
Y013216D01*
X003763Y013213D01*
Y013209D01*
X003763Y013199D01*
X003761Y013188D01*
X003759Y013177D01*
X003757Y013166D01*
X003753Y013155D01*
Y013154D01*
X003753Y013154D01*
X003751Y013150D01*
X003749Y013145D01*
X003746Y013139D01*
X003741Y013131D01*
X003736Y013124D01*
X003730Y013116D01*
X003724Y013109D01*
X003723Y013109D01*
X003720Y013107D01*
X003716Y013103D01*
X003711Y013099D01*
X003704Y013095D01*
X003696Y013091D01*
X003688Y013087D01*
X003678Y013084D01*
X003677D01*
X003677Y013083D01*
X003675D01*
X003673Y013083D01*
X003668Y013081D01*
X003660Y013080D01*
X003651Y013078D01*
X003641Y013077D01*
X003630Y013077D01*
X003618Y013076D01*
X003329D01*
Y013134D01*
X003613D01*
X003615D01*
X003618D01*
X003622D01*
X003628Y013135D01*
X003635Y013136D01*
X003643Y013136D01*
X003650Y013137D01*
X003658Y013139D01*
X003659D01*
X003661Y013140D01*
X003664Y013141D01*
X003669Y013143D01*
X003674Y013145D01*
X003679Y013148D01*
X003684Y013151D01*
X003689Y013155D01*
X003690Y013155D01*
X003692Y013157D01*
X003694Y013159D01*
X003696Y013162D01*
X003700Y013166D01*
X003702Y013171D01*
X003706Y013176D01*
X003708Y013182D01*
Y013183D01*
X003710Y013186D01*
X003711Y013190D01*
X003712Y013194D01*
X003713Y013201D01*
X003714Y013208D01*
X003714Y013216D01*
X003715Y013225D01*
Y013229D01*
X003714Y013232D01*
X003714Y013236D01*
X003713Y013240D01*
X003712Y013251D01*
X003708Y013262D01*
X003704Y013273D01*
X003701Y013279D01*
X003697Y013284D01*
X003693Y013289D01*
X003688Y013293D01*
X003688D01*
X003687Y013294D01*
X003686Y013296D01*
X003683Y013297D01*
X003681Y013299D01*
X003677Y013300D01*
X003674Y013303D01*
X003669Y013305D01*
X003664Y013306D01*
X003658Y013309D01*
X003652Y013311D01*
X003645Y013312D01*
X003637Y013314D01*
X003630Y013315D01*
X003612Y013316D01*
X003329D01*
Y013374D01*
X003609D01*
X003609D01*
X003610D01*
X003612D01*
X003615D01*
X003618Y013374D01*
D02*
G37*
G36*
X003742Y012997D02*
X003743Y012995D01*
X003744Y012992D01*
X003745Y012989D01*
X003747Y012984D01*
X003748Y012978D01*
X003751Y012972D01*
X003752Y012965D01*
X003754Y012956D01*
X003757Y012948D01*
X003760Y012930D01*
X003762Y012910D01*
X003763Y012889D01*
Y012885D01*
X003763Y012881D01*
X003762Y012875D01*
X003761Y012867D01*
X003760Y012858D01*
X003759Y012848D01*
X003757Y012838D01*
X003753Y012827D01*
X003750Y012816D01*
X003746Y012804D01*
X003740Y012792D01*
X003734Y012781D01*
X003727Y012770D01*
X003718Y012760D01*
X003709Y012750D01*
X003708Y012750D01*
X003706Y012748D01*
X003703Y012746D01*
X003699Y012742D01*
X003693Y012739D01*
X003686Y012735D01*
X003678Y012730D01*
X003669Y012726D01*
X003658Y012721D01*
X003646Y012717D01*
X003633Y012713D01*
X003618Y012709D01*
X003603Y012706D01*
X003586Y012704D01*
X003568Y012702D01*
X003548Y012701D01*
X003548D01*
X003546D01*
X003544D01*
X003540D01*
X003535Y012702D01*
X003530D01*
X003524Y012703D01*
X003517Y012703D01*
X003503Y012705D01*
X003487Y012707D01*
X003471Y012710D01*
X003455Y012715D01*
X003455D01*
X003453Y012715D01*
X003451Y012716D01*
X003448Y012717D01*
X003445Y012718D01*
X003440Y012720D01*
X003431Y012724D01*
X003420Y012730D01*
X003408Y012736D01*
X003396Y012744D01*
X003385Y012753D01*
X003384Y012753D01*
X003384Y012754D01*
X003382Y012756D01*
X003380Y012757D01*
X003374Y012763D01*
X003368Y012770D01*
X003361Y012778D01*
X003353Y012789D01*
X003346Y012801D01*
X003339Y012813D01*
Y012814D01*
X003339Y012815D01*
X003338Y012817D01*
X003337Y012819D01*
X003336Y012823D01*
X003334Y012827D01*
X003333Y012831D01*
X003331Y012837D01*
X003328Y012848D01*
X003326Y012862D01*
X003324Y012877D01*
X003324Y012893D01*
Y012903D01*
X003324Y012911D01*
X003325Y012919D01*
X003326Y012929D01*
X003329Y012948D01*
Y012949D01*
X003330Y012952D01*
X003331Y012957D01*
X003333Y012964D01*
X003335Y012971D01*
X003338Y012979D01*
X003344Y012997D01*
X003402D01*
X003401Y012996D01*
X003399Y012994D01*
X003397Y012989D01*
X003395Y012983D01*
X003391Y012975D01*
X003388Y012967D01*
X003385Y012958D01*
X003383Y012949D01*
X003382Y012948D01*
X003381Y012944D01*
X003380Y012940D01*
X003379Y012933D01*
X003378Y012925D01*
X003377Y012915D01*
X003376Y012906D01*
X003375Y012895D01*
Y012890D01*
X003376Y012884D01*
X003377Y012877D01*
X003378Y012868D01*
X003380Y012859D01*
X003383Y012849D01*
X003387Y012840D01*
X003387Y012839D01*
X003389Y012836D01*
X003392Y012831D01*
X003395Y012826D01*
X003400Y012819D01*
X003406Y012812D01*
X003413Y012805D01*
X003420Y012799D01*
X003421Y012798D01*
X003424Y012796D01*
X003428Y012793D01*
X003435Y012789D01*
X003443Y012785D01*
X003451Y012781D01*
X003461Y012776D01*
X003473Y012772D01*
X003473D01*
X003474Y012772D01*
X003476D01*
X003478Y012771D01*
X003481Y012770D01*
X003485Y012770D01*
X003493Y012768D01*
X003503Y012766D01*
X003515Y012765D01*
X003528Y012764D01*
X003543Y012764D01*
X003544D01*
X003547D01*
X003551D01*
X003557Y012764D01*
X003564Y012765D01*
X003571Y012765D01*
X003580Y012766D01*
X003590Y012768D01*
X003610Y012772D01*
X003621Y012775D01*
X003631Y012778D01*
X003641Y012782D01*
X003651Y012786D01*
X003660Y012791D01*
X003669Y012797D01*
X003669Y012798D01*
X003670Y012799D01*
X003672Y012801D01*
X003675Y012804D01*
X003678Y012807D01*
X003682Y012811D01*
X003686Y012816D01*
X003689Y012822D01*
X003694Y012829D01*
X003698Y012836D01*
X003701Y012844D01*
X003704Y012853D01*
X003707Y012863D01*
X003709Y012873D01*
X003710Y012884D01*
X003711Y012896D01*
Y012901D01*
X003710Y012906D01*
Y012913D01*
X003709Y012921D01*
X003708Y012930D01*
X003707Y012940D01*
X003705Y012949D01*
Y012949D01*
X003704Y012950D01*
X003704Y012953D01*
X003702Y012958D01*
X003700Y012964D01*
X003698Y012972D01*
X003694Y012980D01*
X003687Y012997D01*
X003742D01*
Y012997D01*
D02*
G37*
G36*
X019914Y014731D02*
X020293D01*
Y014672D01*
X019914D01*
Y014545D01*
X019864D01*
Y014858D01*
X019914D01*
Y014731D01*
D02*
G37*
G36*
X020153Y014481D02*
X020157D01*
X020165Y014480D01*
X020175Y014479D01*
X020186Y014477D01*
X020197Y014474D01*
X020208Y014471D01*
X020209D01*
X020210Y014470D01*
X020211Y014470D01*
X020213Y014469D01*
X020218Y014467D01*
X020225Y014464D01*
X020233Y014460D01*
X020241Y014455D01*
X020249Y014449D01*
X020257Y014442D01*
X020258Y014440D01*
X020260Y014438D01*
X020264Y014434D01*
X020268Y014428D01*
X020273Y014421D01*
X020279Y014414D01*
X020284Y014404D01*
X020288Y014394D01*
Y014394D01*
X020289Y014393D01*
X020289Y014391D01*
X020290Y014389D01*
X020291Y014383D01*
X020294Y014375D01*
X020296Y014366D01*
X020297Y014355D01*
X020299Y014343D01*
X020299Y014330D01*
Y014324D01*
X020299Y014320D01*
Y014316D01*
X020298Y014307D01*
X020296Y014296D01*
X020295Y014284D01*
X020292Y014273D01*
X020289Y014262D01*
Y014261D01*
X020288Y014261D01*
X020286Y014258D01*
X020284Y014252D01*
X020281Y014246D01*
X020277Y014238D01*
X020272Y014231D01*
X020266Y014224D01*
X020259Y014217D01*
X020258Y014216D01*
X020256Y014214D01*
X020252Y014211D01*
X020246Y014207D01*
X020240Y014202D01*
X020232Y014199D01*
X020223Y014194D01*
X020213Y014191D01*
X020213D01*
X020212Y014190D01*
X020211D01*
X020208Y014190D01*
X020203Y014189D01*
X020195Y014187D01*
X020187Y014185D01*
X020176Y014184D01*
X020165Y014184D01*
X020153Y014183D01*
X019864D01*
Y014242D01*
X020149D01*
X020150D01*
X020153D01*
X020158D01*
X020164Y014242D01*
X020171Y014243D01*
X020178Y014243D01*
X020185Y014244D01*
X020193Y014246D01*
X020194D01*
X020196Y014247D01*
X020200Y014248D01*
X020204Y014250D01*
X020210Y014252D01*
X020214Y014255D01*
X020220Y014258D01*
X020225Y014262D01*
X020225Y014262D01*
X020227Y014264D01*
X020229Y014266D01*
X020232Y014270D01*
X020235Y014273D01*
X020238Y014278D01*
X020241Y014284D01*
X020244Y014290D01*
Y014290D01*
X020245Y014293D01*
X020246Y014297D01*
X020247Y014302D01*
X020248Y014308D01*
X020249Y014315D01*
X020250Y014323D01*
X020250Y014332D01*
Y014336D01*
X020250Y014339D01*
X020249Y014343D01*
X020249Y014348D01*
X020247Y014358D01*
X020244Y014369D01*
X020239Y014380D01*
X020236Y014386D01*
X020232Y014391D01*
X020229Y014396D01*
X020224Y014401D01*
X020223D01*
X020223Y014402D01*
X020221Y014403D01*
X020219Y014404D01*
X020216Y014406D01*
X020213Y014408D01*
X020209Y014410D01*
X020204Y014412D01*
X020199Y014414D01*
X020193Y014416D01*
X020187Y014418D01*
X020181Y014420D01*
X020173Y014421D01*
X020165Y014422D01*
X020148Y014423D01*
X019864D01*
Y014481D01*
X020144D01*
X020145D01*
X020146D01*
X020147D01*
X020150D01*
X020153Y014481D01*
D02*
G37*
G36*
X020091Y014129D02*
X020097D01*
X020104Y014129D01*
X020111Y014128D01*
X020126Y014127D01*
X020143Y014124D01*
X020160Y014121D01*
X020176Y014116D01*
X020177D01*
X020178Y014116D01*
X020180Y014115D01*
X020183Y014113D01*
X020187Y014112D01*
X020191Y014111D01*
X020200Y014106D01*
X020211Y014101D01*
X020223Y014095D01*
X020235Y014087D01*
X020246Y014079D01*
X020246D01*
X020247Y014078D01*
X020250Y014075D01*
X020255Y014070D01*
X020261Y014064D01*
X020267Y014056D01*
X020274Y014047D01*
X020280Y014036D01*
X020286Y014025D01*
Y014024D01*
X020286Y014023D01*
X020287Y014022D01*
X020288Y014019D01*
X020289Y014017D01*
X020290Y014013D01*
X020292Y014005D01*
X020295Y013995D01*
X020297Y013984D01*
X020299Y013972D01*
X020299Y013959D01*
Y013952D01*
X020299Y013949D01*
Y013945D01*
X020297Y013935D01*
X020295Y013924D01*
X020293Y013912D01*
X020289Y013899D01*
X020284Y013887D01*
Y013887D01*
X020284Y013886D01*
X020283Y013885D01*
X020282Y013882D01*
X020278Y013876D01*
X020273Y013869D01*
X020267Y013862D01*
X020260Y013853D01*
X020251Y013845D01*
X020241Y013837D01*
X020241D01*
X020240Y013835D01*
X020238Y013835D01*
X020236Y013833D01*
X020234Y013832D01*
X020230Y013830D01*
X020222Y013826D01*
X020212Y013821D01*
X020200Y013816D01*
X020187Y013811D01*
X020172Y013807D01*
X020172D01*
X020171Y013807D01*
X020169Y013806D01*
X020165Y013805D01*
X020161Y013805D01*
X020157Y013804D01*
X020152Y013803D01*
X020146Y013802D01*
X020140Y013801D01*
X020133Y013801D01*
X020117Y013799D01*
X020100Y013798D01*
X020081Y013797D01*
X020081D01*
X020078D01*
X020076D01*
X020071D01*
X020066Y013798D01*
X020061D01*
X020054Y013798D01*
X020047Y013799D01*
X020032Y013801D01*
X020015Y013803D01*
X019999Y013806D01*
X019982Y013810D01*
X019982D01*
X019981Y013811D01*
X019979Y013812D01*
X019975Y013813D01*
X019972Y013814D01*
X019968Y013816D01*
X019958Y013820D01*
X019947Y013825D01*
X019935Y013832D01*
X019924Y013839D01*
X019913Y013847D01*
X019912Y013848D01*
X019912Y013848D01*
X019909Y013851D01*
X019904Y013856D01*
X019897Y013862D01*
X019891Y013870D01*
X019884Y013879D01*
X019878Y013890D01*
X019872Y013900D01*
Y013901D01*
X019872Y013902D01*
X019871Y013904D01*
X019870Y013906D01*
X019869Y013909D01*
X019868Y013912D01*
X019865Y013920D01*
X019863Y013930D01*
X019861Y013941D01*
X019859Y013953D01*
X019858Y013966D01*
Y013973D01*
X019859Y013976D01*
Y013981D01*
X019860Y013991D01*
X019862Y014002D01*
X019865Y014014D01*
X019869Y014026D01*
X019874Y014038D01*
Y014039D01*
X019874Y014040D01*
X019875Y014041D01*
X019876Y014043D01*
X019880Y014049D01*
X019885Y014056D01*
X019891Y014064D01*
X019899Y014072D01*
X019908Y014081D01*
X019917Y014089D01*
X019918D01*
X019918Y014090D01*
X019920Y014091D01*
X019922Y014092D01*
X019925Y014094D01*
X019928Y014096D01*
X019936Y014100D01*
X019946Y014105D01*
X019958Y014111D01*
X019971Y014115D01*
X019986Y014119D01*
X019986D01*
X019987Y014120D01*
X019989Y014121D01*
X019993Y014121D01*
X019997Y014122D01*
X020001Y014123D01*
X020006Y014124D01*
X020012Y014125D01*
X020018Y014125D01*
X020025Y014127D01*
X020041Y014128D01*
X020058Y014129D01*
X020076Y014130D01*
X020077D01*
X020079D01*
X020082D01*
X020086D01*
X020091Y014129D01*
D02*
G37*
G36*
X019914Y013624D02*
X020293D01*
Y013565D01*
X019914D01*
Y013438D01*
X019864D01*
Y013750D01*
X019914D01*
Y013624D01*
D02*
G37*
G36*
X020153Y013374D02*
X020157D01*
X020165Y013373D01*
X020175Y013371D01*
X020186Y013370D01*
X020197Y013367D01*
X020208Y013364D01*
X020209D01*
X020210Y013363D01*
X020211Y013363D01*
X020213Y013362D01*
X020218Y013359D01*
X020225Y013357D01*
X020233Y013352D01*
X020241Y013347D01*
X020249Y013341D01*
X020257Y013334D01*
X020258Y013333D01*
X020260Y013331D01*
X020264Y013327D01*
X020268Y013321D01*
X020273Y013314D01*
X020279Y013306D01*
X020284Y013297D01*
X020288Y013287D01*
Y013286D01*
X020289Y013286D01*
X020289Y013284D01*
X020290Y013282D01*
X020291Y013276D01*
X020294Y013268D01*
X020296Y013259D01*
X020297Y013248D01*
X020299Y013236D01*
X020299Y013223D01*
Y013216D01*
X020299Y013213D01*
Y013209D01*
X020298Y013199D01*
X020296Y013188D01*
X020295Y013177D01*
X020292Y013166D01*
X020289Y013155D01*
Y013154D01*
X020288Y013154D01*
X020286Y013150D01*
X020284Y013145D01*
X020281Y013139D01*
X020277Y013131D01*
X020272Y013124D01*
X020266Y013116D01*
X020259Y013109D01*
X020258Y013109D01*
X020256Y013107D01*
X020252Y013103D01*
X020246Y013099D01*
X020240Y013095D01*
X020232Y013091D01*
X020223Y013087D01*
X020213Y013084D01*
X020213D01*
X020212Y013083D01*
X020211D01*
X020208Y013083D01*
X020203Y013081D01*
X020195Y013080D01*
X020187Y013078D01*
X020176Y013077D01*
X020165Y013077D01*
X020153Y013076D01*
X019864D01*
Y013134D01*
X020149D01*
X020150D01*
X020153D01*
X020158D01*
X020164Y013135D01*
X020171Y013136D01*
X020178Y013136D01*
X020185Y013137D01*
X020193Y013139D01*
X020194D01*
X020196Y013140D01*
X020200Y013141D01*
X020204Y013143D01*
X020210Y013145D01*
X020214Y013148D01*
X020220Y013151D01*
X020225Y013155D01*
X020225Y013155D01*
X020227Y013157D01*
X020229Y013159D01*
X020232Y013162D01*
X020235Y013166D01*
X020238Y013171D01*
X020241Y013176D01*
X020244Y013182D01*
Y013183D01*
X020245Y013186D01*
X020246Y013190D01*
X020247Y013194D01*
X020248Y013201D01*
X020249Y013208D01*
X020250Y013216D01*
X020250Y013225D01*
Y013229D01*
X020250Y013232D01*
X020249Y013236D01*
X020249Y013240D01*
X020247Y013251D01*
X020244Y013262D01*
X020239Y013273D01*
X020236Y013279D01*
X020232Y013284D01*
X020229Y013289D01*
X020224Y013293D01*
X020223D01*
X020223Y013294D01*
X020221Y013296D01*
X020219Y013297D01*
X020216Y013299D01*
X020213Y013300D01*
X020209Y013303D01*
X020204Y013305D01*
X020199Y013306D01*
X020193Y013309D01*
X020187Y013311D01*
X020181Y013312D01*
X020173Y013314D01*
X020165Y013315D01*
X020148Y013316D01*
X019864D01*
Y013374D01*
X020144D01*
X020145D01*
X020146D01*
X020147D01*
X020150D01*
X020153Y013374D01*
D02*
G37*
G36*
X020277Y012997D02*
X020278Y012995D01*
X020279Y012992D01*
X020280Y012989D01*
X020282Y012984D01*
X020284Y012978D01*
X020286Y012972D01*
X020288Y012965D01*
X020290Y012956D01*
X020292Y012948D01*
X020295Y012930D01*
X020297Y012910D01*
X020299Y012889D01*
Y012885D01*
X020298Y012881D01*
X020297Y012875D01*
X020297Y012867D01*
X020296Y012858D01*
X020294Y012848D01*
X020292Y012838D01*
X020289Y012827D01*
X020285Y012816D01*
X020281Y012804D01*
X020276Y012792D01*
X020270Y012781D01*
X020262Y012770D01*
X020254Y012760D01*
X020244Y012750D01*
X020244Y012750D01*
X020242Y012748D01*
X020238Y012746D01*
X020234Y012742D01*
X020229Y012739D01*
X020222Y012735D01*
X020213Y012730D01*
X020204Y012726D01*
X020193Y012721D01*
X020181Y012717D01*
X020168Y012713D01*
X020154Y012709D01*
X020138Y012706D01*
X020121Y012704D01*
X020103Y012702D01*
X020084Y012701D01*
X020083D01*
X020082D01*
X020079D01*
X020075D01*
X020071Y012702D01*
X020065D01*
X020059Y012703D01*
X020053Y012703D01*
X020038Y012705D01*
X020023Y012707D01*
X020006Y012710D01*
X019991Y012715D01*
X019990D01*
X019989Y012715D01*
X019987Y012716D01*
X019983Y012717D01*
X019980Y012718D01*
X019976Y012720D01*
X019966Y012724D01*
X019955Y012730D01*
X019943Y012736D01*
X019932Y012744D01*
X019920Y012753D01*
X019920Y012753D01*
X019919Y012754D01*
X019917Y012756D01*
X019915Y012757D01*
X019910Y012763D01*
X019903Y012770D01*
X019896Y012778D01*
X019888Y012789D01*
X019881Y012801D01*
X019875Y012813D01*
Y012814D01*
X019874Y012815D01*
X019873Y012817D01*
X019872Y012819D01*
X019871Y012823D01*
X019870Y012827D01*
X019868Y012831D01*
X019867Y012837D01*
X019864Y012848D01*
X019861Y012862D01*
X019860Y012877D01*
X019859Y012893D01*
Y012903D01*
X019860Y012911D01*
X019860Y012919D01*
X019861Y012929D01*
X019864Y012948D01*
Y012949D01*
X019866Y012952D01*
X019867Y012957D01*
X019868Y012964D01*
X019870Y012971D01*
X019873Y012979D01*
X019880Y012997D01*
X019937D01*
X019936Y012996D01*
X019935Y012994D01*
X019933Y012989D01*
X019930Y012983D01*
X019927Y012975D01*
X019923Y012967D01*
X019921Y012958D01*
X019918Y012949D01*
X019917Y012948D01*
X019917Y012944D01*
X019916Y012940D01*
X019914Y012933D01*
X019913Y012925D01*
X019912Y012915D01*
X019911Y012906D01*
X019911Y012895D01*
Y012890D01*
X019911Y012884D01*
X019912Y012877D01*
X019914Y012868D01*
X019916Y012859D01*
X019918Y012849D01*
X019922Y012840D01*
X019923Y012839D01*
X019924Y012836D01*
X019927Y012831D01*
X019930Y012826D01*
X019935Y012819D01*
X019941Y012812D01*
X019948Y012805D01*
X019956Y012799D01*
X019957Y012798D01*
X019959Y012796D01*
X019964Y012793D01*
X019970Y012789D01*
X019978Y012785D01*
X019987Y012781D01*
X019997Y012776D01*
X020008Y012772D01*
X020009D01*
X020010Y012772D01*
X020011D01*
X020013Y012771D01*
X020016Y012770D01*
X020020Y012770D01*
X020028Y012768D01*
X020039Y012766D01*
X020051Y012765D01*
X020064Y012764D01*
X020078Y012764D01*
X020080D01*
X020082D01*
X020087D01*
X020092Y012764D01*
X020099Y012765D01*
X020107Y012765D01*
X020116Y012766D01*
X020125Y012768D01*
X020146Y012772D01*
X020156Y012775D01*
X020166Y012778D01*
X020177Y012782D01*
X020187Y012786D01*
X020196Y012791D01*
X020204Y012797D01*
X020205Y012798D01*
X020206Y012799D01*
X020208Y012801D01*
X020211Y012804D01*
X020214Y012807D01*
X020217Y012811D01*
X020221Y012816D01*
X020225Y012822D01*
X020229Y012829D01*
X020233Y012836D01*
X020236Y012844D01*
X020240Y012853D01*
X020242Y012863D01*
X020244Y012873D01*
X020246Y012884D01*
X020246Y012896D01*
Y012901D01*
X020246Y012906D01*
Y012913D01*
X020244Y012921D01*
X020243Y012930D01*
X020242Y012940D01*
X020240Y012949D01*
Y012949D01*
X020240Y012950D01*
X020239Y012953D01*
X020237Y012958D01*
X020235Y012964D01*
X020233Y012972D01*
X020230Y012980D01*
X020222Y012997D01*
X020277D01*
Y012997D01*
D02*
G37*
%LPC*%
G36*
X028530Y024185D02*
X028525D01*
X028520Y024184D01*
X028513Y024183D01*
X028506Y024181D01*
X028497Y024179D01*
X028489Y024175D01*
X028482Y024171D01*
X028481Y024171D01*
X028478Y024169D01*
X028474Y024166D01*
X028470Y024162D01*
X028465Y024156D01*
X028459Y024150D01*
X028454Y024143D01*
X028448Y024135D01*
X028448Y024134D01*
X028446Y024131D01*
X028444Y024126D01*
X028441Y024120D01*
X028438Y024112D01*
X028435Y024103D01*
X028431Y024092D01*
X028429Y024082D01*
Y024081D01*
Y024080D01*
X028428Y024078D01*
X028428Y024076D01*
X028427Y024073D01*
Y024070D01*
X028426Y024062D01*
X028425Y024052D01*
X028424Y024041D01*
X028423Y024029D01*
X028423Y024017D01*
Y024016D01*
Y024015D01*
Y024013D01*
Y024010D01*
Y024007D01*
X028423Y024003D01*
Y023994D01*
X028424Y023983D01*
X028425Y023971D01*
X028426Y023959D01*
X028429Y023947D01*
Y023946D01*
X028429Y023946D01*
Y023944D01*
X028430Y023941D01*
X028431Y023936D01*
X028433Y023928D01*
X028436Y023920D01*
X028439Y023911D01*
X028443Y023902D01*
X028447Y023893D01*
X028448Y023892D01*
X028449Y023889D01*
X028453Y023886D01*
X028456Y023881D01*
X028461Y023875D01*
X028467Y023869D01*
X028473Y023863D01*
X028481Y023858D01*
X028482Y023858D01*
X028484Y023857D01*
X028489Y023854D01*
X028495Y023852D01*
X028502Y023850D01*
X028510Y023848D01*
X028519Y023847D01*
X028530Y023846D01*
X028535D01*
X028539Y023847D01*
X028547Y023848D01*
X028554Y023849D01*
X028562Y023852D01*
X028571Y023855D01*
X028578Y023859D01*
X028579Y023860D01*
X028582Y023861D01*
X028585Y023865D01*
X028590Y023869D01*
X028596Y023874D01*
X028601Y023880D01*
X028607Y023887D01*
X028612Y023895D01*
X028613Y023896D01*
X028614Y023899D01*
X028616Y023904D01*
X028620Y023911D01*
X028622Y023918D01*
X028626Y023928D01*
X028629Y023937D01*
X028632Y023948D01*
Y023949D01*
X028632Y023950D01*
Y023952D01*
X028633Y023954D01*
X028633Y023957D01*
X028634Y023960D01*
X028635Y023968D01*
X028636Y023978D01*
X028637Y023989D01*
X028638Y024001D01*
Y024014D01*
Y024014D01*
Y024015D01*
Y024018D01*
Y024020D01*
Y024024D01*
X028638Y024027D01*
Y024037D01*
X028637Y024047D01*
X028636Y024059D01*
X028634Y024071D01*
X028632Y024083D01*
Y024083D01*
Y024084D01*
X028632Y024086D01*
X028631Y024088D01*
X028630Y024094D01*
X028628Y024101D01*
X028625Y024110D01*
X028622Y024119D01*
X028618Y024128D01*
X028613Y024137D01*
X028613Y024138D01*
X028611Y024141D01*
X028608Y024145D01*
X028604Y024150D01*
X028599Y024155D01*
X028594Y024161D01*
X028587Y024167D01*
X028579Y024172D01*
X028578Y024173D01*
X028575Y024174D01*
X028571Y024176D01*
X028566Y024179D01*
X028559Y024181D01*
X028550Y024183D01*
X028540Y024184D01*
X028530Y024185D01*
D02*
G37*
G36*
Y003712D02*
X028525D01*
X028520Y003712D01*
X028513Y003711D01*
X028506Y003709D01*
X028497Y003706D01*
X028489Y003703D01*
X028482Y003699D01*
X028481Y003698D01*
X028478Y003696D01*
X028474Y003693D01*
X028470Y003689D01*
X028465Y003684D01*
X028459Y003678D01*
X028454Y003671D01*
X028448Y003663D01*
X028448Y003662D01*
X028446Y003659D01*
X028444Y003654D01*
X028441Y003647D01*
X028438Y003640D01*
X028435Y003630D01*
X028431Y003620D01*
X028429Y003609D01*
Y003609D01*
Y003608D01*
X028428Y003606D01*
X028428Y003604D01*
X028427Y003601D01*
Y003598D01*
X028426Y003589D01*
X028425Y003580D01*
X028424Y003569D01*
X028423Y003557D01*
X028423Y003544D01*
Y003544D01*
Y003542D01*
Y003540D01*
Y003538D01*
Y003534D01*
X028423Y003530D01*
Y003521D01*
X028424Y003510D01*
X028425Y003499D01*
X028426Y003486D01*
X028429Y003474D01*
Y003474D01*
X028429Y003473D01*
Y003472D01*
X028430Y003469D01*
X028431Y003463D01*
X028433Y003456D01*
X028436Y003447D01*
X028439Y003439D01*
X028443Y003429D01*
X028447Y003421D01*
X028448Y003420D01*
X028449Y003417D01*
X028453Y003413D01*
X028456Y003408D01*
X028461Y003402D01*
X028467Y003397D01*
X028473Y003391D01*
X028481Y003386D01*
X028482Y003385D01*
X028484Y003384D01*
X028489Y003382D01*
X028495Y003380D01*
X028502Y003378D01*
X028510Y003375D01*
X028519Y003374D01*
X028530Y003374D01*
X028535D01*
X028539Y003374D01*
X028547Y003375D01*
X028554Y003377D01*
X028562Y003379D01*
X028571Y003383D01*
X028578Y003387D01*
X028579Y003387D01*
X028582Y003389D01*
X028585Y003392D01*
X028590Y003396D01*
X028596Y003402D01*
X028601Y003408D01*
X028607Y003415D01*
X028612Y003423D01*
X028613Y003424D01*
X028614Y003427D01*
X028616Y003432D01*
X028620Y003438D01*
X028622Y003446D01*
X028626Y003455D01*
X028629Y003465D01*
X028632Y003476D01*
Y003476D01*
X028632Y003478D01*
Y003479D01*
X028633Y003481D01*
X028633Y003484D01*
X028634Y003487D01*
X028635Y003496D01*
X028636Y003505D01*
X028637Y003516D01*
X028638Y003529D01*
Y003541D01*
Y003542D01*
Y003543D01*
Y003545D01*
Y003548D01*
Y003551D01*
X028638Y003555D01*
Y003564D01*
X028637Y003575D01*
X028636Y003586D01*
X028634Y003598D01*
X028632Y003610D01*
Y003611D01*
Y003612D01*
X028632Y003613D01*
X028631Y003616D01*
X028630Y003622D01*
X028628Y003629D01*
X028625Y003637D01*
X028622Y003646D01*
X028618Y003656D01*
X028613Y003664D01*
X028613Y003665D01*
X028611Y003668D01*
X028608Y003672D01*
X028604Y003677D01*
X028599Y003683D01*
X028594Y003689D01*
X028587Y003695D01*
X028579Y003700D01*
X028578Y003700D01*
X028575Y003702D01*
X028571Y003704D01*
X028566Y003706D01*
X028559Y003708D01*
X028550Y003710D01*
X028540Y003712D01*
X028530Y003712D01*
D02*
G37*
G36*
X011994Y024185D02*
X011989D01*
X011984Y024184D01*
X011978Y024183D01*
X011970Y024181D01*
X011962Y024179D01*
X011954Y024175D01*
X011946Y024171D01*
X011945Y024171D01*
X011943Y024169D01*
X011939Y024166D01*
X011935Y024162D01*
X011929Y024156D01*
X011924Y024150D01*
X011918Y024143D01*
X011913Y024135D01*
X011912Y024134D01*
X011911Y024131D01*
X011908Y024126D01*
X011906Y024120D01*
X011902Y024112D01*
X011899Y024103D01*
X011896Y024092D01*
X011893Y024082D01*
Y024081D01*
Y024080D01*
X011893Y024078D01*
X011892Y024076D01*
X011892Y024073D01*
Y024070D01*
X011890Y024062D01*
X011889Y024052D01*
X011888Y024041D01*
X011888Y024029D01*
X011887Y024017D01*
Y024016D01*
Y024015D01*
Y024013D01*
Y024010D01*
Y024007D01*
X011888Y024003D01*
Y023994D01*
X011889Y023983D01*
X011890Y023971D01*
X011891Y023959D01*
X011893Y023947D01*
Y023946D01*
X011894Y023946D01*
Y023944D01*
X011894Y023941D01*
X011896Y023936D01*
X011898Y023928D01*
X011900Y023920D01*
X011904Y023911D01*
X011907Y023902D01*
X011912Y023893D01*
X011912Y023892D01*
X011914Y023889D01*
X011917Y023886D01*
X011921Y023881D01*
X011925Y023875D01*
X011931Y023869D01*
X011938Y023863D01*
X011945Y023858D01*
X011946Y023858D01*
X011949Y023857D01*
X011953Y023854D01*
X011959Y023852D01*
X011966Y023850D01*
X011975Y023848D01*
X011984Y023847D01*
X011994Y023846D01*
X011999D01*
X012004Y023847D01*
X012011Y023848D01*
X012019Y023849D01*
X012027Y023852D01*
X012035Y023855D01*
X012043Y023859D01*
X012044Y023860D01*
X012046Y023861D01*
X012050Y023865D01*
X012055Y023869D01*
X012060Y023874D01*
X012066Y023880D01*
X012071Y023887D01*
X012077Y023895D01*
X012077Y023896D01*
X012079Y023899D01*
X012081Y023904D01*
X012084Y023911D01*
X012087Y023918D01*
X012090Y023928D01*
X012094Y023937D01*
X012096Y023948D01*
Y023949D01*
X012097Y023950D01*
Y023952D01*
X012097Y023954D01*
X012098Y023957D01*
X012098Y023960D01*
X012100Y023968D01*
X012101Y023978D01*
X012102Y023989D01*
X012103Y024001D01*
Y024014D01*
Y024014D01*
Y024015D01*
Y024018D01*
Y024020D01*
Y024024D01*
X012102Y024027D01*
Y024037D01*
X012101Y024047D01*
X012100Y024059D01*
X012099Y024071D01*
X012097Y024083D01*
Y024083D01*
Y024084D01*
X012096Y024086D01*
X012096Y024088D01*
X012094Y024094D01*
X012092Y024101D01*
X012090Y024110D01*
X012086Y024119D01*
X012082Y024128D01*
X012078Y024137D01*
X012077Y024138D01*
X012076Y024141D01*
X012072Y024145D01*
X012068Y024150D01*
X012064Y024155D01*
X012058Y024161D01*
X012052Y024167D01*
X012044Y024172D01*
X012043Y024173D01*
X012040Y024174D01*
X012036Y024176D01*
X012030Y024179D01*
X012023Y024181D01*
X012014Y024183D01*
X012005Y024184D01*
X011994Y024185D01*
D02*
G37*
G36*
X011994Y003712D02*
X011989D01*
X011984Y003712D01*
X011978Y003711D01*
X011970Y003709D01*
X011962Y003706D01*
X011954Y003703D01*
X011946Y003699D01*
X011945Y003698D01*
X011943Y003696D01*
X011939Y003693D01*
X011935Y003689D01*
X011929Y003684D01*
X011924Y003678D01*
X011918Y003671D01*
X011913Y003663D01*
X011912Y003662D01*
X011911Y003659D01*
X011908Y003654D01*
X011906Y003647D01*
X011902Y003640D01*
X011899Y003630D01*
X011896Y003620D01*
X011893Y003609D01*
Y003609D01*
Y003608D01*
X011893Y003606D01*
X011892Y003604D01*
X011892Y003601D01*
Y003598D01*
X011890Y003589D01*
X011889Y003580D01*
X011888Y003569D01*
X011888Y003557D01*
X011887Y003544D01*
Y003544D01*
Y003542D01*
Y003540D01*
Y003538D01*
Y003534D01*
X011888Y003530D01*
Y003521D01*
X011889Y003510D01*
X011890Y003499D01*
X011891Y003486D01*
X011893Y003474D01*
Y003474D01*
X011894Y003473D01*
Y003472D01*
X011894Y003469D01*
X011896Y003463D01*
X011898Y003456D01*
X011900Y003447D01*
X011904Y003439D01*
X011907Y003429D01*
X011912Y003421D01*
X011912Y003420D01*
X011914Y003417D01*
X011917Y003413D01*
X011921Y003408D01*
X011925Y003402D01*
X011931Y003397D01*
X011938Y003391D01*
X011945Y003386D01*
X011946Y003385D01*
X011949Y003384D01*
X011953Y003382D01*
X011959Y003380D01*
X011966Y003378D01*
X011975Y003375D01*
X011984Y003374D01*
X011994Y003374D01*
X011999D01*
X012004Y003374D01*
X012011Y003375D01*
X012019Y003377D01*
X012027Y003379D01*
X012035Y003383D01*
X012043Y003387D01*
X012044Y003387D01*
X012046Y003389D01*
X012050Y003392D01*
X012055Y003396D01*
X012060Y003402D01*
X012066Y003408D01*
X012071Y003415D01*
X012077Y003423D01*
X012077Y003424D01*
X012079Y003427D01*
X012081Y003432D01*
X012084Y003438D01*
X012087Y003446D01*
X012090Y003455D01*
X012094Y003465D01*
X012096Y003476D01*
Y003476D01*
X012097Y003478D01*
Y003479D01*
X012097Y003481D01*
X012098Y003484D01*
X012098Y003487D01*
X012100Y003496D01*
X012101Y003505D01*
X012102Y003516D01*
X012103Y003529D01*
Y003541D01*
Y003542D01*
Y003543D01*
Y003545D01*
Y003548D01*
Y003551D01*
X012102Y003555D01*
Y003564D01*
X012101Y003575D01*
X012100Y003586D01*
X012099Y003598D01*
X012097Y003610D01*
Y003611D01*
Y003612D01*
X012096Y003613D01*
X012096Y003616D01*
X012094Y003622D01*
X012092Y003629D01*
X012090Y003637D01*
X012086Y003646D01*
X012082Y003656D01*
X012078Y003664D01*
X012077Y003665D01*
X012076Y003668D01*
X012072Y003672D01*
X012068Y003677D01*
X012064Y003683D01*
X012058Y003689D01*
X012052Y003695D01*
X012044Y003700D01*
X012043Y003700D01*
X012040Y003702D01*
X012036Y003704D01*
X012030Y003706D01*
X012023Y003708D01*
X012014Y003710D01*
X012005Y003712D01*
X011994Y003712D01*
D02*
G37*
G36*
X045476Y004098D02*
X045403Y003868D01*
X045550D01*
X045476Y004098D01*
D02*
G37*
G36*
X043248Y004102D02*
X043193D01*
Y003960D01*
X043248D01*
X043252Y003961D01*
X043258Y003961D01*
X043264Y003962D01*
X043277Y003965D01*
X043278D01*
X043280Y003966D01*
X043283Y003967D01*
X043287Y003968D01*
X043296Y003973D01*
X043305Y003979D01*
X043305Y003979D01*
X043307Y003980D01*
X043309Y003983D01*
X043312Y003985D01*
X043315Y003989D01*
X043318Y003992D01*
X043323Y004002D01*
X043324Y004002D01*
X043325Y004004D01*
X043326Y004007D01*
X043327Y004011D01*
X043328Y004015D01*
X043329Y004021D01*
X043330Y004027D01*
Y004033D01*
Y004034D01*
Y004035D01*
Y004037D01*
X043329Y004039D01*
X043329Y004045D01*
X043327Y004052D01*
X043325Y004061D01*
X043321Y004069D01*
X043315Y004078D01*
X043308Y004085D01*
X043307Y004085D01*
X043304Y004087D01*
X043299Y004090D01*
X043293Y004093D01*
X043284Y004097D01*
X043274Y004099D01*
X043261Y004102D01*
X043248Y004102D01*
D02*
G37*
G36*
X046216Y004106D02*
X046211D01*
X046206Y004105D01*
X046199Y004104D01*
X046192Y004103D01*
X046183Y004100D01*
X046175Y004097D01*
X046168Y004092D01*
X046166Y004092D01*
X046164Y004090D01*
X046160Y004087D01*
X046156Y004083D01*
X046151Y004078D01*
X046145Y004072D01*
X046140Y004065D01*
X046134Y004056D01*
X046134Y004055D01*
X046132Y004052D01*
X046130Y004048D01*
X046127Y004041D01*
X046124Y004033D01*
X046121Y004024D01*
X046117Y004014D01*
X046115Y004003D01*
Y004002D01*
Y004002D01*
X046114Y004000D01*
X046114Y003997D01*
X046113Y003995D01*
Y003991D01*
X046112Y003983D01*
X046111Y003973D01*
X046110Y003962D01*
X046109Y003950D01*
X046109Y003938D01*
Y003937D01*
Y003936D01*
Y003934D01*
Y003931D01*
Y003928D01*
X046109Y003924D01*
Y003915D01*
X046110Y003904D01*
X046111Y003893D01*
X046112Y003880D01*
X046115Y003868D01*
Y003867D01*
X046115Y003867D01*
Y003865D01*
X046116Y003862D01*
X046117Y003857D01*
X046119Y003849D01*
X046122Y003841D01*
X046125Y003832D01*
X046129Y003823D01*
X046133Y003814D01*
X046134Y003813D01*
X046135Y003811D01*
X046139Y003807D01*
X046142Y003802D01*
X046147Y003796D01*
X046153Y003790D01*
X046159Y003784D01*
X046166Y003779D01*
X046168Y003779D01*
X046170Y003778D01*
X046175Y003776D01*
X046181Y003773D01*
X046188Y003771D01*
X046196Y003769D01*
X046205Y003768D01*
X046216Y003767D01*
X046221D01*
X046225Y003768D01*
X046233Y003769D01*
X046240Y003771D01*
X046248Y003773D01*
X046257Y003776D01*
X046264Y003781D01*
X046265Y003781D01*
X046267Y003783D01*
X046271Y003786D01*
X046276Y003790D01*
X046282Y003795D01*
X046287Y003801D01*
X046293Y003808D01*
X046298Y003817D01*
X046299Y003818D01*
X046300Y003820D01*
X046302Y003825D01*
X046306Y003832D01*
X046308Y003840D01*
X046312Y003849D01*
X046315Y003859D01*
X046318Y003870D01*
Y003870D01*
X046318Y003871D01*
Y003873D01*
X046319Y003875D01*
X046319Y003878D01*
X046320Y003881D01*
X046321Y003889D01*
X046322Y003899D01*
X046323Y003910D01*
X046324Y003923D01*
Y003935D01*
Y003936D01*
Y003937D01*
Y003939D01*
Y003942D01*
Y003945D01*
X046324Y003949D01*
Y003958D01*
X046323Y003968D01*
X046322Y003980D01*
X046320Y003992D01*
X046318Y004004D01*
Y004004D01*
Y004006D01*
X046318Y004007D01*
X046317Y004009D01*
X046316Y004015D01*
X046314Y004022D01*
X046311Y004031D01*
X046308Y004040D01*
X046304Y004049D01*
X046299Y004058D01*
X046299Y004059D01*
X046297Y004062D01*
X046294Y004066D01*
X046290Y004071D01*
X046285Y004077D01*
X046280Y004083D01*
X046273Y004089D01*
X046265Y004093D01*
X046264Y004094D01*
X046261Y004096D01*
X046257Y004097D01*
X046252Y004100D01*
X046245Y004102D01*
X046236Y004104D01*
X046226Y004105D01*
X046216Y004106D01*
D02*
G37*
G36*
X044001Y004106D02*
X043996D01*
X043991Y004105D01*
X043985Y004104D01*
X043977Y004103D01*
X043969Y004100D01*
X043961Y004097D01*
X043953Y004092D01*
X043952Y004092D01*
X043950Y004090D01*
X043946Y004087D01*
X043942Y004083D01*
X043936Y004078D01*
X043931Y004072D01*
X043925Y004065D01*
X043920Y004056D01*
X043919Y004055D01*
X043918Y004052D01*
X043915Y004048D01*
X043913Y004041D01*
X043909Y004033D01*
X043906Y004024D01*
X043903Y004014D01*
X043900Y004003D01*
Y004002D01*
Y004002D01*
X043899Y004000D01*
X043899Y003997D01*
X043898Y003995D01*
Y003991D01*
X043897Y003983D01*
X043896Y003973D01*
X043895Y003962D01*
X043895Y003950D01*
X043894Y003938D01*
Y003937D01*
Y003936D01*
Y003934D01*
Y003931D01*
Y003928D01*
X043895Y003924D01*
Y003915D01*
X043896Y003904D01*
X043897Y003893D01*
X043898Y003880D01*
X043900Y003868D01*
Y003867D01*
X043901Y003867D01*
Y003865D01*
X043901Y003862D01*
X043903Y003857D01*
X043904Y003849D01*
X043907Y003841D01*
X043910Y003832D01*
X043914Y003823D01*
X043919Y003814D01*
X043919Y003813D01*
X043921Y003811D01*
X043924Y003807D01*
X043928Y003802D01*
X043932Y003796D01*
X043938Y003790D01*
X043945Y003784D01*
X043952Y003779D01*
X043953Y003779D01*
X043956Y003778D01*
X043960Y003776D01*
X043966Y003773D01*
X043973Y003771D01*
X043981Y003769D01*
X043991Y003768D01*
X044001Y003767D01*
X044006D01*
X044011Y003768D01*
X044018Y003769D01*
X044026Y003771D01*
X044034Y003773D01*
X044042Y003776D01*
X044050Y003781D01*
X044051Y003781D01*
X044053Y003783D01*
X044057Y003786D01*
X044062Y003790D01*
X044067Y003795D01*
X044073Y003801D01*
X044078Y003808D01*
X044083Y003817D01*
X044084Y003818D01*
X044086Y003820D01*
X044088Y003825D01*
X044091Y003832D01*
X044094Y003840D01*
X044097Y003849D01*
X044100Y003859D01*
X044103Y003870D01*
Y003870D01*
X044104Y003871D01*
Y003873D01*
X044104Y003875D01*
X044105Y003878D01*
X044105Y003881D01*
X044106Y003889D01*
X044108Y003899D01*
X044109Y003910D01*
X044110Y003923D01*
Y003935D01*
Y003936D01*
Y003937D01*
Y003939D01*
Y003942D01*
Y003945D01*
X044109Y003949D01*
Y003958D01*
X044108Y003968D01*
X044107Y003980D01*
X044106Y003992D01*
X044104Y004004D01*
Y004004D01*
Y004006D01*
X044103Y004007D01*
X044103Y004009D01*
X044101Y004015D01*
X044099Y004022D01*
X044097Y004031D01*
X044093Y004040D01*
X044089Y004049D01*
X044085Y004058D01*
X044084Y004059D01*
X044082Y004062D01*
X044079Y004066D01*
X044075Y004071D01*
X044070Y004077D01*
X044065Y004083D01*
X044058Y004089D01*
X044051Y004093D01*
X044050Y004094D01*
X044047Y004096D01*
X044043Y004097D01*
X044037Y004100D01*
X044030Y004102D01*
X044021Y004104D01*
X044011Y004105D01*
X044001Y004106D01*
D02*
G37*
G36*
X043632D02*
X043627D01*
X043622Y004105D01*
X043616Y004104D01*
X043608Y004103D01*
X043600Y004100D01*
X043592Y004097D01*
X043584Y004092D01*
X043583Y004092D01*
X043581Y004090D01*
X043577Y004087D01*
X043572Y004083D01*
X043567Y004078D01*
X043562Y004072D01*
X043556Y004065D01*
X043551Y004056D01*
X043550Y004055D01*
X043548Y004052D01*
X043546Y004048D01*
X043544Y004041D01*
X043540Y004033D01*
X043537Y004024D01*
X043534Y004014D01*
X043531Y004003D01*
Y004002D01*
Y004002D01*
X043530Y004000D01*
X043530Y003997D01*
X043529Y003995D01*
Y003991D01*
X043528Y003983D01*
X043527Y003973D01*
X043526Y003962D01*
X043525Y003950D01*
X043525Y003938D01*
Y003937D01*
Y003936D01*
Y003934D01*
Y003931D01*
Y003928D01*
X043525Y003924D01*
Y003915D01*
X043527Y003904D01*
X043528Y003893D01*
X043529Y003880D01*
X043531Y003868D01*
Y003867D01*
X043531Y003867D01*
Y003865D01*
X043532Y003862D01*
X043534Y003857D01*
X043535Y003849D01*
X043538Y003841D01*
X043541Y003832D01*
X043545Y003823D01*
X043550Y003814D01*
X043550Y003813D01*
X043552Y003811D01*
X043555Y003807D01*
X043559Y003802D01*
X043563Y003796D01*
X043569Y003790D01*
X043576Y003784D01*
X043583Y003779D01*
X043584Y003779D01*
X043587Y003778D01*
X043591Y003776D01*
X043597Y003773D01*
X043604Y003771D01*
X043612Y003769D01*
X043622Y003768D01*
X043632Y003767D01*
X043637D01*
X043642Y003768D01*
X043649Y003769D01*
X043657Y003771D01*
X043665Y003773D01*
X043673Y003776D01*
X043681Y003781D01*
X043682Y003781D01*
X043684Y003783D01*
X043688Y003786D01*
X043693Y003790D01*
X043698Y003795D01*
X043703Y003801D01*
X043709Y003808D01*
X043714Y003817D01*
X043715Y003818D01*
X043717Y003820D01*
X043719Y003825D01*
X043722Y003832D01*
X043725Y003840D01*
X043728Y003849D01*
X043731Y003859D01*
X043734Y003870D01*
Y003870D01*
X043735Y003871D01*
Y003873D01*
X043735Y003875D01*
X043736Y003878D01*
X043736Y003881D01*
X043737Y003889D01*
X043738Y003899D01*
X043740Y003910D01*
X043741Y003923D01*
Y003935D01*
Y003936D01*
Y003937D01*
Y003939D01*
Y003942D01*
Y003945D01*
X043740Y003949D01*
Y003958D01*
X043739Y003968D01*
X043738Y003980D01*
X043737Y003992D01*
X043735Y004004D01*
Y004004D01*
Y004006D01*
X043734Y004007D01*
X043734Y004009D01*
X043732Y004015D01*
X043730Y004022D01*
X043727Y004031D01*
X043724Y004040D01*
X043720Y004049D01*
X043715Y004058D01*
X043715Y004059D01*
X043713Y004062D01*
X043710Y004066D01*
X043706Y004071D01*
X043701Y004077D01*
X043696Y004083D01*
X043689Y004089D01*
X043682Y004093D01*
X043681Y004094D01*
X043678Y004096D01*
X043673Y004097D01*
X043668Y004100D01*
X043661Y004102D01*
X043652Y004104D01*
X043642Y004105D01*
X043632Y004106D01*
D02*
G37*
G36*
X045476Y023783D02*
X045403Y023553D01*
X045550D01*
X045476Y023783D01*
D02*
G37*
G36*
X043248Y023787D02*
X043193D01*
Y023645D01*
X043248D01*
X043252Y023646D01*
X043258Y023646D01*
X043264Y023647D01*
X043277Y023650D01*
X043278D01*
X043280Y023651D01*
X043283Y023652D01*
X043287Y023653D01*
X043296Y023658D01*
X043305Y023664D01*
X043305Y023664D01*
X043307Y023665D01*
X043309Y023668D01*
X043312Y023670D01*
X043315Y023674D01*
X043318Y023677D01*
X043323Y023687D01*
X043324Y023687D01*
X043325Y023689D01*
X043326Y023692D01*
X043327Y023696D01*
X043328Y023700D01*
X043329Y023706D01*
X043330Y023712D01*
Y023718D01*
Y023719D01*
Y023720D01*
Y023722D01*
X043329Y023724D01*
X043329Y023730D01*
X043327Y023738D01*
X043325Y023746D01*
X043321Y023754D01*
X043315Y023763D01*
X043308Y023770D01*
X043307Y023770D01*
X043304Y023772D01*
X043299Y023775D01*
X043293Y023778D01*
X043284Y023782D01*
X043274Y023784D01*
X043261Y023787D01*
X043248Y023787D01*
D02*
G37*
G36*
X046216Y023791D02*
X046211D01*
X046206Y023790D01*
X046199Y023789D01*
X046192Y023788D01*
X046183Y023785D01*
X046175Y023782D01*
X046168Y023777D01*
X046166Y023777D01*
X046164Y023775D01*
X046160Y023772D01*
X046156Y023768D01*
X046151Y023763D01*
X046145Y023757D01*
X046140Y023750D01*
X046134Y023741D01*
X046134Y023740D01*
X046132Y023738D01*
X046130Y023733D01*
X046127Y023726D01*
X046124Y023718D01*
X046121Y023709D01*
X046117Y023699D01*
X046115Y023688D01*
Y023687D01*
Y023687D01*
X046114Y023685D01*
X046114Y023682D01*
X046113Y023680D01*
Y023676D01*
X046112Y023668D01*
X046111Y023658D01*
X046110Y023647D01*
X046109Y023635D01*
X046109Y023623D01*
Y023622D01*
Y023621D01*
Y023619D01*
Y023616D01*
Y023613D01*
X046109Y023609D01*
Y023600D01*
X046110Y023589D01*
X046111Y023578D01*
X046112Y023565D01*
X046115Y023553D01*
Y023552D01*
X046115Y023552D01*
Y023550D01*
X046116Y023548D01*
X046117Y023542D01*
X046119Y023534D01*
X046122Y023526D01*
X046125Y023517D01*
X046129Y023508D01*
X046133Y023499D01*
X046134Y023498D01*
X046135Y023496D01*
X046139Y023492D01*
X046142Y023487D01*
X046147Y023481D01*
X046153Y023475D01*
X046159Y023469D01*
X046166Y023465D01*
X046168Y023464D01*
X046170Y023463D01*
X046175Y023461D01*
X046181Y023459D01*
X046188Y023456D01*
X046196Y023454D01*
X046205Y023453D01*
X046216Y023453D01*
X046221D01*
X046225Y023453D01*
X046233Y023454D01*
X046240Y023456D01*
X046248Y023458D01*
X046257Y023461D01*
X046264Y023466D01*
X046265Y023466D01*
X046267Y023468D01*
X046271Y023471D01*
X046276Y023475D01*
X046282Y023480D01*
X046287Y023486D01*
X046293Y023493D01*
X046298Y023502D01*
X046299Y023503D01*
X046300Y023505D01*
X046302Y023510D01*
X046306Y023517D01*
X046308Y023525D01*
X046312Y023534D01*
X046315Y023544D01*
X046318Y023555D01*
Y023555D01*
X046318Y023556D01*
Y023558D01*
X046319Y023560D01*
X046319Y023563D01*
X046320Y023566D01*
X046321Y023574D01*
X046322Y023584D01*
X046323Y023595D01*
X046324Y023608D01*
Y023620D01*
Y023621D01*
Y023622D01*
Y023624D01*
Y023627D01*
Y023630D01*
X046324Y023634D01*
Y023643D01*
X046323Y023653D01*
X046322Y023665D01*
X046320Y023677D01*
X046318Y023689D01*
Y023689D01*
Y023691D01*
X046318Y023692D01*
X046317Y023694D01*
X046316Y023700D01*
X046314Y023707D01*
X046311Y023716D01*
X046308Y023725D01*
X046304Y023734D01*
X046299Y023743D01*
X046299Y023744D01*
X046297Y023747D01*
X046294Y023751D01*
X046290Y023756D01*
X046285Y023762D01*
X046280Y023768D01*
X046273Y023774D01*
X046265Y023778D01*
X046264Y023779D01*
X046261Y023781D01*
X046257Y023782D01*
X046252Y023785D01*
X046245Y023787D01*
X046236Y023789D01*
X046226Y023790D01*
X046216Y023791D01*
D02*
G37*
G36*
X044001Y023791D02*
X043996D01*
X043991Y023790D01*
X043985Y023789D01*
X043977Y023788D01*
X043969Y023785D01*
X043961Y023782D01*
X043953Y023777D01*
X043952Y023777D01*
X043950Y023775D01*
X043946Y023772D01*
X043942Y023768D01*
X043936Y023763D01*
X043931Y023757D01*
X043925Y023750D01*
X043920Y023741D01*
X043919Y023740D01*
X043918Y023738D01*
X043915Y023733D01*
X043913Y023726D01*
X043909Y023718D01*
X043906Y023709D01*
X043903Y023699D01*
X043900Y023688D01*
Y023687D01*
Y023687D01*
X043899Y023685D01*
X043899Y023682D01*
X043898Y023680D01*
Y023676D01*
X043897Y023668D01*
X043896Y023658D01*
X043895Y023647D01*
X043895Y023635D01*
X043894Y023623D01*
Y023622D01*
Y023621D01*
Y023619D01*
Y023616D01*
Y023613D01*
X043895Y023609D01*
Y023600D01*
X043896Y023589D01*
X043897Y023578D01*
X043898Y023565D01*
X043900Y023553D01*
Y023552D01*
X043901Y023552D01*
Y023550D01*
X043901Y023548D01*
X043903Y023542D01*
X043904Y023534D01*
X043907Y023526D01*
X043910Y023517D01*
X043914Y023508D01*
X043919Y023499D01*
X043919Y023498D01*
X043921Y023496D01*
X043924Y023492D01*
X043928Y023487D01*
X043932Y023481D01*
X043938Y023475D01*
X043945Y023469D01*
X043952Y023465D01*
X043953Y023464D01*
X043956Y023463D01*
X043960Y023461D01*
X043966Y023459D01*
X043973Y023456D01*
X043981Y023454D01*
X043991Y023453D01*
X044001Y023453D01*
X044006D01*
X044011Y023453D01*
X044018Y023454D01*
X044026Y023456D01*
X044034Y023458D01*
X044042Y023461D01*
X044050Y023466D01*
X044051Y023466D01*
X044053Y023468D01*
X044057Y023471D01*
X044062Y023475D01*
X044067Y023480D01*
X044073Y023486D01*
X044078Y023493D01*
X044083Y023502D01*
X044084Y023503D01*
X044086Y023505D01*
X044088Y023510D01*
X044091Y023517D01*
X044094Y023525D01*
X044097Y023534D01*
X044100Y023544D01*
X044103Y023555D01*
Y023555D01*
X044104Y023556D01*
Y023558D01*
X044104Y023560D01*
X044105Y023563D01*
X044105Y023566D01*
X044106Y023574D01*
X044108Y023584D01*
X044109Y023595D01*
X044110Y023608D01*
Y023620D01*
Y023621D01*
Y023622D01*
Y023624D01*
Y023627D01*
Y023630D01*
X044109Y023634D01*
Y023643D01*
X044108Y023653D01*
X044107Y023665D01*
X044106Y023677D01*
X044104Y023689D01*
Y023689D01*
Y023691D01*
X044103Y023692D01*
X044103Y023694D01*
X044101Y023700D01*
X044099Y023707D01*
X044097Y023716D01*
X044093Y023725D01*
X044089Y023734D01*
X044085Y023743D01*
X044084Y023744D01*
X044082Y023747D01*
X044079Y023751D01*
X044075Y023756D01*
X044070Y023762D01*
X044065Y023768D01*
X044058Y023774D01*
X044051Y023778D01*
X044050Y023779D01*
X044047Y023781D01*
X044043Y023782D01*
X044037Y023785D01*
X044030Y023787D01*
X044021Y023789D01*
X044011Y023790D01*
X044001Y023791D01*
D02*
G37*
G36*
X043632D02*
X043627D01*
X043622Y023790D01*
X043616Y023789D01*
X043608Y023788D01*
X043600Y023785D01*
X043592Y023782D01*
X043584Y023777D01*
X043583Y023777D01*
X043581Y023775D01*
X043577Y023772D01*
X043572Y023768D01*
X043567Y023763D01*
X043562Y023757D01*
X043556Y023750D01*
X043551Y023741D01*
X043550Y023740D01*
X043548Y023738D01*
X043546Y023733D01*
X043544Y023726D01*
X043540Y023718D01*
X043537Y023709D01*
X043534Y023699D01*
X043531Y023688D01*
Y023687D01*
Y023687D01*
X043530Y023685D01*
X043530Y023682D01*
X043529Y023680D01*
Y023676D01*
X043528Y023668D01*
X043527Y023658D01*
X043526Y023647D01*
X043525Y023635D01*
X043525Y023623D01*
Y023622D01*
Y023621D01*
Y023619D01*
Y023616D01*
Y023613D01*
X043525Y023609D01*
Y023600D01*
X043527Y023589D01*
X043528Y023578D01*
X043529Y023565D01*
X043531Y023553D01*
Y023552D01*
X043531Y023552D01*
Y023550D01*
X043532Y023548D01*
X043534Y023542D01*
X043535Y023534D01*
X043538Y023526D01*
X043541Y023517D01*
X043545Y023508D01*
X043550Y023499D01*
X043550Y023498D01*
X043552Y023496D01*
X043555Y023492D01*
X043559Y023487D01*
X043563Y023481D01*
X043569Y023475D01*
X043576Y023469D01*
X043583Y023465D01*
X043584Y023464D01*
X043587Y023463D01*
X043591Y023461D01*
X043597Y023459D01*
X043604Y023456D01*
X043612Y023454D01*
X043622Y023453D01*
X043632Y023453D01*
X043637D01*
X043642Y023453D01*
X043649Y023454D01*
X043657Y023456D01*
X043665Y023458D01*
X043673Y023461D01*
X043681Y023466D01*
X043682Y023466D01*
X043684Y023468D01*
X043688Y023471D01*
X043693Y023475D01*
X043698Y023480D01*
X043703Y023486D01*
X043709Y023493D01*
X043714Y023502D01*
X043715Y023503D01*
X043717Y023505D01*
X043719Y023510D01*
X043722Y023517D01*
X043725Y023525D01*
X043728Y023534D01*
X043731Y023544D01*
X043734Y023555D01*
Y023555D01*
X043735Y023556D01*
Y023558D01*
X043735Y023560D01*
X043736Y023563D01*
X043736Y023566D01*
X043737Y023574D01*
X043738Y023584D01*
X043740Y023595D01*
X043741Y023608D01*
Y023620D01*
Y023621D01*
Y023622D01*
Y023624D01*
Y023627D01*
Y023630D01*
X043740Y023634D01*
Y023643D01*
X043739Y023653D01*
X043738Y023665D01*
X043737Y023677D01*
X043735Y023689D01*
Y023689D01*
Y023691D01*
X043734Y023692D01*
X043734Y023694D01*
X043732Y023700D01*
X043730Y023707D01*
X043727Y023716D01*
X043724Y023725D01*
X043720Y023734D01*
X043715Y023743D01*
X043715Y023744D01*
X043713Y023747D01*
X043710Y023751D01*
X043706Y023756D01*
X043701Y023762D01*
X043696Y023768D01*
X043689Y023774D01*
X043682Y023778D01*
X043681Y023779D01*
X043678Y023781D01*
X043673Y023782D01*
X043668Y023785D01*
X043661Y023787D01*
X043652Y023789D01*
X043642Y023790D01*
X043632Y023791D01*
D02*
G37*
G36*
X036629Y014071D02*
X036616D01*
X036616D01*
X036614D01*
X036612D01*
X036610D01*
X036606D01*
X036602Y014071D01*
X036593D01*
X036583Y014070D01*
X036571Y014069D01*
X036559Y014068D01*
X036547Y014065D01*
X036547D01*
X036546D01*
X036544Y014065D01*
X036542Y014064D01*
X036536Y014063D01*
X036529Y014061D01*
X036520Y014058D01*
X036511Y014055D01*
X036502Y014051D01*
X036493Y014046D01*
X036492Y014046D01*
X036489Y014044D01*
X036485Y014041D01*
X036480Y014037D01*
X036475Y014032D01*
X036469Y014027D01*
X036463Y014020D01*
X036458Y014012D01*
X036457Y014011D01*
X036456Y014009D01*
X036454Y014004D01*
X036451Y013999D01*
X036449Y013992D01*
X036447Y013983D01*
X036446Y013973D01*
X036445Y013963D01*
Y013958D01*
X036446Y013953D01*
X036447Y013946D01*
X036448Y013939D01*
X036451Y013930D01*
X036454Y013922D01*
X036459Y013915D01*
X036459Y013914D01*
X036461Y013911D01*
X036464Y013908D01*
X036468Y013903D01*
X036474Y013898D01*
X036480Y013892D01*
X036487Y013887D01*
X036495Y013881D01*
X036496Y013881D01*
X036499Y013879D01*
X036504Y013877D01*
X036510Y013874D01*
X036518Y013871D01*
X036527Y013868D01*
X036537Y013864D01*
X036548Y013862D01*
X036549D01*
X036549D01*
X036552Y013861D01*
X036554Y013861D01*
X036557Y013860D01*
X036560D01*
X036568Y013859D01*
X036578Y013858D01*
X036589Y013857D01*
X036601Y013856D01*
X036613Y013856D01*
X036614D01*
X036615D01*
X036617D01*
X036620D01*
X036623D01*
X036627Y013856D01*
X036636D01*
X036647Y013857D01*
X036659Y013858D01*
X036671Y013860D01*
X036683Y013862D01*
X036684D01*
X036684Y013862D01*
X036686D01*
X036689Y013863D01*
X036694Y013864D01*
X036702Y013866D01*
X036710Y013869D01*
X036719Y013872D01*
X036728Y013876D01*
X036737Y013880D01*
X036738Y013881D01*
X036741Y013882D01*
X036744Y013886D01*
X036749Y013890D01*
X036755Y013894D01*
X036761Y013900D01*
X036767Y013906D01*
X036772Y013914D01*
X036772Y013915D01*
X036773Y013917D01*
X036776Y013922D01*
X036778Y013928D01*
X036780Y013935D01*
X036782Y013943D01*
X036783Y013952D01*
X036784Y013963D01*
Y013968D01*
X036783Y013973D01*
X036782Y013980D01*
X036780Y013987D01*
X036778Y013995D01*
X036775Y014004D01*
X036771Y014011D01*
X036770Y014012D01*
X036768Y014015D01*
X036765Y014018D01*
X036761Y014023D01*
X036756Y014029D01*
X036750Y014034D01*
X036743Y014040D01*
X036735Y014045D01*
X036733Y014046D01*
X036731Y014047D01*
X036726Y014050D01*
X036719Y014053D01*
X036712Y014056D01*
X036702Y014059D01*
X036693Y014062D01*
X036682Y014065D01*
X036681D01*
X036680Y014065D01*
X036678D01*
X036676Y014066D01*
X036673Y014066D01*
X036670Y014067D01*
X036662Y014068D01*
X036652Y014069D01*
X036641Y014070D01*
X036629Y014071D01*
D02*
G37*
G36*
X003558Y014071D02*
X003545D01*
X003545D01*
X003544D01*
X003541D01*
X003539D01*
X003535D01*
X003532Y014071D01*
X003522D01*
X003512Y014070D01*
X003500Y014069D01*
X003488Y014068D01*
X003476Y014065D01*
X003476D01*
X003475D01*
X003473Y014065D01*
X003471Y014064D01*
X003465Y014063D01*
X003458Y014061D01*
X003449Y014058D01*
X003440Y014055D01*
X003431Y014051D01*
X003422Y014046D01*
X003421Y014046D01*
X003419Y014044D01*
X003414Y014041D01*
X003409Y014037D01*
X003404Y014032D01*
X003398Y014027D01*
X003392Y014020D01*
X003387Y014012D01*
X003386Y014011D01*
X003385Y014009D01*
X003383Y014004D01*
X003380Y013999D01*
X003378Y013992D01*
X003377Y013983D01*
X003375Y013973D01*
X003374Y013963D01*
Y013958D01*
X003375Y013953D01*
X003376Y013946D01*
X003378Y013939D01*
X003380Y013930D01*
X003384Y013922D01*
X003388Y013915D01*
X003389Y013914D01*
X003390Y013911D01*
X003393Y013908D01*
X003397Y013903D01*
X003403Y013898D01*
X003409Y013892D01*
X003416Y013887D01*
X003424Y013881D01*
X003425Y013881D01*
X003428Y013879D01*
X003433Y013877D01*
X003439Y013874D01*
X003447Y013871D01*
X003456Y013868D01*
X003467Y013864D01*
X003478Y013862D01*
X003478D01*
X003479D01*
X003481Y013861D01*
X003483Y013861D01*
X003486Y013860D01*
X003489D01*
X003497Y013859D01*
X003507Y013858D01*
X003518Y013857D01*
X003530Y013856D01*
X003542Y013856D01*
X003543D01*
X003544D01*
X003546D01*
X003549D01*
X003552D01*
X003556Y013856D01*
X003565D01*
X003576Y013857D01*
X003588Y013858D01*
X003600Y013860D01*
X003612Y013862D01*
X003613D01*
X003613Y013862D01*
X003615D01*
X003618Y013863D01*
X003623Y013864D01*
X003631Y013866D01*
X003639Y013869D01*
X003648Y013872D01*
X003657Y013876D01*
X003666Y013880D01*
X003667Y013881D01*
X003670Y013882D01*
X003674Y013886D01*
X003678Y013890D01*
X003684Y013894D01*
X003690Y013900D01*
X003696Y013906D01*
X003701Y013914D01*
X003701Y013915D01*
X003702Y013917D01*
X003705Y013922D01*
X003707Y013928D01*
X003709Y013935D01*
X003711Y013943D01*
X003712Y013952D01*
X003713Y013963D01*
Y013968D01*
X003712Y013973D01*
X003711Y013980D01*
X003710Y013987D01*
X003707Y013995D01*
X003704Y014004D01*
X003700Y014011D01*
X003699Y014012D01*
X003698Y014015D01*
X003694Y014018D01*
X003690Y014023D01*
X003685Y014029D01*
X003679Y014034D01*
X003672Y014040D01*
X003664Y014045D01*
X003663Y014046D01*
X003660Y014047D01*
X003655Y014050D01*
X003648Y014053D01*
X003641Y014056D01*
X003631Y014059D01*
X003622Y014062D01*
X003611Y014065D01*
X003610D01*
X003609Y014065D01*
X003607D01*
X003605Y014066D01*
X003603Y014066D01*
X003599Y014067D01*
X003591Y014068D01*
X003581Y014069D01*
X003570Y014070D01*
X003558Y014071D01*
D02*
G37*
G36*
X020093Y014071D02*
X020081D01*
X020080D01*
X020079D01*
X020077D01*
X020074D01*
X020071D01*
X020067Y014071D01*
X020058D01*
X020047Y014070D01*
X020036Y014069D01*
X020024Y014068D01*
X020012Y014065D01*
X020011D01*
X020010D01*
X020009Y014065D01*
X020006Y014064D01*
X020000Y014063D01*
X019993Y014061D01*
X019985Y014058D01*
X019976Y014055D01*
X019967Y014051D01*
X019958Y014046D01*
X019957Y014046D01*
X019954Y014044D01*
X019950Y014041D01*
X019945Y014037D01*
X019939Y014032D01*
X019933Y014027D01*
X019927Y014020D01*
X019922Y014012D01*
X019922Y014011D01*
X019920Y014009D01*
X019918Y014004D01*
X019916Y013999D01*
X019914Y013992D01*
X019912Y013983D01*
X019910Y013973D01*
X019910Y013963D01*
Y013958D01*
X019910Y013953D01*
X019911Y013946D01*
X019913Y013939D01*
X019916Y013930D01*
X019919Y013922D01*
X019923Y013915D01*
X019924Y013914D01*
X019926Y013911D01*
X019929Y013908D01*
X019933Y013903D01*
X019938Y013898D01*
X019944Y013892D01*
X019951Y013887D01*
X019959Y013881D01*
X019961Y013881D01*
X019963Y013879D01*
X019968Y013877D01*
X019975Y013874D01*
X019982Y013871D01*
X019992Y013868D01*
X020002Y013864D01*
X020013Y013862D01*
X020013D01*
X020014D01*
X020016Y013861D01*
X020018Y013861D01*
X020021Y013860D01*
X020024D01*
X020033Y013859D01*
X020042Y013858D01*
X020053Y013857D01*
X020065Y013856D01*
X020078Y013856D01*
X020078D01*
X020080D01*
X020082D01*
X020084D01*
X020088D01*
X020092Y013856D01*
X020101D01*
X020112Y013857D01*
X020123Y013858D01*
X020136Y013860D01*
X020148Y013862D01*
X020148D01*
X020149Y013862D01*
X020151D01*
X020153Y013863D01*
X020159Y013864D01*
X020166Y013866D01*
X020175Y013869D01*
X020183Y013872D01*
X020193Y013876D01*
X020201Y013880D01*
X020202Y013881D01*
X020205Y013882D01*
X020209Y013886D01*
X020214Y013890D01*
X020220Y013894D01*
X020225Y013900D01*
X020231Y013906D01*
X020236Y013914D01*
X020237Y013915D01*
X020238Y013917D01*
X020240Y013922D01*
X020242Y013928D01*
X020244Y013935D01*
X020247Y013943D01*
X020248Y013952D01*
X020248Y013963D01*
Y013968D01*
X020248Y013973D01*
X020247Y013980D01*
X020245Y013987D01*
X020243Y013995D01*
X020240Y014004D01*
X020235Y014011D01*
X020235Y014012D01*
X020233Y014015D01*
X020230Y014018D01*
X020226Y014023D01*
X020220Y014029D01*
X020214Y014034D01*
X020207Y014040D01*
X020199Y014045D01*
X020198Y014046D01*
X020195Y014047D01*
X020190Y014050D01*
X020184Y014053D01*
X020176Y014056D01*
X020167Y014059D01*
X020157Y014062D01*
X020146Y014065D01*
X020146D01*
X020145Y014065D01*
X020143D01*
X020141Y014066D01*
X020138Y014066D01*
X020135Y014067D01*
X020127Y014068D01*
X020117Y014069D01*
X020106Y014070D01*
X020093Y014071D01*
D02*
G37*
%LPD*%
D12*
X032283Y023622D02*
Y024409D01*
X024409D02*
X032283D01*
X024409Y023622D02*
Y024409D01*
Y023622D02*
X032283D01*
X024409Y003937D02*
X032283D01*
Y003150D02*
Y003937D01*
X024409Y003150D02*
X032283D01*
X024409D02*
Y003937D01*
X007874Y003150D02*
Y003937D01*
Y003150D02*
X015748D01*
Y003937D01*
X007874D02*
X015748D01*
X007874Y023622D02*
X015748D01*
X007874D02*
Y024409D01*
X015748D01*
Y023622D02*
Y024409D01*
X-000000Y023622D02*
X040157Y023622D01*
X000000Y003937D02*
X040157Y003937D01*
X040157Y027559D02*
X040157Y000000D01*
X-000000Y027559D02*
X040157D01*
X000000Y000000D02*
X040157D01*
X040551Y003937D02*
X040945Y003543D01*
X040551Y003937D02*
X040945Y004331D01*
X040551Y003937D02*
X042126D01*
X040551Y023622D02*
X042126D01*
X040551D02*
X040945Y024016D01*
X040551Y023622D02*
X040945Y023228D01*
X036220Y003150D02*
Y024409D01*
Y003150D02*
X037008D01*
Y024409D01*
X036220D02*
X037008D01*
X003150Y003150D02*
Y024409D01*
Y003150D02*
X003937D01*
Y024409D01*
X003150D02*
X003937D01*
X-000000Y027559D02*
X000000Y000000D01*
X019685Y024409D02*
X020472D01*
Y003150D02*
Y024409D01*
X019685Y003150D02*
X020472D01*
X019685D02*
Y024409D01*
X003543Y023622D02*
X003543D01*
X003937Y003937D02*
X019685D01*
Y023622D01*
X003937D02*
X019685D01*
X003937Y003937D02*
Y023622D01*
X020472Y003937D02*
X036220D01*
Y023622D01*
X020472D02*
X036220D01*
X020472Y003937D02*
Y023622D01*
M02*
