G04*
G04 #@! TF.GenerationSoftware,Altium Limited,Altium Designer,22.2.1 (43)*
G04*
G04 Layer_Physical_Order=3*
G04 Layer_Color=10066329*
%FSLAX25Y25*%
%MOIN*%
G70*
G04*
G04 #@! TF.SameCoordinates,5CCBFE73-73B7-4967-902F-BF686D1F8584*
G04*
G04*
G04 #@! TF.FilePolarity,Positive*
G04*
G01*
G75*
%ADD14C,0.01799*%
G36*
X81276Y107926D02*
X80776Y107719D01*
X80616Y107879D01*
X80101Y108092D01*
X79544D01*
X79030Y107879D01*
X78636Y107486D01*
X78423Y106971D01*
Y106414D01*
X78636Y105900D01*
X79030Y105506D01*
X79544Y105293D01*
X80101D01*
X80616Y105506D01*
X80776Y105667D01*
X81276Y105460D01*
Y104331D01*
X81288Y104272D01*
X81282Y104213D01*
X81320Y103829D01*
X81371Y103659D01*
X81406Y103486D01*
X81700Y102776D01*
X81961Y102386D01*
X82504Y101842D01*
X82894Y101581D01*
X83604Y101287D01*
X83777Y101253D01*
X83947Y101202D01*
X84331Y101164D01*
X84390Y101170D01*
X84449Y101158D01*
X85410D01*
X85410Y16952D01*
X84449Y16952D01*
X84390Y16941D01*
X84331Y16946D01*
X83947Y16909D01*
X83777Y16857D01*
X83604Y16823D01*
X82894Y16529D01*
X82504Y16268D01*
X81961Y15725D01*
X81700Y15334D01*
X81406Y14624D01*
X81371Y14451D01*
X81320Y14282D01*
X81282Y13898D01*
X81288Y13838D01*
X81276Y13780D01*
Y13635D01*
X80776Y13428D01*
X80714Y13490D01*
X80200Y13703D01*
X79643D01*
X79128Y13490D01*
X78735Y13096D01*
X78522Y12582D01*
Y12025D01*
X78735Y11510D01*
X79128Y11117D01*
X79643Y10904D01*
X80200D01*
X80714Y11117D01*
X80776Y11179D01*
X81276Y10972D01*
X81276Y1204D01*
X22759Y1204D01*
Y10913D01*
X23259Y11012D01*
X23420Y10625D01*
X23813Y10231D01*
X24328Y10018D01*
X24885D01*
X25399Y10231D01*
X25793Y10625D01*
X26006Y11139D01*
Y11696D01*
X25793Y12210D01*
X25399Y12604D01*
X24885Y12817D01*
X24328D01*
X23813Y12604D01*
X23420Y12210D01*
X22776Y11964D01*
X22708Y11996D01*
X22657Y12166D01*
X22622Y12339D01*
X22269Y13191D01*
X22008Y13581D01*
X21357Y14233D01*
X20966Y14494D01*
X20115Y14847D01*
X19941Y14881D01*
X19772Y14932D01*
X19311Y14978D01*
X19193Y14966D01*
X19075Y14978D01*
X18614Y14932D01*
X18445Y14881D01*
X18271Y14847D01*
X17420Y14494D01*
X17029Y14233D01*
X16377Y13581D01*
X16116Y13191D01*
X15764Y12339D01*
X15256Y12287D01*
X15163Y12309D01*
X14769Y12702D01*
X14255Y12915D01*
X13698D01*
X13184Y12702D01*
X12790Y12309D01*
X12577Y11794D01*
Y11237D01*
X12790Y10723D01*
X13184Y10329D01*
X13698Y10116D01*
X14255D01*
X14769Y10329D01*
X15126Y10687D01*
X15296Y10669D01*
X15627Y10536D01*
Y1204D01*
X5338D01*
X5338Y9956D01*
X5838Y10290D01*
X6021Y10215D01*
X6578D01*
X7092Y10428D01*
X7486Y10821D01*
X7699Y11336D01*
Y11893D01*
X7486Y12407D01*
X7092Y12801D01*
X6578Y13014D01*
X6021D01*
X5838Y12938D01*
X5338Y13272D01*
Y13780D01*
X5326Y13838D01*
X5332Y13898D01*
X5294Y14282D01*
X5243Y14451D01*
X5209Y14624D01*
X4915Y15334D01*
X4654Y15725D01*
X4110Y16268D01*
X3720Y16529D01*
X3010Y16823D01*
X2837Y16857D01*
X2667Y16909D01*
X2283Y16946D01*
X2224Y16940D01*
X2165Y16952D01*
X1204Y16952D01*
X1204Y101158D01*
X2165Y101158D01*
X2224Y101170D01*
X2283Y101164D01*
X2667Y101202D01*
X2837Y101253D01*
X3010Y101287D01*
X3720Y101581D01*
X4110Y101842D01*
X4654Y102386D01*
X4915Y102776D01*
X5209Y103486D01*
X5243Y103659D01*
X5294Y103829D01*
X5332Y104213D01*
X5326Y104272D01*
X5338Y104331D01*
Y105022D01*
X5838Y105254D01*
X6218Y105096D01*
X6775D01*
X7289Y105309D01*
X7683Y105703D01*
X7896Y106218D01*
Y106774D01*
X7683Y107289D01*
X7289Y107683D01*
X6775Y107896D01*
X6218D01*
X5838Y107738D01*
X5338Y107971D01*
X5338Y116906D01*
X15627Y116906D01*
X15627Y108308D01*
X15126Y107974D01*
X14974Y108037D01*
X14417D01*
X13903Y107824D01*
X13509Y107430D01*
X13296Y106916D01*
Y106359D01*
X13509Y105845D01*
X13903Y105451D01*
X14417Y105238D01*
X14974D01*
X15375Y105404D01*
X15951Y105320D01*
X16116Y104920D01*
X16377Y104529D01*
X17029Y103877D01*
X17420Y103616D01*
X18271Y103264D01*
X18445Y103229D01*
X18614Y103178D01*
X19075Y103132D01*
X19193Y103144D01*
X19311Y103132D01*
X19772Y103178D01*
X19941Y103229D01*
X20115Y103264D01*
X20966Y103616D01*
X21357Y103877D01*
X22008Y104529D01*
X22269Y104920D01*
X22451Y105357D01*
X22910Y105509D01*
X23053Y105503D01*
X23496Y105320D01*
X24053D01*
X24567Y105533D01*
X24961Y105926D01*
X25174Y106441D01*
Y106998D01*
X24961Y107512D01*
X24567Y107906D01*
X24053Y108119D01*
X23496D01*
X23259Y108021D01*
X22759Y108336D01*
Y116906D01*
X81276D01*
X81276Y107926D01*
D02*
G37*
%LPC*%
G36*
X71144Y108092D02*
X70588D01*
X70073Y107879D01*
X69680Y107486D01*
X69467Y106971D01*
Y106414D01*
X69680Y105900D01*
X70073Y105506D01*
X70588Y105293D01*
X71144D01*
X71659Y105506D01*
X72053Y105900D01*
X72266Y106414D01*
Y106971D01*
X72053Y107486D01*
X71659Y107879D01*
X71144Y108092D01*
D02*
G37*
G36*
X59333D02*
X58777D01*
X58262Y107879D01*
X57869Y107486D01*
X57656Y106971D01*
Y106414D01*
X57869Y105900D01*
X58262Y105506D01*
X58777Y105293D01*
X59333D01*
X59848Y105506D01*
X60242Y105900D01*
X60455Y106414D01*
Y106971D01*
X60242Y107486D01*
X59848Y107879D01*
X59333Y108092D01*
D02*
G37*
G36*
X53428D02*
X52871D01*
X52357Y107879D01*
X51963Y107486D01*
X51750Y106971D01*
Y106414D01*
X51963Y105900D01*
X52357Y105506D01*
X52871Y105293D01*
X53428D01*
X53942Y105506D01*
X54336Y105900D01*
X54549Y106414D01*
Y106971D01*
X54336Y107486D01*
X53942Y107879D01*
X53428Y108092D01*
D02*
G37*
G36*
X47523D02*
X46966D01*
X46451Y107879D01*
X46058Y107486D01*
X45845Y106971D01*
Y106414D01*
X46058Y105900D01*
X46451Y105506D01*
X46966Y105293D01*
X47523D01*
X48037Y105506D01*
X48431Y105900D01*
X48644Y106414D01*
Y106971D01*
X48431Y107486D01*
X48037Y107879D01*
X47523Y108092D01*
D02*
G37*
G36*
X41617D02*
X41060D01*
X40546Y107879D01*
X40152Y107486D01*
X39939Y106971D01*
Y106414D01*
X40152Y105900D01*
X40546Y105506D01*
X41060Y105293D01*
X41617D01*
X42131Y105506D01*
X42525Y105900D01*
X42738Y106414D01*
Y106971D01*
X42525Y107486D01*
X42131Y107879D01*
X41617Y108092D01*
D02*
G37*
G36*
X35712D02*
X35155D01*
X34640Y107879D01*
X34247Y107486D01*
X34033Y106971D01*
Y106414D01*
X34247Y105900D01*
X34640Y105506D01*
X35155Y105293D01*
X35712D01*
X36226Y105506D01*
X36620Y105900D01*
X36833Y106414D01*
Y106971D01*
X36620Y107486D01*
X36226Y107879D01*
X35712Y108092D01*
D02*
G37*
G36*
X29806D02*
X29249D01*
X28735Y107879D01*
X28341Y107486D01*
X28128Y106971D01*
Y106414D01*
X28341Y105900D01*
X28735Y105506D01*
X29249Y105293D01*
X29806D01*
X30320Y105506D01*
X30714Y105900D01*
X30927Y106414D01*
Y106971D01*
X30714Y107486D01*
X30320Y107879D01*
X29806Y108092D01*
D02*
G37*
G36*
X65239Y106222D02*
X64682D01*
X64168Y106009D01*
X63774Y105616D01*
X63561Y105101D01*
Y104544D01*
X63774Y104030D01*
X64168Y103636D01*
X64682Y103423D01*
X65239D01*
X65753Y103636D01*
X66147Y104030D01*
X66360Y104544D01*
Y105101D01*
X66147Y105616D01*
X65753Y106009D01*
X65239Y106222D01*
D02*
G37*
G36*
X66223Y14687D02*
X65667D01*
X65152Y14474D01*
X64758Y14080D01*
X64545Y13566D01*
Y13009D01*
X64758Y12495D01*
X65152Y12101D01*
X65667Y11888D01*
X66223D01*
X66738Y12101D01*
X67131Y12495D01*
X67344Y13009D01*
Y13566D01*
X67131Y14080D01*
X66738Y14474D01*
X66223Y14687D01*
D02*
G37*
G36*
X30200Y12817D02*
X29643D01*
X29128Y12604D01*
X28735Y12210D01*
X28522Y11696D01*
Y11139D01*
X28735Y10625D01*
X29128Y10231D01*
X29643Y10018D01*
X30200D01*
X30714Y10231D01*
X31108Y10625D01*
X31321Y11139D01*
Y11696D01*
X31108Y12210D01*
X30714Y12604D01*
X30200Y12817D01*
D02*
G37*
G36*
X72129Y12817D02*
X71572D01*
X71058Y12604D01*
X70664Y12210D01*
X70451Y11696D01*
Y11139D01*
X70664Y10625D01*
X71058Y10231D01*
X71572Y10018D01*
X72129D01*
X72643Y10231D01*
X73037Y10625D01*
X73250Y11139D01*
Y11696D01*
X73037Y12210D01*
X72643Y12604D01*
X72129Y12817D01*
D02*
G37*
G36*
X60318D02*
X59761D01*
X59247Y12604D01*
X58853Y12210D01*
X58640Y11696D01*
Y11139D01*
X58853Y10625D01*
X59247Y10231D01*
X59761Y10018D01*
X60318D01*
X60832Y10231D01*
X61226Y10625D01*
X61439Y11139D01*
Y11696D01*
X61226Y12210D01*
X60832Y12604D01*
X60318Y12817D01*
D02*
G37*
G36*
X54412D02*
X53856D01*
X53341Y12604D01*
X52947Y12210D01*
X52734Y11696D01*
Y11139D01*
X52947Y10625D01*
X53341Y10231D01*
X53856Y10018D01*
X54412D01*
X54927Y10231D01*
X55320Y10625D01*
X55533Y11139D01*
Y11696D01*
X55320Y12210D01*
X54927Y12604D01*
X54412Y12817D01*
D02*
G37*
G36*
X48507D02*
X47950D01*
X47436Y12604D01*
X47042Y12210D01*
X46829Y11696D01*
Y11139D01*
X47042Y10625D01*
X47436Y10231D01*
X47950Y10018D01*
X48507D01*
X49021Y10231D01*
X49415Y10625D01*
X49628Y11139D01*
Y11696D01*
X49415Y12210D01*
X49021Y12604D01*
X48507Y12817D01*
D02*
G37*
G36*
X42601D02*
X42044D01*
X41530Y12604D01*
X41136Y12210D01*
X40923Y11696D01*
Y11139D01*
X41136Y10625D01*
X41530Y10231D01*
X42044Y10018D01*
X42601D01*
X43116Y10231D01*
X43509Y10625D01*
X43722Y11139D01*
Y11696D01*
X43509Y12210D01*
X43116Y12604D01*
X42601Y12817D01*
D02*
G37*
G36*
X36696D02*
X36139D01*
X35625Y12604D01*
X35231Y12210D01*
X35018Y11696D01*
Y11139D01*
X35231Y10625D01*
X35625Y10231D01*
X36139Y10018D01*
X36696D01*
X37210Y10231D01*
X37604Y10625D01*
X37817Y11139D01*
Y11696D01*
X37604Y12210D01*
X37210Y12604D01*
X36696Y12817D01*
D02*
G37*
%LPD*%
D14*
X77165Y14272D02*
D03*
X76279Y103839D02*
D03*
X79823D02*
D03*
X59055D02*
D03*
X70866Y103839D02*
D03*
X59055Y100886D02*
D03*
X70866D02*
D03*
X10827Y105807D02*
D03*
X12795Y103839D02*
D03*
X8957D02*
D03*
X7972Y14272D02*
D03*
X11811D02*
D03*
X9843Y12303D02*
D03*
X60039Y17224D02*
D03*
X71850D02*
D03*
X60039Y14272D02*
D03*
X71850D02*
D03*
M02*
