G04*
G04 #@! TF.GenerationSoftware,Altium Limited,Altium Designer,24.10.1 (45)*
G04*
G04 Layer_Color=8388736*
%FSAX25Y25*%
%MOIN*%
G70*
G04*
G04 #@! TF.SameCoordinates,E9A5F422-793D-4FF6-AE78-97F5C49A065D*
G04*
G04*
G04 #@! TF.FilePolarity,Negative*
G04*
G01*
G75*
G04:AMPARAMS|DCode=52|XSize=34.5mil|YSize=84.1mil|CornerRadius=9.37mil|HoleSize=0mil|Usage=FLASHONLY|Rotation=270.000|XOffset=0mil|YOffset=0mil|HoleType=Round|Shape=RoundedRectangle|*
%AMROUNDEDRECTD52*
21,1,0.03450,0.06535,0,0,270.0*
21,1,0.01575,0.08410,0,0,270.0*
1,1,0.01875,-0.03268,-0.00787*
1,1,0.01875,-0.03268,0.00787*
1,1,0.01875,0.03268,0.00787*
1,1,0.01875,0.03268,-0.00787*
%
%ADD52ROUNDEDRECTD52*%
%ADD53O,0.02662X0.06009*%
G04:AMPARAMS|DCode=54|XSize=12.84mil|YSize=26.62mil|CornerRadius=3.96mil|HoleSize=0mil|Usage=FLASHONLY|Rotation=0.000|XOffset=0mil|YOffset=0mil|HoleType=Round|Shape=RoundedRectangle|*
%AMROUNDEDRECTD54*
21,1,0.01284,0.01870,0,0,0.0*
21,1,0.00492,0.02662,0,0,0.0*
1,1,0.00792,0.00246,-0.00935*
1,1,0.00792,-0.00246,-0.00935*
1,1,0.00792,-0.00246,0.00935*
1,1,0.00792,0.00246,0.00935*
%
%ADD54ROUNDEDRECTD54*%
G04:AMPARAMS|DCode=55|XSize=81.74mil|YSize=50.24mil|CornerRadius=3.86mil|HoleSize=0mil|Usage=FLASHONLY|Rotation=0.000|XOffset=0mil|YOffset=0mil|HoleType=Round|Shape=RoundedRectangle|*
%AMROUNDEDRECTD55*
21,1,0.08174,0.04252,0,0,0.0*
21,1,0.07402,0.05024,0,0,0.0*
1,1,0.00772,0.03701,-0.02126*
1,1,0.00772,-0.03701,-0.02126*
1,1,0.00772,-0.03701,0.02126*
1,1,0.00772,0.03701,0.02126*
%
%ADD55ROUNDEDRECTD55*%
G04:AMPARAMS|DCode=56|XSize=40.4mil|YSize=44.34mil|CornerRadius=10.85mil|HoleSize=0mil|Usage=FLASHONLY|Rotation=270.000|XOffset=0mil|YOffset=0mil|HoleType=Round|Shape=RoundedRectangle|*
%AMROUNDEDRECTD56*
21,1,0.04040,0.02264,0,0,270.0*
21,1,0.01870,0.04434,0,0,270.0*
1,1,0.02170,-0.01132,-0.00935*
1,1,0.02170,-0.01132,0.00935*
1,1,0.02170,0.01132,0.00935*
1,1,0.02170,0.01132,-0.00935*
%
%ADD56ROUNDEDRECTD56*%
G04:AMPARAMS|DCode=57|XSize=40.4mil|YSize=44.34mil|CornerRadius=10.85mil|HoleSize=0mil|Usage=FLASHONLY|Rotation=0.000|XOffset=0mil|YOffset=0mil|HoleType=Round|Shape=RoundedRectangle|*
%AMROUNDEDRECTD57*
21,1,0.04040,0.02264,0,0,0.0*
21,1,0.01870,0.04434,0,0,0.0*
1,1,0.02170,0.00935,-0.01132*
1,1,0.02170,-0.00935,-0.01132*
1,1,0.02170,-0.00935,0.01132*
1,1,0.02170,0.00935,0.01132*
%
%ADD57ROUNDEDRECTD57*%
G04:AMPARAMS|DCode=58|XSize=42.37mil|YSize=38.43mil|CornerRadius=10.36mil|HoleSize=0mil|Usage=FLASHONLY|Rotation=270.000|XOffset=0mil|YOffset=0mil|HoleType=Round|Shape=RoundedRectangle|*
%AMROUNDEDRECTD58*
21,1,0.04237,0.01772,0,0,270.0*
21,1,0.02165,0.03843,0,0,270.0*
1,1,0.02072,-0.00886,-0.01083*
1,1,0.02072,-0.00886,0.01083*
1,1,0.02072,0.00886,0.01083*
1,1,0.02072,0.00886,-0.01083*
%
%ADD58ROUNDEDRECTD58*%
G04:AMPARAMS|DCode=59|XSize=26.62mil|YSize=26.62mil|CornerRadius=7.41mil|HoleSize=0mil|Usage=FLASHONLY|Rotation=270.000|XOffset=0mil|YOffset=0mil|HoleType=Round|Shape=RoundedRectangle|*
%AMROUNDEDRECTD59*
21,1,0.02662,0.01181,0,0,270.0*
21,1,0.01181,0.02662,0,0,270.0*
1,1,0.01481,-0.00591,-0.00591*
1,1,0.01481,-0.00591,0.00591*
1,1,0.01481,0.00591,0.00591*
1,1,0.01481,0.00591,-0.00591*
%
%ADD59ROUNDEDRECTD59*%
G04:AMPARAMS|DCode=60|XSize=28.2mil|YSize=28.2mil|CornerRadius=7.8mil|HoleSize=0mil|Usage=FLASHONLY|Rotation=180.000|XOffset=0mil|YOffset=0mil|HoleType=Round|Shape=RoundedRectangle|*
%AMROUNDEDRECTD60*
21,1,0.02820,0.01260,0,0,180.0*
21,1,0.01260,0.02820,0,0,180.0*
1,1,0.01560,-0.00630,0.00630*
1,1,0.01560,0.00630,0.00630*
1,1,0.01560,0.00630,-0.00630*
1,1,0.01560,-0.00630,-0.00630*
%
%ADD60ROUNDEDRECTD60*%
G04:AMPARAMS|DCode=61|XSize=28.2mil|YSize=28.2mil|CornerRadius=7.8mil|HoleSize=0mil|Usage=FLASHONLY|Rotation=270.000|XOffset=0mil|YOffset=0mil|HoleType=Round|Shape=RoundedRectangle|*
%AMROUNDEDRECTD61*
21,1,0.02820,0.01260,0,0,270.0*
21,1,0.01260,0.02820,0,0,270.0*
1,1,0.01560,-0.00630,-0.00630*
1,1,0.01560,-0.00630,0.00630*
1,1,0.01560,0.00630,0.00630*
1,1,0.01560,0.00630,-0.00630*
%
%ADD61ROUNDEDRECTD61*%
G04:AMPARAMS|DCode=62|XSize=65.99mil|YSize=38.43mil|CornerRadius=3.27mil|HoleSize=0mil|Usage=FLASHONLY|Rotation=90.000|XOffset=0mil|YOffset=0mil|HoleType=Round|Shape=RoundedRectangle|*
%AMROUNDEDRECTD62*
21,1,0.06599,0.03189,0,0,90.0*
21,1,0.05945,0.03843,0,0,90.0*
1,1,0.00654,0.01595,0.02972*
1,1,0.00654,0.01595,-0.02972*
1,1,0.00654,-0.01595,-0.02972*
1,1,0.00654,-0.01595,0.02972*
%
%ADD62ROUNDEDRECTD62*%
G04:AMPARAMS|DCode=63|XSize=12.84mil|YSize=22.69mil|CornerRadius=3.96mil|HoleSize=0mil|Usage=FLASHONLY|Rotation=90.000|XOffset=0mil|YOffset=0mil|HoleType=Round|Shape=RoundedRectangle|*
%AMROUNDEDRECTD63*
21,1,0.01284,0.01476,0,0,90.0*
21,1,0.00492,0.02269,0,0,90.0*
1,1,0.00792,0.00738,0.00246*
1,1,0.00792,0.00738,-0.00246*
1,1,0.00792,-0.00738,-0.00246*
1,1,0.00792,-0.00738,0.00246*
%
%ADD63ROUNDEDRECTD63*%
%ADD64O,0.01284X0.03647*%
G04:AMPARAMS|DCode=65|XSize=105.36mil|YSize=105.36mil|CornerRadius=4.06mil|HoleSize=0mil|Usage=FLASHONLY|Rotation=270.000|XOffset=0mil|YOffset=0mil|HoleType=Round|Shape=RoundedRectangle|*
%AMROUNDEDRECTD65*
21,1,0.10536,0.09724,0,0,270.0*
21,1,0.09724,0.10536,0,0,270.0*
1,1,0.00812,-0.04862,-0.04862*
1,1,0.00812,-0.04862,0.04862*
1,1,0.00812,0.04862,0.04862*
1,1,0.00812,0.04862,-0.04862*
%
%ADD65ROUNDEDRECTD65*%
%ADD66O,0.03647X0.01284*%
%ADD67O,0.03450X0.01284*%
%ADD68O,0.01284X0.03450*%
G04:AMPARAMS|DCode=69|XSize=69.14mil|YSize=69.14mil|CornerRadius=4.81mil|HoleSize=0mil|Usage=FLASHONLY|Rotation=0.000|XOffset=0mil|YOffset=0mil|HoleType=Round|Shape=RoundedRectangle|*
%AMROUNDEDRECTD69*
21,1,0.06914,0.05953,0,0,0.0*
21,1,0.05953,0.06914,0,0,0.0*
1,1,0.00961,0.02976,-0.02976*
1,1,0.00961,-0.02976,-0.02976*
1,1,0.00961,-0.02976,0.02976*
1,1,0.00961,0.02976,0.02976*
%
%ADD69ROUNDEDRECTD69*%
G04:AMPARAMS|DCode=70|XSize=14.81mil|YSize=29.38mil|CornerRadius=4.45mil|HoleSize=0mil|Usage=FLASHONLY|Rotation=270.000|XOffset=0mil|YOffset=0mil|HoleType=Round|Shape=RoundedRectangle|*
%AMROUNDEDRECTD70*
21,1,0.01481,0.02047,0,0,270.0*
21,1,0.00591,0.02938,0,0,270.0*
1,1,0.00891,-0.01024,-0.00295*
1,1,0.00891,-0.01024,0.00295*
1,1,0.00891,0.01024,0.00295*
1,1,0.00891,0.01024,-0.00295*
%
%ADD70ROUNDEDRECTD70*%
G04:AMPARAMS|DCode=71|XSize=34.5mil|YSize=152.61mil|CornerRadius=9.37mil|HoleSize=0mil|Usage=FLASHONLY|Rotation=180.000|XOffset=0mil|YOffset=0mil|HoleType=Round|Shape=RoundedRectangle|*
%AMROUNDEDRECTD71*
21,1,0.03450,0.13386,0,0,180.0*
21,1,0.01575,0.15261,0,0,180.0*
1,1,0.01875,-0.00787,0.06693*
1,1,0.01875,0.00787,0.06693*
1,1,0.01875,0.00787,-0.06693*
1,1,0.01875,-0.00787,-0.06693*
%
%ADD71ROUNDEDRECTD71*%
G04:AMPARAMS|DCode=72|XSize=34.5mil|YSize=152.61mil|CornerRadius=9.37mil|HoleSize=0mil|Usage=FLASHONLY|Rotation=270.000|XOffset=0mil|YOffset=0mil|HoleType=Round|Shape=RoundedRectangle|*
%AMROUNDEDRECTD72*
21,1,0.03450,0.13386,0,0,270.0*
21,1,0.01575,0.15261,0,0,270.0*
1,1,0.01875,-0.06693,-0.00787*
1,1,0.01875,-0.06693,0.00787*
1,1,0.01875,0.06693,0.00787*
1,1,0.01875,0.06693,-0.00787*
%
%ADD72ROUNDEDRECTD72*%
G04:AMPARAMS|DCode=73|XSize=34.5mil|YSize=221.5mil|CornerRadius=9.37mil|HoleSize=0mil|Usage=FLASHONLY|Rotation=180.000|XOffset=0mil|YOffset=0mil|HoleType=Round|Shape=RoundedRectangle|*
%AMROUNDEDRECTD73*
21,1,0.03450,0.20276,0,0,180.0*
21,1,0.01575,0.22150,0,0,180.0*
1,1,0.01875,-0.00787,0.10138*
1,1,0.01875,0.00787,0.10138*
1,1,0.01875,0.00787,-0.10138*
1,1,0.01875,-0.00787,-0.10138*
%
%ADD73ROUNDEDRECTD73*%
G04:AMPARAMS|DCode=74|XSize=34.5mil|YSize=199.06mil|CornerRadius=9.37mil|HoleSize=0mil|Usage=FLASHONLY|Rotation=270.000|XOffset=0mil|YOffset=0mil|HoleType=Round|Shape=RoundedRectangle|*
%AMROUNDEDRECTD74*
21,1,0.03450,0.18032,0,0,270.0*
21,1,0.01575,0.19906,0,0,270.0*
1,1,0.01875,-0.09016,-0.00787*
1,1,0.01875,-0.09016,0.00787*
1,1,0.01875,0.09016,0.00787*
1,1,0.01875,0.09016,-0.00787*
%
%ADD74ROUNDEDRECTD74*%
%ADD75O,0.02072X0.05812*%
%ADD76O,0.01678X0.05812*%
G04:AMPARAMS|DCode=77|XSize=26.62mil|YSize=42.37mil|CornerRadius=7.41mil|HoleSize=0mil|Usage=FLASHONLY|Rotation=180.000|XOffset=0mil|YOffset=0mil|HoleType=Round|Shape=RoundedRectangle|*
%AMROUNDEDRECTD77*
21,1,0.02662,0.02756,0,0,180.0*
21,1,0.01181,0.04237,0,0,180.0*
1,1,0.01481,-0.00591,0.01378*
1,1,0.01481,0.00591,0.01378*
1,1,0.01481,0.00591,-0.01378*
1,1,0.01481,-0.00591,-0.01378*
%
%ADD77ROUNDEDRECTD77*%
G04:AMPARAMS|DCode=78|XSize=28.2mil|YSize=30.56mil|CornerRadius=7.8mil|HoleSize=0mil|Usage=FLASHONLY|Rotation=90.000|XOffset=0mil|YOffset=0mil|HoleType=Round|Shape=RoundedRectangle|*
%AMROUNDEDRECTD78*
21,1,0.02820,0.01496,0,0,90.0*
21,1,0.01260,0.03056,0,0,90.0*
1,1,0.01560,0.00748,0.00630*
1,1,0.01560,0.00748,-0.00630*
1,1,0.01560,-0.00748,-0.00630*
1,1,0.01560,-0.00748,0.00630*
%
%ADD78ROUNDEDRECTD78*%
G04:AMPARAMS|DCode=79|XSize=91.58mil|YSize=33mil|CornerRadius=9mil|HoleSize=0mil|Usage=FLASHONLY|Rotation=180.000|XOffset=0mil|YOffset=0mil|HoleType=Round|Shape=RoundedRectangle|*
%AMROUNDEDRECTD79*
21,1,0.09158,0.01500,0,0,180.0*
21,1,0.07358,0.03300,0,0,180.0*
1,1,0.01800,-0.03679,0.00750*
1,1,0.01800,0.03679,0.00750*
1,1,0.01800,0.03679,-0.00750*
1,1,0.01800,-0.03679,-0.00750*
%
%ADD79ROUNDEDRECTD79*%
G04:AMPARAMS|DCode=80|XSize=26.62mil|YSize=26.62mil|CornerRadius=7.41mil|HoleSize=0mil|Usage=FLASHONLY|Rotation=0.000|XOffset=0mil|YOffset=0mil|HoleType=Round|Shape=RoundedRectangle|*
%AMROUNDEDRECTD80*
21,1,0.02662,0.01181,0,0,0.0*
21,1,0.01181,0.02662,0,0,0.0*
1,1,0.01481,0.00591,-0.00591*
1,1,0.01481,-0.00591,-0.00591*
1,1,0.01481,-0.00591,0.00591*
1,1,0.01481,0.00591,0.00591*
%
%ADD80ROUNDEDRECTD80*%
G04:AMPARAMS|DCode=81|XSize=110.09mil|YSize=51.43mil|CornerRadius=13.61mil|HoleSize=0mil|Usage=FLASHONLY|Rotation=270.000|XOffset=0mil|YOffset=0mil|HoleType=Round|Shape=RoundedRectangle|*
%AMROUNDEDRECTD81*
21,1,0.11009,0.02421,0,0,270.0*
21,1,0.08287,0.05143,0,0,270.0*
1,1,0.02721,-0.01211,-0.04144*
1,1,0.02721,-0.01211,0.04144*
1,1,0.02721,0.01211,0.04144*
1,1,0.02721,0.01211,-0.04144*
%
%ADD81ROUNDEDRECTD81*%
G04:AMPARAMS|DCode=82|XSize=62.06mil|YSize=54.18mil|CornerRadius=14.3mil|HoleSize=0mil|Usage=FLASHONLY|Rotation=180.000|XOffset=0mil|YOffset=0mil|HoleType=Round|Shape=RoundedRectangle|*
%AMROUNDEDRECTD82*
21,1,0.06206,0.02559,0,0,180.0*
21,1,0.03347,0.05418,0,0,180.0*
1,1,0.02859,-0.01673,0.01280*
1,1,0.02859,0.01673,0.01280*
1,1,0.02859,0.01673,-0.01280*
1,1,0.02859,-0.01673,-0.01280*
%
%ADD82ROUNDEDRECTD82*%
G04:AMPARAMS|DCode=83|XSize=62.06mil|YSize=54.18mil|CornerRadius=14.3mil|HoleSize=0mil|Usage=FLASHONLY|Rotation=270.000|XOffset=0mil|YOffset=0mil|HoleType=Round|Shape=RoundedRectangle|*
%AMROUNDEDRECTD83*
21,1,0.06206,0.02559,0,0,270.0*
21,1,0.03347,0.05418,0,0,270.0*
1,1,0.02859,-0.01280,-0.01673*
1,1,0.02859,-0.01280,0.01673*
1,1,0.02859,0.01280,0.01673*
1,1,0.02859,0.01280,-0.01673*
%
%ADD83ROUNDEDRECTD83*%
G04:AMPARAMS|DCode=84|XSize=42.37mil|YSize=38.43mil|CornerRadius=10.36mil|HoleSize=0mil|Usage=FLASHONLY|Rotation=0.000|XOffset=0mil|YOffset=0mil|HoleType=Round|Shape=RoundedRectangle|*
%AMROUNDEDRECTD84*
21,1,0.04237,0.01772,0,0,0.0*
21,1,0.02165,0.03843,0,0,0.0*
1,1,0.02072,0.01083,-0.00886*
1,1,0.02072,-0.01083,-0.00886*
1,1,0.02072,-0.01083,0.00886*
1,1,0.02072,0.01083,0.00886*
%
%ADD84ROUNDEDRECTD84*%
%ADD85C,0.06206*%
G04:AMPARAMS|DCode=86|XSize=62.06mil|YSize=62.06mil|CornerRadius=16.26mil|HoleSize=0mil|Usage=FLASHONLY|Rotation=180.000|XOffset=0mil|YOffset=0mil|HoleType=Round|Shape=RoundedRectangle|*
%AMROUNDEDRECTD86*
21,1,0.06206,0.02953,0,0,180.0*
21,1,0.02953,0.06206,0,0,180.0*
1,1,0.03253,-0.01476,0.01476*
1,1,0.03253,0.01476,0.01476*
1,1,0.03253,0.01476,-0.01476*
1,1,0.03253,-0.01476,-0.01476*
%
%ADD86ROUNDEDRECTD86*%
%ADD87R,0.05686X0.05686*%
%ADD88C,0.05686*%
%ADD89C,0.12111*%
%ADD90C,0.08174*%
%ADD91C,0.08725*%
G36*
X-0098217Y-0017998D02*
X-0098214Y-0017985D01*
X-0098206Y-0017990D01*
X-0098208Y-0018010D01*
X-0098213Y-0018007D01*
X-0098217Y-0018003D01*
Y-0017998D01*
D02*
G37*
G36*
X-0098223Y-0017955D02*
X-0098221Y-0017968D01*
X-0098226Y-0017970D01*
X-0098227Y-0017958D01*
X-0098223Y-0017955D01*
D02*
G37*
D52*
X0099429Y0027264D02*
D03*
X0123602D02*
D03*
Y0035925D02*
D03*
X0099429D02*
D03*
X0123602Y0057185D02*
D03*
X0099429D02*
D03*
Y0044587D02*
D03*
X0123602D02*
D03*
X0065158Y0027264D02*
D03*
X0089331D02*
D03*
Y0035925D02*
D03*
X0065158D02*
D03*
X0089331Y0057185D02*
D03*
X0065158D02*
D03*
Y0044587D02*
D03*
X0089331D02*
D03*
D53*
X0281988Y0045965D02*
D03*
X0286988D02*
D03*
X0291988D02*
D03*
X0296988D02*
D03*
X0281988Y0067421D02*
D03*
X0286988D02*
D03*
X0291988D02*
D03*
X0296988D02*
D03*
X0164980Y0020177D02*
D03*
X0154980Y0041634D02*
D03*
X0159980D02*
D03*
X0154980Y0020177D02*
D03*
X0159980D02*
D03*
X0149980D02*
D03*
Y0041634D02*
D03*
X0164980D02*
D03*
D54*
X0333169Y0057087D02*
D03*
X0331201D02*
D03*
X0329232D02*
D03*
X0327264D02*
D03*
X0325295D02*
D03*
X0333169Y0048031D02*
D03*
X0331201D02*
D03*
X0329232D02*
D03*
X0327264D02*
D03*
X0325295D02*
D03*
D55*
X0329232Y0052559D02*
D03*
D56*
X0315711Y0063683D02*
D03*
X0310002D02*
D03*
X0332185Y0068898D02*
D03*
X0326476D02*
D03*
X0332185Y0062992D02*
D03*
X0326476D02*
D03*
X0326181Y0042126D02*
D03*
X0331890D02*
D03*
X0111221Y0073228D02*
D03*
X0105512D02*
D03*
X0310002Y0047935D02*
D03*
X0315711D02*
D03*
X0136713Y0034350D02*
D03*
X0142421D02*
D03*
X0071457Y0073130D02*
D03*
X0077165D02*
D03*
D57*
X0338484Y0053839D02*
D03*
Y0048130D02*
D03*
X0099508Y0067323D02*
D03*
Y0073032D02*
D03*
X0303998Y0052955D02*
D03*
Y0058663D02*
D03*
X0135335Y0064173D02*
D03*
Y0058465D02*
D03*
D58*
X0337697Y0042126D02*
D03*
X0343996D02*
D03*
X0111516Y0067224D02*
D03*
X0105217D02*
D03*
X0071161Y0067224D02*
D03*
X0077461D02*
D03*
X0085532Y0017224D02*
D03*
X0079232D02*
D03*
D59*
X0116142Y0067224D02*
D03*
X0119685D02*
D03*
X0306496Y0043110D02*
D03*
X0310039D02*
D03*
X0358268Y0042717D02*
D03*
X0354724D02*
D03*
X0319156Y0039471D02*
D03*
X0315612D02*
D03*
X0362008Y0042717D02*
D03*
X0365551D02*
D03*
X0315612Y0043211D02*
D03*
X0319156D02*
D03*
X0203150Y0055118D02*
D03*
X0199606D02*
D03*
X0203150Y0058661D02*
D03*
X0199606D02*
D03*
X0186909Y0043504D02*
D03*
X0183366D02*
D03*
X0369390Y0044882D02*
D03*
X0372933D02*
D03*
X0183760Y0029528D02*
D03*
X0187303D02*
D03*
X0161024Y0059842D02*
D03*
X0164567D02*
D03*
X0164469Y0056201D02*
D03*
X0160925D02*
D03*
X0154232Y0013976D02*
D03*
X0157776D02*
D03*
X0164567Y0064075D02*
D03*
X0161024D02*
D03*
X0186319Y0076968D02*
D03*
X0182776D02*
D03*
D60*
X0094587Y0072973D02*
D03*
Y0069350D02*
D03*
X0320079Y0055079D02*
D03*
Y0058701D02*
D03*
X0275492Y0045610D02*
D03*
Y0041988D02*
D03*
X0140354Y0058012D02*
D03*
Y0054390D02*
D03*
X0130905Y0023976D02*
D03*
Y0027598D02*
D03*
D61*
X0116201Y0073228D02*
D03*
X0119823D02*
D03*
X0252323Y0039173D02*
D03*
X0255945D02*
D03*
X0283347Y0073425D02*
D03*
X0286969D02*
D03*
X0293484Y0040059D02*
D03*
X0297106D02*
D03*
X0194331Y0044783D02*
D03*
X0190709D02*
D03*
X0186476Y0073130D02*
D03*
X0190098D02*
D03*
X0186476Y0069193D02*
D03*
X0190098D02*
D03*
X0182618D02*
D03*
X0178996D02*
D03*
X0236870Y0039173D02*
D03*
X0240492D02*
D03*
X0191102Y0029528D02*
D03*
X0194724D02*
D03*
X0191102Y0007874D02*
D03*
X0194724D02*
D03*
X0147087Y0012795D02*
D03*
X0143465D02*
D03*
X0164508Y0052461D02*
D03*
X0160886D02*
D03*
X0166378Y0047441D02*
D03*
X0162756D02*
D03*
X0155276D02*
D03*
X0158898D02*
D03*
X0140295Y0073130D02*
D03*
X0136673D02*
D03*
X0164508Y0072146D02*
D03*
X0160886D02*
D03*
X0140295Y0069193D02*
D03*
X0136673D02*
D03*
X0149055Y0073130D02*
D03*
X0145433D02*
D03*
X0152618Y0051378D02*
D03*
X0156240D02*
D03*
X0148661Y0052658D02*
D03*
X0145039D02*
D03*
X0145039Y0048720D02*
D03*
X0148661D02*
D03*
X0161575Y0013976D02*
D03*
X0165197D02*
D03*
X0178996Y0073130D02*
D03*
X0182618D02*
D03*
X0164508Y0068209D02*
D03*
X0160886D02*
D03*
X0274862Y0073425D02*
D03*
X0278484D02*
D03*
X0267382Y0073425D02*
D03*
X0271004D02*
D03*
X0271004Y0052756D02*
D03*
X0267382D02*
D03*
X0193740Y0077067D02*
D03*
X0190118D02*
D03*
D62*
X0312463Y0055809D02*
D03*
D63*
X0316203Y0052856D02*
D03*
Y0054825D02*
D03*
Y0056793D02*
D03*
Y0058762D02*
D03*
X0308723Y0052856D02*
D03*
Y0054825D02*
D03*
Y0056793D02*
D03*
Y0058762D02*
D03*
D64*
X0185531Y0064567D02*
D03*
X0183563D02*
D03*
X0189469Y0049409D02*
D03*
X0187500D02*
D03*
X0185531D02*
D03*
X0183563D02*
D03*
X0187500Y0064567D02*
D03*
X0189469D02*
D03*
D65*
X0186516Y0056988D02*
D03*
D66*
X0194095Y0059941D02*
D03*
Y0057972D02*
D03*
Y0056004D02*
D03*
Y0054035D02*
D03*
X0178937D02*
D03*
Y0056004D02*
D03*
Y0057972D02*
D03*
Y0059941D02*
D03*
D67*
X0156398Y0059842D02*
D03*
X0144980Y0061811D02*
D03*
X0156398Y0063779D02*
D03*
X0144980Y0059842D02*
D03*
Y0063779D02*
D03*
X0156398Y0065748D02*
D03*
Y0061811D02*
D03*
X0144980Y0065748D02*
D03*
D68*
X0153642Y0068504D02*
D03*
X0147736D02*
D03*
X0151673D02*
D03*
Y0057087D02*
D03*
X0149705Y0068504D02*
D03*
X0153642Y0057087D02*
D03*
X0149705D02*
D03*
X0147736D02*
D03*
D69*
X0150689Y0062795D02*
D03*
D70*
X0365217Y0054823D02*
D03*
Y0056791D02*
D03*
Y0058760D02*
D03*
X0359390D02*
D03*
Y0056791D02*
D03*
Y0054823D02*
D03*
D71*
X0056890Y0043504D02*
D03*
X0171693D02*
D03*
D72*
X0090669Y0079528D02*
D03*
X0137913D02*
D03*
X0114291D02*
D03*
X0090680Y0007501D02*
D03*
X0137924D02*
D03*
X0114302D02*
D03*
D73*
X0171693Y0070176D02*
D03*
X0056890D02*
D03*
X0056900Y0016853D02*
D03*
X0171703D02*
D03*
D74*
X0163466Y0079528D02*
D03*
X0065119D02*
D03*
X0065127Y0007501D02*
D03*
X0163474D02*
D03*
D75*
X0239961Y0045079D02*
D03*
X0245079Y0068307D02*
D03*
X0242520D02*
D03*
X0239961D02*
D03*
X0237402D02*
D03*
X0234842D02*
D03*
X0232283D02*
D03*
X0229724D02*
D03*
X0245079Y0045079D02*
D03*
X0242520D02*
D03*
X0237402D02*
D03*
X0234842D02*
D03*
X0232283D02*
D03*
X0229724D02*
D03*
D76*
X0252264Y0045079D02*
D03*
X0260138Y0062402D02*
D03*
X0258169D02*
D03*
X0256201D02*
D03*
X0254232D02*
D03*
X0252264D02*
D03*
X0260138Y0045079D02*
D03*
X0258169D02*
D03*
X0256201D02*
D03*
X0254232D02*
D03*
D77*
X0267323Y0057776D02*
D03*
X0271063D02*
D03*
X0274803D02*
D03*
Y0068405D02*
D03*
X0267323D02*
D03*
X0194685Y0024016D02*
D03*
X0190945D02*
D03*
X0187205D02*
D03*
Y0013386D02*
D03*
X0194685D02*
D03*
X0143504Y0028445D02*
D03*
X0139764D02*
D03*
X0136024D02*
D03*
Y0017815D02*
D03*
X0143504D02*
D03*
D78*
X0271358Y0045650D02*
D03*
X0265846D02*
D03*
Y0041949D02*
D03*
X0271358D02*
D03*
D79*
X0071260Y0017815D02*
D03*
Y0013287D02*
D03*
D80*
X0199606Y0045079D02*
D03*
Y0048622D02*
D03*
X0310039Y0072244D02*
D03*
Y0068701D02*
D03*
X0377165Y0053740D02*
D03*
Y0057284D02*
D03*
X0140354Y0061713D02*
D03*
Y0065256D02*
D03*
X0130807Y0031890D02*
D03*
Y0035433D02*
D03*
X0141240Y0047047D02*
D03*
Y0050591D02*
D03*
X0142618Y0042717D02*
D03*
Y0039173D02*
D03*
X0203543Y0045079D02*
D03*
Y0048622D02*
D03*
D81*
X0367756Y0067421D02*
D03*
X0356457D02*
D03*
D82*
X0371063Y0057579D02*
D03*
Y0050098D02*
D03*
D83*
X0356201Y0048917D02*
D03*
X0363681D02*
D03*
D84*
X0382480Y0050689D02*
D03*
Y0056988D02*
D03*
X0135335Y0052658D02*
D03*
Y0046358D02*
D03*
X0083150Y0067028D02*
D03*
Y0073327D02*
D03*
D85*
X0336378Y0006417D02*
D03*
Y0016417D02*
D03*
X0346378Y0006417D02*
D03*
Y0016417D02*
D03*
X0356378Y0006417D02*
D03*
X0326378Y0016417D02*
D03*
Y0006417D02*
D03*
X0316378Y0016417D02*
D03*
Y0006417D02*
D03*
X0306424Y0006465D02*
D03*
Y0016417D02*
D03*
X0296424D02*
D03*
Y0006465D02*
D03*
D86*
X0356378Y0016417D02*
D03*
D87*
X0382480Y0033858D02*
D03*
D88*
Y0025984D02*
D03*
D89*
X0018406Y0039469D02*
D03*
Y0009547D02*
D03*
D90*
X0049114Y0024508D02*
D03*
D91*
X0244724Y0005748D02*
D03*
X0264724D02*
D03*
Y0025748D02*
D03*
X0244724D02*
D03*
X0254724Y0015748D02*
D03*
X0205354Y0005748D02*
D03*
X0225354D02*
D03*
Y0025748D02*
D03*
X0205354D02*
D03*
X0215354Y0015748D02*
D03*
M02*
