G04*
G04 #@! TF.GenerationSoftware,Altium Limited,Altium Designer,24.10.1 (45)*
G04*
G04 Layer_Physical_Order=2*
G04 Layer_Color=36540*
%FSAX25Y25*%
%MOIN*%
G70*
G04*
G04 #@! TF.SameCoordinates,E9A5F422-793D-4FF6-AE78-97F5C49A065D*
G04*
G04*
G04 #@! TF.FilePolarity,Positive*
G04*
G01*
G75*
%ADD102C,0.05906*%
%ADD105C,0.05386*%
%ADD106C,0.11811*%
%ADD108C,0.08425*%
%ADD109C,0.01600*%
G36*
X0392497Y0001204D02*
X0267479D01*
X0267345Y0001704D01*
X0267679Y0001897D01*
X0268576Y0002793D01*
X0269209Y0003890D01*
X0269537Y0005114D01*
Y0005248D01*
X0259912D01*
Y0005114D01*
X0260240Y0003890D01*
X0260873Y0002793D01*
X0261769Y0001897D01*
X0262103Y0001704D01*
X0261969Y0001204D01*
X0247480D01*
X0247345Y0001704D01*
X0247679Y0001897D01*
X0248575Y0002793D01*
X0249209Y0003890D01*
X0249537Y0005114D01*
Y0005248D01*
X0239912D01*
Y0005114D01*
X0240240Y0003890D01*
X0240873Y0002793D01*
X0241769Y0001897D01*
X0242103Y0001704D01*
X0241969Y0001204D01*
X0228109D01*
X0227975Y0001704D01*
X0228309Y0001897D01*
X0229205Y0002793D01*
X0229839Y0003890D01*
X0230167Y0005114D01*
Y0005248D01*
X0220542D01*
Y0005114D01*
X0220870Y0003890D01*
X0221503Y0002793D01*
X0222399Y0001897D01*
X0222733Y0001704D01*
X0222599Y0001204D01*
X0208109D01*
X0207975Y0001704D01*
X0208309Y0001897D01*
X0209205Y0002793D01*
X0209839Y0003890D01*
X0210167Y0005114D01*
Y0005248D01*
X0200542D01*
Y0005114D01*
X0200870Y0003890D01*
X0201503Y0002793D01*
X0202399Y0001897D01*
X0202733Y0001704D01*
X0202599Y0001204D01*
X0001204D01*
Y0091316D01*
X0392497Y0091316D01*
Y0001204D01*
D02*
G37*
%LPC*%
G36*
X0190417Y0081328D02*
X0189701D01*
X0189040Y0081054D01*
X0188533Y0080548D01*
X0188028Y0081054D01*
X0187366Y0081328D01*
X0186650D01*
X0185988Y0081054D01*
X0185482Y0080547D01*
X0185208Y0079886D01*
Y0079169D01*
X0185482Y0078508D01*
X0185988Y0078002D01*
X0186650Y0077728D01*
X0187366D01*
X0188028Y0078002D01*
X0188533Y0078508D01*
X0189040Y0078002D01*
X0189701Y0077728D01*
X0190417D01*
X0191079Y0078002D01*
X0191585Y0078508D01*
X0191859Y0079169D01*
Y0079886D01*
X0191585Y0080547D01*
X0191079Y0081054D01*
X0190417Y0081328D01*
D02*
G37*
G36*
X0142779Y0077292D02*
X0142063D01*
X0141402Y0077018D01*
X0140895Y0076512D01*
X0140707Y0076056D01*
X0140165D01*
X0140010Y0076430D01*
X0139504Y0076937D01*
X0138842Y0077211D01*
X0138126D01*
X0137465Y0076937D01*
X0136958Y0076430D01*
X0136684Y0075769D01*
Y0075053D01*
X0136958Y0074391D01*
X0137465Y0073885D01*
X0138126Y0073611D01*
X0138842D01*
X0139504Y0073885D01*
X0140010Y0074391D01*
X0140199Y0074847D01*
X0140740D01*
X0140895Y0074473D01*
X0141402Y0073966D01*
X0142063Y0073692D01*
X0142779D01*
X0143441Y0073966D01*
X0143947Y0074473D01*
X0144221Y0075134D01*
Y0075850D01*
X0143947Y0076512D01*
X0143441Y0077018D01*
X0142779Y0077292D01*
D02*
G37*
G36*
X0113287Y0076118D02*
X0103445D01*
X0103055Y0076040D01*
X0102724Y0075819D01*
X0102712Y0075802D01*
X0102111D01*
X0102099Y0075819D01*
X0101768Y0076040D01*
X0101378Y0076118D01*
X0097638D01*
X0097248Y0076040D01*
X0096917Y0075819D01*
X0096696Y0075489D01*
X0096256Y0075253D01*
X0095866Y0075331D01*
X0093307D01*
X0092917Y0075253D01*
X0092586Y0075032D01*
X0092365Y0074701D01*
X0092287Y0074311D01*
Y0071654D01*
X0092365Y0071263D01*
X0092586Y0070933D01*
X0092917Y0070712D01*
X0093307Y0070634D01*
X0095866D01*
X0096118Y0070684D01*
X0096509Y0070460D01*
X0096618Y0070352D01*
Y0065256D01*
X0096696Y0064866D01*
X0096917Y0064535D01*
X0097248Y0064314D01*
X0097638Y0064236D01*
X0101378D01*
X0101768Y0064314D01*
X0102099Y0064535D01*
X0102111Y0064553D01*
X0102712D01*
X0102724Y0064535D01*
X0103055Y0064314D01*
X0103445Y0064236D01*
X0113287D01*
X0113678Y0064314D01*
X0114008Y0064535D01*
X0114229Y0064866D01*
X0114237Y0064906D01*
X0114472Y0065003D01*
X0114862Y0064925D01*
X0117520D01*
X0117910Y0065003D01*
X0118241Y0065224D01*
X0118462Y0065555D01*
X0118539Y0065945D01*
Y0074508D01*
X0118462Y0074898D01*
X0118241Y0075229D01*
X0117910Y0075450D01*
X0117520Y0075528D01*
X0114862D01*
X0114472Y0075450D01*
X0114044Y0075766D01*
X0114008Y0075819D01*
X0113678Y0076040D01*
X0113287Y0076118D01*
D02*
G37*
G36*
X0085138Y0076118D02*
X0081201D01*
X0080811Y0076040D01*
X0080480Y0075819D01*
X0079953Y0075721D01*
X0079623Y0075942D01*
X0079232Y0076020D01*
X0075098D01*
X0074708Y0075942D01*
X0074378Y0075721D01*
X0074156Y0075390D01*
X0074079Y0075000D01*
Y0071260D01*
X0074156Y0070870D01*
X0074261Y0070713D01*
X0074035Y0070213D01*
X0069390D01*
X0068999Y0070135D01*
X0068669Y0069914D01*
X0068448Y0069583D01*
X0068370Y0069193D01*
Y0065256D01*
X0068448Y0064866D01*
X0068669Y0064535D01*
X0068999Y0064314D01*
X0069390Y0064236D01*
X0079232D01*
X0079623Y0064314D01*
X0079953Y0064535D01*
X0080480Y0064535D01*
X0080811Y0064314D01*
X0081201Y0064236D01*
X0085138D01*
X0085528Y0064314D01*
X0085859Y0064535D01*
X0086080Y0064866D01*
X0086157Y0065256D01*
Y0075098D01*
X0086080Y0075489D01*
X0085859Y0075819D01*
X0085528Y0076040D01*
X0085138Y0076118D01*
D02*
G37*
G36*
X0287366Y0077785D02*
X0286650D01*
X0285988Y0077511D01*
X0285482Y0077005D01*
X0285208Y0076343D01*
Y0075627D01*
X0285482Y0074966D01*
X0285988Y0074459D01*
X0286650Y0074185D01*
X0287366D01*
X0288028Y0074459D01*
X0288534Y0074966D01*
X0288808Y0075627D01*
Y0076343D01*
X0288534Y0077005D01*
X0288028Y0077511D01*
X0287366Y0077785D01*
D02*
G37*
G36*
X0275260Y0077686D02*
X0274543D01*
X0273882Y0077412D01*
X0273376Y0076905D01*
X0273102Y0076244D01*
Y0075528D01*
X0273376Y0074866D01*
X0273882Y0074360D01*
X0274543Y0074086D01*
X0275260D01*
X0275921Y0074360D01*
X0276428Y0074866D01*
X0276702Y0075528D01*
Y0076244D01*
X0276428Y0076905D01*
X0275921Y0077412D01*
X0275260Y0077686D01*
D02*
G37*
G36*
X0148094Y0077587D02*
X0147378D01*
X0146717Y0077313D01*
X0146210Y0076807D01*
X0145936Y0076145D01*
Y0075429D01*
X0146210Y0074768D01*
X0146717Y0074261D01*
X0147378Y0073987D01*
X0148094D01*
X0148756Y0074261D01*
X0149262Y0074768D01*
X0149536Y0075429D01*
Y0076145D01*
X0149262Y0076807D01*
X0148756Y0077313D01*
X0148094Y0077587D01*
D02*
G37*
G36*
X0267779Y0077587D02*
X0267063D01*
X0266402Y0077313D01*
X0265895Y0076807D01*
X0265621Y0076145D01*
Y0075429D01*
X0265895Y0074768D01*
X0266402Y0074261D01*
X0267063Y0073987D01*
X0267779D01*
X0268441Y0074261D01*
X0268947Y0074768D01*
X0269221Y0075429D01*
Y0076145D01*
X0268947Y0076807D01*
X0268441Y0077313D01*
X0267779Y0077587D01*
D02*
G37*
G36*
X0159216Y0076111D02*
X0158500D01*
X0157839Y0075837D01*
X0157332Y0075331D01*
X0157058Y0074669D01*
Y0073953D01*
X0157332Y0073291D01*
X0157839Y0072785D01*
X0158500Y0072511D01*
X0159216D01*
X0159878Y0072785D01*
X0160384Y0073291D01*
X0160658Y0073953D01*
Y0074669D01*
X0160384Y0075331D01*
X0159878Y0075837D01*
X0159216Y0076111D01*
D02*
G37*
G36*
X0248783Y0075914D02*
X0248067D01*
X0247406Y0075640D01*
X0246899Y0075134D01*
X0246625Y0074472D01*
Y0073756D01*
X0246899Y0073095D01*
X0247406Y0072588D01*
X0248067Y0072314D01*
X0248783D01*
X0249445Y0072588D01*
X0249951Y0073095D01*
X0250225Y0073756D01*
Y0074472D01*
X0249951Y0075134D01*
X0249445Y0075640D01*
X0248783Y0075914D01*
D02*
G37*
G36*
X0223882Y0075225D02*
X0223166D01*
X0222504Y0074951D01*
X0221998Y0074445D01*
X0221724Y0073783D01*
Y0073067D01*
X0221998Y0072406D01*
X0222504Y0071899D01*
X0223166Y0071625D01*
X0223882D01*
X0224543Y0071899D01*
X0225050Y0072406D01*
X0225324Y0073067D01*
Y0073783D01*
X0225050Y0074445D01*
X0224543Y0074951D01*
X0223882Y0075225D01*
D02*
G37*
G36*
X0292388Y0073375D02*
X0291671D01*
X0291010Y0073101D01*
X0290504Y0072595D01*
X0290230Y0071933D01*
Y0071217D01*
X0290504Y0070556D01*
X0291010Y0070049D01*
X0291671Y0069775D01*
X0292388D01*
X0293049Y0070049D01*
X0293555Y0070556D01*
X0293830Y0071217D01*
Y0071933D01*
X0293555Y0072595D01*
X0293049Y0073101D01*
X0292388Y0073375D01*
D02*
G37*
G36*
X0142820Y0072949D02*
X0142104D01*
X0141442Y0072675D01*
X0140936Y0072169D01*
X0140662Y0071507D01*
Y0070791D01*
X0140936Y0070130D01*
X0141442Y0069623D01*
X0142104Y0069349D01*
X0142820D01*
X0143481Y0069623D01*
X0143988Y0070130D01*
X0144262Y0070791D01*
Y0071507D01*
X0143988Y0072169D01*
X0143481Y0072675D01*
X0142820Y0072949D01*
D02*
G37*
G36*
X0159030Y0071908D02*
X0158314D01*
X0157652Y0071634D01*
X0157146Y0071128D01*
X0156872Y0070466D01*
Y0069750D01*
X0157146Y0069089D01*
X0157652Y0068582D01*
X0158314Y0068308D01*
X0159030D01*
X0159692Y0068582D01*
X0160198Y0069089D01*
X0160472Y0069750D01*
Y0070466D01*
X0160198Y0071128D01*
X0159692Y0071634D01*
X0159030Y0071908D01*
D02*
G37*
G36*
X0249275Y0070205D02*
X0248559D01*
X0247898Y0069932D01*
X0247391Y0069425D01*
X0247117Y0068764D01*
Y0068047D01*
X0247391Y0067386D01*
X0247898Y0066879D01*
X0248559Y0066606D01*
X0249275D01*
X0249937Y0066879D01*
X0250443Y0067386D01*
X0250717Y0068047D01*
Y0068764D01*
X0250443Y0069425D01*
X0249937Y0069932D01*
X0249275Y0070205D01*
D02*
G37*
G36*
X0167779Y0068926D02*
X0167063D01*
X0166402Y0068652D01*
X0165895Y0068146D01*
X0165621Y0067484D01*
Y0066768D01*
X0165895Y0066106D01*
X0166402Y0065600D01*
X0167063Y0065326D01*
X0167779D01*
X0168441Y0065600D01*
X0168947Y0066106D01*
X0169221Y0066768D01*
Y0067484D01*
X0168947Y0068146D01*
X0168441Y0068652D01*
X0167779Y0068926D01*
D02*
G37*
G36*
X0306993Y0065481D02*
X0306277D01*
X0305615Y0065207D01*
X0305109Y0064701D01*
X0304835Y0064039D01*
Y0063323D01*
X0305109Y0062661D01*
X0305615Y0062155D01*
X0306277Y0061881D01*
X0306993D01*
X0307655Y0062155D01*
X0308161Y0062661D01*
X0308435Y0063323D01*
Y0064039D01*
X0308161Y0064701D01*
X0307655Y0065207D01*
X0306993Y0065481D01*
D02*
G37*
G36*
X0335791Y0070698D02*
X0335075D01*
X0334414Y0070424D01*
X0333907Y0069917D01*
X0333633Y0069256D01*
Y0068540D01*
X0333907Y0067878D01*
X0334364Y0067421D01*
X0333907Y0066965D01*
X0333633Y0066303D01*
Y0065587D01*
X0333907Y0064925D01*
X0334364Y0064468D01*
X0333907Y0064012D01*
X0333633Y0063350D01*
Y0062634D01*
X0333907Y0061972D01*
X0334414Y0061466D01*
X0335075Y0061192D01*
X0335791D01*
X0336453Y0061466D01*
X0336959Y0061972D01*
X0337233Y0062634D01*
Y0063350D01*
X0336959Y0064012D01*
X0336502Y0064468D01*
X0336959Y0064925D01*
X0337233Y0065587D01*
Y0066303D01*
X0336959Y0066965D01*
X0336502Y0067421D01*
X0336959Y0067878D01*
X0337233Y0068540D01*
Y0069256D01*
X0336959Y0069917D01*
X0336453Y0070424D01*
X0335791Y0070698D01*
D02*
G37*
G36*
X0237760Y0066170D02*
X0237044D01*
X0236382Y0065896D01*
X0235876Y0065390D01*
X0235602Y0064728D01*
Y0064469D01*
X0235201Y0064202D01*
X0234485D01*
X0233823Y0063928D01*
X0233317Y0063421D01*
X0233043Y0062760D01*
Y0062043D01*
X0233317Y0061382D01*
X0233823Y0060876D01*
X0234485Y0060602D01*
X0235201D01*
X0235862Y0060876D01*
X0236368Y0061382D01*
X0236643Y0062043D01*
Y0062302D01*
X0237044Y0062570D01*
X0237760D01*
X0238421Y0062844D01*
X0238928Y0063350D01*
X0239202Y0064012D01*
Y0064728D01*
X0238928Y0065390D01*
X0238421Y0065896D01*
X0237760Y0066170D01*
D02*
G37*
G36*
X0159315Y0063611D02*
X0158599D01*
X0157937Y0063337D01*
X0157431Y0062831D01*
X0157157Y0062169D01*
Y0061453D01*
X0157431Y0060791D01*
X0157937Y0060285D01*
X0158599Y0060011D01*
X0159315D01*
X0159976Y0060285D01*
X0160483Y0060791D01*
X0160757Y0061453D01*
Y0062169D01*
X0160483Y0062831D01*
X0159976Y0063337D01*
X0159315Y0063611D01*
D02*
G37*
G36*
X0329590Y0061150D02*
X0328874D01*
X0328213Y0060876D01*
X0327706Y0060370D01*
X0327432Y0059708D01*
Y0058992D01*
X0327706Y0058331D01*
X0328213Y0057824D01*
X0328874Y0057550D01*
X0329590D01*
X0330252Y0057824D01*
X0330758Y0058331D01*
X0331032Y0058992D01*
Y0059708D01*
X0330758Y0060370D01*
X0330252Y0060876D01*
X0329590Y0061150D01*
D02*
G37*
G36*
X0128705Y0061150D02*
X0127988D01*
X0127327Y0060876D01*
X0126821Y0060370D01*
X0126547Y0059708D01*
Y0058992D01*
X0126821Y0058331D01*
X0127327Y0057824D01*
X0127988Y0057550D01*
X0128705D01*
X0129366Y0057824D01*
X0129872Y0058331D01*
X0130147Y0058992D01*
Y0059708D01*
X0129872Y0060370D01*
X0129366Y0060876D01*
X0128705Y0061150D01*
D02*
G37*
G36*
X0094256D02*
X0093540D01*
X0092878Y0060876D01*
X0092372Y0060370D01*
X0092098Y0059708D01*
Y0058992D01*
X0092372Y0058331D01*
X0092878Y0057824D01*
X0093540Y0057550D01*
X0094256D01*
X0094917Y0057824D01*
X0095424Y0058331D01*
X0095698Y0058992D01*
Y0059708D01*
X0095424Y0060370D01*
X0094917Y0060876D01*
X0094256Y0061150D01*
D02*
G37*
G36*
X0176638Y0057804D02*
X0175921D01*
X0175260Y0057530D01*
X0174754Y0057024D01*
X0174479Y0056362D01*
Y0055646D01*
X0174754Y0054984D01*
X0175260Y0054478D01*
X0175921Y0054204D01*
X0176638D01*
X0177299Y0054478D01*
X0177805Y0054984D01*
X0178079Y0055646D01*
Y0056362D01*
X0177805Y0057024D01*
X0177299Y0057530D01*
X0176638Y0057804D01*
D02*
G37*
G36*
X0060673Y0056721D02*
X0059957D01*
X0059295Y0056447D01*
X0058789Y0055941D01*
X0058515Y0055279D01*
Y0054563D01*
X0058789Y0053902D01*
X0059295Y0053395D01*
X0059957Y0053121D01*
X0060673D01*
X0061335Y0053395D01*
X0061841Y0053902D01*
X0062115Y0054563D01*
Y0055279D01*
X0061841Y0055941D01*
X0061335Y0056447D01*
X0060673Y0056721D01*
D02*
G37*
G36*
X0094945Y0056721D02*
X0094229D01*
X0093567Y0056447D01*
X0093061Y0055941D01*
X0092787Y0055279D01*
Y0054563D01*
X0093061Y0053902D01*
X0093567Y0053395D01*
X0094229Y0053121D01*
X0094945D01*
X0095606Y0053395D01*
X0096113Y0053902D01*
X0096387Y0054563D01*
Y0055279D01*
X0096113Y0055941D01*
X0095606Y0056447D01*
X0094945Y0056721D01*
D02*
G37*
G36*
X0152052Y0055904D02*
X0151336D01*
X0150674Y0055630D01*
X0150168Y0055124D01*
X0149894Y0054462D01*
Y0053746D01*
X0150168Y0053084D01*
X0150674Y0052578D01*
X0151336Y0052304D01*
X0152052D01*
X0152713Y0052578D01*
X0153220Y0053084D01*
X0153494Y0053746D01*
Y0054462D01*
X0153220Y0055124D01*
X0152713Y0055630D01*
X0152052Y0055904D01*
D02*
G37*
G36*
X0367189Y0054457D02*
X0366473D01*
X0365811Y0054183D01*
X0365305Y0053677D01*
X0365031Y0053016D01*
Y0052299D01*
X0365305Y0051638D01*
X0365811Y0051131D01*
X0366473Y0050858D01*
X0367189D01*
X0367850Y0051131D01*
X0368357Y0051638D01*
X0368631Y0052299D01*
Y0053016D01*
X0368357Y0053677D01*
X0367850Y0054183D01*
X0367189Y0054457D01*
D02*
G37*
G36*
X0320011Y0054228D02*
X0319295D01*
X0318633Y0053954D01*
X0318127Y0053448D01*
X0317853Y0052786D01*
Y0052070D01*
X0318127Y0051409D01*
X0318633Y0050902D01*
X0319295Y0050628D01*
X0320011D01*
X0320672Y0050902D01*
X0321179Y0051409D01*
X0321453Y0052070D01*
Y0052786D01*
X0321179Y0053448D01*
X0320672Y0053954D01*
X0320011Y0054228D01*
D02*
G37*
G36*
X0256264Y0051013D02*
X0255547D01*
X0254886Y0050739D01*
X0254528Y0050380D01*
X0254169Y0050739D01*
X0253508Y0051013D01*
X0252792D01*
X0252130Y0050739D01*
X0251624Y0050232D01*
X0251350Y0049571D01*
Y0048855D01*
X0251624Y0048193D01*
X0252130Y0047687D01*
X0252792Y0047413D01*
X0253508D01*
X0254169Y0047687D01*
X0254528Y0048045D01*
X0254886Y0047687D01*
X0255547Y0047413D01*
X0256264D01*
X0256925Y0047687D01*
X0257432Y0048193D01*
X0257705Y0048855D01*
Y0049571D01*
X0257432Y0050232D01*
X0256925Y0050739D01*
X0256264Y0051013D01*
D02*
G37*
G36*
X0199767Y0053670D02*
X0199051D01*
X0198390Y0053396D01*
X0197883Y0052890D01*
X0197609Y0052228D01*
Y0051512D01*
X0197883Y0050850D01*
X0198390Y0050344D01*
X0199051Y0050070D01*
X0199767D01*
X0200429Y0050344D01*
X0200935Y0050850D01*
X0201209Y0051512D01*
Y0052228D01*
X0200935Y0052890D01*
X0200429Y0053396D01*
X0199767Y0053670D01*
D02*
G37*
G36*
X0179492Y0051997D02*
X0178776D01*
X0178114Y0051723D01*
X0177608Y0051217D01*
X0177334Y0050555D01*
Y0049839D01*
X0177608Y0049177D01*
X0178114Y0048671D01*
X0178776Y0048397D01*
X0179492D01*
X0180154Y0048671D01*
X0180660Y0049177D01*
X0180934Y0049839D01*
Y0050555D01*
X0180660Y0051217D01*
X0180154Y0051723D01*
X0179492Y0051997D01*
D02*
G37*
G36*
X0161579Y0051603D02*
X0160862D01*
X0160201Y0051329D01*
X0159695Y0050823D01*
X0159421Y0050161D01*
Y0049445D01*
X0159695Y0048784D01*
X0160201Y0048277D01*
X0160862Y0048003D01*
X0161579D01*
X0162240Y0048277D01*
X0162747Y0048784D01*
X0163021Y0049445D01*
Y0050161D01*
X0162747Y0050823D01*
X0162240Y0051329D01*
X0161579Y0051603D01*
D02*
G37*
G36*
X0185434Y0048158D02*
X0184718D01*
X0184056Y0047884D01*
X0183926Y0047754D01*
X0183795Y0047884D01*
X0183134Y0048158D01*
X0182418D01*
X0181756Y0047884D01*
X0181250Y0047378D01*
X0180976Y0046716D01*
Y0046000D01*
X0181250Y0045339D01*
X0181756Y0044832D01*
X0182418Y0044558D01*
X0183134D01*
X0183795Y0044832D01*
X0183926Y0044963D01*
X0184056Y0044832D01*
X0184718Y0044558D01*
X0185434D01*
X0186095Y0044832D01*
X0186217Y0044954D01*
X0186356Y0044814D01*
X0187018Y0044540D01*
X0187734D01*
X0188395Y0044814D01*
X0188901Y0045321D01*
X0189175Y0045982D01*
Y0046698D01*
X0188901Y0047360D01*
X0188395Y0047866D01*
X0187734Y0048140D01*
X0187018D01*
X0186356Y0047866D01*
X0186234Y0047745D01*
X0186095Y0047884D01*
X0185434Y0048158D01*
D02*
G37*
G36*
X0151933Y0050520D02*
X0151217D01*
X0150555Y0050247D01*
X0150049Y0049740D01*
X0149775Y0049079D01*
Y0048362D01*
X0149814Y0048268D01*
X0149684Y0048073D01*
X0149456Y0047827D01*
X0148882Y0047589D01*
X0148767Y0047474D01*
X0148605Y0047636D01*
X0147944Y0047910D01*
X0147228D01*
X0146566Y0047636D01*
X0146060Y0047130D01*
X0145786Y0046468D01*
Y0045752D01*
X0146060Y0045091D01*
X0146566Y0044584D01*
X0147228Y0044310D01*
X0147944D01*
X0148605Y0044584D01*
X0148720Y0044699D01*
X0148882Y0044537D01*
X0149544Y0044263D01*
X0150260D01*
X0150921Y0044537D01*
X0151428Y0045043D01*
X0151953Y0045095D01*
X0152299Y0044952D01*
X0153015D01*
X0153677Y0045226D01*
X0154183Y0045732D01*
X0154457Y0046394D01*
Y0047110D01*
X0154183Y0047772D01*
X0153677Y0048278D01*
X0153375Y0048403D01*
Y0049079D01*
X0153101Y0049740D01*
X0152594Y0050247D01*
X0151933Y0050520D01*
D02*
G37*
G36*
X0245437Y0050816D02*
X0244721D01*
X0244059Y0050542D01*
X0243553Y0050035D01*
X0243279Y0049374D01*
Y0048658D01*
X0243553Y0047996D01*
X0244059Y0047490D01*
X0244721Y0047216D01*
X0245437D01*
X0246098Y0047490D01*
X0246605Y0047996D01*
X0246879Y0048658D01*
Y0049374D01*
X0246605Y0050035D01*
X0246098Y0050542D01*
X0245437Y0050816D01*
D02*
G37*
G36*
X0232642D02*
X0231925D01*
X0231264Y0050542D01*
X0230757Y0050035D01*
X0230484Y0049374D01*
Y0048658D01*
X0230757Y0047996D01*
X0231264Y0047490D01*
X0231925Y0047216D01*
X0232642D01*
X0233303Y0047490D01*
X0233809Y0047996D01*
X0234084Y0048658D01*
Y0049374D01*
X0233809Y0050035D01*
X0233303Y0050542D01*
X0232642Y0050816D01*
D02*
G37*
G36*
X0329590Y0047666D02*
X0328874D01*
X0328213Y0047392D01*
X0327854Y0047034D01*
X0327497Y0047392D01*
X0326835Y0047666D01*
X0326119D01*
X0325457Y0047392D01*
X0324951Y0046885D01*
X0324677Y0046224D01*
Y0045507D01*
X0324951Y0044846D01*
X0325457Y0044340D01*
X0326119Y0044065D01*
X0326835D01*
X0327497Y0044340D01*
X0327855Y0044698D01*
X0328213Y0044340D01*
X0328874Y0044066D01*
X0329590D01*
X0330252Y0044340D01*
X0330758Y0044846D01*
X0331032Y0045508D01*
Y0046224D01*
X0330758Y0046886D01*
X0330252Y0047392D01*
X0329590Y0047666D01*
D02*
G37*
G36*
X0249275Y0047371D02*
X0248559D01*
X0247898Y0047097D01*
X0247391Y0046591D01*
X0247117Y0045929D01*
Y0045213D01*
X0247391Y0044551D01*
X0247898Y0044045D01*
X0248559Y0043771D01*
X0249275D01*
X0249937Y0044045D01*
X0250443Y0044551D01*
X0250717Y0045213D01*
Y0045929D01*
X0250443Y0046591D01*
X0249937Y0047097D01*
X0249275Y0047371D01*
D02*
G37*
G36*
X0347208Y0045895D02*
X0346492D01*
X0345831Y0045620D01*
X0345324Y0045114D01*
X0345050Y0044453D01*
Y0043736D01*
X0345324Y0043075D01*
X0345831Y0042568D01*
X0346492Y0042294D01*
X0347208D01*
X0347870Y0042568D01*
X0348376Y0043075D01*
X0348650Y0043736D01*
Y0044453D01*
X0348376Y0045114D01*
X0347870Y0045620D01*
X0347208Y0045895D01*
D02*
G37*
G36*
X0335201D02*
X0334485D01*
X0333823Y0045620D01*
X0333317Y0045114D01*
X0333043Y0044453D01*
Y0043736D01*
X0333317Y0043075D01*
X0333823Y0042568D01*
X0334485Y0042294D01*
X0335201D01*
X0335862Y0042568D01*
X0336368Y0043075D01*
X0336643Y0043736D01*
Y0044453D01*
X0336368Y0045114D01*
X0335862Y0045620D01*
X0335201Y0045895D01*
D02*
G37*
G36*
X0069213Y0047181D02*
X0061043D01*
X0060653Y0047103D01*
X0060322Y0046882D01*
X0060101Y0046552D01*
X0060024Y0046161D01*
Y0043012D01*
X0060101Y0042622D01*
X0060322Y0042291D01*
X0060653Y0042070D01*
X0061043Y0041992D01*
X0069213D01*
X0069603Y0042070D01*
X0069934Y0042291D01*
X0070155Y0042622D01*
X0070232Y0043012D01*
Y0046161D01*
X0070155Y0046552D01*
X0069934Y0046882D01*
X0069603Y0047103D01*
X0069213Y0047181D01*
D02*
G37*
G36*
X0127657Y0047181D02*
X0119488D01*
X0119098Y0047103D01*
X0118767Y0046882D01*
X0118546Y0046551D01*
X0118469Y0046161D01*
Y0043012D01*
X0118546Y0042622D01*
X0118767Y0042291D01*
X0119098Y0042070D01*
X0119488Y0041992D01*
X0127657D01*
X0128048Y0042070D01*
X0128378Y0042291D01*
X0128600Y0042622D01*
X0128677Y0043012D01*
Y0046161D01*
X0128600Y0046551D01*
X0128378Y0046882D01*
X0128048Y0047103D01*
X0127657Y0047181D01*
D02*
G37*
G36*
X0093386Y0047181D02*
X0085217D01*
X0084826Y0047103D01*
X0084496Y0046882D01*
X0084275Y0046552D01*
X0084197Y0046161D01*
Y0043012D01*
X0084275Y0042622D01*
X0084496Y0042291D01*
X0084826Y0042070D01*
X0085217Y0041992D01*
X0093386D01*
X0093776Y0042070D01*
X0094107Y0042291D01*
X0094594Y0042291D01*
X0094925Y0042070D01*
X0095315Y0041992D01*
X0103484D01*
X0103875Y0042070D01*
X0104205Y0042291D01*
X0104426Y0042622D01*
X0104504Y0043012D01*
Y0046161D01*
X0104426Y0046551D01*
X0104205Y0046882D01*
X0103875Y0047103D01*
X0103484Y0047181D01*
X0095315D01*
X0094925Y0047103D01*
X0094594Y0046882D01*
X0094107Y0046882D01*
X0093776Y0047103D01*
X0093386Y0047181D01*
D02*
G37*
G36*
X0369139Y0044006D02*
X0368423D01*
X0367761Y0043732D01*
X0367255Y0043226D01*
X0366981Y0042564D01*
Y0041848D01*
X0367255Y0041186D01*
X0367761Y0040680D01*
X0368423Y0040406D01*
X0369139D01*
X0369800Y0040680D01*
X0370307Y0041186D01*
X0370581Y0041848D01*
Y0042564D01*
X0370307Y0043226D01*
X0369800Y0043732D01*
X0369139Y0044006D01*
D02*
G37*
G36*
X0191008Y0043926D02*
X0190292D01*
X0189630Y0043652D01*
X0189124Y0043146D01*
X0188850Y0042484D01*
Y0041768D01*
X0189124Y0041106D01*
X0189630Y0040600D01*
X0190292Y0040326D01*
X0191008D01*
X0191669Y0040600D01*
X0192176Y0041106D01*
X0192450Y0041768D01*
Y0042484D01*
X0192176Y0043146D01*
X0191669Y0043652D01*
X0191008Y0043926D01*
D02*
G37*
G36*
X0019046Y0045974D02*
X0018905D01*
Y0039968D01*
X0024911D01*
Y0040109D01*
X0024661Y0041366D01*
X0024171Y0042550D01*
X0023459Y0043615D01*
X0022553Y0044522D01*
X0021487Y0045234D01*
X0020303Y0045724D01*
X0019046Y0045974D01*
D02*
G37*
G36*
X0017906D02*
X0017765D01*
X0016508Y0045724D01*
X0015324Y0045234D01*
X0014258Y0044522D01*
X0013352Y0043615D01*
X0012640Y0042550D01*
X0012150Y0041366D01*
X0011900Y0040109D01*
Y0039968D01*
X0017906D01*
Y0045974D01*
D02*
G37*
G36*
X0306854Y0050422D02*
X0306138D01*
X0305476Y0050148D01*
X0304970Y0049642D01*
X0304696Y0048980D01*
Y0048264D01*
X0304970Y0047602D01*
X0305466Y0047107D01*
X0304970Y0046611D01*
X0304696Y0045949D01*
Y0045318D01*
X0304516Y0045090D01*
X0304289Y0044910D01*
X0303657D01*
X0302995Y0044636D01*
X0302489Y0044130D01*
X0302215Y0043468D01*
Y0042752D01*
X0302489Y0042091D01*
X0302995Y0041584D01*
X0303657Y0041310D01*
X0304289D01*
X0304516Y0041130D01*
X0304696Y0040903D01*
Y0040271D01*
X0304970Y0039610D01*
X0305476Y0039103D01*
X0306138Y0038829D01*
X0306854D01*
X0307516Y0039103D01*
X0308022Y0039610D01*
X0308296Y0040271D01*
Y0040987D01*
X0308022Y0041649D01*
X0307516Y0042155D01*
X0306854Y0042429D01*
X0306222D01*
X0305995Y0042609D01*
X0305815Y0042836D01*
Y0043384D01*
X0305995Y0043611D01*
X0306222Y0043791D01*
X0306854D01*
X0307516Y0044065D01*
X0308022Y0044572D01*
X0308296Y0045233D01*
Y0045949D01*
X0308022Y0046611D01*
X0307526Y0047107D01*
X0308022Y0047602D01*
X0308296Y0048264D01*
Y0048980D01*
X0308022Y0049642D01*
X0307516Y0050148D01*
X0306854Y0050422D01*
D02*
G37*
G36*
X0300024Y0041761D02*
X0299308D01*
X0298647Y0041487D01*
X0298140Y0040980D01*
X0297866Y0040319D01*
Y0039690D01*
X0297615Y0039419D01*
X0297451Y0039299D01*
X0296788D01*
X0296126Y0039025D01*
X0295620Y0038519D01*
X0295346Y0037857D01*
Y0037141D01*
X0295620Y0036480D01*
X0296126Y0035973D01*
X0296788Y0035699D01*
X0297504D01*
X0298165Y0035973D01*
X0298672Y0036480D01*
X0298946Y0037141D01*
Y0037770D01*
X0299197Y0038041D01*
X0299361Y0038161D01*
X0300024D01*
X0300686Y0038435D01*
X0301192Y0038941D01*
X0301466Y0039603D01*
Y0040319D01*
X0301192Y0040980D01*
X0300686Y0041487D01*
X0300024Y0041761D01*
D02*
G37*
G36*
X0252622Y0038611D02*
X0251906D01*
X0251244Y0038337D01*
X0250738Y0037831D01*
X0250464Y0037169D01*
Y0036453D01*
X0250738Y0035791D01*
X0251244Y0035285D01*
X0251906Y0035011D01*
X0252622D01*
X0253283Y0035285D01*
X0253790Y0035791D01*
X0254064Y0036453D01*
Y0037169D01*
X0253790Y0037831D01*
X0253283Y0038337D01*
X0252622Y0038611D01*
D02*
G37*
G36*
X0240895Y0038429D02*
X0240178D01*
X0239517Y0038155D01*
X0239011Y0037649D01*
X0238736Y0036987D01*
Y0036271D01*
X0239011Y0035609D01*
X0239517Y0035103D01*
X0240178Y0034829D01*
X0240895D01*
X0241556Y0035103D01*
X0242062Y0035609D01*
X0242336Y0036271D01*
Y0036987D01*
X0242062Y0037649D01*
X0241556Y0038155D01*
X0240895Y0038429D01*
D02*
G37*
G36*
X0069272Y0038520D02*
X0061102D01*
X0060712Y0038442D01*
X0060381Y0038221D01*
X0060160Y0037890D01*
X0060083Y0037500D01*
Y0034350D01*
X0060160Y0033960D01*
X0060381Y0033629D01*
X0060712Y0033408D01*
X0061102Y0033331D01*
X0069272D01*
X0069662Y0033408D01*
X0069993Y0033629D01*
X0070214Y0033960D01*
X0070291Y0034350D01*
Y0037500D01*
X0070214Y0037890D01*
X0069993Y0038221D01*
X0069662Y0038442D01*
X0069272Y0038520D01*
D02*
G37*
G36*
X0093386Y0038520D02*
X0085216D01*
X0084826Y0038442D01*
X0084496Y0038221D01*
X0084275Y0037890D01*
X0084197Y0037500D01*
Y0034350D01*
X0084275Y0033960D01*
X0084496Y0033629D01*
X0084826Y0033408D01*
X0085216Y0033331D01*
X0093386D01*
X0093776Y0033408D01*
X0094107Y0033629D01*
X0094653Y0033629D01*
X0094984Y0033408D01*
X0095374Y0033331D01*
X0103543D01*
X0103934Y0033408D01*
X0104264Y0033629D01*
X0104485Y0033960D01*
X0104563Y0034350D01*
Y0037500D01*
X0104485Y0037890D01*
X0104264Y0038221D01*
X0103934Y0038442D01*
X0103543Y0038520D01*
X0095374D01*
X0094984Y0038442D01*
X0094653Y0038221D01*
X0094107Y0038221D01*
X0093776Y0038442D01*
X0093386Y0038520D01*
D02*
G37*
G36*
X0127657Y0038519D02*
X0119488D01*
X0119098Y0038442D01*
X0118767Y0038221D01*
X0118546Y0037890D01*
X0118469Y0037500D01*
Y0034350D01*
X0118546Y0033960D01*
X0118767Y0033629D01*
X0119098Y0033408D01*
X0119488Y0033331D01*
X0127657D01*
X0128048Y0033408D01*
X0128378Y0033629D01*
X0128600Y0033960D01*
X0128677Y0034350D01*
Y0037500D01*
X0128600Y0037890D01*
X0128378Y0038221D01*
X0128048Y0038442D01*
X0127657Y0038519D01*
D02*
G37*
G36*
X0024911Y0038969D02*
X0018905D01*
Y0032963D01*
X0019046D01*
X0020303Y0033213D01*
X0021487Y0033703D01*
X0022553Y0034415D01*
X0023459Y0035322D01*
X0024171Y0036387D01*
X0024661Y0037571D01*
X0024911Y0038828D01*
Y0038969D01*
D02*
G37*
G36*
X0017906D02*
X0011900D01*
Y0038828D01*
X0012150Y0037571D01*
X0012640Y0036387D01*
X0013352Y0035322D01*
X0014258Y0034415D01*
X0015324Y0033703D01*
X0016508Y0033213D01*
X0017765Y0032963D01*
X0017906D01*
Y0038969D01*
D02*
G37*
G36*
X0257937Y0036446D02*
X0257221D01*
X0256559Y0036172D01*
X0256053Y0035665D01*
X0255779Y0035004D01*
Y0034288D01*
X0256053Y0033626D01*
X0256559Y0033120D01*
X0257221Y0032846D01*
X0257937D01*
X0258598Y0033120D01*
X0259105Y0033626D01*
X0259379Y0034288D01*
Y0035004D01*
X0259105Y0035665D01*
X0258598Y0036172D01*
X0257937Y0036446D01*
D02*
G37*
G36*
X0185594Y0033887D02*
X0184878D01*
X0184217Y0033613D01*
X0183710Y0033106D01*
X0183436Y0032445D01*
Y0031729D01*
X0183710Y0031067D01*
X0184217Y0030561D01*
X0184878Y0030287D01*
X0185594D01*
X0186256Y0030561D01*
X0186762Y0031067D01*
X0187036Y0031729D01*
Y0032445D01*
X0186762Y0033106D01*
X0186256Y0033613D01*
X0185594Y0033887D01*
D02*
G37*
G36*
X0386173Y0037551D02*
X0378787D01*
Y0030165D01*
X0386173D01*
Y0037551D01*
D02*
G37*
G36*
X0181067Y0032902D02*
X0180351D01*
X0179689Y0032628D01*
X0179183Y0032122D01*
X0178909Y0031460D01*
Y0030744D01*
X0179183Y0030083D01*
X0179689Y0029576D01*
X0180351Y0029302D01*
X0181067D01*
X0181728Y0029576D01*
X0182235Y0030083D01*
X0182509Y0030744D01*
Y0031460D01*
X0182235Y0032122D01*
X0181728Y0032628D01*
X0181067Y0032902D01*
D02*
G37*
G36*
X0382980Y0029259D02*
Y0026484D01*
X0385755D01*
X0385549Y0027255D01*
X0385115Y0028006D01*
X0384502Y0028619D01*
X0383751Y0029053D01*
X0382980Y0029259D01*
D02*
G37*
G36*
X0381980Y0029259D02*
X0381209Y0029053D01*
X0380458Y0028619D01*
X0379845Y0028006D01*
X0379412Y0027255D01*
X0379205Y0026484D01*
X0381980D01*
Y0029259D01*
D02*
G37*
G36*
X0265358Y0030561D02*
X0265224D01*
Y0026248D01*
X0269537D01*
Y0026382D01*
X0269209Y0027606D01*
X0268576Y0028703D01*
X0267679Y0029599D01*
X0266582Y0030233D01*
X0265358Y0030561D01*
D02*
G37*
G36*
X0264224D02*
X0264091D01*
X0262867Y0030233D01*
X0261769Y0029599D01*
X0260873Y0028703D01*
X0260240Y0027606D01*
X0259912Y0026382D01*
Y0026248D01*
X0264224D01*
Y0030561D01*
D02*
G37*
G36*
X0245358D02*
X0245224D01*
Y0026248D01*
X0249537D01*
Y0026382D01*
X0249209Y0027606D01*
X0248575Y0028703D01*
X0247679Y0029599D01*
X0246582Y0030233D01*
X0245358Y0030561D01*
D02*
G37*
G36*
X0244224D02*
X0244091D01*
X0242867Y0030233D01*
X0241769Y0029599D01*
X0240873Y0028703D01*
X0240240Y0027606D01*
X0239912Y0026382D01*
Y0026248D01*
X0244224D01*
Y0030561D01*
D02*
G37*
G36*
X0225988D02*
X0225854D01*
Y0026248D01*
X0230167D01*
Y0026382D01*
X0229839Y0027606D01*
X0229205Y0028703D01*
X0228309Y0029599D01*
X0227212Y0030233D01*
X0225988Y0030561D01*
D02*
G37*
G36*
X0224854D02*
X0224721D01*
X0223497Y0030233D01*
X0222399Y0029599D01*
X0221503Y0028703D01*
X0220870Y0027606D01*
X0220542Y0026382D01*
Y0026248D01*
X0224854D01*
Y0030561D01*
D02*
G37*
G36*
X0205988D02*
X0205854D01*
Y0026248D01*
X0210167D01*
Y0026382D01*
X0209839Y0027606D01*
X0209205Y0028703D01*
X0208309Y0029599D01*
X0207212Y0030233D01*
X0205988Y0030561D01*
D02*
G37*
G36*
X0204854D02*
X0204721D01*
X0203497Y0030233D01*
X0202399Y0029599D01*
X0201503Y0028703D01*
X0200870Y0027606D01*
X0200542Y0026382D01*
Y0026248D01*
X0204854D01*
Y0030561D01*
D02*
G37*
G36*
X0382480Y0025984D02*
D01*
D01*
D01*
D02*
G37*
G36*
X0069272Y0029858D02*
X0061102D01*
X0060712Y0029781D01*
X0060381Y0029559D01*
X0060160Y0029229D01*
X0060083Y0028839D01*
Y0025689D01*
X0060160Y0025299D01*
X0060381Y0024968D01*
X0060712Y0024747D01*
X0061102Y0024669D01*
X0069272D01*
X0069662Y0024747D01*
X0069993Y0024968D01*
X0070214Y0025299D01*
X0070291Y0025689D01*
Y0028839D01*
X0070214Y0029229D01*
X0069993Y0029559D01*
X0069662Y0029781D01*
X0069272Y0029858D01*
D02*
G37*
G36*
X0093386Y0029858D02*
X0085216D01*
X0084826Y0029781D01*
X0084496Y0029559D01*
X0084275Y0029229D01*
X0084197Y0028839D01*
Y0025689D01*
X0084275Y0025299D01*
X0084496Y0024968D01*
X0084826Y0024747D01*
X0085216Y0024669D01*
X0093386D01*
X0093776Y0024747D01*
X0094107Y0024968D01*
X0094653Y0024968D01*
X0094984Y0024747D01*
X0095374Y0024669D01*
X0103543D01*
X0103934Y0024747D01*
X0104264Y0024968D01*
X0104485Y0025299D01*
X0104563Y0025689D01*
Y0028839D01*
X0104485Y0029229D01*
X0104264Y0029559D01*
X0103934Y0029781D01*
X0103543Y0029858D01*
X0095374D01*
X0094984Y0029781D01*
X0094653Y0029559D01*
X0094107Y0029559D01*
X0093776Y0029781D01*
X0093386Y0029858D01*
D02*
G37*
G36*
X0127657Y0029858D02*
X0119488D01*
X0119098Y0029781D01*
X0118767Y0029559D01*
X0118546Y0029229D01*
X0118469Y0028839D01*
Y0025689D01*
X0118546Y0025299D01*
X0118767Y0024968D01*
X0119098Y0024747D01*
X0119488Y0024669D01*
X0127657D01*
X0128048Y0024747D01*
X0128378Y0024968D01*
X0128600Y0025299D01*
X0128677Y0025689D01*
Y0028839D01*
X0128600Y0029229D01*
X0128378Y0029559D01*
X0128048Y0029781D01*
X0127657Y0029858D01*
D02*
G37*
G36*
X0148193Y0026406D02*
X0147477D01*
X0146815Y0026132D01*
X0146309Y0025626D01*
X0146035Y0024964D01*
Y0024248D01*
X0146309Y0023587D01*
X0146815Y0023080D01*
X0147477Y0022806D01*
X0148193D01*
X0148854Y0023080D01*
X0149361Y0023587D01*
X0149635Y0024248D01*
Y0024964D01*
X0149361Y0025626D01*
X0148854Y0026132D01*
X0148193Y0026406D01*
D02*
G37*
G36*
X0385755Y0025484D02*
X0382980D01*
Y0022709D01*
X0383751Y0022916D01*
X0384502Y0023349D01*
X0385115Y0023962D01*
X0385549Y0024713D01*
X0385755Y0025484D01*
D02*
G37*
G36*
X0381980D02*
X0379205D01*
X0379412Y0024713D01*
X0379845Y0023962D01*
X0380458Y0023349D01*
X0381209Y0022916D01*
X0381980Y0022709D01*
Y0025484D01*
D02*
G37*
G36*
X0184877Y0025146D02*
X0184160D01*
X0183499Y0024872D01*
X0182993Y0024365D01*
X0182719Y0023704D01*
Y0022988D01*
X0182993Y0022326D01*
X0183499Y0021820D01*
X0184160Y0021546D01*
X0184877D01*
X0185538Y0021820D01*
X0186045Y0022326D01*
X0186319Y0022988D01*
Y0023704D01*
X0186045Y0024365D01*
X0185538Y0024872D01*
X0184877Y0025146D01*
D02*
G37*
G36*
X0269537Y0025248D02*
X0265224D01*
Y0020935D01*
X0265358D01*
X0266582Y0021263D01*
X0267679Y0021897D01*
X0268576Y0022793D01*
X0269209Y0023890D01*
X0269537Y0025114D01*
Y0025248D01*
D02*
G37*
G36*
X0264224D02*
X0259912D01*
Y0025114D01*
X0260240Y0023890D01*
X0260873Y0022793D01*
X0261769Y0021897D01*
X0262867Y0021263D01*
X0264091Y0020935D01*
X0264224D01*
Y0025248D01*
D02*
G37*
G36*
X0249537D02*
X0245224D01*
Y0020935D01*
X0245358D01*
X0246582Y0021263D01*
X0247679Y0021897D01*
X0248575Y0022793D01*
X0249209Y0023890D01*
X0249537Y0025114D01*
Y0025248D01*
D02*
G37*
G36*
X0244224D02*
X0239912D01*
Y0025114D01*
X0240240Y0023890D01*
X0240873Y0022793D01*
X0241769Y0021897D01*
X0242867Y0021263D01*
X0244091Y0020935D01*
X0244224D01*
Y0025248D01*
D02*
G37*
G36*
X0230167D02*
X0225854D01*
Y0020935D01*
X0225988D01*
X0227212Y0021263D01*
X0228309Y0021897D01*
X0229205Y0022793D01*
X0229839Y0023890D01*
X0230167Y0025114D01*
Y0025248D01*
D02*
G37*
G36*
X0224854D02*
X0220542D01*
Y0025114D01*
X0220870Y0023890D01*
X0221503Y0022793D01*
X0222399Y0021897D01*
X0223497Y0021263D01*
X0224721Y0020935D01*
X0224854D01*
Y0025248D01*
D02*
G37*
G36*
X0210167D02*
X0205854D01*
Y0020935D01*
X0205988D01*
X0207212Y0021263D01*
X0208309Y0021897D01*
X0209205Y0022793D01*
X0209839Y0023890D01*
X0210167Y0025114D01*
Y0025248D01*
D02*
G37*
G36*
X0204854D02*
X0200542D01*
Y0025114D01*
X0200870Y0023890D01*
X0201503Y0022793D01*
X0202399Y0021897D01*
X0203497Y0021263D01*
X0204721Y0020935D01*
X0204854D01*
Y0025248D01*
D02*
G37*
G36*
X0049696Y0030413D02*
X0048533D01*
X0047392Y0030186D01*
X0046317Y0029741D01*
X0045350Y0029095D01*
X0044527Y0028272D01*
X0043881Y0027305D01*
X0043436Y0026230D01*
X0043209Y0025089D01*
Y0023926D01*
X0043436Y0022785D01*
X0043881Y0021711D01*
X0044527Y0020743D01*
X0045350Y0019921D01*
X0046317Y0019275D01*
X0047392Y0018829D01*
X0048533Y0018602D01*
X0049696D01*
X0050837Y0018829D01*
X0051911Y0019275D01*
X0052879Y0019921D01*
X0053701Y0020743D01*
X0054348Y0021711D01*
X0054793Y0022785D01*
X0055020Y0023926D01*
Y0025089D01*
X0054793Y0026230D01*
X0054348Y0027305D01*
X0053701Y0028272D01*
X0052879Y0029095D01*
X0051911Y0029741D01*
X0050837Y0030186D01*
X0049696Y0030413D01*
D02*
G37*
G36*
X0075689Y0020409D02*
X0066831D01*
X0066440Y0020332D01*
X0066110Y0020111D01*
X0065889Y0019780D01*
X0065811Y0019390D01*
Y0016240D01*
X0065889Y0015850D01*
X0066110Y0015519D01*
X0066440Y0015298D01*
X0066831Y0015221D01*
X0075689D01*
X0075941Y0015271D01*
X0076122Y0015265D01*
X0076497Y0014976D01*
X0076519Y0014866D01*
X0076740Y0014535D01*
X0077070Y0014314D01*
X0077461Y0014236D01*
X0087303D01*
X0087693Y0014314D01*
X0088024Y0014535D01*
X0088245Y0014866D01*
X0088323Y0015256D01*
Y0019193D01*
X0088245Y0019583D01*
X0088024Y0019914D01*
X0087693Y0020135D01*
X0087303Y0020212D01*
X0077461D01*
X0077070Y0020135D01*
X0076740Y0019914D01*
X0076313Y0020175D01*
X0076079Y0020332D01*
X0075689Y0020409D01*
D02*
G37*
G36*
X0346898Y0020370D02*
X0345858D01*
X0344852Y0020101D01*
X0343951Y0019580D01*
X0343215Y0018844D01*
X0342695Y0017943D01*
X0342425Y0016938D01*
Y0015897D01*
X0342695Y0014892D01*
X0343215Y0013990D01*
X0343951Y0013254D01*
X0344852Y0012734D01*
X0345858Y0012465D01*
X0346898D01*
X0347904Y0012734D01*
X0348805Y0013254D01*
X0349541Y0013990D01*
X0350061Y0014892D01*
X0350331Y0015897D01*
Y0016938D01*
X0350061Y0017943D01*
X0349541Y0018844D01*
X0348805Y0019580D01*
X0347904Y0020101D01*
X0346898Y0020370D01*
D02*
G37*
G36*
X0336898D02*
X0335858D01*
X0334852Y0020101D01*
X0333951Y0019580D01*
X0333215Y0018844D01*
X0332695Y0017943D01*
X0332425Y0016938D01*
Y0015897D01*
X0332695Y0014892D01*
X0333215Y0013990D01*
X0333951Y0013254D01*
X0334852Y0012734D01*
X0335858Y0012465D01*
X0336898D01*
X0337904Y0012734D01*
X0338805Y0013254D01*
X0339541Y0013990D01*
X0340061Y0014892D01*
X0340331Y0015897D01*
Y0016938D01*
X0340061Y0017943D01*
X0339541Y0018844D01*
X0338805Y0019580D01*
X0337904Y0020101D01*
X0336898Y0020370D01*
D02*
G37*
G36*
X0326898D02*
X0325858D01*
X0324852Y0020101D01*
X0323951Y0019580D01*
X0323215Y0018844D01*
X0322695Y0017943D01*
X0322425Y0016938D01*
Y0015897D01*
X0322695Y0014892D01*
X0323215Y0013990D01*
X0323951Y0013254D01*
X0324852Y0012734D01*
X0325858Y0012465D01*
X0326898D01*
X0327904Y0012734D01*
X0328805Y0013254D01*
X0329541Y0013990D01*
X0330061Y0014892D01*
X0330331Y0015897D01*
Y0016938D01*
X0330061Y0017943D01*
X0329541Y0018844D01*
X0328805Y0019580D01*
X0327904Y0020101D01*
X0326898Y0020370D01*
D02*
G37*
G36*
X0316898D02*
X0315858D01*
X0314852Y0020101D01*
X0313951Y0019580D01*
X0313215Y0018844D01*
X0312695Y0017943D01*
X0312425Y0016938D01*
Y0015897D01*
X0312695Y0014892D01*
X0313215Y0013990D01*
X0313951Y0013254D01*
X0314852Y0012734D01*
X0315858Y0012465D01*
X0316898D01*
X0317904Y0012734D01*
X0318805Y0013254D01*
X0319541Y0013990D01*
X0320061Y0014892D01*
X0320331Y0015897D01*
Y0016938D01*
X0320061Y0017943D01*
X0319541Y0018844D01*
X0318805Y0019580D01*
X0317904Y0020101D01*
X0316898Y0020370D01*
D02*
G37*
G36*
X0306945D02*
X0305904D01*
X0304899Y0020101D01*
X0303997Y0019580D01*
X0303261Y0018844D01*
X0302741Y0017943D01*
X0302472Y0016938D01*
Y0015897D01*
X0302741Y0014892D01*
X0303261Y0013990D01*
X0303997Y0013254D01*
X0304899Y0012734D01*
X0305904Y0012465D01*
X0306945D01*
X0307950Y0012734D01*
X0308851Y0013254D01*
X0309587Y0013990D01*
X0310108Y0014892D01*
X0310377Y0015897D01*
Y0016938D01*
X0310108Y0017943D01*
X0309587Y0018844D01*
X0308851Y0019580D01*
X0307950Y0020101D01*
X0306945Y0020370D01*
D02*
G37*
G36*
X0296944D02*
X0295904D01*
X0294898Y0020101D01*
X0293997Y0019580D01*
X0293261Y0018844D01*
X0292741Y0017943D01*
X0292471Y0016938D01*
Y0015897D01*
X0292741Y0014892D01*
X0293261Y0013990D01*
X0293997Y0013254D01*
X0294898Y0012734D01*
X0295904Y0012465D01*
X0296944D01*
X0297950Y0012734D01*
X0298851Y0013254D01*
X0299587Y0013990D01*
X0300107Y0014892D01*
X0300377Y0015897D01*
Y0016938D01*
X0300107Y0017943D01*
X0299587Y0018844D01*
X0298851Y0019580D01*
X0297950Y0020101D01*
X0296944Y0020370D01*
D02*
G37*
G36*
X0357854Y0020419D02*
X0354902D01*
X0353935Y0020226D01*
X0353116Y0019679D01*
X0352569Y0018860D01*
X0352377Y0017894D01*
Y0014941D01*
X0352569Y0013975D01*
X0353116Y0013156D01*
X0353935Y0012608D01*
X0354902Y0012416D01*
X0357854D01*
X0358821Y0012608D01*
X0359640Y0013156D01*
X0360187Y0013975D01*
X0360379Y0014941D01*
Y0017894D01*
X0360187Y0018860D01*
X0359640Y0019679D01*
X0358821Y0020226D01*
X0357854Y0020419D01*
D02*
G37*
G36*
X0136283Y0015186D02*
X0135567D01*
X0134906Y0014912D01*
X0134399Y0014405D01*
X0134125Y0013744D01*
Y0013028D01*
X0134399Y0012366D01*
X0134906Y0011860D01*
X0135567Y0011586D01*
X0136283D01*
X0136945Y0011860D01*
X0137451Y0012366D01*
X0137725Y0013028D01*
Y0013744D01*
X0137451Y0014405D01*
X0136945Y0014912D01*
X0136283Y0015186D01*
D02*
G37*
G36*
X0141205Y0014497D02*
X0140488D01*
X0139827Y0014223D01*
X0139321Y0013716D01*
X0139047Y0013055D01*
Y0012339D01*
X0139321Y0011677D01*
X0139827Y0011171D01*
X0140488Y0010897D01*
X0141205D01*
X0141866Y0011171D01*
X0142372Y0011677D01*
X0142647Y0012339D01*
Y0013055D01*
X0142372Y0013716D01*
X0141866Y0014223D01*
X0141205Y0014497D01*
D02*
G37*
G36*
X0255411Y0020961D02*
X0254038D01*
X0252712Y0020605D01*
X0251524Y0019919D01*
X0250553Y0018949D01*
X0249867Y0017760D01*
X0249512Y0016434D01*
Y0015062D01*
X0249867Y0013736D01*
X0250553Y0012547D01*
X0251524Y0011577D01*
X0252712Y0010891D01*
X0254038Y0010535D01*
X0255411D01*
X0256736Y0010891D01*
X0257925Y0011577D01*
X0258895Y0012547D01*
X0259582Y0013736D01*
X0259937Y0015062D01*
Y0016434D01*
X0259582Y0017760D01*
X0258895Y0018949D01*
X0257925Y0019919D01*
X0256736Y0020605D01*
X0255411Y0020961D01*
D02*
G37*
G36*
X0216041D02*
X0214668D01*
X0213342Y0020605D01*
X0212154Y0019919D01*
X0211183Y0018949D01*
X0210497Y0017760D01*
X0210142Y0016434D01*
Y0015062D01*
X0210497Y0013736D01*
X0211183Y0012547D01*
X0212154Y0011577D01*
X0213342Y0010891D01*
X0214668Y0010535D01*
X0216041D01*
X0217366Y0010891D01*
X0218555Y0011577D01*
X0219525Y0012547D01*
X0220212Y0013736D01*
X0220567Y0015062D01*
Y0016434D01*
X0220212Y0017760D01*
X0219525Y0018949D01*
X0218555Y0019919D01*
X0217366Y0020605D01*
X0216041Y0020961D01*
D02*
G37*
G36*
X0019046Y0016053D02*
X0018905D01*
Y0010047D01*
X0024911D01*
Y0010188D01*
X0024661Y0011445D01*
X0024171Y0012629D01*
X0023459Y0013694D01*
X0022553Y0014600D01*
X0021487Y0015312D01*
X0020303Y0015803D01*
X0019046Y0016053D01*
D02*
G37*
G36*
X0017906D02*
X0017765D01*
X0016508Y0015803D01*
X0015324Y0015312D01*
X0014258Y0014600D01*
X0013352Y0013694D01*
X0012640Y0012629D01*
X0012150Y0011445D01*
X0011900Y0010188D01*
Y0010047D01*
X0017906D01*
Y0016053D01*
D02*
G37*
G36*
X0154590Y0013295D02*
X0153874D01*
X0153213Y0013021D01*
X0152706Y0012515D01*
X0152432Y0011853D01*
Y0011137D01*
X0152706Y0010476D01*
X0153213Y0009969D01*
X0153874Y0009695D01*
X0154590D01*
X0155252Y0009969D01*
X0155758Y0010476D01*
X0156032Y0011137D01*
Y0011853D01*
X0155758Y0012515D01*
X0155252Y0013021D01*
X0154590Y0013295D01*
D02*
G37*
G36*
X0164630Y0013119D02*
X0163914D01*
X0163252Y0012845D01*
X0162746Y0012338D01*
X0162472Y0011677D01*
Y0010961D01*
X0162746Y0010299D01*
X0163252Y0009793D01*
X0163914Y0009519D01*
X0164630D01*
X0165291Y0009793D01*
X0165798Y0010299D01*
X0166072Y0010961D01*
Y0011677D01*
X0165798Y0012338D01*
X0165291Y0012845D01*
X0164630Y0013119D01*
D02*
G37*
G36*
X0336878Y0009961D02*
Y0006917D01*
X0339922D01*
X0339689Y0007789D01*
X0339221Y0008599D01*
X0338559Y0009260D01*
X0337749Y0009728D01*
X0336878Y0009961D01*
D02*
G37*
G36*
X0346878D02*
Y0006917D01*
X0349922D01*
X0349689Y0007789D01*
X0349221Y0008599D01*
X0348559Y0009260D01*
X0347749Y0009728D01*
X0346878Y0009961D01*
D02*
G37*
G36*
X0326878D02*
Y0006917D01*
X0329922D01*
X0329689Y0007789D01*
X0329221Y0008599D01*
X0328559Y0009260D01*
X0327749Y0009728D01*
X0326878Y0009961D01*
D02*
G37*
G36*
X0335878D02*
X0335007Y0009728D01*
X0334196Y0009260D01*
X0333535Y0008599D01*
X0333067Y0007789D01*
X0332834Y0006917D01*
X0335878D01*
Y0009961D01*
D02*
G37*
G36*
X0325878D02*
X0325007Y0009728D01*
X0324197Y0009260D01*
X0323535Y0008599D01*
X0323067Y0007789D01*
X0322834Y0006917D01*
X0325878D01*
Y0009961D01*
D02*
G37*
G36*
X0345878D02*
X0345007Y0009728D01*
X0344197Y0009260D01*
X0343535Y0008599D01*
X0343067Y0007789D01*
X0342834Y0006917D01*
X0345878D01*
Y0009961D01*
D02*
G37*
G36*
X0265358Y0010561D02*
X0265224D01*
Y0006248D01*
X0269537D01*
Y0006382D01*
X0269209Y0007606D01*
X0268576Y0008703D01*
X0267679Y0009599D01*
X0266582Y0010233D01*
X0265358Y0010561D01*
D02*
G37*
G36*
X0264224D02*
X0264091D01*
X0262867Y0010233D01*
X0261769Y0009599D01*
X0260873Y0008703D01*
X0260240Y0007606D01*
X0259912Y0006382D01*
Y0006248D01*
X0264224D01*
Y0010561D01*
D02*
G37*
G36*
X0245358D02*
X0245224D01*
Y0006248D01*
X0249537D01*
Y0006382D01*
X0249209Y0007606D01*
X0248575Y0008703D01*
X0247679Y0009599D01*
X0246582Y0010233D01*
X0245358Y0010561D01*
D02*
G37*
G36*
X0244224D02*
X0244091D01*
X0242867Y0010233D01*
X0241769Y0009599D01*
X0240873Y0008703D01*
X0240240Y0007606D01*
X0239912Y0006382D01*
Y0006248D01*
X0244224D01*
Y0010561D01*
D02*
G37*
G36*
X0225988D02*
X0225854D01*
Y0006248D01*
X0230167D01*
Y0006382D01*
X0229839Y0007606D01*
X0229205Y0008703D01*
X0228309Y0009599D01*
X0227212Y0010233D01*
X0225988Y0010561D01*
D02*
G37*
G36*
X0224854D02*
X0224721D01*
X0223497Y0010233D01*
X0222399Y0009599D01*
X0221503Y0008703D01*
X0220870Y0007606D01*
X0220542Y0006382D01*
Y0006248D01*
X0224854D01*
Y0010561D01*
D02*
G37*
G36*
X0205988D02*
X0205854D01*
Y0006248D01*
X0210167D01*
Y0006382D01*
X0209839Y0007606D01*
X0209205Y0008703D01*
X0208309Y0009599D01*
X0207212Y0010233D01*
X0205988Y0010561D01*
D02*
G37*
G36*
X0204854D02*
X0204721D01*
X0203497Y0010233D01*
X0202399Y0009599D01*
X0201503Y0008703D01*
X0200870Y0007606D01*
X0200542Y0006382D01*
Y0006248D01*
X0204854D01*
Y0010561D01*
D02*
G37*
G36*
X0196618Y0006918D02*
X0195902D01*
X0195240Y0006644D01*
X0194783Y0006187D01*
X0194327Y0006644D01*
X0193665Y0006918D01*
X0192949D01*
X0192288Y0006644D01*
X0191781Y0006138D01*
X0191507Y0005476D01*
Y0004760D01*
X0191781Y0004098D01*
X0192288Y0003592D01*
X0192949Y0003318D01*
X0193665D01*
X0194327Y0003592D01*
X0194783Y0004049D01*
X0195240Y0003592D01*
X0195902Y0003318D01*
X0196618D01*
X0197280Y0003592D01*
X0197786Y0004098D01*
X0198060Y0004760D01*
Y0005476D01*
X0197786Y0006138D01*
X0197280Y0006644D01*
X0196618Y0006918D01*
D02*
G37*
G36*
X0024911Y0009047D02*
X0018905D01*
Y0003042D01*
X0019046D01*
X0020303Y0003292D01*
X0021487Y0003782D01*
X0022553Y0004494D01*
X0023459Y0005400D01*
X0024171Y0006466D01*
X0024661Y0007650D01*
X0024911Y0008907D01*
Y0009047D01*
D02*
G37*
G36*
X0017906D02*
X0011900D01*
Y0008907D01*
X0012150Y0007650D01*
X0012640Y0006466D01*
X0013352Y0005400D01*
X0014258Y0004494D01*
X0015324Y0003782D01*
X0016508Y0003292D01*
X0017765Y0003042D01*
X0017906D01*
Y0009047D01*
D02*
G37*
G36*
X0349922Y0005917D02*
X0346878D01*
Y0002873D01*
X0347749Y0003107D01*
X0348559Y0003574D01*
X0349221Y0004236D01*
X0349689Y0005046D01*
X0349922Y0005917D01*
D02*
G37*
G36*
X0339922D02*
X0336878D01*
Y0002873D01*
X0337749Y0003107D01*
X0338559Y0003574D01*
X0339221Y0004236D01*
X0339689Y0005046D01*
X0339922Y0005917D01*
D02*
G37*
G36*
X0329922D02*
X0326878D01*
Y0002873D01*
X0327749Y0003107D01*
X0328559Y0003574D01*
X0329221Y0004236D01*
X0329689Y0005046D01*
X0329922Y0005917D01*
D02*
G37*
G36*
X0345878D02*
X0342834D01*
X0343067Y0005046D01*
X0343535Y0004236D01*
X0344197Y0003574D01*
X0345007Y0003107D01*
X0345878Y0002873D01*
Y0005917D01*
D02*
G37*
G36*
X0335878D02*
X0332834D01*
X0333067Y0005046D01*
X0333535Y0004236D01*
X0334196Y0003574D01*
X0335007Y0003107D01*
X0335878Y0002873D01*
Y0005917D01*
D02*
G37*
G36*
X0325878D02*
X0322834D01*
X0323067Y0005046D01*
X0323535Y0004236D01*
X0324197Y0003574D01*
X0325007Y0003107D01*
X0325878Y0002873D01*
Y0005917D01*
D02*
G37*
G36*
X0306945Y0010417D02*
X0305904D01*
X0304899Y0010148D01*
X0303997Y0009628D01*
X0303261Y0008892D01*
X0302741Y0007990D01*
X0302472Y0006985D01*
Y0005944D01*
X0302741Y0004939D01*
X0303261Y0004038D01*
X0303997Y0003302D01*
X0304899Y0002781D01*
X0305904Y0002512D01*
X0306945D01*
X0307950Y0002781D01*
X0308851Y0003302D01*
X0309587Y0004038D01*
X0310108Y0004939D01*
X0310377Y0005944D01*
Y0006985D01*
X0310108Y0007990D01*
X0309587Y0008892D01*
X0308851Y0009628D01*
X0307950Y0010148D01*
X0306945Y0010417D01*
D02*
G37*
G36*
X0296944D02*
X0295904D01*
X0294898Y0010148D01*
X0293997Y0009628D01*
X0293261Y0008892D01*
X0292741Y0007990D01*
X0292471Y0006985D01*
Y0005944D01*
X0292741Y0004939D01*
X0293261Y0004038D01*
X0293997Y0003302D01*
X0294898Y0002781D01*
X0295904Y0002512D01*
X0296944D01*
X0297950Y0002781D01*
X0298851Y0003302D01*
X0299587Y0004038D01*
X0300107Y0004939D01*
X0300377Y0005944D01*
Y0006985D01*
X0300107Y0007990D01*
X0299587Y0008892D01*
X0298851Y0009628D01*
X0297950Y0010148D01*
X0296944Y0010417D01*
D02*
G37*
G36*
X0356898Y0010370D02*
X0355858D01*
X0354852Y0010101D01*
X0353951Y0009580D01*
X0353215Y0008844D01*
X0352695Y0007943D01*
X0352425Y0006938D01*
Y0005897D01*
X0352695Y0004892D01*
X0353215Y0003990D01*
X0353951Y0003254D01*
X0354852Y0002734D01*
X0355858Y0002465D01*
X0356898D01*
X0357904Y0002734D01*
X0358805Y0003254D01*
X0359541Y0003990D01*
X0360061Y0004892D01*
X0360331Y0005897D01*
Y0006938D01*
X0360061Y0007943D01*
X0359541Y0008844D01*
X0358805Y0009580D01*
X0357904Y0010101D01*
X0356898Y0010370D01*
D02*
G37*
G36*
X0316898D02*
X0315858D01*
X0314852Y0010101D01*
X0313951Y0009580D01*
X0313215Y0008844D01*
X0312695Y0007943D01*
X0312425Y0006938D01*
Y0005897D01*
X0312695Y0004892D01*
X0313215Y0003990D01*
X0313951Y0003254D01*
X0314852Y0002734D01*
X0315858Y0002465D01*
X0316898D01*
X0317904Y0002734D01*
X0318805Y0003254D01*
X0319541Y0003990D01*
X0320061Y0004892D01*
X0320331Y0005897D01*
Y0006938D01*
X0320061Y0007943D01*
X0319541Y0008844D01*
X0318805Y0009580D01*
X0317904Y0010101D01*
X0316898Y0010370D01*
D02*
G37*
%LPD*%
D102*
X0336378Y0006417D02*
D03*
X0346378D02*
D03*
X0326378D02*
D03*
D105*
X0382480Y0025984D02*
D03*
D106*
X0018406Y0039469D02*
D03*
Y0009547D02*
D03*
D108*
X0244724Y0005748D02*
D03*
X0264724D02*
D03*
Y0025748D02*
D03*
X0244724D02*
D03*
X0205354Y0005748D02*
D03*
X0225354D02*
D03*
Y0025748D02*
D03*
X0205354D02*
D03*
D109*
X0190453Y0053051D02*
D03*
X0150984Y0024606D02*
D03*
X0106988Y0040650D02*
D03*
X0112795D02*
D03*
X0078642Y0040551D02*
D03*
X0072835D02*
D03*
X0335236Y0052658D02*
D03*
Y0055020D02*
D03*
X0323228Y0067716D02*
D03*
Y0070079D02*
D03*
Y0061811D02*
D03*
Y0064173D02*
D03*
X0326575Y0059744D02*
D03*
X0323819Y0045866D02*
D03*
X0322933Y0043307D02*
D03*
Y0040945D02*
D03*
X0332343Y0054035D02*
D03*
X0330276D02*
D03*
X0332343Y0051083D02*
D03*
X0330276D02*
D03*
X0328209D02*
D03*
Y0054035D02*
D03*
X0326142Y0051083D02*
D03*
Y0054035D02*
D03*
X0319078Y0063681D02*
D03*
X0312894Y0061122D02*
D03*
X0315650Y0066853D02*
D03*
X0152953Y0071555D02*
D03*
X0121909Y0067421D02*
D03*
X0119449Y0065059D02*
D03*
X0121909D02*
D03*
X0121949Y0072992D02*
D03*
Y0075453D02*
D03*
X0119587D02*
D03*
X0094882Y0067165D02*
D03*
X0092520D02*
D03*
Y0069626D02*
D03*
X0119685Y0070177D02*
D03*
X0074606Y0010531D02*
D03*
X0071260Y0010433D02*
D03*
X0067913Y0010531D02*
D03*
X0076968Y0013287D02*
D03*
X0065748D02*
D03*
X0131004Y0021916D02*
D03*
X0167028Y0057185D02*
D03*
X0068504Y0072244D02*
D03*
Y0074213D02*
D03*
X0070472Y0076083D02*
D03*
X0072441D02*
D03*
X0271063Y0060827D02*
D03*
X0278543Y0075787D02*
D03*
X0271024Y0075866D02*
D03*
X0270965Y0050295D02*
D03*
X0362303Y0057841D02*
D03*
Y0059941D02*
D03*
Y0055741D02*
D03*
Y0053641D02*
D03*
X0366831Y0045276D02*
D03*
X0372933Y0042224D02*
D03*
X0375591Y0044882D02*
D03*
X0182579Y0060925D02*
D03*
X0171693Y0035433D02*
D03*
X0192028Y0074902D02*
D03*
X0176772Y0075492D02*
D03*
X0293504Y0037499D02*
D03*
X0053150Y0034252D02*
D03*
X0050197Y0031299D02*
D03*
X0289813Y0079548D02*
D03*
X0281939D02*
D03*
X0274065D02*
D03*
X0266191D02*
D03*
X0258317D02*
D03*
X0250443D02*
D03*
X0255886Y0036811D02*
D03*
X0252264Y0066339D02*
D03*
X0258169Y0041240D02*
D03*
X0182579Y0053051D02*
D03*
X0190453Y0060925D02*
D03*
X0164626Y0049744D02*
D03*
X0153051Y0065158D02*
D03*
X0150689Y0062795D02*
D03*
X0148327Y0065158D02*
D03*
Y0060433D02*
D03*
X0158760Y0050098D02*
D03*
X0156299Y0054134D02*
D03*
X0153051Y0060433D02*
D03*
X0161614Y0011319D02*
D03*
X0166677Y0070162D02*
D03*
X0166634Y0074114D02*
D03*
X0157776Y0011495D02*
D03*
X0145473Y0075790D02*
D03*
X0145177Y0055317D02*
D03*
X0137795Y0055413D02*
D03*
X0149705Y0012795D02*
D03*
X0134516Y0071163D02*
D03*
Y0075097D02*
D03*
X0145473Y0046063D02*
D03*
X0140354Y0043406D02*
D03*
X0144882Y0041240D02*
D03*
X0166593Y0007480D02*
D03*
X0171711D02*
D03*
Y0019291D02*
D03*
Y0013386D02*
D03*
Y0025197D02*
D03*
X0156357Y0007480D02*
D03*
X0161475D02*
D03*
X0171693Y0043504D02*
D03*
Y0038583D02*
D03*
X0056890Y0007480D02*
D03*
X0062008D02*
D03*
X0056890Y0013386D02*
D03*
Y0019291D02*
D03*
Y0025197D02*
D03*
X0114302Y0007501D02*
D03*
X0109380D02*
D03*
X0119223D02*
D03*
X0133002D02*
D03*
X0137924D02*
D03*
X0142845D02*
D03*
X0085758D02*
D03*
X0090680D02*
D03*
X0095601D02*
D03*
X0056882Y0073643D02*
D03*
X0067118Y0079548D02*
D03*
X0072236D02*
D03*
X0056882D02*
D03*
X0062000D02*
D03*
X0114291Y0079528D02*
D03*
X0119213D02*
D03*
X0109370D02*
D03*
X0132992D02*
D03*
X0137913D02*
D03*
X0142835D02*
D03*
X0156349Y0079548D02*
D03*
X0171703Y0073643D02*
D03*
Y0079548D02*
D03*
X0161467D02*
D03*
X0166585D02*
D03*
X0171703Y0067737D02*
D03*
X0085748Y0079528D02*
D03*
X0090669D02*
D03*
X0095591D02*
D03*
X0056890Y0038583D02*
D03*
Y0043504D02*
D03*
Y0048425D02*
D03*
X0182579Y0056988D02*
D03*
X0186516Y0060925D02*
D03*
Y0053051D02*
D03*
X0190453Y0056988D02*
D03*
X0186516D02*
D03*
X0194291Y0042124D02*
D03*
X0176575Y0052854D02*
D03*
Y0061122D02*
D03*
X0177010Y0066901D02*
D03*
X0176772Y0071752D02*
D03*
X0192197Y0067161D02*
D03*
X0192268Y0071176D02*
D03*
X0191142Y0010531D02*
D03*
X0190945Y0020866D02*
D03*
X0190538Y0031876D02*
D03*
X0067126Y0007480D02*
D03*
X0218947Y0079548D02*
D03*
X0226821D02*
D03*
X0211073D02*
D03*
X0203199D02*
D03*
X0195325D02*
D03*
X0184547Y0079547D02*
D03*
X0179577Y0079548D02*
D03*
X0242569D02*
D03*
X0234695D02*
D03*
X0303150Y0079528D02*
D03*
X0295276D02*
D03*
X0358268D02*
D03*
X0350394D02*
D03*
X0342520D02*
D03*
X0334646D02*
D03*
X0326772D02*
D03*
X0311024D02*
D03*
X0318898D02*
D03*
X0049008Y0079548D02*
D03*
X0033260D02*
D03*
X0041134D02*
D03*
X0374016Y0079528D02*
D03*
X0366142D02*
D03*
X0381890D02*
D03*
X0236892Y0036695D02*
D03*
X0239961Y0072441D02*
D03*
X0232283D02*
D03*
X0283366Y0075985D02*
D03*
X0312500Y0053543D02*
D03*
X0312894Y0043307D02*
D03*
Y0045472D02*
D03*
Y0050492D02*
D03*
X0312500Y0055807D02*
D03*
Y0058071D02*
D03*
X0300828Y0058760D02*
D03*
X0303937Y0062030D02*
D03*
X0003937Y0070866D02*
D03*
Y0062992D02*
D03*
Y0055118D02*
D03*
Y0047244D02*
D03*
Y0039370D02*
D03*
Y0031496D02*
D03*
Y0023622D02*
D03*
Y0015748D02*
D03*
Y0007874D02*
D03*
X0056882Y0061832D02*
D03*
Y0067737D02*
D03*
X0072244Y0007480D02*
D03*
M02*
