G04*
G04 #@! TF.GenerationSoftware,Altium Limited,Altium Designer,24.10.1 (45)*
G04*
G04 Layer_Color=8421504*
%FSAX25Y25*%
%MOIN*%
G70*
G04*
G04 #@! TF.SameCoordinates,E9A5F422-793D-4FF6-AE78-97F5C49A065D*
G04*
G04*
G04 #@! TF.FilePolarity,Positive*
G04*
G01*
G75*
%ADD19R,0.03504X0.04449*%
%ADD20R,0.03543X0.02756*%
%ADD21R,0.04528X0.04528*%
G04:AMPARAMS|DCode=22|XSize=31.5mil|YSize=81.1mil|CornerRadius=7.87mil|HoleSize=0mil|Usage=FLASHONLY|Rotation=270.000|XOffset=0mil|YOffset=0mil|HoleType=Round|Shape=RoundedRectangle|*
%AMROUNDEDRECTD22*
21,1,0.03150,0.06535,0,0,270.0*
21,1,0.01575,0.08110,0,0,270.0*
1,1,0.01575,-0.03268,-0.00787*
1,1,0.01575,-0.03268,0.00787*
1,1,0.01575,0.03268,0.00787*
1,1,0.01575,0.03268,-0.00787*
%
%ADD22ROUNDEDRECTD22*%
%ADD23O,0.02362X0.05709*%
G04:AMPARAMS|DCode=24|XSize=9.84mil|YSize=23.62mil|CornerRadius=2.46mil|HoleSize=0mil|Usage=FLASHONLY|Rotation=0.000|XOffset=0mil|YOffset=0mil|HoleType=Round|Shape=RoundedRectangle|*
%AMROUNDEDRECTD24*
21,1,0.00984,0.01870,0,0,0.0*
21,1,0.00492,0.02362,0,0,0.0*
1,1,0.00492,0.00246,-0.00935*
1,1,0.00492,-0.00246,-0.00935*
1,1,0.00492,-0.00246,0.00935*
1,1,0.00492,0.00246,0.00935*
%
%ADD24ROUNDEDRECTD24*%
G04:AMPARAMS|DCode=25|XSize=37.4mil|YSize=41.34mil|CornerRadius=9.35mil|HoleSize=0mil|Usage=FLASHONLY|Rotation=270.000|XOffset=0mil|YOffset=0mil|HoleType=Round|Shape=RoundedRectangle|*
%AMROUNDEDRECTD25*
21,1,0.03740,0.02264,0,0,270.0*
21,1,0.01870,0.04134,0,0,270.0*
1,1,0.01870,-0.01132,-0.00935*
1,1,0.01870,-0.01132,0.00935*
1,1,0.01870,0.01132,0.00935*
1,1,0.01870,0.01132,-0.00935*
%
%ADD25ROUNDEDRECTD25*%
G04:AMPARAMS|DCode=26|XSize=37.4mil|YSize=41.34mil|CornerRadius=9.35mil|HoleSize=0mil|Usage=FLASHONLY|Rotation=0.000|XOffset=0mil|YOffset=0mil|HoleType=Round|Shape=RoundedRectangle|*
%AMROUNDEDRECTD26*
21,1,0.03740,0.02264,0,0,0.0*
21,1,0.01870,0.04134,0,0,0.0*
1,1,0.01870,0.00935,-0.01132*
1,1,0.01870,-0.00935,-0.01132*
1,1,0.01870,-0.00935,0.01132*
1,1,0.01870,0.00935,0.01132*
%
%ADD26ROUNDEDRECTD26*%
G04:AMPARAMS|DCode=27|XSize=39.37mil|YSize=35.43mil|CornerRadius=8.86mil|HoleSize=0mil|Usage=FLASHONLY|Rotation=270.000|XOffset=0mil|YOffset=0mil|HoleType=Round|Shape=RoundedRectangle|*
%AMROUNDEDRECTD27*
21,1,0.03937,0.01772,0,0,270.0*
21,1,0.02165,0.03543,0,0,270.0*
1,1,0.01772,-0.00886,-0.01083*
1,1,0.01772,-0.00886,0.01083*
1,1,0.01772,0.00886,0.01083*
1,1,0.01772,0.00886,-0.01083*
%
%ADD27ROUNDEDRECTD27*%
G04:AMPARAMS|DCode=28|XSize=23.62mil|YSize=23.62mil|CornerRadius=5.91mil|HoleSize=0mil|Usage=FLASHONLY|Rotation=270.000|XOffset=0mil|YOffset=0mil|HoleType=Round|Shape=RoundedRectangle|*
%AMROUNDEDRECTD28*
21,1,0.02362,0.01181,0,0,270.0*
21,1,0.01181,0.02362,0,0,270.0*
1,1,0.01181,-0.00591,-0.00591*
1,1,0.01181,-0.00591,0.00591*
1,1,0.01181,0.00591,0.00591*
1,1,0.01181,0.00591,-0.00591*
%
%ADD28ROUNDEDRECTD28*%
G04:AMPARAMS|DCode=29|XSize=25.2mil|YSize=25.2mil|CornerRadius=6.3mil|HoleSize=0mil|Usage=FLASHONLY|Rotation=180.000|XOffset=0mil|YOffset=0mil|HoleType=Round|Shape=RoundedRectangle|*
%AMROUNDEDRECTD29*
21,1,0.02520,0.01260,0,0,180.0*
21,1,0.01260,0.02520,0,0,180.0*
1,1,0.01260,-0.00630,0.00630*
1,1,0.01260,0.00630,0.00630*
1,1,0.01260,0.00630,-0.00630*
1,1,0.01260,-0.00630,-0.00630*
%
%ADD29ROUNDEDRECTD29*%
G04:AMPARAMS|DCode=30|XSize=25.2mil|YSize=25.2mil|CornerRadius=6.3mil|HoleSize=0mil|Usage=FLASHONLY|Rotation=270.000|XOffset=0mil|YOffset=0mil|HoleType=Round|Shape=RoundedRectangle|*
%AMROUNDEDRECTD30*
21,1,0.02520,0.01260,0,0,270.0*
21,1,0.01260,0.02520,0,0,270.0*
1,1,0.01260,-0.00630,-0.00630*
1,1,0.01260,-0.00630,0.00630*
1,1,0.01260,0.00630,0.00630*
1,1,0.01260,0.00630,-0.00630*
%
%ADD30ROUNDEDRECTD30*%
G04:AMPARAMS|DCode=31|XSize=9.84mil|YSize=19.68mil|CornerRadius=2.46mil|HoleSize=0mil|Usage=FLASHONLY|Rotation=90.000|XOffset=0mil|YOffset=0mil|HoleType=Round|Shape=RoundedRectangle|*
%AMROUNDEDRECTD31*
21,1,0.00984,0.01476,0,0,90.0*
21,1,0.00492,0.01968,0,0,90.0*
1,1,0.00492,0.00738,0.00246*
1,1,0.00492,0.00738,-0.00246*
1,1,0.00492,-0.00738,-0.00246*
1,1,0.00492,-0.00738,0.00246*
%
%ADD31ROUNDEDRECTD31*%
%ADD32O,0.00984X0.03347*%
%ADD33O,0.03347X0.00984*%
%ADD34O,0.03150X0.00984*%
%ADD35O,0.00984X0.03150*%
G04:AMPARAMS|DCode=36|XSize=58.27mil|YSize=58.27mil|CornerRadius=0mil|HoleSize=0mil|Usage=FLASHONLY|Rotation=0.000|XOffset=0mil|YOffset=0mil|HoleType=Round|Shape=RoundedRectangle|*
%AMROUNDEDRECTD36*
21,1,0.05827,0.05827,0,0,0.0*
21,1,0.05827,0.05827,0,0,0.0*
1,1,0.00000,0.02913,-0.02913*
1,1,0.00000,-0.02913,-0.02913*
1,1,0.00000,-0.02913,0.02913*
1,1,0.00000,0.02913,0.02913*
%
%ADD36ROUNDEDRECTD36*%
G04:AMPARAMS|DCode=37|XSize=11.81mil|YSize=26.38mil|CornerRadius=2.95mil|HoleSize=0mil|Usage=FLASHONLY|Rotation=270.000|XOffset=0mil|YOffset=0mil|HoleType=Round|Shape=RoundedRectangle|*
%AMROUNDEDRECTD37*
21,1,0.01181,0.02047,0,0,270.0*
21,1,0.00591,0.02638,0,0,270.0*
1,1,0.00591,-0.01024,-0.00295*
1,1,0.00591,-0.01024,0.00295*
1,1,0.00591,0.01024,0.00295*
1,1,0.00591,0.01024,-0.00295*
%
%ADD37ROUNDEDRECTD37*%
G04:AMPARAMS|DCode=38|XSize=31.5mil|YSize=149.61mil|CornerRadius=7.87mil|HoleSize=0mil|Usage=FLASHONLY|Rotation=180.000|XOffset=0mil|YOffset=0mil|HoleType=Round|Shape=RoundedRectangle|*
%AMROUNDEDRECTD38*
21,1,0.03150,0.13386,0,0,180.0*
21,1,0.01575,0.14961,0,0,180.0*
1,1,0.01575,-0.00787,0.06693*
1,1,0.01575,0.00787,0.06693*
1,1,0.01575,0.00787,-0.06693*
1,1,0.01575,-0.00787,-0.06693*
%
%ADD38ROUNDEDRECTD38*%
G04:AMPARAMS|DCode=39|XSize=31.5mil|YSize=149.61mil|CornerRadius=7.87mil|HoleSize=0mil|Usage=FLASHONLY|Rotation=270.000|XOffset=0mil|YOffset=0mil|HoleType=Round|Shape=RoundedRectangle|*
%AMROUNDEDRECTD39*
21,1,0.03150,0.13386,0,0,270.0*
21,1,0.01575,0.14961,0,0,270.0*
1,1,0.01575,-0.06693,-0.00787*
1,1,0.01575,-0.06693,0.00787*
1,1,0.01575,0.06693,0.00787*
1,1,0.01575,0.06693,-0.00787*
%
%ADD39ROUNDEDRECTD39*%
G04:AMPARAMS|DCode=40|XSize=31.5mil|YSize=218.5mil|CornerRadius=7.87mil|HoleSize=0mil|Usage=FLASHONLY|Rotation=180.000|XOffset=0mil|YOffset=0mil|HoleType=Round|Shape=RoundedRectangle|*
%AMROUNDEDRECTD40*
21,1,0.03150,0.20276,0,0,180.0*
21,1,0.01575,0.21850,0,0,180.0*
1,1,0.01575,-0.00787,0.10138*
1,1,0.01575,0.00787,0.10138*
1,1,0.01575,0.00787,-0.10138*
1,1,0.01575,-0.00787,-0.10138*
%
%ADD40ROUNDEDRECTD40*%
G04:AMPARAMS|DCode=41|XSize=31.5mil|YSize=196.06mil|CornerRadius=7.87mil|HoleSize=0mil|Usage=FLASHONLY|Rotation=270.000|XOffset=0mil|YOffset=0mil|HoleType=Round|Shape=RoundedRectangle|*
%AMROUNDEDRECTD41*
21,1,0.03150,0.18032,0,0,270.0*
21,1,0.01575,0.19606,0,0,270.0*
1,1,0.01575,-0.09016,-0.00787*
1,1,0.01575,-0.09016,0.00787*
1,1,0.01575,0.09016,0.00787*
1,1,0.01575,0.09016,-0.00787*
%
%ADD41ROUNDEDRECTD41*%
%ADD42O,0.01772X0.05512*%
%ADD43O,0.01378X0.05512*%
G04:AMPARAMS|DCode=44|XSize=23.62mil|YSize=39.37mil|CornerRadius=5.91mil|HoleSize=0mil|Usage=FLASHONLY|Rotation=180.000|XOffset=0mil|YOffset=0mil|HoleType=Round|Shape=RoundedRectangle|*
%AMROUNDEDRECTD44*
21,1,0.02362,0.02756,0,0,180.0*
21,1,0.01181,0.03937,0,0,180.0*
1,1,0.01181,-0.00591,0.01378*
1,1,0.01181,0.00591,0.01378*
1,1,0.01181,0.00591,-0.01378*
1,1,0.01181,-0.00591,-0.01378*
%
%ADD44ROUNDEDRECTD44*%
G04:AMPARAMS|DCode=45|XSize=25.2mil|YSize=27.56mil|CornerRadius=6.3mil|HoleSize=0mil|Usage=FLASHONLY|Rotation=90.000|XOffset=0mil|YOffset=0mil|HoleType=Round|Shape=RoundedRectangle|*
%AMROUNDEDRECTD45*
21,1,0.02520,0.01496,0,0,90.0*
21,1,0.01260,0.02756,0,0,90.0*
1,1,0.01260,0.00748,0.00630*
1,1,0.01260,0.00748,-0.00630*
1,1,0.01260,-0.00748,-0.00630*
1,1,0.01260,-0.00748,0.00630*
%
%ADD45ROUNDEDRECTD45*%
G04:AMPARAMS|DCode=46|XSize=88.58mil|YSize=30mil|CornerRadius=7.5mil|HoleSize=0mil|Usage=FLASHONLY|Rotation=180.000|XOffset=0mil|YOffset=0mil|HoleType=Round|Shape=RoundedRectangle|*
%AMROUNDEDRECTD46*
21,1,0.08858,0.01500,0,0,180.0*
21,1,0.07358,0.03000,0,0,180.0*
1,1,0.01500,-0.03679,0.00750*
1,1,0.01500,0.03679,0.00750*
1,1,0.01500,0.03679,-0.00750*
1,1,0.01500,-0.03679,-0.00750*
%
%ADD46ROUNDEDRECTD46*%
G04:AMPARAMS|DCode=47|XSize=23.62mil|YSize=23.62mil|CornerRadius=5.91mil|HoleSize=0mil|Usage=FLASHONLY|Rotation=0.000|XOffset=0mil|YOffset=0mil|HoleType=Round|Shape=RoundedRectangle|*
%AMROUNDEDRECTD47*
21,1,0.02362,0.01181,0,0,0.0*
21,1,0.01181,0.02362,0,0,0.0*
1,1,0.01181,0.00591,-0.00591*
1,1,0.01181,-0.00591,-0.00591*
1,1,0.01181,-0.00591,0.00591*
1,1,0.01181,0.00591,0.00591*
%
%ADD47ROUNDEDRECTD47*%
G04:AMPARAMS|DCode=48|XSize=107.09mil|YSize=48.42mil|CornerRadius=12.11mil|HoleSize=0mil|Usage=FLASHONLY|Rotation=270.000|XOffset=0mil|YOffset=0mil|HoleType=Round|Shape=RoundedRectangle|*
%AMROUNDEDRECTD48*
21,1,0.10709,0.02421,0,0,270.0*
21,1,0.08287,0.04842,0,0,270.0*
1,1,0.02421,-0.01211,-0.04144*
1,1,0.02421,-0.01211,0.04144*
1,1,0.02421,0.01211,0.04144*
1,1,0.02421,0.01211,-0.04144*
%
%ADD48ROUNDEDRECTD48*%
G04:AMPARAMS|DCode=49|XSize=59.06mil|YSize=51.18mil|CornerRadius=12.8mil|HoleSize=0mil|Usage=FLASHONLY|Rotation=180.000|XOffset=0mil|YOffset=0mil|HoleType=Round|Shape=RoundedRectangle|*
%AMROUNDEDRECTD49*
21,1,0.05906,0.02559,0,0,180.0*
21,1,0.03347,0.05118,0,0,180.0*
1,1,0.02559,-0.01673,0.01280*
1,1,0.02559,0.01673,0.01280*
1,1,0.02559,0.01673,-0.01280*
1,1,0.02559,-0.01673,-0.01280*
%
%ADD49ROUNDEDRECTD49*%
G04:AMPARAMS|DCode=50|XSize=59.06mil|YSize=51.18mil|CornerRadius=12.8mil|HoleSize=0mil|Usage=FLASHONLY|Rotation=270.000|XOffset=0mil|YOffset=0mil|HoleType=Round|Shape=RoundedRectangle|*
%AMROUNDEDRECTD50*
21,1,0.05906,0.02559,0,0,270.0*
21,1,0.03347,0.05118,0,0,270.0*
1,1,0.02559,-0.01280,-0.01673*
1,1,0.02559,-0.01280,0.01673*
1,1,0.02559,0.01280,0.01673*
1,1,0.02559,0.01280,-0.01673*
%
%ADD50ROUNDEDRECTD50*%
G04:AMPARAMS|DCode=51|XSize=39.37mil|YSize=35.43mil|CornerRadius=8.86mil|HoleSize=0mil|Usage=FLASHONLY|Rotation=0.000|XOffset=0mil|YOffset=0mil|HoleType=Round|Shape=RoundedRectangle|*
%AMROUNDEDRECTD51*
21,1,0.03937,0.01772,0,0,0.0*
21,1,0.02165,0.03543,0,0,0.0*
1,1,0.01772,0.01083,-0.00886*
1,1,0.01772,-0.01083,-0.00886*
1,1,0.01772,-0.01083,0.00886*
1,1,0.01772,0.01083,0.00886*
%
%ADD51ROUNDEDRECTD51*%
D19*
X0331397Y0052560D02*
D03*
X0327067D02*
D03*
D20*
X0312463Y0057581D02*
D03*
Y0054037D02*
D03*
D21*
X0183859Y0054331D02*
D03*
Y0059646D02*
D03*
X0189173D02*
D03*
Y0054331D02*
D03*
D22*
X0099429Y0027264D02*
D03*
X0123602D02*
D03*
Y0035925D02*
D03*
X0099429D02*
D03*
X0123602Y0057185D02*
D03*
X0099429D02*
D03*
Y0044587D02*
D03*
X0123602D02*
D03*
X0065158Y0027264D02*
D03*
X0089331D02*
D03*
Y0035925D02*
D03*
X0065158D02*
D03*
X0089331Y0057185D02*
D03*
X0065158D02*
D03*
Y0044587D02*
D03*
X0089331D02*
D03*
D23*
X0281988Y0045965D02*
D03*
X0286988D02*
D03*
X0291988D02*
D03*
X0296988D02*
D03*
X0281988Y0067421D02*
D03*
X0286988D02*
D03*
X0291988D02*
D03*
X0296988D02*
D03*
X0164980Y0020177D02*
D03*
X0154980Y0041634D02*
D03*
X0159980D02*
D03*
X0154980Y0020177D02*
D03*
X0159980D02*
D03*
X0149980D02*
D03*
Y0041634D02*
D03*
X0164980D02*
D03*
D24*
X0333169Y0057087D02*
D03*
X0331201D02*
D03*
X0329232D02*
D03*
X0327264D02*
D03*
X0325295D02*
D03*
X0333169Y0048031D02*
D03*
X0331201D02*
D03*
X0329232D02*
D03*
X0327264D02*
D03*
X0325295D02*
D03*
D25*
X0315711Y0063683D02*
D03*
X0310002D02*
D03*
X0332185Y0068898D02*
D03*
X0326476D02*
D03*
X0332185Y0062992D02*
D03*
X0326476D02*
D03*
X0326181Y0042126D02*
D03*
X0331890D02*
D03*
X0111221Y0073228D02*
D03*
X0105512D02*
D03*
X0310002Y0047935D02*
D03*
X0315711D02*
D03*
X0136713Y0034350D02*
D03*
X0142421D02*
D03*
X0071457Y0073130D02*
D03*
X0077165D02*
D03*
D26*
X0338484Y0053839D02*
D03*
Y0048130D02*
D03*
X0099508Y0067323D02*
D03*
Y0073032D02*
D03*
X0303998Y0052955D02*
D03*
Y0058663D02*
D03*
X0135335Y0064173D02*
D03*
Y0058465D02*
D03*
D27*
X0337697Y0042126D02*
D03*
X0343996D02*
D03*
X0111516Y0067224D02*
D03*
X0105217D02*
D03*
X0071161Y0067224D02*
D03*
X0077461D02*
D03*
X0085532Y0017224D02*
D03*
X0079232D02*
D03*
D28*
X0116142Y0067224D02*
D03*
X0119685D02*
D03*
X0306496Y0043110D02*
D03*
X0310039D02*
D03*
X0358268Y0042717D02*
D03*
X0354724D02*
D03*
X0319156Y0039471D02*
D03*
X0315612D02*
D03*
X0362008Y0042717D02*
D03*
X0365551D02*
D03*
X0315612Y0043211D02*
D03*
X0319156D02*
D03*
X0203150Y0055118D02*
D03*
X0199606D02*
D03*
X0203150Y0058661D02*
D03*
X0199606D02*
D03*
X0186909Y0043504D02*
D03*
X0183366D02*
D03*
X0369390Y0044882D02*
D03*
X0372933D02*
D03*
X0183760Y0029528D02*
D03*
X0187303D02*
D03*
X0161024Y0059842D02*
D03*
X0164567D02*
D03*
X0164469Y0056201D02*
D03*
X0160925D02*
D03*
X0154232Y0013976D02*
D03*
X0157776D02*
D03*
X0164567Y0064075D02*
D03*
X0161024D02*
D03*
X0186319Y0076968D02*
D03*
X0182776D02*
D03*
D29*
X0094587Y0072973D02*
D03*
Y0069350D02*
D03*
X0320079Y0055079D02*
D03*
Y0058701D02*
D03*
X0275492Y0045610D02*
D03*
Y0041988D02*
D03*
X0140354Y0058012D02*
D03*
Y0054390D02*
D03*
X0130905Y0023976D02*
D03*
Y0027598D02*
D03*
D30*
X0116201Y0073228D02*
D03*
X0119823D02*
D03*
X0252323Y0039173D02*
D03*
X0255945D02*
D03*
X0283347Y0073425D02*
D03*
X0286969D02*
D03*
X0293484Y0040059D02*
D03*
X0297106D02*
D03*
X0194331Y0044783D02*
D03*
X0190709D02*
D03*
X0186476Y0073130D02*
D03*
X0190098D02*
D03*
X0186476Y0069193D02*
D03*
X0190098D02*
D03*
X0182618D02*
D03*
X0178996D02*
D03*
X0236870Y0039173D02*
D03*
X0240492D02*
D03*
X0191102Y0029528D02*
D03*
X0194724D02*
D03*
X0191102Y0007874D02*
D03*
X0194724D02*
D03*
X0147087Y0012795D02*
D03*
X0143465D02*
D03*
X0164508Y0052461D02*
D03*
X0160886D02*
D03*
X0166378Y0047441D02*
D03*
X0162756D02*
D03*
X0155276D02*
D03*
X0158898D02*
D03*
X0140295Y0073130D02*
D03*
X0136673D02*
D03*
X0164508Y0072146D02*
D03*
X0160886D02*
D03*
X0140295Y0069193D02*
D03*
X0136673D02*
D03*
X0149055Y0073130D02*
D03*
X0145433D02*
D03*
X0152618Y0051378D02*
D03*
X0156240D02*
D03*
X0148661Y0052658D02*
D03*
X0145039D02*
D03*
X0145039Y0048720D02*
D03*
X0148661D02*
D03*
X0161575Y0013976D02*
D03*
X0165197D02*
D03*
X0178996Y0073130D02*
D03*
X0182618D02*
D03*
X0164508Y0068209D02*
D03*
X0160886D02*
D03*
X0274862Y0073425D02*
D03*
X0278484D02*
D03*
X0267382Y0073425D02*
D03*
X0271004D02*
D03*
X0271004Y0052756D02*
D03*
X0267382D02*
D03*
X0193740Y0077067D02*
D03*
X0190118D02*
D03*
D31*
X0316203Y0052856D02*
D03*
Y0054825D02*
D03*
Y0056793D02*
D03*
Y0058762D02*
D03*
X0308723Y0052856D02*
D03*
Y0054825D02*
D03*
Y0056793D02*
D03*
Y0058762D02*
D03*
D32*
X0185531Y0064567D02*
D03*
X0183563D02*
D03*
X0189469Y0049409D02*
D03*
X0187500D02*
D03*
X0185531D02*
D03*
X0183563D02*
D03*
X0187500Y0064567D02*
D03*
X0189469D02*
D03*
D33*
X0194095Y0059941D02*
D03*
Y0057972D02*
D03*
Y0056004D02*
D03*
Y0054035D02*
D03*
X0178937D02*
D03*
Y0056004D02*
D03*
Y0057972D02*
D03*
Y0059941D02*
D03*
D34*
X0156398Y0059842D02*
D03*
X0144980Y0061811D02*
D03*
X0156398Y0063779D02*
D03*
X0144980Y0059842D02*
D03*
Y0063779D02*
D03*
X0156398Y0065748D02*
D03*
Y0061811D02*
D03*
X0144980Y0065748D02*
D03*
D35*
X0153642Y0068504D02*
D03*
X0147736D02*
D03*
X0151673D02*
D03*
Y0057087D02*
D03*
X0149705Y0068504D02*
D03*
X0153642Y0057087D02*
D03*
X0149705D02*
D03*
X0147736D02*
D03*
D36*
X0150689Y0062795D02*
D03*
D37*
X0365217Y0054823D02*
D03*
Y0056791D02*
D03*
Y0058760D02*
D03*
X0359390D02*
D03*
Y0056791D02*
D03*
Y0054823D02*
D03*
D38*
X0056890Y0043504D02*
D03*
X0171693D02*
D03*
D39*
X0090669Y0079528D02*
D03*
X0137913D02*
D03*
X0114291D02*
D03*
X0090680Y0007501D02*
D03*
X0137924D02*
D03*
X0114302D02*
D03*
D40*
X0171693Y0070176D02*
D03*
X0056890D02*
D03*
X0056900Y0016853D02*
D03*
X0171703D02*
D03*
D41*
X0163466Y0079528D02*
D03*
X0065119D02*
D03*
X0065127Y0007501D02*
D03*
X0163474D02*
D03*
D42*
X0239961Y0045079D02*
D03*
X0245079Y0068307D02*
D03*
X0242520D02*
D03*
X0239961D02*
D03*
X0237402D02*
D03*
X0234842D02*
D03*
X0232283D02*
D03*
X0229724D02*
D03*
X0245079Y0045079D02*
D03*
X0242520D02*
D03*
X0237402D02*
D03*
X0234842D02*
D03*
X0232283D02*
D03*
X0229724D02*
D03*
D43*
X0252264Y0045079D02*
D03*
X0260138Y0062402D02*
D03*
X0258169D02*
D03*
X0256201D02*
D03*
X0254232D02*
D03*
X0252264D02*
D03*
X0260138Y0045079D02*
D03*
X0258169D02*
D03*
X0256201D02*
D03*
X0254232D02*
D03*
D44*
X0267323Y0057776D02*
D03*
X0271063D02*
D03*
X0274803D02*
D03*
Y0068405D02*
D03*
X0267323D02*
D03*
X0194685Y0024016D02*
D03*
X0190945D02*
D03*
X0187205D02*
D03*
Y0013386D02*
D03*
X0194685D02*
D03*
X0143504Y0028445D02*
D03*
X0139764D02*
D03*
X0136024D02*
D03*
Y0017815D02*
D03*
X0143504D02*
D03*
D45*
X0271358Y0045650D02*
D03*
X0265846D02*
D03*
Y0041949D02*
D03*
X0271358D02*
D03*
D46*
X0071260Y0017815D02*
D03*
Y0013287D02*
D03*
D47*
X0199606Y0045079D02*
D03*
Y0048622D02*
D03*
X0310039Y0072244D02*
D03*
Y0068701D02*
D03*
X0377165Y0053740D02*
D03*
Y0057284D02*
D03*
X0140354Y0061713D02*
D03*
Y0065256D02*
D03*
X0130807Y0031890D02*
D03*
Y0035433D02*
D03*
X0141240Y0047047D02*
D03*
Y0050591D02*
D03*
X0142618Y0042717D02*
D03*
Y0039173D02*
D03*
X0203543Y0045079D02*
D03*
Y0048622D02*
D03*
D48*
X0367756Y0067421D02*
D03*
X0356457D02*
D03*
D49*
X0371063Y0057579D02*
D03*
Y0050098D02*
D03*
D50*
X0356201Y0048917D02*
D03*
X0363681D02*
D03*
D51*
X0382480Y0050689D02*
D03*
Y0056988D02*
D03*
X0135335Y0052658D02*
D03*
Y0046358D02*
D03*
X0083150Y0067028D02*
D03*
Y0073327D02*
D03*
M02*
