M48
;Layer_Color=9474304
;FILE_FORMAT=2:4
INCH
;TYPE=PLATED
T01F00S00C0.0080
T02F00S00C0.0339
T03F00S00C0.0354
T04F00S00C0.0394
T05F00S00C0.0606
T06F00S00C0.0709
%
T01
X000394Y000787
Y001575
Y002362
Y003150
Y003937
Y004724
Y005512
Y006299
Y007087
X003326Y007955
X004113
X004901
X005688
X006200
X006712
X007224
X007244Y007608
X007047
X006850Y007421
Y007224
X005688Y007364
Y006774
Y006183
X006032Y005492
X005689Y004843
Y004350
Y003858
X005315Y003425
X005020Y003130
X005689Y002520
Y001929
Y001339
Y000748
X006201
X006713
X006791Y001053
X007126Y001043
X007461Y001053
X007224Y000748
X006575Y001329
X007283Y004055
X007864
X010699Y004065
X011280
X014035Y004341
X014488Y004124
X014547Y004606
X014759Y004611
X014990Y004606
X015266Y004675
X015157Y004872
X015169Y005410
X015630Y005413
X015876Y005010
X016122Y004980
X016463Y004974
X016703Y005719
X016742Y006713
X016668Y007016
X016663Y007411
X016659Y007955
X017170
Y007364
Y006774
X017701Y006690
X017677Y007175
Y007549
X017958Y007955
X018455Y007955
X018701Y007953
X019006
X019533Y007955
X020320
X021107
X021895
X022682
X022352Y007343
X019203Y007490
X019227Y007118
X019220Y006716
X019045Y006093
Y005699
Y005305
X018652
X018258
X018258Y005699
X018652
Y006093
X018258Y006093
X017657Y006112
X017628Y005600
X017657Y005285
X017913Y005020
X018278Y004636
X018508
X018738Y004634
X019065Y004213
X019429Y004212
X019054Y003188
X018524Y003209
X018071Y003110
X018452Y002335
X019094Y002087
X019114Y001053
X019331Y000512
X019626
X017171Y000748
X016659
X016147
X016161Y001132
X016427
X015778Y001150
X015423
X014970Y001280
X014085Y001270
X013593Y001339
X013792Y000750
X013300
X014284
X015636Y000748
X017171Y001339
Y001929
Y002520
X017169Y003543
Y003858
Y004350
X015896Y006181
X015305Y006043
Y006516
X014833
X015069Y006280
X014833Y006043
X014518Y005532
X013780Y005541
X012835Y005935
X012191Y006506
Y006742
X011945Y006506
X011968Y007018
X012195Y007299
Y007545
X011959
X011921Y007953
X011429
X010937
X009559
X009067
X008575
X009252Y006963
Y006717
X009488
X009390Y005935
X009459Y005492
X009560Y000750
X009068
X008576
X007697Y001329
X010938Y000750
X011430
X011922
X013100Y002192
X014783Y002461
X015098
X015295Y007156
X015867Y007011
X015886Y007431
X015635Y007955
X016147
X014774Y007579
X014547Y007579
X014242Y007549
X013848Y007541
X013452Y007510
Y007116
X014246Y007115
X014283Y007953
X013791
X013299
X019941Y005187
X023228Y004902
X024508
X024892Y004557
X025315Y004921
X025591
X025817Y004124
X025589Y003681
X025226
X025758Y003465
X024054Y003663
X023689Y003670
X023484Y006240
X023740Y006437
X023996Y007244
X023228
X023470Y007955
X024257
X025044
X024843Y007411
X024892Y006841
X025226Y006634
X025832Y007955
X026619
X026742Y007579
X027102Y007587
X027490Y007589
X027854Y007579
X028337Y007599
X028701Y007599
X028981Y007955
X029528Y007953
X030315
X031102
X031890
X032677
X033465
X034252
X035039
X035827
X036614
X037402
X038189
X036230Y005994
Y005784
Y005574
Y005364
X036683Y005266
Y004528
X036878Y004221
X037293Y004222
X037559Y004488
X034685Y004409
X033484
X032923Y004587
X032648Y004587
X032382Y004587
X032293Y004331
Y004094
X031289Y004331
Y004547
Y005049
X031250Y005354
Y005581
Y005807
X031289Y006112
X031565Y006685
X031908Y006368
X032323Y006417
Y006181
X032657Y005974
X032923Y005935
X032821Y005404
X033028
X033234
Y005108
X033028
X032821
X032614
Y005404
X031965Y005243
X033524Y005266
Y005502
X033543Y006299
Y006594
Y006890
X032323Y006772
Y007008
X030664Y006368
X030394Y006203
X030083Y005876
X030650Y004862
Y004559
Y004063
X030401Y004311
X029967Y003996
X029715Y003750
X029350Y003750
X027096Y005030
X027106Y006083
X027407Y007955
X028194
X029203Y007158
T02
X038248Y002598
Y003386
T03
X029642Y000646
Y001642
X030642
Y000646
X031638Y000642
X032638
X033638
Y001642
X034638
Y000642
X035638
Y001642
X032638
X031638
T04
X004911Y002451
T05
X020535Y000575
X022535
Y002575
X020535
X021535Y001575
X024472Y000575
X026472
Y002575
X024472
X025472Y001575
T06
X001841Y000955
Y003947
M30
