G04*
G04 #@! TF.GenerationSoftware,Altium Limited,Altium Designer,19.1.8 (144)*
G04*
G04 Layer_Physical_Order=3*
G04 Layer_Color=16440176*
%FSLAX25Y25*%
%MOIN*%
G70*
G01*
G75*
%ADD46C,0.11811*%
%ADD47C,0.17717*%
%ADD48C,0.08661*%
%ADD51C,0.01800*%
%ADD52C,0.02000*%
G36*
X168110Y84512D02*
X166114D01*
X159172Y91455D01*
X158576Y91853D01*
X157874Y91993D01*
X145669D01*
X144967Y91853D01*
X144372Y91455D01*
X133742Y80825D01*
X133344Y80230D01*
X133204Y79528D01*
Y55485D01*
X102094Y24375D01*
X58044D01*
X43174Y39244D01*
Y46457D01*
Y55145D01*
X46967Y58938D01*
X47365Y59534D01*
X47504Y60236D01*
X47365Y60939D01*
X46967Y61534D01*
X46484Y61856D01*
X46324Y62303D01*
X46305Y62455D01*
X46483Y62722D01*
X46615Y63386D01*
X46483Y64049D01*
X46108Y64612D01*
Y64916D01*
X46483Y65478D01*
X46615Y66142D01*
X46483Y66805D01*
X46108Y67367D01*
Y67409D01*
X46501Y67672D01*
X46877Y68234D01*
X47009Y68898D01*
X46877Y69561D01*
X46501Y70123D01*
X45939Y70499D01*
X45276Y70631D01*
X44612Y70499D01*
X44050Y70123D01*
X43674Y69561D01*
X43542Y68898D01*
X43674Y68234D01*
X44050Y67672D01*
Y67630D01*
X43656Y67367D01*
X43281Y66805D01*
X43149Y66142D01*
X43281Y65478D01*
X43656Y64916D01*
Y64612D01*
X43281Y64049D01*
X43149Y63386D01*
X43281Y62722D01*
X43656Y62160D01*
X44047Y61899D01*
X44148Y61394D01*
X44130Y61292D01*
X40041Y57203D01*
X39643Y56608D01*
X39503Y55905D01*
Y46457D01*
Y38484D01*
X39643Y37782D01*
X40041Y37187D01*
X53571Y23656D01*
X53460Y23061D01*
X53319Y22998D01*
X53296Y23001D01*
X52621Y23881D01*
X51507Y24735D01*
X50210Y25272D01*
X49319Y25390D01*
Y20079D01*
Y14768D01*
X50210Y14885D01*
X51507Y15422D01*
X52621Y16277D01*
X53015Y16791D01*
X53515Y16621D01*
Y13837D01*
X53524Y13791D01*
X53520Y13745D01*
X53555Y13636D01*
X53577Y13525D01*
X53603Y13486D01*
X53617Y13441D01*
X53636Y13419D01*
X53754Y13222D01*
X53748Y12772D01*
X53517Y12426D01*
X53385Y11763D01*
X53517Y11099D01*
X53748Y10753D01*
X53754Y10303D01*
X53636Y10107D01*
X53617Y10084D01*
X53603Y10040D01*
X53577Y10001D01*
X53555Y9889D01*
X53520Y9781D01*
X53524Y9734D01*
X53515Y9689D01*
Y1969D01*
X1969D01*
Y136640D01*
X2468Y136946D01*
X2953Y136849D01*
X3616Y136981D01*
X4178Y137357D01*
X4554Y137919D01*
X4686Y138583D01*
X4554Y139246D01*
X4178Y139808D01*
X3616Y140184D01*
X2953Y140316D01*
X2468Y140220D01*
X1969Y140525D01*
Y202756D01*
X168110D01*
Y84512D01*
D02*
G37*
G36*
X153044Y87822D02*
X152880Y87790D01*
X152318Y87414D01*
X151942Y86852D01*
X151810Y86188D01*
X151942Y85525D01*
X152318Y84963D01*
X152880Y84587D01*
X153543Y84455D01*
X154207Y84587D01*
X154769Y84963D01*
X154877Y85124D01*
X155377D01*
X155467Y84989D01*
X156030Y84614D01*
X156693Y84482D01*
X157356Y84614D01*
X157919Y84989D01*
X158294Y85552D01*
X158426Y86215D01*
X158404Y86325D01*
X158865Y86571D01*
X164057Y81379D01*
X164652Y80982D01*
X165354Y80842D01*
X168110D01*
Y1969D01*
X54331D01*
Y9689D01*
X54831Y10087D01*
X55118Y10029D01*
X55781Y10161D01*
X56344Y10537D01*
X56719Y11099D01*
X56851Y11763D01*
X56719Y12426D01*
X56344Y12988D01*
X55781Y13364D01*
X55118Y13496D01*
X54831Y13439D01*
X54331Y13837D01*
Y22190D01*
X54831Y22397D01*
X55986Y21242D01*
X56581Y20844D01*
X57284Y20704D01*
X62865D01*
X63132Y20204D01*
X62966Y19955D01*
X62834Y19291D01*
X62966Y18628D01*
X63341Y18066D01*
X63904Y17690D01*
X64567Y17558D01*
X65230Y17690D01*
X65793Y18066D01*
X66168Y18628D01*
X66300Y19291D01*
X66168Y19955D01*
X66002Y20204D01*
X66269Y20704D01*
X72314D01*
X72581Y20204D01*
X72414Y19955D01*
X72282Y19291D01*
X72414Y18628D01*
X72790Y18066D01*
X73352Y17690D01*
X74016Y17558D01*
X74679Y17690D01*
X75241Y18066D01*
X75617Y18628D01*
X75749Y19291D01*
X75617Y19955D01*
X75450Y20204D01*
X75718Y20704D01*
X102854D01*
X103557Y20844D01*
X104152Y21242D01*
X136337Y53427D01*
X136735Y54022D01*
X136875Y54724D01*
Y78767D01*
X146430Y88322D01*
X152995D01*
X153044Y87822D01*
D02*
G37*
%LPC*%
G36*
X155618Y199620D02*
Y190264D01*
X164975D01*
X164834Y191696D01*
X164270Y193555D01*
X163355Y195267D01*
X162123Y196768D01*
X160622Y198000D01*
X158909Y198916D01*
X157051Y199479D01*
X155618Y199620D01*
D02*
G37*
G36*
X154618D02*
X153185Y199479D01*
X151327Y198916D01*
X149615Y198000D01*
X148114Y196768D01*
X146882Y195267D01*
X145966Y193555D01*
X145403Y191696D01*
X145261Y190264D01*
X154618D01*
Y199620D01*
D02*
G37*
G36*
X15461D02*
Y190264D01*
X24817D01*
X24676Y191696D01*
X24113Y193555D01*
X23197Y195267D01*
X21965Y196768D01*
X20464Y198000D01*
X18752Y198916D01*
X16893Y199479D01*
X15461Y199620D01*
D02*
G37*
G36*
X14461D02*
X13028Y199479D01*
X11170Y198916D01*
X9457Y198000D01*
X7956Y196768D01*
X6724Y195267D01*
X5809Y193555D01*
X5245Y191696D01*
X5104Y190264D01*
X14461D01*
Y199620D01*
D02*
G37*
G36*
X100500Y193504D02*
Y187114D01*
X106890D01*
X106806Y187968D01*
X106411Y189270D01*
X105770Y190469D01*
X104907Y191521D01*
X103855Y192384D01*
X102655Y193025D01*
X101354Y193420D01*
X100500Y193504D01*
D02*
G37*
G36*
X99500D02*
X98646Y193420D01*
X97345Y193025D01*
X96145Y192384D01*
X95093Y191521D01*
X94231Y190469D01*
X93589Y189270D01*
X93194Y187968D01*
X93110Y187114D01*
X99500D01*
Y193504D01*
D02*
G37*
G36*
X70579D02*
Y187114D01*
X76968D01*
X76884Y187968D01*
X76490Y189270D01*
X75848Y190469D01*
X74985Y191521D01*
X73934Y192384D01*
X72734Y193025D01*
X71433Y193420D01*
X70579Y193504D01*
D02*
G37*
G36*
X69579D02*
X68725Y193420D01*
X67423Y193025D01*
X66224Y192384D01*
X65172Y191521D01*
X64309Y190469D01*
X63668Y189270D01*
X63273Y187968D01*
X63189Y187114D01*
X69579D01*
Y193504D01*
D02*
G37*
G36*
X164975Y189264D02*
X155618D01*
Y179907D01*
X157051Y180048D01*
X158909Y180612D01*
X160622Y181527D01*
X162123Y182759D01*
X163355Y184260D01*
X164270Y185973D01*
X164834Y187831D01*
X164975Y189264D01*
D02*
G37*
G36*
X154618D02*
X145261D01*
X145403Y187831D01*
X145966Y185973D01*
X146882Y184260D01*
X148114Y182759D01*
X149615Y181527D01*
X151327Y180612D01*
X153185Y180048D01*
X154618Y179907D01*
Y189264D01*
D02*
G37*
G36*
X24817D02*
X15461D01*
Y179907D01*
X16893Y180048D01*
X18752Y180612D01*
X20464Y181527D01*
X21965Y182759D01*
X23197Y184260D01*
X24113Y185973D01*
X24676Y187831D01*
X24817Y189264D01*
D02*
G37*
G36*
X14461D02*
X5104D01*
X5245Y187831D01*
X5809Y185973D01*
X6724Y184260D01*
X7956Y182759D01*
X9457Y181527D01*
X11170Y180612D01*
X13028Y180048D01*
X14461Y179907D01*
Y189264D01*
D02*
G37*
G36*
X106890Y186114D02*
X100500D01*
Y179725D01*
X101354Y179809D01*
X102655Y180203D01*
X103855Y180845D01*
X104907Y181708D01*
X105770Y182759D01*
X106411Y183959D01*
X106806Y185260D01*
X106890Y186114D01*
D02*
G37*
G36*
X99500D02*
X93110D01*
X93194Y185260D01*
X93589Y183959D01*
X94231Y182759D01*
X95093Y181708D01*
X96145Y180845D01*
X97345Y180203D01*
X98646Y179809D01*
X99500Y179725D01*
Y186114D01*
D02*
G37*
G36*
X76968D02*
X70579D01*
Y179725D01*
X71433Y179809D01*
X72734Y180203D01*
X73934Y180845D01*
X74985Y181708D01*
X75848Y182759D01*
X76490Y183959D01*
X76884Y185260D01*
X76968Y186114D01*
D02*
G37*
G36*
X69579D02*
X63189D01*
X63273Y185260D01*
X63668Y183959D01*
X64309Y182759D01*
X65172Y181708D01*
X66224Y180845D01*
X67423Y180203D01*
X68725Y179809D01*
X69579Y179725D01*
Y186114D01*
D02*
G37*
G36*
X85039Y160683D02*
X83803Y160521D01*
X82650Y160043D01*
X81661Y159284D01*
X80902Y158294D01*
X80424Y157142D01*
X80261Y155905D01*
X80424Y154669D01*
X80902Y153517D01*
X81661Y152527D01*
X82650Y151768D01*
X83803Y151290D01*
X85039Y151128D01*
X86276Y151290D01*
X87428Y151768D01*
X88418Y152527D01*
X89177Y153517D01*
X89654Y154669D01*
X89817Y155905D01*
X89654Y157142D01*
X89177Y158294D01*
X88418Y159284D01*
X87428Y160043D01*
X86276Y160521D01*
X85039Y160683D01*
D02*
G37*
G36*
X38189Y152521D02*
X37526Y152389D01*
X36963Y152013D01*
X36588Y151451D01*
X36456Y150787D01*
X36588Y150124D01*
X36963Y149562D01*
X37526Y149186D01*
X38189Y149054D01*
X38852Y149186D01*
X39415Y149562D01*
X39790Y150124D01*
X39922Y150787D01*
X39790Y151451D01*
X39415Y152013D01*
X38852Y152389D01*
X38189Y152521D01*
D02*
G37*
G36*
X16535Y140710D02*
X15872Y140578D01*
X15310Y140202D01*
X14934Y139640D01*
X14802Y138976D01*
X14934Y138313D01*
X15310Y137751D01*
X15872Y137375D01*
X16535Y137243D01*
X17199Y137375D01*
X17761Y137751D01*
X18137Y138313D01*
X18269Y138976D01*
X18137Y139640D01*
X17761Y140202D01*
X17199Y140578D01*
X16535Y140710D01*
D02*
G37*
G36*
X53937Y140316D02*
X53274Y140184D01*
X52711Y139808D01*
X52336Y139246D01*
X52204Y138583D01*
X52336Y137919D01*
X52711Y137357D01*
X53274Y136981D01*
X53937Y136849D01*
X54600Y136981D01*
X55163Y137357D01*
X55538Y137919D01*
X55670Y138583D01*
X55538Y139246D01*
X55163Y139808D01*
X54600Y140184D01*
X53937Y140316D01*
D02*
G37*
G36*
X44488Y128899D02*
X43825Y128767D01*
X43263Y128391D01*
X42887Y127829D01*
X42755Y127165D01*
X42887Y126502D01*
X43263Y125940D01*
X43825Y125564D01*
X44389Y125452D01*
Y124942D01*
X43825Y124830D01*
X43263Y124454D01*
X42887Y123892D01*
X42755Y123228D01*
X42887Y122565D01*
X43263Y122003D01*
X43825Y121627D01*
X44389Y121515D01*
Y121005D01*
X43825Y120893D01*
X43263Y120517D01*
X42887Y119955D01*
X42755Y119291D01*
X42887Y118628D01*
X43263Y118066D01*
X43825Y117690D01*
X44488Y117558D01*
X45151Y117690D01*
X45714Y118066D01*
X46090Y118628D01*
X46222Y119291D01*
X46090Y119955D01*
X45714Y120517D01*
X45151Y120893D01*
X44587Y121005D01*
Y121515D01*
X45151Y121627D01*
X45714Y122003D01*
X46090Y122565D01*
X46222Y123228D01*
X46090Y123892D01*
X45714Y124454D01*
X45151Y124830D01*
X44587Y124942D01*
Y125452D01*
X45151Y125564D01*
X45714Y125940D01*
X46090Y126502D01*
X46222Y127165D01*
X46090Y127829D01*
X45714Y128391D01*
X45151Y128767D01*
X44488Y128899D01*
D02*
G37*
G36*
X114567Y115907D02*
X113904Y115775D01*
X113341Y115399D01*
X112966Y114837D01*
X112834Y114173D01*
X112966Y113510D01*
X113341Y112948D01*
X113904Y112572D01*
X114567Y112440D01*
X115230Y112572D01*
X115793Y112948D01*
X116168Y113510D01*
X116300Y114173D01*
X116168Y114837D01*
X115793Y115399D01*
X115230Y115775D01*
X114567Y115907D01*
D02*
G37*
G36*
X79921Y112757D02*
X79258Y112625D01*
X78696Y112249D01*
X78320Y111687D01*
X78188Y111024D01*
X78320Y110360D01*
X78696Y109798D01*
X79258Y109422D01*
X79921Y109290D01*
X80585Y109422D01*
X81147Y109798D01*
X81523Y110360D01*
X81655Y111024D01*
X81523Y111687D01*
X81147Y112249D01*
X80585Y112625D01*
X79921Y112757D01*
D02*
G37*
G36*
X116929Y108820D02*
X116266Y108688D01*
X115703Y108312D01*
X115328Y107750D01*
X115196Y107087D01*
X115328Y106423D01*
X115703Y105861D01*
X116266Y105485D01*
X116929Y105353D01*
X117592Y105485D01*
X118155Y105861D01*
X118530Y106423D01*
X118662Y107087D01*
X118530Y107750D01*
X118155Y108312D01*
X117592Y108688D01*
X116929Y108820D01*
D02*
G37*
G36*
X111963Y107245D02*
X111300Y107113D01*
X110737Y106737D01*
X110362Y106175D01*
X110230Y105512D01*
X110362Y104849D01*
X110737Y104286D01*
X111300Y103910D01*
X111963Y103779D01*
X112626Y103910D01*
X113189Y104286D01*
X113564Y104849D01*
X113696Y105512D01*
X113564Y106175D01*
X113189Y106737D01*
X112626Y107113D01*
X111963Y107245D01*
D02*
G37*
G36*
X69291Y106851D02*
X68628Y106720D01*
X68066Y106344D01*
X67690Y105781D01*
X67558Y105118D01*
X67690Y104455D01*
X68066Y103893D01*
X68628Y103517D01*
X69291Y103385D01*
X69955Y103517D01*
X70517Y103893D01*
X70893Y104455D01*
X71025Y105118D01*
X70893Y105781D01*
X70517Y106344D01*
X69955Y106720D01*
X69291Y106851D01*
D02*
G37*
G36*
X150394Y101340D02*
X149730Y101208D01*
X149168Y100832D01*
X148792Y100270D01*
X148660Y99606D01*
X148711Y99352D01*
X148286Y98927D01*
X148031Y98977D01*
X147368Y98845D01*
X146806Y98470D01*
X146430Y97907D01*
X146298Y97244D01*
X146430Y96581D01*
X146806Y96018D01*
X147368Y95643D01*
X148031Y95511D01*
X148695Y95643D01*
X149257Y96018D01*
X149633Y96581D01*
X149765Y97244D01*
X149714Y97498D01*
X150139Y97924D01*
X150394Y97873D01*
X150648Y97924D01*
X151073Y97498D01*
X151023Y97244D01*
X151154Y96581D01*
X151530Y96018D01*
X152093Y95643D01*
X152756Y95511D01*
X153419Y95643D01*
X153981Y96018D01*
X154357Y96581D01*
X154489Y97244D01*
X154357Y97907D01*
X153981Y98470D01*
X153419Y98845D01*
X152756Y98977D01*
X152502Y98927D01*
X152076Y99352D01*
X152127Y99606D01*
X151995Y100270D01*
X151619Y100832D01*
X151057Y101208D01*
X150394Y101340D01*
D02*
G37*
G36*
X105905Y102127D02*
X105242Y101995D01*
X104680Y101619D01*
X104304Y101057D01*
X104172Y100394D01*
X104304Y99730D01*
X104680Y99168D01*
X105242Y98792D01*
X105905Y98660D01*
X106569Y98792D01*
X107131Y99168D01*
X107507Y99730D01*
X107639Y100394D01*
X107507Y101057D01*
X107131Y101619D01*
X106569Y101995D01*
X105905Y102127D01*
D02*
G37*
G36*
X112205Y96222D02*
X111541Y96090D01*
X110979Y95714D01*
X110603Y95152D01*
X110471Y94488D01*
X110603Y93825D01*
X110979Y93263D01*
X111541Y92887D01*
X112205Y92755D01*
X112868Y92887D01*
X113430Y93263D01*
X113806Y93825D01*
X113938Y94488D01*
X113806Y95152D01*
X113430Y95714D01*
X112868Y96090D01*
X112205Y96222D01*
D02*
G37*
G36*
X19685Y93859D02*
X19022Y93727D01*
X18459Y93352D01*
X18084Y92789D01*
X17952Y92126D01*
X18084Y91463D01*
X18459Y90900D01*
X19022Y90525D01*
X19685Y90393D01*
X20348Y90525D01*
X20911Y90900D01*
X21286Y91463D01*
X21418Y92126D01*
X21286Y92789D01*
X20911Y93352D01*
X20348Y93727D01*
X19685Y93859D01*
D02*
G37*
G36*
X70866Y87166D02*
X70203Y87034D01*
X69640Y86659D01*
X69265Y86096D01*
X69133Y85433D01*
X69265Y84770D01*
X69640Y84207D01*
X70203Y83832D01*
X70866Y83700D01*
X71529Y83832D01*
X72092Y84207D01*
X72467Y84770D01*
X72599Y85433D01*
X72467Y86096D01*
X72092Y86659D01*
X71529Y87034D01*
X70866Y87166D01*
D02*
G37*
G36*
X48031Y84411D02*
X47368Y84279D01*
X46806Y83903D01*
X46430Y83341D01*
X46298Y82677D01*
X46349Y82423D01*
X45924Y81998D01*
X45669Y82048D01*
X45006Y81916D01*
X44444Y81541D01*
X44068Y80978D01*
X43936Y80315D01*
X44068Y79652D01*
X44444Y79089D01*
X45006Y78714D01*
X45669Y78582D01*
X46333Y78714D01*
X46895Y79089D01*
X47271Y79652D01*
X47403Y80315D01*
X47352Y80569D01*
X47777Y80994D01*
X48031Y80944D01*
X48695Y81076D01*
X49257Y81451D01*
X49633Y82014D01*
X49765Y82677D01*
X49633Y83341D01*
X49257Y83903D01*
X48695Y84279D01*
X48031Y84411D01*
D02*
G37*
G36*
X96142Y84725D02*
X95478Y84593D01*
X94916Y84218D01*
X94540Y83655D01*
X94408Y82992D01*
X94540Y82329D01*
X94916Y81766D01*
X95478Y81391D01*
X96142Y81259D01*
X96805Y81391D01*
X97367Y81766D01*
X97743Y82329D01*
X97875Y82992D01*
X97743Y83655D01*
X97367Y84218D01*
X96805Y84593D01*
X96142Y84725D01*
D02*
G37*
G36*
X83071Y84411D02*
X82408Y84279D01*
X81845Y83903D01*
X81470Y83341D01*
X81338Y82677D01*
X81470Y82014D01*
X81845Y81451D01*
X82408Y81076D01*
X83071Y80944D01*
X83734Y81076D01*
X84297Y81451D01*
X84672Y82014D01*
X84804Y82677D01*
X84672Y83341D01*
X84297Y83903D01*
X83734Y84279D01*
X83071Y84411D01*
D02*
G37*
G36*
X70472Y79686D02*
X69809Y79554D01*
X69247Y79178D01*
X68871Y78616D01*
X68739Y77953D01*
X68871Y77289D01*
X69247Y76727D01*
X69809Y76351D01*
X70472Y76219D01*
X71136Y76351D01*
X71698Y76727D01*
X72074Y77289D01*
X72206Y77953D01*
X72074Y78616D01*
X71698Y79178D01*
X71136Y79554D01*
X70472Y79686D01*
D02*
G37*
G36*
X5906Y78111D02*
X5242Y77979D01*
X4680Y77604D01*
X4304Y77041D01*
X4172Y76378D01*
X4304Y75715D01*
X4680Y75152D01*
X5242Y74777D01*
X5906Y74645D01*
X6569Y74777D01*
X7131Y75152D01*
X7507Y75715D01*
X7639Y76378D01*
X7507Y77041D01*
X7131Y77604D01*
X6569Y77979D01*
X5906Y78111D01*
D02*
G37*
G36*
X114567Y73387D02*
X113904Y73255D01*
X113341Y72879D01*
X112966Y72317D01*
X112834Y71653D01*
X112966Y70990D01*
X113341Y70428D01*
X113904Y70052D01*
X114567Y69920D01*
X115230Y70052D01*
X115793Y70428D01*
X116168Y70990D01*
X116300Y71653D01*
X116168Y72317D01*
X115793Y72879D01*
X115230Y73255D01*
X114567Y73387D01*
D02*
G37*
G36*
X5906Y71025D02*
X5242Y70893D01*
X4680Y70517D01*
X4304Y69955D01*
X4172Y69291D01*
X4304Y68628D01*
X4680Y68066D01*
X5242Y67690D01*
X5906Y67558D01*
X6569Y67690D01*
X7131Y68066D01*
X7507Y68628D01*
X7639Y69291D01*
X7507Y69955D01*
X7131Y70517D01*
X6569Y70893D01*
X5906Y71025D01*
D02*
G37*
G36*
X74410Y69450D02*
X73746Y69318D01*
X73184Y68942D01*
X72808Y68380D01*
X72676Y67716D01*
X72808Y67053D01*
X73184Y66491D01*
X73746Y66115D01*
X74410Y65983D01*
X75073Y66115D01*
X75635Y66491D01*
X76011Y67053D01*
X76143Y67716D01*
X76011Y68380D01*
X75635Y68942D01*
X75073Y69318D01*
X74410Y69450D01*
D02*
G37*
G36*
X71653Y65907D02*
X70990Y65775D01*
X70428Y65399D01*
X70052Y64837D01*
X69920Y64173D01*
X70052Y63510D01*
X70428Y62948D01*
X70990Y62572D01*
X71653Y62440D01*
X72317Y62572D01*
X72879Y62948D01*
X73255Y63510D01*
X73387Y64173D01*
X73255Y64837D01*
X72879Y65399D01*
X72317Y65775D01*
X71653Y65907D01*
D02*
G37*
G36*
X31102Y65513D02*
X30439Y65381D01*
X29877Y65005D01*
X29501Y64443D01*
X29369Y63779D01*
X29501Y63116D01*
X29877Y62554D01*
X30439Y62178D01*
X31102Y62046D01*
X31766Y62178D01*
X32328Y62554D01*
X32704Y63116D01*
X32836Y63779D01*
X32704Y64443D01*
X32328Y65005D01*
X31766Y65381D01*
X31102Y65513D01*
D02*
G37*
G36*
X7874D02*
X7211Y65381D01*
X6648Y65005D01*
X6273Y64443D01*
X6141Y63779D01*
X6273Y63116D01*
X6648Y62554D01*
X7211Y62178D01*
X7874Y62046D01*
X8537Y62178D01*
X9100Y62554D01*
X9475Y63116D01*
X9607Y63779D01*
X9475Y64443D01*
X9100Y65005D01*
X8537Y65381D01*
X7874Y65513D01*
D02*
G37*
G36*
X48819Y58426D02*
X48156Y58294D01*
X47593Y57919D01*
X47218Y57356D01*
X47086Y56693D01*
X47218Y56030D01*
X47593Y55467D01*
X48156Y55092D01*
X48819Y54960D01*
X49482Y55092D01*
X50045Y55467D01*
X50420Y56030D01*
X50552Y56693D01*
X50420Y57356D01*
X50045Y57919D01*
X49482Y58294D01*
X48819Y58426D01*
D02*
G37*
G36*
X71653Y56458D02*
X70990Y56326D01*
X70428Y55950D01*
X70052Y55388D01*
X69920Y54724D01*
X70052Y54061D01*
X70428Y53499D01*
X70990Y53123D01*
X71653Y52991D01*
X72317Y53123D01*
X72879Y53499D01*
X73255Y54061D01*
X73387Y54724D01*
X73255Y55388D01*
X72879Y55950D01*
X72317Y56326D01*
X71653Y56458D01*
D02*
G37*
G36*
X67323Y54096D02*
X66659Y53964D01*
X66097Y53588D01*
X65721Y53026D01*
X65589Y52362D01*
X65721Y51699D01*
X66097Y51137D01*
X66659Y50761D01*
X67323Y50629D01*
X67986Y50761D01*
X68549Y51137D01*
X68924Y51699D01*
X69056Y52362D01*
X68924Y53026D01*
X68549Y53588D01*
X67986Y53964D01*
X67323Y54096D01*
D02*
G37*
G36*
X23228Y48190D02*
X22565Y48058D01*
X22003Y47682D01*
X21627Y47120D01*
X21495Y46457D01*
X21627Y45793D01*
X22003Y45231D01*
X22565Y44855D01*
X23228Y44723D01*
X23892Y44855D01*
X24454Y45231D01*
X24830Y45793D01*
X24962Y46457D01*
X24830Y47120D01*
X24454Y47682D01*
X23892Y48058D01*
X23228Y48190D01*
D02*
G37*
G36*
X12205D02*
X11541Y48058D01*
X10979Y47682D01*
X10603Y47120D01*
X10471Y46457D01*
X10603Y45793D01*
X10979Y45231D01*
X11541Y44855D01*
X12205Y44723D01*
X12868Y44855D01*
X13430Y45231D01*
X13806Y45793D01*
X13938Y46457D01*
X13806Y47120D01*
X13430Y47682D01*
X12868Y48058D01*
X12205Y48190D01*
D02*
G37*
G36*
X67716Y38348D02*
X67053Y38216D01*
X66491Y37840D01*
X66392Y37691D01*
X65892D01*
X65793Y37840D01*
X65230Y38216D01*
X64567Y38348D01*
X63904Y38216D01*
X63341Y37840D01*
X62966Y37277D01*
X62834Y36614D01*
X62966Y35951D01*
X63341Y35388D01*
X63904Y35013D01*
X64567Y34881D01*
X65230Y35013D01*
X65793Y35388D01*
X65892Y35537D01*
X66392D01*
X66491Y35388D01*
X67053Y35013D01*
X67716Y34881D01*
X68380Y35013D01*
X68942Y35388D01*
X69318Y35951D01*
X69450Y36614D01*
X69318Y37277D01*
X68942Y37840D01*
X68380Y38216D01*
X67716Y38348D01*
D02*
G37*
G36*
X19685Y37954D02*
X19022Y37822D01*
X18459Y37446D01*
X18084Y36884D01*
X17952Y36220D01*
X18084Y35557D01*
X18459Y34995D01*
X19022Y34619D01*
X19685Y34487D01*
X20348Y34619D01*
X20911Y34995D01*
X21286Y35557D01*
X21418Y36220D01*
X21286Y36884D01*
X20911Y37446D01*
X20348Y37822D01*
X19685Y37954D01*
D02*
G37*
G36*
X37016Y34445D02*
Y29634D01*
X41827D01*
X41709Y30525D01*
X41172Y31822D01*
X40318Y32936D01*
X39204Y33790D01*
X37907Y34327D01*
X37016Y34445D01*
D02*
G37*
G36*
X36016D02*
X35124Y34327D01*
X33827Y33790D01*
X32714Y32936D01*
X31859Y31822D01*
X31322Y30525D01*
X31205Y29634D01*
X36016D01*
Y34445D01*
D02*
G37*
G36*
X41827Y28634D02*
X37016D01*
Y23823D01*
X37907Y23940D01*
X39204Y24477D01*
X40318Y25332D01*
X41172Y26445D01*
X41709Y27742D01*
X41827Y28634D01*
D02*
G37*
G36*
X36016D02*
X31205D01*
X31322Y27742D01*
X31859Y26445D01*
X32714Y25332D01*
X33827Y24477D01*
X35124Y23940D01*
X36016Y23823D01*
Y28634D01*
D02*
G37*
G36*
X48319Y25390D02*
X47427Y25272D01*
X46130Y24735D01*
X45017Y23881D01*
X44162Y22767D01*
X43625Y21470D01*
X43508Y20579D01*
X48319D01*
Y25390D01*
D02*
G37*
G36*
X15461Y24817D02*
Y15461D01*
X24817D01*
X24676Y16893D01*
X24113Y18752D01*
X23197Y20464D01*
X21965Y21965D01*
X20464Y23197D01*
X18752Y24113D01*
X16893Y24676D01*
X15461Y24817D01*
D02*
G37*
G36*
X14461D02*
X13028Y24676D01*
X11170Y24113D01*
X9457Y23197D01*
X7956Y21965D01*
X6724Y20464D01*
X5809Y18752D01*
X5245Y16893D01*
X5104Y15461D01*
X14461D01*
Y24817D01*
D02*
G37*
G36*
X48319Y19579D02*
X43508D01*
X43625Y18687D01*
X44162Y17390D01*
X45017Y16277D01*
X46130Y15422D01*
X47427Y14885D01*
X48319Y14768D01*
Y19579D01*
D02*
G37*
G36*
X37016Y15744D02*
Y10933D01*
X41827D01*
X41709Y11825D01*
X41172Y13121D01*
X40318Y14235D01*
X39204Y15089D01*
X37907Y15627D01*
X37016Y15744D01*
D02*
G37*
G36*
X36016D02*
X35124Y15627D01*
X33827Y15089D01*
X32714Y14235D01*
X31859Y13121D01*
X31322Y11825D01*
X31205Y10933D01*
X36016D01*
Y15744D01*
D02*
G37*
G36*
X41827Y9933D02*
X37016D01*
Y5122D01*
X37907Y5240D01*
X39204Y5777D01*
X40318Y6631D01*
X41172Y7745D01*
X41709Y9042D01*
X41827Y9933D01*
D02*
G37*
G36*
X36016D02*
X31205D01*
X31322Y9042D01*
X31859Y7745D01*
X32714Y6631D01*
X33827Y5777D01*
X35124Y5240D01*
X36016Y5122D01*
Y9933D01*
D02*
G37*
G36*
X24817Y14461D02*
X15461D01*
Y5104D01*
X16893Y5245D01*
X18752Y5809D01*
X20464Y6724D01*
X21965Y7956D01*
X23197Y9457D01*
X24113Y11170D01*
X24676Y13028D01*
X24817Y14461D01*
D02*
G37*
G36*
X14461D02*
X5104D01*
X5245Y13028D01*
X5809Y11170D01*
X6724Y9457D01*
X7956Y7956D01*
X9457Y6724D01*
X11170Y5809D01*
X13028Y5245D01*
X14461Y5104D01*
Y14461D01*
D02*
G37*
G36*
X146850Y83623D02*
X146187Y83491D01*
X145625Y83115D01*
X145249Y82553D01*
X145117Y81890D01*
X145249Y81226D01*
X145483Y80877D01*
X145583Y80518D01*
X145483Y80158D01*
X145249Y79808D01*
X145117Y79145D01*
X145249Y78482D01*
X145625Y77920D01*
X145782Y77815D01*
Y77315D01*
X145625Y77210D01*
X145249Y76648D01*
X145117Y75984D01*
X145249Y75321D01*
X145625Y74759D01*
Y74454D01*
X145249Y73892D01*
X145117Y73228D01*
X145209Y72768D01*
X144759Y72466D01*
X144758Y72467D01*
X144095Y72599D01*
X143431Y72467D01*
X142869Y72092D01*
X142493Y71529D01*
X142361Y70866D01*
X142493Y70203D01*
X142869Y69640D01*
X143431Y69265D01*
X144095Y69133D01*
X144758Y69265D01*
X145320Y69640D01*
X145696Y70203D01*
X145828Y70866D01*
X145736Y71327D01*
X146186Y71628D01*
X146187Y71627D01*
X146850Y71495D01*
X147514Y71627D01*
X148076Y72003D01*
X148452Y72565D01*
X148584Y73228D01*
X148452Y73892D01*
X148076Y74454D01*
Y74759D01*
X148452Y75321D01*
X148584Y75984D01*
X148452Y76648D01*
X148076Y77210D01*
X147919Y77315D01*
Y77815D01*
X148076Y77920D01*
X148452Y78482D01*
X148584Y79145D01*
X148452Y79808D01*
X148218Y80158D01*
X148117Y80518D01*
X148218Y80877D01*
X148452Y81226D01*
X148584Y81890D01*
X148452Y82553D01*
X148076Y83115D01*
X147514Y83491D01*
X146850Y83623D01*
D02*
G37*
G36*
X161417Y74174D02*
X160754Y74042D01*
X160192Y73667D01*
X159816Y73104D01*
X159684Y72441D01*
X159816Y71778D01*
X160192Y71215D01*
X160593Y70947D01*
X160604Y70918D01*
Y70421D01*
X160593Y70391D01*
X160192Y70123D01*
X159816Y69561D01*
X159684Y68898D01*
X159816Y68234D01*
X160192Y67672D01*
X160754Y67296D01*
X161417Y67164D01*
X162081Y67296D01*
X162643Y67672D01*
X163019Y68234D01*
X163151Y68898D01*
X163019Y69561D01*
X162643Y70123D01*
X162241Y70391D01*
X162231Y70421D01*
Y70918D01*
X162241Y70947D01*
X162643Y71215D01*
X163019Y71778D01*
X163151Y72441D01*
X163019Y73104D01*
X162643Y73667D01*
X162081Y74042D01*
X161417Y74174D01*
D02*
G37*
G36*
X153543Y64725D02*
X152880Y64593D01*
X152318Y64218D01*
X151942Y63655D01*
X151810Y62992D01*
X151942Y62329D01*
X152318Y61766D01*
X152880Y61391D01*
X153543Y61259D01*
X154207Y61391D01*
X154769Y61766D01*
X155145Y62329D01*
X155277Y62992D01*
X155145Y63655D01*
X154769Y64218D01*
X154207Y64593D01*
X153543Y64725D01*
D02*
G37*
G36*
X156693Y61576D02*
X156030Y61444D01*
X155467Y61068D01*
X155092Y60506D01*
X154960Y59842D01*
X155092Y59179D01*
X155467Y58617D01*
X156030Y58241D01*
X156693Y58109D01*
X157356Y58241D01*
X157919Y58617D01*
X158294Y59179D01*
X158426Y59842D01*
X158294Y60506D01*
X157919Y61068D01*
X157356Y61444D01*
X156693Y61576D01*
D02*
G37*
G36*
X150787Y52914D02*
X150124Y52782D01*
X149562Y52407D01*
X149186Y51844D01*
X149054Y51181D01*
X149186Y50518D01*
X149562Y49955D01*
X150124Y49580D01*
X150787Y49448D01*
X151451Y49580D01*
X152013Y49955D01*
X152389Y50518D01*
X152521Y51181D01*
X152389Y51844D01*
X152013Y52407D01*
X151451Y52782D01*
X150787Y52914D01*
D02*
G37*
G36*
X155512Y52521D02*
X154849Y52389D01*
X154286Y52013D01*
X153910Y51451D01*
X153779Y50787D01*
X153910Y50124D01*
X154286Y49562D01*
X154849Y49186D01*
X155512Y49054D01*
X156175Y49186D01*
X156737Y49562D01*
X157113Y50124D01*
X157245Y50787D01*
X157113Y51451D01*
X156737Y52013D01*
X156175Y52389D01*
X155512Y52521D01*
D02*
G37*
G36*
X146063D02*
X145400Y52389D01*
X144837Y52013D01*
X144462Y51451D01*
X144330Y50787D01*
X144462Y50124D01*
X144837Y49562D01*
X145400Y49186D01*
X146063Y49054D01*
X146726Y49186D01*
X147289Y49562D01*
X147664Y50124D01*
X147796Y50787D01*
X147664Y51451D01*
X147289Y52013D01*
X146726Y52389D01*
X146063Y52521D01*
D02*
G37*
G36*
X161811Y49765D02*
X161148Y49633D01*
X160585Y49257D01*
X160210Y48695D01*
X160078Y48031D01*
X160210Y47368D01*
X160585Y46806D01*
X161148Y46430D01*
X161811Y46298D01*
X162474Y46430D01*
X163037Y46806D01*
X163412Y47368D01*
X163544Y48031D01*
X163412Y48695D01*
X163037Y49257D01*
X162474Y49633D01*
X161811Y49765D01*
D02*
G37*
G36*
X158661Y46222D02*
X157998Y46090D01*
X157436Y45714D01*
X157060Y45151D01*
X156928Y44488D01*
X157060Y43825D01*
X157436Y43263D01*
X157998Y42887D01*
X158661Y42755D01*
X159325Y42887D01*
X159887Y43263D01*
X160263Y43825D01*
X160395Y44488D01*
X160263Y45151D01*
X159887Y45714D01*
X159325Y46090D01*
X158661Y46222D01*
D02*
G37*
G36*
X147638Y41103D02*
X146975Y40971D01*
X146412Y40596D01*
X146036Y40033D01*
X145905Y39370D01*
X146036Y38707D01*
X146412Y38144D01*
X146975Y37769D01*
X147638Y37637D01*
X148301Y37769D01*
X148863Y38144D01*
X149239Y38707D01*
X149371Y39370D01*
X149239Y40033D01*
X148863Y40596D01*
X148301Y40971D01*
X147638Y41103D01*
D02*
G37*
G36*
X142913D02*
X142250Y40971D01*
X141688Y40596D01*
X141312Y40033D01*
X141180Y39370D01*
X141312Y38707D01*
X141688Y38144D01*
X142250Y37769D01*
X142913Y37637D01*
X143577Y37769D01*
X144139Y38144D01*
X144515Y38707D01*
X144647Y39370D01*
X144515Y40033D01*
X144139Y40596D01*
X143577Y40971D01*
X142913Y41103D01*
D02*
G37*
G36*
X165000Y40237D02*
X164337Y40105D01*
X163774Y39730D01*
X163399Y39167D01*
X163267Y38504D01*
X163399Y37841D01*
X163774Y37278D01*
X164337Y36903D01*
X165000Y36771D01*
X165663Y36903D01*
X166226Y37278D01*
X166601Y37841D01*
X166733Y38504D01*
X166601Y39167D01*
X166226Y39730D01*
X165663Y40105D01*
X165000Y40237D01*
D02*
G37*
G36*
X155000D02*
X154337Y40105D01*
X153774Y39730D01*
X153399Y39167D01*
X153267Y38504D01*
X153399Y37841D01*
X153774Y37278D01*
X154337Y36903D01*
X155000Y36771D01*
X155663Y36903D01*
X156226Y37278D01*
X156601Y37841D01*
X156733Y38504D01*
X156601Y39167D01*
X156226Y39730D01*
X155663Y40105D01*
X155000Y40237D01*
D02*
G37*
G36*
X135000D02*
X134337Y40105D01*
X133774Y39730D01*
X133399Y39167D01*
X133267Y38504D01*
X133399Y37841D01*
X133774Y37278D01*
X134337Y36903D01*
X135000Y36771D01*
X135663Y36903D01*
X136226Y37278D01*
X136601Y37841D01*
X136733Y38504D01*
X136601Y39167D01*
X136226Y39730D01*
X135663Y40105D01*
X135000Y40237D01*
D02*
G37*
G36*
X160000Y30237D02*
X159337Y30105D01*
X158774Y29730D01*
X158399Y29167D01*
X158267Y28504D01*
X158399Y27841D01*
X158774Y27278D01*
X159337Y26903D01*
X160000Y26771D01*
X160663Y26903D01*
X161226Y27278D01*
X161601Y27841D01*
X161733Y28504D01*
X161601Y29167D01*
X161226Y29730D01*
X160663Y30105D01*
X160000Y30237D01*
D02*
G37*
G36*
X150000D02*
X149337Y30105D01*
X148774Y29730D01*
X148399Y29167D01*
X148267Y28504D01*
X148399Y27841D01*
X148774Y27278D01*
X149337Y26903D01*
X150000Y26771D01*
X150663Y26903D01*
X151226Y27278D01*
X151601Y27841D01*
X151733Y28504D01*
X151601Y29167D01*
X151226Y29730D01*
X150663Y30105D01*
X150000Y30237D01*
D02*
G37*
G36*
X120000D02*
X119337Y30105D01*
X118774Y29730D01*
X118399Y29167D01*
X118267Y28504D01*
X118399Y27841D01*
X118774Y27278D01*
X119337Y26903D01*
X120000Y26771D01*
X120663Y26903D01*
X121226Y27278D01*
X121601Y27841D01*
X121733Y28504D01*
X121601Y29167D01*
X121226Y29730D01*
X120663Y30105D01*
X120000Y30237D01*
D02*
G37*
G36*
X133563Y34309D02*
X132224Y34133D01*
X130975Y33615D01*
X129904Y32793D01*
X129081Y31721D01*
X128564Y30473D01*
X128388Y29134D01*
X128564Y27795D01*
X129081Y26546D01*
X129904Y25475D01*
X130975Y24652D01*
X132224Y24135D01*
X133563Y23959D01*
X134902Y24135D01*
X136151Y24652D01*
X137222Y25475D01*
X138045Y26546D01*
X138562Y27795D01*
X138738Y29134D01*
X138562Y30473D01*
X138045Y31721D01*
X137222Y32793D01*
X136151Y33615D01*
X134902Y34133D01*
X133563Y34309D01*
D02*
G37*
G36*
X121260Y25254D02*
X119921Y25077D01*
X118672Y24560D01*
X117601Y23738D01*
X116778Y22666D01*
X116261Y21418D01*
X116085Y20079D01*
X116261Y18739D01*
X116778Y17491D01*
X117601Y16420D01*
X118672Y15597D01*
X119921Y15080D01*
X121260Y14904D01*
X122599Y15080D01*
X123847Y15597D01*
X124919Y16420D01*
X125742Y17491D01*
X126259Y18739D01*
X126435Y20079D01*
X126259Y21418D01*
X125742Y22666D01*
X124919Y23738D01*
X123847Y24560D01*
X122599Y25077D01*
X121260Y25254D01*
D02*
G37*
G36*
X114961Y13544D02*
X114297Y13412D01*
X113735Y13037D01*
X113636Y12888D01*
X113136D01*
X113037Y13037D01*
X112474Y13412D01*
X111811Y13544D01*
X111148Y13412D01*
X110585Y13037D01*
X110486Y12888D01*
X109986D01*
X109887Y13037D01*
X109325Y13412D01*
X108661Y13544D01*
X107998Y13412D01*
X107436Y13037D01*
X107337Y12888D01*
X106837D01*
X106737Y13037D01*
X106175Y13412D01*
X105512Y13544D01*
X104849Y13412D01*
X104286Y13037D01*
X103910Y12474D01*
X103779Y11811D01*
X103910Y11148D01*
X104286Y10585D01*
X104849Y10210D01*
X105512Y10078D01*
X106175Y10210D01*
X106737Y10585D01*
X106837Y10734D01*
X107337D01*
X107436Y10585D01*
X107998Y10210D01*
X108661Y10078D01*
X109325Y10210D01*
X109887Y10585D01*
X109986Y10734D01*
X110486D01*
X110585Y10585D01*
X111148Y10210D01*
X111811Y10078D01*
X112474Y10210D01*
X113037Y10585D01*
X113136Y10734D01*
X113636D01*
X113735Y10585D01*
X114297Y10210D01*
X114961Y10078D01*
X115624Y10210D01*
X116186Y10585D01*
X116562Y11148D01*
X116694Y11811D01*
X116562Y12474D01*
X116186Y13037D01*
X115624Y13412D01*
X114961Y13544D01*
D02*
G37*
G36*
X99213D02*
X98549Y13412D01*
X97987Y13037D01*
X97888Y12888D01*
X97388D01*
X97289Y13037D01*
X96726Y13412D01*
X96063Y13544D01*
X95400Y13412D01*
X94837Y13037D01*
X94738Y12888D01*
X94238D01*
X94139Y13037D01*
X93577Y13412D01*
X92913Y13544D01*
X92250Y13412D01*
X91688Y13037D01*
X91589Y12888D01*
X91089D01*
X90989Y13037D01*
X90427Y13412D01*
X89764Y13544D01*
X89100Y13412D01*
X88538Y13037D01*
X88162Y12474D01*
X88030Y11811D01*
X88162Y11148D01*
X88538Y10585D01*
X89100Y10210D01*
X89764Y10078D01*
X90427Y10210D01*
X90989Y10585D01*
X91089Y10734D01*
X91589D01*
X91688Y10585D01*
X92250Y10210D01*
X92913Y10078D01*
X93577Y10210D01*
X94139Y10585D01*
X94238Y10734D01*
X94738D01*
X94837Y10585D01*
X95400Y10210D01*
X96063Y10078D01*
X96726Y10210D01*
X97289Y10585D01*
X97388Y10734D01*
X97888D01*
X97987Y10585D01*
X98549Y10210D01*
X99213Y10078D01*
X99876Y10210D01*
X100438Y10585D01*
X100814Y11148D01*
X100946Y11811D01*
X100814Y12474D01*
X100438Y13037D01*
X99876Y13412D01*
X99213Y13544D01*
D02*
G37*
G36*
X83465D02*
X82801Y13412D01*
X82239Y13037D01*
X81863Y12474D01*
X81731Y11811D01*
X81863Y11148D01*
X82239Y10585D01*
X82801Y10210D01*
X83465Y10078D01*
X84128Y10210D01*
X84690Y10585D01*
X85066Y11148D01*
X85198Y11811D01*
X85066Y12474D01*
X84690Y13037D01*
X84128Y13412D01*
X83465Y13544D01*
D02*
G37*
G36*
X77165D02*
X76502Y13412D01*
X75940Y13037D01*
X75564Y12474D01*
X75432Y11811D01*
X75564Y11148D01*
X75940Y10585D01*
X76502Y10210D01*
X77165Y10078D01*
X77829Y10210D01*
X78391Y10585D01*
X78767Y11148D01*
X78899Y11811D01*
X78767Y12474D01*
X78391Y13037D01*
X77829Y13412D01*
X77165Y13544D01*
D02*
G37*
G36*
X70866D02*
X70203Y13412D01*
X69640Y13037D01*
X69265Y12474D01*
X69133Y11811D01*
X69265Y11148D01*
X69640Y10585D01*
X70203Y10210D01*
X70866Y10078D01*
X71529Y10210D01*
X72092Y10585D01*
X72467Y11148D01*
X72599Y11811D01*
X72467Y12474D01*
X72092Y13037D01*
X71529Y13412D01*
X70866Y13544D01*
D02*
G37*
G36*
X61417D02*
X60754Y13412D01*
X60192Y13037D01*
X59816Y12474D01*
X59684Y11811D01*
X59816Y11148D01*
X60192Y10585D01*
X60754Y10210D01*
X61417Y10078D01*
X62081Y10210D01*
X62643Y10585D01*
X63019Y11148D01*
X63151Y11811D01*
X63019Y12474D01*
X62643Y13037D01*
X62081Y13412D01*
X61417Y13544D01*
D02*
G37*
G36*
X120000Y10237D02*
X119337Y10105D01*
X118774Y9730D01*
X118399Y9167D01*
X118267Y8504D01*
X118399Y7841D01*
X118774Y7278D01*
X119337Y6903D01*
X120000Y6771D01*
X120663Y6903D01*
X121226Y7278D01*
X121601Y7841D01*
X121733Y8504D01*
X121601Y9167D01*
X121226Y9730D01*
X120663Y10105D01*
X120000Y10237D01*
D02*
G37*
G36*
X133563Y15608D02*
X132224Y15432D01*
X130975Y14915D01*
X129904Y14092D01*
X129081Y13021D01*
X128564Y11772D01*
X128388Y10433D01*
X128564Y9094D01*
X129081Y7846D01*
X129904Y6774D01*
X130975Y5951D01*
X132224Y5434D01*
X133563Y5258D01*
X134902Y5434D01*
X136151Y5951D01*
X137222Y6774D01*
X138045Y7846D01*
X138562Y9094D01*
X138738Y10433D01*
X138562Y11772D01*
X138045Y13021D01*
X137222Y14092D01*
X136151Y14915D01*
X134902Y15432D01*
X133563Y15608D01*
D02*
G37*
G36*
X155118Y24666D02*
X153225Y24479D01*
X151404Y23927D01*
X149726Y23030D01*
X148256Y21823D01*
X147049Y20352D01*
X146152Y18675D01*
X145600Y16854D01*
X145413Y14961D01*
X145600Y13067D01*
X146152Y11247D01*
X147049Y9569D01*
X148256Y8098D01*
X149726Y6891D01*
X151404Y5994D01*
X153225Y5442D01*
X155118Y5256D01*
X157011Y5442D01*
X158832Y5994D01*
X160510Y6891D01*
X161981Y8098D01*
X163188Y9569D01*
X164084Y11247D01*
X164637Y13067D01*
X164823Y14961D01*
X164637Y16854D01*
X164084Y18675D01*
X163188Y20352D01*
X161981Y21823D01*
X160510Y23030D01*
X158832Y23927D01*
X157011Y24479D01*
X155118Y24666D01*
D02*
G37*
%LPD*%
D46*
X70079Y186614D02*
D03*
X100000D02*
D03*
D47*
X155118Y189764D02*
D03*
X14961D02*
D03*
Y14961D02*
D03*
D48*
X36516Y10433D02*
D03*
Y29134D02*
D03*
X48819Y20079D02*
D03*
D51*
X113386Y37008D02*
D03*
X165000Y178504D02*
D03*
Y158504D02*
D03*
Y138504D02*
D03*
Y118504D02*
D03*
Y98504D02*
D03*
X150000Y168504D02*
D03*
X155000Y158504D02*
D03*
X150000Y148504D02*
D03*
X155000Y138504D02*
D03*
X150000Y128504D02*
D03*
X155000Y118504D02*
D03*
X140000Y188504D02*
D03*
X145000Y178504D02*
D03*
X140000Y168504D02*
D03*
X145000Y158504D02*
D03*
X140000Y148504D02*
D03*
X145000Y138504D02*
D03*
X140000Y128504D02*
D03*
X145000Y118504D02*
D03*
X130000Y188504D02*
D03*
X135000Y178504D02*
D03*
X130000Y168504D02*
D03*
X135000Y158504D02*
D03*
Y138504D02*
D03*
X130000Y128504D02*
D03*
X135000Y118504D02*
D03*
X130000Y108504D02*
D03*
X135000Y98504D02*
D03*
X130000Y88504D02*
D03*
Y68504D02*
D03*
X120000Y188504D02*
D03*
X125000Y178504D02*
D03*
X120000Y48504D02*
D03*
X110000Y188504D02*
D03*
X115000Y178504D02*
D03*
Y78504D02*
D03*
Y58504D02*
D03*
X110000Y48504D02*
D03*
X100000Y168504D02*
D03*
X105000Y118504D02*
D03*
X100000Y88504D02*
D03*
Y68504D02*
D03*
X105000Y58504D02*
D03*
X100000Y48504D02*
D03*
X90000Y188504D02*
D03*
Y168504D02*
D03*
X95000Y138504D02*
D03*
X90000Y128504D02*
D03*
Y48504D02*
D03*
X95000Y38504D02*
D03*
X80000Y188504D02*
D03*
X85000Y178504D02*
D03*
X80000Y168504D02*
D03*
Y48504D02*
D03*
X70000Y168504D02*
D03*
X75000Y158504D02*
D03*
X70000Y148504D02*
D03*
Y128504D02*
D03*
X75000Y118504D02*
D03*
X60000Y188504D02*
D03*
Y168504D02*
D03*
X65000Y158504D02*
D03*
X60000Y148504D02*
D03*
X50000Y188504D02*
D03*
X55000Y178504D02*
D03*
X50000Y168504D02*
D03*
X55000Y158504D02*
D03*
X50000Y148504D02*
D03*
Y8504D02*
D03*
X40000Y188504D02*
D03*
X45000Y178504D02*
D03*
X40000Y168504D02*
D03*
X45000Y158504D02*
D03*
Y138504D02*
D03*
X40000Y108504D02*
D03*
X30000Y188504D02*
D03*
X35000Y178504D02*
D03*
X30000Y168504D02*
D03*
X35000Y158504D02*
D03*
Y138504D02*
D03*
Y118504D02*
D03*
X30000Y108504D02*
D03*
X35000Y98504D02*
D03*
X30000Y88504D02*
D03*
Y68504D02*
D03*
X35000Y58504D02*
D03*
X25000Y178504D02*
D03*
X20000Y168504D02*
D03*
X25000Y158504D02*
D03*
X20000Y128504D02*
D03*
Y108504D02*
D03*
X25000Y78504D02*
D03*
X20000Y28504D02*
D03*
X10000Y168504D02*
D03*
X15000Y158504D02*
D03*
X10000Y148504D02*
D03*
Y108504D02*
D03*
Y88504D02*
D03*
X15000Y78504D02*
D03*
X10000Y28504D02*
D03*
X41339Y46457D02*
D03*
X103543Y93701D02*
D03*
X105905Y96850D02*
D03*
X150000Y106299D02*
D03*
Y116535D02*
D03*
X140945Y111417D02*
D03*
X159055D02*
D03*
X105512Y36614D02*
D03*
X119291Y103150D02*
D03*
X157874Y79134D02*
D03*
Y81496D02*
D03*
X150394Y68110D02*
D03*
X162205Y51968D02*
D03*
Y55512D02*
D03*
X80315Y11811D02*
D03*
X165354Y82677D02*
D03*
X45705Y54331D02*
D03*
X98425Y64173D02*
D03*
X101181Y61024D02*
D03*
Y57087D02*
D03*
X149213Y45276D02*
D03*
X45669Y60236D02*
D03*
X16535Y143307D02*
D03*
X22047Y150787D02*
D03*
X24409Y142520D02*
D03*
X5906Y79921D02*
D03*
Y72835D02*
D03*
X70866Y25591D02*
D03*
X74016D02*
D03*
X77165D02*
D03*
X80315D02*
D03*
X83465D02*
D03*
X89764D02*
D03*
X99213D02*
D03*
X28346Y92126D02*
D03*
X123622Y101575D02*
D03*
X119685Y62992D02*
D03*
Y71653D02*
D03*
X83465Y50787D02*
D03*
X81102Y53543D02*
D03*
X67323Y48819D02*
D03*
X55512Y64567D02*
D03*
X58661Y61417D02*
D03*
X52362D02*
D03*
X58465Y67520D02*
D03*
X52559D02*
D03*
X74410Y71653D02*
D03*
X75590Y64173D02*
D03*
X75197Y54724D02*
D03*
X64961Y70472D02*
D03*
X70472Y74016D02*
D03*
X42913Y70472D02*
D03*
X122441Y114961D02*
D03*
X118898D02*
D03*
X70472Y144488D02*
D03*
X67323D02*
D03*
X59055Y126772D02*
D03*
Y121653D02*
D03*
X53150Y119291D02*
D03*
Y123228D02*
D03*
Y127165D02*
D03*
X57874Y131496D02*
D03*
X114173Y146063D02*
D03*
Y149213D02*
D03*
X74803Y105118D02*
D03*
Y108661D02*
D03*
X83465Y95276D02*
D03*
X77165D02*
D03*
X80315D02*
D03*
X46378Y85118D02*
D03*
X56693Y84252D02*
D03*
Y87795D02*
D03*
X68504Y97244D02*
D03*
X70866Y88583D02*
D03*
D52*
X102854Y22539D02*
X135039Y54724D01*
X57284Y22539D02*
X102854D01*
X135039Y54724D02*
Y79528D01*
X41339Y38484D02*
X57284Y22539D01*
X41339Y38484D02*
Y46457D01*
Y55905D02*
X45669Y60236D01*
X41339Y46457D02*
Y55905D01*
X157874Y90158D02*
X165354Y82677D01*
X145669Y90158D02*
X157874D01*
X135039Y79528D02*
X145669Y90158D01*
M02*
