M48
;Layer_Color=9474304
;FILE_FORMAT=2:5
INCH,LZ
;TYPE=PLATED
T1F00S00C0.01000
T2F00S00C0.03937
T3F00S00C0.06693
T4F00S00C0.07087
T5F00S00C0.10630
%
T01
X005Y0008504
X0055118Y0011763
X0061417Y0011811
X0070866
X0077165
X0080315
X0083465
X0089764
X0092913
X0096063
X0099213
X0105512
X0108661
X0111811
X0114961
X012Y0008504
X0074016Y0019291
X0064567
X0070866Y0025591
X0074016
X0077165
X0080315
X0083465
X0089764
X0099213
X0095Y0038504
X0105512Y0036614
X0113386Y0037008
X011Y0048504
X012
X0119685Y0062992
Y0071653
X0114567
X0115Y0078504
X0112205Y0094488
X0105905Y009685
Y0100394
X0103543Y0093701
X01Y0088504
X0096142Y0082992
X0083071Y0082677
X0083465Y0095276
X0080315
X0077165
X0068504Y0097244
X0069291Y0105118
X0074803
Y0108661
X0079921Y0111024
X0075Y0118504
X007Y0128504
X0059055Y0126772
Y0121653
X0057874Y0131496
X006Y0148504
X007
X0070472Y0144488
X0067323
X0065Y0158504
X0075
X008Y0168504
X009
X01
X0115Y0178504
X0125
X0135
X0145
X015Y0168504
X014
X013
X0135Y0158504
X0145
X0155
X0165
Y0178504
Y0138504
X0155
X0145
X0135
X014Y0148504
X015
Y0128504
X014
X013
X0135Y0118504
X0145
X015Y0116535
X0155Y0118504
X0165
X0159055Y0111417
X015Y0106299
X0150394Y0099606
X0148031Y0097244
X0152756
X0153543Y0086188
X0156693Y0086215
X0157874Y0081496
Y0079134
X0161417Y0072441
Y0068898
X0150394Y006811
X0153543Y0062992
X0156693Y0059842
X0162205Y0055512
Y0051968
X0161811Y0048031
X0158661Y0044488
X0155512Y0050787
X0150787Y0051181
X0146063Y0050787
X0149213Y0045276
X0147638Y003937
X0142913
X0135Y0038504
X0155
X0165
X016Y0028504
X015
X012
X0115Y0058504
X0105
X0101181Y0057087
Y0061024
X0098425Y0064173
X01Y0068504
Y0048504
X009
X0083465Y0050787
X0081102Y0053543
X008Y0048504
X0075197Y0054724
X0071653
X0067323Y0052362
Y0048819
X0067716Y0036614
X0064567
X0058661Y0061417
X0058465Y006752
X0064961Y0070472
X0070472Y0074016
Y0077953
X0070866Y0085433
Y0088583
X0056693Y0087795
Y0084252
X007441Y0071653
Y0067716
X007559Y0064173
X0071653
X013Y0068504
X0144095Y0070866
X014685Y0073228
Y0075984
Y0079145
Y008189
X0165354Y0082677
X0165Y0098504
X0135
X0123622Y0101575
X0119291Y010315
X0116929Y0107087
X0111963Y0105512
X0114567Y0114173
X0118898Y0114961
X0122441
X013Y0108504
X0140945Y0111417
X013Y0088504
X0105Y0118504
X009Y0128504
X0095Y0138504
X0114173Y0146063
Y0149213
X0085Y0178504
X007Y0168504
X006
X005
X004
X003
X002
X001
X0015Y0158504
X0025
X0035
X0045
X0055
X005Y0148504
X0053937Y0138583
X0045Y0138504
X0035
X0024409Y014252
X0016535Y0143307
Y0138976
X002Y0128504
Y0108504
X003
X004
X0035Y0118504
X0044488Y0119291
Y0123228
Y0127165
X005315
Y0123228
Y0119291
X0035Y0098504
X0028346Y0092126
X003Y0088504
X0019685Y0092126
X001Y0088504
X0005906Y0079921
Y0076378
Y0072835
Y0069291
X0007874Y0063779
X0012205Y0046457
X0023228
X0019685Y003622
X002Y0028504
X001
X0041339Y0046457
X0045705Y0054331
X0048819Y0056693
X0045669Y0060236
X0044882Y0063386
Y0066142
X0045276Y0068898
X0042913Y0070472
X0052559Y006752
X0055512Y0064567
X0052362Y0061417
X0035Y0058504
X0031102Y0063779
X003Y0068504
X0025Y0078504
X0015
X0045669Y0080315
X0048031Y0082677
X0046378Y0085118
X001Y0108504
X0002953Y0138583
X001Y0148504
X0022047Y0150787
X0038189
X0035Y0178504
X0045
X0055
X0025
X003Y0188504
X004
X005
X006
X008
X009
X011
X012
X013
X014
T02
X0085039Y0155905
T03
X0036516Y0010433
X0048819Y0020079
X012126
X0133563Y0010433
Y0029134
X0036516
T04
X0070079Y0186614
X01
T05
X0014961Y0014961
X0155118
X0014961Y0189764
X0155118
M30
