%TF.GenerationSoftware,KiCad,Pcbnew,9.0.3*%
%TF.CreationDate,2026-01-22T12:31:00-05:00*%
%TF.ProjectId,Thunderscope_Rev5.3,5468756e-6465-4727-9363-6f70655f5265,rev?*%
%TF.SameCoordinates,PX52f8807PY958a210*%
%TF.FileFunction,Soldermask,Bot*%
%TF.FilePolarity,Negative*%
%FSLAX45Y45*%
G04 Gerber Fmt 4.5, Leading zero omitted, Abs format (unit mm)*
G04 Created by KiCad (PCBNEW 9.0.3) date 2026-01-22 12:31:00*
%MOMM*%
%LPD*%
G01*
G04 APERTURE LIST*
G04 Aperture macros list*
%AMRoundRect*
0 Rectangle with rounded corners*
0 $1 Rounding radius*
0 $2 $3 $4 $5 $6 $7 $8 $9 X,Y pos of 4 corners*
0 Add a 4 corners polygon primitive as box body*
4,1,4,$2,$3,$4,$5,$6,$7,$8,$9,$2,$3,0*
0 Add four circle primitives for the rounded corners*
1,1,$1+$1,$2,$3*
1,1,$1+$1,$4,$5*
1,1,$1+$1,$6,$7*
1,1,$1+$1,$8,$9*
0 Add four rect primitives between the rounded corners*
20,1,$1+$1,$2,$3,$4,$5,0*
20,1,$1+$1,$4,$5,$6,$7,0*
20,1,$1+$1,$6,$7,$8,$9,0*
20,1,$1+$1,$8,$9,$2,$3,0*%
%AMFreePoly0*
4,1,291,0.281581,0.329743,0.283810,0.329000,0.285000,0.329000,0.286581,0.328743,0.288810,0.328000,0.290000,0.328000,0.291581,0.327743,0.294581,0.326743,0.295236,0.326472,0.296920,0.325630,0.299581,0.324743,0.301536,0.323536,0.302964,0.322108,0.304236,0.321472,0.305536,0.320536,0.306964,0.319108,0.308236,0.318472,0.309536,0.317536,0.317536,0.309536,0.318472,0.308236,
0.319108,0.306964,0.320536,0.305536,0.321472,0.304236,0.322108,0.302964,0.323536,0.301536,0.324743,0.299581,0.325630,0.296920,0.326472,0.295236,0.326743,0.294581,0.327743,0.291581,0.328000,0.290000,0.328000,0.288810,0.328743,0.286581,0.329000,0.285000,0.329000,0.283810,0.329743,0.281581,0.330000,0.280000,0.330000,-0.555000,0.329743,-0.556581,0.329000,-0.558810,
0.329000,-0.560000,0.328743,-0.561581,0.328000,-0.563810,0.328000,-0.565000,0.327743,-0.566581,0.326743,-0.569581,0.326472,-0.570236,0.325630,-0.571920,0.324743,-0.574581,0.323536,-0.576536,0.322108,-0.577964,0.321472,-0.579236,0.320536,-0.580536,0.319108,-0.581964,0.318472,-0.583236,0.317536,-0.584536,0.309536,-0.592536,0.308236,-0.593472,0.306964,-0.594108,0.305536,-0.595536,
0.304236,-0.596472,0.302964,-0.597108,0.301536,-0.598536,0.299581,-0.599743,0.296920,-0.600630,0.295236,-0.601472,0.294581,-0.601743,0.291581,-0.602743,0.290000,-0.603000,0.288810,-0.603000,0.286581,-0.603743,0.285000,-0.604000,0.283810,-0.604000,0.281581,-0.604743,0.280000,-0.605000,0.120000,-0.605000,0.118419,-0.604743,0.116190,-0.604000,0.115000,-0.604000,0.113419,-0.603743,
0.111190,-0.603000,0.110000,-0.603000,0.108419,-0.602743,0.105419,-0.601743,0.104764,-0.601472,0.103080,-0.600630,0.100419,-0.599743,0.098464,-0.598536,0.097036,-0.597108,0.095764,-0.596472,0.094464,-0.595536,0.093036,-0.594108,0.091764,-0.593472,0.090464,-0.592536,0.082464,-0.584536,0.081528,-0.583236,0.080892,-0.581964,0.079464,-0.580536,0.078528,-0.579236,0.077892,-0.577964,
0.076464,-0.576536,0.075257,-0.574581,0.074370,-0.571920,0.073528,-0.570236,0.073257,-0.569581,0.072257,-0.566581,0.072000,-0.565000,0.072000,-0.563810,0.071257,-0.561581,0.071000,-0.560000,0.071000,-0.558810,0.070257,-0.556581,0.070000,-0.555000,0.070000,-0.370496,0.069097,-0.365981,0.069000,-0.365000,0.069000,-0.359496,0.067186,-0.350428,0.061436,-0.336052,0.059528,-0.332236,
0.059358,-0.331857,0.057604,-0.327472,0.055000,-0.324000,0.054713,-0.323572,0.051849,-0.318798,0.049216,-0.315288,0.045464,-0.311536,0.045000,-0.311000,0.042428,-0.307571,0.039000,-0.305000,0.038464,-0.304536,0.034712,-0.300784,0.031201,-0.298151,0.026428,-0.295287,0.026000,-0.295000,0.022528,-0.292396,0.018143,-0.290642,0.017764,-0.290472,0.013948,-0.288564,-0.000428,-0.282813,
-0.009496,-0.281000,-0.015000,-0.281000,-0.015981,-0.280903,-0.020496,-0.280000,-0.180000,-0.280000,-0.180981,-0.279903,-0.185496,-0.279000,-0.191000,-0.279000,-0.191981,-0.278903,-0.201981,-0.276903,-0.202857,-0.276642,-0.217857,-0.270642,-0.218236,-0.270472,-0.222052,-0.268564,-0.226857,-0.266642,-0.228000,-0.266000,-0.231798,-0.263151,-0.236572,-0.260287,-0.237000,-0.260000,-0.241000,-0.257000,
-0.241536,-0.256536,-0.245288,-0.252784,-0.249000,-0.250000,-0.250000,-0.249000,-0.252784,-0.245288,-0.256536,-0.241536,-0.257000,-0.241000,-0.260000,-0.237000,-0.260287,-0.236572,-0.263151,-0.231798,-0.266000,-0.228000,-0.266642,-0.226857,-0.268564,-0.222052,-0.270472,-0.218236,-0.270642,-0.217857,-0.276642,-0.202857,-0.276903,-0.201981,-0.278903,-0.191981,-0.279000,-0.191000,-0.279000,-0.185496,
-0.279903,-0.180981,-0.280000,-0.180000,-0.280000,-0.020496,-0.280903,-0.015981,-0.281000,-0.015000,-0.281000,-0.009496,-0.282813,-0.000428,-0.288564,0.013948,-0.290472,0.017764,-0.290642,0.018143,-0.292396,0.022528,-0.295000,0.026000,-0.295287,0.026428,-0.298151,0.031201,-0.300784,0.034712,-0.304536,0.038464,-0.305000,0.039000,-0.307571,0.042428,-0.311000,0.045000,-0.311536,0.045464,
-0.315288,0.049216,-0.318798,0.051849,-0.323572,0.054713,-0.324000,0.055000,-0.327472,0.057604,-0.331857,0.059358,-0.332236,0.059528,-0.336052,0.061436,-0.350428,0.067186,-0.359496,0.069000,-0.365000,0.069000,-0.365981,0.069097,-0.370496,0.070000,-0.555000,0.070000,-0.556581,0.070257,-0.558810,0.071000,-0.560000,0.071000,-0.561581,0.071257,-0.563810,0.072000,-0.565000,0.072000,
-0.566581,0.072257,-0.569581,0.073257,-0.570236,0.073528,-0.571920,0.074370,-0.574581,0.075257,-0.576536,0.076464,-0.577964,0.077892,-0.579236,0.078528,-0.580536,0.079464,-0.581964,0.080892,-0.583236,0.081528,-0.584536,0.082464,-0.592536,0.090464,-0.593472,0.091764,-0.594108,0.093036,-0.595536,0.094464,-0.596472,0.095764,-0.597108,0.097036,-0.598536,0.098464,-0.599743,0.100419,
-0.600630,0.103080,-0.601472,0.104764,-0.601743,0.105419,-0.602743,0.108419,-0.603000,0.110000,-0.603000,0.111190,-0.603743,0.113419,-0.604000,0.115000,-0.604000,0.116190,-0.604743,0.118419,-0.605000,0.120000,-0.605000,0.280000,-0.604743,0.281581,-0.604000,0.283810,-0.604000,0.285000,-0.603743,0.286581,-0.603000,0.288810,-0.603000,0.290000,-0.602743,0.291581,-0.601743,0.294581,
-0.601472,0.295236,-0.600630,0.296920,-0.599743,0.299581,-0.598536,0.301536,-0.597108,0.302964,-0.596472,0.304236,-0.595536,0.305536,-0.594108,0.306964,-0.593472,0.308236,-0.592536,0.309536,-0.584536,0.317536,-0.583236,0.318472,-0.581964,0.319108,-0.580536,0.320536,-0.579236,0.321472,-0.577964,0.322108,-0.576536,0.323536,-0.574581,0.324743,-0.571920,0.325630,-0.570236,0.326472,
-0.569581,0.326743,-0.566581,0.327743,-0.565000,0.328000,-0.563810,0.328000,-0.561581,0.328743,-0.560000,0.329000,-0.558810,0.329000,-0.556581,0.329743,-0.555000,0.330000,0.280000,0.330000,0.281581,0.329743,0.281581,0.329743,$1*%
%AMFreePoly1*
4,1,53,0.509850,0.374520,0.528051,0.366981,0.541981,0.353051,0.549520,0.334850,0.550000,0.325000,0.550000,0.175000,0.549520,0.165150,0.541981,0.146949,0.528051,0.133019,0.509850,0.125480,0.500000,0.125000,0.325000,0.125000,0.311891,0.124572,0.286567,0.117787,0.263861,0.104678,0.245322,0.086139,0.232213,0.063433,0.225428,0.038109,0.225000,0.025000,0.225000,-0.025000,
0.225428,-0.038109,0.232213,-0.063433,0.245322,-0.086139,0.263861,-0.104678,0.286567,-0.117787,0.311891,-0.124572,0.325000,-0.125000,0.500000,-0.125000,0.509850,-0.125480,0.528051,-0.133019,0.541981,-0.146949,0.549520,-0.165150,0.550000,-0.175000,0.550000,-0.325000,0.549520,-0.334850,0.541981,-0.353051,0.528051,-0.366981,0.509850,-0.374520,0.500000,-0.375000,-0.100000,-0.375000,
-0.109850,-0.374520,-0.128051,-0.366981,-0.141981,-0.353051,-0.149520,-0.334850,-0.150000,-0.325000,-0.150000,0.325000,-0.149520,0.334850,-0.141981,0.353051,-0.128051,0.366981,-0.109850,0.374520,-0.100000,0.375000,0.500000,0.375000,0.509850,0.374520,0.509850,0.374520,$1*%
%AMFreePoly2*
4,1,291,0.281581,0.604743,0.283810,0.604000,0.285000,0.604000,0.286581,0.603743,0.288810,0.603000,0.290000,0.603000,0.291581,0.602743,0.294581,0.601743,0.295236,0.601472,0.296920,0.600630,0.299581,0.599743,0.301536,0.598536,0.302964,0.597108,0.304236,0.596472,0.305536,0.595536,0.306964,0.594108,0.308236,0.593472,0.309536,0.592536,0.317536,0.584536,0.318472,0.583236,
0.319108,0.581964,0.320536,0.580536,0.321472,0.579236,0.322108,0.577964,0.323536,0.576536,0.324743,0.574581,0.325630,0.571920,0.326472,0.570236,0.326743,0.569581,0.327743,0.566581,0.328000,0.565000,0.328000,0.563810,0.328743,0.561581,0.329000,0.560000,0.329000,0.558810,0.329743,0.556581,0.330000,0.555000,0.330000,-0.280000,0.329743,-0.281581,0.329000,-0.283810,
0.329000,-0.285000,0.328743,-0.286581,0.328000,-0.288810,0.328000,-0.290000,0.327743,-0.291581,0.326743,-0.294581,0.326472,-0.295236,0.325630,-0.296920,0.324743,-0.299581,0.323536,-0.301536,0.322108,-0.302964,0.321472,-0.304236,0.320536,-0.305536,0.319108,-0.306964,0.318472,-0.308236,0.317536,-0.309536,0.309536,-0.317536,0.308236,-0.318472,0.306964,-0.319108,0.305536,-0.320536,
0.304236,-0.321472,0.302964,-0.322108,0.301536,-0.323536,0.299581,-0.324743,0.296920,-0.325630,0.295236,-0.326472,0.294581,-0.326743,0.291581,-0.327743,0.290000,-0.328000,0.288810,-0.328000,0.286581,-0.328743,0.285000,-0.329000,0.283810,-0.329000,0.281581,-0.329743,0.280000,-0.330000,-0.555000,-0.330000,-0.556581,-0.329743,-0.558810,-0.329000,-0.560000,-0.329000,-0.561581,-0.328743,
-0.563810,-0.328000,-0.565000,-0.328000,-0.566581,-0.327743,-0.569581,-0.326743,-0.570236,-0.326472,-0.571920,-0.325630,-0.574581,-0.324743,-0.576536,-0.323536,-0.577964,-0.322108,-0.579236,-0.321472,-0.580536,-0.320536,-0.581964,-0.319108,-0.583236,-0.318472,-0.584536,-0.317536,-0.592536,-0.309536,-0.593472,-0.308236,-0.594108,-0.306964,-0.595536,-0.305536,-0.596472,-0.304236,-0.597108,-0.302964,
-0.598536,-0.301536,-0.599743,-0.299581,-0.600630,-0.296920,-0.601472,-0.295236,-0.601743,-0.294581,-0.602743,-0.291581,-0.603000,-0.290000,-0.603000,-0.288810,-0.603743,-0.286581,-0.604000,-0.285000,-0.604000,-0.283810,-0.604743,-0.281581,-0.605000,-0.280000,-0.605000,-0.120000,-0.604743,-0.118419,-0.604000,-0.116190,-0.604000,-0.115000,-0.603743,-0.113419,-0.603000,-0.111190,-0.603000,-0.110000,
-0.602743,-0.108419,-0.601743,-0.105419,-0.601472,-0.104764,-0.600630,-0.103080,-0.599743,-0.100419,-0.598536,-0.098464,-0.597108,-0.097036,-0.596472,-0.095764,-0.595536,-0.094464,-0.594108,-0.093036,-0.593472,-0.091764,-0.592536,-0.090464,-0.584536,-0.082464,-0.583236,-0.081528,-0.581964,-0.080892,-0.580536,-0.079464,-0.579236,-0.078528,-0.577964,-0.077892,-0.576536,-0.076464,-0.574581,-0.075257,
-0.571920,-0.074370,-0.570236,-0.073528,-0.569581,-0.073257,-0.566581,-0.072257,-0.565000,-0.072000,-0.563810,-0.072000,-0.561581,-0.071257,-0.560000,-0.071000,-0.558810,-0.071000,-0.556581,-0.070257,-0.555000,-0.070000,-0.370496,-0.070000,-0.365981,-0.069097,-0.365000,-0.069000,-0.359496,-0.069000,-0.350428,-0.067186,-0.336052,-0.061436,-0.332236,-0.059528,-0.331857,-0.059358,-0.327472,-0.057604,
-0.324000,-0.055000,-0.323572,-0.054713,-0.318798,-0.051849,-0.315288,-0.049216,-0.311536,-0.045464,-0.311000,-0.045000,-0.307571,-0.042428,-0.305000,-0.039000,-0.304536,-0.038464,-0.300784,-0.034712,-0.298151,-0.031201,-0.295287,-0.026428,-0.295000,-0.026000,-0.292396,-0.022528,-0.290642,-0.018143,-0.290472,-0.017764,-0.288564,-0.013948,-0.282813,0.000428,-0.281000,0.009496,-0.281000,0.015000,
-0.280903,0.015981,-0.280000,0.020496,-0.280000,0.180000,-0.279903,0.180981,-0.279000,0.185496,-0.279000,0.191000,-0.278903,0.191981,-0.276903,0.201981,-0.276642,0.202857,-0.270642,0.217857,-0.270472,0.218236,-0.268564,0.222052,-0.266642,0.226857,-0.266000,0.228000,-0.263151,0.231798,-0.260287,0.236572,-0.260000,0.237000,-0.257000,0.241000,-0.256536,0.241536,-0.252784,0.245288,
-0.250000,0.249000,-0.249000,0.250000,-0.245288,0.252784,-0.241536,0.256536,-0.241000,0.257000,-0.237000,0.260000,-0.236572,0.260287,-0.231798,0.263151,-0.228000,0.266000,-0.226857,0.266642,-0.222052,0.268564,-0.218236,0.270472,-0.217857,0.270642,-0.202857,0.276642,-0.201981,0.276903,-0.191981,0.278903,-0.191000,0.279000,-0.185496,0.279000,-0.180981,0.279903,-0.180000,0.280000,
-0.020496,0.280000,-0.015981,0.280903,-0.015000,0.281000,-0.009496,0.281000,-0.000428,0.282813,0.013948,0.288564,0.017764,0.290472,0.018143,0.290642,0.022528,0.292396,0.026000,0.295000,0.026428,0.295287,0.031201,0.298151,0.034712,0.300784,0.038464,0.304536,0.039000,0.305000,0.042428,0.307571,0.045000,0.311000,0.045464,0.311536,0.049216,0.315288,0.051849,0.318798,
0.054713,0.323572,0.055000,0.324000,0.057604,0.327472,0.059358,0.331857,0.059528,0.332236,0.061436,0.336052,0.067186,0.350428,0.069000,0.359496,0.069000,0.365000,0.069097,0.365981,0.070000,0.370496,0.070000,0.555000,0.070257,0.556581,0.071000,0.558810,0.071000,0.560000,0.071257,0.561581,0.072000,0.563810,0.072000,0.565000,0.072257,0.566581,0.073257,0.569581,
0.073528,0.570236,0.074370,0.571920,0.075257,0.574581,0.076464,0.576536,0.077892,0.577964,0.078528,0.579236,0.079464,0.580536,0.080892,0.581964,0.081528,0.583236,0.082464,0.584536,0.090464,0.592536,0.091764,0.593472,0.093036,0.594108,0.094464,0.595536,0.095764,0.596472,0.097036,0.597108,0.098464,0.598536,0.100419,0.599743,0.103080,0.600630,0.104764,0.601472,
0.105419,0.601743,0.108419,0.602743,0.110000,0.603000,0.111190,0.603000,0.113419,0.603743,0.115000,0.604000,0.116190,0.604000,0.118419,0.604743,0.120000,0.605000,0.280000,0.605000,0.281581,0.604743,0.281581,0.604743,$1*%
%AMFreePoly3*
4,1,291,-0.118419,0.604743,-0.116190,0.604000,-0.115000,0.604000,-0.113419,0.603743,-0.111190,0.603000,-0.110000,0.603000,-0.108419,0.602743,-0.105419,0.601743,-0.104764,0.601472,-0.103080,0.600630,-0.100419,0.599743,-0.098464,0.598536,-0.097036,0.597108,-0.095764,0.596472,-0.094464,0.595536,-0.093036,0.594108,-0.091764,0.593472,-0.090464,0.592536,-0.082464,0.584536,-0.081528,0.583236,
-0.080892,0.581964,-0.079464,0.580536,-0.078528,0.579236,-0.077892,0.577964,-0.076464,0.576536,-0.075257,0.574581,-0.074370,0.571920,-0.073528,0.570236,-0.073257,0.569581,-0.072257,0.566581,-0.072000,0.565000,-0.072000,0.563810,-0.071257,0.561581,-0.071000,0.560000,-0.071000,0.558810,-0.070257,0.556581,-0.070000,0.555000,-0.070000,0.370496,-0.069097,0.365981,-0.069000,0.365000,
-0.069000,0.359496,-0.067186,0.350428,-0.061436,0.336052,-0.059528,0.332236,-0.059358,0.331857,-0.057604,0.327472,-0.055000,0.324000,-0.054713,0.323572,-0.051849,0.318798,-0.049216,0.315288,-0.045464,0.311536,-0.045000,0.311000,-0.042428,0.307571,-0.039000,0.305000,-0.038464,0.304536,-0.034712,0.300784,-0.031201,0.298151,-0.026428,0.295287,-0.026000,0.295000,-0.022528,0.292396,
-0.018143,0.290642,-0.017764,0.290472,-0.013948,0.288564,0.000428,0.282813,0.009496,0.281000,0.015000,0.281000,0.015981,0.280903,0.020496,0.280000,0.180000,0.280000,0.180981,0.279903,0.185496,0.279000,0.191000,0.279000,0.191981,0.278903,0.201981,0.276903,0.202857,0.276642,0.217857,0.270642,0.218236,0.270472,0.222052,0.268564,0.226857,0.266642,0.228000,0.266000,
0.231798,0.263151,0.236572,0.260287,0.237000,0.260000,0.241000,0.257000,0.241536,0.256536,0.245288,0.252784,0.249000,0.250000,0.250000,0.249000,0.252784,0.245288,0.256536,0.241536,0.257000,0.241000,0.260000,0.237000,0.260287,0.236572,0.263151,0.231798,0.266000,0.228000,0.266642,0.226857,0.268564,0.222052,0.270472,0.218236,0.270642,0.217857,0.276642,0.202857,
0.276903,0.201981,0.278903,0.191981,0.279000,0.191000,0.279000,0.185496,0.279903,0.180981,0.280000,0.180000,0.280000,0.020496,0.280903,0.015981,0.281000,0.015000,0.281000,0.009496,0.282813,0.000427,0.288564,-0.013948,0.290472,-0.017764,0.290642,-0.018143,0.292396,-0.022528,0.295000,-0.026000,0.295287,-0.026428,0.298151,-0.031201,0.300784,-0.034712,0.304536,-0.038464,
0.305000,-0.039000,0.307571,-0.042428,0.311000,-0.045000,0.311536,-0.045464,0.315288,-0.049216,0.318798,-0.051849,0.323572,-0.054713,0.324000,-0.055000,0.327472,-0.057604,0.331857,-0.059358,0.332236,-0.059528,0.336052,-0.061436,0.350428,-0.067186,0.359496,-0.069000,0.365000,-0.069000,0.365981,-0.069097,0.370496,-0.070000,0.555000,-0.070000,0.556581,-0.070257,0.558810,-0.071000,
0.560000,-0.071000,0.561581,-0.071257,0.563810,-0.072000,0.565000,-0.072000,0.566581,-0.072257,0.569581,-0.073257,0.570236,-0.073528,0.571920,-0.074370,0.574581,-0.075257,0.576536,-0.076464,0.577964,-0.077892,0.579236,-0.078528,0.580536,-0.079464,0.581964,-0.080892,0.583236,-0.081528,0.584536,-0.082464,0.592536,-0.090464,0.593472,-0.091764,0.594108,-0.093036,0.595536,-0.094464,
0.596472,-0.095764,0.597108,-0.097036,0.598536,-0.098464,0.599743,-0.100419,0.600630,-0.103080,0.601472,-0.104764,0.601743,-0.105419,0.602743,-0.108419,0.603000,-0.110000,0.603000,-0.111190,0.603743,-0.113419,0.604000,-0.115000,0.604000,-0.116190,0.604743,-0.118419,0.605000,-0.120000,0.605000,-0.280000,0.604743,-0.281581,0.604000,-0.283810,0.604000,-0.285000,0.603743,-0.286581,
0.603000,-0.288810,0.603000,-0.290000,0.602743,-0.291581,0.601743,-0.294581,0.601472,-0.295236,0.600630,-0.296920,0.599743,-0.299581,0.598536,-0.301536,0.597108,-0.302964,0.596472,-0.304236,0.595536,-0.305536,0.594108,-0.306964,0.593472,-0.308236,0.592536,-0.309536,0.584536,-0.317536,0.583236,-0.318472,0.581964,-0.319108,0.580536,-0.320536,0.579236,-0.321472,0.577964,-0.322108,
0.576536,-0.323536,0.574581,-0.324743,0.571920,-0.325630,0.570236,-0.326472,0.569581,-0.326743,0.566581,-0.327743,0.565000,-0.328000,0.563810,-0.328000,0.561581,-0.328743,0.560000,-0.329000,0.558810,-0.329000,0.556581,-0.329743,0.555000,-0.330000,-0.280000,-0.330000,-0.281581,-0.329743,-0.283810,-0.329000,-0.285000,-0.329000,-0.286581,-0.328743,-0.288810,-0.328000,-0.290000,-0.328000,
-0.291581,-0.327743,-0.294581,-0.326743,-0.295236,-0.326472,-0.296920,-0.325630,-0.299581,-0.324743,-0.301536,-0.323536,-0.302964,-0.322108,-0.304236,-0.321472,-0.305536,-0.320536,-0.306964,-0.319108,-0.308236,-0.318472,-0.309536,-0.317536,-0.317536,-0.309536,-0.318472,-0.308236,-0.319108,-0.306964,-0.320536,-0.305536,-0.321472,-0.304236,-0.322108,-0.302964,-0.323536,-0.301536,-0.324743,-0.299581,
-0.325630,-0.296920,-0.326472,-0.295236,-0.326743,-0.294581,-0.327743,-0.291581,-0.328000,-0.290000,-0.328000,-0.288810,-0.328743,-0.286581,-0.329000,-0.285000,-0.329000,-0.283810,-0.329743,-0.281581,-0.330000,-0.280000,-0.330000,0.555000,-0.329743,0.556581,-0.329000,0.558810,-0.329000,0.560000,-0.328743,0.561581,-0.328000,0.563810,-0.328000,0.565000,-0.327743,0.566581,-0.326743,0.569581,
-0.326472,0.570236,-0.325630,0.571920,-0.324743,0.574581,-0.323536,0.576536,-0.322108,0.577964,-0.321472,0.579236,-0.320536,0.580536,-0.319108,0.581964,-0.318472,0.583236,-0.317536,0.584536,-0.309536,0.592536,-0.308236,0.593472,-0.306964,0.594108,-0.305536,0.595536,-0.304236,0.596472,-0.302964,0.597108,-0.301536,0.598536,-0.299581,0.599743,-0.296920,0.600630,-0.295236,0.601472,
-0.294581,0.601743,-0.291581,0.602743,-0.290000,0.603000,-0.288810,0.603000,-0.286581,0.603743,-0.285000,0.604000,-0.283810,0.604000,-0.281581,0.604743,-0.280000,0.605000,-0.120000,0.605000,-0.118419,0.604743,-0.118419,0.604743,$1*%
%AMFreePoly4*
4,1,291,0.556581,0.329743,0.558810,0.329000,0.560000,0.329000,0.561581,0.328743,0.563810,0.328000,0.565000,0.328000,0.566581,0.327743,0.569581,0.326743,0.570236,0.326472,0.571920,0.325630,0.574581,0.324743,0.576536,0.323536,0.577964,0.322108,0.579236,0.321472,0.580536,0.320536,0.581964,0.319108,0.583236,0.318472,0.584536,0.317536,0.592536,0.309536,0.593472,0.308236,
0.594108,0.306964,0.595536,0.305536,0.596472,0.304236,0.597108,0.302964,0.598536,0.301536,0.599743,0.299581,0.600630,0.296920,0.601472,0.295236,0.601743,0.294581,0.602743,0.291581,0.603000,0.290000,0.603000,0.288810,0.603743,0.286581,0.604000,0.285000,0.604000,0.283810,0.604743,0.281581,0.605000,0.280000,0.605000,0.120000,0.604743,0.118419,0.604000,0.116190,
0.604000,0.115000,0.603743,0.113419,0.603000,0.111190,0.603000,0.110000,0.602743,0.108419,0.601743,0.105419,0.601472,0.104764,0.600630,0.103080,0.599743,0.100419,0.598536,0.098464,0.597108,0.097036,0.596472,0.095764,0.595536,0.094464,0.594108,0.093036,0.593472,0.091764,0.592536,0.090464,0.584536,0.082464,0.583236,0.081528,0.581964,0.080892,0.580536,0.079464,
0.579236,0.078528,0.577964,0.077892,0.576536,0.076464,0.574581,0.075257,0.571920,0.074370,0.570236,0.073528,0.569581,0.073257,0.566581,0.072257,0.565000,0.072000,0.563810,0.072000,0.561581,0.071257,0.560000,0.071000,0.558810,0.071000,0.556581,0.070257,0.555000,0.070000,0.370496,0.070000,0.365981,0.069097,0.365000,0.069000,0.359496,0.069000,0.350428,0.067186,
0.336052,0.061436,0.332236,0.059528,0.331857,0.059358,0.327472,0.057604,0.324000,0.055000,0.323572,0.054713,0.318798,0.051849,0.315288,0.049216,0.311536,0.045464,0.311000,0.045000,0.307571,0.042428,0.305000,0.039000,0.304536,0.038464,0.300784,0.034712,0.298151,0.031201,0.295287,0.026428,0.295000,0.026000,0.292396,0.022528,0.290642,0.018143,0.290472,0.017764,
0.288564,0.013948,0.282813,-0.000428,0.281000,-0.009496,0.281000,-0.015000,0.280903,-0.015981,0.280000,-0.020496,0.280000,-0.180000,0.279903,-0.180981,0.279000,-0.185496,0.279000,-0.191000,0.278903,-0.191981,0.276903,-0.201981,0.276642,-0.202857,0.270642,-0.217857,0.270472,-0.218236,0.268564,-0.222052,0.266642,-0.226857,0.266000,-0.228000,0.263151,-0.231798,0.260287,-0.236572,
0.260000,-0.237000,0.257000,-0.241000,0.256536,-0.241536,0.252784,-0.245288,0.250000,-0.249000,0.249000,-0.250000,0.245288,-0.252784,0.241536,-0.256536,0.241000,-0.257000,0.237000,-0.260000,0.236572,-0.260287,0.231798,-0.263151,0.228000,-0.266000,0.226857,-0.266642,0.222052,-0.268564,0.218236,-0.270472,0.217857,-0.270642,0.202857,-0.276642,0.201981,-0.276903,0.191981,-0.278903,
0.191000,-0.279000,0.185496,-0.279000,0.180981,-0.279903,0.180000,-0.280000,0.020496,-0.280000,0.015981,-0.280903,0.015000,-0.281000,0.009496,-0.281000,0.000427,-0.282813,-0.013948,-0.288564,-0.017764,-0.290472,-0.018143,-0.290642,-0.022528,-0.292396,-0.026000,-0.295000,-0.026428,-0.295287,-0.031201,-0.298151,-0.034712,-0.300784,-0.038464,-0.304536,-0.039000,-0.305000,-0.042428,-0.307571,
-0.045000,-0.311000,-0.045464,-0.311536,-0.049216,-0.315288,-0.051849,-0.318798,-0.054713,-0.323572,-0.055000,-0.324000,-0.057604,-0.327472,-0.059358,-0.331857,-0.059528,-0.332236,-0.061436,-0.336052,-0.067186,-0.350428,-0.069000,-0.359496,-0.069000,-0.365000,-0.069097,-0.365981,-0.070000,-0.370496,-0.070000,-0.555000,-0.070257,-0.556581,-0.071000,-0.558810,-0.071000,-0.560000,-0.071257,-0.561581,
-0.072000,-0.563810,-0.072000,-0.565000,-0.072257,-0.566581,-0.073257,-0.569581,-0.073528,-0.570236,-0.074370,-0.571920,-0.075257,-0.574581,-0.076464,-0.576536,-0.077892,-0.577964,-0.078528,-0.579236,-0.079464,-0.580536,-0.080892,-0.581964,-0.081528,-0.583236,-0.082464,-0.584536,-0.090464,-0.592536,-0.091764,-0.593472,-0.093036,-0.594108,-0.094464,-0.595536,-0.095764,-0.596472,-0.097036,-0.597108,
-0.098464,-0.598536,-0.100419,-0.599743,-0.103080,-0.600630,-0.104764,-0.601472,-0.105419,-0.601743,-0.108419,-0.602743,-0.110000,-0.603000,-0.111190,-0.603000,-0.113419,-0.603743,-0.115000,-0.604000,-0.116190,-0.604000,-0.118419,-0.604743,-0.120000,-0.605000,-0.280000,-0.605000,-0.281581,-0.604743,-0.283810,-0.604000,-0.285000,-0.604000,-0.286581,-0.603743,-0.288810,-0.603000,-0.290000,-0.603000,
-0.291581,-0.602743,-0.294581,-0.601743,-0.295236,-0.601472,-0.296920,-0.600630,-0.299581,-0.599743,-0.301536,-0.598536,-0.302964,-0.597108,-0.304236,-0.596472,-0.305536,-0.595536,-0.306964,-0.594108,-0.308236,-0.593472,-0.309536,-0.592536,-0.317536,-0.584536,-0.318472,-0.583236,-0.319108,-0.581964,-0.320536,-0.580536,-0.321472,-0.579236,-0.322108,-0.577964,-0.323536,-0.576536,-0.324743,-0.574581,
-0.325630,-0.571920,-0.326472,-0.570236,-0.326743,-0.569581,-0.327743,-0.566581,-0.328000,-0.565000,-0.328000,-0.563810,-0.328743,-0.561581,-0.329000,-0.560000,-0.329000,-0.558810,-0.329743,-0.556581,-0.330000,-0.555000,-0.330000,0.280000,-0.329743,0.281581,-0.329000,0.283810,-0.329000,0.285000,-0.328743,0.286581,-0.328000,0.288810,-0.328000,0.290000,-0.327743,0.291581,-0.326743,0.294581,
-0.326472,0.295236,-0.325630,0.296920,-0.324743,0.299581,-0.323536,0.301536,-0.322108,0.302964,-0.321472,0.304236,-0.320536,0.305536,-0.319108,0.306964,-0.318472,0.308236,-0.317536,0.309536,-0.309536,0.317536,-0.308236,0.318472,-0.306964,0.319108,-0.305536,0.320536,-0.304236,0.321472,-0.302964,0.322108,-0.301536,0.323536,-0.299581,0.324743,-0.296920,0.325630,-0.295236,0.326472,
-0.294581,0.326743,-0.291581,0.327743,-0.290000,0.328000,-0.288810,0.328000,-0.286581,0.328743,-0.285000,0.329000,-0.283810,0.329000,-0.281581,0.329743,-0.280000,0.330000,0.555000,0.330000,0.556581,0.329743,0.556581,0.329743,$1*%
G04 Aperture macros list end*
%ADD10C,0.120000*%
%ADD11C,1.000000*%
%ADD12C,0.000000*%
%ADD13C,0.380000*%
%ADD14C,2.000000*%
%ADD15C,3.000000*%
%ADD16C,0.900000*%
%ADD17O,30.200000X1.000000*%
%ADD18O,7.500000X1.000000*%
%ADD19R,1.090000X1.090000*%
%ADD20C,1.090000*%
%ADD21C,3.100000*%
%ADD22O,7.400000X1.000000*%
%ADD23C,2.500000*%
%ADD24O,1.000000X8.750000*%
%ADD25O,8.000000X1.000000*%
%ADD26R,0.700000X3.200000*%
%ADD27R,0.700000X4.200000*%
%ADD28C,3.180000*%
%ADD29RoundRect,0.375000X-0.375000X-0.375000X0.375000X-0.375000X0.375000X0.375000X-0.375000X0.375000X0*%
%ADD30C,1.500000*%
%ADD31RoundRect,0.160000X0.160000X0.160000X-0.160000X0.160000X-0.160000X-0.160000X0.160000X-0.160000X0*%
%ADD32C,1.000000*%
%ADD33RoundRect,0.150000X-0.150000X-0.200000X0.150000X-0.200000X0.150000X0.200000X-0.150000X0.200000X0*%
%ADD34RoundRect,0.325000X0.325000X-0.425000X0.325000X0.425000X-0.325000X0.425000X-0.325000X-0.425000X0*%
%ADD35RoundRect,0.225000X0.225000X-0.275000X0.225000X0.275000X-0.225000X0.275000X-0.225000X-0.275000X0*%
%ADD36RoundRect,0.160000X0.160000X-0.160000X0.160000X0.160000X-0.160000X0.160000X-0.160000X-0.160000X0*%
%ADD37RoundRect,0.237500X0.287500X-0.237500X0.287500X0.237500X-0.287500X0.237500X-0.287500X-0.237500X0*%
%ADD38RoundRect,0.075000X0.075000X-0.175000X0.075000X0.175000X-0.075000X0.175000X-0.075000X-0.175000X0*%
%ADD39RoundRect,0.150000X0.150000X0.150000X-0.150000X0.150000X-0.150000X-0.150000X0.150000X-0.150000X0*%
%ADD40RoundRect,0.237500X-0.287500X0.237500X-0.287500X-0.237500X0.287500X-0.237500X0.287500X0.237500X0*%
%ADD41RoundRect,0.237500X0.237500X0.287500X-0.237500X0.287500X-0.237500X-0.287500X0.237500X-0.287500X0*%
%ADD42C,5.300000*%
%ADD43RoundRect,0.325000X-0.325000X0.425000X-0.325000X-0.425000X0.325000X-0.425000X0.325000X0.425000X0*%
%ADD44RoundRect,0.225000X-0.275000X-0.225000X0.275000X-0.225000X0.275000X0.225000X-0.275000X0.225000X0*%
%ADD45RoundRect,0.150000X-0.150000X-0.150000X0.150000X-0.150000X0.150000X0.150000X-0.150000X0.150000X0*%
%ADD46RoundRect,0.160000X-0.160000X0.160000X-0.160000X-0.160000X0.160000X-0.160000X0.160000X0.160000X0*%
%ADD47RoundRect,0.160000X-0.160000X-0.160000X0.160000X-0.160000X0.160000X0.160000X-0.160000X0.160000X0*%
%ADD48RoundRect,0.237500X-0.237500X-0.287500X0.237500X-0.287500X0.237500X0.287500X-0.237500X0.287500X0*%
%ADD49RoundRect,0.101500X0.913500X-1.798500X0.913500X1.798500X-0.913500X1.798500X-0.913500X-1.798500X0*%
%ADD50RoundRect,0.325000X0.425000X0.325000X-0.425000X0.325000X-0.425000X-0.325000X0.425000X-0.325000X0*%
%ADD51RoundRect,0.150000X0.150000X-0.150000X0.150000X0.150000X-0.150000X0.150000X-0.150000X-0.150000X0*%
%ADD52RoundRect,0.325000X-0.425000X-0.325000X0.425000X-0.325000X0.425000X0.325000X-0.425000X0.325000X0*%
%ADD53RoundRect,0.060000X-0.540000X1.315000X-0.540000X-1.315000X0.540000X-1.315000X0.540000X1.315000X0*%
%ADD54RoundRect,0.150000X-0.150000X0.150000X-0.150000X-0.150000X0.150000X-0.150000X0.150000X0.150000X0*%
%ADD55RoundRect,0.117500X-0.182500X0.117500X-0.182500X-0.117500X0.182500X-0.117500X0.182500X0.117500X0*%
%ADD56RoundRect,0.137500X-0.162500X-0.137500X0.162500X-0.137500X0.162500X0.137500X-0.162500X0.137500X0*%
%ADD57RoundRect,0.145000X0.145000X0.645000X-0.145000X0.645000X-0.145000X-0.645000X0.145000X-0.645000X0*%
%ADD58RoundRect,0.125000X-0.125000X-0.125000X0.125000X-0.125000X0.125000X0.125000X-0.125000X0.125000X0*%
%ADD59RoundRect,0.145000X-0.145000X-0.645000X0.145000X-0.645000X0.145000X0.645000X-0.145000X0.645000X0*%
%ADD60RoundRect,0.117500X0.117500X0.182500X-0.117500X0.182500X-0.117500X-0.182500X0.117500X-0.182500X0*%
%ADD61RoundRect,0.075000X-0.075000X0.175000X-0.075000X-0.175000X0.075000X-0.175000X0.075000X0.175000X0*%
%ADD62RoundRect,0.375000X0.375000X-0.375000X0.375000X0.375000X-0.375000X0.375000X-0.375000X-0.375000X0*%
%ADD63RoundRect,0.100000X0.100000X-0.637500X0.100000X0.637500X-0.100000X0.637500X-0.100000X-0.637500X0*%
%ADD64RoundRect,0.117500X-0.117500X-0.182500X0.117500X-0.182500X0.117500X0.182500X-0.117500X0.182500X0*%
%ADD65RoundRect,0.060000X-1.315000X-0.540000X1.315000X-0.540000X1.315000X0.540000X-1.315000X0.540000X0*%
%ADD66RoundRect,0.101500X-1.798500X-0.913500X1.798500X-0.913500X1.798500X0.913500X-1.798500X0.913500X0*%
%ADD67RoundRect,0.137500X0.162500X0.137500X-0.162500X0.137500X-0.162500X-0.137500X0.162500X-0.137500X0*%
%ADD68RoundRect,0.125000X0.125000X0.125000X-0.125000X0.125000X-0.125000X-0.125000X0.125000X-0.125000X0*%
%ADD69RoundRect,0.060000X0.540000X-1.315000X0.540000X1.315000X-0.540000X1.315000X-0.540000X-1.315000X0*%
%ADD70RoundRect,0.112500X0.412500X-0.112500X0.412500X0.112500X-0.412500X0.112500X-0.412500X-0.112500X0*%
%ADD71RoundRect,0.085000X1.615000X-1.915000X1.615000X1.915000X-1.615000X1.915000X-1.615000X-1.915000X0*%
%ADD72RoundRect,0.100000X0.325000X-0.100000X0.325000X0.100000X-0.325000X0.100000X-0.325000X-0.100000X0*%
%ADD73C,1.092200*%
%ADD74C,1.600200*%
%ADD75RoundRect,0.076200X-0.076200X-0.698500X0.076200X-0.698500X0.076200X0.698500X-0.076200X0.698500X0*%
%ADD76RoundRect,0.119380X-0.477520X-1.252220X0.477520X-1.252220X0.477520X1.252220X-0.477520X1.252220X0*%
%ADD77FreePoly0,270.000000*%
%ADD78FreePoly1,90.000000*%
%ADD79RoundRect,0.050000X-0.075000X0.300000X-0.075000X-0.300000X0.075000X-0.300000X0.075000X0.300000X0*%
%ADD80FreePoly2,270.000000*%
%ADD81RoundRect,0.050000X0.300000X0.075000X-0.300000X0.075000X-0.300000X-0.075000X0.300000X-0.075000X0*%
%ADD82RoundRect,0.050000X-0.300000X-0.075000X0.300000X-0.075000X0.300000X0.075000X-0.300000X0.075000X0*%
%ADD83FreePoly3,270.000000*%
%ADD84FreePoly1,270.000000*%
%ADD85FreePoly4,270.000000*%
%ADD86RoundRect,0.050000X-0.525000X0.525000X-0.525000X-0.525000X0.525000X-0.525000X0.525000X0.525000X0*%
%ADD87RoundRect,0.050000X-0.775000X0.525000X-0.775000X-0.525000X0.775000X-0.525000X0.775000X0.525000X0*%
G04 APERTURE END LIST*
G36*
X3440000Y1470000D02*
G01*
X4040000Y1470000D01*
X4040000Y1330000D01*
X3440000Y1330000D01*
X3440000Y1470000D01*
G37*
D10*
X77406Y1376429D02*
X77406Y1396429D01*
X108835Y1396429D02*
X48835Y1396429D01*
X48835Y1396429D02*
X48835Y1367857D01*
X108835Y1345000D02*
X68835Y1345000D01*
X80263Y1345000D02*
X74549Y1342143D01*
X74549Y1342143D02*
X71692Y1339286D01*
X71692Y1339286D02*
X68835Y1333572D01*
X68835Y1333572D02*
X68835Y1327857D01*
X108835Y1299286D02*
X105978Y1305000D01*
X105978Y1305000D02*
X103120Y1307857D01*
X103120Y1307857D02*
X97406Y1310714D01*
X97406Y1310714D02*
X80263Y1310714D01*
X80263Y1310714D02*
X74549Y1307857D01*
X74549Y1307857D02*
X71692Y1305000D01*
X71692Y1305000D02*
X68835Y1299286D01*
X68835Y1299286D02*
X68835Y1290714D01*
X68835Y1290714D02*
X71692Y1285000D01*
X71692Y1285000D02*
X74549Y1282143D01*
X74549Y1282143D02*
X80263Y1279286D01*
X80263Y1279286D02*
X97406Y1279286D01*
X97406Y1279286D02*
X103120Y1282143D01*
X103120Y1282143D02*
X105978Y1285000D01*
X105978Y1285000D02*
X108835Y1290714D01*
X108835Y1290714D02*
X108835Y1299286D01*
X108835Y1227857D02*
X48835Y1227857D01*
X105978Y1227857D02*
X108835Y1233571D01*
X108835Y1233571D02*
X108835Y1245000D01*
X108835Y1245000D02*
X105978Y1250714D01*
X105978Y1250714D02*
X103120Y1253571D01*
X103120Y1253571D02*
X97406Y1256429D01*
X97406Y1256429D02*
X80263Y1256429D01*
X80263Y1256429D02*
X74549Y1253571D01*
X74549Y1253571D02*
X71692Y1250714D01*
X71692Y1250714D02*
X68835Y1245000D01*
X68835Y1245000D02*
X68835Y1233571D01*
X68835Y1233571D02*
X71692Y1227857D01*
X108835Y1190714D02*
X105978Y1196429D01*
X105978Y1196429D02*
X103120Y1199286D01*
X103120Y1199286D02*
X97406Y1202143D01*
X97406Y1202143D02*
X80263Y1202143D01*
X80263Y1202143D02*
X74549Y1199286D01*
X74549Y1199286D02*
X71692Y1196429D01*
X71692Y1196429D02*
X68835Y1190714D01*
X68835Y1190714D02*
X68835Y1182143D01*
X68835Y1182143D02*
X71692Y1176429D01*
X71692Y1176429D02*
X74549Y1173571D01*
X74549Y1173571D02*
X80263Y1170714D01*
X80263Y1170714D02*
X97406Y1170714D01*
X97406Y1170714D02*
X103120Y1173571D01*
X103120Y1173571D02*
X105978Y1176429D01*
X105978Y1176429D02*
X108835Y1182143D01*
X108835Y1182143D02*
X108835Y1190714D01*
X228288Y1559286D02*
X225431Y1562143D01*
X225431Y1562143D02*
X216860Y1567857D01*
X216860Y1567857D02*
X211146Y1570714D01*
X211146Y1570714D02*
X202574Y1573572D01*
X202574Y1573572D02*
X188288Y1576429D01*
X188288Y1576429D02*
X176860Y1576429D01*
X176860Y1576429D02*
X162574Y1573572D01*
X162574Y1573572D02*
X154003Y1570714D01*
X154003Y1570714D02*
X148289Y1567857D01*
X148289Y1567857D02*
X139717Y1562143D01*
X139717Y1562143D02*
X136860Y1559286D01*
X151146Y1539286D02*
X148289Y1536429D01*
X148289Y1536429D02*
X145431Y1530714D01*
X145431Y1530714D02*
X145431Y1516429D01*
X145431Y1516429D02*
X148289Y1510714D01*
X148289Y1510714D02*
X151146Y1507857D01*
X151146Y1507857D02*
X156860Y1505000D01*
X156860Y1505000D02*
X162574Y1505000D01*
X162574Y1505000D02*
X171146Y1507857D01*
X171146Y1507857D02*
X205431Y1542143D01*
X205431Y1542143D02*
X205431Y1505000D01*
X145431Y1467857D02*
X145431Y1462143D01*
X145431Y1462143D02*
X148289Y1456429D01*
X148289Y1456429D02*
X151146Y1453571D01*
X151146Y1453571D02*
X156860Y1450714D01*
X156860Y1450714D02*
X168289Y1447857D01*
X168289Y1447857D02*
X182574Y1447857D01*
X182574Y1447857D02*
X194003Y1450714D01*
X194003Y1450714D02*
X199717Y1453571D01*
X199717Y1453571D02*
X202574Y1456429D01*
X202574Y1456429D02*
X205431Y1462143D01*
X205431Y1462143D02*
X205431Y1467857D01*
X205431Y1467857D02*
X202574Y1473571D01*
X202574Y1473571D02*
X199717Y1476429D01*
X199717Y1476429D02*
X194003Y1479286D01*
X194003Y1479286D02*
X182574Y1482143D01*
X182574Y1482143D02*
X168289Y1482143D01*
X168289Y1482143D02*
X156860Y1479286D01*
X156860Y1479286D02*
X151146Y1476429D01*
X151146Y1476429D02*
X148289Y1473571D01*
X148289Y1473571D02*
X145431Y1467857D01*
X145431Y1410714D02*
X145431Y1405000D01*
X145431Y1405000D02*
X148289Y1399286D01*
X148289Y1399286D02*
X151146Y1396429D01*
X151146Y1396429D02*
X156860Y1393572D01*
X156860Y1393572D02*
X168289Y1390714D01*
X168289Y1390714D02*
X182574Y1390714D01*
X182574Y1390714D02*
X194003Y1393572D01*
X194003Y1393572D02*
X199717Y1396429D01*
X199717Y1396429D02*
X202574Y1399286D01*
X202574Y1399286D02*
X205431Y1405000D01*
X205431Y1405000D02*
X205431Y1410714D01*
X205431Y1410714D02*
X202574Y1416429D01*
X202574Y1416429D02*
X199717Y1419286D01*
X199717Y1419286D02*
X194003Y1422143D01*
X194003Y1422143D02*
X182574Y1425000D01*
X182574Y1425000D02*
X168289Y1425000D01*
X168289Y1425000D02*
X156860Y1422143D01*
X156860Y1422143D02*
X151146Y1419286D01*
X151146Y1419286D02*
X148289Y1416429D01*
X148289Y1416429D02*
X145431Y1410714D01*
X205431Y1362143D02*
X205431Y1350714D01*
X205431Y1350714D02*
X202574Y1345000D01*
X202574Y1345000D02*
X199717Y1342143D01*
X199717Y1342143D02*
X191146Y1336429D01*
X191146Y1336429D02*
X179717Y1333572D01*
X179717Y1333572D02*
X156860Y1333572D01*
X156860Y1333572D02*
X151146Y1336429D01*
X151146Y1336429D02*
X148289Y1339286D01*
X148289Y1339286D02*
X145431Y1345000D01*
X145431Y1345000D02*
X145431Y1356429D01*
X145431Y1356429D02*
X148289Y1362143D01*
X148289Y1362143D02*
X151146Y1365000D01*
X151146Y1365000D02*
X156860Y1367857D01*
X156860Y1367857D02*
X171146Y1367857D01*
X171146Y1367857D02*
X176860Y1365000D01*
X176860Y1365000D02*
X179717Y1362143D01*
X179717Y1362143D02*
X182574Y1356429D01*
X182574Y1356429D02*
X182574Y1345000D01*
X182574Y1345000D02*
X179717Y1339286D01*
X179717Y1339286D02*
X176860Y1336429D01*
X176860Y1336429D02*
X171146Y1333572D01*
X182574Y1307857D02*
X182574Y1262143D01*
X151146Y1236429D02*
X148289Y1233571D01*
X148289Y1233571D02*
X145431Y1227857D01*
X145431Y1227857D02*
X145431Y1213571D01*
X145431Y1213571D02*
X148289Y1207857D01*
X148289Y1207857D02*
X151146Y1205000D01*
X151146Y1205000D02*
X156860Y1202143D01*
X156860Y1202143D02*
X162574Y1202143D01*
X162574Y1202143D02*
X171146Y1205000D01*
X171146Y1205000D02*
X205431Y1239286D01*
X205431Y1239286D02*
X205431Y1202143D01*
X145431Y1165000D02*
X145431Y1159286D01*
X145431Y1159286D02*
X148289Y1153571D01*
X148289Y1153571D02*
X151146Y1150714D01*
X151146Y1150714D02*
X156860Y1147857D01*
X156860Y1147857D02*
X168289Y1145000D01*
X168289Y1145000D02*
X182574Y1145000D01*
X182574Y1145000D02*
X194003Y1147857D01*
X194003Y1147857D02*
X199717Y1150714D01*
X199717Y1150714D02*
X202574Y1153571D01*
X202574Y1153571D02*
X205431Y1159286D01*
X205431Y1159286D02*
X205431Y1165000D01*
X205431Y1165000D02*
X202574Y1170714D01*
X202574Y1170714D02*
X199717Y1173571D01*
X199717Y1173571D02*
X194003Y1176429D01*
X194003Y1176429D02*
X182574Y1179286D01*
X182574Y1179286D02*
X168289Y1179286D01*
X168289Y1179286D02*
X156860Y1176429D01*
X156860Y1176429D02*
X151146Y1173571D01*
X151146Y1173571D02*
X148289Y1170714D01*
X148289Y1170714D02*
X145431Y1165000D01*
X151146Y1122143D02*
X148289Y1119286D01*
X148289Y1119286D02*
X145431Y1113571D01*
X145431Y1113571D02*
X145431Y1099286D01*
X145431Y1099286D02*
X148289Y1093571D01*
X148289Y1093571D02*
X151146Y1090714D01*
X151146Y1090714D02*
X156860Y1087857D01*
X156860Y1087857D02*
X162574Y1087857D01*
X162574Y1087857D02*
X171146Y1090714D01*
X171146Y1090714D02*
X205431Y1125000D01*
X205431Y1125000D02*
X205431Y1087857D01*
X145431Y1067857D02*
X145431Y1030714D01*
X145431Y1030714D02*
X168289Y1050714D01*
X168289Y1050714D02*
X168289Y1042143D01*
X168289Y1042143D02*
X171146Y1036428D01*
X171146Y1036428D02*
X174003Y1033571D01*
X174003Y1033571D02*
X179717Y1030714D01*
X179717Y1030714D02*
X194003Y1030714D01*
X194003Y1030714D02*
X199717Y1033571D01*
X199717Y1033571D02*
X202574Y1036428D01*
X202574Y1036428D02*
X205431Y1042143D01*
X205431Y1042143D02*
X205431Y1059286D01*
X205431Y1059286D02*
X202574Y1065000D01*
X202574Y1065000D02*
X199717Y1067857D01*
X228288Y1010714D02*
X225431Y1007857D01*
X225431Y1007857D02*
X216860Y1002143D01*
X216860Y1002143D02*
X211146Y999285D01*
X211146Y999285D02*
X202574Y996428D01*
X202574Y996428D02*
X188288Y993571D01*
X188288Y993571D02*
X176860Y993571D01*
X176860Y993571D02*
X162574Y996428D01*
X162574Y996428D02*
X154003Y999285D01*
X154003Y999285D02*
X148289Y1002143D01*
X148289Y1002143D02*
X139717Y1007857D01*
X139717Y1007857D02*
X136860Y1010714D01*
X108835Y2228571D02*
X80263Y2248571D01*
X108835Y2262857D02*
X48835Y2262857D01*
X48835Y2262857D02*
X48835Y2240000D01*
X48835Y2240000D02*
X51692Y2234286D01*
X51692Y2234286D02*
X54549Y2231429D01*
X54549Y2231429D02*
X60263Y2228571D01*
X60263Y2228571D02*
X68835Y2228571D01*
X68835Y2228571D02*
X74549Y2231429D01*
X74549Y2231429D02*
X77406Y2234286D01*
X77406Y2234286D02*
X80263Y2240000D01*
X80263Y2240000D02*
X80263Y2262857D01*
X68835Y2177143D02*
X108835Y2177143D01*
X68835Y2202857D02*
X100263Y2202857D01*
X100263Y2202857D02*
X105978Y2200000D01*
X105978Y2200000D02*
X108835Y2194286D01*
X108835Y2194286D02*
X108835Y2185714D01*
X108835Y2185714D02*
X105978Y2180000D01*
X105978Y2180000D02*
X103120Y2177143D01*
X108835Y2148571D02*
X48835Y2148571D01*
X71692Y2148571D02*
X68835Y2142857D01*
X68835Y2142857D02*
X68835Y2131429D01*
X68835Y2131429D02*
X71692Y2125714D01*
X71692Y2125714D02*
X74549Y2122857D01*
X74549Y2122857D02*
X80263Y2120000D01*
X80263Y2120000D02*
X97406Y2120000D01*
X97406Y2120000D02*
X103120Y2122857D01*
X103120Y2122857D02*
X105978Y2125714D01*
X105978Y2125714D02*
X108835Y2131429D01*
X108835Y2131429D02*
X108835Y2142857D01*
X108835Y2142857D02*
X105978Y2148571D01*
X68835Y2100000D02*
X108835Y2085714D01*
X68835Y2071429D02*
X108835Y2085714D01*
X108835Y2085714D02*
X123120Y2091429D01*
X123120Y2091429D02*
X125978Y2094286D01*
X125978Y2094286D02*
X128835Y2100000D01*
X228288Y2444286D02*
X225431Y2447143D01*
X225431Y2447143D02*
X216860Y2452857D01*
X216860Y2452857D02*
X211146Y2455714D01*
X211146Y2455714D02*
X202574Y2458572D01*
X202574Y2458572D02*
X188288Y2461429D01*
X188288Y2461429D02*
X176860Y2461429D01*
X176860Y2461429D02*
X162574Y2458572D01*
X162574Y2458572D02*
X154003Y2455714D01*
X154003Y2455714D02*
X148289Y2452857D01*
X148289Y2452857D02*
X139717Y2447143D01*
X139717Y2447143D02*
X136860Y2444286D01*
X151146Y2424286D02*
X148289Y2421429D01*
X148289Y2421429D02*
X145431Y2415714D01*
X145431Y2415714D02*
X145431Y2401429D01*
X145431Y2401429D02*
X148289Y2395714D01*
X148289Y2395714D02*
X151146Y2392857D01*
X151146Y2392857D02*
X156860Y2390000D01*
X156860Y2390000D02*
X162574Y2390000D01*
X162574Y2390000D02*
X171146Y2392857D01*
X171146Y2392857D02*
X205431Y2427143D01*
X205431Y2427143D02*
X205431Y2390000D01*
X145431Y2352857D02*
X145431Y2347143D01*
X145431Y2347143D02*
X148289Y2341429D01*
X148289Y2341429D02*
X151146Y2338572D01*
X151146Y2338572D02*
X156860Y2335714D01*
X156860Y2335714D02*
X168289Y2332857D01*
X168289Y2332857D02*
X182574Y2332857D01*
X182574Y2332857D02*
X194003Y2335714D01*
X194003Y2335714D02*
X199717Y2338572D01*
X199717Y2338572D02*
X202574Y2341429D01*
X202574Y2341429D02*
X205431Y2347143D01*
X205431Y2347143D02*
X205431Y2352857D01*
X205431Y2352857D02*
X202574Y2358572D01*
X202574Y2358572D02*
X199717Y2361429D01*
X199717Y2361429D02*
X194003Y2364286D01*
X194003Y2364286D02*
X182574Y2367143D01*
X182574Y2367143D02*
X168289Y2367143D01*
X168289Y2367143D02*
X156860Y2364286D01*
X156860Y2364286D02*
X151146Y2361429D01*
X151146Y2361429D02*
X148289Y2358572D01*
X148289Y2358572D02*
X145431Y2352857D01*
X205431Y2275714D02*
X205431Y2310000D01*
X205431Y2292857D02*
X145431Y2292857D01*
X145431Y2292857D02*
X154003Y2298572D01*
X154003Y2298572D02*
X159717Y2304286D01*
X159717Y2304286D02*
X162574Y2310000D01*
X145431Y2224286D02*
X145431Y2235714D01*
X145431Y2235714D02*
X148289Y2241429D01*
X148289Y2241429D02*
X151146Y2244286D01*
X151146Y2244286D02*
X159717Y2250000D01*
X159717Y2250000D02*
X171146Y2252857D01*
X171146Y2252857D02*
X194003Y2252857D01*
X194003Y2252857D02*
X199717Y2250000D01*
X199717Y2250000D02*
X202574Y2247143D01*
X202574Y2247143D02*
X205431Y2241429D01*
X205431Y2241429D02*
X205431Y2230000D01*
X205431Y2230000D02*
X202574Y2224286D01*
X202574Y2224286D02*
X199717Y2221429D01*
X199717Y2221429D02*
X194003Y2218572D01*
X194003Y2218572D02*
X179717Y2218572D01*
X179717Y2218572D02*
X174003Y2221429D01*
X174003Y2221429D02*
X171146Y2224286D01*
X171146Y2224286D02*
X168289Y2230000D01*
X168289Y2230000D02*
X168289Y2241429D01*
X168289Y2241429D02*
X171146Y2247143D01*
X171146Y2247143D02*
X174003Y2250000D01*
X174003Y2250000D02*
X179717Y2252857D01*
X182574Y2192857D02*
X182574Y2147143D01*
X151146Y2121429D02*
X148289Y2118571D01*
X148289Y2118571D02*
X145431Y2112857D01*
X145431Y2112857D02*
X145431Y2098571D01*
X145431Y2098571D02*
X148289Y2092857D01*
X148289Y2092857D02*
X151146Y2090000D01*
X151146Y2090000D02*
X156860Y2087143D01*
X156860Y2087143D02*
X162574Y2087143D01*
X162574Y2087143D02*
X171146Y2090000D01*
X171146Y2090000D02*
X205431Y2124286D01*
X205431Y2124286D02*
X205431Y2087143D01*
X145431Y2050000D02*
X145431Y2044286D01*
X145431Y2044286D02*
X148289Y2038571D01*
X148289Y2038571D02*
X151146Y2035714D01*
X151146Y2035714D02*
X156860Y2032857D01*
X156860Y2032857D02*
X168289Y2030000D01*
X168289Y2030000D02*
X182574Y2030000D01*
X182574Y2030000D02*
X194003Y2032857D01*
X194003Y2032857D02*
X199717Y2035714D01*
X199717Y2035714D02*
X202574Y2038571D01*
X202574Y2038571D02*
X205431Y2044286D01*
X205431Y2044286D02*
X205431Y2050000D01*
X205431Y2050000D02*
X202574Y2055714D01*
X202574Y2055714D02*
X199717Y2058571D01*
X199717Y2058571D02*
X194003Y2061428D01*
X194003Y2061428D02*
X182574Y2064286D01*
X182574Y2064286D02*
X168289Y2064286D01*
X168289Y2064286D02*
X156860Y2061428D01*
X156860Y2061428D02*
X151146Y2058571D01*
X151146Y2058571D02*
X148289Y2055714D01*
X148289Y2055714D02*
X145431Y2050000D01*
X151146Y2007143D02*
X148289Y2004286D01*
X148289Y2004286D02*
X145431Y1998571D01*
X145431Y1998571D02*
X145431Y1984286D01*
X145431Y1984286D02*
X148289Y1978571D01*
X148289Y1978571D02*
X151146Y1975714D01*
X151146Y1975714D02*
X156860Y1972857D01*
X156860Y1972857D02*
X162574Y1972857D01*
X162574Y1972857D02*
X171146Y1975714D01*
X171146Y1975714D02*
X205431Y2010000D01*
X205431Y2010000D02*
X205431Y1972857D01*
X165431Y1921428D02*
X205431Y1921428D01*
X142574Y1935714D02*
X185431Y1950000D01*
X185431Y1950000D02*
X185431Y1912857D01*
X228288Y1895714D02*
X225431Y1892857D01*
X225431Y1892857D02*
X216860Y1887143D01*
X216860Y1887143D02*
X211146Y1884285D01*
X211146Y1884285D02*
X202574Y1881428D01*
X202574Y1881428D02*
X188288Y1878571D01*
X188288Y1878571D02*
X176860Y1878571D01*
X176860Y1878571D02*
X162574Y1881428D01*
X162574Y1881428D02*
X154003Y1884285D01*
X154003Y1884285D02*
X148289Y1887143D01*
X148289Y1887143D02*
X139717Y1892857D01*
X139717Y1892857D02*
X136860Y1895714D01*
%TO.C,P1*%
G36*
X4475000Y175000D02*
G01*
X7955000Y175000D01*
X7955000Y772500D01*
X4475000Y772500D01*
X4475000Y175000D01*
G37*
%TO.C,FID6*%
D11*
X10850000Y10200000D02*
G75*
G02*
X10750000Y10200000I-50000J0D01*
G01*
X10750000Y10200000D02*
G75*
G02*
X10850000Y10200000I50000J0D01*
G01*
D12*
%TO.C,REF\u002A\u002A*%
G36*
X102292Y1822688D02*
G01*
X104780Y1822503D01*
X107247Y1822196D01*
X109688Y1821770D01*
X112100Y1821227D01*
X114479Y1820566D01*
X116819Y1819792D01*
X119118Y1818905D01*
X121371Y1817907D01*
X123574Y1816799D01*
X125722Y1815584D01*
X127812Y1814263D01*
X129840Y1812838D01*
X131801Y1811310D01*
X133691Y1809682D01*
X135506Y1807955D01*
X215961Y1727500D01*
X135506Y1647045D01*
X133691Y1645317D01*
X131801Y1643689D01*
X129840Y1642162D01*
X127812Y1640737D01*
X125722Y1639416D01*
X123574Y1638201D01*
X121371Y1637093D01*
X119118Y1636095D01*
X116819Y1635208D01*
X114479Y1634433D01*
X112100Y1633773D01*
X109688Y1633230D01*
X107247Y1632804D01*
X104780Y1632497D01*
X102292Y1632312D01*
X99787Y1632250D01*
X97522Y1632250D01*
X95039Y1632313D01*
X92588Y1632499D01*
X90174Y1632806D01*
X87798Y1633230D01*
X85464Y1633769D01*
X83174Y1634419D01*
X80932Y1635178D01*
X78741Y1636042D01*
X76604Y1637008D01*
X74524Y1638073D01*
X72503Y1639235D01*
X70546Y1640490D01*
X68654Y1641835D01*
X66831Y1643267D01*
X65081Y1644784D01*
X63405Y1646381D01*
X61807Y1648057D01*
X60291Y1649808D01*
X58859Y1651630D01*
X57513Y1653522D01*
X56258Y1655480D01*
X55097Y1657500D01*
X54031Y1659580D01*
X53065Y1661718D01*
X52201Y1663909D01*
X51443Y1666150D01*
X50792Y1668440D01*
X50254Y1670774D01*
X49829Y1673150D01*
X49523Y1675565D01*
X49336Y1678015D01*
X49273Y1680498D01*
X49351Y1683236D01*
X49582Y1685949D01*
X49964Y1688633D01*
X50493Y1691281D01*
X51168Y1693887D01*
X51985Y1696446D01*
X52942Y1698952D01*
X54035Y1701399D01*
X55263Y1703781D01*
X56622Y1706094D01*
X58110Y1708330D01*
X59723Y1710485D01*
X61460Y1712553D01*
X63317Y1714527D01*
X65292Y1716403D01*
X67381Y1718174D01*
X79039Y1727500D01*
X67381Y1736826D01*
X65292Y1738597D01*
X63317Y1740473D01*
X61460Y1742447D01*
X59723Y1744515D01*
X58110Y1746670D01*
X56622Y1748906D01*
X55263Y1751219D01*
X54035Y1753601D01*
X52942Y1756048D01*
X51985Y1758554D01*
X51168Y1761113D01*
X50493Y1763719D01*
X49964Y1766367D01*
X49582Y1769050D01*
X49351Y1771764D01*
X49273Y1774502D01*
X49336Y1776985D01*
X49523Y1779435D01*
X49829Y1781849D01*
X50254Y1784225D01*
X50792Y1786560D01*
X51443Y1788849D01*
X52201Y1791091D01*
X53065Y1793282D01*
X54031Y1795419D01*
X55097Y1797500D01*
X56258Y1799520D01*
X57513Y1801478D01*
X58859Y1803369D01*
X60291Y1805192D01*
X61807Y1806943D01*
X63405Y1808618D01*
X65081Y1810216D01*
X66831Y1811732D01*
X68654Y1813165D01*
X70546Y1814510D01*
X72503Y1815765D01*
X74524Y1816927D01*
X76604Y1817992D01*
X78741Y1818958D01*
X80932Y1819822D01*
X83174Y1820581D01*
X85464Y1821231D01*
X87798Y1821770D01*
X90174Y1822194D01*
X92588Y1822501D01*
X95039Y1822687D01*
X97522Y1822750D01*
X99787Y1822750D01*
X102292Y1822688D01*
G37*
G36*
X87728Y2651603D02*
G01*
X91321Y2651251D01*
X94790Y2650679D01*
X98115Y2649898D01*
X101279Y2648920D01*
X104263Y2647756D01*
X107049Y2646419D01*
X109620Y2644920D01*
X111956Y2643271D01*
X114039Y2641483D01*
X115852Y2639568D01*
X116652Y2638566D01*
X117377Y2637537D01*
X118025Y2636483D01*
X118594Y2635403D01*
X119081Y2634301D01*
X119486Y2633177D01*
X119804Y2632034D01*
X120034Y2630871D01*
X120174Y2629691D01*
X120221Y2628496D01*
X120174Y2627301D01*
X120034Y2626121D01*
X119804Y2624959D01*
X119486Y2623815D01*
X119081Y2622691D01*
X118594Y2621589D01*
X118025Y2620510D01*
X117377Y2619455D01*
X116652Y2618426D01*
X115852Y2617425D01*
X114981Y2616452D01*
X114039Y2615510D01*
X113030Y2614599D01*
X111956Y2613722D01*
X110818Y2612879D01*
X109620Y2612072D01*
X108363Y2611303D01*
X107049Y2610573D01*
X105682Y2609884D01*
X104263Y2609236D01*
X102795Y2608632D01*
X101279Y2608073D01*
X99718Y2607560D01*
X98115Y2607095D01*
X96471Y2606679D01*
X94790Y2606314D01*
X93072Y2606001D01*
X91321Y2605741D01*
X89539Y2605537D01*
X87728Y2605389D01*
X85890Y2605300D01*
X84027Y2605270D01*
X80327Y2605389D01*
X76733Y2605741D01*
X73265Y2606314D01*
X69939Y2607095D01*
X66776Y2608073D01*
X63791Y2609236D01*
X61005Y2610573D01*
X58435Y2612072D01*
X56099Y2613722D01*
X54015Y2615510D01*
X52202Y2617425D01*
X51403Y2618426D01*
X50678Y2619455D01*
X50030Y2620510D01*
X49461Y2621589D01*
X48973Y2622691D01*
X48569Y2623815D01*
X48250Y2624959D01*
X48020Y2626121D01*
X47880Y2627301D01*
X47833Y2628496D01*
X47880Y2629691D01*
X48020Y2630871D01*
X48250Y2632034D01*
X48569Y2633177D01*
X48973Y2634301D01*
X49461Y2635403D01*
X50030Y2636483D01*
X50678Y2637537D01*
X51403Y2638566D01*
X52202Y2639568D01*
X53073Y2640540D01*
X54015Y2641483D01*
X55024Y2642393D01*
X56099Y2643271D01*
X57236Y2644114D01*
X58435Y2644920D01*
X59692Y2645689D01*
X61005Y2646419D01*
X62372Y2647109D01*
X63791Y2647756D01*
X65260Y2648360D01*
X66776Y2648920D01*
X68336Y2649433D01*
X69939Y2649898D01*
X71583Y2650313D01*
X73265Y2650679D01*
X74982Y2650992D01*
X76733Y2651251D01*
X78516Y2651455D01*
X80327Y2651603D01*
X82165Y2651693D01*
X84027Y2651723D01*
X87728Y2651603D01*
G37*
G36*
X87728Y2597602D02*
G01*
X91321Y2597250D01*
X94790Y2596677D01*
X98115Y2595896D01*
X101279Y2594918D01*
X104263Y2593755D01*
X107049Y2592418D01*
X109620Y2590919D01*
X111956Y2589270D01*
X114039Y2587482D01*
X115852Y2585566D01*
X116652Y2584565D01*
X117377Y2583536D01*
X118025Y2582481D01*
X118594Y2581402D01*
X119081Y2580300D01*
X119486Y2579176D01*
X119804Y2578032D01*
X120034Y2576870D01*
X120174Y2575690D01*
X120221Y2574495D01*
X120174Y2573300D01*
X120034Y2572120D01*
X119804Y2570957D01*
X119486Y2569814D01*
X119081Y2568690D01*
X118594Y2567587D01*
X118025Y2566508D01*
X117377Y2565453D01*
X116652Y2564424D01*
X115852Y2563423D01*
X114981Y2562450D01*
X114039Y2561507D01*
X113030Y2560596D01*
X111956Y2559719D01*
X110818Y2558876D01*
X109620Y2558069D01*
X108363Y2557300D01*
X107049Y2556570D01*
X105682Y2555880D01*
X104263Y2555232D01*
X102795Y2554628D01*
X101279Y2554069D01*
X99718Y2553556D01*
X98115Y2553091D01*
X96471Y2552675D01*
X94790Y2552309D01*
X93072Y2551996D01*
X91321Y2551737D01*
X89539Y2551533D01*
X87728Y2551385D01*
X85890Y2551295D01*
X84027Y2551265D01*
X80327Y2551385D01*
X76733Y2551737D01*
X73265Y2552309D01*
X69939Y2553091D01*
X66776Y2554069D01*
X63791Y2555232D01*
X61005Y2556570D01*
X58435Y2558069D01*
X56099Y2559719D01*
X54015Y2561507D01*
X52202Y2563423D01*
X51403Y2564424D01*
X50678Y2565453D01*
X50030Y2566508D01*
X49461Y2567587D01*
X48973Y2568690D01*
X48569Y2569814D01*
X48250Y2570957D01*
X48020Y2572120D01*
X47880Y2573300D01*
X47833Y2574495D01*
X47880Y2575690D01*
X48020Y2576870D01*
X48250Y2578032D01*
X48569Y2579176D01*
X48973Y2580300D01*
X49461Y2581402D01*
X50030Y2582481D01*
X50678Y2583536D01*
X51403Y2584565D01*
X52202Y2585566D01*
X53073Y2586539D01*
X54015Y2587482D01*
X55024Y2588392D01*
X56099Y2589270D01*
X57236Y2590112D01*
X58435Y2590919D01*
X59692Y2591688D01*
X61005Y2592418D01*
X62372Y2593107D01*
X63791Y2593755D01*
X65260Y2594359D01*
X66776Y2594918D01*
X68336Y2595431D01*
X69939Y2595896D01*
X71583Y2596312D01*
X73265Y2596677D01*
X74982Y2596990D01*
X76733Y2597250D01*
X78516Y2597454D01*
X80327Y2597602D01*
X82165Y2597691D01*
X84027Y2597722D01*
X87728Y2597602D01*
G37*
G36*
X139470Y2560964D02*
G01*
X141874Y2560733D01*
X144157Y2560312D01*
X146301Y2559702D01*
X148288Y2558906D01*
X149218Y2558440D01*
X150102Y2557928D01*
X150939Y2557370D01*
X151725Y2556768D01*
X152459Y2556121D01*
X153140Y2555430D01*
X153763Y2554695D01*
X154328Y2553916D01*
X154833Y2553094D01*
X155274Y2552229D01*
X155646Y2551331D01*
X155944Y2550414D01*
X156170Y2549479D01*
X156324Y2548527D01*
X156408Y2547562D01*
X156424Y2546583D01*
X156371Y2545594D01*
X156253Y2544596D01*
X156068Y2543591D01*
X155820Y2542581D01*
X155508Y2541568D01*
X155135Y2540553D01*
X154701Y2539539D01*
X154208Y2538527D01*
X153656Y2537519D01*
X153047Y2536517D01*
X152383Y2535523D01*
X151663Y2534538D01*
X150890Y2533565D01*
X150065Y2532605D01*
X149188Y2531660D01*
X148262Y2530733D01*
X147286Y2529824D01*
X146263Y2528936D01*
X145193Y2528071D01*
X144078Y2527230D01*
X142919Y2526415D01*
X141717Y2525628D01*
X140473Y2524871D01*
X139189Y2524146D01*
X137865Y2523455D01*
X136503Y2522799D01*
X133735Y2521629D01*
X130968Y2520666D01*
X128217Y2519909D01*
X125501Y2519353D01*
X122837Y2518998D01*
X120242Y2518841D01*
X117733Y2518880D01*
X115329Y2519111D01*
X113047Y2519532D01*
X110903Y2520142D01*
X108915Y2520938D01*
X107985Y2521404D01*
X107101Y2521916D01*
X106264Y2522474D01*
X105478Y2523076D01*
X104743Y2523723D01*
X104063Y2524414D01*
X103439Y2525149D01*
X102874Y2525928D01*
X102370Y2526750D01*
X101928Y2527615D01*
X101556Y2528513D01*
X101258Y2529430D01*
X101032Y2530365D01*
X100877Y2531317D01*
X100793Y2532282D01*
X100777Y2533261D01*
X100829Y2534250D01*
X100948Y2535248D01*
X101132Y2536253D01*
X101380Y2537263D01*
X101692Y2538276D01*
X102065Y2539291D01*
X102499Y2540305D01*
X102992Y2541317D01*
X103544Y2542325D01*
X104152Y2543327D01*
X104817Y2544321D01*
X105537Y2545306D01*
X106310Y2546279D01*
X107135Y2547239D01*
X108012Y2548184D01*
X108939Y2549111D01*
X109914Y2550020D01*
X110938Y2550908D01*
X112007Y2551773D01*
X113123Y2552615D01*
X114282Y2553429D01*
X115484Y2554216D01*
X116728Y2554973D01*
X118013Y2555698D01*
X119337Y2556389D01*
X120699Y2557045D01*
X123468Y2558215D01*
X126236Y2559178D01*
X128987Y2559936D01*
X131703Y2560491D01*
X134367Y2560846D01*
X136962Y2561003D01*
X139470Y2560964D01*
G37*
G36*
X120242Y2684142D02*
G01*
X121530Y2684087D01*
X122837Y2683984D01*
X124161Y2683832D01*
X125501Y2683629D01*
X126854Y2683377D01*
X128217Y2683074D01*
X129589Y2682721D01*
X130968Y2682317D01*
X132351Y2681861D01*
X133735Y2681355D01*
X135120Y2680796D01*
X136503Y2680185D01*
X137865Y2679529D01*
X139189Y2678838D01*
X140473Y2678113D01*
X141717Y2677356D01*
X142919Y2676569D01*
X144078Y2675754D01*
X145193Y2674913D01*
X146262Y2674048D01*
X147286Y2673160D01*
X148261Y2672251D01*
X149187Y2671323D01*
X150064Y2670378D01*
X150889Y2669418D01*
X151662Y2668445D01*
X152382Y2667460D01*
X153046Y2666466D01*
X153655Y2665464D01*
X154206Y2664456D01*
X154700Y2663444D01*
X155134Y2662429D01*
X155507Y2661415D01*
X155818Y2660401D01*
X156067Y2659391D01*
X156251Y2658386D01*
X156370Y2657389D01*
X156422Y2656400D01*
X156407Y2655421D01*
X156323Y2654456D01*
X156169Y2653504D01*
X155943Y2652569D01*
X155646Y2651652D01*
X155274Y2650755D01*
X154833Y2649890D01*
X154328Y2649069D01*
X153763Y2648290D01*
X153140Y2647555D01*
X152459Y2646864D01*
X151725Y2646218D01*
X150939Y2645616D01*
X150102Y2645059D01*
X149218Y2644547D01*
X148288Y2644080D01*
X147315Y2643660D01*
X146301Y2643285D01*
X145248Y2642957D01*
X144157Y2642675D01*
X143032Y2642441D01*
X141875Y2642254D01*
X140687Y2642114D01*
X139471Y2642023D01*
X138229Y2641980D01*
X136963Y2641985D01*
X135676Y2642039D01*
X134369Y2642142D01*
X133044Y2642295D01*
X131705Y2642497D01*
X130352Y2642749D01*
X128989Y2643052D01*
X127617Y2643406D01*
X126238Y2643810D01*
X124855Y2644266D01*
X123470Y2644773D01*
X122086Y2645332D01*
X120703Y2645943D01*
X119341Y2646599D01*
X118017Y2647290D01*
X116733Y2648015D01*
X115489Y2648772D01*
X114287Y2649559D01*
X113128Y2650373D01*
X112013Y2651215D01*
X110943Y2652080D01*
X109920Y2652968D01*
X108944Y2653877D01*
X108018Y2654805D01*
X107141Y2655750D01*
X106316Y2656709D01*
X105543Y2657683D01*
X104823Y2658667D01*
X104158Y2659662D01*
X103550Y2660664D01*
X102998Y2661672D01*
X102505Y2662684D01*
X102071Y2663698D01*
X101697Y2664713D01*
X101386Y2665727D01*
X101138Y2666737D01*
X100953Y2667741D01*
X100835Y2668739D01*
X100782Y2669728D01*
X100798Y2670706D01*
X100882Y2671672D01*
X101036Y2672623D01*
X101262Y2673558D01*
X101560Y2674475D01*
X101932Y2675372D01*
X102373Y2676237D01*
X102877Y2677059D01*
X103442Y2677838D01*
X104065Y2678572D01*
X104745Y2679263D01*
X105480Y2679910D01*
X106266Y2680512D01*
X107102Y2681069D01*
X107986Y2681581D01*
X108916Y2682047D01*
X109889Y2682467D01*
X110903Y2682842D01*
X111957Y2683170D01*
X113047Y2683451D01*
X114172Y2683686D01*
X115330Y2683873D01*
X116518Y2684012D01*
X117734Y2684103D01*
X118976Y2684147D01*
X120242Y2684142D01*
G37*
G36*
X200089Y2656696D02*
G01*
X201184Y2656617D01*
X202241Y2656487D01*
X203262Y2656307D01*
X204247Y2656078D01*
X205194Y2655800D01*
X206105Y2655476D01*
X206979Y2655106D01*
X207816Y2654692D01*
X208618Y2654234D01*
X209382Y2653733D01*
X210111Y2653191D01*
X210803Y2652609D01*
X211459Y2651987D01*
X212079Y2651328D01*
X212663Y2650631D01*
X213211Y2649898D01*
X213723Y2649131D01*
X214200Y2648330D01*
X214640Y2647496D01*
X215045Y2646630D01*
X215415Y2645734D01*
X216047Y2643855D01*
X216538Y2641867D01*
X216887Y2639779D01*
X217097Y2637599D01*
X217167Y2635337D01*
X217160Y2633392D01*
X217103Y2631550D01*
X217038Y2630640D01*
X216940Y2629723D01*
X216802Y2628788D01*
X216618Y2627824D01*
X216379Y2626820D01*
X216080Y2625764D01*
X215713Y2624647D01*
X215272Y2623456D01*
X214750Y2622182D01*
X214140Y2620812D01*
X213435Y2619337D01*
X212628Y2617744D01*
X212402Y2617472D01*
X211809Y2616640D01*
X211416Y2616005D01*
X210981Y2615222D01*
X210519Y2614287D01*
X210048Y2613196D01*
X209582Y2611947D01*
X209139Y2610537D01*
X208735Y2608962D01*
X208386Y2607220D01*
X208109Y2605308D01*
X207919Y2603222D01*
X207833Y2600960D01*
X207868Y2598519D01*
X207834Y2597287D01*
X207832Y2596100D01*
X207860Y2594956D01*
X207915Y2593857D01*
X207996Y2592801D01*
X208101Y2591788D01*
X208228Y2590818D01*
X208375Y2589890D01*
X208539Y2589005D01*
X208718Y2588161D01*
X208912Y2587358D01*
X209117Y2586597D01*
X209332Y2585876D01*
X209554Y2585195D01*
X209782Y2584554D01*
X210013Y2583953D01*
X210247Y2583391D01*
X210479Y2582868D01*
X210709Y2582383D01*
X210935Y2581936D01*
X211365Y2581156D01*
X211753Y2580524D01*
X212083Y2580038D01*
X212338Y2579694D01*
X212562Y2579422D01*
X213370Y2577828D01*
X214078Y2576349D01*
X214691Y2574973D01*
X215217Y2573690D01*
X215663Y2572490D01*
X216034Y2571362D01*
X216339Y2570295D01*
X216582Y2569279D01*
X216772Y2568303D01*
X216915Y2567356D01*
X217018Y2566428D01*
X217087Y2565508D01*
X217129Y2564586D01*
X217150Y2563650D01*
X217160Y2561698D01*
X217090Y2559435D01*
X217003Y2558335D01*
X216880Y2557256D01*
X216723Y2556200D01*
X216530Y2555168D01*
X216302Y2554161D01*
X216039Y2553181D01*
X215740Y2552227D01*
X215406Y2551302D01*
X215037Y2550406D01*
X214632Y2549541D01*
X214191Y2548707D01*
X213714Y2547906D01*
X213202Y2547139D01*
X212654Y2546407D01*
X212070Y2545711D01*
X211449Y2545051D01*
X210793Y2544430D01*
X210101Y2543848D01*
X209372Y2543306D01*
X208608Y2542806D01*
X207807Y2542348D01*
X206969Y2541934D01*
X206095Y2541564D01*
X205184Y2541240D01*
X204237Y2540963D01*
X203254Y2540734D01*
X202233Y2540554D01*
X201176Y2540424D01*
X200081Y2540346D01*
X198950Y2540319D01*
X197787Y2540358D01*
X196623Y2540477D01*
X195448Y2540676D01*
X194255Y2540955D01*
X193035Y2541315D01*
X191782Y2541756D01*
X190485Y2542280D01*
X189138Y2542887D01*
X187733Y2543578D01*
X186261Y2544352D01*
X183084Y2546155D01*
X179543Y2548302D01*
X175574Y2550797D01*
X171975Y2553131D01*
X168054Y2555761D01*
X163235Y2559112D01*
X157906Y2562993D01*
X152452Y2567213D01*
X149800Y2569390D01*
X147263Y2571580D01*
X144887Y2573759D01*
X142723Y2575903D01*
X142033Y2576657D01*
X141387Y2577437D01*
X140782Y2578239D01*
X140218Y2579061D01*
X139693Y2579898D01*
X139206Y2580748D01*
X138754Y2581607D01*
X138338Y2582472D01*
X137955Y2583340D01*
X137605Y2584208D01*
X136994Y2585929D01*
X136494Y2587610D01*
X136095Y2589224D01*
X135784Y2590746D01*
X135552Y2592149D01*
X135386Y2593408D01*
X135275Y2594496D01*
X135175Y2596056D01*
X135161Y2596622D01*
X135165Y2596622D01*
X135165Y2600412D01*
X135279Y2602463D01*
X135556Y2604743D01*
X135789Y2606114D01*
X136099Y2607607D01*
X136498Y2609199D01*
X136998Y2610866D01*
X137608Y2612585D01*
X138342Y2614331D01*
X139208Y2616082D01*
X140220Y2617813D01*
X141388Y2619500D01*
X142034Y2620321D01*
X142723Y2621121D01*
X144824Y2623325D01*
X147153Y2625548D01*
X149659Y2627769D01*
X152292Y2629965D01*
X155002Y2632114D01*
X157739Y2634192D01*
X160453Y2636179D01*
X163094Y2638052D01*
X167957Y2641365D01*
X171926Y2643953D01*
X175581Y2646238D01*
X179552Y2648732D01*
X183094Y2650879D01*
X184724Y2651824D01*
X186271Y2652683D01*
X187743Y2653458D01*
X189148Y2654149D01*
X190494Y2654757D01*
X191790Y2655282D01*
X193044Y2655724D01*
X194263Y2656085D01*
X195455Y2656365D01*
X196630Y2656564D01*
X197794Y2656683D01*
X198957Y2656722D01*
X200089Y2656696D01*
G37*
G36*
X87728Y901603D02*
G01*
X91321Y901251D01*
X94790Y900679D01*
X98115Y899898D01*
X101279Y898920D01*
X104263Y897756D01*
X107049Y896419D01*
X109620Y894920D01*
X111956Y893271D01*
X114039Y891483D01*
X115852Y889568D01*
X116652Y888566D01*
X117377Y887537D01*
X118025Y886483D01*
X118594Y885403D01*
X119081Y884301D01*
X119486Y883177D01*
X119804Y882033D01*
X120034Y880871D01*
X120174Y879691D01*
X120221Y878496D01*
X120174Y877301D01*
X120034Y876121D01*
X119804Y874959D01*
X119486Y873815D01*
X119081Y872691D01*
X118594Y871589D01*
X118025Y870510D01*
X117377Y869455D01*
X116652Y868426D01*
X115852Y867425D01*
X114981Y866452D01*
X114039Y865509D01*
X113030Y864599D01*
X111956Y863721D01*
X110818Y862879D01*
X109620Y862072D01*
X108363Y861303D01*
X107049Y860573D01*
X105682Y859884D01*
X104263Y859236D01*
X102795Y858632D01*
X101279Y858073D01*
X99718Y857560D01*
X98115Y857095D01*
X96471Y856679D01*
X94790Y856314D01*
X93072Y856001D01*
X91321Y855741D01*
X89539Y855537D01*
X87728Y855389D01*
X85890Y855300D01*
X84027Y855269D01*
X80327Y855389D01*
X76733Y855741D01*
X73265Y856314D01*
X69939Y857095D01*
X66776Y858073D01*
X63791Y859236D01*
X61005Y860573D01*
X58435Y862072D01*
X56099Y863721D01*
X54015Y865509D01*
X52202Y867425D01*
X51403Y868426D01*
X50678Y869455D01*
X50030Y870510D01*
X49461Y871589D01*
X48973Y872691D01*
X48569Y873815D01*
X48250Y874959D01*
X48020Y876121D01*
X47880Y877301D01*
X47833Y878496D01*
X47880Y879691D01*
X48020Y880871D01*
X48250Y882033D01*
X48569Y883177D01*
X48973Y884301D01*
X49461Y885403D01*
X50030Y886482D01*
X50678Y887537D01*
X51403Y888566D01*
X52202Y889568D01*
X53073Y890540D01*
X54015Y891483D01*
X55024Y892393D01*
X56099Y893271D01*
X57236Y894113D01*
X58435Y894920D01*
X59692Y895689D01*
X61005Y896419D01*
X62372Y897109D01*
X63791Y897756D01*
X65260Y898360D01*
X66776Y898920D01*
X68336Y899432D01*
X69939Y899898D01*
X71583Y900313D01*
X73265Y900679D01*
X74982Y900991D01*
X76733Y901251D01*
X78516Y901455D01*
X80327Y901603D01*
X82165Y901692D01*
X84027Y901723D01*
X87728Y901603D01*
G37*
G36*
X87728Y847602D02*
G01*
X91321Y847250D01*
X94790Y846677D01*
X98115Y845896D01*
X101279Y844918D01*
X104263Y843755D01*
X107049Y842418D01*
X109620Y840919D01*
X111956Y839269D01*
X114039Y837481D01*
X115852Y835566D01*
X116652Y834565D01*
X117377Y833536D01*
X118025Y832481D01*
X118594Y831402D01*
X119081Y830300D01*
X119486Y829176D01*
X119804Y828032D01*
X120034Y826870D01*
X120174Y825690D01*
X120221Y824495D01*
X120174Y823300D01*
X120034Y822120D01*
X119804Y820957D01*
X119486Y819813D01*
X119081Y818690D01*
X118594Y817587D01*
X118025Y816508D01*
X117377Y815453D01*
X116652Y814424D01*
X115852Y813422D01*
X114981Y812450D01*
X114039Y811507D01*
X113030Y810596D01*
X111956Y809719D01*
X110818Y808876D01*
X109620Y808069D01*
X108363Y807300D01*
X107049Y806570D01*
X105682Y805880D01*
X104263Y805232D01*
X102795Y804628D01*
X101279Y804069D01*
X99718Y803556D01*
X98115Y803090D01*
X96471Y802674D01*
X94790Y802309D01*
X93072Y801996D01*
X91321Y801737D01*
X89539Y801532D01*
X87728Y801385D01*
X85890Y801295D01*
X84027Y801265D01*
X80327Y801385D01*
X76733Y801737D01*
X73265Y802309D01*
X69939Y803090D01*
X66776Y804069D01*
X63791Y805232D01*
X61005Y806570D01*
X58435Y808069D01*
X56099Y809719D01*
X54015Y811507D01*
X52202Y813422D01*
X51403Y814424D01*
X50678Y815453D01*
X50030Y816508D01*
X49461Y817587D01*
X48973Y818690D01*
X48569Y819813D01*
X48250Y820957D01*
X48020Y822120D01*
X47880Y823300D01*
X47833Y824495D01*
X47880Y825690D01*
X48020Y826870D01*
X48250Y828032D01*
X48569Y829176D01*
X48973Y830300D01*
X49461Y831402D01*
X50030Y832481D01*
X50678Y833536D01*
X51403Y834565D01*
X52202Y835566D01*
X53073Y836539D01*
X54015Y837481D01*
X55024Y838392D01*
X56099Y839269D01*
X57236Y840112D01*
X58435Y840919D01*
X59692Y841688D01*
X61005Y842418D01*
X62372Y843107D01*
X63791Y843755D01*
X65260Y844359D01*
X66776Y844918D01*
X68336Y845431D01*
X69939Y845896D01*
X71583Y846312D01*
X73265Y846677D01*
X74982Y846990D01*
X76733Y847250D01*
X78516Y847454D01*
X80327Y847602D01*
X82165Y847691D01*
X84027Y847721D01*
X87728Y847602D01*
G37*
G36*
X139470Y810964D02*
G01*
X141874Y810733D01*
X144157Y810311D01*
X146301Y809702D01*
X148288Y808906D01*
X149218Y808440D01*
X150102Y807928D01*
X150939Y807370D01*
X151725Y806768D01*
X152459Y806121D01*
X153140Y805430D01*
X153763Y804695D01*
X154328Y803916D01*
X154833Y803094D01*
X155274Y802229D01*
X155646Y801331D01*
X155944Y800414D01*
X156170Y799479D01*
X156324Y798527D01*
X156408Y797561D01*
X156424Y796583D01*
X156371Y795594D01*
X156253Y794596D01*
X156068Y793591D01*
X155820Y792581D01*
X155508Y791568D01*
X155135Y790553D01*
X154701Y789539D01*
X154208Y788527D01*
X153656Y787519D01*
X153047Y786517D01*
X152383Y785522D01*
X151663Y784538D01*
X150890Y783565D01*
X150065Y782605D01*
X149188Y781660D01*
X148262Y780733D01*
X147286Y779824D01*
X146263Y778936D01*
X145193Y778070D01*
X144078Y777229D01*
X142919Y776415D01*
X141717Y775628D01*
X140473Y774871D01*
X139189Y774146D01*
X137865Y773455D01*
X136503Y772799D01*
X133735Y771629D01*
X130968Y770666D01*
X128217Y769908D01*
X125501Y769353D01*
X122837Y768998D01*
X120242Y768841D01*
X117733Y768879D01*
X115329Y769111D01*
X113047Y769532D01*
X110903Y770142D01*
X108915Y770938D01*
X107985Y771404D01*
X107101Y771916D01*
X106264Y772474D01*
X105478Y773076D01*
X104743Y773723D01*
X104063Y774414D01*
X103439Y775149D01*
X102874Y775928D01*
X102370Y776750D01*
X101928Y777615D01*
X101556Y778512D01*
X101258Y779430D01*
X101032Y780365D01*
X100877Y781316D01*
X100793Y782282D01*
X100777Y783261D01*
X100829Y784250D01*
X100948Y785248D01*
X101132Y786253D01*
X101380Y787263D01*
X101692Y788276D01*
X102065Y789291D01*
X102499Y790305D01*
X102992Y791317D01*
X103544Y792325D01*
X104152Y793327D01*
X104817Y794321D01*
X105537Y795306D01*
X106310Y796279D01*
X107135Y797239D01*
X108012Y798184D01*
X108939Y799111D01*
X109914Y800020D01*
X110938Y800908D01*
X112007Y801773D01*
X113123Y802614D01*
X114282Y803429D01*
X115484Y804216D01*
X116728Y804973D01*
X118013Y805697D01*
X119337Y806389D01*
X120699Y807045D01*
X123468Y808215D01*
X126236Y809178D01*
X128987Y809935D01*
X131703Y810491D01*
X134367Y810845D01*
X136962Y811003D01*
X139470Y810964D01*
G37*
G36*
X120242Y934141D02*
G01*
X121530Y934087D01*
X122837Y933984D01*
X124161Y933832D01*
X125501Y933629D01*
X126854Y933377D01*
X128217Y933074D01*
X129589Y932721D01*
X130968Y932317D01*
X132351Y931861D01*
X133735Y931354D01*
X135120Y930796D01*
X136503Y930185D01*
X137865Y929529D01*
X139189Y928838D01*
X140473Y928113D01*
X141717Y927356D01*
X142919Y926569D01*
X144078Y925754D01*
X145193Y924913D01*
X146262Y924048D01*
X147286Y923159D01*
X148261Y922251D01*
X149187Y921323D01*
X150064Y920378D01*
X150889Y919418D01*
X151662Y918445D01*
X152382Y917460D01*
X153046Y916466D01*
X153655Y915464D01*
X154206Y914456D01*
X154700Y913444D01*
X155134Y912429D01*
X155507Y911414D01*
X155818Y910401D01*
X156067Y909391D01*
X156251Y908386D01*
X156370Y907389D01*
X156422Y906400D01*
X156407Y905421D01*
X156323Y904456D01*
X156169Y903504D01*
X155943Y902569D01*
X155646Y901652D01*
X155274Y900755D01*
X154833Y899890D01*
X154328Y899068D01*
X153763Y898290D01*
X153140Y897555D01*
X152459Y896864D01*
X151725Y896218D01*
X150939Y895616D01*
X150102Y895058D01*
X149218Y894547D01*
X148288Y894080D01*
X147315Y893659D01*
X146301Y893285D01*
X145248Y892957D01*
X144157Y892675D01*
X143032Y892441D01*
X141875Y892254D01*
X140687Y892114D01*
X139471Y892023D01*
X138229Y891979D01*
X136963Y891985D01*
X135676Y892039D01*
X134369Y892142D01*
X133044Y892294D01*
X131705Y892497D01*
X130352Y892749D01*
X128989Y893052D01*
X127617Y893405D01*
X126238Y893810D01*
X124855Y894265D01*
X123470Y894773D01*
X122086Y895332D01*
X120703Y895943D01*
X119341Y896599D01*
X118017Y897290D01*
X116733Y898015D01*
X115489Y898772D01*
X114287Y899558D01*
X113128Y900373D01*
X112013Y901214D01*
X110943Y902080D01*
X109920Y902968D01*
X108944Y903877D01*
X108018Y904805D01*
X107141Y905749D01*
X106316Y906709D01*
X105543Y907683D01*
X104823Y908667D01*
X104158Y909662D01*
X103550Y910664D01*
X102998Y911672D01*
X102505Y912684D01*
X102071Y913698D01*
X101697Y914713D01*
X101386Y915726D01*
X101138Y916736D01*
X100953Y917741D01*
X100835Y918739D01*
X100782Y919728D01*
X100798Y920706D01*
X100882Y921672D01*
X101036Y922623D01*
X101262Y923558D01*
X101560Y924475D01*
X101932Y925372D01*
X102373Y926237D01*
X102877Y927059D01*
X103442Y927838D01*
X104065Y928572D01*
X104745Y929263D01*
X105480Y929910D01*
X106266Y930512D01*
X107102Y931069D01*
X107986Y931581D01*
X108916Y932047D01*
X109889Y932467D01*
X110903Y932842D01*
X111957Y933170D01*
X113047Y933451D01*
X114172Y933685D01*
X115330Y933872D01*
X116518Y934012D01*
X117734Y934103D01*
X118976Y934147D01*
X120242Y934141D01*
G37*
G36*
X200089Y906696D02*
G01*
X201184Y906617D01*
X202241Y906487D01*
X203262Y906307D01*
X204247Y906077D01*
X205194Y905800D01*
X206105Y905476D01*
X206979Y905106D01*
X207816Y904692D01*
X208618Y904234D01*
X209382Y903733D01*
X210111Y903191D01*
X210803Y902609D01*
X211459Y901987D01*
X212079Y901328D01*
X212663Y900631D01*
X213211Y899898D01*
X213723Y899131D01*
X214200Y898330D01*
X214640Y897496D01*
X215045Y896630D01*
X215415Y895734D01*
X216047Y893855D01*
X216538Y891867D01*
X216887Y889779D01*
X217097Y887599D01*
X217167Y885337D01*
X217160Y883392D01*
X217103Y881550D01*
X217038Y880640D01*
X216940Y879723D01*
X216802Y878788D01*
X216618Y877824D01*
X216379Y876820D01*
X216080Y875764D01*
X215713Y874647D01*
X215272Y873456D01*
X214750Y872182D01*
X214140Y870812D01*
X213435Y869337D01*
X212628Y867744D01*
X212402Y867472D01*
X211809Y866639D01*
X211416Y866005D01*
X210981Y865222D01*
X210519Y864287D01*
X210048Y863196D01*
X209582Y861947D01*
X209139Y860537D01*
X208735Y858962D01*
X208386Y857220D01*
X208109Y855308D01*
X207919Y853222D01*
X207833Y850960D01*
X207868Y848519D01*
X207834Y847287D01*
X207832Y846099D01*
X207860Y844956D01*
X207915Y843857D01*
X207996Y842801D01*
X208101Y841788D01*
X208228Y840818D01*
X208375Y839890D01*
X208539Y839005D01*
X208718Y838161D01*
X208912Y837358D01*
X209117Y836597D01*
X209332Y835876D01*
X209554Y835195D01*
X209782Y834554D01*
X210013Y833953D01*
X210247Y833391D01*
X210479Y832868D01*
X210709Y832383D01*
X210935Y831936D01*
X211365Y831156D01*
X211753Y830524D01*
X212083Y830038D01*
X212338Y829693D01*
X212562Y829422D01*
X213370Y827828D01*
X214078Y826349D01*
X214691Y824973D01*
X215217Y823690D01*
X215663Y822490D01*
X216034Y821362D01*
X216339Y820295D01*
X216582Y819279D01*
X216772Y818303D01*
X216915Y817356D01*
X217018Y816428D01*
X217087Y815508D01*
X217129Y814586D01*
X217150Y813650D01*
X217160Y811698D01*
X217090Y809435D01*
X217003Y808335D01*
X216880Y807256D01*
X216723Y806200D01*
X216530Y805168D01*
X216302Y804161D01*
X216039Y803181D01*
X215740Y802227D01*
X215406Y801302D01*
X215037Y800406D01*
X214632Y799541D01*
X214191Y798707D01*
X213714Y797906D01*
X213202Y797139D01*
X212654Y796407D01*
X212070Y795710D01*
X211449Y795051D01*
X210793Y794430D01*
X210101Y793848D01*
X209372Y793306D01*
X208608Y792806D01*
X207807Y792348D01*
X206969Y791934D01*
X206095Y791564D01*
X205184Y791240D01*
X204237Y790963D01*
X203254Y790734D01*
X202233Y790554D01*
X201176Y790424D01*
X200081Y790345D01*
X198950Y790319D01*
X197787Y790358D01*
X196623Y790477D01*
X195448Y790676D01*
X194255Y790955D01*
X193035Y791315D01*
X191782Y791756D01*
X190485Y792280D01*
X189138Y792887D01*
X187733Y793578D01*
X186261Y794352D01*
X183084Y796155D01*
X179543Y798302D01*
X175574Y800797D01*
X171975Y803130D01*
X168054Y805761D01*
X163235Y809112D01*
X157906Y812993D01*
X152452Y817213D01*
X149800Y819390D01*
X147263Y821580D01*
X144887Y823758D01*
X142723Y825903D01*
X142033Y826657D01*
X141387Y827437D01*
X140782Y828239D01*
X140218Y829060D01*
X139693Y829898D01*
X139206Y830748D01*
X138754Y831607D01*
X138338Y832472D01*
X137955Y833340D01*
X137605Y834208D01*
X136994Y835929D01*
X136494Y837610D01*
X136095Y839224D01*
X135784Y840746D01*
X135552Y842149D01*
X135386Y843408D01*
X135275Y844496D01*
X135175Y846056D01*
X135161Y846622D01*
X135165Y846622D01*
X135165Y850412D01*
X135279Y852463D01*
X135556Y854743D01*
X135789Y856114D01*
X136099Y857607D01*
X136498Y859199D01*
X136998Y860866D01*
X137608Y862585D01*
X138342Y864331D01*
X139208Y866082D01*
X140220Y867813D01*
X141388Y869500D01*
X142034Y870321D01*
X142723Y871121D01*
X144824Y873325D01*
X147153Y875548D01*
X149659Y877769D01*
X152292Y879965D01*
X155002Y882113D01*
X157739Y884192D01*
X160453Y886179D01*
X163094Y888052D01*
X167957Y891365D01*
X171926Y893953D01*
X175581Y896238D01*
X179552Y898732D01*
X183094Y900879D01*
X184724Y901824D01*
X186271Y902683D01*
X187743Y903458D01*
X189148Y904149D01*
X190494Y904757D01*
X191790Y905282D01*
X193044Y905724D01*
X194263Y906085D01*
X195455Y906365D01*
X196630Y906564D01*
X197794Y906683D01*
X198957Y906722D01*
X200089Y906696D01*
G37*
%TO.C,FID8*%
D11*
X12150000Y150000D02*
G75*
G02*
X12050000Y150000I-50000J0D01*
G01*
X12050000Y150000D02*
G75*
G02*
X12150000Y150000I50000J0D01*
G01*
%TO.C,FID7*%
X200000Y150000D02*
G75*
G02*
X100000Y150000I-50000J0D01*
G01*
X100000Y150000D02*
G75*
G02*
X200000Y150000I50000J0D01*
G01*
%TD*%
D13*
%TO.C,*%
X9576500Y1455000D03*
%TD*%
D14*
%TO.C,J1002_3*%
X1247500Y3892500D03*
D15*
X467500Y3512500D03*
X467500Y4272500D03*
%TD*%
D14*
%TO.C,J1002_2*%
X1247500Y6057500D03*
D15*
X467500Y5677500D03*
X467500Y6437500D03*
%TD*%
D13*
%TO.C,*%
X178000Y630000D03*
%TD*%
%TO.C,*%
X11732000Y1455000D03*
%TD*%
%TO.C,*%
X200000Y9970001D03*
%TD*%
%TO.C,*%
X12116001Y1455000D03*
%TD*%
%TO.C,*%
X9512500Y1455000D03*
%TD*%
%TO.C,*%
X12244001Y1455000D03*
%TD*%
%TO.C,*%
X10763001Y9967501D03*
%TD*%
D16*
%TO.C,J12*%
X188590Y7140000D03*
%TD*%
D14*
%TO.C,J1002_4*%
X1247500Y1727500D03*
D15*
X467500Y1347500D03*
X467500Y2107500D03*
%TD*%
D13*
%TO.C,*%
X1322000Y630000D03*
%TD*%
%TO.C,*%
X3508999Y630000D03*
%TD*%
%TO.C,*%
X1194000Y630000D03*
%TD*%
%TO.C,*%
X11796000Y1455000D03*
%TD*%
%TO.C,*%
X114000Y630000D03*
%TD*%
%TO.C,*%
X4072001Y9970000D03*
%TD*%
%TO.C,*%
X8471500Y1455000D03*
%TD*%
%TO.C,*%
X7515000Y9970000D03*
%TD*%
%TO.C,*%
X7322999Y9970000D03*
%TD*%
%TO.C,*%
X9448500Y1455000D03*
%TD*%
D17*
%TO.C,*%
X9075000Y10000000D03*
%TD*%
D13*
%TO.C,*%
X3880000Y9970000D03*
%TD*%
%TO.C,*%
X4008000Y9970000D03*
%TD*%
%TO.C,*%
X3893000Y630000D03*
%TD*%
%TO.C,*%
X3765000Y630000D03*
%TD*%
%TO.C,*%
X126000Y9970001D03*
%TD*%
D18*
%TO.C,*%
X11170000Y1425000D03*
%TD*%
D13*
%TO.C,*%
X1386000Y630000D03*
%TD*%
%TO.C,*%
X11860000Y1455000D03*
%TD*%
%TO.C,*%
X10745500Y1455000D03*
%TD*%
%TO.C,*%
X11988001Y1455000D03*
%TD*%
%TO.C,*%
X12180001Y1455000D03*
%TD*%
%TO.C,*%
X9384500Y1455000D03*
%TD*%
%TO.C,*%
X11924000Y1455000D03*
%TD*%
%TO.C,*%
X242000Y630000D03*
%TD*%
%TO.C,*%
X7451000Y9970000D03*
%TD*%
%TO.C,*%
X50000Y630000D03*
%TD*%
D19*
%TO.C,J3*%
X10056000Y9571500D03*
D20*
X10056000Y9698500D03*
X10183000Y9571500D03*
X10183000Y9698500D03*
X10310000Y9571500D03*
X10310000Y9698500D03*
X10437000Y9571500D03*
X10437000Y9698500D03*
X10564000Y9571500D03*
X10564000Y9698500D03*
%TD*%
D13*
%TO.C,*%
X4085000Y630000D03*
%TD*%
%TO.C,*%
X2353500Y1455000D03*
%TD*%
D14*
%TO.C,J2*%
X11010000Y3170000D03*
D15*
X11790000Y3550000D03*
X11790000Y2790000D03*
%TD*%
D13*
%TO.C,*%
X2417500Y1455000D03*
%TD*%
D14*
%TO.C,J1002_1*%
X1247500Y8222500D03*
D15*
X467500Y7842500D03*
X467500Y8602500D03*
%TD*%
D21*
%TO.C,HS1*%
X6064000Y2889000D03*
X10236000Y7061000D03*
%TD*%
D13*
%TO.C,*%
X3701000Y630000D03*
%TD*%
%TO.C,*%
X3944000Y9970000D03*
%TD*%
D22*
%TO.C,*%
X1870000Y1425000D03*
%TD*%
D13*
%TO.C,*%
X610000Y9970001D03*
%TD*%
%TO.C,*%
X306001Y630000D03*
%TD*%
D23*
%TO.C,J11*%
X11270000Y965000D03*
X11770000Y965000D03*
X11270000Y1715000D03*
X11770000Y1715000D03*
%TD*%
D13*
%TO.C,*%
X10617500Y1455000D03*
%TD*%
%TO.C,*%
X7387000Y9970000D03*
%TD*%
D16*
%TO.C,J13*%
X188590Y2810000D03*
%TD*%
D24*
%TO.C,*%
X1550000Y1037500D03*
%TD*%
D18*
%TO.C,*%
X10065000Y1425000D03*
%TD*%
D13*
%TO.C,*%
X50000Y9970001D03*
%TD*%
D14*
%TO.C,J1*%
X11010000Y6780000D03*
D15*
X11790000Y7160000D03*
X11790000Y6400000D03*
%TD*%
D25*
%TO.C,*%
X750000Y600000D03*
%TD*%
D13*
%TO.C,*%
X3572999Y630000D03*
%TD*%
%TO.C,*%
X8279500Y1455000D03*
%TD*%
%TO.C,*%
X4021000Y630000D03*
%TD*%
%TO.C,*%
X11604000Y1455000D03*
%TD*%
%TO.C,*%
X2289500Y1455000D03*
%TD*%
D26*
%TO.C,P1*%
X4565000Y600000D03*
D27*
X4665000Y550000D03*
X4765000Y550000D03*
X4865000Y550000D03*
X4965000Y550000D03*
X5065000Y550000D03*
X5165000Y550000D03*
X5265000Y550000D03*
X5365000Y550000D03*
X5465000Y550000D03*
X5565000Y550000D03*
X5865000Y550000D03*
X5965000Y550000D03*
X6065000Y550000D03*
X6165000Y550000D03*
X6265000Y550000D03*
X6365000Y550000D03*
X6465000Y550000D03*
X6565000Y550000D03*
X6665000Y550000D03*
X6765000Y550000D03*
X6865000Y550000D03*
X6965000Y550000D03*
X7065000Y550000D03*
X7165000Y550000D03*
X7265000Y550000D03*
X7365000Y550000D03*
X7465000Y550000D03*
X7565000Y550000D03*
X7665001Y550000D03*
X7765001Y550000D03*
X7865000Y550000D03*
%TD*%
D17*
%TO.C,*%
X5699999Y10000000D03*
%TD*%
D13*
%TO.C,*%
X10635000Y9967501D03*
%TD*%
D16*
%TO.C,J10*%
X12060300Y2250000D03*
%TD*%
D13*
%TO.C,*%
X7258999Y9970000D03*
%TD*%
D24*
%TO.C,*%
X3285000Y1037500D03*
%TD*%
D13*
%TO.C,*%
X12052001Y1455000D03*
%TD*%
%TO.C,*%
X2545500Y1455000D03*
%TD*%
%TO.C,*%
X10681500Y1455000D03*
%TD*%
%TO.C,*%
X11668000Y1455000D03*
%TD*%
%TO.C,*%
X8407500Y1455000D03*
%TD*%
%TO.C,*%
X3380999Y630000D03*
%TD*%
%TO.C,*%
X758501Y9970001D03*
%TD*%
%TO.C,*%
X2481500Y1455000D03*
%TD*%
%TO.C,*%
X8343500Y1455000D03*
%TD*%
%TO.C,*%
X10699000Y9967501D03*
%TD*%
D17*
%TO.C,*%
X2320000Y10000000D03*
%TD*%
D13*
%TO.C,*%
X1450000Y630000D03*
%TD*%
%TO.C,*%
X4136001Y9970000D03*
%TD*%
%TO.C,*%
X10891001Y9967501D03*
%TD*%
D28*
%TO.C,*%
X405000Y10055001D03*
%TD*%
D13*
%TO.C,*%
X8535500Y1455000D03*
%TD*%
%TO.C,*%
X3829000Y630000D03*
%TD*%
%TO.C,*%
X1258000Y630000D03*
%TD*%
%TO.C,*%
X3957000Y630000D03*
%TD*%
D29*
%TO.C,J4*%
X411000Y9465000D03*
D30*
X919000Y9465000D03*
%TD*%
D13*
%TO.C,*%
X10553500Y1455000D03*
%TD*%
%TO.C,*%
X10489500Y1455000D03*
%TD*%
%TO.C,*%
X3636999Y630000D03*
%TD*%
D22*
%TO.C,*%
X2965000Y1425000D03*
%TD*%
D13*
%TO.C,*%
X10827001Y9967501D03*
%TD*%
D18*
%TO.C,*%
X8960000Y1425000D03*
%TD*%
D13*
%TO.C,*%
X9640500Y1455000D03*
%TD*%
%TO.C,*%
X3444999Y630000D03*
%TD*%
%TO.C,*%
X684000Y9970001D03*
%TD*%
D31*
%TO.C,C172*%
X7835000Y3749750D03*
X7835000Y3657750D03*
%TD*%
D32*
%TO.C,TP79*%
X6445001Y4662500D03*
%TD*%
D33*
%TO.C,D1001_4*%
X2708000Y2716000D03*
X2848000Y2716000D03*
%TD*%
D34*
%TO.C,C80*%
X5280000Y1387500D03*
X5090000Y1387500D03*
%TD*%
D35*
%TO.C,R1028_4*%
X2564000Y2551000D03*
X2404000Y2551000D03*
%TD*%
D32*
%TO.C,TP1017_4*%
X4562500Y2847500D03*
%TD*%
D36*
%TO.C,C92*%
X8481000Y5910000D03*
X8389000Y5910000D03*
%TD*%
%TO.C,C149*%
X7966000Y4705000D03*
X7874000Y4705000D03*
%TD*%
D37*
%TO.C,C21*%
X7325000Y6120000D03*
X7180000Y6120000D03*
%TD*%
D35*
%TO.C,R1028_2*%
X2564000Y6651000D03*
X2404000Y6651000D03*
%TD*%
D36*
%TO.C,C156*%
X8481000Y4222500D03*
X8389000Y4222500D03*
%TD*%
D38*
%TO.C,D4*%
X10185000Y9400000D03*
X10115000Y9400000D03*
%TD*%
D31*
%TO.C,C90*%
X8855000Y6661000D03*
X8855000Y6569000D03*
%TD*%
D39*
%TO.C,R1036_4*%
X3992500Y2802499D03*
X3992500Y2712499D03*
%TD*%
D32*
%TO.C,TP5*%
X7412500Y6665000D03*
%TD*%
D40*
%TO.C,C147*%
X7602500Y4622500D03*
X7747500Y4622500D03*
%TD*%
D41*
%TO.C,C1005_2*%
X4150000Y7165000D03*
X4150000Y7020000D03*
%TD*%
D32*
%TO.C,TP24*%
X6372500Y6020000D03*
%TD*%
%TO.C,TP6*%
X6652500Y9540000D03*
%TD*%
D40*
%TO.C,C20*%
X7800000Y6070000D03*
X7945000Y6070000D03*
%TD*%
D34*
%TO.C,C1026_4*%
X1887000Y2592000D03*
X1697000Y2592000D03*
%TD*%
D42*
%TO.C,SO2*%
X1000000Y7140000D03*
%TD*%
D43*
%TO.C,C145*%
X7544000Y4445000D03*
X7734000Y4445000D03*
%TD*%
D44*
%TO.C,R1027_4*%
X1537000Y2607000D03*
X1537000Y2767000D03*
%TD*%
D36*
%TO.C,C49*%
X9308500Y6052500D03*
X9216500Y6052500D03*
%TD*%
D45*
%TO.C,R88*%
X4797500Y2135001D03*
X4797500Y2225001D03*
%TD*%
D46*
%TO.C,C1057_4*%
X3774000Y2627500D03*
X3866000Y2627500D03*
%TD*%
D40*
%TO.C,C1006_2*%
X3970000Y7325000D03*
X4115000Y7325000D03*
%TD*%
D39*
%TO.C,R1030_2*%
X3097500Y6527499D03*
X3097500Y6437499D03*
%TD*%
D47*
%TO.C,C1042_3*%
X4402500Y4909000D03*
X4402500Y5001000D03*
%TD*%
D39*
%TO.C,R1036_2*%
X3992500Y6902499D03*
X3992500Y6812499D03*
%TD*%
D40*
%TO.C,C26*%
X7850000Y6470000D03*
X7995000Y6470000D03*
%TD*%
D47*
%TO.C,C41*%
X7297500Y2806500D03*
X7297500Y2898500D03*
%TD*%
D37*
%TO.C,C15*%
X7325000Y6372500D03*
X7180000Y6372500D03*
%TD*%
D35*
%TO.C,R42*%
X5265000Y1217500D03*
X5105000Y1217500D03*
%TD*%
D48*
%TO.C,C1007_2*%
X3732500Y5962500D03*
X3732500Y6107500D03*
%TD*%
D36*
%TO.C,C1009_4*%
X1533251Y2949000D03*
X1441251Y2949000D03*
%TD*%
D49*
%TO.C,TP3*%
X5750000Y3575000D03*
%TD*%
D47*
%TO.C,C1010_1*%
X2354000Y8867000D03*
X2354000Y8959000D03*
%TD*%
D32*
%TO.C,TP16*%
X9665000Y6487500D03*
%TD*%
D39*
%TO.C,R1045_4*%
X4355000Y3137499D03*
X4355000Y3047499D03*
%TD*%
D32*
%TO.C,TP72*%
X10744300Y9210700D03*
%TD*%
%TO.C,TP86*%
X4535000Y1760000D03*
%TD*%
D35*
%TO.C,R1028_3*%
X2564000Y4601000D03*
X2404000Y4601000D03*
%TD*%
D50*
%TO.C,C84*%
X5972500Y2137500D03*
X5972500Y1947500D03*
%TD*%
D32*
%TO.C,TP1014_3*%
X2065000Y4475000D03*
%TD*%
D39*
%TO.C,R1030_3*%
X3097500Y4477499D03*
X3097500Y4387499D03*
%TD*%
D32*
%TO.C,TP26*%
X6522500Y6737500D03*
%TD*%
%TO.C,TP1017_1*%
X4562500Y8997500D03*
%TD*%
%TO.C,TP75*%
X10990000Y4482500D03*
%TD*%
D51*
%TO.C,R69*%
X9417499Y3350000D03*
X9327499Y3350000D03*
%TD*%
D41*
%TO.C,C1005_3*%
X4150000Y5115000D03*
X4150000Y4970000D03*
%TD*%
D32*
%TO.C,TP27*%
X7200000Y6605000D03*
%TD*%
D49*
%TO.C,TP45*%
X5750000Y9250000D03*
%TD*%
D51*
%TO.C,R7*%
X920000Y9240001D03*
X830000Y9240001D03*
%TD*%
D39*
%TO.C,R44*%
X9235000Y6880000D03*
X9235000Y6790000D03*
%TD*%
D52*
%TO.C,C1028_3*%
X2778000Y4420000D03*
X2778000Y4610000D03*
%TD*%
D32*
%TO.C,TP11*%
X6810000Y6275000D03*
%TD*%
%TO.C,TP28*%
X8595300Y9490300D03*
%TD*%
D53*
%TO.C,TP15*%
X4825000Y1320000D03*
%TD*%
D32*
%TO.C,TP49*%
X7125000Y3285000D03*
%TD*%
D47*
%TO.C,C1042_2*%
X4402500Y6959000D03*
X4402500Y7051000D03*
%TD*%
D45*
%TO.C,R47*%
X9530000Y6487500D03*
X9530000Y6577500D03*
%TD*%
D47*
%TO.C,C1*%
X605001Y9114001D03*
X605001Y9206001D03*
%TD*%
D33*
%TO.C,D1001_1*%
X2708000Y8866000D03*
X2848000Y8866000D03*
%TD*%
D51*
%TO.C,R128*%
X6857499Y4665000D03*
X6767499Y4665000D03*
%TD*%
D39*
%TO.C,R1045_1*%
X4355000Y9287499D03*
X4355000Y9197499D03*
%TD*%
D40*
%TO.C,C23*%
X7800000Y6220000D03*
X7945000Y6220000D03*
%TD*%
D54*
%TO.C,R101*%
X6305001Y5670000D03*
X6395001Y5670000D03*
%TD*%
D45*
%TO.C,FB1001_3*%
X4305000Y4912501D03*
X4305000Y5002501D03*
%TD*%
D47*
%TO.C,C48*%
X9095000Y5861500D03*
X9095000Y5953500D03*
%TD*%
D32*
%TO.C,TP65*%
X9327499Y3185001D03*
%TD*%
D34*
%TO.C,C1029_3*%
X2595000Y4430000D03*
X2405000Y4430000D03*
%TD*%
D32*
%TO.C,TP12*%
X6695000Y6110000D03*
%TD*%
D39*
%TO.C,R111*%
X9642500Y9069999D03*
X9642500Y8979999D03*
%TD*%
D32*
%TO.C,TP13*%
X8290000Y3331917D03*
%TD*%
D34*
%TO.C,C1029_1*%
X2595000Y8530000D03*
X2405000Y8530000D03*
%TD*%
D54*
%TO.C,R121*%
X6445001Y4515000D03*
X6535001Y4515000D03*
%TD*%
D36*
%TO.C,C154*%
X8161000Y3902500D03*
X8069000Y3902500D03*
%TD*%
D32*
%TO.C,TP66*%
X9940000Y3215000D03*
%TD*%
%TO.C,TP76*%
X10990000Y4780000D03*
%TD*%
%TO.C,TP21*%
X10160700Y8470000D03*
%TD*%
D37*
%TO.C,C1004_1*%
X4242500Y8152500D03*
X4097500Y8152500D03*
%TD*%
D45*
%TO.C,R117*%
X9407500Y3832501D03*
X9407500Y3922501D03*
%TD*%
D39*
%TO.C,R39*%
X8191610Y2899999D03*
X8191610Y2809999D03*
%TD*%
D45*
%TO.C,FB2*%
X7027500Y6275001D03*
X7027500Y6365001D03*
%TD*%
D41*
%TO.C,C173*%
X7597500Y3705000D03*
X7597500Y3560000D03*
%TD*%
D55*
%TO.C,Q1*%
X6897499Y9292501D03*
X7087500Y9357502D03*
X7087500Y9227501D03*
%TD*%
D34*
%TO.C,C1026_3*%
X1887000Y4642000D03*
X1697000Y4642000D03*
%TD*%
D36*
%TO.C,C139*%
X8802000Y4690000D03*
X8710000Y4690000D03*
%TD*%
D45*
%TO.C,R41*%
X4590000Y1347501D03*
X4590000Y1437501D03*
%TD*%
D39*
%TO.C,R24*%
X8907500Y2899999D03*
X8907500Y2809999D03*
%TD*%
D56*
%TO.C,J3_1*%
X5065000Y8992500D03*
D57*
X4969000Y8895000D03*
D58*
X5065000Y8795000D03*
D59*
X5161000Y8895000D03*
%TD*%
D32*
%TO.C,TP61*%
X812500Y8815000D03*
%TD*%
D47*
%TO.C,C32*%
X7797500Y2806500D03*
X7797500Y2898500D03*
%TD*%
D31*
%TO.C,C89*%
X9255000Y6661000D03*
X9255000Y6569000D03*
%TD*%
D44*
%TO.C,R1027_1*%
X1537000Y8757000D03*
X1537000Y8917000D03*
%TD*%
D39*
%TO.C,R36*%
X8287500Y2899999D03*
X8287500Y2809999D03*
%TD*%
D36*
%TO.C,C81*%
X5146000Y1722500D03*
X5054000Y1722500D03*
%TD*%
D37*
%TO.C,C95*%
X7108500Y8602000D03*
X6963500Y8602000D03*
%TD*%
D47*
%TO.C,C28*%
X7997500Y2806500D03*
X7997500Y2898500D03*
%TD*%
%TO.C,C1010_4*%
X2354000Y2717000D03*
X2354000Y2809000D03*
%TD*%
%TO.C,C36*%
X7597500Y2806500D03*
X7597500Y2898500D03*
%TD*%
D51*
%TO.C,R1052_4*%
X3864999Y2140000D03*
X3774999Y2140000D03*
%TD*%
D39*
%TO.C,R16*%
X6957500Y6594999D03*
X6957500Y6504999D03*
%TD*%
D32*
%TO.C,TP60*%
X7252500Y8805000D03*
%TD*%
D39*
%TO.C,R35*%
X8382500Y2899999D03*
X8382500Y2809999D03*
%TD*%
%TO.C,FB3*%
X8515000Y6097499D03*
X8515000Y6007499D03*
%TD*%
D31*
%TO.C,C148*%
X7690000Y4301000D03*
X7690000Y4209000D03*
%TD*%
D44*
%TO.C,R1027_3*%
X1537000Y4657000D03*
X1537000Y4817000D03*
%TD*%
D39*
%TO.C,R15*%
X6605000Y6469999D03*
X6605000Y6379999D03*
%TD*%
D50*
%TO.C,C161*%
X7361000Y4080000D03*
X7361000Y3890000D03*
%TD*%
D52*
%TO.C,C153*%
X8675000Y3368750D03*
X8675000Y3558750D03*
%TD*%
D35*
%TO.C,R1028_1*%
X2564000Y8701000D03*
X2404000Y8701000D03*
%TD*%
D47*
%TO.C,C57*%
X9237500Y5861500D03*
X9237500Y5953500D03*
%TD*%
D52*
%TO.C,C152*%
X9600000Y4447500D03*
X9600000Y4637500D03*
%TD*%
D33*
%TO.C,D1000_4*%
X1722000Y2949000D03*
X1862000Y2949000D03*
%TD*%
D32*
%TO.C,TP29*%
X8563001Y8915999D03*
%TD*%
%TO.C,TP56*%
X520000Y4620000D03*
%TD*%
D48*
%TO.C,C146*%
X8110000Y4552500D03*
X8110000Y4697500D03*
%TD*%
D32*
%TO.C,TP53*%
X8175000Y5012500D03*
%TD*%
D37*
%TO.C,C1004_2*%
X4242500Y6102500D03*
X4097500Y6102500D03*
%TD*%
D32*
%TO.C,TP25*%
X4742500Y8647500D03*
%TD*%
D52*
%TO.C,C1028_2*%
X2778000Y6470000D03*
X2778000Y6660000D03*
%TD*%
D32*
%TO.C,TP1014_2*%
X2065000Y6525000D03*
%TD*%
D39*
%TO.C,R1029_1*%
X2195000Y8819999D03*
X2195000Y8729999D03*
%TD*%
D32*
%TO.C,TP1014_1*%
X2065000Y8575000D03*
%TD*%
D52*
%TO.C,C1028_4*%
X2778000Y2370000D03*
X2778000Y2560000D03*
%TD*%
D32*
%TO.C,TP40*%
X4835000Y8302500D03*
%TD*%
%TO.C,TP44*%
X9545000Y4027500D03*
%TD*%
%TO.C,TP1018_3*%
X3786800Y4330700D03*
%TD*%
D40*
%TO.C,C163*%
X7682500Y4060000D03*
X7827500Y4060000D03*
%TD*%
D37*
%TO.C,C142*%
X9073500Y4788000D03*
X8928500Y4788000D03*
%TD*%
D32*
%TO.C,TP35*%
X9452500Y8661000D03*
%TD*%
D36*
%TO.C,C25*%
X8023500Y6345000D03*
X7931500Y6345000D03*
%TD*%
D51*
%TO.C,R53*%
X9527499Y6185000D03*
X9437499Y6185000D03*
%TD*%
D32*
%TO.C,TP50*%
X6810000Y3901500D03*
%TD*%
D60*
%TO.C,Q1003_3*%
X3032501Y4765001D03*
X3097502Y4575000D03*
X2967501Y4575000D03*
%TD*%
D51*
%TO.C,R1*%
X9852499Y3991125D03*
X9762499Y3991125D03*
%TD*%
D39*
%TO.C,R40*%
X8097500Y2899999D03*
X8097500Y2809999D03*
%TD*%
%TO.C,R1029_3*%
X2195000Y4719999D03*
X2195000Y4629999D03*
%TD*%
%TO.C,R1045_3*%
X4355000Y5187499D03*
X4355000Y5097499D03*
%TD*%
D32*
%TO.C,TP1015_1*%
X2967502Y8332499D03*
%TD*%
%TO.C,TP67*%
X6480000Y5267500D03*
%TD*%
D37*
%TO.C,C1008_1*%
X3747500Y9375000D03*
X3602500Y9375000D03*
%TD*%
D33*
%TO.C,D1000_2*%
X1722000Y7049000D03*
X1862000Y7049000D03*
%TD*%
D32*
%TO.C,TP23*%
X9720000Y8708000D03*
%TD*%
D47*
%TO.C,C13*%
X4800000Y1879000D03*
X4800000Y1971000D03*
%TD*%
D45*
%TO.C,R1031_3*%
X2065000Y4630001D03*
X2065000Y4720001D03*
%TD*%
D44*
%TO.C,R54*%
X11082500Y2167500D03*
X11082500Y2327500D03*
%TD*%
D32*
%TO.C,TP64*%
X6227500Y3672500D03*
%TD*%
D39*
%TO.C,R68*%
X7077500Y5174999D03*
X7077500Y5084999D03*
%TD*%
D32*
%TO.C,TP85*%
X9205000Y4947500D03*
%TD*%
%TO.C,TP41*%
X8803298Y9490300D03*
%TD*%
%TO.C,TP81*%
X9545000Y3832501D03*
%TD*%
D36*
%TO.C,C1041_4*%
X4403500Y2760000D03*
X4311500Y2760000D03*
%TD*%
D32*
%TO.C,TP39*%
X5122500Y8402500D03*
%TD*%
D47*
%TO.C,C56*%
X8995000Y5861500D03*
X8995000Y5953500D03*
%TD*%
D32*
%TO.C,TP62*%
X9217500Y4505000D03*
%TD*%
D51*
%TO.C,R1052_2*%
X3864999Y6240000D03*
X3774999Y6240000D03*
%TD*%
D40*
%TO.C,C96*%
X6512000Y8602001D03*
X6657000Y8602001D03*
%TD*%
D32*
%TO.C,TP22*%
X10160700Y8123200D03*
%TD*%
D39*
%TO.C,R114*%
X8874000Y3825999D03*
X8874000Y3735999D03*
%TD*%
D54*
%TO.C,R3*%
X10532501Y2815000D03*
X10622501Y2815000D03*
%TD*%
D46*
%TO.C,C129*%
X6984000Y5272000D03*
X7076000Y5272000D03*
%TD*%
D32*
%TO.C,TP80*%
X6857500Y4517500D03*
%TD*%
%TO.C,TP33*%
X6843000Y5972500D03*
%TD*%
D31*
%TO.C,C171*%
X8065000Y3749750D03*
X8065000Y3657750D03*
%TD*%
D48*
%TO.C,C1003_4*%
X3772500Y2785000D03*
X3772500Y2930000D03*
%TD*%
D34*
%TO.C,C1027_3*%
X1887000Y4832000D03*
X1697000Y4832000D03*
%TD*%
D45*
%TO.C,R67*%
X7906000Y5269001D03*
X7906000Y5359001D03*
%TD*%
D32*
%TO.C,TP1018_1*%
X3786800Y8430700D03*
%TD*%
%TO.C,TP8*%
X7498998Y9068998D03*
%TD*%
D54*
%TO.C,FB12*%
X8230001Y4052500D03*
X8320001Y4052500D03*
%TD*%
D36*
%TO.C,C27*%
X7403500Y6497500D03*
X7311500Y6497500D03*
%TD*%
D41*
%TO.C,C69_1*%
X8226020Y7469500D03*
X8226020Y7324500D03*
%TD*%
D39*
%TO.C,R1046_1*%
X4450000Y9287499D03*
X4450000Y9197499D03*
%TD*%
D32*
%TO.C,TP43*%
X6976000Y4936000D03*
%TD*%
D46*
%TO.C,C63*%
X8516500Y6195000D03*
X8608500Y6195000D03*
%TD*%
D32*
%TO.C,TP1015_3*%
X2967502Y4232499D03*
%TD*%
D31*
%TO.C,C50*%
X9055000Y6661000D03*
X9055000Y6569000D03*
%TD*%
D34*
%TO.C,C1026_2*%
X1887000Y6692000D03*
X1697000Y6692000D03*
%TD*%
D47*
%TO.C,C1042_1*%
X4402500Y9009000D03*
X4402500Y9101000D03*
%TD*%
D32*
%TO.C,TP83*%
X8705000Y4885000D03*
%TD*%
D33*
%TO.C,D1000_1*%
X1722000Y9099000D03*
X1862000Y9099000D03*
%TD*%
D39*
%TO.C,R31*%
X8571611Y2899999D03*
X8571611Y2809999D03*
%TD*%
D31*
%TO.C,C170*%
X7927500Y3349750D03*
X7927500Y3257750D03*
%TD*%
D46*
%TO.C,C88*%
X8516500Y6435001D03*
X8608500Y6435001D03*
%TD*%
D40*
%TO.C,C1006_3*%
X3970000Y5275000D03*
X4115000Y5275000D03*
%TD*%
D61*
%TO.C,D3*%
X11012500Y2980000D03*
X11082500Y2980000D03*
%TD*%
D45*
%TO.C,R119*%
X9430000Y3647501D03*
X9430000Y3737501D03*
%TD*%
D51*
%TO.C,FB11*%
X8477999Y3903000D03*
X8387999Y3903000D03*
%TD*%
D32*
%TO.C,TP51*%
X6925000Y3285000D03*
%TD*%
D60*
%TO.C,Q1002_4*%
X2130000Y2957501D03*
X2195001Y2767500D03*
X2065000Y2767500D03*
%TD*%
D61*
%TO.C,D5*%
X10435000Y9400000D03*
X10505000Y9400000D03*
%TD*%
D36*
%TO.C,C1009_3*%
X1533251Y4999000D03*
X1441251Y4999000D03*
%TD*%
D54*
%TO.C,R60*%
X10165001Y3780000D03*
X10255001Y3780000D03*
%TD*%
D47*
%TO.C,C1054_2*%
X3995000Y7079000D03*
X3995000Y7171000D03*
%TD*%
D32*
%TO.C,TP1016_2*%
X4530000Y6734000D03*
%TD*%
D36*
%TO.C,C1041_2*%
X4403500Y6860000D03*
X4311500Y6860000D03*
%TD*%
D56*
%TO.C,J3_4*%
X5065000Y2842500D03*
D57*
X4969000Y2745000D03*
D58*
X5065000Y2645000D03*
D59*
X5161000Y2745000D03*
%TD*%
D31*
%TO.C,C59*%
X8955000Y6661000D03*
X8955000Y6569000D03*
%TD*%
D39*
%TO.C,R1046_4*%
X4450000Y3137499D03*
X4450000Y3047499D03*
%TD*%
D32*
%TO.C,TP1016_1*%
X4530000Y8784000D03*
%TD*%
D41*
%TO.C,C1005_1*%
X4150000Y9215000D03*
X4150000Y9070000D03*
%TD*%
D39*
%TO.C,R1036_1*%
X3992500Y8952499D03*
X3992500Y8862499D03*
%TD*%
%TO.C,R92*%
X4702500Y1849999D03*
X4702500Y1759999D03*
%TD*%
D62*
%TO.C,J5*%
X11240000Y4340000D03*
D30*
X11240000Y4594000D03*
X11240000Y4848000D03*
X11240000Y5102000D03*
X11240000Y5356000D03*
X11240000Y5610000D03*
%TD*%
D32*
%TO.C,TP52*%
X6912500Y5127500D03*
%TD*%
D31*
%TO.C,C164*%
X8640000Y4308500D03*
X8640000Y4216500D03*
%TD*%
D56*
%TO.C,J3_3*%
X5065000Y4892500D03*
D57*
X4969000Y4795000D03*
D58*
X5065000Y4695000D03*
D59*
X5161000Y4795000D03*
%TD*%
D63*
%TO.C,U10*%
X10502500Y3061250D03*
X10437500Y3061250D03*
X10372500Y3061250D03*
X10307500Y3061250D03*
X10242500Y3061250D03*
X10177500Y3061250D03*
X10112500Y3061250D03*
X10112500Y3633750D03*
X10177500Y3633750D03*
X10242500Y3633750D03*
X10307500Y3633750D03*
X10372500Y3633750D03*
X10437500Y3633750D03*
X10502500Y3633750D03*
%TD*%
D50*
%TO.C,C83*%
X5782500Y2137500D03*
X5782500Y1947500D03*
%TD*%
D36*
%TO.C,C1009_2*%
X1533251Y7049000D03*
X1441251Y7049000D03*
%TD*%
D31*
%TO.C,C60*%
X8735000Y6661000D03*
X8735000Y6569000D03*
%TD*%
D32*
%TO.C,TP1017_2*%
X4562500Y6947500D03*
%TD*%
D37*
%TO.C,C1004_4*%
X4242500Y2002500D03*
X4097500Y2002500D03*
%TD*%
D32*
%TO.C,TP1018_2*%
X3786800Y6380700D03*
%TD*%
%TO.C,TP46*%
X8010000Y5132500D03*
%TD*%
%TO.C,TP71*%
X10744300Y8880000D03*
%TD*%
%TO.C,TP69*%
X9785000Y4735000D03*
%TD*%
D34*
%TO.C,C98*%
X8958000Y8584000D03*
X8768000Y8584000D03*
%TD*%
D33*
%TO.C,D1001_2*%
X2708000Y6816000D03*
X2848000Y6816000D03*
%TD*%
D64*
%TO.C,Q3*%
X5795000Y1224999D03*
X5729999Y1415000D03*
X5860000Y1415000D03*
%TD*%
D32*
%TO.C,TP1015_2*%
X2967502Y6282499D03*
%TD*%
D45*
%TO.C,R9*%
X7195000Y9227502D03*
X7195000Y9317502D03*
%TD*%
D37*
%TO.C,C1008_3*%
X3747500Y5275000D03*
X3602500Y5275000D03*
%TD*%
D46*
%TO.C,C52*%
X8516500Y6569001D03*
X8608500Y6569001D03*
%TD*%
D32*
%TO.C,TP77*%
X10990000Y5100000D03*
%TD*%
D51*
%TO.C,R63*%
X10437499Y2910000D03*
X10347499Y2910000D03*
%TD*%
D46*
%TO.C,C167*%
X8416500Y4055000D03*
X8508500Y4055000D03*
%TD*%
D32*
%TO.C,TP9*%
X8182552Y9490800D03*
%TD*%
D48*
%TO.C,C1003_3*%
X3772500Y4835000D03*
X3772500Y4980000D03*
%TD*%
D39*
%TO.C,R27*%
X8762500Y2899999D03*
X8762500Y2809999D03*
%TD*%
D48*
%TO.C,C1007_1*%
X3732500Y8012500D03*
X3732500Y8157500D03*
%TD*%
D45*
%TO.C,R1031_1*%
X2065000Y8730001D03*
X2065000Y8820001D03*
%TD*%
D65*
%TO.C,TP20*%
X11492500Y2405000D03*
%TD*%
D46*
%TO.C,C140*%
X8797000Y4222500D03*
X8889000Y4222500D03*
%TD*%
D45*
%TO.C,R1032_2*%
X2967500Y6437501D03*
X2967500Y6527501D03*
%TD*%
D46*
%TO.C,C1057_1*%
X3774000Y8777500D03*
X3866000Y8777500D03*
%TD*%
D31*
%TO.C,C78*%
X10632500Y3526000D03*
X10632500Y3434000D03*
%TD*%
D32*
%TO.C,TP1014_4*%
X2065000Y2425000D03*
%TD*%
D66*
%TO.C,TP74*%
X11222390Y3547860D03*
%TD*%
D42*
%TO.C,SO1*%
X9747500Y7752500D03*
%TD*%
D45*
%TO.C,FB1001_4*%
X4305000Y2862501D03*
X4305000Y2952501D03*
%TD*%
D37*
%TO.C,C1008_2*%
X3747500Y7325000D03*
X3602500Y7325000D03*
%TD*%
D47*
%TO.C,C1033_4*%
X4550000Y3044000D03*
X4550000Y3136000D03*
%TD*%
D45*
%TO.C,R1031_2*%
X2065000Y6680001D03*
X2065000Y6770001D03*
%TD*%
D48*
%TO.C,C168*%
X7482500Y3252500D03*
X7482500Y3397500D03*
%TD*%
D39*
%TO.C,R8*%
X1065001Y9050000D03*
X1065001Y8960000D03*
%TD*%
D67*
%TO.C,J4_2*%
X5063057Y7044128D03*
D59*
X5159057Y7141628D03*
D68*
X5063057Y7241628D03*
D57*
X4967057Y7141628D03*
%TD*%
D32*
%TO.C,TP84*%
X8860000Y5015000D03*
%TD*%
%TO.C,TP38*%
X4635000Y8402500D03*
%TD*%
D48*
%TO.C,C1007_4*%
X3732500Y1862500D03*
X3732500Y2007500D03*
%TD*%
D36*
%TO.C,C191*%
X7924500Y4222500D03*
X7832500Y4222500D03*
%TD*%
D40*
%TO.C,C1006_1*%
X3970000Y9375000D03*
X4115000Y9375000D03*
%TD*%
D60*
%TO.C,Q1003_4*%
X3032501Y2715001D03*
X3097502Y2525000D03*
X2967501Y2525000D03*
%TD*%
D32*
%TO.C,TP10*%
X6475000Y6380000D03*
%TD*%
D46*
%TO.C,C61*%
X8516500Y6295000D03*
X8608500Y6295000D03*
%TD*%
D51*
%TO.C,R113*%
X9058999Y3734000D03*
X8968999Y3734000D03*
%TD*%
D36*
%TO.C,C141*%
X9071000Y4462500D03*
X8979000Y4462500D03*
%TD*%
D45*
%TO.C,R74*%
X4702500Y2135001D03*
X4702500Y2225001D03*
%TD*%
D47*
%TO.C,C1042_4*%
X4402500Y2859000D03*
X4402500Y2951000D03*
%TD*%
D60*
%TO.C,Q1003_2*%
X3032501Y6815001D03*
X3097502Y6625000D03*
X2967501Y6625000D03*
%TD*%
D52*
%TO.C,C144*%
X9410000Y4425000D03*
X9410000Y4615000D03*
%TD*%
D39*
%TO.C,R1030_4*%
X3097500Y2427499D03*
X3097500Y2337499D03*
%TD*%
D32*
%TO.C,TP36*%
X6657500Y5425000D03*
%TD*%
D39*
%TO.C,R1036_3*%
X3992500Y4852499D03*
X3992500Y4762499D03*
%TD*%
D32*
%TO.C,TP59*%
X7250000Y9470000D03*
%TD*%
D60*
%TO.C,Q1002_1*%
X2130000Y9107501D03*
X2195001Y8917500D03*
X2065000Y8917500D03*
%TD*%
D47*
%TO.C,C53*%
X8885000Y5861500D03*
X8885000Y5953500D03*
%TD*%
D39*
%TO.C,R1029_2*%
X2195000Y6769999D03*
X2195000Y6679999D03*
%TD*%
D48*
%TO.C,C1003_2*%
X3772500Y6885000D03*
X3772500Y7030000D03*
%TD*%
D39*
%TO.C,R28*%
X8666611Y2899999D03*
X8666611Y2809999D03*
%TD*%
D34*
%TO.C,C1027_2*%
X1887000Y6882000D03*
X1697000Y6882000D03*
%TD*%
D36*
%TO.C,C150*%
X7846000Y3909000D03*
X7754000Y3909000D03*
%TD*%
D45*
%TO.C,FB1001_1*%
X4305000Y9012501D03*
X4305000Y9102501D03*
%TD*%
D69*
%TO.C,TP14*%
X5545000Y1320000D03*
%TD*%
D52*
%TO.C,C87*%
X8915000Y3368750D03*
X8915000Y3558750D03*
%TD*%
D32*
%TO.C,TP70*%
X9602500Y4875000D03*
%TD*%
D67*
%TO.C,J4_4*%
X5063057Y2944128D03*
D59*
X5159057Y3041628D03*
D68*
X5063057Y3141628D03*
D57*
X4967057Y3041628D03*
%TD*%
D67*
%TO.C,J4_3*%
X5063057Y4994128D03*
D59*
X5159057Y5091628D03*
D68*
X5063057Y5191628D03*
D57*
X4967057Y5091628D03*
%TD*%
D47*
%TO.C,C189*%
X8087500Y3257750D03*
X8087500Y3349750D03*
%TD*%
D45*
%TO.C,R59*%
X9067500Y5070001D03*
X9067500Y5160001D03*
%TD*%
D54*
%TO.C,R108*%
X5730001Y1515000D03*
X5820001Y1515000D03*
%TD*%
D44*
%TO.C,R1027_2*%
X1537000Y6707000D03*
X1537000Y6867000D03*
%TD*%
D32*
%TO.C,TP1017_3*%
X4562500Y4897500D03*
%TD*%
D45*
%TO.C,R45*%
X9140001Y6790002D03*
X9140001Y6880002D03*
%TD*%
D39*
%TO.C,R1046_3*%
X4450000Y5187499D03*
X4450000Y5097499D03*
%TD*%
D54*
%TO.C,R58*%
X11305001Y5860000D03*
X11395001Y5860000D03*
%TD*%
D45*
%TO.C,R46*%
X9435000Y6487500D03*
X9435000Y6577500D03*
%TD*%
D36*
%TO.C,C1009_1*%
X1533251Y9099000D03*
X1441251Y9099000D03*
%TD*%
D51*
%TO.C,R1052_3*%
X3864999Y4190000D03*
X3774999Y4190000D03*
%TD*%
D45*
%TO.C,R62*%
X10632500Y3187501D03*
X10632500Y3277501D03*
%TD*%
D60*
%TO.C,Q1002_2*%
X2130000Y7057501D03*
X2195001Y6867500D03*
X2065000Y6867500D03*
%TD*%
D32*
%TO.C,TP32*%
X6810000Y5592500D03*
%TD*%
D41*
%TO.C,C69_4*%
X6561000Y7469500D03*
X6561000Y7324500D03*
%TD*%
D60*
%TO.C,Q1003_1*%
X3032501Y8865001D03*
X3097502Y8675000D03*
X2967501Y8675000D03*
%TD*%
D47*
%TO.C,C190*%
X7607500Y3334000D03*
X7607500Y3426000D03*
%TD*%
%TO.C,C1054_1*%
X3995000Y9129000D03*
X3995000Y9221000D03*
%TD*%
D45*
%TO.C,R1032_3*%
X2967500Y4387501D03*
X2967500Y4477501D03*
%TD*%
D39*
%TO.C,R1030_1*%
X3097500Y8577499D03*
X3097500Y8487499D03*
%TD*%
D36*
%TO.C,C174*%
X9421000Y3542500D03*
X9329000Y3542500D03*
%TD*%
D31*
%TO.C,C58*%
X9155000Y6661000D03*
X9155000Y6569000D03*
%TD*%
D32*
%TO.C,TP58*%
X420002Y4820000D03*
%TD*%
%TO.C,TP1015_4*%
X2967502Y2182499D03*
%TD*%
%TO.C,TP31*%
X8563001Y8690999D03*
%TD*%
D50*
%TO.C,C22*%
X5592500Y2137500D03*
X5592500Y1947500D03*
%TD*%
%TO.C,C86*%
X9560000Y3405000D03*
X9560000Y3215000D03*
%TD*%
D34*
%TO.C,C1027_4*%
X1887000Y2782000D03*
X1697000Y2782000D03*
%TD*%
D51*
%TO.C,R50*%
X9527499Y6282500D03*
X9437499Y6282500D03*
%TD*%
D66*
%TO.C,TP73*%
X9532391Y8292860D03*
%TD*%
D32*
%TO.C,TP47*%
X6724000Y5056000D03*
%TD*%
D45*
%TO.C,R1032_4*%
X2967500Y2337501D03*
X2967500Y2427501D03*
%TD*%
D47*
%TO.C,C1033_3*%
X4550000Y5094000D03*
X4550000Y5186000D03*
%TD*%
D32*
%TO.C,TP42*%
X4742500Y8847500D03*
%TD*%
D34*
%TO.C,C1027_1*%
X1887000Y8932000D03*
X1697000Y8932000D03*
%TD*%
D56*
%TO.C,J3_2*%
X5065000Y6942500D03*
D57*
X4969000Y6845000D03*
D58*
X5065000Y6745000D03*
D59*
X5161000Y6845000D03*
%TD*%
D41*
%TO.C,C1005_4*%
X4150000Y3065000D03*
X4150000Y2920000D03*
%TD*%
D46*
%TO.C,C157*%
X8629000Y3755000D03*
X8721000Y3755000D03*
%TD*%
D39*
%TO.C,FB1*%
X7027500Y6087499D03*
X7027500Y5997499D03*
%TD*%
D41*
%TO.C,C162*%
X7531000Y4057500D03*
X7531000Y3912500D03*
%TD*%
D52*
%TO.C,C1028_1*%
X2778000Y8520000D03*
X2778000Y8710000D03*
%TD*%
D54*
%TO.C,R73*%
X4612501Y1945000D03*
X4702501Y1945000D03*
%TD*%
%TO.C,R2*%
X10532501Y2910000D03*
X10622501Y2910000D03*
%TD*%
D47*
%TO.C,C37*%
X7497500Y2806500D03*
X7497500Y2898500D03*
%TD*%
D32*
%TO.C,TP17*%
X9300000Y6435001D03*
%TD*%
D42*
%TO.C,SO3*%
X1000000Y2810000D03*
%TD*%
D36*
%TO.C,C155*%
X8318500Y3755000D03*
X8226500Y3755000D03*
%TD*%
D45*
%TO.C,FB1001_2*%
X4305000Y6962501D03*
X4305000Y7052501D03*
%TD*%
D37*
%TO.C,C143*%
X9024500Y3981000D03*
X8879500Y3981000D03*
%TD*%
D41*
%TO.C,C69_2*%
X7671014Y7469500D03*
X7671014Y7324500D03*
%TD*%
D48*
%TO.C,C158*%
X8632500Y3912500D03*
X8632500Y4057500D03*
%TD*%
D34*
%TO.C,C12*%
X5280000Y1577500D03*
X5090000Y1577500D03*
%TD*%
D55*
%TO.C,Q2*%
X6897499Y9017500D03*
X7087500Y9082501D03*
X7087500Y8952500D03*
%TD*%
D54*
%TO.C,R84*%
X510002Y8985001D03*
X600002Y8985001D03*
%TD*%
D47*
%TO.C,C1054_4*%
X3995000Y2979000D03*
X3995000Y3071000D03*
%TD*%
D70*
%TO.C,U19*%
X7768000Y5269500D03*
X7768000Y5142500D03*
X7768000Y5015500D03*
X7768000Y4888500D03*
X7204000Y4888500D03*
X7204000Y5015500D03*
X7204000Y5142500D03*
X7204000Y5269500D03*
D71*
X7486000Y5079000D03*
%TD*%
D51*
%TO.C,R1052_1*%
X3864999Y8290000D03*
X3774999Y8290000D03*
%TD*%
D54*
%TO.C,FB13*%
X8162501Y3657500D03*
X8252501Y3657500D03*
%TD*%
D32*
%TO.C,TP57*%
X420000Y5020000D03*
%TD*%
D48*
%TO.C,C159*%
X8479000Y3589500D03*
X8479000Y3734500D03*
%TD*%
D72*
%TO.C,U1*%
X947501Y9115001D03*
X947501Y9050001D03*
X947501Y8985001D03*
X722501Y8985001D03*
X722501Y9115001D03*
%TD*%
D45*
%TO.C,R1032_1*%
X2967500Y8487501D03*
X2967500Y8577501D03*
%TD*%
D32*
%TO.C,TP68*%
X6272500Y5325000D03*
%TD*%
D47*
%TO.C,C1010_3*%
X2354000Y4767000D03*
X2354000Y4859000D03*
%TD*%
D48*
%TO.C,C1007_3*%
X3732500Y3912500D03*
X3732500Y4057500D03*
%TD*%
D73*
%TO.C,J8*%
X8747500Y2327500D03*
D74*
X10747500Y2327500D03*
D75*
X8822500Y1800000D03*
X8847500Y2555000D03*
X8872500Y1800000D03*
X8897500Y2555000D03*
X8922500Y1800000D03*
X8947500Y2555000D03*
X8972500Y1800000D03*
X8997500Y2555000D03*
X9022500Y1800000D03*
X9047500Y2555000D03*
X9072500Y1800000D03*
X9097500Y2555000D03*
X9122500Y1800000D03*
X9147500Y2555000D03*
X9172500Y1800000D03*
X9197500Y2555000D03*
X9222500Y1800000D03*
X9247500Y2555000D03*
X9272500Y1800000D03*
X9297500Y2555000D03*
X9322500Y1800000D03*
X9347500Y2555000D03*
X9372500Y1800000D03*
X9397500Y2555000D03*
X9422500Y1800000D03*
X9447500Y2555000D03*
X9472500Y1800000D03*
X9497500Y2555000D03*
X9522500Y1800000D03*
X9547500Y2555000D03*
X9572500Y1800000D03*
X9597500Y2555000D03*
X9622500Y1800000D03*
X9647500Y2555000D03*
X9672500Y1800000D03*
X9697500Y2555000D03*
X9722500Y1800000D03*
X9747500Y2555000D03*
X9772500Y1800000D03*
X9797500Y2555000D03*
X9822500Y1800000D03*
X9847500Y2555000D03*
X9872500Y1800000D03*
X9897500Y2555000D03*
X9922500Y1800000D03*
X9947500Y2555000D03*
X9972500Y1800000D03*
X9997500Y2555000D03*
X10022500Y1800000D03*
X10047500Y2555000D03*
X10072500Y1800000D03*
X10097500Y2555000D03*
X10122500Y1800000D03*
X10147500Y2555000D03*
X10172500Y1800000D03*
X10197500Y2555000D03*
X10222500Y1800000D03*
X10247500Y2555000D03*
X10472500Y1800000D03*
X10497500Y2555000D03*
X10522500Y1800000D03*
X10547500Y2555000D03*
X10572500Y1800000D03*
X10597500Y2555000D03*
X10622500Y1800000D03*
X10647500Y2555000D03*
X10672500Y1800000D03*
D76*
X8712500Y1877500D03*
X10782500Y1877500D03*
%TD*%
D31*
%TO.C,C169*%
X7770000Y3349750D03*
X7770000Y3257750D03*
%TD*%
D39*
%TO.C,R32*%
X8476611Y2899999D03*
X8476611Y2809999D03*
%TD*%
D34*
%TO.C,C1029_4*%
X2595000Y2380000D03*
X2405000Y2380000D03*
%TD*%
D39*
%TO.C,R1045_2*%
X4355000Y7237499D03*
X4355000Y7147499D03*
%TD*%
D45*
%TO.C,R61*%
X9982500Y3427501D03*
X9982500Y3517501D03*
%TD*%
D54*
%TO.C,R86*%
X6495000Y5570000D03*
X6585000Y5570000D03*
%TD*%
D32*
%TO.C,TP82*%
X8505000Y4885000D03*
%TD*%
%TO.C,TP30*%
X6337500Y6600000D03*
%TD*%
D37*
%TO.C,C1004_3*%
X4242500Y4052500D03*
X4097500Y4052500D03*
%TD*%
D40*
%TO.C,C1006_4*%
X3970000Y3225000D03*
X4115000Y3225000D03*
%TD*%
D48*
%TO.C,C79*%
X10757500Y3352500D03*
X10757500Y3497500D03*
%TD*%
D31*
%TO.C,C151*%
X8302000Y4413000D03*
X8302000Y4321000D03*
%TD*%
D54*
%TO.C,R95*%
X4612501Y2040000D03*
X4702501Y2040000D03*
%TD*%
D51*
%TO.C,R118*%
X9417499Y3445000D03*
X9327499Y3445000D03*
%TD*%
D46*
%TO.C,C1057_3*%
X3774000Y4677500D03*
X3866000Y4677500D03*
%TD*%
D36*
%TO.C,C1041_1*%
X4403500Y8910000D03*
X4311500Y8910000D03*
%TD*%
D32*
%TO.C,TP1*%
X6327500Y6242500D03*
%TD*%
D39*
%TO.C,R1046_2*%
X4450000Y7237499D03*
X4450000Y7147499D03*
%TD*%
D47*
%TO.C,C1010_2*%
X2354000Y6817000D03*
X2354000Y6909000D03*
%TD*%
D65*
%TO.C,TP19*%
X11492500Y2085000D03*
%TD*%
D32*
%TO.C,TP55*%
X9910000Y3675000D03*
%TD*%
%TO.C,TP7*%
X6452500Y9540000D03*
%TD*%
D60*
%TO.C,Q1002_3*%
X2130000Y5007501D03*
X2195001Y4817500D03*
X2065000Y4817500D03*
%TD*%
D36*
%TO.C,C1041_3*%
X4403500Y4810000D03*
X4311500Y4810000D03*
%TD*%
D32*
%TO.C,TP18*%
X9010000Y6830000D03*
%TD*%
D48*
%TO.C,C1003_1*%
X3772500Y8935000D03*
X3772500Y9080000D03*
%TD*%
D34*
%TO.C,C1026_1*%
X1887000Y8742000D03*
X1697000Y8742000D03*
%TD*%
D32*
%TO.C,TP63*%
X6227500Y3922500D03*
%TD*%
%TO.C,TP1018_4*%
X3786800Y2280700D03*
%TD*%
D36*
%TO.C,C166*%
X8493500Y4377500D03*
X8401500Y4377500D03*
%TD*%
D32*
%TO.C,TP34*%
X9397500Y9288000D03*
%TD*%
D47*
%TO.C,C45*%
X7097500Y2806500D03*
X7097500Y2898500D03*
%TD*%
D54*
%TO.C,R17*%
X7207501Y6247500D03*
X7297501Y6247500D03*
%TD*%
D32*
%TO.C,TP37*%
X9587500Y9352500D03*
%TD*%
D47*
%TO.C,C33*%
X7697500Y2806500D03*
X7697500Y2898500D03*
%TD*%
D37*
%TO.C,C1008_4*%
X3747500Y3225000D03*
X3602500Y3225000D03*
%TD*%
D47*
%TO.C,C54*%
X8612500Y5861500D03*
X8612500Y5953500D03*
%TD*%
D32*
%TO.C,TP48*%
X8042500Y4862500D03*
%TD*%
D39*
%TO.C,R1029_4*%
X2195000Y2669999D03*
X2195000Y2579999D03*
%TD*%
D47*
%TO.C,C55*%
X8735000Y5861500D03*
X8735000Y5953500D03*
%TD*%
%TO.C,C44*%
X7197500Y2806500D03*
X7197500Y2898500D03*
%TD*%
D32*
%TO.C,TP54*%
X10780000Y3187500D03*
%TD*%
D45*
%TO.C,R12*%
X6790000Y9017502D03*
X6790000Y9107502D03*
%TD*%
D77*
%TO.C,U11*%
X4940000Y2227500D03*
D78*
X5050000Y2232500D03*
D79*
X5125000Y2252500D03*
X5175000Y2252500D03*
X5225000Y2252500D03*
D78*
X5300000Y2232500D03*
D80*
X5410000Y2227500D03*
D81*
X5435000Y2142500D03*
X5435000Y2092500D03*
X5435000Y2042500D03*
D82*
X5435000Y1992500D03*
X5435000Y1942500D03*
D83*
X5410000Y1857500D03*
D84*
X5300000Y1852500D03*
D79*
X5225000Y1832500D03*
X5175000Y1832500D03*
X5125000Y1832500D03*
D84*
X5050000Y1852500D03*
D85*
X4940000Y1857500D03*
D82*
X4915000Y1942500D03*
X4915000Y1992500D03*
D81*
X4915000Y2042500D03*
X4915000Y2092500D03*
X4915000Y2142500D03*
D86*
X5102500Y2115000D03*
D87*
X5272500Y2115000D03*
X5272500Y1970000D03*
D86*
X5102500Y1970000D03*
%TD*%
D32*
%TO.C,TP4*%
X9070000Y9283500D03*
%TD*%
D47*
%TO.C,C1033_1*%
X4550000Y9194000D03*
X4550000Y9286000D03*
%TD*%
D41*
%TO.C,C69_3*%
X7116007Y7469500D03*
X7116007Y7324500D03*
%TD*%
D33*
%TO.C,D1000_3*%
X1722000Y4999000D03*
X1862000Y4999000D03*
%TD*%
D47*
%TO.C,C40*%
X7397500Y2806500D03*
X7397500Y2898500D03*
%TD*%
%TO.C,C1033_2*%
X4550000Y7144000D03*
X4550000Y7236000D03*
%TD*%
%TO.C,C29*%
X7897500Y2806500D03*
X7897500Y2898500D03*
%TD*%
D67*
%TO.C,J4_1*%
X5063057Y9094128D03*
D59*
X5159057Y9191628D03*
D68*
X5063057Y9291628D03*
D57*
X4967057Y9191628D03*
%TD*%
D39*
%TO.C,R11*%
X6790000Y9292500D03*
X6790000Y9202500D03*
%TD*%
D32*
%TO.C,TP1016_3*%
X4530000Y4684000D03*
%TD*%
D45*
%TO.C,R1031_4*%
X2065000Y2580001D03*
X2065000Y2670001D03*
%TD*%
%TO.C,R66*%
X7906000Y4924001D03*
X7906000Y5014001D03*
%TD*%
D39*
%TO.C,R87*%
X4957500Y1724999D03*
X4957500Y1634999D03*
%TD*%
D45*
%TO.C,R10*%
X7195000Y8957502D03*
X7195000Y9047502D03*
%TD*%
D34*
%TO.C,C1029_2*%
X2595000Y6480000D03*
X2405000Y6480000D03*
%TD*%
D36*
%TO.C,C165*%
X8241000Y4150000D03*
X8149000Y4150000D03*
%TD*%
D47*
%TO.C,C1054_3*%
X3995000Y5029000D03*
X3995000Y5121000D03*
%TD*%
D46*
%TO.C,C1057_2*%
X3774000Y6727500D03*
X3866000Y6727500D03*
%TD*%
D32*
%TO.C,TP78*%
X10990000Y4185000D03*
%TD*%
D50*
%TO.C,C160*%
X9750000Y3405000D03*
X9750000Y3215000D03*
%TD*%
D36*
%TO.C,C138*%
X8563500Y4630000D03*
X8471500Y4630000D03*
%TD*%
D32*
%TO.C,TP1016_4*%
X4530000Y2634000D03*
%TD*%
D36*
%TO.C,C77*%
X6583500Y5667500D03*
X6491500Y5667500D03*
%TD*%
D33*
%TO.C,D1001_3*%
X2708000Y4766000D03*
X2848000Y4766000D03*
%TD*%
D49*
%TO.C,TP2*%
X5750000Y5625000D03*
%TD*%
M02*
