M48
; DRILL file {KiCad 9.0.3} date 2026-01-22T13:09:40-0500
; FORMAT={-:-/ absolute / inch / decimal}
; #@! TF.CreationDate,2026-01-22T13:09:40-05:00
; #@! TF.GenerationSoftware,Kicad,Pcbnew,9.0.3
; #@! TF.FileFunction,MixedPlating,1,6
FMAT,2
INCH
; #@! TA.AperFunction,Plated,PTH,ViaDrill
T1C0.0080
; #@! TA.AperFunction,Plated,PTH,ComponentDrill
T2C0.0291
; #@! TA.AperFunction,Plated,PTH,ComponentDrill
T3C0.0354
; #@! TA.AperFunction,Plated,PTH,ComponentDrill
T4C0.0394
; #@! TA.AperFunction,Plated,PTH,ComponentDrill
T5C0.0709
; #@! TA.AperFunction,Plated,PTH,ComponentDrill
T6C0.0748
; #@! TA.AperFunction,Plated,PTH,ComponentDrill
T7C0.1181
; #@! TA.AperFunction,NonPlated,NPTH,ComponentDrill
T8C0.0150
; #@! TA.AperFunction,NonPlated,NPTH,ComponentDrill
T9C0.0354
; #@! TA.AperFunction,NonPlated,NPTH,ComponentDrill
T10C0.0394
; #@! TA.AperFunction,NonPlated,NPTH,ComponentDrill
T11C0.0430
; #@! TA.AperFunction,NonPlated,NPTH,ComponentDrill
T12C0.0630
; #@! TA.AperFunction,NonPlated,NPTH,ComponentDrill
T13C0.1220
; #@! TA.AperFunction,NonPlated,NPTH,ComponentDrill
T14C0.1252
%
G90
G05
T1
X0.0295Y0.9664
X0.0295Y3.7421
X0.0295Y3.6634
X0.0295Y3.5846
X0.0295Y3.5059
X0.0295Y3.4272
X0.0295Y3.3484
X0.0295Y3.2697
X0.0295Y3.1909
X0.0295Y3.1122
X0.0295Y3.0335
X0.0295Y2.9547
X0.0295Y2.8504
X0.0295Y2.7717
X0.0295Y2.6476
X0.0295Y2.5689
X0.0295Y2.4902
X0.0295Y2.4114
X0.0295Y2.3327
X0.0295Y2.2539
X0.0295Y2.1752
X0.0295Y2.0965
X0.0295Y2.0177
X0.0295Y1.9587
X0.0295Y1.8701
X0.0295Y1.8012
X0.0295Y1.7224
X0.0295Y1.6437
X0.0295Y1.565
X0.0295Y1.4862
X0.0295Y1.4075
X0.0295Y1.3287
X0.0295Y1.25
X0.0295Y1.1457
X0.0295Y1.0669
X0.0295Y0.9094
X0.0295Y0.7933
X0.0295Y0.7303
X0.0295Y0.628
X0.0295Y0.563
X0.0295Y0.4469
X0.0295Y0.3839
X0.0295Y0.2874
X0.0689Y3.7028
X0.0689Y3.624
X0.0689Y3.5453
X0.0689Y3.4665
X0.0689Y3.3878
X0.0689Y3.3091
X0.0689Y3.2303
X0.0689Y3.1516
X0.0689Y3.0728
X0.0689Y2.9941
X0.0689Y2.6083
X0.0689Y2.5295
X0.0689Y2.4508
X0.0689Y2.372
X0.0689Y2.2933
X0.0689Y2.2146
X0.0689Y2.1358
X0.0689Y2.0571
X0.0689Y1.8406
X0.0689Y1.7618
X0.0689Y1.6831
X0.0689Y1.6043
X0.0689Y1.5256
X0.0689Y1.4469
X0.0689Y1.3681
X0.0689Y1.2894
X0.0787Y2.8504
X0.0787Y2.7717
X0.0906Y2.0177
X0.0945Y0.5413
X0.0984Y3.4252
X0.0984Y3.3484
X0.0984Y3.1122
X0.0984Y2.5689
X0.0984Y1.7224
X0.0984Y1.6437
X0.0984Y1.4075
X0.0984Y0.8563
X0.1004Y3.7421
X0.1083Y3.6634
X0.1083Y3.5846
X0.1083Y3.5059
X0.1083Y3.2697
X0.1083Y3.1909
X0.1083Y3.0413
X0.1083Y2.8957
X0.1083Y2.7264
X0.1083Y2.6476
X0.1083Y2.4902
X0.1083Y2.4114
X0.1083Y2.3327
X0.1083Y2.1752
X0.1083Y2.0965
X0.1083Y1.8012
X0.1083Y1.565
X0.1083Y1.4862
X0.1083Y1.3287
X0.1083Y1.25
X0.1083Y0.935
X0.1083Y0.7776
X0.1083Y0.6988
X0.1083Y0.6122
X0.1083Y0.4626
X0.1083Y0.3051
X0.128Y2.0177
X0.1378Y2.8858
X0.1382Y2.7367
X0.1382Y1.1811
X0.1382Y1.0319
X0.1476Y3.624
X0.1476Y3.5531
X0.1476Y3.4665
X0.1476Y3.2972
X0.1476Y3.2303
X0.1476Y3.1693
X0.1476Y3.002
X0.1476Y2.687
X0.1476Y2.6181
X0.1476Y2.4508
X0.1476Y2.372
X0.1476Y2.1358
X0.1476Y2.0571
X0.1476Y1.8307
X0.1476Y1.7717
X0.1476Y1.5945
X0.1476Y1.5256
X0.1476Y1.4665
X0.1476Y1.2894
X0.1476Y0.9744
X0.1476Y0.9154
X0.1476Y0.7382
X0.1476Y0.6594
X0.1476Y0.439
X0.1634Y0.3839
X0.1732Y1.1457
X0.1737Y2.7717
X0.1737Y1.0669
X0.187Y3.6634
X0.187Y3.5846
X0.187Y3.5059
X0.187Y3.2697
X0.187Y3.1909
X0.187Y2.9626
X0.187Y2.8839
X0.187Y2.7264
X0.187Y2.6476
X0.187Y2.4114
X0.187Y2.3327
X0.187Y2.0965
X0.187Y2.0177
X0.187Y1.565
X0.187Y1.4862
X0.187Y1.25
X0.187Y1.0138
X0.187Y0.935
X0.187Y0.6988
X0.187Y0.6358
X0.187Y2.7933
X0.187Y0.3051
X0.2047Y1.9764
X0.2047Y1.8583
X0.2047Y1.8976
X0.2126Y3.624
X0.2244Y3.1673
X0.2264Y3.7028
X0.2264Y3.3091
X0.2264Y2.1358
X0.2264Y2.0571
X0.2264Y1.7618
X0.2264Y1.6043
X0.2264Y1.5256
X0.2264Y1.2894
X0.2264Y1.2106
X0.2264Y1.1319
X0.2264Y1.0531
X0.2264Y0.9744
X0.2264Y0.9154
X0.2264Y0.7382
X0.2264Y0.6594
X0.2264Y0.6161
X0.2264Y0.439
X0.2264Y3.4744
X0.2264Y3.2382
X0.2264Y3.002
X0.2264Y2.9232
X0.2264Y2.8583
X0.2264Y2.687
X0.2264Y2.6122
X0.2264Y2.4508
X0.2264Y2.372
X0.2382Y3.563
X0.2382Y2.7933
X0.248Y1.9783
X0.2657Y3.7421
X0.2657Y3.6634
X0.2657Y3.5059
X0.2657Y0.8726
X0.2657Y0.7776
X0.2657Y0.5734
X0.2657Y0.4783
X0.2657Y0.3051
X0.2756Y0.8268
X0.2756Y0.5276
X0.2972Y3.624
X0.3051Y0.5768
X0.3051Y3.7028
X0.3051Y1.9193
X0.3051Y1.8406
X0.3051Y1.7618
X0.3051Y1.6831
X0.3051Y1.6043
X0.3051Y1.5256
X0.3051Y1.4469
X0.3051Y1.3681
X0.3051Y1.2894
X0.3051Y1.2106
X0.3051Y0.9744
X0.3051Y0.8957
X0.3051Y0.8169
X0.3051Y0.7382
X0.3051Y0.6594
X0.3051Y0.502
X0.3051Y3.3957
X0.3051Y3.3169
X0.3051Y3.2382
X0.3051Y3.1594
X0.3051Y3.0807
X0.3051Y3.002
X0.3051Y2.9232
X0.3051Y2.687
X0.3051Y2.6083
X0.3051Y2.5295
X0.3051Y2.4508
X0.3051Y2.372
X0.3051Y2.2933
X0.3051Y2.2146
X0.3051Y2.1358
X0.3425Y3.5374
X0.3445Y3.8091
X0.3445Y3.8878
X0.3445Y0.5413
X0.3445Y3.6634
X0.3445Y0.4626
X0.3445Y0.3051
X0.374Y3.4449
X0.374Y3.3563
X0.374Y2.6378
X0.374Y2.5492
X0.374Y1.8307
X0.374Y1.7421
X0.374Y0.8563
X0.374Y0.7776
X0.374Y0.3839
X0.3839Y3.8484
X0.3839Y0.5768
X0.3839Y2.6772
X0.3839Y2.1102
X0.3839Y1.9193
X0.3839Y1.7618
X0.3839Y1.6831
X0.3839Y1.6043
X0.3839Y1.5256
X0.3839Y1.4469
X0.3839Y1.3681
X0.3839Y1.2894
X0.3839Y0.9744
X0.3839Y0.8957
X0.3839Y0.8169
X0.3839Y0.7382
X0.3839Y0.6594
X0.3839Y0.502
X0.3839Y3.4744
X0.3839Y3.3957
X0.3839Y3.3169
X0.3839Y3.2382
X0.3839Y3.1594
X0.3839Y3.0807
X0.3839Y3.002
X0.3839Y2.6083
X0.3839Y2.5295
X0.3839Y2.4508
X0.3839Y2.372
X0.3839Y2.2933
X0.3839Y2.2146
X0.3917Y3.624
X0.3976Y3.6791
X0.4193Y3.502
X0.4213Y0.6752
X0.4222Y2.4911
X0.4232Y3.8091
X0.4232Y3.7303
X0.4232Y3.8878
X0.4232Y0.5413
X0.4232Y3.4232
X0.4232Y3.3307
X0.4232Y2.1496
X0.4232Y2.0374
X0.4232Y1.9587
X0.4232Y1.8799
X0.4232Y1.8012
X0.4232Y1.7224
X0.4232Y1.6437
X0.4232Y1.565
X0.4232Y1.4862
X0.4232Y1.4075
X0.4232Y1.3287
X0.4232Y1.25
X0.4232Y0.935
X0.4232Y0.8563
X0.4232Y0.7776
X0.4232Y3.2598
X0.4232Y3.1988
X0.4232Y3.1201
X0.4232Y3.0413
X0.4232Y2.9626
X0.4232Y2.5689
X0.4232Y2.4114
X0.4232Y2.3327
X0.4232Y2.2539
X0.4232Y0.4626
X0.4232Y0.3051
X0.4252Y0.7047
X0.4252Y0.6476
X0.4429Y3.6437
X0.4429Y0.626
X0.4567Y3.563
X0.4567Y3.5059
X0.4567Y0.7421
X0.4587Y0.8169
X0.4626Y3.7697
X0.4626Y3.6909
X0.4626Y3.8484
X0.4626Y2.189
X0.4626Y2.0768
X0.4626Y1.998
X0.4626Y1.9193
X0.4626Y1.8406
X0.4626Y1.7618
X0.4626Y1.6831
X0.4626Y1.4469
X0.4626Y1.3681
X0.4626Y1.2894
X0.4626Y0.9744
X0.4626Y0.8957
X0.4626Y3.1594
X0.4626Y3.0807
X0.4626Y3.002
X0.4626Y2.687
X0.4626Y2.6083
X0.4626Y2.2933
X0.4626Y0.5768
X0.4626Y0.502
X0.4646Y0.6102
X0.4665Y2.9252
X0.4733Y3.6083
X0.4733Y3.4508
X0.4733Y3.3957
X0.4921Y0.6043
X0.502Y3.7303
X0.502Y3.6516
X0.502Y3.8091
X0.502Y3.8878
X0.502Y2.2598
X0.502Y2.1161
X0.502Y2.0374
X0.502Y1.9587
X0.502Y1.8799
X0.502Y1.8012
X0.502Y1.7224
X0.502Y1.4075
X0.502Y1.3287
X0.502Y1.25
X0.502Y1.0138
X0.502Y0.935
X0.502Y3.1201
X0.502Y3.0413
X0.502Y2.9626
X0.502Y2.6476
X0.502Y2.5689
X0.502Y0.5413
X0.502Y0.4626
X0.502Y0.3051
X0.5079Y2.8839
X0.5127Y3.5689
X0.5127Y3.4902
X0.5127Y3.4232
X0.5197Y0.6102
X0.5217Y1.2028
X0.5217Y1.1457
X0.5217Y1.0709
X0.5276Y1.6043
X0.5276Y0.9744
X0.5276Y0.8356
X0.5276Y0.7913
X0.5276Y0.7421
X0.5285Y1.6594
X0.5295Y2.2933
X0.5413Y3.8484
X0.5413Y0.626
X0.5413Y0.502
X0.5521Y3.5295
X0.5688Y3.7876
X0.5688Y3.7286
X0.5688Y3.6695
X0.5688Y3.6104
X0.5688Y2.9805
X0.5688Y2.9215
X0.5688Y2.8624
X0.5688Y2.8034
X0.5688Y2.1734
X0.5688Y2.1144
X0.5688Y2.0553
X0.5688Y1.9963
X0.5688Y1.3663
X0.5688Y1.3073
X0.5688Y1.2482
X0.5688Y1.1892
X0.5689Y3.4764
X0.5689Y3.4272
X0.5689Y3.378
X0.5689Y3.2441
X0.5689Y3.185
X0.5689Y3.126
X0.5689Y3.0669
X0.5689Y2.6693
X0.5689Y2.6201
X0.5689Y2.5709
X0.5689Y2.437
X0.5689Y2.378
X0.5689Y2.3189
X0.5689Y2.2598
X0.5689Y1.8622
X0.5689Y1.813
X0.5689Y1.7638
X0.5689Y1.6299
X0.5689Y1.5709
X0.5689Y1.5118
X0.5689Y1.4528
X0.5689Y1.0551
X0.5689Y1.0059
X0.5689Y0.9567
X0.5689Y0.8228
X0.5689Y0.7638
X0.5689Y0.7047
X0.5689Y0.6457
X0.5689Y0.5374
X0.5689Y0.4626
X0.5689Y0.3051
X0.5698Y0.3841
X0.5807Y3.8878
X0.6036Y3.5483
X0.6036Y2.7412
X0.6036Y1.9341
X0.6036Y1.127
X0.6195Y3.6093
X0.6195Y2.8022
X0.6195Y1.9951
X0.6195Y1.188
X0.62Y3.7876
X0.62Y3.7286
X0.62Y3.6693
X0.62Y2.9805
X0.62Y2.9215
X0.62Y2.8622
X0.62Y2.1734
X0.62Y2.1144
X0.62Y2.0551
X0.62Y1.3663
X0.62Y1.3073
X0.62Y1.248
X0.6201Y3.8484
X0.6201Y3.0669
X0.6201Y2.2598
X0.6201Y1.4528
X0.6201Y0.6457
X0.623Y3.127
X0.623Y2.3199
X0.623Y1.5128
X0.623Y0.7057
X0.625Y3.3976
X0.625Y3.311
X0.625Y3.2234
X0.625Y2.5906
X0.625Y2.5039
X0.625Y2.4163
X0.625Y1.7835
X0.625Y1.6969
X0.625Y1.6093
X0.625Y0.9764
X0.625Y0.8898
X0.625Y0.8022
X0.6516Y3.1713
X0.6516Y2.3642
X0.6516Y1.5571
X0.6516Y0.75
X0.6575Y3.1275
X0.6575Y2.3204
X0.6575Y1.5133
X0.6575Y0.7062
X0.6594Y3.8878
X0.6712Y3.7876
X0.6712Y3.7286
X0.6712Y3.6693
X0.6712Y2.9805
X0.6712Y2.9215
X0.6712Y2.8622
X0.6712Y2.1734
X0.6712Y2.1144
X0.6712Y2.0551
X0.6712Y1.3663
X0.6712Y1.3073
X0.6712Y1.248
X0.6713Y3.0669
X0.6713Y2.2598
X0.6713Y1.4528
X0.6713Y0.6457
X0.6791Y3.1034
X0.6791Y2.2963
X0.6791Y1.4892
X0.6791Y0.6821
X0.6823Y3.6097
X0.6823Y2.8027
X0.6823Y1.9956
X0.6823Y1.1885
X0.6841Y3.3976
X0.6841Y3.311
X0.6841Y3.2234
X0.6841Y2.5906
X0.6841Y2.5039
X0.6841Y2.4163
X0.6841Y1.7835
X0.6841Y1.6969
X0.6841Y1.6093
X0.6841Y0.9764
X0.6841Y0.8898
X0.6841Y0.8022
X0.6988Y3.8484
X0.7126Y3.1034
X0.7126Y2.2963
X0.7126Y1.4892
X0.7126Y0.6821
X0.7146Y3.3553
X0.7146Y3.2677
X0.7146Y2.5482
X0.7146Y2.4606
X0.7146Y1.7411
X0.7146Y1.6535
X0.7146Y0.9341
X0.7146Y0.8465
X0.7224Y3.7876
X0.7224Y3.7286
X0.7224Y2.9805
X0.7224Y2.9215
X0.7224Y2.1734
X0.7224Y2.1144
X0.7224Y1.3663
X0.7224Y1.3073
X0.7224Y3.0669
X0.7224Y2.2598
X0.7224Y1.4528
X0.7224Y0.6457
X0.7382Y3.8878
X0.7431Y3.3976
X0.7431Y3.311
X0.7431Y3.2234
X0.7431Y2.5906
X0.7431Y2.5039
X0.7431Y2.4163
X0.7431Y1.7835
X0.7431Y1.6969
X0.7431Y1.6093
X0.7431Y0.9764
X0.7431Y0.8898
X0.7431Y0.8022
X0.7451Y3.6102
X0.7451Y2.8031
X0.7451Y1.9961
X0.7451Y1.189
X0.7461Y3.1034
X0.7461Y2.2963
X0.7461Y1.4892
X0.7461Y0.6821
X0.7559Y3.565
X0.7559Y2.7579
X0.7559Y1.9508
X0.7559Y1.1437
X0.7638Y3.7286
X0.7638Y2.9215
X0.7638Y2.1144
X0.7638Y1.3073
X0.7677Y3.1275
X0.7677Y2.3204
X0.7677Y1.5133
X0.7677Y0.7062
X0.7736Y3.3553
X0.7736Y3.2677
X0.7736Y2.5482
X0.7736Y2.4606
X0.7736Y1.7411
X0.7736Y1.6535
X0.7736Y0.9341
X0.7736Y0.8465
X0.7776Y3.8484
X0.7858Y3.5315
X0.7858Y3.4921
X0.7858Y3.4528
X0.7858Y3.4134
X0.7858Y2.7244
X0.7858Y2.685
X0.7858Y2.6457
X0.7858Y2.6063
X0.7858Y1.9173
X0.7858Y1.878
X0.7858Y1.8386
X0.7858Y1.7992
X0.7858Y1.1102
X0.7858Y1.0709
X0.7858Y1.0315
X0.7858Y0.9921
X0.8022Y3.311
X0.8022Y3.2234
X0.8022Y2.5039
X0.8022Y2.4163
X0.8022Y1.6969
X0.8022Y1.6093
X0.8022Y0.8898
X0.8022Y0.8022
X0.8031Y3.7386
X0.8031Y3.7134
X0.8031Y2.9315
X0.8031Y2.9063
X0.8031Y2.1244
X0.8031Y2.0992
X0.8031Y1.3173
X0.8031Y1.2921
X0.8079Y3.6107
X0.8079Y3.565
X0.8079Y2.8036
X0.8079Y2.7579
X0.8079Y1.9966
X0.8079Y1.9508
X0.8079Y1.1895
X0.8079Y1.1437
X0.8169Y3.8878
X0.8303Y3.2667
X0.8303Y2.4596
X0.8303Y1.6526
X0.8303Y0.8455
X0.8386Y3.4144
X0.8386Y2.6073
X0.8386Y1.8002
X0.8386Y0.9931
X0.8563Y3.8484
X0.8575Y3.7874
X0.8575Y2.9803
X0.8575Y2.1732
X0.8575Y1.3661
X0.8576Y3.0671
X0.8576Y2.26
X0.8576Y1.453
X0.8576Y0.6459
X0.8612Y3.223
X0.8612Y2.4159
X0.8612Y1.6089
X0.8612Y0.8018
X0.8616Y3.5367
X0.8616Y2.7296
X0.8616Y1.9225
X0.8616Y1.1154
X0.8622Y3.7384
X0.8622Y3.7132
X0.8622Y2.9313
X0.8622Y2.9061
X0.8622Y2.1242
X0.8622Y2.099
X0.8622Y1.3171
X0.8622Y1.2919
X0.8632Y3.311
X0.8632Y2.5039
X0.8632Y1.6969
X0.8632Y0.8898
X0.8707Y3.6112
X0.8707Y2.8041
X0.8707Y1.997
X0.8707Y1.19
X0.874Y3.6693
X0.874Y2.8622
X0.874Y2.0551
X0.874Y1.248
X0.8878Y3.4921
X0.8878Y2.685
X0.8878Y1.878
X0.8878Y1.0709
X0.8937Y3.3976
X0.8937Y2.5906
X0.8937Y1.7835
X0.8937Y0.9764
X0.8947Y3.7284
X0.8947Y2.9213
X0.8947Y2.1142
X0.8947Y1.3071
X0.8957Y3.8878
X0.9008Y3.5272
X0.9008Y2.7201
X0.9008Y1.913
X0.9008Y1.1059
X0.9067Y3.7874
X0.9067Y2.9803
X0.9067Y2.1732
X0.9067Y1.3661
X0.9068Y3.0671
X0.9068Y2.26
X0.9068Y1.453
X0.9068Y0.6459
X0.9087Y3.1235
X0.9087Y2.3164
X0.9087Y1.5094
X0.9087Y0.7023
X0.9102Y3.3106
X0.9102Y2.5035
X0.9102Y1.6965
X0.9102Y0.8894
X0.9124Y3.6693
X0.9124Y2.8622
X0.9124Y2.0551
X0.9124Y1.248
X0.9173Y3.6114
X0.9173Y2.8043
X0.9173Y1.9972
X0.9173Y1.1902
X0.9203Y3.2234
X0.9203Y2.4163
X0.9203Y1.6093
X0.9203Y0.8022
X0.9281Y3.7284
X0.9281Y2.9213
X0.9281Y2.1142
X0.9281Y1.3071
X0.9291Y3.1693
X0.9291Y2.3622
X0.9291Y1.5551
X0.9291Y0.748
X0.9335Y3.5887
X0.9335Y2.7816
X0.9335Y1.9745
X0.9335Y1.1674
X0.935Y3.8484
X0.9469Y3.6656
X0.9469Y2.8585
X0.9469Y2.0514
X0.9469Y1.2443
X0.9476Y3.4689
X0.9476Y2.6618
X0.9476Y1.8547
X0.9476Y1.0476
X0.9528Y3.4909
X0.9528Y2.6839
X0.9528Y1.8768
X0.9528Y1.0697
X0.9535Y3.5276
X0.9535Y2.7205
X0.9535Y1.9134
X0.9535Y1.1063
X0.9559Y3.7874
X0.9559Y2.9803
X0.9559Y2.1732
X0.9559Y1.3661
X0.956Y3.0671
X0.956Y2.26
X0.956Y1.453
X0.956Y0.6459
X0.9677Y3.2977
X0.9677Y3.2101
X0.9677Y3.1235
X0.9677Y2.4906
X0.9677Y2.4031
X0.9677Y2.3164
X0.9677Y1.6836
X0.9677Y1.596
X0.9677Y1.5094
X0.9677Y0.8765
X0.9677Y0.7889
X0.9677Y0.7023
X0.9724Y3.6915
X0.9724Y2.8844
X0.9724Y2.0774
X0.9724Y1.2703
X0.9744Y3.8878
X0.9793Y3.7284
X0.9793Y2.9213
X0.9793Y2.1142
X0.9793Y1.3071
X0.9965Y3.5327
X0.9965Y2.7256
X0.9965Y1.9185
X0.9965Y1.1114
X0.9984Y3.6161
X0.9984Y2.8091
X0.9984Y2.002
X0.9984Y1.1949
X0.9992Y3.6659
X0.9992Y2.8589
X0.9992Y2.0518
X0.9992Y1.2447
X1.0138Y3.8484
X1.0268Y3.2977
X1.0268Y3.2101
X1.0268Y3.1235
X1.0268Y2.4906
X1.0268Y2.4031
X1.0268Y2.3164
X1.0268Y1.6836
X1.0268Y1.596
X1.0268Y1.5094
X1.0268Y0.8765
X1.0268Y0.7889
X1.0268Y0.7023
X1.0394Y3.7276
X1.0394Y2.9205
X1.0394Y2.1134
X1.0394Y1.3063
X1.0437Y3.6685
X1.0437Y2.8614
X1.0437Y2.0543
X1.0437Y1.2472
X1.0451Y3.6161
X1.0451Y2.8091
X1.0451Y2.002
X1.0451Y1.1949
X1.0457Y3.5327
X1.0457Y2.7256
X1.0457Y1.9185
X1.0457Y1.1114
X1.0461Y3.4035
X1.0461Y2.5965
X1.0461Y1.7894
X1.0461Y0.9823
X1.0512Y3.4614
X1.0512Y2.6543
X1.0512Y1.8472
X1.0512Y1.0402
X1.0531Y3.8878
X1.0573Y3.2544
X1.0573Y2.4473
X1.0573Y1.6403
X1.0573Y0.8332
X1.065Y3.7535
X1.065Y2.9465
X1.065Y2.1394
X1.065Y1.3323
X1.0858Y3.2977
X1.0858Y3.2101
X1.0858Y3.1235
X1.0858Y2.4906
X1.0858Y2.4031
X1.0858Y2.3164
X1.0858Y1.6836
X1.0858Y1.596
X1.0858Y1.5094
X1.0858Y0.8765
X1.0858Y0.7889
X1.0858Y0.7023
X1.0917Y3.728
X1.0917Y3.6685
X1.0917Y3.6161
X1.0917Y2.9209
X1.0917Y2.8614
X1.0917Y2.8091
X1.0917Y2.1138
X1.0917Y2.0543
X1.0917Y2.002
X1.0917Y1.3067
X1.0917Y1.2472
X1.0917Y1.1949
X1.0925Y3.8484
X1.0937Y3.7874
X1.0937Y2.9803
X1.0937Y2.1732
X1.0937Y1.3661
X1.0938Y3.0671
X1.0938Y2.26
X1.0938Y1.453
X1.0938Y0.6459
X1.1138Y3.5858
X1.1138Y2.7787
X1.1138Y1.9717
X1.1138Y1.1646
X1.1163Y3.2544
X1.1163Y2.4473
X1.1163Y1.6403
X1.1163Y0.8332
X1.1173Y3.7512
X1.1173Y2.9441
X1.1173Y2.137
X1.1173Y1.3299
X1.1268Y3.3913
X1.1268Y2.5843
X1.1268Y1.7772
X1.1268Y0.9701
X1.1311Y3.4622
X1.1311Y2.6551
X1.1311Y1.848
X1.1311Y1.0409
X1.1319Y3.8878
X1.1358Y3.6685
X1.1358Y3.6161
X1.1358Y2.8614
X1.1358Y2.8091
X1.1358Y2.0543
X1.1358Y2.002
X1.1358Y1.2472
X1.1358Y1.1949
X1.1366Y3.5309
X1.1366Y2.7238
X1.1366Y1.9167
X1.1366Y1.1096
X1.1411Y3.3573
X1.1411Y3.3179
X1.1411Y2.5502
X1.1411Y2.5108
X1.1411Y1.7431
X1.1411Y1.7037
X1.1411Y0.936
X1.1411Y0.8967
X1.1429Y3.7874
X1.1429Y2.9803
X1.1429Y2.1732
X1.1429Y1.3661
X1.143Y3.0671
X1.143Y2.26
X1.143Y1.453
X1.143Y0.6459
X1.1449Y3.2101
X1.1449Y3.1235
X1.1449Y2.4031
X1.1449Y2.3164
X1.1449Y1.596
X1.1449Y1.5094
X1.1449Y0.7889
X1.1449Y0.7023
X1.1555Y3.7535
X1.1555Y2.9465
X1.1555Y2.1394
X1.1555Y1.3323
X1.1713Y3.8484
X1.1799Y3.6685
X1.1799Y3.6161
X1.1799Y3.5309
X1.1799Y2.8614
X1.1799Y2.8091
X1.1799Y2.7238
X1.1799Y2.0543
X1.1799Y2.002
X1.1799Y1.9167
X1.1799Y1.2472
X1.1799Y1.1949
X1.1799Y1.1096
X1.1807Y3.4661
X1.1807Y2.6591
X1.1807Y1.852
X1.1807Y1.0449
X1.1811Y3.728
X1.1811Y2.9209
X1.1811Y2.1138
X1.1811Y1.3067
X1.1921Y3.7874
X1.1921Y2.9803
X1.1921Y2.1732
X1.1921Y1.3661
X1.1922Y3.0671
X1.1922Y2.26
X1.1922Y1.453
X1.1922Y0.6459
X1.1937Y3.3957
X1.1937Y2.5886
X1.1937Y1.7815
X1.1937Y0.9744
X1.1939Y3.435
X1.1939Y2.628
X1.1939Y1.8209
X1.1939Y1.0138
X1.2008Y3.3051
X1.2008Y2.498
X1.2008Y1.6909
X1.2008Y0.8839
X1.2018Y3.6417
X1.2018Y2.8346
X1.2018Y2.0276
X1.2018Y1.2205
X1.2039Y3.2101
X1.2039Y3.1235
X1.2039Y2.4031
X1.2039Y2.3164
X1.2039Y1.596
X1.2039Y1.5094
X1.2039Y0.7889
X1.2039Y0.7023
X1.2055Y3.5839
X1.2055Y3.5579
X1.2055Y2.7768
X1.2055Y2.7508
X1.2055Y1.9697
X1.2055Y1.9437
X1.2055Y1.1626
X1.2055Y1.1366
X1.2106Y3.8878
X1.2134Y3.5113
X1.2134Y2.7042
X1.2134Y1.8971
X1.2134Y1.0901
X1.2244Y3.6683
X1.2244Y2.8612
X1.2244Y2.0541
X1.2244Y1.247
X1.2331Y3.6094
X1.2331Y3.5323
X1.2331Y2.8024
X1.2331Y2.7252
X1.2331Y1.9953
X1.2331Y1.9181
X1.2331Y1.1882
X1.2331Y1.111
X1.2439Y3.3056
X1.2439Y2.4985
X1.2439Y1.6914
X1.2439Y0.8844
X1.2461Y3.404
X1.2461Y2.5969
X1.2461Y1.7899
X1.2461Y0.9828
X1.2463Y3.6415
X1.2463Y2.8344
X1.2463Y2.0274
X1.2463Y1.2203
X1.25Y3.8484
X1.2591Y3.6094
X1.2591Y3.5323
X1.2591Y2.8024
X1.2591Y2.7252
X1.2591Y1.9953
X1.2591Y1.9181
X1.2591Y1.1882
X1.2591Y1.111
X1.2634Y3.4348
X1.2634Y2.6277
X1.2634Y1.8206
X1.2634Y1.0136
X1.264Y3.3745
X1.264Y2.5674
X1.264Y1.7603
X1.264Y0.9532
X1.2667Y3.2106
X1.2667Y3.1235
X1.2667Y2.4035
X1.2667Y2.3164
X1.2667Y1.5965
X1.2667Y1.5094
X1.2667Y0.7894
X1.2667Y0.7023
X1.2689Y3.6681
X1.2689Y2.861
X1.2689Y2.0539
X1.2689Y1.2469
X1.2776Y3.4909
X1.2776Y2.6839
X1.2776Y1.8768
X1.2776Y1.0697
X1.2866Y3.5839
X1.2866Y3.5579
X1.2866Y2.7768
X1.2866Y2.7508
X1.2866Y1.9697
X1.2866Y1.9437
X1.2866Y1.1626
X1.2866Y1.1366
X1.2894Y3.8878
X1.2894Y3.4701
X1.2894Y2.663
X1.2894Y1.8559
X1.2894Y1.0488
X1.3047Y3.748
X1.3047Y3.6988
X1.3047Y3.6496
X1.3047Y3.6055
X1.3047Y3.502
X1.3047Y2.9409
X1.3047Y2.8917
X1.3047Y2.8425
X1.3047Y2.7984
X1.3047Y2.6949
X1.3047Y2.1339
X1.3047Y2.0846
X1.3047Y2.0354
X1.3047Y1.9913
X1.3047Y1.8878
X1.3047Y1.3268
X1.3047Y1.2776
X1.3047Y1.2283
X1.3047Y1.1843
X1.3047Y1.0807
X1.3047Y3.1698
X1.3047Y2.3627
X1.3047Y1.5556
X1.3047Y0.7485
X1.3047Y3.5374
X1.3047Y2.7303
X1.3047Y1.9232
X1.3047Y1.1161
X1.3248Y3.2254
X1.3248Y2.4183
X1.3248Y1.6112
X1.3248Y0.8041
X1.3287Y3.8484
X1.3299Y3.7874
X1.3299Y2.9803
X1.3299Y2.1732
X1.3299Y1.3661
X1.33Y3.0671
X1.33Y2.26
X1.33Y1.453
X1.33Y0.6459
X1.3553Y3.7205
X1.3553Y2.9134
X1.3553Y2.1063
X1.3553Y1.2992
X1.356Y3.6818
X1.356Y2.8747
X1.356Y2.0676
X1.356Y1.2605
X1.3642Y3.2648
X1.3642Y2.4577
X1.3642Y1.6506
X1.3642Y0.8435
X1.3681Y3.8878
X1.378Y3.436
X1.378Y2.6289
X1.378Y1.8219
X1.378Y1.0148
X1.378Y3.3421
X1.378Y2.535
X1.378Y1.728
X1.378Y0.9209
X1.3791Y3.7874
X1.3791Y2.9803
X1.3791Y2.1732
X1.3791Y1.3661
X1.3792Y3.0671
X1.3792Y2.26
X1.3792Y1.453
X1.3792Y0.6459
X1.3819Y3.747
X1.3819Y2.94
X1.3819Y2.1329
X1.3819Y1.3258
X1.4075Y3.8484
X1.4183Y3.747
X1.4183Y2.94
X1.4183Y2.1329
X1.4183Y1.3258
X1.4283Y3.7874
X1.4283Y2.9803
X1.4283Y2.1732
X1.4283Y1.3661
X1.4284Y3.0671
X1.4284Y2.26
X1.4284Y1.453
X1.4284Y0.6459
X1.437Y3.1998
X1.437Y3.1634
X1.437Y2.3927
X1.437Y2.3563
X1.437Y1.5856
X1.437Y1.5492
X1.437Y0.7785
X1.437Y0.7421
X1.4432Y3.7205
X1.4432Y2.9134
X1.4432Y2.1063
X1.4432Y1.2992
X1.4439Y3.5059
X1.4439Y2.6988
X1.4439Y1.8917
X1.4439Y1.0846
X1.4468Y3.8878
X1.4528Y3.56
X1.4528Y2.753
X1.4528Y1.9459
X1.4528Y1.1388
X1.4596Y3.4675
X1.4596Y2.6604
X1.4596Y1.8533
X1.4596Y1.0463
X1.4626Y3.2776
X1.4626Y3.25
X1.4626Y2.4705
X1.4626Y2.4429
X1.4626Y1.6634
X1.4626Y1.6358
X1.4626Y0.8563
X1.4626Y0.8287
X1.4754Y3.7392
X1.4754Y2.9321
X1.4754Y2.125
X1.4754Y1.3179
X1.4862Y3.8484
X1.4961Y3.6604
X1.4961Y3.6132
X1.4961Y2.8533
X1.4961Y2.8061
X1.4961Y2.0463
X1.4961Y1.999
X1.4961Y1.2392
X1.4961Y1.1919
X1.5177Y3.5197
X1.5177Y2.7126
X1.5177Y1.9055
X1.5177Y1.0984
X1.5187Y3.4085
X1.5187Y3.2913
X1.5187Y2.6014
X1.5187Y2.4843
X1.5187Y1.7943
X1.5187Y1.6772
X1.5187Y0.9872
X1.5187Y0.8701
X1.5197Y3.6368
X1.5197Y2.8297
X1.5197Y2.0226
X1.5197Y1.2156
X1.5216Y3.5463
X1.5216Y2.7392
X1.5216Y1.9322
X1.5216Y1.1251
X1.5256Y3.8878
X1.5335Y3.4843
X1.5335Y2.6772
X1.5335Y1.8701
X1.5335Y1.063
X1.5413Y3.5069
X1.5413Y2.6998
X1.5413Y1.8927
X1.5413Y1.0856
X1.5433Y3.6604
X1.5433Y3.6132
X1.5433Y2.8533
X1.5433Y2.8061
X1.5433Y2.0463
X1.5433Y1.999
X1.5433Y1.2392
X1.5433Y1.1919
X1.5463Y3.2018
X1.5463Y2.3947
X1.5463Y1.5876
X1.5463Y0.7805
X1.5581Y3.4085
X1.5581Y2.6014
X1.5581Y1.7943
X1.5581Y0.9872
X1.5635Y3.7876
X1.5635Y2.9805
X1.5635Y2.1734
X1.5635Y1.3663
X1.5636Y3.0669
X1.5636Y2.2598
X1.5636Y1.4528
X1.5636Y0.6457
X1.564Y3.7392
X1.564Y2.9321
X1.564Y2.125
X1.564Y1.3179
X1.565Y3.8484
X1.5758Y3.56
X1.5758Y2.753
X1.5758Y1.9459
X1.5758Y1.1388
X1.5962Y3.7205
X1.5962Y2.9134
X1.5962Y2.1063
X1.5962Y1.2992
X1.5965Y3.5778
X1.5965Y2.7707
X1.5965Y1.9636
X1.5965Y1.1565
X1.6014Y3.627
X1.6014Y2.8199
X1.6014Y2.0128
X1.6014Y1.2057
X1.6043Y3.8878
X1.6147Y3.7876
X1.6147Y2.9805
X1.6147Y2.1734
X1.6147Y1.3663
X1.6147Y3.0669
X1.6147Y2.2598
X1.6147Y1.4528
X1.6147Y0.6457
X1.6171Y3.2461
X1.6171Y2.439
X1.6171Y1.6319
X1.6171Y0.8248
X1.6181Y3.1772
X1.6181Y2.3701
X1.6181Y1.563
X1.6181Y0.7559
X1.6211Y3.747
X1.6211Y2.94
X1.6211Y2.1329
X1.6211Y1.3258
X1.6417Y3.2343
X1.6417Y2.4272
X1.6417Y1.6201
X1.6417Y0.813
X1.6437Y3.8484
X1.6575Y3.747
X1.6575Y2.94
X1.6575Y2.1329
X1.6575Y1.3258
X1.6604Y3.5069
X1.6604Y3.2992
X1.6604Y2.6998
X1.6604Y2.4921
X1.6604Y1.8927
X1.6604Y1.685
X1.6604Y1.0856
X1.6604Y0.878
X1.6659Y3.7876
X1.6659Y2.9805
X1.6659Y2.1734
X1.6659Y1.3663
X1.6659Y3.0669
X1.6659Y2.2598
X1.6659Y1.4528
X1.6659Y0.6457
X1.6831Y3.8878
X1.6834Y3.6818
X1.6834Y2.8747
X1.6834Y2.0676
X1.6834Y1.2605
X1.6841Y3.7205
X1.6841Y2.9134
X1.6841Y2.1063
X1.6841Y1.2992
X1.686Y3.6565
X1.686Y2.8494
X1.686Y2.0423
X1.686Y1.2352
X1.7169Y3.4862
X1.7169Y3.4272
X1.7169Y3.378
X1.7169Y2.6693
X1.7169Y2.6201
X1.7169Y2.5709
X1.7169Y1.8622
X1.7169Y1.813
X1.7169Y1.7638
X1.7169Y1.0551
X1.7169Y1.0059
X1.7169Y0.9567
X1.717Y3.7876
X1.717Y3.7286
X1.717Y3.6841
X1.717Y2.9805
X1.717Y2.9215
X1.717Y2.877
X1.717Y2.1734
X1.717Y2.1144
X1.717Y2.0699
X1.717Y1.3663
X1.717Y1.3073
X1.717Y1.2628
X1.7171Y3.2441
X1.7171Y3.185
X1.7171Y3.126
X1.7171Y3.0669
X1.7171Y2.437
X1.7171Y2.378
X1.7171Y2.3189
X1.7171Y2.2598
X1.7171Y1.6299
X1.7171Y1.5709
X1.7171Y1.5118
X1.7171Y1.4528
X1.7171Y0.8287
X1.7171Y0.7638
X1.7171Y0.7047
X1.7171Y0.6457
X1.7224Y3.8484
X1.7372Y0.8839
X1.7608Y3.3937
X1.7608Y3.3346
X1.7608Y3.2756
X1.7608Y3.2165
X1.7608Y3.1575
X1.7608Y3.1063
X1.7608Y3.0295
X1.7608Y2.5768
X1.7608Y2.498
X1.7608Y2.4193
X1.7608Y2.3406
X1.7608Y2.2618
X1.7608Y1.7776
X1.7608Y1.6988
X1.7608Y1.6201
X1.7608Y1.5413
X1.7608Y1.4626
X1.7618Y3.8878
X1.7628Y3.5915
X1.7628Y3.5522
X1.7628Y3.5217
X1.7628Y2.7844
X1.7628Y2.7451
X1.7628Y2.7146
X1.7628Y1.9774
X1.7628Y1.938
X1.7628Y1.9075
X1.7628Y1.1703
X1.7628Y1.1309
X1.7628Y1.1004
X1.7638Y3.7923
X1.7638Y3.7589
X1.7638Y3.7215
X1.7638Y3.6841
X1.7638Y3.4921
X1.7638Y2.9892
X1.7638Y2.9518
X1.7638Y2.9144
X1.7638Y2.877
X1.7638Y2.685
X1.7638Y2.1821
X1.7638Y2.1447
X1.7638Y2.1073
X1.7638Y2.0699
X1.7638Y1.878
X1.7638Y1.375
X1.7638Y1.3376
X1.7638Y1.3002
X1.7638Y1.2628
X1.7638Y1.0709
X1.7683Y0.6457
X1.7766Y0.9232
X1.7766Y0.8445
X1.7766Y0.7933
X1.7766Y0.7421
X1.7864Y2.6161
X1.7864Y2.5374
X1.7864Y2.4587
X1.7864Y2.3799
X1.7864Y2.3012
X1.7864Y1.7382
X1.7864Y1.6594
X1.7864Y1.5807
X1.7864Y1.502
X1.7933Y0.4961
X1.7933Y0.4449
X1.7933Y0.3937
X1.7939Y0.6063
X1.8012Y3.8484
X1.8081Y0.876
X1.8195Y0.6457
X1.8223Y3.3465
X1.8223Y3.248
X1.8223Y3.189
X1.8228Y3.4583
X1.8228Y2.6512
X1.8228Y1.8441
X1.8228Y1.037
X1.8238Y3.1063
X1.8238Y3.0295
X1.8258Y3.6014
X1.8258Y3.562
X1.8258Y3.5226
X1.8258Y2.7943
X1.8258Y2.7549
X1.8258Y2.7156
X1.8258Y2.5768
X1.8258Y2.498
X1.8258Y2.4193
X1.8258Y2.3406
X1.8258Y2.2618
X1.8258Y1.9872
X1.8258Y1.9478
X1.8258Y1.9085
X1.8258Y1.7776
X1.8258Y1.6988
X1.8258Y1.6201
X1.8258Y1.5413
X1.8258Y1.4626
X1.8258Y1.1801
X1.8258Y1.1407
X1.8258Y1.1014
X1.8258Y0.7283
X1.8327Y0.5659
X1.8356Y0.9026
X1.8366Y0.3563
X1.8366Y0.3169
X1.8405Y3.8878
X1.8451Y0.6063
X1.8461Y3.4488
X1.8461Y2.6417
X1.8461Y1.8346
X1.8461Y1.0276
X1.8474Y0.5217
X1.8474Y0.4705
X1.8514Y0.6663
X1.8642Y3.3081
X1.8652Y3.6014
X1.8652Y3.562
X1.8652Y3.5226
X1.8652Y3.0689
X1.8652Y2.7943
X1.8652Y2.7549
X1.8652Y2.7156
X1.8652Y2.5374
X1.8652Y2.4587
X1.8652Y2.3799
X1.8652Y2.3012
X1.8652Y1.9872
X1.8652Y1.9478
X1.8652Y1.9085
X1.8652Y1.7382
X1.8652Y1.6594
X1.8652Y1.5807
X1.8652Y1.502
X1.8652Y1.4232
X1.8652Y1.1801
X1.8652Y1.1407
X1.8652Y1.1014
X1.8701Y0.9026
X1.8707Y0.6457
X1.876Y0.3563
X1.876Y0.3169
X1.8799Y3.8484
X1.8843Y3.4488
X1.8843Y2.6417
X1.8843Y1.8346
X1.8843Y1.0276
X1.8898Y0.7136
X1.8962Y0.6063
X1.9026Y0.9026
X1.9035Y3.3313
X1.9035Y3.3081
X1.9045Y3.7815
X1.9045Y3.749
X1.9045Y3.6014
X1.9045Y3.562
X1.9045Y3.5226
X1.9045Y3.1063
X1.9045Y3.0295
X1.9045Y2.9665
X1.9045Y2.9429
X1.9045Y2.7943
X1.9045Y2.7549
X1.9045Y2.7156
X1.9045Y2.5709
X1.9045Y2.498
X1.9045Y2.4193
X1.9045Y2.3406
X1.9045Y2.25
X1.9045Y2.1673
X1.9045Y2.1358
X1.9045Y1.9872
X1.9045Y1.9478
X1.9045Y1.9085
X1.9045Y1.6988
X1.9045Y1.6201
X1.9045Y1.5413
X1.9045Y1.4626
X1.9045Y1.3839
X1.9045Y1.3563
X1.9045Y1.3307
X1.9045Y1.1801
X1.9045Y1.1407
X1.9045Y1.1014
X1.9055Y3.2165
X1.9055Y3.185
X1.9055Y3.1526
X1.9098Y0.8579
X1.9144Y3.4144
X1.9144Y2.6073
X1.9144Y1.8002
X1.9144Y0.9931
X1.9154Y0.3169
X1.9193Y3.8878
X1.9218Y0.6457
X1.9242Y3.6654
X1.9242Y2.8583
X1.9242Y2.0512
X1.9242Y1.2441
X1.9307Y3.3081
X1.9321Y0.6998
X1.9341Y0.9232
X1.9449Y0.3563
X1.9474Y0.6063
X1.9508Y3.4134
X1.9508Y2.6063
X1.9508Y1.7992
X1.9508Y0.9921
X1.9573Y3.3081
X1.9587Y3.8484
X1.9626Y0.7648
X1.9705Y3.6634
X1.9705Y2.8563
X1.9705Y2.0492
X1.9705Y1.2421
X1.9707Y3.5739
X1.9707Y2.7669
X1.9707Y1.9598
X1.9707Y1.1527
X1.9715Y3.5514
X1.9715Y2.7443
X1.9715Y1.9372
X1.9715Y1.1301
X1.9734Y0.9232
X1.9744Y0.3169
X1.9774Y3.3081
X1.9803Y3.7205
X1.9803Y2.9134
X1.9803Y2.1063
X1.9803Y1.2992
X1.9817Y3.5164
X1.9817Y2.7093
X1.9817Y1.9022
X1.9817Y1.0951
X1.9911Y3.3819
X1.9911Y3.1457
X1.9911Y3.0669
X1.9911Y2.9882
X1.9911Y2.5709
X1.9911Y2.4941
X1.9911Y2.4154
X1.9911Y2.3366
X1.9911Y2.2579
X1.9911Y2.1791
X1.9911Y1.7067
X1.9911Y1.628
X1.9911Y1.5492
X1.9911Y1.4705
X1.9911Y1.3917
X1.9961Y0.8455
X1.9961Y0.8199
X1.9961Y0.7884
X1.9961Y0.7628
X1.998Y3.8878
X2.0039Y0.3563
X2.0128Y0.9232
X2.0217Y0.8455
X2.0217Y0.8199
X2.0217Y0.7884
X2.0217Y0.7628
X2.0335Y0.3169
X2.0374Y3.8484
X2.0522Y3.2638
X2.0522Y3.185
X2.0522Y3.1063
X2.0522Y3.0276
X2.0522Y2.9488
X2.0522Y2.4764
X2.0522Y2.3976
X2.0522Y2.3189
X2.0522Y2.2402
X2.0522Y2.1614
X2.0522Y2.0827
X2.0522Y1.7677
X2.0522Y1.689
X2.0522Y1.6102
X2.0522Y1.5315
X2.0522Y1.4528
X2.0522Y1.374
X2.0522Y1.2953
X2.0522Y0.9232
X2.0531Y0.6874
X2.0531Y0.6634
X2.0531Y0.8455
X2.0531Y0.8199
X2.0622Y3.6424
X2.0622Y2.8353
X2.0622Y2.788
X2.0622Y2.0282
X2.0622Y1.2211
X2.063Y3.4783
X2.063Y2.7185
X2.063Y2.6713
X2.063Y1.8642
X2.063Y1.0571
X2.063Y0.3563
X2.0662Y3.5951
X2.0662Y1.981
X2.0662Y1.1739
X2.0669Y3.5256
X2.0669Y1.9114
X2.0669Y1.1043
X2.0768Y3.8091
X2.0768Y3.8878
X2.0886Y0.6634
X2.0915Y3.6969
X2.0915Y3.6181
X2.0915Y3.4606
X2.0915Y3.3819
X2.0915Y3.3031
X2.0915Y3.2244
X2.0915Y3.1457
X2.0915Y3.0669
X2.0915Y2.9882
X2.0915Y2.5157
X2.0915Y2.437
X2.0915Y2.3583
X2.0915Y2.2795
X2.0915Y2.2008
X2.0915Y2.122
X2.0915Y2.0433
X2.0915Y1.8858
X2.0915Y1.8071
X2.0915Y1.7283
X2.0915Y1.6496
X2.0915Y1.5709
X2.0915Y1.4921
X2.0915Y1.4134
X2.0915Y1.3346
X2.0915Y1.2559
X2.0915Y1.0197
X2.0915Y0.9232
X2.0925Y0.3169
X2.0984Y0.8455
X2.0984Y0.8199
X2.0994Y2.6732
X2.1063Y3.5128
X2.1077Y1.1087
X2.1161Y3.8484
X2.122Y0.6476
X2.122Y0.6083
X2.122Y0.5689
X2.122Y0.5295
X2.122Y0.3563
X2.123Y1.2165
X2.127Y2.6339
X2.127Y2.0039
X2.1309Y3.6575
X2.1309Y3.4213
X2.1309Y3.3425
X2.1309Y3.2638
X2.1309Y3.185
X2.1309Y3.1063
X2.1309Y3.0276
X2.1309Y2.5551
X2.1309Y2.4764
X2.1309Y2.3976
X2.1309Y2.3189
X2.1309Y2.2402
X2.1309Y2.1614
X2.1309Y2.0827
X2.1309Y1.8465
X2.1309Y1.7677
X2.1309Y1.689
X2.1309Y1.6102
X2.1309Y1.5315
X2.1309Y1.4528
X2.1309Y1.374
X2.1309Y1.2953
X2.1309Y1.0591
X2.1309Y0.9803
X2.1309Y0.9232
X2.1348Y3.5827
X2.1388Y2.7126
X2.1388Y1.9252
X2.1388Y1.1378
X2.1516Y0.3169
X2.1555Y3.8091
X2.1555Y3.8878
X2.1624Y1.2559
X2.1663Y2.6732
X2.1663Y2.0433
X2.1703Y3.6969
X2.1703Y3.6181
X2.1703Y3.3819
X2.1703Y3.3031
X2.1703Y3.2244
X2.1703Y3.1457
X2.1703Y3.0669
X2.1703Y2.5157
X2.1703Y2.437
X2.1703Y2.122
X2.1703Y1.8858
X2.1703Y1.8071
X2.1703Y1.7283
X2.1703Y1.6496
X2.1703Y1.5709
X2.1703Y1.4921
X2.1703Y1.4134
X2.1703Y1.3346
X2.1703Y1.0984
X2.1703Y1.0197
X2.1703Y0.9232
X2.1703Y0.8839
X2.1703Y0.687
X2.1703Y0.6083
X2.1781Y2.752
X2.1781Y1.9646
X2.1781Y1.1772
X2.1941Y0.7181
X2.1949Y3.8484
X2.2018Y1.2953
X2.2057Y2.7126
X2.2096Y3.6575
X2.2096Y3.5787
X2.2096Y3.3425
X2.2096Y3.2638
X2.2096Y3.185
X2.2096Y3.1063
X2.2096Y3.0276
X2.2096Y1.9252
X2.2096Y1.8465
X2.2096Y1.7677
X2.2096Y1.689
X2.2096Y1.6102
X2.2096Y1.5315
X2.2096Y1.4528
X2.2096Y1.374
X2.2096Y1.1378
X2.2096Y1.0591
X2.2096Y0.9803
X2.2096Y0.8839
X2.2096Y0.6476
X2.2175Y2.7913
X2.2175Y2.0039
X2.2175Y1.2165
X2.2303Y0.5217
X2.2335Y0.7181
X2.2343Y3.8091
X2.2343Y3.8878
X2.2411Y1.3346
X2.2451Y2.752
X2.249Y3.6969
X2.249Y3.6181
X2.249Y3.5394
X2.249Y3.3031
X2.249Y3.2244
X2.249Y3.1457
X2.249Y3.0669
X2.249Y2.9882
X2.249Y2.5157
X2.249Y2.437
X2.249Y2.122
X2.249Y2.0433
X2.249Y1.9646
X2.249Y1.8858
X2.249Y1.8071
X2.249Y1.7283
X2.249Y1.6496
X2.249Y1.5709
X2.249Y1.4921
X2.249Y1.4134
X2.249Y1.1772
X2.249Y1.0984
X2.249Y1.0197
X2.249Y0.9232
X2.249Y0.8839
X2.249Y0.687
X2.249Y0.439
X2.2559Y0.628
X2.2569Y2.8307
X2.2569Y2.6732
X2.2569Y1.2559
X2.2728Y0.7181
X2.2736Y3.8484
X2.2805Y1.374
X2.2844Y2.7913
X2.2844Y2.6339
X2.2884Y3.6575
X2.2884Y3.5787
X2.2884Y3.5
X2.2884Y3.2638
X2.2884Y3.185
X2.2884Y2.5551
X2.2884Y2.4764
X2.2884Y2.3976
X2.2884Y2.3189
X2.2884Y2.2402
X2.2884Y2.1614
X2.2884Y2.0827
X2.2884Y2.0039
X2.2884Y1.9252
X2.2884Y1.8465
X2.2884Y1.7677
X2.2884Y1.689
X2.2884Y1.6102
X2.2884Y1.5315
X2.2884Y1.4528
X2.2884Y1.2165
X2.2884Y1.1378
X2.2884Y1.0591
X2.2884Y0.9803
X2.2884Y0.8839
X2.2884Y0.6476
X2.2963Y2.8701
X2.2963Y2.7126
X2.2963Y1.2953
X2.3091Y0.3543
X2.3122Y0.7181
X2.313Y3.8091
X2.313Y3.8878
X2.3199Y1.4134
X2.3238Y2.8307
X2.3238Y2.6732
X2.3238Y0.6122
X2.3278Y3.6969
X2.3278Y3.6181
X2.3278Y3.5394
X2.3278Y3.4606
X2.3278Y3.2244
X2.3278Y2.5157
X2.3278Y2.437
X2.3278Y2.3583
X2.3278Y2.2795
X2.3278Y2.2008
X2.3278Y2.122
X2.3278Y2.0433
X2.3278Y1.9646
X2.3278Y1.8858
X2.3278Y1.8071
X2.3278Y1.7283
X2.3278Y1.6496
X2.3278Y1.5709
X2.3278Y1.4921
X2.3278Y1.2559
X2.3278Y1.0197
X2.3278Y0.9232
X2.3278Y0.8839
X2.3278Y0.687
X2.3287Y3.0669
X2.3287Y2.9882
X2.3287Y2.9262
X2.3337Y0.5492
X2.3337Y0.4941
X2.3337Y0.439
X2.3337Y0.3839
X2.3356Y2.752
X2.3356Y1.3346
X2.3516Y0.7181
X2.3524Y3.8484
X2.3563Y3.1457
X2.3632Y2.7126
X2.3632Y0.6516
X2.3671Y3.6575
X2.3671Y3.5787
X2.3671Y3.5
X2.3671Y3.4213
X2.3671Y3.2638
X2.3671Y1.2953
X2.3671Y1.2244
X2.3671Y1.0512
X2.3671Y0.9803
X2.3671Y0.8839
X2.375Y3.3425
X2.375Y2.7913
X2.375Y1.374
X2.3917Y3.8091
X2.3917Y3.8878
X2.3957Y3.185
X2.4026Y2.752
X2.4026Y0.6909
X2.4026Y0.5433
X2.4065Y3.6969
X2.4065Y3.6181
X2.4065Y3.5394
X2.4065Y3.4606
X2.4065Y3.3819
X2.4065Y2.5157
X2.4065Y2.437
X2.4065Y2.3583
X2.4065Y2.2795
X2.4065Y2.2008
X2.4065Y2.122
X2.4065Y2.0433
X2.4065Y1.9646
X2.4065Y1.8858
X2.4065Y1.8071
X2.4065Y1.7283
X2.4065Y1.6496
X2.4065Y1.5709
X2.4065Y1.4921
X2.4065Y1.4134
X2.4065Y1.3346
X2.4065Y1.2559
X2.4065Y1.0197
X2.4065Y0.9232
X2.4065Y0.8839
X2.4065Y0.8445
X2.4065Y0.7657
X2.4075Y3.0669
X2.4075Y2.9882
X2.4075Y2.9134
X2.4075Y2.8238
X2.4144Y2.6732
X2.4144Y0.6043
X2.4311Y3.8484
X2.4321Y0.9803
X2.435Y3.2244
X2.4419Y0.7303
X2.4419Y0.439
X2.4419Y0.3839
X2.4439Y0.563
X2.4459Y3.6575
X2.4459Y3.5787
X2.4459Y3.5
X2.4459Y3.4213
X2.4459Y3.3425
X2.4459Y1.2165
X2.4459Y1.0591
X2.4459Y0.8839
X2.4459Y0.8051
X2.4469Y0.3287
X2.4537Y2.7126
X2.4537Y0.6437
X2.4626Y3.1457
X2.4697Y2.1803
X2.4705Y3.8091
X2.4705Y3.8878
X2.4715Y2.4065
X2.4715Y2.3671
X2.4715Y1.0197
X2.4766Y2.2756
X2.4813Y2.3425
X2.4813Y2.2057
X2.4813Y0.7697
X2.4833Y3.4587
X2.4833Y0.6024
X2.4843Y1.2766
X2.4852Y3.6969
X2.4852Y3.6181
X2.4852Y3.5394
X2.4852Y3.3819
X2.4852Y1.5443
X2.4852Y1.4715
X2.4852Y1.4459
X2.4852Y1.2352
X2.4852Y1.1772
X2.4852Y1.0984
X2.4852Y0.9232
X2.4852Y0.8445
X2.4862Y3.0669
X2.4907Y1.8366
X2.4907Y1.8071
X2.4907Y1.7776
X2.4931Y2.9291
X2.4931Y2.8671
X2.4931Y2.752
X2.4931Y0.6831
X2.4951Y2.5591
X2.4951Y2.5335
X2.497Y2.124
X2.5012Y1.739
X2.5069Y1.4301
X2.5071Y2.2904
X2.5071Y2.2608
X2.5098Y3.8484
X2.5108Y1.0591
X2.5156Y3.4665
X2.5157Y1.3081
X2.5177Y2.2057
X2.52Y1.6732
X2.5207Y2.5591
X2.5207Y2.5335
X2.5207Y1.1998
X2.5207Y0.8091
X2.5207Y0.4941
X2.5207Y0.439
X2.5207Y0.3839
X2.5226Y0.6417
X2.5246Y3.6575
X2.5246Y3.5787
X2.5246Y3.4213
X2.5246Y3.3425
X2.5246Y1.1378
X2.5246Y0.9626
X2.5246Y0.8839
X2.5266Y2.124
X2.5276Y2.4813
X2.5276Y2.4577
X2.5325Y1.4301
X2.5325Y0.7224
X2.5374Y2.2756
X2.5384Y2.623
X2.5411Y3.4665
X2.5413Y3.6988
X2.5423Y0.563
X2.5453Y0.3169
X2.5492Y3.8091
X2.5492Y3.8878
X2.5502Y1.0984
X2.551Y2.9301
X2.551Y2.9065
X2.551Y2.8829
X2.551Y2.8593
X2.5537Y2.7913
X2.5561Y2.124
X2.56Y0.8484
X2.562Y1.7402
X2.562Y1.7087
X2.562Y1.6772
X2.562Y0.6811
X2.564Y3.6181
X2.564Y2.1654
X2.564Y1.002
X2.564Y0.9232
X2.5657Y1.1955
X2.5667Y3.6988
X2.5679Y0.3839
X2.5681Y2.2904
X2.5681Y2.2608
X2.5699Y0.4843
X2.5699Y0.439
X2.5718Y3.1063
X2.5718Y3.0669
X2.5718Y3.0276
X2.5719Y0.7618
X2.5807Y1.4843
X2.5809Y1.4114
X2.5809Y1.3173
X2.5817Y0.6024
X2.5846Y3.4224
X2.5856Y2.124
X2.5886Y3.8484
X2.5896Y1.1378
X2.5923Y3.6988
X2.5925Y3.5492
X2.5933Y1.3449
X2.5972Y1.227
X2.5986Y2.2756
X2.5994Y0.8878
X2.6014Y2.0886
X2.6014Y0.7205
X2.6016Y1.9744
X2.6033Y3.6575
X2.6033Y3.5787
X2.6033Y3.3425
X2.6033Y0.9626
X2.6063Y1.8071
X2.6073Y0.5531
X2.6098Y1.9469
X2.6112Y0.8012
X2.6114Y1.4262
X2.6114Y1.3967
X2.615Y2.9504
X2.6161Y2.7539
X2.6171Y1.0463
X2.6181Y3.6988
X2.6189Y1.8366
X2.6189Y1.7776
X2.6209Y3.4224
X2.6211Y0.6417
X2.6215Y1.6673
X2.622Y1.3437
X2.627Y3.1063
X2.627Y3.0669
X2.627Y3.0276
X2.628Y3.8091
X2.628Y3.8878
X2.6297Y1.6398
X2.6309Y1.8071
X2.6358Y2.4705
X2.6358Y2.4486
X2.6362Y2.687
X2.6362Y2.5591
X2.6362Y2.4953
X2.6368Y1.0266
X2.6388Y0.9272
X2.6388Y0.4843
X2.6388Y0.439
X2.6388Y0.3839
X2.6407Y0.7598
X2.6417Y1.4114
X2.6427Y1.002
X2.6437Y0.3287
X2.6467Y0.5925
X2.6473Y3.5882
X2.6506Y0.8406
X2.6535Y2.1604
X2.6555Y2.623
X2.6555Y2.5295
X2.6577Y2.2756
X2.6604Y0.6811
X2.6633Y2.9124
X2.6633Y2.877
X2.6673Y3.8484
X2.6691Y3.6988
X2.6691Y3.4665
X2.6724Y1.4262
X2.6724Y1.3967
X2.6732Y1.2766
X2.6732Y1.251
X2.6748Y2.687
X2.6748Y2.5591
X2.6752Y1.937
X2.6752Y1.9055
X2.6752Y1.874
X2.6772Y2.5108
X2.6781Y0.9665
X2.6783Y2.4002
X2.6801Y0.7992
X2.6821Y3.4213
X2.6821Y3.3425
X2.686Y0.6319
X2.69Y0.8799
X2.6987Y2.9124
X2.6987Y2.877
X2.6988Y1.2766
X2.6988Y1.251
X2.6998Y0.7205
X2.7018Y3.6969
X2.7018Y3.5787
X2.7018Y3.5197
X2.7018Y3.4606
X2.702Y2.4002
X2.7039Y1.4114
X2.7057Y1.061
X2.7067Y3.8091
X2.7067Y3.8878
X2.7175Y0.5413
X2.7175Y0.4843
X2.7175Y0.439
X2.7175Y0.3839
X2.7177Y1.536
X2.7195Y0.8386
X2.7217Y2.3278
X2.7217Y2.2756
X2.7217Y2.2175
X2.7234Y1.0118
X2.7234Y0.3287
X2.7254Y0.6713
X2.7293Y0.9193
X2.7297Y2.375
X2.7297Y2.3514
X2.7303Y2.7913
X2.7352Y3.1457
X2.7352Y3.1063
X2.7352Y3.0669
X2.7352Y3.0276
X2.7366Y1.8858
X2.7392Y2.4744
X2.7392Y0.7598
X2.7411Y3.7205
X2.7415Y3.4224
X2.7451Y0.5925
X2.7461Y3.8484
X2.7465Y1.8366
X2.7465Y1.8071
X2.7465Y1.7776
X2.747Y2.9504
X2.747Y2.1043
X2.7472Y1.536
X2.7589Y0.878
X2.7608Y3.5758
X2.7608Y3.3425
X2.762Y1.4114
X2.7628Y1.0512
X2.7638Y2.4272
X2.7648Y1.1102
X2.7648Y0.7106
X2.7657Y1.2933
X2.7696Y2.9301
X2.7696Y2.9065
X2.7696Y2.8829
X2.7696Y2.8593
X2.7722Y2.7913
X2.7746Y0.9646
X2.7749Y1.1715
X2.7766Y0.5413
X2.7768Y1.536
X2.7778Y3.4224
X2.7785Y0.7992
X2.7805Y3.5502
X2.7815Y2.6535
X2.7815Y2.628
X2.7844Y0.6319
X2.7854Y3.8091
X2.7854Y3.8878
X2.7903Y3.1457
X2.7903Y3.1063
X2.7903Y3.0669
X2.7903Y3.0276
X2.7917Y2.5594
X2.7923Y2.5325
X2.7923Y2.422
X2.7927Y2.5065
X2.7927Y2.3961
X2.7929Y2.1035
X2.7933Y2.3701
X2.7963Y0.439
X2.7963Y0.3839
X2.7992Y1.9734
X2.8002Y3.4675
X2.8008Y1.9512
X2.8012Y0.3287
X2.8036Y1.1715
X2.8041Y0.75
X2.8063Y1.536
X2.8071Y2.6535
X2.8071Y2.628
X2.8071Y0.9252
X2.814Y1.0039
X2.815Y0.8356
X2.8159Y0.5807
X2.8199Y3.5984
X2.822Y1.4636
X2.822Y1.4114
X2.822Y1.3593
X2.8238Y0.6713
X2.8246Y1.1715
X2.8248Y3.8484
X2.8335Y2.9504
X2.8346Y2.7539
X2.8396Y3.4213
X2.8396Y3.3425
X2.8435Y0.9626
X2.8435Y0.7894
X2.8455Y3.1457
X2.8455Y3.1063
X2.8455Y3.0669
X2.8455Y3.0276
X2.8455Y1.0039
X2.8459Y1.026
X2.8482Y2.2314
X2.8533Y1.5955
X2.8533Y1.1715
X2.8553Y0.6201
X2.8593Y3.6683
X2.8593Y3.562
X2.8608Y1.0409
X2.861Y2.2148
X2.8632Y0.876
X2.8632Y0.7106
X2.8642Y3.8091
X2.8642Y3.8878
X2.8675Y1.0617
X2.875Y0.5413
X2.875Y0.439
X2.875Y0.3839
X2.8789Y3.6969
X2.8789Y3.6181
X2.8789Y3.5394
X2.8789Y3.3819
X2.8789Y2.5846
X2.8809Y0.3287
X2.8818Y2.9124
X2.8818Y2.877
X2.8822Y2.2148
X2.8823Y1.1715
X2.8898Y1.6476
X2.8947Y0.8386
X2.8947Y0.6594
X2.8959Y2.2314
X2.8967Y2.0502
X2.8967Y1.9451
X2.8986Y3.2244
X2.8986Y0.4892
X2.9026Y0.75
X2.9033Y1.1715
X2.9035Y3.8484
X2.9087Y2.2148
X2.9116Y0.9451
X2.9124Y1.3524
X2.9124Y1.3258
X2.9134Y1.2628
X2.9144Y0.5807
X2.9172Y2.9124
X2.9172Y2.877
X2.9179Y1.0053
X2.9183Y3.7362
X2.9183Y3.6575
X2.9183Y3.5787
X2.9183Y3.5
X2.9183Y3.4213
X2.9183Y3.3425
X2.92Y2.503
X2.92Y2.4242
X2.92Y2.3455
X2.9247Y1.026
X2.9299Y2.2148
X2.9321Y1.1715
X2.9331Y0.877
X2.9341Y0.6988
X2.938Y0.5285
X2.9395Y1.0409
X2.9419Y3.7967
X2.9419Y1.626
X2.9429Y3.8878
X2.9435Y2.2314
X2.9439Y1.9996
X2.9463Y1.0617
X2.9488Y2.7913
X2.9498Y2.5846
X2.9524Y3.6098
X2.9537Y3.2244
X2.9537Y3.185
X2.9537Y3.1457
X2.9537Y3.1063
X2.9537Y3.0669
X2.9537Y3.0276
X2.9537Y0.6201
X2.9537Y0.439
X2.9537Y0.3839
X2.9547Y0.7776
X2.9564Y2.2148
X2.9577Y3.3819
X2.9587Y0.3287
X2.9594Y2.4636
X2.9594Y2.3848
X2.9611Y1.1715
X2.9655Y2.9504
X2.9675Y3.7967
X2.9685Y2.7087
X2.9695Y1.309
X2.9774Y0.5679
X2.9775Y2.2148
X2.9821Y1.1715
X2.9823Y3.8484
X2.9843Y0.748
X2.9881Y2.9301
X2.9881Y2.9065
X2.9881Y2.8829
X2.9881Y2.8593
X2.9886Y3.5581
X2.9908Y2.7913
X2.9911Y2.0502
X2.9911Y1.9451
X2.9912Y2.2314
X2.9931Y0.6594
X2.9951Y0.94
X2.9967Y1.0053
X2.997Y3.4213
X2.997Y3.3425
X2.9987Y2.503
X2.9987Y2.4242
X2.9987Y2.3455
X2.999Y3.7967
X3.0Y0.8474
X3.0034Y1.026
X3.0079Y3.6535
X3.0079Y3.589
X3.0089Y3.2244
X3.0089Y3.185
X3.0089Y3.1457
X3.0089Y3.1063
X3.0089Y3.0669
X3.0089Y3.0276
X3.0089Y2.6378
X3.0089Y2.5846
X3.0108Y1.1715
X3.0161Y3.7122
X3.0183Y1.0409
X3.0205Y1.7913
X3.0207Y1.6299
X3.0217Y3.8878
X3.0217Y0.6112
X3.0223Y1.4746
X3.0223Y1.5061
X3.0224Y1.4418
X3.0224Y1.8512
X3.0224Y1.3473
X3.0224Y1.3158
X3.0246Y3.7967
X3.025Y1.0617
X3.0272Y3.6213
X3.0272Y3.5581
X3.0325Y0.4941
X3.0325Y0.439
X3.0325Y0.3839
X3.0364Y3.3819
X3.0381Y2.4636
X3.0381Y2.3848
X3.0384Y0.3287
X3.0398Y1.1715
X3.0472Y3.774
X3.0472Y3.7484
X3.0472Y2.7087
X3.052Y2.9504
X3.0523Y1.3484
X3.0527Y1.3799
X3.0528Y1.6937
X3.0531Y2.7539
X3.0531Y1.6309
X3.0531Y1.4114
X3.0531Y0.5443
X3.0538Y1.5061
X3.0538Y1.4746
X3.0543Y1.4429
X3.0571Y0.3632
X3.0608Y1.1715
X3.061Y3.8484
X3.061Y3.6846
X3.0618Y2.1157
X3.064Y3.185
X3.064Y3.1457
X3.064Y3.1063
X3.064Y3.0669
X3.064Y3.0276
X3.0679Y2.5846
X3.0699Y2.0502
X3.0699Y1.8937
X3.0699Y1.8563
X3.0738Y0.94
X3.0754Y1.0053
X3.0758Y3.3425
X3.0775Y2.503
X3.0775Y2.3455
X3.0787Y0.3228
X3.0806Y3.774
X3.0806Y3.7484
X3.0821Y1.026
X3.0827Y1.7904
X3.0837Y0.7598
X3.0839Y1.6945
X3.0846Y1.7579
X3.0846Y1.7264
X3.0846Y1.6315
X3.0846Y1.5059
X3.0846Y1.411
X3.0846Y0.8484
X3.085Y1.3795
X3.0853Y1.3172
X3.0858Y1.5657
X3.0862Y3.4213
X3.0866Y1.2862
X3.0896Y1.1715
X3.0915Y2.0472
X3.0925Y0.5837
X3.0935Y2.4193
X3.097Y1.0409
X3.1003Y2.9124
X3.1003Y2.877
X3.1004Y3.8878
X3.1004Y0.5413
X3.1004Y0.4626
X3.1004Y0.3839
X3.1032Y3.7967
X3.1037Y1.0617
X3.1146Y1.7894
X3.115Y1.3487
X3.115Y1.5347
X3.1152Y3.6673
X3.1152Y3.6181
X3.1152Y3.5394
X3.1152Y3.3819
X3.1154Y1.5659
X3.1154Y1.4429
X3.1156Y1.3799
X3.1157Y1.5996
X3.1161Y1.7579
X3.1161Y1.7264
X3.1161Y1.6945
X3.1161Y1.6329
X3.1161Y1.5059
X3.1161Y1.4114
X3.1168Y1.4746
X3.1169Y1.8209
X3.1171Y3.2638
X3.1186Y1.1715
X3.1191Y1.9124
X3.1225Y3.7118
X3.1288Y3.7967
X3.1292Y3.4711
X3.1292Y3.4455
X3.1299Y2.5787
X3.1357Y2.9124
X3.1357Y2.877
X3.1396Y1.1715
X3.1398Y3.8484
X3.1465Y1.3486
X3.1469Y1.5693
X3.1469Y1.3799
X3.1472Y1.6949
X3.1476Y1.7904
X3.1476Y1.7264
X3.1476Y1.6634
X3.1476Y1.632
X3.1476Y1.537
X3.1479Y1.6024
X3.148Y1.5055
X3.1481Y1.474
X3.1483Y1.411
X3.1483Y1.3172
X3.1483Y1.4425
X3.1496Y1.2862
X3.1519Y3.4228
X3.1541Y1.0053
X3.1545Y3.5
X3.1545Y3.3425
X3.1555Y2.5787
X3.1594Y2.4744
X3.1594Y2.4518
X3.1596Y2.4118
X3.1603Y3.7967
X3.1609Y1.026
X3.161Y2.148
X3.1673Y2.7913
X3.1683Y1.1715
X3.1683Y0.75
X3.1688Y2.3364
X3.1688Y2.3152
X3.1722Y3.185
X3.1722Y3.1457
X3.1722Y3.1063
X3.1722Y3.0669
X3.1722Y3.0276
X3.1722Y3.2638
X3.1722Y3.2244
X3.1722Y0.9252
X3.1757Y1.0409
X3.1762Y0.8425
X3.177Y0.6398
X3.1772Y2.6427
X3.1773Y2.1328
X3.1775Y3.4228
X3.1779Y1.7576
X3.1784Y1.6949
X3.1786Y1.3799
X3.1787Y1.3484
X3.1789Y1.6309
X3.1791Y3.8878
X3.1791Y1.726
X3.1791Y1.6622
X3.1791Y1.5995
X3.1791Y1.5679
X3.1798Y1.4114
X3.1799Y1.5061
X3.1825Y1.0617
X3.184Y2.9504
X3.1859Y3.7967
X3.1873Y2.3053
X3.1909Y2.3364
X3.1939Y3.5394
X3.1939Y3.3819
X3.1973Y1.1721
X3.2028Y2.6427
X3.206Y2.315
X3.2066Y2.9301
X3.2066Y2.9065
X3.2066Y2.8829
X3.2066Y2.8593
X3.2079Y1.35
X3.2087Y0.6996
X3.209Y3.4228
X3.2093Y2.7913
X3.2099Y1.3801
X3.2106Y1.7579
X3.2106Y1.726
X3.2106Y1.6945
X3.2106Y1.663
X3.2106Y1.5994
X3.2106Y1.5679
X3.2106Y1.4748
X3.2113Y1.4116
X3.2113Y1.3172
X3.2114Y1.5059
X3.2126Y1.2862
X3.2156Y0.7972
X3.2183Y1.1721
X3.2185Y3.8484
X3.2229Y3.7742
X3.2264Y1.8563
X3.2271Y2.315
X3.2274Y3.2244
X3.2274Y3.185
X3.2274Y3.1457
X3.2274Y3.1063
X3.2274Y3.0669
X3.2274Y3.0276
X3.2313Y0.8917
X3.2333Y3.3425
X3.2343Y2.6427
X3.2345Y3.4228
X3.2402Y1.0413
X3.2402Y0.99
X3.2415Y1.6622
X3.2416Y1.3803
X3.2416Y1.3491
X3.2421Y1.7574
X3.2421Y1.7264
X3.2421Y1.6945
X3.2421Y1.5679
X3.2421Y1.5364
X3.2425Y1.5051
X3.2426Y1.7889
X3.2428Y1.4116
X3.2451Y2.378
X3.247Y2.561
X3.248Y2.4449
X3.2489Y2.315
X3.2551Y1.1991
X3.2579Y3.8878
X3.2589Y0.75
X3.2592Y3.7742
X3.2598Y2.6427
X3.2622Y3.8091
X3.2705Y2.9504
X3.2716Y2.7539
X3.2721Y1.1721
X3.2726Y3.6819
X3.2726Y3.6181
X3.2726Y3.5394
X3.2726Y3.4606
X3.2726Y3.3819
X3.2726Y3.3031
X3.2726Y0.7008
X3.273Y1.3787
X3.2736Y1.5049
X3.2736Y1.6634
X3.2736Y1.6309
X3.2738Y1.5685
X3.274Y1.5369
X3.2741Y1.4424
X3.2746Y1.411
X3.2756Y1.3504
X3.2766Y2.3632
X3.2766Y2.3268
X3.2766Y2.2982
X3.2785Y2.3907
X3.2825Y3.185
X3.2825Y3.1457
X3.2825Y3.1063
X3.2825Y3.0669
X3.2825Y3.0276
X3.2931Y1.1721
X3.2972Y3.8484
X3.2972Y2.5384
X3.2982Y2.4675
X3.3039Y1.7882
X3.3039Y1.7539
X3.3041Y2.2982
X3.3045Y1.3472
X3.3045Y1.3157
X3.3047Y1.8217
X3.305Y1.6308
X3.3051Y1.6949
X3.3051Y1.5679
X3.3051Y1.5059
X3.3051Y1.4744
X3.3056Y1.3801
X3.312Y3.7362
X3.312Y3.6575
X3.312Y3.5787
X3.312Y3.5
X3.312Y3.4213
X3.312Y3.3425
X3.312Y3.2638
X3.3188Y2.9124
X3.3188Y2.877
X3.3189Y1.0413
X3.3189Y0.9882
X3.3219Y1.1721
X3.3219Y0.75
X3.324Y2.2037
X3.324Y2.1565
X3.324Y2.1093
X3.324Y2.062
X3.324Y2.0148
X3.3268Y2.4822
X3.3268Y2.4547
X3.3268Y2.4252
X3.3268Y1.9675
X3.3291Y2.5925
X3.3291Y2.5335
X3.3297Y2.6388
X3.3317Y2.2982
X3.3356Y0.9173
X3.3358Y1.756
X3.336Y1.7882
X3.3366Y3.8091
X3.3366Y3.8878
X3.3366Y1.6949
X3.3366Y1.6309
X3.3366Y1.5679
X3.3366Y1.5049
X3.3366Y1.3169
X3.3381Y1.862
X3.3415Y0.7008
X3.3445Y1.8878
X3.3466Y1.1721
X3.3514Y3.5394
X3.3514Y3.4606
X3.3514Y3.374
X3.3514Y3.3031
X3.3514Y3.2244
X3.3542Y2.9124
X3.3542Y2.877
X3.3553Y3.6687
X3.3553Y3.6431
X3.3572Y1.8708
X3.3593Y2.2982
X3.3673Y1.4425
X3.3675Y1.7882
X3.3675Y1.7567
X3.3676Y1.1721
X3.3677Y1.3161
X3.3681Y1.348
X3.3681Y1.6949
X3.3681Y1.6634
X3.3681Y1.6309
X3.3681Y1.5689
X3.3681Y1.5049
X3.3684Y1.379
X3.3686Y1.5369
X3.376Y3.8484
X3.3787Y3.6906
X3.3799Y2.69
X3.3858Y2.7913
X3.3896Y1.8701
X3.3898Y2.2815
X3.3898Y0.75
X3.3898Y0.7008
X3.3907Y3.3346
X3.3907Y3.2638
X3.3907Y3.185
X3.3907Y3.1457
X3.3907Y3.1063
X3.3907Y3.0669
X3.3907Y3.0276
X3.3937Y1.0413
X3.3937Y0.9882
X3.3963Y1.1721
X3.3986Y1.8512
X3.399Y1.8197
X3.399Y1.7882
X3.399Y1.7567
X3.399Y1.7252
X3.3996Y1.6309
X3.3996Y1.5049
X3.3996Y1.4425
X3.4016Y1.9675
X3.4025Y2.9504
X3.4094Y1.8799
X3.4106Y3.4535
X3.4106Y3.424
X3.4106Y3.3945
X3.4106Y3.365
X3.4106Y3.5394
X3.4106Y3.5102
X3.4118Y3.7642
X3.4154Y3.8091
X3.4154Y3.8878
X3.4214Y1.1721
X3.4215Y2.5512
X3.4215Y2.4646
X3.4215Y2.378
X3.4252Y2.9144
X3.4252Y2.875
X3.4301Y3.3031
X3.4301Y3.2244
X3.4301Y2.752
X3.4301Y2.6732
X3.4305Y1.8197
X3.4305Y1.7882
X3.4305Y1.7567
X3.4305Y1.7252
X3.4306Y1.5369
X3.4307Y1.6945
X3.4309Y1.8741
X3.4311Y1.6626
X3.4311Y1.6309
X3.4315Y1.6008
X3.4315Y1.4421
X3.4317Y1.5055
X3.4319Y1.5673
X3.439Y2.6476
X3.439Y2.2825
X3.44Y1.9685
X3.4424Y1.1721
X3.4547Y3.8484
X3.4614Y3.686
X3.4618Y1.6941
X3.462Y1.8197
X3.462Y1.7882
X3.462Y1.7567
X3.462Y1.7252
X3.4622Y1.3169
X3.4626Y1.4425
X3.4626Y1.411
X3.4626Y1.348
X3.463Y1.6315
X3.463Y1.3797
X3.4632Y1.6003
X3.4636Y1.5387
X3.4642Y1.5059
X3.4648Y2.5079
X3.4648Y2.4213
X3.4695Y3.3346
X3.4695Y3.2638
X3.4695Y3.185
X3.4695Y3.1063
X3.4695Y3.0276
X3.4695Y2.9488
X3.4695Y2.8701
X3.4695Y2.7913
X3.4695Y2.7126
X3.4705Y1.8819
X3.4711Y1.1721
X3.4736Y3.6608
X3.4736Y3.6372
X3.4736Y3.6136
X3.4823Y3.588
X3.4843Y3.0876
X3.4843Y3.0482
X3.4843Y3.0089
X3.4843Y2.9685
X3.4843Y2.9291
X3.4843Y2.8898
X3.4843Y2.8504
X3.4882Y2.6457
X3.4935Y1.8197
X3.4935Y1.7882
X3.4935Y1.7567
X3.4935Y1.6937
X3.4937Y3.7642
X3.4937Y1.2846
X3.4941Y3.8091
X3.4941Y3.8878
X3.4941Y1.7254
X3.4945Y2.2037
X3.4945Y2.1565
X3.4945Y2.1093
X3.4945Y2.062
X3.4945Y2.0148
X3.4945Y1.6309
X3.4945Y1.5996
X3.4945Y1.4427
X3.4949Y1.5356
X3.498Y2.2825
X3.4999Y1.0531
X3.5Y3.4484
X3.5Y3.4213
X3.5069Y1.1722
X3.5081Y2.5512
X3.5081Y2.4646
X3.5081Y2.378
X3.5089Y3.3031
X3.5089Y3.2244
X3.5089Y3.1457
X3.5089Y2.752
X3.5098Y3.0669
X3.5098Y2.9882
X3.5098Y2.9094
X3.5098Y2.8307
X3.5187Y3.7287
X3.5187Y3.7031
X3.5218Y1.0531
X3.5226Y0.7509
X3.5248Y1.7882
X3.5249Y1.8205
X3.5249Y1.6941
X3.5252Y1.5051
X3.5252Y1.6624
X3.5256Y1.4425
X3.526Y1.6311
X3.5264Y1.5366
X3.5272Y1.8531
X3.5275Y1.5999
X3.5335Y3.8484
X3.5384Y3.5102
X3.5415Y3.5713
X3.5415Y3.5457
X3.5428Y1.0531
X3.5453Y2.6496
X3.5472Y2.2825
X3.5482Y3.4213
X3.5482Y3.3346
X3.5482Y3.2638
X3.5482Y3.185
X3.5482Y3.1063
X3.5482Y3.0276
X3.5482Y2.9488
X3.5482Y2.8701
X3.5482Y2.7913
X3.5512Y1.9675
X3.5515Y2.5079
X3.5515Y2.4213
X3.5563Y1.7882
X3.5563Y1.6953
X3.5564Y1.7265
X3.5564Y1.8205
X3.5567Y1.3791
X3.5571Y1.348
X3.5571Y1.3165
X3.5571Y1.8535
X3.5571Y1.6621
X3.5573Y1.5049
X3.5574Y1.442
X3.5579Y1.6307
X3.5591Y0.7982
X3.5607Y1.5981
X3.562Y0.7509
X3.5646Y1.0531
X3.5681Y3.3941
X3.5681Y3.3646
X3.5709Y3.6142
X3.5728Y3.8091
X3.5728Y3.8878
X3.5752Y3.7039
X3.5758Y2.6486
X3.5856Y1.7877
X3.5856Y1.7283
X3.5866Y2.2825
X3.5876Y3.5394
X3.5876Y3.4606
X3.5876Y3.3031
X3.5876Y3.2244
X3.5876Y3.1457
X3.5876Y3.0669
X3.5876Y2.9882
X3.5876Y2.9094
X3.5876Y2.8307
X3.5876Y2.752
X3.5886Y1.9675
X3.5886Y1.6621
X3.5894Y1.6953
X3.5894Y1.6295
X3.5915Y1.0886
X3.5948Y2.5512
X3.5948Y2.4646
X3.5948Y2.378
X3.5978Y2.6484
X3.6033Y0.9094
X3.6073Y1.8888
X3.611Y1.6624
X3.6122Y3.8484
X3.6181Y0.7982
X3.6184Y1.0532
X3.6201Y2.648
X3.6211Y0.9528
X3.6237Y1.124
X3.627Y3.7756
X3.627Y3.6575
X3.627Y3.3425
X3.627Y3.2638
X3.627Y3.185
X3.627Y3.1063
X3.627Y3.0276
X3.627Y2.9488
X3.627Y2.8701
X3.627Y2.7913
X3.6315Y1.8103
X3.6358Y2.2825
X3.6403Y1.0532
X3.6413Y0.7509
X3.6418Y1.8286
X3.6437Y2.6486
X3.6447Y1.5896
X3.6467Y3.5472
X3.6467Y3.4951
X3.6467Y3.4429
X3.6506Y1.0886
X3.6516Y3.8091
X3.6516Y3.8878
X3.6585Y1.9677
X3.6613Y1.0532
X3.6614Y1.8361
X3.6614Y1.8105
X3.6624Y3.3705
X3.665Y2.2037
X3.665Y2.1565
X3.665Y2.1093
X3.665Y2.062
X3.665Y2.0148
X3.6663Y3.3031
X3.6663Y3.2244
X3.6663Y3.1457
X3.6663Y3.0669
X3.6663Y2.9882
X3.6663Y2.9094
X3.6663Y2.8307
X3.6663Y2.752
X3.6663Y0.8622
X3.6683Y1.4419
X3.6689Y1.5713
X3.6689Y1.5418
X3.6689Y1.5123
X3.6762Y0.7982
X3.6772Y1.8577
X3.6793Y1.4813
X3.6798Y0.7509
X3.6827Y1.124
X3.6831Y1.0532
X3.687Y1.4222
X3.69Y2.376
X3.6909Y3.8484
X3.6909Y2.4941
X3.6909Y2.4547
X3.6919Y3.3705
X3.6929Y1.9675
X3.6949Y1.6998
X3.7008Y3.6173
X3.7028Y1.8577
X3.7057Y3.7756
X3.7057Y3.3425
X3.7057Y3.2638
X3.7057Y3.185
X3.7057Y3.1063
X3.7057Y3.0276
X3.7057Y2.9488
X3.7057Y2.8701
X3.7057Y2.7126
X3.7057Y0.9016
X3.7067Y3.4951
X3.7096Y1.0886
X3.7106Y1.2539
X3.7185Y1.6998
X3.7215Y3.3705
X3.7303Y3.8091
X3.7303Y3.8878
X3.7333Y2.501
X3.7362Y0.7982
X3.7366Y1.0531
X3.7392Y0.9528
X3.7402Y1.4734
X3.7402Y1.4419
X3.7402Y1.4104
X3.7402Y1.1969
X3.7418Y1.124
X3.7451Y3.3031
X3.7451Y3.2244
X3.7451Y2.9094
X3.7451Y2.6732
X3.7461Y1.7111
X3.751Y3.3705
X3.752Y2.5187
X3.7579Y1.8799
X3.7584Y1.0531
X3.7589Y1.9675
X3.7608Y0.8661
X3.7638Y1.2205
X3.7657Y3.4951
X3.7687Y1.0886
X3.7697Y3.8484
X3.7726Y2.4163
X3.7736Y3.6425
X3.7736Y2.4547
X3.7776Y2.5896
X3.7787Y1.7111
X3.7794Y1.0531
X3.7795Y2.3563
X3.7805Y1.8799
X3.7844Y3.7756
X3.7844Y3.2638
X3.7844Y3.185
X3.7844Y2.8701
X3.7844Y2.7126
X3.7844Y2.6339
X3.7844Y1.5418
X3.787Y1.6835
X3.7874Y1.1969
X3.7904Y1.4075
X3.7963Y3.5098
X3.7963Y3.4803
X3.7972Y1.5713
X3.7972Y1.5123
X3.8002Y0.9055
X3.8008Y1.124
X3.8012Y1.0531
X3.8091Y3.8091
X3.8091Y3.8878
X3.81Y1.5418
X3.811Y1.2205
X3.814Y1.3799
X3.8238Y3.3031
X3.8238Y3.2244
X3.8238Y2.9094
X3.8238Y2.8307
X3.8238Y2.752
X3.8238Y2.6732
X3.8248Y1.8366
X3.826Y0.7537
X3.827Y3.4951
X3.8278Y1.0886
X3.8317Y2.2994
X3.8346Y1.1969
X3.8356Y2.4626
X3.8358Y2.2037
X3.8358Y2.1565
X3.8358Y2.1093
X3.8358Y2.062
X3.8358Y2.0148
X3.8396Y2.5315
X3.8465Y3.5659
X3.8484Y3.8484
X3.8494Y1.3799
X3.8514Y2.6457
X3.8524Y2.3445
X3.8533Y2.3996
X3.8543Y1.6756
X3.8543Y1.6422
X3.8543Y1.6087
X3.8547Y1.0531
X3.8573Y3.5098
X3.8573Y3.4803
X3.8573Y0.9528
X3.8583Y1.2205
X3.8585Y3.3376
X3.8599Y1.124
X3.8632Y3.7756
X3.8632Y3.2638
X3.8632Y3.185
X3.8632Y2.8701
X3.8632Y2.7913
X3.8632Y2.7126
X3.8652Y0.7943
X3.8661Y3.4283
X3.873Y1.8344
X3.8765Y1.0531
X3.8809Y2.3435
X3.8819Y1.1969
X3.8868Y1.0886
X3.8878Y3.8091
X3.8878Y3.8878
X3.8878Y3.4951
X3.8878Y3.4026
X3.8878Y3.3632
X3.8898Y3.5896
X3.8907Y2.685
X3.8967Y0.8297
X3.8967Y0.751
X3.8975Y1.0531
X3.9026Y3.5394
X3.9026Y3.3031
X3.9026Y3.2244
X3.9026Y2.9094
X3.9026Y2.8307
X3.9026Y2.752
X3.9035Y1.6083
X3.9055Y1.2205
X3.9134Y2.1083
X3.919Y1.124
X3.9194Y1.0531
X3.9256Y1.5713
X3.9256Y1.5418
X3.9256Y1.5123
X3.9341Y2.563
X3.936Y0.8691
X3.936Y0.7943
X3.9419Y3.5787
X3.9419Y3.5
X3.9419Y3.4213
X3.9419Y3.3425
X3.9419Y3.2638
X3.9419Y3.185
X3.9419Y2.9488
X3.9419Y2.8701
X3.9419Y2.7913
X3.9419Y2.7126
X3.9459Y1.0886
X3.9528Y2.1454
X3.9528Y2.1203
X3.9528Y2.0982
X3.9528Y2.0731
X3.9547Y1.3494
X3.9665Y3.8878
X3.9686Y0.7528
X3.9705Y2.25
X3.9715Y1.4764
X3.9716Y2.1565
X3.9716Y2.1093
X3.9716Y2.062
X3.9719Y3.2909
X3.9719Y3.2673
X3.9719Y3.2437
X3.9724Y3.1703
X3.9728Y1.0532
X3.9734Y2.6024
X3.9754Y0.9528
X3.9754Y0.9085
X3.9754Y0.8297
X3.9774Y2.5197
X3.978Y1.124
X3.9813Y3.4606
X3.9813Y3.3819
X3.9813Y3.1457
X3.9813Y3.0669
X3.9813Y2.9882
X3.9813Y2.9094
X3.9813Y2.6732
X3.9813Y2.437
X3.9813Y1.1624
X3.9823Y3.7244
X3.9873Y1.5151
X3.9902Y2.1925
X3.9902Y2.1674
X3.9902Y2.0509
X3.9902Y2.0259
X3.9921Y1.6772
X3.9931Y1.8396
X3.9942Y1.0531
X3.9955Y3.2909
X4.0Y1.565
X4.001Y1.374
X4.001Y1.3248
X4.001Y1.2756
X4.0069Y2.2894
X4.009Y2.2036
X4.009Y2.1564
X4.009Y2.062
X4.009Y2.0148
X4.0091Y1.5151
X4.0148Y0.9478
X4.0148Y0.8691
X4.0152Y1.0531
X4.0167Y2.5591
X4.0207Y3.1063
X4.0207Y3.0276
X4.0207Y2.9488
X4.0207Y2.8701
X4.0207Y2.6339
X4.0207Y2.4764
X4.0207Y2.3976
X4.0266Y0.7943
X4.0276Y2.2398
X4.0276Y2.2147
X4.0276Y2.0037
X4.0276Y1.9786
X4.0302Y1.5151
X4.0354Y0.751
X4.0375Y1.0532
X4.0413Y1.5896
X4.0453Y3.8878
X4.0463Y1.365
X4.0464Y2.2508
X4.0464Y2.2036
X4.0464Y2.0148
X4.0464Y1.9675
X4.0472Y3.6467
X4.0472Y3.6073
X4.0472Y3.5679
X4.0472Y3.5285
X4.0492Y1.6772
X4.0503Y2.1093
X4.052Y1.5151
X4.0541Y0.9085
X4.0561Y2.5984
X4.0561Y2.3504
X4.06Y3.1457
X4.06Y3.0669
X4.06Y2.9882
X4.06Y2.9094
X4.06Y2.6732
X4.06Y2.5157
X4.06Y2.437
X4.0603Y1.3817
X4.0659Y0.8337
X4.0669Y3.5079
X4.0669Y3.4803
X4.0738Y0.7904
X4.0814Y1.3817
X4.0935Y0.9478
X4.0935Y0.751
X4.0954Y1.365
X4.0955Y2.6378
X4.0965Y1.9872
X4.0994Y3.1063
X4.0994Y3.0276
X4.0994Y2.9488
X4.0994Y2.7126
X4.0994Y2.5551
X4.0994Y2.4764
X4.0994Y2.3976
X4.0994Y2.2508
X4.0994Y2.1614
X4.1018Y3.4669
X4.1018Y3.4354
X4.1018Y3.4039
X4.1043Y1.315
X4.1053Y1.5896
X4.1053Y0.873
X4.1063Y1.6772
X4.1132Y1.8612
X4.1132Y0.8297
X4.123Y1.5069
X4.124Y3.8878
X4.125Y1.3543
X4.125Y1.2756
X4.1309Y3.3957
X4.1309Y3.3563
X4.1309Y3.3169
X4.1309Y3.2776
X4.1309Y3.2382
X4.1309Y3.1457
X4.1329Y0.7904
X4.1343Y1.0512
X4.1348Y3.0669
X4.1348Y2.9882
X4.1348Y2.9094
X4.1348Y2.6772
X4.1358Y3.7244
X4.1388Y2.752
X4.1388Y2.5945
X4.1388Y2.5157
X4.1388Y2.437
X4.1388Y2.3583
X4.1388Y2.2795
X4.1407Y2.1122
X4.1447Y0.9124
X4.1526Y0.8691
X4.1526Y0.751
X4.1575Y1.7972
X4.1634Y1.6772
X4.1634Y0.9606
X4.1682Y1.9162
X4.1703Y3.1063
X4.1703Y3.0276
X4.1703Y2.9488
X4.1713Y1.5896
X4.1722Y0.8297
X4.1742Y2.7165
X4.1781Y2.8701
X4.1781Y2.6339
X4.1781Y2.5551
X4.1781Y2.3976
X4.1781Y2.2508
X4.1781Y2.1614
X4.1781Y2.0522
X4.1917Y0.9606
X4.1919Y1.438
X4.1919Y1.3268
X4.1919Y0.7904
X4.1929Y1.0502
X4.1959Y1.499
X4.2028Y3.8878
X4.2047Y0.7559
X4.2106Y1.2549
X4.2116Y0.8691
X4.2134Y3.5309
X4.2136Y1.5463
X4.2146Y1.2864
X4.2175Y2.8307
X4.2175Y2.5945
X4.2175Y2.5157
X4.2175Y2.437
X4.2175Y2.3583
X4.2175Y2.2795
X4.2175Y2.2008
X4.2175Y2.1123
X4.2185Y1.8593
X4.2185Y1.7451
X4.2224Y1.4085
X4.2244Y1.6772
X4.2274Y3.4606
X4.2274Y3.3819
X4.2274Y3.3031
X4.2274Y3.2244
X4.2274Y3.1457
X4.2274Y3.0669
X4.2274Y2.9882
X4.2274Y2.9094
X4.2288Y1.125
X4.2288Y1.0462
X4.2288Y0.9675
X4.2313Y0.8297
X4.239Y3.5309
X4.2392Y1.4567
X4.2402Y1.9882
X4.2421Y3.8484
X4.2421Y3.7697
X4.2461Y1.5896
X4.248Y1.4085
X4.2569Y2.8701
X4.2569Y2.7126
X4.2569Y2.5551
X4.2569Y2.3976
X4.2569Y2.3189
X4.2569Y2.2402
X4.2569Y2.1614
X4.2579Y3.5984
X4.2579Y3.573
X4.2579Y3.5474
X4.2608Y2.7874
X4.2673Y1.3358
X4.2673Y1.3063
X4.2682Y1.0777
X4.2682Y1.0068
X4.2682Y0.8494
X4.2687Y1.1742
X4.2688Y1.502
X4.2707Y2.0531
X4.2707Y2.0295
X4.2707Y1.9114
X4.2707Y1.8878
X4.2707Y1.7933
X4.2707Y1.7697
X4.2734Y1.4094
X4.2736Y2.6398
X4.2766Y1.7254
X4.2854Y3.8878
X4.2854Y3.8091
X4.2854Y3.7303
X4.2854Y3.6516
X4.2854Y3.5728
X4.2854Y3.4941
X4.2854Y3.4154
X4.2854Y3.3366
X4.2854Y3.2579
X4.2854Y3.1791
X4.2854Y3.1004
X4.2854Y3.0217
X4.2854Y2.9429
X4.2943Y2.0768
X4.2943Y2.0531
X4.2943Y1.935
X4.2943Y1.9114
X4.2943Y1.8169
X4.2943Y1.7933
X4.2943Y1.6772
X4.2962Y1.4567
X4.2963Y2.8307
X4.2963Y2.5945
X4.2963Y2.5157
X4.2963Y2.437
X4.2963Y2.3583
X4.2963Y2.2795
X4.2963Y2.2008
X4.3013Y1.5472
X4.3076Y1.3533
X4.3076Y1.125
X4.3076Y1.0462
X4.3179Y2.1004
X4.3179Y2.0768
X4.3179Y1.935
X4.3179Y1.8406
X4.3179Y1.8169
X4.3189Y1.7196
X4.3209Y2.8776
X4.3258Y1.502
X4.3304Y1.4101
X4.3338Y1.5899
X4.3356Y2.7872
X4.3356Y2.5551
X4.3356Y2.3907
X4.3356Y2.2402
X4.3356Y2.1614
X4.3415Y2.124
X4.3415Y2.1004
X4.3469Y1.3218
X4.3469Y1.0777
X4.3469Y1.0068
X4.3532Y1.4567
X4.3583Y1.5472
X4.3634Y1.15
X4.3646Y1.3533
X4.3681Y2.1833
X4.3681Y2.0833
X4.3681Y1.9833
X4.3681Y1.8819
X4.3711Y1.7795
X4.375Y2.8307
X4.375Y2.5945
X4.375Y2.5157
X4.375Y2.437
X4.375Y2.3583
X4.375Y2.2795
X4.376Y1.6329
X4.3828Y1.502
X4.3863Y1.2037
X4.3863Y1.0462
X4.3874Y1.4107
X4.3907Y1.5906
X4.3907Y1.2874
X4.3976Y1.1348
X4.3996Y2.8776
X4.4104Y1.4567
X4.4114Y0.9616
X4.4114Y0.9321
X4.4144Y2.7872
X4.4144Y2.6339
X4.4144Y2.5551
X4.4144Y2.3907
X4.4153Y1.5472
X4.4216Y1.3533
X4.4252Y1.6329
X4.4257Y1.3218
X4.4257Y1.2431
X4.4257Y1.1643
X4.4257Y1.0777
X4.4257Y1.0068
X4.4257Y0.7706
X4.44Y1.502
X4.4409Y0.9616
X4.4409Y0.9321
X4.4443Y1.4114
X4.4449Y1.5912
X4.4537Y2.5945
X4.4537Y2.5157
X4.4537Y2.437
X4.4537Y2.3583
X4.4636Y2.8219
X4.4651Y1.2824
X4.4651Y1.2037
X4.4651Y1.0462
X4.4671Y1.4567
X4.4675Y1.1348
X4.4697Y1.9577
X4.4705Y2.1585
X4.4705Y2.0585
X4.4705Y1.8583
X4.4705Y1.7585
X4.4705Y1.6624
X4.4783Y2.8776
X4.4785Y1.3533
X4.4931Y2.6339
X4.4931Y2.5551
X4.4931Y2.3907
X4.497Y2.7884
X4.5013Y1.412
X4.5044Y1.3218
X4.5044Y1.2431
X4.5044Y1.1643
X4.5044Y1.0777
X4.5044Y1.0068
X4.5044Y0.7706
X4.5108Y1.4843
X4.5325Y2.8307
X4.5325Y2.752
X4.5325Y2.5945
X4.5325Y2.5157
X4.5355Y1.3533
X4.5407Y1.4514
X4.5438Y1.2824
X4.5438Y1.2037
X4.5438Y1.125
X4.5438Y1.0462
X4.5438Y0.7313
X4.5438Y0.6417
X4.5472Y2.0984
X4.5472Y2.0226
X4.5472Y1.9606
X4.5472Y1.8996
X4.5502Y1.5236
X4.5571Y2.8776
X4.5719Y2.7126
X4.5719Y2.6339
X4.5801Y1.4908
X4.5832Y1.3218
X4.5832Y1.2431
X4.5832Y1.1643
X4.5832Y1.0068
X4.5832Y0.7706
X4.6083Y0.9616
X4.6083Y0.9321
X4.6112Y2.6732
X4.6132Y2.6339
X4.6181Y1.5177
X4.6225Y1.2824
X4.6225Y1.2037
X4.6225Y0.81
X4.6289Y2.2638
X4.6289Y2.2047
X4.6289Y2.1457
X4.6289Y2.0866
X4.6289Y2.0276
X4.6289Y1.9685
X4.6289Y1.9094
X4.6289Y1.8504
X4.6289Y1.7913
X4.6289Y1.7323
X4.6289Y1.6732
X4.6289Y1.6142
X4.6378Y0.9616
X4.6378Y0.9321
X4.6492Y0.8465
X4.6506Y2.7126
X4.6506Y2.6339
X4.6594Y1.5177
X4.6619Y1.2431
X4.6619Y1.0068
X4.6619Y0.7706
X4.6624Y1.1772
X4.6742Y2.3061
X4.6742Y2.2047
X4.6742Y2.1181
X4.6742Y2.0394
X4.6742Y1.9606
X4.6742Y1.8819
X4.6742Y1.8031
X4.6742Y1.7244
X4.6842Y0.811
X4.69Y2.6732
X4.69Y2.5945
X4.6959Y1.5177
X4.7013Y1.2824
X4.7013Y1.2037
X4.7013Y0.9675
X4.7013Y0.7313
X4.7028Y2.3996
X4.7116Y1.5768
X4.7175Y2.3406
X4.7175Y1.0315
X4.7244Y2.8776
X4.7293Y2.7913
X4.7293Y2.7126
X4.7293Y2.6339
X4.7293Y2.5551
X4.7293Y2.4764
X4.7293Y2.2402
X4.7293Y2.1614
X4.7293Y2.0827
X4.7293Y2.0039
X4.7293Y1.9252
X4.7293Y1.8465
X4.7293Y1.689
X4.7293Y1.6102
X4.7313Y1.7697
X4.7313Y1.5177
X4.7372Y2.3996
X4.7372Y1.4528
X4.7372Y1.4006
X4.7406Y1.3218
X4.7406Y1.2431
X4.7406Y1.1643
X4.7406Y1.0856
X4.749Y0.6693
X4.7933Y2.8346
X4.7933Y2.7559
X4.7933Y2.6772
X4.7933Y2.5984
X4.7933Y2.5197
X4.7933Y2.4409
X4.7933Y2.2047
X4.7933Y2.126
X4.7933Y2.0472
X4.7933Y1.9685
X4.7933Y1.8898
X4.7933Y1.811
X4.7933Y1.7323
X4.7933Y1.4173
X4.7933Y1.3386
X4.7933Y1.2598
X4.7933Y1.1811
X4.7933Y1.1024
X4.7933Y1.0335
X4.7933Y0.7087
X4.7933Y0.6299
X4.7934Y0.9252
X4.7934Y0.8465
X4.7951Y1.4902
T2
X3.9591Y3.8183
X3.9591Y3.7683
X4.0091Y3.8183
X4.0091Y3.7683
X4.0591Y3.8183
X4.0591Y3.7683
X4.1091Y3.8183
X4.1091Y3.7683
X4.1591Y3.8183
X4.1591Y3.7683
T3
X0.1618Y3.7264
X0.3618Y3.7264
X4.4252Y2.2087
X4.4252Y2.1087
X4.4252Y2.0087
X4.4252Y1.9087
X4.4252Y1.8087
X4.4252Y1.7087
T4
X0.4911Y3.2372
X0.4911Y2.3848
X0.4911Y1.5325
X0.4911Y0.6801
X4.3346Y2.6693
X4.3346Y1.248
T5
X0.1841Y3.3868
X0.1841Y3.0876
X0.1841Y2.5344
X0.1841Y2.2352
X0.1841Y1.6821
X0.1841Y1.3829
X0.1841Y0.8297
X0.1841Y0.5305
X4.6417Y2.8189
X4.6417Y2.5197
X4.6417Y1.3976
X4.6417Y1.0984
T6
X4.437Y0.6752
X4.437Y0.3799
X4.6339Y0.6752
X4.6339Y0.3799
T7
X0.3937Y2.811
X0.3937Y1.1063
X3.8376Y3.0522
T8
X0.0197Y3.9252
X0.0197Y0.248
X0.0449Y0.248
X0.0496Y3.9252
X0.0701Y0.248
X0.0787Y3.9252
X0.0953Y0.248
X0.1205Y0.248
X0.2402Y3.9252
X0.2693Y3.9252
X0.2986Y3.9252
X0.4701Y0.248
X0.4953Y0.248
X0.5205Y0.248
X0.5457Y0.248
X0.5709Y0.248
X0.9014Y0.5728
X0.9266Y0.5728
X0.9518Y0.5728
X0.977Y0.5728
X1.0022Y0.5728
X1.3311Y0.248
X1.3563Y0.248
X1.3815Y0.248
X1.4067Y0.248
X1.4319Y0.248
X1.4571Y0.248
X1.4823Y0.248
X1.5075Y0.248
X1.5276Y3.9252
X1.5327Y0.248
X1.5528Y3.9252
X1.5579Y0.248
X1.578Y3.9252
X1.5831Y0.248
X1.6031Y3.9252
X1.6083Y0.248
X1.6283Y3.9252
X2.8579Y3.9252
X2.8831Y3.9252
X2.9083Y3.9252
X2.9335Y3.9252
X2.9587Y3.9252
X3.2596Y0.5728
X3.2848Y0.5728
X3.31Y0.5728
X3.3352Y0.5728
X3.3604Y0.5728
X3.6947Y0.5728
X3.7199Y0.5728
X3.7451Y0.5728
X3.7703Y0.5728
X3.7955Y0.5728
X4.1297Y0.5728
X4.1549Y0.5728
X4.1801Y0.5728
X4.187Y3.9242
X4.2053Y0.5728
X4.2122Y3.9242
X4.2305Y0.5728
X4.2374Y3.9242
X4.2626Y3.9242
X4.2878Y3.9242
X4.5685Y0.5728
X4.5937Y0.5728
X4.6189Y0.5728
X4.6441Y0.5728
X4.6693Y0.5728
X4.6945Y0.5728
X4.7197Y0.5728
X4.7449Y0.5728
X4.7701Y0.5728
X4.7953Y0.5728
X4.8205Y0.5728
T9
X0.0742Y2.811
X0.0742Y1.1063
X4.7481Y0.8858
T11
X3.4439Y0.9163
T12
X4.2313Y0.9163
T13
X2.3874Y1.1374
X4.0299Y2.7799
T14
X0.1594Y3.9587
T10
X0.1575Y0.2362G85X0.4331Y0.2362
G05
X0.6102Y0.2559G85X0.6102Y0.561
G05
X0.8622Y0.561G85X0.6102Y0.561
G05
X0.3386Y3.937G85X1.4882Y3.937
G05
X1.0413Y0.561G85X1.2933Y0.561
G05
X1.2933Y0.2559G85X1.2933Y0.561
G05
X1.6693Y3.937G85X2.8189Y3.937
G05
X3.3996Y0.561G85X3.6555Y0.561
G05
X2.998Y3.937G85X4.1476Y3.937
G05
X3.8346Y0.561G85X4.0906Y0.561
G05
X4.5256Y0.561G85X4.2697Y0.561
G05
M30
