G04 #@! TF.FileFunction,Legend,Bot*
%FSLAX46Y46*%
G04 Gerber Fmt 4.6, Leading zero omitted, Abs format (unit mm)*
G04 Created by KiCad (PCBNEW 4.0.7) date 08/22/18 22:13:15*
%MOMM*%
%LPD*%
G01*
G04 APERTURE LIST*
%ADD10C,0.100000*%
%ADD11C,0.120000*%
%ADD12O,2.250800X2.250800*%
%ADD13R,0.550800X0.650800*%
%ADD14C,4.550800*%
%ADD15R,1.750800X1.750800*%
%ADD16O,1.750800X1.750800*%
G04 APERTURE END LIST*
D10*
D11*
X119155563Y-96915883D02*
X119509117Y-97269437D01*
X118844437Y-97934117D02*
X118490883Y-97580563D01*
X122330000Y-95050000D02*
X122330000Y-94550000D01*
X123270000Y-94550000D02*
X123270000Y-95050000D01*
X121430000Y-95050000D02*
X121430000Y-94550000D01*
X122370000Y-94550000D02*
X122370000Y-95050000D01*
X117630000Y-95000000D02*
X117630000Y-94500000D01*
X118570000Y-94500000D02*
X118570000Y-95000000D01*
X116680000Y-95000000D02*
X116680000Y-94500000D01*
X117620000Y-94500000D02*
X117620000Y-95000000D01*
%LPC*%
D12*
X94550000Y-120000000D03*
X128950000Y-120000000D03*
X132075000Y-117625000D03*
X132075000Y-122375000D03*
X91425000Y-122375000D03*
X91425000Y-117625000D03*
D10*
G36*
X119813739Y-97849264D02*
X119424264Y-98238739D01*
X118964079Y-97778554D01*
X119353554Y-97389079D01*
X119813739Y-97849264D01*
X119813739Y-97849264D01*
G37*
G36*
X119035921Y-97071446D02*
X118646446Y-97460921D01*
X118186261Y-97000736D01*
X118575736Y-96611261D01*
X119035921Y-97071446D01*
X119035921Y-97071446D01*
G37*
D13*
X122800000Y-94250000D03*
X122800000Y-95350000D03*
X121900000Y-94250000D03*
X121900000Y-95350000D03*
X118100000Y-94200000D03*
X118100000Y-95300000D03*
X117150000Y-94200000D03*
X117150000Y-95300000D03*
D12*
X121200000Y-79000000D03*
X102800000Y-79000000D03*
X99675000Y-81375000D03*
X99675000Y-76625000D03*
X124325000Y-76625000D03*
X124325000Y-81375000D03*
D14*
X85000000Y-120000000D03*
X85000000Y-79000000D03*
X139000000Y-79000000D03*
X139000000Y-120000000D03*
D15*
X137000000Y-86000000D03*
D16*
X139540000Y-86000000D03*
X142080000Y-86000000D03*
D15*
X142000000Y-101000000D03*
D16*
X139460000Y-101000000D03*
X136920000Y-101000000D03*
M02*
