M48
;DRILL file {KiCad 4.0.7} date 08/22/18 22:13:18
;FORMAT={-:-/ absolute / inch / decimal}
FMAT,2
INCH,TZ
T1C0.010
T2C0.039
T3C0.067
T4C0.106
%
G90
G05
M72
T1
X3.2146Y-4.248
X3.2146Y-4.2726
X3.2146Y-4.2972
X3.2146Y-4.376
X3.2402Y-4.4035
X3.2638Y-3.9252
X3.2638Y-4.0039
X3.2657Y-4.4291
X3.2677Y-3.2283
X3.2677Y-3.3268
X3.2677Y-3.5236
X3.2677Y-3.622
X3.2677Y-3.7205
X3.2677Y-3.8189
X3.2677Y-4.1142
X3.2677Y-4.5079
X3.2677Y-4.6063
X3.2835Y-4.1831
X3.2835Y-4.2146
X3.2854Y-3.8996
X3.2874Y-4.0315
X3.3051Y-4.2402
X3.3071Y-4.1594
X3.311Y-4.0039
X3.3287Y-4.2756
X3.3287Y-4.2992
X3.3287Y-4.3228
X3.3504Y-4.0039
X3.3622Y-4.0965
X3.3661Y-3.2283
X3.3661Y-3.3268
X3.3661Y-3.5236
X3.3661Y-3.622
X3.3661Y-3.7205
X3.3661Y-3.8189
X3.3661Y-3.8602
X3.3661Y-4.5079
X3.3661Y-4.6063
X3.3878Y-4.0039
X3.3898Y-4.3031
X3.3996Y-4.0984
X3.3996Y-4.124
X3.4016Y-3.7795
X3.4154Y-3.4646
X3.4213Y-3.8602
X3.439Y-4.0866
X3.439Y-4.122
X3.4409Y-3.7795
X3.4646Y-3.0315
X3.4646Y-3.1299
X3.4646Y-3.2283
X3.4646Y-3.3268
X3.4646Y-3.5236
X3.4646Y-3.622
X3.4646Y-3.7205
X3.4646Y-4.2126
X3.4646Y-4.5079
X3.4646Y-4.6063
X3.4646Y-4.7047
X3.4646Y-4.8031
X3.4705Y-3.874
X3.4705Y-4.1476
X3.5138Y-3.4646
X3.5138Y-4.1516
X3.5138Y-4.1811
X3.5138Y-4.2618
X3.5138Y-4.3504
X3.563Y-3.0315
X3.563Y-3.1299
X3.563Y-3.2283
X3.563Y-3.3268
X3.563Y-3.5236
X3.563Y-3.622
X3.563Y-3.7205
X3.563Y-3.8189
X3.563Y-3.9173
X3.563Y-4.0433
X3.563Y-4.2126
X3.563Y-4.311
X3.563Y-4.5079
X3.5965Y-4.4823
X3.6122Y-3.4646
X3.628Y-4.4823
X3.6594Y-4.4823
X3.6614Y-3.0315
X3.6614Y-3.1299
X3.6614Y-3.2283
X3.6614Y-3.3268
X3.6614Y-3.5236
X3.6909Y-4.4823
X3.7106Y-3.4646
X3.7224Y-4.4823
X3.7539Y-4.4823
X3.7598Y-3.0315
X3.7598Y-3.1299
X3.7598Y-3.2283
X3.7598Y-3.3268
X3.8484Y-4.7815
X3.8583Y-3.1299
X3.8583Y-3.3268
X3.8799Y-4.7815
X3.9114Y-4.7815
X3.939Y-3.3346
X3.9429Y-4.7815
X3.9567Y-3.1299
X3.9744Y-4.7815
X3.9862Y-3.3346
X3.9961Y-3.6516
X4.Y-3.6909
X4.0059Y-4.7815
X4.0138Y-3.8307
X4.0157Y-3.9232
X4.0157Y-4.0256
X4.0157Y-4.1142
X4.0157Y-4.2126
X4.0157Y-4.311
X4.0157Y-4.4094
X4.0157Y-4.5098
X4.0236Y-3.7106
X4.0315Y-3.3346
X4.0453Y-3.6024
X4.0551Y-3.0315
X4.0591Y-3.8799
X4.065Y-3.9764
X4.0689Y-4.7835
X4.0748Y-4.6654
X4.0787Y-3.3346
X4.0945Y-3.5531
X4.0984Y-3.8425
X4.1102Y-3.0512
X4.1142Y-3.9272
X4.122Y-3.7697
X4.1319Y-4.7835
X4.1339Y-4.1142
X4.1339Y-4.2126
X4.1339Y-4.3307
X4.1339Y-4.4094
X4.1339Y-4.5098
X4.1339Y-4.6654
X4.1417Y-3.0512
X4.1437Y-3.5039
X4.1535Y-3.8307
X4.1634Y-3.878
X4.1713Y-3.813
X4.1732Y-3.0512
X4.1732Y-4.7441
X4.189Y-3.4587
X4.1929Y-3.8484
X4.1929Y-4.6654
X4.2047Y-3.0512
X4.2096Y-3.628
X4.2264Y-4.7835
X4.2323Y-3.3465
X4.2323Y-3.4154
X4.2323Y-3.5827
X4.2323Y-3.8484
X4.2323Y-4.0453
X4.2323Y-4.4094
X4.2323Y-4.5098
X4.2323Y-4.7441
X4.2333Y-3.628
X4.2362Y-3.0512
X4.2362Y-3.0787
X4.252Y-4.6654
X4.2618Y-3.5531
X4.2677Y-3.0512
X4.2677Y-3.0787
X4.2717Y-3.3071
X4.2717Y-3.376
X4.2815Y-3.5138
X4.2815Y-3.9961
X4.2913Y-4.7441
X4.2972Y-3.5531
X4.311Y-3.0807
X4.311Y-4.6654
X4.3209Y-4.0748
X4.3209Y-4.1339
X4.3209Y-4.252
X4.3209Y-4.5098
X4.3209Y-4.7835
X4.3307Y-3.3071
X4.3307Y-3.5531
X4.3307Y-3.9469
X4.3386Y-3.4685
X4.3406Y-3.1594
X4.3425Y-3.7894
X4.3504Y-4.7441
X4.3701Y-3.0807
X4.3701Y-4.0256
X4.3701Y-4.6654
X4.3996Y-3.1594
X4.3996Y-4.1043
X4.3996Y-4.1929
X4.4094Y-3.9862
X4.4094Y-4.7441
X4.4154Y-4.7835
X4.4252Y-3.3563
X4.4252Y-3.4685
X4.4291Y-3.0807
X4.4291Y-3.6732
X4.4291Y-3.7598
X4.4291Y-3.8386
X4.4291Y-4.311
X4.4291Y-4.4094
X4.4291Y-4.5098
X4.4291Y-4.6654
X4.4488Y-4.0551
X4.4587Y-3.1594
X4.4685Y-4.7441
X4.4882Y-3.0807
X4.4882Y-4.6654
X4.498Y-4.3996
X4.5079Y-3.6732
X4.5079Y-3.7598
X4.5079Y-3.8386
X4.5079Y-4.124
X4.5079Y-4.5098
X4.5098Y-4.7835
X4.5177Y-3.1594
X4.5197Y-3.3543
X4.5197Y-3.4685
X4.5197Y-4.2323
X4.5276Y-4.7441
X4.5472Y-3.0807
X4.5472Y-4.6654
X4.5669Y-4.0551
X4.5768Y-3.1594
X4.5866Y-3.6732
X4.5866Y-3.7598
X4.5866Y-3.8386
X4.5866Y-4.7441
X4.5886Y-4.1909
X4.6043Y-4.7835
X4.6063Y-3.0807
X4.6063Y-3.9764
X4.6063Y-4.0945
X4.6063Y-4.311
X4.6063Y-4.6654
X4.6142Y-3.3543
X4.6142Y-3.4685
X4.6161Y-4.439
X4.6161Y-4.5098
X4.6358Y-3.1594
X4.6457Y-4.7441
X4.6555Y-4.0256
X4.6654Y-3.0807
X4.6654Y-4.6654
X4.6772Y-3.7106
X4.6772Y-3.75
X4.6772Y-3.7894
X4.685Y-3.5531
X4.685Y-4.3996
X4.6949Y-3.1594
X4.6949Y-3.9469
X4.6949Y-4.5098
X4.6988Y-4.7835
X4.7008Y-3.7106
X4.7047Y-4.0748
X4.7047Y-4.1339
X4.7047Y-4.2421
X4.7047Y-4.3012
X4.7047Y-4.7441
X4.7067Y-3.4685
X4.7087Y-3.3543
X4.7205Y-3.5531
X4.7244Y-4.6654
X4.7441Y-3.0315
X4.7441Y-3.3268
X4.7441Y-3.4252
X4.7441Y-3.9961
X4.7461Y-3.811
X4.748Y-3.7106
X4.7539Y-3.5531
X4.7638Y-3.7618
X4.7638Y-4.7441
X4.7657Y-3.4961
X4.7697Y-3.811
X4.7717Y-3.7106
X4.7835Y-3.628
X4.7835Y-4.6654
X4.7933Y-3.7402
X4.7933Y-3.7894
X4.7933Y-4.0453
X4.7933Y-4.1358
X4.7933Y-4.2224
X4.7933Y-4.3406
X4.7933Y-4.5098
X4.7933Y-4.7835
X4.8061Y-3.628
X4.8228Y-4.7441
X4.8425Y-3.1299
X4.8425Y-3.3268
X4.8425Y-3.4252
X4.8425Y-3.8189
X4.8425Y-4.6654
X4.8612Y-3.5433
X4.8661Y-3.4961
X4.8819Y-4.0551
X4.8819Y-4.1339
X4.8819Y-4.2421
X4.8819Y-4.3976
X4.8839Y-4.5098
X4.8878Y-4.7835
X4.8917Y-3.8681
X4.9016Y-4.6654
X4.9242Y-3.6339
X4.9409Y-3.1299
X4.9409Y-3.3268
X4.9409Y-3.4252
X4.9409Y-3.5236
X4.9409Y-3.9173
X4.9449Y-3.6535
X4.9449Y-3.6811
X4.9449Y-3.7087
X5.Y-4.7638
X5.0394Y-3.0315
X5.0394Y-3.1299
X5.0394Y-3.2283
X5.0394Y-3.3268
X5.0394Y-3.4252
X5.0394Y-3.9173
X5.0394Y-4.0157
X5.0394Y-4.1142
X5.0394Y-4.2126
X5.0394Y-4.311
X5.0394Y-4.4094
X5.0394Y-4.5079
X5.0689Y-3.5236
X5.0689Y-3.8189
X5.1181Y-3.8189
X5.1309Y-3.5443
X5.1378Y-3.0315
X5.1378Y-3.1299
X5.1378Y-3.2283
X5.1378Y-3.3268
X5.1378Y-3.4252
X5.1378Y-3.9173
X5.1378Y-4.0157
X5.1378Y-4.1142
X5.1378Y-4.2126
X5.1378Y-4.311
X5.1378Y-4.4094
X5.1683Y-3.5443
X5.2008Y-3.8228
X5.2313Y-3.7933
X5.2362Y-3.0315
X5.2362Y-3.1299
X5.2362Y-3.2283
X5.2362Y-3.3268
X5.2362Y-3.4252
X5.2362Y-3.5236
X5.2362Y-3.9173
X5.2362Y-4.0157
X5.2362Y-4.1142
X5.2362Y-4.2126
X5.2362Y-4.311
X5.2362Y-4.5079
X5.2756Y-3.7697
X5.3346Y-3.0315
X5.3346Y-3.1299
X5.3346Y-3.2283
X5.3346Y-3.5236
X5.3346Y-3.8189
X5.3346Y-3.9173
X5.3346Y-4.0157
X5.3346Y-4.1142
X5.3346Y-4.2126
X5.3346Y-4.4094
X5.3346Y-4.5079
X5.3346Y-4.6063
X5.3346Y-4.7047
X5.3346Y-4.8031
X5.4331Y-3.2283
X5.4331Y-3.5236
X5.4331Y-3.8189
X5.4331Y-4.1142
X5.4331Y-4.311
X5.4331Y-4.4094
X5.4331Y-4.5079
X5.4331Y-4.6063
X5.5315Y-3.2283
X5.5315Y-3.3268
X5.5315Y-3.5236
X5.5315Y-4.2126
X5.5315Y-4.311
X5.5315Y-4.4094
X5.5315Y-4.5079
X5.5315Y-4.6063
T2
X5.3906Y-3.9764
X5.3937Y-3.3858
X5.4906Y-3.9764
X5.4937Y-3.3858
X5.5906Y-3.9764
X5.5937Y-3.3858
T3
X3.5994Y-4.6309
X3.5994Y-4.8179
X3.7224Y-4.7244
X3.9242Y-3.0167
X3.9242Y-3.2037
X4.0472Y-3.1102
X4.7717Y-3.1102
X4.8947Y-3.0167
X4.8947Y-3.2037
X5.0768Y-4.7244
X5.1998Y-4.6309
X5.1998Y-4.8179
T4
X3.3465Y-3.1102
X3.3465Y-4.7244
X5.4724Y-3.1102
X5.4724Y-4.7244
T0
M30
