G04*
G04 #@! TF.GenerationSoftware,Altium Limited,Altium Designer,21.0.9 (235)*
G04*
G04 Layer_Physical_Order=2*
G04 Layer_Color=36540*
%FSLAX25Y25*%
%MOIN*%
G70*
G04*
G04 #@! TF.SameCoordinates,6D45A94B-17CC-4D83-881B-F394DC7C88B3*
G04*
G04*
G04 #@! TF.FilePolarity,Positive*
G04*
G01*
G75*
%ADD135C,0.05906*%
G04:AMPARAMS|DCode=137|XSize=59.06mil|YSize=59.06mil|CornerRadius=14.76mil|HoleSize=0mil|Usage=FLASHONLY|Rotation=0.000|XOffset=0mil|YOffset=0mil|HoleType=Round|Shape=RoundedRectangle|*
%AMROUNDEDRECTD137*
21,1,0.05906,0.02953,0,0,0.0*
21,1,0.02953,0.05906,0,0,0.0*
1,1,0.02953,0.01476,-0.01476*
1,1,0.02953,-0.01476,-0.01476*
1,1,0.02953,-0.01476,0.01476*
1,1,0.02953,0.01476,0.01476*
%
%ADD137ROUNDEDRECTD137*%
%ADD139C,0.11811*%
%ADD141C,0.23622*%
%ADD142C,0.01800*%
G36*
X354573Y51726D02*
X312205D01*
X311619Y51610D01*
X311123Y51278D01*
X310792Y50782D01*
X310675Y50197D01*
Y43255D01*
X310175Y43013D01*
X309630Y43239D01*
X308874D01*
X308176Y42949D01*
X307641Y42415D01*
X307352Y41717D01*
Y40961D01*
X307641Y40262D01*
X308176Y39728D01*
X308874Y39439D01*
X309630D01*
X310175Y39665D01*
X310675Y39422D01*
Y34200D01*
X310175Y33957D01*
X309630Y34183D01*
X308874D01*
X308176Y33894D01*
X307641Y33360D01*
X307352Y32661D01*
Y31905D01*
X307641Y31207D01*
X308176Y30673D01*
X308874Y30384D01*
X309630D01*
X310175Y30609D01*
X310675Y30367D01*
Y2602D01*
X309603Y1529D01*
X231342D01*
X230270Y2602D01*
Y29331D01*
X230260Y29381D01*
X230266Y29431D01*
X230234Y29919D01*
X230195Y30064D01*
X230185Y30215D01*
X229933Y31158D01*
X229844Y31337D01*
X229780Y31527D01*
X229292Y32372D01*
X229160Y32523D01*
X229049Y32689D01*
X228358Y33379D01*
X228192Y33490D01*
X228042Y33622D01*
X227196Y34111D01*
X227007Y34175D01*
X226827Y34263D01*
X225884Y34516D01*
X225684Y34529D01*
X225488Y34568D01*
X224512D01*
X224316Y34529D01*
X224116Y34516D01*
X223173Y34263D01*
X222993Y34175D01*
X222804Y34111D01*
X221958Y33622D01*
X221808Y33490D01*
X221642Y33379D01*
X220951Y32689D01*
X220840Y32523D01*
X220708Y32372D01*
X220220Y31527D01*
X220156Y31337D01*
X220067Y31158D01*
X219815Y30215D01*
X219805Y30064D01*
X219766Y29919D01*
X219734Y29431D01*
X219740Y29380D01*
X219730Y29331D01*
Y2602D01*
X218658Y1529D01*
X179767D01*
X178695Y2602D01*
Y26450D01*
X179110Y26728D01*
X179347Y26630D01*
X180102D01*
X180801Y26920D01*
X181335Y27454D01*
X181425Y27671D01*
X181966D01*
X182051Y27467D01*
X182585Y26933D01*
X182796Y26845D01*
Y26304D01*
X182585Y26217D01*
X182051Y25683D01*
X181761Y24984D01*
Y24228D01*
X182051Y23530D01*
X182585Y22996D01*
X183283Y22706D01*
X184039D01*
X184738Y22996D01*
X185272Y23530D01*
X185359Y23741D01*
X185900D01*
X185988Y23530D01*
X186522Y22996D01*
X187221Y22706D01*
X187976D01*
X188675Y22996D01*
X189209Y23530D01*
X189498Y24228D01*
Y24984D01*
X189209Y25683D01*
X188675Y26217D01*
X187976Y26506D01*
X187221D01*
X186522Y26217D01*
X185988Y25683D01*
X185900Y25472D01*
X185359D01*
X185272Y25683D01*
X184738Y26217D01*
X184527Y26304D01*
Y26845D01*
X184738Y26933D01*
X185272Y27467D01*
X185561Y28165D01*
Y28921D01*
X185272Y29620D01*
X184738Y30154D01*
X184039Y30443D01*
X183283D01*
X182585Y30154D01*
X182051Y29620D01*
X181961Y29403D01*
X181420D01*
X181335Y29607D01*
X180801Y30141D01*
X180102Y30430D01*
X179347D01*
X179110Y30333D01*
X178695Y30610D01*
Y43012D01*
X178687Y43049D01*
X178693Y43087D01*
X178658Y43791D01*
X178631Y43901D01*
Y44014D01*
X178356Y45396D01*
X178298Y45535D01*
X178269Y45683D01*
X177730Y46984D01*
X177646Y47109D01*
X177588Y47249D01*
X176806Y48420D01*
X176699Y48526D01*
X176616Y48651D01*
X175620Y49647D01*
X175495Y49731D01*
X175388Y49837D01*
X174217Y50620D01*
X174078Y50678D01*
X173953Y50761D01*
X172651Y51300D01*
X172503Y51330D01*
X172364Y51387D01*
X170983Y51662D01*
X170832D01*
X170685Y51692D01*
X169276D01*
X169128Y51662D01*
X168978D01*
X167596Y51387D01*
X167457Y51330D01*
X167309Y51300D01*
X166008Y50761D01*
X165883Y50678D01*
X165744Y50620D01*
X164573Y49837D01*
X164466Y49731D01*
X164341Y49647D01*
X163345Y48651D01*
X163261Y48526D01*
X163155Y48420D01*
X162372Y47249D01*
X162314Y47109D01*
X162231Y46984D01*
X161692Y45683D01*
X161662Y45535D01*
X161605Y45396D01*
X161330Y44014D01*
Y43901D01*
X161302Y43791D01*
X161268Y43087D01*
X161273Y43049D01*
X161266Y43012D01*
Y32319D01*
X132828D01*
Y50197D01*
X132712Y50782D01*
X132381Y51278D01*
X131884Y51610D01*
X131299Y51726D01*
X59055D01*
X58470Y51610D01*
X57974Y51278D01*
X57642Y50782D01*
X57526Y50197D01*
Y19246D01*
X1529D01*
Y379043D01*
X1998Y379216D01*
X2567Y378551D01*
X4160Y377190D01*
X5946Y376095D01*
X7882Y375293D01*
X9919Y374804D01*
X12008Y374640D01*
X14097Y374804D01*
X16134Y375293D01*
X18070Y376095D01*
X19856Y377190D01*
X21449Y378551D01*
X22810Y380144D01*
X23905Y381930D01*
X24707Y383866D01*
X25196Y385903D01*
X25360Y387992D01*
X25196Y390081D01*
X24707Y392118D01*
X23905Y394054D01*
X22810Y395840D01*
X21449Y397434D01*
X19856Y398794D01*
X18070Y399889D01*
X16134Y400691D01*
X14097Y401180D01*
X12008Y401344D01*
X9919Y401180D01*
X7882Y400691D01*
X5946Y399889D01*
X4160Y398794D01*
X2567Y397434D01*
X1998Y396768D01*
X1529Y396942D01*
Y414809D01*
X354573D01*
X354573Y51726D01*
D02*
G37*
%LPC*%
G36*
X145063Y394617D02*
X144307D01*
X143609Y394327D01*
X143074Y393793D01*
X142785Y393094D01*
Y392339D01*
X143074Y391640D01*
X143609Y391106D01*
X144307Y390816D01*
X145063D01*
X145761Y391106D01*
X146296Y391640D01*
X146585Y392339D01*
Y393094D01*
X146296Y393793D01*
X145761Y394327D01*
X145063Y394617D01*
D02*
G37*
G36*
X129118D02*
X128362D01*
X127664Y394327D01*
X127129Y393793D01*
X126840Y393094D01*
Y392339D01*
X127129Y391640D01*
X127664Y391106D01*
X128362Y390816D01*
X129118D01*
X129816Y391106D01*
X130351Y391640D01*
X130640Y392339D01*
Y393094D01*
X130351Y393793D01*
X129816Y394327D01*
X129118Y394617D01*
D02*
G37*
G36*
X76575Y392861D02*
X75819D01*
X75121Y392571D01*
X74586Y392037D01*
X74297Y391339D01*
Y390583D01*
X74586Y389884D01*
X75121Y389350D01*
X75819Y389061D01*
X76575D01*
X77273Y389350D01*
X77808Y389884D01*
X78097Y390583D01*
Y391339D01*
X77808Y392037D01*
X77273Y392571D01*
X76575Y392861D01*
D02*
G37*
G36*
X172721Y392739D02*
X171965D01*
X171266Y392450D01*
X170732Y391915D01*
X170443Y391217D01*
Y390771D01*
X169996D01*
X169298Y390481D01*
X168763Y389947D01*
X168474Y389248D01*
Y388492D01*
X168763Y387794D01*
X169298Y387260D01*
X169996Y386970D01*
X170443D01*
Y386524D01*
X170732Y385826D01*
X171266Y385291D01*
X171965Y385002D01*
X172721D01*
X173419Y385291D01*
X173953Y385826D01*
X174243Y386524D01*
Y387280D01*
X173953Y387978D01*
X173419Y388513D01*
X173208Y388600D01*
Y389141D01*
X173419Y389228D01*
X173953Y389763D01*
X174243Y390461D01*
Y391217D01*
X173953Y391915D01*
X173419Y392450D01*
X172721Y392739D01*
D02*
G37*
G36*
X165339Y387924D02*
X164583D01*
X163884Y387634D01*
X163350Y387100D01*
X163061Y386402D01*
Y385646D01*
X163350Y384947D01*
X163884Y384413D01*
X164583Y384124D01*
X165339D01*
X166037Y384413D01*
X166571Y384947D01*
X166861Y385646D01*
Y386402D01*
X166571Y387100D01*
X166037Y387634D01*
X165339Y387924D01*
D02*
G37*
G36*
X148705Y390089D02*
X147949D01*
X147251Y389800D01*
X146716Y389265D01*
X146427Y388567D01*
Y387924D01*
X146079D01*
X145380Y387634D01*
X144846Y387100D01*
X144557Y386402D01*
Y385646D01*
X144846Y384947D01*
X145380Y384413D01*
X146079Y384124D01*
X146835D01*
X147533Y384413D01*
X148067Y384947D01*
X148357Y385646D01*
Y386289D01*
X148705D01*
X149403Y386578D01*
X149938Y387113D01*
X150227Y387811D01*
Y388567D01*
X149938Y389265D01*
X149403Y389800D01*
X148705Y390089D01*
D02*
G37*
G36*
X81677Y387924D02*
X80921D01*
X80223Y387634D01*
X79689Y387100D01*
X79399Y386402D01*
Y385646D01*
X79689Y384947D01*
X80223Y384413D01*
X80921Y384124D01*
X81677D01*
X82376Y384413D01*
X82910Y384947D01*
X83199Y385646D01*
Y386402D01*
X82910Y387100D01*
X82376Y387634D01*
X81677Y387924D01*
D02*
G37*
G36*
X155004Y380246D02*
X154248D01*
X153550Y379957D01*
X153540Y379947D01*
X153530Y379957D01*
X152831Y380246D01*
X152076D01*
X151377Y379957D01*
X150843Y379423D01*
X150554Y378724D01*
Y377969D01*
X150843Y377270D01*
X151377Y376736D01*
X152076Y376447D01*
X152831D01*
X153530Y376736D01*
X153540Y376746D01*
X153550Y376736D01*
X154248Y376447D01*
X155004D01*
X155702Y376736D01*
X156237Y377270D01*
X156526Y377969D01*
Y378724D01*
X156237Y379423D01*
X155702Y379957D01*
X155004Y380246D01*
D02*
G37*
G36*
X340142Y382018D02*
X339386D01*
X338687Y381729D01*
X338153Y381194D01*
X337864Y380496D01*
Y379740D01*
X338153Y379042D01*
X338637Y378558D01*
X338288Y378203D01*
X337589Y378492D01*
X336833D01*
X336135Y378203D01*
X335601Y377668D01*
X335311Y376970D01*
Y376214D01*
X335601Y375516D01*
X336135Y374981D01*
X336833Y374692D01*
X337589D01*
X338288Y374981D01*
X338822Y375516D01*
X339111Y376214D01*
Y376970D01*
X338822Y377668D01*
X338338Y378152D01*
X338687Y378507D01*
X339386Y378218D01*
X340142D01*
X340840Y378507D01*
X341374Y379042D01*
X341664Y379740D01*
Y380496D01*
X341374Y381194D01*
X340840Y381729D01*
X340142Y382018D01*
D02*
G37*
G36*
X139846Y380049D02*
X139090D01*
X138392Y379760D01*
X137857Y379226D01*
X137568Y378527D01*
Y377771D01*
X137857Y377073D01*
X138392Y376539D01*
X139090Y376249D01*
X139846D01*
X140544Y376539D01*
X141079Y377073D01*
X141368Y377771D01*
Y378527D01*
X141079Y379226D01*
X140544Y379760D01*
X139846Y380049D01*
D02*
G37*
G36*
X276187Y378866D02*
X275431D01*
X274733Y378577D01*
X274199Y378042D01*
X273909Y377344D01*
Y376588D01*
X274199Y375890D01*
X274733Y375355D01*
X275431Y375066D01*
X276187D01*
X276886Y375355D01*
X277420Y375890D01*
X277709Y376588D01*
Y377344D01*
X277420Y378042D01*
X276886Y378577D01*
X276187Y378866D01*
D02*
G37*
G36*
X296835Y376703D02*
X296079D01*
X295380Y376414D01*
X294846Y375879D01*
X294557Y375181D01*
Y374425D01*
X294846Y373727D01*
X295380Y373192D01*
X296079Y372903D01*
X296835D01*
X297533Y373192D01*
X298067Y373727D01*
X298357Y374425D01*
Y375181D01*
X298067Y375879D01*
X297533Y376414D01*
X296835Y376703D01*
D02*
G37*
G36*
X314964D02*
X314209D01*
X313510Y376414D01*
X312976Y375879D01*
X312686Y375181D01*
Y374425D01*
X312976Y373727D01*
X313306Y373397D01*
X313381Y372962D01*
X313276Y372774D01*
X312859Y372357D01*
X312570Y371659D01*
Y370903D01*
X312859Y370205D01*
X313393Y369670D01*
X314092Y369381D01*
X314848D01*
X315546Y369670D01*
X316080Y370205D01*
X316370Y370903D01*
Y371659D01*
X316080Y372357D01*
X315750Y372687D01*
X315675Y373122D01*
X315781Y373310D01*
X316197Y373727D01*
X316487Y374425D01*
Y375181D01*
X316197Y375879D01*
X315663Y376414D01*
X314964Y376703D01*
D02*
G37*
G36*
X305299Y375916D02*
X304543D01*
X303845Y375626D01*
X303310Y375092D01*
X303021Y374394D01*
Y373638D01*
X303310Y372939D01*
X303845Y372405D01*
X304543Y372116D01*
X305299D01*
X305462Y372183D01*
X305844Y371800D01*
X305777Y371638D01*
Y370882D01*
X306066Y370184D01*
X306601Y369649D01*
X307299Y369360D01*
X308055D01*
X308753Y369649D01*
X309288Y370184D01*
X309577Y370882D01*
Y371638D01*
X309288Y372336D01*
X308753Y372871D01*
X308055Y373160D01*
X307299D01*
X307137Y373093D01*
X306754Y373475D01*
X306821Y373638D01*
Y374394D01*
X306532Y375092D01*
X305997Y375626D01*
X305299Y375916D01*
D02*
G37*
G36*
X134877Y374853D02*
X134121D01*
X133423Y374564D01*
X132888Y374029D01*
X132599Y373331D01*
Y372575D01*
X132888Y371877D01*
X133423Y371342D01*
X134121Y371053D01*
X134299D01*
Y370606D01*
X134588Y369908D01*
X135123Y369374D01*
X135821Y369085D01*
X136577D01*
X137275Y369374D01*
X137810Y369908D01*
X138099Y370606D01*
Y371362D01*
X137810Y372061D01*
X137275Y372595D01*
X136577Y372884D01*
X136399D01*
Y373331D01*
X136109Y374029D01*
X135575Y374564D01*
X134877Y374853D01*
D02*
G37*
G36*
X272622Y372766D02*
X271866D01*
X271168Y372477D01*
X270633Y371942D01*
X270344Y371244D01*
Y370488D01*
X270633Y369790D01*
X271168Y369255D01*
X271866Y368966D01*
X272622D01*
X273320Y369255D01*
X273855Y369790D01*
X274144Y370488D01*
Y371244D01*
X273855Y371942D01*
X273320Y372477D01*
X272622Y372766D01*
D02*
G37*
G36*
X230102D02*
X229346D01*
X228648Y372477D01*
X228114Y371942D01*
X227824Y371244D01*
Y370488D01*
X228114Y369790D01*
X228648Y369255D01*
X229346Y368966D01*
X230102D01*
X230801Y369255D01*
X231335Y369790D01*
X231624Y370488D01*
Y371244D01*
X231335Y371942D01*
X230801Y372477D01*
X230102Y372766D01*
D02*
G37*
G36*
X301559Y367845D02*
X300803D01*
X300105Y367556D01*
X299570Y367021D01*
X299281Y366323D01*
Y365567D01*
X299570Y364869D01*
X300105Y364334D01*
X300803Y364045D01*
X301559D01*
X302257Y364334D01*
X302792Y364869D01*
X303081Y365567D01*
Y366323D01*
X302792Y367021D01*
X302257Y367556D01*
X301559Y367845D01*
D02*
G37*
G36*
X217110Y367648D02*
X216354D01*
X215656Y367359D01*
X215122Y366824D01*
X214832Y366126D01*
Y365370D01*
X215122Y364672D01*
X215656Y364137D01*
X216354Y363848D01*
X217110D01*
X217809Y364137D01*
X218343Y364672D01*
X218632Y365370D01*
Y366126D01*
X218343Y366824D01*
X217809Y367359D01*
X217110Y367648D01*
D02*
G37*
G36*
X144306Y366535D02*
X143550D01*
X142852Y366246D01*
X142317Y365711D01*
X142028Y365013D01*
Y364257D01*
X142317Y363559D01*
X142852Y363024D01*
X143550Y362735D01*
X144306D01*
X145004Y363024D01*
X145539Y363559D01*
X145828Y364257D01*
Y365013D01*
X145539Y365711D01*
X145004Y366246D01*
X144306Y366535D01*
D02*
G37*
G36*
X305299Y364302D02*
X304543D01*
X303845Y364012D01*
X303310Y363478D01*
X303021Y362779D01*
Y362024D01*
X303310Y361325D01*
X303845Y360791D01*
X304543Y360502D01*
X305299D01*
X305997Y360791D01*
X306532Y361325D01*
X306821Y362024D01*
Y362779D01*
X306532Y363478D01*
X305997Y364012D01*
X305299Y364302D01*
D02*
G37*
G36*
X134877Y363829D02*
X134121D01*
X133423Y363540D01*
X132888Y363006D01*
X132599Y362307D01*
Y361551D01*
X132888Y360853D01*
X133423Y360319D01*
X134121Y360029D01*
X134877D01*
X135575Y360319D01*
X136109Y360853D01*
X136399Y361551D01*
Y362307D01*
X136109Y363006D01*
X135575Y363540D01*
X134877Y363829D01*
D02*
G37*
G36*
X164453Y363121D02*
X163697D01*
X162999Y362831D01*
X162464Y362297D01*
X162175Y361598D01*
Y360842D01*
X162464Y360144D01*
X162999Y359610D01*
X163697Y359320D01*
X164453D01*
X165151Y359610D01*
X165686Y360144D01*
X165975Y360842D01*
Y361598D01*
X165686Y362297D01*
X165151Y362831D01*
X164453Y363121D01*
D02*
G37*
G36*
X159581Y357530D02*
X158826D01*
X158127Y357241D01*
X157826Y356939D01*
X157499Y356758D01*
X157173Y356939D01*
X156871Y357241D01*
X156173Y357530D01*
X155417D01*
X154718Y357241D01*
X154645Y357167D01*
X154571Y357241D01*
X153873Y357530D01*
X153117D01*
X152418Y357241D01*
X152148Y356971D01*
X151822Y356749D01*
X151495Y356971D01*
X151225Y357241D01*
X150526Y357530D01*
X149770D01*
X149072Y357241D01*
X148538Y356706D01*
X148248Y356008D01*
Y355252D01*
X148538Y354554D01*
X149072Y354019D01*
X149770Y353730D01*
X150526D01*
X151225Y354019D01*
X151495Y354290D01*
X151822Y354511D01*
X152148Y354290D01*
X152418Y354019D01*
X153117Y353730D01*
X153873D01*
X154571Y354019D01*
X154645Y354093D01*
X154718Y354019D01*
X155417Y353730D01*
X156173D01*
X156871Y354019D01*
X157173Y354321D01*
X157499Y354502D01*
X157826Y354321D01*
X158127Y354019D01*
X158826Y353730D01*
X159581D01*
X160280Y354019D01*
X160814Y354554D01*
X161103Y355252D01*
Y356008D01*
X160814Y356706D01*
X160280Y357241D01*
X159581Y357530D01*
D02*
G37*
G36*
X334630Y364105D02*
X333874D01*
X333176Y363815D01*
X332641Y363281D01*
X332352Y362583D01*
Y361827D01*
X332641Y361128D01*
X333176Y360594D01*
X333386Y360507D01*
Y359966D01*
X333176Y359878D01*
X332641Y359344D01*
X332352Y358646D01*
Y357890D01*
X332641Y357191D01*
X333176Y356657D01*
X333874Y356368D01*
X334630D01*
X335328Y356657D01*
X335863Y357191D01*
X336152Y357890D01*
Y358336D01*
X336598D01*
X337297Y358626D01*
X337831Y359160D01*
X338121Y359858D01*
Y360614D01*
X337831Y361313D01*
X337297Y361847D01*
X336598Y362136D01*
X336152D01*
Y362583D01*
X335863Y363281D01*
X335328Y363815D01*
X334630Y364105D01*
D02*
G37*
G36*
X312976Y358396D02*
X312221D01*
X311522Y358107D01*
X310988Y357572D01*
X310698Y356874D01*
Y356118D01*
X310988Y355420D01*
X311522Y354885D01*
X312221Y354596D01*
X312976D01*
X313675Y354885D01*
X314209Y355420D01*
X314498Y356118D01*
Y356874D01*
X314209Y357572D01*
X313675Y358107D01*
X312976Y358396D01*
D02*
G37*
G36*
X284433D02*
X283677D01*
X282979Y358107D01*
X282444Y357572D01*
X282155Y356874D01*
Y356118D01*
X282444Y355420D01*
X282979Y354885D01*
X283677Y354596D01*
X284433D01*
X285131Y354885D01*
X285666Y355420D01*
X285955Y356118D01*
Y356874D01*
X285666Y357572D01*
X285131Y358107D01*
X284433Y358396D01*
D02*
G37*
G36*
X173077Y362034D02*
X172396D01*
X171739Y361858D01*
X171149Y361517D01*
X170668Y361036D01*
X170327Y360447D01*
X170151Y359789D01*
Y359108D01*
X170327Y358451D01*
X170415Y358299D01*
X170327Y358147D01*
X170151Y357489D01*
Y356808D01*
X170327Y356151D01*
X170668Y355562D01*
X171149Y355080D01*
X171739Y354740D01*
X172396Y354564D01*
X173077D01*
X173734Y354740D01*
X174323Y355080D01*
X174805Y355562D01*
X175145Y356151D01*
X175321Y356808D01*
Y357489D01*
X175145Y358147D01*
X175057Y358299D01*
X175145Y358451D01*
X175321Y359108D01*
Y359789D01*
X175145Y360447D01*
X174805Y361036D01*
X174323Y361517D01*
X173734Y361858D01*
X173077Y362034D01*
D02*
G37*
G36*
X259630Y356821D02*
X258874D01*
X258176Y356532D01*
X257641Y355997D01*
X257352Y355299D01*
Y354543D01*
X257641Y353845D01*
X258176Y353310D01*
X258874Y353021D01*
X259630D01*
X260328Y353310D01*
X260863Y353845D01*
X261152Y354543D01*
Y355299D01*
X260863Y355997D01*
X260328Y356532D01*
X259630Y356821D01*
D02*
G37*
G36*
X266126Y354262D02*
X265370D01*
X264672Y353973D01*
X264137Y353438D01*
X263848Y352740D01*
Y351984D01*
X264137Y351286D01*
X264672Y350751D01*
X265370Y350462D01*
X266126D01*
X266824Y350751D01*
X267359Y351286D01*
X267648Y351984D01*
Y352740D01*
X267359Y353438D01*
X266824Y353973D01*
X266126Y354262D01*
D02*
G37*
G36*
X130791Y352884D02*
X130035D01*
X129337Y352595D01*
X128803Y352061D01*
X128513Y351362D01*
Y350606D01*
X128803Y349908D01*
X129337Y349374D01*
X130035Y349084D01*
X130791D01*
X131490Y349374D01*
X132024Y349908D01*
X132313Y350606D01*
Y351362D01*
X132024Y352061D01*
X131490Y352595D01*
X130791Y352884D01*
D02*
G37*
G36*
X120571Y380315D02*
X58563D01*
Y362205D01*
X51575D01*
X44094Y354724D01*
X44094Y326575D01*
X48405D01*
X48464Y326559D01*
X49764D01*
X49823Y326575D01*
X54134D01*
Y350984D01*
X58101Y354952D01*
X58563Y354760D01*
Y312992D01*
X120571D01*
Y349565D01*
X121071Y349766D01*
X121463Y349374D01*
X122161Y349084D01*
X122917D01*
X123616Y349374D01*
X124150Y349908D01*
X124439Y350606D01*
Y351362D01*
X124150Y352061D01*
X123616Y352595D01*
X122917Y352884D01*
X122161D01*
X121463Y352595D01*
X121071Y352203D01*
X120571Y352404D01*
Y380315D01*
D02*
G37*
G36*
X277346Y352490D02*
X276591D01*
X275892Y352201D01*
X275358Y351667D01*
X275068Y350969D01*
Y350213D01*
X275358Y349514D01*
X275892Y348980D01*
X276591Y348691D01*
X277346D01*
X278045Y348980D01*
X278579Y349514D01*
X278869Y350213D01*
Y350969D01*
X278579Y351667D01*
X278045Y352201D01*
X277346Y352490D01*
D02*
G37*
G36*
X19046Y352962D02*
X18905D01*
Y346957D01*
X24911D01*
Y347097D01*
X24661Y348354D01*
X24171Y349538D01*
X23459Y350604D01*
X22553Y351510D01*
X21487Y352222D01*
X20303Y352712D01*
X19046Y352962D01*
D02*
G37*
G36*
X17905D02*
X17765D01*
X16508Y352712D01*
X15324Y352222D01*
X14258Y351510D01*
X13352Y350604D01*
X12640Y349538D01*
X12150Y348354D01*
X11900Y347097D01*
Y346957D01*
X17905D01*
Y352962D01*
D02*
G37*
G36*
X216520Y355640D02*
X215764D01*
X215066Y355351D01*
X214531Y354816D01*
X214242Y354118D01*
Y353362D01*
X214531Y352664D01*
X215066Y352129D01*
X215088Y352120D01*
Y351620D01*
X215066Y351611D01*
X214531Y351076D01*
X214242Y350378D01*
Y349622D01*
X214531Y348924D01*
X215066Y348389D01*
X215088Y348380D01*
Y347880D01*
X215066Y347871D01*
X214531Y347336D01*
X214242Y346638D01*
Y345882D01*
X214531Y345184D01*
X214910Y344804D01*
X215013Y344488D01*
X214910Y344172D01*
X214531Y343793D01*
X214242Y343094D01*
Y342339D01*
X214531Y341640D01*
X215066Y341106D01*
X215764Y340816D01*
X216520D01*
X217218Y341106D01*
X217753Y341640D01*
X218042Y342339D01*
Y343094D01*
X217753Y343793D01*
X217373Y344172D01*
X217270Y344488D01*
X217373Y344804D01*
X217753Y345184D01*
X218042Y345882D01*
Y346638D01*
X217753Y347336D01*
X217218Y347871D01*
X217195Y347880D01*
Y348380D01*
X217218Y348389D01*
X217753Y348924D01*
X218042Y349622D01*
Y350378D01*
X217753Y351076D01*
X217218Y351611D01*
X217195Y351620D01*
Y352120D01*
X217218Y352129D01*
X217753Y352664D01*
X218042Y353362D01*
Y354118D01*
X217753Y354816D01*
X217218Y355351D01*
X216520Y355640D01*
D02*
G37*
G36*
X140881Y344538D02*
X140125D01*
X139426Y344249D01*
X138892Y343714D01*
X138603Y343016D01*
Y342260D01*
X138892Y341562D01*
X139426Y341027D01*
X140125Y340738D01*
X140881D01*
X141579Y341027D01*
X142113Y341562D01*
X142403Y342260D01*
Y343016D01*
X142113Y343714D01*
X141579Y344249D01*
X140881Y344538D01*
D02*
G37*
G36*
X24911Y345957D02*
X18905D01*
Y339951D01*
X19046D01*
X20303Y340201D01*
X21487Y340692D01*
X22553Y341404D01*
X23459Y342310D01*
X24171Y343375D01*
X24661Y344559D01*
X24911Y345816D01*
Y345957D01*
D02*
G37*
G36*
X17905D02*
X11900D01*
Y345816D01*
X12150Y344559D01*
X12640Y343375D01*
X13352Y342310D01*
X14258Y341404D01*
X15324Y340692D01*
X16508Y340201D01*
X17765Y339951D01*
X17905D01*
Y345957D01*
D02*
G37*
G36*
X266126Y343435D02*
X265370D01*
X264672Y343146D01*
X264137Y342612D01*
X263848Y341913D01*
Y341158D01*
X264137Y340459D01*
X264672Y339925D01*
X265370Y339635D01*
X266126D01*
X266824Y339925D01*
X267359Y340459D01*
X267648Y341158D01*
Y341913D01*
X267359Y342612D01*
X266824Y343146D01*
X266126Y343435D01*
D02*
G37*
G36*
X277346Y341664D02*
X276591D01*
X275892Y341374D01*
X275358Y340840D01*
X275068Y340142D01*
Y339386D01*
X275358Y338687D01*
X275892Y338153D01*
X276591Y337864D01*
X277346D01*
X278045Y338153D01*
X278579Y338687D01*
X278869Y339386D01*
Y340142D01*
X278579Y340840D01*
X278045Y341374D01*
X277346Y341664D01*
D02*
G37*
G36*
X259630Y341073D02*
X258874D01*
X258176Y340784D01*
X257641Y340249D01*
X257352Y339551D01*
Y338795D01*
X257641Y338097D01*
X258176Y337562D01*
X258874Y337273D01*
X259630D01*
X260328Y337562D01*
X260863Y338097D01*
X261152Y338795D01*
Y339551D01*
X260863Y340249D01*
X260328Y340784D01*
X259630Y341073D01*
D02*
G37*
G36*
X249394Y338514D02*
X248638D01*
X247939Y338225D01*
X247405Y337690D01*
X247116Y336992D01*
Y336236D01*
X247405Y335538D01*
X247939Y335003D01*
X248638Y334714D01*
X249394D01*
X250092Y335003D01*
X250626Y335538D01*
X250916Y336236D01*
Y336992D01*
X250626Y337690D01*
X250092Y338225D01*
X249394Y338514D01*
D02*
G37*
G36*
X153676Y328003D02*
X152920D01*
X152222Y327713D01*
X151687Y327179D01*
X151398Y326481D01*
Y325725D01*
X151687Y325026D01*
X152222Y324492D01*
X152920Y324203D01*
X153676D01*
X154374Y324492D01*
X154909Y325026D01*
X155198Y325725D01*
Y326481D01*
X154909Y327179D01*
X154374Y327713D01*
X153676Y328003D01*
D02*
G37*
G36*
X140881Y327806D02*
X140125D01*
X139426Y327517D01*
X138892Y326982D01*
X138603Y326284D01*
Y325528D01*
X138892Y324830D01*
X139426Y324295D01*
X140125Y324006D01*
X140881D01*
X141579Y324295D01*
X142113Y324830D01*
X142403Y325528D01*
Y326284D01*
X142113Y326982D01*
X141579Y327517D01*
X140881Y327806D01*
D02*
G37*
G36*
X153676Y322884D02*
X152920D01*
X152222Y322595D01*
X151687Y322061D01*
X151398Y321362D01*
Y320606D01*
X151687Y319908D01*
X152222Y319374D01*
X152920Y319085D01*
X153676D01*
X154374Y319374D01*
X154909Y319908D01*
X155198Y320606D01*
Y321362D01*
X154909Y322061D01*
X154374Y322595D01*
X153676Y322884D01*
D02*
G37*
G36*
X19046Y323041D02*
X18905D01*
Y317036D01*
X24911D01*
Y317176D01*
X24661Y318433D01*
X24171Y319617D01*
X23459Y320682D01*
X22553Y321589D01*
X21487Y322301D01*
X20303Y322791D01*
X19046Y323041D01*
D02*
G37*
G36*
X17906D02*
X17765D01*
X16508Y322791D01*
X15324Y322301D01*
X14258Y321589D01*
X13352Y320682D01*
X12640Y319617D01*
X12150Y318433D01*
X11900Y317176D01*
Y317036D01*
X17906D01*
Y323041D01*
D02*
G37*
G36*
X140873Y317877D02*
X140117D01*
X139419Y317588D01*
X138884Y317053D01*
X138595Y316355D01*
Y315599D01*
X138884Y314901D01*
X139419Y314366D01*
X140117Y314077D01*
X140873D01*
X141571Y314366D01*
X142106Y314901D01*
X142395Y315599D01*
Y316355D01*
X142106Y317053D01*
X141571Y317588D01*
X140873Y317877D01*
D02*
G37*
G36*
X24911Y316036D02*
X18905D01*
Y310030D01*
X19046D01*
X20303Y310280D01*
X21487Y310770D01*
X22553Y311482D01*
X23459Y312388D01*
X24171Y313454D01*
X24661Y314638D01*
X24911Y315895D01*
Y316036D01*
D02*
G37*
G36*
X17906D02*
X11900D01*
Y315895D01*
X12150Y314638D01*
X12640Y313454D01*
X13352Y312388D01*
X14258Y311482D01*
X15324Y310770D01*
X16508Y310280D01*
X17765Y310030D01*
X17906D01*
Y316036D01*
D02*
G37*
G36*
X149787Y306337D02*
X149031D01*
X148333Y306047D01*
X148031Y305746D01*
X147730Y306047D01*
X147031Y306337D01*
X146276D01*
X145577Y306047D01*
X145043Y305513D01*
X144754Y304815D01*
Y304059D01*
X145043Y303360D01*
X145577Y302826D01*
X146276Y302537D01*
X147031D01*
X147730Y302826D01*
X148031Y303128D01*
X148333Y302826D01*
X149031Y302537D01*
X149375D01*
X149709Y302037D01*
X149675Y301953D01*
Y301197D01*
X149964Y300499D01*
X150498Y299964D01*
X151197Y299675D01*
X151953D01*
X152651Y299964D01*
X153185Y300499D01*
X153475Y301197D01*
Y301953D01*
X153185Y302651D01*
X152651Y303186D01*
X151953Y303475D01*
X151609D01*
X151275Y303975D01*
X151309Y304059D01*
Y304815D01*
X151020Y305513D01*
X150486Y306047D01*
X149787Y306337D01*
D02*
G37*
G36*
X76461Y308987D02*
X75705D01*
X75007Y308697D01*
X74472Y308163D01*
X74183Y307465D01*
Y306709D01*
X74472Y306010D01*
X75007Y305476D01*
X75705Y305187D01*
X76461D01*
X77159Y305476D01*
X77693Y306010D01*
X77983Y306709D01*
Y307465D01*
X77693Y308163D01*
X77159Y308697D01*
X76461Y308987D01*
D02*
G37*
G36*
X296835Y306034D02*
X296079D01*
X295380Y305745D01*
X294846Y305210D01*
X294557Y304512D01*
Y303756D01*
X294624Y303593D01*
X294241Y303211D01*
X294079Y303278D01*
X293323D01*
X292624Y302989D01*
X292090Y302454D01*
X291801Y301756D01*
Y301000D01*
X292090Y300302D01*
X292624Y299767D01*
X293323Y299478D01*
X294079D01*
X294777Y299767D01*
X295311Y300302D01*
X295601Y301000D01*
Y301756D01*
X295533Y301919D01*
X295916Y302301D01*
X296079Y302234D01*
X296835D01*
X297533Y302523D01*
X298067Y303058D01*
X298357Y303756D01*
Y304512D01*
X298067Y305210D01*
X297533Y305745D01*
X296835Y306034D01*
D02*
G37*
G36*
X173803Y308987D02*
X173047D01*
X172349Y308697D01*
X171815Y308163D01*
X171525Y307465D01*
Y307018D01*
X171079D01*
X170380Y306729D01*
X169846Y306194D01*
X169557Y305496D01*
Y304740D01*
X169846Y304042D01*
X170380Y303507D01*
X171079Y303218D01*
X171525D01*
Y302772D01*
X171815Y302073D01*
X172349Y301539D01*
X173047Y301250D01*
X173803D01*
X174502Y301539D01*
X175036Y302073D01*
X175325Y302772D01*
Y303527D01*
X175036Y304226D01*
X174502Y304760D01*
X174291Y304848D01*
Y305389D01*
X174502Y305476D01*
X175036Y306010D01*
X175325Y306709D01*
Y307465D01*
X175036Y308163D01*
X174502Y308697D01*
X173803Y308987D01*
D02*
G37*
G36*
X125772Y303672D02*
X125016D01*
X124317Y303382D01*
X123783Y302848D01*
X123494Y302150D01*
Y301394D01*
X123783Y300695D01*
X124317Y300161D01*
X125016Y299872D01*
X125772D01*
X126470Y300161D01*
X127004Y300695D01*
X127294Y301394D01*
Y302150D01*
X127004Y302848D01*
X126470Y303382D01*
X125772Y303672D01*
D02*
G37*
G36*
X81579D02*
X80823D01*
X80125Y303382D01*
X79590Y302848D01*
X79301Y302150D01*
Y301394D01*
X79590Y300695D01*
X80125Y300161D01*
X80823Y299872D01*
X81579D01*
X82277Y300161D01*
X82812Y300695D01*
X83101Y301394D01*
Y302150D01*
X82812Y302848D01*
X82277Y303382D01*
X81579Y303672D01*
D02*
G37*
G36*
X165339Y303278D02*
X164583D01*
X163884Y302989D01*
X163350Y302454D01*
X163061Y301756D01*
Y301000D01*
X163350Y300302D01*
X163884Y299767D01*
X164583Y299478D01*
X165339D01*
X166037Y299767D01*
X166571Y300302D01*
X166861Y301000D01*
Y301756D01*
X166571Y302454D01*
X166037Y302989D01*
X165339Y303278D01*
D02*
G37*
G36*
X331283Y302490D02*
X330528D01*
X329829Y302201D01*
X329295Y301667D01*
X329006Y300969D01*
Y300213D01*
X329295Y299514D01*
X329829Y298980D01*
X330528Y298691D01*
X331283D01*
X331982Y298980D01*
X332516Y299514D01*
X332805Y300213D01*
Y300969D01*
X332516Y301667D01*
X331982Y302201D01*
X331283Y302490D01*
D02*
G37*
G36*
X315339D02*
X314583D01*
X313884Y302201D01*
X313350Y301667D01*
X313061Y300969D01*
Y300213D01*
X313350Y299514D01*
X313884Y298980D01*
X314583Y298691D01*
X315339D01*
X316037Y298980D01*
X316571Y299514D01*
X316861Y300213D01*
Y300969D01*
X316571Y301667D01*
X316037Y302201D01*
X315339Y302490D01*
D02*
G37*
G36*
X155004Y295601D02*
X154248D01*
X153550Y295311D01*
X153540Y295302D01*
X153530Y295311D01*
X152831Y295601D01*
X152076D01*
X151377Y295311D01*
X150843Y294777D01*
X150554Y294079D01*
Y293323D01*
X150843Y292624D01*
X151377Y292090D01*
X152076Y291801D01*
X152831D01*
X153530Y292090D01*
X153540Y292100D01*
X153550Y292090D01*
X154248Y291801D01*
X155004D01*
X155702Y292090D01*
X156237Y292624D01*
X156526Y293323D01*
Y294079D01*
X156237Y294777D01*
X155702Y295311D01*
X155004Y295601D01*
D02*
G37*
G36*
X239551Y298553D02*
X238795D01*
X238097Y298264D01*
X237562Y297730D01*
X237273Y297031D01*
Y296276D01*
X237562Y295577D01*
X238097Y295043D01*
X238795Y294754D01*
X239551D01*
X240249Y295043D01*
X240784Y295577D01*
X241073Y296276D01*
Y297031D01*
X240784Y297730D01*
X240249Y298264D01*
X239551Y298553D01*
D02*
G37*
G36*
X234433D02*
X233677D01*
X232979Y298264D01*
X232444Y297730D01*
X232155Y297031D01*
Y296276D01*
X232444Y295577D01*
X232979Y295043D01*
X233677Y294754D01*
X234433D01*
X235131Y295043D01*
X235666Y295577D01*
X235955Y296276D01*
Y297031D01*
X235666Y297730D01*
X235131Y298264D01*
X234433Y298553D01*
D02*
G37*
G36*
X321441Y297963D02*
X320685D01*
X319987Y297674D01*
X319452Y297139D01*
X319163Y296441D01*
Y295685D01*
X319452Y294987D01*
X319987Y294452D01*
X320685Y294163D01*
X321441D01*
X322139Y294452D01*
X322674Y294987D01*
X322963Y295685D01*
Y296441D01*
X322674Y297139D01*
X322139Y297674D01*
X321441Y297963D01*
D02*
G37*
G36*
X265761Y296585D02*
X265005D01*
X264306Y296296D01*
X263772Y295761D01*
X263483Y295063D01*
Y294307D01*
X263772Y293609D01*
X264306Y293074D01*
X265005Y292785D01*
X265761D01*
X266459Y293074D01*
X266993Y293609D01*
X267283Y294307D01*
Y295063D01*
X266993Y295761D01*
X266459Y296296D01*
X265761Y296585D01*
D02*
G37*
G36*
X139846Y295404D02*
X139090D01*
X138392Y295114D01*
X137857Y294580D01*
X137568Y293882D01*
Y293126D01*
X137857Y292427D01*
X138392Y291893D01*
X139090Y291604D01*
X139846D01*
X140544Y291893D01*
X141079Y292427D01*
X141368Y293126D01*
Y293882D01*
X141079Y294580D01*
X140544Y295114D01*
X139846Y295404D01*
D02*
G37*
G36*
X245260Y294813D02*
X244504D01*
X243806Y294524D01*
X243271Y293990D01*
X242982Y293291D01*
Y292535D01*
X243271Y291837D01*
X243806Y291303D01*
X244504Y291013D01*
X245260D01*
X245958Y291303D01*
X246493Y291837D01*
X246782Y292535D01*
Y293291D01*
X246493Y293990D01*
X245958Y294524D01*
X245260Y294813D01*
D02*
G37*
G36*
X334039Y294223D02*
X333283D01*
X332585Y293934D01*
X332051Y293399D01*
X331761Y292701D01*
Y291945D01*
X332051Y291247D01*
X332585Y290712D01*
X333283Y290423D01*
X334039D01*
X334738Y290712D01*
X335272Y291247D01*
X335561Y291945D01*
Y292701D01*
X335272Y293399D01*
X334738Y293934D01*
X334039Y294223D01*
D02*
G37*
G36*
X259827Y291148D02*
X259071D01*
X258373Y290859D01*
X257838Y290325D01*
X257751Y290114D01*
X257210D01*
X257123Y290325D01*
X256588Y290859D01*
X255890Y291148D01*
X255134D01*
X254436Y290859D01*
X253901Y290325D01*
X253612Y289626D01*
Y288871D01*
X253901Y288172D01*
X254436Y287638D01*
X255134Y287348D01*
X255890D01*
X256588Y287638D01*
X257123Y288172D01*
X257210Y288383D01*
X257751D01*
X257838Y288172D01*
X258373Y287638D01*
X259071Y287348D01*
X259827D01*
X260525Y287638D01*
X261060Y288172D01*
X261349Y288871D01*
Y289626D01*
X261060Y290325D01*
X260525Y290859D01*
X259827Y291148D01*
D02*
G37*
G36*
X241717Y289737D02*
X240961D01*
X240262Y289447D01*
X239728Y288913D01*
X239439Y288214D01*
Y287459D01*
X239728Y286760D01*
X240262Y286226D01*
X240227Y285699D01*
X240029Y285220D01*
Y284465D01*
X240318Y283766D01*
X240853Y283232D01*
X241551Y282943D01*
X242307D01*
X243005Y283232D01*
X243540Y283766D01*
X243829Y284465D01*
Y285220D01*
X243623Y285719D01*
X244005Y286102D01*
X244504Y285895D01*
X245260D01*
X245958Y286185D01*
X246493Y286719D01*
X246782Y287417D01*
Y288173D01*
X246493Y288872D01*
X245958Y289406D01*
X245260Y289695D01*
X244504D01*
X243806Y289406D01*
X243438Y289039D01*
X243081Y288947D01*
X242806Y289056D01*
X242415Y289447D01*
X241717Y289737D01*
D02*
G37*
G36*
X134877Y290207D02*
X134121D01*
X133423Y289918D01*
X132888Y289384D01*
X132599Y288685D01*
Y287929D01*
X132888Y287231D01*
X133423Y286697D01*
X134121Y286407D01*
X134299D01*
Y285961D01*
X134588Y285262D01*
X135123Y284728D01*
X135821Y284439D01*
X136577D01*
X137275Y284728D01*
X137810Y285262D01*
X138099Y285961D01*
Y286717D01*
X137810Y287415D01*
X137275Y287949D01*
X136577Y288239D01*
X136399D01*
Y288685D01*
X136109Y289384D01*
X135575Y289918D01*
X134877Y290207D01*
D02*
G37*
G36*
X306509Y290089D02*
X305753D01*
X305054Y289800D01*
X304520Y289265D01*
X304231Y288567D01*
Y287811D01*
X304520Y287113D01*
X304899Y286733D01*
X305002Y286417D01*
X304899Y286101D01*
X304520Y285722D01*
X304231Y285024D01*
Y284268D01*
X304520Y283569D01*
X305054Y283035D01*
X305753Y282746D01*
X306509D01*
X307207Y283035D01*
X307741Y283569D01*
X308031Y284268D01*
Y285024D01*
X307741Y285722D01*
X307362Y286101D01*
X307259Y286417D01*
X307362Y286733D01*
X307741Y287113D01*
X308031Y287811D01*
Y288567D01*
X307741Y289265D01*
X307207Y289800D01*
X306509Y290089D01*
D02*
G37*
G36*
X337189Y285365D02*
X336433D01*
X335735Y285075D01*
X335200Y284541D01*
X334911Y283842D01*
Y283087D01*
X335200Y282388D01*
X335735Y281854D01*
X336433Y281565D01*
X337189D01*
X337887Y281854D01*
X338422Y282388D01*
X338711Y283087D01*
Y283842D01*
X338422Y284541D01*
X337887Y285075D01*
X337189Y285365D01*
D02*
G37*
G36*
X144306Y281889D02*
X143550D01*
X142852Y281600D01*
X142317Y281065D01*
X142028Y280367D01*
Y279611D01*
X142317Y278913D01*
X142852Y278378D01*
X143550Y278089D01*
X144306D01*
X145004Y278378D01*
X145539Y278913D01*
X145828Y279611D01*
Y280367D01*
X145539Y281065D01*
X145004Y281600D01*
X144306Y281889D01*
D02*
G37*
G36*
X294085Y285485D02*
X293329D01*
X292631Y285196D01*
X292096Y284661D01*
X291807Y283963D01*
Y283207D01*
X292096Y282509D01*
X292272Y282333D01*
X292118Y282179D01*
X291829Y281480D01*
Y280724D01*
X292118Y280026D01*
X292389Y279756D01*
X292611Y279429D01*
X292389Y279102D01*
X292118Y278832D01*
X291829Y278134D01*
Y277378D01*
X292118Y276680D01*
X292653Y276145D01*
X293351Y275856D01*
X294107D01*
X294805Y276145D01*
X295340Y276680D01*
X295629Y277378D01*
Y278134D01*
X295340Y278832D01*
X295070Y279102D01*
X294848Y279429D01*
X295070Y279756D01*
X295340Y280026D01*
X295629Y280724D01*
Y281480D01*
X295340Y282179D01*
X295164Y282355D01*
X295318Y282509D01*
X295607Y283207D01*
Y283963D01*
X295318Y284661D01*
X294783Y285196D01*
X294085Y285485D01*
D02*
G37*
G36*
X261430Y279656D02*
X260674D01*
X259976Y279367D01*
X259441Y278832D01*
X259152Y278134D01*
Y277378D01*
X259441Y276680D01*
X259976Y276145D01*
X260674Y275856D01*
X261430D01*
X262128Y276145D01*
X262663Y276680D01*
X262952Y277378D01*
Y278134D01*
X262663Y278832D01*
X262128Y279367D01*
X261430Y279656D01*
D02*
G37*
G36*
X134877Y279184D02*
X134121D01*
X133423Y278894D01*
X132888Y278360D01*
X132599Y277662D01*
Y276906D01*
X132888Y276207D01*
X133423Y275673D01*
X134121Y275384D01*
X134877D01*
X135575Y275673D01*
X136109Y276207D01*
X136399Y276906D01*
Y277662D01*
X136109Y278360D01*
X135575Y278894D01*
X134877Y279184D01*
D02*
G37*
G36*
X164453Y278475D02*
X163697D01*
X162999Y278186D01*
X162464Y277651D01*
X162175Y276953D01*
Y276197D01*
X162464Y275499D01*
X162999Y274964D01*
X163697Y274675D01*
X164453D01*
X165151Y274964D01*
X165686Y275499D01*
X165975Y276197D01*
Y276953D01*
X165686Y277651D01*
X165151Y278186D01*
X164453Y278475D01*
D02*
G37*
G36*
X216717Y281624D02*
X215961D01*
X215262Y281335D01*
X214728Y280801D01*
X214439Y280102D01*
Y279346D01*
X214728Y278648D01*
X215107Y278269D01*
X215210Y277953D01*
X215107Y277637D01*
X214728Y277257D01*
X214439Y276559D01*
Y275803D01*
X214728Y275105D01*
X215262Y274570D01*
X215961Y274281D01*
X216717D01*
X217415Y274570D01*
X217949Y275105D01*
X218239Y275803D01*
Y276559D01*
X217949Y277257D01*
X217570Y277637D01*
X217467Y277953D01*
X217570Y278269D01*
X217949Y278648D01*
X218239Y279346D01*
Y280102D01*
X217949Y280801D01*
X217415Y281335D01*
X216717Y281624D01*
D02*
G37*
G36*
X248085Y280246D02*
X247329D01*
X246631Y279957D01*
X246096Y279423D01*
X245807Y278724D01*
Y277969D01*
X246096Y277270D01*
X246631Y276736D01*
X247329Y276447D01*
X247954D01*
X248330Y276048D01*
X248297Y275969D01*
Y275213D01*
X248586Y274514D01*
X249121Y273980D01*
X249819Y273691D01*
X250575D01*
X251273Y273980D01*
X251808Y274514D01*
X252097Y275213D01*
Y275969D01*
X251808Y276667D01*
X251273Y277201D01*
X250575Y277490D01*
X249950D01*
X249574Y277889D01*
X249607Y277969D01*
Y278724D01*
X249318Y279423D01*
X248783Y279957D01*
X248085Y280246D01*
D02*
G37*
G36*
X242138Y277463D02*
X241382D01*
X240684Y277173D01*
X240149Y276639D01*
X239860Y275940D01*
Y275185D01*
X240149Y274486D01*
X240684Y273952D01*
X241382Y273663D01*
X242138D01*
X242836Y273952D01*
X243371Y274486D01*
X243660Y275185D01*
Y275940D01*
X243371Y276639D01*
X242836Y277173D01*
X242138Y277463D01*
D02*
G37*
G36*
X159581Y272884D02*
X158826D01*
X158127Y272595D01*
X157826Y272294D01*
X157499Y272113D01*
X157173Y272294D01*
X156871Y272595D01*
X156173Y272884D01*
X155417D01*
X154718Y272595D01*
X154645Y272521D01*
X154571Y272595D01*
X153873Y272884D01*
X153117D01*
X152418Y272595D01*
X152148Y272325D01*
X151822Y272103D01*
X151495Y272325D01*
X151225Y272595D01*
X150526Y272884D01*
X149770D01*
X149072Y272595D01*
X148538Y272061D01*
X148248Y271362D01*
Y270606D01*
X148538Y269908D01*
X149072Y269374D01*
X149770Y269085D01*
X150526D01*
X151225Y269374D01*
X151495Y269644D01*
X151822Y269866D01*
X152148Y269644D01*
X152418Y269374D01*
X153117Y269085D01*
X153873D01*
X154571Y269374D01*
X154645Y269447D01*
X154718Y269374D01*
X155417Y269085D01*
X156173D01*
X156871Y269374D01*
X157173Y269675D01*
X157499Y269856D01*
X157826Y269675D01*
X158127Y269374D01*
X158826Y269085D01*
X159581D01*
X160280Y269374D01*
X160814Y269908D01*
X161103Y270606D01*
Y271362D01*
X160814Y272061D01*
X160280Y272595D01*
X159581Y272884D01*
D02*
G37*
G36*
X321441Y274932D02*
X320685D01*
X319987Y274642D01*
X319452Y274108D01*
X319163Y273409D01*
Y272654D01*
X319452Y271955D01*
X319987Y271421D01*
X320685Y271131D01*
X321441D01*
X322139Y271421D01*
X322674Y271955D01*
X322963Y272654D01*
Y273409D01*
X322674Y274108D01*
X322139Y274642D01*
X321441Y274932D01*
D02*
G37*
G36*
X173077Y277388D02*
X172396D01*
X171739Y277212D01*
X171149Y276872D01*
X170668Y276390D01*
X170327Y275801D01*
X170151Y275144D01*
Y274463D01*
X170327Y273805D01*
X170415Y273653D01*
X170327Y273501D01*
X170151Y272844D01*
Y272163D01*
X170327Y271505D01*
X170668Y270916D01*
X171149Y270435D01*
X171739Y270094D01*
X172396Y269918D01*
X173077D01*
X173734Y270094D01*
X174323Y270435D01*
X174805Y270916D01*
X175145Y271505D01*
X175321Y272163D01*
Y272844D01*
X175145Y273501D01*
X175057Y273653D01*
X175145Y273805D01*
X175321Y274463D01*
Y275144D01*
X175145Y275801D01*
X174805Y276390D01*
X174323Y276872D01*
X173734Y277212D01*
X173077Y277388D01*
D02*
G37*
G36*
X222136Y273742D02*
X221381D01*
X220682Y273452D01*
X220148Y272918D01*
X219859Y272220D01*
Y271464D01*
X220148Y270765D01*
X220682Y270231D01*
X221381Y269942D01*
X222136D01*
X222835Y270231D01*
X223165Y270561D01*
X223600Y270636D01*
X223788Y270531D01*
X224205Y270114D01*
X224903Y269825D01*
X225659D01*
X226357Y270114D01*
X226892Y270649D01*
X227181Y271347D01*
Y272103D01*
X226892Y272801D01*
X226357Y273336D01*
X225659Y273625D01*
X224903D01*
X224205Y273336D01*
X223874Y273005D01*
X223440Y272930D01*
X223252Y273036D01*
X222835Y273452D01*
X222136Y273742D01*
D02*
G37*
G36*
X310976Y270994D02*
X310220D01*
X309522Y270705D01*
X308987Y270171D01*
X308698Y269472D01*
Y268717D01*
X308987Y268018D01*
X309522Y267484D01*
X310220Y267195D01*
X310976D01*
X311674Y267484D01*
X312209Y268018D01*
X312498Y268717D01*
Y269472D01*
X312209Y270171D01*
X311674Y270705D01*
X310976Y270994D01*
D02*
G37*
G36*
X236992Y269026D02*
X236236D01*
X235538Y268737D01*
X235003Y268202D01*
X234714Y267504D01*
Y266748D01*
X235003Y266050D01*
X235538Y265515D01*
X236236Y265226D01*
X236992D01*
X237690Y265515D01*
X238225Y266050D01*
X238514Y266748D01*
Y267504D01*
X238225Y268202D01*
X237690Y268737D01*
X236992Y269026D01*
D02*
G37*
G36*
X130791Y268239D02*
X130035D01*
X129337Y267949D01*
X128803Y267415D01*
X128513Y266717D01*
Y265961D01*
X128803Y265262D01*
X129337Y264728D01*
X130035Y264439D01*
X130791D01*
X131490Y264728D01*
X132024Y265262D01*
X132313Y265961D01*
Y266717D01*
X132024Y267415D01*
X131490Y267949D01*
X130791Y268239D01*
D02*
G37*
G36*
X120571Y295669D02*
X58563D01*
Y279331D01*
X53937D01*
X44094Y269488D01*
X44094Y241339D01*
X48405D01*
X48464Y241323D01*
X49764D01*
X49823Y241339D01*
X54134D01*
X54134Y266535D01*
X58101Y270503D01*
X58563Y270311D01*
Y228346D01*
X120571D01*
Y264919D01*
X121071Y265120D01*
X121463Y264728D01*
X122161Y264439D01*
X122917D01*
X123616Y264728D01*
X124150Y265262D01*
X124439Y265961D01*
Y266717D01*
X124150Y267415D01*
X123616Y267949D01*
X122917Y268239D01*
X122161D01*
X121463Y267949D01*
X121071Y267557D01*
X120571Y267758D01*
Y295669D01*
D02*
G37*
G36*
X248803Y266664D02*
X248047D01*
X247349Y266374D01*
X246814Y265840D01*
X246525Y265142D01*
Y264386D01*
X246814Y263687D01*
X247349Y263153D01*
X248047Y262864D01*
X248803D01*
X249501Y263153D01*
X250036Y263687D01*
X250325Y264386D01*
Y265142D01*
X250036Y265840D01*
X249501Y266374D01*
X248803Y266664D01*
D02*
G37*
G36*
X19046Y267726D02*
X18905D01*
Y261720D01*
X24911D01*
Y261861D01*
X24661Y263118D01*
X24171Y264302D01*
X23459Y265368D01*
X22553Y266274D01*
X21487Y266986D01*
X20303Y267476D01*
X19046Y267726D01*
D02*
G37*
G36*
X17905D02*
X17765D01*
X16508Y267476D01*
X15324Y266986D01*
X14258Y266274D01*
X13352Y265368D01*
X12640Y264302D01*
X12150Y263118D01*
X11900Y261861D01*
Y261720D01*
X17905D01*
Y267726D01*
D02*
G37*
G36*
X345314Y269366D02*
X344558D01*
X343859Y269077D01*
X343325Y268542D01*
X343036Y267844D01*
Y267088D01*
X343325Y266390D01*
X343859Y265855D01*
X343978Y265806D01*
Y265265D01*
X343806Y265193D01*
X343271Y264659D01*
X342982Y263961D01*
Y263205D01*
X343271Y262506D01*
X343806Y261972D01*
X344504Y261683D01*
X345260D01*
X345958Y261972D01*
X346493Y262506D01*
X346782Y263205D01*
Y263961D01*
X346493Y264659D01*
X345958Y265193D01*
X345840Y265243D01*
Y265784D01*
X346012Y265855D01*
X346546Y266390D01*
X346836Y267088D01*
Y267844D01*
X346546Y268542D01*
X346012Y269077D01*
X345314Y269366D01*
D02*
G37*
G36*
X350772Y265089D02*
X350016D01*
X349317Y264800D01*
X348783Y264265D01*
X348494Y263567D01*
Y262811D01*
X348783Y262113D01*
X349317Y261578D01*
X350016Y261289D01*
X350772D01*
X351470Y261578D01*
X352004Y262113D01*
X352294Y262811D01*
Y263567D01*
X352004Y264265D01*
X351470Y264800D01*
X350772Y265089D01*
D02*
G37*
G36*
X234433Y264105D02*
X233677D01*
X232979Y263815D01*
X232444Y263281D01*
X232155Y262583D01*
Y261827D01*
X232444Y261128D01*
X232979Y260594D01*
X233677Y260305D01*
X234433D01*
X235131Y260594D01*
X235666Y261128D01*
X235955Y261827D01*
Y262583D01*
X235666Y263281D01*
X235131Y263815D01*
X234433Y264105D01*
D02*
G37*
G36*
X227543D02*
X226787D01*
X226089Y263815D01*
X225555Y263281D01*
X225265Y262583D01*
Y261827D01*
X225555Y261128D01*
X226089Y260594D01*
X226787Y260305D01*
X227543D01*
X228242Y260594D01*
X228776Y261128D01*
X229065Y261827D01*
Y262583D01*
X228776Y263281D01*
X228242Y263815D01*
X227543Y264105D01*
D02*
G37*
G36*
X230890Y260955D02*
X230134D01*
X229435Y260666D01*
X228901Y260131D01*
X228612Y259433D01*
Y258677D01*
X228901Y257979D01*
X229435Y257444D01*
X230134Y257155D01*
X230890D01*
X231588Y257444D01*
X232122Y257979D01*
X232412Y258677D01*
Y259433D01*
X232122Y260131D01*
X231588Y260666D01*
X230890Y260955D01*
D02*
G37*
G36*
X140881Y259892D02*
X140125D01*
X139426Y259603D01*
X138892Y259069D01*
X138603Y258370D01*
Y257614D01*
X138892Y256916D01*
X139426Y256382D01*
X140125Y256092D01*
X140881D01*
X141579Y256382D01*
X142113Y256916D01*
X142403Y257614D01*
Y258370D01*
X142113Y259069D01*
X141579Y259603D01*
X140881Y259892D01*
D02*
G37*
G36*
X24911Y260720D02*
X18905D01*
Y254715D01*
X19046D01*
X20303Y254965D01*
X21487Y255455D01*
X22553Y256167D01*
X23459Y257073D01*
X24171Y258139D01*
X24661Y259323D01*
X24911Y260580D01*
Y260720D01*
D02*
G37*
G36*
X17905D02*
X11900D01*
Y260580D01*
X12150Y259323D01*
X12640Y258139D01*
X13352Y257073D01*
X14258Y256167D01*
X15324Y255455D01*
X16508Y254965D01*
X17765Y254715D01*
X17905D01*
Y260720D01*
D02*
G37*
G36*
X338446Y254618D02*
X337970D01*
Y242707D01*
X349881D01*
Y243184D01*
X349575Y245113D01*
X348972Y246972D01*
X348085Y248712D01*
X346936Y250292D01*
X345555Y251674D01*
X343974Y252822D01*
X342234Y253709D01*
X340376Y254313D01*
X338446Y254618D01*
D02*
G37*
G36*
X336970D02*
X336493D01*
X334563Y254313D01*
X332706Y253709D01*
X330965Y252822D01*
X329384Y251674D01*
X328003Y250292D01*
X326855Y248712D01*
X325968Y246972D01*
X325364Y245113D01*
X325059Y243184D01*
Y242707D01*
X336970D01*
Y254618D01*
D02*
G37*
G36*
X204588D02*
X204112D01*
Y242707D01*
X216022D01*
Y243184D01*
X215717Y245113D01*
X215113Y246972D01*
X214226Y248712D01*
X213078Y250292D01*
X211697Y251674D01*
X210116Y252822D01*
X208376Y253709D01*
X206518Y254313D01*
X204588Y254618D01*
D02*
G37*
G36*
X203112D02*
X202635D01*
X200705Y254313D01*
X198847Y253709D01*
X197107Y252822D01*
X195526Y251674D01*
X194145Y250292D01*
X192997Y248712D01*
X192110Y246972D01*
X191506Y245113D01*
X191200Y243184D01*
Y242707D01*
X203112D01*
Y254618D01*
D02*
G37*
G36*
X153676Y243357D02*
X152920D01*
X152222Y243068D01*
X151687Y242533D01*
X151398Y241835D01*
Y241079D01*
X151687Y240381D01*
X152222Y239846D01*
X152920Y239557D01*
X153676D01*
X154374Y239846D01*
X154909Y240381D01*
X155198Y241079D01*
Y241835D01*
X154909Y242533D01*
X154374Y243068D01*
X153676Y243357D01*
D02*
G37*
G36*
X140881Y243160D02*
X140125D01*
X139426Y242871D01*
X138892Y242336D01*
X138603Y241638D01*
Y240882D01*
X138892Y240184D01*
X139426Y239649D01*
X140125Y239360D01*
X140881D01*
X141579Y239649D01*
X142113Y240184D01*
X142403Y240882D01*
Y241638D01*
X142113Y242336D01*
X141579Y242871D01*
X140881Y243160D01*
D02*
G37*
G36*
X153676Y238239D02*
X152920D01*
X152222Y237949D01*
X151687Y237415D01*
X151398Y236717D01*
Y235961D01*
X151687Y235262D01*
X152222Y234728D01*
X152920Y234439D01*
X153676D01*
X154374Y234728D01*
X154909Y235262D01*
X155198Y235961D01*
Y236717D01*
X154909Y237415D01*
X154374Y237949D01*
X153676Y238239D01*
D02*
G37*
G36*
X19046Y237805D02*
X18905D01*
Y231799D01*
X24911D01*
Y231940D01*
X24661Y233197D01*
X24171Y234381D01*
X23459Y235446D01*
X22553Y236352D01*
X21487Y237064D01*
X20303Y237555D01*
X19046Y237805D01*
D02*
G37*
G36*
X17906D02*
X17765D01*
X16508Y237555D01*
X15324Y237064D01*
X14258Y236352D01*
X13352Y235446D01*
X12640Y234381D01*
X12150Y233197D01*
X11900Y231940D01*
Y231799D01*
X17906D01*
Y237805D01*
D02*
G37*
G36*
X349881Y241707D02*
X337970D01*
Y229796D01*
X338446D01*
X340376Y230102D01*
X342234Y230705D01*
X343974Y231592D01*
X345555Y232741D01*
X346936Y234122D01*
X348085Y235702D01*
X348972Y237443D01*
X349575Y239301D01*
X349881Y241231D01*
Y241707D01*
D02*
G37*
G36*
X336970D02*
X325059D01*
Y241231D01*
X325364Y239301D01*
X325968Y237443D01*
X326855Y235702D01*
X328003Y234122D01*
X329384Y232741D01*
X330965Y231592D01*
X332706Y230705D01*
X334563Y230102D01*
X336493Y229796D01*
X336970D01*
Y241707D01*
D02*
G37*
G36*
X216022D02*
X204112D01*
Y229796D01*
X204588D01*
X206518Y230102D01*
X208376Y230705D01*
X210116Y231592D01*
X211697Y232741D01*
X213078Y234122D01*
X214226Y235702D01*
X215113Y237443D01*
X215717Y239301D01*
X216022Y241231D01*
Y241707D01*
D02*
G37*
G36*
X203112D02*
X191200D01*
Y241231D01*
X191506Y239301D01*
X192110Y237443D01*
X192997Y235702D01*
X194145Y234122D01*
X195526Y232741D01*
X197107Y231592D01*
X198847Y230705D01*
X200705Y230102D01*
X202635Y229796D01*
X203112D01*
Y241707D01*
D02*
G37*
G36*
X140873Y233231D02*
X140117D01*
X139419Y232942D01*
X138884Y232408D01*
X138595Y231709D01*
Y230953D01*
X138884Y230255D01*
X139419Y229721D01*
X140117Y229431D01*
X140873D01*
X141571Y229721D01*
X142106Y230255D01*
X142395Y230953D01*
Y231709D01*
X142106Y232408D01*
X141571Y232942D01*
X140873Y233231D01*
D02*
G37*
G36*
X24911Y230799D02*
X18905D01*
Y224794D01*
X19046D01*
X20303Y225044D01*
X21487Y225534D01*
X22553Y226246D01*
X23459Y227152D01*
X24171Y228218D01*
X24661Y229402D01*
X24911Y230658D01*
Y230799D01*
D02*
G37*
G36*
X17906D02*
X11900D01*
Y230658D01*
X12150Y229402D01*
X12640Y228218D01*
X13352Y227152D01*
X14258Y226246D01*
X15324Y225534D01*
X16508Y225044D01*
X17765Y224794D01*
X17906D01*
Y230799D01*
D02*
G37*
G36*
X149107Y221696D02*
X148351D01*
X147652Y221406D01*
X147481Y221235D01*
X147310Y221406D01*
X146612Y221696D01*
X145856D01*
X145158Y221406D01*
X144623Y220872D01*
X144334Y220174D01*
Y219418D01*
X144623Y218719D01*
X145158Y218185D01*
X145856Y217896D01*
X146612D01*
X147310Y218185D01*
X147481Y218356D01*
X147652Y218185D01*
X148351Y217896D01*
X148744D01*
X149122Y217512D01*
X149125Y217434D01*
Y216753D01*
X149415Y216054D01*
X149949Y215520D01*
X150647Y215231D01*
X151403D01*
X152102Y215520D01*
X152636Y216054D01*
X152925Y216753D01*
Y217509D01*
X152636Y218207D01*
X152102Y218741D01*
X151403Y219031D01*
X151010D01*
X150632Y219414D01*
X150629Y219493D01*
Y220174D01*
X150339Y220872D01*
X149805Y221406D01*
X149107Y221696D01*
D02*
G37*
G36*
X76461Y224346D02*
X75705D01*
X75007Y224056D01*
X74472Y223522D01*
X74183Y222824D01*
Y222068D01*
X74472Y221369D01*
X75007Y220835D01*
X75705Y220546D01*
X76461D01*
X77159Y220835D01*
X77693Y221369D01*
X77983Y222068D01*
Y222824D01*
X77693Y223522D01*
X77159Y224056D01*
X76461Y224346D01*
D02*
G37*
G36*
X173122D02*
X172367D01*
X171668Y224056D01*
X171134Y223522D01*
X170844Y222824D01*
Y222377D01*
X170398D01*
X169700Y222088D01*
X169165Y221553D01*
X168876Y220855D01*
Y220099D01*
X169165Y219401D01*
X169700Y218866D01*
X170398Y218577D01*
X170844D01*
Y218131D01*
X171134Y217432D01*
X171668Y216898D01*
X172367Y216609D01*
X173122D01*
X173821Y216898D01*
X174355Y217432D01*
X174644Y218131D01*
Y218886D01*
X174355Y219585D01*
X173821Y220119D01*
X173610Y220206D01*
Y220748D01*
X173821Y220835D01*
X174355Y221369D01*
X174644Y222068D01*
Y222824D01*
X174355Y223522D01*
X173821Y224056D01*
X173122Y224346D01*
D02*
G37*
G36*
X81579Y219031D02*
X80823D01*
X80125Y218741D01*
X79590Y218207D01*
X79301Y217509D01*
Y216753D01*
X79590Y216054D01*
X80125Y215520D01*
X80823Y215231D01*
X81579D01*
X82277Y215520D01*
X82812Y216054D01*
X83101Y216753D01*
Y217509D01*
X82812Y218207D01*
X82277Y218741D01*
X81579Y219031D01*
D02*
G37*
G36*
X125969Y219026D02*
X125213D01*
X124514Y218737D01*
X123980Y218202D01*
X123691Y217504D01*
Y216748D01*
X123980Y216050D01*
X124514Y215515D01*
X125213Y215226D01*
X125969D01*
X126667Y215515D01*
X127201Y216050D01*
X127491Y216748D01*
Y217504D01*
X127201Y218202D01*
X126667Y218737D01*
X125969Y219026D01*
D02*
G37*
G36*
X212575Y218094D02*
Y215050D01*
X215619D01*
X215385Y215921D01*
X214918Y216731D01*
X214256Y217393D01*
X213446Y217860D01*
X212575Y218094D01*
D02*
G37*
G36*
X211575Y218094D02*
X210703Y217860D01*
X209893Y217393D01*
X209232Y216731D01*
X208764Y215921D01*
X208531Y215050D01*
X211575D01*
Y218094D01*
D02*
G37*
G36*
X338559Y218094D02*
Y215050D01*
X341603D01*
X341370Y215921D01*
X340902Y216731D01*
X340241Y217393D01*
X339430Y217860D01*
X338559Y218094D01*
D02*
G37*
G36*
X337559D02*
X336688Y217860D01*
X335878Y217393D01*
X335216Y216731D01*
X334748Y215921D01*
X334515Y215050D01*
X337559D01*
Y218094D01*
D02*
G37*
G36*
X165339Y218637D02*
X164583D01*
X163884Y218348D01*
X163350Y217813D01*
X163061Y217115D01*
Y216359D01*
X163350Y215661D01*
X163884Y215126D01*
X164583Y214837D01*
X165339D01*
X166037Y215126D01*
X166571Y215661D01*
X166861Y216359D01*
Y217115D01*
X166571Y217813D01*
X166037Y218348D01*
X165339Y218637D01*
D02*
G37*
G36*
X215619Y214050D02*
X212575D01*
Y211006D01*
X213446Y211239D01*
X214256Y211707D01*
X214918Y212368D01*
X215385Y213178D01*
X215619Y214050D01*
D02*
G37*
G36*
X341603Y214050D02*
X338559D01*
Y211006D01*
X339430Y211239D01*
X340241Y211707D01*
X340902Y212368D01*
X341370Y213178D01*
X341603Y214050D01*
D02*
G37*
G36*
X337559D02*
X334515D01*
X334748Y213178D01*
X335216Y212368D01*
X335878Y211707D01*
X336688Y211239D01*
X337559Y211006D01*
Y214050D01*
D02*
G37*
G36*
X211575Y214050D02*
X208531D01*
X208764Y213178D01*
X209232Y212368D01*
X209893Y211707D01*
X210703Y211239D01*
X211575Y211006D01*
Y214050D01*
D02*
G37*
G36*
X155004Y210960D02*
X154248D01*
X153550Y210670D01*
X153540Y210661D01*
X153530Y210670D01*
X152831Y210960D01*
X152076D01*
X151377Y210670D01*
X150843Y210136D01*
X150554Y209438D01*
Y208682D01*
X150843Y207983D01*
X151377Y207449D01*
X152076Y207160D01*
X152831D01*
X153530Y207449D01*
X153540Y207459D01*
X153550Y207449D01*
X154248Y207160D01*
X155004D01*
X155702Y207449D01*
X156237Y207983D01*
X156526Y208682D01*
Y209438D01*
X156237Y210136D01*
X155702Y210670D01*
X155004Y210960D01*
D02*
G37*
G36*
X233985Y218323D02*
X232944D01*
X231939Y218054D01*
X231037Y217533D01*
X230302Y216797D01*
X229781Y215896D01*
X229512Y214891D01*
Y213850D01*
X229781Y212844D01*
X230302Y211943D01*
X231037Y211207D01*
X231939Y210687D01*
X232944Y210417D01*
X233985D01*
X234990Y210687D01*
X235892Y211207D01*
X236628Y211943D01*
X237148Y212844D01*
X237417Y213850D01*
Y214891D01*
X237148Y215896D01*
X236628Y216797D01*
X235892Y217533D01*
X234990Y218054D01*
X233985Y218323D01*
D02*
G37*
G36*
X139846Y210763D02*
X139090D01*
X138392Y210473D01*
X137857Y209939D01*
X137568Y209241D01*
Y208485D01*
X137857Y207786D01*
X138392Y207252D01*
X139090Y206963D01*
X139846D01*
X140544Y207252D01*
X141079Y207786D01*
X141368Y208485D01*
Y209241D01*
X141079Y209939D01*
X140544Y210473D01*
X139846Y210763D01*
D02*
G37*
G36*
X233965Y207914D02*
Y204870D01*
X237009D01*
X236775Y205741D01*
X236308Y206552D01*
X235646Y207213D01*
X234836Y207681D01*
X233965Y207914D01*
D02*
G37*
G36*
X232965Y207914D02*
X232093Y207681D01*
X231283Y207213D01*
X230622Y206552D01*
X230154Y205741D01*
X229921Y204870D01*
X232965D01*
Y207914D01*
D02*
G37*
G36*
X330705Y212695D02*
X329665D01*
X328659Y212426D01*
X327758Y211906D01*
X327022Y211170D01*
X326502Y210268D01*
X326232Y209263D01*
Y208222D01*
X326502Y207217D01*
X327022Y206316D01*
X327758Y205580D01*
X328659Y205059D01*
X329665Y204790D01*
X330705D01*
X331711Y205059D01*
X332612Y205580D01*
X333348Y206316D01*
X333868Y207217D01*
X334138Y208222D01*
Y209263D01*
X333868Y210268D01*
X333348Y211170D01*
X332612Y211906D01*
X331711Y212426D01*
X330705Y212695D01*
D02*
G37*
G36*
X204721D02*
X203680D01*
X202675Y212426D01*
X201774Y211906D01*
X201038Y211170D01*
X200517Y210268D01*
X200248Y209263D01*
Y208222D01*
X200517Y207217D01*
X201038Y206316D01*
X201774Y205580D01*
X202675Y205059D01*
X203680Y204790D01*
X204721D01*
X205727Y205059D01*
X206628Y205580D01*
X207364Y206316D01*
X207884Y207217D01*
X208154Y208222D01*
Y209263D01*
X207884Y210268D01*
X207364Y211170D01*
X206628Y211906D01*
X205727Y212426D01*
X204721Y212695D01*
D02*
G37*
G36*
X345850Y205837D02*
X345094D01*
X344396Y205548D01*
X343862Y205013D01*
X343572Y204315D01*
Y203559D01*
X343862Y202861D01*
X344396Y202326D01*
X345094Y202037D01*
X345850D01*
X346549Y202326D01*
X347083Y202861D01*
X347372Y203559D01*
Y204315D01*
X347083Y205013D01*
X346549Y205548D01*
X345850Y205837D01*
D02*
G37*
G36*
X237009Y203870D02*
X233965D01*
Y200826D01*
X234836Y201059D01*
X235646Y201527D01*
X236308Y202189D01*
X236775Y202999D01*
X237009Y203870D01*
D02*
G37*
G36*
X232965D02*
X229921D01*
X230154Y202999D01*
X230622Y202189D01*
X231283Y201527D01*
X232093Y201059D01*
X232965Y200826D01*
Y203870D01*
D02*
G37*
G36*
X134877Y205566D02*
X134121D01*
X133423Y205277D01*
X132888Y204743D01*
X132599Y204044D01*
Y203288D01*
X132888Y202590D01*
X133423Y202056D01*
X134121Y201766D01*
X134299D01*
Y201320D01*
X134588Y200622D01*
X135123Y200087D01*
X135821Y199798D01*
X136577D01*
X137275Y200087D01*
X137810Y200622D01*
X138099Y201320D01*
Y202076D01*
X137810Y202774D01*
X137275Y203309D01*
X136577Y203598D01*
X136399D01*
Y204044D01*
X136109Y204743D01*
X135575Y205277D01*
X134877Y205566D01*
D02*
G37*
G36*
X336992Y203672D02*
X336236D01*
X335538Y203382D01*
X335003Y202848D01*
X334714Y202150D01*
Y201703D01*
X334268D01*
X333569Y201414D01*
X333035Y200879D01*
X332746Y200181D01*
Y199425D01*
X333035Y198727D01*
X333569Y198192D01*
X334268Y197903D01*
X334714D01*
Y197457D01*
X335003Y196758D01*
X335538Y196224D01*
X336236Y195935D01*
X336992D01*
X337690Y196224D01*
X338225Y196758D01*
X338514Y197457D01*
Y198213D01*
X338225Y198911D01*
X337690Y199445D01*
X337480Y199532D01*
Y200074D01*
X337690Y200161D01*
X338225Y200695D01*
X338514Y201394D01*
Y202150D01*
X338225Y202848D01*
X337690Y203382D01*
X336992Y203672D01*
D02*
G37*
G36*
X144306Y197248D02*
X143550D01*
X142852Y196959D01*
X142317Y196424D01*
X142028Y195726D01*
Y194970D01*
X142317Y194272D01*
X142852Y193737D01*
X143550Y193448D01*
X144306D01*
X145004Y193737D01*
X145539Y194272D01*
X145828Y194970D01*
Y195726D01*
X145539Y196424D01*
X145004Y196959D01*
X144306Y197248D01*
D02*
G37*
G36*
X134877Y194543D02*
X134121D01*
X133423Y194253D01*
X132888Y193719D01*
X132599Y193021D01*
Y192265D01*
X132888Y191566D01*
X133423Y191032D01*
X134121Y190743D01*
X134877D01*
X135575Y191032D01*
X136109Y191566D01*
X136399Y192265D01*
Y193021D01*
X136109Y193719D01*
X135575Y194253D01*
X134877Y194543D01*
D02*
G37*
G36*
X233985Y198323D02*
X232944D01*
X231939Y198054D01*
X231037Y197533D01*
X230302Y196797D01*
X229781Y195896D01*
X229512Y194890D01*
Y193850D01*
X229781Y192844D01*
X230302Y191943D01*
X231037Y191207D01*
X231939Y190687D01*
X232944Y190417D01*
X233985D01*
X234990Y190687D01*
X235892Y191207D01*
X236628Y191943D01*
X237148Y192844D01*
X237417Y193850D01*
Y194890D01*
X237148Y195896D01*
X236628Y196797D01*
X235892Y197533D01*
X234990Y198054D01*
X233985Y198323D01*
D02*
G37*
G36*
X164453Y193834D02*
X163697D01*
X162999Y193544D01*
X162464Y193010D01*
X162175Y192312D01*
Y191556D01*
X162464Y190858D01*
X162999Y190323D01*
X163697Y190034D01*
X164453D01*
X165151Y190323D01*
X165686Y190858D01*
X165975Y191556D01*
Y192312D01*
X165686Y193010D01*
X165151Y193544D01*
X164453Y193834D01*
D02*
G37*
G36*
X159581Y188243D02*
X158826D01*
X158127Y187954D01*
X157826Y187653D01*
X157499Y187472D01*
X157173Y187653D01*
X156871Y187954D01*
X156173Y188243D01*
X155417D01*
X154718Y187954D01*
X154645Y187880D01*
X154571Y187954D01*
X153873Y188243D01*
X153117D01*
X152418Y187954D01*
X152148Y187684D01*
X151822Y187462D01*
X151495Y187684D01*
X151225Y187954D01*
X150526Y188243D01*
X149770D01*
X149072Y187954D01*
X148538Y187420D01*
X148248Y186721D01*
Y185966D01*
X148538Y185267D01*
X149072Y184733D01*
X149770Y184443D01*
X150526D01*
X151225Y184733D01*
X151495Y185003D01*
X151822Y185225D01*
X152148Y185003D01*
X152418Y184733D01*
X153117Y184443D01*
X153873D01*
X154571Y184733D01*
X154645Y184806D01*
X154718Y184733D01*
X155417Y184443D01*
X156173D01*
X156871Y184733D01*
X157173Y185034D01*
X157499Y185215D01*
X157826Y185034D01*
X158127Y184733D01*
X158826Y184443D01*
X159581D01*
X160280Y184733D01*
X160814Y185267D01*
X161103Y185966D01*
Y186721D01*
X160814Y187420D01*
X160280Y187954D01*
X159581Y188243D01*
D02*
G37*
G36*
X173077Y192747D02*
X172396D01*
X171739Y192571D01*
X171149Y192231D01*
X170668Y191749D01*
X170327Y191160D01*
X170151Y190502D01*
Y189822D01*
X170327Y189164D01*
X170415Y189012D01*
X170327Y188860D01*
X170151Y188202D01*
Y187522D01*
X170327Y186864D01*
X170668Y186275D01*
X171149Y185793D01*
X171739Y185453D01*
X172396Y185277D01*
X173077D01*
X173734Y185453D01*
X174323Y185793D01*
X174805Y186275D01*
X175145Y186864D01*
X175321Y187522D01*
Y188202D01*
X175145Y188860D01*
X175057Y189012D01*
X175145Y189164D01*
X175321Y189822D01*
Y190502D01*
X175145Y191160D01*
X174805Y191749D01*
X174323Y192231D01*
X173734Y192571D01*
X173077Y192747D01*
D02*
G37*
G36*
X299211Y191810D02*
X298530D01*
X297873Y191634D01*
X297283Y191293D01*
X296802Y190812D01*
X296462Y190223D01*
X296416Y190053D01*
X296246Y190007D01*
X295657Y189667D01*
X295176Y189186D01*
X294835Y188596D01*
X294659Y187939D01*
Y187258D01*
X294835Y186601D01*
X295176Y186011D01*
X295657Y185530D01*
X296246Y185190D01*
X296904Y185013D01*
X297584D01*
X298242Y185190D01*
X298831Y185530D01*
X299313Y186011D01*
X299653Y186601D01*
X299698Y186770D01*
X299868Y186816D01*
X300458Y187156D01*
X300939Y187637D01*
X301279Y188227D01*
X301455Y188884D01*
Y189565D01*
X301279Y190223D01*
X300939Y190812D01*
X300458Y191293D01*
X299868Y191634D01*
X299211Y191810D01*
D02*
G37*
G36*
X233985Y188323D02*
X232944D01*
X231939Y188054D01*
X231037Y187533D01*
X230302Y186797D01*
X229781Y185896D01*
X229512Y184890D01*
Y183850D01*
X229781Y182844D01*
X230302Y181943D01*
X231037Y181207D01*
X231939Y180687D01*
X232944Y180417D01*
X233985D01*
X234990Y180687D01*
X235892Y181207D01*
X236628Y181943D01*
X237148Y182844D01*
X237417Y183850D01*
Y184890D01*
X237148Y185896D01*
X236628Y186797D01*
X235892Y187533D01*
X234990Y188054D01*
X233985Y188323D01*
D02*
G37*
G36*
X130791Y183598D02*
X130035D01*
X129337Y183308D01*
X128803Y182774D01*
X128513Y182076D01*
Y181320D01*
X128803Y180621D01*
X129337Y180087D01*
X130035Y179797D01*
X130791D01*
X131490Y180087D01*
X132024Y180621D01*
X132313Y181320D01*
Y182076D01*
X132024Y182774D01*
X131490Y183308D01*
X130791Y183598D01*
D02*
G37*
G36*
X120571Y211028D02*
X58563D01*
Y192913D01*
X52756D01*
X44094Y184252D01*
X44094Y156102D01*
X48405D01*
X48464Y156087D01*
X49764D01*
X49823Y156102D01*
X54134D01*
Y183071D01*
X58101Y187038D01*
X58563Y186847D01*
Y143705D01*
X120571D01*
Y180278D01*
X121071Y180479D01*
X121463Y180087D01*
X122161Y179797D01*
X122917D01*
X123616Y180087D01*
X124150Y180621D01*
X124439Y181320D01*
Y182076D01*
X124150Y182774D01*
X123616Y183308D01*
X122917Y183598D01*
X122161D01*
X121463Y183308D01*
X121071Y182916D01*
X120571Y183117D01*
Y211028D01*
D02*
G37*
G36*
X335825Y185117D02*
X335144D01*
X334487Y184941D01*
X333897Y184600D01*
X333416Y184119D01*
X333076Y183530D01*
X333030Y183360D01*
X332860Y183314D01*
X332271Y182974D01*
X331790Y182493D01*
X331449Y181903D01*
X331273Y181246D01*
Y180565D01*
X331449Y179908D01*
X331790Y179318D01*
X332271Y178837D01*
X332860Y178497D01*
X333518Y178321D01*
X334199D01*
X334856Y178497D01*
X335445Y178837D01*
X335927Y179318D01*
X336267Y179908D01*
X336313Y180078D01*
X336482Y180123D01*
X337072Y180463D01*
X337553Y180945D01*
X337894Y181534D01*
X338070Y182192D01*
Y182872D01*
X337894Y183530D01*
X337553Y184119D01*
X337072Y184600D01*
X336482Y184941D01*
X335825Y185117D01*
D02*
G37*
G36*
X318844Y184081D02*
X318164D01*
X317506Y183905D01*
X316917Y183565D01*
X316435Y183083D01*
X316095Y182494D01*
X315919Y181836D01*
Y181156D01*
X316095Y180498D01*
X316183Y180346D01*
X316095Y180194D01*
X315919Y179536D01*
Y178856D01*
X316095Y178198D01*
X316435Y177609D01*
X316917Y177128D01*
X317506Y176787D01*
X318164Y176611D01*
X318844D01*
X319502Y176787D01*
X320091Y177128D01*
X320572Y177609D01*
X320913Y178198D01*
X321089Y178856D01*
Y179536D01*
X320913Y180194D01*
X320825Y180346D01*
X320913Y180498D01*
X321089Y181156D01*
Y181836D01*
X320913Y182494D01*
X320572Y183083D01*
X320091Y183565D01*
X319502Y183905D01*
X318844Y184081D01*
D02*
G37*
G36*
X19046Y182490D02*
X18905D01*
Y176484D01*
X24911D01*
Y176625D01*
X24661Y177882D01*
X24171Y179066D01*
X23459Y180131D01*
X22553Y181037D01*
X21487Y181749D01*
X20303Y182240D01*
X19046Y182490D01*
D02*
G37*
G36*
X17906D02*
X17765D01*
X16508Y182240D01*
X15324Y181749D01*
X14258Y181037D01*
X13352Y180131D01*
X12640Y179066D01*
X12150Y177882D01*
X11900Y176625D01*
Y176484D01*
X17906D01*
Y182490D01*
D02*
G37*
G36*
X140881Y175251D02*
X140125D01*
X139426Y174962D01*
X138892Y174427D01*
X138603Y173729D01*
Y172973D01*
X138892Y172275D01*
X139426Y171740D01*
X140125Y171451D01*
X140881D01*
X141579Y171740D01*
X142113Y172275D01*
X142403Y172973D01*
Y173729D01*
X142113Y174427D01*
X141579Y174962D01*
X140881Y175251D01*
D02*
G37*
G36*
X233985Y178323D02*
X232944D01*
X231939Y178053D01*
X231037Y177533D01*
X230302Y176797D01*
X229781Y175896D01*
X229512Y174890D01*
Y173850D01*
X229781Y172844D01*
X230302Y171943D01*
X231037Y171207D01*
X231939Y170687D01*
X232944Y170417D01*
X233985D01*
X234990Y170687D01*
X235892Y171207D01*
X236628Y171943D01*
X237148Y172844D01*
X237417Y173850D01*
Y174890D01*
X237148Y175896D01*
X236628Y176797D01*
X235892Y177533D01*
X234990Y178053D01*
X233985Y178323D01*
D02*
G37*
G36*
X24911Y175484D02*
X18905D01*
Y169479D01*
X19046D01*
X20303Y169729D01*
X21487Y170219D01*
X22553Y170931D01*
X23459Y171837D01*
X24171Y172903D01*
X24661Y174087D01*
X24911Y175344D01*
Y175484D01*
D02*
G37*
G36*
X17906D02*
X11900D01*
Y175344D01*
X12150Y174087D01*
X12640Y172903D01*
X13352Y171837D01*
X14258Y170931D01*
X15324Y170219D01*
X16508Y169729D01*
X17765Y169479D01*
X17906D01*
Y175484D01*
D02*
G37*
G36*
X196244Y170404D02*
X195488D01*
X194790Y170115D01*
X194255Y169580D01*
X193966Y168882D01*
Y168126D01*
X194255Y167428D01*
X194790Y166893D01*
X195488Y166604D01*
X196244D01*
X196942Y166893D01*
X197477Y167428D01*
X197766Y168126D01*
Y168882D01*
X197477Y169580D01*
X196942Y170115D01*
X196244Y170404D01*
D02*
G37*
G36*
X210909Y174242D02*
X210154D01*
X209455Y173953D01*
X208921Y173419D01*
X208631Y172721D01*
Y171965D01*
X208921Y171266D01*
X209455Y170732D01*
X209834Y170575D01*
Y170034D01*
X209554Y169918D01*
X209019Y169383D01*
X208730Y168685D01*
Y167929D01*
X209019Y167231D01*
X209554Y166696D01*
X210252Y166407D01*
X211008D01*
X211706Y166696D01*
X212241Y167231D01*
X212530Y167929D01*
Y168685D01*
X212241Y169383D01*
X211706Y169918D01*
X211328Y170075D01*
Y170616D01*
X211608Y170732D01*
X212142Y171266D01*
X212432Y171965D01*
Y172721D01*
X212142Y173419D01*
X211608Y173953D01*
X210909Y174242D01*
D02*
G37*
G36*
X335431Y169172D02*
X334751D01*
X334093Y168996D01*
X333504Y168656D01*
X333022Y168174D01*
X332682Y167585D01*
X332636Y167415D01*
X332467Y167369D01*
X331877Y167029D01*
X331396Y166548D01*
X331056Y165958D01*
X330879Y165301D01*
Y164620D01*
X331056Y163963D01*
X331396Y163373D01*
X331877Y162892D01*
X332467Y162552D01*
X333124Y162376D01*
X333805D01*
X334462Y162552D01*
X335052Y162892D01*
X335533Y163373D01*
X335874Y163963D01*
X335919Y164133D01*
X336089Y164178D01*
X336678Y164518D01*
X337159Y165000D01*
X337500Y165589D01*
X337676Y166247D01*
Y166927D01*
X337500Y167585D01*
X337159Y168174D01*
X336678Y168656D01*
X336089Y168996D01*
X335431Y169172D01*
D02*
G37*
G36*
X234941Y168371D02*
X231988D01*
X231022Y168179D01*
X230203Y167632D01*
X229656Y166813D01*
X229463Y165847D01*
Y162894D01*
X229656Y161927D01*
X230203Y161108D01*
X231022Y160561D01*
X231988Y160369D01*
X234941D01*
X235907Y160561D01*
X236726Y161108D01*
X237274Y161927D01*
X237466Y162894D01*
Y165847D01*
X237274Y166813D01*
X236726Y167632D01*
X235907Y168179D01*
X234941Y168371D01*
D02*
G37*
G36*
X205102Y172176D02*
X204346D01*
X203648Y171886D01*
X203114Y171352D01*
X202824Y170653D01*
Y169898D01*
X203114Y169199D01*
X203648Y168665D01*
X203859Y168578D01*
Y168036D01*
X203648Y167949D01*
X203114Y167415D01*
X202824Y166717D01*
Y165961D01*
X203114Y165262D01*
X203648Y164728D01*
X203859Y164641D01*
Y164100D01*
X203648Y164012D01*
X203114Y163478D01*
X202824Y162779D01*
Y162024D01*
X203114Y161325D01*
X203648Y160791D01*
X203859Y160704D01*
Y160162D01*
X203648Y160075D01*
X203114Y159541D01*
X202824Y158843D01*
Y158087D01*
X203114Y157388D01*
X203648Y156854D01*
X204346Y156565D01*
X205102D01*
X205801Y156854D01*
X206335Y157388D01*
X206624Y158087D01*
Y158843D01*
X206335Y159541D01*
X205801Y160075D01*
X205590Y160162D01*
Y160704D01*
X205801Y160791D01*
X206335Y161325D01*
X206624Y162024D01*
Y162779D01*
X206335Y163478D01*
X205801Y164012D01*
X205590Y164100D01*
Y164641D01*
X205801Y164728D01*
X206335Y165262D01*
X206624Y165961D01*
Y166717D01*
X206335Y167415D01*
X205801Y167949D01*
X205590Y168036D01*
Y168578D01*
X205801Y168665D01*
X206335Y169199D01*
X206624Y169898D01*
Y170653D01*
X206335Y171352D01*
X205801Y171886D01*
X205102Y172176D01*
D02*
G37*
G36*
X220850D02*
X220094D01*
X219396Y171886D01*
X218862Y171352D01*
X218572Y170653D01*
Y169898D01*
X218862Y169199D01*
X219396Y168665D01*
X219607Y168578D01*
Y168036D01*
X219396Y167949D01*
X218862Y167415D01*
X218572Y166717D01*
Y165961D01*
X218862Y165262D01*
X219396Y164728D01*
X219607Y164641D01*
Y164100D01*
X219396Y164012D01*
X218862Y163478D01*
X218572Y162779D01*
Y162024D01*
X218862Y161325D01*
X219396Y160791D01*
X219844Y160605D01*
Y160064D01*
X219396Y159879D01*
X218862Y159344D01*
X218572Y158646D01*
Y157890D01*
X218862Y157192D01*
X219396Y156657D01*
X220094Y156368D01*
X220850D01*
X221549Y156657D01*
X222083Y157192D01*
X222372Y157890D01*
Y158646D01*
X222083Y159344D01*
X221549Y159879D01*
X221101Y160064D01*
Y160605D01*
X221549Y160791D01*
X222083Y161325D01*
X222372Y162024D01*
Y162779D01*
X222083Y163478D01*
X221549Y164012D01*
X221338Y164100D01*
Y164641D01*
X221549Y164728D01*
X222083Y165262D01*
X222372Y165961D01*
Y166717D01*
X222083Y167415D01*
X221549Y167949D01*
X221338Y168036D01*
Y168578D01*
X221549Y168665D01*
X222083Y169199D01*
X222372Y169898D01*
Y170653D01*
X222083Y171352D01*
X221549Y171886D01*
X220850Y172176D01*
D02*
G37*
G36*
X153676Y158716D02*
X152920D01*
X152222Y158427D01*
X151687Y157892D01*
X151398Y157194D01*
Y156438D01*
X151687Y155740D01*
X152222Y155205D01*
X152920Y154916D01*
X153676D01*
X154374Y155205D01*
X154909Y155740D01*
X155198Y156438D01*
Y157194D01*
X154909Y157892D01*
X154374Y158427D01*
X153676Y158716D01*
D02*
G37*
G36*
X140881Y158519D02*
X140125D01*
X139426Y158230D01*
X138892Y157695D01*
X138603Y156997D01*
Y156241D01*
X138892Y155543D01*
X139426Y155008D01*
X140125Y154719D01*
X140881D01*
X141579Y155008D01*
X142113Y155543D01*
X142403Y156241D01*
Y156997D01*
X142113Y157695D01*
X141579Y158230D01*
X140881Y158519D01*
D02*
G37*
G36*
X211008Y162333D02*
X210252D01*
X209554Y162044D01*
X209019Y161509D01*
X208730Y160811D01*
Y160055D01*
X209019Y159357D01*
X209554Y158822D01*
X209764Y158735D01*
Y158194D01*
X209554Y158107D01*
X209019Y157572D01*
X208730Y156874D01*
Y156118D01*
X209019Y155420D01*
X209554Y154885D01*
X210252Y154596D01*
X211008D01*
X211706Y154885D01*
X212241Y155420D01*
X212530Y156118D01*
Y156874D01*
X212241Y157572D01*
X211706Y158107D01*
X211496Y158194D01*
Y158735D01*
X211706Y158822D01*
X212241Y159357D01*
X212530Y160055D01*
Y160811D01*
X212241Y161509D01*
X211706Y162044D01*
X211008Y162333D01*
D02*
G37*
G36*
X153676Y153598D02*
X152920D01*
X152222Y153308D01*
X151687Y152774D01*
X151398Y152076D01*
Y151320D01*
X151687Y150621D01*
X152222Y150087D01*
X152920Y149798D01*
X153676D01*
X154374Y150087D01*
X154909Y150621D01*
X155198Y151320D01*
Y152076D01*
X154909Y152774D01*
X154374Y153308D01*
X153676Y153598D01*
D02*
G37*
G36*
X220850Y154459D02*
X220094D01*
X219396Y154170D01*
X218862Y153635D01*
X218572Y152937D01*
Y152181D01*
X218862Y151483D01*
X219396Y150948D01*
X219616Y150857D01*
Y150316D01*
X219414Y150233D01*
X218880Y149698D01*
X218590Y149000D01*
Y148244D01*
X218880Y147546D01*
X219414Y147011D01*
X220113Y146722D01*
X220868D01*
X221567Y147011D01*
X222101Y147546D01*
X222391Y148244D01*
Y149000D01*
X222101Y149698D01*
X221567Y150233D01*
X221347Y150324D01*
Y150865D01*
X221549Y150948D01*
X222083Y151483D01*
X222372Y152181D01*
Y152937D01*
X222083Y153635D01*
X221549Y154170D01*
X220850Y154459D01*
D02*
G37*
G36*
X196244Y162333D02*
X195488D01*
X194790Y162044D01*
X194255Y161509D01*
X193966Y160811D01*
Y160055D01*
X194255Y159357D01*
X194790Y158822D01*
X195000Y158735D01*
Y158194D01*
X194790Y158107D01*
X194255Y157572D01*
X193966Y156874D01*
Y156118D01*
X194255Y155420D01*
X194790Y154885D01*
X194812Y154876D01*
Y154376D01*
X194790Y154367D01*
X194255Y153832D01*
X193966Y153134D01*
Y152378D01*
X194255Y151680D01*
X194790Y151145D01*
X195238Y150960D01*
Y150418D01*
X194790Y150233D01*
X194255Y149698D01*
X193966Y149000D01*
Y148244D01*
X194255Y147546D01*
X194790Y147011D01*
X195488Y146722D01*
X196244D01*
X196942Y147011D01*
X197477Y147546D01*
X197766Y148244D01*
Y149000D01*
X197477Y149698D01*
X196942Y150233D01*
X196494Y150418D01*
Y150960D01*
X196942Y151145D01*
X197477Y151680D01*
X197766Y152378D01*
Y153134D01*
X197477Y153832D01*
X196942Y154367D01*
X196920Y154376D01*
Y154876D01*
X196942Y154885D01*
X197477Y155420D01*
X197766Y156118D01*
Y156874D01*
X197477Y157572D01*
X196942Y158107D01*
X196732Y158194D01*
Y158735D01*
X196942Y158822D01*
X197477Y159357D01*
X197766Y160055D01*
Y160811D01*
X197477Y161509D01*
X196942Y162044D01*
X196244Y162333D01*
D02*
G37*
G36*
X19046Y152568D02*
X18905D01*
Y146563D01*
X24911D01*
Y146704D01*
X24661Y147961D01*
X24171Y149144D01*
X23459Y150210D01*
X22553Y151116D01*
X21487Y151828D01*
X20303Y152319D01*
X19046Y152568D01*
D02*
G37*
G36*
X17905D02*
X17765D01*
X16508Y152319D01*
X15324Y151828D01*
X14258Y151116D01*
X13352Y150210D01*
X12640Y149144D01*
X12150Y147961D01*
X11900Y146704D01*
Y146563D01*
X17905D01*
Y152568D01*
D02*
G37*
G36*
X140873Y148590D02*
X140117D01*
X139419Y148301D01*
X138884Y147766D01*
X138595Y147068D01*
Y146312D01*
X138884Y145614D01*
X139419Y145080D01*
X140117Y144790D01*
X140873D01*
X141571Y145080D01*
X142106Y145614D01*
X142395Y146312D01*
Y147068D01*
X142106Y147766D01*
X141571Y148301D01*
X140873Y148590D01*
D02*
G37*
G36*
X211008Y152687D02*
X210252D01*
X209554Y152398D01*
X209019Y151864D01*
X208730Y151165D01*
Y150409D01*
X209019Y149711D01*
X209554Y149177D01*
X210002Y148991D01*
Y148450D01*
X209554Y148264D01*
X209019Y147730D01*
X208730Y147031D01*
Y146276D01*
X209019Y145577D01*
X209554Y145043D01*
X210252Y144754D01*
X211008D01*
X211706Y145043D01*
X212241Y145577D01*
X212530Y146276D01*
Y147031D01*
X212241Y147730D01*
X211706Y148264D01*
X211258Y148450D01*
Y148991D01*
X211706Y149177D01*
X212241Y149711D01*
X212530Y150409D01*
Y151165D01*
X212241Y151864D01*
X211706Y152398D01*
X211008Y152687D01*
D02*
G37*
G36*
X180567Y146853D02*
X179811D01*
X179113Y146563D01*
X178578Y146029D01*
X178289Y145331D01*
Y144575D01*
X178578Y143876D01*
X179113Y143342D01*
X179811Y143053D01*
X180567D01*
X181265Y143342D01*
X181799Y143876D01*
X182089Y144575D01*
Y145331D01*
X181799Y146029D01*
X181265Y146563D01*
X180567Y146853D01*
D02*
G37*
G36*
X322228Y143829D02*
X321473D01*
X320774Y143540D01*
X320240Y143005D01*
X319950Y142307D01*
Y141551D01*
X320240Y140853D01*
X320774Y140318D01*
X321473Y140029D01*
X322228D01*
X322927Y140318D01*
X323461Y140853D01*
X323750Y141551D01*
Y142307D01*
X323461Y143005D01*
X322927Y143540D01*
X322228Y143829D01*
D02*
G37*
G36*
X24911Y145563D02*
X18905D01*
Y139558D01*
X19046D01*
X20303Y139807D01*
X21487Y140298D01*
X22553Y141010D01*
X23459Y141916D01*
X24171Y142981D01*
X24661Y144165D01*
X24911Y145422D01*
Y145563D01*
D02*
G37*
G36*
X17905D02*
X11900D01*
Y145422D01*
X12150Y144165D01*
X12640Y142981D01*
X13352Y141916D01*
X14258Y141010D01*
X15324Y140298D01*
X16508Y139807D01*
X17765Y139558D01*
X17905D01*
Y145563D01*
D02*
G37*
G36*
X265732Y142845D02*
X264976D01*
X264278Y142556D01*
X263744Y142021D01*
X263454Y141323D01*
Y140567D01*
X263744Y139869D01*
X264278Y139334D01*
X264976Y139045D01*
X265732D01*
X266431Y139334D01*
X266965Y139869D01*
X267254Y140567D01*
Y141323D01*
X266965Y142021D01*
X266431Y142556D01*
X265732Y142845D01*
D02*
G37*
G36*
X205102Y152687D02*
X204346D01*
X203648Y152398D01*
X203114Y151864D01*
X202824Y151165D01*
Y150409D01*
X203114Y149711D01*
X203648Y149177D01*
X204096Y148991D01*
Y148450D01*
X203648Y148264D01*
X203114Y147730D01*
X202824Y147031D01*
Y146276D01*
X203114Y145577D01*
X203648Y145043D01*
X203859Y144956D01*
Y144414D01*
X203648Y144327D01*
X203114Y143793D01*
X202824Y143095D01*
Y142339D01*
X203114Y141640D01*
X203648Y141106D01*
X203859Y141019D01*
Y140477D01*
X203648Y140390D01*
X203114Y139856D01*
X202824Y139157D01*
Y138402D01*
X203114Y137703D01*
X203648Y137169D01*
X204346Y136880D01*
X205102D01*
X205801Y137169D01*
X206335Y137703D01*
X206624Y138402D01*
Y139157D01*
X206335Y139856D01*
X205801Y140390D01*
X205590Y140477D01*
Y141019D01*
X205801Y141106D01*
X206335Y141640D01*
X206624Y142339D01*
Y143095D01*
X206335Y143793D01*
X205801Y144327D01*
X205590Y144414D01*
Y144956D01*
X205801Y145043D01*
X206335Y145577D01*
X206624Y146276D01*
Y147031D01*
X206335Y147730D01*
X205801Y148264D01*
X205353Y148450D01*
Y148991D01*
X205801Y149177D01*
X206335Y149711D01*
X206624Y150409D01*
Y151165D01*
X206335Y151864D01*
X205801Y152398D01*
X205102Y152687D01*
D02*
G37*
G36*
X76756Y139892D02*
X76000D01*
X75302Y139603D01*
X74767Y139068D01*
X74478Y138370D01*
Y137614D01*
X74767Y136916D01*
X75302Y136381D01*
X76000Y136092D01*
X76756D01*
X77454Y136381D01*
X77989Y136916D01*
X78278Y137614D01*
Y138370D01*
X77989Y139068D01*
X77454Y139603D01*
X76756Y139892D01*
D02*
G37*
G36*
X269079Y139695D02*
X268323D01*
X267624Y139406D01*
X267090Y138872D01*
X266801Y138173D01*
Y137417D01*
X267090Y136719D01*
X267624Y136185D01*
X268323Y135895D01*
X269079D01*
X269777Y136185D01*
X270311Y136719D01*
X270601Y137417D01*
Y138173D01*
X270311Y138872D01*
X269777Y139406D01*
X269079Y139695D01*
D02*
G37*
G36*
X262189D02*
X261433D01*
X260735Y139406D01*
X260200Y138872D01*
X259911Y138173D01*
Y137417D01*
X260200Y136719D01*
X260735Y136185D01*
X261433Y135895D01*
X262189D01*
X262887Y136185D01*
X263422Y136719D01*
X263711Y137417D01*
Y138173D01*
X263422Y138872D01*
X262887Y139406D01*
X262189Y139695D01*
D02*
G37*
G36*
X311598Y139498D02*
X310842D01*
X310144Y139209D01*
X309610Y138675D01*
X309320Y137976D01*
Y137221D01*
X309610Y136522D01*
X310144Y135988D01*
X310842Y135698D01*
X311598D01*
X312297Y135988D01*
X312831Y136522D01*
X313121Y137221D01*
Y137976D01*
X312831Y138675D01*
X312297Y139209D01*
X311598Y139498D01*
D02*
G37*
G36*
X149394Y135758D02*
X148638D01*
X147940Y135469D01*
X147638Y135167D01*
X147336Y135469D01*
X146638Y135758D01*
X145882D01*
X145184Y135469D01*
X144649Y134934D01*
X144360Y134236D01*
Y133480D01*
X144649Y132782D01*
X145184Y132247D01*
X145882Y131958D01*
X146638D01*
X147336Y132247D01*
X147638Y132549D01*
X147940Y132247D01*
X148638Y131958D01*
X149101D01*
X149444Y131479D01*
X149281Y131087D01*
Y130331D01*
X149570Y129632D01*
X150105Y129098D01*
X150803Y128809D01*
X151559D01*
X152257Y129098D01*
X152792Y129632D01*
X153081Y130331D01*
Y131087D01*
X152792Y131785D01*
X152257Y132319D01*
X151559Y132609D01*
X151096D01*
X150753Y133088D01*
X150916Y133480D01*
Y134236D01*
X150627Y134934D01*
X150092Y135469D01*
X149394Y135758D01*
D02*
G37*
G36*
X196244Y142648D02*
X195488D01*
X194790Y142359D01*
X194255Y141824D01*
X193966Y141126D01*
Y140370D01*
X194255Y139672D01*
X194790Y139137D01*
X194812Y139128D01*
Y138628D01*
X194790Y138619D01*
X194255Y138084D01*
X193966Y137386D01*
Y136630D01*
X194255Y135932D01*
X194790Y135397D01*
X195488Y135108D01*
X196244D01*
X196942Y135397D01*
X197477Y135932D01*
X197766Y136630D01*
Y137386D01*
X197477Y138084D01*
X196942Y138619D01*
X196920Y138628D01*
Y139128D01*
X196942Y139137D01*
X197477Y139672D01*
X197766Y140370D01*
Y141126D01*
X197477Y141824D01*
X196942Y142359D01*
X196244Y142648D01*
D02*
G37*
G36*
X175662Y138429D02*
X174906D01*
X174208Y138139D01*
X173674Y137605D01*
X173384Y136907D01*
Y136151D01*
X173674Y135452D01*
X174208Y134918D01*
X174906Y134629D01*
X175662D01*
X176361Y134918D01*
X176895Y135452D01*
X177184Y136151D01*
Y136907D01*
X176895Y137605D01*
X176361Y138139D01*
X175662Y138429D01*
D02*
G37*
G36*
X170850Y135955D02*
X170095D01*
X169396Y135666D01*
X168862Y135131D01*
X168572Y134433D01*
Y133677D01*
X168862Y132979D01*
X169396Y132444D01*
X170095Y132155D01*
X170850D01*
X171549Y132444D01*
X172083Y132979D01*
X172372Y133677D01*
Y134433D01*
X172083Y135131D01*
X171549Y135666D01*
X170850Y135955D01*
D02*
G37*
G36*
X81677Y134380D02*
X80921D01*
X80223Y134091D01*
X79689Y133557D01*
X79399Y132858D01*
Y132102D01*
X79689Y131404D01*
X80223Y130870D01*
X80921Y130580D01*
X81677D01*
X82376Y130870D01*
X82910Y131404D01*
X83199Y132102D01*
Y132858D01*
X82910Y133557D01*
X82376Y134091D01*
X81677Y134380D01*
D02*
G37*
G36*
X76559D02*
X75803D01*
X75105Y134091D01*
X74570Y133557D01*
X74281Y132858D01*
Y132102D01*
X74570Y131404D01*
X75105Y130870D01*
X75803Y130580D01*
X76559D01*
X77257Y130870D01*
X77792Y131404D01*
X78081Y132102D01*
Y132858D01*
X77792Y133557D01*
X77257Y134091D01*
X76559Y134380D01*
D02*
G37*
G36*
X180480Y134364D02*
X179724D01*
X179025Y134075D01*
X178491Y133540D01*
X178202Y132842D01*
Y132086D01*
X178491Y131388D01*
X179025Y130853D01*
X179724Y130564D01*
X180480D01*
X181178Y130853D01*
X181712Y131388D01*
X182002Y132086D01*
Y132842D01*
X181712Y133540D01*
X181178Y134075D01*
X180480Y134364D01*
D02*
G37*
G36*
X252550Y134177D02*
X251794D01*
X251096Y133888D01*
X250561Y133353D01*
X250272Y132655D01*
Y131899D01*
X250561Y131201D01*
X251096Y130666D01*
X251794Y130377D01*
X252550D01*
X253248Y130666D01*
X253783Y131201D01*
X254072Y131899D01*
Y132655D01*
X253783Y133353D01*
X253248Y133888D01*
X252550Y134177D01*
D02*
G37*
G36*
X165437Y133987D02*
X164681D01*
X163983Y133697D01*
X163448Y133163D01*
X163159Y132465D01*
Y131709D01*
X163448Y131010D01*
X163983Y130476D01*
X164681Y130187D01*
X165437D01*
X166135Y130476D01*
X166670Y131010D01*
X166959Y131709D01*
Y132465D01*
X166670Y133163D01*
X166135Y133697D01*
X165437Y133987D01*
D02*
G37*
G36*
X126559Y133790D02*
X125803D01*
X125105Y133501D01*
X124570Y132966D01*
X124281Y132268D01*
Y131512D01*
X124570Y130814D01*
X125105Y130279D01*
X125803Y129990D01*
X126559D01*
X127257Y130279D01*
X127792Y130814D01*
X128081Y131512D01*
Y132268D01*
X127792Y132966D01*
X127257Y133501D01*
X126559Y133790D01*
D02*
G37*
G36*
X269079Y133002D02*
X268323D01*
X267624Y132713D01*
X267090Y132179D01*
X266801Y131480D01*
Y130724D01*
X267090Y130026D01*
X267624Y129492D01*
X268323Y129202D01*
X269079D01*
X269777Y129492D01*
X270311Y130026D01*
X270601Y130724D01*
Y131480D01*
X270311Y132179D01*
X269777Y132713D01*
X269079Y133002D01*
D02*
G37*
G36*
X155102Y126309D02*
X154347D01*
X153648Y126020D01*
X153638Y126010D01*
X153628Y126020D01*
X152930Y126309D01*
X152174D01*
X151476Y126020D01*
X150941Y125486D01*
X150652Y124787D01*
Y124031D01*
X150941Y123333D01*
X151476Y122799D01*
X152174Y122509D01*
X152930D01*
X153628Y122799D01*
X153638Y122809D01*
X153648Y122799D01*
X154347Y122509D01*
X155102D01*
X155801Y122799D01*
X156335Y123333D01*
X156624Y124031D01*
Y124787D01*
X156335Y125486D01*
X155801Y126020D01*
X155102Y126309D01*
D02*
G37*
G36*
X294472Y128868D02*
X293717D01*
X293018Y128579D01*
X292484Y128045D01*
X292195Y127346D01*
Y126591D01*
X292484Y125892D01*
X293018Y125358D01*
X293717Y125068D01*
X294472D01*
X295171Y125358D01*
X295705Y125892D01*
X295994Y126591D01*
Y127346D01*
X295705Y128045D01*
X295171Y128579D01*
X294472Y128868D01*
D02*
G37*
G36*
X311598Y130837D02*
X310842D01*
X310144Y130548D01*
X309610Y130013D01*
X309320Y129315D01*
Y128559D01*
X309610Y127861D01*
X310144Y127326D01*
X310842Y127037D01*
X311598D01*
X312297Y127326D01*
X312605Y127635D01*
X313029Y127351D01*
X312864Y126953D01*
Y126197D01*
X313153Y125498D01*
X313687Y124964D01*
X314386Y124675D01*
X315142D01*
X315840Y124964D01*
X316374Y125498D01*
X316664Y126197D01*
Y126953D01*
X316374Y127651D01*
X315840Y128185D01*
X315142Y128475D01*
X314386D01*
X313687Y128185D01*
X313379Y127877D01*
X312955Y128161D01*
X313121Y128559D01*
Y129315D01*
X312831Y130013D01*
X312297Y130548D01*
X311598Y130837D01*
D02*
G37*
G36*
X210614Y128475D02*
X209858D01*
X209160Y128185D01*
X208626Y127651D01*
X208336Y126953D01*
Y126197D01*
X208626Y125498D01*
X209160Y124964D01*
X209858Y124675D01*
X210614D01*
X211313Y124964D01*
X211847Y125498D01*
X212136Y126197D01*
Y126953D01*
X211847Y127651D01*
X211313Y128185D01*
X210614Y128475D01*
D02*
G37*
G36*
X139945Y126112D02*
X139189D01*
X138490Y125823D01*
X137956Y125289D01*
X137667Y124590D01*
Y123834D01*
X137956Y123136D01*
X138490Y122602D01*
X139189Y122312D01*
X139945D01*
X140643Y122602D01*
X141177Y123136D01*
X141467Y123834D01*
Y124590D01*
X141177Y125289D01*
X140643Y125823D01*
X139945Y126112D01*
D02*
G37*
G36*
X250575Y125522D02*
X249819D01*
X249121Y125233D01*
X248586Y124698D01*
X248297Y124000D01*
Y123244D01*
X248586Y122546D01*
X249121Y122011D01*
X249819Y121722D01*
X250575D01*
X251273Y122011D01*
X251808Y122546D01*
X252097Y123244D01*
Y124000D01*
X251808Y124698D01*
X251273Y125233D01*
X250575Y125522D01*
D02*
G37*
G36*
X205102Y124932D02*
X204346D01*
X203648Y124642D01*
X203114Y124108D01*
X202824Y123409D01*
Y122654D01*
X203114Y121955D01*
X203648Y121421D01*
X204346Y121132D01*
X205102D01*
X205801Y121421D01*
X206335Y121955D01*
X206624Y122654D01*
Y123409D01*
X206335Y124108D01*
X205801Y124642D01*
X205102Y124932D01*
D02*
G37*
G36*
X336795Y122963D02*
X336039D01*
X335341Y122674D01*
X334807Y122139D01*
X334517Y121441D01*
Y120685D01*
X334807Y119987D01*
X335341Y119452D01*
X335552Y119365D01*
Y118824D01*
X335341Y118737D01*
X334807Y118202D01*
X334517Y117504D01*
Y116748D01*
X334807Y116050D01*
X335341Y115515D01*
X336039Y115226D01*
X336795D01*
X337494Y115515D01*
X338028Y116050D01*
X338317Y116748D01*
Y117504D01*
X338028Y118202D01*
X337494Y118737D01*
X337283Y118824D01*
Y119365D01*
X337494Y119452D01*
X338028Y119987D01*
X338317Y120685D01*
Y121441D01*
X338028Y122139D01*
X337494Y122674D01*
X336795Y122963D01*
D02*
G37*
G36*
X134975Y120916D02*
X134219D01*
X133521Y120627D01*
X132986Y120092D01*
X132697Y119394D01*
Y118638D01*
X132986Y117940D01*
X133521Y117405D01*
X134219Y117116D01*
X134397D01*
Y116669D01*
X134686Y115971D01*
X135221Y115437D01*
X135919Y115147D01*
X136675D01*
X137373Y115437D01*
X137908Y115971D01*
X138197Y116669D01*
Y117425D01*
X137908Y118124D01*
X137373Y118658D01*
X136675Y118948D01*
X136497D01*
Y119394D01*
X136208Y120092D01*
X135673Y120627D01*
X134975Y120916D01*
D02*
G37*
G36*
X318094Y118829D02*
X317339D01*
X316640Y118540D01*
X316106Y118005D01*
X315816Y117307D01*
Y116551D01*
X316106Y115853D01*
X316640Y115318D01*
X317339Y115029D01*
X318094D01*
X318793Y115318D01*
X319327Y115853D01*
X319617Y116551D01*
Y117307D01*
X319327Y118005D01*
X318793Y118540D01*
X318094Y118829D01*
D02*
G37*
G36*
X302937D02*
X302181D01*
X301483Y118540D01*
X300948Y118005D01*
X300659Y117307D01*
Y116551D01*
X300948Y115853D01*
X301483Y115318D01*
X302181Y115029D01*
X302937D01*
X303635Y115318D01*
X304170Y115853D01*
X304459Y116551D01*
Y117307D01*
X304170Y118005D01*
X303635Y118540D01*
X302937Y118829D01*
D02*
G37*
G36*
X345590Y121157D02*
X344835D01*
X344136Y120868D01*
X343602Y120333D01*
X343313Y119635D01*
Y118879D01*
X343602Y118181D01*
X344136Y117646D01*
X344347Y117559D01*
Y117018D01*
X344136Y116931D01*
X343602Y116396D01*
X343313Y115698D01*
Y114942D01*
X343602Y114244D01*
X344136Y113709D01*
X344835Y113420D01*
X345590D01*
X346289Y113709D01*
X346823Y114244D01*
X347113Y114942D01*
Y115698D01*
X346823Y116396D01*
X346289Y116931D01*
X346078Y117018D01*
Y117559D01*
X346289Y117646D01*
X346823Y118181D01*
X347113Y118879D01*
Y119635D01*
X346823Y120333D01*
X346289Y120868D01*
X345590Y121157D01*
D02*
G37*
G36*
X210811Y117058D02*
X210055D01*
X209357Y116768D01*
X208822Y116234D01*
X208533Y115535D01*
Y114779D01*
X208822Y114081D01*
X209357Y113547D01*
X210055Y113258D01*
X210811D01*
X211509Y113547D01*
X212044Y114081D01*
X212333Y114779D01*
Y115535D01*
X212044Y116234D01*
X211509Y116768D01*
X210811Y117058D01*
D02*
G37*
G36*
X219606Y115252D02*
X218850D01*
X218152Y114962D01*
X217618Y114428D01*
X217328Y113729D01*
Y112974D01*
X217618Y112275D01*
X218152Y111741D01*
X218850Y111451D01*
X219606D01*
X220305Y111741D01*
X220839Y112275D01*
X221128Y112974D01*
Y113729D01*
X220839Y114428D01*
X220305Y114962D01*
X219606Y115252D01*
D02*
G37*
G36*
X244472Y114105D02*
X243717D01*
X243018Y113815D01*
X242484Y113281D01*
X242195Y112583D01*
Y111827D01*
X242484Y111128D01*
X243018Y110594D01*
X243717Y110305D01*
X244472D01*
X245171Y110594D01*
X245705Y111128D01*
X245994Y111827D01*
Y112583D01*
X245705Y113281D01*
X245171Y113815D01*
X244472Y114105D01*
D02*
G37*
G36*
X250575Y113908D02*
X249819D01*
X249121Y113619D01*
X248586Y113084D01*
X248297Y112386D01*
Y111630D01*
X248586Y110932D01*
X249121Y110397D01*
X249819Y110108D01*
X250575D01*
X251273Y110397D01*
X251808Y110932D01*
X252097Y111630D01*
Y112386D01*
X251808Y113084D01*
X251273Y113619D01*
X250575Y113908D01*
D02*
G37*
G36*
X144404Y112598D02*
X143649D01*
X142950Y112309D01*
X142416Y111774D01*
X142127Y111076D01*
Y110320D01*
X142416Y109622D01*
X142950Y109087D01*
X143649Y108798D01*
X144404D01*
X145103Y109087D01*
X145637Y109622D01*
X145927Y110320D01*
Y111076D01*
X145637Y111774D01*
X145103Y112309D01*
X144404Y112598D01*
D02*
G37*
G36*
X296047Y111349D02*
X295291D01*
X294593Y111060D01*
X294059Y110525D01*
X293769Y109827D01*
Y109071D01*
X294059Y108373D01*
X294593Y107838D01*
X295291Y107549D01*
X296047D01*
X296746Y107838D01*
X297280Y108373D01*
X297569Y109071D01*
Y109827D01*
X297280Y110525D01*
X296746Y111060D01*
X296047Y111349D01*
D02*
G37*
G36*
X345590Y111314D02*
X344835D01*
X344136Y111025D01*
X343602Y110491D01*
X343313Y109792D01*
Y109037D01*
X343602Y108338D01*
X344136Y107804D01*
X344835Y107515D01*
X345590D01*
X346289Y107804D01*
X346823Y108338D01*
X347113Y109037D01*
Y109792D01*
X346823Y110491D01*
X346289Y111025D01*
X345590Y111314D01*
D02*
G37*
G36*
X210811Y111152D02*
X210055D01*
X209357Y110863D01*
X208822Y110328D01*
X208533Y109630D01*
Y108874D01*
X208822Y108176D01*
X209357Y107641D01*
X210055Y107352D01*
X210811D01*
X211509Y107641D01*
X212044Y108176D01*
X212333Y108874D01*
Y109630D01*
X212044Y110328D01*
X211509Y110863D01*
X210811Y111152D01*
D02*
G37*
G36*
X196244Y115089D02*
X195488D01*
X194790Y114800D01*
X194255Y114265D01*
X193966Y113567D01*
Y112811D01*
X194255Y112113D01*
X194790Y111578D01*
X195000Y111491D01*
Y110950D01*
X194790Y110863D01*
X194255Y110328D01*
X193966Y109630D01*
Y108874D01*
X194255Y108176D01*
X194790Y107641D01*
X195488Y107352D01*
X196244D01*
X196942Y107641D01*
X197477Y108176D01*
X197766Y108874D01*
Y109630D01*
X197477Y110328D01*
X196942Y110863D01*
X196732Y110950D01*
Y111491D01*
X196942Y111578D01*
X197477Y112113D01*
X197766Y112811D01*
Y113567D01*
X197477Y114265D01*
X196942Y114800D01*
X196244Y115089D01*
D02*
G37*
G36*
X134975Y109892D02*
X134219D01*
X133521Y109603D01*
X132986Y109069D01*
X132697Y108370D01*
Y107614D01*
X132986Y106916D01*
X133521Y106382D01*
X134219Y106092D01*
X134975D01*
X135673Y106382D01*
X136208Y106916D01*
X136497Y107614D01*
Y108370D01*
X136208Y109069D01*
X135673Y109603D01*
X134975Y109892D01*
D02*
G37*
G36*
X219606Y109346D02*
X218850D01*
X218152Y109057D01*
X217618Y108522D01*
X217328Y107824D01*
Y107068D01*
X217618Y106370D01*
X218152Y105835D01*
X218850Y105546D01*
X219606D01*
X220305Y105835D01*
X220839Y106370D01*
X221128Y107068D01*
Y107824D01*
X220839Y108522D01*
X220305Y109057D01*
X219606Y109346D01*
D02*
G37*
G36*
X336795Y113120D02*
X336039D01*
X335341Y112831D01*
X334807Y112297D01*
X334517Y111598D01*
Y110843D01*
X334807Y110144D01*
X335341Y109610D01*
X335552Y109523D01*
Y108981D01*
X335341Y108894D01*
X334807Y108360D01*
X334517Y107661D01*
Y106905D01*
X334807Y106207D01*
X335341Y105673D01*
X336039Y105384D01*
X336795D01*
X337494Y105673D01*
X338028Y106207D01*
X338317Y106905D01*
Y107661D01*
X338028Y108360D01*
X337494Y108894D01*
X337283Y108981D01*
Y109523D01*
X337494Y109610D01*
X338028Y110144D01*
X338317Y110843D01*
Y111598D01*
X338028Y112297D01*
X337494Y112831D01*
X336795Y113120D01*
D02*
G37*
G36*
X164551Y109184D02*
X163795D01*
X163097Y108894D01*
X162563Y108360D01*
X162273Y107661D01*
Y106905D01*
X162563Y106207D01*
X163097Y105673D01*
X163795Y105384D01*
X164551D01*
X165250Y105673D01*
X165784Y106207D01*
X166073Y106905D01*
Y107661D01*
X165784Y108360D01*
X165250Y108894D01*
X164551Y109184D01*
D02*
G37*
G36*
X159680Y103593D02*
X158924D01*
X158226Y103304D01*
X157924Y103002D01*
X157597Y102821D01*
X157271Y103002D01*
X156969Y103304D01*
X156271Y103593D01*
X155515D01*
X154817Y103304D01*
X154743Y103230D01*
X154669Y103304D01*
X153971Y103593D01*
X153215D01*
X152517Y103304D01*
X152247Y103033D01*
X151920Y102812D01*
X151593Y103033D01*
X151323Y103304D01*
X150625Y103593D01*
X149869D01*
X149170Y103304D01*
X148636Y102769D01*
X148347Y102071D01*
Y101315D01*
X148636Y100617D01*
X149170Y100082D01*
X149869Y99793D01*
X150625D01*
X151323Y100082D01*
X151593Y100353D01*
X151920Y100574D01*
X152247Y100353D01*
X152517Y100082D01*
X153215Y99793D01*
X153971D01*
X154669Y100082D01*
X154743Y100156D01*
X154817Y100082D01*
X155515Y99793D01*
X156271D01*
X156969Y100082D01*
X157271Y100384D01*
X157597Y100565D01*
X157924Y100384D01*
X158226Y100082D01*
X158924Y99793D01*
X159680D01*
X160378Y100082D01*
X160913Y100617D01*
X161202Y101315D01*
Y102071D01*
X160913Y102769D01*
X160378Y103304D01*
X159680Y103593D01*
D02*
G37*
G36*
X234630Y104459D02*
X233874D01*
X233176Y104170D01*
X232641Y103635D01*
X232352Y102937D01*
Y102181D01*
X232641Y101483D01*
X233176Y100948D01*
X233874Y100659D01*
X234630D01*
X235328Y100948D01*
X235863Y101483D01*
X236152Y102181D01*
Y102937D01*
X235863Y103635D01*
X235328Y104170D01*
X234630Y104459D01*
D02*
G37*
G36*
X227740D02*
X226984D01*
X226286Y104170D01*
X225751Y103635D01*
X225462Y102937D01*
Y102181D01*
X225751Y101483D01*
X226286Y100948D01*
X226984Y100659D01*
X227740D01*
X228438Y100948D01*
X228973Y101483D01*
X229262Y102181D01*
Y102937D01*
X228973Y103635D01*
X228438Y104170D01*
X227740Y104459D01*
D02*
G37*
G36*
X173175Y108097D02*
X172494D01*
X171837Y107921D01*
X171247Y107580D01*
X170766Y107099D01*
X170426Y106510D01*
X170250Y105852D01*
Y105172D01*
X170426Y104514D01*
X170514Y104362D01*
X170426Y104210D01*
X170250Y103552D01*
Y102872D01*
X170426Y102214D01*
X170766Y101625D01*
X171247Y101143D01*
X171837Y100803D01*
X172494Y100627D01*
X173175D01*
X173832Y100803D01*
X174422Y101143D01*
X174903Y101625D01*
X175243Y102214D01*
X175420Y102872D01*
Y103552D01*
X175243Y104210D01*
X175156Y104362D01*
X175243Y104514D01*
X175420Y105172D01*
Y105852D01*
X175243Y106510D01*
X174903Y107099D01*
X174422Y107580D01*
X173832Y107921D01*
X173175Y108097D01*
D02*
G37*
G36*
X330705Y106396D02*
X329665D01*
X328659Y106127D01*
X327758Y105606D01*
X327022Y104870D01*
X326502Y103969D01*
X326232Y102964D01*
Y101923D01*
X326502Y100918D01*
X327022Y100016D01*
X327758Y99281D01*
X328659Y98760D01*
X329665Y98491D01*
X330705D01*
X331711Y98760D01*
X332612Y99281D01*
X333348Y100016D01*
X333868Y100918D01*
X334138Y101923D01*
Y102964D01*
X333868Y103969D01*
X333348Y104870D01*
X332612Y105606D01*
X331711Y106127D01*
X330705Y106396D01*
D02*
G37*
G36*
X205039Y113283D02*
X204283D01*
X203585Y112994D01*
X203051Y112459D01*
X202761Y111761D01*
Y111005D01*
X203051Y110307D01*
X203585Y109772D01*
X203796Y109685D01*
Y109144D01*
X203585Y109057D01*
X203051Y108522D01*
X202761Y107824D01*
Y107068D01*
X202911Y106708D01*
X202676Y106129D01*
X202656Y106116D01*
X201774Y105606D01*
X201038Y104870D01*
X200517Y103969D01*
X200248Y102964D01*
Y101923D01*
X200517Y100918D01*
X201038Y100016D01*
X201774Y99281D01*
X202675Y98760D01*
X203680Y98491D01*
X204721D01*
X205727Y98760D01*
X206628Y99281D01*
X207364Y100016D01*
X207884Y100918D01*
X208154Y101923D01*
Y102964D01*
X207884Y103969D01*
X207364Y104870D01*
X206628Y105606D01*
X206274Y105811D01*
X206209Y106306D01*
X206272Y106370D01*
X206561Y107068D01*
Y107824D01*
X206272Y108522D01*
X205738Y109057D01*
X205527Y109144D01*
Y109685D01*
X205738Y109772D01*
X206272Y110307D01*
X206561Y111005D01*
Y111761D01*
X206272Y112459D01*
X205738Y112994D01*
X205039Y113283D01*
D02*
G37*
G36*
X231087Y101310D02*
X230331D01*
X229632Y101020D01*
X229098Y100486D01*
X228809Y99787D01*
Y99032D01*
X229098Y98333D01*
X229632Y97799D01*
X230331Y97509D01*
X231087D01*
X231785Y97799D01*
X232319Y98333D01*
X232609Y99032D01*
Y99787D01*
X232319Y100486D01*
X231785Y101020D01*
X231087Y101310D01*
D02*
G37*
G36*
X212575Y100180D02*
Y97136D01*
X215619D01*
X215385Y98008D01*
X214918Y98818D01*
X214256Y99479D01*
X213446Y99947D01*
X212575Y100180D01*
D02*
G37*
G36*
X211575D02*
X210703Y99947D01*
X209893Y99479D01*
X209232Y98818D01*
X208764Y98008D01*
X208531Y97136D01*
X211575D01*
Y100180D01*
D02*
G37*
G36*
X338559Y100180D02*
Y97136D01*
X341603D01*
X341370Y98008D01*
X340902Y98818D01*
X340241Y99479D01*
X339430Y99947D01*
X338559Y100180D01*
D02*
G37*
G36*
X337559Y100180D02*
X336688Y99947D01*
X335878Y99479D01*
X335216Y98818D01*
X334748Y98008D01*
X334515Y97136D01*
X337559D01*
Y100180D01*
D02*
G37*
G36*
X130890Y98947D02*
X130134D01*
X129436Y98658D01*
X128901Y98124D01*
X128612Y97425D01*
Y96669D01*
X128901Y95971D01*
X129436Y95437D01*
X130134Y95147D01*
X130890D01*
X131588Y95437D01*
X132123Y95971D01*
X132412Y96669D01*
Y97425D01*
X132123Y98124D01*
X131588Y98658D01*
X130890Y98947D01*
D02*
G37*
G36*
X120669Y126378D02*
X58661D01*
Y109358D01*
X58661Y108858D01*
X58161Y108858D01*
X53937D01*
X44094Y99016D01*
X44094Y70866D01*
X48405D01*
X48464Y70850D01*
X49764D01*
X49823Y70866D01*
X54134D01*
Y99213D01*
X56299Y101378D01*
X58661Y101378D01*
X58661Y100878D01*
Y59055D01*
X120669D01*
Y95628D01*
X121169Y95829D01*
X121562Y95437D01*
X122260Y95147D01*
X123016D01*
X123714Y95437D01*
X124249Y95971D01*
X124538Y96669D01*
Y97425D01*
X124249Y98124D01*
X123714Y98658D01*
X123016Y98947D01*
X122260D01*
X121562Y98658D01*
X121169Y98266D01*
X120669Y98467D01*
Y126378D01*
D02*
G37*
G36*
X337559Y96136D02*
X334515D01*
X334748Y95265D01*
X335216Y94455D01*
X335878Y93793D01*
X336688Y93326D01*
X337559Y93092D01*
Y96136D01*
D02*
G37*
G36*
X215619Y96136D02*
X212575D01*
Y93092D01*
X213446Y93326D01*
X214256Y93793D01*
X214918Y94455D01*
X215385Y95265D01*
X215619Y96136D01*
D02*
G37*
G36*
X211575D02*
X208531D01*
X208764Y95265D01*
X209232Y94455D01*
X209893Y93793D01*
X210703Y93326D01*
X211575Y93092D01*
Y96136D01*
D02*
G37*
G36*
X341603Y96136D02*
X338559D01*
Y93092D01*
X339430Y93326D01*
X340241Y93793D01*
X340902Y94455D01*
X341370Y95265D01*
X341603Y96136D01*
D02*
G37*
G36*
X19046Y97254D02*
X18905D01*
Y91248D01*
X24911D01*
Y91389D01*
X24661Y92646D01*
X24171Y93830D01*
X23459Y94895D01*
X22553Y95801D01*
X21487Y96513D01*
X20303Y97004D01*
X19046Y97254D01*
D02*
G37*
G36*
X17905D02*
X17765D01*
X16508Y97004D01*
X15324Y96513D01*
X14258Y95801D01*
X13352Y94895D01*
X12640Y93830D01*
X12150Y92646D01*
X11900Y91389D01*
Y91248D01*
X17905D01*
Y97254D01*
D02*
G37*
G36*
X140979Y90601D02*
X140223D01*
X139525Y90312D01*
X138990Y89777D01*
X138701Y89079D01*
Y88323D01*
X138990Y87625D01*
X139525Y87090D01*
X140223Y86801D01*
X140979D01*
X141677Y87090D01*
X142212Y87625D01*
X142501Y88323D01*
Y89079D01*
X142212Y89777D01*
X141677Y90312D01*
X140979Y90601D01*
D02*
G37*
G36*
X24911Y90248D02*
X18905D01*
Y84242D01*
X19046D01*
X20303Y84492D01*
X21487Y84983D01*
X22553Y85695D01*
X23459Y86601D01*
X24171Y87666D01*
X24661Y88850D01*
X24911Y90107D01*
Y90248D01*
D02*
G37*
G36*
X17905D02*
X11900D01*
Y90107D01*
X12150Y88850D01*
X12640Y87666D01*
X13352Y86601D01*
X14258Y85695D01*
X15324Y84983D01*
X16508Y84492D01*
X17765Y84242D01*
X17905D01*
Y90248D01*
D02*
G37*
G36*
X310315Y80992D02*
Y77947D01*
X313359D01*
X313126Y78819D01*
X312658Y79629D01*
X311996Y80290D01*
X311186Y80758D01*
X310315Y80992D01*
D02*
G37*
G36*
X309315D02*
X308444Y80758D01*
X307633Y80290D01*
X306972Y79629D01*
X306504Y78819D01*
X306271Y77947D01*
X309315D01*
Y80992D01*
D02*
G37*
G36*
X231772D02*
Y77947D01*
X234816D01*
X234582Y78819D01*
X234115Y79629D01*
X233453Y80290D01*
X232643Y80758D01*
X231772Y80992D01*
D02*
G37*
G36*
X230772D02*
X229900Y80758D01*
X229090Y80290D01*
X228429Y79629D01*
X227961Y78819D01*
X227728Y77947D01*
X230772D01*
Y80992D01*
D02*
G37*
G36*
X313359Y76947D02*
X310315D01*
Y73903D01*
X311186Y74137D01*
X311996Y74604D01*
X312658Y75266D01*
X313126Y76076D01*
X313359Y76947D01*
D02*
G37*
G36*
X309315D02*
X306271D01*
X306504Y76076D01*
X306972Y75266D01*
X307633Y74604D01*
X308444Y74137D01*
X309315Y73903D01*
Y76947D01*
D02*
G37*
G36*
X234816D02*
X231772D01*
Y73903D01*
X232643Y74137D01*
X233453Y74604D01*
X234115Y75266D01*
X234582Y76076D01*
X234816Y76947D01*
D02*
G37*
G36*
X230772D02*
X227728D01*
X227961Y76076D01*
X228429Y75266D01*
X229090Y74604D01*
X229900Y74137D01*
X230772Y73903D01*
Y76947D01*
D02*
G37*
G36*
X242307Y77687D02*
X241551D01*
X240853Y77398D01*
X240318Y76864D01*
X240029Y76165D01*
Y75410D01*
X240318Y74711D01*
X240853Y74177D01*
X241551Y73887D01*
X242307D01*
X243005Y74177D01*
X243540Y74711D01*
X243829Y75410D01*
Y76165D01*
X243540Y76864D01*
X243005Y77398D01*
X242307Y77687D01*
D02*
G37*
G36*
X267898Y75916D02*
X267142D01*
X266443Y75626D01*
X265909Y75092D01*
X265620Y74394D01*
Y73638D01*
X265909Y72939D01*
X266443Y72405D01*
X267142Y72116D01*
X267246D01*
Y72012D01*
X267535Y71313D01*
X268070Y70779D01*
X268768Y70489D01*
X269524D01*
X270222Y70779D01*
X270757Y71313D01*
X270927Y71725D01*
X271468D01*
X271618Y71365D01*
X272152Y70830D01*
X272850Y70541D01*
X273606D01*
X274305Y70830D01*
X274378Y70904D01*
X274452Y70830D01*
X275150Y70541D01*
X275906D01*
X276605Y70830D01*
X277072Y71298D01*
X277362Y71336D01*
X277653Y71298D01*
X278120Y70830D01*
X278818Y70541D01*
X279574D01*
X280272Y70830D01*
X280346Y70904D01*
X280420Y70830D01*
X281118Y70541D01*
X281874D01*
X282572Y70830D01*
X283107Y71365D01*
X283116Y71387D01*
X283616D01*
X283626Y71365D01*
X284160Y70830D01*
X284858Y70541D01*
X285614D01*
X286313Y70830D01*
X286386Y70904D01*
X286460Y70830D01*
X287158Y70541D01*
X287914D01*
X288613Y70830D01*
X288945Y71163D01*
X289272Y71309D01*
X289598Y71163D01*
X289931Y70830D01*
X290629Y70541D01*
X291385D01*
X292083Y70830D01*
X292157Y70904D01*
X292231Y70830D01*
X292929Y70541D01*
X293685D01*
X294383Y70830D01*
X294918Y71365D01*
X295207Y72063D01*
Y72819D01*
X294918Y73517D01*
X294383Y74052D01*
X293685Y74341D01*
X292929D01*
X292231Y74052D01*
X292157Y73978D01*
X292083Y74052D01*
X291385Y74341D01*
X290629D01*
X289931Y74052D01*
X289598Y73719D01*
X289272Y73573D01*
X288945Y73719D01*
X288613Y74052D01*
X287914Y74341D01*
X287158D01*
X286460Y74052D01*
X286386Y73978D01*
X286313Y74052D01*
X285614Y74341D01*
X284858D01*
X284160Y74052D01*
X283626Y73517D01*
X283616Y73495D01*
X283116D01*
X283107Y73517D01*
X282572Y74052D01*
X281874Y74341D01*
X281118D01*
X280420Y74052D01*
X280346Y73978D01*
X280272Y74052D01*
X279574Y74341D01*
X278818D01*
X278120Y74052D01*
X277653Y73584D01*
X277362Y73546D01*
X277072Y73584D01*
X276605Y74052D01*
X275906Y74341D01*
X275150D01*
X274452Y74052D01*
X274378Y73978D01*
X274305Y74052D01*
X273606Y74341D01*
X272850D01*
X272152Y74052D01*
X271618Y73517D01*
X271447Y73106D01*
X270906D01*
X270757Y73466D01*
X270222Y74000D01*
X269524Y74289D01*
X269420D01*
Y74394D01*
X269130Y75092D01*
X268596Y75626D01*
X267898Y75916D01*
D02*
G37*
G36*
X153774Y74066D02*
X153018D01*
X152320Y73776D01*
X151786Y73242D01*
X151496Y72544D01*
Y71788D01*
X151786Y71089D01*
X152320Y70555D01*
X153018Y70266D01*
X153774D01*
X154473Y70555D01*
X155007Y71089D01*
X155296Y71788D01*
Y72544D01*
X155007Y73242D01*
X154473Y73776D01*
X153774Y74066D01*
D02*
G37*
G36*
X140979Y73869D02*
X140223D01*
X139525Y73580D01*
X138990Y73045D01*
X138701Y72347D01*
Y71591D01*
X138990Y70893D01*
X139525Y70358D01*
X140223Y70069D01*
X140979D01*
X141677Y70358D01*
X142212Y70893D01*
X142501Y71591D01*
Y72347D01*
X142212Y73045D01*
X141677Y73580D01*
X140979Y73869D01*
D02*
G37*
G36*
X338446Y81390D02*
X337970D01*
Y69479D01*
X349881D01*
Y69956D01*
X349575Y71885D01*
X348972Y73743D01*
X348085Y75484D01*
X346936Y77064D01*
X345555Y78446D01*
X343974Y79594D01*
X342234Y80481D01*
X340376Y81084D01*
X338446Y81390D01*
D02*
G37*
G36*
X336970D02*
X336493D01*
X334563Y81084D01*
X332705Y80481D01*
X330965Y79594D01*
X329384Y78446D01*
X328003Y77064D01*
X326855Y75484D01*
X325968Y73743D01*
X325364Y71885D01*
X325059Y69956D01*
Y69479D01*
X336970D01*
Y81390D01*
D02*
G37*
G36*
X204588Y81390D02*
X204112D01*
Y69479D01*
X216022D01*
Y69956D01*
X215717Y71885D01*
X215113Y73743D01*
X214226Y75484D01*
X213078Y77064D01*
X211697Y78446D01*
X210116Y79594D01*
X208376Y80481D01*
X206518Y81084D01*
X204588Y81390D01*
D02*
G37*
G36*
X203112D02*
X202635D01*
X200705Y81084D01*
X198847Y80481D01*
X197107Y79594D01*
X195526Y78446D01*
X194145Y77064D01*
X192997Y75484D01*
X192110Y73743D01*
X191506Y71885D01*
X191200Y69956D01*
Y69479D01*
X203112D01*
Y81390D01*
D02*
G37*
G36*
X304528Y73526D02*
X303487D01*
X302482Y73257D01*
X301581Y72736D01*
X300845Y72000D01*
X300325Y71099D01*
X300055Y70094D01*
Y69053D01*
X300325Y68048D01*
X300845Y67146D01*
X301581Y66410D01*
X302482Y65890D01*
X303487Y65621D01*
X304528D01*
X305534Y65890D01*
X306435Y66410D01*
X307171Y67146D01*
X307691Y68048D01*
X307961Y69053D01*
Y70094D01*
X307691Y71099D01*
X307171Y72000D01*
X306435Y72736D01*
X305534Y73257D01*
X304528Y73526D01*
D02*
G37*
G36*
X237599D02*
X236558D01*
X235553Y73257D01*
X234652Y72736D01*
X233916Y72000D01*
X233395Y71099D01*
X233126Y70094D01*
Y69053D01*
X233395Y68048D01*
X233916Y67146D01*
X234652Y66410D01*
X235553Y65890D01*
X236558Y65621D01*
X237599D01*
X238604Y65890D01*
X239506Y66410D01*
X240242Y67146D01*
X240762Y68048D01*
X241032Y69053D01*
Y70094D01*
X240762Y71099D01*
X240242Y72000D01*
X239506Y72736D01*
X238604Y73257D01*
X237599Y73526D01*
D02*
G37*
G36*
X153774Y68947D02*
X153018D01*
X152320Y68658D01*
X151786Y68124D01*
X151496Y67425D01*
Y66669D01*
X151786Y65971D01*
X152320Y65437D01*
X153018Y65148D01*
X153774D01*
X154473Y65437D01*
X155007Y65971D01*
X155296Y66669D01*
Y67425D01*
X155007Y68124D01*
X154473Y68658D01*
X153774Y68947D01*
D02*
G37*
G36*
X19046Y67332D02*
X18905D01*
Y61327D01*
X24911D01*
Y61467D01*
X24661Y62724D01*
X24171Y63908D01*
X23459Y64974D01*
X22553Y65880D01*
X21487Y66592D01*
X20303Y67082D01*
X19046Y67332D01*
D02*
G37*
G36*
X17905D02*
X17765D01*
X16508Y67082D01*
X15324Y66592D01*
X14258Y65880D01*
X13352Y64974D01*
X12640Y63908D01*
X12150Y62724D01*
X11900Y61467D01*
Y61327D01*
X17905D01*
Y67332D01*
D02*
G37*
G36*
X140972Y63940D02*
X140216D01*
X139517Y63651D01*
X138983Y63116D01*
X138694Y62418D01*
Y61662D01*
X138983Y60964D01*
X139517Y60429D01*
X140216Y60140D01*
X140972D01*
X141670Y60429D01*
X142204Y60964D01*
X142494Y61662D01*
Y62418D01*
X142204Y63116D01*
X141670Y63651D01*
X140972Y63940D01*
D02*
G37*
G36*
X349881Y68479D02*
X337970D01*
Y56568D01*
X338446D01*
X340376Y56874D01*
X342234Y57477D01*
X343974Y58364D01*
X345555Y59512D01*
X346936Y60894D01*
X348085Y62474D01*
X348972Y64215D01*
X349575Y66073D01*
X349881Y68002D01*
Y68479D01*
D02*
G37*
G36*
X336970D02*
X325059D01*
Y68002D01*
X325364Y66073D01*
X325968Y64215D01*
X326855Y62474D01*
X328003Y60894D01*
X329384Y59512D01*
X330965Y58364D01*
X332705Y57477D01*
X334563Y56874D01*
X336493Y56568D01*
X336970D01*
Y68479D01*
D02*
G37*
G36*
X216022Y68479D02*
X204112D01*
Y56568D01*
X204588D01*
X206518Y56874D01*
X208376Y57477D01*
X210116Y58364D01*
X211697Y59512D01*
X213078Y60894D01*
X214226Y62474D01*
X215113Y64215D01*
X215717Y66073D01*
X216022Y68002D01*
Y68479D01*
D02*
G37*
G36*
X203112D02*
X191200D01*
Y68002D01*
X191506Y66073D01*
X192110Y64215D01*
X192997Y62474D01*
X194145Y60894D01*
X195526Y59512D01*
X197107Y58364D01*
X198847Y57477D01*
X200705Y56874D01*
X202635Y56568D01*
X203112D01*
Y68479D01*
D02*
G37*
G36*
X125575Y58593D02*
X124819D01*
X124121Y58304D01*
X123586Y57769D01*
X123297Y57071D01*
Y56315D01*
X123586Y55617D01*
X124121Y55082D01*
X124819Y54793D01*
X125575D01*
X126273Y55082D01*
X126808Y55617D01*
X127097Y56315D01*
Y57071D01*
X126808Y57769D01*
X126273Y58304D01*
X125575Y58593D01*
D02*
G37*
G36*
X24911Y60327D02*
X18905D01*
Y54321D01*
X19046D01*
X20303Y54571D01*
X21487Y55062D01*
X22553Y55774D01*
X23459Y56680D01*
X24171Y57745D01*
X24661Y58929D01*
X24911Y60186D01*
Y60327D01*
D02*
G37*
G36*
X17905D02*
X11900D01*
Y60186D01*
X12150Y58929D01*
X12640Y57745D01*
X13352Y56680D01*
X14258Y55774D01*
X15324Y55062D01*
X16508Y54571D01*
X17765Y54321D01*
X17905D01*
Y60327D01*
D02*
G37*
G36*
X36795Y47569D02*
X36039D01*
X35341Y47280D01*
X34807Y46746D01*
X34517Y46047D01*
Y45291D01*
X34807Y44593D01*
X35341Y44059D01*
X36039Y43769D01*
X36795D01*
X37494Y44059D01*
X38028Y44593D01*
X38317Y45291D01*
Y46047D01*
X38028Y46746D01*
X37494Y47280D01*
X36795Y47569D01*
D02*
G37*
G36*
X206480Y41861D02*
X205724D01*
X205026Y41571D01*
X204492Y41037D01*
X204202Y40339D01*
Y39583D01*
X204492Y38884D01*
X205026Y38350D01*
X205724Y38061D01*
X206480D01*
X207179Y38350D01*
X207713Y38884D01*
X208002Y39583D01*
Y40339D01*
X207713Y41037D01*
X207179Y41571D01*
X206480Y41861D01*
D02*
G37*
G36*
X203331Y38514D02*
X202575D01*
X201876Y38225D01*
X201342Y37690D01*
X201053Y36992D01*
Y36236D01*
X201342Y35538D01*
X201876Y35003D01*
X202575Y34714D01*
X203331D01*
X204029Y35003D01*
X204563Y35538D01*
X204853Y36236D01*
Y36992D01*
X204563Y37690D01*
X204029Y38225D01*
X203331Y38514D01*
D02*
G37*
G36*
X206480Y34971D02*
X205724D01*
X205026Y34682D01*
X204492Y34147D01*
X204202Y33449D01*
Y32693D01*
X204492Y31995D01*
X205026Y31460D01*
X205724Y31171D01*
X206480D01*
X207179Y31460D01*
X207713Y31995D01*
X208002Y32693D01*
Y33449D01*
X207713Y34147D01*
X207179Y34682D01*
X206480Y34971D01*
D02*
G37*
G36*
X46441Y30837D02*
X45685D01*
X44987Y30548D01*
X44452Y30013D01*
X44163Y29315D01*
Y28559D01*
X44452Y27861D01*
X44987Y27326D01*
X45685Y27037D01*
X46441D01*
X47139Y27326D01*
X47674Y27861D01*
X47963Y28559D01*
Y29315D01*
X47674Y30013D01*
X47139Y30548D01*
X46441Y30837D01*
D02*
G37*
G36*
X12303Y27806D02*
X11327D01*
Y24713D01*
X14420D01*
Y25689D01*
X14259Y26499D01*
X13800Y27186D01*
X13113Y27645D01*
X12303Y27806D01*
D02*
G37*
G36*
X10327D02*
X9350D01*
X8540Y27645D01*
X7853Y27186D01*
X7395Y26499D01*
X7233Y25689D01*
Y24713D01*
X10327D01*
Y27806D01*
D02*
G37*
G36*
X207661Y26506D02*
X206906D01*
X206207Y26217D01*
X205673Y25683D01*
X205383Y24984D01*
Y24228D01*
X205673Y23530D01*
X206207Y22996D01*
X206906Y22706D01*
X207661D01*
X208360Y22996D01*
X208894Y23530D01*
X209184Y24228D01*
Y24984D01*
X208894Y25683D01*
X208360Y26217D01*
X207661Y26506D01*
D02*
G37*
G36*
X14420Y23713D02*
X11327D01*
Y20619D01*
X12303D01*
X13113Y20780D01*
X13800Y21239D01*
X14259Y21926D01*
X14420Y22736D01*
Y23713D01*
D02*
G37*
G36*
X10327D02*
X7233D01*
Y22736D01*
X7395Y21926D01*
X7853Y21239D01*
X8540Y20780D01*
X9350Y20619D01*
X10327D01*
Y23713D01*
D02*
G37*
G36*
X21347Y28165D02*
X20306D01*
X19301Y27896D01*
X18400Y27376D01*
X17664Y26640D01*
X17143Y25738D01*
X16874Y24733D01*
Y23692D01*
X17143Y22687D01*
X17664Y21786D01*
X18400Y21050D01*
X19301Y20529D01*
X20306Y20260D01*
X21347D01*
X22353Y20529D01*
X23254Y21050D01*
X23990Y21786D01*
X24510Y22687D01*
X24780Y23692D01*
Y24733D01*
X24510Y25738D01*
X23990Y26640D01*
X23254Y27376D01*
X22353Y27896D01*
X21347Y28165D01*
D02*
G37*
%LPD*%
D135*
X233465Y204370D02*
D03*
X212075Y214550D02*
D03*
Y96636D02*
D03*
X231272Y77447D02*
D03*
X309815D02*
D03*
X338059Y96636D02*
D03*
Y214550D02*
D03*
D137*
X10827Y24213D02*
D03*
D139*
X18406Y146063D02*
D03*
Y175984D02*
D03*
Y60827D02*
D03*
Y90748D02*
D03*
Y316535D02*
D03*
Y346457D02*
D03*
Y231299D02*
D03*
Y261220D02*
D03*
D141*
X337470Y68979D02*
D03*
X337470Y242207D02*
D03*
X203611Y68979D02*
D03*
Y242207D02*
D03*
D142*
X200787Y366142D02*
D03*
X188976Y377953D02*
D03*
X206693Y392717D02*
D03*
X216535D02*
D03*
X226378D02*
D03*
X236221D02*
D03*
X246063D02*
D03*
X255906D02*
D03*
X265748D02*
D03*
X275590D02*
D03*
X285433D02*
D03*
X295276D02*
D03*
X305118D02*
D03*
X314961D02*
D03*
X324803D02*
D03*
X334646D02*
D03*
Y305118D02*
D03*
X288386Y315945D02*
D03*
X195866Y312402D02*
D03*
X265748Y305906D02*
D03*
X250000D02*
D03*
X234252D02*
D03*
Y318898D02*
D03*
X250000D02*
D03*
X265748D02*
D03*
X280118Y313386D02*
D03*
X285827Y300984D02*
D03*
X257677Y312402D02*
D03*
X241929D02*
D03*
X187992Y318898D02*
D03*
X203740D02*
D03*
X226181Y325984D02*
D03*
X241929D02*
D03*
X257677D02*
D03*
X273425D02*
D03*
X334646Y314961D02*
D03*
Y324803D02*
D03*
Y334646D02*
D03*
Y344488D02*
D03*
Y354331D02*
D03*
X236221Y246063D02*
D03*
X226378Y226378D02*
D03*
X305118Y157480D02*
D03*
X285433D02*
D03*
X275590Y167323D02*
D03*
X265748Y177165D02*
D03*
X255906Y187008D02*
D03*
X336811Y168504D02*
D03*
X303346Y49016D02*
D03*
X296063D02*
D03*
X242717Y54134D02*
D03*
X234646Y46654D02*
D03*
X280315Y49016D02*
D03*
X256496Y56299D02*
D03*
X303150Y23819D02*
D03*
X296260D02*
D03*
X287598D02*
D03*
X280709D02*
D03*
X271654D02*
D03*
X264961D02*
D03*
X254528Y24016D02*
D03*
X233465D02*
D03*
X245079D02*
D03*
X288583Y41142D02*
D03*
X273228D02*
D03*
X256890Y37205D02*
D03*
X242717D02*
D03*
X321850Y129921D02*
D03*
X321850Y138779D02*
D03*
X309055Y25197D02*
D03*
X218505Y268885D02*
D03*
X229331Y278543D02*
D03*
X225394D02*
D03*
X233268Y280315D02*
D03*
Y276969D02*
D03*
X321457Y367323D02*
D03*
Y371457D02*
D03*
Y357087D02*
D03*
Y362992D02*
D03*
X311614Y377165D02*
D03*
X254528Y120866D02*
D03*
X244291Y127992D02*
D03*
X239764Y126969D02*
D03*
X236811D02*
D03*
X232283D02*
D03*
X229331D02*
D03*
X258858Y112795D02*
D03*
X255906D02*
D03*
X247835Y118307D02*
D03*
X250197D02*
D03*
X244094Y121653D02*
D03*
X317717Y113386D02*
D03*
X312078Y113347D02*
D03*
X291299Y113149D02*
D03*
X308536Y278613D02*
D03*
X308465Y294291D02*
D03*
X291292Y380637D02*
D03*
X293099Y368786D02*
D03*
X289961Y368898D02*
D03*
X286811D02*
D03*
X283858D02*
D03*
X296457Y362205D02*
D03*
X277756Y359252D02*
D03*
X328543Y295472D02*
D03*
Y287205D02*
D03*
Y277165D02*
D03*
X346854Y285864D02*
D03*
X343311D02*
D03*
X342126Y274213D02*
D03*
X350394Y276772D02*
D03*
X340748Y267717D02*
D03*
X311221Y260827D02*
D03*
X302467Y276768D02*
D03*
Y280705D02*
D03*
X302467Y301374D02*
D03*
X302467Y297437D02*
D03*
Y293500D02*
D03*
X255593Y298204D02*
D03*
X251656Y298204D02*
D03*
X249964Y350119D02*
D03*
X256585Y368002D02*
D03*
X252648Y360994D02*
D03*
X240551Y344094D02*
D03*
X245325Y336545D02*
D03*
X216732Y362205D02*
D03*
X40551Y32480D02*
D03*
X33268Y34087D02*
D03*
X32874Y45406D02*
D03*
X349213Y200070D02*
D03*
X330646Y194060D02*
D03*
X332597Y188072D02*
D03*
X336417Y178150D02*
D03*
Y158465D02*
D03*
X321850Y168307D02*
D03*
Y158465D02*
D03*
Y148622D02*
D03*
X345213Y135005D02*
D03*
X321850Y125000D02*
D03*
Y113189D02*
D03*
Y107283D02*
D03*
X252240Y277953D02*
D03*
X254724Y275590D02*
D03*
X210433Y184055D02*
D03*
X195866D02*
D03*
X219228Y174375D02*
D03*
X210433Y164370D02*
D03*
X219228Y154690D02*
D03*
Y144848D02*
D03*
X195866Y125000D02*
D03*
Y193898D02*
D03*
Y174213D02*
D03*
X175295Y109577D02*
D03*
Y99084D02*
D03*
X175197Y194228D02*
D03*
Y183735D02*
D03*
Y278869D02*
D03*
Y268376D02*
D03*
Y353021D02*
D03*
Y363514D02*
D03*
X315854Y182665D02*
D03*
X302559Y113189D02*
D03*
X262795Y72835D02*
D03*
X255800Y70229D02*
D03*
Y84796D02*
D03*
X295170D02*
D03*
X289264D02*
D03*
X283359D02*
D03*
X277453D02*
D03*
X271548D02*
D03*
X271260Y70866D02*
D03*
X277362D02*
D03*
X283465D02*
D03*
X289338Y70858D02*
D03*
X295304Y70876D02*
D03*
X265582Y75590D02*
D03*
X195866Y164370D02*
D03*
X204661Y154690D02*
D03*
Y135005D02*
D03*
X195866Y144685D02*
D03*
X298425Y191929D02*
D03*
X294488Y188386D02*
D03*
X336024Y185433D02*
D03*
X331102Y180709D02*
D03*
X321063Y177658D02*
D03*
X331693Y162992D02*
D03*
X277532Y284646D02*
D03*
X271626D02*
D03*
X283437D02*
D03*
Y272835D02*
D03*
X271626D02*
D03*
X283437Y278740D02*
D03*
X277532Y272835D02*
D03*
X271626Y278740D02*
D03*
X277532D02*
D03*
X170808Y350610D02*
D03*
X170818Y366851D02*
D03*
X170808Y265965D02*
D03*
X170818Y282205D02*
D03*
X170808Y181324D02*
D03*
X170818Y197564D02*
D03*
X121605Y201107D02*
D03*
X170818Y157210D02*
D03*
Y149336D02*
D03*
Y141462D02*
D03*
X155070D02*
D03*
X162944D02*
D03*
X170808Y173450D02*
D03*
X166093Y181816D02*
D03*
X56054Y141462D02*
D03*
Y149336D02*
D03*
X63928Y141462D02*
D03*
X71802D02*
D03*
X56054Y157210D02*
D03*
X109597Y141462D02*
D03*
X117471D02*
D03*
X133219D02*
D03*
X141093D02*
D03*
X131507Y146776D02*
D03*
X93849Y141462D02*
D03*
X85975D02*
D03*
X56054Y213312D02*
D03*
X63928D02*
D03*
X71802D02*
D03*
X56054Y197564D02*
D03*
Y205438D02*
D03*
X109587Y213488D02*
D03*
X117461D02*
D03*
X133209D02*
D03*
X141083D02*
D03*
X155070Y213312D02*
D03*
X162944D02*
D03*
X170818D02*
D03*
Y205438D02*
D03*
X85965Y213488D02*
D03*
X93839D02*
D03*
X56005Y181324D02*
D03*
Y173450D02*
D03*
X151723Y193824D02*
D03*
X157629D02*
D03*
X154676Y196776D02*
D03*
X151723Y199729D02*
D03*
X157629D02*
D03*
X126526Y169513D02*
D03*
X122983D02*
D03*
X124164Y150910D02*
D03*
X128101Y146776D02*
D03*
X126378Y173095D02*
D03*
X130315D02*
D03*
X127953Y189119D02*
D03*
X130463Y185950D02*
D03*
X122465Y173028D02*
D03*
X153101Y165674D02*
D03*
X163534Y184375D02*
D03*
X121605Y285748D02*
D03*
X56005Y258091D02*
D03*
Y265965D02*
D03*
X85965Y298129D02*
D03*
X93839D02*
D03*
X170818Y290079D02*
D03*
Y297953D02*
D03*
X155070D02*
D03*
X162944D02*
D03*
X133209Y298129D02*
D03*
X141083D02*
D03*
X109587D02*
D03*
X117461D02*
D03*
X56054Y282205D02*
D03*
Y290079D02*
D03*
Y297953D02*
D03*
X63928D02*
D03*
X71802D02*
D03*
X85975Y226103D02*
D03*
X93849D02*
D03*
X141093D02*
D03*
X131507Y231417D02*
D03*
X133219Y226103D02*
D03*
X109597D02*
D03*
X117471D02*
D03*
X56054D02*
D03*
Y233977D02*
D03*
Y241851D02*
D03*
X63928Y226103D02*
D03*
X71802D02*
D03*
X166093Y266457D02*
D03*
X170808Y258091D02*
D03*
X155070Y226103D02*
D03*
X162944D02*
D03*
X170818D02*
D03*
Y233977D02*
D03*
Y241851D02*
D03*
X151723Y278465D02*
D03*
X154676Y281417D02*
D03*
X157629Y278465D02*
D03*
X151723Y284370D02*
D03*
X157629D02*
D03*
X126526Y254154D02*
D03*
X122983D02*
D03*
X124164Y235551D02*
D03*
X128101Y231417D02*
D03*
X126378Y257736D02*
D03*
X130315D02*
D03*
X127953Y273760D02*
D03*
X130463Y270591D02*
D03*
X122465Y257669D02*
D03*
X153101Y250315D02*
D03*
X163534Y269016D02*
D03*
Y353662D02*
D03*
X153101Y334961D02*
D03*
X122465Y342315D02*
D03*
X130463Y355236D02*
D03*
X127953Y358405D02*
D03*
X130315Y342382D02*
D03*
X126378D02*
D03*
X128101Y316063D02*
D03*
X124164Y320197D02*
D03*
X122983Y338799D02*
D03*
X126526D02*
D03*
X157629Y369016D02*
D03*
X151723D02*
D03*
X154676Y366063D02*
D03*
X157629Y363110D02*
D03*
X151723D02*
D03*
X56005Y342737D02*
D03*
Y350610D02*
D03*
X93839Y382775D02*
D03*
X85965D02*
D03*
X170818Y374725D02*
D03*
Y382599D02*
D03*
X162944D02*
D03*
X155070D02*
D03*
X141083Y382775D02*
D03*
X133209D02*
D03*
X117461D02*
D03*
X109587D02*
D03*
X56054Y374725D02*
D03*
Y366851D02*
D03*
X71802Y382599D02*
D03*
X63928D02*
D03*
X56054D02*
D03*
X93849Y310748D02*
D03*
X85975D02*
D03*
X131507Y316063D02*
D03*
X141093Y310748D02*
D03*
X133219D02*
D03*
X117471D02*
D03*
X109597D02*
D03*
X56054Y326496D02*
D03*
Y318622D02*
D03*
X71802Y310748D02*
D03*
X63928D02*
D03*
X56054D02*
D03*
X166093Y351103D02*
D03*
X170808Y342737D02*
D03*
X162944Y310748D02*
D03*
X155070D02*
D03*
X170818D02*
D03*
Y318622D02*
D03*
Y326496D02*
D03*
X121605Y370394D02*
D03*
X163633Y99725D02*
D03*
X170906Y88800D02*
D03*
X109695Y56811D02*
D03*
X155168Y128662D02*
D03*
X163042D02*
D03*
X93937Y128838D02*
D03*
X163042Y56811D02*
D03*
X56152Y120788D02*
D03*
X117559Y128838D02*
D03*
X170916Y120788D02*
D03*
X155168Y56811D02*
D03*
X109685Y128838D02*
D03*
X170916Y128662D02*
D03*
Y64685D02*
D03*
X141181Y128838D02*
D03*
X56103Y96674D02*
D03*
X56152Y64685D02*
D03*
X64026Y128662D02*
D03*
X56152Y56811D02*
D03*
X133307Y128838D02*
D03*
X86063D02*
D03*
X170916Y72559D02*
D03*
X71900Y128662D02*
D03*
X170916Y56811D02*
D03*
X141192D02*
D03*
X56103Y88800D02*
D03*
X170906Y96674D02*
D03*
X64026Y56811D02*
D03*
X117569D02*
D03*
X56152Y128662D02*
D03*
Y72559D02*
D03*
X86073Y56811D02*
D03*
X71900D02*
D03*
X133318D02*
D03*
X170916Y112914D02*
D03*
X93947Y56811D02*
D03*
X56152Y112914D02*
D03*
X166192Y97166D02*
D03*
X153200Y81024D02*
D03*
X151821Y109173D02*
D03*
Y115079D02*
D03*
X154774Y112126D02*
D03*
X157727Y109173D02*
D03*
Y115079D02*
D03*
X123081Y84862D02*
D03*
X130413Y88445D02*
D03*
X122564Y88378D02*
D03*
X126625Y84862D02*
D03*
X128200Y62126D02*
D03*
X131605D02*
D03*
X126476Y88445D02*
D03*
X124262Y66260D02*
D03*
X130562Y101299D02*
D03*
X128051Y104469D02*
D03*
X121703Y116457D02*
D03*
M02*
