G04*
G04 #@! TF.GenerationSoftware,Altium Limited,Altium Designer,21.0.9 (235)*
G04*
G04 Layer_Physical_Order=3*
G04 Layer_Color=16440176*
%FSLAX25Y25*%
%MOIN*%
G70*
G04*
G04 #@! TF.SameCoordinates,6D45A94B-17CC-4D83-881B-F394DC7C88B3*
G04*
G04*
G04 #@! TF.FilePolarity,Positive*
G04*
G01*
G75*
%ADD13C,0.01000*%
%ADD135C,0.05906*%
%ADD142C,0.01800*%
G36*
X120571Y309449D02*
X43209Y309449D01*
X43209Y384646D01*
X79990Y384646D01*
X80223Y384413D01*
X80921Y384124D01*
X81677D01*
X82376Y384413D01*
X82608Y384646D01*
X120571Y384646D01*
X120571Y309449D01*
D02*
G37*
G36*
X337598Y378498D02*
X337589Y378492D01*
X336833D01*
X336135Y378203D01*
X335601Y377668D01*
X335311Y376970D01*
Y376214D01*
X335601Y375516D01*
X336135Y374981D01*
X336833Y374692D01*
X337589D01*
X337598Y374686D01*
Y356693D01*
X323367D01*
X323357Y356709D01*
Y357465D01*
X323067Y358163D01*
X322533Y358697D01*
X321835Y358987D01*
X321079D01*
X320380Y358697D01*
X319846Y358163D01*
X319557Y357465D01*
Y356709D01*
X319546Y356693D01*
X314498D01*
Y356874D01*
X314209Y357572D01*
X313675Y358107D01*
X312976Y358396D01*
X312221D01*
X311522Y358107D01*
X310988Y357572D01*
X310698Y356874D01*
Y356693D01*
X285955D01*
Y356874D01*
X285666Y357572D01*
X285131Y358107D01*
X284433Y358396D01*
X283677D01*
X282979Y358107D01*
X282444Y357572D01*
X282155Y356874D01*
Y356693D01*
X261221D01*
Y334449D01*
X246534D01*
X246418Y334872D01*
X246415Y334949D01*
X246935Y335469D01*
X247225Y336168D01*
Y336923D01*
X246935Y337622D01*
X246401Y338156D01*
X245703Y338445D01*
X244947D01*
X244248Y338156D01*
X243714Y337622D01*
X243425Y336923D01*
Y336168D01*
X243714Y335469D01*
X244234Y334949D01*
X244231Y334872D01*
X244115Y334449D01*
X190748Y334449D01*
X190748Y55512D01*
X172957Y55512D01*
X172641Y56012D01*
X172816Y56433D01*
Y57189D01*
X172527Y57888D01*
X171992Y58422D01*
X171294Y58711D01*
X170538D01*
X169840Y58422D01*
X169305Y57888D01*
X169016Y57189D01*
Y56433D01*
X169191Y56012D01*
X168875Y55512D01*
X165083D01*
X164767Y56012D01*
X164942Y56433D01*
Y57189D01*
X164653Y57888D01*
X164118Y58422D01*
X163420Y58711D01*
X162664D01*
X161966Y58422D01*
X161431Y57888D01*
X161142Y57189D01*
Y56433D01*
X161317Y56012D01*
X161001Y55512D01*
X157209D01*
X156893Y56012D01*
X157068Y56433D01*
Y57189D01*
X156779Y57888D01*
X156244Y58422D01*
X155546Y58711D01*
X154790D01*
X154092Y58422D01*
X153557Y57888D01*
X153268Y57189D01*
Y56433D01*
X153443Y56012D01*
X153127Y55512D01*
X151248D01*
X143232D01*
X142917Y56012D01*
X143092Y56433D01*
Y57189D01*
X142802Y57888D01*
X142268Y58422D01*
X141569Y58711D01*
X140814D01*
X140115Y58422D01*
X139581Y57888D01*
X139292Y57189D01*
Y56433D01*
X139466Y56012D01*
X139151Y55512D01*
X135358Y55512D01*
X135043Y56012D01*
X135218Y56433D01*
Y57189D01*
X134928Y57888D01*
X134394Y58422D01*
X133695Y58711D01*
X132940D01*
X132241Y58422D01*
X131707Y57888D01*
X131418Y57189D01*
Y56433D01*
X131592Y56012D01*
X131277Y55512D01*
X122189D01*
X121689Y56012D01*
Y82915D01*
X122189Y83175D01*
X122703Y82962D01*
X123459D01*
X124158Y83252D01*
X124537Y83631D01*
X124853Y83734D01*
X125169Y83631D01*
X125548Y83252D01*
X126247Y82962D01*
X127003D01*
X127701Y83252D01*
X128235Y83786D01*
X128525Y84484D01*
Y85240D01*
X128235Y85939D01*
X127773Y86401D01*
X127704Y86537D01*
X127724Y87005D01*
X128087Y87369D01*
X128174Y87579D01*
X128715D01*
X128803Y87369D01*
X129337Y86834D01*
X130035Y86545D01*
X130791D01*
X131490Y86834D01*
X132024Y87369D01*
X132313Y88067D01*
Y88823D01*
X132024Y89521D01*
X131490Y90056D01*
X130791Y90345D01*
X130035D01*
X129337Y90056D01*
X128803Y89521D01*
X128715Y89311D01*
X128174D01*
X128087Y89521D01*
X127553Y90056D01*
X126854Y90345D01*
X126098D01*
X125400Y90056D01*
X124866Y89521D01*
X124777Y89306D01*
X124235D01*
X124174Y89454D01*
X123640Y89988D01*
X122942Y90278D01*
X122186D01*
X122105Y90244D01*
X121689Y90522D01*
X121689Y114557D01*
X122081D01*
X122780Y114846D01*
X123314Y115381D01*
X123603Y116079D01*
Y116835D01*
X123314Y117533D01*
X122780Y118068D01*
X122081Y118357D01*
X121689D01*
Y130709D01*
X124675D01*
X125105Y130279D01*
X125803Y129990D01*
X126559D01*
X127257Y130279D01*
X127687Y130709D01*
X131784D01*
X131991Y130209D01*
X131697Y129914D01*
X131407Y129216D01*
Y128460D01*
X131697Y127762D01*
X132231Y127227D01*
X132929Y126938D01*
X133685D01*
X134384Y127227D01*
X134918Y127762D01*
X135207Y128460D01*
Y129216D01*
X134918Y129914D01*
X134624Y130209D01*
X134831Y130709D01*
X139658D01*
X139865Y130209D01*
X139571Y129914D01*
X139281Y129216D01*
Y128460D01*
X139571Y127762D01*
X140105Y127227D01*
X140803Y126938D01*
X141559D01*
X142258Y127227D01*
X142792Y127762D01*
X143081Y128460D01*
Y129216D01*
X142792Y129914D01*
X142498Y130209D01*
X142705Y130709D01*
X149281D01*
Y130331D01*
X149570Y129632D01*
X150105Y129098D01*
X150803Y128809D01*
X151559D01*
X152257Y129098D01*
X152792Y129632D01*
X153081Y130331D01*
X153420Y130587D01*
X153665Y130553D01*
X153843Y130096D01*
X153837Y130018D01*
X153557Y129738D01*
X153268Y129040D01*
Y128284D01*
X153557Y127585D01*
X154092Y127051D01*
X154790Y126762D01*
X155546D01*
X156244Y127051D01*
X156779Y127585D01*
X157068Y128284D01*
Y129040D01*
X156779Y129738D01*
X156308Y130209D01*
X156362Y130509D01*
X156461Y130709D01*
X161749D01*
X161848Y130509D01*
X161902Y130209D01*
X161431Y129738D01*
X161142Y129040D01*
Y128284D01*
X161431Y127585D01*
X161966Y127051D01*
X162664Y126762D01*
X163420D01*
X164118Y127051D01*
X164653Y127585D01*
X164942Y128284D01*
Y129040D01*
X164673Y129690D01*
X164759Y129922D01*
X164911Y130187D01*
X165437D01*
X166135Y130476D01*
X166368Y130709D01*
X167126D01*
Y140157D01*
X164980D01*
X164667Y140657D01*
X164844Y141084D01*
Y141840D01*
X164554Y142538D01*
X164020Y143072D01*
X163321Y143361D01*
X162566D01*
X161867Y143072D01*
X161333Y142538D01*
X161044Y141840D01*
Y141084D01*
X161220Y140657D01*
X160907Y140157D01*
X157106D01*
X156793Y140657D01*
X156970Y141084D01*
Y141840D01*
X156680Y142538D01*
X156146Y143072D01*
X155447Y143361D01*
X154692D01*
X153993Y143072D01*
X153459Y142538D01*
X153170Y141840D01*
Y141084D01*
X153346Y140657D01*
X153033Y140157D01*
X143129Y140157D01*
X142817Y140657D01*
X142993Y141084D01*
Y141840D01*
X142704Y142538D01*
X142169Y143072D01*
X141471Y143361D01*
X140715D01*
X140017Y143072D01*
X139482Y142538D01*
X139193Y141840D01*
Y141084D01*
X139370Y140657D01*
X139057Y140157D01*
X135255D01*
X134943Y140657D01*
X135119Y141084D01*
Y141840D01*
X134830Y142538D01*
X134295Y143072D01*
X133597Y143361D01*
X132841D01*
X132143Y143072D01*
X131608Y142538D01*
X131319Y141840D01*
Y141084D01*
X131496Y140657D01*
X131183Y140157D01*
X122089D01*
X121590Y140657D01*
Y167565D01*
X122090Y167826D01*
X122605Y167613D01*
X123361D01*
X124059Y167902D01*
X124439Y168281D01*
X124755Y168384D01*
X125071Y168281D01*
X125450Y167902D01*
X126148Y167613D01*
X126904D01*
X127603Y167902D01*
X128137Y168436D01*
X128426Y169135D01*
Y169891D01*
X128137Y170589D01*
X127674Y171052D01*
X127605Y171188D01*
X127625Y171655D01*
X127989Y172019D01*
X128076Y172229D01*
X128617D01*
X128704Y172019D01*
X129239Y171484D01*
X129937Y171195D01*
X130693D01*
X131391Y171484D01*
X131926Y172019D01*
X132215Y172717D01*
Y173473D01*
X131926Y174171D01*
X131391Y174706D01*
X130693Y174995D01*
X129937D01*
X129239Y174706D01*
X128704Y174171D01*
X128617Y173961D01*
X128076D01*
X127989Y174171D01*
X127454Y174706D01*
X126756Y174995D01*
X126000D01*
X125302Y174706D01*
X124767Y174171D01*
X124678Y173957D01*
X124137D01*
X124076Y174104D01*
X123541Y174639D01*
X122843Y174928D01*
X122087D01*
X122006Y174894D01*
X121590Y175172D01*
X121590Y199207D01*
X121983D01*
X122681Y199496D01*
X123216Y200031D01*
X123505Y200729D01*
Y201485D01*
X123216Y202183D01*
X122681Y202718D01*
X121983Y203007D01*
X121590D01*
Y215354D01*
X124903D01*
X125213Y215226D01*
X125969D01*
X126278Y215354D01*
X131681D01*
X131888Y214854D01*
X131598Y214565D01*
X131309Y213866D01*
Y213110D01*
X131598Y212412D01*
X132133Y211878D01*
X132831Y211588D01*
X133587D01*
X134285Y211878D01*
X134820Y212412D01*
X135109Y213110D01*
Y213866D01*
X134820Y214565D01*
X134530Y214854D01*
X134737Y215354D01*
X139555D01*
X139762Y214854D01*
X139472Y214565D01*
X139183Y213866D01*
Y213110D01*
X139472Y212412D01*
X140007Y211878D01*
X140705Y211588D01*
X141461D01*
X142159Y211878D01*
X142694Y212412D01*
X142983Y213110D01*
Y213866D01*
X142694Y214565D01*
X142404Y214854D01*
X142611Y215354D01*
X150349Y215354D01*
X150647Y215231D01*
X151403D01*
X151702Y215354D01*
X153772D01*
X153863Y215177D01*
X153925Y214854D01*
X153459Y214388D01*
X153170Y213690D01*
Y212934D01*
X153459Y212236D01*
X153993Y211701D01*
X154692Y211412D01*
X155447D01*
X156146Y211701D01*
X156680Y212236D01*
X156970Y212934D01*
Y213690D01*
X156680Y214388D01*
X156214Y214854D01*
X156277Y215177D01*
X156368Y215354D01*
X161646D01*
X161737Y215177D01*
X161799Y214854D01*
X161333Y214388D01*
X161044Y213690D01*
Y212934D01*
X161333Y212236D01*
X161867Y211701D01*
X162566Y211412D01*
X163321D01*
X164020Y211701D01*
X164554Y212236D01*
X164844Y212934D01*
Y213690D01*
X164574Y214340D01*
X164661Y214573D01*
X164813Y214837D01*
X165339D01*
X166037Y215126D01*
X166265Y215354D01*
X167126D01*
Y224803D01*
X164984D01*
X164669Y225303D01*
X164844Y225725D01*
Y226481D01*
X164554Y227179D01*
X164020Y227713D01*
X163321Y228003D01*
X162566D01*
X161867Y227713D01*
X161333Y227179D01*
X161044Y226481D01*
Y225725D01*
X161218Y225303D01*
X160903Y224803D01*
X157110D01*
X156795Y225303D01*
X156970Y225725D01*
Y226481D01*
X156680Y227179D01*
X156146Y227713D01*
X155447Y228003D01*
X154692D01*
X153993Y227713D01*
X153459Y227179D01*
X153170Y226481D01*
Y225725D01*
X153344Y225303D01*
X153029Y224803D01*
X146654D01*
X143134Y224803D01*
X142819Y225303D01*
X142993Y225725D01*
Y226481D01*
X142704Y227179D01*
X142169Y227713D01*
X141471Y228003D01*
X140715D01*
X140017Y227713D01*
X139482Y227179D01*
X139193Y226481D01*
Y225725D01*
X139368Y225303D01*
X139052Y224803D01*
X135260D01*
X134945Y225303D01*
X135119Y225725D01*
Y226481D01*
X134830Y227179D01*
X134295Y227713D01*
X133597Y228003D01*
X132841D01*
X132143Y227713D01*
X131608Y227179D01*
X131319Y226481D01*
Y225725D01*
X131494Y225303D01*
X131178Y224803D01*
X122090D01*
X121590Y224803D01*
Y252206D01*
X122090Y252467D01*
X122605Y252254D01*
X123361D01*
X124059Y252543D01*
X124439Y252922D01*
X124755Y253025D01*
X125071Y252922D01*
X125450Y252543D01*
X126148Y252254D01*
X126904D01*
X127603Y252543D01*
X128137Y253078D01*
X128426Y253776D01*
Y254532D01*
X128137Y255230D01*
X127674Y255693D01*
X127605Y255829D01*
X127625Y256296D01*
X127989Y256660D01*
X128076Y256870D01*
X128617D01*
X128704Y256660D01*
X129239Y256125D01*
X129937Y255836D01*
X130693D01*
X131391Y256125D01*
X131926Y256660D01*
X132215Y257358D01*
Y258114D01*
X131926Y258812D01*
X131391Y259347D01*
X130693Y259636D01*
X129937D01*
X129239Y259347D01*
X128704Y258812D01*
X128617Y258602D01*
X128076D01*
X127989Y258812D01*
X127454Y259347D01*
X126756Y259636D01*
X126000D01*
X125302Y259347D01*
X124767Y258812D01*
X124678Y258598D01*
X124137D01*
X124076Y258745D01*
X123541Y259280D01*
X122843Y259569D01*
X122087D01*
X122006Y259535D01*
X121590Y259813D01*
X121590Y283848D01*
X121983D01*
X122681Y284138D01*
X123216Y284672D01*
X123505Y285370D01*
Y286126D01*
X123216Y286824D01*
X122681Y287359D01*
X121983Y287648D01*
X121590D01*
Y299500D01*
X122090Y300000D01*
X124706D01*
X125016Y299872D01*
X125772D01*
X126082Y300000D01*
X129716D01*
X131685D01*
X131893Y299500D01*
X131598Y299206D01*
X131309Y298507D01*
Y297751D01*
X131598Y297053D01*
X132133Y296519D01*
X132831Y296229D01*
X133587D01*
X134285Y296519D01*
X134820Y297053D01*
X135109Y297751D01*
Y298507D01*
X134820Y299206D01*
X134525Y299500D01*
X134732Y300000D01*
X139559D01*
X139767Y299500D01*
X139472Y299206D01*
X139183Y298507D01*
Y297751D01*
X139472Y297053D01*
X140007Y296519D01*
X140705Y296229D01*
X141461D01*
X142159Y296519D01*
X142694Y297053D01*
X142983Y297751D01*
Y298507D01*
X142694Y299206D01*
X142399Y299500D01*
X142606Y300000D01*
X150463Y300000D01*
X150498Y299964D01*
X151197Y299675D01*
X151953D01*
X152651Y299964D01*
X152687Y300000D01*
X153776D01*
X153875Y299801D01*
X153930Y299500D01*
X153459Y299029D01*
X153170Y298331D01*
Y297575D01*
X153459Y296877D01*
X153993Y296342D01*
X154692Y296053D01*
X155447D01*
X156146Y296342D01*
X156680Y296877D01*
X156970Y297575D01*
Y298331D01*
X156680Y299029D01*
X156210Y299500D01*
X156264Y299801D01*
X156363Y300000D01*
X161650D01*
X161749Y299801D01*
X161804Y299500D01*
X161333Y299029D01*
X161044Y298331D01*
Y297575D01*
X161333Y296877D01*
X161867Y296342D01*
X162566Y296053D01*
X163321D01*
X164020Y296342D01*
X164554Y296877D01*
X164844Y297575D01*
Y298331D01*
X164574Y298981D01*
X164661Y299214D01*
X164813Y299478D01*
X165339D01*
X166037Y299767D01*
X166270Y300000D01*
X167126D01*
Y309449D01*
X164984D01*
X164669Y309949D01*
X164844Y310370D01*
Y311126D01*
X164554Y311824D01*
X164020Y312359D01*
X163321Y312648D01*
X162566D01*
X161867Y312359D01*
X161333Y311824D01*
X161044Y311126D01*
Y310370D01*
X161218Y309949D01*
X160903Y309449D01*
X157110D01*
X156795Y309949D01*
X156970Y310370D01*
Y311126D01*
X156680Y311824D01*
X156146Y312359D01*
X155447Y312648D01*
X154692D01*
X153993Y312359D01*
X153459Y311824D01*
X153170Y311126D01*
Y310370D01*
X153344Y309949D01*
X153029Y309449D01*
X143134Y309449D01*
X142819Y309949D01*
X142993Y310370D01*
Y311126D01*
X142704Y311824D01*
X142169Y312359D01*
X141471Y312648D01*
X140715D01*
X140017Y312359D01*
X139482Y311824D01*
X139193Y311126D01*
Y310370D01*
X139368Y309949D01*
X139052Y309449D01*
X135260D01*
X134945Y309949D01*
X135119Y310370D01*
Y311126D01*
X134830Y311824D01*
X134295Y312359D01*
X133597Y312648D01*
X132841D01*
X132143Y312359D01*
X131608Y311824D01*
X131319Y311126D01*
Y310370D01*
X131494Y309949D01*
X131178Y309449D01*
X126515D01*
X122090D01*
X121590Y309449D01*
Y336852D01*
X122090Y337113D01*
X122605Y336899D01*
X123361D01*
X124059Y337189D01*
X124439Y337568D01*
X124755Y337671D01*
X125071Y337568D01*
X125450Y337189D01*
X126148Y336899D01*
X126904D01*
X127603Y337189D01*
X128137Y337723D01*
X128426Y338422D01*
Y339177D01*
X128137Y339876D01*
X127674Y340338D01*
X127605Y340474D01*
X127625Y340942D01*
X127989Y341306D01*
X128076Y341516D01*
X128617D01*
X128704Y341306D01*
X129239Y340771D01*
X129937Y340482D01*
X130693D01*
X131391Y340771D01*
X131926Y341306D01*
X132215Y342004D01*
Y342760D01*
X131926Y343458D01*
X131391Y343993D01*
X130693Y344282D01*
X129937D01*
X129239Y343993D01*
X128704Y343458D01*
X128617Y343248D01*
X128076D01*
X127989Y343458D01*
X127454Y343993D01*
X126756Y344282D01*
X126000D01*
X125302Y343993D01*
X124767Y343458D01*
X124678Y343243D01*
X124137D01*
X124076Y343391D01*
X123541Y343925D01*
X122843Y344215D01*
X122087D01*
X122006Y344181D01*
X121590Y344459D01*
X121590Y368494D01*
X121983D01*
X122681Y368783D01*
X123216Y369318D01*
X123505Y370016D01*
Y370772D01*
X123216Y371470D01*
X122681Y372005D01*
X121983Y372294D01*
X121590D01*
Y384146D01*
X122090Y384646D01*
X131685D01*
X131893Y384146D01*
X131598Y383851D01*
X131309Y383153D01*
Y382397D01*
X131598Y381699D01*
X132133Y381164D01*
X132831Y380875D01*
X133587D01*
X134285Y381164D01*
X134820Y381699D01*
X135109Y382397D01*
Y383153D01*
X134820Y383851D01*
X134525Y384146D01*
X134732Y384646D01*
X139559D01*
X139767Y384146D01*
X139472Y383851D01*
X139183Y383153D01*
Y382397D01*
X139472Y381699D01*
X140007Y381164D01*
X140705Y380875D01*
X141461D01*
X142159Y381164D01*
X142694Y381699D01*
X142983Y382397D01*
Y383153D01*
X142694Y383851D01*
X142399Y384146D01*
X142606Y384646D01*
X145148D01*
X145380Y384413D01*
X146079Y384124D01*
X146835D01*
X147533Y384413D01*
X147766Y384646D01*
X153776D01*
X153875Y384447D01*
X153930Y384146D01*
X153459Y383675D01*
X153170Y382977D01*
Y382221D01*
X153459Y381522D01*
X153993Y380988D01*
X154692Y380699D01*
X155447D01*
X156146Y380988D01*
X156680Y381522D01*
X156970Y382221D01*
Y382977D01*
X156680Y383675D01*
X156210Y384146D01*
X156264Y384447D01*
X156363Y384646D01*
X161650D01*
X161749Y384447D01*
X161804Y384146D01*
X161333Y383675D01*
X161044Y382977D01*
Y382221D01*
X161333Y381522D01*
X161867Y380988D01*
X162566Y380699D01*
X163321D01*
X164020Y380988D01*
X164554Y381522D01*
X164844Y382221D01*
Y382977D01*
X164574Y383627D01*
X164661Y383859D01*
X164813Y384124D01*
X165339D01*
X166037Y384413D01*
X166270Y384646D01*
X169524D01*
X169623Y384447D01*
X169678Y384146D01*
X169207Y383675D01*
X168918Y382977D01*
Y382221D01*
X169207Y381522D01*
X169741Y380988D01*
X170440Y380699D01*
X171196D01*
X171894Y380988D01*
X172428Y381522D01*
X172718Y382221D01*
Y382977D01*
X172428Y383675D01*
X171958Y384146D01*
X172012Y384447D01*
X172111Y384646D01*
X337598D01*
Y378498D01*
D02*
G37*
G36*
X354573Y51726D02*
X313224D01*
Y74147D01*
X313198Y74278D01*
X313190Y74411D01*
X313160Y74472D01*
X313147Y74538D01*
X313073Y74648D01*
X313014Y74768D01*
X312978Y75020D01*
X313498Y75922D01*
X313768Y76927D01*
Y77968D01*
X313498Y78973D01*
X312978Y79874D01*
X312242Y80610D01*
X311341Y81131D01*
X310335Y81400D01*
X309295D01*
X308289Y81131D01*
X307388Y80610D01*
X307253Y80700D01*
X307115Y80776D01*
X306984Y80863D01*
X306942Y80872D01*
X306905Y80892D01*
X306748Y80910D01*
X306594Y80941D01*
X234492D01*
X234338Y80910D01*
X234182Y80892D01*
X234144Y80872D01*
X234102Y80863D01*
X233972Y80776D01*
X233834Y80700D01*
X233699Y80610D01*
X232797Y81131D01*
X231792Y81400D01*
X230751D01*
X229746Y81131D01*
X228845Y80610D01*
X228109Y79874D01*
X227588Y78973D01*
X227319Y77968D01*
Y76927D01*
X227588Y75922D01*
X228083Y75065D01*
X228019Y75023D01*
X228015Y75016D01*
X228008Y75012D01*
X227905Y74851D01*
X227798Y74692D01*
X227797Y74684D01*
X227792Y74678D01*
X227758Y74490D01*
X227721Y74302D01*
Y34308D01*
X227288Y34058D01*
X227196Y34111D01*
X227007Y34175D01*
X226827Y34263D01*
X225884Y34516D01*
X225684Y34529D01*
X225488Y34568D01*
X224512D01*
X224316Y34529D01*
X224116Y34516D01*
X223173Y34263D01*
X222993Y34175D01*
X222804Y34111D01*
X221958Y33622D01*
X221808Y33490D01*
X221642Y33379D01*
X220951Y32689D01*
X220840Y32523D01*
X220708Y32372D01*
X220220Y31527D01*
X220156Y31337D01*
X220067Y31158D01*
X219815Y30215D01*
X219805Y30064D01*
X219766Y29919D01*
X219734Y29431D01*
X219740Y29380D01*
X219730Y29331D01*
Y2602D01*
X218658Y1529D01*
X179767D01*
X178695Y2602D01*
Y26450D01*
X179110Y26728D01*
X179347Y26630D01*
X180102D01*
X180801Y26920D01*
X181335Y27454D01*
X181425Y27671D01*
X181966D01*
X182051Y27467D01*
X182585Y26933D01*
X182796Y26845D01*
Y26304D01*
X182585Y26217D01*
X182051Y25683D01*
X181761Y24984D01*
Y24228D01*
X182051Y23530D01*
X182585Y22996D01*
X183283Y22706D01*
X184039D01*
X184738Y22996D01*
X185272Y23530D01*
X185359Y23741D01*
X185900D01*
X185988Y23530D01*
X186522Y22996D01*
X187221Y22706D01*
X187976D01*
X188675Y22996D01*
X189209Y23530D01*
X189498Y24228D01*
Y24984D01*
X189209Y25683D01*
X188675Y26217D01*
X187976Y26506D01*
X187221D01*
X186522Y26217D01*
X185988Y25683D01*
X185900Y25472D01*
X185359D01*
X185272Y25683D01*
X184738Y26217D01*
X184527Y26304D01*
Y26845D01*
X184738Y26933D01*
X185272Y27467D01*
X185561Y28165D01*
Y28921D01*
X185272Y29620D01*
X184738Y30154D01*
X184039Y30443D01*
X183283D01*
X182585Y30154D01*
X182051Y29620D01*
X181961Y29403D01*
X181420D01*
X181335Y29607D01*
X180801Y30141D01*
X180102Y30430D01*
X179347D01*
X179110Y30333D01*
X178695Y30610D01*
Y43012D01*
X178687Y43049D01*
X178693Y43087D01*
X178658Y43791D01*
X178631Y43901D01*
Y44014D01*
X178356Y45396D01*
X178298Y45535D01*
X178269Y45683D01*
X177730Y46984D01*
X177646Y47109D01*
X177588Y47249D01*
X176806Y48420D01*
X176699Y48526D01*
X176616Y48651D01*
X175620Y49647D01*
X175495Y49731D01*
X175388Y49837D01*
X174217Y50620D01*
X174078Y50678D01*
X173953Y50761D01*
X172651Y51300D01*
X172503Y51330D01*
X172364Y51387D01*
X170983Y51662D01*
X170832D01*
X170685Y51692D01*
X169276D01*
X169128Y51662D01*
X168978D01*
X167596Y51387D01*
X167457Y51330D01*
X167309Y51300D01*
X166008Y50761D01*
X165883Y50678D01*
X165744Y50620D01*
X164573Y49837D01*
X164466Y49731D01*
X164341Y49647D01*
X163345Y48651D01*
X163261Y48526D01*
X163155Y48420D01*
X162372Y47249D01*
X162314Y47109D01*
X162231Y46984D01*
X161692Y45683D01*
X161662Y45535D01*
X161605Y45396D01*
X161330Y44014D01*
Y43901D01*
X161302Y43791D01*
X161268Y43087D01*
X161273Y43049D01*
X161266Y43012D01*
Y32319D01*
X132828D01*
Y50197D01*
X132712Y50782D01*
X132381Y51278D01*
X131884Y51610D01*
X131299Y51726D01*
X122928D01*
X122776Y52226D01*
X123129Y52462D01*
X125159Y54492D01*
X131277D01*
X131388Y54514D01*
X131502Y54517D01*
X131581Y54553D01*
X131667Y54570D01*
X131761Y54633D01*
X131865Y54679D01*
X131925Y54742D01*
X131998Y54791D01*
X132061Y54885D01*
X132139Y54968D01*
X132277Y55186D01*
X132940Y54911D01*
X133695D01*
X134359Y55186D01*
X134496Y54968D01*
X134574Y54885D01*
X134637Y54791D01*
X134710Y54742D01*
X134770Y54679D01*
X134874Y54633D01*
X134968Y54570D01*
X135054Y54553D01*
X135133Y54517D01*
X135247Y54514D01*
X135358Y54492D01*
X139151Y54492D01*
X139262Y54514D01*
X139376Y54517D01*
X139455Y54553D01*
X139541Y54570D01*
X139635Y54633D01*
X139739Y54679D01*
X139799Y54742D01*
X139872Y54791D01*
X139935Y54885D01*
X140013Y54968D01*
X140151Y55186D01*
X140814Y54911D01*
X141569D01*
X142233Y55186D01*
X142370Y54968D01*
X142448Y54885D01*
X142511Y54791D01*
X142584Y54742D01*
X142644Y54679D01*
X142748Y54633D01*
X142842Y54570D01*
X142928Y54553D01*
X143007Y54517D01*
X143121Y54514D01*
X143232Y54492D01*
X153127D01*
X153238Y54514D01*
X153352Y54517D01*
X153432Y54553D01*
X153517Y54570D01*
X153612Y54633D01*
X153716Y54679D01*
X153776Y54742D01*
X153848Y54791D01*
X153911Y54885D01*
X153989Y54968D01*
X154127Y55186D01*
X154790Y54911D01*
X155546D01*
X156209Y55186D01*
X156346Y54968D01*
X156425Y54885D01*
X156488Y54791D01*
X156560Y54742D01*
X156620Y54679D01*
X156724Y54633D01*
X156819Y54570D01*
X156904Y54553D01*
X156984Y54517D01*
X157097Y54514D01*
X157209Y54492D01*
X161001D01*
X161113Y54514D01*
X161226Y54517D01*
X161306Y54553D01*
X161391Y54570D01*
X161486Y54633D01*
X161590Y54679D01*
X161650Y54742D01*
X161722Y54791D01*
X161785Y54885D01*
X161864Y54968D01*
X162001Y55186D01*
X162664Y54911D01*
X163420D01*
X164083Y55186D01*
X164220Y54968D01*
X164299Y54885D01*
X164362Y54791D01*
X164434Y54742D01*
X164494Y54679D01*
X164598Y54633D01*
X164693Y54570D01*
X164778Y54553D01*
X164858Y54517D01*
X164971Y54514D01*
X165083Y54492D01*
X168875D01*
X168987Y54514D01*
X169100Y54517D01*
X169180Y54553D01*
X169265Y54570D01*
X169360Y54633D01*
X169464Y54679D01*
X169524Y54742D01*
X169596Y54791D01*
X169659Y54885D01*
X169738Y54968D01*
X169875Y55186D01*
X170538Y54911D01*
X171294D01*
X171957Y55186D01*
X172095Y54968D01*
X172173Y54885D01*
X172236Y54791D01*
X172308Y54742D01*
X172368Y54679D01*
X172472Y54633D01*
X172567Y54570D01*
X172652Y54553D01*
X172732Y54517D01*
X172845Y54514D01*
X172957Y54492D01*
X190748Y54492D01*
X191138Y54570D01*
X191469Y54791D01*
X191690Y55122D01*
X191768Y55512D01*
Y62934D01*
X192254Y63051D01*
X192655Y62265D01*
X193840Y60633D01*
X195266Y59207D01*
X196897Y58022D01*
X198694Y57107D01*
X200612Y56483D01*
X202603Y56168D01*
X204620D01*
X206611Y56483D01*
X208529Y57107D01*
X210326Y58022D01*
X211957Y59207D01*
X213383Y60633D01*
X214568Y62265D01*
X215484Y64061D01*
X216107Y65979D01*
X216423Y67971D01*
Y69987D01*
X216107Y71979D01*
X215484Y73897D01*
X214568Y75693D01*
X213383Y77325D01*
X211957Y78751D01*
X210326Y79936D01*
X208529Y80851D01*
X206611Y81475D01*
X204620Y81790D01*
X202603D01*
X200612Y81475D01*
X198694Y80851D01*
X196897Y79936D01*
X195266Y78751D01*
X193840Y77325D01*
X192655Y75693D01*
X192254Y74907D01*
X191768Y75024D01*
X191768Y236163D01*
X192254Y236279D01*
X192655Y235493D01*
X193840Y233861D01*
X195266Y232436D01*
X196897Y231250D01*
X198694Y230335D01*
X200612Y229712D01*
X202603Y229396D01*
X204620D01*
X206611Y229712D01*
X208529Y230335D01*
X210326Y231250D01*
X211957Y232436D01*
X213383Y233861D01*
X214568Y235493D01*
X215484Y237290D01*
X216107Y239207D01*
X216423Y241199D01*
Y243215D01*
X216107Y245207D01*
X215484Y247125D01*
X214568Y248922D01*
X213383Y250553D01*
X211957Y251979D01*
X210326Y253164D01*
X208529Y254080D01*
X206611Y254703D01*
X204620Y255018D01*
X202603D01*
X200612Y254703D01*
X198694Y254080D01*
X196897Y253164D01*
X195266Y251979D01*
X193840Y250553D01*
X192655Y248922D01*
X192254Y248135D01*
X191768Y248252D01*
X191768Y333429D01*
X244115Y333429D01*
X244178Y333442D01*
X244241Y333437D01*
X244371Y333480D01*
X244505Y333507D01*
X244558Y333542D01*
X244619Y333563D01*
X244722Y333652D01*
X244836Y333728D01*
X244871Y333781D01*
X244920Y333823D01*
X244981Y333945D01*
X245057Y334059D01*
X245069Y334121D01*
X245325Y334152D01*
X245580Y334121D01*
X245592Y334059D01*
X245668Y333945D01*
X245730Y333823D01*
X245778Y333781D01*
X245813Y333728D01*
X245927Y333652D01*
X246030Y333562D01*
X246091Y333542D01*
X246144Y333507D01*
X246278Y333480D01*
X246408Y333437D01*
X246472Y333442D01*
X246534Y333429D01*
X261221D01*
X261611Y333507D01*
X261941Y333728D01*
X262162Y334059D01*
X262240Y334449D01*
Y355673D01*
X282155D01*
X282325Y355707D01*
X282444Y355420D01*
X282979Y354885D01*
X283677Y354596D01*
X284433D01*
X285131Y354885D01*
X285666Y355420D01*
X285785Y355707D01*
X285955Y355673D01*
X310698D01*
X310869Y355707D01*
X310988Y355420D01*
X311522Y354885D01*
X312221Y354596D01*
X312976D01*
X313675Y354885D01*
X314209Y355420D01*
X314328Y355707D01*
X314498Y355673D01*
X319546D01*
X319645Y355693D01*
X319745Y355693D01*
X319838Y355731D01*
X319936Y355751D01*
X320020Y355807D01*
X320041Y355816D01*
X320380Y355476D01*
X321079Y355187D01*
X321835D01*
X322533Y355476D01*
X322872Y355816D01*
X322894Y355807D01*
X322977Y355751D01*
X323076Y355731D01*
X323168Y355693D01*
X323269Y355693D01*
X323367Y355673D01*
X332648D01*
X332938Y355173D01*
X332746Y354709D01*
Y353953D01*
X333035Y353254D01*
X333569Y352720D01*
X334268Y352431D01*
X335024D01*
X335722Y352720D01*
X336256Y353254D01*
X336546Y353953D01*
Y354709D01*
X336353Y355173D01*
X336643Y355673D01*
X337598D01*
X337989Y355751D01*
X338319Y355972D01*
X338540Y356303D01*
X338618Y356693D01*
Y374686D01*
X338598Y374785D01*
X338598Y374885D01*
X338560Y374978D01*
X338540Y375076D01*
X338485Y375160D01*
X338479Y375173D01*
X338822Y375516D01*
X339111Y376214D01*
Y376970D01*
X338822Y377668D01*
X338479Y378011D01*
X338485Y378024D01*
X338540Y378108D01*
X338560Y378206D01*
X338598Y378299D01*
X338598Y378400D01*
X338618Y378498D01*
Y384646D01*
X338540Y385036D01*
X338319Y385367D01*
X337989Y385588D01*
X337598Y385665D01*
X174428D01*
X174094Y386165D01*
X174243Y386524D01*
Y387280D01*
X173953Y387978D01*
X173419Y388513D01*
X173208Y388600D01*
Y389141D01*
X173419Y389228D01*
X173953Y389763D01*
X174243Y390461D01*
Y391217D01*
X173953Y391915D01*
X173419Y392450D01*
X172721Y392739D01*
X171965D01*
X171266Y392450D01*
X170732Y391915D01*
X170443Y391217D01*
Y390771D01*
X169996D01*
X169298Y390481D01*
X168763Y389947D01*
X168474Y389248D01*
Y388492D01*
X168763Y387794D01*
X169298Y387260D01*
X169996Y386970D01*
X170443D01*
Y386524D01*
X170732Y385826D01*
X171208Y385349D01*
X171031Y384889D01*
X170818Y384851D01*
X170536Y384900D01*
X170437Y385100D01*
X170337Y385230D01*
X170245Y385367D01*
X170216Y385386D01*
X170194Y385415D01*
X170051Y385496D01*
X169914Y385588D01*
X169880Y385595D01*
X169849Y385612D01*
X169686Y385633D01*
X169524Y385665D01*
X166270D01*
X165879Y385588D01*
X165549Y385367D01*
X165459Y385277D01*
X165136Y385143D01*
X164813D01*
X164681Y385117D01*
X164548Y385108D01*
X164488Y385079D01*
X164423Y385066D01*
X164311Y384991D01*
X164191Y384932D01*
X164147Y384882D01*
X164092Y384845D01*
X164017Y384733D01*
X163929Y384632D01*
X163777Y384368D01*
X163710Y384338D01*
X163321Y384499D01*
X162776D01*
X162753Y384627D01*
X162700Y384761D01*
X162662Y384900D01*
X162563Y385100D01*
X162463Y385230D01*
X162371Y385367D01*
X162342Y385386D01*
X162320Y385415D01*
X162177Y385496D01*
X162040Y385588D01*
X162006Y385595D01*
X161975Y385612D01*
X161812Y385633D01*
X161650Y385665D01*
X156363D01*
X156202Y385633D01*
X156038Y385612D01*
X156008Y385595D01*
X155973Y385588D01*
X155836Y385496D01*
X155693Y385415D01*
X155671Y385386D01*
X155642Y385367D01*
X155551Y385230D01*
X155450Y385100D01*
X155351Y384900D01*
X155070Y384851D01*
X154788Y384900D01*
X154689Y385100D01*
X154589Y385230D01*
X154497Y385367D01*
X154468Y385386D01*
X154446Y385415D01*
X154303Y385496D01*
X154166Y385588D01*
X154132Y385595D01*
X154101Y385612D01*
X153938Y385633D01*
X153776Y385665D01*
X147766D01*
X147376Y385588D01*
X147045Y385367D01*
X146955Y385277D01*
X146632Y385143D01*
X146282D01*
X145958Y385277D01*
X145869Y385367D01*
X145538Y385588D01*
X145148Y385665D01*
X142606D01*
X142216Y385588D01*
X141885Y385367D01*
X141665Y385036D01*
X141507Y384656D01*
X141461Y384675D01*
X140705D01*
X140659Y384656D01*
X140501Y385036D01*
X140280Y385367D01*
X139950Y385588D01*
X139559Y385665D01*
X134732D01*
X134342Y385588D01*
X134011Y385367D01*
X133790Y385036D01*
X133633Y384656D01*
X133587Y384675D01*
X132831D01*
X132785Y384656D01*
X132627Y385036D01*
X132406Y385367D01*
X132076Y385588D01*
X131685Y385665D01*
X122090D01*
X121700Y385588D01*
X121331Y385388D01*
X120961Y385588D01*
X120571Y385665D01*
X82608Y385665D01*
X82218Y385588D01*
X81887Y385367D01*
X81798Y385277D01*
X81474Y385143D01*
X81124D01*
X80800Y385277D01*
X80711Y385367D01*
X80380Y385588D01*
X79990Y385665D01*
X43209Y385665D01*
X42818Y385588D01*
X42488Y385367D01*
X42267Y385036D01*
X42189Y384646D01*
X42189Y309449D01*
X42267Y309059D01*
X42488Y308728D01*
X42818Y308507D01*
X43209Y308429D01*
X74085Y308429D01*
X74375Y307929D01*
X74183Y307465D01*
Y306709D01*
X74472Y306010D01*
X75007Y305476D01*
X75705Y305187D01*
X76461D01*
X77159Y305476D01*
X77693Y306010D01*
X77983Y306709D01*
Y307465D01*
X77790Y307929D01*
X78080Y308429D01*
X120571Y308429D01*
X120961Y308507D01*
X121081Y308587D01*
X121200Y308507D01*
X121590Y308429D01*
X122090Y308429D01*
X131178D01*
X131290Y308451D01*
X131403Y308454D01*
X131483Y308490D01*
X131569Y308507D01*
X131663Y308570D01*
X131767Y308616D01*
X131827Y308679D01*
X131899Y308728D01*
X131962Y308822D01*
X132041Y308905D01*
X132178Y309123D01*
X132841Y308848D01*
X133597D01*
X134260Y309123D01*
X134398Y308905D01*
X134476Y308822D01*
X134539Y308728D01*
X134612Y308679D01*
X134671Y308616D01*
X134775Y308570D01*
X134870Y308507D01*
X134955Y308490D01*
X135035Y308454D01*
X135149Y308451D01*
X135260Y308429D01*
X139052D01*
X139164Y308451D01*
X139277Y308454D01*
X139357Y308490D01*
X139443Y308507D01*
X139537Y308570D01*
X139641Y308616D01*
X139701Y308679D01*
X139773Y308728D01*
X139837Y308822D01*
X139915Y308905D01*
X140052Y309123D01*
X140715Y308848D01*
X141471D01*
X142134Y309123D01*
X142272Y308905D01*
X142350Y308822D01*
X142413Y308728D01*
X142486Y308679D01*
X142546Y308616D01*
X142649Y308570D01*
X142744Y308507D01*
X142829Y308490D01*
X142909Y308454D01*
X143023Y308451D01*
X143134Y308429D01*
X153029Y308429D01*
X153140Y308451D01*
X153254Y308454D01*
X153333Y308490D01*
X153419Y308507D01*
X153513Y308570D01*
X153617Y308616D01*
X153677Y308679D01*
X153750Y308728D01*
X153813Y308822D01*
X153891Y308905D01*
X154029Y309123D01*
X154692Y308848D01*
X155447D01*
X156111Y309123D01*
X156248Y308905D01*
X156326Y308822D01*
X156389Y308728D01*
X156462Y308679D01*
X156522Y308616D01*
X156626Y308570D01*
X156720Y308507D01*
X156806Y308490D01*
X156885Y308454D01*
X156999Y308451D01*
X157110Y308429D01*
X160903D01*
X161014Y308451D01*
X161128Y308454D01*
X161207Y308490D01*
X161293Y308507D01*
X161387Y308570D01*
X161491Y308616D01*
X161551Y308679D01*
X161624Y308728D01*
X161687Y308822D01*
X161765Y308905D01*
X161903Y309123D01*
X162566Y308848D01*
X163321D01*
X163985Y309123D01*
X164122Y308905D01*
X164200Y308822D01*
X164263Y308728D01*
X164336Y308679D01*
X164396Y308616D01*
X164500Y308570D01*
X164594Y308507D01*
X164680Y308490D01*
X164759Y308454D01*
X164873Y308451D01*
X164984Y308429D01*
X166106D01*
Y300987D01*
X165879Y300942D01*
X165549Y300721D01*
X165459Y300632D01*
X165136Y300498D01*
X164813D01*
X164681Y300471D01*
X164548Y300463D01*
X164488Y300433D01*
X164423Y300420D01*
X164311Y300345D01*
X164191Y300286D01*
X164147Y300236D01*
X164092Y300199D01*
X164017Y300088D01*
X163929Y299987D01*
X163777Y299722D01*
X163710Y299692D01*
X163321Y299853D01*
X162776D01*
X162753Y299982D01*
X162700Y300116D01*
X162662Y300255D01*
X162563Y300454D01*
X162463Y300584D01*
X162371Y300721D01*
X162342Y300741D01*
X162320Y300769D01*
X162177Y300851D01*
X162040Y300942D01*
X162006Y300949D01*
X161975Y300967D01*
X161812Y300988D01*
X161650Y301020D01*
X156363D01*
X156202Y300988D01*
X156038Y300967D01*
X156008Y300949D01*
X155973Y300942D01*
X155836Y300851D01*
X155693Y300769D01*
X155671Y300741D01*
X155642Y300721D01*
X155551Y300584D01*
X155450Y300454D01*
X155351Y300255D01*
X155070Y300205D01*
X154788Y300255D01*
X154689Y300454D01*
X154589Y300584D01*
X154497Y300721D01*
X154468Y300741D01*
X154446Y300769D01*
X154303Y300851D01*
X154166Y300942D01*
X154132Y300949D01*
X154101Y300967D01*
X153938Y300988D01*
X153930Y300989D01*
X153475Y301197D01*
Y301953D01*
X153185Y302651D01*
X152651Y303186D01*
X151953Y303475D01*
X151609D01*
X151275Y303975D01*
X151309Y304059D01*
Y304815D01*
X151020Y305513D01*
X150486Y306047D01*
X149787Y306337D01*
X149031D01*
X148333Y306047D01*
X147799Y305513D01*
X147509Y304815D01*
Y304059D01*
X147799Y303360D01*
X148333Y302826D01*
X149031Y302537D01*
X149375D01*
X149709Y302037D01*
X149675Y301953D01*
Y301520D01*
X149248Y301020D01*
X142606Y301020D01*
X142216Y300942D01*
X141885Y300721D01*
X141665Y300390D01*
X141507Y300010D01*
X141461Y300029D01*
X140705D01*
X140659Y300010D01*
X140501Y300390D01*
X140280Y300721D01*
X139950Y300942D01*
X139559Y301020D01*
X134732D01*
X134342Y300942D01*
X134011Y300721D01*
X133790Y300390D01*
X133633Y300010D01*
X133587Y300029D01*
X132831D01*
X132785Y300010D01*
X132627Y300390D01*
X132406Y300721D01*
X132076Y300942D01*
X131685Y301020D01*
X127544D01*
X127294Y301394D01*
Y302150D01*
X127004Y302848D01*
X126470Y303382D01*
X125772Y303672D01*
X125016D01*
X124317Y303382D01*
X123783Y302848D01*
X123494Y302150D01*
Y301394D01*
X123244Y301020D01*
X122090D01*
X121700Y300942D01*
X121370Y300721D01*
X120961Y300942D01*
X120571Y301020D01*
X81889Y301020D01*
X81498Y300942D01*
X81376Y300891D01*
X81026D01*
X80903Y300942D01*
X80513Y301020D01*
X43209Y301020D01*
X42818Y300942D01*
X42488Y300721D01*
X42267Y300390D01*
X42189Y300000D01*
X42189Y224803D01*
X42267Y224413D01*
X42488Y224082D01*
X42818Y223861D01*
X43209Y223783D01*
X74080Y223784D01*
X74373Y223284D01*
X74183Y222824D01*
Y222068D01*
X74472Y221369D01*
X75007Y220835D01*
X75705Y220546D01*
X76461D01*
X77159Y220835D01*
X77693Y221369D01*
X77983Y222068D01*
Y222824D01*
X77792Y223284D01*
X78085Y223784D01*
X120571Y223784D01*
X120961Y223861D01*
X121081Y223941D01*
X121200Y223861D01*
X121590Y223784D01*
X122090Y223784D01*
X131178D01*
X131290Y223806D01*
X131403Y223809D01*
X131483Y223844D01*
X131569Y223861D01*
X131663Y223924D01*
X131767Y223971D01*
X131827Y224034D01*
X131899Y224082D01*
X131962Y224177D01*
X132041Y224259D01*
X132178Y224477D01*
X132841Y224203D01*
X133597D01*
X134260Y224477D01*
X134398Y224259D01*
X134476Y224177D01*
X134539Y224082D01*
X134612Y224034D01*
X134671Y223971D01*
X134775Y223924D01*
X134870Y223861D01*
X134955Y223844D01*
X135035Y223809D01*
X135149Y223806D01*
X135260Y223784D01*
X139052D01*
X139164Y223806D01*
X139277Y223809D01*
X139357Y223844D01*
X139443Y223861D01*
X139537Y223924D01*
X139641Y223971D01*
X139701Y224034D01*
X139773Y224082D01*
X139837Y224177D01*
X139915Y224259D01*
X140052Y224477D01*
X140715Y224203D01*
X141471D01*
X142134Y224477D01*
X142272Y224259D01*
X142350Y224177D01*
X142413Y224082D01*
X142486Y224034D01*
X142546Y223971D01*
X142649Y223924D01*
X142744Y223861D01*
X142829Y223844D01*
X142909Y223809D01*
X143023Y223806D01*
X143134Y223784D01*
X146654Y223784D01*
X153029D01*
X153140Y223806D01*
X153254Y223809D01*
X153333Y223844D01*
X153419Y223861D01*
X153513Y223924D01*
X153617Y223971D01*
X153677Y224034D01*
X153750Y224082D01*
X153813Y224177D01*
X153891Y224259D01*
X154029Y224477D01*
X154692Y224203D01*
X155447D01*
X156111Y224477D01*
X156248Y224259D01*
X156326Y224177D01*
X156389Y224082D01*
X156462Y224034D01*
X156522Y223971D01*
X156626Y223924D01*
X156720Y223861D01*
X156806Y223844D01*
X156885Y223809D01*
X156999Y223806D01*
X157110Y223784D01*
X160903D01*
X161014Y223806D01*
X161128Y223809D01*
X161207Y223844D01*
X161293Y223861D01*
X161387Y223924D01*
X161491Y223971D01*
X161551Y224034D01*
X161624Y224082D01*
X161687Y224177D01*
X161765Y224259D01*
X161903Y224477D01*
X162566Y224203D01*
X163321D01*
X163985Y224477D01*
X164122Y224259D01*
X164200Y224177D01*
X164263Y224082D01*
X164336Y224034D01*
X164396Y223971D01*
X164500Y223924D01*
X164594Y223861D01*
X164680Y223844D01*
X164759Y223809D01*
X164873Y223806D01*
X164984Y223784D01*
X166106D01*
Y216342D01*
X165875Y216296D01*
X165544Y216075D01*
X165459Y215990D01*
X165136Y215857D01*
X164813D01*
X164681Y215830D01*
X164548Y215821D01*
X164488Y215792D01*
X164423Y215779D01*
X164311Y215704D01*
X164191Y215645D01*
X164147Y215595D01*
X164092Y215558D01*
X164017Y215446D01*
X163929Y215346D01*
X163777Y215081D01*
X163710Y215051D01*
X163321Y215212D01*
X162768D01*
X162738Y215371D01*
X162683Y215504D01*
X162644Y215643D01*
X162553Y215820D01*
X162454Y215944D01*
X162367Y216075D01*
X162332Y216099D01*
X162305Y216132D01*
X162167Y216209D01*
X162036Y216296D01*
X161995Y216304D01*
X161958Y216325D01*
X161801Y216343D01*
X161646Y216374D01*
X156368D01*
X156212Y216343D01*
X156055Y216325D01*
X156019Y216304D01*
X155977Y216296D01*
X155846Y216209D01*
X155708Y216132D01*
X155682Y216099D01*
X155647Y216075D01*
X155559Y215944D01*
X155460Y215820D01*
X155370Y215643D01*
X155330Y215504D01*
X155330Y215503D01*
X155300Y215495D01*
X154839Y215495D01*
X154809Y215503D01*
X154809Y215504D01*
X154770Y215643D01*
X154679Y215820D01*
X154580Y215944D01*
X154493Y216075D01*
X154458Y216099D01*
X154431Y216132D01*
X154293Y216209D01*
X154162Y216296D01*
X154121Y216304D01*
X154084Y216325D01*
X153927Y216343D01*
X153772Y216374D01*
X153179D01*
X152925Y216753D01*
Y217509D01*
X152636Y218207D01*
X152102Y218741D01*
X151403Y219031D01*
X151010D01*
X150632Y219414D01*
X150629Y219493D01*
Y220174D01*
X150339Y220872D01*
X149805Y221406D01*
X149107Y221696D01*
X148351D01*
X147652Y221406D01*
X147118Y220872D01*
X146829Y220174D01*
Y219418D01*
X147118Y218719D01*
X147652Y218185D01*
X148351Y217896D01*
X148744D01*
X149122Y217512D01*
X149125Y217434D01*
Y216753D01*
X148872Y216374D01*
X142611Y216374D01*
X142221Y216296D01*
X141890Y216075D01*
X141669Y215744D01*
X141513Y215367D01*
X141461Y215388D01*
X140705D01*
X140653Y215367D01*
X140497Y215744D01*
X140276Y216075D01*
X139945Y216296D01*
X139555Y216374D01*
X134737D01*
X134347Y216296D01*
X134016Y216075D01*
X133795Y215744D01*
X133639Y215367D01*
X133587Y215388D01*
X132831D01*
X132779Y215367D01*
X132623Y215744D01*
X132402Y216075D01*
X132071Y216296D01*
X131681Y216374D01*
X127741D01*
X127491Y216748D01*
Y217504D01*
X127201Y218202D01*
X126667Y218737D01*
X125969Y219026D01*
X125213D01*
X124514Y218737D01*
X123980Y218202D01*
X123691Y217504D01*
Y216748D01*
X123441Y216374D01*
X121590D01*
X121200Y216296D01*
X121084Y216219D01*
X120961Y216301D01*
X120571Y216378D01*
X81889Y216378D01*
X81498Y216301D01*
X81376Y216250D01*
X81026D01*
X80903Y216301D01*
X80513Y216378D01*
X43209Y216378D01*
X42818Y216301D01*
X42488Y216080D01*
X42267Y215749D01*
X42189Y215359D01*
X42189Y140162D01*
X42267Y139772D01*
X42488Y139441D01*
X42818Y139220D01*
X43209Y139143D01*
X74257Y139143D01*
X74591Y138643D01*
X74478Y138370D01*
Y137614D01*
X74767Y136916D01*
X75302Y136381D01*
X76000Y136092D01*
X76756D01*
X77454Y136381D01*
X77989Y136916D01*
X78278Y137614D01*
Y138370D01*
X78165Y138643D01*
X78499Y139143D01*
X120571Y139143D01*
X120961Y139220D01*
X121292Y139441D01*
X121697Y139216D01*
X121697Y139216D01*
X121698Y139216D01*
X121893Y139177D01*
X122087Y139138D01*
X122088Y139138D01*
X122089Y139138D01*
X131183D01*
X131296Y139160D01*
X131412Y139164D01*
X131490Y139199D01*
X131573Y139216D01*
X131669Y139280D01*
X131775Y139327D01*
X131833Y139389D01*
X131904Y139436D01*
X131968Y139533D01*
X132047Y139617D01*
X132183Y139834D01*
X132841Y139561D01*
X133597D01*
X134255Y139834D01*
X134391Y139617D01*
X134470Y139533D01*
X134534Y139436D01*
X134605Y139389D01*
X134664Y139327D01*
X134769Y139280D01*
X134865Y139216D01*
X134949Y139199D01*
X135027Y139164D01*
X135142Y139160D01*
X135255Y139138D01*
X139057D01*
X139170Y139160D01*
X139286Y139164D01*
X139364Y139199D01*
X139447Y139216D01*
X139543Y139280D01*
X139649Y139327D01*
X139707Y139389D01*
X139778Y139436D01*
X139842Y139533D01*
X139921Y139617D01*
X140057Y139834D01*
X140715Y139561D01*
X141471D01*
X142129Y139834D01*
X142265Y139617D01*
X142344Y139533D01*
X142409Y139436D01*
X142479Y139389D01*
X142538Y139327D01*
X142643Y139280D01*
X142739Y139216D01*
X142823Y139199D01*
X142901Y139164D01*
X143016Y139160D01*
X143129Y139138D01*
X153033Y139138D01*
X153147Y139160D01*
X153262Y139164D01*
X153340Y139199D01*
X153424Y139216D01*
X153520Y139280D01*
X153625Y139327D01*
X153683Y139389D01*
X153754Y139436D01*
X153819Y139533D01*
X153898Y139617D01*
X154034Y139834D01*
X154692Y139561D01*
X155447D01*
X156105Y139834D01*
X156241Y139617D01*
X156321Y139533D01*
X156385Y139436D01*
X156456Y139389D01*
X156514Y139327D01*
X156620Y139280D01*
X156716Y139216D01*
X156799Y139199D01*
X156877Y139164D01*
X156992Y139160D01*
X157106Y139138D01*
X160907D01*
X161021Y139160D01*
X161136Y139164D01*
X161214Y139199D01*
X161298Y139216D01*
X161394Y139280D01*
X161499Y139327D01*
X161557Y139389D01*
X161628Y139436D01*
X161693Y139533D01*
X161772Y139617D01*
X161908Y139834D01*
X162566Y139561D01*
X163321D01*
X163979Y139834D01*
X164115Y139617D01*
X164195Y139533D01*
X164259Y139436D01*
X164330Y139389D01*
X164388Y139327D01*
X164494Y139280D01*
X164590Y139216D01*
X164673Y139199D01*
X164751Y139164D01*
X164866Y139160D01*
X164980Y139138D01*
X166106D01*
Y131676D01*
X165978Y131651D01*
X165647Y131430D01*
X165558Y131340D01*
X165234Y131206D01*
X164911D01*
X164780Y131180D01*
X164646Y131171D01*
X164586Y131142D01*
X164521Y131129D01*
X164410Y131054D01*
X164289Y130995D01*
X164246Y130945D01*
X164190Y130908D01*
X164116Y130796D01*
X164028Y130695D01*
X163875Y130431D01*
X163809Y130401D01*
X163420Y130562D01*
X162874D01*
X162851Y130691D01*
X162798Y130825D01*
X162761Y130964D01*
X162662Y131163D01*
X162561Y131293D01*
X162470Y131430D01*
X162440Y131449D01*
X162418Y131477D01*
X162276Y131559D01*
X162139Y131651D01*
X162104Y131658D01*
X162073Y131675D01*
X161910Y131696D01*
X161749Y131728D01*
X156461D01*
X156300Y131696D01*
X156137Y131675D01*
X156106Y131658D01*
X156071Y131651D01*
X155934Y131559D01*
X155792Y131477D01*
X155770Y131449D01*
X155740Y131430D01*
X155649Y131293D01*
X155548Y131163D01*
X155449Y130964D01*
X155412Y130825D01*
X155359Y130690D01*
X155336Y130562D01*
X154790D01*
X154749Y130579D01*
X154615Y130922D01*
X154540Y131041D01*
X154479Y131167D01*
X154434Y131207D01*
X154401Y131258D01*
X154286Y131338D01*
X154182Y131432D01*
X154125Y131451D01*
X154075Y131486D01*
X153938Y131516D01*
X153806Y131562D01*
X153561Y131597D01*
X153561Y131597D01*
X153560Y131597D01*
X153360Y131585D01*
X153164Y131574D01*
X152792Y131785D01*
X152257Y132319D01*
X151559Y132609D01*
X151096D01*
X150753Y133088D01*
X150916Y133480D01*
Y134236D01*
X150627Y134934D01*
X150092Y135469D01*
X149394Y135758D01*
X148638D01*
X147940Y135469D01*
X147405Y134934D01*
X147116Y134236D01*
Y133480D01*
X147405Y132782D01*
X147940Y132247D01*
X147986Y132228D01*
X147887Y131728D01*
X142705D01*
X142315Y131651D01*
X141984Y131430D01*
X141763Y131099D01*
X141605Y130719D01*
X141559Y130738D01*
X140803D01*
X140757Y130719D01*
X140600Y131099D01*
X140379Y131430D01*
X140048Y131651D01*
X139658Y131728D01*
X134831D01*
X134441Y131651D01*
X134110Y131430D01*
X133889Y131099D01*
X133731Y130719D01*
X133685Y130738D01*
X132929D01*
X132883Y130719D01*
X132726Y131099D01*
X132505Y131430D01*
X132174Y131651D01*
X131784Y131728D01*
X128081D01*
Y132268D01*
X127792Y132966D01*
X127257Y133501D01*
X126559Y133790D01*
X125803D01*
X125105Y133501D01*
X124570Y132966D01*
X124281Y132268D01*
Y131728D01*
X121689D01*
X121299Y131651D01*
X121179Y131571D01*
X121060Y131651D01*
X120669Y131728D01*
X81987Y131728D01*
X81597Y131651D01*
X81474Y131600D01*
X81124D01*
X81002Y131651D01*
X80611Y131728D01*
X78331D01*
X78081Y132102D01*
Y132858D01*
X77792Y133557D01*
X77257Y134091D01*
X76559Y134380D01*
X75803D01*
X75105Y134091D01*
X74570Y133557D01*
X74281Y132858D01*
Y132102D01*
X74031Y131728D01*
X43307Y131728D01*
X42917Y131651D01*
X42586Y131430D01*
X42365Y131099D01*
X42287Y130709D01*
X42287Y55512D01*
X42365Y55122D01*
X42586Y54791D01*
X42917Y54570D01*
X43307Y54492D01*
X55219D01*
X55411Y54030D01*
X51871Y50491D01*
X51540Y49995D01*
X51423Y49409D01*
Y36460D01*
X45800Y30837D01*
X45685D01*
X44987Y30548D01*
X44452Y30013D01*
X44163Y29315D01*
Y28559D01*
X44452Y27861D01*
X44987Y27326D01*
X45685Y27037D01*
X46441D01*
X47139Y27326D01*
X47674Y27861D01*
X47963Y28559D01*
Y28674D01*
X54034Y34745D01*
X54366Y35241D01*
X54482Y35827D01*
Y48776D01*
X57710Y52003D01*
X58169Y51954D01*
X58311Y51504D01*
X57974Y51278D01*
X57642Y50782D01*
X57526Y50197D01*
Y19246D01*
X1529D01*
Y379043D01*
X1998Y379216D01*
X2567Y378551D01*
X4160Y377190D01*
X5946Y376095D01*
X7882Y375293D01*
X9919Y374804D01*
X12008Y374640D01*
X14097Y374804D01*
X16134Y375293D01*
X18070Y376095D01*
X19856Y377190D01*
X21449Y378551D01*
X22810Y380144D01*
X23905Y381930D01*
X24707Y383866D01*
X25196Y385903D01*
X25360Y387992D01*
X25196Y390081D01*
X24707Y392118D01*
X23905Y394054D01*
X22810Y395840D01*
X21449Y397434D01*
X19856Y398794D01*
X18070Y399889D01*
X16134Y400691D01*
X14097Y401180D01*
X12008Y401344D01*
X9919Y401180D01*
X7882Y400691D01*
X5946Y399889D01*
X4160Y398794D01*
X2567Y397434D01*
X1998Y396768D01*
X1529Y396942D01*
Y414809D01*
X354573D01*
X354573Y51726D01*
D02*
G37*
G36*
X120571Y224803D02*
X43209Y224803D01*
X43209Y300000D01*
X80513Y300000D01*
X80823Y299872D01*
X81579D01*
X81889Y300000D01*
X120571Y300000D01*
X120571Y224803D01*
D02*
G37*
G36*
Y140162D02*
X43209Y140162D01*
X43209Y215359D01*
X80513Y215359D01*
X80823Y215231D01*
X81579D01*
X81889Y215359D01*
X120571Y215359D01*
X120571Y140162D01*
D02*
G37*
G36*
X120669Y55512D02*
X43307Y55512D01*
X43307Y130709D01*
X75493Y130709D01*
X75803Y130580D01*
X76559D01*
X76869Y130709D01*
X79401D01*
X80611D01*
X80921Y130580D01*
X81677D01*
X81987Y130709D01*
X120669Y130709D01*
X120669Y55512D01*
D02*
G37*
G36*
X306852Y79421D02*
X306504Y78819D01*
X306271Y77947D01*
X309815D01*
Y77447D01*
X310315D01*
Y73903D01*
X311186Y74137D01*
X311705Y74436D01*
X312205Y74147D01*
Y51726D01*
X311619Y51610D01*
X311123Y51278D01*
X310792Y50782D01*
X310675Y50197D01*
Y43255D01*
X310175Y43013D01*
X309630Y43239D01*
X308874D01*
X308176Y42949D01*
X307641Y42415D01*
X307352Y41717D01*
Y40961D01*
X307641Y40262D01*
X308176Y39728D01*
X308874Y39439D01*
X309630D01*
X310175Y39665D01*
X310675Y39422D01*
Y34200D01*
X310175Y33957D01*
X309630Y34183D01*
X308874D01*
X308176Y33894D01*
X307641Y33360D01*
X307352Y32661D01*
Y31905D01*
X307641Y31207D01*
X308176Y30673D01*
X308874Y30384D01*
X309630D01*
X310175Y30609D01*
X310675Y30367D01*
Y2602D01*
X309603Y1529D01*
X231342D01*
X230270Y2602D01*
Y29331D01*
X230260Y29381D01*
X230266Y29431D01*
X230234Y29919D01*
X230195Y30064D01*
X230185Y30215D01*
X229933Y31158D01*
X229844Y31337D01*
X229780Y31527D01*
X229292Y32372D01*
X229160Y32523D01*
X229049Y32689D01*
X228740Y32998D01*
Y74302D01*
X229240Y74518D01*
X229900Y74137D01*
X230772Y73903D01*
Y77447D01*
X231272D01*
Y77947D01*
X234816D01*
X234582Y78819D01*
X234234Y79421D01*
X234492Y79921D01*
X306594D01*
X306852Y79421D01*
D02*
G37*
%LPC*%
G36*
X94794Y379874D02*
X94039D01*
X93340Y379585D01*
X92806Y379050D01*
X92516Y378352D01*
Y377596D01*
X92806Y376898D01*
X93340Y376363D01*
X94039Y376074D01*
X94794D01*
X95493Y376363D01*
X96027Y376898D01*
X96316Y377596D01*
Y378352D01*
X96027Y379050D01*
X95493Y379585D01*
X94794Y379874D01*
D02*
G37*
G36*
X83744Y366861D02*
X82988D01*
X82290Y366571D01*
X81755Y366037D01*
X81466Y365339D01*
Y364583D01*
X81755Y363884D01*
X82290Y363350D01*
X82988Y363061D01*
X83744D01*
X84442Y363350D01*
X84977Y363884D01*
X85266Y364583D01*
Y365339D01*
X84977Y366037D01*
X84442Y366571D01*
X83744Y366861D01*
D02*
G37*
G36*
X98816Y351900D02*
X98060D01*
X97361Y351611D01*
X96827Y351076D01*
X96538Y350378D01*
Y349622D01*
X96827Y348924D01*
X97361Y348389D01*
X98060Y348100D01*
X98816D01*
X99514Y348389D01*
X100048Y348924D01*
X100338Y349622D01*
Y350378D01*
X100048Y351076D01*
X99514Y351611D01*
X98816Y351900D01*
D02*
G37*
G36*
X49764Y336433D02*
X48464D01*
X47208Y336097D01*
X46083Y335447D01*
X45164Y334527D01*
X44514Y333402D01*
X44177Y332146D01*
Y330846D01*
X44514Y329590D01*
X45164Y328465D01*
X46083Y327545D01*
X47208Y326895D01*
X48464Y326559D01*
X49764D01*
X51020Y326895D01*
X52145Y327545D01*
X53065Y328465D01*
X53715Y329590D01*
X54051Y330846D01*
Y332146D01*
X53715Y333402D01*
X53065Y334527D01*
X52145Y335447D01*
X51020Y336097D01*
X49764Y336433D01*
D02*
G37*
G36*
X62337Y327215D02*
X61581D01*
X60883Y326926D01*
X60349Y326391D01*
X60059Y325693D01*
Y324937D01*
X60349Y324239D01*
X60883Y323704D01*
X61581Y323415D01*
X62337D01*
X63036Y323704D01*
X63570Y324239D01*
X63859Y324937D01*
Y325693D01*
X63570Y326391D01*
X63036Y326926D01*
X62337Y327215D01*
D02*
G37*
G36*
X291670Y382537D02*
X290915D01*
X290216Y382247D01*
X289682Y381713D01*
X289392Y381014D01*
Y380259D01*
X289682Y379560D01*
X290216Y379026D01*
X290915Y378737D01*
X291670D01*
X292369Y379026D01*
X292903Y379560D01*
X293192Y380259D01*
Y381014D01*
X292903Y381713D01*
X292369Y382247D01*
X291670Y382537D01*
D02*
G37*
G36*
X139846Y380049D02*
X139090D01*
X138392Y379760D01*
X137857Y379226D01*
X137568Y378527D01*
Y377771D01*
X137857Y377073D01*
X138392Y376539D01*
X139090Y376249D01*
X139846D01*
X140544Y376539D01*
X141079Y377073D01*
X141368Y377771D01*
Y378527D01*
X141079Y379226D01*
X140544Y379760D01*
X139846Y380049D01*
D02*
G37*
G36*
X189354Y379853D02*
X188599D01*
X187900Y379563D01*
X187366Y379029D01*
X187076Y378331D01*
Y377575D01*
X187366Y376876D01*
X187900Y376342D01*
X188599Y376053D01*
X189354D01*
X190053Y376342D01*
X190587Y376876D01*
X190876Y377575D01*
Y378331D01*
X190587Y379029D01*
X190053Y379563D01*
X189354Y379853D01*
D02*
G37*
G36*
X276187Y378866D02*
X275431D01*
X274733Y378577D01*
X274199Y378042D01*
X273909Y377344D01*
Y376588D01*
X274199Y375890D01*
X274733Y375355D01*
X275431Y375066D01*
X276187D01*
X276886Y375355D01*
X277420Y375890D01*
X277709Y376588D01*
Y377344D01*
X277420Y378042D01*
X276886Y378577D01*
X276187Y378866D01*
D02*
G37*
G36*
X296835Y376703D02*
X296079D01*
X295380Y376414D01*
X294846Y375879D01*
X294557Y375181D01*
Y374425D01*
X294846Y373727D01*
X295380Y373192D01*
X296079Y372903D01*
X296835D01*
X297533Y373192D01*
X298067Y373727D01*
X298357Y374425D01*
Y375181D01*
X298067Y375879D01*
X297533Y376414D01*
X296835Y376703D01*
D02*
G37*
G36*
X171196Y376625D02*
X170440D01*
X169741Y376335D01*
X169207Y375801D01*
X168918Y375103D01*
Y374347D01*
X169207Y373648D01*
X169741Y373114D01*
X170440Y372825D01*
X171196D01*
X171894Y373114D01*
X172428Y373648D01*
X172718Y374347D01*
Y375103D01*
X172428Y375801D01*
X171894Y376335D01*
X171196Y376625D01*
D02*
G37*
G36*
X290339Y370798D02*
X289583D01*
X288884Y370508D01*
X288386Y370010D01*
X287887Y370508D01*
X287189Y370798D01*
X286433D01*
X285735Y370508D01*
X285335Y370108D01*
X284934Y370508D01*
X284236Y370798D01*
X283480D01*
X282782Y370508D01*
X282247Y369974D01*
X281958Y369276D01*
Y368520D01*
X282247Y367821D01*
X282782Y367287D01*
X283480Y366998D01*
X284236D01*
X284934Y367287D01*
X285335Y367687D01*
X285735Y367287D01*
X286433Y366998D01*
X287189D01*
X287887Y367287D01*
X288386Y367785D01*
X288884Y367287D01*
X289583Y366998D01*
X290339D01*
X291037Y367287D01*
X291465Y367715D01*
X291489Y367710D01*
X292023Y367176D01*
X292721Y366886D01*
X293477D01*
X294176Y367176D01*
X294710Y367710D01*
X294999Y368408D01*
Y369164D01*
X294710Y369863D01*
X294176Y370397D01*
X293477Y370686D01*
X292721D01*
X292023Y370397D01*
X291595Y369969D01*
X291571Y369974D01*
X291037Y370508D01*
X290339Y370798D01*
D02*
G37*
G36*
X311992Y379065D02*
X311236D01*
X310538Y378776D01*
X310003Y378242D01*
X309714Y377543D01*
Y376787D01*
X310003Y376089D01*
X310538Y375555D01*
X311236Y375265D01*
X311992D01*
X312225Y375362D01*
X312342Y375316D01*
X312686Y375012D01*
Y374425D01*
X312976Y373727D01*
X313306Y373397D01*
X313381Y372962D01*
X313276Y372774D01*
X312859Y372357D01*
X312570Y371659D01*
Y370903D01*
X312859Y370205D01*
X313393Y369670D01*
X314092Y369381D01*
X314848D01*
X315546Y369670D01*
X316080Y370205D01*
X316370Y370903D01*
Y371659D01*
X316080Y372357D01*
X315750Y372687D01*
X315675Y373122D01*
X315781Y373310D01*
X316197Y373727D01*
X316487Y374425D01*
Y375181D01*
X316197Y375879D01*
X315663Y376414D01*
X314964Y376703D01*
X314209D01*
X313976Y376607D01*
X313859Y376653D01*
X313514Y376957D01*
Y377543D01*
X313225Y378242D01*
X312690Y378776D01*
X311992Y379065D01*
D02*
G37*
G36*
X305299Y375916D02*
X304543D01*
X303845Y375626D01*
X303310Y375092D01*
X303021Y374394D01*
Y373638D01*
X303310Y372939D01*
X303845Y372405D01*
X304543Y372116D01*
X305299D01*
X305462Y372183D01*
X305844Y371800D01*
X305777Y371638D01*
Y370882D01*
X306066Y370184D01*
X306601Y369649D01*
X307299Y369360D01*
X308055D01*
X308753Y369649D01*
X309288Y370184D01*
X309577Y370882D01*
Y371638D01*
X309288Y372336D01*
X308753Y372871D01*
X308055Y373160D01*
X307299D01*
X307137Y373093D01*
X306754Y373475D01*
X306821Y373638D01*
Y374394D01*
X306532Y375092D01*
X305997Y375626D01*
X305299Y375916D01*
D02*
G37*
G36*
X134877Y374853D02*
X134121D01*
X133423Y374564D01*
X132888Y374029D01*
X132599Y373331D01*
Y372575D01*
X132888Y371877D01*
X133423Y371342D01*
X134121Y371053D01*
X134299D01*
Y370606D01*
X134588Y369908D01*
X135123Y369374D01*
X135821Y369085D01*
X136577D01*
X137275Y369374D01*
X137810Y369908D01*
X138099Y370606D01*
Y371362D01*
X137810Y372061D01*
X137275Y372595D01*
X136577Y372884D01*
X136399D01*
Y373331D01*
X136109Y374029D01*
X135575Y374564D01*
X134877Y374853D01*
D02*
G37*
G36*
X272622Y372766D02*
X271866D01*
X271168Y372477D01*
X270633Y371942D01*
X270344Y371244D01*
Y370488D01*
X270633Y369790D01*
X271168Y369255D01*
X271866Y368966D01*
X272622D01*
X273320Y369255D01*
X273855Y369790D01*
X274144Y370488D01*
Y371244D01*
X273855Y371942D01*
X273320Y372477D01*
X272622Y372766D01*
D02*
G37*
G36*
X230102D02*
X229346D01*
X228648Y372477D01*
X228114Y371942D01*
X227824Y371244D01*
Y370488D01*
X228114Y369790D01*
X228648Y369255D01*
X229346Y368966D01*
X230102D01*
X230801Y369255D01*
X231335Y369790D01*
X231624Y370488D01*
Y371244D01*
X231335Y371942D01*
X230801Y372477D01*
X230102Y372766D01*
D02*
G37*
G36*
X158007Y370916D02*
X157251D01*
X156552Y370627D01*
X156018Y370092D01*
X155729Y369394D01*
Y368638D01*
X155935Y368139D01*
X155552Y367757D01*
X155054Y367963D01*
X154298D01*
X153799Y367757D01*
X153417Y368139D01*
X153623Y368638D01*
Y369394D01*
X153334Y370092D01*
X152799Y370627D01*
X152101Y370916D01*
X151345D01*
X150647Y370627D01*
X150112Y370092D01*
X149823Y369394D01*
Y368638D01*
X150112Y367940D01*
X150647Y367405D01*
X151345Y367116D01*
X152101D01*
X152600Y367323D01*
X152982Y366940D01*
X152776Y366441D01*
Y365685D01*
X152982Y365187D01*
X152600Y364804D01*
X152101Y365010D01*
X151345D01*
X150647Y364721D01*
X150112Y364187D01*
X149823Y363488D01*
Y362733D01*
X150112Y362034D01*
X150647Y361500D01*
X151345Y361210D01*
X152101D01*
X152799Y361500D01*
X153334Y362034D01*
X153623Y362733D01*
Y363488D01*
X153417Y363987D01*
X153799Y364370D01*
X154298Y364163D01*
X155054D01*
X155552Y364370D01*
X155935Y363987D01*
X155729Y363488D01*
Y362733D01*
X156018Y362034D01*
X156552Y361500D01*
X157251Y361210D01*
X158007D01*
X158705Y361500D01*
X159239Y362034D01*
X159529Y362733D01*
Y363488D01*
X159239Y364187D01*
X158705Y364721D01*
X158007Y365010D01*
X157251D01*
X156752Y364804D01*
X156369Y365187D01*
X156576Y365685D01*
Y366441D01*
X156369Y366940D01*
X156752Y367322D01*
X157251Y367116D01*
X158007D01*
X158705Y367405D01*
X159239Y367940D01*
X159529Y368638D01*
Y369394D01*
X159239Y370092D01*
X158705Y370627D01*
X158007Y370916D01*
D02*
G37*
G36*
X256962Y369902D02*
X256207D01*
X255508Y369613D01*
X254974Y369078D01*
X254684Y368380D01*
Y367624D01*
X254974Y366926D01*
X255508Y366391D01*
X256207Y366102D01*
X256962D01*
X257661Y366391D01*
X258195Y366926D01*
X258485Y367624D01*
Y368380D01*
X258195Y369078D01*
X257661Y369613D01*
X256962Y369902D01*
D02*
G37*
G36*
X321835Y373357D02*
X321079D01*
X320380Y373067D01*
X319846Y372533D01*
X319557Y371835D01*
Y371079D01*
X319846Y370380D01*
X320380Y369846D01*
X320829Y369660D01*
Y369119D01*
X320380Y368934D01*
X319846Y368399D01*
X319557Y367701D01*
Y366945D01*
X319846Y366247D01*
X320380Y365712D01*
X321079Y365423D01*
X321835D01*
X322533Y365712D01*
X323067Y366247D01*
X323357Y366945D01*
Y367701D01*
X323067Y368399D01*
X322533Y368934D01*
X322085Y369119D01*
Y369660D01*
X322533Y369846D01*
X323067Y370380D01*
X323357Y371079D01*
Y371835D01*
X323067Y372533D01*
X322533Y373067D01*
X321835Y373357D01*
D02*
G37*
G36*
X171196Y368751D02*
X170440D01*
X169741Y368461D01*
X169207Y367927D01*
X168918Y367229D01*
Y366473D01*
X169207Y365774D01*
X169741Y365240D01*
X170440Y364951D01*
X171196D01*
X171894Y365240D01*
X172428Y365774D01*
X172718Y366473D01*
Y367229D01*
X172428Y367927D01*
X171894Y368461D01*
X171196Y368751D01*
D02*
G37*
G36*
X201165Y368042D02*
X200410D01*
X199711Y367753D01*
X199177Y367218D01*
X198887Y366520D01*
Y365764D01*
X199177Y365066D01*
X199711Y364531D01*
X200410Y364242D01*
X201165D01*
X201864Y364531D01*
X202398Y365066D01*
X202687Y365764D01*
Y366520D01*
X202398Y367218D01*
X201864Y367753D01*
X201165Y368042D01*
D02*
G37*
G36*
X301559Y367845D02*
X300803D01*
X300105Y367556D01*
X299570Y367021D01*
X299281Y366323D01*
Y365567D01*
X299570Y364869D01*
X300105Y364334D01*
X300803Y364045D01*
X301559D01*
X302257Y364334D01*
X302792Y364869D01*
X303081Y365567D01*
Y366323D01*
X302792Y367021D01*
X302257Y367556D01*
X301559Y367845D01*
D02*
G37*
G36*
X144306Y366535D02*
X143550D01*
X142852Y366246D01*
X142317Y365711D01*
X142028Y365013D01*
Y364257D01*
X142317Y363559D01*
X142852Y363024D01*
X143550Y362735D01*
X144306D01*
X145004Y363024D01*
X145539Y363559D01*
X145828Y364257D01*
Y365013D01*
X145539Y365711D01*
X145004Y366246D01*
X144306Y366535D01*
D02*
G37*
G36*
X175575Y365414D02*
X174819D01*
X174121Y365125D01*
X173586Y364591D01*
X173297Y363892D01*
Y363136D01*
X173586Y362438D01*
X174121Y361904D01*
X174819Y361614D01*
X175575D01*
X176273Y361904D01*
X176808Y362438D01*
X177097Y363136D01*
Y363892D01*
X176808Y364591D01*
X176273Y365125D01*
X175575Y365414D01*
D02*
G37*
G36*
X321835Y364892D02*
X321079D01*
X320380Y364603D01*
X319846Y364068D01*
X319557Y363370D01*
Y362614D01*
X319846Y361916D01*
X320380Y361381D01*
X321079Y361092D01*
X321835D01*
X322533Y361381D01*
X323067Y361916D01*
X323357Y362614D01*
Y363370D01*
X323067Y364068D01*
X322533Y364603D01*
X321835Y364892D01*
D02*
G37*
G36*
X305299Y364302D02*
X304543D01*
X303845Y364012D01*
X303310Y363478D01*
X303021Y362779D01*
Y362024D01*
X303310Y361325D01*
X303845Y360791D01*
X304543Y360502D01*
X305299D01*
X305997Y360791D01*
X306532Y361325D01*
X306821Y362024D01*
Y362779D01*
X306532Y363478D01*
X305997Y364012D01*
X305299Y364302D01*
D02*
G37*
G36*
X296835Y364105D02*
X296079D01*
X295380Y363815D01*
X294846Y363281D01*
X294557Y362583D01*
Y361827D01*
X294846Y361128D01*
X295380Y360594D01*
X296079Y360305D01*
X296835D01*
X297533Y360594D01*
X298067Y361128D01*
X298357Y361827D01*
Y362583D01*
X298067Y363281D01*
X297533Y363815D01*
X296835Y364105D01*
D02*
G37*
G36*
X217110D02*
X216354D01*
X215656Y363815D01*
X215122Y363281D01*
X214832Y362583D01*
Y361827D01*
X215122Y361128D01*
X215656Y360594D01*
X216354Y360305D01*
X217110D01*
X217809Y360594D01*
X218343Y361128D01*
X218632Y361827D01*
Y362583D01*
X218343Y363281D01*
X217809Y363815D01*
X217110Y364105D01*
D02*
G37*
G36*
X134877Y363829D02*
X134121D01*
X133423Y363540D01*
X132888Y363006D01*
X132599Y362307D01*
Y361551D01*
X132888Y360853D01*
X133423Y360319D01*
X134121Y360029D01*
X134877D01*
X135575Y360319D01*
X136109Y360853D01*
X136399Y361551D01*
Y362307D01*
X136109Y363006D01*
X135575Y363540D01*
X134877Y363829D01*
D02*
G37*
G36*
X164453Y363121D02*
X163697D01*
X162999Y362831D01*
X162464Y362297D01*
X162175Y361598D01*
Y360842D01*
X162464Y360144D01*
X162999Y359610D01*
X163697Y359320D01*
X164453D01*
X165151Y359610D01*
X165686Y360144D01*
X165975Y360842D01*
Y361598D01*
X165686Y362297D01*
X165151Y362831D01*
X164453Y363121D01*
D02*
G37*
G36*
X253026Y362894D02*
X252270D01*
X251572Y362605D01*
X251037Y362070D01*
X250748Y361372D01*
Y360616D01*
X251037Y359918D01*
X251572Y359384D01*
X252270Y359094D01*
X253026D01*
X253724Y359384D01*
X254259Y359918D01*
X254548Y360616D01*
Y361372D01*
X254259Y362070D01*
X253724Y362605D01*
X253026Y362894D01*
D02*
G37*
G36*
X278134Y361152D02*
X277378D01*
X276680Y360863D01*
X276145Y360328D01*
X275856Y359630D01*
Y358874D01*
X276145Y358176D01*
X276680Y357641D01*
X277378Y357352D01*
X278134D01*
X278832Y357641D01*
X279367Y358176D01*
X279656Y358874D01*
Y359630D01*
X279367Y360328D01*
X278832Y360863D01*
X278134Y361152D01*
D02*
G37*
G36*
X159581Y357530D02*
X158826D01*
X158127Y357241D01*
X157826Y356939D01*
X157499Y356758D01*
X157173Y356939D01*
X156871Y357241D01*
X156173Y357530D01*
X155417D01*
X154718Y357241D01*
X154645Y357167D01*
X154571Y357241D01*
X153873Y357530D01*
X153117D01*
X152418Y357241D01*
X152148Y356971D01*
X151822Y356749D01*
X151495Y356971D01*
X151225Y357241D01*
X150526Y357530D01*
X149770D01*
X149072Y357241D01*
X148538Y356706D01*
X148248Y356008D01*
Y355252D01*
X148538Y354554D01*
X149072Y354019D01*
X149770Y353730D01*
X150526D01*
X151225Y354019D01*
X151495Y354290D01*
X151822Y354511D01*
X152148Y354290D01*
X152418Y354019D01*
X153117Y353730D01*
X153873D01*
X154571Y354019D01*
X154645Y354093D01*
X154718Y354019D01*
X155417Y353730D01*
X156173D01*
X156871Y354019D01*
X157173Y354321D01*
X157499Y354502D01*
X157826Y354321D01*
X158127Y354019D01*
X158826Y353730D01*
X159581D01*
X160280Y354019D01*
X160814Y354554D01*
X161103Y355252D01*
Y356008D01*
X160814Y356706D01*
X160280Y357241D01*
X159581Y357530D01*
D02*
G37*
G36*
X173114Y361349D02*
X172358D01*
X171660Y361060D01*
X171125Y360525D01*
X170836Y359827D01*
Y359071D01*
X171125Y358373D01*
X171199Y358299D01*
X171125Y358225D01*
X170836Y357527D01*
Y356771D01*
X171125Y356073D01*
X171660Y355538D01*
X172358Y355249D01*
X173114D01*
X173812Y355538D01*
X174347Y356073D01*
X174636Y356771D01*
Y357527D01*
X174347Y358225D01*
X174273Y358299D01*
X174347Y358373D01*
X174636Y359071D01*
Y359827D01*
X174347Y360525D01*
X173812Y361060D01*
X173114Y361349D01*
D02*
G37*
G36*
X128331Y360306D02*
X127575D01*
X126876Y360016D01*
X126342Y359482D01*
X126053Y358784D01*
Y358028D01*
X126342Y357329D01*
X126876Y356795D01*
X127575Y356505D01*
X128331D01*
X128436Y356549D01*
X128786Y356153D01*
X128563Y355614D01*
Y354858D01*
X128852Y354160D01*
X129387Y353626D01*
X130085Y353336D01*
X130841D01*
X131540Y353626D01*
X132074Y354160D01*
X132363Y354858D01*
Y355614D01*
X132074Y356313D01*
X131540Y356847D01*
X130841Y357136D01*
X130085D01*
X129981Y357093D01*
X129630Y357489D01*
X129853Y358028D01*
Y358784D01*
X129563Y359482D01*
X129029Y360016D01*
X128331Y360306D01*
D02*
G37*
G36*
X175575Y354921D02*
X174819D01*
X174121Y354632D01*
X173586Y354098D01*
X173297Y353399D01*
Y352643D01*
X173586Y351945D01*
X174121Y351411D01*
X174819Y351121D01*
X175575D01*
X176273Y351411D01*
X176808Y351945D01*
X177097Y352643D01*
Y353399D01*
X176808Y354098D01*
X176273Y354632D01*
X175575Y354921D01*
D02*
G37*
G36*
X163912Y355562D02*
X163156D01*
X162458Y355272D01*
X161923Y354738D01*
X161634Y354040D01*
Y353284D01*
X161923Y352585D01*
X162458Y352051D01*
X163156Y351762D01*
X163768D01*
X164024Y351592D01*
X164193Y351337D01*
Y350725D01*
X164482Y350026D01*
X165017Y349492D01*
X165715Y349203D01*
X166471D01*
X167169Y349492D01*
X167704Y350026D01*
X167993Y350725D01*
Y351481D01*
X167704Y352179D01*
X167169Y352713D01*
X166471Y353003D01*
X165859D01*
X165603Y353172D01*
X165434Y353427D01*
Y354040D01*
X165145Y354738D01*
X164610Y355272D01*
X163912Y355562D01*
D02*
G37*
G36*
X171186Y352510D02*
X170430D01*
X169731Y352221D01*
X169197Y351687D01*
X168908Y350989D01*
Y350233D01*
X169197Y349534D01*
X169731Y349000D01*
X170430Y348710D01*
X171186D01*
X171884Y349000D01*
X172418Y349534D01*
X172708Y350233D01*
Y350989D01*
X172418Y351687D01*
X171884Y352221D01*
X171186Y352510D01*
D02*
G37*
G36*
X250342Y352019D02*
X249586D01*
X248888Y351730D01*
X248354Y351196D01*
X248064Y350497D01*
Y349741D01*
X248354Y349043D01*
X248888Y348509D01*
X249586Y348219D01*
X250342D01*
X251041Y348509D01*
X251575Y349043D01*
X251864Y349741D01*
Y350497D01*
X251575Y351196D01*
X251041Y351730D01*
X250342Y352019D01*
D02*
G37*
G36*
X240929Y345994D02*
X240173D01*
X239475Y345705D01*
X238940Y345171D01*
X238651Y344472D01*
Y343717D01*
X238940Y343018D01*
X239475Y342484D01*
X240173Y342195D01*
X240929D01*
X241627Y342484D01*
X242162Y343018D01*
X242451Y343717D01*
Y344472D01*
X242162Y345171D01*
X241627Y345705D01*
X240929Y345994D01*
D02*
G37*
G36*
X171186Y344637D02*
X170430D01*
X169731Y344347D01*
X169197Y343813D01*
X168908Y343114D01*
Y342359D01*
X169197Y341660D01*
X169731Y341126D01*
X170430Y340837D01*
X171186D01*
X171884Y341126D01*
X172418Y341660D01*
X172708Y342359D01*
Y343114D01*
X172418Y343813D01*
X171884Y344347D01*
X171186Y344637D01*
D02*
G37*
G36*
X216520Y355640D02*
X215764D01*
X215066Y355351D01*
X214531Y354816D01*
X214242Y354118D01*
Y353362D01*
X214531Y352664D01*
X215066Y352129D01*
X215088Y352120D01*
Y351620D01*
X215066Y351611D01*
X214531Y351076D01*
X214242Y350378D01*
Y349622D01*
X214531Y348924D01*
X215066Y348389D01*
X215088Y348380D01*
Y347880D01*
X215066Y347871D01*
X214531Y347336D01*
X214242Y346638D01*
Y345882D01*
X214531Y345184D01*
X214910Y344804D01*
X215013Y344488D01*
X214910Y344172D01*
X214531Y343793D01*
X214242Y343094D01*
Y342339D01*
X214531Y341640D01*
X215066Y341106D01*
X215764Y340816D01*
X216520D01*
X217218Y341106D01*
X217753Y341640D01*
X218042Y342339D01*
Y343094D01*
X217753Y343793D01*
X217373Y344172D01*
X217270Y344488D01*
X217373Y344804D01*
X217753Y345184D01*
X218042Y345882D01*
Y346638D01*
X217753Y347336D01*
X217218Y347871D01*
X217195Y347880D01*
Y348380D01*
X217218Y348389D01*
X217753Y348924D01*
X218042Y349622D01*
Y350378D01*
X217753Y351076D01*
X217218Y351611D01*
X217195Y351620D01*
Y352120D01*
X217218Y352129D01*
X217753Y352664D01*
X218042Y353362D01*
Y354118D01*
X217753Y354816D01*
X217218Y355351D01*
X216520Y355640D01*
D02*
G37*
G36*
X153479Y336861D02*
X152723D01*
X152025Y336572D01*
X151490Y336037D01*
X151201Y335339D01*
Y334583D01*
X151490Y333885D01*
X152025Y333350D01*
X152723Y333061D01*
X153479D01*
X154177Y333350D01*
X154712Y333885D01*
X155001Y334583D01*
Y335339D01*
X154712Y336037D01*
X154177Y336572D01*
X153479Y336861D01*
D02*
G37*
G36*
X171196Y328396D02*
X170440D01*
X169741Y328107D01*
X169207Y327573D01*
X168918Y326874D01*
Y326118D01*
X169207Y325420D01*
X169741Y324886D01*
X170440Y324596D01*
X171196D01*
X171894Y324886D01*
X172428Y325420D01*
X172718Y326118D01*
Y326874D01*
X172428Y327573D01*
X171894Y328107D01*
X171196Y328396D01*
D02*
G37*
G36*
X140881Y327806D02*
X140125D01*
X139426Y327517D01*
X138892Y326982D01*
X138603Y326284D01*
Y325528D01*
X138892Y324830D01*
X139426Y324295D01*
X140125Y324006D01*
X140881D01*
X141579Y324295D01*
X142113Y324830D01*
X142403Y325528D01*
Y326284D01*
X142113Y326982D01*
X141579Y327517D01*
X140881Y327806D01*
D02*
G37*
G36*
X153676Y322884D02*
X152920D01*
X152222Y322595D01*
X151687Y322061D01*
X151398Y321362D01*
Y320606D01*
X151687Y319908D01*
X152222Y319374D01*
X152920Y319085D01*
X153676D01*
X154374Y319374D01*
X154909Y319908D01*
X155198Y320606D01*
Y321362D01*
X154909Y322061D01*
X154374Y322595D01*
X153676Y322884D01*
D02*
G37*
G36*
X124542Y322097D02*
X123786D01*
X123088Y321808D01*
X122553Y321273D01*
X122264Y320575D01*
Y319819D01*
X122553Y319121D01*
X123088Y318586D01*
X123786Y318297D01*
X124542D01*
X125240Y318586D01*
X125775Y319121D01*
X126064Y319819D01*
Y320575D01*
X125775Y321273D01*
X125240Y321808D01*
X124542Y322097D01*
D02*
G37*
G36*
X131885Y317963D02*
X131129D01*
X130430Y317674D01*
X130131Y317374D01*
X129804Y317191D01*
X129477Y317374D01*
X129177Y317674D01*
X128479Y317963D01*
X127723D01*
X127025Y317674D01*
X126490Y317140D01*
X126201Y316441D01*
Y315685D01*
X126490Y314987D01*
X127025Y314453D01*
X127723Y314163D01*
X128479D01*
X129177Y314453D01*
X129477Y314752D01*
X129804Y314935D01*
X130131Y314752D01*
X130430Y314453D01*
X131129Y314163D01*
X131885D01*
X132583Y314453D01*
X133117Y314987D01*
X133407Y315685D01*
Y316441D01*
X133117Y317140D01*
X132583Y317674D01*
X131885Y317963D01*
D02*
G37*
G36*
X188370Y320798D02*
X187614D01*
X186916Y320508D01*
X186381Y319974D01*
X186092Y319276D01*
Y318520D01*
X186381Y317821D01*
X186916Y317287D01*
X187614Y316998D01*
X188370D01*
X189068Y317287D01*
X189603Y317821D01*
X189892Y318520D01*
Y319276D01*
X189603Y319974D01*
X189068Y320508D01*
X188370Y320798D01*
D02*
G37*
G36*
X171196Y320522D02*
X170440D01*
X169741Y320233D01*
X169207Y319699D01*
X168918Y319000D01*
Y318244D01*
X169207Y317546D01*
X169741Y317011D01*
X170440Y316722D01*
X171196D01*
X171894Y317011D01*
X172428Y317546D01*
X172718Y318244D01*
Y319000D01*
X172428Y319699D01*
X171894Y320233D01*
X171196Y320522D01*
D02*
G37*
G36*
X140873Y317877D02*
X140117D01*
X139419Y317588D01*
X138884Y317053D01*
X138595Y316355D01*
Y315599D01*
X138884Y314901D01*
X139419Y314366D01*
X140117Y314077D01*
X140873D01*
X141571Y314366D01*
X142106Y314901D01*
X142395Y315599D01*
Y316355D01*
X142106Y317053D01*
X141571Y317588D01*
X140873Y317877D01*
D02*
G37*
G36*
X171196Y312648D02*
X170440D01*
X169741Y312359D01*
X169207Y311824D01*
X168918Y311126D01*
Y310370D01*
X169207Y309672D01*
X169741Y309138D01*
X170440Y308848D01*
X171196D01*
X171894Y309138D01*
X172428Y309672D01*
X172718Y310370D01*
Y311126D01*
X172428Y311824D01*
X171894Y312359D01*
X171196Y312648D01*
D02*
G37*
G36*
X173803Y308987D02*
X173047D01*
X172349Y308697D01*
X171815Y308163D01*
X171525Y307465D01*
Y307018D01*
X171079D01*
X170380Y306729D01*
X169846Y306194D01*
X169557Y305496D01*
Y304740D01*
X169846Y304042D01*
X170380Y303507D01*
X171079Y303218D01*
X171525D01*
Y302772D01*
X171815Y302073D01*
X172349Y301539D01*
X173047Y301250D01*
X173803D01*
X174502Y301539D01*
X175036Y302073D01*
X175325Y302772D01*
Y303527D01*
X175036Y304226D01*
X174502Y304760D01*
X174291Y304848D01*
Y305389D01*
X174502Y305476D01*
X175036Y306010D01*
X175325Y306709D01*
Y307465D01*
X175036Y308163D01*
X174502Y308697D01*
X173803Y308987D01*
D02*
G37*
G36*
X171196Y299853D02*
X170440D01*
X169741Y299564D01*
X169207Y299029D01*
X168918Y298331D01*
Y297575D01*
X169207Y296877D01*
X169741Y296342D01*
X170440Y296053D01*
X171196D01*
X171894Y296342D01*
X172428Y296877D01*
X172718Y297575D01*
Y298331D01*
X172428Y299029D01*
X171894Y299564D01*
X171196Y299853D01*
D02*
G37*
G36*
X139846Y295404D02*
X139090D01*
X138392Y295114D01*
X137857Y294580D01*
X137568Y293882D01*
Y293126D01*
X137857Y292427D01*
X138392Y291893D01*
X139090Y291604D01*
X139846D01*
X140544Y291893D01*
X141079Y292427D01*
X141368Y293126D01*
Y293882D01*
X141079Y294580D01*
X140544Y295114D01*
X139846Y295404D01*
D02*
G37*
G36*
X171196Y291979D02*
X170440D01*
X169741Y291690D01*
X169207Y291155D01*
X168918Y290457D01*
Y289701D01*
X169207Y289003D01*
X169741Y288468D01*
X170440Y288179D01*
X171196D01*
X171894Y288468D01*
X172428Y289003D01*
X172718Y289701D01*
Y290457D01*
X172428Y291155D01*
X171894Y291690D01*
X171196Y291979D01*
D02*
G37*
G36*
X134877Y290207D02*
X134121D01*
X133423Y289918D01*
X132888Y289384D01*
X132599Y288685D01*
Y287929D01*
X132888Y287231D01*
X133423Y286697D01*
X134121Y286407D01*
X134299D01*
Y285961D01*
X134588Y285262D01*
X135123Y284728D01*
X135821Y284439D01*
X136577D01*
X137275Y284728D01*
X137810Y285262D01*
X138099Y285961D01*
Y286717D01*
X137810Y287415D01*
X137275Y287949D01*
X136577Y288239D01*
X136399D01*
Y288685D01*
X136109Y289384D01*
X135575Y289918D01*
X134877Y290207D01*
D02*
G37*
G36*
X158007Y286270D02*
X157251D01*
X156552Y285981D01*
X156018Y285447D01*
X155729Y284748D01*
Y283992D01*
X155935Y283494D01*
X155552Y283111D01*
X155054Y283317D01*
X154298D01*
X153799Y283111D01*
X153417Y283494D01*
X153623Y283992D01*
Y284748D01*
X153334Y285447D01*
X152799Y285981D01*
X152101Y286270D01*
X151345D01*
X150647Y285981D01*
X150112Y285447D01*
X149823Y284748D01*
Y283992D01*
X150112Y283294D01*
X150647Y282760D01*
X151345Y282470D01*
X152101D01*
X152600Y282677D01*
X152982Y282294D01*
X152776Y281796D01*
Y281040D01*
X152982Y280541D01*
X152600Y280158D01*
X152101Y280365D01*
X151345D01*
X150647Y280076D01*
X150112Y279541D01*
X149823Y278843D01*
Y278087D01*
X150112Y277389D01*
X150647Y276854D01*
X151345Y276565D01*
X152101D01*
X152799Y276854D01*
X153334Y277389D01*
X153623Y278087D01*
Y278843D01*
X153417Y279341D01*
X153799Y279724D01*
X154298Y279518D01*
X155054D01*
X155552Y279724D01*
X155935Y279341D01*
X155729Y278843D01*
Y278087D01*
X156018Y277389D01*
X156552Y276854D01*
X157251Y276565D01*
X158007D01*
X158705Y276854D01*
X159239Y277389D01*
X159529Y278087D01*
Y278843D01*
X159239Y279541D01*
X158705Y280076D01*
X158007Y280365D01*
X157251D01*
X156752Y280158D01*
X156369Y280541D01*
X156576Y281040D01*
Y281796D01*
X156369Y282294D01*
X156752Y282677D01*
X157251Y282470D01*
X158007D01*
X158705Y282760D01*
X159239Y283294D01*
X159529Y283992D01*
Y284748D01*
X159239Y285447D01*
X158705Y285981D01*
X158007Y286270D01*
D02*
G37*
G36*
X171196Y284105D02*
X170440D01*
X169741Y283816D01*
X169207Y283281D01*
X168918Y282583D01*
Y281827D01*
X169207Y281129D01*
X169741Y280594D01*
X170440Y280305D01*
X171196D01*
X171894Y280594D01*
X172428Y281129D01*
X172718Y281827D01*
Y282583D01*
X172428Y283281D01*
X171894Y283816D01*
X171196Y284105D01*
D02*
G37*
G36*
X144306Y281889D02*
X143550D01*
X142852Y281600D01*
X142317Y281065D01*
X142028Y280367D01*
Y279611D01*
X142317Y278913D01*
X142852Y278378D01*
X143550Y278089D01*
X144306D01*
X145004Y278378D01*
X145539Y278913D01*
X145828Y279611D01*
Y280367D01*
X145539Y281065D01*
X145004Y281600D01*
X144306Y281889D01*
D02*
G37*
G36*
X175575Y280768D02*
X174819D01*
X174121Y280479D01*
X173586Y279945D01*
X173297Y279246D01*
Y278491D01*
X173586Y277792D01*
X174121Y277258D01*
X174819Y276969D01*
X175575D01*
X176273Y277258D01*
X176808Y277792D01*
X177097Y278491D01*
Y279246D01*
X176808Y279945D01*
X176273Y280479D01*
X175575Y280768D01*
D02*
G37*
G36*
X134877Y279184D02*
X134121D01*
X133423Y278894D01*
X132888Y278360D01*
X132599Y277662D01*
Y276906D01*
X132888Y276207D01*
X133423Y275673D01*
X134121Y275384D01*
X134877D01*
X135575Y275673D01*
X136109Y276207D01*
X136399Y276906D01*
Y277662D01*
X136109Y278360D01*
X135575Y278894D01*
X134877Y279184D01*
D02*
G37*
G36*
X164453Y278475D02*
X163697D01*
X162999Y278186D01*
X162464Y277651D01*
X162175Y276953D01*
Y276197D01*
X162464Y275499D01*
X162999Y274964D01*
X163697Y274675D01*
X164453D01*
X165151Y274964D01*
X165686Y275499D01*
X165975Y276197D01*
Y276953D01*
X165686Y277651D01*
X165151Y278186D01*
X164453Y278475D01*
D02*
G37*
G36*
X159581Y272884D02*
X158826D01*
X158127Y272595D01*
X157826Y272294D01*
X157499Y272113D01*
X157173Y272294D01*
X156871Y272595D01*
X156173Y272884D01*
X155417D01*
X154718Y272595D01*
X154645Y272521D01*
X154571Y272595D01*
X153873Y272884D01*
X153117D01*
X152418Y272595D01*
X152148Y272325D01*
X151822Y272103D01*
X151495Y272325D01*
X151225Y272595D01*
X150526Y272884D01*
X149770D01*
X149072Y272595D01*
X148538Y272061D01*
X148248Y271362D01*
Y270606D01*
X148538Y269908D01*
X149072Y269374D01*
X149770Y269085D01*
X150526D01*
X151225Y269374D01*
X151495Y269644D01*
X151822Y269866D01*
X152148Y269644D01*
X152418Y269374D01*
X153117Y269085D01*
X153873D01*
X154571Y269374D01*
X154645Y269447D01*
X154718Y269374D01*
X155417Y269085D01*
X156173D01*
X156871Y269374D01*
X157173Y269675D01*
X157499Y269856D01*
X157826Y269675D01*
X158127Y269374D01*
X158826Y269085D01*
X159581D01*
X160280Y269374D01*
X160814Y269908D01*
X161103Y270606D01*
Y271362D01*
X160814Y272061D01*
X160280Y272595D01*
X159581Y272884D01*
D02*
G37*
G36*
X173114Y276703D02*
X172358D01*
X171660Y276414D01*
X171125Y275879D01*
X170836Y275181D01*
Y274425D01*
X171125Y273727D01*
X171199Y273653D01*
X171125Y273579D01*
X170836Y272881D01*
Y272125D01*
X171125Y271427D01*
X171660Y270892D01*
X172358Y270603D01*
X173114D01*
X173812Y270892D01*
X174347Y271427D01*
X174636Y272125D01*
Y272881D01*
X174347Y273579D01*
X174273Y273653D01*
X174347Y273727D01*
X174636Y274425D01*
Y275181D01*
X174347Y275879D01*
X173812Y276414D01*
X173114Y276703D01*
D02*
G37*
G36*
X128331Y275660D02*
X127575D01*
X126876Y275371D01*
X126342Y274836D01*
X126053Y274138D01*
Y273382D01*
X126342Y272684D01*
X126876Y272149D01*
X127575Y271860D01*
X128331D01*
X128436Y271903D01*
X128786Y271508D01*
X128563Y270969D01*
Y270213D01*
X128852Y269514D01*
X129387Y268980D01*
X130085Y268691D01*
X130841D01*
X131540Y268980D01*
X132074Y269514D01*
X132363Y270213D01*
Y270969D01*
X132074Y271667D01*
X131540Y272201D01*
X130841Y272491D01*
X130085D01*
X129981Y272447D01*
X129630Y272843D01*
X129853Y273382D01*
Y274138D01*
X129563Y274836D01*
X129029Y275371D01*
X128331Y275660D01*
D02*
G37*
G36*
X175575Y270276D02*
X174819D01*
X174121Y269986D01*
X173586Y269452D01*
X173297Y268754D01*
Y267998D01*
X173586Y267299D01*
X174121Y266765D01*
X174819Y266476D01*
X175575D01*
X176273Y266765D01*
X176808Y267299D01*
X177097Y267998D01*
Y268754D01*
X176808Y269452D01*
X176273Y269986D01*
X175575Y270276D01*
D02*
G37*
G36*
X163912Y270916D02*
X163156D01*
X162458Y270627D01*
X161923Y270092D01*
X161634Y269394D01*
Y268638D01*
X161923Y267940D01*
X162458Y267405D01*
X163156Y267116D01*
X163768D01*
X164024Y266947D01*
X164193Y266691D01*
Y266079D01*
X164482Y265381D01*
X165017Y264846D01*
X165715Y264557D01*
X166471D01*
X167169Y264846D01*
X167704Y265381D01*
X167993Y266079D01*
Y266835D01*
X167704Y267533D01*
X167169Y268068D01*
X166471Y268357D01*
X165859D01*
X165603Y268526D01*
X165434Y268782D01*
Y269394D01*
X165145Y270092D01*
X164610Y270627D01*
X163912Y270916D01*
D02*
G37*
G36*
X171186Y267865D02*
X170430D01*
X169731Y267576D01*
X169197Y267041D01*
X168908Y266343D01*
Y265587D01*
X169197Y264889D01*
X169731Y264354D01*
X170430Y264065D01*
X171186D01*
X171884Y264354D01*
X172418Y264889D01*
X172708Y265587D01*
Y266343D01*
X172418Y267041D01*
X171884Y267576D01*
X171186Y267865D01*
D02*
G37*
G36*
Y259991D02*
X170430D01*
X169731Y259702D01*
X169197Y259167D01*
X168908Y258469D01*
Y257713D01*
X169197Y257015D01*
X169731Y256480D01*
X170430Y256191D01*
X171186D01*
X171884Y256480D01*
X172418Y257015D01*
X172708Y257713D01*
Y258469D01*
X172418Y259167D01*
X171884Y259702D01*
X171186Y259991D01*
D02*
G37*
G36*
X153479Y252215D02*
X152723D01*
X152025Y251926D01*
X151490Y251391D01*
X151201Y250693D01*
Y249937D01*
X151490Y249239D01*
X152025Y248704D01*
X152723Y248415D01*
X153479D01*
X154177Y248704D01*
X154712Y249239D01*
X155001Y249937D01*
Y250693D01*
X154712Y251391D01*
X154177Y251926D01*
X153479Y252215D01*
D02*
G37*
G36*
X171196Y243751D02*
X170440D01*
X169741Y243461D01*
X169207Y242927D01*
X168918Y242229D01*
Y241473D01*
X169207Y240774D01*
X169741Y240240D01*
X170440Y239951D01*
X171196D01*
X171894Y240240D01*
X172428Y240774D01*
X172718Y241473D01*
Y242229D01*
X172428Y242927D01*
X171894Y243461D01*
X171196Y243751D01*
D02*
G37*
G36*
X140881Y243160D02*
X140125D01*
X139426Y242871D01*
X138892Y242336D01*
X138603Y241638D01*
Y240882D01*
X138892Y240184D01*
X139426Y239649D01*
X140125Y239360D01*
X140881D01*
X141579Y239649D01*
X142113Y240184D01*
X142403Y240882D01*
Y241638D01*
X142113Y242336D01*
X141579Y242871D01*
X140881Y243160D01*
D02*
G37*
G36*
X153676Y238239D02*
X152920D01*
X152222Y237949D01*
X151687Y237415D01*
X151398Y236717D01*
Y235961D01*
X151687Y235262D01*
X152222Y234728D01*
X152920Y234439D01*
X153676D01*
X154374Y234728D01*
X154909Y235262D01*
X155198Y235961D01*
Y236717D01*
X154909Y237415D01*
X154374Y237949D01*
X153676Y238239D01*
D02*
G37*
G36*
X124542Y237451D02*
X123786D01*
X123088Y237162D01*
X122553Y236628D01*
X122264Y235929D01*
Y235174D01*
X122553Y234475D01*
X123088Y233941D01*
X123786Y233651D01*
X124542D01*
X125240Y233941D01*
X125775Y234475D01*
X126064Y235174D01*
Y235929D01*
X125775Y236628D01*
X125240Y237162D01*
X124542Y237451D01*
D02*
G37*
G36*
X131885Y233317D02*
X131129D01*
X130430Y233028D01*
X130131Y232728D01*
X129804Y232545D01*
X129477Y232728D01*
X129177Y233028D01*
X128479Y233317D01*
X127723D01*
X127025Y233028D01*
X126490Y232494D01*
X126201Y231796D01*
Y231040D01*
X126490Y230341D01*
X127025Y229807D01*
X127723Y229518D01*
X128479D01*
X129177Y229807D01*
X129477Y230107D01*
X129804Y230290D01*
X130131Y230107D01*
X130430Y229807D01*
X131129Y229518D01*
X131885D01*
X132583Y229807D01*
X133117Y230341D01*
X133407Y231040D01*
Y231796D01*
X133117Y232494D01*
X132583Y233028D01*
X131885Y233317D01*
D02*
G37*
G36*
X171196Y235877D02*
X170440D01*
X169741Y235587D01*
X169207Y235053D01*
X168918Y234354D01*
Y233599D01*
X169207Y232900D01*
X169741Y232366D01*
X170440Y232077D01*
X171196D01*
X171894Y232366D01*
X172428Y232900D01*
X172718Y233599D01*
Y234354D01*
X172428Y235053D01*
X171894Y235587D01*
X171196Y235877D01*
D02*
G37*
G36*
X140873Y233231D02*
X140117D01*
X139419Y232942D01*
X138884Y232408D01*
X138595Y231709D01*
Y230953D01*
X138884Y230255D01*
X139419Y229721D01*
X140117Y229431D01*
X140873D01*
X141571Y229721D01*
X142106Y230255D01*
X142395Y230953D01*
Y231709D01*
X142106Y232408D01*
X141571Y232942D01*
X140873Y233231D01*
D02*
G37*
G36*
X171196Y228003D02*
X170440D01*
X169741Y227713D01*
X169207Y227179D01*
X168918Y226481D01*
Y225725D01*
X169207Y225026D01*
X169741Y224492D01*
X170440Y224203D01*
X171107D01*
X171279Y223958D01*
X171353Y223741D01*
X171134Y223522D01*
X170844Y222824D01*
Y222377D01*
X170398D01*
X169700Y222088D01*
X169165Y221553D01*
X168876Y220855D01*
Y220099D01*
X169165Y219401D01*
X169700Y218866D01*
X170398Y218577D01*
X170844D01*
Y218131D01*
X171134Y217432D01*
X171668Y216898D01*
X172367Y216609D01*
X173122D01*
X173821Y216898D01*
X174355Y217432D01*
X174644Y218131D01*
Y218886D01*
X174355Y219585D01*
X173821Y220119D01*
X173610Y220206D01*
Y220748D01*
X173821Y220835D01*
X174355Y221369D01*
X174644Y222068D01*
Y222824D01*
X174355Y223522D01*
X173821Y224056D01*
X173122Y224346D01*
X172455D01*
X172283Y224590D01*
X172210Y224808D01*
X172428Y225026D01*
X172718Y225725D01*
Y226481D01*
X172428Y227179D01*
X171894Y227713D01*
X171196Y228003D01*
D02*
G37*
G36*
Y215212D02*
X170440D01*
X169741Y214923D01*
X169207Y214388D01*
X168918Y213690D01*
Y212934D01*
X169207Y212236D01*
X169741Y211701D01*
X170440Y211412D01*
X171196D01*
X171894Y211701D01*
X172428Y212236D01*
X172718Y212934D01*
Y213690D01*
X172428Y214388D01*
X171894Y214923D01*
X171196Y215212D01*
D02*
G37*
G36*
X139846Y210763D02*
X139090D01*
X138392Y210473D01*
X137857Y209939D01*
X137568Y209241D01*
Y208485D01*
X137857Y207786D01*
X138392Y207252D01*
X139090Y206963D01*
X139846D01*
X140544Y207252D01*
X141079Y207786D01*
X141368Y208485D01*
Y209241D01*
X141079Y209939D01*
X140544Y210473D01*
X139846Y210763D01*
D02*
G37*
G36*
X171196Y207338D02*
X170440D01*
X169741Y207049D01*
X169207Y206514D01*
X168918Y205816D01*
Y205060D01*
X169207Y204362D01*
X169741Y203827D01*
X170440Y203538D01*
X171196D01*
X171894Y203827D01*
X172428Y204362D01*
X172718Y205060D01*
Y205816D01*
X172428Y206514D01*
X171894Y207049D01*
X171196Y207338D01*
D02*
G37*
G36*
X134877Y205566D02*
X134121D01*
X133423Y205277D01*
X132888Y204743D01*
X132599Y204044D01*
Y203288D01*
X132888Y202590D01*
X133423Y202056D01*
X134121Y201766D01*
X134299D01*
Y201320D01*
X134588Y200622D01*
X135123Y200087D01*
X135821Y199798D01*
X136577D01*
X137275Y200087D01*
X137810Y200622D01*
X138099Y201320D01*
Y202076D01*
X137810Y202774D01*
X137275Y203309D01*
X136577Y203598D01*
X136399D01*
Y204044D01*
X136109Y204743D01*
X135575Y205277D01*
X134877Y205566D01*
D02*
G37*
G36*
X158007Y201629D02*
X157251D01*
X156552Y201340D01*
X156018Y200805D01*
X155729Y200107D01*
Y199351D01*
X155935Y198853D01*
X155552Y198470D01*
X155054Y198677D01*
X154298D01*
X153799Y198470D01*
X153417Y198853D01*
X153623Y199351D01*
Y200107D01*
X153334Y200805D01*
X152799Y201340D01*
X152101Y201629D01*
X151345D01*
X150647Y201340D01*
X150112Y200805D01*
X149823Y200107D01*
Y199351D01*
X150112Y198653D01*
X150647Y198118D01*
X151345Y197829D01*
X152101D01*
X152600Y198036D01*
X152982Y197653D01*
X152776Y197154D01*
Y196399D01*
X152982Y195900D01*
X152600Y195517D01*
X152101Y195724D01*
X151345D01*
X150647Y195434D01*
X150112Y194900D01*
X149823Y194202D01*
Y193446D01*
X150112Y192747D01*
X150647Y192213D01*
X151345Y191924D01*
X152101D01*
X152799Y192213D01*
X153334Y192747D01*
X153623Y193446D01*
Y194202D01*
X153417Y194700D01*
X153799Y195083D01*
X154298Y194877D01*
X155054D01*
X155552Y195083D01*
X155935Y194700D01*
X155729Y194202D01*
Y193446D01*
X156018Y192747D01*
X156552Y192213D01*
X157251Y191924D01*
X158007D01*
X158705Y192213D01*
X159239Y192747D01*
X159529Y193446D01*
Y194202D01*
X159239Y194900D01*
X158705Y195434D01*
X158007Y195724D01*
X157251D01*
X156752Y195517D01*
X156369Y195900D01*
X156576Y196399D01*
Y197154D01*
X156369Y197653D01*
X156752Y198036D01*
X157251Y197829D01*
X158007D01*
X158705Y198118D01*
X159239Y198653D01*
X159529Y199351D01*
Y200107D01*
X159239Y200805D01*
X158705Y201340D01*
X158007Y201629D01*
D02*
G37*
G36*
X171196Y199464D02*
X170440D01*
X169741Y199175D01*
X169207Y198640D01*
X168918Y197942D01*
Y197186D01*
X169207Y196488D01*
X169741Y195953D01*
X170440Y195664D01*
X171196D01*
X171894Y195953D01*
X172428Y196488D01*
X172718Y197186D01*
Y197942D01*
X172428Y198640D01*
X171894Y199175D01*
X171196Y199464D01*
D02*
G37*
G36*
X144306Y197248D02*
X143550D01*
X142852Y196959D01*
X142317Y196424D01*
X142028Y195726D01*
Y194970D01*
X142317Y194272D01*
X142852Y193737D01*
X143550Y193448D01*
X144306D01*
X145004Y193737D01*
X145539Y194272D01*
X145828Y194970D01*
Y195726D01*
X145539Y196424D01*
X145004Y196959D01*
X144306Y197248D01*
D02*
G37*
G36*
X175575Y196127D02*
X174819D01*
X174121Y195838D01*
X173586Y195304D01*
X173297Y194605D01*
Y193850D01*
X173586Y193151D01*
X174121Y192617D01*
X174819Y192327D01*
X175575D01*
X176273Y192617D01*
X176808Y193151D01*
X177097Y193850D01*
Y194605D01*
X176808Y195304D01*
X176273Y195838D01*
X175575Y196127D01*
D02*
G37*
G36*
X134877Y194543D02*
X134121D01*
X133423Y194253D01*
X132888Y193719D01*
X132599Y193021D01*
Y192265D01*
X132888Y191566D01*
X133423Y191032D01*
X134121Y190743D01*
X134877D01*
X135575Y191032D01*
X136109Y191566D01*
X136399Y192265D01*
Y193021D01*
X136109Y193719D01*
X135575Y194253D01*
X134877Y194543D01*
D02*
G37*
G36*
X164453Y193834D02*
X163697D01*
X162999Y193544D01*
X162464Y193010D01*
X162175Y192312D01*
Y191556D01*
X162464Y190858D01*
X162999Y190323D01*
X163697Y190034D01*
X164453D01*
X165151Y190323D01*
X165686Y190858D01*
X165975Y191556D01*
Y192312D01*
X165686Y193010D01*
X165151Y193544D01*
X164453Y193834D01*
D02*
G37*
G36*
X159581Y188243D02*
X158826D01*
X158127Y187954D01*
X157826Y187653D01*
X157499Y187472D01*
X157173Y187653D01*
X156871Y187954D01*
X156173Y188243D01*
X155417D01*
X154718Y187954D01*
X154645Y187880D01*
X154571Y187954D01*
X153873Y188243D01*
X153117D01*
X152418Y187954D01*
X152148Y187684D01*
X151822Y187462D01*
X151495Y187684D01*
X151225Y187954D01*
X150526Y188243D01*
X149770D01*
X149072Y187954D01*
X148538Y187420D01*
X148248Y186721D01*
Y185966D01*
X148538Y185267D01*
X149072Y184733D01*
X149770Y184443D01*
X150526D01*
X151225Y184733D01*
X151495Y185003D01*
X151822Y185225D01*
X152148Y185003D01*
X152418Y184733D01*
X153117Y184443D01*
X153873D01*
X154571Y184733D01*
X154645Y184806D01*
X154718Y184733D01*
X155417Y184443D01*
X156173D01*
X156871Y184733D01*
X157173Y185034D01*
X157499Y185215D01*
X157826Y185034D01*
X158127Y184733D01*
X158826Y184443D01*
X159581D01*
X160280Y184733D01*
X160814Y185267D01*
X161103Y185966D01*
Y186721D01*
X160814Y187420D01*
X160280Y187954D01*
X159581Y188243D01*
D02*
G37*
G36*
X173114Y192062D02*
X172358D01*
X171660Y191773D01*
X171125Y191238D01*
X170836Y190540D01*
Y189784D01*
X171125Y189086D01*
X171199Y189012D01*
X171125Y188938D01*
X170836Y188240D01*
Y187484D01*
X171125Y186786D01*
X171660Y186251D01*
X172358Y185962D01*
X173114D01*
X173812Y186251D01*
X174347Y186786D01*
X174636Y187484D01*
Y188240D01*
X174347Y188938D01*
X174273Y189012D01*
X174347Y189086D01*
X174636Y189784D01*
Y190540D01*
X174347Y191238D01*
X173812Y191773D01*
X173114Y192062D01*
D02*
G37*
G36*
X128331Y191019D02*
X127575D01*
X126876Y190729D01*
X126342Y190195D01*
X126053Y189497D01*
Y188741D01*
X126342Y188042D01*
X126876Y187508D01*
X127575Y187219D01*
X128331D01*
X128436Y187262D01*
X128786Y186866D01*
X128563Y186328D01*
Y185572D01*
X128852Y184873D01*
X129387Y184339D01*
X130085Y184050D01*
X130841D01*
X131540Y184339D01*
X132074Y184873D01*
X132363Y185572D01*
Y186328D01*
X132074Y187026D01*
X131540Y187560D01*
X130841Y187850D01*
X130085D01*
X129981Y187806D01*
X129630Y188202D01*
X129853Y188741D01*
Y189497D01*
X129563Y190195D01*
X129029Y190729D01*
X128331Y191019D01*
D02*
G37*
G36*
X175575Y185635D02*
X174819D01*
X174121Y185345D01*
X173586Y184811D01*
X173297Y184113D01*
Y183357D01*
X173586Y182658D01*
X174121Y182124D01*
X174819Y181834D01*
X175575D01*
X176273Y182124D01*
X176808Y182658D01*
X177097Y183357D01*
Y184113D01*
X176808Y184811D01*
X176273Y185345D01*
X175575Y185635D01*
D02*
G37*
G36*
X163912Y186275D02*
X163156D01*
X162458Y185986D01*
X161923Y185451D01*
X161634Y184753D01*
Y183997D01*
X161923Y183299D01*
X162458Y182764D01*
X163156Y182475D01*
X163768D01*
X164024Y182306D01*
X164193Y182050D01*
Y181438D01*
X164482Y180740D01*
X165017Y180205D01*
X165715Y179916D01*
X166471D01*
X167169Y180205D01*
X167704Y180740D01*
X167993Y181438D01*
Y182194D01*
X167704Y182892D01*
X167169Y183427D01*
X166471Y183716D01*
X165859D01*
X165603Y183885D01*
X165434Y184141D01*
Y184753D01*
X165145Y185451D01*
X164610Y185986D01*
X163912Y186275D01*
D02*
G37*
G36*
X171186Y183224D02*
X170430D01*
X169731Y182934D01*
X169197Y182400D01*
X168908Y181702D01*
Y180946D01*
X169197Y180248D01*
X169731Y179713D01*
X170430Y179424D01*
X171186D01*
X171884Y179713D01*
X172418Y180248D01*
X172708Y180946D01*
Y181702D01*
X172418Y182400D01*
X171884Y182934D01*
X171186Y183224D01*
D02*
G37*
G36*
Y175350D02*
X170430D01*
X169731Y175060D01*
X169197Y174526D01*
X168908Y173828D01*
Y173072D01*
X169197Y172373D01*
X169731Y171839D01*
X170430Y171550D01*
X171186D01*
X171884Y171839D01*
X172418Y172373D01*
X172708Y173072D01*
Y173828D01*
X172418Y174526D01*
X171884Y175060D01*
X171186Y175350D01*
D02*
G37*
G36*
X153479Y167574D02*
X152723D01*
X152025Y167285D01*
X151490Y166750D01*
X151201Y166052D01*
Y165296D01*
X151490Y164598D01*
X152025Y164063D01*
X152723Y163774D01*
X153479D01*
X154177Y164063D01*
X154712Y164598D01*
X155001Y165296D01*
Y166052D01*
X154712Y166750D01*
X154177Y167285D01*
X153479Y167574D01*
D02*
G37*
G36*
X171196Y159110D02*
X170440D01*
X169741Y158820D01*
X169207Y158286D01*
X168918Y157588D01*
Y156832D01*
X169207Y156133D01*
X169741Y155599D01*
X170440Y155310D01*
X171196D01*
X171894Y155599D01*
X172428Y156133D01*
X172718Y156832D01*
Y157588D01*
X172428Y158286D01*
X171894Y158820D01*
X171196Y159110D01*
D02*
G37*
G36*
X140881Y158519D02*
X140125D01*
X139426Y158230D01*
X138892Y157695D01*
X138603Y156997D01*
Y156241D01*
X138892Y155543D01*
X139426Y155008D01*
X140125Y154719D01*
X140881D01*
X141579Y155008D01*
X142113Y155543D01*
X142403Y156241D01*
Y156997D01*
X142113Y157695D01*
X141579Y158230D01*
X140881Y158519D01*
D02*
G37*
G36*
X153676Y153598D02*
X152920D01*
X152222Y153308D01*
X151687Y152774D01*
X151398Y152076D01*
Y151320D01*
X151687Y150621D01*
X152222Y150087D01*
X152920Y149798D01*
X153676D01*
X154374Y150087D01*
X154909Y150621D01*
X155198Y151320D01*
Y152076D01*
X154909Y152774D01*
X154374Y153308D01*
X153676Y153598D01*
D02*
G37*
G36*
X124542Y152810D02*
X123786D01*
X123088Y152521D01*
X122553Y151987D01*
X122264Y151288D01*
Y150532D01*
X122553Y149834D01*
X123088Y149300D01*
X123786Y149010D01*
X124542D01*
X125240Y149300D01*
X125775Y149834D01*
X126064Y150532D01*
Y151288D01*
X125775Y151987D01*
X125240Y152521D01*
X124542Y152810D01*
D02*
G37*
G36*
X131885Y148677D02*
X131129D01*
X130430Y148387D01*
X130131Y148087D01*
X129804Y147904D01*
X129477Y148087D01*
X129177Y148387D01*
X128479Y148677D01*
X127723D01*
X127025Y148387D01*
X126490Y147853D01*
X126201Y147154D01*
Y146399D01*
X126490Y145700D01*
X127025Y145166D01*
X127723Y144877D01*
X128479D01*
X129177Y145166D01*
X129477Y145466D01*
X129804Y145649D01*
X130131Y145466D01*
X130430Y145166D01*
X131129Y144877D01*
X131885D01*
X132583Y145166D01*
X133117Y145700D01*
X133407Y146399D01*
Y147154D01*
X133117Y147853D01*
X132583Y148387D01*
X131885Y148677D01*
D02*
G37*
G36*
X171196Y151235D02*
X170440D01*
X169741Y150946D01*
X169207Y150412D01*
X168918Y149714D01*
Y148958D01*
X169207Y148259D01*
X169741Y147725D01*
X170440Y147435D01*
X171196D01*
X171894Y147725D01*
X172428Y148259D01*
X172718Y148958D01*
Y149714D01*
X172428Y150412D01*
X171894Y150946D01*
X171196Y151235D01*
D02*
G37*
G36*
X140873Y148590D02*
X140117D01*
X139419Y148301D01*
X138884Y147766D01*
X138595Y147068D01*
Y146312D01*
X138884Y145614D01*
X139419Y145080D01*
X140117Y144790D01*
X140873D01*
X141571Y145080D01*
X142106Y145614D01*
X142395Y146312D01*
Y147068D01*
X142106Y147766D01*
X141571Y148301D01*
X140873Y148590D01*
D02*
G37*
G36*
X180567Y146853D02*
X179811D01*
X179113Y146563D01*
X178578Y146029D01*
X178289Y145331D01*
Y144575D01*
X178578Y143876D01*
X179113Y143342D01*
X179811Y143053D01*
X180567D01*
X181265Y143342D01*
X181799Y143876D01*
X182089Y144575D01*
Y145331D01*
X181799Y146029D01*
X181265Y146563D01*
X180567Y146853D01*
D02*
G37*
G36*
X171196Y143361D02*
X170440D01*
X169741Y143072D01*
X169207Y142538D01*
X168918Y141840D01*
Y141084D01*
X169207Y140385D01*
X169741Y139851D01*
X170440Y139561D01*
X171196D01*
X171894Y139851D01*
X172428Y140385D01*
X172718Y141084D01*
Y141840D01*
X172428Y142538D01*
X171894Y143072D01*
X171196Y143361D01*
D02*
G37*
G36*
X175662Y138429D02*
X174906D01*
X174208Y138139D01*
X173674Y137605D01*
X173384Y136907D01*
Y136151D01*
X173674Y135452D01*
X174208Y134918D01*
X174906Y134629D01*
X175662D01*
X176361Y134918D01*
X176895Y135452D01*
X177184Y136151D01*
Y136907D01*
X176895Y137605D01*
X176361Y138139D01*
X175662Y138429D01*
D02*
G37*
G36*
X170850Y135955D02*
X170095D01*
X169396Y135666D01*
X168862Y135131D01*
X168572Y134433D01*
Y133677D01*
X168862Y132979D01*
X169396Y132444D01*
X170095Y132155D01*
X170850D01*
X171549Y132444D01*
X172083Y132979D01*
X172372Y133677D01*
Y134433D01*
X172083Y135131D01*
X171549Y135666D01*
X170850Y135955D01*
D02*
G37*
G36*
X180480Y134364D02*
X179724D01*
X179025Y134075D01*
X178491Y133540D01*
X178202Y132842D01*
Y132086D01*
X178491Y131388D01*
X179025Y130853D01*
X179724Y130564D01*
X180480D01*
X181178Y130853D01*
X181712Y131388D01*
X182002Y132086D01*
Y132842D01*
X181712Y133540D01*
X181178Y134075D01*
X180480Y134364D01*
D02*
G37*
G36*
X171294Y130562D02*
X170538D01*
X169840Y130272D01*
X169305Y129738D01*
X169016Y129040D01*
Y128284D01*
X169305Y127585D01*
X169840Y127051D01*
X170538Y126762D01*
X171294D01*
X171992Y127051D01*
X172527Y127585D01*
X172816Y128284D01*
Y129040D01*
X172527Y129738D01*
X171992Y130272D01*
X171294Y130562D01*
D02*
G37*
G36*
X139945Y126112D02*
X139189D01*
X138490Y125823D01*
X137956Y125289D01*
X137667Y124590D01*
Y123834D01*
X137956Y123136D01*
X138490Y122602D01*
X139189Y122312D01*
X139945D01*
X140643Y122602D01*
X141177Y123136D01*
X141467Y123834D01*
Y124590D01*
X141177Y125289D01*
X140643Y125823D01*
X139945Y126112D01*
D02*
G37*
G36*
X171294Y122688D02*
X170538D01*
X169840Y122398D01*
X169305Y121864D01*
X169016Y121166D01*
Y120410D01*
X169305Y119711D01*
X169840Y119177D01*
X170538Y118888D01*
X171294D01*
X171992Y119177D01*
X172527Y119711D01*
X172816Y120410D01*
Y121166D01*
X172527Y121864D01*
X171992Y122398D01*
X171294Y122688D01*
D02*
G37*
G36*
X134975Y120916D02*
X134219D01*
X133521Y120627D01*
X132986Y120092D01*
X132697Y119394D01*
Y118638D01*
X132986Y117940D01*
X133521Y117405D01*
X134219Y117116D01*
X134397D01*
Y116669D01*
X134686Y115971D01*
X135221Y115437D01*
X135919Y115147D01*
X136675D01*
X137373Y115437D01*
X137908Y115971D01*
X138197Y116669D01*
Y117425D01*
X137908Y118124D01*
X137373Y118658D01*
X136675Y118948D01*
X136497D01*
Y119394D01*
X136208Y120092D01*
X135673Y120627D01*
X134975Y120916D01*
D02*
G37*
G36*
X158105Y116979D02*
X157349D01*
X156651Y116690D01*
X156116Y116155D01*
X155827Y115457D01*
Y114701D01*
X156034Y114202D01*
X155651Y113820D01*
X155152Y114026D01*
X154396D01*
X153898Y113820D01*
X153515Y114202D01*
X153721Y114701D01*
Y115457D01*
X153432Y116155D01*
X152898Y116690D01*
X152199Y116979D01*
X151444D01*
X150745Y116690D01*
X150211Y116155D01*
X149922Y115457D01*
Y114701D01*
X150211Y114003D01*
X150745Y113468D01*
X151444Y113179D01*
X152199D01*
X152698Y113385D01*
X153081Y113003D01*
X152874Y112504D01*
Y111748D01*
X153081Y111249D01*
X152698Y110867D01*
X152199Y111073D01*
X151444D01*
X150745Y110784D01*
X150211Y110250D01*
X149922Y109551D01*
Y108795D01*
X150211Y108097D01*
X150745Y107563D01*
X151444Y107273D01*
X152199D01*
X152898Y107563D01*
X153432Y108097D01*
X153721Y108795D01*
Y109551D01*
X153515Y110050D01*
X153898Y110433D01*
X154396Y110226D01*
X155152D01*
X155651Y110433D01*
X156034Y110050D01*
X155827Y109551D01*
Y108795D01*
X156116Y108097D01*
X156651Y107563D01*
X157349Y107273D01*
X158105D01*
X158803Y107563D01*
X159338Y108097D01*
X159627Y108795D01*
Y109551D01*
X159338Y110250D01*
X158803Y110784D01*
X158105Y111073D01*
X157349D01*
X156850Y110867D01*
X156468Y111249D01*
X156674Y111748D01*
Y112504D01*
X156468Y113003D01*
X156850Y113385D01*
X157349Y113179D01*
X158105D01*
X158803Y113468D01*
X159338Y114003D01*
X159627Y114701D01*
Y115457D01*
X159338Y116155D01*
X158803Y116690D01*
X158105Y116979D01*
D02*
G37*
G36*
X171294Y114814D02*
X170538D01*
X169840Y114524D01*
X169305Y113990D01*
X169016Y113292D01*
Y112536D01*
X169305Y111837D01*
X169840Y111303D01*
X170538Y111014D01*
X171294D01*
X171992Y111303D01*
X172527Y111837D01*
X172816Y112536D01*
Y113292D01*
X172527Y113990D01*
X171992Y114524D01*
X171294Y114814D01*
D02*
G37*
G36*
X144404Y112598D02*
X143649D01*
X142950Y112309D01*
X142416Y111774D01*
X142127Y111076D01*
Y110320D01*
X142416Y109622D01*
X142950Y109087D01*
X143649Y108798D01*
X144404D01*
X145103Y109087D01*
X145637Y109622D01*
X145927Y110320D01*
Y111076D01*
X145637Y111774D01*
X145103Y112309D01*
X144404Y112598D01*
D02*
G37*
G36*
X175673Y111477D02*
X174917D01*
X174219Y111188D01*
X173685Y110653D01*
X173395Y109955D01*
Y109199D01*
X173685Y108501D01*
X174219Y107966D01*
X174917Y107677D01*
X175673D01*
X176372Y107966D01*
X176906Y108501D01*
X177195Y109199D01*
Y109955D01*
X176906Y110653D01*
X176372Y111188D01*
X175673Y111477D01*
D02*
G37*
G36*
X134975Y109892D02*
X134219D01*
X133521Y109603D01*
X132986Y109069D01*
X132697Y108370D01*
Y107614D01*
X132986Y106916D01*
X133521Y106382D01*
X134219Y106092D01*
X134975D01*
X135673Y106382D01*
X136208Y106916D01*
X136497Y107614D01*
Y108370D01*
X136208Y109069D01*
X135673Y109603D01*
X134975Y109892D01*
D02*
G37*
G36*
X164551Y109184D02*
X163795D01*
X163097Y108894D01*
X162563Y108360D01*
X162273Y107661D01*
Y106905D01*
X162563Y106207D01*
X163097Y105673D01*
X163795Y105384D01*
X164551D01*
X165250Y105673D01*
X165784Y106207D01*
X166073Y106905D01*
Y107661D01*
X165784Y108360D01*
X165250Y108894D01*
X164551Y109184D01*
D02*
G37*
G36*
X159680Y103593D02*
X158924D01*
X158226Y103304D01*
X157924Y103002D01*
X157597Y102821D01*
X157271Y103002D01*
X156969Y103304D01*
X156271Y103593D01*
X155515D01*
X154817Y103304D01*
X154743Y103230D01*
X154669Y103304D01*
X153971Y103593D01*
X153215D01*
X152517Y103304D01*
X152247Y103033D01*
X151920Y102812D01*
X151593Y103033D01*
X151323Y103304D01*
X150625Y103593D01*
X149869D01*
X149170Y103304D01*
X148636Y102769D01*
X148347Y102071D01*
Y101315D01*
X148636Y100617D01*
X149170Y100082D01*
X149869Y99793D01*
X150625D01*
X151323Y100082D01*
X151593Y100353D01*
X151920Y100574D01*
X152247Y100353D01*
X152517Y100082D01*
X153215Y99793D01*
X153971D01*
X154669Y100082D01*
X154743Y100156D01*
X154817Y100082D01*
X155515Y99793D01*
X156271D01*
X156969Y100082D01*
X157271Y100384D01*
X157597Y100565D01*
X157924Y100384D01*
X158226Y100082D01*
X158924Y99793D01*
X159680D01*
X160378Y100082D01*
X160913Y100617D01*
X161202Y101315D01*
Y102071D01*
X160913Y102769D01*
X160378Y103304D01*
X159680Y103593D01*
D02*
G37*
G36*
X173213Y107412D02*
X172457D01*
X171758Y107123D01*
X171224Y106588D01*
X170935Y105890D01*
Y105134D01*
X171224Y104436D01*
X171298Y104362D01*
X171224Y104288D01*
X170935Y103590D01*
Y102834D01*
X171224Y102136D01*
X171758Y101601D01*
X172457Y101312D01*
X173213D01*
X173911Y101601D01*
X174445Y102136D01*
X174735Y102834D01*
Y103590D01*
X174445Y104288D01*
X174372Y104362D01*
X174445Y104436D01*
X174735Y105134D01*
Y105890D01*
X174445Y106588D01*
X173911Y107123D01*
X173213Y107412D01*
D02*
G37*
G36*
X128429Y106369D02*
X127673D01*
X126975Y106079D01*
X126440Y105545D01*
X126151Y104847D01*
Y104091D01*
X126440Y103392D01*
X126975Y102858D01*
X127673Y102568D01*
X128429D01*
X128534Y102612D01*
X128885Y102216D01*
X128662Y101677D01*
Y100921D01*
X128951Y100223D01*
X129485Y99689D01*
X130184Y99399D01*
X130940D01*
X131638Y99689D01*
X132172Y100223D01*
X132462Y100921D01*
Y101677D01*
X132172Y102376D01*
X131638Y102910D01*
X130940Y103199D01*
X130184D01*
X130079Y103156D01*
X129728Y103552D01*
X129951Y104091D01*
Y104847D01*
X129662Y105545D01*
X129127Y106079D01*
X128429Y106369D01*
D02*
G37*
G36*
X175673Y100984D02*
X174917D01*
X174219Y100695D01*
X173685Y100161D01*
X173395Y99462D01*
Y98706D01*
X173685Y98008D01*
X174219Y97474D01*
X174917Y97184D01*
X175673D01*
X176372Y97474D01*
X176906Y98008D01*
X177195Y98706D01*
Y99462D01*
X176906Y100161D01*
X176372Y100695D01*
X175673Y100984D01*
D02*
G37*
G36*
X164011Y101625D02*
X163255D01*
X162556Y101335D01*
X162022Y100801D01*
X161732Y100103D01*
Y99347D01*
X162022Y98648D01*
X162556Y98114D01*
X163255Y97825D01*
X163867D01*
X164122Y97655D01*
X164292Y97400D01*
Y96788D01*
X164581Y96089D01*
X165115Y95555D01*
X165814Y95266D01*
X166569D01*
X167268Y95555D01*
X167802Y96089D01*
X168092Y96788D01*
Y97544D01*
X167802Y98242D01*
X167268Y98776D01*
X166569Y99066D01*
X165957D01*
X165702Y99235D01*
X165533Y99490D01*
Y100103D01*
X165243Y100801D01*
X164709Y101335D01*
X164011Y101625D01*
D02*
G37*
G36*
X171284Y98573D02*
X170528D01*
X169830Y98284D01*
X169295Y97750D01*
X169006Y97052D01*
Y96296D01*
X169295Y95597D01*
X169830Y95063D01*
X170528Y94774D01*
X171284D01*
X171982Y95063D01*
X172517Y95597D01*
X172806Y96296D01*
Y97052D01*
X172517Y97750D01*
X171982Y98284D01*
X171284Y98573D01*
D02*
G37*
G36*
Y90699D02*
X170528D01*
X169830Y90410D01*
X169295Y89876D01*
X169006Y89177D01*
Y88422D01*
X169295Y87723D01*
X169830Y87189D01*
X170528Y86900D01*
X171284D01*
X171982Y87189D01*
X172517Y87723D01*
X172806Y88422D01*
Y89177D01*
X172517Y89876D01*
X171982Y90410D01*
X171284Y90699D01*
D02*
G37*
G36*
X153577Y82924D02*
X152822D01*
X152123Y82635D01*
X151589Y82100D01*
X151300Y81402D01*
Y80646D01*
X151589Y79948D01*
X152123Y79413D01*
X152822Y79124D01*
X153577D01*
X154276Y79413D01*
X154810Y79948D01*
X155099Y80646D01*
Y81402D01*
X154810Y82100D01*
X154276Y82635D01*
X153577Y82924D01*
D02*
G37*
G36*
X171294Y74459D02*
X170538D01*
X169840Y74170D01*
X169305Y73636D01*
X169016Y72937D01*
Y72181D01*
X169305Y71483D01*
X169840Y70949D01*
X170538Y70659D01*
X171294D01*
X171992Y70949D01*
X172527Y71483D01*
X172816Y72181D01*
Y72937D01*
X172527Y73636D01*
X171992Y74170D01*
X171294Y74459D01*
D02*
G37*
G36*
X140979Y73869D02*
X140223D01*
X139525Y73580D01*
X138990Y73045D01*
X138701Y72347D01*
Y71591D01*
X138990Y70893D01*
X139525Y70358D01*
X140223Y70069D01*
X140979D01*
X141677Y70358D01*
X142212Y70893D01*
X142501Y71591D01*
Y72347D01*
X142212Y73045D01*
X141677Y73580D01*
X140979Y73869D01*
D02*
G37*
G36*
X153774Y68947D02*
X153018D01*
X152320Y68658D01*
X151786Y68124D01*
X151496Y67425D01*
Y66669D01*
X151786Y65971D01*
X152320Y65437D01*
X153018Y65148D01*
X153774D01*
X154473Y65437D01*
X155007Y65971D01*
X155296Y66669D01*
Y67425D01*
X155007Y68124D01*
X154473Y68658D01*
X153774Y68947D01*
D02*
G37*
G36*
X124640Y68160D02*
X123884D01*
X123186Y67871D01*
X122652Y67336D01*
X122362Y66638D01*
Y65882D01*
X122652Y65184D01*
X123186Y64649D01*
X123884Y64360D01*
X124640D01*
X125339Y64649D01*
X125873Y65184D01*
X126162Y65882D01*
Y66638D01*
X125873Y67336D01*
X125339Y67871D01*
X124640Y68160D01*
D02*
G37*
G36*
X131983Y64026D02*
X131227D01*
X130529Y63737D01*
X130229Y63437D01*
X129902Y63254D01*
X129576Y63437D01*
X129276Y63737D01*
X128577Y64026D01*
X127822D01*
X127123Y63737D01*
X126589Y63203D01*
X126300Y62504D01*
Y61748D01*
X126589Y61050D01*
X127123Y60515D01*
X127822Y60226D01*
X128577D01*
X129276Y60515D01*
X129576Y60815D01*
X129902Y60998D01*
X130229Y60815D01*
X130529Y60515D01*
X131227Y60226D01*
X131983D01*
X132681Y60515D01*
X133216Y61050D01*
X133505Y61748D01*
Y62504D01*
X133216Y63203D01*
X132681Y63737D01*
X131983Y64026D01*
D02*
G37*
G36*
X171294Y66585D02*
X170538D01*
X169840Y66296D01*
X169305Y65762D01*
X169016Y65063D01*
Y64307D01*
X169305Y63609D01*
X169840Y63074D01*
X170538Y62785D01*
X171294D01*
X171992Y63074D01*
X172527Y63609D01*
X172816Y64307D01*
Y65063D01*
X172527Y65762D01*
X171992Y66296D01*
X171294Y66585D01*
D02*
G37*
G36*
X140972Y63940D02*
X140216D01*
X139517Y63651D01*
X138983Y63116D01*
X138694Y62418D01*
Y61662D01*
X138983Y60964D01*
X139517Y60429D01*
X140216Y60140D01*
X140972D01*
X141670Y60429D01*
X142204Y60964D01*
X142494Y61662D01*
Y62418D01*
X142204Y63116D01*
X141670Y63651D01*
X140972Y63940D01*
D02*
G37*
G36*
X335024Y394617D02*
X334268D01*
X333569Y394327D01*
X333035Y393793D01*
X332746Y393094D01*
Y392339D01*
X333035Y391640D01*
X333569Y391106D01*
X334268Y390816D01*
X335024D01*
X335722Y391106D01*
X336256Y391640D01*
X336546Y392339D01*
Y393094D01*
X336256Y393793D01*
X335722Y394327D01*
X335024Y394617D01*
D02*
G37*
G36*
X325181D02*
X324425D01*
X323727Y394327D01*
X323192Y393793D01*
X322903Y393094D01*
Y392339D01*
X323192Y391640D01*
X323727Y391106D01*
X324425Y390816D01*
X325181D01*
X325879Y391106D01*
X326414Y391640D01*
X326703Y392339D01*
Y393094D01*
X326414Y393793D01*
X325879Y394327D01*
X325181Y394617D01*
D02*
G37*
G36*
X315339D02*
X314583D01*
X313884Y394327D01*
X313350Y393793D01*
X313061Y393094D01*
Y392339D01*
X313350Y391640D01*
X313884Y391106D01*
X314583Y390816D01*
X315339D01*
X316037Y391106D01*
X316571Y391640D01*
X316861Y392339D01*
Y393094D01*
X316571Y393793D01*
X316037Y394327D01*
X315339Y394617D01*
D02*
G37*
G36*
X305496D02*
X304740D01*
X304042Y394327D01*
X303507Y393793D01*
X303218Y393094D01*
Y392339D01*
X303507Y391640D01*
X304042Y391106D01*
X304740Y390816D01*
X305496D01*
X306194Y391106D01*
X306729Y391640D01*
X307018Y392339D01*
Y393094D01*
X306729Y393793D01*
X306194Y394327D01*
X305496Y394617D01*
D02*
G37*
G36*
X295654D02*
X294898D01*
X294199Y394327D01*
X293665Y393793D01*
X293376Y393094D01*
Y392339D01*
X293665Y391640D01*
X294199Y391106D01*
X294898Y390816D01*
X295654D01*
X296352Y391106D01*
X296886Y391640D01*
X297176Y392339D01*
Y393094D01*
X296886Y393793D01*
X296352Y394327D01*
X295654Y394617D01*
D02*
G37*
G36*
X285811D02*
X285055D01*
X284357Y394327D01*
X283822Y393793D01*
X283533Y393094D01*
Y392339D01*
X283822Y391640D01*
X284357Y391106D01*
X285055Y390816D01*
X285811D01*
X286509Y391106D01*
X287044Y391640D01*
X287333Y392339D01*
Y393094D01*
X287044Y393793D01*
X286509Y394327D01*
X285811Y394617D01*
D02*
G37*
G36*
X275969D02*
X275213D01*
X274514Y394327D01*
X273980Y393793D01*
X273691Y393094D01*
Y392339D01*
X273980Y391640D01*
X274514Y391106D01*
X275213Y390816D01*
X275969D01*
X276667Y391106D01*
X277201Y391640D01*
X277490Y392339D01*
Y393094D01*
X277201Y393793D01*
X276667Y394327D01*
X275969Y394617D01*
D02*
G37*
G36*
X266126D02*
X265370D01*
X264672Y394327D01*
X264137Y393793D01*
X263848Y393094D01*
Y392339D01*
X264137Y391640D01*
X264672Y391106D01*
X265370Y390816D01*
X266126D01*
X266824Y391106D01*
X267359Y391640D01*
X267648Y392339D01*
Y393094D01*
X267359Y393793D01*
X266824Y394327D01*
X266126Y394617D01*
D02*
G37*
G36*
X256283D02*
X255528D01*
X254829Y394327D01*
X254295Y393793D01*
X254006Y393094D01*
Y392339D01*
X254295Y391640D01*
X254829Y391106D01*
X255528Y390816D01*
X256283D01*
X256982Y391106D01*
X257516Y391640D01*
X257805Y392339D01*
Y393094D01*
X257516Y393793D01*
X256982Y394327D01*
X256283Y394617D01*
D02*
G37*
G36*
X246441D02*
X245685D01*
X244987Y394327D01*
X244452Y393793D01*
X244163Y393094D01*
Y392339D01*
X244452Y391640D01*
X244987Y391106D01*
X245685Y390816D01*
X246441D01*
X247139Y391106D01*
X247674Y391640D01*
X247963Y392339D01*
Y393094D01*
X247674Y393793D01*
X247139Y394327D01*
X246441Y394617D01*
D02*
G37*
G36*
X236598D02*
X235842D01*
X235144Y394327D01*
X234610Y393793D01*
X234320Y393094D01*
Y392339D01*
X234610Y391640D01*
X235144Y391106D01*
X235842Y390816D01*
X236598D01*
X237297Y391106D01*
X237831Y391640D01*
X238121Y392339D01*
Y393094D01*
X237831Y393793D01*
X237297Y394327D01*
X236598Y394617D01*
D02*
G37*
G36*
X226756D02*
X226000D01*
X225302Y394327D01*
X224767Y393793D01*
X224478Y393094D01*
Y392339D01*
X224767Y391640D01*
X225302Y391106D01*
X226000Y390816D01*
X226756D01*
X227454Y391106D01*
X227989Y391640D01*
X228278Y392339D01*
Y393094D01*
X227989Y393793D01*
X227454Y394327D01*
X226756Y394617D01*
D02*
G37*
G36*
X216913D02*
X216158D01*
X215459Y394327D01*
X214925Y393793D01*
X214635Y393094D01*
Y392339D01*
X214925Y391640D01*
X215459Y391106D01*
X216158Y390816D01*
X216913D01*
X217612Y391106D01*
X218146Y391640D01*
X218435Y392339D01*
Y393094D01*
X218146Y393793D01*
X217612Y394327D01*
X216913Y394617D01*
D02*
G37*
G36*
X207071D02*
X206315D01*
X205617Y394327D01*
X205082Y393793D01*
X204793Y393094D01*
Y392339D01*
X205082Y391640D01*
X205617Y391106D01*
X206315Y390816D01*
X207071D01*
X207769Y391106D01*
X208304Y391640D01*
X208593Y392339D01*
Y393094D01*
X208304Y393793D01*
X207769Y394327D01*
X207071Y394617D01*
D02*
G37*
G36*
X145063D02*
X144307D01*
X143609Y394327D01*
X143074Y393793D01*
X142785Y393094D01*
Y392339D01*
X143074Y391640D01*
X143609Y391106D01*
X144307Y390816D01*
X145063D01*
X145761Y391106D01*
X146296Y391640D01*
X146585Y392339D01*
Y393094D01*
X146296Y393793D01*
X145761Y394327D01*
X145063Y394617D01*
D02*
G37*
G36*
X129118D02*
X128362D01*
X127664Y394327D01*
X127129Y393793D01*
X126840Y393094D01*
Y392339D01*
X127129Y391640D01*
X127664Y391106D01*
X128362Y390816D01*
X129118D01*
X129816Y391106D01*
X130351Y391640D01*
X130640Y392339D01*
Y393094D01*
X130351Y393793D01*
X129816Y394327D01*
X129118Y394617D01*
D02*
G37*
G36*
X76575Y392861D02*
X75819D01*
X75121Y392571D01*
X74586Y392037D01*
X74297Y391339D01*
Y390583D01*
X74586Y389884D01*
X75121Y389350D01*
X75819Y389061D01*
X76575D01*
X77273Y389350D01*
X77808Y389884D01*
X78097Y390583D01*
Y391339D01*
X77808Y392037D01*
X77273Y392571D01*
X76575Y392861D01*
D02*
G37*
G36*
X148705Y390089D02*
X147949D01*
X147251Y389800D01*
X146716Y389265D01*
X146427Y388567D01*
Y387811D01*
X146716Y387113D01*
X147251Y386578D01*
X147949Y386289D01*
X148705D01*
X149403Y386578D01*
X149938Y387113D01*
X150227Y387811D01*
Y388567D01*
X149938Y389265D01*
X149403Y389800D01*
X148705Y390089D01*
D02*
G37*
G36*
X266126Y354262D02*
X265370D01*
X264672Y353973D01*
X264137Y353438D01*
X263848Y352740D01*
Y351984D01*
X264137Y351286D01*
X264672Y350751D01*
X265370Y350462D01*
X266126D01*
X266824Y350751D01*
X267359Y351286D01*
X267648Y351984D01*
Y352740D01*
X267359Y353438D01*
X266824Y353973D01*
X266126Y354262D01*
D02*
G37*
G36*
X335024Y346388D02*
X334268D01*
X333569Y346099D01*
X333035Y345564D01*
X332746Y344866D01*
Y344110D01*
X333035Y343412D01*
X333569Y342877D01*
X334268Y342588D01*
X335024D01*
X335722Y342877D01*
X336256Y343412D01*
X336546Y344110D01*
Y344866D01*
X336256Y345564D01*
X335722Y346099D01*
X335024Y346388D01*
D02*
G37*
G36*
X266126Y343435D02*
X265370D01*
X264672Y343146D01*
X264137Y342612D01*
X263848Y341913D01*
Y341158D01*
X264137Y340459D01*
X264672Y339925D01*
X265370Y339635D01*
X266126D01*
X266824Y339925D01*
X267359Y340459D01*
X267648Y341158D01*
Y341913D01*
X267359Y342612D01*
X266824Y343146D01*
X266126Y343435D01*
D02*
G37*
G36*
X19086Y353362D02*
X17725D01*
X16391Y353097D01*
X15134Y352576D01*
X14004Y351820D01*
X13042Y350859D01*
X12286Y349728D01*
X11765Y348471D01*
X11500Y347137D01*
Y345777D01*
X11765Y344442D01*
X12286Y343186D01*
X13042Y342055D01*
X14004Y341093D01*
X15134Y340337D01*
X16391Y339817D01*
X17725Y339551D01*
X19086D01*
X20420Y339817D01*
X21676Y340337D01*
X22807Y341093D01*
X23769Y342055D01*
X24525Y343186D01*
X25046Y344442D01*
X25311Y345777D01*
Y347137D01*
X25046Y348471D01*
X24525Y349728D01*
X23769Y350859D01*
X22807Y351820D01*
X21676Y352576D01*
X20420Y353097D01*
X19086Y353362D01*
D02*
G37*
G36*
X335024Y336546D02*
X334268D01*
X333569Y336256D01*
X333035Y335722D01*
X332746Y335024D01*
Y334268D01*
X333035Y333569D01*
X333569Y333035D01*
X334268Y332746D01*
X335024D01*
X335722Y333035D01*
X336256Y333569D01*
X336546Y334268D01*
Y335024D01*
X336256Y335722D01*
X335722Y336256D01*
X335024Y336546D01*
D02*
G37*
G36*
X273803Y327884D02*
X273047D01*
X272349Y327595D01*
X271814Y327061D01*
X271525Y326362D01*
Y325606D01*
X271814Y324908D01*
X272349Y324374D01*
X273047Y324084D01*
X273803D01*
X274501Y324374D01*
X275036Y324908D01*
X275325Y325606D01*
Y326362D01*
X275036Y327061D01*
X274501Y327595D01*
X273803Y327884D01*
D02*
G37*
G36*
X258055D02*
X257299D01*
X256601Y327595D01*
X256066Y327061D01*
X255777Y326362D01*
Y325606D01*
X256066Y324908D01*
X256601Y324374D01*
X257299Y324084D01*
X258055D01*
X258753Y324374D01*
X259288Y324908D01*
X259577Y325606D01*
Y326362D01*
X259288Y327061D01*
X258753Y327595D01*
X258055Y327884D01*
D02*
G37*
G36*
X242307D02*
X241551D01*
X240853Y327595D01*
X240318Y327061D01*
X240029Y326362D01*
Y325606D01*
X240318Y324908D01*
X240853Y324374D01*
X241551Y324084D01*
X242307D01*
X243005Y324374D01*
X243540Y324908D01*
X243829Y325606D01*
Y326362D01*
X243540Y327061D01*
X243005Y327595D01*
X242307Y327884D01*
D02*
G37*
G36*
X226559D02*
X225803D01*
X225105Y327595D01*
X224570Y327061D01*
X224281Y326362D01*
Y325606D01*
X224570Y324908D01*
X225105Y324374D01*
X225803Y324084D01*
X226559D01*
X227257Y324374D01*
X227792Y324908D01*
X228081Y325606D01*
Y326362D01*
X227792Y327061D01*
X227257Y327595D01*
X226559Y327884D01*
D02*
G37*
G36*
X335024Y326703D02*
X334268D01*
X333569Y326414D01*
X333035Y325879D01*
X332746Y325181D01*
Y324425D01*
X333035Y323727D01*
X333569Y323192D01*
X334268Y322903D01*
X335024D01*
X335722Y323192D01*
X336256Y323727D01*
X336546Y324425D01*
Y325181D01*
X336256Y325879D01*
X335722Y326414D01*
X335024Y326703D01*
D02*
G37*
G36*
X266126Y320798D02*
X265370D01*
X264672Y320508D01*
X264137Y319974D01*
X263848Y319276D01*
Y318520D01*
X264137Y317821D01*
X264672Y317287D01*
X265370Y316998D01*
X266126D01*
X266824Y317287D01*
X267359Y317821D01*
X267648Y318520D01*
Y319276D01*
X267359Y319974D01*
X266824Y320508D01*
X266126Y320798D01*
D02*
G37*
G36*
X250378D02*
X249622D01*
X248924Y320508D01*
X248389Y319974D01*
X248100Y319276D01*
Y318520D01*
X248389Y317821D01*
X248924Y317287D01*
X249622Y316998D01*
X250378D01*
X251076Y317287D01*
X251611Y317821D01*
X251900Y318520D01*
Y319276D01*
X251611Y319974D01*
X251076Y320508D01*
X250378Y320798D01*
D02*
G37*
G36*
X234630D02*
X233874D01*
X233176Y320508D01*
X232641Y319974D01*
X232352Y319276D01*
Y318520D01*
X232641Y317821D01*
X233176Y317287D01*
X233874Y316998D01*
X234630D01*
X235328Y317287D01*
X235863Y317821D01*
X236152Y318520D01*
Y319276D01*
X235863Y319974D01*
X235328Y320508D01*
X234630Y320798D01*
D02*
G37*
G36*
X204118D02*
X203362D01*
X202664Y320508D01*
X202129Y319974D01*
X201840Y319276D01*
Y318520D01*
X202129Y317821D01*
X202664Y317287D01*
X203362Y316998D01*
X204118D01*
X204816Y317287D01*
X205351Y317821D01*
X205640Y318520D01*
Y319276D01*
X205351Y319974D01*
X204816Y320508D01*
X204118Y320798D01*
D02*
G37*
G36*
X288764Y317845D02*
X288008D01*
X287310Y317556D01*
X286775Y317021D01*
X286486Y316323D01*
Y315567D01*
X286775Y314869D01*
X287310Y314334D01*
X288008Y314045D01*
X288764D01*
X289462Y314334D01*
X289997Y314869D01*
X290286Y315567D01*
Y316323D01*
X289997Y317021D01*
X289462Y317556D01*
X288764Y317845D01*
D02*
G37*
G36*
X335024Y316861D02*
X334268D01*
X333569Y316571D01*
X333035Y316037D01*
X332746Y315339D01*
Y314583D01*
X333035Y313884D01*
X333569Y313350D01*
X334268Y313061D01*
X335024D01*
X335722Y313350D01*
X336256Y313884D01*
X336546Y314583D01*
Y315339D01*
X336256Y316037D01*
X335722Y316571D01*
X335024Y316861D01*
D02*
G37*
G36*
X280496Y315286D02*
X279740D01*
X279042Y314997D01*
X278507Y314462D01*
X278218Y313764D01*
Y313008D01*
X278507Y312310D01*
X279042Y311775D01*
X279740Y311486D01*
X280496D01*
X281194Y311775D01*
X281729Y312310D01*
X282018Y313008D01*
Y313764D01*
X281729Y314462D01*
X281194Y314997D01*
X280496Y315286D01*
D02*
G37*
G36*
X258055Y314302D02*
X257299D01*
X256601Y314012D01*
X256066Y313478D01*
X255777Y312779D01*
Y312024D01*
X256066Y311325D01*
X256601Y310791D01*
X257299Y310502D01*
X258055D01*
X258753Y310791D01*
X259288Y311325D01*
X259577Y312024D01*
Y312779D01*
X259288Y313478D01*
X258753Y314012D01*
X258055Y314302D01*
D02*
G37*
G36*
X242307D02*
X241551D01*
X240853Y314012D01*
X240318Y313478D01*
X240029Y312779D01*
Y312024D01*
X240318Y311325D01*
X240853Y310791D01*
X241551Y310502D01*
X242307D01*
X243005Y310791D01*
X243540Y311325D01*
X243829Y312024D01*
Y312779D01*
X243540Y313478D01*
X243005Y314012D01*
X242307Y314302D01*
D02*
G37*
G36*
X196244D02*
X195488D01*
X194790Y314012D01*
X194255Y313478D01*
X193966Y312779D01*
Y312024D01*
X194255Y311325D01*
X194790Y310791D01*
X195488Y310502D01*
X196244D01*
X196942Y310791D01*
X197477Y311325D01*
X197766Y312024D01*
Y312779D01*
X197477Y313478D01*
X196942Y314012D01*
X196244Y314302D01*
D02*
G37*
G36*
X19086Y323441D02*
X17725D01*
X16391Y323176D01*
X15134Y322655D01*
X14004Y321899D01*
X13042Y320937D01*
X12286Y319806D01*
X11765Y318550D01*
X11500Y317215D01*
Y315855D01*
X11765Y314521D01*
X12286Y313264D01*
X13042Y312133D01*
X14004Y311172D01*
X15134Y310416D01*
X16391Y309895D01*
X17725Y309630D01*
X19086D01*
X20420Y309895D01*
X21676Y310416D01*
X22807Y311172D01*
X23769Y312133D01*
X24525Y313264D01*
X25046Y314521D01*
X25311Y315855D01*
Y317215D01*
X25046Y318550D01*
X24525Y319806D01*
X23769Y320937D01*
X22807Y321899D01*
X21676Y322655D01*
X20420Y323176D01*
X19086Y323441D01*
D02*
G37*
G36*
X266126Y307805D02*
X265370D01*
X264672Y307516D01*
X264137Y306982D01*
X263848Y306283D01*
Y305528D01*
X264137Y304829D01*
X264672Y304295D01*
X265370Y304006D01*
X266126D01*
X266824Y304295D01*
X267359Y304829D01*
X267648Y305528D01*
Y306283D01*
X267359Y306982D01*
X266824Y307516D01*
X266126Y307805D01*
D02*
G37*
G36*
X250378D02*
X249622D01*
X248924Y307516D01*
X248389Y306982D01*
X248100Y306283D01*
Y305528D01*
X248389Y304829D01*
X248924Y304295D01*
X249622Y304006D01*
X250378D01*
X251076Y304295D01*
X251611Y304829D01*
X251900Y305528D01*
Y306283D01*
X251611Y306982D01*
X251076Y307516D01*
X250378Y307805D01*
D02*
G37*
G36*
X234630D02*
X233874D01*
X233176Y307516D01*
X232641Y306982D01*
X232352Y306283D01*
Y305528D01*
X232641Y304829D01*
X233176Y304295D01*
X233874Y304006D01*
X234630D01*
X235328Y304295D01*
X235863Y304829D01*
X236152Y305528D01*
Y306283D01*
X235863Y306982D01*
X235328Y307516D01*
X234630Y307805D01*
D02*
G37*
G36*
X335024Y307018D02*
X334268D01*
X333569Y306729D01*
X333035Y306194D01*
X332746Y305496D01*
Y304740D01*
X333035Y304042D01*
X333569Y303507D01*
X334268Y303218D01*
X335024D01*
X335722Y303507D01*
X336256Y304042D01*
X336546Y304740D01*
Y305496D01*
X336256Y306194D01*
X335722Y306729D01*
X335024Y307018D01*
D02*
G37*
G36*
X296835Y306034D02*
X296079D01*
X295380Y305745D01*
X294846Y305210D01*
X294557Y304512D01*
Y303756D01*
X294624Y303593D01*
X294241Y303211D01*
X294079Y303278D01*
X293323D01*
X292624Y302989D01*
X292090Y302454D01*
X291801Y301756D01*
Y301000D01*
X292090Y300302D01*
X292624Y299767D01*
X293323Y299478D01*
X294079D01*
X294777Y299767D01*
X295311Y300302D01*
X295601Y301000D01*
Y301756D01*
X295533Y301919D01*
X295916Y302301D01*
X296079Y302234D01*
X296835D01*
X297533Y302523D01*
X298067Y303058D01*
X298357Y303756D01*
Y304512D01*
X298067Y305210D01*
X297533Y305745D01*
X296835Y306034D01*
D02*
G37*
G36*
X286205Y302884D02*
X285449D01*
X284751Y302595D01*
X284216Y302061D01*
X283927Y301362D01*
Y300606D01*
X284216Y299908D01*
X284751Y299374D01*
X285449Y299084D01*
X286205D01*
X286903Y299374D01*
X287438Y299908D01*
X287727Y300606D01*
Y301362D01*
X287438Y302061D01*
X286903Y302595D01*
X286205Y302884D01*
D02*
G37*
G36*
X255971Y300104D02*
X255215D01*
X254517Y299815D01*
X253982Y299280D01*
X253895Y299070D01*
X253354D01*
X253267Y299280D01*
X252732Y299815D01*
X252034Y300104D01*
X251278D01*
X250580Y299815D01*
X250045Y299280D01*
X249756Y298582D01*
Y297826D01*
X250045Y297128D01*
X250580Y296593D01*
X251278Y296304D01*
X252034D01*
X252732Y296593D01*
X253267Y297128D01*
X253354Y297338D01*
X253895D01*
X253982Y297128D01*
X254517Y296593D01*
X255215Y296304D01*
X255971D01*
X256669Y296593D01*
X257204Y297128D01*
X257493Y297826D01*
Y298582D01*
X257204Y299280D01*
X256669Y299815D01*
X255971Y300104D01*
D02*
G37*
G36*
X239551Y298553D02*
X238795D01*
X238097Y298264D01*
X237562Y297730D01*
X237273Y297031D01*
Y296276D01*
X237562Y295577D01*
X238097Y295043D01*
X238795Y294754D01*
X239551D01*
X240249Y295043D01*
X240784Y295577D01*
X241073Y296276D01*
Y297031D01*
X240784Y297730D01*
X240249Y298264D01*
X239551Y298553D01*
D02*
G37*
G36*
X234433D02*
X233677D01*
X232979Y298264D01*
X232444Y297730D01*
X232155Y297031D01*
Y296276D01*
X232444Y295577D01*
X232979Y295043D01*
X233677Y294754D01*
X234433D01*
X235131Y295043D01*
X235666Y295577D01*
X235955Y296276D01*
Y297031D01*
X235666Y297730D01*
X235131Y298264D01*
X234433Y298553D01*
D02*
G37*
G36*
X321441Y297963D02*
X320685D01*
X319987Y297674D01*
X319452Y297139D01*
X319163Y296441D01*
Y295685D01*
X319452Y294987D01*
X319987Y294452D01*
X320685Y294163D01*
X321441D01*
X322139Y294452D01*
X322674Y294987D01*
X322963Y295685D01*
Y296441D01*
X322674Y297139D01*
X322139Y297674D01*
X321441Y297963D01*
D02*
G37*
G36*
X328921Y297372D02*
X328165D01*
X327467Y297083D01*
X326933Y296549D01*
X326643Y295850D01*
Y295094D01*
X326933Y294396D01*
X327467Y293862D01*
X328165Y293572D01*
X328921D01*
X329620Y293862D01*
X330154Y294396D01*
X330443Y295094D01*
Y295850D01*
X330154Y296549D01*
X329620Y297083D01*
X328921Y297372D01*
D02*
G37*
G36*
X265761Y296585D02*
X265005D01*
X264306Y296296D01*
X263772Y295761D01*
X263483Y295063D01*
Y294307D01*
X263772Y293609D01*
X264306Y293074D01*
X265005Y292785D01*
X265761D01*
X266459Y293074D01*
X266993Y293609D01*
X267283Y294307D01*
Y295063D01*
X266993Y295761D01*
X266459Y296296D01*
X265761Y296585D01*
D02*
G37*
G36*
X308842Y296191D02*
X308087D01*
X307388Y295902D01*
X306854Y295368D01*
X306565Y294669D01*
Y293913D01*
X306854Y293215D01*
X307388Y292681D01*
X308087Y292391D01*
X308842D01*
X309541Y292681D01*
X310075Y293215D01*
X310365Y293913D01*
Y294669D01*
X310075Y295368D01*
X309541Y295902D01*
X308842Y296191D01*
D02*
G37*
G36*
X302845Y303274D02*
X302089D01*
X301391Y302985D01*
X300856Y302450D01*
X300567Y301752D01*
Y300996D01*
X300856Y300298D01*
X301391Y299763D01*
X301601Y299676D01*
Y299135D01*
X301391Y299048D01*
X300856Y298513D01*
X300567Y297815D01*
Y297059D01*
X300856Y296361D01*
X301391Y295826D01*
X301601Y295739D01*
Y295198D01*
X301391Y295111D01*
X300856Y294576D01*
X300567Y293878D01*
Y293122D01*
X300856Y292424D01*
X301391Y291889D01*
X302089Y291600D01*
X302845D01*
X303543Y291889D01*
X304078Y292424D01*
X304367Y293122D01*
Y293878D01*
X304078Y294576D01*
X303543Y295111D01*
X303333Y295198D01*
Y295739D01*
X303543Y295826D01*
X304078Y296361D01*
X304367Y297059D01*
Y297815D01*
X304078Y298513D01*
X303543Y299048D01*
X303333Y299135D01*
Y299676D01*
X303543Y299763D01*
X304078Y300298D01*
X304367Y300996D01*
Y301752D01*
X304078Y302450D01*
X303543Y302985D01*
X302845Y303274D01*
D02*
G37*
G36*
X245260Y294813D02*
X244504D01*
X243806Y294524D01*
X243271Y293990D01*
X242982Y293291D01*
Y292535D01*
X243271Y291837D01*
X243806Y291303D01*
X244504Y291013D01*
X245260D01*
X245958Y291303D01*
X246493Y291837D01*
X246782Y292535D01*
Y293291D01*
X246493Y293990D01*
X245958Y294524D01*
X245260Y294813D01*
D02*
G37*
G36*
X334039Y294223D02*
X333283D01*
X332585Y293934D01*
X332051Y293399D01*
X331761Y292701D01*
Y291945D01*
X332051Y291247D01*
X332585Y290712D01*
X333283Y290423D01*
X334039D01*
X334738Y290712D01*
X335272Y291247D01*
X335561Y291945D01*
Y292701D01*
X335272Y293399D01*
X334738Y293934D01*
X334039Y294223D01*
D02*
G37*
G36*
X259827Y291148D02*
X259071D01*
X258373Y290859D01*
X257838Y290325D01*
X257751Y290114D01*
X257210D01*
X257123Y290325D01*
X256588Y290859D01*
X255890Y291148D01*
X255134D01*
X254436Y290859D01*
X253901Y290325D01*
X253612Y289626D01*
Y288871D01*
X253901Y288172D01*
X254436Y287638D01*
X255134Y287348D01*
X255890D01*
X256588Y287638D01*
X257123Y288172D01*
X257210Y288383D01*
X257751D01*
X257838Y288172D01*
X258373Y287638D01*
X259071Y287348D01*
X259827D01*
X260525Y287638D01*
X261060Y288172D01*
X261349Y288871D01*
Y289626D01*
X261060Y290325D01*
X260525Y290859D01*
X259827Y291148D01*
D02*
G37*
G36*
X347232Y287764D02*
X346476D01*
X345778Y287475D01*
X345399Y287095D01*
X345083Y286993D01*
X344766Y287095D01*
X344387Y287475D01*
X343689Y287764D01*
X342933D01*
X342235Y287475D01*
X341700Y286940D01*
X341411Y286242D01*
Y285486D01*
X341700Y284788D01*
X342235Y284253D01*
X342933Y283964D01*
X343689D01*
X344387Y284253D01*
X344766Y284632D01*
X345083Y284735D01*
X345399Y284632D01*
X345778Y284253D01*
X346476Y283964D01*
X347232D01*
X347931Y284253D01*
X348465Y284788D01*
X348754Y285486D01*
Y286242D01*
X348465Y286940D01*
X347931Y287475D01*
X347232Y287764D01*
D02*
G37*
G36*
X241717Y289737D02*
X240961D01*
X240262Y289447D01*
X239728Y288913D01*
X239439Y288214D01*
Y287459D01*
X239728Y286760D01*
X240262Y286226D01*
X240961Y285936D01*
X241717D01*
X242415Y286226D01*
X242782Y286593D01*
X243139Y286685D01*
X243414Y286576D01*
X243806Y286185D01*
X244504Y285895D01*
X245260D01*
X245958Y286185D01*
X246493Y286719D01*
X246782Y287417D01*
Y288173D01*
X246493Y288872D01*
X245958Y289406D01*
X245260Y289695D01*
X244504D01*
X243806Y289406D01*
X243438Y289039D01*
X243081Y288947D01*
X242806Y289056D01*
X242415Y289447D01*
X241717Y289737D01*
D02*
G37*
G36*
X328921Y289105D02*
X328165D01*
X327467Y288815D01*
X326933Y288281D01*
X326643Y287583D01*
Y286827D01*
X326933Y286128D01*
X327467Y285594D01*
X328165Y285305D01*
X328921D01*
X329620Y285594D01*
X330154Y286128D01*
X330443Y286827D01*
Y287583D01*
X330154Y288281D01*
X329620Y288815D01*
X328921Y289105D01*
D02*
G37*
G36*
X306509Y290089D02*
X305753D01*
X305054Y289800D01*
X304520Y289265D01*
X304231Y288567D01*
Y287811D01*
X304520Y287113D01*
X304899Y286733D01*
X305002Y286417D01*
X304899Y286101D01*
X304520Y285722D01*
X304231Y285024D01*
Y284268D01*
X304520Y283569D01*
X305054Y283035D01*
X305753Y282746D01*
X306509D01*
X307207Y283035D01*
X307741Y283569D01*
X308031Y284268D01*
Y285024D01*
X307741Y285722D01*
X307362Y286101D01*
X307259Y286417D01*
X307362Y286733D01*
X307741Y287113D01*
X308031Y287811D01*
Y288567D01*
X307741Y289265D01*
X307207Y289800D01*
X306509Y290089D01*
D02*
G37*
G36*
X283815Y286546D02*
X283059D01*
X282361Y286256D01*
X281826Y285722D01*
X281537Y285024D01*
Y284268D01*
X281826Y283569D01*
X282361Y283035D01*
X283059Y282746D01*
X283815D01*
X284513Y283035D01*
X285048Y283569D01*
X285337Y284268D01*
Y285024D01*
X285048Y285722D01*
X284513Y286256D01*
X283815Y286546D01*
D02*
G37*
G36*
X277910D02*
X277154D01*
X276455Y286256D01*
X275921Y285722D01*
X275632Y285024D01*
Y284268D01*
X275921Y283569D01*
X276455Y283035D01*
X277154Y282746D01*
X277910D01*
X278608Y283035D01*
X279142Y283569D01*
X279432Y284268D01*
Y285024D01*
X279142Y285722D01*
X278608Y286256D01*
X277910Y286546D01*
D02*
G37*
G36*
X272004D02*
X271248D01*
X270550Y286256D01*
X270015Y285722D01*
X269726Y285024D01*
Y284268D01*
X270015Y283569D01*
X270550Y283035D01*
X271248Y282746D01*
X272004D01*
X272702Y283035D01*
X273237Y283569D01*
X273526Y284268D01*
Y285024D01*
X273237Y285722D01*
X272702Y286256D01*
X272004Y286546D01*
D02*
G37*
G36*
X337189Y285365D02*
X336433D01*
X335735Y285075D01*
X335200Y284541D01*
X334911Y283842D01*
Y283087D01*
X335200Y282388D01*
X335735Y281854D01*
X336433Y281565D01*
X337189D01*
X337887Y281854D01*
X338422Y282388D01*
X338711Y283087D01*
Y283842D01*
X338422Y284541D01*
X337887Y285075D01*
X337189Y285365D01*
D02*
G37*
G36*
X233646Y282215D02*
X232890D01*
X232191Y281926D01*
X231657Y281391D01*
X231368Y280693D01*
Y279937D01*
X231657Y279239D01*
X231927Y278968D01*
X232149Y278642D01*
X231927Y278315D01*
X231698Y278085D01*
X231436Y278162D01*
X231231Y278272D01*
Y278921D01*
X230941Y279620D01*
X230407Y280154D01*
X229709Y280443D01*
X228953D01*
X228254Y280154D01*
X227720Y279620D01*
X227633Y279409D01*
X227092D01*
X227004Y279620D01*
X226470Y280154D01*
X225772Y280443D01*
X225016D01*
X224317Y280154D01*
X223783Y279620D01*
X223494Y278921D01*
Y278165D01*
X223783Y277467D01*
X224317Y276933D01*
X225016Y276643D01*
X225772D01*
X226470Y276933D01*
X227004Y277467D01*
X227092Y277677D01*
X227633D01*
X227720Y277467D01*
X228254Y276933D01*
X228953Y276643D01*
X229709D01*
X230407Y276933D01*
X230901Y277427D01*
X231162Y277350D01*
X231368Y277240D01*
Y276591D01*
X231657Y275892D01*
X232191Y275358D01*
X232890Y275068D01*
X233646D01*
X234344Y275358D01*
X234878Y275892D01*
X235168Y276591D01*
Y277346D01*
X234878Y278045D01*
X234608Y278315D01*
X234386Y278642D01*
X234608Y278968D01*
X234878Y279239D01*
X235168Y279937D01*
Y280693D01*
X234878Y281391D01*
X234344Y281926D01*
X233646Y282215D01*
D02*
G37*
G36*
X216717Y281624D02*
X215961D01*
X215262Y281335D01*
X214728Y280801D01*
X214439Y280102D01*
Y279346D01*
X214728Y278648D01*
X215262Y278114D01*
X215961Y277824D01*
X216717D01*
X217415Y278114D01*
X217949Y278648D01*
X218239Y279346D01*
Y280102D01*
X217949Y280801D01*
X217415Y281335D01*
X216717Y281624D01*
D02*
G37*
G36*
X283815Y280640D02*
X283059D01*
X282361Y280351D01*
X281826Y279816D01*
X281537Y279118D01*
Y278362D01*
X281826Y277664D01*
X282361Y277129D01*
X283059Y276840D01*
X283815D01*
X284513Y277129D01*
X285048Y277664D01*
X285337Y278362D01*
Y279118D01*
X285048Y279816D01*
X284513Y280351D01*
X283815Y280640D01*
D02*
G37*
G36*
X277910D02*
X277154D01*
X276455Y280351D01*
X275921Y279816D01*
X275632Y279118D01*
Y278362D01*
X275921Y277664D01*
X276455Y277129D01*
X277154Y276840D01*
X277910D01*
X278608Y277129D01*
X279142Y277664D01*
X279432Y278362D01*
Y279118D01*
X279142Y279816D01*
X278608Y280351D01*
X277910Y280640D01*
D02*
G37*
G36*
X272004D02*
X271248D01*
X270550Y280351D01*
X270015Y279816D01*
X269726Y279118D01*
Y278362D01*
X270015Y277664D01*
X270550Y277129D01*
X271248Y276840D01*
X272004D01*
X272702Y277129D01*
X273237Y277664D01*
X273526Y278362D01*
Y279118D01*
X273237Y279816D01*
X272702Y280351D01*
X272004Y280640D01*
D02*
G37*
G36*
X308914Y280513D02*
X308158D01*
X307459Y280223D01*
X306925Y279689D01*
X306636Y278991D01*
Y278235D01*
X306925Y277536D01*
X307459Y277002D01*
X308158Y276713D01*
X308914D01*
X309612Y277002D01*
X310146Y277536D01*
X310436Y278235D01*
Y278991D01*
X310146Y279689D01*
X309612Y280223D01*
X308914Y280513D01*
D02*
G37*
G36*
X294107Y283002D02*
X293351D01*
X292653Y282713D01*
X292118Y282179D01*
X291829Y281480D01*
Y280724D01*
X292118Y280026D01*
X292389Y279756D01*
X292611Y279429D01*
X292389Y279102D01*
X292118Y278832D01*
X291829Y278134D01*
Y277378D01*
X292118Y276680D01*
X292653Y276145D01*
X293351Y275856D01*
X294107D01*
X294805Y276145D01*
X295340Y276680D01*
X295629Y277378D01*
Y278134D01*
X295340Y278832D01*
X295070Y279102D01*
X294848Y279429D01*
X295070Y279756D01*
X295340Y280026D01*
X295629Y280724D01*
Y281480D01*
X295340Y282179D01*
X294805Y282713D01*
X294107Y283002D01*
D02*
G37*
G36*
X261430Y279656D02*
X260674D01*
X259976Y279367D01*
X259441Y278832D01*
X259152Y278134D01*
Y277378D01*
X259441Y276680D01*
X259976Y276145D01*
X260674Y275856D01*
X261430D01*
X262128Y276145D01*
X262663Y276680D01*
X262952Y277378D01*
Y278134D01*
X262663Y278832D01*
X262128Y279367D01*
X261430Y279656D01*
D02*
G37*
G36*
X328921Y279065D02*
X328165D01*
X327467Y278776D01*
X326933Y278242D01*
X326643Y277543D01*
Y276787D01*
X326933Y276089D01*
X327467Y275555D01*
X328165Y275265D01*
X328921D01*
X329620Y275555D01*
X330154Y276089D01*
X330443Y276787D01*
Y277543D01*
X330154Y278242D01*
X329620Y278776D01*
X328921Y279065D01*
D02*
G37*
G36*
X350772Y278672D02*
X350016D01*
X349317Y278382D01*
X348783Y277848D01*
X348494Y277150D01*
Y276394D01*
X348783Y275695D01*
X349317Y275161D01*
X350016Y274872D01*
X350772D01*
X351470Y275161D01*
X352004Y275695D01*
X352294Y276394D01*
Y277150D01*
X352004Y277848D01*
X351470Y278382D01*
X350772Y278672D01*
D02*
G37*
G36*
X302845Y282605D02*
X302089D01*
X301391Y282315D01*
X300856Y281781D01*
X300567Y281083D01*
Y280327D01*
X300856Y279628D01*
X301391Y279094D01*
X301601Y279007D01*
Y278466D01*
X301391Y278379D01*
X300856Y277844D01*
X300567Y277146D01*
Y276390D01*
X300856Y275692D01*
X301391Y275157D01*
X302089Y274868D01*
X302845D01*
X303543Y275157D01*
X304078Y275692D01*
X304367Y276390D01*
Y277146D01*
X304078Y277844D01*
X303543Y278379D01*
X303333Y278466D01*
Y279007D01*
X303543Y279094D01*
X304078Y279628D01*
X304367Y280327D01*
Y281083D01*
X304078Y281781D01*
X303543Y282315D01*
X302845Y282605D01*
D02*
G37*
G36*
X248085Y280246D02*
X247329D01*
X246631Y279957D01*
X246096Y279423D01*
X245807Y278724D01*
Y277969D01*
X246096Y277270D01*
X246631Y276736D01*
X247329Y276447D01*
X247954D01*
X248330Y276048D01*
X248297Y275969D01*
Y275213D01*
X248586Y274514D01*
X249121Y273980D01*
X249819Y273691D01*
X250575D01*
X251273Y273980D01*
X251808Y274514D01*
X252097Y275213D01*
Y275674D01*
X252206Y275751D01*
X252795Y275604D01*
X252824Y275575D01*
Y275213D01*
X253114Y274514D01*
X253648Y273980D01*
X254346Y273691D01*
X255102D01*
X255801Y273980D01*
X256335Y274514D01*
X256624Y275213D01*
Y275969D01*
X256335Y276667D01*
X255801Y277201D01*
X255102Y277490D01*
X254603D01*
X254324Y277541D01*
X254140Y277946D01*
Y278331D01*
X253851Y279029D01*
X253317Y279563D01*
X252619Y279853D01*
X251863D01*
X251164Y279563D01*
X250630Y279029D01*
X250341Y278331D01*
Y277763D01*
X249992Y277654D01*
X249851Y277769D01*
X249607Y278008D01*
Y278724D01*
X249318Y279423D01*
X248783Y279957D01*
X248085Y280246D01*
D02*
G37*
G36*
X242138Y277463D02*
X241382D01*
X240684Y277173D01*
X240149Y276639D01*
X239860Y275940D01*
Y275185D01*
X240149Y274486D01*
X240684Y273952D01*
X241382Y273663D01*
X242138D01*
X242836Y273952D01*
X243371Y274486D01*
X243660Y275185D01*
Y275940D01*
X243371Y276639D01*
X242836Y277173D01*
X242138Y277463D01*
D02*
G37*
G36*
X342504Y276113D02*
X341748D01*
X341050Y275823D01*
X340515Y275289D01*
X340226Y274590D01*
Y273835D01*
X340515Y273136D01*
X341050Y272602D01*
X341748Y272313D01*
X342504D01*
X343202Y272602D01*
X343737Y273136D01*
X344026Y273835D01*
Y274590D01*
X343737Y275289D01*
X343202Y275823D01*
X342504Y276113D01*
D02*
G37*
G36*
X321441Y274932D02*
X320685D01*
X319987Y274642D01*
X319452Y274108D01*
X319163Y273409D01*
Y272654D01*
X319452Y271955D01*
X319987Y271421D01*
X320685Y271131D01*
X321441D01*
X322139Y271421D01*
X322674Y271955D01*
X322963Y272654D01*
Y273409D01*
X322674Y274108D01*
X322139Y274642D01*
X321441Y274932D01*
D02*
G37*
G36*
X283815Y274735D02*
X283059D01*
X282361Y274445D01*
X281826Y273911D01*
X281537Y273213D01*
Y272457D01*
X281826Y271758D01*
X282361Y271224D01*
X283059Y270935D01*
X283815D01*
X284513Y271224D01*
X285048Y271758D01*
X285337Y272457D01*
Y273213D01*
X285048Y273911D01*
X284513Y274445D01*
X283815Y274735D01*
D02*
G37*
G36*
X277910D02*
X277154D01*
X276455Y274445D01*
X275921Y273911D01*
X275632Y273213D01*
Y272457D01*
X275921Y271758D01*
X276455Y271224D01*
X277154Y270935D01*
X277910D01*
X278608Y271224D01*
X279142Y271758D01*
X279432Y272457D01*
Y273213D01*
X279142Y273911D01*
X278608Y274445D01*
X277910Y274735D01*
D02*
G37*
G36*
X272004D02*
X271248D01*
X270550Y274445D01*
X270015Y273911D01*
X269726Y273213D01*
Y272457D01*
X270015Y271758D01*
X270550Y271224D01*
X271248Y270935D01*
X272004D01*
X272702Y271224D01*
X273237Y271758D01*
X273526Y272457D01*
Y273213D01*
X273237Y273911D01*
X272702Y274445D01*
X272004Y274735D01*
D02*
G37*
G36*
X222136Y273742D02*
X221381D01*
X220682Y273452D01*
X220148Y272918D01*
X219859Y272220D01*
Y271464D01*
X220148Y270765D01*
X220682Y270231D01*
X221381Y269942D01*
X222136D01*
X222835Y270231D01*
X223165Y270561D01*
X223600Y270636D01*
X223788Y270531D01*
X224205Y270114D01*
X224903Y269825D01*
X225659D01*
X226357Y270114D01*
X226892Y270649D01*
X227181Y271347D01*
Y272103D01*
X226892Y272801D01*
X226357Y273336D01*
X225659Y273625D01*
X224903D01*
X224205Y273336D01*
X223874Y273005D01*
X223440Y272930D01*
X223252Y273036D01*
X222835Y273452D01*
X222136Y273742D01*
D02*
G37*
G36*
X310976Y270994D02*
X310220D01*
X309522Y270705D01*
X308987Y270171D01*
X308698Y269472D01*
Y268717D01*
X308987Y268018D01*
X309522Y267484D01*
X310220Y267195D01*
X310976D01*
X311674Y267484D01*
X312209Y268018D01*
X312498Y268717D01*
Y269472D01*
X312209Y270171D01*
X311674Y270705D01*
X310976Y270994D01*
D02*
G37*
G36*
X218883Y270785D02*
X218127D01*
X217429Y270496D01*
X216895Y269962D01*
X216605Y269263D01*
Y268507D01*
X216895Y267809D01*
X217429Y267274D01*
X218127Y266985D01*
X218883D01*
X219582Y267274D01*
X220116Y267809D01*
X220405Y268507D01*
Y269263D01*
X220116Y269962D01*
X219582Y270496D01*
X218883Y270785D01*
D02*
G37*
G36*
X236992Y269026D02*
X236236D01*
X235538Y268737D01*
X235003Y268202D01*
X234714Y267504D01*
Y266748D01*
X235003Y266050D01*
X235538Y265515D01*
X236236Y265226D01*
X236992D01*
X237690Y265515D01*
X238225Y266050D01*
X238514Y266748D01*
Y267504D01*
X238225Y268202D01*
X237690Y268737D01*
X236992Y269026D01*
D02*
G37*
G36*
X341126Y269617D02*
X340370D01*
X339672Y269327D01*
X339137Y268793D01*
X338848Y268094D01*
Y267339D01*
X339137Y266640D01*
X339672Y266106D01*
X340370Y265816D01*
X341126D01*
X341824Y266106D01*
X342359Y266640D01*
X342540Y267078D01*
X342852Y267084D01*
X343060Y267028D01*
X343325Y266390D01*
X343859Y265855D01*
X343978Y265806D01*
Y265265D01*
X343806Y265193D01*
X343271Y264659D01*
X342982Y263961D01*
Y263205D01*
X343271Y262506D01*
X343806Y261972D01*
X344504Y261683D01*
X345260D01*
X345958Y261972D01*
X346493Y262506D01*
X346782Y263205D01*
Y263961D01*
X346493Y264659D01*
X345958Y265193D01*
X345840Y265243D01*
Y265784D01*
X346012Y265855D01*
X346546Y266390D01*
X346836Y267088D01*
Y267844D01*
X346546Y268542D01*
X346012Y269077D01*
X345314Y269366D01*
X344558D01*
X343859Y269077D01*
X343325Y268542D01*
X343144Y268105D01*
X342832Y268098D01*
X342623Y268155D01*
X342359Y268793D01*
X341824Y269327D01*
X341126Y269617D01*
D02*
G37*
G36*
X350772Y265089D02*
X350016D01*
X349317Y264800D01*
X348783Y264265D01*
X348494Y263567D01*
Y262811D01*
X348783Y262113D01*
X349317Y261578D01*
X350016Y261289D01*
X350772D01*
X351470Y261578D01*
X352004Y262113D01*
X352294Y262811D01*
Y263567D01*
X352004Y264265D01*
X351470Y264800D01*
X350772Y265089D01*
D02*
G37*
G36*
X311598Y262727D02*
X310842D01*
X310144Y262438D01*
X309610Y261903D01*
X309320Y261205D01*
Y260449D01*
X309610Y259751D01*
X310144Y259216D01*
X310842Y258927D01*
X311598D01*
X312297Y259216D01*
X312831Y259751D01*
X313121Y260449D01*
Y261205D01*
X312831Y261903D01*
X312297Y262438D01*
X311598Y262727D01*
D02*
G37*
G36*
X19086Y268126D02*
X17725D01*
X16391Y267861D01*
X15134Y267340D01*
X14004Y266584D01*
X13042Y265622D01*
X12286Y264491D01*
X11765Y263235D01*
X11500Y261901D01*
Y260540D01*
X11765Y259206D01*
X12286Y257949D01*
X13042Y256818D01*
X14004Y255857D01*
X15134Y255101D01*
X16391Y254580D01*
X17725Y254315D01*
X19086D01*
X20420Y254580D01*
X21676Y255101D01*
X22807Y255857D01*
X23769Y256818D01*
X24525Y257949D01*
X25046Y259206D01*
X25311Y260540D01*
Y261901D01*
X25046Y263235D01*
X24525Y264491D01*
X23769Y265622D01*
X22807Y266584D01*
X21676Y267340D01*
X20420Y267861D01*
X19086Y268126D01*
D02*
G37*
G36*
X236598Y247963D02*
X235842D01*
X235144Y247674D01*
X234610Y247139D01*
X234320Y246441D01*
Y245685D01*
X234610Y244987D01*
X235144Y244452D01*
X235842Y244163D01*
X236598D01*
X237297Y244452D01*
X237831Y244987D01*
X238121Y245685D01*
Y246441D01*
X237831Y247139D01*
X237297Y247674D01*
X236598Y247963D01*
D02*
G37*
G36*
X338478Y255018D02*
X336461D01*
X334470Y254703D01*
X332552Y254080D01*
X330755Y253164D01*
X329124Y251979D01*
X327698Y250553D01*
X326513Y248922D01*
X325597Y247125D01*
X324974Y245207D01*
X324659Y243215D01*
Y241199D01*
X324974Y239207D01*
X325597Y237290D01*
X326513Y235493D01*
X327698Y233861D01*
X329124Y232436D01*
X330755Y231250D01*
X332552Y230335D01*
X334470Y229712D01*
X336461Y229396D01*
X338478D01*
X340470Y229712D01*
X342388Y230335D01*
X344184Y231250D01*
X345816Y232436D01*
X347241Y233861D01*
X348427Y235493D01*
X349342Y237290D01*
X349965Y239207D01*
X350281Y241199D01*
Y243215D01*
X349965Y245207D01*
X349342Y247125D01*
X348427Y248922D01*
X347241Y250553D01*
X345816Y251979D01*
X344184Y253164D01*
X342388Y254080D01*
X340470Y254703D01*
X338478Y255018D01*
D02*
G37*
G36*
X226756Y228278D02*
X226000D01*
X225302Y227989D01*
X224767Y227454D01*
X224478Y226756D01*
Y226000D01*
X224767Y225302D01*
X225302Y224767D01*
X226000Y224478D01*
X226756D01*
X227454Y224767D01*
X227989Y225302D01*
X228278Y226000D01*
Y226756D01*
X227989Y227454D01*
X227454Y227989D01*
X226756Y228278D01*
D02*
G37*
G36*
X19086Y238205D02*
X17725D01*
X16391Y237939D01*
X15134Y237419D01*
X14004Y236663D01*
X13042Y235701D01*
X12286Y234570D01*
X11765Y233313D01*
X11500Y231979D01*
Y230619D01*
X11765Y229285D01*
X12286Y228028D01*
X13042Y226897D01*
X14004Y225935D01*
X15134Y225180D01*
X16391Y224659D01*
X17725Y224394D01*
X19086D01*
X20420Y224659D01*
X21676Y225180D01*
X22807Y225935D01*
X23769Y226897D01*
X24525Y228028D01*
X25046Y229285D01*
X25311Y230619D01*
Y231979D01*
X25046Y233313D01*
X24525Y234570D01*
X23769Y235701D01*
X22807Y236663D01*
X21676Y237419D01*
X20420Y237939D01*
X19086Y238205D01*
D02*
G37*
G36*
X338579Y218502D02*
X337539D01*
X336533Y218233D01*
X335632Y217713D01*
X334896Y216977D01*
X334376Y216075D01*
X334106Y215070D01*
Y214029D01*
X334376Y213024D01*
X334896Y212123D01*
X335632Y211387D01*
X336533Y210866D01*
X337539Y210597D01*
X338579D01*
X339585Y210866D01*
X340486Y211387D01*
X341222Y212123D01*
X341742Y213024D01*
X342012Y214029D01*
Y215070D01*
X341742Y216075D01*
X341222Y216977D01*
X340486Y217713D01*
X339585Y218233D01*
X338579Y218502D01*
D02*
G37*
G36*
X212595D02*
X211554D01*
X210549Y218233D01*
X209648Y217713D01*
X208912Y216977D01*
X208391Y216075D01*
X208122Y215070D01*
Y214029D01*
X208391Y213024D01*
X208912Y212123D01*
X209648Y211387D01*
X210549Y210866D01*
X211554Y210597D01*
X212595D01*
X213600Y210866D01*
X214502Y211387D01*
X215238Y212123D01*
X215758Y213024D01*
X216027Y214029D01*
Y215070D01*
X215758Y216075D01*
X215238Y216977D01*
X214502Y217713D01*
X213600Y218233D01*
X212595Y218502D01*
D02*
G37*
G36*
X233985Y218323D02*
X232944D01*
X231939Y218054D01*
X231037Y217533D01*
X230302Y216797D01*
X229781Y215896D01*
X229512Y214891D01*
Y213850D01*
X229781Y212844D01*
X230302Y211943D01*
X231037Y211207D01*
X231939Y210687D01*
X232944Y210417D01*
X233985D01*
X234990Y210687D01*
X235892Y211207D01*
X236628Y211943D01*
X237148Y212844D01*
X237417Y213850D01*
Y214891D01*
X237148Y215896D01*
X236628Y216797D01*
X235892Y217533D01*
X234990Y218054D01*
X233985Y218323D01*
D02*
G37*
G36*
X330705Y212695D02*
X329665D01*
X328659Y212426D01*
X327758Y211906D01*
X327022Y211170D01*
X326502Y210268D01*
X326232Y209263D01*
Y208222D01*
X326502Y207217D01*
X327022Y206316D01*
X327758Y205580D01*
X328659Y205059D01*
X329665Y204790D01*
X330705D01*
X331711Y205059D01*
X332612Y205580D01*
X333348Y206316D01*
X333868Y207217D01*
X334138Y208222D01*
Y209263D01*
X333868Y210268D01*
X333348Y211170D01*
X332612Y211906D01*
X331711Y212426D01*
X330705Y212695D01*
D02*
G37*
G36*
X204721D02*
X203680D01*
X202675Y212426D01*
X201774Y211906D01*
X201038Y211170D01*
X200517Y210268D01*
X200248Y209263D01*
Y208222D01*
X200517Y207217D01*
X201038Y206316D01*
X201774Y205580D01*
X202675Y205059D01*
X203680Y204790D01*
X204721D01*
X205727Y205059D01*
X206628Y205580D01*
X207364Y206316D01*
X207884Y207217D01*
X208154Y208222D01*
Y209263D01*
X207884Y210268D01*
X207364Y211170D01*
X206628Y211906D01*
X205727Y212426D01*
X204721Y212695D01*
D02*
G37*
G36*
X345850Y205837D02*
X345094D01*
X344396Y205548D01*
X343862Y205013D01*
X343572Y204315D01*
Y203559D01*
X343862Y202861D01*
X344396Y202326D01*
X345094Y202037D01*
X345850D01*
X346549Y202326D01*
X347083Y202861D01*
X347372Y203559D01*
Y204315D01*
X347083Y205013D01*
X346549Y205548D01*
X345850Y205837D01*
D02*
G37*
G36*
X233985Y208323D02*
X232944D01*
X231939Y208053D01*
X231037Y207533D01*
X230302Y206797D01*
X229781Y205896D01*
X229512Y204890D01*
Y203850D01*
X229781Y202844D01*
X230302Y201943D01*
X231037Y201207D01*
X231939Y200687D01*
X232944Y200417D01*
X233985D01*
X234990Y200687D01*
X235892Y201207D01*
X236628Y201943D01*
X237148Y202844D01*
X237417Y203850D01*
Y204890D01*
X237148Y205896D01*
X236628Y206797D01*
X235892Y207533D01*
X234990Y208053D01*
X233985Y208323D01*
D02*
G37*
G36*
X349590Y201970D02*
X348835D01*
X348136Y201681D01*
X347602Y201146D01*
X347313Y200448D01*
Y199692D01*
X347602Y198994D01*
X348136Y198459D01*
X348835Y198170D01*
X349590D01*
X350289Y198459D01*
X350823Y198994D01*
X351113Y199692D01*
Y200448D01*
X350823Y201146D01*
X350289Y201681D01*
X349590Y201970D01*
D02*
G37*
G36*
X336992Y203672D02*
X336236D01*
X335538Y203382D01*
X335003Y202848D01*
X334714Y202150D01*
Y201703D01*
X334268D01*
X333569Y201414D01*
X333035Y200879D01*
X332746Y200181D01*
Y199425D01*
X333035Y198727D01*
X333569Y198192D01*
X334268Y197903D01*
X334714D01*
Y197457D01*
X335003Y196758D01*
X335538Y196224D01*
X336236Y195935D01*
X336992D01*
X337690Y196224D01*
X338225Y196758D01*
X338514Y197457D01*
Y198213D01*
X338225Y198911D01*
X337690Y199445D01*
X337480Y199532D01*
Y200074D01*
X337690Y200161D01*
X338225Y200695D01*
X338514Y201394D01*
Y202150D01*
X338225Y202848D01*
X337690Y203382D01*
X336992Y203672D01*
D02*
G37*
G36*
X331024Y195960D02*
X330268D01*
X329569Y195671D01*
X329035Y195136D01*
X328944Y194917D01*
X286772D01*
X286770Y194917D01*
X286769Y194917D01*
X286575Y194878D01*
X286382Y194840D01*
X286381Y194839D01*
X286379Y194838D01*
X286216Y194729D01*
X286051Y194619D01*
X286050Y194617D01*
X286049Y194616D01*
X285696Y194262D01*
X285696Y194261D01*
X285694Y194260D01*
X285585Y194095D01*
X285476Y193930D01*
X285476Y193929D01*
X285475Y193928D01*
X285438Y193735D01*
X285400Y193540D01*
X285400Y193538D01*
X285400Y193537D01*
X285595Y161411D01*
X285634Y161219D01*
X285672Y161027D01*
X285674Y161024D01*
X285675Y161021D01*
X285785Y160859D01*
X285893Y160696D01*
X285896Y160695D01*
X285898Y160692D01*
X286061Y160584D01*
X286224Y160475D01*
X286227Y160475D01*
X286230Y160473D01*
X286422Y160436D01*
X286614Y160398D01*
X320389D01*
X320597Y159898D01*
X320240Y159541D01*
X319950Y158843D01*
Y158087D01*
X320240Y157388D01*
X320774Y156854D01*
X321473Y156565D01*
X322228D01*
X322927Y156854D01*
X323461Y157388D01*
X323750Y158087D01*
Y158843D01*
X323461Y159541D01*
X323104Y159898D01*
X323311Y160398D01*
X334956D01*
X335163Y159898D01*
X334807Y159541D01*
X334517Y158843D01*
Y158087D01*
X334807Y157388D01*
X335341Y156854D01*
X336039Y156565D01*
X336795D01*
X337494Y156854D01*
X338028Y157388D01*
X338317Y158087D01*
Y158843D01*
X338028Y159541D01*
X337671Y159898D01*
X337878Y160398D01*
X340354D01*
X340744Y160475D01*
X341075Y160696D01*
X341296Y161027D01*
X341374Y161417D01*
Y193898D01*
X341296Y194288D01*
X341075Y194619D01*
X340744Y194840D01*
X340354Y194917D01*
X332347D01*
X332256Y195136D01*
X331722Y195671D01*
X331024Y195960D01*
D02*
G37*
G36*
X196244Y195798D02*
X195488D01*
X194790Y195508D01*
X194255Y194974D01*
X193966Y194276D01*
Y193520D01*
X194255Y192821D01*
X194790Y192287D01*
X195488Y191998D01*
X196244D01*
X196942Y192287D01*
X197477Y192821D01*
X197766Y193520D01*
Y194276D01*
X197477Y194974D01*
X196942Y195508D01*
X196244Y195798D01*
D02*
G37*
G36*
X233985Y198323D02*
X232944D01*
X231939Y198054D01*
X231037Y197533D01*
X230302Y196797D01*
X229781Y195896D01*
X229512Y194890D01*
Y193850D01*
X229781Y192844D01*
X230302Y191943D01*
X231037Y191207D01*
X231939Y190687D01*
X232944Y190417D01*
X233985D01*
X234990Y190687D01*
X235892Y191207D01*
X236628Y191943D01*
X237148Y192844D01*
X237417Y193850D01*
Y194890D01*
X237148Y195896D01*
X236628Y196797D01*
X235892Y197533D01*
X234990Y198054D01*
X233985Y198323D01*
D02*
G37*
G36*
X256283Y188908D02*
X255528D01*
X254829Y188619D01*
X254295Y188084D01*
X254006Y187386D01*
Y186630D01*
X254295Y185932D01*
X254829Y185397D01*
X255528Y185108D01*
X256283D01*
X256982Y185397D01*
X257516Y185932D01*
X257805Y186630D01*
Y187386D01*
X257516Y188084D01*
X256982Y188619D01*
X256283Y188908D01*
D02*
G37*
G36*
X210811Y185955D02*
X210055D01*
X209357Y185666D01*
X208822Y185131D01*
X208533Y184433D01*
Y183677D01*
X208822Y182979D01*
X209357Y182444D01*
X210055Y182155D01*
X210811D01*
X211509Y182444D01*
X212044Y182979D01*
X212333Y183677D01*
Y184433D01*
X212044Y185131D01*
X211509Y185666D01*
X210811Y185955D01*
D02*
G37*
G36*
X196244D02*
X195488D01*
X194790Y185666D01*
X194255Y185131D01*
X193966Y184433D01*
Y183677D01*
X194255Y182979D01*
X194790Y182444D01*
X195488Y182155D01*
X196244D01*
X196942Y182444D01*
X197477Y182979D01*
X197766Y183677D01*
Y184433D01*
X197477Y185131D01*
X196942Y185666D01*
X196244Y185955D01*
D02*
G37*
G36*
X233985Y188323D02*
X232944D01*
X231939Y188054D01*
X231037Y187533D01*
X230302Y186797D01*
X229781Y185896D01*
X229512Y184890D01*
Y183850D01*
X229781Y182844D01*
X230302Y181943D01*
X231037Y181207D01*
X231939Y180687D01*
X232944Y180417D01*
X233985D01*
X234990Y180687D01*
X235892Y181207D01*
X236628Y181943D01*
X237148Y182844D01*
X237417Y183850D01*
Y184890D01*
X237148Y185896D01*
X236628Y186797D01*
X235892Y187533D01*
X234990Y188054D01*
X233985Y188323D01*
D02*
G37*
G36*
X266126Y179065D02*
X265370D01*
X264672Y178776D01*
X264137Y178242D01*
X263848Y177543D01*
Y176787D01*
X264137Y176089D01*
X264672Y175555D01*
X265370Y175265D01*
X266126D01*
X266824Y175555D01*
X267359Y176089D01*
X267648Y176787D01*
Y177543D01*
X267359Y178242D01*
X266824Y178776D01*
X266126Y179065D01*
D02*
G37*
G36*
X196244Y176113D02*
X195488D01*
X194790Y175823D01*
X194255Y175289D01*
X193966Y174591D01*
Y173835D01*
X194255Y173136D01*
X194790Y172602D01*
X195488Y172313D01*
X196244D01*
X196942Y172602D01*
X197477Y173136D01*
X197766Y173835D01*
Y174591D01*
X197477Y175289D01*
X196942Y175823D01*
X196244Y176113D01*
D02*
G37*
G36*
X233985Y178323D02*
X232944D01*
X231939Y178053D01*
X231037Y177533D01*
X230302Y176797D01*
X229781Y175896D01*
X229512Y174890D01*
Y173850D01*
X229781Y172844D01*
X230302Y171943D01*
X231037Y171207D01*
X231939Y170687D01*
X232944Y170417D01*
X233985D01*
X234990Y170687D01*
X235892Y171207D01*
X236628Y171943D01*
X237148Y172844D01*
X237417Y173850D01*
Y174890D01*
X237148Y175896D01*
X236628Y176797D01*
X235892Y177533D01*
X234990Y178053D01*
X233985Y178323D01*
D02*
G37*
G36*
X19086Y182890D02*
X17725D01*
X16391Y182624D01*
X15134Y182104D01*
X14004Y181348D01*
X13042Y180386D01*
X12286Y179255D01*
X11765Y177998D01*
X11500Y176664D01*
Y175304D01*
X11765Y173970D01*
X12286Y172713D01*
X13042Y171582D01*
X14004Y170620D01*
X15134Y169865D01*
X16391Y169344D01*
X17725Y169079D01*
X19086D01*
X20420Y169344D01*
X21676Y169865D01*
X22807Y170620D01*
X23769Y171582D01*
X24525Y172713D01*
X25046Y173970D01*
X25311Y175304D01*
Y176664D01*
X25046Y177998D01*
X24525Y179255D01*
X23769Y180386D01*
X22807Y181348D01*
X21676Y182104D01*
X20420Y182624D01*
X19086Y182890D01*
D02*
G37*
G36*
X275969Y169223D02*
X275213D01*
X274514Y168934D01*
X273980Y168399D01*
X273691Y167701D01*
Y166945D01*
X273980Y166247D01*
X274514Y165712D01*
X275213Y165423D01*
X275969D01*
X276667Y165712D01*
X277201Y166247D01*
X277490Y166945D01*
Y167701D01*
X277201Y168399D01*
X276667Y168934D01*
X275969Y169223D01*
D02*
G37*
G36*
X234941Y168371D02*
X231988D01*
X231022Y168179D01*
X230203Y167632D01*
X229656Y166813D01*
X229463Y165847D01*
Y162894D01*
X229656Y161927D01*
X230203Y161108D01*
X231022Y160561D01*
X231988Y160369D01*
X234941D01*
X235907Y160561D01*
X236726Y161108D01*
X237274Y161927D01*
X237466Y162894D01*
Y165847D01*
X237274Y166813D01*
X236726Y167632D01*
X235907Y168179D01*
X234941Y168371D01*
D02*
G37*
G36*
X305496Y159380D02*
X304740D01*
X304042Y159091D01*
X303507Y158557D01*
X303218Y157858D01*
Y157102D01*
X303507Y156404D01*
X304042Y155870D01*
X304740Y155580D01*
X305496D01*
X306194Y155870D01*
X306729Y156404D01*
X307018Y157102D01*
Y157858D01*
X306729Y158557D01*
X306194Y159091D01*
X305496Y159380D01*
D02*
G37*
G36*
X285811D02*
X285055D01*
X284357Y159091D01*
X283822Y158557D01*
X283533Y157858D01*
Y157102D01*
X283822Y156404D01*
X284357Y155870D01*
X285055Y155580D01*
X285811D01*
X286509Y155870D01*
X287044Y156404D01*
X287333Y157102D01*
Y157858D01*
X287044Y158557D01*
X286509Y159091D01*
X285811Y159380D01*
D02*
G37*
G36*
X210909Y174242D02*
X210154D01*
X209455Y173953D01*
X208921Y173419D01*
X208631Y172721D01*
Y171965D01*
X208921Y171266D01*
X209455Y170732D01*
X209834Y170575D01*
Y170034D01*
X209554Y169918D01*
X209019Y169383D01*
X208730Y168685D01*
Y167929D01*
X209019Y167231D01*
X209554Y166696D01*
X209666Y166650D01*
Y166109D01*
X209357Y165981D01*
X208822Y165446D01*
X208533Y164748D01*
Y163992D01*
X208822Y163294D01*
X209357Y162759D01*
X209666Y162631D01*
Y162090D01*
X209554Y162044D01*
X209019Y161509D01*
X208730Y160811D01*
Y160055D01*
X209019Y159357D01*
X209554Y158822D01*
X209764Y158735D01*
Y158194D01*
X209554Y158107D01*
X209019Y157572D01*
X208730Y156874D01*
Y156118D01*
X209019Y155420D01*
X209554Y154885D01*
X210252Y154596D01*
X211008D01*
X211706Y154885D01*
X212241Y155420D01*
X212530Y156118D01*
Y156874D01*
X212241Y157572D01*
X211706Y158107D01*
X211496Y158194D01*
Y158735D01*
X211706Y158822D01*
X212241Y159357D01*
X212530Y160055D01*
Y160811D01*
X212241Y161509D01*
X211706Y162044D01*
X211397Y162172D01*
Y162713D01*
X211509Y162759D01*
X212044Y163294D01*
X212333Y163992D01*
Y164748D01*
X212044Y165446D01*
X211509Y165981D01*
X211397Y166027D01*
Y166568D01*
X211706Y166696D01*
X212241Y167231D01*
X212530Y167929D01*
Y168685D01*
X212241Y169383D01*
X211706Y169918D01*
X211328Y170075D01*
Y170616D01*
X211608Y170732D01*
X212142Y171266D01*
X212432Y171965D01*
Y172721D01*
X212142Y173419D01*
X211608Y173953D01*
X210909Y174242D01*
D02*
G37*
G36*
X322228Y150522D02*
X321473D01*
X320774Y150233D01*
X320240Y149698D01*
X319950Y149000D01*
Y148244D01*
X320240Y147546D01*
X320774Y147011D01*
X321473Y146722D01*
X322228D01*
X322927Y147011D01*
X323461Y147546D01*
X323750Y148244D01*
Y149000D01*
X323461Y149698D01*
X322927Y150233D01*
X322228Y150522D01*
D02*
G37*
G36*
X211008Y152687D02*
X210252D01*
X209554Y152398D01*
X209019Y151864D01*
X208730Y151165D01*
Y150409D01*
X209019Y149711D01*
X209554Y149177D01*
X210002Y148991D01*
Y148450D01*
X209554Y148264D01*
X209019Y147730D01*
X208730Y147031D01*
Y146276D01*
X209019Y145577D01*
X209554Y145043D01*
X210252Y144754D01*
X211008D01*
X211706Y145043D01*
X212241Y145577D01*
X212530Y146276D01*
Y147031D01*
X212241Y147730D01*
X211706Y148264D01*
X211258Y148450D01*
Y148991D01*
X211706Y149177D01*
X212241Y149711D01*
X212530Y150409D01*
Y151165D01*
X212241Y151864D01*
X211706Y152398D01*
X211008Y152687D01*
D02*
G37*
G36*
X219606Y176275D02*
X218850D01*
X218152Y175986D01*
X217618Y175451D01*
X217328Y174753D01*
Y173997D01*
X217618Y173299D01*
X218152Y172764D01*
X218850Y172475D01*
X219521D01*
X219606Y172475D01*
X219702Y172013D01*
X219659Y171995D01*
X219396Y171886D01*
X218862Y171352D01*
X218572Y170653D01*
Y169898D01*
X218862Y169199D01*
X219396Y168665D01*
X219607Y168578D01*
Y168036D01*
X219396Y167949D01*
X218862Y167415D01*
X218572Y166717D01*
Y165961D01*
X218862Y165262D01*
X219396Y164728D01*
X219607Y164641D01*
Y164100D01*
X219396Y164012D01*
X218862Y163478D01*
X218572Y162779D01*
Y162024D01*
X218862Y161325D01*
X219396Y160791D01*
X219844Y160605D01*
Y160064D01*
X219396Y159879D01*
X218862Y159344D01*
X218572Y158646D01*
Y157890D01*
X218862Y157192D01*
X218963Y157090D01*
X218906Y156839D01*
X218784Y156562D01*
X218152Y156301D01*
X217618Y155766D01*
X217328Y155068D01*
Y154312D01*
X217618Y153614D01*
X218152Y153079D01*
X218572Y152905D01*
Y152181D01*
X218862Y151483D01*
X219396Y150948D01*
X219616Y150857D01*
Y150316D01*
X219414Y150233D01*
X218880Y149698D01*
X218590Y149000D01*
Y148244D01*
X218880Y147546D01*
X219178Y147248D01*
X218971Y146748D01*
X218850D01*
X218152Y146458D01*
X217618Y145924D01*
X217328Y145226D01*
Y144470D01*
X217618Y143771D01*
X218152Y143237D01*
X218850Y142948D01*
X219606D01*
X220305Y143237D01*
X220839Y143771D01*
X221128Y144470D01*
Y145226D01*
X220839Y145924D01*
X220541Y146222D01*
X220748Y146722D01*
X220868D01*
X221567Y147011D01*
X222101Y147546D01*
X222391Y148244D01*
Y149000D01*
X222101Y149698D01*
X221567Y150233D01*
X221347Y150324D01*
Y150865D01*
X221549Y150948D01*
X222083Y151483D01*
X222372Y152181D01*
Y152937D01*
X222083Y153635D01*
X221549Y154170D01*
X221128Y154344D01*
Y155068D01*
X220839Y155766D01*
X220738Y155868D01*
X220794Y156119D01*
X220917Y156395D01*
X221549Y156657D01*
X222083Y157192D01*
X222372Y157890D01*
Y158646D01*
X222083Y159344D01*
X221549Y159879D01*
X221101Y160064D01*
Y160605D01*
X221549Y160791D01*
X222083Y161325D01*
X222372Y162024D01*
Y162779D01*
X222083Y163478D01*
X221549Y164012D01*
X221338Y164100D01*
Y164641D01*
X221549Y164728D01*
X222083Y165262D01*
X222372Y165961D01*
Y166717D01*
X222083Y167415D01*
X221549Y167949D01*
X221338Y168036D01*
Y168578D01*
X221549Y168665D01*
X222083Y169199D01*
X222372Y169898D01*
Y170653D01*
X222083Y171352D01*
X221549Y171886D01*
X220850Y172176D01*
X220179D01*
X220094Y172176D01*
X219998Y172637D01*
X220042Y172656D01*
X220305Y172764D01*
X220839Y173299D01*
X221128Y173997D01*
Y174753D01*
X220839Y175451D01*
X220305Y175986D01*
X219606Y176275D01*
D02*
G37*
G36*
X19086Y152969D02*
X17725D01*
X16391Y152703D01*
X15134Y152182D01*
X14004Y151427D01*
X13042Y150465D01*
X12286Y149334D01*
X11765Y148077D01*
X11500Y146743D01*
Y145383D01*
X11765Y144049D01*
X12286Y142792D01*
X13042Y141661D01*
X14004Y140699D01*
X15134Y139943D01*
X16391Y139423D01*
X17725Y139157D01*
X19086D01*
X20420Y139423D01*
X21676Y139943D01*
X22807Y140699D01*
X23769Y141661D01*
X24525Y142792D01*
X25046Y144049D01*
X25311Y145383D01*
Y146743D01*
X25046Y148077D01*
X24525Y149334D01*
X23769Y150465D01*
X22807Y151427D01*
X21676Y152182D01*
X20420Y152703D01*
X19086Y152969D01*
D02*
G37*
G36*
X265732Y142845D02*
X264976D01*
X264278Y142556D01*
X263744Y142021D01*
X263454Y141323D01*
Y140567D01*
X263744Y139869D01*
X264278Y139334D01*
X264976Y139045D01*
X265732D01*
X266431Y139334D01*
X266965Y139869D01*
X267254Y140567D01*
Y141323D01*
X266965Y142021D01*
X266431Y142556D01*
X265732Y142845D01*
D02*
G37*
G36*
X322228Y140680D02*
X321473D01*
X320774Y140390D01*
X320240Y139856D01*
X319950Y139157D01*
Y138402D01*
X320240Y137703D01*
X320774Y137169D01*
X321473Y136880D01*
X322228D01*
X322927Y137169D01*
X323461Y137703D01*
X323750Y138402D01*
Y139157D01*
X323461Y139856D01*
X322927Y140390D01*
X322228Y140680D01*
D02*
G37*
G36*
X269079Y139695D02*
X268323D01*
X267624Y139406D01*
X267090Y138872D01*
X266801Y138173D01*
Y137417D01*
X267090Y136719D01*
X267624Y136185D01*
X268323Y135895D01*
X269079D01*
X269777Y136185D01*
X270311Y136719D01*
X270601Y137417D01*
Y138173D01*
X270311Y138872D01*
X269777Y139406D01*
X269079Y139695D01*
D02*
G37*
G36*
X262189D02*
X261433D01*
X260735Y139406D01*
X260200Y138872D01*
X259911Y138173D01*
Y137417D01*
X260200Y136719D01*
X260735Y136185D01*
X261433Y135895D01*
X262189D01*
X262887Y136185D01*
X263422Y136719D01*
X263711Y137417D01*
Y138173D01*
X263422Y138872D01*
X262887Y139406D01*
X262189Y139695D01*
D02*
G37*
G36*
X311598Y139498D02*
X310842D01*
X310144Y139209D01*
X309610Y138675D01*
X309320Y137976D01*
Y137221D01*
X309610Y136522D01*
X310144Y135988D01*
X310842Y135698D01*
X311598D01*
X312297Y135988D01*
X312831Y136522D01*
X313121Y137221D01*
Y137976D01*
X312831Y138675D01*
X312297Y139209D01*
X311598Y139498D01*
D02*
G37*
G36*
X196244Y170404D02*
X195488D01*
X194790Y170115D01*
X194255Y169580D01*
X193966Y168882D01*
Y168126D01*
X194255Y167428D01*
X194790Y166893D01*
X195238Y166708D01*
Y166166D01*
X194790Y165981D01*
X194255Y165446D01*
X193966Y164748D01*
Y163992D01*
X194255Y163294D01*
X194790Y162759D01*
X195000Y162672D01*
Y162131D01*
X194790Y162044D01*
X194255Y161509D01*
X193966Y160811D01*
Y160055D01*
X194255Y159357D01*
X194790Y158822D01*
X195000Y158735D01*
Y158194D01*
X194790Y158107D01*
X194255Y157572D01*
X193966Y156874D01*
Y156118D01*
X194255Y155420D01*
X194790Y154885D01*
X194812Y154876D01*
Y154376D01*
X194790Y154367D01*
X194255Y153832D01*
X193966Y153134D01*
Y152378D01*
X194255Y151680D01*
X194790Y151145D01*
X195238Y150960D01*
Y150418D01*
X194790Y150233D01*
X194255Y149698D01*
X193966Y149000D01*
Y148244D01*
X194255Y147546D01*
X194790Y147011D01*
X195000Y146924D01*
Y146383D01*
X194790Y146296D01*
X194255Y145761D01*
X193966Y145063D01*
Y144307D01*
X194255Y143609D01*
X194790Y143074D01*
X195000Y142987D01*
Y142446D01*
X194790Y142359D01*
X194255Y141824D01*
X193966Y141126D01*
Y140370D01*
X194255Y139672D01*
X194790Y139137D01*
X194812Y139128D01*
Y138628D01*
X194790Y138619D01*
X194255Y138084D01*
X193966Y137386D01*
Y136630D01*
X194255Y135932D01*
X194790Y135397D01*
X195488Y135108D01*
X196244D01*
X196942Y135397D01*
X197477Y135932D01*
X197766Y136630D01*
Y137386D01*
X197477Y138084D01*
X196942Y138619D01*
X196920Y138628D01*
Y139128D01*
X196942Y139137D01*
X197477Y139672D01*
X197766Y140370D01*
Y141126D01*
X197477Y141824D01*
X196942Y142359D01*
X196732Y142446D01*
Y142987D01*
X196942Y143074D01*
X197477Y143609D01*
X197766Y144307D01*
Y145063D01*
X197477Y145761D01*
X196942Y146296D01*
X196732Y146383D01*
Y146924D01*
X196942Y147011D01*
X197477Y147546D01*
X197766Y148244D01*
Y149000D01*
X197477Y149698D01*
X196942Y150233D01*
X196494Y150418D01*
Y150960D01*
X196942Y151145D01*
X197477Y151680D01*
X197766Y152378D01*
Y153134D01*
X197477Y153832D01*
X196942Y154367D01*
X196920Y154376D01*
Y154876D01*
X196942Y154885D01*
X197477Y155420D01*
X197766Y156118D01*
Y156874D01*
X197477Y157572D01*
X196942Y158107D01*
X196732Y158194D01*
Y158735D01*
X196942Y158822D01*
X197477Y159357D01*
X197766Y160055D01*
Y160811D01*
X197477Y161509D01*
X196942Y162044D01*
X196732Y162131D01*
Y162672D01*
X196942Y162759D01*
X197477Y163294D01*
X197766Y163992D01*
Y164748D01*
X197477Y165446D01*
X196942Y165981D01*
X196494Y166166D01*
Y166708D01*
X196942Y166893D01*
X197477Y167428D01*
X197766Y168126D01*
Y168882D01*
X197477Y169580D01*
X196942Y170115D01*
X196244Y170404D01*
D02*
G37*
G36*
X345590Y136905D02*
X344835D01*
X344136Y136616D01*
X343602Y136081D01*
X343313Y135383D01*
Y134627D01*
X343602Y133929D01*
X344136Y133394D01*
X344835Y133105D01*
X345590D01*
X346289Y133394D01*
X346823Y133929D01*
X347113Y134627D01*
Y135383D01*
X346823Y136081D01*
X346289Y136616D01*
X345590Y136905D01*
D02*
G37*
G36*
X205102Y172176D02*
X204346D01*
X203648Y171886D01*
X203114Y171352D01*
X202824Y170653D01*
Y169898D01*
X203114Y169199D01*
X203648Y168665D01*
X203859Y168578D01*
Y168036D01*
X203648Y167949D01*
X203114Y167415D01*
X202824Y166717D01*
Y165961D01*
X203114Y165262D01*
X203648Y164728D01*
X203859Y164641D01*
Y164100D01*
X203648Y164012D01*
X203114Y163478D01*
X202824Y162779D01*
Y162024D01*
X203114Y161325D01*
X203648Y160791D01*
X203859Y160704D01*
Y160162D01*
X203648Y160075D01*
X203114Y159541D01*
X202824Y158843D01*
Y158087D01*
X203114Y157388D01*
X203648Y156854D01*
X203631Y156320D01*
X203585Y156301D01*
X203051Y155766D01*
X202761Y155068D01*
Y154312D01*
X203051Y153614D01*
X203585Y153079D01*
X203786Y152996D01*
Y152455D01*
X203648Y152398D01*
X203114Y151864D01*
X202824Y151165D01*
Y150409D01*
X203114Y149711D01*
X203648Y149177D01*
X204096Y148991D01*
Y148450D01*
X203648Y148264D01*
X203114Y147730D01*
X202824Y147031D01*
Y146276D01*
X203114Y145577D01*
X203648Y145043D01*
X203859Y144956D01*
Y144414D01*
X203648Y144327D01*
X203114Y143793D01*
X202824Y143095D01*
Y142339D01*
X203114Y141640D01*
X203648Y141106D01*
X203859Y141019D01*
Y140477D01*
X203648Y140390D01*
X203114Y139856D01*
X202824Y139157D01*
Y138402D01*
X203114Y137703D01*
X203648Y137169D01*
X203631Y136635D01*
X203585Y136616D01*
X203051Y136081D01*
X202761Y135383D01*
Y134627D01*
X203051Y133929D01*
X203585Y133394D01*
X204283Y133105D01*
X205039D01*
X205738Y133394D01*
X206272Y133929D01*
X206561Y134627D01*
Y135383D01*
X206272Y136081D01*
X205738Y136616D01*
X205755Y137150D01*
X205801Y137169D01*
X206335Y137703D01*
X206624Y138402D01*
Y139157D01*
X206335Y139856D01*
X205801Y140390D01*
X205590Y140477D01*
Y141019D01*
X205801Y141106D01*
X206335Y141640D01*
X206624Y142339D01*
Y143095D01*
X206335Y143793D01*
X205801Y144327D01*
X205590Y144414D01*
Y144956D01*
X205801Y145043D01*
X206335Y145577D01*
X206624Y146276D01*
Y147031D01*
X206335Y147730D01*
X205801Y148264D01*
X205353Y148450D01*
Y148991D01*
X205801Y149177D01*
X206335Y149711D01*
X206624Y150409D01*
Y151165D01*
X206335Y151864D01*
X205801Y152398D01*
X205600Y152481D01*
Y153022D01*
X205738Y153079D01*
X206272Y153614D01*
X206561Y154312D01*
Y155068D01*
X206272Y155766D01*
X205738Y156301D01*
X205755Y156835D01*
X205801Y156854D01*
X206335Y157388D01*
X206624Y158087D01*
Y158843D01*
X206335Y159541D01*
X205801Y160075D01*
X205590Y160162D01*
Y160704D01*
X205801Y160791D01*
X206335Y161325D01*
X206624Y162024D01*
Y162779D01*
X206335Y163478D01*
X205801Y164012D01*
X205590Y164100D01*
Y164641D01*
X205801Y164728D01*
X206335Y165262D01*
X206624Y165961D01*
Y166717D01*
X206335Y167415D01*
X205801Y167949D01*
X205590Y168036D01*
Y168578D01*
X205801Y168665D01*
X206335Y169199D01*
X206624Y169898D01*
Y170653D01*
X206335Y171352D01*
X205801Y171886D01*
X205102Y172176D01*
D02*
G37*
G36*
X252550Y134177D02*
X251794D01*
X251096Y133888D01*
X250561Y133353D01*
X250272Y132655D01*
Y131899D01*
X250561Y131201D01*
X251096Y130666D01*
X251794Y130377D01*
X252550D01*
X253248Y130666D01*
X253783Y131201D01*
X254072Y131899D01*
Y132655D01*
X253783Y133353D01*
X253248Y133888D01*
X252550Y134177D01*
D02*
G37*
G36*
X269079Y133002D02*
X268323D01*
X267624Y132713D01*
X267090Y132179D01*
X266801Y131480D01*
Y130724D01*
X267090Y130026D01*
X267624Y129492D01*
X268323Y129202D01*
X269079D01*
X269777Y129492D01*
X270311Y130026D01*
X270601Y130724D01*
Y131480D01*
X270311Y132179D01*
X269777Y132713D01*
X269079Y133002D01*
D02*
G37*
G36*
X240142Y128868D02*
X239386D01*
X238687Y128579D01*
X238287Y128179D01*
X237887Y128579D01*
X237189Y128868D01*
X236433D01*
X235735Y128579D01*
X235200Y128045D01*
X234911Y127346D01*
Y126591D01*
X235200Y125892D01*
X235735Y125358D01*
X236433Y125068D01*
X237189D01*
X237887Y125358D01*
X238287Y125758D01*
X238687Y125358D01*
X239386Y125068D01*
X240142D01*
X240840Y125358D01*
X241374Y125892D01*
X241664Y126591D01*
Y127346D01*
X241374Y128045D01*
X240840Y128579D01*
X240142Y128868D01*
D02*
G37*
G36*
X232661D02*
X231906D01*
X231207Y128579D01*
X230807Y128179D01*
X230407Y128579D01*
X229709Y128868D01*
X228953D01*
X228255Y128579D01*
X227720Y128045D01*
X227431Y127346D01*
Y126591D01*
X227720Y125892D01*
X228255Y125358D01*
X228953Y125068D01*
X229709D01*
X230407Y125358D01*
X230807Y125758D01*
X231207Y125358D01*
X231906Y125068D01*
X232661D01*
X233360Y125358D01*
X233894Y125892D01*
X234184Y126591D01*
Y127346D01*
X233894Y128045D01*
X233360Y128579D01*
X232661Y128868D01*
D02*
G37*
G36*
X322228Y131821D02*
X321473D01*
X320774Y131532D01*
X320240Y130998D01*
X319950Y130299D01*
Y129543D01*
X320240Y128845D01*
X320774Y128311D01*
X321473Y128021D01*
X322228D01*
X322927Y128311D01*
X323461Y128845D01*
X323750Y129543D01*
Y130299D01*
X323461Y130998D01*
X322927Y131532D01*
X322228Y131821D01*
D02*
G37*
G36*
X244669Y129892D02*
X243913D01*
X243215Y129603D01*
X242681Y129068D01*
X242391Y128370D01*
Y127614D01*
X242681Y126916D01*
X243215Y126381D01*
X243913Y126092D01*
X244669D01*
X245368Y126381D01*
X245902Y126916D01*
X246191Y127614D01*
Y128370D01*
X245902Y129068D01*
X245368Y129603D01*
X244669Y129892D01*
D02*
G37*
G36*
X322228Y126900D02*
X321473D01*
X320774Y126611D01*
X320240Y126076D01*
X319950Y125378D01*
Y124622D01*
X320240Y123924D01*
X320774Y123389D01*
X321473Y123100D01*
X322228D01*
X322927Y123389D01*
X323461Y123924D01*
X323750Y124622D01*
Y125378D01*
X323461Y126076D01*
X322927Y126611D01*
X322228Y126900D01*
D02*
G37*
G36*
X196244D02*
X195488D01*
X194790Y126611D01*
X194255Y126076D01*
X193966Y125378D01*
Y124622D01*
X194255Y123924D01*
X194790Y123389D01*
X195488Y123100D01*
X196244D01*
X196942Y123389D01*
X197477Y123924D01*
X197766Y124622D01*
Y125378D01*
X197477Y126076D01*
X196942Y126611D01*
X196244Y126900D01*
D02*
G37*
G36*
X250575Y125522D02*
X249819D01*
X249121Y125233D01*
X248586Y124698D01*
X248297Y124000D01*
Y123244D01*
X248586Y122546D01*
X249121Y122011D01*
X249819Y121722D01*
X250575D01*
X251273Y122011D01*
X251808Y122546D01*
X252097Y123244D01*
Y124000D01*
X251808Y124698D01*
X251273Y125233D01*
X250575Y125522D01*
D02*
G37*
G36*
X205102Y124932D02*
X204346D01*
X203648Y124642D01*
X203114Y124108D01*
X202824Y123409D01*
Y122654D01*
X203114Y121955D01*
X203648Y121421D01*
X204346Y121132D01*
X205102D01*
X205801Y121421D01*
X206335Y121955D01*
X206624Y122654D01*
Y123409D01*
X206335Y124108D01*
X205801Y124642D01*
X205102Y124932D01*
D02*
G37*
G36*
X250575Y120207D02*
X249819D01*
X249121Y119918D01*
X249016Y119813D01*
X248911Y119918D01*
X248213Y120207D01*
X247457D01*
X246758Y119918D01*
X246224Y119383D01*
X245935Y118685D01*
Y117929D01*
X246224Y117231D01*
X246758Y116696D01*
X247457Y116407D01*
X248213D01*
X248911Y116696D01*
X249016Y116801D01*
X249121Y116696D01*
X249819Y116407D01*
X250575D01*
X251273Y116696D01*
X251808Y117231D01*
X252097Y117929D01*
Y118685D01*
X251808Y119383D01*
X251273Y119918D01*
X250575Y120207D01*
D02*
G37*
G36*
X244472Y123554D02*
X243717D01*
X243018Y123264D01*
X242484Y122730D01*
X242195Y122031D01*
Y121276D01*
X242484Y120577D01*
X243018Y120043D01*
X243717Y119754D01*
X244472D01*
X245171Y120043D01*
X245705Y120577D01*
X245994Y121276D01*
Y122031D01*
X245705Y122730D01*
X245171Y123264D01*
X244472Y123554D01*
D02*
G37*
G36*
X254906Y122766D02*
X254150D01*
X253451Y122477D01*
X252917Y121942D01*
X252628Y121244D01*
Y120488D01*
X252917Y119790D01*
X253451Y119255D01*
X254150Y118966D01*
X254906D01*
X255604Y119255D01*
X256138Y119790D01*
X256428Y120488D01*
Y121244D01*
X256138Y121942D01*
X255604Y122477D01*
X254906Y122766D01*
D02*
G37*
G36*
X336795Y119026D02*
X336039D01*
X335341Y118737D01*
X334807Y118202D01*
X334517Y117504D01*
Y116748D01*
X334807Y116050D01*
X335341Y115515D01*
X336039Y115226D01*
X336795D01*
X337494Y115515D01*
X338028Y116050D01*
X338317Y116748D01*
Y117504D01*
X338028Y118202D01*
X337494Y118737D01*
X336795Y119026D01*
D02*
G37*
G36*
X259236Y114695D02*
X258480D01*
X257782Y114406D01*
X257382Y114006D01*
X256982Y114406D01*
X256283Y114695D01*
X255528D01*
X254829Y114406D01*
X254295Y113872D01*
X254006Y113173D01*
Y112417D01*
X254295Y111719D01*
X254829Y111185D01*
X255528Y110895D01*
X256283D01*
X256982Y111185D01*
X257382Y111585D01*
X257782Y111185D01*
X258480Y110895D01*
X259236D01*
X259934Y111185D01*
X260469Y111719D01*
X260758Y112417D01*
Y113173D01*
X260469Y113872D01*
X259934Y114406D01*
X259236Y114695D01*
D02*
G37*
G36*
X345590Y117220D02*
X344835D01*
X344136Y116931D01*
X343602Y116396D01*
X343313Y115698D01*
Y114942D01*
X343602Y114244D01*
X344136Y113709D01*
X344835Y113420D01*
X345590D01*
X346289Y113709D01*
X346823Y114244D01*
X347113Y114942D01*
Y115698D01*
X346823Y116396D01*
X346289Y116931D01*
X345590Y117220D01*
D02*
G37*
G36*
X312456Y115246D02*
X311701D01*
X311002Y114957D01*
X310468Y114423D01*
X310178Y113724D01*
Y112969D01*
X310468Y112270D01*
X311002Y111736D01*
X311701Y111446D01*
X312456D01*
X313155Y111736D01*
X313689Y112270D01*
X313979Y112969D01*
Y113724D01*
X313689Y114423D01*
X313155Y114957D01*
X312456Y115246D01*
D02*
G37*
G36*
X318094Y118829D02*
X317339D01*
X316640Y118540D01*
X316106Y118005D01*
X315816Y117307D01*
Y116551D01*
X316106Y115853D01*
X316485Y115473D01*
X316588Y115157D01*
X316485Y114841D01*
X316106Y114462D01*
X315816Y113764D01*
Y113008D01*
X316106Y112310D01*
X316640Y111775D01*
X317339Y111486D01*
X318094D01*
X318793Y111775D01*
X319327Y112310D01*
X319489Y112699D01*
X320013Y112659D01*
X320240Y112113D01*
X320774Y111578D01*
X321473Y111289D01*
X322228D01*
X322927Y111578D01*
X323461Y112113D01*
X323750Y112811D01*
Y113567D01*
X323461Y114265D01*
X322927Y114800D01*
X322228Y115089D01*
X321473D01*
X320774Y114800D01*
X320240Y114265D01*
X320078Y113876D01*
X319554Y113916D01*
X319327Y114462D01*
X318948Y114841D01*
X318845Y115157D01*
X318948Y115473D01*
X319327Y115853D01*
X319617Y116551D01*
Y117307D01*
X319327Y118005D01*
X318793Y118540D01*
X318094Y118829D01*
D02*
G37*
G36*
X302937D02*
X302181D01*
X301483Y118540D01*
X300948Y118005D01*
X300659Y117307D01*
Y116551D01*
X300948Y115853D01*
X301483Y115318D01*
X301505Y115309D01*
Y114809D01*
X301483Y114800D01*
X300948Y114265D01*
X300659Y113567D01*
Y112811D01*
X300948Y112113D01*
X301483Y111578D01*
X302181Y111289D01*
X302937D01*
X303635Y111578D01*
X304170Y112113D01*
X304459Y112811D01*
Y113567D01*
X304170Y114265D01*
X303635Y114800D01*
X303613Y114809D01*
Y115309D01*
X303635Y115318D01*
X304170Y115853D01*
X304459Y116551D01*
Y117307D01*
X304170Y118005D01*
X303635Y118540D01*
X302937Y118829D01*
D02*
G37*
G36*
X291677Y115049D02*
X290921D01*
X290223Y114760D01*
X289688Y114225D01*
X289399Y113527D01*
Y112771D01*
X289688Y112073D01*
X290223Y111539D01*
X290921Y111249D01*
X291677D01*
X292375Y111539D01*
X292910Y112073D01*
X293199Y112771D01*
Y113527D01*
X292910Y114225D01*
X292375Y114760D01*
X291677Y115049D01*
D02*
G37*
G36*
X244472Y114105D02*
X243717D01*
X243018Y113815D01*
X242484Y113281D01*
X242195Y112583D01*
Y111827D01*
X242484Y111128D01*
X243018Y110594D01*
X243717Y110305D01*
X244472D01*
X245171Y110594D01*
X245705Y111128D01*
X245994Y111827D01*
Y112583D01*
X245705Y113281D01*
X245171Y113815D01*
X244472Y114105D01*
D02*
G37*
G36*
X250575Y113908D02*
X249819D01*
X249121Y113619D01*
X248586Y113084D01*
X248297Y112386D01*
Y111630D01*
X248586Y110932D01*
X249121Y110397D01*
X249819Y110108D01*
X250575D01*
X251273Y110397D01*
X251808Y110932D01*
X252097Y111630D01*
Y112386D01*
X251808Y113084D01*
X251273Y113619D01*
X250575Y113908D01*
D02*
G37*
G36*
X296047Y111349D02*
X295291D01*
X294593Y111060D01*
X294059Y110525D01*
X293769Y109827D01*
Y109071D01*
X294059Y108373D01*
X294593Y107838D01*
X295291Y107549D01*
X296047D01*
X296746Y107838D01*
X297280Y108373D01*
X297569Y109071D01*
Y109827D01*
X297280Y110525D01*
X296746Y111060D01*
X296047Y111349D01*
D02*
G37*
G36*
X322228Y109184D02*
X321473D01*
X320774Y108894D01*
X320240Y108360D01*
X319950Y107661D01*
Y106905D01*
X320240Y106207D01*
X320774Y105673D01*
X321473Y105384D01*
X322228D01*
X322927Y105673D01*
X323461Y106207D01*
X323750Y106905D01*
Y107661D01*
X323461Y108360D01*
X322927Y108894D01*
X322228Y109184D01*
D02*
G37*
G36*
X234630Y104459D02*
X233874D01*
X233176Y104170D01*
X232641Y103635D01*
X232352Y102937D01*
Y102181D01*
X232641Y101483D01*
X233176Y100948D01*
X233874Y100659D01*
X234630D01*
X235328Y100948D01*
X235863Y101483D01*
X236152Y102181D01*
Y102937D01*
X235863Y103635D01*
X235328Y104170D01*
X234630Y104459D01*
D02*
G37*
G36*
X227740D02*
X226984D01*
X226286Y104170D01*
X225751Y103635D01*
X225462Y102937D01*
Y102181D01*
X225751Y101483D01*
X226286Y100948D01*
X226984Y100659D01*
X227740D01*
X228438Y100948D01*
X228973Y101483D01*
X229262Y102181D01*
Y102937D01*
X228973Y103635D01*
X228438Y104170D01*
X227740Y104459D01*
D02*
G37*
G36*
X330705Y106396D02*
X329665D01*
X328659Y106127D01*
X327758Y105606D01*
X327022Y104870D01*
X326502Y103969D01*
X326232Y102964D01*
Y101923D01*
X326502Y100918D01*
X327022Y100016D01*
X327758Y99281D01*
X328659Y98760D01*
X329665Y98491D01*
X330705D01*
X331711Y98760D01*
X332612Y99281D01*
X333348Y100016D01*
X333868Y100918D01*
X334138Y101923D01*
Y102964D01*
X333868Y103969D01*
X333348Y104870D01*
X332612Y105606D01*
X331711Y106127D01*
X330705Y106396D01*
D02*
G37*
G36*
X204721D02*
X203680D01*
X202675Y106127D01*
X201774Y105606D01*
X201038Y104870D01*
X200517Y103969D01*
X200248Y102964D01*
Y101923D01*
X200517Y100918D01*
X201038Y100016D01*
X201774Y99281D01*
X202675Y98760D01*
X203680Y98491D01*
X204721D01*
X205727Y98760D01*
X206628Y99281D01*
X207364Y100016D01*
X207884Y100918D01*
X208154Y101923D01*
Y102964D01*
X207884Y103969D01*
X207364Y104870D01*
X206628Y105606D01*
X205727Y106127D01*
X204721Y106396D01*
D02*
G37*
G36*
X231087Y101310D02*
X230331D01*
X229632Y101020D01*
X229098Y100486D01*
X228809Y99787D01*
Y99032D01*
X229098Y98333D01*
X229632Y97799D01*
X230331Y97509D01*
X231087D01*
X231785Y97799D01*
X232319Y98333D01*
X232609Y99032D01*
Y99787D01*
X232319Y100486D01*
X231785Y101020D01*
X231087Y101310D01*
D02*
G37*
G36*
X338579Y100589D02*
X337539D01*
X336533Y100320D01*
X335632Y99799D01*
X334896Y99063D01*
X334376Y98162D01*
X334106Y97157D01*
Y96116D01*
X334376Y95111D01*
X334896Y94209D01*
X335632Y93473D01*
X336533Y92953D01*
X337539Y92684D01*
X338579D01*
X339585Y92953D01*
X340486Y93473D01*
X341222Y94209D01*
X341742Y95111D01*
X342012Y96116D01*
Y97157D01*
X341742Y98162D01*
X341222Y99063D01*
X340486Y99799D01*
X339585Y100320D01*
X338579Y100589D01*
D02*
G37*
G36*
X212595D02*
X211554D01*
X210549Y100320D01*
X209648Y99799D01*
X208912Y99063D01*
X208391Y98162D01*
X208122Y97157D01*
Y96116D01*
X208391Y95111D01*
X208912Y94209D01*
X209648Y93473D01*
X210549Y92953D01*
X211554Y92684D01*
X212595D01*
X213600Y92953D01*
X214502Y93473D01*
X215238Y94209D01*
X215758Y95111D01*
X216027Y96116D01*
Y97157D01*
X215758Y98162D01*
X215238Y99063D01*
X214502Y99799D01*
X213600Y100320D01*
X212595Y100589D01*
D02*
G37*
G36*
X19086Y97654D02*
X17725D01*
X16391Y97388D01*
X15134Y96868D01*
X14004Y96112D01*
X13042Y95150D01*
X12286Y94019D01*
X11765Y92762D01*
X11500Y91428D01*
Y90068D01*
X11765Y88734D01*
X12286Y87477D01*
X13042Y86346D01*
X14004Y85384D01*
X15134Y84628D01*
X16391Y84108D01*
X17725Y83842D01*
X19086D01*
X20420Y84108D01*
X21676Y84628D01*
X22807Y85384D01*
X23769Y86346D01*
X24525Y87477D01*
X25046Y88734D01*
X25311Y90068D01*
Y91428D01*
X25046Y92762D01*
X24525Y94019D01*
X23769Y95150D01*
X22807Y96112D01*
X21676Y96868D01*
X20420Y97388D01*
X19086Y97654D01*
D02*
G37*
G36*
X295548Y86696D02*
X294792D01*
X294093Y86407D01*
X293559Y85872D01*
X293270Y85174D01*
Y84418D01*
X293559Y83720D01*
X294093Y83185D01*
X294792Y82896D01*
X295548D01*
X296246Y83185D01*
X296780Y83720D01*
X297070Y84418D01*
Y85174D01*
X296780Y85872D01*
X296246Y86407D01*
X295548Y86696D01*
D02*
G37*
G36*
X289642D02*
X288886D01*
X288188Y86407D01*
X287653Y85872D01*
X287364Y85174D01*
Y84418D01*
X287653Y83720D01*
X288188Y83185D01*
X288886Y82896D01*
X289642D01*
X290340Y83185D01*
X290875Y83720D01*
X291164Y84418D01*
Y85174D01*
X290875Y85872D01*
X290340Y86407D01*
X289642Y86696D01*
D02*
G37*
G36*
X283737D02*
X282981D01*
X282282Y86407D01*
X281748Y85872D01*
X281459Y85174D01*
Y84418D01*
X281748Y83720D01*
X282282Y83185D01*
X282981Y82896D01*
X283737D01*
X284435Y83185D01*
X284969Y83720D01*
X285259Y84418D01*
Y85174D01*
X284969Y85872D01*
X284435Y86407D01*
X283737Y86696D01*
D02*
G37*
G36*
X277831D02*
X277075D01*
X276377Y86407D01*
X275842Y85872D01*
X275553Y85174D01*
Y84418D01*
X275842Y83720D01*
X276377Y83185D01*
X277075Y82896D01*
X277831D01*
X278530Y83185D01*
X279064Y83720D01*
X279353Y84418D01*
Y85174D01*
X279064Y85872D01*
X278530Y86407D01*
X277831Y86696D01*
D02*
G37*
G36*
X271926D02*
X271170D01*
X270471Y86407D01*
X269937Y85872D01*
X269648Y85174D01*
Y84418D01*
X269937Y83720D01*
X270471Y83185D01*
X271170Y82896D01*
X271926D01*
X272624Y83185D01*
X273158Y83720D01*
X273448Y84418D01*
Y85174D01*
X273158Y85872D01*
X272624Y86407D01*
X271926Y86696D01*
D02*
G37*
G36*
X256178D02*
X255422D01*
X254723Y86407D01*
X254189Y85872D01*
X253900Y85174D01*
Y84418D01*
X254189Y83720D01*
X254723Y83185D01*
X255422Y82896D01*
X256178D01*
X256876Y83185D01*
X257410Y83720D01*
X257700Y84418D01*
Y85174D01*
X257410Y85872D01*
X256876Y86407D01*
X256178Y86696D01*
D02*
G37*
G36*
X338478Y81790D02*
X336461D01*
X334470Y81475D01*
X332552Y80851D01*
X330755Y79936D01*
X329124Y78751D01*
X327698Y77325D01*
X326513Y75693D01*
X325597Y73897D01*
X324974Y71979D01*
X324659Y69987D01*
Y67971D01*
X324974Y65979D01*
X325597Y64061D01*
X326513Y62265D01*
X327698Y60633D01*
X329124Y59207D01*
X330755Y58022D01*
X332552Y57107D01*
X334470Y56483D01*
X336461Y56168D01*
X338478D01*
X340470Y56483D01*
X342387Y57107D01*
X344184Y58022D01*
X345815Y59207D01*
X347241Y60633D01*
X348427Y62265D01*
X349342Y64061D01*
X349965Y65979D01*
X350281Y67971D01*
Y69987D01*
X349965Y71979D01*
X349342Y73897D01*
X348427Y75693D01*
X347241Y77325D01*
X345815Y78751D01*
X344184Y79936D01*
X342387Y80851D01*
X340470Y81475D01*
X338478Y81790D01*
D02*
G37*
G36*
X19086Y67732D02*
X17725D01*
X16391Y67467D01*
X15134Y66946D01*
X14004Y66191D01*
X13042Y65229D01*
X12286Y64098D01*
X11765Y62841D01*
X11500Y61507D01*
Y60147D01*
X11765Y58812D01*
X12286Y57556D01*
X13042Y56425D01*
X14004Y55463D01*
X15134Y54707D01*
X16391Y54187D01*
X17725Y53921D01*
X19086D01*
X20420Y54187D01*
X21676Y54707D01*
X22807Y55463D01*
X23769Y56425D01*
X24525Y57556D01*
X25046Y58812D01*
X25311Y60147D01*
Y61507D01*
X25046Y62841D01*
X24525Y64098D01*
X23769Y65229D01*
X22807Y66191D01*
X21676Y66946D01*
X20420Y67467D01*
X19086Y67732D01*
D02*
G37*
G36*
X36795Y47569D02*
X36039D01*
X35341Y47280D01*
X34841Y46780D01*
X34799Y46745D01*
X34253Y46714D01*
X33950Y47017D01*
X33252Y47306D01*
X32496D01*
X31798Y47017D01*
X31263Y46482D01*
X30974Y45784D01*
Y45028D01*
X31263Y44330D01*
X31798Y43795D01*
X32496Y43506D01*
X33252D01*
X33950Y43795D01*
X34451Y44296D01*
X34492Y44330D01*
X35039Y44361D01*
X35341Y44059D01*
X36039Y43769D01*
X36795D01*
X37494Y44059D01*
X38028Y44593D01*
X38317Y45291D01*
Y46047D01*
X38028Y46746D01*
X37494Y47280D01*
X36795Y47569D01*
D02*
G37*
G36*
X33646Y35987D02*
X32890D01*
X32192Y35698D01*
X31657Y35163D01*
X31368Y34465D01*
Y33709D01*
X31657Y33011D01*
X32192Y32476D01*
X32890Y32187D01*
X33646D01*
X34344Y32476D01*
X34879Y33011D01*
X35168Y33709D01*
Y34465D01*
X34879Y35163D01*
X34344Y35698D01*
X33646Y35987D01*
D02*
G37*
G36*
X40929Y34380D02*
X40173D01*
X39475Y34091D01*
X38940Y33557D01*
X38651Y32858D01*
Y32102D01*
X38940Y31404D01*
X39475Y30870D01*
X40173Y30580D01*
X40929D01*
X41627Y30870D01*
X42162Y31404D01*
X42451Y32102D01*
Y32858D01*
X42162Y33557D01*
X41627Y34091D01*
X40929Y34380D01*
D02*
G37*
G36*
X207661Y26506D02*
X206906D01*
X206207Y26217D01*
X205673Y25683D01*
X205383Y24984D01*
Y24228D01*
X205673Y23530D01*
X206207Y22996D01*
X206906Y22706D01*
X207661D01*
X208360Y22996D01*
X208894Y23530D01*
X209184Y24228D01*
Y24984D01*
X208894Y25683D01*
X208360Y26217D01*
X207661Y26506D01*
D02*
G37*
G36*
X21347Y28165D02*
X20306D01*
X19301Y27896D01*
X18400Y27376D01*
X17664Y26640D01*
X17143Y25738D01*
X16874Y24733D01*
Y23692D01*
X17143Y22687D01*
X17664Y21786D01*
X18400Y21050D01*
X19301Y20529D01*
X20306Y20260D01*
X21347D01*
X22353Y20529D01*
X23254Y21050D01*
X23990Y21786D01*
X24510Y22687D01*
X24780Y23692D01*
Y24733D01*
X24510Y25738D01*
X23990Y26640D01*
X23254Y27376D01*
X22353Y27896D01*
X21347Y28165D01*
D02*
G37*
G36*
X12303Y28214D02*
X9350D01*
X8384Y28022D01*
X7565Y27474D01*
X7018Y26655D01*
X6825Y25689D01*
Y22736D01*
X7018Y21770D01*
X7565Y20951D01*
X8384Y20403D01*
X9350Y20211D01*
X12303D01*
X13269Y20403D01*
X14088Y20951D01*
X14636Y21770D01*
X14828Y22736D01*
Y25689D01*
X14636Y26655D01*
X14088Y27474D01*
X13269Y28022D01*
X12303Y28214D01*
D02*
G37*
%LPD*%
G36*
X340354Y161417D02*
X286614D01*
X286420Y193543D01*
X286772Y193898D01*
X340354D01*
Y161417D01*
D02*
G37*
%LPC*%
G36*
X299211Y191810D02*
X298530D01*
X297873Y191634D01*
X297283Y191293D01*
X296802Y190812D01*
X296462Y190223D01*
X296416Y190053D01*
X296246Y190007D01*
X295657Y189667D01*
X295176Y189186D01*
X294835Y188596D01*
X294659Y187939D01*
Y187258D01*
X294835Y186601D01*
X295176Y186011D01*
X295657Y185530D01*
X296246Y185190D01*
X296904Y185013D01*
X297584D01*
X298242Y185190D01*
X298831Y185530D01*
X299313Y186011D01*
X299653Y186601D01*
X299698Y186770D01*
X299868Y186816D01*
X300458Y187156D01*
X300939Y187637D01*
X301279Y188227D01*
X301455Y188884D01*
Y189565D01*
X301279Y190223D01*
X300939Y190812D01*
X300458Y191293D01*
X299868Y191634D01*
X299211Y191810D01*
D02*
G37*
G36*
X335825Y185117D02*
X335144D01*
X334487Y184941D01*
X333897Y184600D01*
X333416Y184119D01*
X333076Y183530D01*
X333030Y183360D01*
X332860Y183314D01*
X332271Y182974D01*
X331790Y182493D01*
X331449Y181903D01*
X331273Y181246D01*
Y180565D01*
X331449Y179908D01*
X331790Y179318D01*
X332271Y178837D01*
X332860Y178497D01*
X333518Y178321D01*
X334199D01*
X334856Y178497D01*
X335445Y178837D01*
X335927Y179318D01*
X336267Y179908D01*
X336313Y180078D01*
X336482Y180123D01*
X337072Y180463D01*
X337553Y180945D01*
X337894Y181534D01*
X338070Y182192D01*
Y182872D01*
X337894Y183530D01*
X337553Y184119D01*
X337072Y184600D01*
X336482Y184941D01*
X335825Y185117D01*
D02*
G37*
G36*
X318844Y184081D02*
X318164D01*
X317506Y183905D01*
X316917Y183565D01*
X316435Y183083D01*
X316095Y182494D01*
X315919Y181836D01*
Y181156D01*
X316095Y180498D01*
X316183Y180346D01*
X316095Y180194D01*
X315919Y179536D01*
Y178856D01*
X316095Y178198D01*
X316435Y177609D01*
X316917Y177128D01*
X317506Y176787D01*
X318164Y176611D01*
X318844D01*
X319502Y176787D01*
X320091Y177128D01*
X320572Y177609D01*
X320913Y178198D01*
X321089Y178856D01*
Y179536D01*
X320913Y180194D01*
X320825Y180346D01*
X320913Y180498D01*
X321089Y181156D01*
Y181836D01*
X320913Y182494D01*
X320572Y183083D01*
X320091Y183565D01*
X319502Y183905D01*
X318844Y184081D01*
D02*
G37*
G36*
X335431Y169172D02*
X334751D01*
X334093Y168996D01*
X333504Y168656D01*
X333022Y168174D01*
X332682Y167585D01*
X332636Y167415D01*
X332467Y167369D01*
X331877Y167029D01*
X331396Y166548D01*
X331056Y165958D01*
X330879Y165301D01*
Y164620D01*
X331056Y163963D01*
X331396Y163373D01*
X331877Y162892D01*
X332467Y162552D01*
X333124Y162376D01*
X333805D01*
X334462Y162552D01*
X335052Y162892D01*
X335533Y163373D01*
X335874Y163963D01*
X335919Y164133D01*
X336089Y164178D01*
X336678Y164518D01*
X337159Y165000D01*
X337500Y165589D01*
X337676Y166247D01*
Y166927D01*
X337500Y167585D01*
X337159Y168174D01*
X336678Y168656D01*
X336089Y168996D01*
X335431Y169172D01*
D02*
G37*
G36*
X94794Y295228D02*
X94039D01*
X93340Y294939D01*
X92806Y294404D01*
X92516Y293706D01*
Y292950D01*
X92806Y292252D01*
X93340Y291717D01*
X94039Y291428D01*
X94794D01*
X95493Y291717D01*
X96027Y292252D01*
X96316Y292950D01*
Y293706D01*
X96027Y294404D01*
X95493Y294939D01*
X94794Y295228D01*
D02*
G37*
G36*
X83744Y282215D02*
X82988D01*
X82290Y281926D01*
X81755Y281391D01*
X81466Y280693D01*
Y279937D01*
X81755Y279239D01*
X82290Y278704D01*
X82988Y278415D01*
X83744D01*
X84442Y278704D01*
X84977Y279239D01*
X85266Y279937D01*
Y280693D01*
X84977Y281391D01*
X84442Y281926D01*
X83744Y282215D01*
D02*
G37*
G36*
X98816Y267254D02*
X98060D01*
X97361Y266965D01*
X96827Y266431D01*
X96538Y265732D01*
Y264976D01*
X96827Y264278D01*
X97361Y263744D01*
X98060Y263454D01*
X98816D01*
X99514Y263744D01*
X100048Y264278D01*
X100338Y264976D01*
Y265732D01*
X100048Y266431D01*
X99514Y266965D01*
X98816Y267254D01*
D02*
G37*
G36*
X49764Y251197D02*
X48464D01*
X47208Y250860D01*
X46083Y250210D01*
X45164Y249291D01*
X44514Y248165D01*
X44177Y246910D01*
Y245610D01*
X44514Y244354D01*
X45164Y243228D01*
X46083Y242309D01*
X47208Y241659D01*
X48464Y241323D01*
X49764D01*
X51020Y241659D01*
X52145Y242309D01*
X53065Y243228D01*
X53715Y244354D01*
X54051Y245610D01*
Y246910D01*
X53715Y248165D01*
X53065Y249291D01*
X52145Y250210D01*
X51020Y250860D01*
X49764Y251197D01*
D02*
G37*
G36*
X62337Y242569D02*
X61581D01*
X60883Y242280D01*
X60349Y241746D01*
X60059Y241047D01*
Y240292D01*
X60349Y239593D01*
X60883Y239059D01*
X61581Y238770D01*
X62337D01*
X63036Y239059D01*
X63570Y239593D01*
X63859Y240292D01*
Y241047D01*
X63570Y241746D01*
X63036Y242280D01*
X62337Y242569D01*
D02*
G37*
G36*
X94794Y210587D02*
X94039D01*
X93340Y210298D01*
X92806Y209763D01*
X92516Y209065D01*
Y208309D01*
X92806Y207611D01*
X93340Y207076D01*
X94039Y206787D01*
X94794D01*
X95493Y207076D01*
X96027Y207611D01*
X96316Y208309D01*
Y209065D01*
X96027Y209763D01*
X95493Y210298D01*
X94794Y210587D01*
D02*
G37*
G36*
X83744Y197574D02*
X82988D01*
X82290Y197285D01*
X81755Y196750D01*
X81466Y196052D01*
Y195296D01*
X81755Y194598D01*
X82290Y194063D01*
X82988Y193774D01*
X83744D01*
X84442Y194063D01*
X84977Y194598D01*
X85266Y195296D01*
Y196052D01*
X84977Y196750D01*
X84442Y197285D01*
X83744Y197574D01*
D02*
G37*
G36*
X98816Y182613D02*
X98060D01*
X97361Y182324D01*
X96827Y181790D01*
X96538Y181091D01*
Y180335D01*
X96827Y179637D01*
X97361Y179103D01*
X98060Y178813D01*
X98816D01*
X99514Y179103D01*
X100048Y179637D01*
X100338Y180335D01*
Y181091D01*
X100048Y181790D01*
X99514Y182324D01*
X98816Y182613D01*
D02*
G37*
G36*
X49764Y165961D02*
X48464D01*
X47208Y165624D01*
X46083Y164974D01*
X45164Y164055D01*
X44514Y162929D01*
X44177Y161674D01*
Y160374D01*
X44514Y159118D01*
X45164Y157992D01*
X46083Y157073D01*
X47208Y156423D01*
X48464Y156087D01*
X49764D01*
X51020Y156423D01*
X52145Y157073D01*
X53065Y157992D01*
X53715Y159118D01*
X54051Y160374D01*
Y161674D01*
X53715Y162929D01*
X53065Y164055D01*
X52145Y164974D01*
X51020Y165624D01*
X49764Y165961D01*
D02*
G37*
G36*
X62337Y157928D02*
X61581D01*
X60883Y157639D01*
X60349Y157105D01*
X60059Y156406D01*
Y155650D01*
X60349Y154952D01*
X60883Y154418D01*
X61581Y154128D01*
X62337D01*
X63036Y154418D01*
X63570Y154952D01*
X63859Y155650D01*
Y156406D01*
X63570Y157105D01*
X63036Y157639D01*
X62337Y157928D01*
D02*
G37*
G36*
X94893Y125937D02*
X94137D01*
X93439Y125647D01*
X92904Y125113D01*
X92615Y124415D01*
Y123659D01*
X92904Y122960D01*
X93439Y122426D01*
X94137Y122137D01*
X94893D01*
X95591Y122426D01*
X96126Y122960D01*
X96415Y123659D01*
Y124415D01*
X96126Y125113D01*
X95591Y125647D01*
X94893Y125937D01*
D02*
G37*
G36*
X83842Y112924D02*
X83087D01*
X82388Y112634D01*
X81854Y112100D01*
X81565Y111401D01*
Y110646D01*
X81854Y109947D01*
X82388Y109413D01*
X83087Y109124D01*
X83842D01*
X84541Y109413D01*
X85075Y109947D01*
X85365Y110646D01*
Y111401D01*
X85075Y112100D01*
X84541Y112634D01*
X83842Y112924D01*
D02*
G37*
G36*
X98914Y97963D02*
X98158D01*
X97460Y97674D01*
X96925Y97139D01*
X96636Y96441D01*
Y95685D01*
X96925Y94987D01*
X97460Y94452D01*
X98158Y94163D01*
X98914D01*
X99612Y94452D01*
X100147Y94987D01*
X100436Y95685D01*
Y96441D01*
X100147Y97139D01*
X99612Y97674D01*
X98914Y97963D01*
D02*
G37*
G36*
X49764Y80724D02*
X48464D01*
X47208Y80388D01*
X46083Y79738D01*
X45164Y78819D01*
X44514Y77693D01*
X44177Y76437D01*
Y75137D01*
X44514Y73882D01*
X45164Y72756D01*
X46083Y71837D01*
X47208Y71187D01*
X48464Y70850D01*
X49764D01*
X51020Y71187D01*
X52145Y71837D01*
X53065Y72756D01*
X53715Y73882D01*
X54051Y75137D01*
Y76437D01*
X53715Y77693D01*
X53065Y78819D01*
X52145Y79738D01*
X51020Y80388D01*
X49764Y80724D01*
D02*
G37*
G36*
X62436Y73278D02*
X61680D01*
X60982Y72989D01*
X60447Y72454D01*
X60158Y71756D01*
Y71000D01*
X60447Y70302D01*
X60982Y69767D01*
X61680Y69478D01*
X62436D01*
X63134Y69767D01*
X63669Y70302D01*
X63958Y71000D01*
Y71756D01*
X63669Y72454D01*
X63134Y72989D01*
X62436Y73278D01*
D02*
G37*
G36*
X309315Y76947D02*
X306271D01*
X306504Y76076D01*
X306972Y75266D01*
X307633Y74604D01*
X308444Y74137D01*
X309315Y73903D01*
Y76947D01*
D02*
G37*
G36*
X234816D02*
X231772D01*
Y73903D01*
X232643Y74137D01*
X233453Y74604D01*
X234115Y75266D01*
X234582Y76076D01*
X234816Y76947D01*
D02*
G37*
G36*
X242307Y77687D02*
X241551D01*
X240853Y77398D01*
X240318Y76864D01*
X240029Y76165D01*
Y75410D01*
X240318Y74711D01*
X240853Y74177D01*
X241551Y73887D01*
X242307D01*
X243005Y74177D01*
X243540Y74711D01*
X243829Y75410D01*
Y76165D01*
X243540Y76864D01*
X243005Y77398D01*
X242307Y77687D01*
D02*
G37*
G36*
X267898Y75916D02*
X267142D01*
X266443Y75626D01*
X265909Y75092D01*
X265620Y74394D01*
Y73638D01*
X265909Y72939D01*
X266443Y72405D01*
X267142Y72116D01*
X267246D01*
Y72012D01*
X267535Y71313D01*
X268070Y70779D01*
X268768Y70489D01*
X269524D01*
X270222Y70779D01*
X270757Y71313D01*
X270927Y71725D01*
X271468D01*
X271618Y71365D01*
X272152Y70830D01*
X272850Y70541D01*
X273606D01*
X274305Y70830D01*
X274378Y70904D01*
X274452Y70830D01*
X275150Y70541D01*
X275906D01*
X276605Y70830D01*
X277072Y71298D01*
X277362Y71336D01*
X277653Y71298D01*
X278120Y70830D01*
X278818Y70541D01*
X279574D01*
X280272Y70830D01*
X280346Y70904D01*
X280420Y70830D01*
X281118Y70541D01*
X281874D01*
X282572Y70830D01*
X283107Y71365D01*
X283116Y71387D01*
X283616D01*
X283626Y71365D01*
X284160Y70830D01*
X284858Y70541D01*
X285614D01*
X286313Y70830D01*
X286386Y70904D01*
X286460Y70830D01*
X287158Y70541D01*
X287914D01*
X288613Y70830D01*
X288945Y71163D01*
X289272Y71309D01*
X289598Y71163D01*
X289931Y70830D01*
X290629Y70541D01*
X291385D01*
X292083Y70830D01*
X292157Y70904D01*
X292231Y70830D01*
X292929Y70541D01*
X293685D01*
X294383Y70830D01*
X294918Y71365D01*
X295207Y72063D01*
Y72819D01*
X294918Y73517D01*
X294383Y74052D01*
X293685Y74341D01*
X292929D01*
X292231Y74052D01*
X292157Y73978D01*
X292083Y74052D01*
X291385Y74341D01*
X290629D01*
X289931Y74052D01*
X289598Y73719D01*
X289272Y73573D01*
X288945Y73719D01*
X288613Y74052D01*
X287914Y74341D01*
X287158D01*
X286460Y74052D01*
X286386Y73978D01*
X286313Y74052D01*
X285614Y74341D01*
X284858D01*
X284160Y74052D01*
X283626Y73517D01*
X283616Y73495D01*
X283116D01*
X283107Y73517D01*
X282572Y74052D01*
X281874Y74341D01*
X281118D01*
X280420Y74052D01*
X280346Y73978D01*
X280272Y74052D01*
X279574Y74341D01*
X278818D01*
X278120Y74052D01*
X277653Y73584D01*
X277362Y73546D01*
X277072Y73584D01*
X276605Y74052D01*
X275906Y74341D01*
X275150D01*
X274452Y74052D01*
X274378Y73978D01*
X274305Y74052D01*
X273606Y74341D01*
X272850D01*
X272152Y74052D01*
X271618Y73517D01*
X271447Y73106D01*
X270906D01*
X270757Y73466D01*
X270222Y74000D01*
X269524Y74289D01*
X269420D01*
Y74394D01*
X269130Y75092D01*
X268596Y75626D01*
X267898Y75916D01*
D02*
G37*
G36*
X304528Y73526D02*
X303487D01*
X302482Y73257D01*
X301581Y72736D01*
X300845Y72000D01*
X300325Y71099D01*
X300055Y70094D01*
Y69053D01*
X300325Y68048D01*
X300845Y67146D01*
X301581Y66410D01*
X302482Y65890D01*
X303487Y65621D01*
X304528D01*
X305534Y65890D01*
X306435Y66410D01*
X307171Y67146D01*
X307691Y68048D01*
X307961Y69053D01*
Y70094D01*
X307691Y71099D01*
X307171Y72000D01*
X306435Y72736D01*
X305534Y73257D01*
X304528Y73526D01*
D02*
G37*
G36*
X237599D02*
X236558D01*
X235553Y73257D01*
X234652Y72736D01*
X233916Y72000D01*
X233395Y71099D01*
X233126Y70094D01*
Y69053D01*
X233395Y68048D01*
X233916Y67146D01*
X234652Y66410D01*
X235553Y65890D01*
X236558Y65621D01*
X237599D01*
X238604Y65890D01*
X239506Y66410D01*
X240242Y67146D01*
X240762Y68048D01*
X241032Y69053D01*
Y70094D01*
X240762Y71099D01*
X240242Y72000D01*
X239506Y72736D01*
X238604Y73257D01*
X237599Y73526D01*
D02*
G37*
%LPD*%
D13*
X52953Y49409D02*
X57087Y53543D01*
X122047D02*
X125197Y56693D01*
X57087Y53543D02*
X122047D01*
X52953Y35827D02*
Y49409D01*
X46063Y28937D02*
X52953Y35827D01*
D135*
X231272Y77447D02*
D03*
X309815D02*
D03*
D142*
X336811Y168504D02*
D03*
X248425Y264764D02*
D03*
X303346Y49016D02*
D03*
X296063D02*
D03*
X242717Y54134D02*
D03*
X234646Y46654D02*
D03*
X280315Y49016D02*
D03*
X256496Y56299D02*
D03*
X303150Y23819D02*
D03*
X296260D02*
D03*
X287598D02*
D03*
X280709D02*
D03*
X271654D02*
D03*
X264961D02*
D03*
X254528Y24016D02*
D03*
X233465D02*
D03*
X245079D02*
D03*
X288583Y41142D02*
D03*
X273228D02*
D03*
X256890Y37205D02*
D03*
X242717D02*
D03*
X321850Y141929D02*
D03*
X309055Y25197D02*
D03*
X330646Y194060D02*
D03*
X332597Y188072D02*
D03*
X336417Y178150D02*
D03*
X321850Y168307D02*
D03*
X339764Y380118D02*
D03*
X276969Y339764D02*
D03*
Y350590D02*
D03*
X330906Y300590D02*
D03*
X314961D02*
D03*
X234055Y262205D02*
D03*
X230512Y259055D02*
D03*
X227165Y262205D02*
D03*
X241929Y284842D02*
D03*
X216339Y276181D02*
D03*
X314764Y126575D02*
D03*
X311221Y128937D02*
D03*
X294094Y126969D02*
D03*
X336417Y121063D02*
D03*
X345213Y119257D02*
D03*
X336417Y111221D02*
D03*
X345213Y109415D02*
D03*
X336417Y107283D02*
D03*
X210433Y115157D02*
D03*
X219228Y113352D02*
D03*
X210433Y109252D02*
D03*
X219228Y107446D02*
D03*
X204661D02*
D03*
Y111383D02*
D03*
X195866Y109252D02*
D03*
Y113189D02*
D03*
X210236Y126575D02*
D03*
X249016Y336614D02*
D03*
X259252Y339173D02*
D03*
Y354921D02*
D03*
X216732Y365748D02*
D03*
X125197Y56693D02*
D03*
X46063Y28937D02*
D03*
X206102Y39961D02*
D03*
X202953Y36614D02*
D03*
X206102Y33071D02*
D03*
X334252Y362205D02*
D03*
X336221Y360236D02*
D03*
X334252Y358268D02*
D03*
X315854Y182665D02*
D03*
X262795Y72835D02*
D03*
X255800Y70229D02*
D03*
X271260Y70866D02*
D03*
X277362D02*
D03*
X283465D02*
D03*
X289338Y70858D02*
D03*
X295304Y70876D02*
D03*
X265582Y75590D02*
D03*
X81299Y386024D02*
D03*
X146457D02*
D03*
X146260Y133858D02*
D03*
X298425Y191929D02*
D03*
X294488Y188386D02*
D03*
X336024Y185433D02*
D03*
X331102Y180709D02*
D03*
X321063Y177658D02*
D03*
X331693Y162992D02*
D03*
X293707Y283585D02*
D03*
X146653Y304437D02*
D03*
X146234Y219796D02*
D03*
X165059Y132087D02*
D03*
X164961Y216737D02*
D03*
Y301378D02*
D03*
Y386024D02*
D03*
X56054Y141462D02*
D03*
Y149336D02*
D03*
X63928Y141462D02*
D03*
X65699Y145398D02*
D03*
X71802Y141462D02*
D03*
X56054Y157210D02*
D03*
X109597Y141462D02*
D03*
X117471D02*
D03*
X93849D02*
D03*
X85975D02*
D03*
X61369Y203076D02*
D03*
X64322D02*
D03*
X56054Y213312D02*
D03*
X63928D02*
D03*
X67274Y203076D02*
D03*
X70227D02*
D03*
X73180D02*
D03*
X71802Y213312D02*
D03*
X56054Y197564D02*
D03*
Y205438D02*
D03*
X109587Y213488D02*
D03*
X117461D02*
D03*
X85581Y205635D02*
D03*
X85965Y213488D02*
D03*
X93839D02*
D03*
X56005Y181324D02*
D03*
Y173450D02*
D03*
X152454Y209060D02*
D03*
X154626D02*
D03*
X140503Y173351D02*
D03*
X153298Y156816D02*
D03*
X108908Y193332D02*
D03*
X106448Y195792D02*
D03*
X103298Y199139D02*
D03*
X99558Y202879D02*
D03*
X118062Y201107D02*
D03*
X78495Y206619D02*
D03*
X122539Y181697D02*
D03*
X81201Y217131D02*
D03*
X116093Y173548D02*
D03*
X102707Y195832D02*
D03*
X130413Y181697D02*
D03*
X56005Y258091D02*
D03*
Y265965D02*
D03*
X85581Y290276D02*
D03*
X85965Y298129D02*
D03*
X93839D02*
D03*
X109587D02*
D03*
X117461D02*
D03*
X56054Y282205D02*
D03*
X61369Y287717D02*
D03*
X56054Y290079D02*
D03*
X67274Y287717D02*
D03*
X64322D02*
D03*
X73180D02*
D03*
X70227D02*
D03*
X56054Y297953D02*
D03*
X63928D02*
D03*
X71802D02*
D03*
X85975Y226103D02*
D03*
X93849D02*
D03*
X109597D02*
D03*
X117471D02*
D03*
X56054D02*
D03*
Y233977D02*
D03*
Y241851D02*
D03*
X65699Y230040D02*
D03*
X63928Y226103D02*
D03*
X71802D02*
D03*
X152454Y293701D02*
D03*
X154626D02*
D03*
X140503Y257992D02*
D03*
X153298Y241457D02*
D03*
X106448Y280433D02*
D03*
X108908Y277973D02*
D03*
X99558Y287520D02*
D03*
X103298Y283780D02*
D03*
X118062Y285748D02*
D03*
X78495Y291260D02*
D03*
X122539Y266339D02*
D03*
X81201Y301772D02*
D03*
X116093Y258189D02*
D03*
X102707Y280473D02*
D03*
X130413Y266339D02*
D03*
Y350984D02*
D03*
X102707Y365118D02*
D03*
X116093Y342835D02*
D03*
X122539Y350984D02*
D03*
X78495Y375906D02*
D03*
X118062Y370394D02*
D03*
X99558Y372166D02*
D03*
X103298Y368425D02*
D03*
X108908Y362618D02*
D03*
X106448Y365079D02*
D03*
X153298Y326103D02*
D03*
X140503Y342638D02*
D03*
X154626Y378346D02*
D03*
X152454D02*
D03*
X56005Y342737D02*
D03*
Y350610D02*
D03*
X93839Y382775D02*
D03*
X85965D02*
D03*
X85581Y374921D02*
D03*
X117461Y382775D02*
D03*
X109587D02*
D03*
X56054Y374725D02*
D03*
Y366851D02*
D03*
X71802Y382599D02*
D03*
X73180Y372362D02*
D03*
X70227D02*
D03*
X67274D02*
D03*
X63928Y382599D02*
D03*
X56054D02*
D03*
X64322Y372362D02*
D03*
X61369D02*
D03*
X93849Y310748D02*
D03*
X85975D02*
D03*
X117471D02*
D03*
X109597D02*
D03*
X56054Y326496D02*
D03*
Y318622D02*
D03*
X71802Y310748D02*
D03*
X65699Y314685D02*
D03*
X63928Y310748D02*
D03*
X56054D02*
D03*
X81299Y132480D02*
D03*
X154724Y124409D02*
D03*
X152552D02*
D03*
X130512Y97047D02*
D03*
X122638D02*
D03*
X109695Y56811D02*
D03*
X93937Y128838D02*
D03*
X56152Y120788D02*
D03*
X117559Y128838D02*
D03*
X109685D02*
D03*
X56103Y96674D02*
D03*
X56152Y64685D02*
D03*
X64026Y128662D02*
D03*
X56152Y56811D02*
D03*
X86063Y128838D02*
D03*
X71900Y128662D02*
D03*
X56103Y88800D02*
D03*
X64026Y56811D02*
D03*
X117569D02*
D03*
X56152Y128662D02*
D03*
Y72559D02*
D03*
X86073Y56811D02*
D03*
X71900D02*
D03*
X93947D02*
D03*
X56152Y112914D02*
D03*
X61467Y118425D02*
D03*
X73278D02*
D03*
X67373D02*
D03*
X70325D02*
D03*
X65798Y60748D02*
D03*
X78593Y121969D02*
D03*
X64420Y118425D02*
D03*
X85680Y120984D02*
D03*
X153396Y72166D02*
D03*
X116192Y88898D02*
D03*
X140601Y88701D02*
D03*
X109007Y108681D02*
D03*
X103396Y114488D02*
D03*
X102806Y111181D02*
D03*
X99656Y118229D02*
D03*
X106546Y111142D02*
D03*
X118160Y116457D02*
D03*
M02*
