G04*
G04 #@! TF.GenerationSoftware,Altium Limited,Altium Designer,21.0.9 (235)*
G04*
G04 Layer_Color=65535*
%FSLAX25Y25*%
%MOIN*%
G70*
G04*
G04 #@! TF.SameCoordinates,6D45A94B-17CC-4D83-881B-F394DC7C88B3*
G04*
G04*
G04 #@! TF.FilePolarity,Positive*
G04*
G01*
G75*
%ADD10C,0.00394*%
%ADD11C,0.00984*%
%ADD12C,0.01575*%
%ADD13C,0.01000*%
%ADD14C,0.02362*%
%ADD15C,0.00610*%
%ADD16C,0.00787*%
%ADD17C,0.00591*%
G36*
X194933Y107460D02*
Y106953D01*
X192236D01*
Y106248D01*
X191701D01*
Y108388D01*
X192236D01*
Y107570D01*
X194294D01*
X193907Y108285D01*
X194398Y108481D01*
X194933Y107460D01*
D02*
G37*
G36*
X222990Y108451D02*
X223012Y108424D01*
X223050Y108380D01*
X223094Y108326D01*
X223143Y108255D01*
X223192Y108178D01*
X223247Y108085D01*
X223291Y107993D01*
Y107987D01*
X223296Y107982D01*
X223302Y107965D01*
X223307Y107949D01*
X223329Y107894D01*
X223351Y107823D01*
X223373Y107736D01*
X223394Y107643D01*
X223405Y107539D01*
X223411Y107425D01*
Y107387D01*
X223405Y107343D01*
Y107283D01*
X223394Y107217D01*
X223383Y107146D01*
X223367Y107070D01*
X223345Y106999D01*
Y106988D01*
X223334Y106966D01*
X223318Y106933D01*
X223302Y106884D01*
X223274Y106835D01*
X223241Y106781D01*
X223209Y106726D01*
X223165Y106671D01*
X223160Y106666D01*
X223143Y106649D01*
X223121Y106622D01*
X223083Y106595D01*
X223045Y106557D01*
X222990Y106524D01*
X222936Y106491D01*
X222870Y106458D01*
X222865Y106453D01*
X222837Y106447D01*
X222805Y106437D01*
X222756Y106420D01*
X222695Y106404D01*
X222624Y106393D01*
X222548Y106387D01*
X222466Y106382D01*
X222455D01*
X222433D01*
X222395D01*
X222352Y106387D01*
X222297Y106393D01*
X222231Y106404D01*
X222106Y106437D01*
X222100D01*
X222078Y106447D01*
X222046Y106458D01*
X222002Y106475D01*
X221953Y106497D01*
X221898Y106518D01*
X221784Y106584D01*
X221778Y106589D01*
X221756Y106600D01*
X221729Y106622D01*
X221685Y106649D01*
X221642Y106688D01*
X221587Y106731D01*
X221533Y106775D01*
X221472Y106830D01*
X221467Y106835D01*
X221445Y106857D01*
X221412Y106884D01*
X221374Y106922D01*
X221320Y106972D01*
X221265Y107026D01*
X221205Y107092D01*
X221139Y107157D01*
X220697Y107621D01*
Y106267D01*
X220146D01*
Y108446D01*
X220583D01*
X221347Y107692D01*
X221358Y107681D01*
X221385Y107654D01*
X221423Y107616D01*
X221472Y107567D01*
X221533Y107512D01*
X221593Y107457D01*
X221653Y107397D01*
X221713Y107348D01*
X221718Y107343D01*
X221740Y107326D01*
X221767Y107305D01*
X221806Y107272D01*
X221849Y107245D01*
X221893Y107212D01*
X221942Y107179D01*
X221986Y107152D01*
X221991Y107146D01*
X222007Y107141D01*
X222029Y107130D01*
X222062Y107114D01*
X222133Y107081D01*
X222215Y107059D01*
X222220D01*
X222231Y107053D01*
X222253Y107048D01*
X222281Y107043D01*
X222352Y107037D01*
X222428Y107032D01*
X222433D01*
X222444D01*
X222461D01*
X222482Y107037D01*
X222543Y107043D01*
X222603Y107064D01*
X222608D01*
X222619Y107070D01*
X222652Y107086D01*
X222695Y107114D01*
X222745Y107152D01*
X222750D01*
X222756Y107163D01*
X222777Y107190D01*
X222810Y107234D01*
X222837Y107294D01*
Y107299D01*
X222843Y107310D01*
X222848Y107326D01*
X222859Y107348D01*
X222870Y107414D01*
X222876Y107490D01*
Y107523D01*
X222870Y107556D01*
X222865Y107605D01*
X222854Y107660D01*
X222843Y107714D01*
X222821Y107780D01*
X222794Y107840D01*
X222788Y107845D01*
X222777Y107867D01*
X222761Y107900D01*
X222734Y107938D01*
X222706Y107987D01*
X222668Y108036D01*
X222624Y108091D01*
X222575Y108145D01*
X222979Y108462D01*
X222990Y108451D01*
D02*
G37*
G36*
X299499Y57608D02*
X300203D01*
Y57073D01*
X298063D01*
Y57608D01*
X298882D01*
Y59667D01*
X298167Y59279D01*
X297970Y59771D01*
X298991Y60306D01*
X299499D01*
Y57608D01*
D02*
G37*
G36*
X299108Y88778D02*
X299168D01*
X299234Y88767D01*
X299305Y88756D01*
X299381Y88740D01*
X299452Y88718D01*
X299463D01*
X299485Y88707D01*
X299518Y88691D01*
X299567Y88674D01*
X299616Y88647D01*
X299671Y88614D01*
X299725Y88581D01*
X299780Y88538D01*
X299785Y88532D01*
X299802Y88516D01*
X299829Y88494D01*
X299856Y88456D01*
X299895Y88418D01*
X299927Y88363D01*
X299960Y88308D01*
X299993Y88243D01*
X299998Y88237D01*
X300004Y88210D01*
X300015Y88177D01*
X300031Y88128D01*
X300048Y88068D01*
X300059Y87997D01*
X300064Y87921D01*
X300069Y87839D01*
Y87828D01*
Y87806D01*
Y87768D01*
X300064Y87724D01*
X300059Y87669D01*
X300048Y87604D01*
X300015Y87478D01*
Y87473D01*
X300004Y87451D01*
X299993Y87418D01*
X299977Y87375D01*
X299955Y87326D01*
X299933Y87271D01*
X299867Y87156D01*
X299862Y87151D01*
X299851Y87129D01*
X299829Y87102D01*
X299802Y87058D01*
X299764Y87014D01*
X299720Y86960D01*
X299676Y86905D01*
X299622Y86845D01*
X299616Y86840D01*
X299594Y86818D01*
X299567Y86785D01*
X299529Y86747D01*
X299480Y86692D01*
X299425Y86638D01*
X299360Y86577D01*
X299294Y86512D01*
X298830Y86070D01*
X300184D01*
Y85518D01*
X298006D01*
Y85955D01*
X298759Y86720D01*
X298770Y86730D01*
X298797Y86758D01*
X298835Y86796D01*
X298885Y86845D01*
X298939Y86905D01*
X298994Y86965D01*
X299054Y87025D01*
X299103Y87085D01*
X299108Y87091D01*
X299125Y87113D01*
X299147Y87140D01*
X299179Y87178D01*
X299207Y87222D01*
X299239Y87265D01*
X299272Y87315D01*
X299300Y87358D01*
X299305Y87364D01*
X299310Y87380D01*
X299321Y87402D01*
X299338Y87435D01*
X299371Y87506D01*
X299392Y87588D01*
Y87593D01*
X299398Y87604D01*
X299403Y87626D01*
X299409Y87653D01*
X299414Y87724D01*
X299420Y87801D01*
Y87806D01*
Y87817D01*
Y87833D01*
X299414Y87855D01*
X299409Y87915D01*
X299387Y87975D01*
Y87981D01*
X299381Y87992D01*
X299365Y88024D01*
X299338Y88068D01*
X299300Y88117D01*
Y88123D01*
X299289Y88128D01*
X299261Y88150D01*
X299218Y88183D01*
X299158Y88210D01*
X299152D01*
X299141Y88216D01*
X299125Y88221D01*
X299103Y88232D01*
X299038Y88243D01*
X298961Y88248D01*
X298928D01*
X298896Y88243D01*
X298846Y88237D01*
X298792Y88226D01*
X298737Y88216D01*
X298672Y88194D01*
X298612Y88166D01*
X298606Y88161D01*
X298584Y88150D01*
X298552Y88134D01*
X298513Y88106D01*
X298464Y88079D01*
X298415Y88041D01*
X298360Y87997D01*
X298306Y87948D01*
X297989Y88352D01*
X298000Y88363D01*
X298027Y88385D01*
X298071Y88423D01*
X298126Y88467D01*
X298197Y88516D01*
X298273Y88565D01*
X298366Y88620D01*
X298459Y88663D01*
X298464D01*
X298470Y88669D01*
X298486Y88674D01*
X298502Y88680D01*
X298557Y88701D01*
X298628Y88723D01*
X298715Y88745D01*
X298808Y88767D01*
X298912Y88778D01*
X299026Y88783D01*
X299065D01*
X299108Y88778D01*
D02*
G37*
G36*
X348975Y108451D02*
X348996Y108424D01*
X349035Y108380D01*
X349078Y108326D01*
X349128Y108255D01*
X349177Y108178D01*
X349231Y108085D01*
X349275Y107993D01*
Y107987D01*
X349280Y107982D01*
X349286Y107965D01*
X349291Y107949D01*
X349313Y107894D01*
X349335Y107823D01*
X349357Y107736D01*
X349379Y107643D01*
X349390Y107539D01*
X349395Y107425D01*
Y107387D01*
X349390Y107343D01*
Y107283D01*
X349379Y107217D01*
X349368Y107146D01*
X349351Y107070D01*
X349329Y106999D01*
Y106988D01*
X349319Y106966D01*
X349302Y106933D01*
X349286Y106884D01*
X349258Y106835D01*
X349226Y106781D01*
X349193Y106726D01*
X349149Y106671D01*
X349144Y106666D01*
X349128Y106649D01*
X349106Y106622D01*
X349067Y106595D01*
X349029Y106557D01*
X348975Y106524D01*
X348920Y106491D01*
X348854Y106458D01*
X348849Y106453D01*
X348822Y106447D01*
X348789Y106437D01*
X348740Y106420D01*
X348680Y106404D01*
X348609Y106393D01*
X348532Y106387D01*
X348450Y106382D01*
X348440D01*
X348418D01*
X348379D01*
X348336Y106387D01*
X348281Y106393D01*
X348216Y106404D01*
X348090Y106437D01*
X348085D01*
X348063Y106447D01*
X348030Y106458D01*
X347986Y106475D01*
X347937Y106497D01*
X347883Y106518D01*
X347768Y106584D01*
X347762Y106589D01*
X347741Y106600D01*
X347713Y106622D01*
X347670Y106649D01*
X347626Y106688D01*
X347571Y106731D01*
X347517Y106775D01*
X347457Y106830D01*
X347451Y106835D01*
X347429Y106857D01*
X347397Y106884D01*
X347358Y106922D01*
X347304Y106972D01*
X347249Y107026D01*
X347189Y107092D01*
X347124Y107157D01*
X346681Y107621D01*
Y106267D01*
X346130D01*
Y108446D01*
X346567D01*
X347331Y107692D01*
X347342Y107681D01*
X347369Y107654D01*
X347408Y107616D01*
X347457Y107567D01*
X347517Y107512D01*
X347577Y107457D01*
X347637Y107397D01*
X347697Y107348D01*
X347702Y107343D01*
X347724Y107326D01*
X347751Y107305D01*
X347790Y107272D01*
X347833Y107245D01*
X347877Y107212D01*
X347926Y107179D01*
X347970Y107152D01*
X347975Y107146D01*
X347992Y107141D01*
X348014Y107130D01*
X348046Y107114D01*
X348117Y107081D01*
X348199Y107059D01*
X348205D01*
X348216Y107053D01*
X348237Y107048D01*
X348265Y107043D01*
X348336Y107037D01*
X348412Y107032D01*
X348418D01*
X348429D01*
X348445D01*
X348467Y107037D01*
X348527Y107043D01*
X348587Y107064D01*
X348592D01*
X348603Y107070D01*
X348636Y107086D01*
X348680Y107114D01*
X348729Y107152D01*
X348734D01*
X348740Y107163D01*
X348762Y107190D01*
X348794Y107234D01*
X348822Y107294D01*
Y107299D01*
X348827Y107310D01*
X348833Y107326D01*
X348844Y107348D01*
X348854Y107414D01*
X348860Y107490D01*
Y107523D01*
X348854Y107556D01*
X348849Y107605D01*
X348838Y107660D01*
X348827Y107714D01*
X348805Y107780D01*
X348778Y107840D01*
X348773Y107845D01*
X348762Y107867D01*
X348745Y107900D01*
X348718Y107938D01*
X348691Y107987D01*
X348652Y108036D01*
X348609Y108091D01*
X348560Y108145D01*
X348964Y108462D01*
X348975Y108451D01*
D02*
G37*
G36*
X320917Y107460D02*
Y106953D01*
X318220D01*
Y106248D01*
X317685D01*
Y108388D01*
X318220D01*
Y107570D01*
X320279D01*
X319891Y108285D01*
X320382Y108481D01*
X320917Y107460D01*
D02*
G37*
D10*
X328051Y363799D02*
G03*
X328051Y363799I-197J0D01*
G01*
X232959Y285109D02*
G03*
X232959Y285109I-197J0D01*
G01*
X293408Y373955D02*
G03*
X293408Y373955I-197J0D01*
G01*
X215815Y92109D02*
G03*
X219358Y95652I0J3543D01*
G01*
X195736D02*
G03*
X199279Y92109I3543J0D01*
G01*
Y219077D02*
G03*
X195736Y215534I0J-3543D01*
G01*
X219358D02*
G03*
X215815Y219077I-3543J0D01*
G01*
X226744Y64652D02*
G03*
X230287Y61109I3543J0D01*
G01*
Y84731D02*
G03*
X226744Y81188I0J-3543D01*
G01*
X314342D02*
G03*
X310799Y84731I-3543J0D01*
G01*
Y61109D02*
G03*
X314342Y64652I0J3543D01*
G01*
X345342Y215534D02*
G03*
X341799Y219077I-3543J0D01*
G01*
X325264D02*
G03*
X321721Y215534I0J-3543D01*
G01*
Y95652D02*
G03*
X325264Y92109I3543J0D01*
G01*
X341799D02*
G03*
X345342Y95652I0J3543D01*
G01*
X324488Y374823D02*
X326476D01*
X324488Y363799D02*
X326476D01*
X316240Y374823D02*
X318228D01*
X316240Y363799D02*
X318228D01*
X232763Y281743D02*
Y283732D01*
Y273495D02*
Y275483D01*
X221739Y281743D02*
Y283732D01*
Y273495D02*
Y275483D01*
X199279Y92109D02*
X215815D01*
X195736Y95652D02*
Y215534D01*
X199279Y219077D02*
X215815D01*
X219358Y95652D02*
Y215534D01*
X40157Y32283D02*
Y34646D01*
X31496Y32283D02*
Y34646D01*
X40157Y34646D01*
X31496Y32283D02*
X40157Y32283D01*
X240907Y342206D02*
X249569D01*
X240907D02*
Y354017D01*
X249569Y354017D02*
X249569Y342206D01*
X240907Y354017D02*
X249569Y354017D01*
X263162Y264370D02*
X264835D01*
X263162D02*
Y266043D01*
Y291437D02*
Y293110D01*
X264835D01*
X291902Y264370D02*
Y266043D01*
X290229Y264370D02*
X291902D01*
X290229Y293110D02*
X291902D01*
Y291437D02*
Y293110D01*
X311281Y267499D02*
X330966D01*
X311281Y295058D02*
X330966D01*
X102510Y197170D02*
X113140D01*
Y199139D01*
Y207013D02*
Y208981D01*
X102510D02*
X113140D01*
X111417Y154335D02*
Y155123D01*
X113386Y157091D01*
X111417Y146461D02*
Y147249D01*
Y146461D02*
X113386Y144493D01*
X114173D01*
X129528D01*
X113386Y157091D02*
X129528D01*
Y154335D02*
Y157091D01*
Y144493D02*
Y147249D01*
X102510Y366457D02*
X113140D01*
Y368425D01*
Y376299D02*
Y378268D01*
X102510D02*
X113140D01*
X111417Y323622D02*
Y324410D01*
X113386Y326378D01*
X111417Y315748D02*
Y316535D01*
Y315748D02*
X113386Y313779D01*
X114173D01*
X129528D01*
X113386Y326378D02*
X129528D01*
Y323622D02*
Y326378D01*
Y313779D02*
Y316535D01*
X226744Y64652D02*
Y81188D01*
X230287Y84731D02*
X310799D01*
X314342Y64652D02*
Y81188D01*
X230287Y61109D02*
X310799D01*
X345342Y95652D02*
Y215534D01*
X325264Y219077D02*
X341799D01*
X321721Y95652D02*
Y215534D01*
X325264Y92109D02*
X341799D01*
X102510Y293622D02*
X113140D01*
Y291654D02*
Y293622D01*
Y281811D02*
Y283780D01*
X102510Y281811D02*
X113140D01*
X111516Y69685D02*
Y70473D01*
X113484Y72441D01*
X111516Y61811D02*
Y62598D01*
Y61811D02*
X113484Y59842D01*
X114272D01*
X129626D01*
X113484Y72441D02*
X129626D01*
Y69685D02*
Y72441D01*
Y59842D02*
Y62598D01*
X102609Y112520D02*
X113239Y112520D01*
Y114488D01*
Y122362D02*
Y124331D01*
X102609Y124331D02*
X113239Y124331D01*
X129528Y229134D02*
Y231890D01*
Y238976D02*
Y241732D01*
X113386D02*
X129528D01*
X114173Y229134D02*
X129528D01*
X113386D02*
X114173D01*
X111417Y231102D02*
X113386Y229134D01*
X111417Y231102D02*
Y231890D01*
X111417Y239764D02*
X113386Y241732D01*
X111417Y238976D02*
Y239764D01*
X247244Y112205D02*
X267323D01*
X247244Y92126D02*
X267323D01*
X247244Y111417D02*
Y112205D01*
X267323Y111417D02*
Y112205D01*
X247244Y92126D02*
Y92913D01*
X267323Y92126D02*
Y92913D01*
X246850Y115748D02*
Y120866D01*
X253543Y115748D02*
Y120866D01*
D11*
X163239Y207997D02*
G03*
X163239Y207997I-492J0D01*
G01*
X41831Y37894D02*
G03*
X41831Y37894I-492J0D01*
G01*
X254391Y341320D02*
G03*
X254391Y341320I-492J0D01*
G01*
X345965Y267197D02*
G03*
X345965Y267197I-492J0D01*
G01*
X263316Y293504D02*
G03*
X263316Y293504I-492J0D01*
G01*
X158122Y164990D02*
G03*
X158122Y164990I-492J0D01*
G01*
X136665Y165029D02*
G03*
X136665Y165029I-492J0D01*
G01*
X137944Y207209D02*
G03*
X137944Y207209I-492J0D01*
G01*
X123524Y180910D02*
G03*
X123524Y180910I-492J0D01*
G01*
X163239Y377284D02*
G03*
X163239Y377284I-492J0D01*
G01*
X158122Y334277D02*
G03*
X158122Y334277I-492J0D01*
G01*
X136665Y334316D02*
G03*
X136665Y334316I-492J0D01*
G01*
X137944Y376496D02*
G03*
X137944Y376496I-492J0D01*
G01*
X123524Y350197D02*
G03*
X123524Y350197I-492J0D01*
G01*
X247342Y357480D02*
G03*
X247342Y357480I-492J0D01*
G01*
X163239Y292638D02*
G03*
X163239Y292638I-492J0D01*
G01*
X158122Y249631D02*
G03*
X158122Y249631I-492J0D01*
G01*
X123524Y265551D02*
G03*
X123524Y265551I-492J0D01*
G01*
X137944Y291851D02*
G03*
X137944Y291851I-492J0D01*
G01*
X136764Y80379D02*
G03*
X136764Y80379I-492J0D01*
G01*
X158221Y80340D02*
G03*
X158221Y80340I-492J0D01*
G01*
X123622Y96260D02*
G03*
X123622Y96260I-492J0D01*
G01*
X163337Y123347D02*
G03*
X163337Y123347I-492J0D01*
G01*
X138042Y122559D02*
G03*
X138042Y122559I-492J0D01*
G01*
X136665Y249670D02*
G03*
X136665Y249670I-492J0D01*
G01*
X299705Y120276D02*
G03*
X299705Y120276I-492J0D01*
G01*
X188976Y256869D02*
X352165D01*
X352165Y53916D01*
X188976D02*
X352165D01*
X188976Y256869D02*
X188976Y53916D01*
D12*
X247403Y345158D02*
G03*
X247403Y345158I-787J0D01*
G01*
X333328Y267499D02*
G03*
X333328Y267499I-394J0D01*
G01*
D13*
X62925Y159847D02*
G03*
X62925Y159847I-1114J0D01*
G01*
Y329134D02*
G03*
X62925Y329134I-1114J0D01*
G01*
X63023Y75197D02*
G03*
X63023Y75197I-1114J0D01*
G01*
X62925Y244488D02*
G03*
X62925Y244488I-1114J0D01*
G01*
X264037Y348112D02*
X269549D01*
X264037D02*
X264037Y350868D01*
X269549Y351655D02*
Y353230D01*
X264037Y356773D02*
X269549D01*
X264037Y354017D02*
Y356773D01*
X263939Y337284D02*
X269450Y337284D01*
X263939Y337284D02*
Y340040D01*
X269450Y340828D02*
Y342402D01*
X263939Y345946D02*
X269450D01*
X263939D02*
X263939Y343190D01*
X59055Y154335D02*
X74803D01*
X59055D02*
Y169296D01*
X74803D01*
Y154335D02*
Y169296D01*
X85483Y202780D02*
Y208292D01*
X82727Y202780D02*
X85483D01*
X76822D02*
Y208292D01*
Y202780D02*
X79577D01*
X80365Y208292D02*
X81940D01*
X106693Y161816D02*
Y165753D01*
Y153154D02*
Y157091D01*
X78347Y153154D02*
Y157091D01*
Y161816D02*
Y165753D01*
Y170477D02*
Y178351D01*
X106693Y170477D02*
Y178351D01*
X78347Y183075D02*
Y186619D01*
X106693D01*
Y183075D02*
Y186619D01*
X78347Y144887D02*
Y148430D01*
Y144887D02*
X106693D01*
Y148430D01*
X78740Y192131D02*
X84252D01*
X78740Y190162D02*
X79921D01*
X78740D02*
Y197249D01*
X79921D01*
X83071D02*
X84252D01*
Y190162D02*
Y197249D01*
X83071Y190162D02*
X84252D01*
X112205Y171855D02*
X117717D01*
X112205D02*
Y174611D01*
Y180516D02*
X117717D01*
X112205Y177761D02*
Y180516D01*
X117717Y175398D02*
Y176973D01*
X59055Y323622D02*
X74803D01*
X59055D02*
Y338583D01*
X74803D01*
Y323622D02*
Y338583D01*
X85483Y372067D02*
Y377579D01*
X82727Y372067D02*
X85483D01*
X76822D02*
Y377579D01*
Y372067D02*
X79577D01*
X80365Y377579D02*
X81940D01*
X106693Y331102D02*
Y335039D01*
Y322441D02*
Y326378D01*
X78347Y322441D02*
Y326378D01*
Y331102D02*
Y335039D01*
Y339764D02*
Y347638D01*
X106693Y339764D02*
Y347638D01*
X78347Y352362D02*
Y355906D01*
X106693D01*
Y352362D02*
Y355906D01*
X78347Y314173D02*
Y317717D01*
Y314173D02*
X106693D01*
Y317717D01*
X78740Y361417D02*
X84252D01*
X78740Y359449D02*
X79921D01*
X78740D02*
Y366535D01*
X79921D01*
X83071D02*
X84252D01*
Y359449D02*
Y366535D01*
X83071Y359449D02*
X84252D01*
X112205Y341142D02*
X117717D01*
X112205D02*
Y343898D01*
Y349803D02*
X117717D01*
X112205Y347047D02*
Y349803D01*
X117717Y344685D02*
Y346260D01*
X24705Y179921D02*
X34941D01*
X24705Y142126D02*
X34941D01*
X295D02*
X12106D01*
X295Y179921D02*
X12106D01*
X295Y142126D02*
Y179921D01*
Y56890D02*
Y94685D01*
X12106D01*
X295Y56890D02*
X12106D01*
X24705D02*
X34941D01*
X24705Y94685D02*
X34941D01*
X24705Y350394D02*
X34941D01*
X24705Y312598D02*
X34941D01*
X295D02*
X12106D01*
X295Y350394D02*
X12106D01*
X295Y312598D02*
Y350394D01*
X24705Y265158D02*
X34941D01*
X24705Y227362D02*
X34941D01*
X295D02*
X12106D01*
X295Y265158D02*
X12106D01*
X295Y227362D02*
Y265158D01*
X117717Y260039D02*
Y261614D01*
X112205Y262402D02*
Y265158D01*
X117717D01*
X112205Y256496D02*
Y259252D01*
Y256496D02*
X117717D01*
X106693Y229528D02*
Y233071D01*
X78347Y229528D02*
X106693D01*
X78347D02*
Y233071D01*
X106693Y267717D02*
Y271260D01*
X78347D02*
X106693D01*
X78347Y267717D02*
Y271260D01*
X106693Y255118D02*
Y262992D01*
X78347Y255118D02*
Y262992D01*
Y246457D02*
Y250394D01*
Y237795D02*
Y241732D01*
X106693Y237795D02*
Y241732D01*
Y246457D02*
Y250394D01*
X80365Y292933D02*
X81940D01*
X76822Y287421D02*
X79577D01*
X76822D02*
Y292933D01*
X82727Y287421D02*
X85483D01*
Y292933D01*
X83071Y274803D02*
X84252D01*
Y281890D01*
X83071D02*
X84252D01*
X78740D02*
X79921D01*
X78740Y274803D02*
Y281890D01*
Y274803D02*
X79921D01*
X78740Y276772D02*
X84252D01*
X78838Y107480D02*
X84350D01*
X78838Y105512D02*
X80020D01*
X78838D02*
Y112598D01*
X80020D01*
X83169D02*
X84350D01*
Y105512D02*
Y112598D01*
X83169Y105512D02*
X84350D01*
X80463Y123642D02*
X82038D01*
X76920Y118130D02*
X79676D01*
X76920D02*
Y123642D01*
X82825Y118130D02*
X85581D01*
Y123642D01*
X112303Y87205D02*
X117815D01*
X112303D02*
Y89961D01*
Y95866D02*
X117815D01*
X112303Y93110D02*
Y95866D01*
X117815Y90748D02*
Y92323D01*
X59153Y69685D02*
X74901D01*
X59153D02*
Y84646D01*
X74901D01*
Y69685D02*
Y84646D01*
X106791Y77165D02*
Y81102D01*
Y68504D02*
Y72441D01*
X78445Y68504D02*
Y72441D01*
Y77165D02*
Y81102D01*
Y85827D02*
Y93701D01*
X106791Y85827D02*
Y93701D01*
X78445Y98425D02*
Y101969D01*
X106791D01*
Y98425D02*
Y101969D01*
X78445Y60236D02*
Y63779D01*
Y60236D02*
X106791D01*
Y63779D01*
X74803Y238976D02*
Y253937D01*
X59055D02*
X74803D01*
X59055Y238976D02*
Y253937D01*
Y238976D02*
X74803D01*
D14*
X150445Y169931D02*
G03*
X150445Y169931I-1181J0D01*
G01*
X145721Y160088D02*
G03*
X145721Y160088I-1181J0D01*
G01*
X150445Y339217D02*
G03*
X150445Y339217I-1181J0D01*
G01*
X145721Y329375D02*
G03*
X145721Y329375I-1181J0D01*
G01*
X239665Y362421D02*
G03*
X239665Y362421I-1181J0D01*
G01*
X150445Y254572D02*
G03*
X150445Y254572I-1181J0D01*
G01*
X145819Y75438D02*
G03*
X145819Y75438I-1181J0D01*
G01*
X150543Y85281D02*
G03*
X150543Y85281I-1181J0D01*
G01*
X145721Y244729D02*
G03*
X145721Y244729I-1181J0D01*
G01*
D15*
X246063Y115354D02*
G03*
X246063Y115354I-295J0D01*
G01*
D16*
X146014Y201796D02*
Y205438D01*
X149656D01*
X146014Y188115D02*
Y191757D01*
Y188115D02*
X149656D01*
X159696D02*
X163337D01*
Y191757D01*
Y201796D02*
Y205438D01*
X159696D02*
X163337D01*
X283762Y364703D02*
Y366297D01*
Y371376D02*
Y372970D01*
X293211Y364703D02*
Y366297D01*
Y371376D02*
Y372970D01*
X338386Y268378D02*
X341929Y268378D01*
X341929Y280189D02*
X341929Y268378D01*
X338386Y268378D02*
Y280189D01*
X341929D01*
X140603Y185679D02*
X153201D01*
X140603Y165994D02*
X153201D01*
X140603D02*
Y185679D01*
X153201Y165994D02*
Y185679D01*
X140603Y144340D02*
X153201D01*
X140603Y164025D02*
X153201D01*
Y144340D02*
Y164025D01*
X140603Y144340D02*
Y164025D01*
X136172Y199729D02*
Y203666D01*
X133121Y199729D02*
X136172D01*
X124361D02*
Y203666D01*
Y199729D02*
X127412D01*
X114370Y190753D02*
Y193902D01*
X119488D01*
X114370Y182091D02*
Y185241D01*
Y182091D02*
X119488D01*
X73622Y193509D02*
Y203745D01*
X61024Y193509D02*
Y203745D01*
X146014Y371083D02*
Y374725D01*
X149656D01*
X146014Y357402D02*
Y361044D01*
Y357402D02*
X149656D01*
X159696D02*
X163337D01*
Y361044D01*
Y371083D02*
Y374725D01*
X159696D02*
X163337D01*
X140603Y354966D02*
X153201D01*
X140603Y335280D02*
X153201D01*
X140603D02*
Y354966D01*
X153201Y335280D02*
Y354966D01*
X140603Y313627D02*
X153201D01*
X140603Y333312D02*
X153201D01*
Y313627D02*
Y333312D01*
X140603Y313627D02*
Y333312D01*
X136172Y369016D02*
Y372953D01*
X133121Y369016D02*
X136172D01*
X124361D02*
Y372953D01*
Y369016D02*
X127412D01*
X114370Y360039D02*
Y363189D01*
X119488D01*
X114370Y351378D02*
Y354528D01*
Y351378D02*
X119488D01*
X73622Y362795D02*
Y373031D01*
X61024Y362795D02*
Y373031D01*
X229823Y358484D02*
X242421D01*
X229823D02*
Y378169D01*
X242421D01*
Y358484D02*
Y378169D01*
X159696Y290079D02*
X163337D01*
Y286437D02*
Y290079D01*
Y272756D02*
Y276398D01*
X159696Y272756D02*
X163337D01*
X146014D02*
X149656D01*
X146014D02*
Y276398D01*
Y290079D02*
X149656D01*
X146014Y286437D02*
Y290079D01*
X153201Y250635D02*
Y270320D01*
X140603Y250635D02*
Y270320D01*
Y250635D02*
X153201D01*
X140603Y270320D02*
X153201D01*
X114370Y266732D02*
X119488D01*
X114370D02*
Y269882D01*
Y278543D02*
X119488D01*
X114370Y275394D02*
Y278543D01*
X124361Y284370D02*
X127412D01*
X124361D02*
Y288307D01*
X133121Y284370D02*
X136172D01*
Y288307D01*
X61024Y278150D02*
Y288386D01*
X73622Y278150D02*
Y288386D01*
X140701Y59690D02*
X153299D01*
X140701Y79375D02*
X153299D01*
Y59690D02*
Y79375D01*
X140701Y59690D02*
Y79375D01*
X140701Y101029D02*
X153299D01*
X140701Y81344D02*
X153299D01*
X140701D02*
Y101029D01*
X153299Y81344D02*
Y101029D01*
X73720Y108858D02*
Y119095D01*
X61122Y108858D02*
Y119095D01*
X114469Y97441D02*
X119587D01*
X114469D02*
Y100591D01*
Y109252D02*
X119587D01*
X114469Y106102D02*
Y109252D01*
X159794Y120788D02*
X163436D01*
Y117146D02*
Y120788D01*
Y103465D02*
Y107106D01*
X159794Y103465D02*
X163436D01*
X146113D02*
X149755D01*
X146113D02*
Y107106D01*
Y120788D02*
X149755D01*
X146113Y117146D02*
Y120788D01*
X124459Y115079D02*
X127510D01*
X124459D02*
Y119016D01*
X133219Y115079D02*
X136270D01*
Y119016D01*
X140603Y228981D02*
Y248666D01*
X153201Y228981D02*
Y248666D01*
X140603D02*
X153201D01*
X140603Y228981D02*
X153201D01*
X302756Y119095D02*
X306299D01*
X302756Y107283D02*
X306299Y107283D01*
X302756Y107283D02*
X302756Y119095D01*
X306299Y107283D02*
Y119095D01*
D17*
X25827Y19213D02*
Y29213D01*
X5827D02*
X25827D01*
X5827Y19213D02*
Y29213D01*
Y19213D02*
X25827D01*
M02*
