G04*
G04 #@! TF.GenerationSoftware,Altium Limited,Altium Designer,23.11.1 (41)*
G04*
G04 Layer_Color=16711935*
%FSAX25Y25*%
%MOIN*%
G70*
G04*
G04 #@! TF.SameCoordinates,9C2D02B0-F215-45F0-B5E0-11D66DCE4299*
G04*
G04*
G04 #@! TF.FilePolarity,Negative*
G04*
G01*
G75*
%ADD71R,1.37008X0.23524*%
G04:AMPARAMS|DCode=73|XSize=26.62mil|YSize=26.62mil|CornerRadius=7.41mil|HoleSize=0mil|Usage=FLASHONLY|Rotation=270.000|XOffset=0mil|YOffset=0mil|HoleType=Round|Shape=RoundedRectangle|*
%AMROUNDEDRECTD73*
21,1,0.02662,0.01181,0,0,270.0*
21,1,0.01181,0.02662,0,0,270.0*
1,1,0.01481,-0.00591,-0.00591*
1,1,0.01481,-0.00591,0.00591*
1,1,0.01481,0.00591,0.00591*
1,1,0.01481,0.00591,-0.00591*
%
%ADD73ROUNDEDRECTD73*%
G04:AMPARAMS|DCode=80|XSize=26.62mil|YSize=26.62mil|CornerRadius=7.41mil|HoleSize=0mil|Usage=FLASHONLY|Rotation=0.000|XOffset=0mil|YOffset=0mil|HoleType=Round|Shape=RoundedRectangle|*
%AMROUNDEDRECTD80*
21,1,0.02662,0.01181,0,0,0.0*
21,1,0.01181,0.02662,0,0,0.0*
1,1,0.01481,0.00591,-0.00591*
1,1,0.01481,-0.00591,-0.00591*
1,1,0.01481,-0.00591,0.00591*
1,1,0.01481,0.00591,0.00591*
%
%ADD80ROUNDEDRECTD80*%
G04:AMPARAMS|DCode=83|XSize=28.2mil|YSize=28.2mil|CornerRadius=7.8mil|HoleSize=0mil|Usage=FLASHONLY|Rotation=270.000|XOffset=0mil|YOffset=0mil|HoleType=Round|Shape=RoundedRectangle|*
%AMROUNDEDRECTD83*
21,1,0.02820,0.01260,0,0,270.0*
21,1,0.01260,0.02820,0,0,270.0*
1,1,0.01560,-0.00630,-0.00630*
1,1,0.01560,-0.00630,0.00630*
1,1,0.01560,0.00630,0.00630*
1,1,0.01560,0.00630,-0.00630*
%
%ADD83ROUNDEDRECTD83*%
G04:AMPARAMS|DCode=87|XSize=42.37mil|YSize=38.43mil|CornerRadius=10.36mil|HoleSize=0mil|Usage=FLASHONLY|Rotation=90.000|XOffset=0mil|YOffset=0mil|HoleType=Round|Shape=RoundedRectangle|*
%AMROUNDEDRECTD87*
21,1,0.04237,0.01772,0,0,90.0*
21,1,0.02165,0.03843,0,0,90.0*
1,1,0.02072,0.00886,0.01083*
1,1,0.02072,0.00886,-0.01083*
1,1,0.02072,-0.00886,-0.01083*
1,1,0.02072,-0.00886,0.01083*
%
%ADD87ROUNDEDRECTD87*%
G04:AMPARAMS|DCode=89|XSize=28.2mil|YSize=28.2mil|CornerRadius=7.8mil|HoleSize=0mil|Usage=FLASHONLY|Rotation=180.000|XOffset=0mil|YOffset=0mil|HoleType=Round|Shape=RoundedRectangle|*
%AMROUNDEDRECTD89*
21,1,0.02820,0.01260,0,0,180.0*
21,1,0.01260,0.02820,0,0,180.0*
1,1,0.01560,-0.00630,0.00630*
1,1,0.01560,0.00630,0.00630*
1,1,0.01560,0.00630,-0.00630*
1,1,0.01560,-0.00630,-0.00630*
%
%ADD89ROUNDEDRECTD89*%
G04:AMPARAMS|DCode=116|XSize=16.78mil|YSize=18.75mil|CornerRadius=4.95mil|HoleSize=0mil|Usage=FLASHONLY|Rotation=0.000|XOffset=0mil|YOffset=0mil|HoleType=Round|Shape=RoundedRectangle|*
%AMROUNDEDRECTD116*
21,1,0.01678,0.00886,0,0,0.0*
21,1,0.00689,0.01875,0,0,0.0*
1,1,0.00989,0.00345,-0.00443*
1,1,0.00989,-0.00345,-0.00443*
1,1,0.00989,-0.00345,0.00443*
1,1,0.00989,0.00345,0.00443*
%
%ADD116ROUNDEDRECTD116*%
%ADD117R,0.03056X0.16835*%
%ADD118R,0.03056X0.12898*%
G04:AMPARAMS|DCode=123|XSize=19.54mil|YSize=21.11mil|CornerRadius=5.63mil|HoleSize=0mil|Usage=FLASHONLY|Rotation=0.000|XOffset=0mil|YOffset=0mil|HoleType=Round|Shape=RoundedRectangle|*
%AMROUNDEDRECTD123*
21,1,0.01954,0.00984,0,0,0.0*
21,1,0.00827,0.02111,0,0,0.0*
1,1,0.01127,0.00413,-0.00492*
1,1,0.01127,-0.00413,-0.00492*
1,1,0.01127,-0.00413,0.00492*
1,1,0.01127,0.00413,0.00492*
%
%ADD123ROUNDEDRECTD123*%
%ADD124C,0.04591*%
%ADD125R,0.04591X0.04591*%
%ADD126R,0.05686X0.05686*%
%ADD127C,0.05686*%
%ADD128C,0.01496*%
%ADD129O,0.29828X0.04237*%
%ADD130O,0.29434X0.04237*%
%ADD131O,0.04237X0.34749*%
%ADD132C,0.08174*%
G04:AMPARAMS|DCode=133|XSize=62.06mil|YSize=62.06mil|CornerRadius=16.26mil|HoleSize=0mil|Usage=FLASHONLY|Rotation=270.000|XOffset=0mil|YOffset=0mil|HoleType=Round|Shape=RoundedRectangle|*
%AMROUNDEDRECTD133*
21,1,0.06206,0.02953,0,0,270.0*
21,1,0.02953,0.06206,0,0,270.0*
1,1,0.03253,-0.01476,-0.01476*
1,1,0.03253,-0.01476,0.01476*
1,1,0.03253,0.01476,0.01476*
1,1,0.03253,0.01476,-0.01476*
%
%ADD133ROUNDEDRECTD133*%
%ADD134C,0.06206*%
%ADD135C,0.23922*%
%ADD136C,0.04600*%
%ADD137C,0.06600*%
%ADD138C,0.12111*%
G04:AMPARAMS|DCode=139|XSize=62.06mil|YSize=62.06mil|CornerRadius=16.26mil|HoleSize=0mil|Usage=FLASHONLY|Rotation=0.000|XOffset=0mil|YOffset=0mil|HoleType=Round|Shape=RoundedRectangle|*
%AMROUNDEDRECTD139*
21,1,0.06206,0.02953,0,0,0.0*
21,1,0.02953,0.06206,0,0,0.0*
1,1,0.03253,0.01476,-0.01476*
1,1,0.03253,-0.01476,-0.01476*
1,1,0.03253,-0.01476,0.01476*
1,1,0.03253,0.01476,0.01476*
%
%ADD139ROUNDEDRECTD139*%
%ADD140O,0.31796X0.04237*%
%ADD141C,0.19985*%
%ADD142C,0.11639*%
G04:AMPARAMS|DCode=199|XSize=12mil|YSize=61mil|CornerRadius=3mil|HoleSize=0mil|Usage=FLASHONLY|Rotation=90.000|XOffset=0mil|YOffset=0mil|HoleType=Round|Shape=RoundedRectangle|*
%AMROUNDEDRECTD199*
21,1,0.01200,0.05500,0,0,90.0*
21,1,0.00600,0.06100,0,0,90.0*
1,1,0.00600,0.02750,0.00300*
1,1,0.00600,0.02750,-0.00300*
1,1,0.00600,-0.02750,-0.00300*
1,1,0.00600,-0.02750,0.00300*
%
%ADD199ROUNDEDRECTD199*%
%ADD201C,0.04237*%
G04:AMPARAMS|DCode=202|XSize=111.27mil|YSize=50.24mil|CornerRadius=3.86mil|HoleSize=0mil|Usage=FLASHONLY|Rotation=0.000|XOffset=0mil|YOffset=0mil|HoleType=Round|Shape=RoundedRectangle|*
%AMROUNDEDRECTD202*
21,1,0.11127,0.04252,0,0,0.0*
21,1,0.10354,0.05024,0,0,0.0*
1,1,0.00772,0.05177,-0.02126*
1,1,0.00772,-0.05177,-0.02126*
1,1,0.00772,-0.05177,0.02126*
1,1,0.00772,0.05177,0.02126*
%
%ADD202ROUNDEDRECTD202*%
G04:AMPARAMS|DCode=203|XSize=152.61mil|YSize=82.92mil|CornerRadius=5.5mil|HoleSize=0mil|Usage=FLASHONLY|Rotation=180.000|XOffset=0mil|YOffset=0mil|HoleType=Round|Shape=RoundedRectangle|*
%AMROUNDEDRECTD203*
21,1,0.15261,0.07193,0,0,180.0*
21,1,0.14161,0.08292,0,0,180.0*
1,1,0.01099,-0.07081,0.03597*
1,1,0.01099,0.07081,0.03597*
1,1,0.01099,0.07081,-0.03597*
1,1,0.01099,-0.07081,-0.03597*
%
%ADD203ROUNDEDRECTD203*%
G04:AMPARAMS|DCode=204|XSize=21.5mil|YSize=26.62mil|CornerRadius=6.13mil|HoleSize=0mil|Usage=FLASHONLY|Rotation=270.000|XOffset=0mil|YOffset=0mil|HoleType=Round|Shape=RoundedRectangle|*
%AMROUNDEDRECTD204*
21,1,0.02150,0.01437,0,0,270.0*
21,1,0.00925,0.02662,0,0,270.0*
1,1,0.01225,-0.00719,-0.00463*
1,1,0.01225,-0.00719,0.00463*
1,1,0.01225,0.00719,0.00463*
1,1,0.01225,0.00719,-0.00463*
%
%ADD204ROUNDEDRECTD204*%
G04:AMPARAMS|DCode=205|XSize=28.59mil|YSize=22.69mil|CornerRadius=6.42mil|HoleSize=0mil|Usage=FLASHONLY|Rotation=0.000|XOffset=0mil|YOffset=0mil|HoleType=Round|Shape=RoundedRectangle|*
%AMROUNDEDRECTD205*
21,1,0.02859,0.00984,0,0,0.0*
21,1,0.01575,0.02269,0,0,0.0*
1,1,0.01284,0.00787,-0.00492*
1,1,0.01284,-0.00787,-0.00492*
1,1,0.01284,-0.00787,0.00492*
1,1,0.01284,0.00787,0.00492*
%
%ADD205ROUNDEDRECTD205*%
G04:AMPARAMS|DCode=206|XSize=21.5mil|YSize=26.62mil|CornerRadius=6.13mil|HoleSize=0mil|Usage=FLASHONLY|Rotation=180.000|XOffset=0mil|YOffset=0mil|HoleType=Round|Shape=RoundedRectangle|*
%AMROUNDEDRECTD206*
21,1,0.02150,0.01437,0,0,180.0*
21,1,0.00925,0.02662,0,0,180.0*
1,1,0.01225,-0.00463,0.00719*
1,1,0.01225,0.00463,0.00719*
1,1,0.01225,0.00463,-0.00719*
1,1,0.01225,-0.00463,-0.00719*
%
%ADD206ROUNDEDRECTD206*%
G04:AMPARAMS|DCode=207|XSize=50.24mil|YSize=50.24mil|CornerRadius=13.31mil|HoleSize=0mil|Usage=FLASHONLY|Rotation=0.000|XOffset=0mil|YOffset=0mil|HoleType=Round|Shape=RoundedRectangle|*
%AMROUNDEDRECTD207*
21,1,0.05024,0.02362,0,0,0.0*
21,1,0.02362,0.05024,0,0,0.0*
1,1,0.02662,0.01181,-0.01181*
1,1,0.02662,-0.01181,-0.01181*
1,1,0.02662,-0.01181,0.01181*
1,1,0.02662,0.01181,0.01181*
%
%ADD207ROUNDEDRECTD207*%
G04:AMPARAMS|DCode=208|XSize=65.99mil|YSize=62.06mil|CornerRadius=16.26mil|HoleSize=0mil|Usage=FLASHONLY|Rotation=0.000|XOffset=0mil|YOffset=0mil|HoleType=Round|Shape=RoundedRectangle|*
%AMROUNDEDRECTD208*
21,1,0.06599,0.02953,0,0,0.0*
21,1,0.03347,0.06206,0,0,0.0*
1,1,0.03253,0.01673,-0.01476*
1,1,0.03253,-0.01673,-0.01476*
1,1,0.03253,-0.01673,0.01476*
1,1,0.03253,0.01673,0.01476*
%
%ADD208ROUNDEDRECTD208*%
G04:AMPARAMS|DCode=209|XSize=22.69mil|YSize=22.69mil|CornerRadius=6.42mil|HoleSize=0mil|Usage=FLASHONLY|Rotation=180.000|XOffset=0mil|YOffset=0mil|HoleType=Round|Shape=RoundedRectangle|*
%AMROUNDEDRECTD209*
21,1,0.02269,0.00984,0,0,180.0*
21,1,0.00984,0.02269,0,0,180.0*
1,1,0.01284,-0.00492,0.00492*
1,1,0.01284,0.00492,0.00492*
1,1,0.01284,0.00492,-0.00492*
1,1,0.01284,-0.00492,-0.00492*
%
%ADD209ROUNDEDRECTD209*%
G04:AMPARAMS|DCode=210|XSize=26.62mil|YSize=24.65mil|CornerRadius=6.91mil|HoleSize=0mil|Usage=FLASHONLY|Rotation=180.000|XOffset=0mil|YOffset=0mil|HoleType=Round|Shape=RoundedRectangle|*
%AMROUNDEDRECTD210*
21,1,0.02662,0.01083,0,0,180.0*
21,1,0.01280,0.02465,0,0,180.0*
1,1,0.01383,-0.00640,0.00541*
1,1,0.01383,0.00640,0.00541*
1,1,0.01383,0.00640,-0.00541*
1,1,0.01383,-0.00640,-0.00541*
%
%ADD210ROUNDEDRECTD210*%
G04:AMPARAMS|DCode=211|XSize=25.84mil|YSize=65.21mil|CornerRadius=7.21mil|HoleSize=0mil|Usage=FLASHONLY|Rotation=180.000|XOffset=0mil|YOffset=0mil|HoleType=Round|Shape=RoundedRectangle|*
%AMROUNDEDRECTD211*
21,1,0.02584,0.05079,0,0,180.0*
21,1,0.01142,0.06521,0,0,180.0*
1,1,0.01442,-0.00571,0.02539*
1,1,0.01442,0.00571,0.02539*
1,1,0.01442,0.00571,-0.02539*
1,1,0.01442,-0.00571,-0.02539*
%
%ADD211ROUNDEDRECTD211*%
G04:AMPARAMS|DCode=212|XSize=111.27mil|YSize=50.24mil|CornerRadius=3.86mil|HoleSize=0mil|Usage=FLASHONLY|Rotation=270.000|XOffset=0mil|YOffset=0mil|HoleType=Round|Shape=RoundedRectangle|*
%AMROUNDEDRECTD212*
21,1,0.11127,0.04252,0,0,270.0*
21,1,0.10354,0.05024,0,0,270.0*
1,1,0.00772,-0.02126,-0.05177*
1,1,0.00772,-0.02126,0.05177*
1,1,0.00772,0.02126,0.05177*
1,1,0.00772,0.02126,-0.05177*
%
%ADD212ROUNDEDRECTD212*%
G04:AMPARAMS|DCode=213|XSize=18.75mil|YSize=36.47mil|CornerRadius=5.44mil|HoleSize=0mil|Usage=FLASHONLY|Rotation=0.000|XOffset=0mil|YOffset=0mil|HoleType=Round|Shape=RoundedRectangle|*
%AMROUNDEDRECTD213*
21,1,0.01875,0.02559,0,0,0.0*
21,1,0.00787,0.03647,0,0,0.0*
1,1,0.01087,0.00394,-0.01280*
1,1,0.01087,-0.00394,-0.01280*
1,1,0.01087,-0.00394,0.01280*
1,1,0.01087,0.00394,0.01280*
%
%ADD213ROUNDEDRECTD213*%
G04:AMPARAMS|DCode=214|XSize=50mil|YSize=111mil|CornerRadius=6.2mil|HoleSize=0mil|Usage=FLASHONLY|Rotation=90.000|XOffset=0mil|YOffset=0mil|HoleType=Round|Shape=RoundedRectangle|*
%AMROUNDEDRECTD214*
21,1,0.05000,0.09860,0,0,90.0*
21,1,0.03760,0.11100,0,0,90.0*
1,1,0.01240,0.04930,0.01880*
1,1,0.01240,0.04930,-0.01880*
1,1,0.01240,-0.04930,-0.01880*
1,1,0.01240,-0.04930,0.01880*
%
%ADD214ROUNDEDRECTD214*%
G36*
X0398578Y0083638D02*
X0398725Y0083610D01*
X0398851Y0083567D01*
X0398960Y0083523D01*
X0399009Y0083496D01*
X0399047Y0083474D01*
X0399086Y0083452D01*
X0399113Y0083430D01*
X0399135Y0083414D01*
X0399151Y0083403D01*
X0399162Y0083398D01*
X0399168Y0083392D01*
X0399271Y0083288D01*
X0399353Y0083174D01*
X0399419Y0083054D01*
X0399473Y0082933D01*
X0399506Y0082830D01*
X0399522Y0082786D01*
X0399534Y0082748D01*
X0399539Y0082715D01*
X0399544Y0082693D01*
X0399550Y0082677D01*
Y0082671D01*
X0399086Y0082590D01*
X0399064Y0082710D01*
X0399031Y0082813D01*
X0398993Y0082901D01*
X0398955Y0082972D01*
X0398917Y0083026D01*
X0398884Y0083065D01*
X0398862Y0083092D01*
X0398856Y0083097D01*
X0398785Y0083152D01*
X0398709Y0083196D01*
X0398638Y0083223D01*
X0398567Y0083245D01*
X0398501Y0083256D01*
X0398452Y0083267D01*
X0398409D01*
X0398310Y0083261D01*
X0398223Y0083239D01*
X0398147Y0083212D01*
X0398081Y0083185D01*
X0398032Y0083152D01*
X0397994Y0083125D01*
X0397966Y0083103D01*
X0397961Y0083097D01*
X0397901Y0083032D01*
X0397857Y0082961D01*
X0397830Y0082890D01*
X0397808Y0082824D01*
X0397797Y0082764D01*
X0397786Y0082721D01*
Y0082688D01*
Y0082682D01*
Y0082677D01*
Y0082617D01*
X0397797Y0082562D01*
X0397825Y0082469D01*
X0397863Y0082387D01*
X0397906Y0082316D01*
X0397950Y0082267D01*
X0397988Y0082229D01*
X0398016Y0082207D01*
X0398021Y0082202D01*
X0398026D01*
X0398119Y0082153D01*
X0398207Y0082114D01*
X0398300Y0082087D01*
X0398381Y0082071D01*
X0398452Y0082060D01*
X0398512Y0082049D01*
X0398583D01*
X0398605Y0082054D01*
X0398633D01*
X0398687Y0081645D01*
X0398616Y0081661D01*
X0398551Y0081672D01*
X0398496Y0081683D01*
X0398447Y0081689D01*
X0398409Y0081694D01*
X0398360D01*
X0398245Y0081683D01*
X0398141Y0081661D01*
X0398048Y0081629D01*
X0397972Y0081590D01*
X0397912Y0081552D01*
X0397868Y0081519D01*
X0397841Y0081498D01*
X0397830Y0081486D01*
X0397759Y0081405D01*
X0397704Y0081317D01*
X0397666Y0081230D01*
X0397644Y0081143D01*
X0397628Y0081072D01*
X0397622Y0081011D01*
X0397617Y0080990D01*
Y0080973D01*
Y0080962D01*
Y0080957D01*
X0397628Y0080837D01*
X0397655Y0080728D01*
X0397688Y0080635D01*
X0397732Y0080553D01*
X0397775Y0080487D01*
X0397808Y0080438D01*
X0397835Y0080405D01*
X0397846Y0080395D01*
X0397934Y0080318D01*
X0398026Y0080264D01*
X0398119Y0080225D01*
X0398207Y0080198D01*
X0398283Y0080182D01*
X0398343Y0080176D01*
X0398365Y0080171D01*
X0398398D01*
X0398496Y0080176D01*
X0398589Y0080198D01*
X0398671Y0080225D01*
X0398736Y0080258D01*
X0398791Y0080285D01*
X0398835Y0080313D01*
X0398856Y0080335D01*
X0398867Y0080340D01*
X0398933Y0080416D01*
X0398988Y0080504D01*
X0399037Y0080597D01*
X0399075Y0080695D01*
X0399102Y0080777D01*
X0399113Y0080815D01*
X0399118Y0080848D01*
X0399124Y0080875D01*
X0399129Y0080897D01*
X0399135Y0080908D01*
Y0080913D01*
X0399599Y0080853D01*
X0399588Y0080766D01*
X0399572Y0080684D01*
X0399522Y0080531D01*
X0399463Y0080400D01*
X0399430Y0080345D01*
X0399397Y0080291D01*
X0399364Y0080242D01*
X0399331Y0080203D01*
X0399304Y0080165D01*
X0399277Y0080138D01*
X0399260Y0080116D01*
X0399244Y0080100D01*
X0399233Y0080089D01*
X0399228Y0080083D01*
X0399162Y0080034D01*
X0399097Y0079985D01*
X0399031Y0079947D01*
X0398960Y0079914D01*
X0398824Y0079860D01*
X0398693Y0079827D01*
X0398633Y0079816D01*
X0398578Y0079805D01*
X0398529Y0079799D01*
X0398485Y0079794D01*
X0398452Y0079789D01*
X0398403D01*
X0398300Y0079794D01*
X0398207Y0079805D01*
X0398114Y0079821D01*
X0398026Y0079843D01*
X0397945Y0079870D01*
X0397874Y0079898D01*
X0397803Y0079930D01*
X0397743Y0079963D01*
X0397682Y0079991D01*
X0397633Y0080023D01*
X0397590Y0080051D01*
X0397557Y0080078D01*
X0397530Y0080100D01*
X0397508Y0080116D01*
X0397497Y0080127D01*
X0397491Y0080133D01*
X0397426Y0080198D01*
X0397371Y0080269D01*
X0397322Y0080340D01*
X0397278Y0080411D01*
X0397246Y0080476D01*
X0397213Y0080547D01*
X0397169Y0080678D01*
X0397158Y0080739D01*
X0397147Y0080793D01*
X0397136Y0080842D01*
X0397131Y0080886D01*
X0397126Y0080919D01*
Y0080946D01*
Y0080962D01*
Y0080968D01*
X0397131Y0081099D01*
X0397153Y0081219D01*
X0397186Y0081323D01*
X0397218Y0081410D01*
X0397251Y0081481D01*
X0397284Y0081536D01*
X0397306Y0081568D01*
X0397311Y0081579D01*
X0397388Y0081661D01*
X0397470Y0081732D01*
X0397557Y0081787D01*
X0397644Y0081831D01*
X0397721Y0081863D01*
X0397781Y0081885D01*
X0397803Y0081891D01*
X0397819Y0081896D01*
X0397830Y0081902D01*
X0397835D01*
X0397743Y0081951D01*
X0397666Y0082000D01*
X0397601Y0082054D01*
X0397546Y0082104D01*
X0397502Y0082147D01*
X0397470Y0082185D01*
X0397453Y0082207D01*
X0397448Y0082218D01*
X0397404Y0082295D01*
X0397371Y0082371D01*
X0397344Y0082447D01*
X0397328Y0082519D01*
X0397317Y0082578D01*
X0397311Y0082622D01*
Y0082655D01*
Y0082666D01*
X0397317Y0082759D01*
X0397333Y0082851D01*
X0397355Y0082933D01*
X0397382Y0083004D01*
X0397410Y0083065D01*
X0397431Y0083114D01*
X0397448Y0083141D01*
X0397453Y0083152D01*
X0397508Y0083234D01*
X0397573Y0083305D01*
X0397639Y0083365D01*
X0397704Y0083419D01*
X0397759Y0083458D01*
X0397808Y0083490D01*
X0397841Y0083507D01*
X0397846Y0083512D01*
X0397852D01*
X0397950Y0083556D01*
X0398048Y0083589D01*
X0398147Y0083616D01*
X0398234Y0083632D01*
X0398305Y0083643D01*
X0398365Y0083649D01*
X0398501D01*
X0398578Y0083638D01*
D02*
G37*
G36*
X0420773Y0083643D02*
X0420866Y0083638D01*
X0420953Y0083621D01*
X0421035Y0083605D01*
X0421111Y0083583D01*
X0421182Y0083561D01*
X0421248Y0083534D01*
X0421308Y0083507D01*
X0421362Y0083479D01*
X0421406Y0083452D01*
X0421444Y0083430D01*
X0421477Y0083408D01*
X0421504Y0083392D01*
X0421521Y0083376D01*
X0421532Y0083370D01*
X0421537Y0083365D01*
X0421592Y0083310D01*
X0421641Y0083250D01*
X0421690Y0083185D01*
X0421728Y0083119D01*
X0421794Y0082988D01*
X0421838Y0082857D01*
X0421854Y0082797D01*
X0421870Y0082737D01*
X0421881Y0082688D01*
X0421892Y0082644D01*
X0421898Y0082606D01*
Y0082578D01*
X0421903Y0082562D01*
Y0082557D01*
X0421428Y0082508D01*
X0421417Y0082633D01*
X0421395Y0082742D01*
X0421362Y0082841D01*
X0421324Y0082917D01*
X0421292Y0082983D01*
X0421259Y0083026D01*
X0421237Y0083054D01*
X0421226Y0083065D01*
X0421144Y0083130D01*
X0421057Y0083179D01*
X0420964Y0083217D01*
X0420882Y0083239D01*
X0420806Y0083256D01*
X0420740Y0083261D01*
X0420718Y0083267D01*
X0420685D01*
X0420571Y0083261D01*
X0420467Y0083239D01*
X0420380Y0083206D01*
X0420303Y0083174D01*
X0420243Y0083135D01*
X0420205Y0083108D01*
X0420178Y0083086D01*
X0420167Y0083075D01*
X0420101Y0082999D01*
X0420052Y0082923D01*
X0420014Y0082846D01*
X0419992Y0082770D01*
X0419976Y0082710D01*
X0419970Y0082655D01*
X0419965Y0082622D01*
Y0082617D01*
Y0082611D01*
X0419976Y0082513D01*
X0419998Y0082409D01*
X0420036Y0082316D01*
X0420074Y0082229D01*
X0420118Y0082158D01*
X0420156Y0082098D01*
X0420167Y0082076D01*
X0420178Y0082060D01*
X0420189Y0082054D01*
Y0082049D01*
X0420232Y0081989D01*
X0420287Y0081929D01*
X0420347Y0081863D01*
X0420412Y0081798D01*
X0420549Y0081667D01*
X0420685Y0081536D01*
X0420756Y0081476D01*
X0420817Y0081421D01*
X0420877Y0081372D01*
X0420926Y0081328D01*
X0420964Y0081295D01*
X0420997Y0081268D01*
X0421019Y0081252D01*
X0421024Y0081246D01*
X0421161Y0081132D01*
X0421286Y0081022D01*
X0421390Y0080924D01*
X0421472Y0080842D01*
X0421543Y0080771D01*
X0421592Y0080722D01*
X0421619Y0080689D01*
X0421630Y0080684D01*
Y0080678D01*
X0421706Y0080586D01*
X0421767Y0080498D01*
X0421821Y0080411D01*
X0421865Y0080335D01*
X0421898Y0080269D01*
X0421919Y0080220D01*
X0421930Y0080187D01*
X0421936Y0080182D01*
Y0080176D01*
X0421958Y0080116D01*
X0421969Y0080062D01*
X0421980Y0080007D01*
X0421985Y0079958D01*
X0421990Y0079914D01*
Y0079881D01*
Y0079860D01*
Y0079854D01*
X0419484D01*
Y0080302D01*
X0421346D01*
X0421281Y0080395D01*
X0421248Y0080433D01*
X0421221Y0080471D01*
X0421193Y0080504D01*
X0421171Y0080526D01*
X0421155Y0080542D01*
X0421150Y0080547D01*
X0421122Y0080575D01*
X0421090Y0080602D01*
X0421013Y0080673D01*
X0420926Y0080755D01*
X0420833Y0080837D01*
X0420746Y0080908D01*
X0420707Y0080941D01*
X0420675Y0080973D01*
X0420647Y0080995D01*
X0420625Y0081011D01*
X0420614Y0081022D01*
X0420609Y0081028D01*
X0420522Y0081104D01*
X0420434Y0081175D01*
X0420358Y0081246D01*
X0420287Y0081306D01*
X0420221Y0081366D01*
X0420167Y0081421D01*
X0420112Y0081470D01*
X0420069Y0081514D01*
X0420025Y0081558D01*
X0419992Y0081590D01*
X0419965Y0081618D01*
X0419938Y0081645D01*
X0419910Y0081678D01*
X0419899Y0081689D01*
X0419823Y0081781D01*
X0419757Y0081863D01*
X0419703Y0081945D01*
X0419659Y0082011D01*
X0419626Y0082071D01*
X0419604Y0082114D01*
X0419593Y0082142D01*
X0419588Y0082153D01*
X0419555Y0082235D01*
X0419533Y0082316D01*
X0419512Y0082393D01*
X0419501Y0082458D01*
X0419495Y0082519D01*
X0419490Y0082562D01*
Y0082590D01*
Y0082600D01*
X0419495Y0082682D01*
X0419506Y0082759D01*
X0419517Y0082835D01*
X0419539Y0082901D01*
X0419593Y0083032D01*
X0419648Y0083135D01*
X0419681Y0083185D01*
X0419708Y0083223D01*
X0419735Y0083261D01*
X0419763Y0083288D01*
X0419785Y0083310D01*
X0419796Y0083332D01*
X0419806Y0083337D01*
X0419812Y0083343D01*
X0419872Y0083398D01*
X0419938Y0083447D01*
X0420009Y0083485D01*
X0420079Y0083518D01*
X0420221Y0083572D01*
X0420363Y0083610D01*
X0420423Y0083621D01*
X0420483Y0083632D01*
X0420538Y0083638D01*
X0420582Y0083643D01*
X0420620Y0083649D01*
X0420675D01*
X0420773Y0083643D01*
D02*
G37*
G36*
X0407265D02*
X0407358Y0083638D01*
X0407445Y0083621D01*
X0407527Y0083605D01*
X0407603Y0083583D01*
X0407674Y0083561D01*
X0407740Y0083534D01*
X0407800Y0083507D01*
X0407855Y0083479D01*
X0407898Y0083452D01*
X0407936Y0083430D01*
X0407969Y0083408D01*
X0407997Y0083392D01*
X0408013Y0083376D01*
X0408024Y0083370D01*
X0408029Y0083365D01*
X0408084Y0083310D01*
X0408133Y0083250D01*
X0408182Y0083185D01*
X0408220Y0083119D01*
X0408286Y0082988D01*
X0408329Y0082857D01*
X0408346Y0082797D01*
X0408362Y0082737D01*
X0408373Y0082688D01*
X0408384Y0082644D01*
X0408390Y0082606D01*
Y0082578D01*
X0408395Y0082562D01*
Y0082557D01*
X0407920Y0082508D01*
X0407909Y0082633D01*
X0407887Y0082742D01*
X0407855Y0082841D01*
X0407816Y0082917D01*
X0407784Y0082983D01*
X0407751Y0083026D01*
X0407729Y0083054D01*
X0407718Y0083065D01*
X0407636Y0083130D01*
X0407549Y0083179D01*
X0407456Y0083217D01*
X0407374Y0083239D01*
X0407298Y0083256D01*
X0407232Y0083261D01*
X0407210Y0083267D01*
X0407177D01*
X0407063Y0083261D01*
X0406959Y0083239D01*
X0406872Y0083206D01*
X0406795Y0083174D01*
X0406735Y0083135D01*
X0406697Y0083108D01*
X0406670Y0083086D01*
X0406659Y0083075D01*
X0406593Y0082999D01*
X0406544Y0082923D01*
X0406506Y0082846D01*
X0406484Y0082770D01*
X0406468Y0082710D01*
X0406462Y0082655D01*
X0406457Y0082622D01*
Y0082617D01*
Y0082611D01*
X0406468Y0082513D01*
X0406490Y0082409D01*
X0406528Y0082316D01*
X0406566Y0082229D01*
X0406610Y0082158D01*
X0406648Y0082098D01*
X0406659Y0082076D01*
X0406670Y0082060D01*
X0406681Y0082054D01*
Y0082049D01*
X0406724Y0081989D01*
X0406779Y0081929D01*
X0406839Y0081863D01*
X0406905Y0081798D01*
X0407041Y0081667D01*
X0407177Y0081536D01*
X0407248Y0081476D01*
X0407308Y0081421D01*
X0407369Y0081372D01*
X0407418Y0081328D01*
X0407456Y0081295D01*
X0407489Y0081268D01*
X0407511Y0081252D01*
X0407516Y0081246D01*
X0407653Y0081132D01*
X0407778Y0081022D01*
X0407882Y0080924D01*
X0407964Y0080842D01*
X0408035Y0080771D01*
X0408084Y0080722D01*
X0408111Y0080689D01*
X0408122Y0080684D01*
Y0080678D01*
X0408198Y0080586D01*
X0408258Y0080498D01*
X0408313Y0080411D01*
X0408357Y0080335D01*
X0408390Y0080269D01*
X0408411Y0080220D01*
X0408422Y0080187D01*
X0408428Y0080182D01*
Y0080176D01*
X0408450Y0080116D01*
X0408461Y0080062D01*
X0408471Y0080007D01*
X0408477Y0079958D01*
X0408482Y0079914D01*
Y0079881D01*
Y0079860D01*
Y0079854D01*
X0405976D01*
Y0080302D01*
X0407838D01*
X0407773Y0080395D01*
X0407740Y0080433D01*
X0407713Y0080471D01*
X0407685Y0080504D01*
X0407663Y0080526D01*
X0407647Y0080542D01*
X0407642Y0080547D01*
X0407614Y0080575D01*
X0407582Y0080602D01*
X0407505Y0080673D01*
X0407418Y0080755D01*
X0407325Y0080837D01*
X0407237Y0080908D01*
X0407199Y0080941D01*
X0407166Y0080973D01*
X0407139Y0080995D01*
X0407117Y0081011D01*
X0407106Y0081022D01*
X0407101Y0081028D01*
X0407014Y0081104D01*
X0406926Y0081175D01*
X0406850Y0081246D01*
X0406779Y0081306D01*
X0406713Y0081366D01*
X0406659Y0081421D01*
X0406604Y0081470D01*
X0406561Y0081514D01*
X0406517Y0081558D01*
X0406484Y0081590D01*
X0406457Y0081618D01*
X0406429Y0081645D01*
X0406402Y0081678D01*
X0406391Y0081689D01*
X0406315Y0081781D01*
X0406249Y0081863D01*
X0406195Y0081945D01*
X0406151Y0082011D01*
X0406118Y0082071D01*
X0406096Y0082114D01*
X0406085Y0082142D01*
X0406080Y0082153D01*
X0406047Y0082235D01*
X0406025Y0082316D01*
X0406004Y0082393D01*
X0405993Y0082458D01*
X0405987Y0082519D01*
X0405982Y0082562D01*
Y0082590D01*
Y0082600D01*
X0405987Y0082682D01*
X0405998Y0082759D01*
X0406009Y0082835D01*
X0406031Y0082901D01*
X0406085Y0083032D01*
X0406140Y0083135D01*
X0406173Y0083185D01*
X0406200Y0083223D01*
X0406227Y0083261D01*
X0406255Y0083288D01*
X0406277Y0083310D01*
X0406287Y0083332D01*
X0406298Y0083337D01*
X0406304Y0083343D01*
X0406364Y0083398D01*
X0406429Y0083447D01*
X0406500Y0083485D01*
X0406571Y0083518D01*
X0406713Y0083572D01*
X0406855Y0083610D01*
X0406915Y0083621D01*
X0406975Y0083632D01*
X0407030Y0083638D01*
X0407074Y0083643D01*
X0407112Y0083649D01*
X0407166D01*
X0407265Y0083643D01*
D02*
G37*
G36*
X0401390D02*
X0401483Y0083638D01*
X0401570Y0083621D01*
X0401652Y0083605D01*
X0401728Y0083583D01*
X0401799Y0083561D01*
X0401865Y0083534D01*
X0401925Y0083507D01*
X0401979Y0083479D01*
X0402023Y0083452D01*
X0402061Y0083430D01*
X0402094Y0083408D01*
X0402121Y0083392D01*
X0402138Y0083376D01*
X0402149Y0083370D01*
X0402154Y0083365D01*
X0402209Y0083310D01*
X0402258Y0083250D01*
X0402307Y0083185D01*
X0402345Y0083119D01*
X0402411Y0082988D01*
X0402455Y0082857D01*
X0402471Y0082797D01*
X0402487Y0082737D01*
X0402498Y0082688D01*
X0402509Y0082644D01*
X0402515Y0082606D01*
Y0082578D01*
X0402520Y0082562D01*
Y0082557D01*
X0402045Y0082508D01*
X0402034Y0082633D01*
X0402012Y0082742D01*
X0401979Y0082841D01*
X0401941Y0082917D01*
X0401909Y0082983D01*
X0401876Y0083026D01*
X0401854Y0083054D01*
X0401843Y0083065D01*
X0401761Y0083130D01*
X0401674Y0083179D01*
X0401581Y0083217D01*
X0401499Y0083239D01*
X0401423Y0083256D01*
X0401357Y0083261D01*
X0401335Y0083267D01*
X0401302D01*
X0401188Y0083261D01*
X0401084Y0083239D01*
X0400997Y0083206D01*
X0400920Y0083174D01*
X0400860Y0083135D01*
X0400822Y0083108D01*
X0400795Y0083086D01*
X0400784Y0083075D01*
X0400718Y0082999D01*
X0400669Y0082923D01*
X0400631Y0082846D01*
X0400609Y0082770D01*
X0400593Y0082710D01*
X0400587Y0082655D01*
X0400582Y0082622D01*
Y0082617D01*
Y0082611D01*
X0400593Y0082513D01*
X0400615Y0082409D01*
X0400653Y0082316D01*
X0400691Y0082229D01*
X0400735Y0082158D01*
X0400773Y0082098D01*
X0400784Y0082076D01*
X0400795Y0082060D01*
X0400806Y0082054D01*
Y0082049D01*
X0400849Y0081989D01*
X0400904Y0081929D01*
X0400964Y0081863D01*
X0401029Y0081798D01*
X0401166Y0081667D01*
X0401302Y0081536D01*
X0401373Y0081476D01*
X0401434Y0081421D01*
X0401494Y0081372D01*
X0401543Y0081328D01*
X0401581Y0081295D01*
X0401614Y0081268D01*
X0401636Y0081252D01*
X0401641Y0081246D01*
X0401778Y0081132D01*
X0401903Y0081022D01*
X0402007Y0080924D01*
X0402089Y0080842D01*
X0402160Y0080771D01*
X0402209Y0080722D01*
X0402236Y0080689D01*
X0402247Y0080684D01*
Y0080678D01*
X0402323Y0080586D01*
X0402384Y0080498D01*
X0402438Y0080411D01*
X0402482Y0080335D01*
X0402515Y0080269D01*
X0402536Y0080220D01*
X0402547Y0080187D01*
X0402553Y0080182D01*
Y0080176D01*
X0402575Y0080116D01*
X0402586Y0080062D01*
X0402597Y0080007D01*
X0402602Y0079958D01*
X0402607Y0079914D01*
Y0079881D01*
Y0079860D01*
Y0079854D01*
X0400101D01*
Y0080302D01*
X0401963D01*
X0401898Y0080395D01*
X0401865Y0080433D01*
X0401838Y0080471D01*
X0401810Y0080504D01*
X0401788Y0080526D01*
X0401772Y0080542D01*
X0401767Y0080547D01*
X0401739Y0080575D01*
X0401707Y0080602D01*
X0401630Y0080673D01*
X0401543Y0080755D01*
X0401450Y0080837D01*
X0401363Y0080908D01*
X0401324Y0080941D01*
X0401292Y0080973D01*
X0401264Y0080995D01*
X0401242Y0081011D01*
X0401231Y0081022D01*
X0401226Y0081028D01*
X0401139Y0081104D01*
X0401051Y0081175D01*
X0400975Y0081246D01*
X0400904Y0081306D01*
X0400838Y0081366D01*
X0400784Y0081421D01*
X0400729Y0081470D01*
X0400686Y0081514D01*
X0400642Y0081558D01*
X0400609Y0081590D01*
X0400582Y0081618D01*
X0400555Y0081645D01*
X0400527Y0081678D01*
X0400516Y0081689D01*
X0400440Y0081781D01*
X0400374Y0081863D01*
X0400320Y0081945D01*
X0400276Y0082011D01*
X0400243Y0082071D01*
X0400221Y0082114D01*
X0400211Y0082142D01*
X0400205Y0082153D01*
X0400172Y0082235D01*
X0400150Y0082316D01*
X0400129Y0082393D01*
X0400118Y0082458D01*
X0400112Y0082519D01*
X0400107Y0082562D01*
Y0082590D01*
Y0082600D01*
X0400112Y0082682D01*
X0400123Y0082759D01*
X0400134Y0082835D01*
X0400156Y0082901D01*
X0400211Y0083032D01*
X0400265Y0083135D01*
X0400298Y0083185D01*
X0400325Y0083223D01*
X0400352Y0083261D01*
X0400380Y0083288D01*
X0400402Y0083310D01*
X0400413Y0083332D01*
X0400423Y0083337D01*
X0400429Y0083343D01*
X0400489Y0083398D01*
X0400555Y0083447D01*
X0400626Y0083485D01*
X0400696Y0083518D01*
X0400838Y0083572D01*
X0400980Y0083610D01*
X0401040Y0083621D01*
X0401100Y0083632D01*
X0401155Y0083638D01*
X0401199Y0083643D01*
X0401237Y0083649D01*
X0401292D01*
X0401390Y0083643D01*
D02*
G37*
G36*
X0412020D02*
X0412108Y0083632D01*
X0412195Y0083616D01*
X0412272Y0083594D01*
X0412419Y0083534D01*
X0412485Y0083507D01*
X0412539Y0083474D01*
X0412594Y0083436D01*
X0412638Y0083408D01*
X0412681Y0083376D01*
X0412714Y0083348D01*
X0412741Y0083327D01*
X0412758Y0083310D01*
X0412769Y0083299D01*
X0412774Y0083294D01*
X0412834Y0083228D01*
X0412883Y0083152D01*
X0412932Y0083081D01*
X0412970Y0083004D01*
X0413003Y0082923D01*
X0413031Y0082846D01*
X0413069Y0082704D01*
X0413085Y0082633D01*
X0413096Y0082573D01*
X0413102Y0082513D01*
X0413107Y0082464D01*
X0413112Y0082426D01*
Y0082398D01*
Y0082376D01*
Y0082371D01*
X0413107Y0082267D01*
X0413096Y0082174D01*
X0413085Y0082082D01*
X0413063Y0081994D01*
X0413036Y0081918D01*
X0413009Y0081841D01*
X0412981Y0081776D01*
X0412949Y0081716D01*
X0412921Y0081661D01*
X0412894Y0081612D01*
X0412867Y0081574D01*
X0412840Y0081536D01*
X0412818Y0081508D01*
X0412807Y0081492D01*
X0412796Y0081481D01*
X0412790Y0081476D01*
X0412730Y0081416D01*
X0412665Y0081366D01*
X0412599Y0081317D01*
X0412528Y0081279D01*
X0412463Y0081246D01*
X0412397Y0081219D01*
X0412272Y0081181D01*
X0412217Y0081164D01*
X0412162Y0081154D01*
X0412119Y0081148D01*
X0412075Y0081143D01*
X0412042Y0081137D01*
X0411999D01*
X0411895Y0081143D01*
X0411797Y0081159D01*
X0411709Y0081181D01*
X0411627Y0081208D01*
X0411567Y0081230D01*
X0411518Y0081252D01*
X0411485Y0081268D01*
X0411475Y0081274D01*
X0411387Y0081328D01*
X0411311Y0081388D01*
X0411245Y0081448D01*
X0411191Y0081503D01*
X0411152Y0081558D01*
X0411120Y0081596D01*
X0411098Y0081623D01*
X0411092Y0081634D01*
Y0081590D01*
Y0081563D01*
Y0081547D01*
Y0081541D01*
X0411098Y0081432D01*
X0411103Y0081328D01*
X0411114Y0081235D01*
X0411125Y0081148D01*
X0411141Y0081077D01*
X0411152Y0081022D01*
X0411158Y0081001D01*
Y0080984D01*
X0411163Y0080979D01*
Y0080973D01*
X0411191Y0080875D01*
X0411218Y0080788D01*
X0411245Y0080711D01*
X0411272Y0080646D01*
X0411294Y0080597D01*
X0411316Y0080558D01*
X0411327Y0080531D01*
X0411333Y0080526D01*
X0411376Y0080466D01*
X0411420Y0080416D01*
X0411464Y0080373D01*
X0411507Y0080335D01*
X0411540Y0080302D01*
X0411573Y0080280D01*
X0411595Y0080269D01*
X0411600Y0080264D01*
X0411660Y0080231D01*
X0411726Y0080209D01*
X0411786Y0080193D01*
X0411846Y0080182D01*
X0411895Y0080176D01*
X0411933Y0080171D01*
X0411971D01*
X0412059Y0080176D01*
X0412141Y0080193D01*
X0412212Y0080214D01*
X0412272Y0080242D01*
X0412315Y0080264D01*
X0412354Y0080285D01*
X0412375Y0080302D01*
X0412381Y0080307D01*
X0412435Y0080367D01*
X0412479Y0080438D01*
X0412517Y0080515D01*
X0412545Y0080591D01*
X0412567Y0080657D01*
X0412583Y0080717D01*
X0412588Y0080739D01*
Y0080749D01*
X0412594Y0080760D01*
Y0080766D01*
X0413041Y0080728D01*
X0413009Y0080569D01*
X0412965Y0080433D01*
X0412911Y0080313D01*
X0412856Y0080214D01*
X0412801Y0080138D01*
X0412774Y0080105D01*
X0412752Y0080078D01*
X0412736Y0080062D01*
X0412719Y0080045D01*
X0412714Y0080040D01*
X0412708Y0080034D01*
X0412654Y0079991D01*
X0412594Y0079952D01*
X0412474Y0079892D01*
X0412354Y0079848D01*
X0412239Y0079821D01*
X0412135Y0079799D01*
X0412091Y0079794D01*
X0412053D01*
X0412026Y0079789D01*
X0411982D01*
X0411829Y0079799D01*
X0411693Y0079821D01*
X0411567Y0079860D01*
X0411464Y0079903D01*
X0411420Y0079919D01*
X0411376Y0079941D01*
X0411343Y0079963D01*
X0411311Y0079980D01*
X0411289Y0079991D01*
X0411272Y0080001D01*
X0411262Y0080012D01*
X0411256D01*
X0411147Y0080105D01*
X0411049Y0080209D01*
X0410972Y0080318D01*
X0410907Y0080422D01*
X0410852Y0080515D01*
X0410830Y0080558D01*
X0410814Y0080591D01*
X0410803Y0080624D01*
X0410792Y0080646D01*
X0410786Y0080657D01*
Y0080662D01*
X0410759Y0080744D01*
X0410732Y0080837D01*
X0410694Y0081022D01*
X0410666Y0081219D01*
X0410650Y0081405D01*
X0410639Y0081486D01*
X0410634Y0081568D01*
Y0081639D01*
X0410628Y0081700D01*
Y0081749D01*
Y0081787D01*
Y0081814D01*
Y0081820D01*
Y0081945D01*
X0410634Y0082065D01*
X0410645Y0082174D01*
X0410655Y0082278D01*
X0410666Y0082371D01*
X0410677Y0082458D01*
X0410694Y0082540D01*
X0410710Y0082611D01*
X0410726Y0082671D01*
X0410737Y0082726D01*
X0410754Y0082775D01*
X0410765Y0082813D01*
X0410776Y0082841D01*
X0410786Y0082863D01*
X0410792Y0082873D01*
Y0082879D01*
X0410857Y0083010D01*
X0410928Y0083125D01*
X0411010Y0083223D01*
X0411081Y0083305D01*
X0411152Y0083365D01*
X0411207Y0083408D01*
X0411229Y0083425D01*
X0411245Y0083436D01*
X0411251Y0083447D01*
X0411256D01*
X0411371Y0083512D01*
X0411485Y0083561D01*
X0411600Y0083600D01*
X0411704Y0083621D01*
X0411797Y0083638D01*
X0411835Y0083643D01*
X0411862D01*
X0411889Y0083649D01*
X0411928D01*
X0412020Y0083643D01*
D02*
G37*
G36*
X0410230Y0080990D02*
X0408794D01*
Y0081454D01*
X0410230D01*
Y0080990D01*
D02*
G37*
G36*
X0417901Y0083638D02*
X0418037Y0083616D01*
X0418152Y0083578D01*
X0418250Y0083539D01*
X0418332Y0083496D01*
X0418365Y0083479D01*
X0418392Y0083458D01*
X0418414Y0083447D01*
X0418431Y0083436D01*
X0418436Y0083425D01*
X0418441D01*
X0418540Y0083337D01*
X0418622Y0083234D01*
X0418693Y0083130D01*
X0418747Y0083032D01*
X0418791Y0082939D01*
X0418813Y0082901D01*
X0418824Y0082863D01*
X0418835Y0082835D01*
X0418846Y0082813D01*
X0418851Y0082802D01*
Y0082797D01*
X0418873Y0082715D01*
X0418895Y0082633D01*
X0418927Y0082453D01*
X0418955Y0082273D01*
X0418971Y0082104D01*
X0418976Y0082022D01*
X0418982Y0081951D01*
Y0081885D01*
X0418987Y0081825D01*
Y0081781D01*
Y0081743D01*
Y0081721D01*
Y0081716D01*
X0418982Y0081525D01*
X0418971Y0081345D01*
X0418955Y0081181D01*
X0418927Y0081028D01*
X0418900Y0080886D01*
X0418867Y0080760D01*
X0418835Y0080646D01*
X0418802Y0080547D01*
X0418769Y0080460D01*
X0418731Y0080384D01*
X0418704Y0080318D01*
X0418676Y0080269D01*
X0418649Y0080225D01*
X0418633Y0080198D01*
X0418622Y0080182D01*
X0418616Y0080176D01*
X0418556Y0080111D01*
X0418491Y0080051D01*
X0418420Y0079996D01*
X0418349Y0079952D01*
X0418278Y0079914D01*
X0418207Y0079881D01*
X0418136Y0079860D01*
X0418070Y0079838D01*
X0418005Y0079821D01*
X0417945Y0079810D01*
X0417890Y0079799D01*
X0417846Y0079794D01*
X0417808Y0079789D01*
X0417754D01*
X0417606Y0079799D01*
X0417470Y0079821D01*
X0417355Y0079860D01*
X0417257Y0079898D01*
X0417175Y0079936D01*
X0417147Y0079958D01*
X0417120Y0079974D01*
X0417098Y0079985D01*
X0417082Y0079996D01*
X0417076Y0080007D01*
X0417071D01*
X0416973Y0080100D01*
X0416891Y0080198D01*
X0416820Y0080307D01*
X0416765Y0080405D01*
X0416721Y0080498D01*
X0416700Y0080537D01*
X0416689Y0080575D01*
X0416678Y0080602D01*
X0416667Y0080624D01*
X0416662Y0080635D01*
Y0080640D01*
X0416634Y0080722D01*
X0416612Y0080804D01*
X0416580Y0080979D01*
X0416552Y0081159D01*
X0416536Y0081334D01*
X0416530Y0081410D01*
X0416525Y0081481D01*
Y0081547D01*
X0416519Y0081607D01*
Y0081650D01*
Y0081689D01*
Y0081710D01*
Y0081716D01*
Y0081820D01*
X0416525Y0081918D01*
Y0082005D01*
X0416530Y0082093D01*
X0416541Y0082169D01*
X0416547Y0082245D01*
X0416552Y0082311D01*
X0416563Y0082371D01*
X0416569Y0082426D01*
X0416580Y0082475D01*
X0416585Y0082513D01*
X0416590Y0082546D01*
X0416596Y0082573D01*
X0416601Y0082590D01*
X0416607Y0082600D01*
Y0082606D01*
X0416640Y0082726D01*
X0416678Y0082835D01*
X0416721Y0082928D01*
X0416754Y0083010D01*
X0416792Y0083081D01*
X0416814Y0083130D01*
X0416836Y0083157D01*
X0416842Y0083168D01*
X0416902Y0083250D01*
X0416962Y0083321D01*
X0417027Y0083381D01*
X0417087Y0083436D01*
X0417142Y0083474D01*
X0417186Y0083501D01*
X0417213Y0083518D01*
X0417218Y0083523D01*
X0417224D01*
X0417311Y0083567D01*
X0417404Y0083594D01*
X0417491Y0083616D01*
X0417573Y0083632D01*
X0417644Y0083643D01*
X0417704Y0083649D01*
X0417754D01*
X0417901Y0083638D01*
D02*
G37*
G36*
X0414963D02*
X0415100Y0083616D01*
X0415215Y0083578D01*
X0415313Y0083539D01*
X0415395Y0083496D01*
X0415427Y0083479D01*
X0415455Y0083458D01*
X0415477Y0083447D01*
X0415493Y0083436D01*
X0415498Y0083425D01*
X0415504D01*
X0415602Y0083337D01*
X0415684Y0083234D01*
X0415755Y0083130D01*
X0415810Y0083032D01*
X0415853Y0082939D01*
X0415875Y0082901D01*
X0415886Y0082863D01*
X0415897Y0082835D01*
X0415908Y0082813D01*
X0415913Y0082802D01*
Y0082797D01*
X0415935Y0082715D01*
X0415957Y0082633D01*
X0415990Y0082453D01*
X0416017Y0082273D01*
X0416034Y0082104D01*
X0416039Y0082022D01*
X0416045Y0081951D01*
Y0081885D01*
X0416050Y0081825D01*
Y0081781D01*
Y0081743D01*
Y0081721D01*
Y0081716D01*
X0416045Y0081525D01*
X0416034Y0081345D01*
X0416017Y0081181D01*
X0415990Y0081028D01*
X0415963Y0080886D01*
X0415930Y0080760D01*
X0415897Y0080646D01*
X0415864Y0080547D01*
X0415832Y0080460D01*
X0415793Y0080384D01*
X0415766Y0080318D01*
X0415739Y0080269D01*
X0415711Y0080225D01*
X0415695Y0080198D01*
X0415684Y0080182D01*
X0415679Y0080176D01*
X0415619Y0080111D01*
X0415553Y0080051D01*
X0415482Y0079996D01*
X0415411Y0079952D01*
X0415340Y0079914D01*
X0415269Y0079881D01*
X0415198Y0079860D01*
X0415133Y0079838D01*
X0415067Y0079821D01*
X0415007Y0079810D01*
X0414953Y0079799D01*
X0414909Y0079794D01*
X0414871Y0079789D01*
X0414816D01*
X0414669Y0079799D01*
X0414532Y0079821D01*
X0414417Y0079860D01*
X0414319Y0079898D01*
X0414237Y0079936D01*
X0414210Y0079958D01*
X0414183Y0079974D01*
X0414161Y0079985D01*
X0414144Y0079996D01*
X0414139Y0080007D01*
X0414134D01*
X0414035Y0080100D01*
X0413953Y0080198D01*
X0413882Y0080307D01*
X0413828Y0080405D01*
X0413784Y0080498D01*
X0413762Y0080537D01*
X0413751Y0080575D01*
X0413740Y0080602D01*
X0413729Y0080624D01*
X0413724Y0080635D01*
Y0080640D01*
X0413697Y0080722D01*
X0413675Y0080804D01*
X0413642Y0080979D01*
X0413615Y0081159D01*
X0413598Y0081334D01*
X0413593Y0081410D01*
X0413588Y0081481D01*
Y0081547D01*
X0413582Y0081607D01*
Y0081650D01*
Y0081689D01*
Y0081710D01*
Y0081716D01*
Y0081820D01*
X0413588Y0081918D01*
Y0082005D01*
X0413593Y0082093D01*
X0413604Y0082169D01*
X0413609Y0082245D01*
X0413615Y0082311D01*
X0413626Y0082371D01*
X0413631Y0082426D01*
X0413642Y0082475D01*
X0413648Y0082513D01*
X0413653Y0082546D01*
X0413659Y0082573D01*
X0413664Y0082590D01*
X0413669Y0082600D01*
Y0082606D01*
X0413702Y0082726D01*
X0413740Y0082835D01*
X0413784Y0082928D01*
X0413817Y0083010D01*
X0413855Y0083081D01*
X0413877Y0083130D01*
X0413899Y0083157D01*
X0413904Y0083168D01*
X0413964Y0083250D01*
X0414024Y0083321D01*
X0414090Y0083381D01*
X0414150Y0083436D01*
X0414205Y0083474D01*
X0414248Y0083501D01*
X0414276Y0083518D01*
X0414281Y0083523D01*
X0414286D01*
X0414374Y0083567D01*
X0414467Y0083594D01*
X0414554Y0083616D01*
X0414636Y0083632D01*
X0414707Y0083643D01*
X0414767Y0083649D01*
X0414816D01*
X0414963Y0083638D01*
D02*
G37*
G36*
X0404393D02*
X0404529Y0083616D01*
X0404644Y0083578D01*
X0404742Y0083539D01*
X0404824Y0083496D01*
X0404857Y0083479D01*
X0404884Y0083458D01*
X0404906Y0083447D01*
X0404922Y0083436D01*
X0404928Y0083425D01*
X0404933D01*
X0405032Y0083337D01*
X0405114Y0083234D01*
X0405185Y0083130D01*
X0405239Y0083032D01*
X0405283Y0082939D01*
X0405305Y0082901D01*
X0405316Y0082863D01*
X0405327Y0082835D01*
X0405337Y0082813D01*
X0405343Y0082802D01*
Y0082797D01*
X0405365Y0082715D01*
X0405387Y0082633D01*
X0405419Y0082453D01*
X0405447Y0082273D01*
X0405463Y0082104D01*
X0405469Y0082022D01*
X0405474Y0081951D01*
Y0081885D01*
X0405479Y0081825D01*
Y0081781D01*
Y0081743D01*
Y0081721D01*
Y0081716D01*
X0405474Y0081525D01*
X0405463Y0081345D01*
X0405447Y0081181D01*
X0405419Y0081028D01*
X0405392Y0080886D01*
X0405359Y0080760D01*
X0405327Y0080646D01*
X0405294Y0080547D01*
X0405261Y0080460D01*
X0405223Y0080384D01*
X0405196Y0080318D01*
X0405168Y0080269D01*
X0405141Y0080225D01*
X0405125Y0080198D01*
X0405114Y0080182D01*
X0405108Y0080176D01*
X0405048Y0080111D01*
X0404983Y0080051D01*
X0404912Y0079996D01*
X0404841Y0079952D01*
X0404770Y0079914D01*
X0404699Y0079881D01*
X0404628Y0079860D01*
X0404562Y0079838D01*
X0404497Y0079821D01*
X0404436Y0079810D01*
X0404382Y0079799D01*
X0404338Y0079794D01*
X0404300Y0079789D01*
X0404245D01*
X0404098Y0079799D01*
X0403962Y0079821D01*
X0403847Y0079860D01*
X0403749Y0079898D01*
X0403667Y0079936D01*
X0403639Y0079958D01*
X0403612Y0079974D01*
X0403590Y0079985D01*
X0403574Y0079996D01*
X0403568Y0080007D01*
X0403563D01*
X0403465Y0080100D01*
X0403383Y0080198D01*
X0403312Y0080307D01*
X0403257Y0080405D01*
X0403214Y0080498D01*
X0403192Y0080537D01*
X0403181Y0080575D01*
X0403170Y0080602D01*
X0403159Y0080624D01*
X0403153Y0080635D01*
Y0080640D01*
X0403126Y0080722D01*
X0403104Y0080804D01*
X0403071Y0080979D01*
X0403044Y0081159D01*
X0403028Y0081334D01*
X0403022Y0081410D01*
X0403017Y0081481D01*
Y0081547D01*
X0403012Y0081607D01*
Y0081650D01*
Y0081689D01*
Y0081710D01*
Y0081716D01*
Y0081820D01*
X0403017Y0081918D01*
Y0082005D01*
X0403022Y0082093D01*
X0403033Y0082169D01*
X0403039Y0082245D01*
X0403044Y0082311D01*
X0403055Y0082371D01*
X0403061Y0082426D01*
X0403071Y0082475D01*
X0403077Y0082513D01*
X0403083Y0082546D01*
X0403088Y0082573D01*
X0403093Y0082590D01*
X0403099Y0082600D01*
Y0082606D01*
X0403132Y0082726D01*
X0403170Y0082835D01*
X0403214Y0082928D01*
X0403246Y0083010D01*
X0403285Y0083081D01*
X0403306Y0083130D01*
X0403328Y0083157D01*
X0403334Y0083168D01*
X0403394Y0083250D01*
X0403454Y0083321D01*
X0403519Y0083381D01*
X0403579Y0083436D01*
X0403634Y0083474D01*
X0403678Y0083501D01*
X0403705Y0083518D01*
X0403710Y0083523D01*
X0403716D01*
X0403803Y0083567D01*
X0403896Y0083594D01*
X0403983Y0083616D01*
X0404065Y0083632D01*
X0404136Y0083643D01*
X0404196Y0083649D01*
X0404245D01*
X0404393Y0083638D01*
D02*
G37*
G36*
X0422755Y0083578D02*
X0422837Y0083458D01*
X0422913Y0083337D01*
X0422984Y0083217D01*
X0423050Y0083108D01*
X0423110Y0082999D01*
X0423159Y0082895D01*
X0423208Y0082802D01*
X0423246Y0082715D01*
X0423284Y0082633D01*
X0423317Y0082562D01*
X0423339Y0082508D01*
X0423361Y0082458D01*
X0423372Y0082420D01*
X0423377Y0082398D01*
X0423383Y0082393D01*
X0423448Y0082180D01*
X0423497Y0081972D01*
X0423530Y0081776D01*
X0423547Y0081683D01*
X0423552Y0081596D01*
X0423563Y0081514D01*
X0423568Y0081443D01*
X0423574Y0081377D01*
Y0081323D01*
X0423579Y0081279D01*
Y0081246D01*
Y0081225D01*
Y0081219D01*
X0423574Y0081088D01*
X0423568Y0080962D01*
X0423536Y0080711D01*
X0423519Y0080597D01*
X0423497Y0080487D01*
X0423470Y0080378D01*
X0423448Y0080285D01*
X0423421Y0080193D01*
X0423399Y0080111D01*
X0423377Y0080045D01*
X0423355Y0079985D01*
X0423339Y0079936D01*
X0423328Y0079898D01*
X0423323Y0079876D01*
X0423317Y0079870D01*
X0423213Y0079636D01*
X0423159Y0079526D01*
X0423104Y0079423D01*
X0423050Y0079324D01*
X0422995Y0079232D01*
X0422946Y0079144D01*
X0422891Y0079062D01*
X0422848Y0078991D01*
X0422804Y0078926D01*
X0422766Y0078871D01*
X0422733Y0078828D01*
X0422706Y0078789D01*
X0422684Y0078762D01*
X0422673Y0078746D01*
X0422668Y0078740D01*
X0422334D01*
X0422471Y0078970D01*
X0422591Y0079199D01*
X0422689Y0079428D01*
X0422777Y0079646D01*
X0422853Y0079860D01*
X0422919Y0080067D01*
X0422968Y0080264D01*
X0423006Y0080444D01*
X0423039Y0080607D01*
X0423066Y0080760D01*
X0423082Y0080891D01*
X0423093Y0081006D01*
Y0081055D01*
X0423099Y0081099D01*
Y0081132D01*
X0423104Y0081164D01*
Y0081186D01*
Y0081203D01*
Y0081213D01*
Y0081219D01*
X0423099Y0081399D01*
X0423088Y0081574D01*
X0423071Y0081738D01*
X0423061Y0081814D01*
X0423050Y0081885D01*
X0423039Y0081951D01*
X0423028Y0082005D01*
X0423022Y0082060D01*
X0423011Y0082104D01*
X0423006Y0082136D01*
X0423000Y0082164D01*
X0422995Y0082180D01*
Y0082185D01*
X0422957Y0082327D01*
X0422919Y0082464D01*
X0422880Y0082590D01*
X0422837Y0082704D01*
X0422820Y0082753D01*
X0422804Y0082797D01*
X0422788Y0082835D01*
X0422777Y0082868D01*
X0422766Y0082895D01*
X0422755Y0082912D01*
X0422749Y0082923D01*
Y0082928D01*
X0422727Y0082977D01*
X0422706Y0083026D01*
X0422640Y0083146D01*
X0422575Y0083272D01*
X0422504Y0083398D01*
X0422438Y0083512D01*
X0422411Y0083567D01*
X0422384Y0083610D01*
X0422362Y0083649D01*
X0422345Y0083676D01*
X0422340Y0083692D01*
X0422334Y0083698D01*
X0422668D01*
X0422755Y0083578D01*
D02*
G37*
G36*
X0396509Y0083600D02*
X0396454Y0083507D01*
X0396410Y0083425D01*
X0396367Y0083348D01*
X0396328Y0083277D01*
X0396296Y0083212D01*
X0396268Y0083157D01*
X0396241Y0083108D01*
X0396219Y0083059D01*
X0396203Y0083026D01*
X0396186Y0082994D01*
X0396176Y0082966D01*
X0396165Y0082950D01*
X0396159Y0082933D01*
X0396154Y0082928D01*
Y0082923D01*
X0396099Y0082792D01*
X0396050Y0082655D01*
X0396006Y0082529D01*
X0395973Y0082420D01*
X0395946Y0082322D01*
X0395935Y0082278D01*
X0395924Y0082245D01*
X0395919Y0082218D01*
X0395914Y0082196D01*
X0395908Y0082185D01*
Y0082180D01*
X0395870Y0082000D01*
X0395843Y0081825D01*
X0395821Y0081667D01*
X0395815Y0081590D01*
X0395810Y0081519D01*
X0395804Y0081454D01*
X0395799Y0081399D01*
Y0081345D01*
X0395793Y0081301D01*
Y0081268D01*
Y0081241D01*
Y0081225D01*
Y0081219D01*
X0395804Y0080984D01*
X0395826Y0080755D01*
X0395864Y0080526D01*
X0395914Y0080307D01*
X0395973Y0080094D01*
X0396039Y0079887D01*
X0396105Y0079696D01*
X0396176Y0079515D01*
X0396252Y0079346D01*
X0396318Y0079199D01*
X0396383Y0079062D01*
X0396443Y0078953D01*
X0396470Y0078904D01*
X0396492Y0078860D01*
X0396514Y0078828D01*
X0396531Y0078795D01*
X0396541Y0078773D01*
X0396552Y0078756D01*
X0396563Y0078746D01*
Y0078740D01*
X0396230D01*
X0396094Y0078926D01*
X0395968Y0079122D01*
X0395859Y0079313D01*
X0395810Y0079401D01*
X0395766Y0079488D01*
X0395728Y0079570D01*
X0395690Y0079641D01*
X0395657Y0079707D01*
X0395635Y0079761D01*
X0395613Y0079810D01*
X0395597Y0079843D01*
X0395591Y0079865D01*
X0395586Y0079870D01*
X0395537Y0079991D01*
X0395498Y0080116D01*
X0395460Y0080236D01*
X0395433Y0080356D01*
X0395384Y0080580D01*
X0395368Y0080689D01*
X0395351Y0080788D01*
X0395340Y0080880D01*
X0395335Y0080962D01*
X0395324Y0081039D01*
Y0081099D01*
X0395318Y0081148D01*
Y0081186D01*
Y0081213D01*
Y0081219D01*
X0395329Y0081443D01*
X0395351Y0081661D01*
X0395368Y0081765D01*
X0395384Y0081858D01*
X0395400Y0081951D01*
X0395417Y0082038D01*
X0395439Y0082114D01*
X0395455Y0082185D01*
X0395471Y0082245D01*
X0395488Y0082295D01*
X0395504Y0082338D01*
X0395509Y0082366D01*
X0395520Y0082387D01*
Y0082393D01*
X0395564Y0082513D01*
X0395619Y0082639D01*
X0395728Y0082873D01*
X0395788Y0082988D01*
X0395848Y0083092D01*
X0395903Y0083196D01*
X0395963Y0083294D01*
X0396017Y0083381D01*
X0396066Y0083458D01*
X0396110Y0083529D01*
X0396154Y0083589D01*
X0396186Y0083632D01*
X0396208Y0083671D01*
X0396225Y0083692D01*
X0396230Y0083698D01*
X0396563D01*
X0396509Y0083600D01*
D02*
G37*
G36*
X0415157Y0076242D02*
X0414693D01*
Y0076772D01*
X0415157D01*
Y0076242D01*
D02*
G37*
G36*
X0388436D02*
X0387972D01*
Y0076772D01*
X0388436D01*
Y0076242D01*
D02*
G37*
G36*
X0436806Y0076149D02*
X0436681Y0075434D01*
X0436397D01*
X0436276Y0076149D01*
Y0076772D01*
X0436806D01*
Y0076149D01*
D02*
G37*
G36*
X0435949D02*
X0435823Y0075434D01*
X0435545D01*
X0435419Y0076149D01*
Y0076772D01*
X0435949D01*
Y0076149D01*
D02*
G37*
G36*
X0408108Y0072993D02*
X0407644D01*
Y0074489D01*
X0407639Y0074604D01*
X0407633Y0074702D01*
X0407622Y0074790D01*
X0407606Y0074861D01*
X0407590Y0074915D01*
X0407579Y0074959D01*
X0407573Y0074981D01*
X0407568Y0074992D01*
X0407535Y0075057D01*
X0407497Y0075117D01*
X0407453Y0075166D01*
X0407409Y0075210D01*
X0407371Y0075243D01*
X0407338Y0075265D01*
X0407317Y0075281D01*
X0407311Y0075287D01*
X0407240Y0075325D01*
X0407175Y0075352D01*
X0407109Y0075368D01*
X0407055Y0075385D01*
X0407000Y0075390D01*
X0406962Y0075396D01*
X0406929D01*
X0406831Y0075390D01*
X0406743Y0075368D01*
X0406672Y0075347D01*
X0406612Y0075314D01*
X0406563Y0075287D01*
X0406531Y0075259D01*
X0406509Y0075237D01*
X0406503Y0075232D01*
X0406454Y0075166D01*
X0406416Y0075085D01*
X0406389Y0075003D01*
X0406367Y0074921D01*
X0406356Y0074844D01*
X0406350Y0074784D01*
Y0074762D01*
Y0074746D01*
Y0074735D01*
Y0074730D01*
Y0072993D01*
X0405886D01*
Y0074724D01*
X0405892Y0074866D01*
X0405903Y0074992D01*
X0405919Y0075095D01*
X0405935Y0075183D01*
X0405952Y0075254D01*
X0405968Y0075303D01*
X0405979Y0075330D01*
X0405984Y0075341D01*
X0406028Y0075418D01*
X0406077Y0075483D01*
X0406132Y0075538D01*
X0406181Y0075587D01*
X0406230Y0075625D01*
X0406268Y0075652D01*
X0406296Y0075669D01*
X0406307Y0075674D01*
X0406394Y0075712D01*
X0406481Y0075745D01*
X0406569Y0075767D01*
X0406651Y0075778D01*
X0406721Y0075789D01*
X0406782Y0075794D01*
X0406831D01*
X0406918Y0075789D01*
X0407006Y0075778D01*
X0407087Y0075762D01*
X0407164Y0075734D01*
X0407306Y0075674D01*
X0407366Y0075641D01*
X0407420Y0075609D01*
X0407470Y0075570D01*
X0407519Y0075538D01*
X0407557Y0075505D01*
X0407584Y0075478D01*
X0407612Y0075450D01*
X0407628Y0075434D01*
X0407639Y0075423D01*
X0407644Y0075418D01*
Y0076772D01*
X0408108D01*
Y0072993D01*
D02*
G37*
G36*
X0383451Y0075789D02*
X0383571Y0075767D01*
X0383680Y0075734D01*
X0383773Y0075701D01*
X0383850Y0075669D01*
X0383904Y0075636D01*
X0383926Y0075625D01*
X0383942Y0075614D01*
X0383948Y0075609D01*
X0383953D01*
X0384046Y0075538D01*
X0384128Y0075450D01*
X0384199Y0075368D01*
X0384259Y0075287D01*
X0384303Y0075210D01*
X0384336Y0075150D01*
X0384347Y0075128D01*
X0384357Y0075112D01*
X0384363Y0075101D01*
Y0075095D01*
X0384412Y0074970D01*
X0384445Y0074844D01*
X0384472Y0074724D01*
X0384488Y0074615D01*
X0384499Y0074517D01*
Y0074479D01*
X0384505Y0074440D01*
Y0074413D01*
Y0074391D01*
Y0074380D01*
Y0074375D01*
X0384499Y0074271D01*
X0384494Y0074167D01*
X0384456Y0073982D01*
X0384434Y0073894D01*
X0384406Y0073818D01*
X0384379Y0073741D01*
X0384352Y0073676D01*
X0384325Y0073610D01*
X0384297Y0073556D01*
X0384270Y0073512D01*
X0384248Y0073468D01*
X0384226Y0073441D01*
X0384210Y0073414D01*
X0384205Y0073403D01*
X0384199Y0073397D01*
X0384139Y0073326D01*
X0384073Y0073266D01*
X0384002Y0073212D01*
X0383931Y0073163D01*
X0383855Y0073124D01*
X0383784Y0073092D01*
X0383713Y0073064D01*
X0383642Y0073043D01*
X0383577Y0073026D01*
X0383517Y0073015D01*
X0383462Y0073004D01*
X0383413Y0072999D01*
X0383375D01*
X0383347Y0072993D01*
X0383320D01*
X0383238Y0072999D01*
X0383156Y0073010D01*
X0383080Y0073026D01*
X0383009Y0073048D01*
X0382883Y0073108D01*
X0382769Y0073173D01*
X0382725Y0073206D01*
X0382681Y0073239D01*
X0382643Y0073272D01*
X0382616Y0073299D01*
X0382594Y0073321D01*
X0382577Y0073337D01*
X0382566Y0073348D01*
X0382561Y0073354D01*
Y0073272D01*
Y0073201D01*
X0382566Y0073130D01*
Y0073070D01*
Y0073015D01*
X0382572Y0072966D01*
Y0072922D01*
X0382577Y0072884D01*
X0382583Y0072830D01*
X0382588Y0072786D01*
X0382594Y0072764D01*
Y0072759D01*
X0382621Y0072677D01*
X0382659Y0072606D01*
X0382698Y0072546D01*
X0382736Y0072491D01*
X0382774Y0072453D01*
X0382807Y0072420D01*
X0382829Y0072404D01*
X0382834Y0072398D01*
X0382905Y0072355D01*
X0382987Y0072322D01*
X0383069Y0072300D01*
X0383145Y0072284D01*
X0383222Y0072273D01*
X0383276Y0072267D01*
X0383331D01*
X0383435Y0072273D01*
X0383533Y0072289D01*
X0383615Y0072311D01*
X0383680Y0072338D01*
X0383735Y0072360D01*
X0383773Y0072382D01*
X0383795Y0072398D01*
X0383806Y0072404D01*
X0383850Y0072442D01*
X0383882Y0072491D01*
X0383910Y0072540D01*
X0383931Y0072589D01*
X0383942Y0072638D01*
X0383953Y0072677D01*
X0383959Y0072698D01*
Y0072709D01*
X0384412Y0072769D01*
Y0072688D01*
X0384401Y0072617D01*
X0384390Y0072546D01*
X0384374Y0072480D01*
X0384325Y0072365D01*
X0384270Y0072273D01*
X0384215Y0072202D01*
X0384172Y0072153D01*
X0384134Y0072120D01*
X0384128Y0072114D01*
X0384123Y0072109D01*
X0384002Y0072032D01*
X0383872Y0071978D01*
X0383740Y0071940D01*
X0383615Y0071912D01*
X0383555Y0071901D01*
X0383500Y0071896D01*
X0383456Y0071890D01*
X0383413D01*
X0383380Y0071885D01*
X0383331D01*
X0383184Y0071890D01*
X0383047Y0071912D01*
X0382927Y0071934D01*
X0382829Y0071967D01*
X0382747Y0071994D01*
X0382714Y0072005D01*
X0382687Y0072022D01*
X0382665Y0072027D01*
X0382648Y0072038D01*
X0382643Y0072043D01*
X0382638D01*
X0382539Y0072103D01*
X0382452Y0072174D01*
X0382381Y0072245D01*
X0382321Y0072311D01*
X0382277Y0072371D01*
X0382250Y0072420D01*
X0382228Y0072453D01*
X0382223Y0072458D01*
Y0072464D01*
X0382201Y0072518D01*
X0382179Y0072578D01*
X0382162Y0072644D01*
X0382146Y0072715D01*
X0382124Y0072868D01*
X0382108Y0073015D01*
X0382102Y0073086D01*
X0382097Y0073152D01*
Y0073212D01*
X0382091Y0073261D01*
Y0073305D01*
Y0073337D01*
Y0073359D01*
Y0073365D01*
Y0075734D01*
X0382517D01*
Y0075396D01*
X0382577Y0075467D01*
X0382643Y0075527D01*
X0382709Y0075581D01*
X0382774Y0075625D01*
X0382845Y0075663D01*
X0382910Y0075696D01*
X0382976Y0075723D01*
X0383036Y0075745D01*
X0383096Y0075762D01*
X0383151Y0075773D01*
X0383200Y0075783D01*
X0383238Y0075789D01*
X0383271Y0075794D01*
X0383320D01*
X0383451Y0075789D01*
D02*
G37*
G36*
X0423222Y0072993D02*
X0422779D01*
X0421736Y0075734D01*
X0422217D01*
X0422823Y0074058D01*
X0422861Y0073949D01*
X0422899Y0073851D01*
X0422927Y0073758D01*
X0422954Y0073687D01*
X0422970Y0073621D01*
X0422987Y0073578D01*
X0422992Y0073550D01*
X0422998Y0073539D01*
X0423031Y0073643D01*
X0423058Y0073747D01*
X0423091Y0073840D01*
X0423118Y0073922D01*
X0423140Y0073993D01*
X0423156Y0074047D01*
X0423162Y0074063D01*
X0423167Y0074080D01*
X0423173Y0074085D01*
Y0074091D01*
X0423762Y0075734D01*
X0424254D01*
X0423222Y0072993D01*
D02*
G37*
G36*
X0390309D02*
X0390331Y0072944D01*
X0390342Y0072906D01*
X0390353Y0072884D01*
Y0072879D01*
X0390385Y0072786D01*
X0390418Y0072709D01*
X0390440Y0072644D01*
X0390462Y0072600D01*
X0390473Y0072567D01*
X0390483Y0072546D01*
X0390494Y0072535D01*
Y0072529D01*
X0390538Y0072469D01*
X0390587Y0072426D01*
X0390609Y0072409D01*
X0390626Y0072398D01*
X0390636Y0072387D01*
X0390642D01*
X0390680Y0072371D01*
X0390718Y0072355D01*
X0390800Y0072338D01*
X0390833D01*
X0390860Y0072333D01*
X0390888D01*
X0390975Y0072338D01*
X0391062Y0072355D01*
X0391095Y0072365D01*
X0391122Y0072371D01*
X0391144Y0072376D01*
X0391150D01*
X0391101Y0071945D01*
X0391040Y0071923D01*
X0390986Y0071912D01*
X0390937Y0071901D01*
X0390893Y0071890D01*
X0390855D01*
X0390827Y0071885D01*
X0390806D01*
X0390724Y0071890D01*
X0390653Y0071901D01*
X0390587Y0071918D01*
X0390533Y0071940D01*
X0390483Y0071961D01*
X0390451Y0071978D01*
X0390429Y0071989D01*
X0390423Y0071994D01*
X0390363Y0072038D01*
X0390314Y0072092D01*
X0390265Y0072147D01*
X0390221Y0072202D01*
X0390189Y0072251D01*
X0390161Y0072289D01*
X0390145Y0072316D01*
X0390140Y0072327D01*
X0390123Y0072365D01*
X0390101Y0072404D01*
X0390058Y0072496D01*
X0390014Y0072600D01*
X0389976Y0072704D01*
X0389937Y0072797D01*
X0389921Y0072840D01*
X0389905Y0072879D01*
X0389894Y0072906D01*
X0389883Y0072928D01*
X0389877Y0072944D01*
Y0072950D01*
X0388835Y0075734D01*
X0389299D01*
X0389888Y0074134D01*
X0389932Y0074020D01*
X0389965Y0073911D01*
X0390003Y0073801D01*
X0390030Y0073709D01*
X0390052Y0073627D01*
X0390063Y0073594D01*
X0390069Y0073567D01*
X0390074Y0073545D01*
X0390079Y0073528D01*
X0390085Y0073518D01*
Y0073512D01*
X0390118Y0073638D01*
X0390150Y0073752D01*
X0390183Y0073861D01*
X0390216Y0073954D01*
X0390243Y0074031D01*
X0390254Y0074063D01*
X0390265Y0074091D01*
X0390271Y0074118D01*
X0390276Y0074134D01*
X0390282Y0074140D01*
Y0074145D01*
X0390855Y0075734D01*
X0391346D01*
X0390309Y0072993D01*
D02*
G37*
G36*
X0409501Y0076411D02*
Y0075734D01*
X0409845D01*
Y0075374D01*
X0409501D01*
Y0073791D01*
Y0073714D01*
Y0073649D01*
X0409495Y0073589D01*
X0409490Y0073528D01*
Y0073479D01*
X0409484Y0073436D01*
X0409473Y0073365D01*
X0409462Y0073310D01*
X0409457Y0073272D01*
X0409446Y0073250D01*
Y0073245D01*
X0409424Y0073195D01*
X0409391Y0073157D01*
X0409359Y0073119D01*
X0409331Y0073092D01*
X0409299Y0073064D01*
X0409277Y0073048D01*
X0409260Y0073037D01*
X0409255Y0073032D01*
X0409195Y0073004D01*
X0409135Y0072988D01*
X0409069Y0072971D01*
X0409004Y0072966D01*
X0408949Y0072961D01*
X0408906Y0072955D01*
X0408862D01*
X0408742Y0072961D01*
X0408682Y0072966D01*
X0408627Y0072977D01*
X0408578Y0072982D01*
X0408540Y0072988D01*
X0408518Y0072993D01*
X0408507D01*
X0408567Y0073403D01*
X0408611Y0073397D01*
X0408654Y0073392D01*
X0408693D01*
X0408720Y0073387D01*
X0408775D01*
X0408846Y0073392D01*
X0408895Y0073403D01*
X0408922Y0073414D01*
X0408933Y0073419D01*
X0408971Y0073447D01*
X0408993Y0073474D01*
X0409009Y0073496D01*
X0409015Y0073507D01*
X0409020Y0073534D01*
X0409026Y0073572D01*
X0409031Y0073659D01*
X0409037Y0073698D01*
Y0073730D01*
Y0073752D01*
Y0073763D01*
Y0075374D01*
X0408567D01*
Y0075734D01*
X0409037D01*
Y0076690D01*
X0409501Y0076411D01*
D02*
G37*
G36*
X0400699Y0074588D02*
Y0074479D01*
X0400694Y0074375D01*
X0400688Y0074276D01*
X0400677Y0074184D01*
X0400666Y0074102D01*
X0400656Y0074025D01*
X0400639Y0073954D01*
X0400628Y0073889D01*
X0400617Y0073829D01*
X0400601Y0073780D01*
X0400590Y0073736D01*
X0400579Y0073703D01*
X0400568Y0073676D01*
X0400563Y0073654D01*
X0400557Y0073643D01*
Y0073638D01*
X0400497Y0073518D01*
X0400421Y0073408D01*
X0400344Y0073321D01*
X0400262Y0073245D01*
X0400191Y0073184D01*
X0400131Y0073141D01*
X0400109Y0073130D01*
X0400093Y0073119D01*
X0400082Y0073108D01*
X0400077D01*
X0399940Y0073048D01*
X0399798Y0073004D01*
X0399651Y0072971D01*
X0399514Y0072950D01*
X0399454Y0072944D01*
X0399394Y0072939D01*
X0399340Y0072933D01*
X0399296D01*
X0399258Y0072928D01*
X0399209D01*
X0399012Y0072939D01*
X0398925Y0072950D01*
X0398843Y0072961D01*
X0398761Y0072977D01*
X0398690Y0072993D01*
X0398624Y0073010D01*
X0398564Y0073032D01*
X0398510Y0073053D01*
X0398466Y0073070D01*
X0398422Y0073086D01*
X0398390Y0073102D01*
X0398362Y0073119D01*
X0398346Y0073124D01*
X0398335Y0073135D01*
X0398329D01*
X0398209Y0073217D01*
X0398111Y0073310D01*
X0398035Y0073397D01*
X0397969Y0073485D01*
X0397920Y0073561D01*
X0397887Y0073621D01*
X0397876Y0073643D01*
X0397865Y0073659D01*
X0397860Y0073670D01*
Y0073676D01*
X0397838Y0073741D01*
X0397816Y0073812D01*
X0397783Y0073960D01*
X0397762Y0074113D01*
X0397745Y0074260D01*
X0397740Y0074326D01*
X0397734Y0074391D01*
Y0074446D01*
X0397729Y0074495D01*
Y0074533D01*
Y0074560D01*
Y0074582D01*
Y0074588D01*
Y0076772D01*
X0398231D01*
Y0074588D01*
Y0074462D01*
X0398242Y0074342D01*
X0398253Y0074238D01*
X0398270Y0074140D01*
X0398286Y0074053D01*
X0398308Y0073971D01*
X0398324Y0073900D01*
X0398346Y0073840D01*
X0398368Y0073791D01*
X0398390Y0073741D01*
X0398411Y0073709D01*
X0398428Y0073676D01*
X0398444Y0073654D01*
X0398455Y0073638D01*
X0398461Y0073632D01*
X0398466Y0073627D01*
X0398515Y0073583D01*
X0398570Y0073545D01*
X0398690Y0073485D01*
X0398815Y0073441D01*
X0398946Y0073414D01*
X0399067Y0073392D01*
X0399116Y0073387D01*
X0399165D01*
X0399198Y0073381D01*
X0399252D01*
X0399367Y0073387D01*
X0399471Y0073403D01*
X0399569Y0073419D01*
X0399645Y0073447D01*
X0399711Y0073468D01*
X0399760Y0073485D01*
X0399787Y0073501D01*
X0399798Y0073507D01*
X0399875Y0073556D01*
X0399940Y0073616D01*
X0399995Y0073676D01*
X0400033Y0073730D01*
X0400066Y0073785D01*
X0400093Y0073823D01*
X0400104Y0073851D01*
X0400109Y0073861D01*
X0400126Y0073911D01*
X0400137Y0073960D01*
X0400159Y0074074D01*
X0400175Y0074195D01*
X0400186Y0074315D01*
X0400191Y0074418D01*
Y0074467D01*
X0400197Y0074506D01*
Y0074538D01*
Y0074566D01*
Y0074582D01*
Y0074588D01*
Y0076772D01*
X0400699D01*
Y0074588D01*
D02*
G37*
G36*
X0425886Y0075789D02*
X0425984Y0075778D01*
X0426077Y0075762D01*
X0426165Y0075734D01*
X0426247Y0075707D01*
X0426323Y0075674D01*
X0426394Y0075641D01*
X0426454Y0075603D01*
X0426514Y0075570D01*
X0426563Y0075532D01*
X0426607Y0075499D01*
X0426640Y0075472D01*
X0426667Y0075445D01*
X0426689Y0075428D01*
X0426700Y0075418D01*
X0426705Y0075412D01*
X0426765Y0075336D01*
X0426820Y0075254D01*
X0426869Y0075172D01*
X0426913Y0075085D01*
X0426945Y0074992D01*
X0426973Y0074904D01*
X0427016Y0074730D01*
X0427033Y0074653D01*
X0427044Y0074577D01*
X0427049Y0074511D01*
X0427055Y0074451D01*
X0427060Y0074402D01*
Y0074369D01*
Y0074342D01*
Y0074336D01*
X0427055Y0074216D01*
X0427044Y0074102D01*
X0427027Y0073993D01*
X0427005Y0073894D01*
X0426978Y0073801D01*
X0426951Y0073714D01*
X0426918Y0073638D01*
X0426885Y0073567D01*
X0426853Y0073507D01*
X0426820Y0073452D01*
X0426792Y0073408D01*
X0426765Y0073370D01*
X0426743Y0073337D01*
X0426727Y0073316D01*
X0426716Y0073305D01*
X0426711Y0073299D01*
X0426640Y0073234D01*
X0426569Y0073179D01*
X0426492Y0073130D01*
X0426410Y0073086D01*
X0426334Y0073053D01*
X0426252Y0073021D01*
X0426099Y0072977D01*
X0426028Y0072966D01*
X0425963Y0072955D01*
X0425903Y0072944D01*
X0425853Y0072939D01*
X0425815Y0072933D01*
X0425755D01*
X0425586Y0072944D01*
X0425433Y0072971D01*
X0425296Y0073004D01*
X0425242Y0073026D01*
X0425187Y0073048D01*
X0425138Y0073070D01*
X0425094Y0073092D01*
X0425062Y0073108D01*
X0425029Y0073124D01*
X0425007Y0073141D01*
X0424991Y0073152D01*
X0424980Y0073163D01*
X0424974D01*
X0424865Y0073261D01*
X0424778Y0073365D01*
X0424701Y0073474D01*
X0424647Y0073578D01*
X0424603Y0073670D01*
X0424587Y0073714D01*
X0424570Y0073747D01*
X0424559Y0073780D01*
X0424554Y0073801D01*
X0424548Y0073812D01*
Y0073818D01*
X0425029Y0073878D01*
X0425073Y0073774D01*
X0425122Y0073687D01*
X0425171Y0073610D01*
X0425215Y0073550D01*
X0425253Y0073507D01*
X0425285Y0073474D01*
X0425313Y0073452D01*
X0425318Y0073447D01*
X0425389Y0073403D01*
X0425460Y0073370D01*
X0425537Y0073348D01*
X0425602Y0073332D01*
X0425662Y0073321D01*
X0425711Y0073316D01*
X0425755D01*
X0425821Y0073321D01*
X0425881Y0073326D01*
X0425990Y0073354D01*
X0426088Y0073392D01*
X0426175Y0073436D01*
X0426241Y0073474D01*
X0426290Y0073512D01*
X0426323Y0073539D01*
X0426328Y0073550D01*
X0426334D01*
X0426410Y0073649D01*
X0426470Y0073758D01*
X0426514Y0073878D01*
X0426547Y0073987D01*
X0426563Y0074085D01*
X0426574Y0074129D01*
X0426580Y0074167D01*
Y0074200D01*
X0426585Y0074222D01*
Y0074238D01*
Y0074244D01*
X0424538D01*
X0424532Y0074298D01*
Y0074336D01*
Y0074358D01*
Y0074364D01*
X0424538Y0074489D01*
X0424548Y0074604D01*
X0424565Y0074713D01*
X0424587Y0074817D01*
X0424614Y0074910D01*
X0424641Y0074997D01*
X0424674Y0075074D01*
X0424707Y0075145D01*
X0424740Y0075210D01*
X0424772Y0075265D01*
X0424800Y0075308D01*
X0424827Y0075347D01*
X0424849Y0075379D01*
X0424865Y0075401D01*
X0424876Y0075412D01*
X0424882Y0075418D01*
X0424947Y0075483D01*
X0425018Y0075543D01*
X0425094Y0075592D01*
X0425171Y0075636D01*
X0425247Y0075674D01*
X0425318Y0075701D01*
X0425395Y0075729D01*
X0425460Y0075745D01*
X0425531Y0075762D01*
X0425591Y0075773D01*
X0425646Y0075783D01*
X0425690Y0075789D01*
X0425728Y0075794D01*
X0425782D01*
X0425886Y0075789D01*
D02*
G37*
G36*
X0420306D02*
X0420404Y0075778D01*
X0420497Y0075762D01*
X0420584Y0075734D01*
X0420666Y0075707D01*
X0420743Y0075674D01*
X0420814Y0075641D01*
X0420874Y0075603D01*
X0420934Y0075570D01*
X0420983Y0075532D01*
X0421027Y0075499D01*
X0421060Y0075472D01*
X0421087Y0075445D01*
X0421109Y0075428D01*
X0421120Y0075418D01*
X0421125Y0075412D01*
X0421185Y0075336D01*
X0421240Y0075254D01*
X0421289Y0075172D01*
X0421333Y0075085D01*
X0421365Y0074992D01*
X0421393Y0074904D01*
X0421436Y0074730D01*
X0421453Y0074653D01*
X0421464Y0074577D01*
X0421469Y0074511D01*
X0421475Y0074451D01*
X0421480Y0074402D01*
Y0074369D01*
Y0074342D01*
Y0074336D01*
X0421475Y0074216D01*
X0421464Y0074102D01*
X0421447Y0073993D01*
X0421425Y0073894D01*
X0421398Y0073801D01*
X0421371Y0073714D01*
X0421338Y0073638D01*
X0421305Y0073567D01*
X0421273Y0073507D01*
X0421240Y0073452D01*
X0421212Y0073408D01*
X0421185Y0073370D01*
X0421163Y0073337D01*
X0421147Y0073316D01*
X0421136Y0073305D01*
X0421131Y0073299D01*
X0421060Y0073234D01*
X0420989Y0073179D01*
X0420912Y0073130D01*
X0420830Y0073086D01*
X0420754Y0073053D01*
X0420672Y0073021D01*
X0420519Y0072977D01*
X0420448Y0072966D01*
X0420382Y0072955D01*
X0420322Y0072944D01*
X0420273Y0072939D01*
X0420235Y0072933D01*
X0420175D01*
X0420006Y0072944D01*
X0419853Y0072971D01*
X0419716Y0073004D01*
X0419662Y0073026D01*
X0419607Y0073048D01*
X0419558Y0073070D01*
X0419514Y0073092D01*
X0419482Y0073108D01*
X0419449Y0073124D01*
X0419427Y0073141D01*
X0419411Y0073152D01*
X0419400Y0073163D01*
X0419394D01*
X0419285Y0073261D01*
X0419198Y0073365D01*
X0419121Y0073474D01*
X0419067Y0073578D01*
X0419023Y0073670D01*
X0419006Y0073714D01*
X0418990Y0073747D01*
X0418979Y0073780D01*
X0418974Y0073801D01*
X0418968Y0073812D01*
Y0073818D01*
X0419449Y0073878D01*
X0419492Y0073774D01*
X0419542Y0073687D01*
X0419591Y0073610D01*
X0419634Y0073550D01*
X0419673Y0073507D01*
X0419705Y0073474D01*
X0419733Y0073452D01*
X0419738Y0073447D01*
X0419809Y0073403D01*
X0419880Y0073370D01*
X0419957Y0073348D01*
X0420022Y0073332D01*
X0420082Y0073321D01*
X0420131Y0073316D01*
X0420175D01*
X0420240Y0073321D01*
X0420301Y0073326D01*
X0420410Y0073354D01*
X0420508Y0073392D01*
X0420595Y0073436D01*
X0420661Y0073474D01*
X0420710Y0073512D01*
X0420743Y0073539D01*
X0420748Y0073550D01*
X0420754D01*
X0420830Y0073649D01*
X0420890Y0073758D01*
X0420934Y0073878D01*
X0420967Y0073987D01*
X0420983Y0074085D01*
X0420994Y0074129D01*
X0420999Y0074167D01*
Y0074200D01*
X0421005Y0074222D01*
Y0074238D01*
Y0074244D01*
X0418957D01*
X0418952Y0074298D01*
Y0074336D01*
Y0074358D01*
Y0074364D01*
X0418957Y0074489D01*
X0418968Y0074604D01*
X0418985Y0074713D01*
X0419006Y0074817D01*
X0419034Y0074910D01*
X0419061Y0074997D01*
X0419094Y0075074D01*
X0419127Y0075145D01*
X0419159Y0075210D01*
X0419192Y0075265D01*
X0419219Y0075308D01*
X0419247Y0075347D01*
X0419269Y0075379D01*
X0419285Y0075401D01*
X0419296Y0075412D01*
X0419301Y0075418D01*
X0419367Y0075483D01*
X0419438Y0075543D01*
X0419514Y0075592D01*
X0419591Y0075636D01*
X0419667Y0075674D01*
X0419738Y0075701D01*
X0419815Y0075729D01*
X0419880Y0075745D01*
X0419951Y0075762D01*
X0420011Y0075773D01*
X0420066Y0075783D01*
X0420110Y0075789D01*
X0420148Y0075794D01*
X0420202D01*
X0420306Y0075789D01*
D02*
G37*
G36*
X0404155D02*
X0404254Y0075778D01*
X0404347Y0075762D01*
X0404434Y0075734D01*
X0404516Y0075707D01*
X0404592Y0075674D01*
X0404663Y0075641D01*
X0404723Y0075603D01*
X0404783Y0075570D01*
X0404832Y0075532D01*
X0404876Y0075499D01*
X0404909Y0075472D01*
X0404936Y0075445D01*
X0404958Y0075428D01*
X0404969Y0075418D01*
X0404974Y0075412D01*
X0405034Y0075336D01*
X0405089Y0075254D01*
X0405138Y0075172D01*
X0405182Y0075085D01*
X0405215Y0074992D01*
X0405242Y0074904D01*
X0405286Y0074730D01*
X0405302Y0074653D01*
X0405313Y0074577D01*
X0405318Y0074511D01*
X0405324Y0074451D01*
X0405329Y0074402D01*
Y0074369D01*
Y0074342D01*
Y0074336D01*
X0405324Y0074216D01*
X0405313Y0074102D01*
X0405297Y0073993D01*
X0405275Y0073894D01*
X0405247Y0073801D01*
X0405220Y0073714D01*
X0405187Y0073638D01*
X0405155Y0073567D01*
X0405122Y0073507D01*
X0405089Y0073452D01*
X0405062Y0073408D01*
X0405034Y0073370D01*
X0405013Y0073337D01*
X0404996Y0073316D01*
X0404985Y0073305D01*
X0404980Y0073299D01*
X0404909Y0073234D01*
X0404838Y0073179D01*
X0404761Y0073130D01*
X0404679Y0073086D01*
X0404603Y0073053D01*
X0404521Y0073021D01*
X0404368Y0072977D01*
X0404297Y0072966D01*
X0404232Y0072955D01*
X0404172Y0072944D01*
X0404123Y0072939D01*
X0404084Y0072933D01*
X0404024D01*
X0403855Y0072944D01*
X0403702Y0072971D01*
X0403566Y0073004D01*
X0403511Y0073026D01*
X0403456Y0073048D01*
X0403407Y0073070D01*
X0403364Y0073092D01*
X0403331Y0073108D01*
X0403298Y0073124D01*
X0403276Y0073141D01*
X0403260Y0073152D01*
X0403249Y0073163D01*
X0403243D01*
X0403134Y0073261D01*
X0403047Y0073365D01*
X0402971Y0073474D01*
X0402916Y0073578D01*
X0402872Y0073670D01*
X0402856Y0073714D01*
X0402840Y0073747D01*
X0402829Y0073780D01*
X0402823Y0073801D01*
X0402818Y0073812D01*
Y0073818D01*
X0403298Y0073878D01*
X0403342Y0073774D01*
X0403391Y0073687D01*
X0403440Y0073610D01*
X0403484Y0073550D01*
X0403522Y0073507D01*
X0403555Y0073474D01*
X0403582Y0073452D01*
X0403587Y0073447D01*
X0403658Y0073403D01*
X0403729Y0073370D01*
X0403806Y0073348D01*
X0403871Y0073332D01*
X0403932Y0073321D01*
X0403981Y0073316D01*
X0404024D01*
X0404090Y0073321D01*
X0404150Y0073326D01*
X0404259Y0073354D01*
X0404357Y0073392D01*
X0404445Y0073436D01*
X0404510Y0073474D01*
X0404559Y0073512D01*
X0404592Y0073539D01*
X0404598Y0073550D01*
X0404603D01*
X0404679Y0073649D01*
X0404740Y0073758D01*
X0404783Y0073878D01*
X0404816Y0073987D01*
X0404832Y0074085D01*
X0404843Y0074129D01*
X0404849Y0074167D01*
Y0074200D01*
X0404854Y0074222D01*
Y0074238D01*
Y0074244D01*
X0402807D01*
X0402801Y0074298D01*
Y0074336D01*
Y0074358D01*
Y0074364D01*
X0402807Y0074489D01*
X0402818Y0074604D01*
X0402834Y0074713D01*
X0402856Y0074817D01*
X0402883Y0074910D01*
X0402911Y0074997D01*
X0402943Y0075074D01*
X0402976Y0075145D01*
X0403009Y0075210D01*
X0403042Y0075265D01*
X0403069Y0075308D01*
X0403096Y0075347D01*
X0403118Y0075379D01*
X0403134Y0075401D01*
X0403145Y0075412D01*
X0403151Y0075418D01*
X0403216Y0075483D01*
X0403287Y0075543D01*
X0403364Y0075592D01*
X0403440Y0075636D01*
X0403516Y0075674D01*
X0403587Y0075701D01*
X0403664Y0075729D01*
X0403729Y0075745D01*
X0403800Y0075762D01*
X0403861Y0075773D01*
X0403915Y0075783D01*
X0403959Y0075789D01*
X0403997Y0075794D01*
X0404052D01*
X0404155Y0075789D01*
D02*
G37*
G36*
X0434742Y0072993D02*
X0434240D01*
Y0074708D01*
X0432465D01*
Y0075156D01*
X0434240D01*
Y0076324D01*
X0432187D01*
Y0076772D01*
X0434742D01*
Y0072993D01*
D02*
G37*
G36*
X0427715Y0075789D02*
X0427770Y0075778D01*
X0427824Y0075762D01*
X0427868Y0075745D01*
X0427901Y0075729D01*
X0427934Y0075712D01*
X0427950Y0075701D01*
X0427955Y0075696D01*
X0428005Y0075652D01*
X0428054Y0075598D01*
X0428103Y0075532D01*
X0428147Y0075472D01*
X0428190Y0075412D01*
X0428218Y0075363D01*
X0428239Y0075325D01*
X0428245Y0075319D01*
Y0075734D01*
X0428665D01*
Y0072993D01*
X0428201D01*
Y0074424D01*
X0428196Y0074533D01*
X0428190Y0074631D01*
X0428179Y0074724D01*
X0428163Y0074806D01*
X0428147Y0074872D01*
X0428136Y0074921D01*
X0428130Y0074954D01*
X0428125Y0074964D01*
X0428103Y0075024D01*
X0428076Y0075074D01*
X0428048Y0075117D01*
X0428021Y0075156D01*
X0427994Y0075183D01*
X0427977Y0075205D01*
X0427961Y0075216D01*
X0427955Y0075221D01*
X0427912Y0075254D01*
X0427863Y0075276D01*
X0427813Y0075292D01*
X0427775Y0075303D01*
X0427737Y0075308D01*
X0427710Y0075314D01*
X0427682D01*
X0427622Y0075308D01*
X0427562Y0075297D01*
X0427502Y0075281D01*
X0427453Y0075265D01*
X0427410Y0075248D01*
X0427377Y0075232D01*
X0427355Y0075221D01*
X0427349Y0075216D01*
X0427180Y0075641D01*
X0427273Y0075691D01*
X0427360Y0075729D01*
X0427437Y0075756D01*
X0427508Y0075778D01*
X0427568Y0075789D01*
X0427617Y0075794D01*
X0427655D01*
X0427715Y0075789D01*
D02*
G37*
G36*
X0417440D02*
X0417494Y0075778D01*
X0417549Y0075762D01*
X0417592Y0075745D01*
X0417625Y0075729D01*
X0417658Y0075712D01*
X0417674Y0075701D01*
X0417680Y0075696D01*
X0417729Y0075652D01*
X0417778Y0075598D01*
X0417827Y0075532D01*
X0417871Y0075472D01*
X0417914Y0075412D01*
X0417942Y0075363D01*
X0417964Y0075325D01*
X0417969Y0075319D01*
Y0075734D01*
X0418390D01*
Y0072993D01*
X0417926D01*
Y0074424D01*
X0417920Y0074533D01*
X0417914Y0074631D01*
X0417904Y0074724D01*
X0417887Y0074806D01*
X0417871Y0074872D01*
X0417860Y0074921D01*
X0417854Y0074954D01*
X0417849Y0074964D01*
X0417827Y0075024D01*
X0417800Y0075074D01*
X0417773Y0075117D01*
X0417745Y0075156D01*
X0417718Y0075183D01*
X0417702Y0075205D01*
X0417685Y0075216D01*
X0417680Y0075221D01*
X0417636Y0075254D01*
X0417587Y0075276D01*
X0417538Y0075292D01*
X0417500Y0075303D01*
X0417461Y0075308D01*
X0417434Y0075314D01*
X0417407D01*
X0417347Y0075308D01*
X0417287Y0075297D01*
X0417227Y0075281D01*
X0417177Y0075265D01*
X0417134Y0075248D01*
X0417101Y0075232D01*
X0417079Y0075221D01*
X0417074Y0075216D01*
X0416904Y0075641D01*
X0416997Y0075691D01*
X0417085Y0075729D01*
X0417161Y0075756D01*
X0417232Y0075778D01*
X0417292Y0075789D01*
X0417341Y0075794D01*
X0417380D01*
X0417440Y0075789D01*
D02*
G37*
G36*
X0415157Y0072993D02*
X0414693D01*
Y0075734D01*
X0415157D01*
Y0072993D01*
D02*
G37*
G36*
X0412804Y0075789D02*
X0412902Y0075773D01*
X0412990Y0075751D01*
X0413077Y0075723D01*
X0413153Y0075691D01*
X0413224Y0075652D01*
X0413290Y0075609D01*
X0413344Y0075570D01*
X0413399Y0075527D01*
X0413443Y0075483D01*
X0413481Y0075445D01*
X0413514Y0075412D01*
X0413536Y0075385D01*
X0413552Y0075363D01*
X0413563Y0075347D01*
X0413568Y0075341D01*
Y0075734D01*
X0413983D01*
Y0072993D01*
X0413519D01*
Y0074484D01*
Y0074577D01*
X0413508Y0074670D01*
X0413497Y0074746D01*
X0413486Y0074817D01*
X0413470Y0074883D01*
X0413454Y0074943D01*
X0413432Y0074997D01*
X0413410Y0075041D01*
X0413394Y0075079D01*
X0413372Y0075112D01*
X0413355Y0075139D01*
X0413339Y0075161D01*
X0413317Y0075188D01*
X0413306Y0075199D01*
X0413224Y0075265D01*
X0413137Y0075308D01*
X0413050Y0075341D01*
X0412973Y0075368D01*
X0412902Y0075379D01*
X0412848Y0075385D01*
X0412826Y0075390D01*
X0412799D01*
X0412733Y0075385D01*
X0412668Y0075379D01*
X0412613Y0075363D01*
X0412569Y0075347D01*
X0412531Y0075330D01*
X0412498Y0075319D01*
X0412482Y0075308D01*
X0412476Y0075303D01*
X0412427Y0075270D01*
X0412384Y0075232D01*
X0412351Y0075194D01*
X0412324Y0075161D01*
X0412307Y0075128D01*
X0412291Y0075101D01*
X0412280Y0075085D01*
Y0075079D01*
X0412263Y0075019D01*
X0412247Y0074954D01*
X0412236Y0074883D01*
X0412231Y0074812D01*
X0412225Y0074752D01*
Y0074702D01*
Y0074664D01*
Y0074659D01*
Y0074653D01*
Y0072993D01*
X0411761D01*
Y0074675D01*
Y0074790D01*
X0411767Y0074883D01*
X0411772Y0074959D01*
Y0075024D01*
X0411777Y0075068D01*
X0411783Y0075101D01*
X0411788Y0075123D01*
Y0075128D01*
X0411805Y0075199D01*
X0411832Y0075265D01*
X0411854Y0075319D01*
X0411876Y0075374D01*
X0411903Y0075412D01*
X0411919Y0075439D01*
X0411930Y0075461D01*
X0411936Y0075467D01*
X0411979Y0075521D01*
X0412029Y0075565D01*
X0412078Y0075609D01*
X0412132Y0075641D01*
X0412176Y0075669D01*
X0412214Y0075685D01*
X0412236Y0075696D01*
X0412247Y0075701D01*
X0412324Y0075734D01*
X0412405Y0075756D01*
X0412482Y0075773D01*
X0412553Y0075783D01*
X0412613Y0075789D01*
X0412657Y0075794D01*
X0412700D01*
X0412804Y0075789D01*
D02*
G37*
G36*
X0395774D02*
X0395872Y0075773D01*
X0395960Y0075751D01*
X0396047Y0075723D01*
X0396124Y0075691D01*
X0396195Y0075652D01*
X0396260Y0075609D01*
X0396315Y0075570D01*
X0396369Y0075527D01*
X0396413Y0075483D01*
X0396451Y0075445D01*
X0396484Y0075412D01*
X0396506Y0075385D01*
X0396522Y0075363D01*
X0396533Y0075347D01*
X0396539Y0075341D01*
Y0075734D01*
X0396954D01*
Y0072993D01*
X0396490D01*
Y0074484D01*
Y0074577D01*
X0396479Y0074670D01*
X0396468Y0074746D01*
X0396457Y0074817D01*
X0396440Y0074883D01*
X0396424Y0074943D01*
X0396402Y0074997D01*
X0396380Y0075041D01*
X0396364Y0075079D01*
X0396342Y0075112D01*
X0396326Y0075139D01*
X0396309Y0075161D01*
X0396287Y0075188D01*
X0396277Y0075199D01*
X0396195Y0075265D01*
X0396107Y0075308D01*
X0396020Y0075341D01*
X0395943Y0075368D01*
X0395872Y0075379D01*
X0395818Y0075385D01*
X0395796Y0075390D01*
X0395769D01*
X0395703Y0075385D01*
X0395638Y0075379D01*
X0395583Y0075363D01*
X0395539Y0075347D01*
X0395501Y0075330D01*
X0395468Y0075319D01*
X0395452Y0075308D01*
X0395447Y0075303D01*
X0395397Y0075270D01*
X0395354Y0075232D01*
X0395321Y0075194D01*
X0395294Y0075161D01*
X0395277Y0075128D01*
X0395261Y0075101D01*
X0395250Y0075085D01*
Y0075079D01*
X0395234Y0075019D01*
X0395217Y0074954D01*
X0395206Y0074883D01*
X0395201Y0074812D01*
X0395196Y0074752D01*
Y0074702D01*
Y0074664D01*
Y0074659D01*
Y0074653D01*
Y0072993D01*
X0394731D01*
Y0074675D01*
Y0074790D01*
X0394737Y0074883D01*
X0394742Y0074959D01*
Y0075024D01*
X0394748Y0075068D01*
X0394753Y0075101D01*
X0394759Y0075123D01*
Y0075128D01*
X0394775Y0075199D01*
X0394802Y0075265D01*
X0394824Y0075319D01*
X0394846Y0075374D01*
X0394873Y0075412D01*
X0394890Y0075439D01*
X0394901Y0075461D01*
X0394906Y0075467D01*
X0394950Y0075521D01*
X0394999Y0075565D01*
X0395048Y0075609D01*
X0395103Y0075641D01*
X0395146Y0075669D01*
X0395185Y0075685D01*
X0395206Y0075696D01*
X0395217Y0075701D01*
X0395294Y0075734D01*
X0395376Y0075756D01*
X0395452Y0075773D01*
X0395523Y0075783D01*
X0395583Y0075789D01*
X0395627Y0075794D01*
X0395671D01*
X0395774Y0075789D01*
D02*
G37*
G36*
X0388436Y0072993D02*
X0387972D01*
Y0075734D01*
X0388436D01*
Y0072993D01*
D02*
G37*
G36*
X0386083Y0075789D02*
X0386181Y0075773D01*
X0386268Y0075751D01*
X0386356Y0075723D01*
X0386432Y0075691D01*
X0386503Y0075652D01*
X0386569Y0075609D01*
X0386623Y0075570D01*
X0386678Y0075527D01*
X0386722Y0075483D01*
X0386760Y0075445D01*
X0386792Y0075412D01*
X0386814Y0075385D01*
X0386831Y0075363D01*
X0386842Y0075347D01*
X0386847Y0075341D01*
Y0075734D01*
X0387262D01*
Y0072993D01*
X0386798D01*
Y0074484D01*
Y0074577D01*
X0386787Y0074670D01*
X0386776Y0074746D01*
X0386765Y0074817D01*
X0386749Y0074883D01*
X0386733Y0074943D01*
X0386711Y0074997D01*
X0386689Y0075041D01*
X0386672Y0075079D01*
X0386651Y0075112D01*
X0386634Y0075139D01*
X0386618Y0075161D01*
X0386596Y0075188D01*
X0386585Y0075199D01*
X0386503Y0075265D01*
X0386416Y0075308D01*
X0386329Y0075341D01*
X0386252Y0075368D01*
X0386181Y0075379D01*
X0386126Y0075385D01*
X0386105Y0075390D01*
X0386077D01*
X0386012Y0075385D01*
X0385946Y0075379D01*
X0385892Y0075363D01*
X0385848Y0075347D01*
X0385810Y0075330D01*
X0385777Y0075319D01*
X0385761Y0075308D01*
X0385755Y0075303D01*
X0385706Y0075270D01*
X0385662Y0075232D01*
X0385630Y0075194D01*
X0385602Y0075161D01*
X0385586Y0075128D01*
X0385570Y0075101D01*
X0385559Y0075085D01*
Y0075079D01*
X0385542Y0075019D01*
X0385526Y0074954D01*
X0385515Y0074883D01*
X0385509Y0074812D01*
X0385504Y0074752D01*
Y0074702D01*
Y0074664D01*
Y0074659D01*
Y0074653D01*
Y0072993D01*
X0385040D01*
Y0074675D01*
Y0074790D01*
X0385045Y0074883D01*
X0385051Y0074959D01*
Y0075024D01*
X0385056Y0075068D01*
X0385062Y0075101D01*
X0385067Y0075123D01*
Y0075128D01*
X0385084Y0075199D01*
X0385111Y0075265D01*
X0385133Y0075319D01*
X0385155Y0075374D01*
X0385182Y0075412D01*
X0385198Y0075439D01*
X0385209Y0075461D01*
X0385215Y0075467D01*
X0385258Y0075521D01*
X0385307Y0075565D01*
X0385357Y0075609D01*
X0385411Y0075641D01*
X0385455Y0075669D01*
X0385493Y0075685D01*
X0385515Y0075696D01*
X0385526Y0075701D01*
X0385602Y0075734D01*
X0385684Y0075756D01*
X0385761Y0075773D01*
X0385832Y0075783D01*
X0385892Y0075789D01*
X0385935Y0075794D01*
X0385979D01*
X0386083Y0075789D01*
D02*
G37*
G36*
X0430582D02*
X0430669Y0075783D01*
X0430838Y0075745D01*
X0430986Y0075696D01*
X0431051Y0075669D01*
X0431111Y0075641D01*
X0431166Y0075614D01*
X0431210Y0075587D01*
X0431253Y0075560D01*
X0431286Y0075538D01*
X0431313Y0075516D01*
X0431335Y0075499D01*
X0431346Y0075494D01*
X0431352Y0075489D01*
X0431428Y0075418D01*
X0431488Y0075336D01*
X0431548Y0075248D01*
X0431592Y0075161D01*
X0431636Y0075068D01*
X0431668Y0074970D01*
X0431696Y0074877D01*
X0431717Y0074790D01*
X0431739Y0074702D01*
X0431750Y0074626D01*
X0431761Y0074549D01*
X0431767Y0074489D01*
Y0074435D01*
X0431772Y0074397D01*
Y0074375D01*
Y0074364D01*
X0431767Y0074238D01*
X0431756Y0074118D01*
X0431739Y0074009D01*
X0431717Y0073905D01*
X0431690Y0073812D01*
X0431663Y0073725D01*
X0431630Y0073643D01*
X0431597Y0073572D01*
X0431565Y0073507D01*
X0431532Y0073452D01*
X0431504Y0073408D01*
X0431477Y0073370D01*
X0431455Y0073337D01*
X0431439Y0073316D01*
X0431428Y0073305D01*
X0431423Y0073299D01*
X0431352Y0073234D01*
X0431281Y0073179D01*
X0431204Y0073130D01*
X0431128Y0073086D01*
X0431051Y0073053D01*
X0430969Y0073021D01*
X0430822Y0072977D01*
X0430757Y0072966D01*
X0430691Y0072955D01*
X0430636Y0072944D01*
X0430587Y0072939D01*
X0430544Y0072933D01*
X0430489D01*
X0430358Y0072939D01*
X0430238Y0072961D01*
X0430123Y0072988D01*
X0430030Y0073015D01*
X0429948Y0073048D01*
X0429916Y0073059D01*
X0429888Y0073070D01*
X0429861Y0073081D01*
X0429845Y0073092D01*
X0429839Y0073097D01*
X0429834D01*
X0429725Y0073168D01*
X0429632Y0073245D01*
X0429550Y0073321D01*
X0429484Y0073397D01*
X0429435Y0073463D01*
X0429397Y0073518D01*
X0429386Y0073539D01*
X0429375Y0073556D01*
X0429370Y0073561D01*
Y0073567D01*
X0429315Y0073692D01*
X0429277Y0073829D01*
X0429244Y0073965D01*
X0429228Y0074102D01*
X0429217Y0074162D01*
Y0074216D01*
X0429211Y0074271D01*
X0429206Y0074315D01*
Y0074353D01*
Y0074380D01*
Y0074397D01*
Y0074402D01*
X0429211Y0074522D01*
X0429222Y0074631D01*
X0429239Y0074735D01*
X0429260Y0074833D01*
X0429288Y0074926D01*
X0429320Y0075008D01*
X0429353Y0075090D01*
X0429386Y0075156D01*
X0429419Y0075216D01*
X0429452Y0075270D01*
X0429484Y0075319D01*
X0429512Y0075358D01*
X0429533Y0075385D01*
X0429550Y0075407D01*
X0429561Y0075418D01*
X0429566Y0075423D01*
X0429637Y0075489D01*
X0429708Y0075543D01*
X0429785Y0075598D01*
X0429861Y0075636D01*
X0429938Y0075674D01*
X0430014Y0075701D01*
X0430161Y0075751D01*
X0430232Y0075762D01*
X0430292Y0075773D01*
X0430347Y0075783D01*
X0430396Y0075789D01*
X0430434Y0075794D01*
X0430489D01*
X0430582Y0075789D01*
D02*
G37*
G36*
X0392280Y0075418D02*
X0392329Y0075478D01*
X0392384Y0075527D01*
X0392433Y0075576D01*
X0392487Y0075614D01*
X0392531Y0075641D01*
X0392564Y0075669D01*
X0392586Y0075680D01*
X0392597Y0075685D01*
X0392668Y0075723D01*
X0392744Y0075751D01*
X0392820Y0075767D01*
X0392891Y0075783D01*
X0392951Y0075789D01*
X0392995Y0075794D01*
X0393039D01*
X0393159Y0075789D01*
X0393274Y0075767D01*
X0393377Y0075740D01*
X0393465Y0075707D01*
X0393541Y0075669D01*
X0393596Y0075641D01*
X0393618Y0075630D01*
X0393634Y0075620D01*
X0393639Y0075614D01*
X0393645D01*
X0393743Y0075543D01*
X0393825Y0075456D01*
X0393896Y0075374D01*
X0393951Y0075292D01*
X0393994Y0075216D01*
X0394027Y0075156D01*
X0394038Y0075134D01*
X0394049Y0075117D01*
X0394054Y0075106D01*
Y0075101D01*
X0394098Y0074975D01*
X0394131Y0074844D01*
X0394158Y0074719D01*
X0394175Y0074604D01*
X0394185Y0074506D01*
Y0074462D01*
X0394191Y0074429D01*
Y0074397D01*
Y0074375D01*
Y0074364D01*
Y0074358D01*
X0394185Y0074205D01*
X0394169Y0074063D01*
X0394142Y0073938D01*
X0394114Y0073829D01*
X0394104Y0073780D01*
X0394093Y0073741D01*
X0394076Y0073703D01*
X0394065Y0073670D01*
X0394054Y0073649D01*
X0394049Y0073632D01*
X0394043Y0073621D01*
Y0073616D01*
X0393983Y0073501D01*
X0393912Y0073403D01*
X0393841Y0073316D01*
X0393770Y0073245D01*
X0393710Y0073190D01*
X0393661Y0073146D01*
X0393629Y0073124D01*
X0393623Y0073114D01*
X0393618D01*
X0393514Y0073053D01*
X0393410Y0073010D01*
X0393306Y0072977D01*
X0393214Y0072955D01*
X0393137Y0072944D01*
X0393072Y0072939D01*
X0393050Y0072933D01*
X0393017D01*
X0392924Y0072939D01*
X0392837Y0072950D01*
X0392755Y0072971D01*
X0392684Y0072999D01*
X0392613Y0073026D01*
X0392547Y0073059D01*
X0392493Y0073097D01*
X0392444Y0073135D01*
X0392394Y0073173D01*
X0392356Y0073212D01*
X0392323Y0073245D01*
X0392296Y0073272D01*
X0392274Y0073299D01*
X0392258Y0073321D01*
X0392253Y0073332D01*
X0392247Y0073337D01*
Y0072993D01*
X0391816D01*
Y0076772D01*
X0392280D01*
Y0075418D01*
D02*
G37*
G36*
X0386435Y0070441D02*
X0386309Y0069726D01*
X0386025D01*
X0385905Y0070441D01*
Y0071064D01*
X0386435D01*
Y0070441D01*
D02*
G37*
G36*
X0385578D02*
X0385452Y0069726D01*
X0385174D01*
X0385048Y0070441D01*
Y0071064D01*
X0385578D01*
Y0070441D01*
D02*
G37*
G36*
X0401805Y0067286D02*
X0401302D01*
Y0069065D01*
X0399348D01*
Y0067286D01*
X0398846D01*
Y0071064D01*
X0399348D01*
Y0069513D01*
X0401302D01*
Y0071064D01*
X0401805D01*
Y0067286D01*
D02*
G37*
G36*
X0429924Y0070081D02*
X0430038Y0070070D01*
X0430148Y0070054D01*
X0430235Y0070037D01*
X0430311Y0070021D01*
X0430366Y0070004D01*
X0430388Y0069999D01*
X0430404Y0069994D01*
X0430410Y0069988D01*
X0430415D01*
X0430508Y0069950D01*
X0430590Y0069901D01*
X0430661Y0069857D01*
X0430721Y0069813D01*
X0430765Y0069770D01*
X0430797Y0069737D01*
X0430819Y0069715D01*
X0430825Y0069710D01*
X0430874Y0069639D01*
X0430918Y0069562D01*
X0430950Y0069486D01*
X0430978Y0069415D01*
X0430999Y0069344D01*
X0431016Y0069295D01*
X0431021Y0069273D01*
Y0069257D01*
X0431027Y0069251D01*
Y0069246D01*
X0430574Y0069186D01*
X0430541Y0069284D01*
X0430508Y0069371D01*
X0430470Y0069442D01*
X0430437Y0069497D01*
X0430404Y0069540D01*
X0430377Y0069568D01*
X0430355Y0069584D01*
X0430350Y0069590D01*
X0430284Y0069628D01*
X0430208Y0069655D01*
X0430126Y0069677D01*
X0430049Y0069688D01*
X0429973Y0069699D01*
X0429918Y0069704D01*
X0429864D01*
X0429738Y0069699D01*
X0429629Y0069682D01*
X0429542Y0069655D01*
X0429465Y0069628D01*
X0429411Y0069595D01*
X0429367Y0069573D01*
X0429340Y0069551D01*
X0429334Y0069546D01*
X0429290Y0069497D01*
X0429258Y0069437D01*
X0429230Y0069371D01*
X0429214Y0069306D01*
X0429203Y0069246D01*
X0429198Y0069191D01*
Y0069158D01*
Y0069153D01*
Y0069147D01*
Y0069136D01*
Y0069115D01*
Y0069076D01*
X0429203Y0069044D01*
Y0069033D01*
Y0069027D01*
X0429258Y0069011D01*
X0429318Y0068994D01*
X0429443Y0068962D01*
X0429585Y0068934D01*
X0429716Y0068907D01*
X0429782Y0068896D01*
X0429842Y0068891D01*
X0429896Y0068880D01*
X0429940Y0068874D01*
X0429978Y0068869D01*
X0430006D01*
X0430028Y0068863D01*
X0430033D01*
X0430131Y0068853D01*
X0430213Y0068836D01*
X0430284Y0068825D01*
X0430339Y0068814D01*
X0430382Y0068809D01*
X0430415Y0068798D01*
X0430437Y0068792D01*
X0430442D01*
X0430513Y0068771D01*
X0430574Y0068749D01*
X0430634Y0068721D01*
X0430683Y0068700D01*
X0430726Y0068678D01*
X0430754Y0068656D01*
X0430776Y0068645D01*
X0430781Y0068639D01*
X0430836Y0068601D01*
X0430879Y0068558D01*
X0430923Y0068514D01*
X0430956Y0068470D01*
X0430983Y0068432D01*
X0431005Y0068399D01*
X0431016Y0068378D01*
X0431021Y0068372D01*
X0431049Y0068312D01*
X0431070Y0068246D01*
X0431087Y0068186D01*
X0431098Y0068126D01*
X0431103Y0068077D01*
X0431109Y0068039D01*
Y0068017D01*
Y0068006D01*
X0431103Y0067941D01*
X0431098Y0067886D01*
X0431070Y0067771D01*
X0431032Y0067679D01*
X0430989Y0067597D01*
X0430945Y0067531D01*
X0430907Y0067482D01*
X0430879Y0067455D01*
X0430868Y0067444D01*
X0430770Y0067373D01*
X0430661Y0067318D01*
X0430541Y0067280D01*
X0430432Y0067253D01*
X0430333Y0067236D01*
X0430290Y0067231D01*
X0430251D01*
X0430219Y0067225D01*
X0430175D01*
X0430077Y0067231D01*
X0429978Y0067242D01*
X0429891Y0067253D01*
X0429815Y0067269D01*
X0429755Y0067286D01*
X0429705Y0067302D01*
X0429673Y0067307D01*
X0429662Y0067313D01*
X0429569Y0067351D01*
X0429482Y0067400D01*
X0429400Y0067455D01*
X0429318Y0067504D01*
X0429252Y0067553D01*
X0429203Y0067591D01*
X0429170Y0067619D01*
X0429165Y0067629D01*
X0429159D01*
X0429148Y0067558D01*
X0429138Y0067493D01*
X0429127Y0067433D01*
X0429110Y0067384D01*
X0429094Y0067340D01*
X0429083Y0067313D01*
X0429077Y0067291D01*
X0429072Y0067286D01*
X0428586D01*
X0428613Y0067345D01*
X0428641Y0067406D01*
X0428663Y0067460D01*
X0428674Y0067509D01*
X0428690Y0067553D01*
X0428695Y0067586D01*
X0428701Y0067608D01*
Y0067613D01*
X0428706Y0067651D01*
X0428712Y0067700D01*
Y0067755D01*
X0428717Y0067815D01*
X0428723Y0067952D01*
Y0068088D01*
X0428728Y0068219D01*
Y0068279D01*
Y0068328D01*
Y0068372D01*
Y0068405D01*
Y0068427D01*
Y0068432D01*
Y0069055D01*
Y0069158D01*
X0428733Y0069251D01*
X0428739Y0069322D01*
Y0069382D01*
X0428745Y0069426D01*
X0428750Y0069459D01*
X0428755Y0069475D01*
Y0069480D01*
X0428772Y0069551D01*
X0428794Y0069611D01*
X0428815Y0069661D01*
X0428843Y0069710D01*
X0428865Y0069743D01*
X0428881Y0069770D01*
X0428892Y0069786D01*
X0428897Y0069792D01*
X0428941Y0069835D01*
X0428990Y0069879D01*
X0429045Y0069912D01*
X0429099Y0069945D01*
X0429148Y0069966D01*
X0429187Y0069983D01*
X0429214Y0069994D01*
X0429225Y0069999D01*
X0429312Y0070026D01*
X0429405Y0070048D01*
X0429498Y0070065D01*
X0429591Y0070076D01*
X0429673Y0070081D01*
X0429733Y0070086D01*
X0429793D01*
X0429924Y0070081D01*
D02*
G37*
G36*
X0394106D02*
X0394221Y0070070D01*
X0394330Y0070054D01*
X0394417Y0070037D01*
X0394494Y0070021D01*
X0394549Y0070004D01*
X0394570Y0069999D01*
X0394587Y0069994D01*
X0394592Y0069988D01*
X0394598D01*
X0394690Y0069950D01*
X0394772Y0069901D01*
X0394843Y0069857D01*
X0394903Y0069813D01*
X0394947Y0069770D01*
X0394980Y0069737D01*
X0395002Y0069715D01*
X0395007Y0069710D01*
X0395056Y0069639D01*
X0395100Y0069562D01*
X0395133Y0069486D01*
X0395160Y0069415D01*
X0395182Y0069344D01*
X0395198Y0069295D01*
X0395204Y0069273D01*
Y0069257D01*
X0395209Y0069251D01*
Y0069246D01*
X0394756Y0069186D01*
X0394723Y0069284D01*
X0394690Y0069371D01*
X0394652Y0069442D01*
X0394619Y0069497D01*
X0394587Y0069540D01*
X0394559Y0069568D01*
X0394538Y0069584D01*
X0394532Y0069590D01*
X0394467Y0069628D01*
X0394390Y0069655D01*
X0394308Y0069677D01*
X0394232Y0069688D01*
X0394155Y0069699D01*
X0394101Y0069704D01*
X0394046D01*
X0393921Y0069699D01*
X0393811Y0069682D01*
X0393724Y0069655D01*
X0393648Y0069628D01*
X0393593Y0069595D01*
X0393549Y0069573D01*
X0393522Y0069551D01*
X0393516Y0069546D01*
X0393473Y0069497D01*
X0393440Y0069437D01*
X0393413Y0069371D01*
X0393396Y0069306D01*
X0393386Y0069246D01*
X0393380Y0069191D01*
Y0069158D01*
Y0069153D01*
Y0069147D01*
Y0069136D01*
Y0069115D01*
Y0069076D01*
X0393386Y0069044D01*
Y0069033D01*
Y0069027D01*
X0393440Y0069011D01*
X0393500Y0068994D01*
X0393626Y0068962D01*
X0393768Y0068934D01*
X0393899Y0068907D01*
X0393964Y0068896D01*
X0394024Y0068891D01*
X0394079Y0068880D01*
X0394123Y0068874D01*
X0394161Y0068869D01*
X0394188D01*
X0394210Y0068863D01*
X0394215D01*
X0394314Y0068853D01*
X0394396Y0068836D01*
X0394467Y0068825D01*
X0394521Y0068814D01*
X0394565Y0068809D01*
X0394598Y0068798D01*
X0394619Y0068792D01*
X0394625D01*
X0394696Y0068771D01*
X0394756Y0068749D01*
X0394816Y0068721D01*
X0394865Y0068700D01*
X0394909Y0068678D01*
X0394936Y0068656D01*
X0394958Y0068645D01*
X0394963Y0068639D01*
X0395018Y0068601D01*
X0395062Y0068558D01*
X0395105Y0068514D01*
X0395138Y0068470D01*
X0395165Y0068432D01*
X0395187Y0068399D01*
X0395198Y0068378D01*
X0395204Y0068372D01*
X0395231Y0068312D01*
X0395253Y0068246D01*
X0395269Y0068186D01*
X0395280Y0068126D01*
X0395286Y0068077D01*
X0395291Y0068039D01*
Y0068017D01*
Y0068006D01*
X0395286Y0067941D01*
X0395280Y0067886D01*
X0395253Y0067771D01*
X0395215Y0067679D01*
X0395171Y0067597D01*
X0395127Y0067531D01*
X0395089Y0067482D01*
X0395062Y0067455D01*
X0395051Y0067444D01*
X0394953Y0067373D01*
X0394843Y0067318D01*
X0394723Y0067280D01*
X0394614Y0067253D01*
X0394516Y0067236D01*
X0394472Y0067231D01*
X0394434D01*
X0394401Y0067225D01*
X0394357D01*
X0394259Y0067231D01*
X0394161Y0067242D01*
X0394074Y0067253D01*
X0393997Y0067269D01*
X0393937Y0067286D01*
X0393888Y0067302D01*
X0393855Y0067307D01*
X0393844Y0067313D01*
X0393751Y0067351D01*
X0393664Y0067400D01*
X0393582Y0067455D01*
X0393500Y0067504D01*
X0393435Y0067553D01*
X0393386Y0067591D01*
X0393353Y0067619D01*
X0393347Y0067629D01*
X0393342D01*
X0393331Y0067558D01*
X0393320Y0067493D01*
X0393309Y0067433D01*
X0393293Y0067384D01*
X0393276Y0067340D01*
X0393265Y0067313D01*
X0393260Y0067291D01*
X0393254Y0067286D01*
X0392769D01*
X0392796Y0067345D01*
X0392823Y0067406D01*
X0392845Y0067460D01*
X0392856Y0067509D01*
X0392872Y0067553D01*
X0392878Y0067586D01*
X0392883Y0067608D01*
Y0067613D01*
X0392889Y0067651D01*
X0392894Y0067700D01*
Y0067755D01*
X0392900Y0067815D01*
X0392905Y0067952D01*
Y0068088D01*
X0392911Y0068219D01*
Y0068279D01*
Y0068328D01*
Y0068372D01*
Y0068405D01*
Y0068427D01*
Y0068432D01*
Y0069055D01*
Y0069158D01*
X0392916Y0069251D01*
X0392921Y0069322D01*
Y0069382D01*
X0392927Y0069426D01*
X0392932Y0069459D01*
X0392938Y0069475D01*
Y0069480D01*
X0392954Y0069551D01*
X0392976Y0069611D01*
X0392998Y0069661D01*
X0393025Y0069710D01*
X0393047Y0069743D01*
X0393063Y0069770D01*
X0393074Y0069786D01*
X0393080Y0069792D01*
X0393123Y0069835D01*
X0393173Y0069879D01*
X0393227Y0069912D01*
X0393282Y0069945D01*
X0393331Y0069966D01*
X0393369Y0069983D01*
X0393396Y0069994D01*
X0393407Y0069999D01*
X0393495Y0070026D01*
X0393587Y0070048D01*
X0393680Y0070065D01*
X0393773Y0070076D01*
X0393855Y0070081D01*
X0393915Y0070086D01*
X0393975D01*
X0394106Y0070081D01*
D02*
G37*
G36*
X0390361Y0070703D02*
Y0070026D01*
X0390705D01*
Y0069666D01*
X0390361D01*
Y0068083D01*
Y0068006D01*
Y0067941D01*
X0390355Y0067881D01*
X0390350Y0067821D01*
Y0067771D01*
X0390344Y0067728D01*
X0390333Y0067657D01*
X0390322Y0067602D01*
X0390317Y0067564D01*
X0390306Y0067542D01*
Y0067537D01*
X0390284Y0067488D01*
X0390251Y0067449D01*
X0390219Y0067411D01*
X0390191Y0067384D01*
X0390159Y0067356D01*
X0390137Y0067340D01*
X0390120Y0067329D01*
X0390115Y0067324D01*
X0390055Y0067296D01*
X0389995Y0067280D01*
X0389929Y0067264D01*
X0389864Y0067258D01*
X0389809Y0067253D01*
X0389766Y0067247D01*
X0389722D01*
X0389602Y0067253D01*
X0389542Y0067258D01*
X0389487Y0067269D01*
X0389438Y0067274D01*
X0389400Y0067280D01*
X0389378Y0067286D01*
X0389367D01*
X0389427Y0067695D01*
X0389471Y0067690D01*
X0389514Y0067684D01*
X0389553D01*
X0389580Y0067679D01*
X0389634D01*
X0389705Y0067684D01*
X0389755Y0067695D01*
X0389782Y0067706D01*
X0389793Y0067711D01*
X0389831Y0067739D01*
X0389853Y0067766D01*
X0389869Y0067788D01*
X0389875Y0067799D01*
X0389880Y0067826D01*
X0389886Y0067864D01*
X0389891Y0067952D01*
X0389897Y0067990D01*
Y0068023D01*
Y0068044D01*
Y0068055D01*
Y0069666D01*
X0389427D01*
Y0070026D01*
X0389897D01*
Y0070982D01*
X0390361Y0070703D01*
D02*
G37*
G36*
X0408056Y0068328D02*
Y0068225D01*
X0408051Y0068132D01*
X0408046Y0068061D01*
X0408040Y0067995D01*
Y0067952D01*
X0408035Y0067919D01*
X0408029Y0067897D01*
Y0067892D01*
X0408013Y0067821D01*
X0407991Y0067755D01*
X0407969Y0067695D01*
X0407942Y0067646D01*
X0407920Y0067602D01*
X0407904Y0067575D01*
X0407893Y0067553D01*
X0407887Y0067548D01*
X0407844Y0067498D01*
X0407794Y0067455D01*
X0407745Y0067417D01*
X0407691Y0067384D01*
X0407647Y0067356D01*
X0407609Y0067335D01*
X0407587Y0067324D01*
X0407576Y0067318D01*
X0407494Y0067286D01*
X0407418Y0067264D01*
X0407341Y0067247D01*
X0407270Y0067236D01*
X0407210Y0067231D01*
X0407161Y0067225D01*
X0407123D01*
X0407025Y0067231D01*
X0406926Y0067247D01*
X0406839Y0067269D01*
X0406752Y0067296D01*
X0406675Y0067335D01*
X0406604Y0067373D01*
X0406539Y0067411D01*
X0406479Y0067455D01*
X0406424Y0067498D01*
X0406380Y0067537D01*
X0406342Y0067580D01*
X0406309Y0067613D01*
X0406282Y0067640D01*
X0406266Y0067662D01*
X0406255Y0067679D01*
X0406249Y0067684D01*
Y0067286D01*
X0405834D01*
Y0070026D01*
X0406298D01*
Y0068558D01*
X0406304Y0068432D01*
X0406309Y0068323D01*
X0406320Y0068230D01*
X0406337Y0068154D01*
X0406353Y0068094D01*
X0406364Y0068050D01*
X0406369Y0068028D01*
X0406375Y0068017D01*
X0406408Y0067952D01*
X0406446Y0067897D01*
X0406490Y0067848D01*
X0406533Y0067804D01*
X0406571Y0067771D01*
X0406604Y0067750D01*
X0406626Y0067733D01*
X0406637Y0067728D01*
X0406708Y0067695D01*
X0406779Y0067668D01*
X0406844Y0067651D01*
X0406905Y0067635D01*
X0406954Y0067629D01*
X0406992Y0067624D01*
X0407030D01*
X0407106Y0067629D01*
X0407172Y0067640D01*
X0407232Y0067657D01*
X0407281Y0067679D01*
X0407325Y0067695D01*
X0407352Y0067711D01*
X0407374Y0067722D01*
X0407379Y0067728D01*
X0407429Y0067771D01*
X0407467Y0067815D01*
X0407500Y0067864D01*
X0407527Y0067908D01*
X0407543Y0067952D01*
X0407554Y0067984D01*
X0407565Y0068006D01*
Y0068012D01*
X0407576Y0068072D01*
X0407582Y0068143D01*
X0407587Y0068225D01*
Y0068306D01*
X0407592Y0068383D01*
Y0068443D01*
Y0068470D01*
Y0068487D01*
Y0068498D01*
Y0068503D01*
Y0070026D01*
X0408056D01*
Y0068328D01*
D02*
G37*
G36*
X0397055Y0070081D02*
X0397153Y0070070D01*
X0397246Y0070054D01*
X0397333Y0070026D01*
X0397415Y0069999D01*
X0397491Y0069966D01*
X0397562Y0069934D01*
X0397622Y0069895D01*
X0397682Y0069863D01*
X0397732Y0069824D01*
X0397775Y0069792D01*
X0397808Y0069764D01*
X0397835Y0069737D01*
X0397857Y0069721D01*
X0397868Y0069710D01*
X0397874Y0069704D01*
X0397934Y0069628D01*
X0397988Y0069546D01*
X0398037Y0069464D01*
X0398081Y0069377D01*
X0398114Y0069284D01*
X0398141Y0069196D01*
X0398185Y0069022D01*
X0398201Y0068945D01*
X0398212Y0068869D01*
X0398218Y0068803D01*
X0398223Y0068743D01*
X0398229Y0068694D01*
Y0068661D01*
Y0068634D01*
Y0068629D01*
X0398223Y0068508D01*
X0398212Y0068394D01*
X0398196Y0068285D01*
X0398174Y0068186D01*
X0398147Y0068094D01*
X0398119Y0068006D01*
X0398087Y0067930D01*
X0398054Y0067859D01*
X0398021Y0067799D01*
X0397988Y0067744D01*
X0397961Y0067700D01*
X0397934Y0067662D01*
X0397912Y0067629D01*
X0397896Y0067608D01*
X0397884Y0067597D01*
X0397879Y0067591D01*
X0397808Y0067526D01*
X0397737Y0067471D01*
X0397661Y0067422D01*
X0397579Y0067378D01*
X0397502Y0067345D01*
X0397420Y0067313D01*
X0397268Y0067269D01*
X0397197Y0067258D01*
X0397131Y0067247D01*
X0397071Y0067236D01*
X0397022Y0067231D01*
X0396984Y0067225D01*
X0396924D01*
X0396754Y0067236D01*
X0396601Y0067264D01*
X0396465Y0067296D01*
X0396410Y0067318D01*
X0396356Y0067340D01*
X0396307Y0067362D01*
X0396263Y0067384D01*
X0396230Y0067400D01*
X0396197Y0067417D01*
X0396176Y0067433D01*
X0396159Y0067444D01*
X0396148Y0067455D01*
X0396143D01*
X0396034Y0067553D01*
X0395946Y0067657D01*
X0395870Y0067766D01*
X0395815Y0067870D01*
X0395772Y0067962D01*
X0395755Y0068006D01*
X0395739Y0068039D01*
X0395728Y0068072D01*
X0395722Y0068094D01*
X0395717Y0068104D01*
Y0068110D01*
X0396197Y0068170D01*
X0396241Y0068066D01*
X0396290Y0067979D01*
X0396339Y0067902D01*
X0396383Y0067842D01*
X0396421Y0067799D01*
X0396454Y0067766D01*
X0396481Y0067744D01*
X0396487Y0067739D01*
X0396558Y0067695D01*
X0396629Y0067662D01*
X0396705Y0067640D01*
X0396771Y0067624D01*
X0396831Y0067613D01*
X0396880Y0067608D01*
X0396924D01*
X0396989Y0067613D01*
X0397049Y0067619D01*
X0397158Y0067646D01*
X0397257Y0067684D01*
X0397344Y0067728D01*
X0397410Y0067766D01*
X0397459Y0067804D01*
X0397491Y0067831D01*
X0397497Y0067842D01*
X0397502D01*
X0397579Y0067941D01*
X0397639Y0068050D01*
X0397682Y0068170D01*
X0397715Y0068279D01*
X0397732Y0068378D01*
X0397743Y0068421D01*
X0397748Y0068459D01*
Y0068492D01*
X0397754Y0068514D01*
Y0068530D01*
Y0068536D01*
X0395706D01*
X0395701Y0068590D01*
Y0068629D01*
Y0068651D01*
Y0068656D01*
X0395706Y0068782D01*
X0395717Y0068896D01*
X0395733Y0069005D01*
X0395755Y0069109D01*
X0395782Y0069202D01*
X0395810Y0069289D01*
X0395843Y0069366D01*
X0395875Y0069437D01*
X0395908Y0069502D01*
X0395941Y0069557D01*
X0395968Y0069600D01*
X0395995Y0069639D01*
X0396017Y0069671D01*
X0396034Y0069693D01*
X0396044Y0069704D01*
X0396050Y0069710D01*
X0396115Y0069775D01*
X0396186Y0069835D01*
X0396263Y0069884D01*
X0396339Y0069928D01*
X0396416Y0069966D01*
X0396487Y0069994D01*
X0396563Y0070021D01*
X0396629Y0070037D01*
X0396700Y0070054D01*
X0396760Y0070065D01*
X0396814Y0070076D01*
X0396858Y0070081D01*
X0396896Y0070086D01*
X0396951D01*
X0397055Y0070081D01*
D02*
G37*
G36*
X0433850Y0067286D02*
X0431485D01*
Y0067733D01*
X0433347D01*
Y0071064D01*
X0433850D01*
Y0067286D01*
D02*
G37*
G36*
X0426833Y0070081D02*
X0426932Y0070065D01*
X0427019Y0070043D01*
X0427107Y0070016D01*
X0427183Y0069983D01*
X0427254Y0069945D01*
X0427319Y0069901D01*
X0427374Y0069863D01*
X0427429Y0069819D01*
X0427472Y0069775D01*
X0427510Y0069737D01*
X0427543Y0069704D01*
X0427565Y0069677D01*
X0427582Y0069655D01*
X0427592Y0069639D01*
X0427598Y0069633D01*
Y0070026D01*
X0428013D01*
Y0067286D01*
X0427549D01*
Y0068776D01*
Y0068869D01*
X0427538Y0068962D01*
X0427527Y0069038D01*
X0427516Y0069109D01*
X0427500Y0069175D01*
X0427483Y0069235D01*
X0427461Y0069289D01*
X0427439Y0069333D01*
X0427423Y0069371D01*
X0427401Y0069404D01*
X0427385Y0069431D01*
X0427368Y0069453D01*
X0427347Y0069480D01*
X0427336Y0069491D01*
X0427254Y0069557D01*
X0427167Y0069600D01*
X0427079Y0069633D01*
X0427003Y0069661D01*
X0426932Y0069671D01*
X0426877Y0069677D01*
X0426855Y0069682D01*
X0426828D01*
X0426762Y0069677D01*
X0426697Y0069671D01*
X0426642Y0069655D01*
X0426599Y0069639D01*
X0426560Y0069622D01*
X0426528Y0069611D01*
X0426511Y0069600D01*
X0426506Y0069595D01*
X0426457Y0069562D01*
X0426413Y0069524D01*
X0426380Y0069486D01*
X0426353Y0069453D01*
X0426337Y0069420D01*
X0426320Y0069393D01*
X0426309Y0069377D01*
Y0069371D01*
X0426293Y0069311D01*
X0426276Y0069246D01*
X0426266Y0069175D01*
X0426260Y0069104D01*
X0426255Y0069044D01*
Y0068994D01*
Y0068956D01*
Y0068951D01*
Y0068945D01*
Y0067286D01*
X0425791D01*
Y0068967D01*
Y0069082D01*
X0425796Y0069175D01*
X0425802Y0069251D01*
Y0069317D01*
X0425807Y0069360D01*
X0425812Y0069393D01*
X0425818Y0069415D01*
Y0069420D01*
X0425834Y0069491D01*
X0425862Y0069557D01*
X0425883Y0069611D01*
X0425905Y0069666D01*
X0425933Y0069704D01*
X0425949Y0069731D01*
X0425960Y0069753D01*
X0425965Y0069759D01*
X0426009Y0069813D01*
X0426058Y0069857D01*
X0426107Y0069901D01*
X0426162Y0069934D01*
X0426206Y0069961D01*
X0426244Y0069977D01*
X0426266Y0069988D01*
X0426276Y0069994D01*
X0426353Y0070026D01*
X0426435Y0070048D01*
X0426511Y0070065D01*
X0426582Y0070076D01*
X0426642Y0070081D01*
X0426686Y0070086D01*
X0426730D01*
X0426833Y0070081D01*
D02*
G37*
G36*
X0414330Y0071124D02*
X0414423Y0071113D01*
X0414505Y0071091D01*
X0414570Y0071075D01*
X0414625Y0071053D01*
X0414663Y0071031D01*
X0414690Y0071020D01*
X0414696Y0071015D01*
X0414756Y0070971D01*
X0414805Y0070922D01*
X0414843Y0070873D01*
X0414876Y0070829D01*
X0414903Y0070791D01*
X0414920Y0070758D01*
X0414925Y0070731D01*
X0414931Y0070725D01*
X0414947Y0070671D01*
X0414958Y0070605D01*
X0414969Y0070534D01*
X0414974Y0070469D01*
Y0070409D01*
X0414980Y0070359D01*
Y0070327D01*
Y0070321D01*
Y0070316D01*
Y0070026D01*
X0415389D01*
Y0069666D01*
X0414980D01*
Y0067286D01*
X0414516D01*
Y0069666D01*
X0413986D01*
Y0070026D01*
X0414516D01*
Y0070278D01*
X0414510Y0070365D01*
X0414499Y0070436D01*
X0414488Y0070490D01*
X0414472Y0070534D01*
X0414456Y0070572D01*
X0414439Y0070594D01*
X0414434Y0070605D01*
X0414428Y0070611D01*
X0414390Y0070643D01*
X0414346Y0070665D01*
X0414297Y0070682D01*
X0414248Y0070692D01*
X0414205Y0070698D01*
X0414166Y0070703D01*
X0414134D01*
X0414035Y0070698D01*
X0413991Y0070692D01*
X0413948D01*
X0413910Y0070687D01*
X0413882Y0070682D01*
X0413866Y0070676D01*
X0413861D01*
X0413790Y0071080D01*
X0413877Y0071096D01*
X0413953Y0071108D01*
X0414030Y0071118D01*
X0414095Y0071124D01*
X0414144Y0071129D01*
X0414221D01*
X0414330Y0071124D01*
D02*
G37*
G36*
X0404164Y0070081D02*
X0404218Y0070070D01*
X0404273Y0070054D01*
X0404316Y0070037D01*
X0404349Y0070021D01*
X0404382Y0070004D01*
X0404398Y0069994D01*
X0404404Y0069988D01*
X0404453Y0069945D01*
X0404502Y0069890D01*
X0404551Y0069824D01*
X0404595Y0069764D01*
X0404639Y0069704D01*
X0404666Y0069655D01*
X0404688Y0069617D01*
X0404693Y0069611D01*
Y0070026D01*
X0405114D01*
Y0067286D01*
X0404649D01*
Y0068716D01*
X0404644Y0068825D01*
X0404639Y0068923D01*
X0404628Y0069016D01*
X0404611Y0069098D01*
X0404595Y0069164D01*
X0404584Y0069213D01*
X0404578Y0069246D01*
X0404573Y0069257D01*
X0404551Y0069317D01*
X0404524Y0069366D01*
X0404497Y0069409D01*
X0404469Y0069448D01*
X0404442Y0069475D01*
X0404426Y0069497D01*
X0404409Y0069508D01*
X0404404Y0069513D01*
X0404360Y0069546D01*
X0404311Y0069568D01*
X0404262Y0069584D01*
X0404224Y0069595D01*
X0404185Y0069600D01*
X0404158Y0069606D01*
X0404131D01*
X0404071Y0069600D01*
X0404011Y0069590D01*
X0403951Y0069573D01*
X0403901Y0069557D01*
X0403858Y0069540D01*
X0403825Y0069524D01*
X0403803Y0069513D01*
X0403798Y0069508D01*
X0403628Y0069934D01*
X0403721Y0069983D01*
X0403809Y0070021D01*
X0403885Y0070048D01*
X0403956Y0070070D01*
X0404016Y0070081D01*
X0404065Y0070086D01*
X0404104D01*
X0404164Y0070081D01*
D02*
G37*
G36*
X0391251D02*
X0391305Y0070070D01*
X0391360Y0070054D01*
X0391404Y0070037D01*
X0391436Y0070021D01*
X0391469Y0070004D01*
X0391485Y0069994D01*
X0391491Y0069988D01*
X0391540Y0069945D01*
X0391589Y0069890D01*
X0391638Y0069824D01*
X0391682Y0069764D01*
X0391726Y0069704D01*
X0391753Y0069655D01*
X0391775Y0069617D01*
X0391780Y0069611D01*
Y0070026D01*
X0392201D01*
Y0067286D01*
X0391737D01*
Y0068716D01*
X0391731Y0068825D01*
X0391726Y0068923D01*
X0391715Y0069016D01*
X0391698Y0069098D01*
X0391682Y0069164D01*
X0391671Y0069213D01*
X0391666Y0069246D01*
X0391660Y0069257D01*
X0391638Y0069317D01*
X0391611Y0069366D01*
X0391584Y0069409D01*
X0391556Y0069448D01*
X0391529Y0069475D01*
X0391513Y0069497D01*
X0391496Y0069508D01*
X0391491Y0069513D01*
X0391447Y0069546D01*
X0391398Y0069568D01*
X0391349Y0069584D01*
X0391311Y0069595D01*
X0391272Y0069600D01*
X0391245Y0069606D01*
X0391218D01*
X0391158Y0069600D01*
X0391098Y0069590D01*
X0391038Y0069573D01*
X0390989Y0069557D01*
X0390945Y0069540D01*
X0390912Y0069524D01*
X0390890Y0069513D01*
X0390885Y0069508D01*
X0390716Y0069934D01*
X0390808Y0069983D01*
X0390896Y0070021D01*
X0390972Y0070048D01*
X0391043Y0070070D01*
X0391103Y0070081D01*
X0391152Y0070086D01*
X0391191D01*
X0391251Y0070081D01*
D02*
G37*
G36*
X0423339Y0069710D02*
X0423388Y0069770D01*
X0423443Y0069819D01*
X0423492Y0069868D01*
X0423547Y0069906D01*
X0423590Y0069934D01*
X0423623Y0069961D01*
X0423645Y0069972D01*
X0423656Y0069977D01*
X0423727Y0070016D01*
X0423803Y0070043D01*
X0423880Y0070059D01*
X0423951Y0070076D01*
X0424011Y0070081D01*
X0424054Y0070086D01*
X0424098D01*
X0424218Y0070081D01*
X0424333Y0070059D01*
X0424437Y0070032D01*
X0424524Y0069999D01*
X0424600Y0069961D01*
X0424655Y0069934D01*
X0424677Y0069923D01*
X0424693Y0069912D01*
X0424699Y0069906D01*
X0424704D01*
X0424802Y0069835D01*
X0424884Y0069748D01*
X0424955Y0069666D01*
X0425010Y0069584D01*
X0425054Y0069508D01*
X0425086Y0069448D01*
X0425097Y0069426D01*
X0425108Y0069409D01*
X0425114Y0069398D01*
Y0069393D01*
X0425157Y0069267D01*
X0425190Y0069136D01*
X0425217Y0069011D01*
X0425234Y0068896D01*
X0425245Y0068798D01*
Y0068754D01*
X0425250Y0068721D01*
Y0068689D01*
Y0068667D01*
Y0068656D01*
Y0068651D01*
X0425245Y0068498D01*
X0425228Y0068356D01*
X0425201Y0068230D01*
X0425174Y0068121D01*
X0425163Y0068072D01*
X0425152Y0068033D01*
X0425135Y0067995D01*
X0425125Y0067962D01*
X0425114Y0067941D01*
X0425108Y0067924D01*
X0425103Y0067913D01*
Y0067908D01*
X0425043Y0067793D01*
X0424972Y0067695D01*
X0424901Y0067608D01*
X0424830Y0067537D01*
X0424770Y0067482D01*
X0424720Y0067438D01*
X0424688Y0067417D01*
X0424682Y0067406D01*
X0424677D01*
X0424573Y0067345D01*
X0424469Y0067302D01*
X0424366Y0067269D01*
X0424273Y0067247D01*
X0424196Y0067236D01*
X0424131Y0067231D01*
X0424109Y0067225D01*
X0424076D01*
X0423983Y0067231D01*
X0423896Y0067242D01*
X0423814Y0067264D01*
X0423743Y0067291D01*
X0423672Y0067318D01*
X0423607Y0067351D01*
X0423552Y0067389D01*
X0423503Y0067427D01*
X0423454Y0067466D01*
X0423416Y0067504D01*
X0423383Y0067537D01*
X0423355Y0067564D01*
X0423334Y0067591D01*
X0423317Y0067613D01*
X0423312Y0067624D01*
X0423306Y0067629D01*
Y0067286D01*
X0422875D01*
Y0071064D01*
X0423339D01*
Y0069710D01*
D02*
G37*
G36*
X0421395Y0070076D02*
X0421461Y0070070D01*
X0421521Y0070059D01*
X0421570Y0070048D01*
X0421608Y0070037D01*
X0421630Y0070032D01*
X0421641Y0070026D01*
X0421706Y0070004D01*
X0421767Y0069983D01*
X0421816Y0069961D01*
X0421859Y0069939D01*
X0421892Y0069923D01*
X0421914Y0069906D01*
X0421930Y0069901D01*
X0421936Y0069895D01*
X0421990Y0069857D01*
X0422034Y0069813D01*
X0422072Y0069764D01*
X0422105Y0069726D01*
X0422132Y0069688D01*
X0422149Y0069661D01*
X0422160Y0069639D01*
X0422165Y0069633D01*
X0422192Y0069573D01*
X0422214Y0069519D01*
X0422225Y0069459D01*
X0422236Y0069409D01*
X0422242Y0069360D01*
X0422247Y0069327D01*
Y0069306D01*
Y0069295D01*
X0422242Y0069218D01*
X0422231Y0069153D01*
X0422214Y0069087D01*
X0422198Y0069033D01*
X0422182Y0068989D01*
X0422165Y0068951D01*
X0422154Y0068929D01*
X0422149Y0068923D01*
X0422105Y0068863D01*
X0422056Y0068814D01*
X0422007Y0068771D01*
X0421958Y0068732D01*
X0421914Y0068705D01*
X0421881Y0068683D01*
X0421859Y0068672D01*
X0421848Y0068667D01*
X0421810Y0068651D01*
X0421761Y0068629D01*
X0421652Y0068590D01*
X0421537Y0068558D01*
X0421417Y0068519D01*
X0421313Y0068492D01*
X0421264Y0068476D01*
X0421221Y0068465D01*
X0421188Y0068454D01*
X0421161Y0068448D01*
X0421144Y0068443D01*
X0421139D01*
X0421068Y0068427D01*
X0421008Y0068410D01*
X0420953Y0068394D01*
X0420904Y0068378D01*
X0420860Y0068366D01*
X0420822Y0068350D01*
X0420756Y0068328D01*
X0420713Y0068312D01*
X0420685Y0068296D01*
X0420669Y0068290D01*
X0420664Y0068285D01*
X0420614Y0068252D01*
X0420582Y0068208D01*
X0420554Y0068170D01*
X0420538Y0068132D01*
X0420527Y0068094D01*
X0420522Y0068066D01*
Y0068044D01*
Y0068039D01*
X0420527Y0067973D01*
X0420543Y0067919D01*
X0420571Y0067864D01*
X0420598Y0067821D01*
X0420631Y0067782D01*
X0420653Y0067755D01*
X0420675Y0067739D01*
X0420680Y0067733D01*
X0420746Y0067690D01*
X0420817Y0067662D01*
X0420898Y0067640D01*
X0420975Y0067624D01*
X0421046Y0067613D01*
X0421101Y0067608D01*
X0421155D01*
X0421270Y0067613D01*
X0421368Y0067629D01*
X0421450Y0067651D01*
X0421521Y0067679D01*
X0421575Y0067706D01*
X0421619Y0067728D01*
X0421641Y0067744D01*
X0421652Y0067750D01*
X0421712Y0067810D01*
X0421761Y0067881D01*
X0421794Y0067952D01*
X0421821Y0068017D01*
X0421843Y0068077D01*
X0421854Y0068132D01*
X0421865Y0068164D01*
Y0068170D01*
Y0068175D01*
X0422324Y0068104D01*
X0422285Y0067952D01*
X0422236Y0067815D01*
X0422176Y0067706D01*
X0422116Y0067613D01*
X0422061Y0067537D01*
X0422012Y0067488D01*
X0421980Y0067455D01*
X0421974Y0067449D01*
X0421969Y0067444D01*
X0421914Y0067406D01*
X0421854Y0067373D01*
X0421723Y0067318D01*
X0421586Y0067280D01*
X0421455Y0067253D01*
X0421395Y0067242D01*
X0421341Y0067236D01*
X0421286Y0067231D01*
X0421242D01*
X0421204Y0067225D01*
X0421155D01*
X0421035Y0067231D01*
X0420931Y0067242D01*
X0420833Y0067258D01*
X0420746Y0067280D01*
X0420675Y0067302D01*
X0420620Y0067318D01*
X0420587Y0067329D01*
X0420582Y0067335D01*
X0420576D01*
X0420483Y0067384D01*
X0420407Y0067433D01*
X0420341Y0067488D01*
X0420282Y0067537D01*
X0420238Y0067580D01*
X0420211Y0067619D01*
X0420189Y0067640D01*
X0420183Y0067651D01*
X0420140Y0067728D01*
X0420107Y0067810D01*
X0420079Y0067881D01*
X0420063Y0067946D01*
X0420052Y0068006D01*
X0420047Y0068050D01*
Y0068077D01*
Y0068088D01*
X0420052Y0068175D01*
X0420063Y0068252D01*
X0420085Y0068317D01*
X0420101Y0068378D01*
X0420123Y0068427D01*
X0420145Y0068459D01*
X0420156Y0068481D01*
X0420161Y0068487D01*
X0420205Y0068541D01*
X0420254Y0068590D01*
X0420303Y0068634D01*
X0420352Y0068667D01*
X0420402Y0068694D01*
X0420434Y0068711D01*
X0420456Y0068721D01*
X0420467Y0068727D01*
X0420505Y0068743D01*
X0420549Y0068760D01*
X0420653Y0068798D01*
X0420767Y0068836D01*
X0420882Y0068869D01*
X0420986Y0068902D01*
X0421035Y0068913D01*
X0421073Y0068923D01*
X0421106Y0068934D01*
X0421133Y0068940D01*
X0421150Y0068945D01*
X0421155D01*
X0421215Y0068962D01*
X0421270Y0068978D01*
X0421319Y0068989D01*
X0421362Y0069005D01*
X0421433Y0069022D01*
X0421488Y0069038D01*
X0421526Y0069055D01*
X0421548Y0069060D01*
X0421559Y0069065D01*
X0421565D01*
X0421608Y0069087D01*
X0421646Y0069104D01*
X0421679Y0069125D01*
X0421701Y0069142D01*
X0421723Y0069158D01*
X0421734Y0069175D01*
X0421739Y0069180D01*
X0421745Y0069186D01*
X0421777Y0069240D01*
X0421794Y0069295D01*
Y0069317D01*
X0421799Y0069333D01*
Y0069344D01*
Y0069349D01*
X0421794Y0069398D01*
X0421777Y0069448D01*
X0421756Y0069491D01*
X0421728Y0069524D01*
X0421706Y0069557D01*
X0421685Y0069579D01*
X0421668Y0069590D01*
X0421663Y0069595D01*
X0421603Y0069633D01*
X0421532Y0069661D01*
X0421455Y0069677D01*
X0421384Y0069693D01*
X0421313Y0069699D01*
X0421259Y0069704D01*
X0421204D01*
X0421111Y0069699D01*
X0421024Y0069688D01*
X0420953Y0069666D01*
X0420898Y0069644D01*
X0420849Y0069622D01*
X0420817Y0069600D01*
X0420795Y0069590D01*
X0420789Y0069584D01*
X0420735Y0069535D01*
X0420696Y0069480D01*
X0420664Y0069426D01*
X0420636Y0069377D01*
X0420620Y0069327D01*
X0420609Y0069289D01*
X0420604Y0069267D01*
Y0069257D01*
X0420150Y0069317D01*
X0420172Y0069409D01*
X0420194Y0069491D01*
X0420221Y0069562D01*
X0420249Y0069628D01*
X0420276Y0069671D01*
X0420298Y0069710D01*
X0420309Y0069731D01*
X0420314Y0069737D01*
X0420363Y0069792D01*
X0420418Y0069841D01*
X0420478Y0069884D01*
X0420538Y0069923D01*
X0420593Y0069950D01*
X0420636Y0069972D01*
X0420664Y0069983D01*
X0420669Y0069988D01*
X0420675D01*
X0420767Y0070021D01*
X0420866Y0070043D01*
X0420959Y0070065D01*
X0421046Y0070076D01*
X0421128Y0070081D01*
X0421188Y0070086D01*
X0421319D01*
X0421395Y0070076D01*
D02*
G37*
G36*
X0417011Y0070081D02*
X0417098Y0070076D01*
X0417268Y0070037D01*
X0417415Y0069988D01*
X0417481Y0069961D01*
X0417541Y0069934D01*
X0417595Y0069906D01*
X0417639Y0069879D01*
X0417683Y0069852D01*
X0417715Y0069830D01*
X0417743Y0069808D01*
X0417764Y0069792D01*
X0417775Y0069786D01*
X0417781Y0069781D01*
X0417857Y0069710D01*
X0417917Y0069628D01*
X0417977Y0069540D01*
X0418021Y0069453D01*
X0418065Y0069360D01*
X0418097Y0069262D01*
X0418125Y0069169D01*
X0418147Y0069082D01*
X0418168Y0068994D01*
X0418179Y0068918D01*
X0418190Y0068842D01*
X0418196Y0068782D01*
Y0068727D01*
X0418201Y0068689D01*
Y0068667D01*
Y0068656D01*
X0418196Y0068530D01*
X0418185Y0068410D01*
X0418168Y0068301D01*
X0418147Y0068197D01*
X0418119Y0068104D01*
X0418092Y0068017D01*
X0418059Y0067935D01*
X0418026Y0067864D01*
X0417994Y0067799D01*
X0417961Y0067744D01*
X0417934Y0067700D01*
X0417906Y0067662D01*
X0417884Y0067629D01*
X0417868Y0067608D01*
X0417857Y0067597D01*
X0417852Y0067591D01*
X0417781Y0067526D01*
X0417710Y0067471D01*
X0417633Y0067422D01*
X0417557Y0067378D01*
X0417481Y0067345D01*
X0417399Y0067313D01*
X0417251Y0067269D01*
X0417186Y0067258D01*
X0417120Y0067247D01*
X0417065Y0067236D01*
X0417016Y0067231D01*
X0416973Y0067225D01*
X0416918D01*
X0416787Y0067231D01*
X0416667Y0067253D01*
X0416552Y0067280D01*
X0416460Y0067307D01*
X0416378Y0067340D01*
X0416345Y0067351D01*
X0416318Y0067362D01*
X0416290Y0067373D01*
X0416274Y0067384D01*
X0416268Y0067389D01*
X0416263D01*
X0416154Y0067460D01*
X0416061Y0067537D01*
X0415979Y0067613D01*
X0415913Y0067690D01*
X0415864Y0067755D01*
X0415826Y0067810D01*
X0415815Y0067831D01*
X0415804Y0067848D01*
X0415799Y0067853D01*
Y0067859D01*
X0415744Y0067984D01*
X0415706Y0068121D01*
X0415673Y0068257D01*
X0415657Y0068394D01*
X0415646Y0068454D01*
Y0068508D01*
X0415640Y0068563D01*
X0415635Y0068607D01*
Y0068645D01*
Y0068672D01*
Y0068689D01*
Y0068694D01*
X0415640Y0068814D01*
X0415651Y0068923D01*
X0415668Y0069027D01*
X0415690Y0069125D01*
X0415717Y0069218D01*
X0415750Y0069300D01*
X0415782Y0069382D01*
X0415815Y0069448D01*
X0415848Y0069508D01*
X0415881Y0069562D01*
X0415913Y0069611D01*
X0415941Y0069650D01*
X0415963Y0069677D01*
X0415979Y0069699D01*
X0415990Y0069710D01*
X0415995Y0069715D01*
X0416066Y0069781D01*
X0416137Y0069835D01*
X0416214Y0069890D01*
X0416290Y0069928D01*
X0416367Y0069966D01*
X0416443Y0069994D01*
X0416590Y0070043D01*
X0416662Y0070054D01*
X0416721Y0070065D01*
X0416776Y0070076D01*
X0416825Y0070081D01*
X0416863Y0070086D01*
X0416918D01*
X0417011Y0070081D01*
D02*
G37*
G36*
X0388226Y0070076D02*
X0388291Y0070070D01*
X0388351Y0070059D01*
X0388401Y0070048D01*
X0388439Y0070037D01*
X0388461Y0070032D01*
X0388472Y0070026D01*
X0388537Y0070004D01*
X0388597Y0069983D01*
X0388646Y0069961D01*
X0388690Y0069939D01*
X0388723Y0069923D01*
X0388744Y0069906D01*
X0388761Y0069901D01*
X0388766Y0069895D01*
X0388821Y0069857D01*
X0388865Y0069813D01*
X0388903Y0069764D01*
X0388936Y0069726D01*
X0388963Y0069688D01*
X0388979Y0069661D01*
X0388990Y0069639D01*
X0388996Y0069633D01*
X0389023Y0069573D01*
X0389045Y0069519D01*
X0389056Y0069459D01*
X0389067Y0069409D01*
X0389072Y0069360D01*
X0389078Y0069327D01*
Y0069306D01*
Y0069295D01*
X0389072Y0069218D01*
X0389061Y0069153D01*
X0389045Y0069087D01*
X0389028Y0069033D01*
X0389012Y0068989D01*
X0388996Y0068951D01*
X0388985Y0068929D01*
X0388979Y0068923D01*
X0388936Y0068863D01*
X0388886Y0068814D01*
X0388837Y0068771D01*
X0388788Y0068732D01*
X0388744Y0068705D01*
X0388712Y0068683D01*
X0388690Y0068672D01*
X0388679Y0068667D01*
X0388641Y0068651D01*
X0388592Y0068629D01*
X0388482Y0068590D01*
X0388368Y0068558D01*
X0388248Y0068519D01*
X0388144Y0068492D01*
X0388095Y0068476D01*
X0388051Y0068465D01*
X0388018Y0068454D01*
X0387991Y0068448D01*
X0387975Y0068443D01*
X0387969D01*
X0387898Y0068427D01*
X0387838Y0068410D01*
X0387784Y0068394D01*
X0387734Y0068378D01*
X0387691Y0068366D01*
X0387652Y0068350D01*
X0387587Y0068328D01*
X0387543Y0068312D01*
X0387516Y0068296D01*
X0387500Y0068290D01*
X0387494Y0068285D01*
X0387445Y0068252D01*
X0387412Y0068208D01*
X0387385Y0068170D01*
X0387369Y0068132D01*
X0387358Y0068094D01*
X0387352Y0068066D01*
Y0068044D01*
Y0068039D01*
X0387358Y0067973D01*
X0387374Y0067919D01*
X0387401Y0067864D01*
X0387429Y0067821D01*
X0387461Y0067782D01*
X0387483Y0067755D01*
X0387505Y0067739D01*
X0387510Y0067733D01*
X0387576Y0067690D01*
X0387647Y0067662D01*
X0387729Y0067640D01*
X0387805Y0067624D01*
X0387876Y0067613D01*
X0387931Y0067608D01*
X0387986D01*
X0388100Y0067613D01*
X0388198Y0067629D01*
X0388280Y0067651D01*
X0388351Y0067679D01*
X0388406Y0067706D01*
X0388450Y0067728D01*
X0388472Y0067744D01*
X0388482Y0067750D01*
X0388543Y0067810D01*
X0388592Y0067881D01*
X0388624Y0067952D01*
X0388652Y0068017D01*
X0388673Y0068077D01*
X0388684Y0068132D01*
X0388695Y0068164D01*
Y0068170D01*
Y0068175D01*
X0389154Y0068104D01*
X0389116Y0067952D01*
X0389067Y0067815D01*
X0389007Y0067706D01*
X0388947Y0067613D01*
X0388892Y0067537D01*
X0388843Y0067488D01*
X0388810Y0067455D01*
X0388805Y0067449D01*
X0388799Y0067444D01*
X0388744Y0067406D01*
X0388684Y0067373D01*
X0388553Y0067318D01*
X0388417Y0067280D01*
X0388286Y0067253D01*
X0388226Y0067242D01*
X0388171Y0067236D01*
X0388117Y0067231D01*
X0388073D01*
X0388035Y0067225D01*
X0387986D01*
X0387865Y0067231D01*
X0387762Y0067242D01*
X0387663Y0067258D01*
X0387576Y0067280D01*
X0387505Y0067302D01*
X0387451Y0067318D01*
X0387418Y0067329D01*
X0387412Y0067335D01*
X0387407D01*
X0387314Y0067384D01*
X0387238Y0067433D01*
X0387172Y0067488D01*
X0387112Y0067537D01*
X0387068Y0067580D01*
X0387041Y0067619D01*
X0387019Y0067640D01*
X0387014Y0067651D01*
X0386970Y0067728D01*
X0386937Y0067810D01*
X0386910Y0067881D01*
X0386894Y0067946D01*
X0386883Y0068006D01*
X0386877Y0068050D01*
Y0068077D01*
Y0068088D01*
X0386883Y0068175D01*
X0386894Y0068252D01*
X0386915Y0068317D01*
X0386932Y0068378D01*
X0386954Y0068427D01*
X0386976Y0068459D01*
X0386986Y0068481D01*
X0386992Y0068487D01*
X0387035Y0068541D01*
X0387085Y0068590D01*
X0387134Y0068634D01*
X0387183Y0068667D01*
X0387232Y0068694D01*
X0387265Y0068711D01*
X0387287Y0068721D01*
X0387298Y0068727D01*
X0387336Y0068743D01*
X0387380Y0068760D01*
X0387483Y0068798D01*
X0387598Y0068836D01*
X0387713Y0068869D01*
X0387816Y0068902D01*
X0387865Y0068913D01*
X0387904Y0068923D01*
X0387936Y0068934D01*
X0387964Y0068940D01*
X0387980Y0068945D01*
X0387986D01*
X0388046Y0068962D01*
X0388100Y0068978D01*
X0388149Y0068989D01*
X0388193Y0069005D01*
X0388264Y0069022D01*
X0388319Y0069038D01*
X0388357Y0069055D01*
X0388379Y0069060D01*
X0388390Y0069065D01*
X0388395D01*
X0388439Y0069087D01*
X0388477Y0069104D01*
X0388510Y0069125D01*
X0388532Y0069142D01*
X0388553Y0069158D01*
X0388564Y0069175D01*
X0388570Y0069180D01*
X0388575Y0069186D01*
X0388608Y0069240D01*
X0388624Y0069295D01*
Y0069317D01*
X0388630Y0069333D01*
Y0069344D01*
Y0069349D01*
X0388624Y0069398D01*
X0388608Y0069448D01*
X0388586Y0069491D01*
X0388559Y0069524D01*
X0388537Y0069557D01*
X0388515Y0069579D01*
X0388499Y0069590D01*
X0388493Y0069595D01*
X0388433Y0069633D01*
X0388362Y0069661D01*
X0388286Y0069677D01*
X0388215Y0069693D01*
X0388144Y0069699D01*
X0388089Y0069704D01*
X0388035D01*
X0387942Y0069699D01*
X0387855Y0069688D01*
X0387784Y0069666D01*
X0387729Y0069644D01*
X0387680Y0069622D01*
X0387647Y0069600D01*
X0387625Y0069590D01*
X0387620Y0069584D01*
X0387565Y0069535D01*
X0387527Y0069480D01*
X0387494Y0069426D01*
X0387467Y0069377D01*
X0387451Y0069327D01*
X0387440Y0069289D01*
X0387434Y0069267D01*
Y0069257D01*
X0386981Y0069317D01*
X0387003Y0069409D01*
X0387025Y0069491D01*
X0387052Y0069562D01*
X0387079Y0069628D01*
X0387106Y0069671D01*
X0387128Y0069710D01*
X0387139Y0069731D01*
X0387145Y0069737D01*
X0387194Y0069792D01*
X0387248Y0069841D01*
X0387309Y0069884D01*
X0387369Y0069923D01*
X0387423Y0069950D01*
X0387467Y0069972D01*
X0387494Y0069983D01*
X0387500Y0069988D01*
X0387505D01*
X0387598Y0070021D01*
X0387696Y0070043D01*
X0387789Y0070065D01*
X0387876Y0070076D01*
X0387958Y0070081D01*
X0388018Y0070086D01*
X0388149D01*
X0388226Y0070076D01*
D02*
G37*
G36*
X0410584Y0071124D02*
X0410721Y0071108D01*
X0410852Y0071080D01*
X0410978Y0071047D01*
X0411092Y0071004D01*
X0411201Y0070960D01*
X0411300Y0070911D01*
X0411387Y0070862D01*
X0411469Y0070813D01*
X0411540Y0070763D01*
X0411600Y0070720D01*
X0411649Y0070676D01*
X0411687Y0070643D01*
X0411720Y0070616D01*
X0411737Y0070600D01*
X0411742Y0070594D01*
X0411829Y0070490D01*
X0411906Y0070381D01*
X0411977Y0070261D01*
X0412031Y0070141D01*
X0412080Y0070016D01*
X0412124Y0069895D01*
X0412157Y0069775D01*
X0412179Y0069661D01*
X0412201Y0069551D01*
X0412217Y0069448D01*
X0412228Y0069355D01*
X0412239Y0069278D01*
Y0069213D01*
X0412244Y0069164D01*
Y0069131D01*
Y0069125D01*
Y0069120D01*
X0412233Y0068934D01*
X0412212Y0068765D01*
X0412179Y0068601D01*
X0412157Y0068530D01*
X0412135Y0068459D01*
X0412119Y0068399D01*
X0412097Y0068345D01*
X0412080Y0068296D01*
X0412064Y0068252D01*
X0412053Y0068219D01*
X0412042Y0068197D01*
X0412031Y0068181D01*
Y0068175D01*
X0411939Y0068017D01*
X0411840Y0067881D01*
X0411731Y0067760D01*
X0411627Y0067662D01*
X0411535Y0067580D01*
X0411496Y0067548D01*
X0411464Y0067526D01*
X0411431Y0067504D01*
X0411409Y0067488D01*
X0411398Y0067482D01*
X0411393Y0067477D01*
X0411311Y0067433D01*
X0411229Y0067395D01*
X0411065Y0067329D01*
X0410907Y0067286D01*
X0410759Y0067253D01*
X0410688Y0067242D01*
X0410628Y0067236D01*
X0410574Y0067225D01*
X0410524D01*
X0410492Y0067220D01*
X0410437D01*
X0410257Y0067231D01*
X0410088Y0067258D01*
X0409929Y0067291D01*
X0409858Y0067313D01*
X0409793Y0067335D01*
X0409733Y0067356D01*
X0409678Y0067378D01*
X0409634Y0067395D01*
X0409596Y0067411D01*
X0409563Y0067427D01*
X0409536Y0067438D01*
X0409525Y0067449D01*
X0409520D01*
X0409367Y0067548D01*
X0409236Y0067657D01*
X0409127Y0067771D01*
X0409034Y0067881D01*
X0408957Y0067984D01*
X0408930Y0068023D01*
X0408908Y0068061D01*
X0408886Y0068094D01*
X0408876Y0068115D01*
X0408865Y0068132D01*
Y0068137D01*
X0408821Y0068225D01*
X0408788Y0068312D01*
X0408728Y0068487D01*
X0408684Y0068661D01*
X0408657Y0068820D01*
X0408652Y0068891D01*
X0408641Y0068956D01*
X0408635Y0069016D01*
Y0069065D01*
X0408630Y0069109D01*
Y0069136D01*
Y0069158D01*
Y0069164D01*
X0408641Y0069371D01*
X0408663Y0069562D01*
X0408679Y0069650D01*
X0408701Y0069737D01*
X0408723Y0069813D01*
X0408739Y0069884D01*
X0408761Y0069950D01*
X0408783Y0070010D01*
X0408799Y0070059D01*
X0408821Y0070103D01*
X0408832Y0070136D01*
X0408843Y0070157D01*
X0408854Y0070174D01*
Y0070179D01*
X0408941Y0070338D01*
X0409045Y0070480D01*
X0409154Y0070600D01*
X0409252Y0070698D01*
X0409345Y0070774D01*
X0409389Y0070807D01*
X0409421Y0070834D01*
X0409454Y0070851D01*
X0409476Y0070867D01*
X0409487Y0070873D01*
X0409492Y0070878D01*
X0409574Y0070922D01*
X0409656Y0070960D01*
X0409815Y0071026D01*
X0409978Y0071069D01*
X0410120Y0071096D01*
X0410186Y0071108D01*
X0410251Y0071118D01*
X0410301Y0071124D01*
X0410350D01*
X0410388Y0071129D01*
X0410437D01*
X0410584Y0071124D01*
D02*
G37*
G36*
X0416642Y0086674D02*
X0415878D01*
Y0088279D01*
X0414300D01*
Y0088918D01*
X0415878D01*
Y0089814D01*
X0414049D01*
Y0090452D01*
X0416642D01*
Y0086674D01*
D02*
G37*
G36*
X0412231Y0089470D02*
X0412285Y0089464D01*
X0412340Y0089448D01*
X0412384Y0089432D01*
X0412422Y0089415D01*
X0412455Y0089404D01*
X0412471Y0089393D01*
X0412476Y0089388D01*
X0412531Y0089350D01*
X0412580Y0089295D01*
X0412635Y0089235D01*
X0412678Y0089175D01*
X0412722Y0089115D01*
X0412755Y0089066D01*
X0412777Y0089033D01*
X0412782Y0089028D01*
Y0089415D01*
X0413454D01*
Y0086674D01*
X0412727D01*
Y0087515D01*
Y0087641D01*
Y0087755D01*
X0412722Y0087859D01*
X0412717Y0087952D01*
Y0088039D01*
X0412711Y0088110D01*
X0412706Y0088181D01*
X0412700Y0088236D01*
X0412695Y0088285D01*
X0412689Y0088329D01*
X0412684Y0088361D01*
Y0088389D01*
X0412678Y0088405D01*
X0412673Y0088421D01*
Y0088432D01*
X0412651Y0088509D01*
X0412624Y0088574D01*
X0412597Y0088629D01*
X0412569Y0088667D01*
X0412547Y0088700D01*
X0412526Y0088722D01*
X0412515Y0088733D01*
X0412509Y0088738D01*
X0412465Y0088765D01*
X0412422Y0088787D01*
X0412378Y0088804D01*
X0412340Y0088815D01*
X0412307Y0088820D01*
X0412274Y0088826D01*
X0412253D01*
X0412192Y0088820D01*
X0412132Y0088809D01*
X0412078Y0088787D01*
X0412023Y0088765D01*
X0411979Y0088744D01*
X0411947Y0088722D01*
X0411919Y0088711D01*
X0411914Y0088705D01*
X0411685Y0089333D01*
X0411772Y0089382D01*
X0411854Y0089415D01*
X0411936Y0089442D01*
X0412012Y0089459D01*
X0412072Y0089470D01*
X0412121Y0089475D01*
X0412165D01*
X0412231Y0089470D01*
D02*
G37*
G36*
X0410276D02*
X0410413Y0089448D01*
X0410538Y0089421D01*
X0410647Y0089388D01*
X0410691Y0089366D01*
X0410735Y0089350D01*
X0410773Y0089339D01*
X0410800Y0089322D01*
X0410827Y0089311D01*
X0410844Y0089301D01*
X0410855Y0089295D01*
X0410860D01*
X0410975Y0089219D01*
X0411073Y0089137D01*
X0411161Y0089049D01*
X0411232Y0088967D01*
X0411286Y0088891D01*
X0411330Y0088831D01*
X0411346Y0088809D01*
X0411352Y0088793D01*
X0411363Y0088782D01*
Y0088776D01*
X0411423Y0088651D01*
X0411461Y0088525D01*
X0411494Y0088411D01*
X0411515Y0088307D01*
X0411526Y0088214D01*
X0411532Y0088176D01*
Y0088143D01*
X0411537Y0088121D01*
Y0088099D01*
Y0088088D01*
Y0088083D01*
X0411532Y0087914D01*
X0411510Y0087755D01*
X0411483Y0087619D01*
X0411466Y0087559D01*
X0411450Y0087504D01*
X0411434Y0087455D01*
X0411417Y0087411D01*
X0411401Y0087373D01*
X0411390Y0087340D01*
X0411379Y0087313D01*
X0411368Y0087297D01*
X0411363Y0087286D01*
Y0087280D01*
X0411286Y0087166D01*
X0411204Y0087067D01*
X0411117Y0086980D01*
X0411035Y0086909D01*
X0410958Y0086854D01*
X0410898Y0086816D01*
X0410877Y0086800D01*
X0410860Y0086789D01*
X0410849Y0086783D01*
X0410844D01*
X0410713Y0086729D01*
X0410587Y0086685D01*
X0410467Y0086658D01*
X0410353Y0086636D01*
X0410260Y0086625D01*
X0410221Y0086620D01*
X0410189D01*
X0410161Y0086614D01*
X0410123D01*
X0410008Y0086620D01*
X0409905Y0086631D01*
X0409801Y0086652D01*
X0409708Y0086680D01*
X0409615Y0086707D01*
X0409533Y0086740D01*
X0409457Y0086778D01*
X0409386Y0086816D01*
X0409326Y0086854D01*
X0409271Y0086893D01*
X0409222Y0086925D01*
X0409184Y0086953D01*
X0409151Y0086980D01*
X0409129Y0087002D01*
X0409119Y0087013D01*
X0409113Y0087018D01*
X0409042Y0087100D01*
X0408982Y0087182D01*
X0408927Y0087264D01*
X0408878Y0087351D01*
X0408840Y0087439D01*
X0408807Y0087526D01*
X0408780Y0087608D01*
X0408758Y0087690D01*
X0408742Y0087761D01*
X0408731Y0087832D01*
X0408720Y0087892D01*
X0408714Y0087946D01*
X0408709Y0087990D01*
Y0088023D01*
Y0088045D01*
Y0088050D01*
X0408714Y0088165D01*
X0408725Y0088274D01*
X0408747Y0088372D01*
X0408769Y0088471D01*
X0408802Y0088558D01*
X0408835Y0088645D01*
X0408873Y0088722D01*
X0408906Y0088793D01*
X0408944Y0088853D01*
X0408982Y0088913D01*
X0409015Y0088956D01*
X0409048Y0089000D01*
X0409069Y0089028D01*
X0409091Y0089055D01*
X0409102Y0089066D01*
X0409108Y0089071D01*
X0409184Y0089142D01*
X0409266Y0089202D01*
X0409348Y0089257D01*
X0409435Y0089306D01*
X0409522Y0089344D01*
X0409604Y0089377D01*
X0409686Y0089404D01*
X0409768Y0089426D01*
X0409839Y0089442D01*
X0409910Y0089453D01*
X0409970Y0089464D01*
X0410025Y0089470D01*
X0410069Y0089475D01*
X0410129D01*
X0410276Y0089470D01*
D02*
G37*
G36*
X0406356Y0089093D02*
X0406421Y0089158D01*
X0406487Y0089219D01*
X0406552Y0089268D01*
X0406623Y0089317D01*
X0406689Y0089350D01*
X0406754Y0089382D01*
X0406820Y0089410D01*
X0406880Y0089426D01*
X0406940Y0089442D01*
X0406989Y0089453D01*
X0407038Y0089464D01*
X0407077Y0089470D01*
X0407109Y0089475D01*
X0407153D01*
X0407246Y0089470D01*
X0407333Y0089459D01*
X0407415Y0089442D01*
X0407497Y0089421D01*
X0407633Y0089361D01*
X0407699Y0089328D01*
X0407754Y0089295D01*
X0407808Y0089257D01*
X0407852Y0089224D01*
X0407890Y0089197D01*
X0407923Y0089169D01*
X0407950Y0089142D01*
X0407966Y0089126D01*
X0407977Y0089115D01*
X0407983Y0089109D01*
X0408037Y0089038D01*
X0408086Y0088962D01*
X0408130Y0088880D01*
X0408168Y0088793D01*
X0408201Y0088705D01*
X0408228Y0088618D01*
X0408267Y0088443D01*
X0408278Y0088367D01*
X0408289Y0088290D01*
X0408294Y0088225D01*
X0408299Y0088165D01*
X0408305Y0088116D01*
Y0088083D01*
Y0088056D01*
Y0088050D01*
X0408299Y0087925D01*
X0408289Y0087810D01*
X0408272Y0087701D01*
X0408250Y0087597D01*
X0408228Y0087504D01*
X0408201Y0087417D01*
X0408168Y0087340D01*
X0408136Y0087269D01*
X0408108Y0087204D01*
X0408076Y0087149D01*
X0408048Y0087100D01*
X0408021Y0087062D01*
X0408005Y0087029D01*
X0407988Y0087007D01*
X0407977Y0086996D01*
X0407972Y0086991D01*
X0407906Y0086925D01*
X0407841Y0086865D01*
X0407770Y0086816D01*
X0407704Y0086773D01*
X0407633Y0086734D01*
X0407568Y0086707D01*
X0407502Y0086680D01*
X0407442Y0086663D01*
X0407382Y0086647D01*
X0407328Y0086636D01*
X0407284Y0086625D01*
X0407240Y0086620D01*
X0407207Y0086614D01*
X0407164D01*
X0407077Y0086620D01*
X0406994Y0086631D01*
X0406913Y0086647D01*
X0406842Y0086669D01*
X0406787Y0086691D01*
X0406738Y0086707D01*
X0406711Y0086718D01*
X0406700Y0086723D01*
X0406618Y0086773D01*
X0406541Y0086827D01*
X0406470Y0086887D01*
X0406416Y0086942D01*
X0406367Y0086991D01*
X0406328Y0087035D01*
X0406307Y0087062D01*
X0406301Y0087073D01*
Y0086674D01*
X0405630D01*
Y0090452D01*
X0406356D01*
Y0089093D01*
D02*
G37*
G36*
X0403822Y0089470D02*
X0403959Y0089448D01*
X0404084Y0089421D01*
X0404194Y0089388D01*
X0404237Y0089366D01*
X0404281Y0089350D01*
X0404319Y0089339D01*
X0404347Y0089322D01*
X0404374Y0089311D01*
X0404390Y0089301D01*
X0404401Y0089295D01*
X0404406D01*
X0404521Y0089219D01*
X0404620Y0089137D01*
X0404707Y0089049D01*
X0404778Y0088967D01*
X0404832Y0088891D01*
X0404876Y0088831D01*
X0404892Y0088809D01*
X0404898Y0088793D01*
X0404909Y0088782D01*
Y0088776D01*
X0404969Y0088651D01*
X0405007Y0088525D01*
X0405040Y0088411D01*
X0405062Y0088307D01*
X0405073Y0088214D01*
X0405078Y0088176D01*
Y0088143D01*
X0405084Y0088121D01*
Y0088099D01*
Y0088088D01*
Y0088083D01*
X0405078Y0087914D01*
X0405056Y0087755D01*
X0405029Y0087619D01*
X0405013Y0087559D01*
X0404996Y0087504D01*
X0404980Y0087455D01*
X0404963Y0087411D01*
X0404947Y0087373D01*
X0404936Y0087340D01*
X0404925Y0087313D01*
X0404914Y0087297D01*
X0404909Y0087286D01*
Y0087280D01*
X0404832Y0087166D01*
X0404750Y0087067D01*
X0404663Y0086980D01*
X0404581Y0086909D01*
X0404505Y0086854D01*
X0404445Y0086816D01*
X0404423Y0086800D01*
X0404406Y0086789D01*
X0404396Y0086783D01*
X0404390D01*
X0404259Y0086729D01*
X0404134Y0086685D01*
X0404013Y0086658D01*
X0403899Y0086636D01*
X0403806Y0086625D01*
X0403768Y0086620D01*
X0403735D01*
X0403708Y0086614D01*
X0403669D01*
X0403555Y0086620D01*
X0403451Y0086631D01*
X0403347Y0086652D01*
X0403254Y0086680D01*
X0403162Y0086707D01*
X0403080Y0086740D01*
X0403003Y0086778D01*
X0402932Y0086816D01*
X0402872Y0086854D01*
X0402818Y0086893D01*
X0402769Y0086925D01*
X0402730Y0086953D01*
X0402698Y0086980D01*
X0402676Y0087002D01*
X0402665Y0087013D01*
X0402659Y0087018D01*
X0402588Y0087100D01*
X0402528Y0087182D01*
X0402474Y0087264D01*
X0402424Y0087351D01*
X0402386Y0087439D01*
X0402353Y0087526D01*
X0402326Y0087608D01*
X0402304Y0087690D01*
X0402288Y0087761D01*
X0402277Y0087832D01*
X0402266Y0087892D01*
X0402261Y0087946D01*
X0402255Y0087990D01*
Y0088023D01*
Y0088045D01*
Y0088050D01*
X0402261Y0088165D01*
X0402272Y0088274D01*
X0402293Y0088372D01*
X0402315Y0088471D01*
X0402348Y0088558D01*
X0402381Y0088645D01*
X0402419Y0088722D01*
X0402452Y0088793D01*
X0402490Y0088853D01*
X0402528Y0088913D01*
X0402561Y0088956D01*
X0402594Y0089000D01*
X0402616Y0089028D01*
X0402637Y0089055D01*
X0402648Y0089066D01*
X0402654Y0089071D01*
X0402730Y0089142D01*
X0402812Y0089202D01*
X0402894Y0089257D01*
X0402981Y0089306D01*
X0403069Y0089344D01*
X0403151Y0089377D01*
X0403233Y0089404D01*
X0403314Y0089426D01*
X0403385Y0089442D01*
X0403456Y0089453D01*
X0403516Y0089464D01*
X0403571Y0089470D01*
X0403615Y0089475D01*
X0403675D01*
X0403822Y0089470D01*
D02*
G37*
%LPC*%
G36*
X0411900Y0083267D02*
X0411813D01*
X0411758Y0083256D01*
X0411660Y0083228D01*
X0411573Y0083190D01*
X0411496Y0083152D01*
X0411436Y0083108D01*
X0411393Y0083070D01*
X0411365Y0083043D01*
X0411354Y0083037D01*
Y0083032D01*
X0411283Y0082939D01*
X0411229Y0082835D01*
X0411191Y0082726D01*
X0411169Y0082622D01*
X0411152Y0082535D01*
X0411147Y0082497D01*
Y0082458D01*
X0411141Y0082431D01*
Y0082409D01*
Y0082398D01*
Y0082393D01*
X0411152Y0082251D01*
X0411174Y0082125D01*
X0411207Y0082022D01*
X0411245Y0081934D01*
X0411289Y0081863D01*
X0411322Y0081814D01*
X0411343Y0081781D01*
X0411354Y0081770D01*
X0411436Y0081694D01*
X0411524Y0081639D01*
X0411611Y0081601D01*
X0411698Y0081574D01*
X0411769Y0081558D01*
X0411829Y0081552D01*
X0411851Y0081547D01*
X0411884D01*
X0411999Y0081558D01*
X0412102Y0081579D01*
X0412195Y0081618D01*
X0412277Y0081661D01*
X0412337Y0081700D01*
X0412386Y0081738D01*
X0412414Y0081760D01*
X0412425Y0081770D01*
X0412496Y0081858D01*
X0412550Y0081956D01*
X0412583Y0082054D01*
X0412610Y0082147D01*
X0412627Y0082229D01*
X0412632Y0082262D01*
Y0082295D01*
X0412638Y0082322D01*
Y0082338D01*
Y0082349D01*
Y0082355D01*
X0412627Y0082497D01*
X0412605Y0082628D01*
X0412567Y0082742D01*
X0412523Y0082835D01*
X0412485Y0082912D01*
X0412446Y0082966D01*
X0412435Y0082983D01*
X0412425Y0082999D01*
X0412414Y0083004D01*
Y0083010D01*
X0412370Y0083054D01*
X0412326Y0083097D01*
X0412233Y0083157D01*
X0412141Y0083206D01*
X0412053Y0083234D01*
X0411982Y0083256D01*
X0411922Y0083261D01*
X0411900Y0083267D01*
D02*
G37*
G36*
X0417792D02*
X0417759D01*
X0417699Y0083261D01*
X0417639Y0083256D01*
X0417584Y0083239D01*
X0417535Y0083217D01*
X0417442Y0083168D01*
X0417360Y0083114D01*
X0417300Y0083054D01*
X0417251Y0083004D01*
X0417235Y0082983D01*
X0417224Y0082966D01*
X0417213Y0082961D01*
Y0082955D01*
X0417175Y0082890D01*
X0417142Y0082813D01*
X0417109Y0082726D01*
X0417087Y0082633D01*
X0417065Y0082535D01*
X0417049Y0082431D01*
X0417022Y0082224D01*
X0417011Y0082120D01*
X0417005Y0082027D01*
X0417000Y0081940D01*
Y0081869D01*
X0416994Y0081803D01*
Y0081754D01*
Y0081727D01*
Y0081721D01*
Y0081716D01*
Y0081547D01*
X0417005Y0081394D01*
X0417016Y0081257D01*
X0417027Y0081126D01*
X0417044Y0081017D01*
X0417065Y0080913D01*
X0417087Y0080826D01*
X0417104Y0080744D01*
X0417126Y0080678D01*
X0417147Y0080624D01*
X0417164Y0080575D01*
X0417186Y0080537D01*
X0417197Y0080509D01*
X0417207Y0080493D01*
X0417218Y0080482D01*
Y0080476D01*
X0417262Y0080422D01*
X0417306Y0080378D01*
X0417349Y0080335D01*
X0417393Y0080302D01*
X0417486Y0080247D01*
X0417568Y0080209D01*
X0417644Y0080187D01*
X0417699Y0080176D01*
X0417721Y0080171D01*
X0417754D01*
X0417813Y0080176D01*
X0417868Y0080182D01*
X0417972Y0080220D01*
X0418065Y0080269D01*
X0418147Y0080324D01*
X0418207Y0080378D01*
X0418256Y0080427D01*
X0418283Y0080466D01*
X0418294Y0080471D01*
Y0080476D01*
X0418332Y0080542D01*
X0418365Y0080618D01*
X0418398Y0080706D01*
X0418420Y0080799D01*
X0418441Y0080897D01*
X0418458Y0081001D01*
X0418485Y0081213D01*
X0418496Y0081312D01*
X0418502Y0081405D01*
X0418507Y0081492D01*
Y0081563D01*
X0418512Y0081629D01*
Y0081678D01*
Y0081705D01*
Y0081716D01*
X0418507Y0081885D01*
X0418502Y0082038D01*
X0418491Y0082180D01*
X0418474Y0082311D01*
X0418458Y0082426D01*
X0418436Y0082529D01*
X0418414Y0082622D01*
X0418392Y0082704D01*
X0418370Y0082775D01*
X0418354Y0082835D01*
X0418332Y0082884D01*
X0418316Y0082928D01*
X0418299Y0082955D01*
X0418289Y0082977D01*
X0418278Y0082988D01*
Y0082994D01*
X0418239Y0083043D01*
X0418201Y0083086D01*
X0418157Y0083119D01*
X0418114Y0083152D01*
X0418026Y0083201D01*
X0417945Y0083234D01*
X0417874Y0083250D01*
X0417813Y0083261D01*
X0417792Y0083267D01*
D02*
G37*
G36*
X0414854D02*
X0414821D01*
X0414761Y0083261D01*
X0414701Y0083256D01*
X0414647Y0083239D01*
X0414598Y0083217D01*
X0414505Y0083168D01*
X0414423Y0083114D01*
X0414363Y0083054D01*
X0414314Y0083004D01*
X0414297Y0082983D01*
X0414286Y0082966D01*
X0414276Y0082961D01*
Y0082955D01*
X0414237Y0082890D01*
X0414205Y0082813D01*
X0414172Y0082726D01*
X0414150Y0082633D01*
X0414128Y0082535D01*
X0414112Y0082431D01*
X0414084Y0082224D01*
X0414073Y0082120D01*
X0414068Y0082027D01*
X0414062Y0081940D01*
Y0081869D01*
X0414057Y0081803D01*
Y0081754D01*
Y0081727D01*
Y0081721D01*
Y0081716D01*
Y0081547D01*
X0414068Y0081394D01*
X0414079Y0081257D01*
X0414090Y0081126D01*
X0414106Y0081017D01*
X0414128Y0080913D01*
X0414150Y0080826D01*
X0414166Y0080744D01*
X0414188Y0080678D01*
X0414210Y0080624D01*
X0414226Y0080575D01*
X0414248Y0080537D01*
X0414259Y0080509D01*
X0414270Y0080493D01*
X0414281Y0080482D01*
Y0080476D01*
X0414325Y0080422D01*
X0414368Y0080378D01*
X0414412Y0080335D01*
X0414456Y0080302D01*
X0414548Y0080247D01*
X0414630Y0080209D01*
X0414707Y0080187D01*
X0414761Y0080176D01*
X0414783Y0080171D01*
X0414816D01*
X0414876Y0080176D01*
X0414931Y0080182D01*
X0415034Y0080220D01*
X0415127Y0080269D01*
X0415209Y0080324D01*
X0415269Y0080378D01*
X0415318Y0080427D01*
X0415346Y0080466D01*
X0415356Y0080471D01*
Y0080476D01*
X0415395Y0080542D01*
X0415427Y0080618D01*
X0415460Y0080706D01*
X0415482Y0080799D01*
X0415504Y0080897D01*
X0415520Y0081001D01*
X0415548Y0081213D01*
X0415559Y0081312D01*
X0415564Y0081405D01*
X0415569Y0081492D01*
Y0081563D01*
X0415575Y0081629D01*
Y0081678D01*
Y0081705D01*
Y0081716D01*
X0415569Y0081885D01*
X0415564Y0082038D01*
X0415553Y0082180D01*
X0415537Y0082311D01*
X0415520Y0082426D01*
X0415498Y0082529D01*
X0415477Y0082622D01*
X0415455Y0082704D01*
X0415433Y0082775D01*
X0415417Y0082835D01*
X0415395Y0082884D01*
X0415378Y0082928D01*
X0415362Y0082955D01*
X0415351Y0082977D01*
X0415340Y0082988D01*
Y0082994D01*
X0415302Y0083043D01*
X0415264Y0083086D01*
X0415220Y0083119D01*
X0415176Y0083152D01*
X0415089Y0083201D01*
X0415007Y0083234D01*
X0414936Y0083250D01*
X0414876Y0083261D01*
X0414854Y0083267D01*
D02*
G37*
G36*
X0404284D02*
X0404251D01*
X0404191Y0083261D01*
X0404131Y0083256D01*
X0404076Y0083239D01*
X0404027Y0083217D01*
X0403934Y0083168D01*
X0403852Y0083114D01*
X0403792Y0083054D01*
X0403743Y0083004D01*
X0403727Y0082983D01*
X0403716Y0082966D01*
X0403705Y0082961D01*
Y0082955D01*
X0403667Y0082890D01*
X0403634Y0082813D01*
X0403601Y0082726D01*
X0403579Y0082633D01*
X0403557Y0082535D01*
X0403541Y0082431D01*
X0403514Y0082224D01*
X0403503Y0082120D01*
X0403497Y0082027D01*
X0403492Y0081940D01*
Y0081869D01*
X0403486Y0081803D01*
Y0081754D01*
Y0081727D01*
Y0081721D01*
Y0081716D01*
Y0081547D01*
X0403497Y0081394D01*
X0403508Y0081257D01*
X0403519Y0081126D01*
X0403536Y0081017D01*
X0403557Y0080913D01*
X0403579Y0080826D01*
X0403596Y0080744D01*
X0403617Y0080678D01*
X0403639Y0080624D01*
X0403656Y0080575D01*
X0403678Y0080537D01*
X0403688Y0080509D01*
X0403699Y0080493D01*
X0403710Y0080482D01*
Y0080476D01*
X0403754Y0080422D01*
X0403798Y0080378D01*
X0403841Y0080335D01*
X0403885Y0080302D01*
X0403978Y0080247D01*
X0404060Y0080209D01*
X0404136Y0080187D01*
X0404191Y0080176D01*
X0404213Y0080171D01*
X0404245D01*
X0404306Y0080176D01*
X0404360Y0080182D01*
X0404464Y0080220D01*
X0404557Y0080269D01*
X0404639Y0080324D01*
X0404699Y0080378D01*
X0404748Y0080427D01*
X0404775Y0080466D01*
X0404786Y0080471D01*
Y0080476D01*
X0404824Y0080542D01*
X0404857Y0080618D01*
X0404890Y0080706D01*
X0404912Y0080799D01*
X0404933Y0080897D01*
X0404950Y0081001D01*
X0404977Y0081213D01*
X0404988Y0081312D01*
X0404993Y0081405D01*
X0404999Y0081492D01*
Y0081563D01*
X0405004Y0081629D01*
Y0081678D01*
Y0081705D01*
Y0081716D01*
X0404999Y0081885D01*
X0404993Y0082038D01*
X0404983Y0082180D01*
X0404966Y0082311D01*
X0404950Y0082426D01*
X0404928Y0082529D01*
X0404906Y0082622D01*
X0404884Y0082704D01*
X0404862Y0082775D01*
X0404846Y0082835D01*
X0404824Y0082884D01*
X0404808Y0082928D01*
X0404791Y0082955D01*
X0404780Y0082977D01*
X0404770Y0082988D01*
Y0082994D01*
X0404731Y0083043D01*
X0404693Y0083086D01*
X0404649Y0083119D01*
X0404606Y0083152D01*
X0404518Y0083201D01*
X0404436Y0083234D01*
X0404366Y0083250D01*
X0404306Y0083261D01*
X0404284Y0083267D01*
D02*
G37*
G36*
X0383314Y0075412D02*
X0383227D01*
X0383173Y0075401D01*
X0383069Y0075374D01*
X0382976Y0075330D01*
X0382900Y0075287D01*
X0382834Y0075237D01*
X0382785Y0075194D01*
X0382758Y0075166D01*
X0382747Y0075161D01*
Y0075156D01*
X0382709Y0075106D01*
X0382670Y0075052D01*
X0382616Y0074926D01*
X0382577Y0074801D01*
X0382550Y0074675D01*
X0382534Y0074566D01*
X0382528Y0074517D01*
Y0074473D01*
X0382523Y0074440D01*
Y0074413D01*
Y0074397D01*
Y0074391D01*
Y0074298D01*
X0382534Y0074205D01*
X0382545Y0074124D01*
X0382556Y0074053D01*
X0382572Y0073982D01*
X0382594Y0073916D01*
X0382610Y0073861D01*
X0382632Y0073812D01*
X0382654Y0073763D01*
X0382670Y0073725D01*
X0382692Y0073692D01*
X0382709Y0073670D01*
X0382719Y0073649D01*
X0382730Y0073632D01*
X0382741Y0073627D01*
Y0073621D01*
X0382785Y0073578D01*
X0382829Y0073539D01*
X0382916Y0073479D01*
X0383009Y0073436D01*
X0383091Y0073408D01*
X0383167Y0073387D01*
X0383227Y0073381D01*
X0383249Y0073375D01*
X0383282D01*
X0383342Y0073381D01*
X0383396Y0073387D01*
X0383500Y0073414D01*
X0383593Y0073452D01*
X0383669Y0073501D01*
X0383735Y0073545D01*
X0383779Y0073583D01*
X0383806Y0073610D01*
X0383817Y0073621D01*
X0383855Y0073670D01*
X0383888Y0073725D01*
X0383942Y0073851D01*
X0383975Y0073976D01*
X0384002Y0074107D01*
X0384019Y0074222D01*
X0384024Y0074276D01*
Y0074320D01*
X0384030Y0074358D01*
Y0074386D01*
Y0074402D01*
Y0074408D01*
Y0074500D01*
X0384019Y0074582D01*
X0384008Y0074659D01*
X0383997Y0074735D01*
X0383981Y0074801D01*
X0383964Y0074861D01*
X0383942Y0074921D01*
X0383921Y0074970D01*
X0383904Y0075014D01*
X0383882Y0075052D01*
X0383866Y0075085D01*
X0383850Y0075106D01*
X0383839Y0075128D01*
X0383828Y0075145D01*
X0383817Y0075150D01*
Y0075156D01*
X0383773Y0075199D01*
X0383730Y0075243D01*
X0383642Y0075303D01*
X0383555Y0075352D01*
X0383467Y0075379D01*
X0383396Y0075401D01*
X0383336Y0075407D01*
X0383314Y0075412D01*
D02*
G37*
G36*
X0425810D02*
X0425777D01*
X0425711Y0075407D01*
X0425651Y0075401D01*
X0425537Y0075368D01*
X0425438Y0075325D01*
X0425356Y0075276D01*
X0425291Y0075226D01*
X0425242Y0075183D01*
X0425215Y0075150D01*
X0425204Y0075145D01*
Y0075139D01*
X0425154Y0075068D01*
X0425111Y0074986D01*
X0425083Y0074904D01*
X0425056Y0074817D01*
X0425040Y0074746D01*
X0425029Y0074681D01*
Y0074659D01*
X0425024Y0074642D01*
Y0074631D01*
Y0074626D01*
X0426558D01*
X0426541Y0074752D01*
X0426509Y0074866D01*
X0426470Y0074964D01*
X0426427Y0075041D01*
X0426389Y0075106D01*
X0426350Y0075156D01*
X0426328Y0075183D01*
X0426318Y0075194D01*
X0426230Y0075265D01*
X0426143Y0075319D01*
X0426050Y0075358D01*
X0425963Y0075385D01*
X0425892Y0075401D01*
X0425832Y0075407D01*
X0425810Y0075412D01*
D02*
G37*
G36*
X0420230D02*
X0420197D01*
X0420131Y0075407D01*
X0420071Y0075401D01*
X0419957Y0075368D01*
X0419858Y0075325D01*
X0419776Y0075276D01*
X0419711Y0075226D01*
X0419662Y0075183D01*
X0419634Y0075150D01*
X0419624Y0075145D01*
Y0075139D01*
X0419574Y0075068D01*
X0419531Y0074986D01*
X0419503Y0074904D01*
X0419476Y0074817D01*
X0419460Y0074746D01*
X0419449Y0074681D01*
Y0074659D01*
X0419443Y0074642D01*
Y0074631D01*
Y0074626D01*
X0420978D01*
X0420961Y0074752D01*
X0420928Y0074866D01*
X0420890Y0074964D01*
X0420847Y0075041D01*
X0420808Y0075106D01*
X0420770Y0075156D01*
X0420748Y0075183D01*
X0420737Y0075194D01*
X0420650Y0075265D01*
X0420563Y0075319D01*
X0420470Y0075358D01*
X0420382Y0075385D01*
X0420311Y0075401D01*
X0420251Y0075407D01*
X0420230Y0075412D01*
D02*
G37*
G36*
X0404079D02*
X0404046D01*
X0403981Y0075407D01*
X0403921Y0075401D01*
X0403806Y0075368D01*
X0403708Y0075325D01*
X0403626Y0075276D01*
X0403560Y0075226D01*
X0403511Y0075183D01*
X0403484Y0075150D01*
X0403473Y0075145D01*
Y0075139D01*
X0403424Y0075068D01*
X0403380Y0074986D01*
X0403353Y0074904D01*
X0403325Y0074817D01*
X0403309Y0074746D01*
X0403298Y0074681D01*
Y0074659D01*
X0403293Y0074642D01*
Y0074631D01*
Y0074626D01*
X0404827D01*
X0404811Y0074752D01*
X0404778Y0074866D01*
X0404740Y0074964D01*
X0404696Y0075041D01*
X0404658Y0075106D01*
X0404620Y0075156D01*
X0404598Y0075183D01*
X0404587Y0075194D01*
X0404499Y0075265D01*
X0404412Y0075319D01*
X0404319Y0075358D01*
X0404232Y0075385D01*
X0404161Y0075401D01*
X0404101Y0075407D01*
X0404079Y0075412D01*
D02*
G37*
G36*
X0430522D02*
X0430489D01*
X0430423Y0075407D01*
X0430363Y0075401D01*
X0430254Y0075374D01*
X0430156Y0075330D01*
X0430074Y0075281D01*
X0430008Y0075232D01*
X0429959Y0075194D01*
X0429927Y0075161D01*
X0429916Y0075156D01*
Y0075150D01*
X0429872Y0075101D01*
X0429839Y0075041D01*
X0429779Y0074921D01*
X0429736Y0074790D01*
X0429708Y0074670D01*
X0429692Y0074555D01*
X0429686Y0074506D01*
Y0074462D01*
X0429681Y0074429D01*
Y0074402D01*
Y0074386D01*
Y0074380D01*
Y0074282D01*
X0429692Y0074189D01*
X0429703Y0074107D01*
X0429719Y0074025D01*
X0429736Y0073954D01*
X0429757Y0073889D01*
X0429774Y0073829D01*
X0429796Y0073774D01*
X0429817Y0073730D01*
X0429839Y0073687D01*
X0429861Y0073654D01*
X0429877Y0073627D01*
X0429894Y0073605D01*
X0429905Y0073589D01*
X0429910Y0073583D01*
X0429916Y0073578D01*
X0429959Y0073534D01*
X0430008Y0073490D01*
X0430101Y0073425D01*
X0430199Y0073381D01*
X0430287Y0073348D01*
X0430369Y0073332D01*
X0430429Y0073321D01*
X0430456Y0073316D01*
X0430489D01*
X0430554Y0073321D01*
X0430615Y0073326D01*
X0430729Y0073354D01*
X0430828Y0073397D01*
X0430909Y0073447D01*
X0430975Y0073490D01*
X0431024Y0073534D01*
X0431057Y0073561D01*
X0431062Y0073572D01*
X0431068D01*
X0431106Y0073627D01*
X0431144Y0073681D01*
X0431199Y0073807D01*
X0431242Y0073938D01*
X0431270Y0074069D01*
X0431286Y0074184D01*
X0431292Y0074233D01*
Y0074276D01*
X0431297Y0074315D01*
Y0074342D01*
Y0074358D01*
Y0074364D01*
X0431292Y0074457D01*
X0431286Y0074549D01*
X0431275Y0074631D01*
X0431259Y0074708D01*
X0431242Y0074779D01*
X0431226Y0074844D01*
X0431204Y0074899D01*
X0431182Y0074954D01*
X0431160Y0074997D01*
X0431139Y0075041D01*
X0431122Y0075074D01*
X0431106Y0075101D01*
X0431089Y0075123D01*
X0431079Y0075139D01*
X0431068Y0075145D01*
Y0075150D01*
X0431024Y0075194D01*
X0430975Y0075237D01*
X0430882Y0075303D01*
X0430784Y0075347D01*
X0430691Y0075379D01*
X0430609Y0075401D01*
X0430549Y0075407D01*
X0430522Y0075412D01*
D02*
G37*
G36*
X0393017D02*
X0392990D01*
X0392930Y0075407D01*
X0392875Y0075401D01*
X0392771Y0075368D01*
X0392678Y0075330D01*
X0392602Y0075281D01*
X0392542Y0075232D01*
X0392493Y0075188D01*
X0392465Y0075156D01*
X0392455Y0075150D01*
Y0075145D01*
X0392416Y0075090D01*
X0392384Y0075035D01*
X0392329Y0074904D01*
X0392291Y0074768D01*
X0392264Y0074637D01*
X0392253Y0074571D01*
X0392247Y0074511D01*
X0392242Y0074457D01*
Y0074413D01*
X0392236Y0074375D01*
Y0074347D01*
Y0074326D01*
Y0074320D01*
Y0074227D01*
X0392247Y0074140D01*
X0392258Y0074063D01*
X0392269Y0073987D01*
X0392285Y0073922D01*
X0392307Y0073856D01*
X0392323Y0073801D01*
X0392345Y0073752D01*
X0392367Y0073709D01*
X0392384Y0073665D01*
X0392405Y0073638D01*
X0392422Y0073610D01*
X0392433Y0073589D01*
X0392444Y0073572D01*
X0392455Y0073567D01*
Y0073561D01*
X0392493Y0073518D01*
X0392536Y0073479D01*
X0392624Y0073419D01*
X0392711Y0073375D01*
X0392793Y0073348D01*
X0392864Y0073326D01*
X0392924Y0073321D01*
X0392946Y0073316D01*
X0392973D01*
X0393028Y0073321D01*
X0393082Y0073326D01*
X0393181Y0073354D01*
X0393274Y0073397D01*
X0393350Y0073447D01*
X0393410Y0073490D01*
X0393459Y0073534D01*
X0393486Y0073561D01*
X0393492Y0073572D01*
X0393497D01*
X0393536Y0073627D01*
X0393568Y0073681D01*
X0393623Y0073807D01*
X0393661Y0073938D01*
X0393689Y0074063D01*
X0393705Y0074178D01*
X0393710Y0074227D01*
Y0074271D01*
X0393716Y0074309D01*
Y0074336D01*
Y0074353D01*
Y0074358D01*
Y0074457D01*
X0393705Y0074549D01*
X0393694Y0074637D01*
X0393683Y0074713D01*
X0393667Y0074784D01*
X0393650Y0074850D01*
X0393634Y0074910D01*
X0393612Y0074964D01*
X0393590Y0075008D01*
X0393574Y0075046D01*
X0393558Y0075079D01*
X0393541Y0075106D01*
X0393525Y0075128D01*
X0393519Y0075145D01*
X0393508Y0075150D01*
Y0075156D01*
X0393470Y0075199D01*
X0393426Y0075243D01*
X0393339Y0075303D01*
X0393252Y0075352D01*
X0393170Y0075379D01*
X0393099Y0075401D01*
X0393039Y0075407D01*
X0393017Y0075412D01*
D02*
G37*
G36*
X0429203Y0068661D02*
X0429198D01*
X0429203Y0068487D01*
X0429209Y0068378D01*
X0429214Y0068285D01*
X0429225Y0068208D01*
X0429241Y0068143D01*
X0429258Y0068094D01*
X0429269Y0068055D01*
X0429274Y0068033D01*
X0429280Y0068028D01*
X0429323Y0067957D01*
X0429367Y0067892D01*
X0429422Y0067837D01*
X0429471Y0067793D01*
X0429514Y0067755D01*
X0429553Y0067728D01*
X0429574Y0067711D01*
X0429585Y0067706D01*
X0429667Y0067668D01*
X0429749Y0067640D01*
X0429825Y0067619D01*
X0429902Y0067608D01*
X0429962Y0067597D01*
X0430017Y0067591D01*
X0430060D01*
X0430159Y0067597D01*
X0430240Y0067608D01*
X0430311Y0067629D01*
X0430372Y0067651D01*
X0430415Y0067673D01*
X0430448Y0067695D01*
X0430470Y0067706D01*
X0430475Y0067711D01*
X0430519Y0067760D01*
X0430552Y0067815D01*
X0430579Y0067864D01*
X0430595Y0067913D01*
X0430606Y0067957D01*
X0430612Y0067990D01*
Y0068017D01*
Y0068023D01*
X0430606Y0068066D01*
X0430601Y0068110D01*
X0430590Y0068143D01*
X0430579Y0068175D01*
X0430568Y0068203D01*
X0430563Y0068225D01*
X0430552Y0068235D01*
Y0068241D01*
X0430497Y0068306D01*
X0430432Y0068350D01*
X0430410Y0068366D01*
X0430388Y0068378D01*
X0430372Y0068388D01*
X0430366D01*
X0430311Y0068410D01*
X0430251Y0068427D01*
X0430186Y0068443D01*
X0430120Y0068454D01*
X0430060Y0068465D01*
X0430006Y0068476D01*
X0429973Y0068481D01*
X0429962D01*
X0429869Y0068498D01*
X0429782Y0068508D01*
X0429705Y0068525D01*
X0429629Y0068541D01*
X0429558Y0068558D01*
X0429498Y0068574D01*
X0429438Y0068585D01*
X0429389Y0068601D01*
X0429345Y0068612D01*
X0429307Y0068623D01*
X0429274Y0068634D01*
X0429247Y0068645D01*
X0429225Y0068651D01*
X0429209Y0068656D01*
X0429203Y0068661D01*
D02*
G37*
G36*
X0393386D02*
X0393380D01*
X0393386Y0068487D01*
X0393391Y0068378D01*
X0393396Y0068285D01*
X0393407Y0068208D01*
X0393424Y0068143D01*
X0393440Y0068094D01*
X0393451Y0068055D01*
X0393457Y0068033D01*
X0393462Y0068028D01*
X0393506Y0067957D01*
X0393549Y0067892D01*
X0393604Y0067837D01*
X0393653Y0067793D01*
X0393697Y0067755D01*
X0393735Y0067728D01*
X0393757Y0067711D01*
X0393768Y0067706D01*
X0393850Y0067668D01*
X0393932Y0067640D01*
X0394008Y0067619D01*
X0394084Y0067608D01*
X0394144Y0067597D01*
X0394199Y0067591D01*
X0394243D01*
X0394341Y0067597D01*
X0394423Y0067608D01*
X0394494Y0067629D01*
X0394554Y0067651D01*
X0394598Y0067673D01*
X0394630Y0067695D01*
X0394652Y0067706D01*
X0394658Y0067711D01*
X0394701Y0067760D01*
X0394734Y0067815D01*
X0394761Y0067864D01*
X0394778Y0067913D01*
X0394789Y0067957D01*
X0394794Y0067990D01*
Y0068017D01*
Y0068023D01*
X0394789Y0068066D01*
X0394783Y0068110D01*
X0394772Y0068143D01*
X0394761Y0068175D01*
X0394750Y0068203D01*
X0394745Y0068225D01*
X0394734Y0068235D01*
Y0068241D01*
X0394679Y0068306D01*
X0394614Y0068350D01*
X0394592Y0068366D01*
X0394570Y0068378D01*
X0394554Y0068388D01*
X0394549D01*
X0394494Y0068410D01*
X0394434Y0068427D01*
X0394368Y0068443D01*
X0394303Y0068454D01*
X0394243Y0068465D01*
X0394188Y0068476D01*
X0394155Y0068481D01*
X0394144D01*
X0394052Y0068498D01*
X0393964Y0068508D01*
X0393888Y0068525D01*
X0393811Y0068541D01*
X0393740Y0068558D01*
X0393680Y0068574D01*
X0393620Y0068585D01*
X0393571Y0068601D01*
X0393528Y0068612D01*
X0393489Y0068623D01*
X0393457Y0068634D01*
X0393429Y0068645D01*
X0393407Y0068651D01*
X0393391Y0068656D01*
X0393386Y0068661D01*
D02*
G37*
G36*
X0396978Y0069704D02*
X0396945D01*
X0396880Y0069699D01*
X0396820Y0069693D01*
X0396705Y0069661D01*
X0396607Y0069617D01*
X0396525Y0069568D01*
X0396460Y0069519D01*
X0396410Y0069475D01*
X0396383Y0069442D01*
X0396372Y0069437D01*
Y0069431D01*
X0396323Y0069360D01*
X0396279Y0069278D01*
X0396252Y0069196D01*
X0396225Y0069109D01*
X0396208Y0069038D01*
X0396197Y0068973D01*
Y0068951D01*
X0396192Y0068934D01*
Y0068923D01*
Y0068918D01*
X0397726D01*
X0397710Y0069044D01*
X0397677Y0069158D01*
X0397639Y0069257D01*
X0397595Y0069333D01*
X0397557Y0069398D01*
X0397519Y0069448D01*
X0397497Y0069475D01*
X0397486Y0069486D01*
X0397399Y0069557D01*
X0397311Y0069611D01*
X0397218Y0069650D01*
X0397131Y0069677D01*
X0397060Y0069693D01*
X0397000Y0069699D01*
X0396978Y0069704D01*
D02*
G37*
G36*
X0424076D02*
X0424049D01*
X0423989Y0069699D01*
X0423934Y0069693D01*
X0423831Y0069661D01*
X0423738Y0069622D01*
X0423661Y0069573D01*
X0423601Y0069524D01*
X0423552Y0069480D01*
X0423525Y0069448D01*
X0423514Y0069442D01*
Y0069437D01*
X0423476Y0069382D01*
X0423443Y0069327D01*
X0423388Y0069196D01*
X0423350Y0069060D01*
X0423323Y0068929D01*
X0423312Y0068863D01*
X0423306Y0068803D01*
X0423301Y0068749D01*
Y0068705D01*
X0423295Y0068667D01*
Y0068639D01*
Y0068618D01*
Y0068612D01*
Y0068519D01*
X0423306Y0068432D01*
X0423317Y0068356D01*
X0423328Y0068279D01*
X0423345Y0068214D01*
X0423366Y0068148D01*
X0423383Y0068094D01*
X0423405Y0068044D01*
X0423426Y0068001D01*
X0423443Y0067957D01*
X0423465Y0067930D01*
X0423481Y0067902D01*
X0423492Y0067881D01*
X0423503Y0067864D01*
X0423514Y0067859D01*
Y0067853D01*
X0423552Y0067810D01*
X0423596Y0067771D01*
X0423683Y0067711D01*
X0423770Y0067668D01*
X0423852Y0067640D01*
X0423923Y0067619D01*
X0423983Y0067613D01*
X0424005Y0067608D01*
X0424032D01*
X0424087Y0067613D01*
X0424142Y0067619D01*
X0424240Y0067646D01*
X0424333Y0067690D01*
X0424409Y0067739D01*
X0424469Y0067782D01*
X0424518Y0067826D01*
X0424546Y0067853D01*
X0424551Y0067864D01*
X0424557D01*
X0424595Y0067919D01*
X0424628Y0067973D01*
X0424682Y0068099D01*
X0424720Y0068230D01*
X0424748Y0068356D01*
X0424764Y0068470D01*
X0424770Y0068519D01*
Y0068563D01*
X0424775Y0068601D01*
Y0068629D01*
Y0068645D01*
Y0068651D01*
Y0068749D01*
X0424764Y0068842D01*
X0424753Y0068929D01*
X0424742Y0069005D01*
X0424726Y0069076D01*
X0424710Y0069142D01*
X0424693Y0069202D01*
X0424671Y0069257D01*
X0424649Y0069300D01*
X0424633Y0069338D01*
X0424617Y0069371D01*
X0424600Y0069398D01*
X0424584Y0069420D01*
X0424579Y0069437D01*
X0424568Y0069442D01*
Y0069448D01*
X0424529Y0069491D01*
X0424486Y0069535D01*
X0424398Y0069595D01*
X0424311Y0069644D01*
X0424229Y0069671D01*
X0424158Y0069693D01*
X0424098Y0069699D01*
X0424076Y0069704D01*
D02*
G37*
G36*
X0416951D02*
X0416918D01*
X0416853Y0069699D01*
X0416792Y0069693D01*
X0416683Y0069666D01*
X0416585Y0069622D01*
X0416503Y0069573D01*
X0416438Y0069524D01*
X0416389Y0069486D01*
X0416356Y0069453D01*
X0416345Y0069448D01*
Y0069442D01*
X0416301Y0069393D01*
X0416268Y0069333D01*
X0416208Y0069213D01*
X0416165Y0069082D01*
X0416137Y0068962D01*
X0416121Y0068847D01*
X0416116Y0068798D01*
Y0068754D01*
X0416110Y0068721D01*
Y0068694D01*
Y0068678D01*
Y0068672D01*
Y0068574D01*
X0416121Y0068481D01*
X0416132Y0068399D01*
X0416148Y0068317D01*
X0416165Y0068246D01*
X0416187Y0068181D01*
X0416203Y0068121D01*
X0416225Y0068066D01*
X0416247Y0068023D01*
X0416268Y0067979D01*
X0416290Y0067946D01*
X0416307Y0067919D01*
X0416323Y0067897D01*
X0416334Y0067881D01*
X0416339Y0067875D01*
X0416345Y0067870D01*
X0416389Y0067826D01*
X0416438Y0067782D01*
X0416530Y0067717D01*
X0416629Y0067673D01*
X0416716Y0067640D01*
X0416798Y0067624D01*
X0416858Y0067613D01*
X0416885Y0067608D01*
X0416918D01*
X0416984Y0067613D01*
X0417044Y0067619D01*
X0417158Y0067646D01*
X0417257Y0067690D01*
X0417339Y0067739D01*
X0417404Y0067782D01*
X0417453Y0067826D01*
X0417486Y0067853D01*
X0417491Y0067864D01*
X0417497D01*
X0417535Y0067919D01*
X0417573Y0067973D01*
X0417628Y0068099D01*
X0417672Y0068230D01*
X0417699Y0068361D01*
X0417715Y0068476D01*
X0417721Y0068525D01*
Y0068569D01*
X0417726Y0068607D01*
Y0068634D01*
Y0068651D01*
Y0068656D01*
X0417721Y0068749D01*
X0417715Y0068842D01*
X0417704Y0068923D01*
X0417688Y0069000D01*
X0417672Y0069071D01*
X0417655Y0069136D01*
X0417633Y0069191D01*
X0417612Y0069246D01*
X0417590Y0069289D01*
X0417568Y0069333D01*
X0417552Y0069366D01*
X0417535Y0069393D01*
X0417519Y0069415D01*
X0417508Y0069431D01*
X0417497Y0069437D01*
Y0069442D01*
X0417453Y0069486D01*
X0417404Y0069529D01*
X0417311Y0069595D01*
X0417213Y0069639D01*
X0417120Y0069671D01*
X0417038Y0069693D01*
X0416978Y0069699D01*
X0416951Y0069704D01*
D02*
G37*
G36*
X0410486Y0070698D02*
X0410437D01*
X0410301Y0070692D01*
X0410170Y0070671D01*
X0410055Y0070638D01*
X0409957Y0070605D01*
X0409875Y0070567D01*
X0409842Y0070551D01*
X0409815Y0070540D01*
X0409787Y0070523D01*
X0409771Y0070518D01*
X0409765Y0070507D01*
X0409760D01*
X0409656Y0070430D01*
X0409563Y0070343D01*
X0409482Y0070256D01*
X0409416Y0070168D01*
X0409367Y0070092D01*
X0409329Y0070026D01*
X0409318Y0070004D01*
X0409307Y0069988D01*
X0409301Y0069977D01*
Y0069972D01*
X0409247Y0069841D01*
X0409209Y0069699D01*
X0409181Y0069568D01*
X0409165Y0069442D01*
X0409154Y0069382D01*
X0409149Y0069333D01*
Y0069284D01*
X0409143Y0069246D01*
Y0069213D01*
Y0069191D01*
Y0069175D01*
Y0069169D01*
X0409149Y0069038D01*
X0409159Y0068913D01*
X0409176Y0068792D01*
X0409198Y0068683D01*
X0409230Y0068585D01*
X0409258Y0068492D01*
X0409291Y0068405D01*
X0409323Y0068328D01*
X0409362Y0068263D01*
X0409394Y0068203D01*
X0409421Y0068154D01*
X0409449Y0068115D01*
X0409476Y0068083D01*
X0409492Y0068055D01*
X0409503Y0068044D01*
X0409509Y0068039D01*
X0409580Y0067968D01*
X0409656Y0067908D01*
X0409733Y0067859D01*
X0409809Y0067810D01*
X0409886Y0067771D01*
X0409968Y0067744D01*
X0410039Y0067717D01*
X0410115Y0067695D01*
X0410181Y0067679D01*
X0410246Y0067668D01*
X0410301Y0067657D01*
X0410350Y0067651D01*
X0410388D01*
X0410415Y0067646D01*
X0410442D01*
X0410546Y0067651D01*
X0410645Y0067662D01*
X0410732Y0067684D01*
X0410819Y0067706D01*
X0410901Y0067739D01*
X0410978Y0067771D01*
X0411049Y0067804D01*
X0411114Y0067842D01*
X0411169Y0067881D01*
X0411218Y0067913D01*
X0411262Y0067946D01*
X0411300Y0067979D01*
X0411327Y0068001D01*
X0411349Y0068023D01*
X0411360Y0068033D01*
X0411365Y0068039D01*
X0411431Y0068115D01*
X0411485Y0068197D01*
X0411535Y0068285D01*
X0411578Y0068372D01*
X0411611Y0068465D01*
X0411644Y0068552D01*
X0411687Y0068727D01*
X0411698Y0068803D01*
X0411709Y0068880D01*
X0411720Y0068945D01*
X0411726Y0069000D01*
X0411731Y0069049D01*
Y0069087D01*
Y0069109D01*
Y0069115D01*
X0411726Y0069267D01*
X0411715Y0069409D01*
X0411698Y0069546D01*
X0411671Y0069666D01*
X0411644Y0069775D01*
X0411611Y0069873D01*
X0411573Y0069966D01*
X0411540Y0070043D01*
X0411502Y0070114D01*
X0411469Y0070174D01*
X0411436Y0070223D01*
X0411409Y0070261D01*
X0411382Y0070294D01*
X0411365Y0070316D01*
X0411354Y0070327D01*
X0411349Y0070332D01*
X0411278Y0070398D01*
X0411201Y0070452D01*
X0411125Y0070501D01*
X0411043Y0070545D01*
X0410967Y0070578D01*
X0410890Y0070611D01*
X0410748Y0070654D01*
X0410683Y0070665D01*
X0410623Y0070676D01*
X0410574Y0070687D01*
X0410524Y0070692D01*
X0410486Y0070698D01*
D02*
G37*
G36*
X0410150Y0088885D02*
X0410123D01*
X0410019Y0088875D01*
X0409927Y0088853D01*
X0409850Y0088815D01*
X0409779Y0088776D01*
X0409725Y0088738D01*
X0409681Y0088700D01*
X0409659Y0088678D01*
X0409648Y0088667D01*
X0409583Y0088580D01*
X0409533Y0088476D01*
X0409501Y0088372D01*
X0409473Y0088274D01*
X0409462Y0088187D01*
X0409457Y0088143D01*
Y0088110D01*
X0409451Y0088083D01*
Y0088061D01*
Y0088050D01*
Y0088045D01*
X0409462Y0087903D01*
X0409484Y0087772D01*
X0409512Y0087668D01*
X0409550Y0087575D01*
X0409588Y0087510D01*
X0409615Y0087455D01*
X0409637Y0087428D01*
X0409648Y0087417D01*
X0409725Y0087346D01*
X0409801Y0087291D01*
X0409883Y0087258D01*
X0409959Y0087231D01*
X0410025Y0087215D01*
X0410074Y0087209D01*
X0410096Y0087204D01*
X0410123D01*
X0410227Y0087215D01*
X0410320Y0087237D01*
X0410402Y0087269D01*
X0410467Y0087313D01*
X0410527Y0087351D01*
X0410571Y0087384D01*
X0410593Y0087406D01*
X0410604Y0087417D01*
X0410669Y0087504D01*
X0410713Y0087608D01*
X0410746Y0087712D01*
X0410773Y0087815D01*
X0410784Y0087903D01*
X0410789Y0087941D01*
Y0087979D01*
X0410795Y0088007D01*
Y0088028D01*
Y0088039D01*
Y0088045D01*
X0410784Y0088187D01*
X0410762Y0088312D01*
X0410735Y0088421D01*
X0410696Y0088509D01*
X0410664Y0088574D01*
X0410631Y0088629D01*
X0410609Y0088656D01*
X0410604Y0088667D01*
X0410527Y0088738D01*
X0410445Y0088793D01*
X0410363Y0088831D01*
X0410287Y0088858D01*
X0410221Y0088875D01*
X0410172Y0088880D01*
X0410150Y0088885D01*
D02*
G37*
G36*
X0406973Y0088918D02*
X0406962D01*
X0406869Y0088907D01*
X0406782Y0088885D01*
X0406711Y0088853D01*
X0406645Y0088815D01*
X0406596Y0088776D01*
X0406563Y0088744D01*
X0406536Y0088722D01*
X0406531Y0088711D01*
X0406498Y0088667D01*
X0406470Y0088623D01*
X0406427Y0088514D01*
X0406399Y0088405D01*
X0406378Y0088290D01*
X0406367Y0088192D01*
X0406361Y0088143D01*
X0406356Y0088105D01*
Y0088072D01*
Y0088050D01*
Y0088034D01*
Y0088028D01*
X0406361Y0087881D01*
X0406383Y0087750D01*
X0406410Y0087641D01*
X0406443Y0087553D01*
X0406476Y0087482D01*
X0406503Y0087433D01*
X0406525Y0087406D01*
X0406531Y0087395D01*
X0406601Y0087324D01*
X0406672Y0087275D01*
X0406743Y0087237D01*
X0406809Y0087215D01*
X0406869Y0087198D01*
X0406913Y0087193D01*
X0406945Y0087187D01*
X0406956D01*
X0407011Y0087193D01*
X0407065Y0087198D01*
X0407164Y0087231D01*
X0407246Y0087275D01*
X0407317Y0087329D01*
X0407371Y0087379D01*
X0407409Y0087422D01*
X0407431Y0087455D01*
X0407442Y0087461D01*
Y0087466D01*
X0407464Y0087504D01*
X0407480Y0087548D01*
X0407513Y0087646D01*
X0407535Y0087755D01*
X0407546Y0087859D01*
X0407557Y0087952D01*
Y0087990D01*
X0407562Y0088028D01*
Y0088056D01*
Y0088083D01*
Y0088094D01*
Y0088099D01*
X0407557Y0088241D01*
X0407535Y0088367D01*
X0407508Y0088471D01*
X0407475Y0088558D01*
X0407448Y0088623D01*
X0407420Y0088673D01*
X0407399Y0088700D01*
X0407393Y0088711D01*
X0407322Y0088782D01*
X0407251Y0088831D01*
X0407180Y0088869D01*
X0407109Y0088891D01*
X0407055Y0088907D01*
X0407006Y0088913D01*
X0406973Y0088918D01*
D02*
G37*
G36*
X0403697Y0088885D02*
X0403669D01*
X0403566Y0088875D01*
X0403473Y0088853D01*
X0403396Y0088815D01*
X0403325Y0088776D01*
X0403271Y0088738D01*
X0403227Y0088700D01*
X0403205Y0088678D01*
X0403194Y0088667D01*
X0403129Y0088580D01*
X0403080Y0088476D01*
X0403047Y0088372D01*
X0403020Y0088274D01*
X0403009Y0088187D01*
X0403003Y0088143D01*
Y0088110D01*
X0402998Y0088083D01*
Y0088061D01*
Y0088050D01*
Y0088045D01*
X0403009Y0087903D01*
X0403031Y0087772D01*
X0403058Y0087668D01*
X0403096Y0087575D01*
X0403134Y0087510D01*
X0403162Y0087455D01*
X0403184Y0087428D01*
X0403194Y0087417D01*
X0403271Y0087346D01*
X0403347Y0087291D01*
X0403429Y0087258D01*
X0403506Y0087231D01*
X0403571Y0087215D01*
X0403620Y0087209D01*
X0403642Y0087204D01*
X0403669D01*
X0403773Y0087215D01*
X0403866Y0087237D01*
X0403948Y0087269D01*
X0404013Y0087313D01*
X0404073Y0087351D01*
X0404117Y0087384D01*
X0404139Y0087406D01*
X0404150Y0087417D01*
X0404215Y0087504D01*
X0404259Y0087608D01*
X0404292Y0087712D01*
X0404319Y0087815D01*
X0404330Y0087903D01*
X0404335Y0087941D01*
Y0087979D01*
X0404341Y0088007D01*
Y0088028D01*
Y0088039D01*
Y0088045D01*
X0404330Y0088187D01*
X0404308Y0088312D01*
X0404281Y0088421D01*
X0404243Y0088509D01*
X0404210Y0088574D01*
X0404177Y0088629D01*
X0404155Y0088656D01*
X0404150Y0088667D01*
X0404073Y0088738D01*
X0403992Y0088793D01*
X0403910Y0088831D01*
X0403833Y0088858D01*
X0403768Y0088875D01*
X0403719Y0088880D01*
X0403697Y0088885D01*
D02*
G37*
%LPD*%
D71*
X0244685Y0018652D02*
D03*
D73*
X0163779Y0331890D02*
D03*
X0160236D02*
D03*
X0121653Y0372244D02*
D03*
X0118110D02*
D03*
X0121653Y0210827D02*
D03*
X0118110D02*
D03*
X0121653Y0130118D02*
D03*
X0118110D02*
D03*
X0121653Y0291535D02*
D03*
X0118110D02*
D03*
X0160236Y0089764D02*
D03*
X0163779D02*
D03*
X0160236Y0251181D02*
D03*
X0163779D02*
D03*
X0160236Y0170472D02*
D03*
X0163779D02*
D03*
X0154232Y0071063D02*
D03*
X0157776D02*
D03*
X0140847Y0067126D02*
D03*
X0137303D02*
D03*
X0154232Y0151772D02*
D03*
X0157776D02*
D03*
X0140847Y0147835D02*
D03*
X0137303D02*
D03*
X0154232Y0232480D02*
D03*
X0157776D02*
D03*
X0140847Y0228543D02*
D03*
X0137303D02*
D03*
X0154232Y0313189D02*
D03*
X0157776D02*
D03*
X0137303Y0309252D02*
D03*
X0140847D02*
D03*
X0376476Y0290256D02*
D03*
X0372933D02*
D03*
Y0293996D02*
D03*
X0376476D02*
D03*
X0034547Y0372441D02*
D03*
X0038091D02*
D03*
X0037106Y0353937D02*
D03*
X0040650D02*
D03*
X0333268Y0139370D02*
D03*
X0336811D02*
D03*
X0333268Y0143701D02*
D03*
X0336811D02*
D03*
X0246161Y0061024D02*
D03*
X0242618D02*
D03*
X0267421Y0292323D02*
D03*
X0270965D02*
D03*
D80*
X0163878Y0362500D02*
D03*
Y0366043D02*
D03*
X0169488Y0274508D02*
D03*
Y0270965D02*
D03*
Y0193799D02*
D03*
Y0190256D02*
D03*
Y0113091D02*
D03*
Y0109547D02*
D03*
Y0355217D02*
D03*
Y0351673D02*
D03*
X0163878Y0201083D02*
D03*
Y0204626D02*
D03*
X0161221Y0190551D02*
D03*
Y0194095D02*
D03*
Y0271161D02*
D03*
Y0274705D02*
D03*
X0163878Y0281791D02*
D03*
Y0285335D02*
D03*
X0161221Y0109843D02*
D03*
Y0113386D02*
D03*
X0163878Y0120374D02*
D03*
Y0123917D02*
D03*
X0161221Y0351969D02*
D03*
Y0355512D02*
D03*
X0248917Y0365158D02*
D03*
Y0361614D02*
D03*
X0264567Y0364370D02*
D03*
Y0360827D02*
D03*
X0248917Y0347244D02*
D03*
Y0350787D02*
D03*
X0264567Y0353150D02*
D03*
Y0349606D02*
D03*
X0088189Y0096653D02*
D03*
Y0100197D02*
D03*
X0113287Y0096653D02*
D03*
Y0100197D02*
D03*
X0084646Y0096653D02*
D03*
Y0100197D02*
D03*
X0109744Y0096653D02*
D03*
Y0100197D02*
D03*
X0148622Y0109744D02*
D03*
Y0113287D02*
D03*
X0131004Y0088878D02*
D03*
Y0085335D02*
D03*
X0134744Y0088878D02*
D03*
Y0085335D02*
D03*
X0088189Y0177362D02*
D03*
Y0180905D02*
D03*
X0113287Y0177362D02*
D03*
Y0180905D02*
D03*
X0084646Y0177362D02*
D03*
Y0180905D02*
D03*
X0109744Y0177362D02*
D03*
Y0180905D02*
D03*
X0148622Y0190453D02*
D03*
Y0193996D02*
D03*
X0131004Y0169587D02*
D03*
Y0166043D02*
D03*
X0134744Y0169587D02*
D03*
Y0166043D02*
D03*
X0088189Y0258071D02*
D03*
Y0261614D02*
D03*
X0113287Y0258071D02*
D03*
Y0261614D02*
D03*
X0084646Y0258071D02*
D03*
Y0261614D02*
D03*
X0109744Y0258071D02*
D03*
Y0261614D02*
D03*
X0148622Y0271162D02*
D03*
Y0274705D02*
D03*
X0131004Y0250295D02*
D03*
Y0246752D02*
D03*
X0134744Y0250295D02*
D03*
Y0246752D02*
D03*
X0109744Y0342323D02*
D03*
Y0338779D02*
D03*
X0113287D02*
D03*
Y0342323D02*
D03*
X0134744Y0331004D02*
D03*
Y0327461D02*
D03*
X0148622Y0355413D02*
D03*
Y0351870D02*
D03*
X0084646Y0342323D02*
D03*
Y0338779D02*
D03*
X0088189D02*
D03*
Y0342323D02*
D03*
X0131004Y0331004D02*
D03*
Y0327461D02*
D03*
X0391535Y0261516D02*
D03*
Y0265059D02*
D03*
X0336614Y0281004D02*
D03*
Y0284547D02*
D03*
X0169587Y0362500D02*
D03*
Y0281791D02*
D03*
Y0201083D02*
D03*
Y0120374D02*
D03*
X0173327Y0116831D02*
D03*
Y0120374D02*
D03*
Y0197539D02*
D03*
Y0201083D02*
D03*
Y0358957D02*
D03*
Y0362500D02*
D03*
Y0278248D02*
D03*
Y0281791D02*
D03*
X0169587Y0116831D02*
D03*
Y0197539D02*
D03*
Y0278248D02*
D03*
Y0358957D02*
D03*
X0225590Y0124213D02*
D03*
Y0127756D02*
D03*
X0242618Y0092027D02*
D03*
Y0095571D02*
D03*
X0283169Y0282874D02*
D03*
Y0286417D02*
D03*
D83*
X0110689Y0291535D02*
D03*
X0114311D02*
D03*
X0110689Y0210827D02*
D03*
X0114311D02*
D03*
X0110689Y0130118D02*
D03*
X0114311D02*
D03*
X0282047Y0302559D02*
D03*
X0285669D02*
D03*
X0167579Y0331890D02*
D03*
X0171201D02*
D03*
X0114311Y0372244D02*
D03*
X0110689D02*
D03*
X0171201Y0251181D02*
D03*
X0167579D02*
D03*
X0171201Y0170472D02*
D03*
X0167579D02*
D03*
X0171201Y0089764D02*
D03*
X0167579D02*
D03*
X0161181Y0346358D02*
D03*
X0164803D02*
D03*
X0161181Y0184941D02*
D03*
X0164803D02*
D03*
X0161279Y0265650D02*
D03*
X0164902D02*
D03*
X0161181Y0104232D02*
D03*
X0164803D02*
D03*
X0145039Y0105807D02*
D03*
X0148661D02*
D03*
X0145039Y0186516D02*
D03*
X0148661D02*
D03*
X0145039Y0267224D02*
D03*
X0148661D02*
D03*
Y0347933D02*
D03*
X0145039D02*
D03*
X0364331Y0284449D02*
D03*
X0367953D02*
D03*
X0340295Y0296260D02*
D03*
X0336673D02*
D03*
Y0292323D02*
D03*
X0340295D02*
D03*
X0315098Y0298721D02*
D03*
X0311476D02*
D03*
X0315098Y0294587D02*
D03*
X0311476D02*
D03*
X0315098Y0286516D02*
D03*
X0311476D02*
D03*
X0315098Y0290453D02*
D03*
X0311476D02*
D03*
X0315098Y0282579D02*
D03*
X0311476D02*
D03*
D87*
X0302953Y0113779D02*
D03*
X0309252D02*
D03*
X0202854Y0052559D02*
D03*
X0196555D02*
D03*
D89*
X0169390Y0186457D02*
D03*
Y0182835D02*
D03*
Y0105748D02*
D03*
Y0102126D02*
D03*
Y0347874D02*
D03*
Y0344252D02*
D03*
Y0267165D02*
D03*
Y0263543D02*
D03*
X0163878Y0208524D02*
D03*
Y0212146D02*
D03*
Y0369941D02*
D03*
Y0373563D02*
D03*
Y0289232D02*
D03*
Y0292854D02*
D03*
Y0127815D02*
D03*
Y0131437D02*
D03*
X0355217Y0309095D02*
D03*
Y0305472D02*
D03*
X0156398Y0119232D02*
D03*
Y0115610D02*
D03*
Y0199941D02*
D03*
Y0196319D02*
D03*
Y0280650D02*
D03*
Y0277028D02*
D03*
Y0357736D02*
D03*
Y0361358D02*
D03*
X0363090Y0305472D02*
D03*
Y0309095D02*
D03*
X0359154Y0305472D02*
D03*
Y0309095D02*
D03*
X0345374Y0305374D02*
D03*
Y0308996D02*
D03*
X0359547Y0281240D02*
D03*
Y0277618D02*
D03*
X0355610Y0281240D02*
D03*
Y0277618D02*
D03*
X0351279D02*
D03*
Y0281240D02*
D03*
X0345374D02*
D03*
Y0277618D02*
D03*
X0341437Y0281240D02*
D03*
Y0277618D02*
D03*
X0048327Y0367756D02*
D03*
Y0364134D02*
D03*
X0173327Y0274449D02*
D03*
Y0270827D02*
D03*
Y0193740D02*
D03*
Y0190118D02*
D03*
Y0113031D02*
D03*
Y0109409D02*
D03*
Y0355157D02*
D03*
Y0351535D02*
D03*
D116*
X0292815Y0066732D02*
D03*
Y0064173D02*
D03*
X0295571Y0066732D02*
D03*
Y0064173D02*
D03*
X0298721Y0066732D02*
D03*
Y0064173D02*
D03*
X0301476Y0066732D02*
D03*
Y0064173D02*
D03*
X0304626Y0066732D02*
D03*
Y0064173D02*
D03*
X0307382Y0066732D02*
D03*
Y0064173D02*
D03*
X0310531Y0066732D02*
D03*
Y0064173D02*
D03*
X0313287Y0066732D02*
D03*
Y0064173D02*
D03*
D117*
X0254528Y0021654D02*
D03*
X0238779D02*
D03*
X0195472D02*
D03*
X0187598D02*
D03*
X0215158D02*
D03*
X0203346D02*
D03*
X0199409D02*
D03*
X0242717D02*
D03*
X0230906D02*
D03*
X0207283D02*
D03*
X0219094D02*
D03*
X0191535D02*
D03*
X0183661D02*
D03*
X0234842D02*
D03*
X0246654D02*
D03*
X0211221D02*
D03*
X0250590D02*
D03*
X0282087D02*
D03*
X0262402D02*
D03*
X0301772D02*
D03*
X0274213D02*
D03*
X0266339D02*
D03*
X0293898D02*
D03*
X0305709D02*
D03*
X0289961D02*
D03*
X0286024D02*
D03*
X0297835D02*
D03*
X0309646D02*
D03*
X0258465D02*
D03*
X0270276D02*
D03*
X0278150D02*
D03*
D118*
X0179724Y0023622D02*
D03*
D123*
X0286122Y0090118D02*
D03*
Y0087441D02*
D03*
X0292421Y0090118D02*
D03*
Y0087441D02*
D03*
X0295571Y0090118D02*
D03*
Y0087441D02*
D03*
X0298721Y0090118D02*
D03*
Y0087441D02*
D03*
X0301870Y0090118D02*
D03*
Y0087441D02*
D03*
X0305020Y0090118D02*
D03*
Y0087441D02*
D03*
X0308169Y0090118D02*
D03*
Y0087441D02*
D03*
X0314469Y0090118D02*
D03*
Y0087441D02*
D03*
X0289272Y0090118D02*
D03*
Y0087441D02*
D03*
X0311319Y0090118D02*
D03*
Y0087441D02*
D03*
D124*
X0411988Y0365492D02*
D03*
Y0360492D02*
D03*
X0406988Y0365492D02*
D03*
Y0360492D02*
D03*
X0401988Y0365492D02*
D03*
Y0360492D02*
D03*
X0396988Y0365492D02*
D03*
Y0360492D02*
D03*
X0391988Y0365492D02*
D03*
D125*
Y0360492D02*
D03*
D126*
X0404232Y0333071D02*
D03*
X0382480D02*
D03*
D127*
X0404232Y0325197D02*
D03*
X0382480D02*
D03*
D128*
X0029862Y0392520D02*
D03*
X0412972Y0057284D02*
D03*
X0415492D02*
D03*
X0418012D02*
D03*
X0420532D02*
D03*
X0423051D02*
D03*
X0369468D02*
D03*
X0371988D02*
D03*
X0374508D02*
D03*
X0377028D02*
D03*
X0379547D02*
D03*
X0100216D02*
D03*
X0097697D02*
D03*
X0095177D02*
D03*
X0090138D02*
D03*
X0092658D02*
D03*
X0466535D02*
D03*
X0464016D02*
D03*
X0461496D02*
D03*
X0458976D02*
D03*
X0456457D02*
D03*
X0325965D02*
D03*
X0328484D02*
D03*
X0331004D02*
D03*
X0333524D02*
D03*
X0336043D02*
D03*
X0133110Y0024803D02*
D03*
X0135630D02*
D03*
X0138150D02*
D03*
X0140669D02*
D03*
X0143189D02*
D03*
X0145709D02*
D03*
X0148228D02*
D03*
X0160827D02*
D03*
X0158307D02*
D03*
X0155787D02*
D03*
X0153268D02*
D03*
X0150748D02*
D03*
X0047008D02*
D03*
X0049528D02*
D03*
X0052047D02*
D03*
X0054567D02*
D03*
X0057087D02*
D03*
X0012047D02*
D03*
X0009528D02*
D03*
X0007008D02*
D03*
X0004488D02*
D03*
X0001969D02*
D03*
X0019783Y0392520D02*
D03*
X0022303D02*
D03*
X0024823D02*
D03*
X0027343D02*
D03*
X0004488D02*
D03*
X0001969D02*
D03*
D129*
X0352756Y0056102D02*
D03*
X0396260D02*
D03*
X0439764D02*
D03*
D130*
X0116732D02*
D03*
X0073622D02*
D03*
D131*
X0061024Y0040846D02*
D03*
X0129331D02*
D03*
D132*
X0419685Y0273228D02*
D03*
Y0118504D02*
D03*
X0049114Y0323720D02*
D03*
Y0238484D02*
D03*
Y0153248D02*
D03*
Y0068012D02*
D03*
D133*
X0428740Y0219882D02*
D03*
D134*
Y0209882D02*
D03*
Y0199882D02*
D03*
Y0189882D02*
D03*
Y0179882D02*
D03*
Y0169882D02*
D03*
X0323693Y0077447D02*
D03*
X0256764D02*
D03*
X0329500Y0085321D02*
D03*
X0250957D02*
D03*
X0231760Y0222424D02*
D03*
Y0104510D02*
D03*
X0223886Y0216617D02*
D03*
Y0110318D02*
D03*
X0357744Y0222424D02*
D03*
Y0104510D02*
D03*
X0349870Y0216617D02*
D03*
Y0110318D02*
D03*
X0026063Y0372638D02*
D03*
D135*
X0223296Y0250081D02*
D03*
X0357155D02*
D03*
X0357155Y0076853D02*
D03*
X0223296Y0076853D02*
D03*
D136*
X0242126Y0115551D02*
D03*
D137*
Y0194291D02*
D03*
D138*
X0450394Y0258268D02*
D03*
Y0288189D02*
D03*
Y0103543D02*
D03*
Y0133465D02*
D03*
X0018406Y0338681D02*
D03*
Y0308760D02*
D03*
Y0253445D02*
D03*
Y0223524D02*
D03*
Y0168209D02*
D03*
Y0138287D02*
D03*
Y0082972D02*
D03*
Y0053051D02*
D03*
D139*
X0016063Y0372638D02*
D03*
D140*
X0029528Y0023622D02*
D03*
D141*
X0454724Y0234252D02*
D03*
X0443701Y0153543D02*
D03*
D142*
X0012008Y0395866D02*
D03*
D199*
X0262894Y0118504D02*
D03*
X0233169Y0119488D02*
D03*
X0262894Y0120473D02*
D03*
X0233169Y0121457D02*
D03*
X0262894Y0122441D02*
D03*
X0233169Y0123425D02*
D03*
X0262894Y0124409D02*
D03*
X0233169Y0125394D02*
D03*
X0262894Y0126378D02*
D03*
X0233169Y0127362D02*
D03*
X0262894Y0128347D02*
D03*
X0233169Y0129331D02*
D03*
X0262894Y0130315D02*
D03*
X0233169Y0131299D02*
D03*
X0262894Y0132283D02*
D03*
X0233169Y0133268D02*
D03*
X0262894Y0134252D02*
D03*
X0233169Y0135236D02*
D03*
X0262894Y0136221D02*
D03*
X0233169Y0137205D02*
D03*
X0262894Y0138189D02*
D03*
X0233169Y0139173D02*
D03*
X0262894Y0140157D02*
D03*
X0233169Y0141142D02*
D03*
X0262894Y0142126D02*
D03*
X0233169Y0143110D02*
D03*
X0262894Y0144095D02*
D03*
X0233169Y0145079D02*
D03*
X0262894Y0146063D02*
D03*
X0233169Y0147047D02*
D03*
X0262894Y0148031D02*
D03*
X0233169Y0149016D02*
D03*
X0262894Y0150000D02*
D03*
X0233169Y0150984D02*
D03*
X0262894Y0151969D02*
D03*
X0233169Y0152953D02*
D03*
X0262894Y0153937D02*
D03*
X0233169Y0154921D02*
D03*
X0262894Y0155905D02*
D03*
X0233169Y0156890D02*
D03*
X0262894Y0157874D02*
D03*
X0233169Y0158858D02*
D03*
X0262894Y0159843D02*
D03*
X0233169Y0160827D02*
D03*
X0262894Y0161811D02*
D03*
X0233169Y0162795D02*
D03*
X0262894Y0163779D02*
D03*
X0233169Y0164764D02*
D03*
X0262894Y0165748D02*
D03*
X0233169Y0166732D02*
D03*
X0262894Y0167717D02*
D03*
X0233169Y0168701D02*
D03*
X0262894Y0169685D02*
D03*
X0233169Y0170669D02*
D03*
X0262894Y0171653D02*
D03*
X0233169Y0172638D02*
D03*
X0262894Y0173622D02*
D03*
X0233169Y0174606D02*
D03*
X0262894Y0183465D02*
D03*
X0233169Y0184449D02*
D03*
X0262894Y0185433D02*
D03*
X0233169Y0186417D02*
D03*
X0262894Y0187402D02*
D03*
X0233169Y0188386D02*
D03*
X0262894Y0189370D02*
D03*
X0233169Y0190354D02*
D03*
X0262894Y0191339D02*
D03*
D201*
X0386614Y0348622D02*
D03*
X0269980Y0349606D02*
D03*
X0278150Y0365945D02*
D03*
X0333169Y0360335D02*
D03*
Y0369980D02*
D03*
X0342323Y0339764D02*
D03*
X0079429Y0096752D02*
D03*
X0104527D02*
D03*
X0125886Y0088878D02*
D03*
X0179134Y0196260D02*
D03*
X0079429Y0177461D02*
D03*
X0104527D02*
D03*
X0125886Y0169587D02*
D03*
X0079429Y0258169D02*
D03*
X0104527D02*
D03*
X0125886Y0250295D02*
D03*
X0079429Y0338878D02*
D03*
X0104527D02*
D03*
X0125886Y0331004D02*
D03*
X0184646Y0318110D02*
D03*
X0195276Y0308268D02*
D03*
X0180709Y0334252D02*
D03*
X0362894Y0321850D02*
D03*
X0370965Y0124114D02*
D03*
X0400689Y0143799D02*
D03*
X0269980Y0360827D02*
D03*
X0254035Y0370276D02*
D03*
Y0341732D02*
D03*
X0301476Y0365945D02*
D03*
X0320571Y0339764D02*
D03*
Y0347835D02*
D03*
X0320472Y0362894D02*
D03*
X0293307Y0302559D02*
D03*
X0179134Y0357579D02*
D03*
X0273228Y0301476D02*
D03*
X0289862Y0293504D02*
D03*
X0277165Y0293701D02*
D03*
X0179134Y0276870D02*
D03*
X0179035Y0264862D02*
D03*
Y0184153D02*
D03*
X0179134Y0115453D02*
D03*
X0179035Y0103445D02*
D03*
Y0345571D02*
D03*
X0377953Y0095276D02*
D03*
X0336811Y0149606D02*
D03*
X0377953Y0102756D02*
D03*
X0236122Y0095571D02*
D03*
X0245965Y0295768D02*
D03*
X0260138Y0269390D02*
D03*
X0258957Y0295768D02*
D03*
X0231594Y0273524D02*
D03*
X0243996Y0273524D02*
D03*
D202*
X0378051Y0360630D02*
D03*
X0401968Y0348425D02*
D03*
X0386811Y0127264D02*
D03*
X0386319Y0163878D02*
D03*
D203*
X0407087Y0302756D02*
D03*
X0450787Y0070866D02*
D03*
D204*
X0252854Y0361614D02*
D03*
X0260335Y0364173D02*
D03*
Y0359055D02*
D03*
X0252854Y0350787D02*
D03*
X0260335Y0353346D02*
D03*
Y0348228D02*
D03*
D205*
X0079626Y0111319D02*
D03*
X0070964D02*
D03*
X0104724D02*
D03*
X0096063D02*
D03*
X0079626Y0192027D02*
D03*
X0070964D02*
D03*
X0104724D02*
D03*
X0096063D02*
D03*
X0079626Y0272736D02*
D03*
X0070964D02*
D03*
X0104724D02*
D03*
X0096063D02*
D03*
Y0353445D02*
D03*
X0104724D02*
D03*
X0070964D02*
D03*
X0079626D02*
D03*
D206*
X0086614Y0111319D02*
D03*
X0089173Y0103839D02*
D03*
X0084055D02*
D03*
X0111713Y0111319D02*
D03*
X0114272Y0103839D02*
D03*
X0109153D02*
D03*
X0131004Y0073819D02*
D03*
X0128445Y0081299D02*
D03*
X0133563D02*
D03*
X0086614Y0192028D02*
D03*
X0089173Y0184547D02*
D03*
X0084055D02*
D03*
X0111713Y0192028D02*
D03*
X0114272Y0184547D02*
D03*
X0109153D02*
D03*
X0131004Y0154527D02*
D03*
X0128445Y0162008D02*
D03*
X0133563D02*
D03*
X0086614Y0272736D02*
D03*
X0089173Y0265256D02*
D03*
X0084055D02*
D03*
X0111713Y0272736D02*
D03*
X0114272Y0265256D02*
D03*
X0109153D02*
D03*
X0131004Y0235236D02*
D03*
X0128445Y0242717D02*
D03*
X0133563D02*
D03*
X0109153Y0345965D02*
D03*
X0111713Y0353445D02*
D03*
X0114272Y0345965D02*
D03*
X0084055D02*
D03*
X0086614Y0353445D02*
D03*
X0089173Y0345965D02*
D03*
X0131004Y0315945D02*
D03*
X0128445Y0323425D02*
D03*
X0133563D02*
D03*
D207*
X0143996Y0089961D02*
D03*
X0151870D02*
D03*
X0143996Y0170669D02*
D03*
X0151870D02*
D03*
X0143996Y0251378D02*
D03*
X0151870D02*
D03*
X0143996Y0332087D02*
D03*
X0151870D02*
D03*
D208*
X0147933Y0077165D02*
D03*
Y0157874D02*
D03*
Y0238583D02*
D03*
Y0319291D02*
D03*
D209*
X0199333Y0365812D02*
D03*
Y0285104D02*
D03*
Y0204395D02*
D03*
Y0123686D02*
D03*
X0199409Y0346260D02*
D03*
Y0265551D02*
D03*
Y0184843D02*
D03*
Y0104134D02*
D03*
X0327264Y0304232D02*
D03*
Y0284744D02*
D03*
D210*
X0199333Y0358036D02*
D03*
Y0277328D02*
D03*
Y0196619D02*
D03*
Y0115910D02*
D03*
X0199409Y0354035D02*
D03*
Y0273327D02*
D03*
Y0192618D02*
D03*
Y0111909D02*
D03*
X0327264Y0296457D02*
D03*
Y0292520D02*
D03*
D211*
X0195553Y0361875D02*
D03*
X0203113D02*
D03*
X0195553Y0281167D02*
D03*
X0203113D02*
D03*
X0195553Y0200458D02*
D03*
X0203113D02*
D03*
X0195553Y0119749D02*
D03*
X0203113D02*
D03*
X0203189Y0350197D02*
D03*
X0195630D02*
D03*
X0203189Y0269488D02*
D03*
X0195630D02*
D03*
X0203189Y0188779D02*
D03*
X0195630D02*
D03*
X0203189Y0108071D02*
D03*
X0195630D02*
D03*
X0323484Y0300295D02*
D03*
X0331043D02*
D03*
Y0288681D02*
D03*
X0323484D02*
D03*
D212*
X0386614Y0247835D02*
D03*
Y0231102D02*
D03*
X0317717Y0113779D02*
D03*
X0294587D02*
D03*
X0188287Y0052461D02*
D03*
X0211319Y0052559D02*
D03*
D213*
X0043209Y0358760D02*
D03*
X0040650D02*
D03*
X0038091D02*
D03*
Y0367618D02*
D03*
X0043209D02*
D03*
D214*
X0259842Y0114173D02*
D03*
Y0195669D02*
D03*
M02*
