G04*
G04 #@! TF.GenerationSoftware,Altium Limited,Altium Designer,23.10.1 (27)*
G04*
G04 Layer_Color=65535*
%FSAX25Y25*%
%MOIN*%
G70*
G04*
G04 #@! TF.SameCoordinates,24A0423C-D8D6-4CDA-AFC9-E754AC273B9F*
G04*
G04*
G04 #@! TF.FilePolarity,Positive*
G04*
G01*
G75*
%ADD10C,0.02000*%
%ADD11C,0.00394*%
%ADD12C,0.00984*%
%ADD13C,0.00787*%
%ADD14C,0.00610*%
%ADD15C,0.02362*%
%ADD16C,0.01575*%
%ADD17C,0.00591*%
%ADD18C,0.01000*%
%ADD19C,0.00500*%
G36*
X0214724Y0115302D02*
Y0114966D01*
X0212922D01*
Y0114496D01*
X0212567D01*
Y0115921D01*
X0212922D01*
Y0115375D01*
X0214300D01*
X0214038Y0115850D01*
X0214366Y0115981D01*
X0214724Y0115302D01*
D02*
G37*
G36*
X0241627Y0115969D02*
X0241630Y0115966D01*
X0241638Y0115958D01*
X0241646Y0115947D01*
X0241671Y0115917D01*
X0241701Y0115879D01*
X0241733Y0115832D01*
X0241766Y0115781D01*
X0241802Y0115721D01*
X0241832Y0115658D01*
Y0115655D01*
X0241834Y0115650D01*
X0241840Y0115641D01*
X0241845Y0115628D01*
X0241851Y0115611D01*
X0241856Y0115592D01*
X0241864Y0115570D01*
X0241873Y0115546D01*
X0241886Y0115489D01*
X0241900Y0115426D01*
X0241908Y0115355D01*
X0241911Y0115281D01*
Y0115254D01*
X0241908Y0115224D01*
X0241905Y0115185D01*
X0241900Y0115142D01*
X0241894Y0115093D01*
X0241883Y0115044D01*
X0241870Y0114994D01*
Y0114992D01*
X0241867Y0114989D01*
X0241862Y0114973D01*
X0241853Y0114948D01*
X0241840Y0114918D01*
X0241824Y0114885D01*
X0241802Y0114847D01*
X0241777Y0114812D01*
X0241750Y0114776D01*
X0241747Y0114771D01*
X0241736Y0114760D01*
X0241720Y0114743D01*
X0241695Y0114724D01*
X0241668Y0114700D01*
X0241632Y0114678D01*
X0241594Y0114653D01*
X0241553Y0114634D01*
X0241548Y0114631D01*
X0241531Y0114626D01*
X0241507Y0114618D01*
X0241477Y0114607D01*
X0241436Y0114599D01*
X0241389Y0114590D01*
X0241337Y0114585D01*
X0241283Y0114582D01*
X0241280D01*
X0241278D01*
X0241261D01*
X0241236Y0114585D01*
X0241204Y0114588D01*
X0241168Y0114590D01*
X0241127Y0114596D01*
X0241086Y0114607D01*
X0241043Y0114618D01*
X0241037Y0114620D01*
X0241024Y0114623D01*
X0241002Y0114631D01*
X0240974Y0114642D01*
X0240942Y0114659D01*
X0240906Y0114675D01*
X0240868Y0114694D01*
X0240827Y0114719D01*
X0240822Y0114721D01*
X0240808Y0114730D01*
X0240789Y0114743D01*
X0240761Y0114762D01*
X0240732Y0114787D01*
X0240696Y0114814D01*
X0240658Y0114844D01*
X0240617Y0114880D01*
X0240611Y0114885D01*
X0240598Y0114896D01*
X0240579Y0114915D01*
X0240551Y0114943D01*
X0240518Y0114975D01*
X0240480Y0115011D01*
X0240439Y0115055D01*
X0240396Y0115098D01*
X0240101Y0115409D01*
Y0114506D01*
X0239732D01*
Y0115961D01*
X0240024D01*
X0240532Y0115456D01*
X0240535Y0115453D01*
X0240538Y0115450D01*
X0240546Y0115442D01*
X0240557Y0115431D01*
X0240581Y0115407D01*
X0240617Y0115374D01*
X0240655Y0115338D01*
X0240696Y0115300D01*
X0240737Y0115262D01*
X0240778Y0115229D01*
X0240783Y0115226D01*
X0240794Y0115216D01*
X0240816Y0115199D01*
X0240841Y0115180D01*
X0240868Y0115158D01*
X0240898Y0115136D01*
X0240931Y0115114D01*
X0240961Y0115095D01*
X0240964Y0115093D01*
X0240974Y0115087D01*
X0240991Y0115079D01*
X0241010Y0115068D01*
X0241035Y0115057D01*
X0241059Y0115049D01*
X0241084Y0115038D01*
X0241111Y0115033D01*
X0241114D01*
X0241125Y0115030D01*
X0241138Y0115027D01*
X0241155Y0115024D01*
X0241177Y0115022D01*
X0241201Y0115019D01*
X0241256Y0115016D01*
X0241258D01*
X0241266D01*
X0241278D01*
X0241294Y0115019D01*
X0241329Y0115024D01*
X0241370Y0115038D01*
X0241373D01*
X0241381Y0115041D01*
X0241389Y0115046D01*
X0241403Y0115052D01*
X0241436Y0115071D01*
X0241466Y0115095D01*
X0241469Y0115098D01*
X0241474Y0115101D01*
X0241479Y0115112D01*
X0241490Y0115123D01*
X0241510Y0115153D01*
X0241531Y0115191D01*
Y0115194D01*
X0241534Y0115202D01*
X0241540Y0115213D01*
X0241545Y0115229D01*
X0241548Y0115248D01*
X0241553Y0115270D01*
X0241556Y0115322D01*
Y0115344D01*
X0241553Y0115368D01*
X0241548Y0115399D01*
X0241542Y0115434D01*
X0241531Y0115475D01*
X0241518Y0115516D01*
X0241499Y0115557D01*
X0241496Y0115562D01*
X0241488Y0115576D01*
X0241477Y0115595D01*
X0241460Y0115622D01*
X0241439Y0115652D01*
X0241414Y0115688D01*
X0241387Y0115723D01*
X0241354Y0115761D01*
X0241624Y0115972D01*
X0241627Y0115969D01*
D02*
G37*
G36*
X0367611D02*
X0367614Y0115966D01*
X0367622Y0115958D01*
X0367630Y0115947D01*
X0367655Y0115917D01*
X0367685Y0115879D01*
X0367718Y0115832D01*
X0367750Y0115781D01*
X0367786Y0115721D01*
X0367816Y0115658D01*
Y0115655D01*
X0367819Y0115650D01*
X0367824Y0115641D01*
X0367830Y0115628D01*
X0367835Y0115611D01*
X0367841Y0115592D01*
X0367849Y0115570D01*
X0367857Y0115546D01*
X0367870Y0115489D01*
X0367884Y0115426D01*
X0367892Y0115355D01*
X0367895Y0115281D01*
Y0115254D01*
X0367892Y0115224D01*
X0367890Y0115185D01*
X0367884Y0115142D01*
X0367879Y0115093D01*
X0367868Y0115044D01*
X0367854Y0114994D01*
Y0114992D01*
X0367851Y0114989D01*
X0367846Y0114973D01*
X0367838Y0114948D01*
X0367824Y0114918D01*
X0367808Y0114885D01*
X0367786Y0114847D01*
X0367761Y0114812D01*
X0367734Y0114776D01*
X0367731Y0114771D01*
X0367720Y0114760D01*
X0367704Y0114743D01*
X0367679Y0114724D01*
X0367652Y0114700D01*
X0367617Y0114678D01*
X0367578Y0114653D01*
X0367537Y0114634D01*
X0367532Y0114631D01*
X0367516Y0114626D01*
X0367491Y0114618D01*
X0367461Y0114607D01*
X0367420Y0114599D01*
X0367374Y0114590D01*
X0367322Y0114585D01*
X0367267Y0114582D01*
X0367264D01*
X0367262D01*
X0367245D01*
X0367221Y0114585D01*
X0367188Y0114588D01*
X0367153Y0114590D01*
X0367112Y0114596D01*
X0367071Y0114607D01*
X0367027Y0114618D01*
X0367021Y0114620D01*
X0367008Y0114623D01*
X0366986Y0114631D01*
X0366959Y0114642D01*
X0366926Y0114659D01*
X0366890Y0114675D01*
X0366852Y0114694D01*
X0366811Y0114719D01*
X0366806Y0114721D01*
X0366792Y0114730D01*
X0366773Y0114743D01*
X0366746Y0114762D01*
X0366716Y0114787D01*
X0366680Y0114814D01*
X0366642Y0114844D01*
X0366601Y0114880D01*
X0366596Y0114885D01*
X0366582Y0114896D01*
X0366563Y0114915D01*
X0366535Y0114943D01*
X0366503Y0114975D01*
X0366465Y0115011D01*
X0366424Y0115055D01*
X0366380Y0115098D01*
X0366085Y0115409D01*
Y0114506D01*
X0365717D01*
Y0115961D01*
X0366009D01*
X0366516Y0115456D01*
X0366519Y0115453D01*
X0366522Y0115450D01*
X0366530Y0115442D01*
X0366541Y0115431D01*
X0366566Y0115407D01*
X0366601Y0115374D01*
X0366639Y0115338D01*
X0366680Y0115300D01*
X0366721Y0115262D01*
X0366762Y0115229D01*
X0366768Y0115226D01*
X0366778Y0115216D01*
X0366800Y0115199D01*
X0366825Y0115180D01*
X0366852Y0115158D01*
X0366882Y0115136D01*
X0366915Y0115114D01*
X0366945Y0115095D01*
X0366948Y0115093D01*
X0366959Y0115087D01*
X0366975Y0115079D01*
X0366994Y0115068D01*
X0367019Y0115057D01*
X0367043Y0115049D01*
X0367068Y0115038D01*
X0367095Y0115033D01*
X0367098D01*
X0367109Y0115030D01*
X0367123Y0115027D01*
X0367139Y0115024D01*
X0367161Y0115022D01*
X0367185Y0115019D01*
X0367240Y0115016D01*
X0367243D01*
X0367251D01*
X0367262D01*
X0367278Y0115019D01*
X0367314Y0115024D01*
X0367354Y0115038D01*
X0367357D01*
X0367366Y0115041D01*
X0367374Y0115046D01*
X0367387Y0115052D01*
X0367420Y0115071D01*
X0367450Y0115095D01*
X0367453Y0115098D01*
X0367458Y0115101D01*
X0367464Y0115112D01*
X0367475Y0115123D01*
X0367494Y0115153D01*
X0367516Y0115191D01*
Y0115194D01*
X0367518Y0115202D01*
X0367524Y0115213D01*
X0367529Y0115229D01*
X0367532Y0115248D01*
X0367537Y0115270D01*
X0367540Y0115322D01*
Y0115344D01*
X0367537Y0115368D01*
X0367532Y0115399D01*
X0367527Y0115434D01*
X0367516Y0115475D01*
X0367502Y0115516D01*
X0367483Y0115557D01*
X0367480Y0115562D01*
X0367472Y0115576D01*
X0367461Y0115595D01*
X0367445Y0115622D01*
X0367423Y0115652D01*
X0367398Y0115688D01*
X0367371Y0115723D01*
X0367338Y0115761D01*
X0367608Y0115972D01*
X0367611Y0115969D01*
D02*
G37*
G36*
X0340708Y0115302D02*
Y0114966D01*
X0338906D01*
Y0114496D01*
X0338551D01*
Y0115921D01*
X0338906D01*
Y0115375D01*
X0340285D01*
X0340023Y0115850D01*
X0340350Y0115981D01*
X0340708Y0115302D01*
D02*
G37*
G36*
X0319045Y0066483D02*
X0319514D01*
Y0066128D01*
X0318089D01*
Y0066483D01*
X0318635D01*
Y0067862D01*
X0318160Y0067600D01*
X0318029Y0067928D01*
X0318709Y0068285D01*
X0319045D01*
Y0066483D01*
D02*
G37*
G36*
X0318787Y0095470D02*
X0318825Y0095467D01*
X0318869Y0095461D01*
X0318918Y0095456D01*
X0318967Y0095445D01*
X0319016Y0095432D01*
X0319019D01*
X0319022Y0095429D01*
X0319038Y0095423D01*
X0319062Y0095415D01*
X0319092Y0095401D01*
X0319125Y0095385D01*
X0319163Y0095363D01*
X0319199Y0095339D01*
X0319234Y0095311D01*
X0319240Y0095309D01*
X0319251Y0095298D01*
X0319267Y0095281D01*
X0319286Y0095257D01*
X0319311Y0095230D01*
X0319333Y0095194D01*
X0319357Y0095156D01*
X0319376Y0095115D01*
X0319379Y0095109D01*
X0319385Y0095093D01*
X0319393Y0095068D01*
X0319404Y0095038D01*
X0319412Y0094997D01*
X0319420Y0094951D01*
X0319426Y0094899D01*
X0319428Y0094845D01*
Y0094842D01*
Y0094839D01*
Y0094823D01*
X0319426Y0094798D01*
X0319423Y0094765D01*
X0319420Y0094730D01*
X0319415Y0094689D01*
X0319404Y0094648D01*
X0319393Y0094604D01*
X0319390Y0094599D01*
X0319387Y0094585D01*
X0319379Y0094563D01*
X0319368Y0094536D01*
X0319352Y0094503D01*
X0319335Y0094468D01*
X0319316Y0094430D01*
X0319292Y0094389D01*
X0319289Y0094383D01*
X0319281Y0094370D01*
X0319267Y0094350D01*
X0319248Y0094323D01*
X0319223Y0094293D01*
X0319196Y0094258D01*
X0319166Y0094219D01*
X0319131Y0094178D01*
X0319125Y0094173D01*
X0319114Y0094159D01*
X0319095Y0094140D01*
X0319068Y0094113D01*
X0319035Y0094080D01*
X0319000Y0094042D01*
X0318956Y0094001D01*
X0318912Y0093957D01*
X0318601Y0093662D01*
X0319505D01*
Y0093294D01*
X0318050D01*
Y0093586D01*
X0318555Y0094094D01*
X0318557Y0094096D01*
X0318560Y0094099D01*
X0318568Y0094107D01*
X0318579Y0094118D01*
X0318604Y0094143D01*
X0318636Y0094178D01*
X0318672Y0094217D01*
X0318710Y0094258D01*
X0318748Y0094298D01*
X0318781Y0094340D01*
X0318784Y0094345D01*
X0318795Y0094356D01*
X0318811Y0094378D01*
X0318830Y0094402D01*
X0318852Y0094430D01*
X0318874Y0094460D01*
X0318896Y0094492D01*
X0318915Y0094522D01*
X0318918Y0094525D01*
X0318923Y0094536D01*
X0318931Y0094552D01*
X0318942Y0094572D01*
X0318953Y0094596D01*
X0318961Y0094621D01*
X0318972Y0094645D01*
X0318978Y0094673D01*
Y0094675D01*
X0318981Y0094686D01*
X0318983Y0094700D01*
X0318986Y0094716D01*
X0318989Y0094738D01*
X0318991Y0094763D01*
X0318994Y0094817D01*
Y0094820D01*
Y0094828D01*
Y0094839D01*
X0318991Y0094855D01*
X0318986Y0094891D01*
X0318972Y0094932D01*
Y0094935D01*
X0318970Y0094943D01*
X0318964Y0094951D01*
X0318959Y0094965D01*
X0318940Y0094997D01*
X0318915Y0095027D01*
X0318912Y0095030D01*
X0318910Y0095036D01*
X0318899Y0095041D01*
X0318888Y0095052D01*
X0318858Y0095071D01*
X0318819Y0095093D01*
X0318817D01*
X0318809Y0095096D01*
X0318798Y0095101D01*
X0318781Y0095107D01*
X0318762Y0095109D01*
X0318740Y0095115D01*
X0318688Y0095117D01*
X0318667D01*
X0318642Y0095115D01*
X0318612Y0095109D01*
X0318577Y0095104D01*
X0318535Y0095093D01*
X0318495Y0095079D01*
X0318454Y0095060D01*
X0318448Y0095057D01*
X0318435Y0095049D01*
X0318415Y0095038D01*
X0318388Y0095022D01*
X0318358Y0095000D01*
X0318323Y0094976D01*
X0318287Y0094948D01*
X0318249Y0094915D01*
X0318039Y0095186D01*
X0318041Y0095188D01*
X0318044Y0095191D01*
X0318052Y0095199D01*
X0318063Y0095208D01*
X0318093Y0095232D01*
X0318131Y0095262D01*
X0318178Y0095295D01*
X0318230Y0095328D01*
X0318290Y0095363D01*
X0318353Y0095393D01*
X0318355D01*
X0318361Y0095396D01*
X0318369Y0095401D01*
X0318383Y0095407D01*
X0318399Y0095412D01*
X0318418Y0095418D01*
X0318440Y0095426D01*
X0318464Y0095434D01*
X0318522Y0095448D01*
X0318585Y0095461D01*
X0318656Y0095470D01*
X0318729Y0095472D01*
X0318757D01*
X0318787Y0095470D01*
D02*
G37*
G36*
X0435207Y0096532D02*
X0435273Y0096528D01*
X0435289D01*
X0435310Y0096524D01*
X0435334D01*
X0435363Y0096520D01*
X0435396Y0096516D01*
X0435465Y0096503D01*
X0435470D01*
X0435482Y0096499D01*
X0435502D01*
X0435527Y0096495D01*
X0435556Y0096491D01*
X0435589Y0096483D01*
X0435658Y0096471D01*
X0435662D01*
X0435675Y0096466D01*
X0435695D01*
X0435720Y0096462D01*
X0435777Y0096450D01*
X0435839Y0096438D01*
Y0096044D01*
X0435835D01*
X0435830Y0096048D01*
X0435806Y0096052D01*
X0435769Y0096065D01*
X0435720Y0096073D01*
X0435662Y0096089D01*
X0435597Y0096102D01*
X0435527Y0096114D01*
X0435457Y0096126D01*
X0435449D01*
X0435425Y0096130D01*
X0435388Y0096134D01*
X0435343Y0096143D01*
X0435285Y0096147D01*
X0435224Y0096151D01*
X0435088Y0096155D01*
X0435027D01*
X0434994Y0096151D01*
X0434961Y0096147D01*
X0434879Y0096139D01*
X0434789Y0096122D01*
X0434695Y0096102D01*
X0434609Y0096069D01*
X0434572Y0096048D01*
X0434535Y0096028D01*
X0434527Y0096024D01*
X0434506Y0096003D01*
X0434477Y0095979D01*
X0434449Y0095938D01*
X0434416Y0095888D01*
X0434387Y0095831D01*
X0434367Y0095765D01*
X0434363Y0095728D01*
X0434359Y0095692D01*
Y0095688D01*
Y0095671D01*
X0434363Y0095647D01*
X0434367Y0095614D01*
X0434375Y0095581D01*
X0434387Y0095540D01*
X0434404Y0095503D01*
X0434428Y0095466D01*
X0434432Y0095462D01*
X0434441Y0095450D01*
X0434457Y0095433D01*
X0434481Y0095409D01*
X0434506Y0095384D01*
X0434539Y0095355D01*
X0434580Y0095327D01*
X0434621Y0095298D01*
X0434625Y0095294D01*
X0434641Y0095286D01*
X0434666Y0095273D01*
X0434699Y0095253D01*
X0434740Y0095232D01*
X0434785Y0095212D01*
X0434838Y0095187D01*
X0434892Y0095163D01*
X0434900Y0095159D01*
X0434916Y0095155D01*
X0434949Y0095142D01*
X0434986Y0095126D01*
X0435035Y0095109D01*
X0435084Y0095085D01*
X0435199Y0095040D01*
X0435207Y0095036D01*
X0435228Y0095027D01*
X0435256Y0095015D01*
X0435297Y0094999D01*
X0435343Y0094978D01*
X0435396Y0094954D01*
X0435506Y0094900D01*
X0435515Y0094896D01*
X0435531Y0094888D01*
X0435560Y0094872D01*
X0435597Y0094847D01*
X0435638Y0094822D01*
X0435683Y0094790D01*
X0435777Y0094716D01*
X0435781Y0094712D01*
X0435798Y0094699D01*
X0435818Y0094675D01*
X0435847Y0094646D01*
X0435876Y0094613D01*
X0435908Y0094572D01*
X0435941Y0094523D01*
X0435970Y0094474D01*
X0435974Y0094466D01*
X0435982Y0094449D01*
X0435994Y0094421D01*
X0436007Y0094380D01*
X0436019Y0094330D01*
X0436031Y0094277D01*
X0436039Y0094212D01*
X0436044Y0094142D01*
Y0094138D01*
Y0094134D01*
Y0094121D01*
Y0094105D01*
X0436039Y0094060D01*
X0436031Y0094007D01*
X0436019Y0093941D01*
X0436003Y0093875D01*
X0435982Y0093806D01*
X0435949Y0093740D01*
X0435945Y0093732D01*
X0435933Y0093711D01*
X0435912Y0093678D01*
X0435880Y0093642D01*
X0435843Y0093592D01*
X0435798Y0093547D01*
X0435748Y0093498D01*
X0435687Y0093453D01*
X0435679Y0093449D01*
X0435658Y0093432D01*
X0435621Y0093412D01*
X0435572Y0093387D01*
X0435515Y0093359D01*
X0435445Y0093334D01*
X0435367Y0093305D01*
X0435281Y0093281D01*
X0435277D01*
X0435269Y0093277D01*
X0435256D01*
X0435240Y0093273D01*
X0435219Y0093269D01*
X0435191Y0093264D01*
X0435129Y0093256D01*
X0435051Y0093244D01*
X0434965Y0093236D01*
X0434867Y0093232D01*
X0434764Y0093227D01*
X0434687D01*
X0434646Y0093232D01*
X0434605D01*
X0434510Y0093240D01*
X0434490D01*
X0434465Y0093244D01*
X0434432Y0093248D01*
X0434395D01*
X0434354Y0093252D01*
X0434264Y0093264D01*
X0434260D01*
X0434244Y0093269D01*
X0434223D01*
X0434190Y0093273D01*
X0434158Y0093277D01*
X0434121Y0093281D01*
X0434043Y0093293D01*
X0434039D01*
X0434026Y0093297D01*
X0434006Y0093301D01*
X0433981Y0093305D01*
X0433924Y0093322D01*
X0433858Y0093338D01*
Y0093761D01*
X0433862D01*
X0433867Y0093756D01*
X0433891Y0093748D01*
X0433928Y0093736D01*
X0433981Y0093720D01*
X0434039Y0093703D01*
X0434113Y0093683D01*
X0434190Y0093666D01*
X0434272Y0093650D01*
X0434285D01*
X0434297Y0093646D01*
X0434313D01*
X0434334Y0093642D01*
X0434363Y0093638D01*
X0434424Y0093633D01*
X0434502Y0093625D01*
X0434592Y0093617D01*
X0434691Y0093613D01*
X0434871D01*
X0434920Y0093617D01*
X0434978Y0093621D01*
X0435035Y0093625D01*
X0435097Y0093633D01*
X0435154Y0093646D01*
X0435162D01*
X0435179Y0093654D01*
X0435207Y0093658D01*
X0435240Y0093670D01*
X0435281Y0093683D01*
X0435322Y0093703D01*
X0435363Y0093720D01*
X0435400Y0093744D01*
X0435404Y0093748D01*
X0435416Y0093756D01*
X0435433Y0093769D01*
X0435453Y0093789D01*
X0435474Y0093814D01*
X0435498Y0093838D01*
X0435519Y0093871D01*
X0435539Y0093904D01*
X0435543Y0093908D01*
X0435547Y0093920D01*
X0435556Y0093941D01*
X0435564Y0093966D01*
X0435572Y0093998D01*
X0435576Y0094035D01*
X0435584Y0094072D01*
Y0094117D01*
Y0094121D01*
Y0094138D01*
X0435580Y0094162D01*
X0435576Y0094195D01*
X0435568Y0094228D01*
X0435552Y0094265D01*
X0435535Y0094302D01*
X0435511Y0094339D01*
X0435506Y0094343D01*
X0435498Y0094355D01*
X0435482Y0094371D01*
X0435457Y0094396D01*
X0435433Y0094421D01*
X0435400Y0094449D01*
X0435359Y0094474D01*
X0435318Y0094503D01*
X0435314Y0094507D01*
X0435297Y0094515D01*
X0435273Y0094531D01*
X0435240Y0094548D01*
X0435199Y0094568D01*
X0435154Y0094593D01*
X0435101Y0094613D01*
X0435047Y0094638D01*
X0435039Y0094642D01*
X0435023Y0094650D01*
X0434990Y0094662D01*
X0434953Y0094675D01*
X0434904Y0094695D01*
X0434855Y0094716D01*
X0434740Y0094761D01*
X0434732Y0094765D01*
X0434715Y0094773D01*
X0434682Y0094785D01*
X0434641Y0094802D01*
X0434596Y0094822D01*
X0434543Y0094847D01*
X0434432Y0094900D01*
X0434424Y0094904D01*
X0434408Y0094913D01*
X0434379Y0094929D01*
X0434342Y0094954D01*
X0434301Y0094978D01*
X0434256Y0095011D01*
X0434162Y0095081D01*
X0434158Y0095085D01*
X0434141Y0095097D01*
X0434121Y0095122D01*
X0434092Y0095150D01*
X0434063Y0095183D01*
X0434030Y0095224D01*
X0433998Y0095269D01*
X0433969Y0095319D01*
X0433965Y0095327D01*
X0433957Y0095343D01*
X0433949Y0095372D01*
X0433936Y0095413D01*
X0433920Y0095462D01*
X0433912Y0095515D01*
X0433903Y0095577D01*
X0433899Y0095647D01*
Y0095655D01*
Y0095675D01*
X0433903Y0095708D01*
X0433908Y0095749D01*
X0433916Y0095798D01*
X0433928Y0095851D01*
X0433944Y0095909D01*
X0433965Y0095970D01*
X0433969Y0095979D01*
X0433977Y0095999D01*
X0433994Y0096028D01*
X0434018Y0096069D01*
X0434047Y0096114D01*
X0434084Y0096159D01*
X0434129Y0096208D01*
X0434178Y0096257D01*
X0434186Y0096262D01*
X0434207Y0096278D01*
X0434235Y0096302D01*
X0434281Y0096327D01*
X0434334Y0096360D01*
X0434400Y0096393D01*
X0434473Y0096425D01*
X0434555Y0096458D01*
X0434559D01*
X0434568Y0096462D01*
X0434580Y0096466D01*
X0434596Y0096471D01*
X0434617Y0096475D01*
X0434646Y0096483D01*
X0434674Y0096491D01*
X0434711Y0096499D01*
X0434789Y0096512D01*
X0434883Y0096524D01*
X0434986Y0096532D01*
X0435101Y0096536D01*
X0435179D01*
X0435207Y0096532D01*
D02*
G37*
G36*
X0443698Y0096528D02*
X0443764Y0096524D01*
X0443834Y0096516D01*
X0443977Y0096491D01*
X0443985D01*
X0444010Y0096483D01*
X0444047Y0096475D01*
X0444096Y0096462D01*
X0444153Y0096446D01*
X0444215Y0096425D01*
X0444350Y0096376D01*
Y0095946D01*
X0444342Y0095950D01*
X0444321Y0095962D01*
X0444285Y0095979D01*
X0444240Y0095999D01*
X0444182Y0096024D01*
X0444121Y0096048D01*
X0444055Y0096069D01*
X0443985Y0096089D01*
X0443977Y0096093D01*
X0443953Y0096097D01*
X0443916Y0096106D01*
X0443866Y0096118D01*
X0443805Y0096126D01*
X0443735Y0096134D01*
X0443661Y0096139D01*
X0443579Y0096143D01*
X0443542D01*
X0443497Y0096139D01*
X0443444Y0096130D01*
X0443378Y0096122D01*
X0443313Y0096106D01*
X0443239Y0096085D01*
X0443169Y0096056D01*
X0443161Y0096052D01*
X0443141Y0096040D01*
X0443104Y0096020D01*
X0443063Y0095995D01*
X0443014Y0095958D01*
X0442960Y0095913D01*
X0442907Y0095864D01*
X0442858Y0095806D01*
X0442854Y0095798D01*
X0442837Y0095778D01*
X0442813Y0095745D01*
X0442784Y0095696D01*
X0442755Y0095638D01*
X0442723Y0095573D01*
X0442690Y0095499D01*
X0442661Y0095413D01*
Y0095409D01*
X0442657Y0095401D01*
Y0095388D01*
X0442653Y0095372D01*
X0442645Y0095351D01*
X0442640Y0095323D01*
X0442628Y0095261D01*
X0442616Y0095183D01*
X0442608Y0095093D01*
X0442599Y0094995D01*
X0442595Y0094884D01*
Y0094876D01*
Y0094855D01*
Y0094822D01*
X0442599Y0094781D01*
X0442604Y0094728D01*
X0442608Y0094671D01*
X0442616Y0094605D01*
X0442628Y0094531D01*
X0442657Y0094380D01*
X0442677Y0094302D01*
X0442702Y0094224D01*
X0442731Y0094146D01*
X0442764Y0094072D01*
X0442800Y0094002D01*
X0442845Y0093941D01*
X0442850Y0093937D01*
X0442858Y0093929D01*
X0442874Y0093912D01*
X0442895Y0093892D01*
X0442919Y0093867D01*
X0442952Y0093843D01*
X0442989Y0093814D01*
X0443034Y0093785D01*
X0443083Y0093752D01*
X0443137Y0093724D01*
X0443198Y0093699D01*
X0443268Y0093674D01*
X0443337Y0093654D01*
X0443415Y0093638D01*
X0443497Y0093629D01*
X0443588Y0093625D01*
X0443624D01*
X0443666Y0093629D01*
X0443715D01*
X0443776Y0093638D01*
X0443842Y0093646D01*
X0443916Y0093654D01*
X0443985Y0093670D01*
X0443989D01*
X0443994Y0093674D01*
X0444018Y0093678D01*
X0444055Y0093691D01*
X0444100Y0093707D01*
X0444158Y0093724D01*
X0444219Y0093748D01*
X0444350Y0093806D01*
Y0093392D01*
X0444346D01*
X0444334Y0093383D01*
X0444313Y0093375D01*
X0444285Y0093367D01*
X0444248Y0093355D01*
X0444207Y0093342D01*
X0444158Y0093326D01*
X0444104Y0093314D01*
X0444043Y0093297D01*
X0443981Y0093281D01*
X0443842Y0093256D01*
X0443694Y0093240D01*
X0443538Y0093232D01*
X0443510D01*
X0443473Y0093236D01*
X0443428Y0093240D01*
X0443370Y0093244D01*
X0443305Y0093252D01*
X0443231Y0093264D01*
X0443153Y0093281D01*
X0443071Y0093305D01*
X0442985Y0093330D01*
X0442899Y0093363D01*
X0442809Y0093404D01*
X0442727Y0093449D01*
X0442645Y0093502D01*
X0442567Y0093568D01*
X0442493Y0093638D01*
X0442489Y0093642D01*
X0442477Y0093658D01*
X0442460Y0093683D01*
X0442436Y0093715D01*
X0442407Y0093756D01*
X0442378Y0093810D01*
X0442345Y0093871D01*
X0442312Y0093941D01*
X0442276Y0094023D01*
X0442243Y0094113D01*
X0442214Y0094212D01*
X0442185Y0094318D01*
X0442161Y0094437D01*
X0442144Y0094564D01*
X0442132Y0094699D01*
X0442128Y0094843D01*
Y0094847D01*
Y0094859D01*
Y0094880D01*
Y0094908D01*
X0442132Y0094941D01*
Y0094982D01*
X0442136Y0095027D01*
X0442140Y0095077D01*
X0442153Y0095187D01*
X0442169Y0095302D01*
X0442194Y0095425D01*
X0442226Y0095544D01*
Y0095548D01*
X0442231Y0095556D01*
X0442239Y0095573D01*
X0442247Y0095597D01*
X0442255Y0095622D01*
X0442267Y0095655D01*
X0442300Y0095728D01*
X0442341Y0095811D01*
X0442390Y0095901D01*
X0442448Y0095987D01*
X0442513Y0096073D01*
X0442518Y0096077D01*
X0442522Y0096081D01*
X0442534Y0096093D01*
X0442546Y0096110D01*
X0442587Y0096151D01*
X0442640Y0096200D01*
X0442706Y0096253D01*
X0442784Y0096311D01*
X0442874Y0096364D01*
X0442969Y0096413D01*
X0442973D01*
X0442981Y0096417D01*
X0442997Y0096425D01*
X0443014Y0096434D01*
X0443042Y0096442D01*
X0443071Y0096450D01*
X0443104Y0096462D01*
X0443145Y0096475D01*
X0443231Y0096495D01*
X0443333Y0096516D01*
X0443444Y0096528D01*
X0443563Y0096532D01*
X0443645D01*
X0443698Y0096528D01*
D02*
G37*
G36*
X0437966Y0094421D02*
Y0093273D01*
X0437524D01*
Y0094433D01*
X0436359Y0096491D01*
X0436888D01*
X0437528Y0095310D01*
X0437761Y0094839D01*
X0437979Y0095269D01*
X0438627Y0096491D01*
X0439131D01*
X0437966Y0094421D01*
D02*
G37*
G36*
X0441611Y0093273D02*
X0441017D01*
X0440119Y0095278D01*
X0439861Y0095925D01*
Y0094302D01*
Y0093273D01*
X0439422D01*
Y0096491D01*
X0440008D01*
X0440861Y0094585D01*
X0441173Y0093851D01*
Y0095573D01*
Y0096491D01*
X0441611D01*
Y0093273D01*
D02*
G37*
G36*
X0451980Y0163732D02*
X0451508D01*
X0450652Y0166307D01*
X0451049D01*
X0451603Y0164569D01*
X0451760Y0164060D01*
X0451921Y0164569D01*
X0452479Y0166307D01*
X0452853D01*
X0451980Y0163732D01*
D02*
G37*
G36*
X0459154Y0166009D02*
X0458058D01*
Y0165172D01*
X0459094D01*
Y0164880D01*
X0458058D01*
Y0163732D01*
X0457700D01*
Y0166307D01*
X0459154D01*
Y0166009D01*
D02*
G37*
G36*
X0456940Y0166012D02*
X0455828D01*
Y0165215D01*
X0456894D01*
Y0164920D01*
X0455828D01*
Y0164031D01*
X0456940D01*
Y0163732D01*
X0455477D01*
Y0166307D01*
X0456940D01*
Y0166012D01*
D02*
G37*
G36*
X0453965Y0166304D02*
X0454017Y0166300D01*
X0454076Y0166294D01*
X0454142Y0166284D01*
X0454207Y0166271D01*
X0454270Y0166255D01*
X0454273D01*
X0454276Y0166251D01*
X0454296Y0166245D01*
X0454325Y0166235D01*
X0454365Y0166218D01*
X0454407Y0166199D01*
X0454450Y0166176D01*
X0454496Y0166150D01*
X0454535Y0166117D01*
X0454539Y0166114D01*
X0454552Y0166100D01*
X0454571Y0166081D01*
X0454594Y0166058D01*
X0454621Y0166025D01*
X0454643Y0165989D01*
X0454670Y0165949D01*
X0454690Y0165904D01*
X0454693Y0165897D01*
X0454696Y0165881D01*
X0454706Y0165858D01*
X0454716Y0165822D01*
X0454722Y0165782D01*
X0454732Y0165736D01*
X0454735Y0165684D01*
X0454739Y0165628D01*
Y0165622D01*
Y0165608D01*
X0454735Y0165585D01*
Y0165553D01*
X0454729Y0165520D01*
X0454722Y0165480D01*
X0454716Y0165441D01*
X0454703Y0165399D01*
Y0165395D01*
X0454696Y0165379D01*
X0454686Y0165359D01*
X0454676Y0165333D01*
X0454660Y0165303D01*
X0454640Y0165271D01*
X0454621Y0165234D01*
X0454594Y0165202D01*
X0454591Y0165198D01*
X0454581Y0165189D01*
X0454568Y0165172D01*
X0454548Y0165153D01*
X0454522Y0165126D01*
X0454493Y0165103D01*
X0454457Y0165077D01*
X0454421Y0165051D01*
X0454417Y0165048D01*
X0454404Y0165041D01*
X0454381Y0165028D01*
X0454352Y0165015D01*
X0454319Y0165002D01*
X0454280Y0164985D01*
X0454234Y0164969D01*
X0454184Y0164956D01*
X0454188D01*
X0454204Y0164949D01*
X0454224Y0164939D01*
X0454247Y0164926D01*
X0454276Y0164907D01*
X0454309Y0164887D01*
X0454339Y0164857D01*
X0454368Y0164824D01*
X0454371Y0164821D01*
X0454381Y0164808D01*
X0454397Y0164788D01*
X0454417Y0164759D01*
X0454440Y0164723D01*
X0454466Y0164683D01*
X0454496Y0164634D01*
X0454526Y0164578D01*
X0454932Y0163732D01*
X0454535D01*
X0454152Y0164552D01*
X0454148Y0164556D01*
X0454145Y0164569D01*
X0454135Y0164585D01*
X0454125Y0164608D01*
X0454096Y0164661D01*
X0454063Y0164710D01*
X0454060Y0164713D01*
X0454056Y0164720D01*
X0454047Y0164733D01*
X0454034Y0164746D01*
X0454001Y0164779D01*
X0453965Y0164808D01*
X0453961Y0164811D01*
X0453955Y0164815D01*
X0453945Y0164821D01*
X0453932Y0164828D01*
X0453896Y0164844D01*
X0453850Y0164861D01*
X0453847D01*
X0453840Y0164864D01*
X0453827Y0164867D01*
X0453810Y0164870D01*
X0453788D01*
X0453764Y0164874D01*
X0453712Y0164877D01*
X0453548D01*
Y0163732D01*
X0453197D01*
Y0166307D01*
X0453942D01*
X0453965Y0166304D01*
D02*
G37*
G36*
X0456313Y0186337D02*
X0456365Y0186333D01*
X0456421Y0186327D01*
X0456536Y0186307D01*
X0456543D01*
X0456562Y0186301D01*
X0456592Y0186294D01*
X0456631Y0186284D01*
X0456677Y0186271D01*
X0456726Y0186255D01*
X0456835Y0186215D01*
Y0185871D01*
X0456828Y0185874D01*
X0456812Y0185884D01*
X0456782Y0185897D01*
X0456746Y0185914D01*
X0456700Y0185933D01*
X0456651Y0185953D01*
X0456598Y0185969D01*
X0456543Y0185986D01*
X0456536Y0185989D01*
X0456516Y0185992D01*
X0456487Y0185999D01*
X0456448Y0186009D01*
X0456398Y0186015D01*
X0456343Y0186022D01*
X0456284Y0186025D01*
X0456218Y0186028D01*
X0456188D01*
X0456152Y0186025D01*
X0456110Y0186018D01*
X0456057Y0186012D01*
X0456005Y0185999D01*
X0455946Y0185982D01*
X0455890Y0185959D01*
X0455883Y0185956D01*
X0455867Y0185946D01*
X0455837Y0185930D01*
X0455805Y0185910D01*
X0455765Y0185881D01*
X0455723Y0185845D01*
X0455680Y0185805D01*
X0455641Y0185759D01*
X0455637Y0185753D01*
X0455624Y0185736D01*
X0455605Y0185710D01*
X0455582Y0185671D01*
X0455559Y0185625D01*
X0455532Y0185572D01*
X0455506Y0185513D01*
X0455483Y0185444D01*
Y0185441D01*
X0455480Y0185435D01*
Y0185425D01*
X0455477Y0185412D01*
X0455470Y0185395D01*
X0455467Y0185372D01*
X0455457Y0185323D01*
X0455447Y0185261D01*
X0455441Y0185189D01*
X0455434Y0185110D01*
X0455431Y0185021D01*
Y0185015D01*
Y0184998D01*
Y0184972D01*
X0455434Y0184939D01*
X0455437Y0184897D01*
X0455441Y0184851D01*
X0455447Y0184798D01*
X0455457Y0184739D01*
X0455480Y0184618D01*
X0455496Y0184556D01*
X0455516Y0184493D01*
X0455539Y0184431D01*
X0455565Y0184372D01*
X0455595Y0184316D01*
X0455631Y0184267D01*
X0455634Y0184264D01*
X0455641Y0184257D01*
X0455654Y0184244D01*
X0455670Y0184228D01*
X0455690Y0184208D01*
X0455716Y0184188D01*
X0455746Y0184165D01*
X0455782Y0184142D01*
X0455821Y0184116D01*
X0455864Y0184093D01*
X0455913Y0184073D01*
X0455969Y0184054D01*
X0456024Y0184037D01*
X0456087Y0184024D01*
X0456152Y0184018D01*
X0456224Y0184014D01*
X0456254D01*
X0456287Y0184018D01*
X0456326D01*
X0456375Y0184024D01*
X0456428Y0184031D01*
X0456487Y0184037D01*
X0456543Y0184050D01*
X0456546D01*
X0456549Y0184054D01*
X0456569Y0184057D01*
X0456598Y0184067D01*
X0456635Y0184080D01*
X0456680Y0184093D01*
X0456730Y0184113D01*
X0456835Y0184159D01*
Y0183827D01*
X0456831D01*
X0456821Y0183821D01*
X0456805Y0183814D01*
X0456782Y0183808D01*
X0456753Y0183798D01*
X0456720Y0183788D01*
X0456680Y0183775D01*
X0456638Y0183765D01*
X0456589Y0183752D01*
X0456539Y0183739D01*
X0456428Y0183719D01*
X0456310Y0183706D01*
X0456185Y0183700D01*
X0456162D01*
X0456133Y0183703D01*
X0456097Y0183706D01*
X0456051Y0183709D01*
X0455998Y0183716D01*
X0455939Y0183726D01*
X0455877Y0183739D01*
X0455811Y0183758D01*
X0455742Y0183778D01*
X0455674Y0183804D01*
X0455601Y0183837D01*
X0455536Y0183873D01*
X0455470Y0183916D01*
X0455408Y0183968D01*
X0455349Y0184024D01*
X0455345Y0184028D01*
X0455336Y0184041D01*
X0455323Y0184060D01*
X0455303Y0184087D01*
X0455280Y0184119D01*
X0455257Y0184162D01*
X0455231Y0184211D01*
X0455204Y0184267D01*
X0455175Y0184333D01*
X0455149Y0184405D01*
X0455126Y0184483D01*
X0455103Y0184569D01*
X0455083Y0184664D01*
X0455070Y0184766D01*
X0455060Y0184874D01*
X0455057Y0184988D01*
Y0184992D01*
Y0185002D01*
Y0185018D01*
Y0185041D01*
X0455060Y0185067D01*
Y0185100D01*
X0455063Y0185136D01*
X0455067Y0185176D01*
X0455077Y0185264D01*
X0455090Y0185356D01*
X0455109Y0185454D01*
X0455135Y0185549D01*
Y0185553D01*
X0455139Y0185559D01*
X0455145Y0185572D01*
X0455152Y0185592D01*
X0455159Y0185612D01*
X0455168Y0185638D01*
X0455195Y0185697D01*
X0455227Y0185763D01*
X0455267Y0185835D01*
X0455313Y0185904D01*
X0455365Y0185972D01*
X0455368Y0185976D01*
X0455372Y0185979D01*
X0455381Y0185989D01*
X0455391Y0186002D01*
X0455424Y0186035D01*
X0455467Y0186074D01*
X0455519Y0186117D01*
X0455582Y0186163D01*
X0455654Y0186205D01*
X0455729Y0186245D01*
X0455732D01*
X0455739Y0186248D01*
X0455752Y0186255D01*
X0455765Y0186261D01*
X0455788Y0186268D01*
X0455811Y0186274D01*
X0455837Y0186284D01*
X0455870Y0186294D01*
X0455939Y0186310D01*
X0456021Y0186327D01*
X0456110Y0186337D01*
X0456205Y0186340D01*
X0456270D01*
X0456313Y0186337D01*
D02*
G37*
G36*
X0458094Y0185080D02*
X0459154Y0183732D01*
X0458714D01*
X0457753Y0184995D01*
Y0183732D01*
X0457402D01*
Y0186307D01*
X0457753D01*
Y0185107D01*
X0458694Y0186307D01*
X0459108D01*
X0458094Y0185080D01*
D02*
G37*
G36*
X0454706Y0186009D02*
X0453945D01*
Y0183732D01*
X0453591D01*
Y0186009D01*
X0452830D01*
Y0186307D01*
X0454706D01*
Y0186009D01*
D02*
G37*
G36*
X0454102Y0176340D02*
X0454152Y0176337D01*
X0454207Y0176330D01*
X0454325Y0176310D01*
X0454332D01*
X0454352Y0176304D01*
X0454384Y0176297D01*
X0454424Y0176287D01*
X0454470Y0176274D01*
X0454519Y0176258D01*
X0454571Y0176238D01*
X0454627Y0176215D01*
Y0175868D01*
X0454621Y0175871D01*
X0454601Y0175881D01*
X0454575Y0175894D01*
X0454535Y0175910D01*
X0454489Y0175930D01*
X0454440Y0175950D01*
X0454384Y0175969D01*
X0454329Y0175986D01*
X0454322Y0175989D01*
X0454302Y0175992D01*
X0454273Y0175999D01*
X0454230Y0176009D01*
X0454181Y0176015D01*
X0454125Y0176022D01*
X0454066Y0176025D01*
X0454001Y0176028D01*
X0453968D01*
X0453948Y0176025D01*
X0453929D01*
X0453879Y0176018D01*
X0453824Y0176009D01*
X0453761Y0175996D01*
X0453699Y0175979D01*
X0453637Y0175953D01*
X0453633D01*
X0453630Y0175950D01*
X0453610Y0175940D01*
X0453581Y0175923D01*
X0453542Y0175900D01*
X0453499Y0175871D01*
X0453456Y0175835D01*
X0453410Y0175795D01*
X0453368Y0175746D01*
X0453364Y0175740D01*
X0453351Y0175723D01*
X0453332Y0175694D01*
X0453305Y0175658D01*
X0453279Y0175612D01*
X0453253Y0175556D01*
X0453223Y0175497D01*
X0453200Y0175428D01*
Y0175425D01*
X0453197Y0175418D01*
X0453194Y0175408D01*
X0453191Y0175395D01*
X0453187Y0175379D01*
X0453184Y0175356D01*
X0453174Y0175307D01*
X0453161Y0175244D01*
X0453154Y0175172D01*
X0453148Y0175097D01*
X0453145Y0175012D01*
Y0175008D01*
Y0175002D01*
Y0174988D01*
Y0174972D01*
Y0174952D01*
X0453148Y0174926D01*
X0453151Y0174870D01*
X0453154Y0174805D01*
X0453164Y0174733D01*
X0453174Y0174661D01*
X0453191Y0174588D01*
Y0174585D01*
X0453194Y0174582D01*
X0453197Y0174572D01*
X0453200Y0174559D01*
X0453210Y0174523D01*
X0453227Y0174480D01*
X0453246Y0174428D01*
X0453272Y0174375D01*
X0453302Y0174323D01*
X0453335Y0174270D01*
X0453338Y0174264D01*
X0453355Y0174250D01*
X0453374Y0174227D01*
X0453407Y0174198D01*
X0453443Y0174165D01*
X0453486Y0174132D01*
X0453538Y0174103D01*
X0453594Y0174073D01*
X0453597D01*
X0453601Y0174070D01*
X0453610Y0174067D01*
X0453623Y0174064D01*
X0453656Y0174050D01*
X0453699Y0174041D01*
X0453755Y0174028D01*
X0453817Y0174014D01*
X0453889Y0174008D01*
X0453968Y0174004D01*
X0454020D01*
X0454050Y0174008D01*
X0454056D01*
X0454076Y0174011D01*
X0454102Y0174014D01*
X0454135Y0174018D01*
X0454142D01*
X0454161Y0174021D01*
X0454188Y0174028D01*
X0454217Y0174034D01*
X0454220D01*
X0454224Y0174037D01*
X0454243Y0174041D01*
X0454266Y0174047D01*
X0454293Y0174057D01*
Y0174880D01*
X0453768D01*
Y0175169D01*
X0454640D01*
Y0173850D01*
X0454637D01*
X0454627Y0173844D01*
X0454611Y0173837D01*
X0454588Y0173827D01*
X0454562Y0173818D01*
X0454532Y0173808D01*
X0454466Y0173785D01*
X0454463D01*
X0454450Y0173782D01*
X0454434Y0173775D01*
X0454411Y0173768D01*
X0454381Y0173758D01*
X0454352Y0173752D01*
X0454283Y0173735D01*
X0454280D01*
X0454266Y0173732D01*
X0454250Y0173729D01*
X0454227Y0173726D01*
X0454198Y0173722D01*
X0454168Y0173719D01*
X0454099Y0173709D01*
X0454096D01*
X0454083Y0173706D01*
X0454066D01*
X0454043Y0173703D01*
X0454014Y0173699D01*
X0453984D01*
X0453919Y0173696D01*
X0453876D01*
X0453850Y0173699D01*
X0453824D01*
X0453794Y0173703D01*
X0453761Y0173706D01*
X0453686Y0173716D01*
X0453607Y0173732D01*
X0453525Y0173752D01*
X0453443Y0173778D01*
X0453440D01*
X0453433Y0173782D01*
X0453423Y0173788D01*
X0453407Y0173795D01*
X0453391Y0173801D01*
X0453368Y0173814D01*
X0453318Y0173840D01*
X0453263Y0173873D01*
X0453204Y0173916D01*
X0453141Y0173965D01*
X0453082Y0174021D01*
Y0174024D01*
X0453076Y0174028D01*
X0453069Y0174037D01*
X0453059Y0174050D01*
X0453046Y0174067D01*
X0453033Y0174086D01*
X0453000Y0174132D01*
X0452961Y0174191D01*
X0452925Y0174260D01*
X0452889Y0174339D01*
X0452856Y0174428D01*
Y0174431D01*
X0452853Y0174437D01*
X0452849Y0174451D01*
X0452843Y0174470D01*
X0452836Y0174493D01*
X0452830Y0174523D01*
X0452823Y0174552D01*
X0452817Y0174588D01*
X0452810Y0174628D01*
X0452804Y0174670D01*
X0452790Y0174766D01*
X0452780Y0174874D01*
X0452777Y0174988D01*
Y0174992D01*
Y0175002D01*
Y0175018D01*
Y0175041D01*
X0452780Y0175071D01*
Y0175103D01*
X0452784Y0175139D01*
X0452787Y0175179D01*
X0452800Y0175267D01*
X0452813Y0175362D01*
X0452836Y0175461D01*
X0452866Y0175556D01*
Y0175559D01*
X0452869Y0175566D01*
X0452876Y0175579D01*
X0452882Y0175599D01*
X0452892Y0175622D01*
X0452902Y0175645D01*
X0452931Y0175704D01*
X0452964Y0175772D01*
X0453007Y0175841D01*
X0453056Y0175914D01*
X0453112Y0175982D01*
X0453115Y0175986D01*
X0453118Y0175989D01*
X0453128Y0175999D01*
X0453141Y0176012D01*
X0453174Y0176045D01*
X0453220Y0176084D01*
X0453276Y0176127D01*
X0453341Y0176169D01*
X0453417Y0176212D01*
X0453499Y0176251D01*
X0453502D01*
X0453509Y0176255D01*
X0453522Y0176261D01*
X0453538Y0176264D01*
X0453561Y0176274D01*
X0453584Y0176281D01*
X0453614Y0176287D01*
X0453646Y0176297D01*
X0453719Y0176314D01*
X0453804Y0176330D01*
X0453899Y0176340D01*
X0453997Y0176343D01*
X0454060D01*
X0454102Y0176340D01*
D02*
G37*
G36*
X0456848Y0173732D02*
X0456372D01*
X0455654Y0175336D01*
X0455447Y0175854D01*
Y0174556D01*
Y0173732D01*
X0455096D01*
Y0176307D01*
X0455565D01*
X0456248Y0174782D01*
X0456497Y0174195D01*
Y0175572D01*
Y0176307D01*
X0456848D01*
Y0173732D01*
D02*
G37*
G36*
X0458015Y0176304D02*
X0458055D01*
X0458104Y0176297D01*
X0458163Y0176291D01*
X0458225Y0176281D01*
X0458294Y0176268D01*
X0458366Y0176251D01*
X0458442Y0176232D01*
X0458517Y0176205D01*
X0458589Y0176176D01*
X0458662Y0176140D01*
X0458730Y0176097D01*
X0458796Y0176051D01*
X0458855Y0175996D01*
X0458858Y0175992D01*
X0458868Y0175982D01*
X0458881Y0175963D01*
X0458901Y0175936D01*
X0458924Y0175904D01*
X0458950Y0175864D01*
X0458976Y0175815D01*
X0459006Y0175759D01*
X0459032Y0175697D01*
X0459058Y0175628D01*
X0459085Y0175549D01*
X0459108Y0175464D01*
X0459127Y0175372D01*
X0459140Y0175271D01*
X0459150Y0175162D01*
X0459154Y0175048D01*
Y0175044D01*
Y0175038D01*
Y0175028D01*
Y0175015D01*
Y0174979D01*
X0459150Y0174933D01*
X0459147Y0174877D01*
X0459140Y0174818D01*
X0459124Y0174690D01*
Y0174687D01*
Y0174683D01*
X0459121Y0174674D01*
X0459118Y0174661D01*
X0459111Y0174631D01*
X0459101Y0174588D01*
X0459088Y0174539D01*
X0459072Y0174487D01*
X0459032Y0174375D01*
X0459029Y0174369D01*
X0459022Y0174352D01*
X0459006Y0174323D01*
X0458989Y0174287D01*
X0458963Y0174247D01*
X0458937Y0174201D01*
X0458904Y0174155D01*
X0458868Y0174109D01*
X0458865Y0174103D01*
X0458848Y0174090D01*
X0458829Y0174067D01*
X0458799Y0174041D01*
X0458763Y0174008D01*
X0458721Y0173975D01*
X0458671Y0173939D01*
X0458619Y0173906D01*
X0458612Y0173903D01*
X0458593Y0173893D01*
X0458563Y0173877D01*
X0458524Y0173860D01*
X0458475Y0173840D01*
X0458416Y0173818D01*
X0458350Y0173798D01*
X0458281Y0173778D01*
X0458278D01*
X0458271Y0173775D01*
X0458261D01*
X0458248Y0173772D01*
X0458229Y0173768D01*
X0458209Y0173765D01*
X0458156Y0173755D01*
X0458091Y0173745D01*
X0458015Y0173739D01*
X0457933Y0173735D01*
X0457845Y0173732D01*
X0457294D01*
Y0176307D01*
X0457983D01*
X0458015Y0176304D01*
D02*
G37*
G36*
X0455762Y0196304D02*
X0455801D01*
X0455851Y0196297D01*
X0455910Y0196291D01*
X0455972Y0196281D01*
X0456041Y0196268D01*
X0456113Y0196251D01*
X0456188Y0196232D01*
X0456264Y0196205D01*
X0456336Y0196176D01*
X0456408Y0196140D01*
X0456477Y0196097D01*
X0456543Y0196051D01*
X0456602Y0195995D01*
X0456605Y0195992D01*
X0456615Y0195982D01*
X0456628Y0195963D01*
X0456648Y0195936D01*
X0456671Y0195904D01*
X0456697Y0195864D01*
X0456723Y0195815D01*
X0456753Y0195759D01*
X0456779Y0195697D01*
X0456805Y0195628D01*
X0456831Y0195549D01*
X0456854Y0195464D01*
X0456874Y0195372D01*
X0456887Y0195271D01*
X0456897Y0195162D01*
X0456900Y0195047D01*
Y0195044D01*
Y0195038D01*
Y0195028D01*
Y0195015D01*
Y0194979D01*
X0456897Y0194933D01*
X0456894Y0194877D01*
X0456887Y0194818D01*
X0456871Y0194690D01*
Y0194687D01*
Y0194684D01*
X0456867Y0194674D01*
X0456864Y0194660D01*
X0456857Y0194631D01*
X0456848Y0194588D01*
X0456835Y0194539D01*
X0456818Y0194487D01*
X0456779Y0194375D01*
X0456776Y0194369D01*
X0456769Y0194352D01*
X0456753Y0194323D01*
X0456736Y0194287D01*
X0456710Y0194247D01*
X0456684Y0194201D01*
X0456651Y0194155D01*
X0456615Y0194109D01*
X0456611Y0194103D01*
X0456595Y0194090D01*
X0456575Y0194067D01*
X0456546Y0194041D01*
X0456510Y0194008D01*
X0456467Y0193975D01*
X0456418Y0193939D01*
X0456365Y0193906D01*
X0456359Y0193903D01*
X0456339Y0193893D01*
X0456310Y0193877D01*
X0456270Y0193860D01*
X0456221Y0193841D01*
X0456162Y0193817D01*
X0456097Y0193798D01*
X0456028Y0193778D01*
X0456024D01*
X0456018Y0193775D01*
X0456008D01*
X0455995Y0193772D01*
X0455975Y0193768D01*
X0455956Y0193765D01*
X0455903Y0193755D01*
X0455837Y0193745D01*
X0455762Y0193739D01*
X0455680Y0193736D01*
X0455591Y0193732D01*
X0455040D01*
Y0196307D01*
X0455729D01*
X0455762Y0196304D01*
D02*
G37*
G36*
X0454657Y0196009D02*
X0453896D01*
Y0193732D01*
X0453542D01*
Y0196009D01*
X0452780D01*
Y0196307D01*
X0454657D01*
Y0196009D01*
D02*
G37*
G36*
X0458232Y0196340D02*
X0458258D01*
X0458317Y0196333D01*
X0458386Y0196320D01*
X0458458Y0196304D01*
X0458530Y0196281D01*
X0458603Y0196251D01*
X0458606D01*
X0458612Y0196248D01*
X0458619Y0196241D01*
X0458632Y0196235D01*
X0458668Y0196212D01*
X0458711Y0196186D01*
X0458757Y0196146D01*
X0458809Y0196100D01*
X0458858Y0196048D01*
X0458908Y0195989D01*
Y0195986D01*
X0458914Y0195982D01*
X0458921Y0195973D01*
X0458927Y0195959D01*
X0458937Y0195943D01*
X0458950Y0195923D01*
X0458976Y0195874D01*
X0459006Y0195815D01*
X0459039Y0195746D01*
X0459065Y0195668D01*
X0459091Y0195579D01*
Y0195576D01*
X0459094Y0195569D01*
X0459098Y0195556D01*
X0459101Y0195536D01*
X0459104Y0195513D01*
X0459111Y0195487D01*
X0459118Y0195457D01*
X0459124Y0195422D01*
X0459127Y0195382D01*
X0459134Y0195340D01*
X0459144Y0195248D01*
X0459150Y0195146D01*
X0459154Y0195034D01*
Y0195031D01*
Y0195018D01*
Y0195002D01*
Y0194975D01*
X0459150Y0194946D01*
Y0194910D01*
X0459147Y0194870D01*
X0459144Y0194828D01*
X0459134Y0194736D01*
X0459118Y0194634D01*
X0459098Y0194533D01*
X0459072Y0194434D01*
Y0194431D01*
X0459068Y0194424D01*
X0459062Y0194411D01*
X0459055Y0194392D01*
X0459049Y0194372D01*
X0459039Y0194346D01*
X0459013Y0194290D01*
X0458980Y0194224D01*
X0458944Y0194152D01*
X0458898Y0194083D01*
X0458848Y0194018D01*
Y0194014D01*
X0458842Y0194011D01*
X0458826Y0193991D01*
X0458796Y0193962D01*
X0458757Y0193926D01*
X0458708Y0193886D01*
X0458655Y0193847D01*
X0458593Y0193808D01*
X0458524Y0193775D01*
X0458521D01*
X0458514Y0193772D01*
X0458504Y0193768D01*
X0458491Y0193762D01*
X0458475Y0193755D01*
X0458455Y0193749D01*
X0458406Y0193736D01*
X0458347Y0193722D01*
X0458278Y0193709D01*
X0458206Y0193700D01*
X0458130Y0193696D01*
X0458088D01*
X0458068Y0193700D01*
X0458042D01*
X0457983Y0193706D01*
X0457917Y0193719D01*
X0457845Y0193732D01*
X0457769Y0193755D01*
X0457697Y0193785D01*
X0457694D01*
X0457691Y0193788D01*
X0457681Y0193795D01*
X0457668Y0193801D01*
X0457632Y0193821D01*
X0457589Y0193850D01*
X0457543Y0193886D01*
X0457491Y0193932D01*
X0457441Y0193985D01*
X0457392Y0194044D01*
Y0194047D01*
X0457386Y0194050D01*
X0457382Y0194060D01*
X0457373Y0194073D01*
X0457363Y0194090D01*
X0457353Y0194109D01*
X0457327Y0194159D01*
X0457297Y0194221D01*
X0457268Y0194290D01*
X0457241Y0194369D01*
X0457215Y0194457D01*
Y0194460D01*
X0457212Y0194467D01*
X0457208Y0194480D01*
X0457205Y0194500D01*
X0457202Y0194523D01*
X0457195Y0194549D01*
X0457192Y0194582D01*
X0457186Y0194618D01*
X0457179Y0194654D01*
X0457176Y0194697D01*
X0457166Y0194792D01*
X0457159Y0194893D01*
X0457156Y0195005D01*
Y0195008D01*
Y0195021D01*
Y0195038D01*
Y0195064D01*
X0457159Y0195094D01*
Y0195126D01*
X0457163Y0195166D01*
X0457166Y0195208D01*
X0457176Y0195300D01*
X0457189Y0195402D01*
X0457208Y0195500D01*
X0457235Y0195599D01*
Y0195602D01*
X0457238Y0195608D01*
X0457245Y0195622D01*
X0457251Y0195641D01*
X0457258Y0195661D01*
X0457268Y0195687D01*
X0457294Y0195746D01*
X0457323Y0195812D01*
X0457363Y0195881D01*
X0457405Y0195949D01*
X0457454Y0196015D01*
X0457458Y0196018D01*
X0457461Y0196022D01*
X0457478Y0196041D01*
X0457507Y0196071D01*
X0457546Y0196110D01*
X0457592Y0196150D01*
X0457648Y0196189D01*
X0457710Y0196228D01*
X0457776Y0196261D01*
X0457779D01*
X0457786Y0196264D01*
X0457796Y0196268D01*
X0457809Y0196274D01*
X0457825Y0196281D01*
X0457845Y0196287D01*
X0457894Y0196304D01*
X0457953Y0196317D01*
X0458022Y0196330D01*
X0458094Y0196340D01*
X0458170Y0196343D01*
X0458212D01*
X0458232Y0196340D01*
D02*
G37*
G36*
X0459154Y0206012D02*
X0458560D01*
Y0204031D01*
X0459154D01*
Y0203732D01*
X0457612D01*
Y0204031D01*
X0458206D01*
Y0206012D01*
X0457612D01*
Y0206307D01*
X0459154D01*
Y0206012D01*
D02*
G37*
G36*
X0455992Y0206304D02*
X0456031D01*
X0456080Y0206297D01*
X0456139Y0206291D01*
X0456202Y0206281D01*
X0456270Y0206268D01*
X0456343Y0206251D01*
X0456418Y0206232D01*
X0456494Y0206205D01*
X0456566Y0206176D01*
X0456638Y0206140D01*
X0456707Y0206097D01*
X0456772Y0206051D01*
X0456831Y0205995D01*
X0456835Y0205992D01*
X0456844Y0205982D01*
X0456857Y0205963D01*
X0456877Y0205936D01*
X0456900Y0205904D01*
X0456926Y0205864D01*
X0456953Y0205815D01*
X0456982Y0205759D01*
X0457008Y0205697D01*
X0457035Y0205628D01*
X0457061Y0205549D01*
X0457084Y0205464D01*
X0457103Y0205372D01*
X0457117Y0205271D01*
X0457127Y0205162D01*
X0457130Y0205048D01*
Y0205044D01*
Y0205038D01*
Y0205028D01*
Y0205015D01*
Y0204979D01*
X0457127Y0204933D01*
X0457123Y0204877D01*
X0457117Y0204818D01*
X0457100Y0204690D01*
Y0204687D01*
Y0204683D01*
X0457097Y0204674D01*
X0457094Y0204661D01*
X0457087Y0204631D01*
X0457077Y0204588D01*
X0457064Y0204539D01*
X0457048Y0204487D01*
X0457008Y0204375D01*
X0457005Y0204369D01*
X0456999Y0204352D01*
X0456982Y0204323D01*
X0456966Y0204287D01*
X0456940Y0204247D01*
X0456913Y0204201D01*
X0456881Y0204155D01*
X0456844Y0204110D01*
X0456841Y0204103D01*
X0456825Y0204090D01*
X0456805Y0204067D01*
X0456776Y0204041D01*
X0456740Y0204008D01*
X0456697Y0203975D01*
X0456648Y0203939D01*
X0456595Y0203906D01*
X0456589Y0203903D01*
X0456569Y0203893D01*
X0456539Y0203877D01*
X0456500Y0203860D01*
X0456451Y0203840D01*
X0456392Y0203818D01*
X0456326Y0203798D01*
X0456257Y0203778D01*
X0456254D01*
X0456248Y0203775D01*
X0456238D01*
X0456224Y0203772D01*
X0456205Y0203768D01*
X0456185Y0203765D01*
X0456133Y0203755D01*
X0456067Y0203745D01*
X0455992Y0203739D01*
X0455910Y0203735D01*
X0455821Y0203732D01*
X0455270D01*
Y0206307D01*
X0455959D01*
X0455992Y0206304D01*
D02*
G37*
G36*
X0454886Y0206009D02*
X0454125D01*
Y0203732D01*
X0453771D01*
Y0206009D01*
X0453010D01*
Y0206307D01*
X0454886D01*
Y0206009D01*
D02*
G37*
G36*
X0458484Y0216340D02*
X0458537Y0216337D01*
X0458550D01*
X0458566Y0216333D01*
X0458586D01*
X0458609Y0216330D01*
X0458635Y0216327D01*
X0458691Y0216317D01*
X0458694D01*
X0458704Y0216314D01*
X0458721D01*
X0458740Y0216310D01*
X0458763Y0216307D01*
X0458789Y0216301D01*
X0458845Y0216291D01*
X0458848D01*
X0458858Y0216287D01*
X0458875D01*
X0458894Y0216284D01*
X0458940Y0216274D01*
X0458989Y0216264D01*
Y0215950D01*
X0458986D01*
X0458983Y0215953D01*
X0458963Y0215956D01*
X0458934Y0215966D01*
X0458894Y0215972D01*
X0458848Y0215986D01*
X0458796Y0215996D01*
X0458740Y0216005D01*
X0458684Y0216015D01*
X0458678D01*
X0458658Y0216018D01*
X0458629Y0216022D01*
X0458593Y0216028D01*
X0458547Y0216032D01*
X0458497Y0216035D01*
X0458389Y0216038D01*
X0458340D01*
X0458314Y0216035D01*
X0458288Y0216032D01*
X0458222Y0216025D01*
X0458150Y0216012D01*
X0458074Y0215996D01*
X0458006Y0215969D01*
X0457976Y0215953D01*
X0457946Y0215936D01*
X0457940Y0215933D01*
X0457924Y0215917D01*
X0457901Y0215897D01*
X0457878Y0215864D01*
X0457851Y0215825D01*
X0457828Y0215779D01*
X0457812Y0215726D01*
X0457809Y0215697D01*
X0457805Y0215668D01*
Y0215664D01*
Y0215651D01*
X0457809Y0215631D01*
X0457812Y0215605D01*
X0457819Y0215579D01*
X0457828Y0215546D01*
X0457842Y0215517D01*
X0457861Y0215487D01*
X0457865Y0215484D01*
X0457871Y0215474D01*
X0457884Y0215461D01*
X0457904Y0215441D01*
X0457924Y0215422D01*
X0457950Y0215399D01*
X0457983Y0215376D01*
X0458015Y0215353D01*
X0458019Y0215349D01*
X0458032Y0215343D01*
X0458051Y0215333D01*
X0458078Y0215317D01*
X0458111Y0215300D01*
X0458147Y0215284D01*
X0458189Y0215264D01*
X0458232Y0215244D01*
X0458238Y0215241D01*
X0458252Y0215238D01*
X0458278Y0215228D01*
X0458307Y0215215D01*
X0458347Y0215202D01*
X0458386Y0215182D01*
X0458478Y0215146D01*
X0458484Y0215143D01*
X0458501Y0215136D01*
X0458524Y0215126D01*
X0458557Y0215113D01*
X0458593Y0215097D01*
X0458635Y0215077D01*
X0458724Y0215034D01*
X0458730Y0215031D01*
X0458743Y0215025D01*
X0458767Y0215012D01*
X0458796Y0214992D01*
X0458829Y0214972D01*
X0458865Y0214946D01*
X0458940Y0214887D01*
X0458944Y0214884D01*
X0458957Y0214874D01*
X0458973Y0214854D01*
X0458996Y0214831D01*
X0459019Y0214805D01*
X0459045Y0214772D01*
X0459072Y0214733D01*
X0459094Y0214693D01*
X0459098Y0214687D01*
X0459104Y0214674D01*
X0459114Y0214651D01*
X0459124Y0214618D01*
X0459134Y0214579D01*
X0459144Y0214536D01*
X0459150Y0214483D01*
X0459154Y0214428D01*
Y0214424D01*
Y0214421D01*
Y0214411D01*
Y0214398D01*
X0459150Y0214362D01*
X0459144Y0214319D01*
X0459134Y0214267D01*
X0459121Y0214214D01*
X0459104Y0214159D01*
X0459078Y0214106D01*
X0459075Y0214100D01*
X0459065Y0214083D01*
X0459049Y0214057D01*
X0459022Y0214028D01*
X0458993Y0213988D01*
X0458957Y0213952D01*
X0458917Y0213913D01*
X0458868Y0213877D01*
X0458862Y0213873D01*
X0458845Y0213860D01*
X0458816Y0213844D01*
X0458776Y0213824D01*
X0458730Y0213801D01*
X0458675Y0213781D01*
X0458612Y0213758D01*
X0458543Y0213739D01*
X0458540D01*
X0458534Y0213736D01*
X0458524D01*
X0458511Y0213732D01*
X0458494Y0213729D01*
X0458471Y0213726D01*
X0458422Y0213719D01*
X0458360Y0213709D01*
X0458291Y0213703D01*
X0458212Y0213700D01*
X0458130Y0213696D01*
X0458068D01*
X0458035Y0213700D01*
X0458002D01*
X0457927Y0213706D01*
X0457910D01*
X0457891Y0213709D01*
X0457865Y0213713D01*
X0457835D01*
X0457802Y0213716D01*
X0457730Y0213726D01*
X0457727D01*
X0457714Y0213729D01*
X0457697D01*
X0457671Y0213732D01*
X0457645Y0213736D01*
X0457615Y0213739D01*
X0457553Y0213749D01*
X0457550D01*
X0457540Y0213752D01*
X0457523Y0213755D01*
X0457504Y0213758D01*
X0457458Y0213772D01*
X0457405Y0213785D01*
Y0214123D01*
X0457409D01*
X0457412Y0214119D01*
X0457432Y0214113D01*
X0457461Y0214103D01*
X0457504Y0214090D01*
X0457550Y0214077D01*
X0457609Y0214060D01*
X0457671Y0214047D01*
X0457737Y0214034D01*
X0457746D01*
X0457756Y0214031D01*
X0457769D01*
X0457786Y0214028D01*
X0457809Y0214024D01*
X0457858Y0214021D01*
X0457920Y0214014D01*
X0457992Y0214008D01*
X0458071Y0214004D01*
X0458216D01*
X0458255Y0214008D01*
X0458301Y0214011D01*
X0458347Y0214014D01*
X0458396Y0214021D01*
X0458442Y0214031D01*
X0458448D01*
X0458462Y0214037D01*
X0458484Y0214041D01*
X0458511Y0214050D01*
X0458543Y0214060D01*
X0458576Y0214077D01*
X0458609Y0214090D01*
X0458639Y0214109D01*
X0458642Y0214113D01*
X0458652Y0214119D01*
X0458665Y0214129D01*
X0458681Y0214146D01*
X0458698Y0214165D01*
X0458717Y0214185D01*
X0458734Y0214211D01*
X0458750Y0214237D01*
X0458753Y0214241D01*
X0458757Y0214250D01*
X0458763Y0214267D01*
X0458770Y0214287D01*
X0458776Y0214313D01*
X0458780Y0214342D01*
X0458786Y0214372D01*
Y0214408D01*
Y0214411D01*
Y0214424D01*
X0458783Y0214444D01*
X0458780Y0214470D01*
X0458773Y0214496D01*
X0458760Y0214526D01*
X0458747Y0214556D01*
X0458727Y0214585D01*
X0458724Y0214588D01*
X0458717Y0214598D01*
X0458704Y0214611D01*
X0458684Y0214631D01*
X0458665Y0214651D01*
X0458639Y0214674D01*
X0458606Y0214693D01*
X0458573Y0214716D01*
X0458570Y0214720D01*
X0458557Y0214726D01*
X0458537Y0214739D01*
X0458511Y0214752D01*
X0458478Y0214769D01*
X0458442Y0214788D01*
X0458399Y0214805D01*
X0458357Y0214825D01*
X0458350Y0214828D01*
X0458337Y0214834D01*
X0458311Y0214844D01*
X0458281Y0214854D01*
X0458242Y0214870D01*
X0458202Y0214887D01*
X0458111Y0214923D01*
X0458104Y0214926D01*
X0458091Y0214933D01*
X0458065Y0214943D01*
X0458032Y0214956D01*
X0457996Y0214972D01*
X0457953Y0214992D01*
X0457865Y0215034D01*
X0457858Y0215038D01*
X0457845Y0215044D01*
X0457822Y0215057D01*
X0457792Y0215077D01*
X0457760Y0215097D01*
X0457724Y0215123D01*
X0457648Y0215179D01*
X0457645Y0215182D01*
X0457632Y0215192D01*
X0457615Y0215212D01*
X0457592Y0215234D01*
X0457569Y0215261D01*
X0457543Y0215294D01*
X0457517Y0215330D01*
X0457494Y0215369D01*
X0457491Y0215376D01*
X0457484Y0215389D01*
X0457478Y0215412D01*
X0457468Y0215444D01*
X0457454Y0215484D01*
X0457448Y0215526D01*
X0457441Y0215576D01*
X0457438Y0215631D01*
Y0215638D01*
Y0215654D01*
X0457441Y0215681D01*
X0457445Y0215713D01*
X0457451Y0215753D01*
X0457461Y0215795D01*
X0457474Y0215841D01*
X0457491Y0215891D01*
X0457494Y0215897D01*
X0457500Y0215914D01*
X0457514Y0215936D01*
X0457533Y0215969D01*
X0457556Y0216005D01*
X0457586Y0216041D01*
X0457622Y0216081D01*
X0457661Y0216120D01*
X0457668Y0216123D01*
X0457684Y0216137D01*
X0457707Y0216156D01*
X0457743Y0216176D01*
X0457786Y0216202D01*
X0457838Y0216228D01*
X0457897Y0216255D01*
X0457963Y0216281D01*
X0457966D01*
X0457973Y0216284D01*
X0457983Y0216287D01*
X0457996Y0216291D01*
X0458012Y0216294D01*
X0458035Y0216301D01*
X0458058Y0216307D01*
X0458088Y0216314D01*
X0458150Y0216323D01*
X0458225Y0216333D01*
X0458307Y0216340D01*
X0458399Y0216343D01*
X0458462D01*
X0458484Y0216340D01*
D02*
G37*
G36*
X0457094Y0213732D02*
X0456749D01*
X0456700Y0215339D01*
X0456677Y0215953D01*
X0456556Y0215595D01*
X0456175Y0214572D01*
X0455933D01*
X0455572Y0215556D01*
X0455450Y0215953D01*
X0455444Y0215313D01*
X0455398Y0213732D01*
X0455067D01*
X0455191Y0216307D01*
X0455608D01*
X0455956Y0215336D01*
X0456067Y0215008D01*
X0456175Y0215336D01*
X0456543Y0216307D01*
X0456969D01*
X0457094Y0213732D01*
D02*
G37*
G36*
X0454801Y0216009D02*
X0454040D01*
Y0213732D01*
X0453686D01*
Y0216009D01*
X0452925D01*
Y0216307D01*
X0454801D01*
Y0216009D01*
D02*
G37*
G36*
X0435077Y0250205D02*
X0435143Y0250201D01*
X0435213Y0250192D01*
X0435356Y0250168D01*
X0435364D01*
X0435389Y0250160D01*
X0435426Y0250151D01*
X0435475Y0250139D01*
X0435532Y0250123D01*
X0435594Y0250102D01*
X0435729Y0250053D01*
Y0249622D01*
X0435721Y0249626D01*
X0435701Y0249639D01*
X0435664Y0249655D01*
X0435618Y0249676D01*
X0435561Y0249700D01*
X0435500Y0249725D01*
X0435434Y0249745D01*
X0435364Y0249766D01*
X0435356Y0249770D01*
X0435331Y0249774D01*
X0435295Y0249782D01*
X0435245Y0249795D01*
X0435184Y0249803D01*
X0435114Y0249811D01*
X0435040Y0249815D01*
X0434958Y0249819D01*
X0434922D01*
X0434876Y0249815D01*
X0434823Y0249807D01*
X0434758Y0249799D01*
X0434692Y0249782D01*
X0434618Y0249762D01*
X0434548Y0249733D01*
X0434540Y0249729D01*
X0434520Y0249717D01*
X0434483Y0249696D01*
X0434442Y0249672D01*
X0434393Y0249635D01*
X0434339Y0249590D01*
X0434286Y0249540D01*
X0434237Y0249483D01*
X0434233Y0249475D01*
X0434216Y0249454D01*
X0434192Y0249422D01*
X0434163Y0249372D01*
X0434134Y0249315D01*
X0434101Y0249249D01*
X0434069Y0249176D01*
X0434040Y0249089D01*
Y0249085D01*
X0434036Y0249077D01*
Y0249065D01*
X0434032Y0249048D01*
X0434024Y0249028D01*
X0434020Y0248999D01*
X0434007Y0248938D01*
X0433995Y0248860D01*
X0433987Y0248770D01*
X0433979Y0248671D01*
X0433974Y0248561D01*
Y0248552D01*
Y0248532D01*
Y0248499D01*
X0433979Y0248458D01*
X0433983Y0248405D01*
X0433987Y0248347D01*
X0433995Y0248282D01*
X0434007Y0248208D01*
X0434036Y0248056D01*
X0434056Y0247978D01*
X0434081Y0247900D01*
X0434110Y0247822D01*
X0434142Y0247749D01*
X0434179Y0247679D01*
X0434225Y0247618D01*
X0434229Y0247613D01*
X0434237Y0247605D01*
X0434253Y0247589D01*
X0434274Y0247568D01*
X0434298Y0247544D01*
X0434331Y0247519D01*
X0434368Y0247490D01*
X0434413Y0247462D01*
X0434462Y0247429D01*
X0434516Y0247400D01*
X0434577Y0247376D01*
X0434647Y0247351D01*
X0434717Y0247330D01*
X0434794Y0247314D01*
X0434876Y0247306D01*
X0434967Y0247302D01*
X0435004D01*
X0435044Y0247306D01*
X0435094D01*
X0435155Y0247314D01*
X0435221Y0247322D01*
X0435295Y0247330D01*
X0435364Y0247347D01*
X0435368D01*
X0435372Y0247351D01*
X0435397Y0247355D01*
X0435434Y0247367D01*
X0435479Y0247384D01*
X0435536Y0247400D01*
X0435598Y0247425D01*
X0435729Y0247482D01*
Y0247068D01*
X0435725D01*
X0435713Y0247060D01*
X0435692Y0247052D01*
X0435664Y0247043D01*
X0435627Y0247031D01*
X0435586Y0247019D01*
X0435536Y0247003D01*
X0435483Y0246990D01*
X0435422Y0246974D01*
X0435360Y0246957D01*
X0435221Y0246933D01*
X0435073Y0246916D01*
X0434917Y0246908D01*
X0434889D01*
X0434852Y0246912D01*
X0434807Y0246916D01*
X0434749Y0246920D01*
X0434684Y0246929D01*
X0434610Y0246941D01*
X0434532Y0246957D01*
X0434450Y0246982D01*
X0434364Y0247007D01*
X0434278Y0247039D01*
X0434188Y0247080D01*
X0434106Y0247126D01*
X0434024Y0247179D01*
X0433946Y0247244D01*
X0433872Y0247314D01*
X0433868Y0247318D01*
X0433855Y0247335D01*
X0433839Y0247359D01*
X0433814Y0247392D01*
X0433786Y0247433D01*
X0433757Y0247486D01*
X0433724Y0247548D01*
X0433692Y0247618D01*
X0433655Y0247699D01*
X0433622Y0247790D01*
X0433593Y0247888D01*
X0433564Y0247995D01*
X0433540Y0248114D01*
X0433523Y0248241D01*
X0433511Y0248376D01*
X0433507Y0248519D01*
Y0248524D01*
Y0248536D01*
Y0248556D01*
Y0248585D01*
X0433511Y0248618D01*
Y0248659D01*
X0433515Y0248704D01*
X0433519Y0248753D01*
X0433532Y0248864D01*
X0433548Y0248979D01*
X0433573Y0249102D01*
X0433605Y0249221D01*
Y0249225D01*
X0433609Y0249233D01*
X0433618Y0249249D01*
X0433626Y0249274D01*
X0433634Y0249299D01*
X0433646Y0249331D01*
X0433679Y0249405D01*
X0433720Y0249487D01*
X0433769Y0249577D01*
X0433827Y0249663D01*
X0433892Y0249749D01*
X0433896Y0249754D01*
X0433901Y0249758D01*
X0433913Y0249770D01*
X0433925Y0249786D01*
X0433966Y0249827D01*
X0434020Y0249877D01*
X0434085Y0249930D01*
X0434163Y0249987D01*
X0434253Y0250041D01*
X0434347Y0250090D01*
X0434352D01*
X0434360Y0250094D01*
X0434376Y0250102D01*
X0434393Y0250110D01*
X0434421Y0250118D01*
X0434450Y0250127D01*
X0434483Y0250139D01*
X0434524Y0250151D01*
X0434610Y0250172D01*
X0434712Y0250192D01*
X0434823Y0250205D01*
X0434942Y0250209D01*
X0435024D01*
X0435077Y0250205D01*
D02*
G37*
G36*
X0440075Y0248634D02*
X0441399Y0246949D01*
X0440850D01*
X0439649Y0248528D01*
Y0246949D01*
X0439210D01*
Y0250168D01*
X0439649D01*
Y0248667D01*
X0440826Y0250168D01*
X0441342D01*
X0440075Y0248634D01*
D02*
G37*
G36*
X0449620Y0246949D02*
X0449025D01*
X0448128Y0248954D01*
X0447869Y0249602D01*
Y0247978D01*
Y0246949D01*
X0447431D01*
Y0250168D01*
X0448017D01*
X0448870Y0248261D01*
X0449181Y0247527D01*
Y0249249D01*
Y0250168D01*
X0449620D01*
Y0246949D01*
D02*
G37*
G36*
X0457959Y0248068D02*
Y0248064D01*
Y0248056D01*
Y0248044D01*
Y0248023D01*
X0457955Y0247999D01*
Y0247974D01*
X0457951Y0247909D01*
X0457939Y0247835D01*
X0457927Y0247753D01*
X0457906Y0247667D01*
X0457881Y0247585D01*
Y0247581D01*
X0457877Y0247576D01*
X0457873Y0247564D01*
X0457869Y0247548D01*
X0457849Y0247511D01*
X0457828Y0247458D01*
X0457795Y0247400D01*
X0457759Y0247343D01*
X0457713Y0247277D01*
X0457660Y0247220D01*
X0457652Y0247212D01*
X0457635Y0247195D01*
X0457603Y0247166D01*
X0457562Y0247134D01*
X0457508Y0247097D01*
X0457451Y0247056D01*
X0457381Y0247019D01*
X0457303Y0246986D01*
X0457299D01*
X0457295Y0246982D01*
X0457283Y0246978D01*
X0457267Y0246974D01*
X0457221Y0246961D01*
X0457164Y0246945D01*
X0457094Y0246929D01*
X0457012Y0246916D01*
X0456922Y0246908D01*
X0456824Y0246904D01*
X0456775D01*
X0456746Y0246908D01*
X0456717D01*
X0456647Y0246912D01*
X0456565Y0246925D01*
X0456479Y0246937D01*
X0456393Y0246957D01*
X0456311Y0246982D01*
X0456307D01*
X0456303Y0246986D01*
X0456278Y0246998D01*
X0456237Y0247015D01*
X0456192Y0247039D01*
X0456135Y0247072D01*
X0456082Y0247109D01*
X0456024Y0247154D01*
X0455971Y0247203D01*
X0455967Y0247212D01*
X0455950Y0247228D01*
X0455926Y0247261D01*
X0455897Y0247302D01*
X0455864Y0247351D01*
X0455836Y0247408D01*
X0455803Y0247474D01*
X0455778Y0247548D01*
Y0247552D01*
X0455774Y0247556D01*
Y0247568D01*
X0455770Y0247585D01*
X0455762Y0247626D01*
X0455750Y0247683D01*
X0455737Y0247749D01*
X0455729Y0247827D01*
X0455725Y0247909D01*
X0455721Y0247999D01*
Y0250168D01*
X0456159D01*
Y0248032D01*
Y0248023D01*
Y0247999D01*
Y0247966D01*
X0456164Y0247921D01*
X0456168Y0247868D01*
X0456172Y0247810D01*
X0456180Y0247757D01*
X0456192Y0247699D01*
Y0247691D01*
X0456201Y0247675D01*
X0456209Y0247650D01*
X0456221Y0247618D01*
X0456237Y0247576D01*
X0456258Y0247540D01*
X0456283Y0247499D01*
X0456311Y0247462D01*
X0456315Y0247458D01*
X0456328Y0247445D01*
X0456344Y0247429D01*
X0456369Y0247408D01*
X0456397Y0247384D01*
X0456434Y0247363D01*
X0456475Y0247339D01*
X0456520Y0247318D01*
X0456524D01*
X0456545Y0247310D01*
X0456574Y0247302D01*
X0456610Y0247294D01*
X0456656Y0247285D01*
X0456709Y0247277D01*
X0456770Y0247273D01*
X0456836Y0247269D01*
X0456869D01*
X0456893Y0247273D01*
X0456922Y0247277D01*
X0456955Y0247281D01*
X0457033Y0247294D01*
X0457115Y0247318D01*
X0457201Y0247355D01*
X0457242Y0247376D01*
X0457283Y0247404D01*
X0457320Y0247433D01*
X0457353Y0247470D01*
Y0247474D01*
X0457361Y0247478D01*
X0457369Y0247490D01*
X0457377Y0247507D01*
X0457394Y0247527D01*
X0457406Y0247552D01*
X0457422Y0247581D01*
X0457439Y0247618D01*
X0457451Y0247654D01*
X0457467Y0247699D01*
X0457484Y0247745D01*
X0457496Y0247794D01*
X0457504Y0247851D01*
X0457513Y0247909D01*
X0457521Y0248040D01*
Y0250168D01*
X0457959D01*
Y0248068D01*
D02*
G37*
G36*
X0460784Y0249795D02*
X0459833D01*
Y0246949D01*
X0459390D01*
Y0249795D01*
X0458439D01*
Y0250168D01*
X0460784D01*
Y0249795D01*
D02*
G37*
G36*
X0446717Y0249799D02*
X0445975D01*
Y0247322D01*
X0446717D01*
Y0246949D01*
X0444790D01*
Y0247322D01*
X0445532D01*
Y0249799D01*
X0444790D01*
Y0250168D01*
X0446717D01*
Y0249799D01*
D02*
G37*
G36*
X0437074Y0247322D02*
X0438480D01*
Y0246949D01*
X0436627D01*
Y0250168D01*
X0437074D01*
Y0247322D01*
D02*
G37*
G36*
X0454167Y0250209D02*
X0454200D01*
X0454274Y0250201D01*
X0454360Y0250184D01*
X0454450Y0250164D01*
X0454540Y0250135D01*
X0454630Y0250098D01*
X0454634D01*
X0454642Y0250094D01*
X0454651Y0250086D01*
X0454667Y0250078D01*
X0454712Y0250049D01*
X0454766Y0250016D01*
X0454823Y0249967D01*
X0454888Y0249909D01*
X0454950Y0249844D01*
X0455012Y0249770D01*
Y0249766D01*
X0455020Y0249762D01*
X0455028Y0249749D01*
X0455036Y0249733D01*
X0455048Y0249713D01*
X0455065Y0249688D01*
X0455098Y0249626D01*
X0455134Y0249553D01*
X0455175Y0249467D01*
X0455208Y0249368D01*
X0455241Y0249257D01*
Y0249253D01*
X0455245Y0249245D01*
X0455249Y0249229D01*
X0455253Y0249204D01*
X0455258Y0249176D01*
X0455266Y0249143D01*
X0455274Y0249106D01*
X0455282Y0249061D01*
X0455286Y0249011D01*
X0455294Y0248958D01*
X0455307Y0248843D01*
X0455315Y0248716D01*
X0455319Y0248577D01*
Y0248573D01*
Y0248556D01*
Y0248536D01*
Y0248503D01*
X0455315Y0248466D01*
Y0248421D01*
X0455311Y0248372D01*
X0455307Y0248319D01*
X0455294Y0248204D01*
X0455274Y0248077D01*
X0455249Y0247950D01*
X0455217Y0247827D01*
Y0247822D01*
X0455212Y0247814D01*
X0455204Y0247798D01*
X0455196Y0247773D01*
X0455188Y0247749D01*
X0455175Y0247716D01*
X0455143Y0247646D01*
X0455102Y0247564D01*
X0455057Y0247474D01*
X0454999Y0247388D01*
X0454938Y0247306D01*
Y0247302D01*
X0454929Y0247298D01*
X0454909Y0247273D01*
X0454872Y0247236D01*
X0454823Y0247191D01*
X0454761Y0247142D01*
X0454696Y0247093D01*
X0454618Y0247043D01*
X0454532Y0247003D01*
X0454528D01*
X0454520Y0246998D01*
X0454507Y0246994D01*
X0454491Y0246986D01*
X0454470Y0246978D01*
X0454446Y0246970D01*
X0454384Y0246953D01*
X0454310Y0246937D01*
X0454224Y0246920D01*
X0454134Y0246908D01*
X0454040Y0246904D01*
X0453987D01*
X0453962Y0246908D01*
X0453929D01*
X0453855Y0246916D01*
X0453773Y0246933D01*
X0453683Y0246949D01*
X0453589Y0246978D01*
X0453499Y0247015D01*
X0453495D01*
X0453490Y0247019D01*
X0453478Y0247027D01*
X0453462Y0247035D01*
X0453417Y0247060D01*
X0453363Y0247097D01*
X0453306Y0247142D01*
X0453240Y0247199D01*
X0453179Y0247265D01*
X0453117Y0247339D01*
Y0247343D01*
X0453109Y0247347D01*
X0453105Y0247359D01*
X0453093Y0247376D01*
X0453080Y0247396D01*
X0453068Y0247421D01*
X0453035Y0247482D01*
X0452998Y0247560D01*
X0452961Y0247646D01*
X0452929Y0247745D01*
X0452896Y0247855D01*
Y0247859D01*
X0452892Y0247868D01*
X0452888Y0247884D01*
X0452884Y0247909D01*
X0452879Y0247937D01*
X0452871Y0247970D01*
X0452867Y0248011D01*
X0452859Y0248056D01*
X0452851Y0248101D01*
X0452847Y0248155D01*
X0452834Y0248273D01*
X0452826Y0248401D01*
X0452822Y0248540D01*
Y0248544D01*
Y0248561D01*
Y0248581D01*
Y0248614D01*
X0452826Y0248651D01*
Y0248692D01*
X0452830Y0248741D01*
X0452834Y0248794D01*
X0452847Y0248909D01*
X0452863Y0249036D01*
X0452888Y0249159D01*
X0452920Y0249282D01*
Y0249286D01*
X0452925Y0249294D01*
X0452933Y0249311D01*
X0452941Y0249335D01*
X0452949Y0249360D01*
X0452961Y0249393D01*
X0452994Y0249467D01*
X0453031Y0249549D01*
X0453080Y0249635D01*
X0453134Y0249721D01*
X0453195Y0249803D01*
X0453199Y0249807D01*
X0453203Y0249811D01*
X0453224Y0249836D01*
X0453261Y0249872D01*
X0453310Y0249922D01*
X0453367Y0249971D01*
X0453437Y0250020D01*
X0453515Y0250069D01*
X0453597Y0250110D01*
X0453601D01*
X0453609Y0250114D01*
X0453622Y0250118D01*
X0453638Y0250127D01*
X0453658Y0250135D01*
X0453683Y0250143D01*
X0453745Y0250164D01*
X0453818Y0250180D01*
X0453904Y0250196D01*
X0453995Y0250209D01*
X0454089Y0250213D01*
X0454142D01*
X0454167Y0250209D01*
D02*
G37*
G36*
X0450600Y0246420D02*
X0450194D01*
X0451883Y0250430D01*
X0452289D01*
X0450600Y0246420D01*
D02*
G37*
G36*
X0034130Y0377990D02*
X0034183Y0377987D01*
X0034238Y0377980D01*
X0034353Y0377961D01*
X0034360D01*
X0034380Y0377954D01*
X0034409Y0377947D01*
X0034448Y0377938D01*
X0034494Y0377924D01*
X0034543Y0377908D01*
X0034652Y0377869D01*
Y0377524D01*
X0034645Y0377528D01*
X0034629Y0377537D01*
X0034599Y0377551D01*
X0034563Y0377567D01*
X0034517Y0377587D01*
X0034468Y0377606D01*
X0034416Y0377623D01*
X0034360Y0377639D01*
X0034353Y0377642D01*
X0034334Y0377646D01*
X0034304Y0377652D01*
X0034265Y0377662D01*
X0034216Y0377669D01*
X0034160Y0377675D01*
X0034101Y0377678D01*
X0034035Y0377682D01*
X0034006D01*
X0033970Y0377678D01*
X0033927Y0377672D01*
X0033874Y0377665D01*
X0033822Y0377652D01*
X0033763Y0377636D01*
X0033707Y0377613D01*
X0033701Y0377610D01*
X0033684Y0377600D01*
X0033655Y0377583D01*
X0033622Y0377564D01*
X0033582Y0377534D01*
X0033540Y0377498D01*
X0033497Y0377459D01*
X0033458Y0377413D01*
X0033455Y0377406D01*
X0033441Y0377390D01*
X0033422Y0377364D01*
X0033399Y0377324D01*
X0033376Y0377278D01*
X0033350Y0377226D01*
X0033323Y0377167D01*
X0033300Y0377098D01*
Y0377095D01*
X0033297Y0377088D01*
Y0377078D01*
X0033294Y0377065D01*
X0033287Y0377049D01*
X0033284Y0377026D01*
X0033274Y0376977D01*
X0033264Y0376914D01*
X0033258Y0376842D01*
X0033251Y0376763D01*
X0033248Y0376675D01*
Y0376668D01*
Y0376652D01*
Y0376626D01*
X0033251Y0376593D01*
X0033255Y0376550D01*
X0033258Y0376504D01*
X0033264Y0376452D01*
X0033274Y0376393D01*
X0033297Y0376271D01*
X0033314Y0376209D01*
X0033333Y0376147D01*
X0033356Y0376084D01*
X0033382Y0376025D01*
X0033412Y0375970D01*
X0033448Y0375921D01*
X0033451Y0375917D01*
X0033458Y0375911D01*
X0033471Y0375898D01*
X0033487Y0375881D01*
X0033507Y0375861D01*
X0033533Y0375842D01*
X0033563Y0375819D01*
X0033599Y0375796D01*
X0033638Y0375770D01*
X0033681Y0375747D01*
X0033730Y0375727D01*
X0033786Y0375707D01*
X0033842Y0375691D01*
X0033904Y0375678D01*
X0033970Y0375671D01*
X0034042Y0375668D01*
X0034071D01*
X0034104Y0375671D01*
X0034143D01*
X0034193Y0375678D01*
X0034245Y0375684D01*
X0034304Y0375691D01*
X0034360Y0375704D01*
X0034363D01*
X0034366Y0375707D01*
X0034386Y0375711D01*
X0034416Y0375720D01*
X0034452Y0375733D01*
X0034498Y0375747D01*
X0034547Y0375766D01*
X0034652Y0375812D01*
Y0375481D01*
X0034648D01*
X0034639Y0375474D01*
X0034622Y0375468D01*
X0034599Y0375461D01*
X0034570Y0375451D01*
X0034537Y0375442D01*
X0034498Y0375429D01*
X0034455Y0375419D01*
X0034406Y0375406D01*
X0034357Y0375392D01*
X0034245Y0375373D01*
X0034127Y0375360D01*
X0034002Y0375353D01*
X0033979D01*
X0033950Y0375356D01*
X0033914Y0375360D01*
X0033868Y0375363D01*
X0033815Y0375369D01*
X0033756Y0375379D01*
X0033694Y0375392D01*
X0033628Y0375412D01*
X0033560Y0375432D01*
X0033491Y0375458D01*
X0033419Y0375491D01*
X0033353Y0375527D01*
X0033287Y0375570D01*
X0033225Y0375622D01*
X0033166Y0375678D01*
X0033163Y0375681D01*
X0033153Y0375694D01*
X0033140Y0375714D01*
X0033120Y0375740D01*
X0033097Y0375773D01*
X0033074Y0375816D01*
X0033048Y0375865D01*
X0033022Y0375921D01*
X0032992Y0375986D01*
X0032966Y0376058D01*
X0032943Y0376137D01*
X0032920Y0376222D01*
X0032900Y0376317D01*
X0032887Y0376419D01*
X0032877Y0376527D01*
X0032874Y0376642D01*
Y0376645D01*
Y0376655D01*
Y0376672D01*
Y0376694D01*
X0032877Y0376721D01*
Y0376754D01*
X0032881Y0376790D01*
X0032884Y0376829D01*
X0032894Y0376918D01*
X0032907Y0377009D01*
X0032926Y0377108D01*
X0032953Y0377203D01*
Y0377206D01*
X0032956Y0377213D01*
X0032963Y0377226D01*
X0032969Y0377246D01*
X0032976Y0377265D01*
X0032985Y0377291D01*
X0033012Y0377351D01*
X0033045Y0377416D01*
X0033084Y0377488D01*
X0033130Y0377557D01*
X0033182Y0377626D01*
X0033186Y0377629D01*
X0033189Y0377633D01*
X0033199Y0377642D01*
X0033209Y0377656D01*
X0033241Y0377688D01*
X0033284Y0377728D01*
X0033336Y0377770D01*
X0033399Y0377816D01*
X0033471Y0377859D01*
X0033546Y0377898D01*
X0033550D01*
X0033556Y0377902D01*
X0033569Y0377908D01*
X0033582Y0377915D01*
X0033606Y0377921D01*
X0033628Y0377928D01*
X0033655Y0377938D01*
X0033687Y0377947D01*
X0033756Y0377964D01*
X0033838Y0377980D01*
X0033927Y0377990D01*
X0034022Y0377993D01*
X0034088D01*
X0034130Y0377990D01*
D02*
G37*
G36*
X0039250Y0375386D02*
X0038906D01*
X0038857Y0376993D01*
X0038834Y0377606D01*
X0038712Y0377249D01*
X0038332Y0376225D01*
X0038089D01*
X0037728Y0377209D01*
X0037607Y0377606D01*
X0037600Y0376967D01*
X0037555Y0375386D01*
X0037223D01*
X0037348Y0377961D01*
X0037764D01*
X0038112Y0376990D01*
X0038224Y0376662D01*
X0038332Y0376990D01*
X0038699Y0377961D01*
X0039126D01*
X0039250Y0375386D01*
D02*
G37*
G36*
X0040448Y0377957D02*
X0040497Y0377954D01*
X0040552Y0377951D01*
X0040615Y0377944D01*
X0040680Y0377931D01*
X0040746Y0377918D01*
X0040749D01*
X0040753Y0377915D01*
X0040762D01*
X0040775Y0377911D01*
X0040808Y0377898D01*
X0040851Y0377885D01*
X0040897Y0377866D01*
X0040949Y0377842D01*
X0041002Y0377813D01*
X0041051Y0377780D01*
X0041058Y0377777D01*
X0041074Y0377764D01*
X0041097Y0377741D01*
X0041130Y0377715D01*
X0041163Y0377678D01*
X0041199Y0377636D01*
X0041232Y0377587D01*
X0041264Y0377534D01*
X0041267Y0377528D01*
X0041277Y0377508D01*
X0041291Y0377475D01*
X0041307Y0377432D01*
X0041320Y0377380D01*
X0041333Y0377318D01*
X0041343Y0377249D01*
X0041346Y0377170D01*
Y0377167D01*
Y0377164D01*
Y0377144D01*
X0041343Y0377111D01*
X0041340Y0377072D01*
X0041333Y0377026D01*
X0041320Y0376973D01*
X0041307Y0376918D01*
X0041287Y0376859D01*
Y0376855D01*
X0041284Y0376852D01*
X0041277Y0376832D01*
X0041261Y0376803D01*
X0041241Y0376767D01*
X0041215Y0376724D01*
X0041186Y0376678D01*
X0041146Y0376629D01*
X0041104Y0376583D01*
X0041097Y0376576D01*
X0041081Y0376563D01*
X0041054Y0376540D01*
X0041018Y0376514D01*
X0040972Y0376481D01*
X0040917Y0376448D01*
X0040854Y0376416D01*
X0040785Y0376386D01*
X0040782D01*
X0040775Y0376383D01*
X0040766Y0376380D01*
X0040753Y0376373D01*
X0040733Y0376370D01*
X0040710Y0376363D01*
X0040684Y0376357D01*
X0040654Y0376350D01*
X0040589Y0376334D01*
X0040510Y0376324D01*
X0040421Y0376314D01*
X0040326Y0376311D01*
X0040008D01*
Y0375386D01*
X0039657D01*
Y0377961D01*
X0040428D01*
X0040448Y0377957D01*
D02*
G37*
G36*
X0036098Y0377993D02*
X0036125D01*
X0036184Y0377987D01*
X0036252Y0377974D01*
X0036325Y0377957D01*
X0036397Y0377934D01*
X0036469Y0377905D01*
X0036472D01*
X0036479Y0377902D01*
X0036485Y0377895D01*
X0036498Y0377888D01*
X0036535Y0377866D01*
X0036577Y0377839D01*
X0036623Y0377800D01*
X0036676Y0377754D01*
X0036725Y0377701D01*
X0036774Y0377642D01*
Y0377639D01*
X0036781Y0377636D01*
X0036787Y0377626D01*
X0036794Y0377613D01*
X0036803Y0377596D01*
X0036817Y0377577D01*
X0036843Y0377528D01*
X0036872Y0377469D01*
X0036905Y0377400D01*
X0036931Y0377321D01*
X0036958Y0377233D01*
Y0377229D01*
X0036961Y0377223D01*
X0036964Y0377209D01*
X0036968Y0377190D01*
X0036971Y0377167D01*
X0036977Y0377141D01*
X0036984Y0377111D01*
X0036990Y0377075D01*
X0036994Y0377036D01*
X0037000Y0376993D01*
X0037010Y0376901D01*
X0037017Y0376800D01*
X0037020Y0376688D01*
Y0376685D01*
Y0376672D01*
Y0376655D01*
Y0376629D01*
X0037017Y0376599D01*
Y0376563D01*
X0037013Y0376524D01*
X0037010Y0376481D01*
X0037000Y0376390D01*
X0036984Y0376288D01*
X0036964Y0376186D01*
X0036938Y0376088D01*
Y0376084D01*
X0036935Y0376078D01*
X0036928Y0376065D01*
X0036922Y0376045D01*
X0036915Y0376025D01*
X0036905Y0375999D01*
X0036879Y0375943D01*
X0036846Y0375878D01*
X0036810Y0375806D01*
X0036764Y0375737D01*
X0036715Y0375671D01*
Y0375668D01*
X0036708Y0375665D01*
X0036692Y0375645D01*
X0036662Y0375615D01*
X0036623Y0375579D01*
X0036574Y0375540D01*
X0036521Y0375501D01*
X0036459Y0375461D01*
X0036390Y0375429D01*
X0036387D01*
X0036380Y0375425D01*
X0036371Y0375422D01*
X0036357Y0375415D01*
X0036341Y0375409D01*
X0036321Y0375402D01*
X0036272Y0375389D01*
X0036213Y0375376D01*
X0036144Y0375363D01*
X0036072Y0375353D01*
X0035997Y0375350D01*
X0035954D01*
X0035934Y0375353D01*
X0035908D01*
X0035849Y0375360D01*
X0035783Y0375373D01*
X0035711Y0375386D01*
X0035636Y0375409D01*
X0035564Y0375438D01*
X0035560D01*
X0035557Y0375442D01*
X0035547Y0375448D01*
X0035534Y0375455D01*
X0035498Y0375474D01*
X0035455Y0375504D01*
X0035410Y0375540D01*
X0035357Y0375586D01*
X0035308Y0375638D01*
X0035259Y0375697D01*
Y0375701D01*
X0035252Y0375704D01*
X0035249Y0375714D01*
X0035239Y0375727D01*
X0035229Y0375743D01*
X0035219Y0375763D01*
X0035193Y0375812D01*
X0035164Y0375874D01*
X0035134Y0375943D01*
X0035108Y0376022D01*
X0035081Y0376111D01*
Y0376114D01*
X0035078Y0376121D01*
X0035075Y0376134D01*
X0035072Y0376153D01*
X0035068Y0376176D01*
X0035062Y0376203D01*
X0035059Y0376235D01*
X0035052Y0376271D01*
X0035045Y0376308D01*
X0035042Y0376350D01*
X0035032Y0376445D01*
X0035026Y0376547D01*
X0035022Y0376659D01*
Y0376662D01*
Y0376675D01*
Y0376691D01*
Y0376717D01*
X0035026Y0376747D01*
Y0376780D01*
X0035029Y0376819D01*
X0035032Y0376862D01*
X0035042Y0376954D01*
X0035055Y0377055D01*
X0035075Y0377154D01*
X0035101Y0377252D01*
Y0377255D01*
X0035104Y0377262D01*
X0035111Y0377275D01*
X0035118Y0377295D01*
X0035124Y0377314D01*
X0035134Y0377341D01*
X0035160Y0377400D01*
X0035190Y0377465D01*
X0035229Y0377534D01*
X0035272Y0377603D01*
X0035321Y0377669D01*
X0035324Y0377672D01*
X0035328Y0377675D01*
X0035344Y0377695D01*
X0035373Y0377725D01*
X0035413Y0377764D01*
X0035459Y0377803D01*
X0035514Y0377842D01*
X0035577Y0377882D01*
X0035642Y0377915D01*
X0035646D01*
X0035652Y0377918D01*
X0035662Y0377921D01*
X0035675Y0377928D01*
X0035691Y0377934D01*
X0035711Y0377941D01*
X0035760Y0377957D01*
X0035820Y0377971D01*
X0035888Y0377984D01*
X0035961Y0377993D01*
X0036036Y0377997D01*
X0036079D01*
X0036098Y0377993D01*
D02*
G37*
G36*
X0012113Y0365297D02*
X0012162Y0365293D01*
X0012218Y0365287D01*
X0012336Y0365267D01*
X0012343D01*
X0012363Y0365261D01*
X0012395Y0365254D01*
X0012435Y0365244D01*
X0012481Y0365231D01*
X0012530Y0365215D01*
X0012582Y0365195D01*
X0012638Y0365172D01*
Y0364824D01*
X0012632Y0364827D01*
X0012612Y0364837D01*
X0012586Y0364850D01*
X0012546Y0364867D01*
X0012500Y0364887D01*
X0012451Y0364906D01*
X0012395Y0364926D01*
X0012340Y0364942D01*
X0012333Y0364946D01*
X0012313Y0364949D01*
X0012284Y0364955D01*
X0012241Y0364965D01*
X0012192Y0364972D01*
X0012136Y0364978D01*
X0012077Y0364982D01*
X0012012Y0364985D01*
X0011979D01*
X0011959Y0364982D01*
X0011940D01*
X0011890Y0364975D01*
X0011834Y0364965D01*
X0011772Y0364952D01*
X0011710Y0364936D01*
X0011648Y0364910D01*
X0011644D01*
X0011641Y0364906D01*
X0011621Y0364896D01*
X0011592Y0364880D01*
X0011552Y0364857D01*
X0011510Y0364827D01*
X0011467Y0364791D01*
X0011421Y0364752D01*
X0011379Y0364703D01*
X0011375Y0364696D01*
X0011362Y0364680D01*
X0011343Y0364650D01*
X0011316Y0364614D01*
X0011290Y0364568D01*
X0011264Y0364513D01*
X0011234Y0364454D01*
X0011211Y0364385D01*
Y0364382D01*
X0011208Y0364375D01*
X0011205Y0364365D01*
X0011202Y0364352D01*
X0011198Y0364335D01*
X0011195Y0364313D01*
X0011185Y0364263D01*
X0011172Y0364201D01*
X0011165Y0364129D01*
X0011159Y0364054D01*
X0011156Y0363968D01*
Y0363965D01*
Y0363958D01*
Y0363945D01*
Y0363929D01*
Y0363909D01*
X0011159Y0363883D01*
X0011162Y0363827D01*
X0011165Y0363761D01*
X0011175Y0363689D01*
X0011185Y0363617D01*
X0011202Y0363545D01*
Y0363542D01*
X0011205Y0363539D01*
X0011208Y0363529D01*
X0011211Y0363515D01*
X0011221Y0363479D01*
X0011238Y0363437D01*
X0011257Y0363384D01*
X0011283Y0363332D01*
X0011313Y0363279D01*
X0011346Y0363227D01*
X0011349Y0363220D01*
X0011366Y0363207D01*
X0011385Y0363184D01*
X0011418Y0363155D01*
X0011454Y0363122D01*
X0011497Y0363089D01*
X0011549Y0363060D01*
X0011605Y0363030D01*
X0011608D01*
X0011611Y0363027D01*
X0011621Y0363023D01*
X0011635Y0363020D01*
X0011667Y0363007D01*
X0011710Y0362997D01*
X0011766Y0362984D01*
X0011828Y0362971D01*
X0011900Y0362965D01*
X0011979Y0362961D01*
X0012031D01*
X0012061Y0362965D01*
X0012067D01*
X0012087Y0362968D01*
X0012113Y0362971D01*
X0012146Y0362974D01*
X0012153D01*
X0012172Y0362978D01*
X0012199Y0362984D01*
X0012228Y0362991D01*
X0012231D01*
X0012235Y0362994D01*
X0012254Y0362997D01*
X0012277Y0363004D01*
X0012304Y0363014D01*
Y0363837D01*
X0011779D01*
Y0364126D01*
X0012651D01*
Y0362807D01*
X0012648D01*
X0012638Y0362801D01*
X0012622Y0362794D01*
X0012599Y0362784D01*
X0012573Y0362774D01*
X0012543Y0362764D01*
X0012477Y0362741D01*
X0012474D01*
X0012461Y0362738D01*
X0012445Y0362732D01*
X0012422Y0362725D01*
X0012392Y0362715D01*
X0012363Y0362709D01*
X0012294Y0362692D01*
X0012291D01*
X0012277Y0362689D01*
X0012261Y0362686D01*
X0012238Y0362682D01*
X0012208Y0362679D01*
X0012179Y0362676D01*
X0012110Y0362666D01*
X0012107D01*
X0012094Y0362663D01*
X0012077D01*
X0012054Y0362660D01*
X0012025Y0362656D01*
X0011995D01*
X0011930Y0362653D01*
X0011887D01*
X0011861Y0362656D01*
X0011834D01*
X0011805Y0362660D01*
X0011772Y0362663D01*
X0011697Y0362673D01*
X0011618Y0362689D01*
X0011536Y0362709D01*
X0011454Y0362735D01*
X0011451D01*
X0011444Y0362738D01*
X0011434Y0362745D01*
X0011418Y0362751D01*
X0011402Y0362758D01*
X0011379Y0362771D01*
X0011329Y0362797D01*
X0011274Y0362830D01*
X0011215Y0362873D01*
X0011152Y0362922D01*
X0011093Y0362978D01*
Y0362981D01*
X0011087Y0362984D01*
X0011080Y0362994D01*
X0011070Y0363007D01*
X0011057Y0363023D01*
X0011044Y0363043D01*
X0011011Y0363089D01*
X0010972Y0363148D01*
X0010936Y0363217D01*
X0010900Y0363296D01*
X0010867Y0363384D01*
Y0363388D01*
X0010864Y0363394D01*
X0010860Y0363407D01*
X0010854Y0363427D01*
X0010847Y0363450D01*
X0010841Y0363479D01*
X0010834Y0363509D01*
X0010828Y0363545D01*
X0010821Y0363584D01*
X0010814Y0363627D01*
X0010801Y0363722D01*
X0010791Y0363830D01*
X0010788Y0363945D01*
Y0363948D01*
Y0363958D01*
Y0363975D01*
Y0363998D01*
X0010791Y0364027D01*
Y0364060D01*
X0010795Y0364096D01*
X0010798Y0364136D01*
X0010811Y0364224D01*
X0010824Y0364319D01*
X0010847Y0364418D01*
X0010877Y0364513D01*
Y0364516D01*
X0010880Y0364523D01*
X0010887Y0364536D01*
X0010893Y0364555D01*
X0010903Y0364578D01*
X0010913Y0364601D01*
X0010942Y0364660D01*
X0010975Y0364729D01*
X0011018Y0364798D01*
X0011067Y0364870D01*
X0011123Y0364939D01*
X0011126Y0364942D01*
X0011129Y0364946D01*
X0011139Y0364955D01*
X0011152Y0364969D01*
X0011185Y0365001D01*
X0011231Y0365041D01*
X0011287Y0365083D01*
X0011352Y0365126D01*
X0011428Y0365169D01*
X0011510Y0365208D01*
X0011513D01*
X0011520Y0365211D01*
X0011533Y0365218D01*
X0011549Y0365221D01*
X0011572Y0365231D01*
X0011595Y0365237D01*
X0011625Y0365244D01*
X0011657Y0365254D01*
X0011730Y0365270D01*
X0011815Y0365287D01*
X0011910Y0365297D01*
X0012008Y0365300D01*
X0012071D01*
X0012113Y0365297D01*
D02*
G37*
G36*
X0014859Y0362689D02*
X0014383D01*
X0013665Y0364293D01*
X0013458Y0364811D01*
Y0363512D01*
Y0362689D01*
X0013107D01*
Y0365264D01*
X0013576D01*
X0014258Y0363739D01*
X0014508Y0363152D01*
Y0364529D01*
Y0365264D01*
X0014859D01*
Y0362689D01*
D02*
G37*
G36*
X0016026Y0365261D02*
X0016066D01*
X0016115Y0365254D01*
X0016174Y0365247D01*
X0016236Y0365237D01*
X0016305Y0365224D01*
X0016377Y0365208D01*
X0016453Y0365188D01*
X0016528Y0365162D01*
X0016600Y0365133D01*
X0016672Y0365096D01*
X0016741Y0365054D01*
X0016807Y0365008D01*
X0016866Y0364952D01*
X0016869Y0364949D01*
X0016879Y0364939D01*
X0016892Y0364919D01*
X0016912Y0364893D01*
X0016935Y0364860D01*
X0016961Y0364821D01*
X0016987Y0364772D01*
X0017017Y0364716D01*
X0017043Y0364654D01*
X0017069Y0364585D01*
X0017096Y0364506D01*
X0017119Y0364421D01*
X0017138Y0364329D01*
X0017151Y0364227D01*
X0017161Y0364119D01*
X0017165Y0364004D01*
Y0364001D01*
Y0363994D01*
Y0363985D01*
Y0363971D01*
Y0363935D01*
X0017161Y0363890D01*
X0017158Y0363834D01*
X0017151Y0363775D01*
X0017135Y0363647D01*
Y0363644D01*
Y0363640D01*
X0017132Y0363630D01*
X0017129Y0363617D01*
X0017122Y0363588D01*
X0017112Y0363545D01*
X0017099Y0363496D01*
X0017083Y0363443D01*
X0017043Y0363332D01*
X0017040Y0363325D01*
X0017033Y0363309D01*
X0017017Y0363279D01*
X0017000Y0363243D01*
X0016974Y0363204D01*
X0016948Y0363158D01*
X0016915Y0363112D01*
X0016879Y0363066D01*
X0016876Y0363060D01*
X0016860Y0363047D01*
X0016840Y0363023D01*
X0016810Y0362997D01*
X0016774Y0362965D01*
X0016732Y0362932D01*
X0016682Y0362896D01*
X0016630Y0362863D01*
X0016623Y0362860D01*
X0016604Y0362850D01*
X0016574Y0362833D01*
X0016535Y0362817D01*
X0016486Y0362797D01*
X0016427Y0362774D01*
X0016361Y0362755D01*
X0016292Y0362735D01*
X0016289D01*
X0016282Y0362732D01*
X0016272D01*
X0016259Y0362728D01*
X0016240Y0362725D01*
X0016220Y0362722D01*
X0016167Y0362712D01*
X0016102Y0362702D01*
X0016026Y0362696D01*
X0015944Y0362692D01*
X0015856Y0362689D01*
X0015305D01*
Y0365264D01*
X0015994D01*
X0016026Y0365261D01*
D02*
G37*
%LPC*%
G36*
X0453876Y0166012D02*
X0453548D01*
Y0165159D01*
X0453876D01*
X0453906Y0165162D01*
X0453938Y0165166D01*
X0453978Y0165169D01*
X0454053Y0165185D01*
X0454056D01*
X0454070Y0165192D01*
X0454089Y0165198D01*
X0454112Y0165208D01*
X0454165Y0165234D01*
X0454220Y0165271D01*
X0454224Y0165274D01*
X0454234Y0165280D01*
X0454247Y0165294D01*
X0454263Y0165310D01*
X0454280Y0165330D01*
X0454299Y0165353D01*
X0454332Y0165408D01*
X0454335Y0165412D01*
X0454339Y0165421D01*
X0454345Y0165441D01*
X0454352Y0165464D01*
X0454358Y0165490D01*
X0454365Y0165523D01*
X0454371Y0165559D01*
Y0165599D01*
Y0165602D01*
Y0165608D01*
Y0165618D01*
X0454368Y0165631D01*
X0454365Y0165671D01*
X0454355Y0165713D01*
X0454339Y0165766D01*
X0454316Y0165815D01*
X0454283Y0165864D01*
X0454240Y0165907D01*
X0454234Y0165910D01*
X0454217Y0165923D01*
X0454188Y0165940D01*
X0454148Y0165959D01*
X0454096Y0165979D01*
X0454034Y0165996D01*
X0453958Y0166009D01*
X0453876Y0166012D01*
D02*
G37*
G36*
X0457943Y0176012D02*
X0457645D01*
Y0174034D01*
X0457927D01*
X0457943Y0174037D01*
X0457963D01*
X0457986Y0174041D01*
X0458042Y0174050D01*
X0458107Y0174064D01*
X0458183Y0174086D01*
X0458261Y0174116D01*
X0458347Y0174159D01*
X0458429Y0174211D01*
X0458468Y0174241D01*
X0458507Y0174277D01*
X0458547Y0174313D01*
X0458583Y0174355D01*
X0458616Y0174401D01*
X0458648Y0174451D01*
X0458678Y0174506D01*
X0458704Y0174562D01*
X0458727Y0174628D01*
X0458747Y0174697D01*
X0458763Y0174769D01*
X0458776Y0174847D01*
X0458783Y0174933D01*
X0458786Y0175021D01*
Y0175025D01*
Y0175034D01*
Y0175048D01*
Y0175067D01*
Y0175090D01*
X0458783Y0175116D01*
X0458780Y0175182D01*
X0458773Y0175254D01*
X0458763Y0175333D01*
X0458750Y0175408D01*
X0458734Y0175484D01*
Y0175487D01*
X0458730Y0175494D01*
X0458727Y0175504D01*
X0458724Y0175517D01*
X0458711Y0175549D01*
X0458694Y0175592D01*
X0458671Y0175641D01*
X0458645Y0175694D01*
X0458612Y0175743D01*
X0458576Y0175789D01*
X0458573Y0175795D01*
X0458557Y0175809D01*
X0458537Y0175828D01*
X0458504Y0175854D01*
X0458468Y0175884D01*
X0458422Y0175910D01*
X0458373Y0175936D01*
X0458314Y0175959D01*
X0458311D01*
X0458307Y0175963D01*
X0458297Y0175966D01*
X0458288Y0175969D01*
X0458252Y0175976D01*
X0458209Y0175986D01*
X0458153Y0175996D01*
X0458091Y0176005D01*
X0458022Y0176009D01*
X0457943Y0176012D01*
D02*
G37*
G36*
X0455690Y0196012D02*
X0455391D01*
Y0194034D01*
X0455674D01*
X0455690Y0194037D01*
X0455710D01*
X0455732Y0194041D01*
X0455788Y0194050D01*
X0455854Y0194063D01*
X0455929Y0194087D01*
X0456008Y0194116D01*
X0456093Y0194159D01*
X0456175Y0194211D01*
X0456215Y0194241D01*
X0456254Y0194277D01*
X0456293Y0194313D01*
X0456329Y0194355D01*
X0456362Y0194401D01*
X0456395Y0194451D01*
X0456425Y0194506D01*
X0456451Y0194562D01*
X0456474Y0194628D01*
X0456494Y0194697D01*
X0456510Y0194769D01*
X0456523Y0194848D01*
X0456530Y0194933D01*
X0456533Y0195021D01*
Y0195025D01*
Y0195034D01*
Y0195047D01*
Y0195067D01*
Y0195090D01*
X0456530Y0195116D01*
X0456526Y0195182D01*
X0456520Y0195254D01*
X0456510Y0195333D01*
X0456497Y0195408D01*
X0456480Y0195484D01*
Y0195487D01*
X0456477Y0195494D01*
X0456474Y0195503D01*
X0456470Y0195517D01*
X0456457Y0195549D01*
X0456441Y0195592D01*
X0456418Y0195641D01*
X0456392Y0195694D01*
X0456359Y0195743D01*
X0456323Y0195789D01*
X0456320Y0195795D01*
X0456303Y0195808D01*
X0456284Y0195828D01*
X0456251Y0195854D01*
X0456215Y0195884D01*
X0456169Y0195910D01*
X0456119Y0195936D01*
X0456061Y0195959D01*
X0456057D01*
X0456054Y0195963D01*
X0456044Y0195966D01*
X0456034Y0195969D01*
X0455998Y0195976D01*
X0455956Y0195986D01*
X0455900Y0195995D01*
X0455837Y0196005D01*
X0455769Y0196009D01*
X0455690Y0196012D01*
D02*
G37*
G36*
X0458150Y0196035D02*
X0458120D01*
X0458091Y0196031D01*
X0458051Y0196025D01*
X0458006Y0196015D01*
X0457956Y0195999D01*
X0457907Y0195979D01*
X0457861Y0195953D01*
X0457855Y0195949D01*
X0457842Y0195940D01*
X0457819Y0195920D01*
X0457792Y0195897D01*
X0457760Y0195864D01*
X0457727Y0195828D01*
X0457694Y0195785D01*
X0457661Y0195736D01*
X0457658Y0195730D01*
X0457648Y0195713D01*
X0457635Y0195684D01*
X0457619Y0195644D01*
X0457599Y0195599D01*
X0457579Y0195543D01*
X0457559Y0195481D01*
X0457543Y0195415D01*
Y0195412D01*
Y0195408D01*
X0457540Y0195395D01*
X0457537Y0195382D01*
X0457533Y0195366D01*
Y0195346D01*
X0457527Y0195297D01*
X0457520Y0195238D01*
X0457514Y0195172D01*
X0457510Y0195100D01*
X0457507Y0195025D01*
Y0195021D01*
Y0195015D01*
Y0195002D01*
Y0194985D01*
Y0194966D01*
X0457510Y0194943D01*
Y0194887D01*
X0457517Y0194821D01*
X0457523Y0194752D01*
X0457530Y0194677D01*
X0457543Y0194605D01*
Y0194602D01*
X0457546Y0194598D01*
Y0194588D01*
X0457550Y0194572D01*
X0457559Y0194539D01*
X0457569Y0194493D01*
X0457586Y0194444D01*
X0457605Y0194392D01*
X0457628Y0194336D01*
X0457655Y0194283D01*
X0457658Y0194277D01*
X0457668Y0194260D01*
X0457687Y0194237D01*
X0457710Y0194208D01*
X0457737Y0194172D01*
X0457773Y0194139D01*
X0457812Y0194103D01*
X0457855Y0194073D01*
X0457861Y0194070D01*
X0457878Y0194063D01*
X0457904Y0194050D01*
X0457940Y0194037D01*
X0457983Y0194024D01*
X0458032Y0194011D01*
X0458088Y0194004D01*
X0458150Y0194001D01*
X0458179D01*
X0458209Y0194004D01*
X0458252Y0194011D01*
X0458297Y0194021D01*
X0458347Y0194034D01*
X0458396Y0194054D01*
X0458442Y0194080D01*
X0458448Y0194083D01*
X0458462Y0194093D01*
X0458484Y0194113D01*
X0458514Y0194136D01*
X0458547Y0194168D01*
X0458580Y0194205D01*
X0458612Y0194247D01*
X0458645Y0194296D01*
X0458648Y0194303D01*
X0458658Y0194319D01*
X0458671Y0194349D01*
X0458691Y0194388D01*
X0458708Y0194434D01*
X0458727Y0194490D01*
X0458747Y0194549D01*
X0458763Y0194615D01*
Y0194618D01*
X0458767Y0194624D01*
Y0194634D01*
X0458770Y0194647D01*
X0458773Y0194664D01*
X0458776Y0194684D01*
X0458783Y0194733D01*
X0458789Y0194792D01*
X0458796Y0194857D01*
X0458803Y0194933D01*
Y0195008D01*
Y0195011D01*
Y0195018D01*
Y0195031D01*
Y0195047D01*
Y0195067D01*
X0458799Y0195090D01*
Y0195146D01*
X0458793Y0195208D01*
X0458786Y0195277D01*
X0458780Y0195349D01*
X0458767Y0195422D01*
Y0195425D01*
Y0195431D01*
X0458763Y0195441D01*
X0458760Y0195454D01*
X0458750Y0195490D01*
X0458740Y0195533D01*
X0458724Y0195586D01*
X0458704Y0195638D01*
X0458678Y0195694D01*
X0458652Y0195746D01*
X0458648Y0195753D01*
X0458639Y0195769D01*
X0458619Y0195795D01*
X0458596Y0195825D01*
X0458566Y0195858D01*
X0458534Y0195894D01*
X0458494Y0195930D01*
X0458448Y0195959D01*
X0458442Y0195963D01*
X0458425Y0195973D01*
X0458399Y0195982D01*
X0458366Y0195999D01*
X0458324Y0196012D01*
X0458271Y0196022D01*
X0458212Y0196031D01*
X0458150Y0196035D01*
D02*
G37*
G36*
X0455920Y0206012D02*
X0455621D01*
Y0204034D01*
X0455903D01*
X0455920Y0204037D01*
X0455939D01*
X0455962Y0204041D01*
X0456018Y0204050D01*
X0456083Y0204064D01*
X0456159Y0204086D01*
X0456238Y0204116D01*
X0456323Y0204159D01*
X0456405Y0204211D01*
X0456444Y0204241D01*
X0456484Y0204277D01*
X0456523Y0204313D01*
X0456559Y0204356D01*
X0456592Y0204401D01*
X0456625Y0204451D01*
X0456654Y0204506D01*
X0456680Y0204562D01*
X0456703Y0204628D01*
X0456723Y0204697D01*
X0456740Y0204769D01*
X0456753Y0204848D01*
X0456759Y0204933D01*
X0456762Y0205021D01*
Y0205025D01*
Y0205034D01*
Y0205048D01*
Y0205067D01*
Y0205090D01*
X0456759Y0205116D01*
X0456756Y0205182D01*
X0456749Y0205254D01*
X0456740Y0205333D01*
X0456726Y0205408D01*
X0456710Y0205484D01*
Y0205487D01*
X0456707Y0205494D01*
X0456703Y0205504D01*
X0456700Y0205517D01*
X0456687Y0205549D01*
X0456671Y0205592D01*
X0456648Y0205641D01*
X0456621Y0205694D01*
X0456589Y0205743D01*
X0456553Y0205789D01*
X0456549Y0205795D01*
X0456533Y0205808D01*
X0456513Y0205828D01*
X0456480Y0205854D01*
X0456444Y0205884D01*
X0456398Y0205910D01*
X0456349Y0205936D01*
X0456290Y0205959D01*
X0456287D01*
X0456284Y0205963D01*
X0456274Y0205966D01*
X0456264Y0205969D01*
X0456228Y0205976D01*
X0456185Y0205986D01*
X0456129Y0205995D01*
X0456067Y0206005D01*
X0455998Y0206009D01*
X0455920Y0206012D01*
D02*
G37*
G36*
X0454064Y0249827D02*
X0454028D01*
X0453991Y0249823D01*
X0453941Y0249815D01*
X0453884Y0249803D01*
X0453823Y0249782D01*
X0453761Y0249758D01*
X0453704Y0249725D01*
X0453695Y0249721D01*
X0453679Y0249709D01*
X0453650Y0249684D01*
X0453617Y0249655D01*
X0453577Y0249614D01*
X0453536Y0249569D01*
X0453495Y0249516D01*
X0453453Y0249454D01*
X0453449Y0249446D01*
X0453437Y0249426D01*
X0453421Y0249389D01*
X0453400Y0249340D01*
X0453376Y0249282D01*
X0453351Y0249212D01*
X0453326Y0249134D01*
X0453306Y0249053D01*
Y0249048D01*
Y0249044D01*
X0453302Y0249028D01*
X0453298Y0249011D01*
X0453294Y0248991D01*
Y0248966D01*
X0453285Y0248905D01*
X0453277Y0248831D01*
X0453269Y0248749D01*
X0453265Y0248659D01*
X0453261Y0248565D01*
Y0248561D01*
Y0248552D01*
Y0248536D01*
Y0248515D01*
Y0248491D01*
X0453265Y0248462D01*
Y0248392D01*
X0453273Y0248310D01*
X0453281Y0248224D01*
X0453290Y0248130D01*
X0453306Y0248040D01*
Y0248036D01*
X0453310Y0248032D01*
Y0248019D01*
X0453314Y0247999D01*
X0453326Y0247958D01*
X0453339Y0247900D01*
X0453359Y0247839D01*
X0453384Y0247773D01*
X0453412Y0247704D01*
X0453445Y0247638D01*
X0453449Y0247630D01*
X0453462Y0247609D01*
X0453486Y0247581D01*
X0453515Y0247544D01*
X0453548Y0247499D01*
X0453593Y0247458D01*
X0453642Y0247412D01*
X0453695Y0247376D01*
X0453704Y0247372D01*
X0453724Y0247363D01*
X0453757Y0247347D01*
X0453802Y0247330D01*
X0453855Y0247314D01*
X0453917Y0247298D01*
X0453987Y0247289D01*
X0454064Y0247285D01*
X0454101D01*
X0454138Y0247289D01*
X0454191Y0247298D01*
X0454249Y0247310D01*
X0454310Y0247326D01*
X0454372Y0247351D01*
X0454429Y0247384D01*
X0454437Y0247388D01*
X0454454Y0247400D01*
X0454483Y0247425D01*
X0454520Y0247453D01*
X0454561Y0247495D01*
X0454601Y0247540D01*
X0454642Y0247593D01*
X0454683Y0247654D01*
X0454688Y0247663D01*
X0454700Y0247683D01*
X0454716Y0247720D01*
X0454741Y0247769D01*
X0454761Y0247827D01*
X0454786Y0247896D01*
X0454811Y0247970D01*
X0454831Y0248052D01*
Y0248056D01*
X0454835Y0248064D01*
Y0248077D01*
X0454839Y0248093D01*
X0454843Y0248114D01*
X0454847Y0248138D01*
X0454856Y0248200D01*
X0454864Y0248273D01*
X0454872Y0248356D01*
X0454880Y0248450D01*
Y0248544D01*
Y0248548D01*
Y0248556D01*
Y0248573D01*
Y0248593D01*
Y0248618D01*
X0454876Y0248647D01*
Y0248716D01*
X0454868Y0248794D01*
X0454860Y0248880D01*
X0454852Y0248971D01*
X0454835Y0249061D01*
Y0249065D01*
Y0249073D01*
X0454831Y0249085D01*
X0454827Y0249102D01*
X0454815Y0249147D01*
X0454802Y0249200D01*
X0454782Y0249266D01*
X0454757Y0249331D01*
X0454725Y0249401D01*
X0454692Y0249467D01*
X0454688Y0249475D01*
X0454675Y0249495D01*
X0454651Y0249528D01*
X0454622Y0249565D01*
X0454585Y0249606D01*
X0454544Y0249651D01*
X0454495Y0249696D01*
X0454437Y0249733D01*
X0454429Y0249737D01*
X0454409Y0249749D01*
X0454376Y0249762D01*
X0454335Y0249782D01*
X0454282Y0249799D01*
X0454216Y0249811D01*
X0454142Y0249823D01*
X0454064Y0249827D01*
D02*
G37*
G36*
X0040365Y0377669D02*
X0040008D01*
Y0376609D01*
X0040362D01*
X0040385Y0376613D01*
X0040411D01*
X0040441Y0376616D01*
X0040474Y0376619D01*
X0040510Y0376626D01*
X0040585Y0376642D01*
X0040667Y0376665D01*
X0040743Y0376698D01*
X0040779Y0376721D01*
X0040812Y0376744D01*
X0040815Y0376747D01*
X0040818Y0376750D01*
X0040838Y0376770D01*
X0040864Y0376800D01*
X0040897Y0376845D01*
X0040930Y0376905D01*
X0040956Y0376973D01*
X0040966Y0377013D01*
X0040976Y0377059D01*
X0040979Y0377105D01*
X0040982Y0377154D01*
Y0377157D01*
Y0377164D01*
Y0377177D01*
X0040979Y0377196D01*
Y0377216D01*
X0040972Y0377239D01*
X0040962Y0377295D01*
X0040943Y0377357D01*
X0040913Y0377419D01*
X0040894Y0377449D01*
X0040874Y0377482D01*
X0040848Y0377508D01*
X0040818Y0377534D01*
X0040815D01*
X0040812Y0377541D01*
X0040802Y0377547D01*
X0040789Y0377554D01*
X0040772Y0377567D01*
X0040753Y0377577D01*
X0040730Y0377590D01*
X0040700Y0377603D01*
X0040671Y0377613D01*
X0040638Y0377626D01*
X0040598Y0377639D01*
X0040559Y0377649D01*
X0040470Y0377662D01*
X0040365Y0377669D01*
D02*
G37*
G36*
X0036016Y0377688D02*
X0035987D01*
X0035957Y0377685D01*
X0035918Y0377678D01*
X0035872Y0377669D01*
X0035823Y0377652D01*
X0035774Y0377633D01*
X0035728Y0377606D01*
X0035721Y0377603D01*
X0035708Y0377593D01*
X0035685Y0377574D01*
X0035659Y0377551D01*
X0035626Y0377518D01*
X0035593Y0377482D01*
X0035560Y0377439D01*
X0035528Y0377390D01*
X0035524Y0377383D01*
X0035514Y0377367D01*
X0035501Y0377337D01*
X0035485Y0377298D01*
X0035465Y0377252D01*
X0035445Y0377196D01*
X0035426Y0377134D01*
X0035410Y0377068D01*
Y0377065D01*
Y0377062D01*
X0035406Y0377049D01*
X0035403Y0377036D01*
X0035400Y0377019D01*
Y0377000D01*
X0035393Y0376950D01*
X0035386Y0376891D01*
X0035380Y0376826D01*
X0035377Y0376754D01*
X0035373Y0376678D01*
Y0376675D01*
Y0376668D01*
Y0376655D01*
Y0376639D01*
Y0376619D01*
X0035377Y0376596D01*
Y0376540D01*
X0035383Y0376475D01*
X0035390Y0376406D01*
X0035396Y0376330D01*
X0035410Y0376258D01*
Y0376255D01*
X0035413Y0376252D01*
Y0376242D01*
X0035416Y0376225D01*
X0035426Y0376193D01*
X0035436Y0376147D01*
X0035452Y0376098D01*
X0035472Y0376045D01*
X0035495Y0375989D01*
X0035521Y0375937D01*
X0035524Y0375930D01*
X0035534Y0375914D01*
X0035554Y0375891D01*
X0035577Y0375861D01*
X0035603Y0375825D01*
X0035639Y0375793D01*
X0035678Y0375757D01*
X0035721Y0375727D01*
X0035728Y0375724D01*
X0035744Y0375717D01*
X0035770Y0375704D01*
X0035806Y0375691D01*
X0035849Y0375678D01*
X0035898Y0375665D01*
X0035954Y0375658D01*
X0036016Y0375655D01*
X0036046D01*
X0036075Y0375658D01*
X0036118Y0375665D01*
X0036164Y0375675D01*
X0036213Y0375688D01*
X0036262Y0375707D01*
X0036308Y0375733D01*
X0036315Y0375737D01*
X0036328Y0375747D01*
X0036351Y0375766D01*
X0036380Y0375789D01*
X0036413Y0375822D01*
X0036446Y0375858D01*
X0036479Y0375901D01*
X0036511Y0375950D01*
X0036515Y0375957D01*
X0036525Y0375973D01*
X0036538Y0376003D01*
X0036557Y0376042D01*
X0036574Y0376088D01*
X0036593Y0376144D01*
X0036613Y0376203D01*
X0036630Y0376268D01*
Y0376271D01*
X0036633Y0376278D01*
Y0376288D01*
X0036636Y0376301D01*
X0036639Y0376317D01*
X0036643Y0376337D01*
X0036649Y0376386D01*
X0036656Y0376445D01*
X0036662Y0376511D01*
X0036669Y0376586D01*
Y0376662D01*
Y0376665D01*
Y0376672D01*
Y0376685D01*
Y0376701D01*
Y0376721D01*
X0036666Y0376744D01*
Y0376800D01*
X0036659Y0376862D01*
X0036653Y0376931D01*
X0036646Y0377003D01*
X0036633Y0377075D01*
Y0377078D01*
Y0377085D01*
X0036630Y0377095D01*
X0036626Y0377108D01*
X0036617Y0377144D01*
X0036607Y0377186D01*
X0036590Y0377239D01*
X0036571Y0377291D01*
X0036544Y0377347D01*
X0036518Y0377400D01*
X0036515Y0377406D01*
X0036505Y0377423D01*
X0036485Y0377449D01*
X0036462Y0377479D01*
X0036433Y0377511D01*
X0036400Y0377547D01*
X0036361Y0377583D01*
X0036315Y0377613D01*
X0036308Y0377616D01*
X0036292Y0377626D01*
X0036266Y0377636D01*
X0036233Y0377652D01*
X0036190Y0377665D01*
X0036138Y0377675D01*
X0036079Y0377685D01*
X0036016Y0377688D01*
D02*
G37*
G36*
X0015954Y0364969D02*
X0015656D01*
Y0362991D01*
X0015938D01*
X0015954Y0362994D01*
X0015974D01*
X0015997Y0362997D01*
X0016053Y0363007D01*
X0016118Y0363020D01*
X0016194Y0363043D01*
X0016272Y0363073D01*
X0016358Y0363115D01*
X0016440Y0363168D01*
X0016479Y0363197D01*
X0016518Y0363233D01*
X0016558Y0363269D01*
X0016594Y0363312D01*
X0016627Y0363358D01*
X0016659Y0363407D01*
X0016689Y0363463D01*
X0016715Y0363519D01*
X0016738Y0363584D01*
X0016758Y0363653D01*
X0016774Y0363725D01*
X0016787Y0363804D01*
X0016794Y0363890D01*
X0016797Y0363978D01*
Y0363981D01*
Y0363991D01*
Y0364004D01*
Y0364024D01*
Y0364047D01*
X0016794Y0364073D01*
X0016791Y0364139D01*
X0016784Y0364211D01*
X0016774Y0364290D01*
X0016761Y0364365D01*
X0016745Y0364440D01*
Y0364444D01*
X0016741Y0364450D01*
X0016738Y0364460D01*
X0016735Y0364473D01*
X0016722Y0364506D01*
X0016705Y0364549D01*
X0016682Y0364598D01*
X0016656Y0364650D01*
X0016623Y0364700D01*
X0016587Y0364745D01*
X0016584Y0364752D01*
X0016568Y0364765D01*
X0016548Y0364785D01*
X0016515Y0364811D01*
X0016479Y0364841D01*
X0016433Y0364867D01*
X0016384Y0364893D01*
X0016325Y0364916D01*
X0016322D01*
X0016318Y0364919D01*
X0016308Y0364923D01*
X0016299Y0364926D01*
X0016262Y0364932D01*
X0016220Y0364942D01*
X0016164Y0364952D01*
X0016102Y0364962D01*
X0016033Y0364965D01*
X0015954Y0364969D01*
D02*
G37*
%LPD*%
D10*
X0271894Y0118504D02*
G03*
X0271894Y0118504I-0001500J0000000D01*
G01*
D11*
X0336516Y0343110D02*
G03*
X0336516Y0343110I-0000197J0000000D01*
G01*
X0235500Y0099983D02*
G03*
X0239043Y0103526I0000000J0003543D01*
G01*
X0215421D02*
G03*
X0218965Y0099983I0003543J0000000D01*
G01*
Y0226951D02*
G03*
X0215421Y0223408I0000000J-0003543D01*
G01*
X0239043D02*
G03*
X0235500Y0226951I-0003543J0000000D01*
G01*
X0365028Y0223408D02*
G03*
X0361484Y0226951I-0003543J0000000D01*
G01*
X0344949D02*
G03*
X0341406Y0223408I0000000J-0003543D01*
G01*
Y0103526D02*
G03*
X0344949Y0099983I0003543J0000000D01*
G01*
X0361484D02*
G03*
X0365028Y0103526I0000000J0003543D01*
G01*
X0246429Y0072526D02*
G03*
X0249972Y0068983I0003543J0000000D01*
G01*
Y0092605D02*
G03*
X0246429Y0089062I0000000J-0003543D01*
G01*
X0334028D02*
G03*
X0330484Y0092605I-0003543J0000000D01*
G01*
Y0068983D02*
G03*
X0334028Y0072526I0000000J0003543D01*
G01*
X0384449Y0142028D02*
G03*
X0384449Y0142028I-0000197J0000000D01*
G01*
X0318073Y0359746D02*
G03*
X0318073Y0359746I-0000197J0000000D01*
G01*
X0218965Y0099983D02*
X0235500D01*
X0215421Y0103526D02*
Y0223408D01*
X0218965Y0226951D02*
X0235500D01*
X0239043Y0103526D02*
Y0223408D01*
X0365028Y0103526D02*
Y0223408D01*
X0344949Y0226951D02*
X0361484D01*
X0341406Y0103526D02*
Y0223408D01*
X0344949Y0099983D02*
X0361484D01*
X0246429Y0072526D02*
Y0089062D01*
X0249972Y0092605D02*
X0330484D01*
X0334028Y0072526D02*
Y0089062D01*
X0249972Y0068983D02*
X0330484D01*
X0362106Y0359350D02*
X0367224D01*
X0362106Y0352658D02*
X0367224D01*
X0262106Y0348622D02*
Y0357283D01*
X0250295Y0348622D02*
Y0357283D01*
X0262106D01*
X0250295Y0348622D02*
X0262106D01*
X0394094Y0244488D02*
Y0249606D01*
X0400787Y0244488D02*
Y0249606D01*
X0414567Y0220866D02*
Y0221654D01*
X0394488Y0220866D02*
Y0221654D01*
X0414567Y0240158D02*
Y0240945D01*
X0394488Y0240158D02*
Y0240945D01*
Y0220866D02*
X0414567D01*
X0394488Y0240945D02*
X0414567D01*
X0286784Y0272244D02*
X0288457D01*
X0286784D02*
Y0273917D01*
X0313851Y0272244D02*
X0315524D01*
Y0273917D01*
Y0299311D02*
Y0300984D01*
X0313851D02*
X0315524D01*
X0286784D02*
X0288457D01*
X0286784Y0299311D02*
Y0300984D01*
X0244488Y0277362D02*
X0249606D01*
X0244488Y0284055D02*
X0249606D01*
X0000000Y0391732D02*
X0030118Y0391831D01*
X0319587Y0058071D02*
X0468504Y0058071D01*
X0059055D02*
X0131299D01*
X0059055Y0025591D02*
Y0058071D01*
X0131299Y0025591D02*
Y0058071D01*
Y0025591D02*
X0162795D01*
X0000000D02*
X0059055D01*
D12*
X0337008Y0274410D02*
G03*
X0337008Y0274410I-0000492J0000000D01*
G01*
X0265335Y0345177D02*
G03*
X0265335Y0345177I-0000492J0000000D01*
G01*
X0249902Y0344291D02*
G03*
X0249902Y0344291I-0000492J0000000D01*
G01*
X0141929Y0287402D02*
G03*
X0141929Y0287402I-0000492J0000000D01*
G01*
X0147126Y0238681D02*
G03*
X0147126Y0238681I-0000492J0000000D01*
G01*
X0147343Y0246949D02*
G03*
X0147343Y0246949I-0000492J0000000D01*
G01*
X0141929Y0206693D02*
G03*
X0141929Y0206693I-0000492J0000000D01*
G01*
X0147126Y0157973D02*
G03*
X0147126Y0157973I-0000492J0000000D01*
G01*
X0147343Y0166240D02*
G03*
X0147343Y0166240I-0000492J0000000D01*
G01*
X0141929Y0125984D02*
G03*
X0141929Y0125984I-0000492J0000000D01*
G01*
X0147126Y0077264D02*
G03*
X0147126Y0077264I-0000492J0000000D01*
G01*
X0147343Y0085532D02*
G03*
X0147343Y0085532I-0000492J0000000D01*
G01*
X0147126Y0319390D02*
G03*
X0147126Y0319390I-0000492J0000000D01*
G01*
X0141929Y0368110D02*
G03*
X0141929Y0368110I-0000492J0000000D01*
G01*
X0147343Y0327658D02*
G03*
X0147343Y0327658I-0000492J0000000D01*
G01*
X0198524Y0323228D02*
G03*
X0198524Y0323228I-0000492J0000000D01*
G01*
X0248622Y0367520D02*
G03*
X0248622Y0367520I-0000492J0000000D01*
G01*
X0288681Y0345177D02*
G03*
X0288681Y0345177I-0000492J0000000D01*
G01*
X0195079Y0286713D02*
G03*
X0195079Y0286713I-0000492J0000000D01*
G01*
Y0206004D02*
G03*
X0195079Y0206004I-0000492J0000000D01*
G01*
Y0125295D02*
G03*
X0195079Y0125295I-0000492J0000000D01*
G01*
Y0367421D02*
G03*
X0195079Y0367421I-0000492J0000000D01*
G01*
X0375295Y0108071D02*
G03*
X0375295Y0108071I-0000492J0000000D01*
G01*
X0257776Y0282480D02*
G03*
X0257776Y0282480I-0000197J0000000D01*
G01*
X0284717Y0300394D02*
G03*
X0284717Y0300394I-0000492J0000000D01*
G01*
X0208661Y0061790D02*
X0371850D01*
X0208661Y0264743D02*
X0371850D01*
X0208661D02*
X0208661Y0061790D01*
X0371850Y0264743D02*
X0371850Y0061790D01*
D13*
X0374823Y0360492D02*
G03*
X0374823Y0360492I-0000394J0000000D01*
G01*
X0395374Y0294685D02*
G03*
X0395374Y0294685I-0000394J0000000D01*
G01*
X0349705Y0355492D02*
Y0358071D01*
Y0344685D02*
Y0347264D01*
X0336319Y0355492D02*
Y0358071D01*
Y0344685D02*
Y0347264D01*
X0348031Y0358071D02*
X0349705D01*
X0336319D02*
X0337992D01*
X0348031Y0344685D02*
X0349705D01*
X0336319D02*
X0337992D01*
X0335925Y0276969D02*
X0337500D01*
X0335925D02*
Y0278543D01*
Y0308071D02*
Y0309646D01*
X0337500D01*
X0367028D02*
X0368602D01*
Y0308071D02*
Y0309646D01*
X0367028Y0276969D02*
X0368602D01*
Y0278543D01*
X0376988Y0370492D02*
X0426988D01*
X0376988Y0391476D02*
X0426988D01*
Y0370492D02*
Y0391476D01*
X0376988Y0370492D02*
Y0391476D01*
X0362697Y0361673D02*
X0366240D01*
X0362697Y0371595D02*
X0366240D01*
X0285531Y0349606D02*
Y0362205D01*
X0265846Y0349606D02*
Y0362205D01*
X0285531D01*
X0265846Y0349606D02*
X0285531D01*
X0143996Y0286319D02*
Y0287992D01*
X0145669D01*
X0155709D02*
X0157382D01*
Y0286319D02*
Y0287992D01*
Y0274606D02*
Y0276280D01*
X0155709Y0274606D02*
X0157382D01*
X0143996D02*
Y0276280D01*
Y0274606D02*
X0145669D01*
X0167323Y0243110D02*
Y0255709D01*
X0147638Y0243110D02*
Y0255709D01*
X0167323D01*
X0147638Y0243110D02*
X0167323D01*
X0133858Y0239862D02*
X0145669D01*
X0133858Y0243406D02*
X0145669D01*
X0133858Y0239862D02*
Y0243406D01*
X0145669Y0239862D02*
Y0243406D01*
X0143996Y0205610D02*
Y0207283D01*
X0145669D01*
X0155709D02*
X0157382D01*
Y0205610D02*
Y0207283D01*
Y0193898D02*
Y0195571D01*
X0155709Y0193898D02*
X0157382D01*
X0143996D02*
Y0195571D01*
Y0193898D02*
X0145669D01*
X0167323Y0162402D02*
Y0175000D01*
X0147638Y0162402D02*
Y0175000D01*
X0167323D01*
X0147638Y0162402D02*
X0167323D01*
X0133858Y0159153D02*
X0145669D01*
X0133858Y0162697D02*
X0145669D01*
X0133858Y0159153D02*
Y0162697D01*
X0145669Y0159153D02*
Y0162697D01*
X0143996Y0124902D02*
Y0126575D01*
X0145669D01*
X0155709D02*
X0157382D01*
Y0124902D02*
Y0126575D01*
Y0113189D02*
Y0114862D01*
X0155709Y0113189D02*
X0157382D01*
X0143996D02*
Y0114862D01*
Y0113189D02*
X0145669D01*
X0167323Y0081693D02*
Y0094291D01*
X0147638Y0081693D02*
Y0094291D01*
X0167323D01*
X0147638Y0081693D02*
X0167323D01*
X0133858Y0078445D02*
X0145669D01*
X0133858Y0081988D02*
X0145669D01*
X0133858Y0078445D02*
Y0081988D01*
X0145669Y0078445D02*
Y0081988D01*
X0167323Y0323819D02*
Y0336417D01*
X0147638Y0323819D02*
Y0336417D01*
X0167323D01*
X0147638Y0323819D02*
X0167323D01*
X0143996Y0355315D02*
X0145669D01*
X0143996D02*
Y0356988D01*
X0155709Y0355315D02*
X0157382D01*
Y0356988D01*
Y0367028D02*
Y0368701D01*
X0155709D02*
X0157382D01*
X0143996D02*
X0145669D01*
X0143996Y0367028D02*
Y0368701D01*
X0145669Y0320571D02*
Y0324114D01*
X0133858Y0320571D02*
Y0324114D01*
X0145669D01*
X0133858Y0320571D02*
X0145669D01*
X0196850Y0316142D02*
Y0319685D01*
X0185039Y0316142D02*
Y0319685D01*
X0196850D01*
X0185039Y0316142D02*
X0196850D01*
X0227362Y0348622D02*
Y0363189D01*
X0247441Y0348622D02*
Y0363189D01*
X0227362Y0348622D02*
X0247441D01*
X0227362Y0363189D02*
X0247441D01*
X0289193Y0349606D02*
X0308878D01*
X0289193Y0362205D02*
X0308878D01*
X0289193Y0349606D02*
Y0362205D01*
X0308878Y0349606D02*
Y0362205D01*
X0384252Y0143012D02*
Y0144606D01*
Y0149685D02*
Y0151279D01*
X0393701Y0143012D02*
Y0144606D01*
Y0149685D02*
Y0151279D01*
X0325534Y0350297D02*
X0327128D01*
X0318860D02*
X0320455D01*
X0325534Y0359746D02*
X0327128D01*
X0318860D02*
X0320455D01*
X0177854Y0280512D02*
Y0284154D01*
X0181496D01*
X0177854Y0266831D02*
Y0270472D01*
Y0266831D02*
X0181496D01*
X0191535D02*
X0195177D01*
Y0270472D01*
Y0280512D02*
Y0284154D01*
X0191535D02*
X0195177D01*
X0177854Y0199803D02*
Y0203445D01*
X0181496D01*
X0177854Y0186122D02*
Y0189764D01*
Y0186122D02*
X0181496D01*
X0191535D02*
X0195177D01*
Y0189764D01*
Y0199803D02*
Y0203445D01*
X0191535D02*
X0195177D01*
X0177854Y0119095D02*
Y0122736D01*
X0181496D01*
X0177854Y0105413D02*
Y0109055D01*
Y0105413D02*
X0181496D01*
X0191535D02*
X0195177D01*
Y0109055D01*
Y0119095D02*
Y0122736D01*
X0191535D02*
X0195177D01*
X0177854Y0361221D02*
Y0364862D01*
X0181496D01*
X0177854Y0347539D02*
Y0351181D01*
Y0347539D02*
X0181496D01*
X0191535D02*
X0195177D01*
Y0351181D01*
Y0361221D02*
Y0364862D01*
X0191535D02*
X0195177D01*
X0375984Y0111614D02*
Y0115157D01*
X0387795Y0111614D02*
Y0115157D01*
X0375984Y0111614D02*
X0387795D01*
X0375984Y0115157D02*
X0387795D01*
X0230472Y0284547D02*
Y0288090D01*
X0240394Y0284547D02*
Y0288090D01*
D14*
X0367913Y0351575D02*
G03*
X0367913Y0351575I-0000295J0000000D01*
G01*
X0393307Y0244094D02*
G03*
X0393307Y0244094I-0000295J0000000D01*
G01*
X0244390Y0285138D02*
G03*
X0244390Y0285138I-0000295J0000000D01*
G01*
D15*
X0270965Y0353543D02*
G03*
X0270965Y0353543I-0001181J0000000D01*
G01*
X0152756Y0247047D02*
G03*
X0152756Y0247047I-0001181J0000000D01*
G01*
Y0166339D02*
G03*
X0152756Y0166339I-0001181J0000000D01*
G01*
Y0085630D02*
G03*
X0152756Y0085630I-0001181J0000000D01*
G01*
Y0327756D02*
G03*
X0152756Y0327756I-0001181J0000000D01*
G01*
X0244685Y0359252D02*
G03*
X0244685Y0359252I-0001181J0000000D01*
G01*
X0294311Y0353543D02*
G03*
X0294311Y0353543I-0001181J0000000D01*
G01*
D16*
X0254035Y0351575D02*
G03*
X0254035Y0351575I-0000787J0000000D01*
G01*
D17*
X0423740Y0164882D02*
Y0224882D01*
Y0164882D02*
X0433740D01*
X0423740Y0214882D02*
X0433740D01*
Y0164882D02*
Y0224882D01*
X0423740D02*
X0433740D01*
X0031063Y0367638D02*
Y0377638D01*
X0011063D02*
X0031063D01*
X0011063Y0367638D02*
Y0377638D01*
Y0367638D02*
X0031063D01*
D18*
X0091338Y0334055D02*
Y0337992D01*
Y0325394D02*
Y0329331D01*
X0062992Y0325394D02*
Y0329331D01*
Y0334055D02*
Y0337992D01*
Y0342717D02*
Y0350590D01*
X0091338Y0342717D02*
Y0350590D01*
X0062992Y0355315D02*
Y0358858D01*
X0091338D01*
Y0355315D02*
Y0358858D01*
X0062992Y0317126D02*
Y0320669D01*
Y0317126D02*
X0091338D01*
Y0320669D01*
X0125571Y0317126D02*
Y0320669D01*
X0097224Y0317126D02*
X0125571D01*
X0097224D02*
Y0320669D01*
X0125571Y0355315D02*
Y0358858D01*
X0097224D02*
X0125571D01*
X0097224Y0355315D02*
Y0358858D01*
X0125571Y0342717D02*
Y0350591D01*
X0097224Y0342717D02*
Y0350591D01*
Y0334055D02*
Y0337992D01*
Y0325394D02*
Y0329331D01*
X0125571Y0325394D02*
Y0329331D01*
Y0334055D02*
Y0337992D01*
X0091339Y0092028D02*
Y0095965D01*
Y0083366D02*
Y0087303D01*
X0062992Y0083366D02*
Y0087303D01*
Y0092028D02*
Y0095965D01*
Y0100689D02*
Y0108563D01*
X0091339Y0100689D02*
Y0108563D01*
X0062992Y0113287D02*
Y0116831D01*
X0091339D01*
Y0113287D02*
Y0116831D01*
X0062992Y0075098D02*
Y0078642D01*
Y0075098D02*
X0091339D01*
Y0078642D01*
Y0155807D02*
Y0159350D01*
X0062992Y0155807D02*
X0091339D01*
X0062992D02*
Y0159350D01*
X0091339Y0193996D02*
Y0197539D01*
X0062992D02*
X0091339D01*
X0062992Y0193996D02*
Y0197539D01*
X0091339Y0181398D02*
Y0189272D01*
X0062992Y0181398D02*
Y0189272D01*
Y0172736D02*
Y0176673D01*
Y0164075D02*
Y0168012D01*
X0091339Y0164075D02*
Y0168012D01*
Y0172736D02*
Y0176673D01*
Y0253346D02*
Y0257283D01*
Y0244685D02*
Y0248622D01*
X0062992Y0244685D02*
Y0248622D01*
Y0253346D02*
Y0257283D01*
Y0262008D02*
Y0269882D01*
X0091339Y0262008D02*
Y0269882D01*
X0062992Y0274606D02*
Y0278150D01*
X0091339D01*
Y0274606D02*
Y0278150D01*
X0062992Y0236417D02*
Y0239961D01*
Y0236417D02*
X0091339D01*
Y0239961D01*
X0125571Y0075000D02*
Y0078543D01*
X0097224Y0075000D02*
X0125571D01*
X0097224D02*
Y0078543D01*
X0125571Y0113189D02*
Y0116732D01*
X0097224D02*
X0125571D01*
X0097224Y0113189D02*
Y0116732D01*
X0125571Y0100591D02*
Y0108465D01*
X0097224Y0100591D02*
Y0108465D01*
Y0091929D02*
Y0095866D01*
Y0083268D02*
Y0087205D01*
X0125571Y0083268D02*
Y0087205D01*
Y0091929D02*
Y0095866D01*
Y0172638D02*
Y0176575D01*
Y0163976D02*
Y0167913D01*
X0097224Y0163976D02*
Y0167913D01*
Y0172638D02*
Y0176575D01*
Y0181299D02*
Y0189173D01*
X0125571Y0181299D02*
Y0189173D01*
X0097224Y0193898D02*
Y0197441D01*
X0125571D01*
Y0193898D02*
Y0197441D01*
X0097224Y0155709D02*
Y0159252D01*
Y0155709D02*
X0125571D01*
Y0159252D01*
Y0236417D02*
Y0239961D01*
X0097224Y0236417D02*
X0125571D01*
X0097224D02*
Y0239961D01*
X0125571Y0274606D02*
Y0278150D01*
X0097224D02*
X0125571D01*
X0097224Y0274606D02*
Y0278150D01*
X0125571Y0262008D02*
Y0269882D01*
X0097224Y0262008D02*
Y0269882D01*
Y0253346D02*
Y0257283D01*
Y0244685D02*
Y0248622D01*
X0125571Y0244685D02*
Y0248622D01*
Y0253346D02*
Y0257283D01*
X0468504Y0254331D02*
Y0292126D01*
X0456693Y0254331D02*
X0468504D01*
X0456693Y0292126D02*
X0468504D01*
X0433858D02*
X0444095D01*
X0433858Y0254331D02*
X0444095D01*
X0433858Y0099606D02*
X0444095D01*
X0433858Y0137402D02*
X0444095D01*
X0456693D02*
X0468504D01*
X0456693Y0099606D02*
X0468504D01*
Y0137402D01*
X0000295Y0304823D02*
Y0342618D01*
X0012106D01*
X0000295Y0304823D02*
X0012106D01*
X0024705D02*
X0034941D01*
X0024705Y0342618D02*
X0034941D01*
X0024705Y0257382D02*
X0034941D01*
X0024705Y0219587D02*
X0034941D01*
X0000295D02*
X0012106D01*
X0000295Y0257382D02*
X0012106D01*
X0000295Y0219587D02*
Y0257382D01*
Y0134350D02*
Y0172146D01*
X0012106D01*
X0000295Y0134350D02*
X0012106D01*
X0024705D02*
X0034941D01*
X0024705Y0172146D02*
X0034941D01*
X0024705Y0086909D02*
X0034941D01*
X0024705Y0049114D02*
X0034941D01*
X0000295D02*
X0012106D01*
X0000295Y0086909D02*
X0012106D01*
X0000295Y0049114D02*
Y0086909D01*
D19*
X0002657Y0196260D02*
X0004528D01*
X0002756Y0195866D02*
X0004331D01*
X0003150Y0195472D02*
X0003937D01*
X0001969Y0196653D02*
X0003543Y0195079D01*
X0005118Y0196653D01*
X0001969D02*
X0005118D01*
X0001969Y0195079D02*
X0005118D01*
X0098032Y0283169D02*
Y0290650D01*
X0083858D02*
X0098032D01*
X0083858Y0283169D02*
Y0290650D01*
Y0283169D02*
X0098032D01*
X0093898Y0279429D02*
Y0283169D01*
X0086614D02*
X0093898D01*
X0086614Y0279429D02*
Y0283169D01*
Y0279429D02*
X0093898D01*
X0079331Y0279429D02*
Y0283169D01*
Y0279429D02*
X0086614D01*
Y0283169D01*
X0079331D02*
X0086614D01*
X0072047Y0279429D02*
Y0283169D01*
Y0279429D02*
X0079331D01*
Y0283169D01*
X0072047D02*
X0079331D01*
X0072047Y0283957D02*
X0083858D01*
X0072047D02*
Y0289862D01*
X0083858D01*
Y0283957D02*
Y0289862D01*
X0060236Y0279429D02*
Y0291240D01*
X0066142D01*
Y0279429D02*
Y0291240D01*
X0060236Y0279429D02*
X0066142D01*
X0072047D02*
Y0291240D01*
X0066142Y0279429D02*
X0072047D01*
X0066142D02*
Y0291240D01*
X0072047D01*
X0098032Y0202461D02*
Y0209941D01*
X0083858D02*
X0098032D01*
X0083858Y0202461D02*
Y0209941D01*
Y0202461D02*
X0098032D01*
X0093898Y0198720D02*
Y0202461D01*
X0086614D02*
X0093898D01*
X0086614Y0198720D02*
Y0202461D01*
Y0198720D02*
X0093898D01*
X0079331Y0198721D02*
Y0202461D01*
Y0198721D02*
X0086614D01*
Y0202461D01*
X0079331D02*
X0086614D01*
X0072047Y0198721D02*
Y0202461D01*
Y0198721D02*
X0079331D01*
Y0202461D01*
X0072047D02*
X0079331D01*
X0072047Y0203248D02*
X0083858D01*
X0072047D02*
Y0209154D01*
X0083858D01*
Y0203248D02*
Y0209154D01*
X0060236Y0198721D02*
Y0210531D01*
X0066142D01*
Y0198721D02*
Y0210531D01*
X0060236Y0198721D02*
X0066142D01*
X0072047D02*
Y0210531D01*
X0066142Y0198721D02*
X0072047D01*
X0066142D02*
Y0210531D01*
X0072047D01*
X0098032Y0121752D02*
Y0129232D01*
X0083858D02*
X0098032D01*
X0083858Y0121752D02*
Y0129232D01*
Y0121752D02*
X0098032D01*
X0093898Y0118012D02*
Y0121752D01*
X0086614D02*
X0093898D01*
X0086614Y0118012D02*
Y0121752D01*
Y0118012D02*
X0093898D01*
X0079331Y0118012D02*
Y0121752D01*
Y0118012D02*
X0086614D01*
Y0121752D01*
X0079331D02*
X0086614D01*
X0072047Y0118012D02*
Y0121752D01*
Y0118012D02*
X0079331D01*
Y0121752D01*
X0072047D02*
X0079331D01*
X0072047Y0122539D02*
X0083858D01*
X0072047D02*
Y0128445D01*
X0083858D01*
Y0122539D02*
Y0128445D01*
X0060236Y0118012D02*
Y0129823D01*
X0066142D01*
Y0118012D02*
Y0129823D01*
X0060236Y0118012D02*
X0066142D01*
X0072047D02*
Y0129823D01*
X0066142Y0118012D02*
X0072047D01*
X0066142D02*
Y0129823D01*
X0072047D01*
Y0360138D02*
Y0371949D01*
X0066142Y0360138D02*
X0072047D01*
X0066142D02*
Y0371949D01*
X0072047D01*
X0098032Y0363878D02*
Y0371358D01*
X0083858D02*
X0098032D01*
X0083858Y0363878D02*
Y0371358D01*
Y0363878D02*
X0098032D01*
X0377165Y0342224D02*
Y0345965D01*
X0369882D02*
X0377165D01*
X0369882Y0342224D02*
Y0345965D01*
Y0342224D02*
X0377165D01*
X0362500Y0340059D02*
X0369783D01*
X0362500D02*
Y0343799D01*
X0369783D01*
Y0340059D02*
Y0343799D01*
X0369685Y0345965D02*
Y0360138D01*
X0377165D01*
Y0345965D02*
Y0360138D01*
X0369685Y0345965D02*
X0377165D01*
X0381398Y0347638D02*
Y0354921D01*
X0377658Y0347638D02*
X0381398D01*
X0377658D02*
Y0354921D01*
X0381398D01*
X0387795Y0347146D02*
Y0358957D01*
X0381890Y0347146D02*
X0387795D01*
X0381890D02*
Y0358957D01*
X0387795D01*
X0355217Y0340059D02*
X0362500D01*
X0355217D02*
Y0343799D01*
X0362500D01*
Y0340059D02*
Y0343799D01*
X0355217Y0344390D02*
X0369390D01*
X0355217D02*
Y0351870D01*
X0369390D01*
Y0344390D02*
Y0351870D01*
X0355413Y0360138D02*
X0373524D01*
X0355413D02*
Y0373130D01*
X0373524D01*
Y0360138D02*
Y0373130D01*
X0188189Y0374311D02*
X0195669D01*
X0188189D02*
Y0378248D01*
X0195669D01*
Y0374311D02*
Y0378248D01*
X0188189Y0293602D02*
X0195669D01*
X0188189D02*
Y0297539D01*
X0195669D01*
Y0293602D02*
Y0297539D01*
X0188189Y0212894D02*
X0195669D01*
X0188189D02*
Y0216831D01*
X0195669D01*
Y0212894D02*
Y0216831D01*
X0188189Y0132185D02*
X0195669D01*
X0188189D02*
Y0136122D01*
X0195669D01*
Y0132185D02*
Y0136122D01*
X0180905Y0132185D02*
Y0135925D01*
Y0132185D02*
X0188189D01*
Y0135925D01*
X0180905D02*
X0188189D01*
X0180905Y0374311D02*
Y0378051D01*
Y0374311D02*
X0188189D01*
Y0378051D01*
X0180905D02*
X0188189D01*
X0180905Y0293602D02*
Y0297342D01*
Y0293602D02*
X0188189D01*
Y0297342D01*
X0180905D02*
X0188189D01*
X0180905Y0212894D02*
Y0216634D01*
Y0212894D02*
X0188189D01*
Y0216634D01*
X0180905D02*
X0188189D01*
X0301102Y0341240D02*
X0308583D01*
Y0337303D02*
Y0341240D01*
X0301102Y0337303D02*
X0308583D01*
X0301102D02*
Y0341240D01*
X0363681Y0313386D02*
X0367421D01*
Y0320669D01*
X0363681D02*
X0367421D01*
X0363681Y0313386D02*
Y0320669D01*
X0378426Y0307327D02*
Y0311067D01*
X0371142D02*
X0378426D01*
X0371142Y0307327D02*
Y0311067D01*
Y0307327D02*
X0378426D01*
X0378445Y0303543D02*
Y0307283D01*
X0371161D02*
X0378445D01*
X0371161Y0303543D02*
Y0307283D01*
Y0303543D02*
X0378445D01*
X0371161Y0280610D02*
Y0284350D01*
Y0280610D02*
X0378445D01*
Y0284350D01*
X0371161D02*
X0378445D01*
X0371161Y0280413D02*
X0374902D01*
X0371161Y0273130D02*
Y0280413D01*
Y0273130D02*
X0374902D01*
Y0280413D01*
X0093898Y0360138D02*
Y0363878D01*
X0086614D02*
X0093898D01*
X0086614Y0360138D02*
Y0363878D01*
Y0360138D02*
X0093898D01*
X0079331Y0360138D02*
Y0363878D01*
Y0360138D02*
X0086614D01*
Y0363878D01*
X0079331D02*
X0086614D01*
X0083858Y0364665D02*
Y0370571D01*
X0072047D02*
X0083858D01*
X0072047Y0364665D02*
Y0370571D01*
Y0364665D02*
X0083858D01*
X0072047Y0360138D02*
Y0363878D01*
Y0360138D02*
X0079331D01*
Y0363878D01*
X0072047D02*
X0079331D01*
X0060236Y0360138D02*
X0066142D01*
Y0371949D01*
X0060236D02*
X0066142D01*
X0060236Y0360138D02*
Y0371949D01*
X0105512Y0360039D02*
Y0365945D01*
Y0360039D02*
X0117323D01*
Y0365945D01*
X0105512D02*
X0117323D01*
X0117323Y0365945D02*
X0129134D01*
Y0360039D02*
Y0365945D01*
X0117323Y0360039D02*
X0129134D01*
X0117323D02*
Y0365945D01*
X0268701Y0341142D02*
X0272441D01*
X0268701Y0333858D02*
Y0341142D01*
Y0333858D02*
X0272441D01*
Y0341142D01*
X0267618Y0370669D02*
X0275098D01*
X0267618D02*
Y0374606D01*
X0275098D01*
Y0370669D02*
Y0374606D01*
X0276181Y0333661D02*
Y0341142D01*
X0280118D01*
Y0333661D02*
Y0341142D01*
X0276181Y0333661D02*
X0280118D01*
X0272441Y0333858D02*
X0276181D01*
Y0341142D01*
X0272441D02*
X0276181D01*
X0272441Y0333858D02*
Y0341142D01*
X0281201Y0333661D02*
Y0341142D01*
X0285138D01*
Y0333661D02*
Y0341142D01*
X0281201Y0333661D02*
X0285138D01*
X0250394Y0336417D02*
X0257874D01*
X0250394D02*
Y0340354D01*
X0257874D01*
Y0336417D02*
Y0340354D01*
X0345079Y0338779D02*
X0352559D01*
X0345079D02*
Y0342717D01*
X0352559D01*
Y0338779D02*
Y0342717D01*
X0336988Y0360039D02*
X0348799D01*
X0336988D02*
Y0365945D01*
X0348799D01*
Y0360039D02*
Y0365945D01*
X0337028Y0366437D02*
X0348839D01*
X0337028D02*
Y0372343D01*
X0348839D01*
Y0366437D02*
Y0372343D01*
X0333267Y0342717D02*
X0345078D01*
Y0336811D02*
Y0342717D01*
X0333267Y0336811D02*
X0345078D01*
X0333267D02*
Y0342717D01*
X0329429Y0315158D02*
X0336713D01*
Y0311417D02*
Y0315158D01*
X0329429Y0311417D02*
X0336713D01*
X0329429D02*
Y0315158D01*
X0336713Y0311319D02*
Y0315256D01*
Y0311319D02*
X0344193D01*
Y0315256D01*
X0336713D02*
X0344193D01*
X0334252Y0285827D02*
Y0289764D01*
X0326772D02*
X0334252D01*
X0326772Y0285827D02*
Y0289764D01*
Y0285827D02*
X0334252D01*
X0326772Y0304232D02*
X0334252D01*
X0326772D02*
Y0308169D01*
X0334252D01*
Y0304232D02*
Y0308169D01*
X0159153Y0361417D02*
Y0365158D01*
Y0361417D02*
X0166437D01*
Y0365158D01*
X0159153D02*
X0166437D01*
X0177067Y0374311D02*
X0184547D01*
Y0370374D02*
Y0374311D01*
X0177067Y0370374D02*
X0184547D01*
X0177067D02*
Y0374311D01*
X0158957Y0365453D02*
X0166437D01*
X0158957D02*
Y0369390D01*
X0166437D01*
Y0365453D02*
Y0369390D01*
X0106299Y0235236D02*
X0118110D01*
Y0229331D02*
Y0235236D01*
X0106299Y0229331D02*
X0118110D01*
X0106299D02*
Y0235236D01*
X0094488D02*
X0106299D01*
Y0229331D02*
Y0235236D01*
X0094488Y0229331D02*
X0106299D01*
X0094488D02*
Y0235236D01*
X0105512Y0285236D02*
X0117323D01*
Y0279331D02*
Y0285236D01*
X0105512Y0279331D02*
X0117323D01*
X0105512D02*
Y0285236D01*
X0118110Y0229331D02*
X0129921D01*
X0118110D02*
Y0235236D01*
X0129921D01*
Y0229331D02*
Y0235236D01*
X0117323Y0285236D02*
X0129134D01*
Y0279331D02*
Y0285236D01*
X0117323Y0279331D02*
X0129134D01*
X0117323D02*
Y0285236D01*
X0138287Y0273917D02*
Y0285728D01*
X0132382Y0273917D02*
X0138287D01*
X0132382D02*
Y0285728D01*
X0138287D01*
X0159153Y0280709D02*
Y0284449D01*
Y0280709D02*
X0166437D01*
Y0284449D01*
X0159153D02*
X0166437D01*
X0132382Y0262106D02*
Y0273917D01*
X0138287D01*
Y0262106D02*
Y0273917D01*
X0132382Y0262106D02*
X0138287D01*
X0128937Y0261713D02*
X0140748D01*
Y0255807D02*
Y0261713D01*
X0128937Y0255807D02*
X0140748D01*
X0128937D02*
Y0261713D01*
X0138484Y0278346D02*
X0142224D01*
Y0285630D01*
X0138484D02*
X0142224D01*
X0138484Y0278346D02*
Y0285630D01*
X0128937Y0248524D02*
X0132677D01*
Y0255807D01*
X0128937D02*
X0132677D01*
X0128937Y0248524D02*
Y0255807D01*
X0166437Y0276476D02*
Y0280217D01*
X0159153D02*
X0166437D01*
X0159153Y0276476D02*
Y0280217D01*
Y0276476D02*
X0166437D01*
X0159055Y0272835D02*
Y0276575D01*
Y0272835D02*
X0166339D01*
Y0276575D01*
X0159055D02*
X0166339D01*
X0133661Y0255807D02*
X0145472D01*
Y0249902D02*
Y0255807D01*
X0133661Y0249902D02*
X0145472D01*
X0133661D02*
Y0255807D01*
X0139370Y0270965D02*
X0143110D01*
X0139370Y0263681D02*
Y0270965D01*
Y0263681D02*
X0143110D01*
Y0270965D01*
X0158957Y0272933D02*
X0166437D01*
Y0268996D02*
Y0272933D01*
X0158957Y0268996D02*
X0166437D01*
X0158957D02*
Y0272933D01*
X0138386Y0270965D02*
Y0278445D01*
X0142323D01*
Y0270965D02*
Y0278445D01*
X0138386Y0270965D02*
X0142323D01*
X0152362Y0230610D02*
Y0234350D01*
Y0230610D02*
X0159646D01*
Y0234350D01*
X0152362D02*
X0159646D01*
X0158268Y0289764D02*
Y0293504D01*
X0150984D02*
X0158268D01*
X0150984Y0289764D02*
Y0293504D01*
Y0289764D02*
X0158268D01*
X0140748Y0263090D02*
X0144488D01*
X0140748Y0255807D02*
Y0263090D01*
Y0255807D02*
X0144488D01*
Y0263090D01*
X0160827Y0267913D02*
X0168307D01*
Y0263976D02*
Y0267913D01*
X0160827Y0263976D02*
X0168307D01*
X0160827D02*
Y0267913D01*
X0177067Y0293602D02*
X0184547D01*
Y0289665D02*
Y0293602D01*
X0177067Y0289665D02*
X0184547D01*
X0177067D02*
Y0293602D01*
X0141535Y0229331D02*
X0149016D01*
X0141535D02*
Y0233268D01*
X0149016D01*
Y0229331D02*
Y0233268D01*
X0158957Y0284744D02*
X0166437D01*
X0158957D02*
Y0288681D01*
X0166437D01*
Y0284744D02*
Y0288681D01*
X0143504Y0293602D02*
X0150984D01*
Y0289665D02*
Y0293602D01*
X0143504Y0289665D02*
X0150984D01*
X0143504D02*
Y0293602D01*
X0134744Y0285728D02*
X0142224D01*
X0134744D02*
Y0289665D01*
X0142224D01*
Y0285728D02*
Y0289665D01*
X0158957Y0292618D02*
X0166437D01*
Y0288681D02*
Y0292618D01*
X0158957Y0288681D02*
X0166437D01*
X0158957D02*
Y0292618D01*
X0134744Y0289665D02*
X0142224D01*
X0134744D02*
Y0293602D01*
X0142224D01*
Y0289665D02*
Y0293602D01*
X0153347Y0263976D02*
X0160827D01*
X0153347D02*
Y0267913D01*
X0160827D01*
Y0263976D02*
Y0267913D01*
X0128937Y0240551D02*
Y0248031D01*
X0132874D01*
Y0240551D02*
Y0248031D01*
X0128937Y0240551D02*
X0132874D01*
X0150689Y0267913D02*
X0158169D01*
X0150689D02*
Y0271850D01*
X0158169D01*
Y0267913D02*
Y0271850D01*
X0159646Y0230512D02*
X0167126D01*
X0159646D02*
Y0234449D01*
X0167126D01*
Y0230512D02*
Y0234449D01*
X0143110Y0265256D02*
X0150591D01*
X0143110D02*
Y0269193D01*
X0150591D01*
Y0265256D02*
Y0269193D01*
X0143110Y0273130D02*
X0150591D01*
Y0269193D02*
Y0273130D01*
X0143110Y0269193D02*
X0150591D01*
X0143110D02*
Y0273130D01*
X0106299Y0154528D02*
X0118110D01*
Y0148622D02*
Y0154528D01*
X0106299Y0148622D02*
X0118110D01*
X0106299D02*
Y0154528D01*
X0094488D02*
X0106299D01*
Y0148622D02*
Y0154528D01*
X0094488Y0148622D02*
X0106299D01*
X0094488D02*
Y0154528D01*
X0105512Y0204527D02*
X0117323D01*
Y0198622D02*
Y0204527D01*
X0105512Y0198622D02*
X0117323D01*
X0105512D02*
Y0204527D01*
X0118110Y0148622D02*
X0129921D01*
X0118110D02*
Y0154528D01*
X0129921D01*
Y0148622D02*
Y0154528D01*
X0117323Y0204528D02*
X0129134D01*
Y0198622D02*
Y0204528D01*
X0117323Y0198622D02*
X0129134D01*
X0117323D02*
Y0204528D01*
X0138287Y0193209D02*
Y0205020D01*
X0132382Y0193209D02*
X0138287D01*
X0132382D02*
Y0205020D01*
X0138287D01*
X0159153Y0200000D02*
Y0203740D01*
Y0200000D02*
X0166437D01*
Y0203740D01*
X0159153D02*
X0166437D01*
X0132382Y0181398D02*
Y0193209D01*
X0138287D01*
Y0181398D02*
Y0193209D01*
X0132382Y0181398D02*
X0138287D01*
X0128937Y0181004D02*
X0140748D01*
Y0175098D02*
Y0181004D01*
X0128937Y0175098D02*
X0140748D01*
X0128937D02*
Y0181004D01*
X0138484Y0197638D02*
X0142224D01*
Y0204921D01*
X0138484D02*
X0142224D01*
X0138484Y0197638D02*
Y0204921D01*
X0128937Y0167815D02*
X0132677D01*
Y0175098D01*
X0128937D02*
X0132677D01*
X0128937Y0167815D02*
Y0175098D01*
X0166437Y0195768D02*
Y0199508D01*
X0159153D02*
X0166437D01*
X0159153Y0195768D02*
Y0199508D01*
Y0195768D02*
X0166437D01*
X0159055Y0192126D02*
Y0195866D01*
Y0192126D02*
X0166339D01*
Y0195866D01*
X0159055D02*
X0166339D01*
X0133661Y0175098D02*
X0145472D01*
Y0169193D02*
Y0175098D01*
X0133661Y0169193D02*
X0145472D01*
X0133661D02*
Y0175098D01*
X0139370Y0190256D02*
X0143110D01*
X0139370Y0182973D02*
Y0190256D01*
Y0182973D02*
X0143110D01*
Y0190256D01*
X0158957Y0192224D02*
X0166437D01*
Y0188287D02*
Y0192224D01*
X0158957Y0188287D02*
X0166437D01*
X0158957D02*
Y0192224D01*
X0138386Y0190256D02*
Y0197736D01*
X0142323D01*
Y0190256D02*
Y0197736D01*
X0138386Y0190256D02*
X0142323D01*
X0152362Y0149902D02*
Y0153642D01*
Y0149902D02*
X0159646D01*
Y0153642D01*
X0152362D02*
X0159646D01*
X0158268Y0209055D02*
Y0212795D01*
X0150984D02*
X0158268D01*
X0150984Y0209055D02*
Y0212795D01*
Y0209055D02*
X0158268D01*
X0140748Y0182382D02*
X0144488D01*
X0140748Y0175098D02*
Y0182382D01*
Y0175098D02*
X0144488D01*
Y0182382D01*
X0160827Y0187205D02*
X0168307D01*
Y0183268D02*
Y0187205D01*
X0160827Y0183268D02*
X0168307D01*
X0160827D02*
Y0187205D01*
X0177067Y0212894D02*
X0184547D01*
Y0208957D02*
Y0212894D01*
X0177067Y0208957D02*
X0184547D01*
X0177067D02*
Y0212894D01*
X0141535Y0148622D02*
X0149016D01*
X0141535D02*
Y0152559D01*
X0149016D01*
Y0148622D02*
Y0152559D01*
X0158957Y0204035D02*
X0166437D01*
X0158957D02*
Y0207972D01*
X0166437D01*
Y0204035D02*
Y0207972D01*
X0143504Y0212894D02*
X0150984D01*
Y0208957D02*
Y0212894D01*
X0143504Y0208957D02*
X0150984D01*
X0143504D02*
Y0212894D01*
X0134744Y0205020D02*
X0142224D01*
X0134744D02*
Y0208957D01*
X0142224D01*
Y0205020D02*
Y0208957D01*
X0158957Y0211910D02*
X0166437D01*
Y0207973D02*
Y0211910D01*
X0158957Y0207973D02*
X0166437D01*
X0158957D02*
Y0211910D01*
X0134744Y0208957D02*
X0142224D01*
X0134744D02*
Y0212894D01*
X0142224D01*
Y0208957D02*
Y0212894D01*
X0153347Y0183268D02*
X0160827D01*
X0153347D02*
Y0187205D01*
X0160827D01*
Y0183268D02*
Y0187205D01*
X0128937Y0159843D02*
Y0167323D01*
X0132874D01*
Y0159843D02*
Y0167323D01*
X0128937Y0159843D02*
X0132874D01*
X0150689Y0187205D02*
X0158169D01*
X0150689D02*
Y0191142D01*
X0158169D01*
Y0187205D02*
Y0191142D01*
X0159646Y0149803D02*
X0167126D01*
X0159646D02*
Y0153740D01*
X0167126D01*
Y0149803D02*
Y0153740D01*
X0143110Y0184547D02*
X0150591D01*
X0143110D02*
Y0188484D01*
X0150591D01*
Y0184547D02*
Y0188484D01*
X0143110Y0192421D02*
X0150591D01*
Y0188484D02*
Y0192421D01*
X0143110Y0188484D02*
X0150591D01*
X0143110D02*
Y0192421D01*
X0106299Y0073819D02*
X0118110D01*
Y0067913D02*
Y0073819D01*
X0106299Y0067913D02*
X0118110D01*
X0106299D02*
Y0073819D01*
X0094488D02*
X0106299D01*
Y0067913D02*
Y0073819D01*
X0094488Y0067913D02*
X0106299D01*
X0094488D02*
Y0073819D01*
X0105512Y0123819D02*
X0117323D01*
Y0117913D02*
Y0123819D01*
X0105512Y0117913D02*
X0117323D01*
X0105512D02*
Y0123819D01*
X0118110Y0067913D02*
X0129921D01*
X0118110D02*
Y0073819D01*
X0129921D01*
Y0067913D02*
Y0073819D01*
X0117323Y0123819D02*
X0129134D01*
Y0117913D02*
Y0123819D01*
X0117323Y0117913D02*
X0129134D01*
X0117323D02*
Y0123819D01*
X0138287Y0112500D02*
Y0124311D01*
X0132382Y0112500D02*
X0138287D01*
X0132382D02*
Y0124311D01*
X0138287D01*
X0159153Y0119291D02*
Y0123031D01*
Y0119291D02*
X0166437D01*
Y0123031D01*
X0159153D02*
X0166437D01*
X0132382Y0100689D02*
Y0112500D01*
X0138287D01*
Y0100689D02*
Y0112500D01*
X0132382Y0100689D02*
X0138287D01*
X0128937Y0100295D02*
X0140748D01*
Y0094390D02*
Y0100295D01*
X0128937Y0094390D02*
X0140748D01*
X0128937D02*
Y0100295D01*
X0138484Y0116929D02*
X0142224D01*
Y0124213D01*
X0138484D02*
X0142224D01*
X0138484Y0116929D02*
Y0124213D01*
X0128937Y0087106D02*
X0132677D01*
Y0094390D01*
X0128937D02*
X0132677D01*
X0128937Y0087106D02*
Y0094390D01*
X0166437Y0115059D02*
Y0118799D01*
X0159153D02*
X0166437D01*
X0159153Y0115059D02*
Y0118799D01*
Y0115059D02*
X0166437D01*
X0159055Y0111417D02*
Y0115157D01*
Y0111417D02*
X0166339D01*
Y0115157D01*
X0159055D02*
X0166339D01*
X0133661Y0094390D02*
X0145472D01*
Y0088484D02*
Y0094390D01*
X0133661Y0088484D02*
X0145472D01*
X0133661D02*
Y0094390D01*
X0139370Y0109547D02*
X0143110D01*
X0139370Y0102264D02*
Y0109547D01*
Y0102264D02*
X0143110D01*
Y0109547D01*
X0158957Y0111516D02*
X0166437D01*
Y0107579D02*
Y0111516D01*
X0158957Y0107579D02*
X0166437D01*
X0158957D02*
Y0111516D01*
X0138386Y0109547D02*
Y0117028D01*
X0142323D01*
Y0109547D02*
Y0117028D01*
X0138386Y0109547D02*
X0142323D01*
X0152362Y0069193D02*
Y0072933D01*
Y0069193D02*
X0159646D01*
Y0072933D01*
X0152362D02*
X0159646D01*
X0158268Y0128347D02*
Y0132087D01*
X0150984D02*
X0158268D01*
X0150984Y0128347D02*
Y0132087D01*
Y0128347D02*
X0158268D01*
X0140748Y0101673D02*
X0144488D01*
X0140748Y0094390D02*
Y0101673D01*
Y0094390D02*
X0144488D01*
Y0101673D01*
X0160827Y0106496D02*
X0168307D01*
Y0102559D02*
Y0106496D01*
X0160827Y0102559D02*
X0168307D01*
X0160827D02*
Y0106496D01*
X0177067Y0132185D02*
X0184547D01*
Y0128248D02*
Y0132185D01*
X0177067Y0128248D02*
X0184547D01*
X0177067D02*
Y0132185D01*
X0141535Y0067913D02*
X0149016D01*
X0141535D02*
Y0071850D01*
X0149016D01*
Y0067913D02*
Y0071850D01*
X0158957Y0123327D02*
X0166437D01*
X0158957D02*
Y0127264D01*
X0166437D01*
Y0123327D02*
Y0127264D01*
X0143504Y0132185D02*
X0150984D01*
Y0128248D02*
Y0132185D01*
X0143504Y0128248D02*
X0150984D01*
X0143504D02*
Y0132185D01*
X0134744Y0124311D02*
X0142224D01*
X0134744D02*
Y0128248D01*
X0142224D01*
Y0124311D02*
Y0128248D01*
X0158957Y0131201D02*
X0166437D01*
Y0127264D02*
Y0131201D01*
X0158957Y0127264D02*
X0166437D01*
X0158957D02*
Y0131201D01*
X0134744Y0128248D02*
X0142224D01*
X0134744D02*
Y0132185D01*
X0142224D01*
Y0128248D02*
Y0132185D01*
X0153347Y0102559D02*
X0160827D01*
X0153347D02*
Y0106496D01*
X0160827D01*
Y0102559D02*
Y0106496D01*
X0128937Y0079134D02*
Y0086614D01*
X0132874D01*
Y0079134D02*
Y0086614D01*
X0128937Y0079134D02*
X0132874D01*
X0150689Y0106496D02*
X0158169D01*
X0150689D02*
Y0110433D01*
X0158169D01*
Y0106496D02*
Y0110433D01*
X0159646Y0069095D02*
X0167126D01*
X0159646D02*
Y0073032D01*
X0167126D01*
Y0069095D02*
Y0073032D01*
X0143110Y0103839D02*
X0150591D01*
X0143110D02*
Y0107776D01*
X0150591D01*
Y0103839D02*
Y0107776D01*
X0143110Y0111713D02*
X0150591D01*
Y0107776D02*
Y0111713D01*
X0143110Y0107776D02*
X0150591D01*
X0143110D02*
Y0111713D01*
X0094488Y0315945D02*
X0106299D01*
Y0310039D02*
Y0315945D01*
X0094488Y0310039D02*
X0106299D01*
X0094488D02*
Y0315945D01*
X0118110Y0310039D02*
X0129921D01*
X0118110D02*
Y0315945D01*
X0129921D01*
Y0310039D02*
Y0315945D01*
X0152362Y0311319D02*
Y0315059D01*
Y0311319D02*
X0159646D01*
Y0315059D01*
X0152362D02*
X0159646D01*
X0158268Y0370472D02*
Y0374213D01*
X0150984D02*
X0158268D01*
X0150984Y0370472D02*
Y0374213D01*
Y0370472D02*
X0158268D01*
X0144488Y0336516D02*
Y0343799D01*
X0140748Y0336516D02*
X0144488D01*
X0140748D02*
Y0343799D01*
X0144488D01*
X0139370Y0351673D02*
X0143110D01*
X0139370Y0344390D02*
Y0351673D01*
Y0344390D02*
X0143110D01*
Y0351673D01*
X0159055Y0353543D02*
Y0357283D01*
Y0353543D02*
X0166339D01*
Y0357283D01*
X0159055D02*
X0166339D01*
X0106299Y0315945D02*
X0118110D01*
Y0310039D02*
Y0315945D01*
X0106299Y0310039D02*
X0118110D01*
X0106299D02*
Y0315945D01*
X0166437Y0357185D02*
Y0360925D01*
X0159153D02*
X0166437D01*
X0159153Y0357185D02*
Y0360925D01*
Y0357185D02*
X0166437D01*
X0128937Y0329232D02*
X0132677D01*
Y0336516D01*
X0128937D02*
X0132677D01*
X0128937Y0329232D02*
Y0336516D01*
X0138484Y0359055D02*
X0142224D01*
Y0366339D01*
X0138484D02*
X0142224D01*
X0138484Y0359055D02*
Y0366339D01*
X0132382Y0342815D02*
Y0354626D01*
X0138287D01*
Y0342815D02*
Y0354626D01*
X0132382Y0342815D02*
X0138287D01*
X0128937Y0321260D02*
X0132874D01*
Y0328740D01*
X0128937D02*
X0132874D01*
X0128937Y0321260D02*
Y0328740D01*
X0167126Y0311221D02*
Y0315158D01*
X0159646D02*
X0167126D01*
X0159646Y0311221D02*
Y0315158D01*
Y0311221D02*
X0167126D01*
X0150591Y0345965D02*
Y0349902D01*
X0143110D02*
X0150591D01*
X0143110Y0345965D02*
Y0349902D01*
Y0345965D02*
X0150591D01*
X0143110Y0349902D02*
Y0353839D01*
Y0349902D02*
X0150591D01*
Y0353839D01*
X0143110D02*
X0150591D01*
X0158169Y0348622D02*
Y0352559D01*
X0150689D02*
X0158169D01*
X0150689Y0348622D02*
Y0352559D01*
Y0348622D02*
X0158169D01*
X0143504Y0370374D02*
Y0374311D01*
Y0370374D02*
X0150984D01*
Y0374311D01*
X0143504D02*
X0150984D01*
X0134744Y0366437D02*
X0142224D01*
X0134744D02*
Y0370374D01*
X0142224D01*
Y0366437D02*
Y0370374D01*
X0158957Y0369390D02*
Y0373327D01*
Y0369390D02*
X0166437D01*
Y0373327D01*
X0158957D02*
X0166437D01*
X0134744Y0370374D02*
X0142224D01*
X0134744D02*
Y0374311D01*
X0142224D01*
Y0370374D02*
Y0374311D01*
X0160827Y0344685D02*
Y0348622D01*
X0153347D02*
X0160827D01*
X0153347Y0344685D02*
Y0348622D01*
Y0344685D02*
X0160827D01*
X0160827Y0344685D02*
Y0348622D01*
Y0344685D02*
X0168307D01*
Y0348622D01*
X0160827D02*
X0168307D01*
X0138386Y0351673D02*
X0142323D01*
Y0359154D01*
X0138386D02*
X0142323D01*
X0138386Y0351673D02*
Y0359154D01*
X0158957Y0349705D02*
Y0353642D01*
Y0349705D02*
X0166437D01*
Y0353642D01*
X0158957D02*
X0166437D01*
X0138287Y0354626D02*
Y0366437D01*
X0132382Y0354626D02*
X0138287D01*
X0132382D02*
Y0366437D01*
X0138287D01*
X0149016Y0310039D02*
Y0313976D01*
X0141535D02*
X0149016D01*
X0141535Y0310039D02*
Y0313976D01*
Y0310039D02*
X0149016D01*
X0133661Y0330610D02*
Y0336516D01*
Y0330610D02*
X0145472D01*
Y0336516D01*
X0133661D02*
X0145472D01*
X0128937Y0336516D02*
Y0342421D01*
Y0336516D02*
X0140748D01*
Y0342421D01*
X0128937D02*
X0140748D01*
X0321850Y0290650D02*
Y0294390D01*
Y0290650D02*
X0329134D01*
Y0294390D01*
X0321850D02*
X0329134D01*
X0321850Y0294587D02*
Y0298327D01*
Y0294587D02*
X0329134D01*
Y0298327D01*
X0321850D02*
X0329134D01*
X0181496Y0340846D02*
Y0344587D01*
Y0340846D02*
X0188779D01*
Y0344587D01*
X0181496D02*
X0188779D01*
X0181890Y0330610D02*
X0189173D01*
Y0326870D02*
Y0330610D01*
X0181890Y0326870D02*
X0189173D01*
X0181890D02*
Y0330610D01*
X0189173Y0309055D02*
X0196653D01*
Y0305118D02*
Y0309055D01*
X0189173Y0305118D02*
X0196653D01*
X0189173D02*
Y0309055D01*
Y0330709D02*
X0196653D01*
Y0326772D02*
Y0330709D01*
X0189173Y0326772D02*
X0196653D01*
X0189173D02*
Y0330709D01*
X0375000Y0228543D02*
Y0240354D01*
X0380906D01*
Y0228543D02*
Y0240354D01*
X0375000Y0228543D02*
X0380906D01*
X0389665Y0261319D02*
X0396949D01*
Y0257579D02*
Y0261319D01*
X0389665Y0257579D02*
X0396949D01*
X0389665D02*
Y0261319D01*
X0401673Y0265256D02*
X0408957D01*
Y0261516D02*
Y0265256D01*
X0401673Y0261516D02*
X0408957D01*
X0401673D02*
Y0265256D01*
X0401378Y0249606D02*
Y0257087D01*
Y0249606D02*
X0415551D01*
Y0257087D01*
X0401378D02*
X0415551D01*
X0401378Y0242126D02*
Y0249606D01*
Y0242126D02*
X0415551D01*
Y0249606D01*
X0401378D02*
X0415551D01*
X0389370Y0242126D02*
Y0249606D01*
X0393307D01*
Y0242126D02*
Y0249606D01*
X0389370Y0242126D02*
X0393307D01*
X0381693Y0254724D02*
X0389173D01*
X0381693Y0240551D02*
Y0254724D01*
Y0240551D02*
X0389173D01*
Y0254724D01*
X0374213D02*
X0381693D01*
X0374213Y0240551D02*
Y0254724D01*
Y0240551D02*
X0381693D01*
Y0254724D01*
X0401575Y0261417D02*
X0409055D01*
Y0257480D02*
Y0261417D01*
X0401575Y0257480D02*
X0409055D01*
X0401575D02*
Y0261417D01*
X0401378Y0252953D02*
Y0260433D01*
X0397441Y0252953D02*
X0401378D01*
X0397441D02*
Y0260433D01*
X0401378D01*
X0359941Y0320669D02*
X0363681D01*
X0359941Y0313386D02*
Y0320669D01*
Y0313386D02*
X0363681D01*
Y0320669D01*
X0378445Y0292323D02*
Y0296063D01*
X0371161D02*
X0378445D01*
X0371161Y0292323D02*
Y0296063D01*
Y0292323D02*
X0378445D01*
X0361319Y0270768D02*
Y0274705D01*
Y0270768D02*
X0368799D01*
Y0274705D01*
X0361319D02*
X0368799D01*
X0375000Y0276772D02*
X0382283D01*
X0375000D02*
Y0280512D01*
X0382283D01*
Y0276772D02*
Y0280512D01*
X0375000Y0272835D02*
X0382283D01*
X0375000D02*
Y0276575D01*
X0382283D01*
Y0272835D02*
Y0276575D01*
X0395669Y0284350D02*
X0399606D01*
Y0291831D01*
X0395669D02*
X0399606D01*
X0395669Y0284350D02*
Y0291831D01*
X0371063Y0288386D02*
X0378543D01*
Y0284449D02*
Y0288386D01*
X0371063Y0284449D02*
X0378543D01*
X0371063D02*
Y0288386D01*
Y0292323D02*
X0378543D01*
Y0288386D02*
Y0292323D01*
X0371063Y0288386D02*
X0378543D01*
X0371063D02*
Y0292323D01*
X0371161Y0299803D02*
X0378445D01*
Y0296063D02*
Y0299803D01*
X0371161Y0296063D02*
X0378445D01*
X0371161D02*
Y0299803D01*
Y0303543D02*
X0378445D01*
Y0299803D02*
Y0303543D01*
X0371161Y0299803D02*
X0378445D01*
X0371161D02*
Y0303543D01*
Y0311122D02*
X0378445D01*
X0371161D02*
Y0314862D01*
X0378445D01*
Y0311122D02*
Y0314862D01*
X0352559Y0274705D02*
X0359842D01*
Y0270965D02*
Y0274705D01*
X0352559Y0270965D02*
X0359842D01*
X0352559D02*
Y0274705D01*
X0374114Y0220571D02*
X0377854D01*
X0374114Y0213287D02*
Y0220571D01*
Y0213287D02*
X0377854D01*
Y0220571D01*
X0227264Y0336614D02*
Y0340354D01*
Y0336614D02*
X0234547D01*
Y0340354D01*
X0227264D02*
X0234547D01*
X0250098Y0336614D02*
Y0340354D01*
X0242815D02*
X0250098D01*
X0242815Y0336614D02*
Y0340354D01*
Y0336614D02*
X0250098D01*
X0234941Y0340354D02*
X0242421D01*
Y0336417D02*
Y0340354D01*
X0234941Y0336417D02*
X0242421D01*
X0234941D02*
Y0340354D01*
X0247736Y0371457D02*
Y0375197D01*
X0240453D02*
X0247736D01*
X0240453Y0371457D02*
Y0375197D01*
Y0371457D02*
X0247736D01*
X0224311Y0371457D02*
Y0375197D01*
Y0371457D02*
X0231594D01*
Y0375197D01*
X0224311D02*
X0231594D01*
X0298445Y0370669D02*
Y0374606D01*
X0290965D02*
X0298445D01*
X0290965Y0370669D02*
Y0374606D01*
Y0370669D02*
X0298445D01*
X0293406Y0337598D02*
Y0341339D01*
Y0337598D02*
X0300689D01*
Y0341339D01*
X0293406D02*
X0300689D01*
X0300689Y0333661D02*
Y0337598D01*
X0293209D02*
X0300689D01*
X0293209Y0333661D02*
Y0337598D01*
Y0333661D02*
X0300689D01*
X0278248Y0370768D02*
Y0374508D01*
Y0370768D02*
X0285531D01*
Y0374508D01*
X0278248D02*
X0285531D01*
X0381594Y0204429D02*
Y0208169D01*
X0374311D02*
X0381594D01*
X0374311Y0204429D02*
Y0208169D01*
Y0204429D02*
X0381594D01*
Y0208760D02*
Y0212500D01*
X0374311D02*
X0381594D01*
X0374311Y0208760D02*
Y0212500D01*
Y0208760D02*
X0381594D01*
X0375984Y0141339D02*
X0390158D01*
Y0133858D02*
Y0141339D01*
X0375984Y0133858D02*
X0390158D01*
X0375984D02*
Y0141339D01*
X0328642Y0352362D02*
Y0359842D01*
X0332579D01*
Y0352362D02*
Y0359842D01*
X0328642Y0352362D02*
X0332579D01*
X0324274Y0336813D02*
X0331557D01*
X0324274D02*
Y0340553D01*
X0331557D01*
Y0336813D02*
Y0340553D01*
X0324274Y0344293D02*
X0331557D01*
Y0340553D02*
Y0344293D01*
X0324274Y0340553D02*
X0331557D01*
X0324274D02*
Y0344293D01*
X0315158Y0340453D02*
X0322441D01*
X0315158D02*
Y0344193D01*
X0322441D01*
Y0340453D02*
Y0344193D01*
X0317482Y0344195D02*
X0329293D01*
X0317482D02*
Y0350100D01*
X0329293D01*
Y0344195D02*
Y0350100D01*
X0317482Y0349116D02*
Y0360927D01*
X0311577Y0349116D02*
X0317482D01*
X0311577D02*
Y0360927D01*
X0317482D01*
Y0359943D02*
X0329293D01*
X0317482D02*
Y0365848D01*
X0329293D01*
Y0359943D02*
Y0365848D01*
X0322441Y0366043D02*
Y0373327D01*
X0318701Y0366043D02*
X0322441D01*
X0318701D02*
Y0373327D01*
X0322441D01*
X0388347Y0152953D02*
X0395827D01*
X0388347D02*
Y0156890D01*
X0395827D01*
Y0152953D02*
Y0156890D01*
X0177067Y0289665D02*
X0184547D01*
Y0285728D02*
Y0289665D01*
X0177067Y0285728D02*
X0184547D01*
X0177067D02*
Y0289665D01*
X0184547Y0285728D02*
X0192027D01*
X0184547D02*
Y0289665D01*
X0192027D01*
Y0285728D02*
Y0289665D01*
X0184547D02*
X0192027D01*
X0184547D02*
Y0293602D01*
X0192027D01*
Y0289665D02*
Y0293602D01*
X0188779Y0261319D02*
X0196260D01*
X0188779D02*
Y0265256D01*
X0196260D01*
Y0261319D02*
Y0265256D01*
X0181496Y0263878D02*
X0188779D01*
Y0260138D02*
Y0263878D01*
X0181496Y0260138D02*
X0188779D01*
X0181496D02*
Y0263878D01*
X0197736Y0279035D02*
X0205020D01*
Y0275295D02*
Y0279035D01*
X0197736Y0275295D02*
X0205020D01*
X0197736D02*
Y0279035D01*
Y0275492D02*
X0205020D01*
Y0271752D02*
Y0275492D01*
X0197736Y0271752D02*
X0205020D01*
X0197736D02*
Y0275492D01*
X0177067Y0208957D02*
X0184547D01*
Y0205020D02*
Y0208957D01*
X0177067Y0205020D02*
X0184547D01*
X0177067D02*
Y0208957D01*
X0184547Y0205020D02*
X0192027D01*
X0184547D02*
Y0208957D01*
X0192027D01*
Y0205020D02*
Y0208957D01*
X0184547D02*
X0192027D01*
X0184547D02*
Y0212894D01*
X0192027D01*
Y0208957D02*
Y0212894D01*
X0188779Y0180610D02*
X0196260D01*
X0188779D02*
Y0184547D01*
X0196260D01*
Y0180610D02*
Y0184547D01*
X0181496Y0183169D02*
X0188779D01*
Y0179429D02*
Y0183169D01*
X0181496Y0179429D02*
X0188779D01*
X0181496D02*
Y0183169D01*
X0197736Y0198327D02*
X0205020D01*
Y0194587D02*
Y0198327D01*
X0197736Y0194587D02*
X0205020D01*
X0197736D02*
Y0198327D01*
Y0194783D02*
X0205020D01*
Y0191043D02*
Y0194783D01*
X0197736Y0191043D02*
X0205020D01*
X0197736D02*
Y0194783D01*
X0177067Y0128248D02*
X0184547D01*
Y0124311D02*
Y0128248D01*
X0177067Y0124311D02*
X0184547D01*
X0177067D02*
Y0128248D01*
X0184547Y0124311D02*
X0192027D01*
X0184547D02*
Y0128248D01*
X0192027D01*
Y0124311D02*
Y0128248D01*
X0184547D02*
X0192027D01*
X0184547D02*
Y0132185D01*
X0192027D01*
Y0128248D02*
Y0132185D01*
X0188779Y0099902D02*
X0196260D01*
X0188779D02*
Y0103839D01*
X0196260D01*
Y0099902D02*
Y0103839D01*
X0181496Y0102461D02*
X0188779D01*
Y0098721D02*
Y0102461D01*
X0181496Y0098721D02*
X0188779D01*
X0181496D02*
Y0102461D01*
X0197736Y0117618D02*
X0205020D01*
Y0113878D02*
Y0117618D01*
X0197736Y0113878D02*
X0205020D01*
X0197736D02*
Y0117618D01*
Y0114075D02*
X0205020D01*
Y0110335D02*
Y0114075D01*
X0197736Y0110335D02*
X0205020D01*
X0197736D02*
Y0114075D01*
X0188779Y0342028D02*
X0196260D01*
X0188779D02*
Y0345965D01*
X0196260D01*
Y0342028D02*
Y0345965D01*
X0177067Y0370374D02*
X0184547D01*
Y0366437D02*
Y0370374D01*
X0177067Y0366437D02*
X0184547D01*
X0177067D02*
Y0370374D01*
X0184547Y0366437D02*
X0192027D01*
X0184547D02*
Y0370374D01*
X0192027D01*
Y0366437D02*
Y0370374D01*
X0184547D02*
X0192027D01*
X0184547D02*
Y0374311D01*
X0192027D01*
Y0370374D02*
Y0374311D01*
X0376083Y0092815D02*
X0379823D01*
Y0100098D01*
X0376083D02*
X0379823D01*
X0376083Y0092815D02*
Y0100098D01*
X0258366Y0283268D02*
Y0287992D01*
X0264665D01*
Y0283268D02*
Y0287992D01*
X0258366Y0283268D02*
X0264665D01*
X0374114Y0196358D02*
X0377854D01*
Y0203642D01*
X0374114D02*
X0377854D01*
X0374114Y0196358D02*
Y0203642D01*
X0240748Y0093701D02*
X0244488D01*
Y0100984D01*
X0240748D02*
X0244488D01*
X0240748Y0093701D02*
Y0100984D01*
X0291437Y0068209D02*
X0294193D01*
Y0062697D02*
Y0068209D01*
X0291437Y0062697D02*
X0294193D01*
X0291437D02*
Y0068209D01*
X0294193D02*
X0296949D01*
Y0062697D02*
Y0068209D01*
X0294193Y0062697D02*
X0296949D01*
X0294193D02*
Y0068209D01*
X0297342D02*
X0300098D01*
Y0062697D02*
Y0068209D01*
X0297342Y0062697D02*
X0300098D01*
X0297342D02*
Y0068209D01*
X0300098D02*
X0302854D01*
Y0062697D02*
Y0068209D01*
X0300098Y0062697D02*
X0302854D01*
X0300098D02*
Y0068209D01*
X0303248D02*
X0306004D01*
Y0062697D02*
Y0068209D01*
X0303248Y0062697D02*
X0306004D01*
X0303248D02*
Y0068209D01*
X0306004D02*
X0308760D01*
Y0062697D02*
Y0068209D01*
X0306004Y0062697D02*
X0308760D01*
X0306004D02*
Y0068209D01*
X0309154D02*
X0311910D01*
Y0062697D02*
Y0068209D01*
X0309154Y0062697D02*
X0311910D01*
X0309154D02*
Y0068209D01*
X0311910D02*
X0314665D01*
Y0062697D02*
Y0068209D01*
X0311910Y0062697D02*
X0314665D01*
X0311910D02*
Y0068209D01*
X0006791Y0199508D02*
X0010531D01*
X0006791Y0192224D02*
Y0199508D01*
Y0192224D02*
X0010531D01*
Y0199508D01*
X0318040Y0290846D02*
X0321780D01*
Y0298130D01*
X0318040D02*
X0321780D01*
X0318040Y0290846D02*
Y0298130D01*
X0316508Y0303445D02*
Y0307185D01*
X0309225D02*
X0316508D01*
X0309225Y0303445D02*
Y0307185D01*
Y0303445D02*
X0316508D01*
X0309421D02*
Y0307185D01*
X0302138D02*
X0309421D01*
X0302138Y0303445D02*
Y0307185D01*
Y0303445D02*
X0309421D01*
X0271161Y0279134D02*
Y0282874D01*
X0263878D02*
X0271161D01*
X0263878Y0279134D02*
Y0282874D01*
Y0279134D02*
X0271161D01*
X0302335Y0303445D02*
Y0307185D01*
X0295051D02*
X0302335D01*
X0295051Y0303445D02*
Y0307185D01*
Y0303445D02*
X0302335D01*
X0264075Y0279134D02*
Y0282874D01*
X0256791D02*
X0264075D01*
X0256791Y0279134D02*
Y0282874D01*
Y0279134D02*
X0264075D01*
X0249902Y0292815D02*
Y0298721D01*
Y0292815D02*
X0261713D01*
Y0298721D01*
X0249902D02*
X0261713D01*
X0295248Y0303445D02*
Y0307185D01*
X0287965D02*
X0295248D01*
X0287965Y0303445D02*
Y0307185D01*
Y0303445D02*
X0295248D01*
X0272835Y0290453D02*
Y0294193D01*
X0265551D02*
X0272835D01*
X0265551Y0290453D02*
Y0294193D01*
Y0290453D02*
X0272835D01*
X0197736Y0352461D02*
Y0356201D01*
Y0352461D02*
X0205020D01*
Y0356201D01*
X0197736D02*
X0205020D01*
X0253248Y0277756D02*
X0256988D01*
Y0285039D01*
X0253248D02*
X0256988D01*
X0253248Y0277756D02*
Y0285039D01*
X0394587Y0151772D02*
X0398327D01*
X0394587Y0144488D02*
Y0151772D01*
Y0144488D02*
X0398327D01*
Y0151772D01*
X0253937Y0285039D02*
X0257677D01*
Y0292323D01*
X0253937D02*
X0257677D01*
X0253937Y0285039D02*
Y0292323D01*
X0228839Y0270571D02*
Y0276476D01*
Y0270571D02*
X0240650D01*
Y0276476D01*
X0228839D02*
X0240650D01*
X0197736Y0356004D02*
Y0359744D01*
Y0356004D02*
X0205020D01*
Y0359744D01*
X0197736D02*
X0205020D01*
X0228937Y0277264D02*
Y0295374D01*
X0241929D01*
Y0277264D02*
Y0295374D01*
X0228937Y0277264D02*
X0241929D01*
X0266043Y0305118D02*
X0269783D01*
X0266043Y0297835D02*
Y0305118D01*
Y0297835D02*
X0269783D01*
Y0305118D01*
X0269587D02*
X0273327D01*
X0269587Y0297835D02*
Y0305118D01*
Y0297835D02*
X0273327D01*
Y0305118D01*
X0383661Y0122047D02*
Y0125984D01*
X0376181D02*
X0383661D01*
X0376181Y0122047D02*
Y0125984D01*
Y0122047D02*
X0383661D01*
Y0100787D02*
Y0104724D01*
X0376181D02*
X0383661D01*
X0376181Y0100787D02*
Y0104724D01*
Y0100787D02*
X0383661D01*
X0380807Y0152953D02*
Y0156890D01*
Y0152953D02*
X0388287D01*
Y0156890D01*
X0380807D02*
X0388287D01*
X0284547Y0093799D02*
X0287697D01*
X0284547Y0099705D02*
X0287697D01*
X0284547Y0093799D02*
Y0099705D01*
X0287697Y0093799D02*
Y0099705D01*
X0287697Y0093799D02*
X0290846D01*
X0287697Y0099705D02*
X0290846D01*
X0287697Y0093799D02*
Y0099705D01*
X0290846Y0093799D02*
Y0099705D01*
X0290846Y0093799D02*
X0293996D01*
X0290846Y0099705D02*
X0293996D01*
X0290846Y0093799D02*
Y0099705D01*
X0293996Y0093799D02*
Y0099705D01*
X0293996Y0093799D02*
X0297146D01*
X0293996Y0099705D02*
X0297146D01*
X0293996Y0093799D02*
Y0099705D01*
X0297146Y0093799D02*
Y0099705D01*
Y0093799D02*
X0300295D01*
X0297146Y0099705D02*
X0300295D01*
X0297146Y0093799D02*
Y0099705D01*
X0300295Y0093799D02*
Y0099705D01*
X0300295Y0093799D02*
X0303445D01*
X0300295Y0099705D02*
X0303445D01*
X0300295Y0093799D02*
Y0099705D01*
X0303445Y0093799D02*
Y0099705D01*
X0303445Y0093799D02*
X0306594D01*
X0303445Y0099705D02*
X0306594D01*
X0303445Y0093799D02*
Y0099705D01*
X0306594Y0093799D02*
Y0099705D01*
Y0093799D02*
X0309744D01*
X0306594Y0099705D02*
X0309744D01*
X0306594Y0093799D02*
Y0099705D01*
X0309744Y0093799D02*
Y0099705D01*
X0309744Y0093799D02*
X0312894D01*
X0309744Y0099705D02*
X0312894D01*
X0309744Y0093799D02*
Y0099705D01*
X0312894Y0093799D02*
Y0099705D01*
X0265453Y0283071D02*
X0269390D01*
Y0290551D01*
X0265453D02*
X0269390D01*
X0265453Y0283071D02*
Y0290551D01*
X0268701Y0273130D02*
Y0279035D01*
X0256890D02*
X0268701D01*
X0256890Y0273130D02*
Y0279035D01*
Y0273130D02*
X0268701D01*
X0265256Y0288484D02*
Y0292421D01*
X0257775D02*
X0265256D01*
X0257775Y0288484D02*
Y0292421D01*
Y0288484D02*
X0265256D01*
X0325619Y0286614D02*
Y0290551D01*
X0318139D02*
X0325619D01*
X0318139Y0286614D02*
Y0290551D01*
Y0286614D02*
X0325619D01*
X0242224Y0284941D02*
Y0299114D01*
X0249705D01*
Y0284941D02*
Y0299114D01*
X0242224Y0284941D02*
X0249705D01*
X0252756Y0270571D02*
Y0276476D01*
X0240945D02*
X0252756D01*
X0240945Y0270571D02*
Y0276476D01*
Y0270571D02*
X0252756D01*
X0249902Y0285138D02*
X0253839D01*
Y0292618D01*
X0249902D02*
X0253839D01*
X0249902Y0285138D02*
Y0292618D01*
X0277264Y0280906D02*
X0281201D01*
Y0288386D01*
X0277264D02*
X0281201D01*
X0277264Y0280906D02*
Y0288386D01*
X0325619Y0282087D02*
Y0286024D01*
X0318139D02*
X0325619D01*
X0318139Y0282087D02*
Y0286024D01*
Y0282087D02*
X0325619D01*
X0281201Y0280906D02*
X0285138D01*
Y0288386D01*
X0281201D02*
X0285138D01*
X0281201Y0280906D02*
Y0288386D01*
X0281131Y0305223D02*
X0285068D01*
X0281131Y0297743D02*
Y0305223D01*
Y0297743D02*
X0285068D01*
Y0305223D01*
X0325619Y0298425D02*
Y0302362D01*
X0318139D02*
X0325619D01*
X0318139Y0298425D02*
Y0302362D01*
Y0298425D02*
X0325619D01*
X0277194Y0305223D02*
X0281131D01*
X0277194Y0297743D02*
Y0305223D01*
Y0297743D02*
X0281131D01*
Y0305223D01*
X0325619Y0302362D02*
Y0306299D01*
X0318139D02*
X0325619D01*
X0318139Y0302362D02*
Y0306299D01*
Y0302362D02*
X0325619D01*
X0273257Y0305223D02*
X0277194D01*
X0273257Y0297743D02*
Y0305223D01*
Y0297743D02*
X0277194D01*
Y0305223D01*
X0325619Y0306299D02*
Y0310236D01*
X0318139D02*
X0325619D01*
X0318139Y0306299D02*
Y0310236D01*
Y0306299D02*
X0325619D01*
X0312894Y0093799D02*
X0316043D01*
X0312894Y0099705D02*
X0316043D01*
X0312894Y0093799D02*
Y0099705D01*
X0316043Y0093799D02*
Y0099705D01*
M02*
