G04*
G04 #@! TF.GenerationSoftware,Altium Limited,Altium Designer,23.10.1 (27)*
G04*
G04 Layer_Color=8388736*
%FSAX25Y25*%
%MOIN*%
G70*
G04*
G04 #@! TF.SameCoordinates,24A0423C-D8D6-4CDA-AFC9-E754AC273B9F*
G04*
G04*
G04 #@! TF.FilePolarity,Positive*
G04*
G01*
G75*
%ADD11C,0.00394*%
%ADD18C,0.01000*%
%ADD216C,0.00197*%
D11*
X0235895Y0250081D02*
G03*
X0235895Y0250081I-0012598J0000000D01*
G01*
X0369753D02*
G03*
X0369753Y0250081I-0012598J0000000D01*
G01*
X0369753Y0076853D02*
G03*
X0369753Y0076853I-0012598J0000000D01*
G01*
X0235895Y0076853D02*
G03*
X0235895Y0076853I-0012598J0000000D01*
G01*
D18*
X0468504Y0254331D02*
Y0292126D01*
X0415354Y0254331D02*
X0468504D01*
X0415354D02*
Y0292126D01*
X0468504D01*
X0415354Y0137402D02*
X0468504D01*
X0415354Y0099606D02*
Y0137402D01*
Y0099606D02*
X0468504D01*
Y0137402D01*
X0000295Y0304823D02*
Y0342618D01*
X0053445D01*
Y0304823D02*
Y0342618D01*
X0000295Y0304823D02*
X0053445D01*
X0000295Y0219587D02*
X0053445D01*
Y0257382D01*
X0000295D02*
X0053445D01*
X0000295Y0219587D02*
Y0257382D01*
Y0134350D02*
Y0172146D01*
X0053445D01*
Y0134350D02*
Y0172146D01*
X0000295Y0134350D02*
X0053445D01*
X0000295Y0049114D02*
X0053445D01*
Y0086909D01*
X0000295D02*
X0053445D01*
X0000295Y0049114D02*
Y0086909D01*
D216*
X0235500Y0099983D02*
G03*
X0239043Y0103526I0000000J0003543D01*
G01*
X0215421D02*
G03*
X0218965Y0099983I0003543J0000000D01*
G01*
Y0226951D02*
G03*
X0215421Y0223408I0000000J-0003543D01*
G01*
X0239043D02*
G03*
X0235500Y0226951I-0003543J0000000D01*
G01*
X0365028Y0223408D02*
G03*
X0361484Y0226951I-0003543J0000000D01*
G01*
X0344949D02*
G03*
X0341406Y0223408I0000000J-0003543D01*
G01*
Y0103526D02*
G03*
X0344949Y0099983I0003543J0000000D01*
G01*
X0361484D02*
G03*
X0365028Y0103526I0000000J0003543D01*
G01*
X0246429Y0072526D02*
G03*
X0249972Y0068983I0003543J0000000D01*
G01*
Y0092605D02*
G03*
X0246429Y0089062I0000000J-0003543D01*
G01*
X0334028D02*
G03*
X0330484Y0092605I-0003543J0000000D01*
G01*
Y0068983D02*
G03*
X0334028Y0072526I0000000J0003543D01*
G01*
X0350098Y0343091D02*
Y0359665D01*
X0335925Y0343091D02*
Y0359665D01*
X0350098D01*
X0335925Y0343091D02*
X0350098D01*
X0422740Y0225882D02*
X0434740D01*
Y0163882D02*
Y0225882D01*
X0422740Y0163882D02*
Y0225882D01*
Y0163882D02*
X0434740D01*
X0031850Y0366850D02*
Y0378425D01*
X0000063D02*
X0031850D01*
X0000063Y0366850D02*
X0031850D01*
X0000063D02*
Y0378425D01*
X0407283Y0114173D02*
Y0120079D01*
X0411614Y0114173D02*
Y0120079D01*
X0407283Y0114173D02*
X0411614D01*
X0407283Y0120079D02*
X0411614D01*
X0407283Y0274803D02*
X0411614D01*
X0407283Y0268898D02*
X0411614D01*
Y0274803D01*
X0407283Y0268898D02*
Y0274803D01*
X0392618Y0355413D02*
X0398524D01*
X0392618Y0351083D02*
X0398524D01*
X0392618D02*
Y0355413D01*
X0398524Y0351083D02*
Y0355413D01*
X0405413Y0351083D02*
Y0355413D01*
X0411319Y0351083D02*
Y0355413D01*
X0405413D02*
X0411319D01*
X0405413Y0351083D02*
X0411319D01*
X0060236Y0315945D02*
Y0360039D01*
X0094094D01*
X0060236Y0315945D02*
X0094094D01*
Y0360039D01*
X0128327Y0315945D02*
Y0360039D01*
X0094468Y0315945D02*
X0128327D01*
X0094468Y0360039D02*
X0128327D01*
X0094468Y0315945D02*
Y0360039D01*
X0060236Y0073917D02*
Y0118012D01*
X0094095D01*
X0060236Y0073917D02*
X0094095D01*
Y0118012D01*
Y0154626D02*
Y0198721D01*
X0060236Y0154626D02*
X0094095D01*
X0060236Y0198721D02*
X0094095D01*
X0060236Y0154626D02*
Y0198721D01*
Y0235236D02*
Y0279331D01*
X0094095D01*
X0060236Y0235236D02*
X0094095D01*
Y0279331D01*
X0128327Y0073819D02*
Y0117913D01*
X0094468Y0073819D02*
X0128327D01*
X0094468Y0117913D02*
X0128327D01*
X0094468Y0073819D02*
Y0117913D01*
Y0154528D02*
Y0198622D01*
X0128327D01*
X0094468Y0154528D02*
X0128327D01*
Y0198622D01*
Y0235236D02*
Y0279331D01*
X0094468Y0235236D02*
X0128327D01*
X0094468Y0279331D02*
X0128327D01*
X0094468Y0235236D02*
Y0279331D01*
X-0000492Y0188779D02*
Y0202953D01*
X0006693D01*
X-0000492Y0188779D02*
X0006693D01*
Y0202953D01*
X0218965Y0099983D02*
X0235500D01*
X0215421Y0103526D02*
Y0223408D01*
X0218965Y0226951D02*
X0235500D01*
X0239043Y0103526D02*
Y0223408D01*
X0365028Y0103526D02*
Y0223408D01*
X0344949Y0226951D02*
X0361484D01*
X0341406Y0103526D02*
Y0223408D01*
X0344949Y0099983D02*
X0361484D01*
X0246429Y0072526D02*
Y0089062D01*
X0249972Y0092605D02*
X0330484D01*
X0334028Y0072526D02*
Y0089062D01*
X0249972Y0068983D02*
X0330484D01*
X0054454Y0304144D02*
X0174139D01*
X0054454D02*
Y0381310D01*
X0174139D01*
Y0304144D02*
Y0381310D01*
X0059277Y0376388D02*
X0169316D01*
X0059277Y0309065D02*
Y0376388D01*
Y0309065D02*
X0169316D01*
Y0376388D01*
Y0228357D02*
Y0295680D01*
X0059277Y0228357D02*
X0169316D01*
X0059277D02*
Y0295680D01*
X0169316D01*
X0174139Y0223435D02*
Y0300601D01*
X0054454D02*
X0174139D01*
X0054454Y0223435D02*
Y0300601D01*
Y0223435D02*
X0174139D01*
X0054454Y0142727D02*
X0174139D01*
X0054454D02*
Y0219892D01*
X0174139D01*
Y0142727D02*
Y0219892D01*
X0059277Y0214971D02*
X0169316D01*
X0059277Y0147648D02*
Y0214971D01*
Y0147648D02*
X0169316D01*
Y0214971D01*
Y0066939D02*
Y0134262D01*
X0059277Y0066939D02*
X0169316D01*
X0059277D02*
Y0134262D01*
X0169316D01*
X0174139Y0062018D02*
Y0139183D01*
X0054454D02*
X0174139D01*
X0054454Y0062018D02*
Y0139183D01*
Y0062018D02*
X0174139D01*
X0334252Y0275295D02*
X0370276D01*
X0334252Y0311319D02*
X0370276D01*
X0334252Y0275295D02*
Y0311319D01*
X0370276Y0275295D02*
Y0311319D01*
X0098032Y0283169D02*
Y0290650D01*
X0083858Y0283169D02*
Y0290650D01*
Y0283169D02*
X0098032D01*
X0083858Y0290650D02*
X0098032D01*
X0086614Y0283169D02*
X0093898D01*
X0086614Y0279429D02*
X0093898D01*
X0086614D02*
Y0283169D01*
X0093898Y0279429D02*
Y0283169D01*
X0079331Y0279429D02*
X0086614D01*
X0079331Y0283169D02*
X0086614D01*
Y0279429D02*
Y0283169D01*
X0079331Y0279429D02*
Y0283169D01*
X0072047Y0279429D02*
X0079331D01*
X0072047Y0283169D02*
X0079331D01*
Y0279429D02*
Y0283169D01*
X0072047Y0279429D02*
Y0283169D01*
X0072047Y0289862D02*
X0083858D01*
X0072047Y0283957D02*
X0083858D01*
X0072047D02*
Y0289862D01*
X0083858Y0283957D02*
Y0289862D01*
X0066142Y0279429D02*
Y0291240D01*
X0060236Y0279429D02*
Y0291240D01*
X0066142D01*
X0060236Y0279429D02*
X0066142D01*
X0066142D02*
Y0291240D01*
X0072047Y0279429D02*
Y0291240D01*
X0066142Y0279429D02*
X0072047D01*
X0066142Y0291240D02*
X0072047D01*
X0098032Y0202461D02*
Y0209941D01*
X0083858Y0202461D02*
Y0209941D01*
Y0202461D02*
X0098032D01*
X0083858Y0209941D02*
X0098032D01*
X0086614Y0202461D02*
X0093898D01*
X0086614Y0198720D02*
X0093898D01*
X0086614D02*
Y0202461D01*
X0093898Y0198720D02*
Y0202461D01*
X0079331Y0198721D02*
X0086614D01*
X0079331Y0202461D02*
X0086614D01*
Y0198721D02*
Y0202461D01*
X0079331Y0198721D02*
Y0202461D01*
X0072047Y0198721D02*
X0079331D01*
X0072047Y0202461D02*
X0079331D01*
Y0198721D02*
Y0202461D01*
X0072047Y0198721D02*
Y0202461D01*
X0072047Y0209154D02*
X0083858D01*
X0072047Y0203248D02*
X0083858D01*
X0072047D02*
Y0209154D01*
X0083858Y0203248D02*
Y0209154D01*
X0066142Y0198721D02*
Y0210531D01*
X0060236Y0198721D02*
Y0210531D01*
X0066142D01*
X0060236Y0198721D02*
X0066142D01*
X0066142D02*
Y0210531D01*
X0072047Y0198721D02*
Y0210531D01*
X0066142Y0198721D02*
X0072047D01*
X0066142Y0210531D02*
X0072047D01*
X0098032Y0121752D02*
Y0129232D01*
X0083858Y0121752D02*
Y0129232D01*
Y0121752D02*
X0098032D01*
X0083858Y0129232D02*
X0098032D01*
X0086614Y0121752D02*
X0093898D01*
X0086614Y0118012D02*
X0093898D01*
X0086614D02*
Y0121752D01*
X0093898Y0118012D02*
Y0121752D01*
X0079331Y0118012D02*
X0086614D01*
X0079331Y0121752D02*
X0086614D01*
Y0118012D02*
Y0121752D01*
X0079331Y0118012D02*
Y0121752D01*
X0072047Y0118012D02*
X0079331D01*
X0072047Y0121752D02*
X0079331D01*
Y0118012D02*
Y0121752D01*
X0072047Y0118012D02*
Y0121752D01*
X0072047Y0128445D02*
X0083858D01*
X0072047Y0122539D02*
X0083858D01*
X0072047D02*
Y0128445D01*
X0083858Y0122539D02*
Y0128445D01*
X0066142Y0118012D02*
Y0129823D01*
X0060236Y0118012D02*
Y0129823D01*
X0066142D01*
X0060236Y0118012D02*
X0066142D01*
X0066142D02*
Y0129823D01*
X0072047Y0118012D02*
Y0129823D01*
X0066142Y0118012D02*
X0072047D01*
X0066142Y0129823D02*
X0072047D01*
X0066142Y0360138D02*
Y0371949D01*
X0072047Y0360138D02*
Y0371949D01*
X0066142Y0360138D02*
X0072047D01*
X0066142Y0371949D02*
X0072047D01*
X0098032Y0363878D02*
Y0371358D01*
X0083858Y0363878D02*
Y0371358D01*
Y0363878D02*
X0098032D01*
X0083858Y0371358D02*
X0098032D01*
X0427973Y0357362D02*
Y0392461D01*
X0376004D02*
X0427973D01*
X0376004Y0357362D02*
Y0392461D01*
Y0357362D02*
X0427973D01*
X0369488Y0352067D02*
Y0359941D01*
X0359843Y0352067D02*
Y0359941D01*
Y0352067D02*
X0369488D01*
X0359843Y0359941D02*
X0369488D01*
X0369882Y0345965D02*
X0377165D01*
X0369882Y0342224D02*
X0377165D01*
X0369882D02*
Y0345965D01*
X0377165Y0342224D02*
Y0345965D01*
X0369783Y0340059D02*
Y0343799D01*
X0362500Y0340059D02*
Y0343799D01*
Y0340059D02*
X0369783D01*
X0362500Y0343799D02*
X0369783D01*
X0377165Y0345965D02*
Y0360138D01*
X0369685Y0345965D02*
Y0360138D01*
X0377165D01*
X0369685Y0345965D02*
X0377165D01*
X0377658Y0354921D02*
X0381398D01*
X0377658Y0347638D02*
X0381398D01*
Y0354921D01*
X0377658Y0347638D02*
Y0354921D01*
X0381890Y0347146D02*
Y0358957D01*
X0387795Y0347146D02*
Y0358957D01*
X0381890Y0347146D02*
X0387795D01*
X0381890Y0358957D02*
X0387795D01*
X0362500Y0340059D02*
Y0343799D01*
X0355217Y0340059D02*
Y0343799D01*
Y0340059D02*
X0362500D01*
X0355217Y0343799D02*
X0362500D01*
X0355217Y0351870D02*
X0369390D01*
X0355217Y0344390D02*
X0369390D01*
X0355217D02*
Y0351870D01*
X0369390Y0344390D02*
Y0351870D01*
X0373524Y0360138D02*
Y0373130D01*
X0355413Y0360138D02*
Y0373130D01*
Y0360138D02*
X0373524D01*
X0355413Y0373130D02*
X0373524D01*
X0195669Y0374311D02*
Y0378248D01*
X0188189Y0374311D02*
Y0378248D01*
Y0374311D02*
X0195669D01*
X0188189Y0378248D02*
X0195669D01*
Y0293602D02*
Y0297539D01*
X0188189Y0293602D02*
Y0297539D01*
Y0293602D02*
X0195669D01*
X0188189Y0297539D02*
X0195669D01*
Y0212894D02*
Y0216831D01*
X0188189Y0212894D02*
Y0216831D01*
Y0212894D02*
X0195669D01*
X0188189Y0216831D02*
X0195669D01*
Y0132185D02*
Y0136122D01*
X0188189Y0132185D02*
Y0136122D01*
Y0132185D02*
X0195669D01*
X0188189Y0136122D02*
X0195669D01*
X0180905Y0132185D02*
X0188189D01*
X0180905Y0135925D02*
X0188189D01*
Y0132185D02*
Y0135925D01*
X0180905Y0132185D02*
Y0135925D01*
Y0374311D02*
X0188189D01*
X0180905Y0378051D02*
X0188189D01*
Y0374311D02*
Y0378051D01*
X0180905Y0374311D02*
Y0378051D01*
Y0293602D02*
X0188189D01*
X0180905Y0297342D02*
X0188189D01*
Y0293602D02*
Y0297342D01*
X0180905Y0293602D02*
Y0297342D01*
Y0212894D02*
X0188189D01*
X0180905Y0216634D02*
X0188189D01*
Y0212894D02*
Y0216634D01*
X0180905Y0212894D02*
Y0216634D01*
X0301102Y0337303D02*
Y0341240D01*
X0308583Y0337303D02*
Y0341240D01*
X0301102D02*
X0308583D01*
X0301102Y0337303D02*
X0308583D01*
X0367421Y0313386D02*
Y0320669D01*
X0363681Y0313386D02*
Y0320669D01*
X0367421D01*
X0363681Y0313386D02*
X0367421D01*
X0371142Y0311067D02*
X0378426D01*
X0371142Y0307327D02*
X0378426D01*
X0371142D02*
Y0311067D01*
X0378426Y0307327D02*
Y0311067D01*
X0371161Y0307283D02*
X0378445D01*
X0371161Y0303543D02*
X0378445D01*
X0371161D02*
Y0307283D01*
X0378445Y0303543D02*
Y0307283D01*
X0371161Y0280610D02*
X0378445D01*
X0371161Y0284350D02*
X0378445D01*
Y0280610D02*
Y0284350D01*
X0371161Y0280610D02*
Y0284350D01*
Y0273130D02*
Y0280413D01*
X0374902Y0273130D02*
Y0280413D01*
X0371161Y0273130D02*
X0374902D01*
X0371161Y0280413D02*
X0374902D01*
X0086614Y0363878D02*
X0093898D01*
X0086614Y0360138D02*
X0093898D01*
X0086614D02*
Y0363878D01*
X0093898Y0360138D02*
Y0363878D01*
X0079331Y0360138D02*
X0086614D01*
X0079331Y0363878D02*
X0086614D01*
Y0360138D02*
Y0363878D01*
X0079331Y0360138D02*
Y0363878D01*
X0083858Y0364665D02*
Y0370571D01*
X0072047Y0364665D02*
Y0370571D01*
Y0364665D02*
X0083858D01*
X0072047Y0370571D02*
X0083858D01*
X0072047Y0360138D02*
X0079331D01*
X0072047Y0363878D02*
X0079331D01*
Y0360138D02*
Y0363878D01*
X0072047Y0360138D02*
Y0363878D01*
X0060236Y0360138D02*
X0066142D01*
X0060236Y0371949D02*
X0066142D01*
X0060236Y0360138D02*
Y0371949D01*
X0066142Y0360138D02*
Y0371949D01*
X0105512Y0360039D02*
Y0365945D01*
X0117323Y0360039D02*
Y0365945D01*
X0105512D02*
X0117323D01*
X0105512Y0360039D02*
X0117323D01*
X0117323Y0360039D02*
X0129134D01*
X0117323Y0365945D02*
X0129134D01*
Y0360039D02*
Y0365945D01*
X0117323Y0360039D02*
Y0365945D01*
X0268701Y0333858D02*
Y0341142D01*
X0272441Y0333858D02*
Y0341142D01*
X0268701Y0333858D02*
X0272441D01*
X0268701Y0341142D02*
X0272441D01*
X0275098Y0370669D02*
Y0374606D01*
X0267618Y0370669D02*
Y0374606D01*
Y0370669D02*
X0275098D01*
X0267618Y0374606D02*
X0275098D01*
X0286516Y0341339D02*
Y0370472D01*
X0264862Y0341339D02*
Y0370472D01*
X0286516D01*
X0264862Y0341339D02*
X0286516D01*
X0276181Y0333661D02*
X0280118D01*
X0276181Y0341142D02*
X0280118D01*
X0276181Y0333661D02*
Y0341142D01*
X0280118Y0333661D02*
Y0341142D01*
X0276181Y0333858D02*
Y0341142D01*
X0272441Y0333858D02*
Y0341142D01*
X0276181D01*
X0272441Y0333858D02*
X0276181D01*
X0281201Y0333661D02*
X0285138D01*
X0281201Y0341142D02*
X0285138D01*
X0281201Y0333661D02*
Y0341142D01*
X0285138Y0333661D02*
Y0341142D01*
X0263091Y0340650D02*
Y0365256D01*
X0249311Y0340650D02*
Y0365256D01*
X0263091D01*
X0249311Y0340650D02*
X0263091D01*
X0257874Y0336417D02*
Y0340354D01*
X0250394Y0336417D02*
Y0340354D01*
Y0336417D02*
X0257874D01*
X0250394Y0340354D02*
X0257874D01*
X0352559Y0338779D02*
Y0342717D01*
X0345079Y0338779D02*
Y0342717D01*
Y0338779D02*
X0352559D01*
X0345079Y0342717D02*
X0352559D01*
X0336988Y0365945D02*
X0348799D01*
X0336988Y0360039D02*
X0348799D01*
X0336988D02*
Y0365945D01*
X0348799Y0360039D02*
Y0365945D01*
X0337028Y0372343D02*
X0348839D01*
X0337028Y0366437D02*
X0348839D01*
X0337028D02*
Y0372343D01*
X0348839Y0366437D02*
Y0372343D01*
X0333267Y0336811D02*
X0345078D01*
X0333267Y0342717D02*
X0345078D01*
Y0336811D02*
Y0342717D01*
X0333267Y0336811D02*
Y0342717D01*
X0329429Y0311417D02*
Y0315158D01*
X0336713Y0311417D02*
Y0315158D01*
X0329429D02*
X0336713D01*
X0329429Y0311417D02*
X0336713D01*
Y0311319D02*
X0344193D01*
X0336713Y0315256D02*
X0344193D01*
Y0311319D02*
Y0315256D01*
X0336713Y0311319D02*
Y0315256D01*
X0326772Y0289764D02*
X0334252D01*
X0326772Y0285827D02*
X0334252D01*
X0326772D02*
Y0289764D01*
X0334252Y0285827D02*
Y0289764D01*
Y0304232D02*
Y0308169D01*
X0326772Y0304232D02*
Y0308169D01*
Y0304232D02*
X0334252D01*
X0326772Y0308169D02*
X0334252D01*
X0159153Y0361417D02*
X0166437D01*
X0159153Y0365158D02*
X0166437D01*
Y0361417D02*
Y0365158D01*
X0159153Y0361417D02*
Y0365158D01*
X0177067Y0370374D02*
Y0374311D01*
X0184547Y0370374D02*
Y0374311D01*
X0177067D02*
X0184547D01*
X0177067Y0370374D02*
X0184547D01*
X0166437Y0365453D02*
Y0369390D01*
X0158957Y0365453D02*
Y0369390D01*
Y0365453D02*
X0166437D01*
X0158957Y0369390D02*
X0166437D01*
X0106299Y0229331D02*
X0118110D01*
X0106299Y0235236D02*
X0118110D01*
Y0229331D02*
Y0235236D01*
X0106299Y0229331D02*
Y0235236D01*
X0094488Y0229331D02*
X0106299D01*
X0094488Y0235236D02*
X0106299D01*
Y0229331D02*
Y0235236D01*
X0094488Y0229331D02*
Y0235236D01*
X0105512Y0279331D02*
X0117323D01*
X0105512Y0285236D02*
X0117323D01*
Y0279331D02*
Y0285236D01*
X0105512Y0279331D02*
Y0285236D01*
X0118110Y0235236D02*
X0129921D01*
X0118110Y0229331D02*
X0129921D01*
X0118110D02*
Y0235236D01*
X0129921Y0229331D02*
Y0235236D01*
X0117323Y0279331D02*
X0129134D01*
X0117323Y0285236D02*
X0129134D01*
Y0279331D02*
Y0285236D01*
X0117323Y0279331D02*
Y0285236D01*
X0142421Y0273031D02*
Y0289567D01*
X0158957Y0273031D02*
Y0289567D01*
X0142421D02*
X0158957D01*
X0142421Y0273031D02*
X0158957D01*
X0132382Y0273917D02*
Y0285728D01*
X0138287Y0273917D02*
Y0285728D01*
X0132382Y0273917D02*
X0138287D01*
X0132382Y0285728D02*
X0138287D01*
X0159153Y0280709D02*
X0166437D01*
X0159153Y0284449D02*
X0166437D01*
Y0280709D02*
Y0284449D01*
X0159153Y0280709D02*
Y0284449D01*
X0138287Y0262106D02*
Y0273917D01*
X0132382Y0262106D02*
Y0273917D01*
X0138287D01*
X0132382Y0262106D02*
X0138287D01*
X0128937Y0255807D02*
X0140748D01*
X0128937Y0261713D02*
X0140748D01*
Y0255807D02*
Y0261713D01*
X0128937Y0255807D02*
Y0261713D01*
X0142224Y0278346D02*
Y0285630D01*
X0138484Y0278346D02*
Y0285630D01*
X0142224D01*
X0138484Y0278346D02*
X0142224D01*
X0132677Y0248524D02*
Y0255807D01*
X0128937Y0248524D02*
Y0255807D01*
X0132677D01*
X0128937Y0248524D02*
X0132677D01*
X0159153Y0280217D02*
X0166437D01*
X0159153Y0276476D02*
X0166437D01*
X0159153D02*
Y0280217D01*
X0166437Y0276476D02*
Y0280217D01*
X0168307Y0234842D02*
Y0263976D01*
X0146653Y0234842D02*
Y0263976D01*
X0168307D01*
X0146653Y0234842D02*
X0168307D01*
X0132874Y0233366D02*
Y0249902D01*
X0146653Y0233366D02*
Y0249902D01*
X0132874Y0233366D02*
X0146653D01*
X0132874Y0249902D02*
X0146653D01*
X0159055Y0272835D02*
X0166339D01*
X0159055Y0276575D02*
X0166339D01*
Y0272835D02*
Y0276575D01*
X0159055Y0272835D02*
Y0276575D01*
X0133661Y0249902D02*
X0145472D01*
X0133661Y0255807D02*
X0145472D01*
Y0249902D02*
Y0255807D01*
X0133661Y0249902D02*
Y0255807D01*
X0139370Y0263681D02*
Y0270965D01*
X0143110Y0263681D02*
Y0270965D01*
X0139370Y0263681D02*
X0143110D01*
X0139370Y0270965D02*
X0143110D01*
X0158957Y0268996D02*
Y0272933D01*
X0166437Y0268996D02*
Y0272933D01*
X0158957D02*
X0166437D01*
X0158957Y0268996D02*
X0166437D01*
X0138386Y0270965D02*
X0142323D01*
X0138386Y0278445D02*
X0142323D01*
X0138386Y0270965D02*
Y0278445D01*
X0142323Y0270965D02*
Y0278445D01*
X0152362Y0230610D02*
X0159646D01*
X0152362Y0234350D02*
X0159646D01*
Y0230610D02*
Y0234350D01*
X0152362Y0230610D02*
Y0234350D01*
X0150984Y0293504D02*
X0158268D01*
X0150984Y0289764D02*
X0158268D01*
X0150984D02*
Y0293504D01*
X0158268Y0289764D02*
Y0293504D01*
X0140748Y0255807D02*
Y0263090D01*
X0144488Y0255807D02*
Y0263090D01*
X0140748Y0255807D02*
X0144488D01*
X0140748Y0263090D02*
X0144488D01*
X0160827Y0263976D02*
Y0267913D01*
X0168307Y0263976D02*
Y0267913D01*
X0160827D02*
X0168307D01*
X0160827Y0263976D02*
X0168307D01*
X0177067Y0289665D02*
Y0293602D01*
X0184547Y0289665D02*
Y0293602D01*
X0177067D02*
X0184547D01*
X0177067Y0289665D02*
X0184547D01*
X0149016Y0229331D02*
Y0233268D01*
X0141535Y0229331D02*
Y0233268D01*
Y0229331D02*
X0149016D01*
X0141535Y0233268D02*
X0149016D01*
X0166437Y0284744D02*
Y0288681D01*
X0158957Y0284744D02*
Y0288681D01*
Y0284744D02*
X0166437D01*
X0158957Y0288681D02*
X0166437D01*
X0143504Y0289665D02*
Y0293602D01*
X0150984Y0289665D02*
Y0293602D01*
X0143504D02*
X0150984D01*
X0143504Y0289665D02*
X0150984D01*
X0142224Y0285728D02*
Y0289665D01*
X0134744Y0285728D02*
Y0289665D01*
Y0285728D02*
X0142224D01*
X0134744Y0289665D02*
X0142224D01*
X0158957Y0288681D02*
Y0292618D01*
X0166437Y0288681D02*
Y0292618D01*
X0158957D02*
X0166437D01*
X0158957Y0288681D02*
X0166437D01*
X0142224Y0289665D02*
Y0293602D01*
X0134744Y0289665D02*
Y0293602D01*
Y0289665D02*
X0142224D01*
X0134744Y0293602D02*
X0142224D01*
X0160827Y0263976D02*
Y0267913D01*
X0153347Y0263976D02*
Y0267913D01*
Y0263976D02*
X0160827D01*
X0153347Y0267913D02*
X0160827D01*
X0128937Y0240551D02*
X0132874D01*
X0128937Y0248031D02*
X0132874D01*
X0128937Y0240551D02*
Y0248031D01*
X0132874Y0240551D02*
Y0248031D01*
X0158169Y0267913D02*
Y0271850D01*
X0150689Y0267913D02*
Y0271850D01*
Y0267913D02*
X0158169D01*
X0150689Y0271850D02*
X0158169D01*
X0167126Y0230512D02*
Y0234449D01*
X0159646Y0230512D02*
Y0234449D01*
Y0230512D02*
X0167126D01*
X0159646Y0234449D02*
X0167126D01*
X0150591Y0265256D02*
Y0269193D01*
X0143110Y0265256D02*
Y0269193D01*
Y0265256D02*
X0150591D01*
X0143110Y0269193D02*
X0150591D01*
X0143110Y0269193D02*
Y0273130D01*
X0150591Y0269193D02*
Y0273130D01*
X0143110D02*
X0150591D01*
X0143110Y0269193D02*
X0150591D01*
X0106299Y0148622D02*
X0118110D01*
X0106299Y0154528D02*
X0118110D01*
Y0148622D02*
Y0154528D01*
X0106299Y0148622D02*
Y0154528D01*
X0094488Y0148622D02*
X0106299D01*
X0094488Y0154528D02*
X0106299D01*
Y0148622D02*
Y0154528D01*
X0094488Y0148622D02*
Y0154528D01*
X0105512Y0198622D02*
X0117323D01*
X0105512Y0204527D02*
X0117323D01*
Y0198622D02*
Y0204527D01*
X0105512Y0198622D02*
Y0204527D01*
X0118110Y0154528D02*
X0129921D01*
X0118110Y0148622D02*
X0129921D01*
X0118110D02*
Y0154528D01*
X0129921Y0148622D02*
Y0154528D01*
X0117323Y0198622D02*
X0129134D01*
X0117323Y0204528D02*
X0129134D01*
Y0198622D02*
Y0204528D01*
X0117323Y0198622D02*
Y0204528D01*
X0142421Y0192323D02*
Y0208858D01*
X0158957Y0192323D02*
Y0208858D01*
X0142421D02*
X0158957D01*
X0142421Y0192323D02*
X0158957D01*
X0132382Y0193209D02*
Y0205020D01*
X0138287Y0193209D02*
Y0205020D01*
X0132382Y0193209D02*
X0138287D01*
X0132382Y0205020D02*
X0138287D01*
X0159153Y0200000D02*
X0166437D01*
X0159153Y0203740D02*
X0166437D01*
Y0200000D02*
Y0203740D01*
X0159153Y0200000D02*
Y0203740D01*
X0138287Y0181398D02*
Y0193209D01*
X0132382Y0181398D02*
Y0193209D01*
X0138287D01*
X0132382Y0181398D02*
X0138287D01*
X0128937Y0175098D02*
X0140748D01*
X0128937Y0181004D02*
X0140748D01*
Y0175098D02*
Y0181004D01*
X0128937Y0175098D02*
Y0181004D01*
X0142224Y0197638D02*
Y0204921D01*
X0138484Y0197638D02*
Y0204921D01*
X0142224D01*
X0138484Y0197638D02*
X0142224D01*
X0132677Y0167815D02*
Y0175098D01*
X0128937Y0167815D02*
Y0175098D01*
X0132677D01*
X0128937Y0167815D02*
X0132677D01*
X0159153Y0199508D02*
X0166437D01*
X0159153Y0195768D02*
X0166437D01*
X0159153D02*
Y0199508D01*
X0166437Y0195768D02*
Y0199508D01*
X0168307Y0154134D02*
Y0183268D01*
X0146653Y0154134D02*
Y0183268D01*
X0168307D01*
X0146653Y0154134D02*
X0168307D01*
X0132874Y0152657D02*
Y0169193D01*
X0146653Y0152657D02*
Y0169193D01*
X0132874Y0152657D02*
X0146653D01*
X0132874Y0169193D02*
X0146653D01*
X0159055Y0192126D02*
X0166339D01*
X0159055Y0195866D02*
X0166339D01*
Y0192126D02*
Y0195866D01*
X0159055Y0192126D02*
Y0195866D01*
X0133661Y0169193D02*
X0145472D01*
X0133661Y0175098D02*
X0145472D01*
Y0169193D02*
Y0175098D01*
X0133661Y0169193D02*
Y0175098D01*
X0139370Y0182973D02*
Y0190256D01*
X0143110Y0182973D02*
Y0190256D01*
X0139370Y0182973D02*
X0143110D01*
X0139370Y0190256D02*
X0143110D01*
X0158957Y0188287D02*
Y0192224D01*
X0166437Y0188287D02*
Y0192224D01*
X0158957D02*
X0166437D01*
X0158957Y0188287D02*
X0166437D01*
X0138386Y0190256D02*
X0142323D01*
X0138386Y0197736D02*
X0142323D01*
X0138386Y0190256D02*
Y0197736D01*
X0142323Y0190256D02*
Y0197736D01*
X0152362Y0149902D02*
X0159646D01*
X0152362Y0153642D02*
X0159646D01*
Y0149902D02*
Y0153642D01*
X0152362Y0149902D02*
Y0153642D01*
X0150984Y0212795D02*
X0158268D01*
X0150984Y0209055D02*
X0158268D01*
X0150984D02*
Y0212795D01*
X0158268Y0209055D02*
Y0212795D01*
X0140748Y0175098D02*
Y0182382D01*
X0144488Y0175098D02*
Y0182382D01*
X0140748Y0175098D02*
X0144488D01*
X0140748Y0182382D02*
X0144488D01*
X0160827Y0183268D02*
Y0187205D01*
X0168307Y0183268D02*
Y0187205D01*
X0160827D02*
X0168307D01*
X0160827Y0183268D02*
X0168307D01*
X0177067Y0208957D02*
Y0212894D01*
X0184547Y0208957D02*
Y0212894D01*
X0177067D02*
X0184547D01*
X0177067Y0208957D02*
X0184547D01*
X0149016Y0148622D02*
Y0152559D01*
X0141535Y0148622D02*
Y0152559D01*
Y0148622D02*
X0149016D01*
X0141535Y0152559D02*
X0149016D01*
X0166437Y0204035D02*
Y0207972D01*
X0158957Y0204035D02*
Y0207972D01*
Y0204035D02*
X0166437D01*
X0158957Y0207972D02*
X0166437D01*
X0143504Y0208957D02*
Y0212894D01*
X0150984Y0208957D02*
Y0212894D01*
X0143504D02*
X0150984D01*
X0143504Y0208957D02*
X0150984D01*
X0142224Y0205020D02*
Y0208957D01*
X0134744Y0205020D02*
Y0208957D01*
Y0205020D02*
X0142224D01*
X0134744Y0208957D02*
X0142224D01*
X0158957Y0207973D02*
Y0211910D01*
X0166437Y0207973D02*
Y0211910D01*
X0158957D02*
X0166437D01*
X0158957Y0207973D02*
X0166437D01*
X0142224Y0208957D02*
Y0212894D01*
X0134744Y0208957D02*
Y0212894D01*
Y0208957D02*
X0142224D01*
X0134744Y0212894D02*
X0142224D01*
X0160827Y0183268D02*
Y0187205D01*
X0153347Y0183268D02*
Y0187205D01*
Y0183268D02*
X0160827D01*
X0153347Y0187205D02*
X0160827D01*
X0128937Y0159843D02*
X0132874D01*
X0128937Y0167323D02*
X0132874D01*
X0128937Y0159843D02*
Y0167323D01*
X0132874Y0159843D02*
Y0167323D01*
X0158169Y0187205D02*
Y0191142D01*
X0150689Y0187205D02*
Y0191142D01*
Y0187205D02*
X0158169D01*
X0150689Y0191142D02*
X0158169D01*
X0167126Y0149803D02*
Y0153740D01*
X0159646Y0149803D02*
Y0153740D01*
Y0149803D02*
X0167126D01*
X0159646Y0153740D02*
X0167126D01*
X0150591Y0184547D02*
Y0188484D01*
X0143110Y0184547D02*
Y0188484D01*
Y0184547D02*
X0150591D01*
X0143110Y0188484D02*
X0150591D01*
X0143110Y0188484D02*
Y0192421D01*
X0150591Y0188484D02*
Y0192421D01*
X0143110D02*
X0150591D01*
X0143110Y0188484D02*
X0150591D01*
X0106299Y0067913D02*
X0118110D01*
X0106299Y0073819D02*
X0118110D01*
Y0067913D02*
Y0073819D01*
X0106299Y0067913D02*
Y0073819D01*
X0094488Y0067913D02*
X0106299D01*
X0094488Y0073819D02*
X0106299D01*
Y0067913D02*
Y0073819D01*
X0094488Y0067913D02*
Y0073819D01*
X0105512Y0117913D02*
X0117323D01*
X0105512Y0123819D02*
X0117323D01*
Y0117913D02*
Y0123819D01*
X0105512Y0117913D02*
Y0123819D01*
X0118110Y0073819D02*
X0129921D01*
X0118110Y0067913D02*
X0129921D01*
X0118110D02*
Y0073819D01*
X0129921Y0067913D02*
Y0073819D01*
X0117323Y0117913D02*
X0129134D01*
X0117323Y0123819D02*
X0129134D01*
Y0117913D02*
Y0123819D01*
X0117323Y0117913D02*
Y0123819D01*
X0142421Y0111614D02*
Y0128150D01*
X0158957Y0111614D02*
Y0128150D01*
X0142421D02*
X0158957D01*
X0142421Y0111614D02*
X0158957D01*
X0132382Y0112500D02*
Y0124311D01*
X0138287Y0112500D02*
Y0124311D01*
X0132382Y0112500D02*
X0138287D01*
X0132382Y0124311D02*
X0138287D01*
X0159153Y0119291D02*
X0166437D01*
X0159153Y0123031D02*
X0166437D01*
Y0119291D02*
Y0123031D01*
X0159153Y0119291D02*
Y0123031D01*
X0138287Y0100689D02*
Y0112500D01*
X0132382Y0100689D02*
Y0112500D01*
X0138287D01*
X0132382Y0100689D02*
X0138287D01*
X0128937Y0094390D02*
X0140748D01*
X0128937Y0100295D02*
X0140748D01*
Y0094390D02*
Y0100295D01*
X0128937Y0094390D02*
Y0100295D01*
X0142224Y0116929D02*
Y0124213D01*
X0138484Y0116929D02*
Y0124213D01*
X0142224D01*
X0138484Y0116929D02*
X0142224D01*
X0132677Y0087106D02*
Y0094390D01*
X0128937Y0087106D02*
Y0094390D01*
X0132677D01*
X0128937Y0087106D02*
X0132677D01*
X0159153Y0118799D02*
X0166437D01*
X0159153Y0115059D02*
X0166437D01*
X0159153D02*
Y0118799D01*
X0166437Y0115059D02*
Y0118799D01*
X0168307Y0073425D02*
Y0102559D01*
X0146653Y0073425D02*
Y0102559D01*
X0168307D01*
X0146653Y0073425D02*
X0168307D01*
X0132874Y0071949D02*
Y0088484D01*
X0146653Y0071949D02*
Y0088484D01*
X0132874Y0071949D02*
X0146653D01*
X0132874Y0088484D02*
X0146653D01*
X0159055Y0111417D02*
X0166339D01*
X0159055Y0115157D02*
X0166339D01*
Y0111417D02*
Y0115157D01*
X0159055Y0111417D02*
Y0115157D01*
X0133661Y0088484D02*
X0145472D01*
X0133661Y0094390D02*
X0145472D01*
Y0088484D02*
Y0094390D01*
X0133661Y0088484D02*
Y0094390D01*
X0139370Y0102264D02*
Y0109547D01*
X0143110Y0102264D02*
Y0109547D01*
X0139370Y0102264D02*
X0143110D01*
X0139370Y0109547D02*
X0143110D01*
X0158957Y0107579D02*
Y0111516D01*
X0166437Y0107579D02*
Y0111516D01*
X0158957D02*
X0166437D01*
X0158957Y0107579D02*
X0166437D01*
X0138386Y0109547D02*
X0142323D01*
X0138386Y0117028D02*
X0142323D01*
X0138386Y0109547D02*
Y0117028D01*
X0142323Y0109547D02*
Y0117028D01*
X0152362Y0069193D02*
X0159646D01*
X0152362Y0072933D02*
X0159646D01*
Y0069193D02*
Y0072933D01*
X0152362Y0069193D02*
Y0072933D01*
X0150984Y0132087D02*
X0158268D01*
X0150984Y0128347D02*
X0158268D01*
X0150984D02*
Y0132087D01*
X0158268Y0128347D02*
Y0132087D01*
X0140748Y0094390D02*
Y0101673D01*
X0144488Y0094390D02*
Y0101673D01*
X0140748Y0094390D02*
X0144488D01*
X0140748Y0101673D02*
X0144488D01*
X0160827Y0102559D02*
Y0106496D01*
X0168307Y0102559D02*
Y0106496D01*
X0160827D02*
X0168307D01*
X0160827Y0102559D02*
X0168307D01*
X0177067Y0128248D02*
Y0132185D01*
X0184547Y0128248D02*
Y0132185D01*
X0177067D02*
X0184547D01*
X0177067Y0128248D02*
X0184547D01*
X0149016Y0067913D02*
Y0071850D01*
X0141535Y0067913D02*
Y0071850D01*
Y0067913D02*
X0149016D01*
X0141535Y0071850D02*
X0149016D01*
X0166437Y0123327D02*
Y0127264D01*
X0158957Y0123327D02*
Y0127264D01*
Y0123327D02*
X0166437D01*
X0158957Y0127264D02*
X0166437D01*
X0143504Y0128248D02*
Y0132185D01*
X0150984Y0128248D02*
Y0132185D01*
X0143504D02*
X0150984D01*
X0143504Y0128248D02*
X0150984D01*
X0142224Y0124311D02*
Y0128248D01*
X0134744Y0124311D02*
Y0128248D01*
Y0124311D02*
X0142224D01*
X0134744Y0128248D02*
X0142224D01*
X0158957Y0127264D02*
Y0131201D01*
X0166437Y0127264D02*
Y0131201D01*
X0158957D02*
X0166437D01*
X0158957Y0127264D02*
X0166437D01*
X0142224Y0128248D02*
Y0132185D01*
X0134744Y0128248D02*
Y0132185D01*
Y0128248D02*
X0142224D01*
X0134744Y0132185D02*
X0142224D01*
X0160827Y0102559D02*
Y0106496D01*
X0153347Y0102559D02*
Y0106496D01*
Y0102559D02*
X0160827D01*
X0153347Y0106496D02*
X0160827D01*
X0128937Y0079134D02*
X0132874D01*
X0128937Y0086614D02*
X0132874D01*
X0128937Y0079134D02*
Y0086614D01*
X0132874Y0079134D02*
Y0086614D01*
X0158169Y0106496D02*
Y0110433D01*
X0150689Y0106496D02*
Y0110433D01*
Y0106496D02*
X0158169D01*
X0150689Y0110433D02*
X0158169D01*
X0167126Y0069095D02*
Y0073032D01*
X0159646Y0069095D02*
Y0073032D01*
Y0069095D02*
X0167126D01*
X0159646Y0073032D02*
X0167126D01*
X0150591Y0103839D02*
Y0107776D01*
X0143110Y0103839D02*
Y0107776D01*
Y0103839D02*
X0150591D01*
X0143110Y0107776D02*
X0150591D01*
X0143110Y0107776D02*
Y0111713D01*
X0150591Y0107776D02*
Y0111713D01*
X0143110D02*
X0150591D01*
X0143110Y0107776D02*
X0150591D01*
X0168307Y0315551D02*
Y0344685D01*
X0146653Y0315551D02*
Y0344685D01*
X0168307D01*
X0146653Y0315551D02*
X0168307D01*
X0142421Y0353740D02*
X0158957D01*
X0142421Y0370276D02*
X0158957D01*
Y0353740D02*
Y0370276D01*
X0142421Y0353740D02*
Y0370276D01*
X0094488Y0310039D02*
X0106299D01*
X0094488Y0315945D02*
X0106299D01*
Y0310039D02*
Y0315945D01*
X0094488Y0310039D02*
Y0315945D01*
X0118110D02*
X0129921D01*
X0118110Y0310039D02*
X0129921D01*
X0118110D02*
Y0315945D01*
X0129921Y0310039D02*
Y0315945D01*
X0152362Y0311319D02*
X0159646D01*
X0152362Y0315059D02*
X0159646D01*
Y0311319D02*
Y0315059D01*
X0152362Y0311319D02*
Y0315059D01*
X0150984Y0374213D02*
X0158268D01*
X0150984Y0370472D02*
X0158268D01*
X0150984D02*
Y0374213D01*
X0158268Y0370472D02*
Y0374213D01*
X0140748Y0343799D02*
X0144488D01*
X0140748Y0336516D02*
X0144488D01*
Y0343799D01*
X0140748Y0336516D02*
Y0343799D01*
X0139370Y0344390D02*
Y0351673D01*
X0143110Y0344390D02*
Y0351673D01*
X0139370Y0344390D02*
X0143110D01*
X0139370Y0351673D02*
X0143110D01*
X0159055Y0353543D02*
X0166339D01*
X0159055Y0357283D02*
X0166339D01*
Y0353543D02*
Y0357283D01*
X0159055Y0353543D02*
Y0357283D01*
X0106299Y0310039D02*
X0118110D01*
X0106299Y0315945D02*
X0118110D01*
Y0310039D02*
Y0315945D01*
X0106299Y0310039D02*
Y0315945D01*
X0159153Y0360925D02*
X0166437D01*
X0159153Y0357185D02*
X0166437D01*
X0159153D02*
Y0360925D01*
X0166437Y0357185D02*
Y0360925D01*
X0132677Y0329232D02*
Y0336516D01*
X0128937Y0329232D02*
Y0336516D01*
X0132677D01*
X0128937Y0329232D02*
X0132677D01*
X0142224Y0359055D02*
Y0366339D01*
X0138484Y0359055D02*
Y0366339D01*
X0142224D01*
X0138484Y0359055D02*
X0142224D01*
X0138287Y0342815D02*
Y0354626D01*
X0132382Y0342815D02*
Y0354626D01*
X0138287D01*
X0132382Y0342815D02*
X0138287D01*
X0132874Y0321260D02*
Y0328740D01*
X0128937Y0321260D02*
Y0328740D01*
X0132874D01*
X0128937Y0321260D02*
X0132874D01*
X0159646Y0315158D02*
X0167126D01*
X0159646Y0311221D02*
X0167126D01*
X0159646D02*
Y0315158D01*
X0167126Y0311221D02*
Y0315158D01*
X0143110Y0349902D02*
X0150591D01*
X0143110Y0345965D02*
X0150591D01*
X0143110D02*
Y0349902D01*
X0150591Y0345965D02*
Y0349902D01*
X0143110Y0349902D02*
X0150591D01*
X0143110Y0353839D02*
X0150591D01*
Y0349902D02*
Y0353839D01*
X0143110Y0349902D02*
Y0353839D01*
X0150689Y0352559D02*
X0158169D01*
X0150689Y0348622D02*
X0158169D01*
X0150689D02*
Y0352559D01*
X0158169Y0348622D02*
Y0352559D01*
X0143504Y0370374D02*
X0150984D01*
X0143504Y0374311D02*
X0150984D01*
Y0370374D02*
Y0374311D01*
X0143504Y0370374D02*
Y0374311D01*
X0142224Y0366437D02*
Y0370374D01*
X0134744Y0366437D02*
Y0370374D01*
Y0366437D02*
X0142224D01*
X0134744Y0370374D02*
X0142224D01*
X0158957Y0369390D02*
X0166437D01*
X0158957Y0373327D02*
X0166437D01*
Y0369390D02*
Y0373327D01*
X0158957Y0369390D02*
Y0373327D01*
X0142224Y0370374D02*
Y0374311D01*
X0134744Y0370374D02*
Y0374311D01*
Y0370374D02*
X0142224D01*
X0134744Y0374311D02*
X0142224D01*
X0153347Y0348622D02*
X0160827D01*
X0153347Y0344685D02*
X0160827D01*
X0153347D02*
Y0348622D01*
X0160827Y0344685D02*
Y0348622D01*
X0160827Y0344685D02*
X0168307D01*
X0160827Y0348622D02*
X0168307D01*
Y0344685D02*
Y0348622D01*
X0160827Y0344685D02*
Y0348622D01*
X0142323Y0351673D02*
Y0359154D01*
X0138386Y0351673D02*
Y0359154D01*
X0142323D01*
X0138386Y0351673D02*
X0142323D01*
X0158957Y0349705D02*
X0166437D01*
X0158957Y0353642D02*
X0166437D01*
Y0349705D02*
Y0353642D01*
X0158957Y0349705D02*
Y0353642D01*
X0132382Y0354626D02*
Y0366437D01*
X0138287Y0354626D02*
Y0366437D01*
X0132382Y0354626D02*
X0138287D01*
X0132382Y0366437D02*
X0138287D01*
X0141535Y0313976D02*
X0149016D01*
X0141535Y0310039D02*
X0149016D01*
X0141535D02*
Y0313976D01*
X0149016Y0310039D02*
Y0313976D01*
X0133661Y0330610D02*
Y0336516D01*
X0145472Y0330610D02*
Y0336516D01*
X0133661D02*
X0145472D01*
X0133661Y0330610D02*
X0145472D01*
X0132874Y0330610D02*
X0146653D01*
X0132874Y0314075D02*
X0146653D01*
Y0330610D01*
X0132874Y0314075D02*
Y0330610D01*
X0128937Y0336516D02*
Y0342421D01*
X0140748Y0336516D02*
Y0342421D01*
X0128937D02*
X0140748D01*
X0128937Y0336516D02*
X0140748D01*
X0321850Y0290650D02*
X0329134D01*
X0321850Y0294390D02*
X0329134D01*
Y0290650D02*
Y0294390D01*
X0321850Y0290650D02*
Y0294390D01*
Y0294587D02*
X0329134D01*
X0321850Y0298327D02*
X0329134D01*
Y0294587D02*
Y0298327D01*
X0321850Y0294587D02*
Y0298327D01*
X0181496Y0340846D02*
X0188779D01*
X0181496Y0344587D02*
X0188779D01*
Y0340846D02*
Y0344587D01*
X0181496Y0340846D02*
Y0344587D01*
X0184055Y0326181D02*
X0197835D01*
X0184055Y0309646D02*
X0197835D01*
Y0326181D01*
X0184055Y0309646D02*
Y0326181D01*
X0181890Y0326870D02*
Y0330610D01*
X0189173Y0326870D02*
Y0330610D01*
X0181890D02*
X0189173D01*
X0181890Y0326870D02*
X0189173D01*
X0189173Y0305118D02*
Y0309055D01*
X0196653Y0305118D02*
Y0309055D01*
X0189173D02*
X0196653D01*
X0189173Y0305118D02*
X0196653D01*
X0189173Y0326772D02*
Y0330709D01*
X0196653Y0326772D02*
Y0330709D01*
X0189173D02*
X0196653D01*
X0189173Y0326772D02*
X0196653D01*
X0401378Y0242224D02*
Y0251870D01*
X0393504Y0242224D02*
Y0251870D01*
X0401378D01*
X0393504Y0242224D02*
X0401378D01*
X0380906Y0228543D02*
Y0240354D01*
X0375000Y0228543D02*
Y0240354D01*
X0380906D01*
X0375000Y0228543D02*
X0380906D01*
X0389665Y0257579D02*
Y0261319D01*
X0396949Y0257579D02*
Y0261319D01*
X0389665D02*
X0396949D01*
X0389665Y0257579D02*
X0396949D01*
X0401673Y0261516D02*
Y0265256D01*
X0408957Y0261516D02*
Y0265256D01*
X0401673D02*
X0408957D01*
X0401673Y0261516D02*
X0408957D01*
X0391240Y0219882D02*
X0417815D01*
X0391240Y0241929D02*
X0417815D01*
Y0219882D02*
Y0241929D01*
X0391240Y0219882D02*
Y0241929D01*
X0401378Y0249606D02*
Y0257087D01*
X0415551Y0249606D02*
Y0257087D01*
X0401378D02*
X0415551D01*
X0401378Y0249606D02*
X0415551D01*
X0401378Y0242126D02*
Y0249606D01*
X0415551Y0242126D02*
Y0249606D01*
X0401378D02*
X0415551D01*
X0401378Y0242126D02*
X0415551D01*
X0389370Y0242126D02*
X0393307D01*
X0389370Y0249606D02*
X0393307D01*
X0389370Y0242126D02*
Y0249606D01*
X0393307Y0242126D02*
Y0249606D01*
X0381693Y0254724D02*
X0389173D01*
X0381693Y0240551D02*
X0389173D01*
Y0254724D01*
X0381693Y0240551D02*
Y0254724D01*
X0374213D02*
X0381693D01*
X0374213Y0240551D02*
X0381693D01*
Y0254724D01*
X0374213Y0240551D02*
Y0254724D01*
X0401575Y0257480D02*
Y0261417D01*
X0409055Y0257480D02*
Y0261417D01*
X0401575D02*
X0409055D01*
X0401575Y0257480D02*
X0409055D01*
X0397441Y0260433D02*
X0401378D01*
X0397441Y0252953D02*
X0401378D01*
Y0260433D01*
X0397441Y0252953D02*
Y0260433D01*
X0359941Y0313386D02*
Y0320669D01*
X0363681Y0313386D02*
Y0320669D01*
X0359941Y0313386D02*
X0363681D01*
X0359941Y0320669D02*
X0363681D01*
X0371161Y0296063D02*
X0378445D01*
X0371161Y0292323D02*
X0378445D01*
X0371161D02*
Y0296063D01*
X0378445Y0292323D02*
Y0296063D01*
X0361319Y0270768D02*
X0368799D01*
X0361319Y0274705D02*
X0368799D01*
Y0270768D02*
Y0274705D01*
X0361319Y0270768D02*
Y0274705D01*
X0382283Y0276772D02*
Y0280512D01*
X0375000Y0276772D02*
Y0280512D01*
Y0276772D02*
X0382283D01*
X0375000Y0280512D02*
X0382283D01*
Y0272835D02*
Y0276575D01*
X0375000Y0272835D02*
Y0276575D01*
Y0272835D02*
X0382283D01*
X0375000Y0276575D02*
X0382283D01*
X0395669Y0280807D02*
Y0295374D01*
X0378839D02*
X0395669D01*
X0378839Y0280807D02*
Y0295374D01*
Y0280807D02*
X0395669D01*
X0399606Y0284350D02*
Y0291831D01*
X0395669Y0284350D02*
Y0291831D01*
X0399606D01*
X0395669Y0284350D02*
X0399606D01*
X0371063Y0284449D02*
Y0288386D01*
X0378543Y0284449D02*
Y0288386D01*
X0371063D02*
X0378543D01*
X0371063Y0284449D02*
X0378543D01*
X0371063Y0288386D02*
Y0292323D01*
X0378543Y0288386D02*
Y0292323D01*
X0371063D02*
X0378543D01*
X0371063Y0288386D02*
X0378543D01*
X0371161Y0296063D02*
Y0299803D01*
X0378445Y0296063D02*
Y0299803D01*
X0371161D02*
X0378445D01*
X0371161Y0296063D02*
X0378445D01*
X0371161Y0299803D02*
Y0303543D01*
X0378445Y0299803D02*
Y0303543D01*
X0371161D02*
X0378445D01*
X0371161Y0299803D02*
X0378445D01*
Y0311122D02*
Y0314862D01*
X0371161Y0311122D02*
Y0314862D01*
Y0311122D02*
X0378445D01*
X0371161Y0314862D02*
X0378445D01*
X0352559Y0270965D02*
Y0274705D01*
X0359842Y0270965D02*
Y0274705D01*
X0352559D02*
X0359842D01*
X0352559Y0270965D02*
X0359842D01*
X0374114Y0213287D02*
Y0220571D01*
X0377854Y0213287D02*
Y0220571D01*
X0374114Y0213287D02*
X0377854D01*
X0374114Y0220571D02*
X0377854D01*
X0226378Y0340650D02*
Y0371161D01*
X0248425Y0340650D02*
Y0371161D01*
X0226378Y0340650D02*
X0248425D01*
X0226378Y0371161D02*
X0248425D01*
X0227264Y0336614D02*
X0234547D01*
X0227264Y0340354D02*
X0234547D01*
Y0336614D02*
Y0340354D01*
X0227264Y0336614D02*
Y0340354D01*
X0242815D02*
X0250098D01*
X0242815Y0336614D02*
X0250098D01*
X0242815D02*
Y0340354D01*
X0250098Y0336614D02*
Y0340354D01*
X0234941Y0336417D02*
Y0340354D01*
X0242421Y0336417D02*
Y0340354D01*
X0234941D02*
X0242421D01*
X0234941Y0336417D02*
X0242421D01*
X0240453Y0375197D02*
X0247736D01*
X0240453Y0371457D02*
X0247736D01*
X0240453D02*
Y0375197D01*
X0247736Y0371457D02*
Y0375197D01*
X0224311Y0371457D02*
X0231594D01*
X0224311Y0375197D02*
X0231594D01*
Y0371457D02*
Y0375197D01*
X0224311Y0371457D02*
Y0375197D01*
X0288209Y0341338D02*
X0309862D01*
X0288209Y0370472D02*
X0309862D01*
X0288209Y0341338D02*
Y0370472D01*
X0309862Y0341338D02*
Y0370472D01*
X0290965Y0374606D02*
X0298445D01*
X0290965Y0370669D02*
X0298445D01*
X0290965D02*
Y0374606D01*
X0298445Y0370669D02*
Y0374606D01*
X0293406Y0337598D02*
X0300689D01*
X0293406Y0341339D02*
X0300689D01*
Y0337598D02*
Y0341339D01*
X0293406Y0337598D02*
Y0341339D01*
X0293209Y0337598D02*
X0300689D01*
X0293209Y0333661D02*
X0300689D01*
X0293209D02*
Y0337598D01*
X0300689Y0333661D02*
Y0337598D01*
X0278248Y0370768D02*
X0285531D01*
X0278248Y0374508D02*
X0285531D01*
Y0370768D02*
Y0374508D01*
X0278248Y0370768D02*
Y0374508D01*
X0374311Y0208169D02*
X0381594D01*
X0374311Y0204429D02*
X0381594D01*
X0374311D02*
Y0208169D01*
X0381594Y0204429D02*
Y0208169D01*
X0374311Y0212500D02*
X0381594D01*
X0374311Y0208760D02*
X0381594D01*
X0374311D02*
Y0212500D01*
X0381594Y0208760D02*
Y0212500D01*
X0384252Y0141634D02*
Y0152657D01*
Y0141634D02*
X0393701D01*
X0384252Y0152657D02*
X0393701D01*
Y0141634D02*
Y0152657D01*
X0375984Y0133858D02*
X0390158D01*
X0375984Y0141339D02*
X0390158D01*
Y0133858D02*
Y0141339D01*
X0375984Y0133858D02*
Y0141339D01*
X0328642Y0352362D02*
X0332579D01*
X0328642Y0359842D02*
X0332579D01*
X0328642Y0352362D02*
Y0359842D01*
X0332579Y0352362D02*
Y0359842D01*
X0331557Y0336813D02*
Y0340553D01*
X0324274Y0336813D02*
Y0340553D01*
Y0336813D02*
X0331557D01*
X0324274Y0340553D02*
X0331557D01*
X0324274D02*
Y0344293D01*
X0331557Y0340553D02*
Y0344293D01*
X0324274D02*
X0331557D01*
X0324274Y0340553D02*
X0331557D01*
X0322441Y0340453D02*
Y0344193D01*
X0315158Y0340453D02*
Y0344193D01*
Y0340453D02*
X0322441D01*
X0315158Y0344193D02*
X0322441D01*
X0317482Y0350100D02*
X0329293D01*
X0317482Y0344195D02*
X0329293D01*
X0317482D02*
Y0350100D01*
X0329293Y0344195D02*
Y0350100D01*
X0317482Y0350297D02*
X0328506D01*
Y0359746D01*
X0317482Y0350297D02*
Y0359746D01*
X0328506D01*
X0311577Y0349116D02*
Y0360927D01*
X0317482Y0349116D02*
Y0360927D01*
X0311577Y0349116D02*
X0317482D01*
X0311577Y0360927D02*
X0317482D01*
Y0365848D02*
X0329293D01*
X0317482Y0359943D02*
X0329293D01*
X0317482D02*
Y0365848D01*
X0329293Y0359943D02*
Y0365848D01*
X0318701Y0373327D02*
X0322441D01*
X0318701Y0366043D02*
X0322441D01*
Y0373327D01*
X0318701Y0366043D02*
Y0373327D01*
X0395827Y0152953D02*
Y0156890D01*
X0388347Y0152953D02*
Y0156890D01*
Y0152953D02*
X0395827D01*
X0388347Y0156890D02*
X0395827D01*
X0177067Y0285728D02*
Y0289665D01*
X0184547Y0285728D02*
Y0289665D01*
X0177067D02*
X0184547D01*
X0177067Y0285728D02*
X0184547D01*
X0192027Y0285728D02*
Y0289665D01*
X0184547Y0285728D02*
Y0289665D01*
Y0285728D02*
X0192027D01*
X0184547Y0289665D02*
X0192027D01*
Y0293602D01*
X0184547Y0289665D02*
Y0293602D01*
Y0289665D02*
X0192027D01*
X0184547Y0293602D02*
X0192027D01*
X0196260Y0261319D02*
Y0265256D01*
X0188779Y0261319D02*
Y0265256D01*
Y0261319D02*
X0196260D01*
X0188779Y0265256D02*
X0196260D01*
X0181496Y0260138D02*
Y0263878D01*
X0188779Y0260138D02*
Y0263878D01*
X0181496D02*
X0188779D01*
X0181496Y0260138D02*
X0188779D01*
X0176279Y0265256D02*
Y0285728D01*
X0196752Y0265256D02*
Y0285728D01*
X0176279Y0265256D02*
X0196752D01*
X0176279Y0285728D02*
X0196752D01*
X0197736Y0275295D02*
Y0279035D01*
X0205020Y0275295D02*
Y0279035D01*
X0197736D02*
X0205020D01*
X0197736Y0275295D02*
X0205020D01*
X0197736Y0271752D02*
Y0275492D01*
X0205020Y0271752D02*
Y0275492D01*
X0197736D02*
X0205020D01*
X0197736Y0271752D02*
X0205020D01*
X0177067Y0205020D02*
Y0208957D01*
X0184547Y0205020D02*
Y0208957D01*
X0177067D02*
X0184547D01*
X0177067Y0205020D02*
X0184547D01*
X0192027Y0205020D02*
Y0208957D01*
X0184547Y0205020D02*
Y0208957D01*
Y0205020D02*
X0192027D01*
X0184547Y0208957D02*
X0192027D01*
Y0212894D01*
X0184547Y0208957D02*
Y0212894D01*
Y0208957D02*
X0192027D01*
X0184547Y0212894D02*
X0192027D01*
X0196260Y0180610D02*
Y0184547D01*
X0188779Y0180610D02*
Y0184547D01*
Y0180610D02*
X0196260D01*
X0188779Y0184547D02*
X0196260D01*
X0181496Y0179429D02*
Y0183169D01*
X0188779Y0179429D02*
Y0183169D01*
X0181496D02*
X0188779D01*
X0181496Y0179429D02*
X0188779D01*
X0176279Y0184547D02*
Y0205020D01*
X0196752Y0184547D02*
Y0205020D01*
X0176279Y0184547D02*
X0196752D01*
X0176279Y0205020D02*
X0196752D01*
X0197736Y0194587D02*
Y0198327D01*
X0205020Y0194587D02*
Y0198327D01*
X0197736D02*
X0205020D01*
X0197736Y0194587D02*
X0205020D01*
X0197736Y0191043D02*
Y0194783D01*
X0205020Y0191043D02*
Y0194783D01*
X0197736D02*
X0205020D01*
X0197736Y0191043D02*
X0205020D01*
X0177067Y0124311D02*
Y0128248D01*
X0184547Y0124311D02*
Y0128248D01*
X0177067D02*
X0184547D01*
X0177067Y0124311D02*
X0184547D01*
X0192027Y0124311D02*
Y0128248D01*
X0184547Y0124311D02*
Y0128248D01*
Y0124311D02*
X0192027D01*
X0184547Y0128248D02*
X0192027D01*
Y0132185D01*
X0184547Y0128248D02*
Y0132185D01*
Y0128248D02*
X0192027D01*
X0184547Y0132185D02*
X0192027D01*
X0196260Y0099902D02*
Y0103839D01*
X0188779Y0099902D02*
Y0103839D01*
Y0099902D02*
X0196260D01*
X0188779Y0103839D02*
X0196260D01*
X0181496Y0098721D02*
Y0102461D01*
X0188779Y0098721D02*
Y0102461D01*
X0181496D02*
X0188779D01*
X0181496Y0098721D02*
X0188779D01*
X0176279Y0103839D02*
Y0124311D01*
X0196752Y0103839D02*
Y0124311D01*
X0176279Y0103839D02*
X0196752D01*
X0176279Y0124311D02*
X0196752D01*
X0197736Y0113878D02*
Y0117618D01*
X0205020Y0113878D02*
Y0117618D01*
X0197736D02*
X0205020D01*
X0197736Y0113878D02*
X0205020D01*
X0197736Y0110335D02*
Y0114075D01*
X0205020Y0110335D02*
Y0114075D01*
X0197736D02*
X0205020D01*
X0197736Y0110335D02*
X0205020D01*
X0196260Y0342028D02*
Y0345965D01*
X0188779Y0342028D02*
Y0345965D01*
Y0342028D02*
X0196260D01*
X0188779Y0345965D02*
X0196260D01*
X0177067Y0366437D02*
Y0370374D01*
X0184547Y0366437D02*
Y0370374D01*
X0177067D02*
X0184547D01*
X0177067Y0366437D02*
X0184547D01*
X0192027Y0366437D02*
Y0370374D01*
X0184547Y0366437D02*
Y0370374D01*
Y0366437D02*
X0192027D01*
X0184547Y0370374D02*
X0192027D01*
X0176279Y0345965D02*
Y0366437D01*
X0196752Y0345965D02*
Y0366437D01*
X0176279Y0345965D02*
X0196752D01*
X0176279Y0366437D02*
X0196752D01*
X0192027Y0370374D02*
Y0374311D01*
X0184547Y0370374D02*
Y0374311D01*
Y0370374D02*
X0192027D01*
X0184547Y0374311D02*
X0192027D01*
X0379823Y0092815D02*
Y0100098D01*
X0376083Y0092815D02*
Y0100098D01*
X0379823D01*
X0376083Y0092815D02*
X0379823D01*
X0375000Y0105118D02*
X0388779D01*
X0375000Y0121653D02*
X0388779D01*
X0375000Y0105118D02*
Y0121653D01*
X0388779Y0105118D02*
Y0121653D01*
X0264665Y0283268D02*
Y0287992D01*
X0258366Y0283268D02*
Y0287992D01*
X0264665D01*
X0258366Y0283268D02*
X0264665D01*
X0285110Y0270571D02*
X0317197D01*
X0285110Y0302658D02*
X0317197D01*
Y0270571D02*
Y0302658D01*
X0285110Y0270571D02*
Y0302658D01*
X0242224Y0276772D02*
Y0284646D01*
X0251870Y0276772D02*
Y0284646D01*
X0242224D02*
X0251870D01*
X0242224Y0276772D02*
X0251870D01*
X0377854Y0196358D02*
Y0203642D01*
X0374114Y0196358D02*
Y0203642D01*
X0377854D01*
X0374114Y0196358D02*
X0377854D01*
X0244488Y0093701D02*
Y0100984D01*
X0240748Y0093701D02*
Y0100984D01*
X0244488D01*
X0240748Y0093701D02*
X0244488D01*
X0291437Y0068209D02*
X0294193D01*
X0291437Y0062697D02*
X0294193D01*
Y0068209D01*
X0291437Y0062697D02*
Y0068209D01*
X0294193D02*
X0296949D01*
X0294193Y0062697D02*
X0296949D01*
Y0068209D01*
X0294193Y0062697D02*
Y0068209D01*
X0297342D02*
X0300098D01*
X0297342Y0062697D02*
X0300098D01*
Y0068209D01*
X0297342Y0062697D02*
Y0068209D01*
X0300098D02*
X0302854D01*
X0300098Y0062697D02*
X0302854D01*
Y0068209D01*
X0300098Y0062697D02*
Y0068209D01*
X0303248D02*
X0306004D01*
X0303248Y0062697D02*
X0306004D01*
Y0068209D01*
X0303248Y0062697D02*
Y0068209D01*
X0306004D02*
X0308760D01*
X0306004Y0062697D02*
X0308760D01*
Y0068209D01*
X0306004Y0062697D02*
Y0068209D01*
X0309154D02*
X0311910D01*
X0309154Y0062697D02*
X0311910D01*
Y0068209D01*
X0309154Y0062697D02*
Y0068209D01*
X0311910D02*
X0314665D01*
X0311910Y0062697D02*
X0314665D01*
Y0068209D01*
X0311910Y0062697D02*
Y0068209D01*
X0006791Y0192224D02*
Y0199508D01*
X0010531Y0192224D02*
Y0199508D01*
X0006791Y0192224D02*
X0010531D01*
X0006791Y0199508D02*
X0010531D01*
X0321780Y0290846D02*
Y0298130D01*
X0318040Y0290846D02*
Y0298130D01*
X0321780D01*
X0318040Y0290846D02*
X0321780D01*
X0309225Y0307185D02*
X0316508D01*
X0309225Y0303445D02*
X0316508D01*
X0309225D02*
Y0307185D01*
X0316508Y0303445D02*
Y0307185D01*
X0302138D02*
X0309421D01*
X0302138Y0303445D02*
X0309421D01*
X0302138D02*
Y0307185D01*
X0309421Y0303445D02*
Y0307185D01*
X0263878Y0282874D02*
X0271161D01*
X0263878Y0279134D02*
X0271161D01*
X0263878D02*
Y0282874D01*
X0271161Y0279134D02*
Y0282874D01*
X0295051Y0307185D02*
X0302335D01*
X0295051Y0303445D02*
X0302335D01*
X0295051D02*
Y0307185D01*
X0302335Y0303445D02*
Y0307185D01*
X0256791Y0282874D02*
X0264075D01*
X0256791Y0279134D02*
X0264075D01*
X0256791D02*
Y0282874D01*
X0264075Y0279134D02*
Y0282874D01*
X0249902Y0292815D02*
Y0298721D01*
X0261713Y0292815D02*
Y0298721D01*
X0249902D02*
X0261713D01*
X0249902Y0292815D02*
X0261713D01*
X0287965Y0307185D02*
X0295248D01*
X0287965Y0303445D02*
X0295248D01*
X0287965D02*
Y0307185D01*
X0295248Y0303445D02*
Y0307185D01*
X0265551Y0294193D02*
X0272835D01*
X0265551Y0290453D02*
X0272835D01*
X0265551D02*
Y0294193D01*
X0272835Y0290453D02*
Y0294193D01*
X0197736Y0352461D02*
X0205020D01*
X0197736Y0356201D02*
X0205020D01*
Y0352461D02*
Y0356201D01*
X0197736Y0352461D02*
Y0356201D01*
X0256988Y0277756D02*
Y0285039D01*
X0253248Y0277756D02*
Y0285039D01*
X0256988D01*
X0253248Y0277756D02*
X0256988D01*
X0394587Y0144488D02*
Y0151772D01*
X0398327Y0144488D02*
Y0151772D01*
X0394587Y0144488D02*
X0398327D01*
X0394587Y0151772D02*
X0398327D01*
X0257677Y0285039D02*
Y0292323D01*
X0253937Y0285039D02*
Y0292323D01*
X0257677D01*
X0253937Y0285039D02*
X0257677D01*
X0228839Y0270571D02*
Y0276476D01*
X0240650Y0270571D02*
Y0276476D01*
X0228839D02*
X0240650D01*
X0228839Y0270571D02*
X0240650D01*
X0197736Y0356004D02*
X0205020D01*
X0197736Y0359744D02*
X0205020D01*
Y0356004D02*
Y0359744D01*
X0197736Y0356004D02*
Y0359744D01*
X0228937Y0277264D02*
X0241929D01*
X0228937Y0295374D02*
X0241929D01*
X0228937Y0277264D02*
Y0295374D01*
X0241929Y0277264D02*
Y0295374D01*
X0266043Y0297835D02*
Y0305118D01*
X0269783Y0297835D02*
Y0305118D01*
X0266043Y0297835D02*
X0269783D01*
X0266043Y0305118D02*
X0269783D01*
X0269587Y0297835D02*
Y0305118D01*
X0273327Y0297835D02*
Y0305118D01*
X0269587Y0297835D02*
X0273327D01*
X0269587Y0305118D02*
X0273327D01*
X0376181Y0125984D02*
X0383661D01*
X0376181Y0122047D02*
X0383661D01*
X0376181D02*
Y0125984D01*
X0383661Y0122047D02*
Y0125984D01*
X0376181Y0104724D02*
X0383661D01*
X0376181Y0100787D02*
X0383661D01*
X0376181D02*
Y0104724D01*
X0383661Y0100787D02*
Y0104724D01*
X0380807Y0152953D02*
X0388287D01*
X0380807Y0156890D02*
X0388287D01*
Y0152953D02*
Y0156890D01*
X0380807Y0152953D02*
Y0156890D01*
X0284547Y0093799D02*
Y0099705D01*
X0287697Y0093799D02*
Y0099705D01*
X0284547Y0093799D02*
X0287697D01*
X0284547Y0099705D02*
X0287697D01*
X0287697Y0093799D02*
Y0099705D01*
X0290846Y0093799D02*
Y0099705D01*
X0287697Y0093799D02*
X0290846D01*
X0287697Y0099705D02*
X0290846D01*
X0290846Y0093799D02*
Y0099705D01*
X0293996Y0093799D02*
Y0099705D01*
X0290846Y0093799D02*
X0293996D01*
X0290846Y0099705D02*
X0293996D01*
X0293996Y0093799D02*
Y0099705D01*
X0297146Y0093799D02*
Y0099705D01*
X0293996Y0093799D02*
X0297146D01*
X0293996Y0099705D02*
X0297146D01*
Y0093799D02*
Y0099705D01*
X0300295Y0093799D02*
Y0099705D01*
X0297146Y0093799D02*
X0300295D01*
X0297146Y0099705D02*
X0300295D01*
X0300295Y0093799D02*
Y0099705D01*
X0303445Y0093799D02*
Y0099705D01*
X0300295Y0093799D02*
X0303445D01*
X0300295Y0099705D02*
X0303445D01*
X0303445Y0093799D02*
Y0099705D01*
X0306594Y0093799D02*
Y0099705D01*
X0303445Y0093799D02*
X0306594D01*
X0303445Y0099705D02*
X0306594D01*
Y0093799D02*
Y0099705D01*
X0309744Y0093799D02*
Y0099705D01*
X0306594Y0093799D02*
X0309744D01*
X0306594Y0099705D02*
X0309744D01*
X0309744Y0093799D02*
Y0099705D01*
X0312894Y0093799D02*
Y0099705D01*
X0309744Y0093799D02*
X0312894D01*
X0309744Y0099705D02*
X0312894D01*
X0269390Y0283071D02*
Y0290551D01*
X0265453Y0283071D02*
Y0290551D01*
X0269390D01*
X0265453Y0283071D02*
X0269390D01*
X0268701Y0273130D02*
Y0279035D01*
X0256890Y0273130D02*
Y0279035D01*
Y0273130D02*
X0268701D01*
X0256890Y0279035D02*
X0268701D01*
X0257775Y0292421D02*
X0265256D01*
X0257775Y0288484D02*
X0265256D01*
X0257775D02*
Y0292421D01*
X0265256Y0288484D02*
Y0292421D01*
X0318139Y0290551D02*
X0325619D01*
X0318139Y0286614D02*
X0325619D01*
X0318139D02*
Y0290551D01*
X0325619Y0286614D02*
Y0290551D01*
X0249705Y0284941D02*
Y0299114D01*
X0242224Y0284941D02*
Y0299114D01*
X0249705D01*
X0242224Y0284941D02*
X0249705D01*
X0252756Y0270571D02*
Y0276476D01*
X0240945Y0270571D02*
Y0276476D01*
Y0270571D02*
X0252756D01*
X0240945Y0276476D02*
X0252756D01*
X0253839Y0285138D02*
Y0292618D01*
X0249902Y0285138D02*
Y0292618D01*
X0253839D01*
X0249902Y0285138D02*
X0253839D01*
X0281201Y0280906D02*
Y0288386D01*
X0277264Y0280906D02*
Y0288386D01*
X0281201D01*
X0277264Y0280906D02*
X0281201D01*
X0318139Y0286024D02*
X0325619D01*
X0318139Y0282087D02*
X0325619D01*
X0318139D02*
Y0286024D01*
X0325619Y0282087D02*
Y0286024D01*
X0285138Y0280906D02*
Y0288386D01*
X0281201Y0280906D02*
Y0288386D01*
X0285138D01*
X0281201Y0280906D02*
X0285138D01*
X0281131Y0297743D02*
Y0305223D01*
X0285068Y0297743D02*
Y0305223D01*
X0281131Y0297743D02*
X0285068D01*
X0281131Y0305223D02*
X0285068D01*
X0318139Y0302362D02*
X0325619D01*
X0318139Y0298425D02*
X0325619D01*
X0318139D02*
Y0302362D01*
X0325619Y0298425D02*
Y0302362D01*
X0277194Y0297743D02*
Y0305223D01*
X0281131Y0297743D02*
Y0305223D01*
X0277194Y0297743D02*
X0281131D01*
X0277194Y0305223D02*
X0281131D01*
X0318139Y0306299D02*
X0325619D01*
X0318139Y0302362D02*
X0325619D01*
X0318139D02*
Y0306299D01*
X0325619Y0302362D02*
Y0306299D01*
X0273257Y0297743D02*
Y0305223D01*
X0277194Y0297743D02*
Y0305223D01*
X0273257Y0297743D02*
X0277194D01*
X0273257Y0305223D02*
X0277194D01*
X0318139Y0310236D02*
X0325619D01*
X0318139Y0306299D02*
X0325619D01*
X0318139D02*
Y0310236D01*
X0325619Y0306299D02*
Y0310236D01*
X0312894Y0093799D02*
Y0099705D01*
X0316043Y0093799D02*
Y0099705D01*
X0312894Y0093799D02*
X0316043D01*
X0312894Y0099705D02*
X0316043D01*
M02*
