M48
;Layer_Color=9474304
;FILE_FORMAT=2:4
INCH
;TYPE=PLATED
T1F00S00C0.0080
T2F00S00C0.0394
T3F00S00C0.1260
;TYPE=NON_PLATED
T4F00S00C0.0591
%
T01
X006693Y004331
X006762Y006508
X006713Y006732
X006665Y006958
X006488Y006782
X006938Y006684
X007892Y006167
X008032Y006004
X008042Y005639
X007894Y005491
X005522Y007264
X005157
X004360Y006693
X010342Y005657
X011167Y005478
X011506Y005815
X011716
X011906Y005725
X012096Y005815
X012306
X012496Y005725
X012510Y005472
X012529Y005215
X012319Y005211
X012109
X011865Y005208
X011319Y004331
X010335
X009449
X012487Y004339
X012697Y004350
X012907
X013287
X013497
X013681Y004242
X013878Y004350
X014088
X014272Y004242
X014961Y004331
X015748
X016535
X016624Y005689
X016959Y006280
X017220Y006317
X017136Y006122
X017068Y006475
X017254Y006575
X017407Y006413
X017402Y007303
X018076Y007338
X018159Y006811
X019291Y007087
X020896Y006693
X021693Y007264
X022057
X023200Y006958
X023248Y006732
X023024Y006782
X023474Y006684
X023298Y006508
X024427Y006167
X024567Y006004
X024578Y005639
X024430Y005491
X023228Y004331
X016407Y007274
X015571Y006752
X015355Y006783
X015384Y006575
X015176Y006604
X015241Y006395
X014285Y005776
X014078Y005815
X013868
X013678Y005725
X013488Y005815
X013278
X013087Y005725
X012897Y005815
X012687
X014065Y005433
Y005217
X014275
X014278Y005438
X013289Y004129
X025984Y004331
X026870
X027854
X029023Y004339
X029232Y004350
X029442
X029823
X030033
X030217Y004242
X030413Y004350
X030623
X030807Y004242
X031496Y004331
X032283
X033071
X033159Y005689
X033494Y006280
X033756Y006317
X033671Y006122
X033604Y006475
X033789Y006575
X033942Y006413
X033937Y007303
X034611Y007338
X034695Y006811
X035827Y007087
X032943Y007274
X032106Y006752
X031891Y006783
X031919Y006575
X031711Y006604
X031777Y006395
X030820Y005776
X030614Y005815
X030404
X030213Y005725
X030023Y005815
X029813
X029622Y005725
X029432Y005815
X029222
X029032Y005725
X029045Y005472
X029065Y005215
X028855Y005211
X028645
X028401Y005208
X028441Y005725
X028251Y005815
X028041
X028632
X028842
X027702Y005478
X026878Y005657
X030600Y005433
Y005217
X030810
X030813Y005438
X029824Y004129
X029921Y007795
X029921Y008110
Y008425
X030236
X030240Y009031
X030534Y009047
X030551Y008776
X030876Y008746
X030559Y009384
X030242
X029921Y009380
Y009055
X029921Y008740
X029606
X029291
Y009055
Y009370
X029299Y009658
X029606Y009649
X029938Y009702
X029921Y009964
X029642Y010000
X029270Y009988
X028976Y010000
X028650Y010005
X028346Y010000
X028031
X027717
Y010315
Y010630
X028031
X028346Y010600
X028661
X029291Y010630
X029575Y010631
X029576Y010320
X029255Y010315
X029921Y010320
X030226Y010335
X030252Y010616
X030522Y010630
X030561Y010315
X030896
X031181Y010279
X031181Y010945
X031171Y011240
Y011575
Y011890
X030856
X030849Y012188
X031171Y012205
X031170Y012517
X030859Y012520
X030856Y012825
X031169Y012832
X031182Y013145
X030830Y013150
X030856Y013474
X030866Y013784
X030246Y013740
X030256Y013465
X030244Y013177
X030258Y012840
X030258Y012516
X030256Y012205
X030236Y011870
X029939Y011873
X029920Y012239
X029921Y012520
X029885Y012835
X029902Y013164
X029921Y013474
Y013789
X029183Y013711
X029291Y013465
Y013150
X028976Y013150
X028977Y013469
X028659Y013169
X028346Y013179
X028347Y013489
X028032Y013465
Y013150
X028031Y012835
X028346Y012815
X028356Y012500
X028661Y012490
X028652Y012215
X028996
X028976Y012500
Y012815
X029294Y012826
X029281Y012515
X029311Y012205
X029621Y012186
X029596Y011555
X029606Y011260
X029902Y011250
X029892Y010955
X029577Y010945
X029291Y010981
Y011240
Y011555
X028976
X028976Y011260
X028671Y011270
X028346Y011260
X028031
Y011572
X028031Y011890
X028310
X028342Y011604
X028663Y011609
X027712Y011565
X027717Y011280
X027432Y011255
X027402Y010945
Y010630
Y010315
X027087
X026777Y010320
X026772Y010000
Y009685
X026462Y009690
X026421Y009370
X026142Y009370
Y009055
X026421Y009055
X026421Y008740
X026142
X025827
X025512
Y008425
Y008110
Y007795
X026142
Y008110
Y008425
X026772
Y008110
Y007795
X027402
Y008110
Y008425
X027717Y008425
X028031Y008425
X028031Y008110
X028346
Y008425
Y008740
X028347Y009037
X028661Y009055
X028660Y008768
X028976Y008740
Y009055
Y009370
X028986Y009665
X028661Y009370
X028346Y009400
X028370Y009675
X028031Y009400
X027717Y009370
X027402
X027087Y009370
X026777Y009369
Y009055
X027087
X027402
Y008740
X027087
X026772
X027717
Y009055
X028031Y009055
Y008740
X028661Y008393
X028661Y008110
Y007830
X028976Y007795
X028976Y008110
X028976Y008425
X029291
X029606Y009055
X030253Y009702
X030559Y009704
X030250Y010020
X029909Y010630
X030211Y010941
X030551Y011250
X030539Y011553
X030856Y011565
X030226Y011575
X031801
Y011890
Y012205
X031801Y012517
Y012832
X031801Y013150
X031244Y013462
X033492Y013057
X034470Y012351
X034656Y011476
X034537Y010728
X034519Y009392
X034949Y009350
X034850Y009154
X034949Y008957
X034343
X035799Y008957
X035898Y009154
X035799Y009350
X035839Y010115
X035839Y010344
X035827Y011811
X035827Y012599
X035827Y013386
X035797Y014203
X035837Y014457
X035838Y014667
X035837Y014911
X035817Y015984
X035837Y016218
Y016437
Y016703
X035827Y017717
Y018504
Y019291
Y020079
Y020866
X034953Y018340
X034943Y018130
X034352Y017600
X034343Y016998
X034350Y016119
Y015909
Y015699
X034347Y015456
Y015246
X034439Y015057
X034343Y014871
Y014661
X034400Y014459
X034381Y014249
X034764Y014006
X030551Y016299
X030236
X029921Y016299
X029606
X029291Y016289
X028661Y016299
X028349Y016289
X028031Y016299
Y016604
X028346Y016614
X027402Y016614
X027087Y016614
X027087Y016319
X026772Y016299
Y016614
X026775Y016925
X027085Y016925
X027396Y016929
X027707Y016939
X027402Y017244
X027087Y017244
X026876Y017362
X026730Y017515
X026870Y017677
X026722Y017835
X027165Y017864
X027087Y018179
X027402Y018189
X027402Y018504
X027717
X027717Y018189
X028031
X028031Y018504
Y018819
X027717Y018819
X027717Y019144
X028031Y019144
X028350Y019142
X028661Y019144
X028976Y019134
X029606Y019134
X029921
X030236
X030551
X030866Y019134
X031220Y019213
Y019449
X031870Y020177
X032087
X032303
X032303Y020392
X032303Y020602
X032283Y021654
X031496
X031526Y022873
X030581Y022490
Y022274
Y022057
X030030Y022077
Y022470
X029134Y021654
X028346
X027569Y022057
Y022274
Y022490
X027018Y022470
X025984Y021654
X025197
X025522Y022873
X028514Y022873
X028858Y020177
X029075
X029291
X029291Y020392
X029291Y020602
X029616Y018819
X029606Y017854
X029291
X028976
X028661
X028346Y017854
X028505Y017578
X028819Y017579
X029134
X029449
X029765Y017578
X030079Y017579
X030394
X030706Y017578
X031024Y017579
X031339
X031654Y017611
X031496Y017854
X031181Y017858
X030866Y017854
X030551
X030236
X029921
X028021Y017665
X027820Y017729
X027648Y017864
X028346Y018504
X028356Y018819
X027402Y019154
X027087
X027087Y018839
X026772Y018831
Y019151
X026457Y019154
X026142
X025827
X025689Y018664
X025866Y020177
X026083
X026299
X026299Y020392
X026299Y020602
X027559Y019331
X027402Y016299
X027619Y016032
X027844Y016033
X026457Y016299
X026142Y016299
X025829Y016289
X025768Y016772
X026142Y017224
X026457Y016929
X026457Y013465
X026772
X026457Y013150
Y012835
X026772Y012835
Y012520
X026457Y012520
Y012205
X026169Y012197
X026142Y012510
X025827
Y012844
X026142Y012864
X026139Y013124
X025846Y013159
X025518Y013153
X025512Y012864
X025514Y013463
X025829Y013484
X026152Y013504
X027404Y013432
X027402Y013648
X027402Y013150
Y012835
X027087Y012835
Y012549
X027402Y012500
X027405Y012232
X027402Y011900
X027717
X027717Y012205
X027717Y012490
X028002Y012205
X027087Y011900
X026772Y011890
X026444Y011882
X026138Y011877
X026115Y011567
X025827Y011555
X025522Y011565
X025273Y011516
X025118Y011661
X025519Y011917
X025807Y011882
X025807Y012195
X026440Y011565
X026457Y011260
X026142
X026109Y010942
X026440Y010928
X026457Y010630
X026178
X026457Y010279
X027087Y010000
X027397
X027089Y010940
X026772Y010945
X026794Y011258
X027068Y011255
X027123Y011575
X027402Y011575
X026806Y011575
X025414Y010999
X025470Y010157
X025260
X025295Y009685
X025511Y009684
X025827Y009685
X025470Y009213
X031211Y009380
X031929Y009311
X032900Y008472
X032757Y008319
X033264Y008183
X033410Y008032
X033116Y008034
X033264Y007881
X033297Y007667
X033156Y007503
X033786Y007490
X034418Y007451
X034616Y007648
X035827Y007874
X031181Y007795
X030551
Y008110
X028661Y012844
X024918Y011139
X024902Y009685
Y009380
X024695Y009528
X024705Y009843
X024636Y009189
X024711Y008976
X024157Y009313
X024006Y009475
X023386Y009485
Y009695
Y009911
X023329Y010256
X022355Y010030
X021736Y010452
X021732Y010827
Y011614
X021744Y012500
Y012894
Y013287
Y013681
Y014075
Y014468
X021744Y014862
X022350Y015059
Y015453
X022333Y015846
X021752
X022047Y016230
X021752Y016634
X022343
X022350Y017815
X022087Y017744
X021831Y017618
X021744Y018209
X020833Y017913
X020837Y018573
X020866Y019291
Y020079
Y020866
X019291
Y020079
Y019291
Y018504
Y017717
X019301Y016703
Y016437
Y016218
X019281Y015984
X019301Y014911
X019303Y014667
X019301Y014457
X019261Y014203
X019291Y013386
X019291Y012599
X019291Y011811
X019304Y010344
X019303Y010115
X019264Y009350
X019363Y009154
X019264Y008957
X018413Y008957
X018314Y009154
X018413Y009350
X017984Y009392
X017807Y008957
X017883Y007451
X018081Y007648
X017251Y007490
X016621Y007503
X016762Y007667
X016728Y007881
X016875Y008032
X016729Y008183
X016580Y008034
X016221Y008319
X016365Y008472
X015394Y009311
X014675Y009380
X014023Y009384
X013707
X013386Y009380
Y009055
X013386Y008740
X013071
X012756
Y009055
Y009370
X012763Y009658
X013071Y009649
X013402Y009702
X013386Y009964
X013107Y010000
X012734Y009988
X012441Y010000
X012114Y010005
X011811Y010000
X011496
X011181
Y010315
Y010630
X011496
X011811Y010600
X012126
X012756Y010630
X013039Y010631
X013041Y010320
X012720Y010315
X013386Y010320
X013691Y010335
X013716Y010616
X013986Y010630
X014026Y010315
X014360
X014646Y010279
X014646Y010945
X014636Y011240
Y011575
Y011890
X014321
X014314Y012188
X014636Y012205
X014634Y012517
X014323Y012520
X014321Y012825
X014634Y012832
X014647Y013145
X014295Y013150
X014321Y013474
X014331Y013784
X013711Y013740
X013721Y013465
X013708Y013177
X013723Y012840
X013723Y012516
X013720Y012205
X013701Y011870
X013403Y011873
X013385Y012239
X013386Y012520
X013350Y012835
X013367Y013164
X013386Y013474
Y013789
X012648Y013711
X012756Y013465
Y013150
X012441Y013150
X012442Y013469
X012124Y013169
X011811Y013179
X011812Y013489
X011496Y013465
Y013150
X011496Y012835
X011811Y012815
X011821Y012500
X012126Y012490
X012116Y012215
X012461
X012441Y012500
Y012815
X012759Y012826
X012746Y012515
X012776Y012205
X013086Y012186
X013061Y011555
X013071Y011260
X013366Y011250
X013356Y010955
X013041Y010945
X012756Y010981
Y011240
Y011555
X012441
X012441Y011260
X012136Y011270
X011811Y011260
X011496
Y011572
X011496Y011890
X011775
X011806Y011604
X012127Y011609
X011176Y011565
X011181Y011280
X010896Y011255
X010866Y010945
Y010630
Y010315
X010551
X010241Y010320
X010236Y010000
Y009685
X009926Y009690
X009885Y009370
X009606Y009370
Y009055
X009885Y009055
X009885Y008740
X009606
Y008425
Y008110
Y007795
X010236
Y008110
Y008425
Y008740
X010551
Y009055
X010241
Y009369
X010551Y009370
X010866Y009370
X011181
X011181Y009055
X010866
Y008740
X011181
X011496Y008740
X011811
X011811Y009037
X012126Y009055
X012124Y008768
X012441Y008740
Y009055
Y009370
X012451Y009665
X012126Y009370
X011811Y009400
X011835Y009675
X011496Y009400
X011496Y009055
X011496Y008425
X011496Y008110
X011811
Y008425
X012126Y008393
X012126Y008110
Y007830
X012441Y007795
X012441Y008110
X012441Y008425
X012756
X013386Y008425
Y008110
X013386Y007795
X014016Y007795
Y008110
X013701Y008425
X013705Y009031
X013999Y009047
X014016Y008776
X014340Y008746
X014646Y007795
X014024Y009704
X013717Y009702
X013715Y010020
X013373Y010630
X013676Y010941
X014016Y011250
X014004Y011553
X014321Y011565
X013691Y011575
X015266
Y011890
Y012205
X015266Y012517
Y012832
X015266Y013150
X014709Y013462
X016956Y013057
X017934Y012351
X018120Y011476
X018002Y010728
X020896Y011024
Y010236
Y009449
Y008661
X021506Y007402
X021877
X024272Y007982
X024274Y008228
X024242Y008474
X023998Y008536
X024587Y008150
X024754Y008002
Y007687
X024577Y007844
X023211Y011469
Y011752
X023206Y012608
X023209Y012894
Y013287
Y013681
Y014075
Y014468
Y014862
X022350Y014665
Y014272
Y013878
Y013484
Y013091
X022364Y012599
X022362Y011217
X020896Y011811
X020894Y012697
X020894Y013091
Y013484
Y013878
Y014272
X020894Y014665
X017807Y014661
Y014871
X017904Y015057
X017812Y015246
Y015456
X017815Y015699
Y015909
Y016119
X017807Y016998
X017816Y017600
X018408Y018130
X018417Y018340
X014961Y017854
X014646Y017858
X014331Y017854
X014016
X013701
X013386
X013071
X012756
X012441
X012126
X011811Y017854
X011969Y017578
X012283Y017579
X012598
X012913
X013229Y017578
X013543Y017579
X013858
X014171Y017578
X014488Y017579
X014803
X015118Y017611
X014685Y019213
Y019449
X014331Y019134
X014016Y019134
X013701
X013386
X013071
X013081Y018819
X012441Y019134
X012126Y019144
X011814Y019142
X011496Y019144
X011181Y019144
X010866Y019154
X010551
X010551Y018839
X010236Y018831
Y019151
X009921Y019154
X009606
X009547Y020177
X009331
X009764
X009764Y020392
X009764Y020602
X009449Y021654
X010482Y022470
X011033Y022490
Y022274
Y022057
X011811Y021654
X012598
X012756Y020602
X012756Y020392
X012756Y020177
X012539
X012323
X011821Y018819
X011811Y018504
X011496Y018504
X011496Y018189
X011181
X010866
X010866Y018504
X011181
X011181Y018819
X011496Y018819
X011024Y019331
X011112Y017864
X011285Y017729
X011485Y017665
X010866Y017244
X010551Y017244
X010550Y016925
X010239Y016925
X010236Y016614
Y016299
X009921Y016299
X009606Y016299
X009606Y017224
X009921Y016929
X010341Y017362
X010195Y017515
X010335Y017677
X010187Y017835
X010630Y017864
X010551Y018179
X010860Y016929
X010866Y016614
X010551Y016614
X010551Y016319
X010866Y016299
X011084Y016032
X011309Y016033
X011496Y016299
Y016604
X011811Y016614
X011814Y016289
X012126Y016299
X012756Y016289
X013071Y016299
X013386
X013701Y016299
X014016
X011171Y016939
X010866Y013648
X010869Y013432
X010866Y013150
Y012835
X010551Y012835
Y012549
X010236Y012520
X009921Y012520
Y012835
X010236Y012835
X009921Y013150
Y013465
X010236
X009616Y013504
X009604Y013124
X009606Y012864
Y012510
X009633Y012197
X009921Y012205
X009909Y011882
X009602Y011877
X009580Y011567
X009905Y011565
X009921Y011260
X009606
X009574Y010942
X009904Y010928
X009921Y010630
X009642
X009921Y010279
X010551Y010000
X010861
X010554Y010940
X010236Y010945
X010259Y011258
X010533Y011255
X010587Y011575
X010866Y011575
X010866Y011900
X011181
X011181Y012205
X011181Y012490
X010866Y012500
X010870Y012232
X011467Y012205
X010551Y011900
X010236Y011890
X010271Y011575
X012126Y012844
X013071Y009055
X011181Y008425
X010866Y008425
Y008110
Y007795
X019291Y007874
X018228Y014006
X017846Y014249
X017864Y014459
X015768Y020177
X015768Y020392
X015768Y020602
X015551Y020177
X015335
X014961Y021654
X015748
X014990Y022873
X014045Y022490
Y022274
Y022057
X013494Y022077
Y022470
X011978Y022873
X024026Y022470
Y022077
X024577Y022057
Y022274
Y022490
X023524Y018593
X023494Y018209
X023209Y018406
X023209Y018012
X009153Y018664
X009291Y019154
X009232Y016772
X009294Y016289
Y013484
X008979Y013463
X008983Y013153
X008976Y012864
X009291Y012844
Y012510
X009271Y012195
X009272Y011882
X008983Y011917
X008986Y011565
X008738Y011516
X008583Y011661
X008383Y011139
X008879Y010999
X008935Y010157
X008725
X008760Y009685
X008975Y009684
X009291Y009685
X008935Y009213
X008976Y008740
X009291
X008976Y008425
Y008110
Y007795
X008219Y007687
Y008002
X008051Y008150
X008041Y007844
X007736Y007982
X007738Y008228
X007707Y008474
X007463Y008536
X007621Y009313
X007470Y009475
X006850Y009485
Y009695
Y009911
X006793Y010256
X005819Y010030
X005201Y010452
X005197Y010827
Y011614
X005209Y012500
Y012894
Y013287
Y013681
Y014075
Y014468
X005209Y014862
X005815Y015059
Y015453
X005797Y015846
X005217
X005512Y016230
X005217Y016634
X005807
X005815Y017815
X005551Y017744
X005295Y017618
X005209Y018209
X004297Y017913
X004301Y018573
X004331Y019291
Y020079
Y020866
X007490Y022077
Y022470
X008041Y022490
Y022274
Y022057
X008661Y021654
X008986Y022873
X006988Y018593
X006959Y018209
X006673Y018406
X006673Y018012
X006673Y014862
Y014468
Y014075
Y013681
Y013287
Y012894
X006671Y012608
X005829Y012599
X005815Y013091
Y013484
Y013878
Y014272
Y014665
X004358
X004358Y014272
Y013878
Y013484
Y013091
X004358Y012697
X004360Y011811
Y011024
Y010236
Y009449
Y008661
X004970Y007402
X005342
X005827Y011217
X006676Y011469
Y011752
X009291Y011555
X009311Y013159
X008366Y009685
Y009380
X008159Y009528
X008169Y009843
X008100Y009189
X008175Y008976
X008553Y023297
X008770
X008986
X008986Y023083
X007490Y023307
X006693Y023228
X009449
X010236
X010482Y023307
X011545Y023297
X011762
X011978
X011978Y023083
X012992Y023228
X013494Y023307
X013780Y023228
X014557Y023297
X014774
X014990
X014990Y023083
X015354Y023228
X016142
X016929
X023228
X024026Y023307
X025089Y023297
X025305
X025522
X025522Y023083
X025984Y023228
X026772
X027018Y023307
X028081Y023297
X028297
X028514
X028514Y023083
X029528Y023228
X030030Y023307
X030315Y023228
X031093Y023297
X031309
X031526
X031526Y023083
X031890Y023228
X032677
X033465
T02
X007884Y005059
X015738
X024419
X032274
X034193Y007884
Y019675
X021594
X017657
Y007884
X021594
X005059
Y019675
T03
X005906Y001969
X005118Y005118
X018504
X021654
X035039
X034252Y001969
X035039Y022441
X021654
X018504
X005118
X005906Y025591
X034252
T04
X008465Y005846
X015157
X025000
X031693
X034980Y008465
Y019094
X022382
X018445
Y008465
X022382
X005846
Y019094
M30
