M48
;Layer_Color=9474304
;FILE_FORMAT=2:5
INCH,LZ
;TYPE=PLATED
T1F00S00C0.01000
T2F00S00C0.03543
%
T01
X0009055Y0012598
X0005Y0025
X0005118Y0041732
X0005Y0055
X002
X0025
X002874Y0055905
Y0051968
X00225Y005
X00175
X0028346Y0043701
X0032283
Y004685
X003622Y0043701
X0045276
X0045669Y0036614
X0051181
Y0030709
X0045669
X0043307Y0023228
X003622Y0021654
X0032283
X0028346
X0025984Y0027559
X0024803Y0032677
X0018898Y0030709
X0049213Y0017717
X0054331Y0017717
X0054724Y0007087
X0043701
X0054724Y0043701
X0050394Y0052756
X004685
X0051968Y0055905
X0065354Y0045669
X0068898
X0062992Y0042913
X0058661Y0038976
Y0036614
Y0032677
X0061024Y0022441
Y0017717
X0066929Y0025197
X0069685Y0026772
Y0011024
Y0007087
X0064173
X00625Y006
X00675
X0038976Y005748
X0009449Y0058268
T02
X0005079Y0005118
X0015079
X0025079
X0035079
Y0065748
X0025079
X0015079
X0005079
M30
