%TF.GenerationSoftware,KiCad,Pcbnew,9.0.0*%
%TF.CreationDate,2025-04-28T22:47:42-04:00*%
%TF.ProjectId,Interposer_Board_Test_Fixture,496e7465-7270-46f7-9365-725f426f6172,rev?*%
%TF.SameCoordinates,Original*%
%TF.FileFunction,Copper,L4,Bot*%
%TF.FilePolarity,Positive*%
%FSLAX46Y46*%
G04 Gerber Fmt 4.6, Leading zero omitted, Abs format (unit mm)*
G04 Created by KiCad (PCBNEW 9.0.0) date 2025-04-28 22:47:42*
%MOMM*%
%LPD*%
G01*
G04 APERTURE LIST*
%TA.AperFunction,SMDPad,CuDef*%
%ADD10R,2.500000X0.350000*%
%TD*%
%TA.AperFunction,ComponentPad*%
%ADD11C,0.700000*%
%TD*%
%TA.AperFunction,ComponentPad*%
%ADD12C,4.400000*%
%TD*%
%TA.AperFunction,ViaPad*%
%ADD13C,0.508000*%
%TD*%
%TA.AperFunction,Conductor*%
%ADD14C,0.350000*%
%TD*%
%TA.AperFunction,Conductor*%
%ADD15C,0.188000*%
%TD*%
%TA.AperFunction,Conductor*%
%ADD16C,0.152400*%
%TD*%
G04 APERTURE END LIST*
D10*
%TO.P,J1,2,2*%
%TO.N,unconnected-(J1-Pad2)*%
X116913600Y-114928601D03*
%TO.P,J1,4,4*%
%TO.N,unconnected-(J1-Pad4)*%
X116913600Y-114428600D03*
%TO.P,J1,6,6*%
%TO.N,unconnected-(J1-Pad6)*%
X116913600Y-113928600D03*
%TO.P,J1,8,8*%
%TO.N,unconnected-(J1-Pad8)*%
X116913600Y-113428599D03*
%TO.P,J1,10,10*%
%TO.N,unconnected-(J1-Pad10)*%
X116913600Y-112928600D03*
%TO.P,J1,12,12*%
%TO.N,unconnected-(J1-Pad12)*%
X116913600Y-112428600D03*
%TO.P,J1,14,14*%
%TO.N,unconnected-(J1-Pad14)*%
X116913600Y-111928600D03*
%TO.P,J1,16,16*%
%TO.N,unconnected-(J1-Pad16)*%
X116913600Y-111428600D03*
%TO.P,J1,18,18*%
%TO.N,unconnected-(J1-Pad18)*%
X116913599Y-110928600D03*
%TO.P,J1,20,20*%
%TO.N,unconnected-(J1-Pad20)*%
X116913600Y-110428600D03*
%TO.P,J1,22,22*%
%TO.N,unconnected-(J1-Pad22)*%
X116913600Y-109928600D03*
%TO.P,J1,24,24*%
%TO.N,unconnected-(J1-Pad24)*%
X116913600Y-109428600D03*
%TO.P,J1,26,26*%
%TO.N,unconnected-(J1-Pad26)*%
X116913600Y-108928600D03*
%TO.P,J1,28,28*%
%TO.N,unconnected-(J1-Pad28)*%
X116913600Y-108428601D03*
%TO.P,J1,30,30*%
%TO.N,unconnected-(J1-Pad30)*%
X116913600Y-107928600D03*
%TO.P,J1,32,32*%
%TO.N,unconnected-(J1-Pad32)*%
X116913600Y-107428600D03*
%TO.P,J1,34,34*%
%TO.N,unconnected-(J1-Pad34)*%
X116913600Y-106928599D03*
%TO.P,J1,36,36*%
%TO.N,unconnected-(J1-Pad36)*%
X116913600Y-106428600D03*
%TO.P,J1,38,38*%
%TO.N,unconnected-(J1-Pad38)*%
X116913600Y-105928601D03*
%TO.P,J1,40,40*%
%TO.N,unconnected-(J1-Pad40)*%
X116913600Y-105428600D03*
%TO.P,J1,42,42*%
%TO.N,unconnected-(J1-Pad42)*%
X116913600Y-104928600D03*
%TO.P,J1,44,44*%
%TO.N,unconnected-(J1-Pad44)*%
X116913600Y-104428599D03*
%TO.P,J1,46,46*%
%TO.N,unconnected-(J1-Pad46)*%
X116913600Y-103928600D03*
%TO.P,J1,48,48*%
%TO.N,unconnected-(J1-Pad48)*%
X116913600Y-103428601D03*
%TO.P,J1,50,50*%
%TO.N,/PERST#*%
X116913600Y-102928600D03*
%TO.P,J1,52,52*%
%TO.N,GND*%
X116913600Y-102428600D03*
%TO.P,J1,54,54*%
%TO.N,unconnected-(J1-Pad54)*%
X116913600Y-101928599D03*
%TO.P,J1,56,56*%
%TO.N,unconnected-(J1-Pad56)*%
X116913600Y-101428600D03*
%TO.P,J1,58,58*%
%TO.N,unconnected-(J1-Pad58)*%
X116913600Y-100928600D03*
%TO.P,J1,68,68*%
%TO.N,unconnected-(J1-Pad68)*%
X116913600Y-98428600D03*
%TO.P,J1,70,70*%
%TO.N,unconnected-(J1-Pad70)*%
X116913600Y-97928600D03*
%TO.P,J1,72,72*%
%TO.N,unconnected-(J1-Pad72)*%
X116913600Y-97428600D03*
%TO.P,J1,74,74*%
%TO.N,unconnected-(J1-Pad74)*%
X116913600Y-96928601D03*
%TD*%
D11*
%TO.P,H3,1,1*%
%TO.N,GND*%
X194026100Y-94978600D03*
X194509374Y-93811874D03*
X194509374Y-96145326D03*
X195676100Y-93328600D03*
D12*
X195676100Y-94978600D03*
D11*
X195676100Y-96628600D03*
X196842826Y-93811874D03*
X196842826Y-96145326D03*
X197326100Y-94978600D03*
%TD*%
%TO.P,H2,1,1*%
%TO.N,GND*%
X102751100Y-97703600D03*
X103234374Y-96536874D03*
X103234374Y-98870326D03*
X104401100Y-96053600D03*
D12*
X104401100Y-97703600D03*
D11*
X104401100Y-99353600D03*
X105567826Y-96536874D03*
X105567826Y-98870326D03*
X106051100Y-97703600D03*
%TD*%
%TO.P,H4,1,1*%
%TO.N,GND*%
X194026100Y-116978600D03*
X194509374Y-115811874D03*
X194509374Y-118145326D03*
X195676100Y-115328600D03*
D12*
X195676100Y-116978600D03*
D11*
X195676100Y-118628600D03*
X196842826Y-115811874D03*
X196842826Y-118145326D03*
X197326100Y-116978600D03*
%TD*%
%TO.P,H1,1,1*%
%TO.N,GND*%
X194026100Y-105978600D03*
X194509374Y-104811874D03*
X194509374Y-107145326D03*
X195676100Y-104328600D03*
D12*
X195676100Y-105978600D03*
D11*
X195676100Y-107628600D03*
X196842826Y-104811874D03*
X196842826Y-107145326D03*
X197326100Y-105978600D03*
%TD*%
%TO.P,H5,1,1*%
%TO.N,GND*%
X102751100Y-113703600D03*
X103234374Y-112536874D03*
X103234374Y-114870326D03*
X104401100Y-112053600D03*
D12*
X104401100Y-113703600D03*
D11*
X104401100Y-115353600D03*
X105567826Y-112536874D03*
X105567826Y-114870326D03*
X106051100Y-113703600D03*
%TD*%
D10*
%TO.P,J2,1,1*%
%TO.N,unconnected-(J2-Pad1)*%
X74926100Y-115278600D03*
%TO.P,J2,3,3*%
%TO.N,unconnected-(J2-Pad3)*%
X74926100Y-114778600D03*
%TO.P,J2,5,5*%
%TO.N,unconnected-(J2-Pad5)*%
X74926100Y-114278601D03*
%TO.P,J2,7,7*%
%TO.N,unconnected-(J2-Pad7)*%
X74926100Y-113778600D03*
%TO.P,J2,9,9*%
%TO.N,unconnected-(J2-Pad9)*%
X74926100Y-113278600D03*
%TO.P,J2,11,11*%
%TO.N,unconnected-(J2-Pad11)*%
X74926100Y-112778599D03*
%TO.P,J2,13,13*%
%TO.N,unconnected-(J2-Pad13)*%
X74926100Y-112278600D03*
%TO.P,J2,15,15*%
%TO.N,unconnected-(J2-Pad15)*%
X74926100Y-111778601D03*
%TO.P,J2,17,17*%
%TO.N,unconnected-(J2-Pad17)*%
X74926100Y-111278600D03*
%TO.P,J2,19,19*%
%TO.N,unconnected-(J2-Pad19)*%
X74926100Y-110778600D03*
%TO.P,J2,21,21*%
%TO.N,unconnected-(J2-Pad21)*%
X74926100Y-110278599D03*
%TO.P,J2,23,23*%
%TO.N,unconnected-(J2-Pad23)*%
X74926100Y-109778600D03*
%TO.P,J2,25,25*%
%TO.N,unconnected-(J2-Pad25)*%
X74926100Y-109278601D03*
%TO.P,J2,27,27*%
%TO.N,unconnected-(J2-Pad27)*%
X74926100Y-108778600D03*
%TO.P,J2,29,29*%
%TO.N,unconnected-(J2-Pad29)*%
X74926100Y-108278600D03*
%TO.P,J2,31,31*%
%TO.N,unconnected-(J2-Pad31)*%
X74926100Y-107778599D03*
%TO.P,J2,33,33*%
%TO.N,unconnected-(J2-Pad33)*%
X74926100Y-107278600D03*
%TO.P,J2,35,35*%
%TO.N,unconnected-(J2-Pad35)*%
X74926100Y-106778600D03*
%TO.P,J2,37,37*%
%TO.N,unconnected-(J2-Pad37)*%
X74926100Y-106278600D03*
%TO.P,J2,39,39*%
%TO.N,unconnected-(J2-Pad39)*%
X74926100Y-105778600D03*
%TO.P,J2,41,41*%
%TO.N,unconnected-(J2-Pad41)*%
X74926100Y-105278601D03*
%TO.P,J2,43,43*%
%TO.N,unconnected-(J2-Pad43)*%
X74926100Y-104778600D03*
%TO.P,J2,45,45*%
%TO.N,unconnected-(J2-Pad45)*%
X74926100Y-104278600D03*
%TO.P,J2,47,47*%
%TO.N,unconnected-(J2-Pad47)*%
X74926100Y-103778600D03*
%TO.P,J2,49,49*%
%TO.N,/PERST#*%
X74926100Y-103278600D03*
%TO.P,J2,51,51*%
%TO.N,unconnected-(J2-Pad51)*%
X74926100Y-102778601D03*
%TO.P,J2,53,53*%
%TO.N,unconnected-(J2-Pad53)*%
X74926100Y-102278600D03*
%TO.P,J2,55,55*%
%TO.N,unconnected-(J2-Pad55)*%
X74926100Y-101778600D03*
%TO.P,J2,57,57*%
%TO.N,unconnected-(J2-Pad57)*%
X74926100Y-101278599D03*
%TO.P,J2,67,67*%
%TO.N,unconnected-(J2-Pad67)*%
X74926100Y-98778599D03*
%TO.P,J2,69,69*%
%TO.N,unconnected-(J2-Pad69)*%
X74926100Y-98278600D03*
%TO.P,J2,71,71*%
%TO.N,unconnected-(J2-Pad71)*%
X74926100Y-97778600D03*
%TO.P,J2,73,73*%
%TO.N,unconnected-(J2-Pad73)*%
X74926100Y-97278600D03*
%TO.P,J2,75,75*%
%TO.N,unconnected-(J2-Pad75)*%
X74926100Y-96778600D03*
%TD*%
D13*
%TO.N,GND*%
X139901100Y-109203600D03*
X102401100Y-111703600D03*
X118663600Y-97678600D03*
X137901100Y-103203600D03*
X88401100Y-97703600D03*
X197901100Y-111203600D03*
X100401100Y-113703600D03*
X191901100Y-117203600D03*
X73176100Y-108528601D03*
X135901100Y-117203600D03*
X141901100Y-111203600D03*
X98401100Y-95703600D03*
X193901100Y-99203600D03*
X179901100Y-93203600D03*
X133901100Y-95203600D03*
X167901100Y-97203600D03*
X106401100Y-111703600D03*
X139901100Y-101203600D03*
X104401100Y-105703600D03*
X159901100Y-101203600D03*
X133901100Y-103203600D03*
X169901100Y-119203600D03*
X123901100Y-93203600D03*
X165901100Y-119203600D03*
X189901100Y-111203600D03*
X135901100Y-113203600D03*
X133901100Y-107203600D03*
X197901100Y-103203600D03*
X100401100Y-101703600D03*
X92401100Y-109703600D03*
X135901100Y-97203600D03*
X133901100Y-119203600D03*
X157901100Y-119203600D03*
X155901100Y-105203600D03*
X157901100Y-95203600D03*
X141901100Y-107203600D03*
X189901100Y-95203600D03*
X183901100Y-97203600D03*
X151901100Y-97203600D03*
X185901100Y-107203600D03*
X94401100Y-115703600D03*
X123901100Y-109203600D03*
X118663600Y-111678599D03*
X169901100Y-95203600D03*
X187901100Y-109203600D03*
X157901100Y-99203600D03*
X175901100Y-105203600D03*
X123901100Y-105203600D03*
X102401100Y-107703600D03*
X137901100Y-115203600D03*
X153901100Y-111203600D03*
X157901100Y-103203600D03*
X86401100Y-103703600D03*
X143901100Y-109203600D03*
X73176100Y-101028600D03*
X169901100Y-103203600D03*
X167901100Y-109203600D03*
X159901100Y-97203600D03*
X118663600Y-96678601D03*
X96401100Y-105703600D03*
X129901100Y-111203600D03*
X173901100Y-115203600D03*
X177901100Y-111203600D03*
X127901100Y-97203600D03*
X127901100Y-93203600D03*
X102401100Y-95703600D03*
X129901100Y-115203600D03*
X175901100Y-97203600D03*
X131901100Y-101203600D03*
X163901100Y-101203600D03*
X131901100Y-109203600D03*
X131901100Y-113203600D03*
X151901100Y-113203600D03*
X118663600Y-107178598D03*
X143901100Y-101203600D03*
X159901100Y-105203600D03*
X137901100Y-119203600D03*
X191901100Y-105203600D03*
X187901100Y-113203600D03*
X195901100Y-113203600D03*
X171901100Y-109203600D03*
X129901100Y-99203600D03*
X129901100Y-119203600D03*
X145901100Y-111203600D03*
X141901100Y-115203600D03*
X125901100Y-103203600D03*
X139901100Y-97203600D03*
X106401100Y-115703600D03*
X106401100Y-103703600D03*
X102401100Y-115703600D03*
X73176100Y-115353600D03*
X118663600Y-110178599D03*
X163901100Y-113203600D03*
X183901100Y-105203600D03*
X73176100Y-102528600D03*
X94401100Y-111703600D03*
X96401100Y-109703600D03*
X96401100Y-101703600D03*
X157901100Y-115203600D03*
X169901100Y-107203600D03*
X163901100Y-109203600D03*
X175901100Y-113203600D03*
X147901100Y-101203600D03*
X123901100Y-97203600D03*
X145901100Y-103203600D03*
X94401100Y-99703600D03*
X151901100Y-105203600D03*
X73176100Y-107028599D03*
X127901100Y-105203600D03*
X185901100Y-95203600D03*
X183901100Y-101203600D03*
X185901100Y-103203600D03*
X100401100Y-97703600D03*
X92401100Y-105703600D03*
X90401100Y-111703600D03*
X169901100Y-111203600D03*
X149901100Y-107203600D03*
X96401100Y-113703600D03*
X155901100Y-101203600D03*
X118663600Y-108678600D03*
X86401100Y-99703600D03*
X189901100Y-119203600D03*
X157901100Y-111203600D03*
X106401100Y-107703600D03*
X143901100Y-93203600D03*
X143901100Y-105203600D03*
X139901100Y-113203600D03*
X86401100Y-115703600D03*
X131901100Y-117203600D03*
X179901100Y-117203600D03*
X88401100Y-109703600D03*
X147901100Y-113203600D03*
X191901100Y-101203600D03*
X181901100Y-99203600D03*
X118663600Y-114678599D03*
X165901100Y-111203600D03*
X173901100Y-103203600D03*
X104401100Y-109703600D03*
X133901100Y-115203600D03*
X98401100Y-107703600D03*
X119001100Y-102678600D03*
X125901100Y-119203600D03*
X141901100Y-95203600D03*
X183901100Y-109203600D03*
X161901100Y-119203600D03*
X141901100Y-99203600D03*
X129901100Y-103203600D03*
X102401100Y-99703600D03*
X155901100Y-93203600D03*
X135901100Y-93203600D03*
X73176100Y-97028601D03*
X173901100Y-107203600D03*
X127901100Y-101203600D03*
X118663600Y-101178599D03*
X135901100Y-101203600D03*
X159901100Y-113203600D03*
X98401100Y-103703600D03*
X100401100Y-109703600D03*
X177901100Y-103203600D03*
X183901100Y-113203600D03*
X179901100Y-97203600D03*
X183901100Y-117203600D03*
X173901100Y-119203600D03*
X129901100Y-95203600D03*
X149901100Y-119203600D03*
X169901100Y-99203600D03*
X118663600Y-104178599D03*
X88401100Y-101703600D03*
X149901100Y-115203600D03*
X90401100Y-115703600D03*
X189901100Y-103203600D03*
X73176100Y-98028600D03*
X177901100Y-107203600D03*
X141901100Y-119203600D03*
X197901100Y-99203600D03*
X175901100Y-117203600D03*
X73176100Y-110028600D03*
X161901100Y-107203600D03*
X167901100Y-101203600D03*
X135901100Y-105203600D03*
X185901100Y-99203600D03*
X191901100Y-93203600D03*
X125901100Y-111203600D03*
X73176100Y-114528600D03*
X169901100Y-115203600D03*
X163901100Y-105203600D03*
X179901100Y-113203600D03*
X189901100Y-115203600D03*
X161901100Y-115203600D03*
X155901100Y-117203600D03*
X131901100Y-93203600D03*
X179901100Y-109203600D03*
X102401100Y-103703600D03*
X187901100Y-117203600D03*
X185901100Y-115203600D03*
X133901100Y-99203600D03*
X165901100Y-103203600D03*
X153901100Y-115203600D03*
X73176100Y-111528600D03*
X181901100Y-103203600D03*
X187901100Y-97203600D03*
X153901100Y-103203600D03*
X179901100Y-105203600D03*
X151901100Y-117203600D03*
X171901100Y-113203600D03*
X165901100Y-95203600D03*
X163901100Y-117203600D03*
X171901100Y-93203600D03*
X195901100Y-101203600D03*
X127901100Y-117203600D03*
X137901100Y-99203600D03*
X151901100Y-109203600D03*
X123901100Y-113203600D03*
X191901100Y-113203600D03*
X86401100Y-107703600D03*
X145901100Y-95203600D03*
X92401100Y-101703600D03*
X167901100Y-105203600D03*
X177901100Y-119203600D03*
X137901100Y-111203600D03*
X147901100Y-93203600D03*
X125901100Y-107203600D03*
X143901100Y-117203600D03*
X161901100Y-95203600D03*
X137901100Y-95203600D03*
X92401100Y-113703600D03*
X181901100Y-107203600D03*
X135901100Y-109203600D03*
X94401100Y-107703600D03*
X163901100Y-97203600D03*
X149901100Y-95203600D03*
X191901100Y-109203600D03*
X145901100Y-99203600D03*
X173901100Y-99203600D03*
X175901100Y-101203600D03*
X177901100Y-99203600D03*
X131901100Y-105203600D03*
X86401100Y-95703600D03*
X155901100Y-97203600D03*
X147901100Y-97203600D03*
X179901100Y-101203600D03*
X139901100Y-117203600D03*
X167901100Y-117203600D03*
X104401100Y-101703600D03*
X175901100Y-93203600D03*
X143901100Y-113203600D03*
X187901100Y-93203600D03*
X139901100Y-93203600D03*
X118663600Y-115503599D03*
X159901100Y-109203600D03*
X151901100Y-93203600D03*
X125901100Y-95203600D03*
X171901100Y-105203600D03*
X167901100Y-113203600D03*
X151901100Y-101203600D03*
X161901100Y-103203600D03*
X153901100Y-119203600D03*
X137901100Y-107203600D03*
X155901100Y-113203600D03*
X153901100Y-107203600D03*
X90401100Y-99703600D03*
X73176100Y-105528600D03*
X177901100Y-95203600D03*
X175901100Y-109203600D03*
X139901100Y-105203600D03*
X73176100Y-113028600D03*
X163901100Y-93203600D03*
X145901100Y-115203600D03*
X161901100Y-99203600D03*
X189901100Y-99203600D03*
X98401100Y-115703600D03*
X143901100Y-97203600D03*
X187901100Y-105203600D03*
X181901100Y-115203600D03*
X191901100Y-97203600D03*
X131901100Y-97203600D03*
X96401100Y-97703600D03*
X149901100Y-103203600D03*
X185901100Y-119203600D03*
X145901100Y-119203600D03*
X147901100Y-109203600D03*
X189901100Y-107203600D03*
X165901100Y-115203600D03*
X147901100Y-117203600D03*
X185901100Y-111203600D03*
X98401100Y-111703600D03*
X141901100Y-103203600D03*
X147901100Y-105203600D03*
X149901100Y-111203600D03*
X127901100Y-113203600D03*
X195901100Y-109203600D03*
X98401100Y-99703600D03*
X187901100Y-101203600D03*
X167901100Y-93203600D03*
X129901100Y-107203600D03*
X125901100Y-115203600D03*
X125901100Y-99203600D03*
X155901100Y-109203600D03*
X73176100Y-104028600D03*
X157901100Y-107203600D03*
X86401100Y-111703600D03*
X88401100Y-113703600D03*
X94401100Y-103703600D03*
X90401100Y-107703600D03*
X173901100Y-111203600D03*
X118663600Y-113178599D03*
X92401100Y-97703600D03*
X153901100Y-99203600D03*
X159901100Y-117203600D03*
X181901100Y-111203600D03*
X161901100Y-111203600D03*
X193901100Y-111203600D03*
X88401100Y-105703600D03*
X165901100Y-107203600D03*
X100401100Y-105703600D03*
X159901100Y-93203600D03*
X153901100Y-95203600D03*
X183901100Y-93203600D03*
X145901100Y-107203600D03*
X165901100Y-99203600D03*
X94401100Y-95703600D03*
X127901100Y-109203600D03*
X173901100Y-95203600D03*
X118663600Y-105678599D03*
X149901100Y-99203600D03*
X90401100Y-103703600D03*
X181901100Y-119203600D03*
X171901100Y-117203600D03*
X171901100Y-97203600D03*
X106401100Y-95703600D03*
X123901100Y-101203600D03*
X133901100Y-111203600D03*
X90401100Y-95703600D03*
X123901100Y-117203600D03*
X193901100Y-103203600D03*
X171901100Y-101203600D03*
X181901100Y-95203600D03*
X106401100Y-99703600D03*
X177901100Y-115203600D03*
%TO.N,/RX1_P*%
X119163600Y-106104748D03*
X72676100Y-105954749D03*
%TO.N,/RX2_P*%
X72676100Y-108954750D03*
X119163600Y-109104749D03*
%TO.N,/TX0_P*%
X72676100Y-104454750D03*
X119163600Y-104604749D03*
%TO.N,/TX1_N*%
X119163600Y-108252450D03*
X72676100Y-108102451D03*
%TO.N,/TX0_N*%
X119163600Y-105252449D03*
X72676100Y-105102450D03*
%TO.N,/TX1_P*%
X72676100Y-107454751D03*
X119163600Y-107604750D03*
%TO.N,/RX1_N*%
X72676100Y-106602449D03*
X119163600Y-106752448D03*
%TO.N,/RX2_N*%
X72676100Y-109602450D03*
X119163600Y-109752449D03*
%TD*%
D14*
%TO.N,GND*%
X118751100Y-102428600D02*
X119001100Y-102678600D01*
X116913600Y-102428600D02*
X118751100Y-102428600D01*
D15*
%TO.N,/RX1_P*%
X70726288Y-104861084D02*
X70444031Y-105143340D01*
X71404400Y-92400300D02*
X120766080Y-92400300D01*
X72676100Y-105954749D02*
X72516100Y-106114749D01*
X121726100Y-104474379D02*
X119935731Y-106264748D01*
X71394460Y-105351155D02*
X71349912Y-105306607D01*
X119935731Y-106264748D02*
X119323600Y-106264748D01*
X70128800Y-93675900D02*
X71404400Y-92400300D01*
X121726100Y-93360320D02*
X121726100Y-104474379D01*
X70949027Y-104905632D02*
X70904479Y-104861084D01*
X120766080Y-92400300D02*
X121726100Y-93360320D01*
X119323600Y-106264748D02*
X119163600Y-106104748D01*
X71112249Y-105811558D02*
X71394460Y-105529346D01*
X70128800Y-105006300D02*
X70128800Y-93675900D01*
X71171721Y-105306607D02*
X70889509Y-105588818D01*
X70666771Y-105366080D02*
X70949027Y-105083823D01*
X70711318Y-105588818D02*
X70666771Y-105544271D01*
X70128800Y-105006300D02*
X70265840Y-105143340D01*
X71237249Y-106114749D02*
X71112249Y-105989749D01*
X72516100Y-106114749D02*
X71237249Y-106114749D01*
X70889509Y-105588818D02*
G75*
G02*
X70711319Y-105588818I-89095J89094D01*
G01*
X70666771Y-105544271D02*
G75*
G02*
X70666795Y-105366104I89129J89071D01*
G01*
X71394460Y-105529346D02*
G75*
G03*
X71394411Y-105351205I-89060J89046D01*
G01*
X71112249Y-105989749D02*
G75*
G02*
X71112295Y-105811605I89051J89049D01*
G01*
X70949027Y-105083823D02*
G75*
G03*
X70949055Y-104905605I-89127J89123D01*
G01*
X71349912Y-105306607D02*
G75*
G03*
X71171722Y-105306607I-89095J-89094D01*
G01*
X70904479Y-104861084D02*
G75*
G03*
X70726289Y-104861084I-89095J-89094D01*
G01*
X70444031Y-105143340D02*
G75*
G02*
X70265841Y-105143340I-89095J89094D01*
G01*
%TO.N,/RX2_P*%
X72141081Y-118250301D02*
X119848618Y-118250301D01*
X120387450Y-117711469D02*
X120387450Y-109779009D01*
X72676100Y-108954750D02*
X72516100Y-109114750D01*
X72516100Y-109114750D02*
X71966510Y-109114750D01*
X120387450Y-109779009D02*
X119873190Y-109264749D01*
X119323600Y-109264749D02*
X119163600Y-109104749D01*
X119848618Y-118250301D02*
X120387450Y-117711469D01*
X119873190Y-109264749D02*
X119323600Y-109264749D01*
X71452250Y-117561470D02*
X72141081Y-118250301D01*
X71452250Y-109629010D02*
X71452250Y-117561470D01*
X71966510Y-109114750D02*
X71452250Y-109629010D01*
%TO.N,/TX0_P*%
X72516100Y-104614750D02*
X72212250Y-104614750D01*
X71128800Y-103531300D02*
X71179849Y-103582348D01*
X71128800Y-103531300D02*
X71128800Y-94075900D01*
X72127137Y-103789059D02*
X71853015Y-104063180D01*
X71776100Y-93428600D02*
X120012660Y-93428600D01*
X72093433Y-104303599D02*
X72367554Y-104029477D01*
X120748400Y-103624580D02*
X119608231Y-104764749D01*
X120748400Y-94164340D02*
X120748400Y-103624580D01*
X72367554Y-103837143D02*
X72319470Y-103789059D01*
X71660681Y-104063180D02*
X71612600Y-104015100D01*
X119608231Y-104764749D02*
X119323600Y-104764749D01*
X71646334Y-103308197D02*
X71372182Y-103582348D01*
X72212250Y-104614750D02*
X72093433Y-104495933D01*
X71886751Y-103356281D02*
X71838667Y-103308197D01*
X71128800Y-94075900D02*
X71776100Y-93428600D01*
X71612600Y-103822766D02*
X71886751Y-103548614D01*
X119323600Y-104764749D02*
X119163600Y-104604749D01*
X72676100Y-104454750D02*
X72516100Y-104614750D01*
X120012660Y-93428600D02*
X120748400Y-94164340D01*
X71612600Y-104015100D02*
G75*
G02*
X71612567Y-103822733I96200J96200D01*
G01*
X71886751Y-103548614D02*
G75*
G03*
X71886799Y-103356234I-96151J96214D01*
G01*
X72367554Y-104029477D02*
G75*
G03*
X72367564Y-103837133I-96154J96177D01*
G01*
X71853015Y-104063180D02*
G75*
G02*
X71660681Y-104063180I-96167J96166D01*
G01*
X71372182Y-103582348D02*
G75*
G02*
X71179850Y-103582348I-96166J96165D01*
G01*
X71838667Y-103308197D02*
G75*
G03*
X71646335Y-103308197I-96166J-96165D01*
G01*
X72319470Y-103789059D02*
G75*
G03*
X72127138Y-103789059I-96166J-96165D01*
G01*
X72093433Y-104495933D02*
G75*
G02*
X72093467Y-104303633I96167J96133D01*
G01*
%TO.N,/TX1_N*%
X71356893Y-108800354D02*
X71401440Y-108755806D01*
X71119216Y-108117200D02*
X71163766Y-108072653D01*
X71163766Y-108072653D02*
X71293969Y-107942451D01*
X70126100Y-109110320D02*
X70272811Y-108963609D01*
X71293969Y-107942451D02*
X72516100Y-107942451D01*
X119163600Y-108252450D02*
X119323600Y-108092450D01*
X72516100Y-107942451D02*
X72676100Y-108102451D01*
X120884360Y-119981900D02*
X70636120Y-119981900D01*
X70451001Y-108963609D02*
X70733216Y-109245824D01*
X121713600Y-109260319D02*
X121713600Y-119152660D01*
X71401440Y-108577615D02*
X71119216Y-108295391D01*
X121713600Y-119152660D02*
X120884360Y-119981900D01*
X70636120Y-119981900D02*
X70126100Y-119471880D01*
X70955954Y-109023085D02*
X70673738Y-108740869D01*
X70911407Y-109245824D02*
X70955954Y-109201276D01*
X70126100Y-119471880D02*
X70126100Y-109110320D01*
X120545731Y-108092450D02*
X121713600Y-109260319D01*
X119323600Y-108092450D02*
X120545731Y-108092450D01*
X70896479Y-108518131D02*
X71178702Y-108800354D01*
X70673738Y-108562678D02*
X70718289Y-108518131D01*
X71401440Y-108755806D02*
G75*
G03*
X71401451Y-108577605I-89140J89106D01*
G01*
X70272811Y-108963609D02*
G75*
G02*
X70451001Y-108963609I89095J-89096D01*
G01*
X71178702Y-108800354D02*
G75*
G03*
X71356893Y-108800355I89096J89097D01*
G01*
X70955954Y-109201276D02*
G75*
G03*
X70955935Y-109023105I-89054J89076D01*
G01*
X71119216Y-108295391D02*
G75*
G02*
X71119220Y-108117205I89084J89091D01*
G01*
X70718289Y-108518131D02*
G75*
G02*
X70896479Y-108518131I89095J-89096D01*
G01*
X70673738Y-108740869D02*
G75*
G02*
X70673764Y-108562705I89062J89069D01*
G01*
X70733216Y-109245824D02*
G75*
G03*
X70911407Y-109245825I89096J89097D01*
G01*
%TO.N,/TX0_N*%
X121076100Y-103760320D02*
X121076100Y-94028600D01*
X72076510Y-104942450D02*
X72516100Y-104942450D01*
X119743971Y-105092449D02*
X121076100Y-103760320D01*
X70801100Y-103667040D02*
X72076510Y-104942450D01*
X71640360Y-93100900D02*
X70801100Y-93940160D01*
X72516100Y-104942450D02*
X72676100Y-105102450D01*
X119163600Y-105252449D02*
X119323600Y-105092449D01*
X121076100Y-94028600D02*
X120148400Y-93100900D01*
X120148400Y-93100900D02*
X71640360Y-93100900D01*
X70801100Y-93940160D02*
X70801100Y-103667040D01*
X119323600Y-105092449D02*
X119743971Y-105092449D01*
D16*
%TO.N,/PERST#*%
X119226100Y-103228600D02*
X120028100Y-102426600D01*
X116913600Y-102928600D02*
X118476100Y-102928600D01*
X119526100Y-94103600D02*
X72276100Y-94103600D01*
X120028100Y-102426600D02*
X120028100Y-94605600D01*
X71803794Y-94575906D02*
X71803794Y-102306294D01*
X118776100Y-103228600D02*
X119226100Y-103228600D01*
X118476100Y-102928600D02*
X118776100Y-103228600D01*
X72776100Y-103278600D02*
X74926100Y-103278600D01*
X72276100Y-94103600D02*
X71803794Y-94575906D01*
X71803794Y-102306294D02*
X72776100Y-103278600D01*
X120028100Y-94605600D02*
X119526100Y-94103600D01*
D15*
%TO.N,/TX1_P*%
X119323600Y-107764750D02*
X119163600Y-107604750D01*
X69798400Y-108974580D02*
X69798400Y-119607620D01*
X120681471Y-107764750D02*
X119323600Y-107764750D01*
X72676100Y-107454751D02*
X72516100Y-107614751D01*
X122041300Y-109124579D02*
X120681471Y-107764750D01*
X71158229Y-107614751D02*
X69798400Y-108974580D01*
X72516100Y-107614751D02*
X71158229Y-107614751D01*
X122041300Y-119288400D02*
X122041300Y-109124579D01*
X70500380Y-120309600D02*
X121020100Y-120309600D01*
X121020100Y-120309600D02*
X122041300Y-119288400D01*
X69798400Y-119607620D02*
X70500380Y-120309600D01*
%TO.N,/RX1_N*%
X120071471Y-106592448D02*
X119323600Y-106592448D01*
X119323600Y-106592448D02*
X119163600Y-106752448D01*
X69801100Y-93540160D02*
X71268660Y-92072600D01*
X120901820Y-92072600D02*
X122053800Y-93224580D01*
X72676100Y-106602449D02*
X72516100Y-106442449D01*
X69801100Y-105142040D02*
X69801100Y-93540160D01*
X71101509Y-106442449D02*
X69801100Y-105142040D01*
X122053800Y-104610119D02*
X120071471Y-106592448D01*
X72516100Y-106442449D02*
X71101509Y-106442449D01*
X71268660Y-92072600D02*
X120901820Y-92072600D01*
X122053800Y-93224580D02*
X122053800Y-104610119D01*
%TO.N,/RX2_N*%
X119163600Y-109752449D02*
X119323600Y-109592449D01*
X71905950Y-110582066D02*
X72304455Y-110582066D01*
X120059750Y-109914749D02*
X120059750Y-117575729D01*
X71779950Y-109764750D02*
X72102250Y-109442450D01*
X72516100Y-109442450D02*
X72676100Y-109602450D01*
X71905950Y-111212066D02*
X72304449Y-111212066D01*
X119737450Y-109592449D02*
X120059750Y-109914749D01*
X71779950Y-110078066D02*
X71779950Y-109819103D01*
X72430455Y-110456066D02*
X72430455Y-110393066D01*
X120059750Y-117575729D02*
X119712878Y-117922601D01*
X72102250Y-109442450D02*
X72516100Y-109442450D01*
X71779950Y-109819103D02*
X71779950Y-109764750D01*
X71779950Y-110771066D02*
X71779950Y-110708066D01*
X119712878Y-117922601D02*
X72276821Y-117922601D01*
X71779950Y-110141066D02*
X71779950Y-110078066D01*
X72276821Y-117922601D02*
X71779950Y-117425730D01*
X72304449Y-110897066D02*
X71905950Y-110897066D01*
X119323600Y-109592449D02*
X119737450Y-109592449D01*
X71779950Y-117425730D02*
X71779950Y-111338066D01*
X72430449Y-111086066D02*
X72430449Y-111023066D01*
X72304455Y-110267066D02*
X71905950Y-110267066D01*
X72304449Y-111212066D02*
G75*
G03*
X72430366Y-111086066I-49J125966D01*
G01*
X72304455Y-110582066D02*
G75*
G03*
X72430466Y-110456066I45J125966D01*
G01*
X72430449Y-111023066D02*
G75*
G03*
X72304449Y-110897051I-126049J-34D01*
G01*
X71779950Y-111338066D02*
G75*
G02*
X71905950Y-111212050I126050J-34D01*
G01*
X71905950Y-110267066D02*
G75*
G02*
X71780034Y-110141066I50J125966D01*
G01*
X71905950Y-110897066D02*
G75*
G02*
X71780034Y-110771066I50J125966D01*
G01*
X72430455Y-110393066D02*
G75*
G03*
X72304455Y-110267145I-125955J-34D01*
G01*
X71779950Y-110708066D02*
G75*
G02*
X71905950Y-110582050I126050J-34D01*
G01*
%TD*%
%TA.AperFunction,Conductor*%
%TO.N,GND*%
G36*
X198704775Y-91979462D02*
G01*
X198737611Y-91982696D01*
X198830197Y-91991815D01*
X198844653Y-91994690D01*
X198961701Y-92030196D01*
X198975311Y-92035833D01*
X199083200Y-92093501D01*
X199095439Y-92101679D01*
X199189999Y-92179283D01*
X199200416Y-92189700D01*
X199278018Y-92284258D01*
X199286199Y-92296501D01*
X199343863Y-92404383D01*
X199349503Y-92417999D01*
X199385008Y-92535045D01*
X199387884Y-92549502D01*
X199400238Y-92674923D01*
X199400600Y-92682295D01*
X199400600Y-119699904D01*
X199400238Y-119707276D01*
X199387884Y-119832697D01*
X199385008Y-119847154D01*
X199349503Y-119964200D01*
X199343861Y-119977820D01*
X199286202Y-120085693D01*
X199278014Y-120097947D01*
X199200419Y-120192496D01*
X199189996Y-120202919D01*
X199095447Y-120280514D01*
X199083193Y-120288702D01*
X199009860Y-120327900D01*
X198975320Y-120346362D01*
X198961700Y-120352003D01*
X198844654Y-120387508D01*
X198830197Y-120390384D01*
X198713782Y-120401850D01*
X198704774Y-120402738D01*
X198697404Y-120403100D01*
X123026300Y-120403100D01*
X122977962Y-120385507D01*
X122952242Y-120340958D01*
X122951100Y-120327900D01*
X122951100Y-116824418D01*
X193323700Y-116824418D01*
X193323700Y-117132781D01*
X193363952Y-117438518D01*
X193363952Y-117438519D01*
X193443760Y-117736373D01*
X193561770Y-118021273D01*
X193715955Y-118288329D01*
X193890895Y-118516315D01*
X194784441Y-117622769D01*
X194837067Y-117695202D01*
X194959498Y-117817633D01*
X195031929Y-117870257D01*
X194138383Y-118763803D01*
X194366370Y-118938744D01*
X194633426Y-119092929D01*
X194918326Y-119210939D01*
X195216180Y-119290747D01*
X195521919Y-119331000D01*
X195830281Y-119331000D01*
X196136018Y-119290747D01*
X196136019Y-119290747D01*
X196433873Y-119210939D01*
X196718773Y-119092929D01*
X196985829Y-118938744D01*
X197213815Y-118763803D01*
X196320270Y-117870257D01*
X196392702Y-117817633D01*
X196515133Y-117695202D01*
X196567757Y-117622769D01*
X197461303Y-118516315D01*
X197636244Y-118288329D01*
X197790429Y-118021273D01*
X197908439Y-117736373D01*
X197988247Y-117438519D01*
X197988247Y-117438518D01*
X198028500Y-117132781D01*
X198028500Y-116824418D01*
X197988247Y-116518681D01*
X197988247Y-116518680D01*
X197908439Y-116220826D01*
X197790429Y-115935926D01*
X197636244Y-115668870D01*
X197461303Y-115440883D01*
X196567757Y-116334429D01*
X196515133Y-116261998D01*
X196392702Y-116139567D01*
X196320269Y-116086942D01*
X197213815Y-115193395D01*
X196985829Y-115018455D01*
X196718773Y-114864270D01*
X196433873Y-114746260D01*
X196136019Y-114666452D01*
X195830281Y-114626200D01*
X195521919Y-114626200D01*
X195216181Y-114666452D01*
X195216180Y-114666452D01*
X194918326Y-114746260D01*
X194633426Y-114864270D01*
X194366370Y-115018455D01*
X194138383Y-115193395D01*
X195031929Y-116086942D01*
X194959498Y-116139567D01*
X194837067Y-116261998D01*
X194784442Y-116334429D01*
X193890895Y-115440883D01*
X193715955Y-115668870D01*
X193561770Y-115935926D01*
X193443760Y-116220826D01*
X193363952Y-116518680D01*
X193363952Y-116518681D01*
X193323700Y-116824418D01*
X122951100Y-116824418D01*
X122951100Y-105824418D01*
X193323700Y-105824418D01*
X193323700Y-106132781D01*
X193363952Y-106438518D01*
X193363952Y-106438519D01*
X193443760Y-106736373D01*
X193561770Y-107021273D01*
X193715955Y-107288329D01*
X193890895Y-107516315D01*
X194784441Y-106622769D01*
X194837067Y-106695202D01*
X194959498Y-106817633D01*
X195031929Y-106870257D01*
X194138383Y-107763803D01*
X194366370Y-107938744D01*
X194633426Y-108092929D01*
X194918326Y-108210939D01*
X195216180Y-108290747D01*
X195521919Y-108331000D01*
X195830281Y-108331000D01*
X196136018Y-108290747D01*
X196136019Y-108290747D01*
X196433873Y-108210939D01*
X196718773Y-108092929D01*
X196985829Y-107938744D01*
X197213815Y-107763803D01*
X196320270Y-106870257D01*
X196392702Y-106817633D01*
X196515133Y-106695202D01*
X196567757Y-106622769D01*
X197461303Y-107516315D01*
X197636244Y-107288329D01*
X197790429Y-107021273D01*
X197908439Y-106736373D01*
X197988247Y-106438519D01*
X197988247Y-106438518D01*
X198028500Y-106132781D01*
X198028500Y-105824418D01*
X197988247Y-105518681D01*
X197988247Y-105518680D01*
X197908439Y-105220826D01*
X197790429Y-104935926D01*
X197636244Y-104668870D01*
X197461303Y-104440883D01*
X196567757Y-105334429D01*
X196515133Y-105261998D01*
X196392702Y-105139567D01*
X196320269Y-105086942D01*
X197213815Y-104193395D01*
X196985829Y-104018455D01*
X196718773Y-103864270D01*
X196433873Y-103746260D01*
X196136019Y-103666452D01*
X195830281Y-103626200D01*
X195521919Y-103626200D01*
X195216181Y-103666452D01*
X195216180Y-103666452D01*
X194918326Y-103746260D01*
X194633426Y-103864270D01*
X194366370Y-104018455D01*
X194138383Y-104193395D01*
X195031929Y-105086942D01*
X194959498Y-105139567D01*
X194837067Y-105261998D01*
X194784442Y-105334429D01*
X193890895Y-104440883D01*
X193715955Y-104668870D01*
X193561770Y-104935926D01*
X193443760Y-105220826D01*
X193363952Y-105518680D01*
X193363952Y-105518681D01*
X193323700Y-105824418D01*
X122951100Y-105824418D01*
X122951100Y-94824418D01*
X193323700Y-94824418D01*
X193323700Y-95132781D01*
X193363952Y-95438518D01*
X193363952Y-95438519D01*
X193443760Y-95736373D01*
X193561770Y-96021273D01*
X193715955Y-96288329D01*
X193890895Y-96516315D01*
X194784441Y-95622769D01*
X194837067Y-95695202D01*
X194959498Y-95817633D01*
X195031929Y-95870257D01*
X194138383Y-96763803D01*
X194366370Y-96938744D01*
X194633426Y-97092929D01*
X194918326Y-97210939D01*
X195216180Y-97290747D01*
X195521919Y-97331000D01*
X195830281Y-97331000D01*
X196136018Y-97290747D01*
X196136019Y-97290747D01*
X196433873Y-97210939D01*
X196718773Y-97092929D01*
X196985829Y-96938744D01*
X197213815Y-96763803D01*
X196320270Y-95870257D01*
X196392702Y-95817633D01*
X196515133Y-95695202D01*
X196567757Y-95622769D01*
X197461303Y-96516315D01*
X197636244Y-96288329D01*
X197790429Y-96021273D01*
X197908439Y-95736373D01*
X197988247Y-95438519D01*
X197988247Y-95438518D01*
X198028500Y-95132781D01*
X198028500Y-94824418D01*
X197988247Y-94518681D01*
X197988247Y-94518680D01*
X197908439Y-94220826D01*
X197790429Y-93935926D01*
X197636244Y-93668870D01*
X197461303Y-93440883D01*
X196567757Y-94334429D01*
X196515133Y-94261998D01*
X196392702Y-94139567D01*
X196320269Y-94086942D01*
X197213815Y-93193395D01*
X196985829Y-93018455D01*
X196718773Y-92864270D01*
X196433873Y-92746260D01*
X196136019Y-92666452D01*
X195830281Y-92626200D01*
X195521919Y-92626200D01*
X195216181Y-92666452D01*
X195216180Y-92666452D01*
X194918326Y-92746260D01*
X194633426Y-92864270D01*
X194366370Y-93018455D01*
X194138383Y-93193395D01*
X195031929Y-94086942D01*
X194959498Y-94139567D01*
X194837067Y-94261998D01*
X194784442Y-94334429D01*
X193890895Y-93440883D01*
X193715955Y-93668870D01*
X193561770Y-93935926D01*
X193443760Y-94220826D01*
X193363952Y-94518680D01*
X193363952Y-94518681D01*
X193323700Y-94824418D01*
X122951100Y-94824418D01*
X122951100Y-92054300D01*
X122968693Y-92005962D01*
X123013242Y-91980242D01*
X123026300Y-91979100D01*
X198653505Y-91979100D01*
X198697404Y-91979100D01*
X198704775Y-91979462D01*
G37*
%TD.AperFunction*%
%TA.AperFunction,Conductor*%
G36*
X107348737Y-94996193D02*
G01*
X107374457Y-95040742D01*
X107375599Y-95053800D01*
X107375600Y-116953400D01*
X107358007Y-117001738D01*
X107313458Y-117027458D01*
X107300400Y-117028600D01*
X85051800Y-117028600D01*
X85003462Y-117011007D01*
X84977742Y-116966458D01*
X84976600Y-116953400D01*
X84976600Y-113549418D01*
X102048700Y-113549418D01*
X102048700Y-113857781D01*
X102088952Y-114163518D01*
X102088952Y-114163519D01*
X102168760Y-114461373D01*
X102286770Y-114746273D01*
X102440955Y-115013329D01*
X102615895Y-115241315D01*
X103509441Y-114347769D01*
X103562067Y-114420202D01*
X103684498Y-114542633D01*
X103756929Y-114595257D01*
X102863383Y-115488803D01*
X103091370Y-115663744D01*
X103358426Y-115817929D01*
X103643326Y-115935939D01*
X103941180Y-116015747D01*
X104246919Y-116056000D01*
X104555281Y-116056000D01*
X104861018Y-116015747D01*
X104861019Y-116015747D01*
X105158873Y-115935939D01*
X105443773Y-115817929D01*
X105710829Y-115663744D01*
X105938815Y-115488803D01*
X105045270Y-114595257D01*
X105117702Y-114542633D01*
X105240133Y-114420202D01*
X105292757Y-114347769D01*
X106186303Y-115241315D01*
X106361244Y-115013329D01*
X106515429Y-114746273D01*
X106633439Y-114461373D01*
X106713247Y-114163519D01*
X106713247Y-114163518D01*
X106753500Y-113857781D01*
X106753500Y-113549418D01*
X106713247Y-113243681D01*
X106713247Y-113243680D01*
X106633439Y-112945826D01*
X106515429Y-112660926D01*
X106361244Y-112393870D01*
X106186303Y-112165883D01*
X105292757Y-113059429D01*
X105240133Y-112986998D01*
X105117702Y-112864567D01*
X105045269Y-112811942D01*
X105938815Y-111918395D01*
X105710829Y-111743455D01*
X105443773Y-111589270D01*
X105158873Y-111471260D01*
X104861019Y-111391452D01*
X104555281Y-111351200D01*
X104246919Y-111351200D01*
X103941181Y-111391452D01*
X103941180Y-111391452D01*
X103643326Y-111471260D01*
X103358426Y-111589270D01*
X103091370Y-111743455D01*
X102863383Y-111918395D01*
X103756929Y-112811942D01*
X103684498Y-112864567D01*
X103562067Y-112986998D01*
X103509442Y-113059429D01*
X102615895Y-112165883D01*
X102440955Y-112393870D01*
X102286770Y-112660926D01*
X102168760Y-112945826D01*
X102088952Y-113243680D01*
X102088952Y-113243681D01*
X102048700Y-113549418D01*
X84976600Y-113549418D01*
X84976600Y-111947477D01*
X84976601Y-105978600D01*
X84976601Y-97549418D01*
X102048700Y-97549418D01*
X102048700Y-97857781D01*
X102088952Y-98163518D01*
X102088952Y-98163519D01*
X102168760Y-98461373D01*
X102286770Y-98746273D01*
X102440955Y-99013329D01*
X102615895Y-99241315D01*
X103509441Y-98347769D01*
X103562067Y-98420202D01*
X103684498Y-98542633D01*
X103756929Y-98595257D01*
X102863383Y-99488803D01*
X103091370Y-99663744D01*
X103358426Y-99817929D01*
X103643326Y-99935939D01*
X103941180Y-100015747D01*
X104246919Y-100056000D01*
X104555281Y-100056000D01*
X104861018Y-100015747D01*
X104861019Y-100015747D01*
X105158873Y-99935939D01*
X105443773Y-99817929D01*
X105710829Y-99663744D01*
X105938815Y-99488803D01*
X105045270Y-98595257D01*
X105117702Y-98542633D01*
X105240133Y-98420202D01*
X105292757Y-98347769D01*
X106186303Y-99241315D01*
X106361244Y-99013329D01*
X106515429Y-98746273D01*
X106633439Y-98461373D01*
X106713247Y-98163519D01*
X106713247Y-98163518D01*
X106753500Y-97857781D01*
X106753500Y-97549418D01*
X106713247Y-97243681D01*
X106713247Y-97243680D01*
X106633439Y-96945826D01*
X106515429Y-96660926D01*
X106361244Y-96393870D01*
X106186303Y-96165883D01*
X105292757Y-97059429D01*
X105240133Y-96986998D01*
X105117702Y-96864567D01*
X105045269Y-96811942D01*
X105938815Y-95918395D01*
X105710829Y-95743455D01*
X105443773Y-95589270D01*
X105158873Y-95471260D01*
X104861019Y-95391452D01*
X104555281Y-95351200D01*
X104246919Y-95351200D01*
X103941181Y-95391452D01*
X103941180Y-95391452D01*
X103643326Y-95471260D01*
X103358426Y-95589270D01*
X103091370Y-95743455D01*
X102863383Y-95918395D01*
X103756929Y-96811942D01*
X103684498Y-96864567D01*
X103562067Y-96986998D01*
X103509442Y-97059429D01*
X102615895Y-96165883D01*
X102440955Y-96393870D01*
X102286770Y-96660926D01*
X102168760Y-96945826D01*
X102088952Y-97243680D01*
X102088952Y-97243681D01*
X102048700Y-97549418D01*
X84976601Y-97549418D01*
X84976601Y-95053800D01*
X84994194Y-95005462D01*
X85038743Y-94979742D01*
X85051801Y-94978600D01*
X107300399Y-94978600D01*
X107348737Y-94996193D01*
G37*
%TD.AperFunction*%
%TD*%
M02*
