%TF.GenerationSoftware,KiCad,Pcbnew,9.0.0*%
%TF.CreationDate,2025-04-28T22:47:42-04:00*%
%TF.ProjectId,Interposer_Board_Test_Fixture,496e7465-7270-46f7-9365-725f426f6172,rev?*%
%TF.SameCoordinates,Original*%
%TF.FileFunction,Copper,L1,Top*%
%TF.FilePolarity,Positive*%
%FSLAX46Y46*%
G04 Gerber Fmt 4.6, Leading zero omitted, Abs format (unit mm)*
G04 Created by KiCad (PCBNEW 9.0.0) date 2025-04-28 22:47:42*
%MOMM*%
%LPD*%
G01*
G04 APERTURE LIST*
%TA.AperFunction,SMDPad,CuDef*%
%ADD10R,2.500000X0.350000*%
%TD*%
%TA.AperFunction,ComponentPad*%
%ADD11C,0.700000*%
%TD*%
%TA.AperFunction,ComponentPad*%
%ADD12C,4.400000*%
%TD*%
%TA.AperFunction,ViaPad*%
%ADD13C,0.508000*%
%TD*%
%TA.AperFunction,Conductor*%
%ADD14C,0.350000*%
%TD*%
%TA.AperFunction,Conductor*%
%ADD15C,0.188000*%
%TD*%
G04 APERTURE END LIST*
D10*
%TO.P,J1,1,1*%
%TO.N,GND*%
X116913600Y-115178600D03*
%TO.P,J1,3,3*%
X116913600Y-114678600D03*
%TO.P,J1,5,5*%
%TO.N,/TX3_N*%
X116913600Y-114178601D03*
%TO.P,J1,7,7*%
%TO.N,/TX3_P*%
X116913600Y-113678600D03*
%TO.P,J1,9,9*%
%TO.N,GND*%
X116913600Y-113178600D03*
%TO.P,J1,11,11*%
%TO.N,/RX3_N*%
X116913600Y-112678599D03*
%TO.P,J1,13,13*%
%TO.N,/RX3_P*%
X116913600Y-112178600D03*
%TO.P,J1,15,15*%
%TO.N,GND*%
X116913600Y-111678601D03*
%TO.P,J1,17,17*%
%TO.N,/TX2_N*%
X116913600Y-111178600D03*
%TO.P,J1,19,19*%
%TO.N,/TX2_P*%
X116913600Y-110678600D03*
%TO.P,J1,21,21*%
%TO.N,GND*%
X116913600Y-110178599D03*
%TO.P,J1,23,23*%
%TO.N,/RX2_N*%
X116913600Y-109678600D03*
%TO.P,J1,25,25*%
%TO.N,/RX2_P*%
X116913600Y-109178601D03*
%TO.P,J1,27,27*%
%TO.N,GND*%
X116913600Y-108678600D03*
%TO.P,J1,29,29*%
%TO.N,/TX1_N*%
X116913600Y-108178600D03*
%TO.P,J1,31,31*%
%TO.N,/TX1_P*%
X116913600Y-107678599D03*
%TO.P,J1,33,33*%
%TO.N,GND*%
X116913600Y-107178600D03*
%TO.P,J1,35,35*%
%TO.N,/RX1_N*%
X116913600Y-106678600D03*
%TO.P,J1,37,37*%
%TO.N,/RX1_P*%
X116913600Y-106178600D03*
%TO.P,J1,39,39*%
%TO.N,GND*%
X116913600Y-105678600D03*
%TO.P,J1,41,41*%
%TO.N,/TX0_N*%
X116913600Y-105178601D03*
%TO.P,J1,43,43*%
%TO.N,/TX0_P*%
X116913600Y-104678600D03*
%TO.P,J1,45,45*%
%TO.N,GND*%
X116913600Y-104178600D03*
%TO.P,J1,47,47*%
%TO.N,/RX0_N*%
X116913600Y-103678600D03*
%TO.P,J1,49,49*%
%TO.N,/RX0_P*%
X116913600Y-103178600D03*
%TO.P,J1,51,51*%
%TO.N,GND*%
X116913600Y-102678601D03*
%TO.P,J1,53,53*%
%TO.N,/REFCLK_N*%
X116913600Y-102178600D03*
%TO.P,J1,55,55*%
%TO.N,/REFCLK_P*%
X116913600Y-101678600D03*
%TO.P,J1,57,57*%
%TO.N,GND*%
X116913600Y-101178599D03*
%TO.P,J1,67,67*%
%TO.N,unconnected-(J1-Pad67)*%
X116913600Y-98678599D03*
%TO.P,J1,69,69*%
%TO.N,unconnected-(J1-Pad69)*%
X116913600Y-98178600D03*
%TO.P,J1,71,71*%
%TO.N,GND*%
X116913600Y-97678600D03*
%TO.P,J1,73,73*%
X116913600Y-97178600D03*
%TO.P,J1,75,75*%
X116913600Y-96678600D03*
%TD*%
D11*
%TO.P,H3,1,1*%
%TO.N,GND*%
X194026100Y-94978600D03*
X194509374Y-93811874D03*
X194509374Y-96145326D03*
X195676100Y-93328600D03*
D12*
X195676100Y-94978600D03*
D11*
X195676100Y-96628600D03*
X196842826Y-93811874D03*
X196842826Y-96145326D03*
X197326100Y-94978600D03*
%TD*%
%TO.P,H2,1,1*%
%TO.N,GND*%
X102751100Y-97703600D03*
X103234374Y-96536874D03*
X103234374Y-98870326D03*
X104401100Y-96053600D03*
D12*
X104401100Y-97703600D03*
D11*
X104401100Y-99353600D03*
X105567826Y-96536874D03*
X105567826Y-98870326D03*
X106051100Y-97703600D03*
%TD*%
%TO.P,H4,1,1*%
%TO.N,GND*%
X194026100Y-116978600D03*
X194509374Y-115811874D03*
X194509374Y-118145326D03*
X195676100Y-115328600D03*
D12*
X195676100Y-116978600D03*
D11*
X195676100Y-118628600D03*
X196842826Y-115811874D03*
X196842826Y-118145326D03*
X197326100Y-116978600D03*
%TD*%
%TO.P,H1,1,1*%
%TO.N,GND*%
X194026100Y-105978600D03*
X194509374Y-104811874D03*
X194509374Y-107145326D03*
X195676100Y-104328600D03*
D12*
X195676100Y-105978600D03*
D11*
X195676100Y-107628600D03*
X196842826Y-104811874D03*
X196842826Y-107145326D03*
X197326100Y-105978600D03*
%TD*%
%TO.P,H5,1,1*%
%TO.N,GND*%
X102751100Y-113703600D03*
X103234374Y-112536874D03*
X103234374Y-114870326D03*
X104401100Y-112053600D03*
D12*
X104401100Y-113703600D03*
D11*
X104401100Y-115353600D03*
X105567826Y-112536874D03*
X105567826Y-114870326D03*
X106051100Y-113703600D03*
%TD*%
D10*
%TO.P,J2,2,2*%
%TO.N,GND*%
X74926100Y-115028601D03*
%TO.P,J2,4,4*%
X74926100Y-114528600D03*
%TO.P,J2,6,6*%
%TO.N,/TX3_N*%
X74926100Y-114028600D03*
%TO.P,J2,8,8*%
%TO.N,/TX3_P*%
X74926100Y-113528599D03*
%TO.P,J2,10,10*%
%TO.N,GND*%
X74926100Y-113028600D03*
%TO.P,J2,12,12*%
%TO.N,/RX3_N*%
X74926100Y-112528600D03*
%TO.P,J2,14,14*%
%TO.N,/RX3_P*%
X74926100Y-112028600D03*
%TO.P,J2,16,16*%
%TO.N,GND*%
X74926100Y-111528600D03*
%TO.P,J2,18,18*%
%TO.N,/TX2_N*%
X74926101Y-111028600D03*
%TO.P,J2,20,20*%
%TO.N,/TX2_P*%
X74926100Y-110528600D03*
%TO.P,J2,22,22*%
%TO.N,GND*%
X74926100Y-110028600D03*
%TO.P,J2,24,24*%
%TO.N,/RX2_N*%
X74926100Y-109528600D03*
%TO.P,J2,26,26*%
%TO.N,/RX2_P*%
X74926100Y-109028600D03*
%TO.P,J2,28,28*%
%TO.N,GND*%
X74926100Y-108528601D03*
%TO.P,J2,30,30*%
%TO.N,/TX1_N*%
X74926100Y-108028600D03*
%TO.P,J2,32,32*%
%TO.N,/TX1_P*%
X74926100Y-107528600D03*
%TO.P,J2,34,34*%
%TO.N,GND*%
X74926100Y-107028599D03*
%TO.P,J2,36,36*%
%TO.N,/RX1_N*%
X74926100Y-106528600D03*
%TO.P,J2,38,38*%
%TO.N,/RX1_P*%
X74926100Y-106028601D03*
%TO.P,J2,40,40*%
%TO.N,GND*%
X74926100Y-105528600D03*
%TO.P,J2,42,42*%
%TO.N,/TX0_N*%
X74926100Y-105028600D03*
%TO.P,J2,44,44*%
%TO.N,/TX0_P*%
X74926100Y-104528599D03*
%TO.P,J2,46,46*%
%TO.N,GND*%
X74926100Y-104028600D03*
%TO.P,J2,48,48*%
%TO.N,/RX0_N*%
X74926100Y-103528601D03*
%TO.P,J2,50,50*%
%TO.N,/RX0_P*%
X74926100Y-103028600D03*
%TO.P,J2,52,52*%
%TO.N,GND*%
X74926100Y-102528600D03*
%TO.P,J2,54,54*%
%TO.N,/REFCLK_N*%
X74926100Y-102028599D03*
%TO.P,J2,56,56*%
%TO.N,/REFCLK_P*%
X74926100Y-101528600D03*
%TO.P,J2,58,58*%
%TO.N,GND*%
X74926100Y-101028600D03*
%TO.P,J2,68,68*%
%TO.N,unconnected-(J2-Pad68)*%
X74926100Y-98528600D03*
%TO.P,J2,70,70*%
%TO.N,GND*%
X74926100Y-98028600D03*
%TO.P,J2,72,72*%
X74926100Y-97528600D03*
%TO.P,J2,74,74*%
X74926100Y-97028601D03*
%TD*%
D13*
%TO.N,GND*%
X139901100Y-109203600D03*
X102401100Y-111703600D03*
X118663600Y-97678600D03*
X137901100Y-103203600D03*
X88401100Y-97703600D03*
X197901100Y-111203600D03*
X100401100Y-113703600D03*
X191901100Y-117203600D03*
X73176100Y-108528601D03*
X135901100Y-117203600D03*
X141901100Y-111203600D03*
X98401100Y-95703600D03*
X193901100Y-99203600D03*
X179901100Y-93203600D03*
X133901100Y-95203600D03*
X167901100Y-97203600D03*
X106401100Y-111703600D03*
X139901100Y-101203600D03*
X104401100Y-105703600D03*
X159901100Y-101203600D03*
X133901100Y-103203600D03*
X169901100Y-119203600D03*
X123901100Y-93203600D03*
X165901100Y-119203600D03*
X189901100Y-111203600D03*
X135901100Y-113203600D03*
X133901100Y-107203600D03*
X197901100Y-103203600D03*
X100401100Y-101703600D03*
X92401100Y-109703600D03*
X135901100Y-97203600D03*
X133901100Y-119203600D03*
X157901100Y-119203600D03*
X155901100Y-105203600D03*
X157901100Y-95203600D03*
X141901100Y-107203600D03*
X189901100Y-95203600D03*
X183901100Y-97203600D03*
X151901100Y-97203600D03*
X185901100Y-107203600D03*
X94401100Y-115703600D03*
X123901100Y-109203600D03*
X118663600Y-111678599D03*
X169901100Y-95203600D03*
X187901100Y-109203600D03*
X157901100Y-99203600D03*
X175901100Y-105203600D03*
X123901100Y-105203600D03*
X102401100Y-107703600D03*
X137901100Y-115203600D03*
X153901100Y-111203600D03*
X157901100Y-103203600D03*
X86401100Y-103703600D03*
X143901100Y-109203600D03*
X73176100Y-101028600D03*
X169901100Y-103203600D03*
X167901100Y-109203600D03*
X159901100Y-97203600D03*
X118663600Y-96678601D03*
X96401100Y-105703600D03*
X129901100Y-111203600D03*
X173901100Y-115203600D03*
X177901100Y-111203600D03*
X127901100Y-97203600D03*
X127901100Y-93203600D03*
X102401100Y-95703600D03*
X129901100Y-115203600D03*
X175901100Y-97203600D03*
X131901100Y-101203600D03*
X163901100Y-101203600D03*
X131901100Y-109203600D03*
X131901100Y-113203600D03*
X151901100Y-113203600D03*
X118663600Y-107178598D03*
X143901100Y-101203600D03*
X159901100Y-105203600D03*
X137901100Y-119203600D03*
X191901100Y-105203600D03*
X187901100Y-113203600D03*
X195901100Y-113203600D03*
X171901100Y-109203600D03*
X129901100Y-99203600D03*
X129901100Y-119203600D03*
X145901100Y-111203600D03*
X141901100Y-115203600D03*
X125901100Y-103203600D03*
X139901100Y-97203600D03*
X106401100Y-115703600D03*
X106401100Y-103703600D03*
X102401100Y-115703600D03*
X73176100Y-115353600D03*
X118663600Y-110178599D03*
X163901100Y-113203600D03*
X183901100Y-105203600D03*
X73176100Y-102528600D03*
X94401100Y-111703600D03*
X96401100Y-109703600D03*
X96401100Y-101703600D03*
X157901100Y-115203600D03*
X169901100Y-107203600D03*
X163901100Y-109203600D03*
X175901100Y-113203600D03*
X147901100Y-101203600D03*
X123901100Y-97203600D03*
X145901100Y-103203600D03*
X94401100Y-99703600D03*
X151901100Y-105203600D03*
X73176100Y-107028599D03*
X127901100Y-105203600D03*
X185901100Y-95203600D03*
X183901100Y-101203600D03*
X185901100Y-103203600D03*
X100401100Y-97703600D03*
X92401100Y-105703600D03*
X90401100Y-111703600D03*
X169901100Y-111203600D03*
X149901100Y-107203600D03*
X96401100Y-113703600D03*
X155901100Y-101203600D03*
X118663600Y-108678600D03*
X86401100Y-99703600D03*
X189901100Y-119203600D03*
X157901100Y-111203600D03*
X106401100Y-107703600D03*
X143901100Y-93203600D03*
X143901100Y-105203600D03*
X139901100Y-113203600D03*
X86401100Y-115703600D03*
X131901100Y-117203600D03*
X179901100Y-117203600D03*
X88401100Y-109703600D03*
X147901100Y-113203600D03*
X191901100Y-101203600D03*
X181901100Y-99203600D03*
X118663600Y-114678599D03*
X165901100Y-111203600D03*
X173901100Y-103203600D03*
X104401100Y-109703600D03*
X133901100Y-115203600D03*
X98401100Y-107703600D03*
X119001100Y-102678600D03*
X125901100Y-119203600D03*
X141901100Y-95203600D03*
X183901100Y-109203600D03*
X161901100Y-119203600D03*
X141901100Y-99203600D03*
X129901100Y-103203600D03*
X102401100Y-99703600D03*
X155901100Y-93203600D03*
X135901100Y-93203600D03*
X73176100Y-97028601D03*
X173901100Y-107203600D03*
X127901100Y-101203600D03*
X118663600Y-101178599D03*
X135901100Y-101203600D03*
X159901100Y-113203600D03*
X98401100Y-103703600D03*
X100401100Y-109703600D03*
X177901100Y-103203600D03*
X183901100Y-113203600D03*
X179901100Y-97203600D03*
X183901100Y-117203600D03*
X173901100Y-119203600D03*
X129901100Y-95203600D03*
X149901100Y-119203600D03*
X169901100Y-99203600D03*
X118663600Y-104178599D03*
X88401100Y-101703600D03*
X149901100Y-115203600D03*
X90401100Y-115703600D03*
X189901100Y-103203600D03*
X73176100Y-98028600D03*
X177901100Y-107203600D03*
X141901100Y-119203600D03*
X197901100Y-99203600D03*
X175901100Y-117203600D03*
X73176100Y-110028600D03*
X161901100Y-107203600D03*
X167901100Y-101203600D03*
X135901100Y-105203600D03*
X185901100Y-99203600D03*
X191901100Y-93203600D03*
X125901100Y-111203600D03*
X73176100Y-114528600D03*
X169901100Y-115203600D03*
X163901100Y-105203600D03*
X179901100Y-113203600D03*
X189901100Y-115203600D03*
X161901100Y-115203600D03*
X155901100Y-117203600D03*
X131901100Y-93203600D03*
X179901100Y-109203600D03*
X102401100Y-103703600D03*
X187901100Y-117203600D03*
X185901100Y-115203600D03*
X133901100Y-99203600D03*
X165901100Y-103203600D03*
X153901100Y-115203600D03*
X73176100Y-111528600D03*
X181901100Y-103203600D03*
X187901100Y-97203600D03*
X153901100Y-103203600D03*
X179901100Y-105203600D03*
X151901100Y-117203600D03*
X171901100Y-113203600D03*
X165901100Y-95203600D03*
X163901100Y-117203600D03*
X171901100Y-93203600D03*
X195901100Y-101203600D03*
X127901100Y-117203600D03*
X137901100Y-99203600D03*
X151901100Y-109203600D03*
X123901100Y-113203600D03*
X191901100Y-113203600D03*
X86401100Y-107703600D03*
X145901100Y-95203600D03*
X92401100Y-101703600D03*
X167901100Y-105203600D03*
X177901100Y-119203600D03*
X137901100Y-111203600D03*
X147901100Y-93203600D03*
X125901100Y-107203600D03*
X143901100Y-117203600D03*
X161901100Y-95203600D03*
X137901100Y-95203600D03*
X92401100Y-113703600D03*
X181901100Y-107203600D03*
X135901100Y-109203600D03*
X94401100Y-107703600D03*
X163901100Y-97203600D03*
X149901100Y-95203600D03*
X191901100Y-109203600D03*
X145901100Y-99203600D03*
X173901100Y-99203600D03*
X175901100Y-101203600D03*
X177901100Y-99203600D03*
X131901100Y-105203600D03*
X86401100Y-95703600D03*
X155901100Y-97203600D03*
X147901100Y-97203600D03*
X179901100Y-101203600D03*
X139901100Y-117203600D03*
X167901100Y-117203600D03*
X104401100Y-101703600D03*
X175901100Y-93203600D03*
X143901100Y-113203600D03*
X187901100Y-93203600D03*
X139901100Y-93203600D03*
X118663600Y-115503599D03*
X159901100Y-109203600D03*
X151901100Y-93203600D03*
X125901100Y-95203600D03*
X171901100Y-105203600D03*
X167901100Y-113203600D03*
X151901100Y-101203600D03*
X161901100Y-103203600D03*
X153901100Y-119203600D03*
X137901100Y-107203600D03*
X155901100Y-113203600D03*
X153901100Y-107203600D03*
X90401100Y-99703600D03*
X73176100Y-105528600D03*
X177901100Y-95203600D03*
X175901100Y-109203600D03*
X139901100Y-105203600D03*
X73176100Y-113028600D03*
X163901100Y-93203600D03*
X145901100Y-115203600D03*
X161901100Y-99203600D03*
X189901100Y-99203600D03*
X98401100Y-115703600D03*
X143901100Y-97203600D03*
X187901100Y-105203600D03*
X181901100Y-115203600D03*
X191901100Y-97203600D03*
X131901100Y-97203600D03*
X96401100Y-97703600D03*
X149901100Y-103203600D03*
X185901100Y-119203600D03*
X145901100Y-119203600D03*
X147901100Y-109203600D03*
X189901100Y-107203600D03*
X165901100Y-115203600D03*
X147901100Y-117203600D03*
X185901100Y-111203600D03*
X98401100Y-111703600D03*
X141901100Y-103203600D03*
X147901100Y-105203600D03*
X149901100Y-111203600D03*
X127901100Y-113203600D03*
X195901100Y-109203600D03*
X98401100Y-99703600D03*
X187901100Y-101203600D03*
X167901100Y-93203600D03*
X129901100Y-107203600D03*
X125901100Y-115203600D03*
X125901100Y-99203600D03*
X155901100Y-109203600D03*
X73176100Y-104028600D03*
X157901100Y-107203600D03*
X86401100Y-111703600D03*
X88401100Y-113703600D03*
X94401100Y-103703600D03*
X90401100Y-107703600D03*
X173901100Y-111203600D03*
X118663600Y-113178599D03*
X92401100Y-97703600D03*
X153901100Y-99203600D03*
X159901100Y-117203600D03*
X181901100Y-111203600D03*
X161901100Y-111203600D03*
X193901100Y-111203600D03*
X88401100Y-105703600D03*
X165901100Y-107203600D03*
X100401100Y-105703600D03*
X159901100Y-93203600D03*
X153901100Y-95203600D03*
X183901100Y-93203600D03*
X145901100Y-107203600D03*
X165901100Y-99203600D03*
X94401100Y-95703600D03*
X127901100Y-109203600D03*
X173901100Y-95203600D03*
X118663600Y-105678599D03*
X149901100Y-99203600D03*
X90401100Y-103703600D03*
X181901100Y-119203600D03*
X171901100Y-117203600D03*
X171901100Y-97203600D03*
X106401100Y-95703600D03*
X123901100Y-101203600D03*
X133901100Y-111203600D03*
X90401100Y-95703600D03*
X123901100Y-117203600D03*
X193901100Y-103203600D03*
X171901100Y-101203600D03*
X181901100Y-95203600D03*
X106401100Y-99703600D03*
X177901100Y-115203600D03*
%TO.N,/RX1_P*%
X119163600Y-106104748D03*
X72676100Y-105954749D03*
%TO.N,/RX2_P*%
X72676100Y-108954750D03*
X119163600Y-109104749D03*
%TO.N,/TX0_P*%
X72676100Y-104454750D03*
X119163600Y-104604749D03*
%TO.N,/TX1_N*%
X119163600Y-108252450D03*
X72676100Y-108102451D03*
%TO.N,/TX0_N*%
X119163600Y-105252449D03*
X72676100Y-105102450D03*
%TO.N,/TX1_P*%
X72676100Y-107454751D03*
X119163600Y-107604750D03*
%TO.N,/RX1_N*%
X72676100Y-106602449D03*
X119163600Y-106752448D03*
%TO.N,/RX2_N*%
X72676100Y-109602450D03*
X119163600Y-109752449D03*
%TD*%
D14*
%TO.N,GND*%
X119001099Y-102678599D02*
X116913600Y-102678599D01*
X73176100Y-110028600D02*
X74926100Y-110028600D01*
X73176100Y-105528600D02*
X74926100Y-105528600D01*
X73176100Y-107028599D02*
X74926100Y-107028599D01*
X118663600Y-108678600D02*
X116913600Y-108678600D01*
X119001100Y-102678600D02*
X119001099Y-102678599D01*
X118663600Y-97178600D02*
X116913600Y-97178600D01*
X118663600Y-111678599D02*
X116913600Y-111678599D01*
X73176100Y-104028600D02*
X74926100Y-104028600D01*
X118663600Y-107178598D02*
X116913600Y-107178598D01*
X73176100Y-98028600D02*
X73176100Y-97528600D01*
X73176100Y-111528600D02*
X74926100Y-111528600D01*
X73176100Y-113028600D02*
X74926100Y-113028600D01*
X118663600Y-97678600D02*
X116913600Y-97678600D01*
X118663600Y-101178599D02*
X116913600Y-101178599D01*
X118663600Y-110178599D02*
X116913600Y-110178599D01*
X118663600Y-115503599D02*
X118338601Y-115178600D01*
X73176100Y-108528601D02*
X74926100Y-108528601D01*
X73176100Y-101028600D02*
X74926100Y-101028600D01*
X73176100Y-97028601D02*
X74926100Y-97028601D01*
X73501099Y-115028601D02*
X74926100Y-115028601D01*
X118338601Y-115178600D02*
X116913600Y-115178600D01*
X118663600Y-105678599D02*
X116913600Y-105678599D01*
X118663600Y-96678601D02*
X116913600Y-96678601D01*
X73176100Y-102528600D02*
X74926100Y-102528600D01*
X118663600Y-97178600D02*
X118663600Y-96678601D01*
X118663600Y-113178599D02*
X116913600Y-113178599D01*
X73176100Y-115353600D02*
X73501099Y-115028601D01*
X73176100Y-97528600D02*
X73176100Y-97028601D01*
X118663600Y-97678600D02*
X118663600Y-97178600D01*
X73176100Y-97528600D02*
X74926100Y-97528600D01*
X118663600Y-104178599D02*
X116913600Y-104178599D01*
X73176100Y-98028600D02*
X74926100Y-98028600D01*
X118663600Y-114678599D02*
X116913600Y-114678599D01*
X73176100Y-114528600D02*
X74926100Y-114528600D01*
D15*
%TO.N,/RX1_P*%
X72836100Y-106114749D02*
X72676100Y-105954749D01*
X116913600Y-106178598D02*
X116999750Y-106264748D01*
X74926100Y-106028599D02*
X74839950Y-106114749D01*
X116999750Y-106264748D02*
X119003600Y-106264748D01*
X74839950Y-106114749D02*
X72836100Y-106114749D01*
X119003600Y-106264748D02*
X119163600Y-106104748D01*
%TO.N,/RX2_P*%
X116999750Y-109264749D02*
X119003600Y-109264749D01*
X72836100Y-109114750D02*
X72676100Y-108954750D01*
X116913600Y-109178599D02*
X116999750Y-109264749D01*
X74839950Y-109114750D02*
X72836100Y-109114750D01*
X74926100Y-109028600D02*
X74839950Y-109114750D01*
X119003600Y-109264749D02*
X119163600Y-109104749D01*
%TO.N,/RX0_N*%
X120180530Y-92089750D02*
X71733230Y-92089750D01*
X71733230Y-92089750D02*
X70162250Y-93660730D01*
X121666300Y-93575520D02*
X120180530Y-92089750D01*
X70162250Y-101864750D02*
X71739950Y-103442450D01*
X71739950Y-103442450D02*
X73764949Y-103442450D01*
X118074751Y-103592449D02*
X119349750Y-103592449D01*
X117988600Y-103678600D02*
X118074751Y-103592449D01*
X119349750Y-103592449D02*
X121666300Y-101275899D01*
X73764949Y-103442450D02*
X73851100Y-103528601D01*
X121666300Y-101275899D02*
X121666300Y-93575520D01*
X70162250Y-93660730D02*
X70162250Y-101864750D01*
%TO.N,/REFCLK_P*%
X71326100Y-100140160D02*
X71326100Y-94278600D01*
X72162250Y-93442450D02*
X119527451Y-93442450D01*
X120513600Y-94428599D02*
X120513600Y-100290159D01*
X119039010Y-101764749D02*
X118074750Y-101764749D01*
X71326100Y-100140160D02*
X71400567Y-100214626D01*
X71326100Y-94278600D02*
X72162250Y-93442450D01*
X71965129Y-99865026D02*
X71615528Y-100214626D01*
X120513600Y-100290159D02*
X119039010Y-101764749D01*
X119527451Y-93442450D02*
X120513600Y-94428599D01*
X72800690Y-101614750D02*
X72421632Y-101235692D01*
X72233830Y-99918767D02*
X72180089Y-99865026D01*
X71937970Y-100752029D02*
X71884230Y-100698290D01*
X72421632Y-101020731D02*
X72594446Y-100847916D01*
X72325745Y-100579215D02*
X72152930Y-100752029D01*
X73764950Y-101614750D02*
X72800690Y-101614750D01*
X72594446Y-100632956D02*
X72540705Y-100579215D01*
X71884230Y-100483329D02*
X72233830Y-100133728D01*
X73851100Y-101528600D02*
X73764950Y-101614750D01*
X118074750Y-101764749D02*
X117988600Y-101678599D01*
X72594446Y-100847916D02*
G75*
G03*
X72594482Y-100632920I-107446J107516D01*
G01*
X72421632Y-101235692D02*
G75*
G02*
X72421620Y-101020719I107468J107492D01*
G01*
X71884230Y-100698290D02*
G75*
G02*
X71884220Y-100483319I107470J107490D01*
G01*
X72180089Y-99865026D02*
G75*
G03*
X71965129Y-99865026I-107480J-107479D01*
G01*
X72233830Y-100133728D02*
G75*
G03*
X72233878Y-99918720I-107530J107528D01*
G01*
X72152930Y-100752029D02*
G75*
G02*
X71937970Y-100752029I-107480J107479D01*
G01*
X71615528Y-100214626D02*
G75*
G02*
X71400568Y-100214626I-107480J107480D01*
G01*
X72540705Y-100579215D02*
G75*
G03*
X72325745Y-100579215I-107480J-107479D01*
G01*
%TO.N,/TX2_N*%
X116999750Y-111092449D02*
X116913599Y-111178599D01*
X70126100Y-119471880D02*
X70632820Y-119978600D01*
X121713600Y-119158440D02*
X121713600Y-112835319D01*
X72483351Y-111593589D02*
X72420351Y-111593589D01*
X70126100Y-111178600D02*
X70126100Y-119471880D01*
X74926101Y-111028600D02*
X74839950Y-110942450D01*
X120893440Y-119978600D02*
X121713600Y-119158440D01*
X71853351Y-111593589D02*
X71790351Y-111593589D01*
X70632820Y-119978600D02*
X120893440Y-119978600D01*
X72294351Y-111467589D02*
X72294351Y-111068450D01*
X70362250Y-110942450D02*
X71538351Y-110942450D01*
X119970730Y-111092449D02*
X116999750Y-111092449D01*
X72168351Y-110942450D02*
X72105351Y-110942450D01*
X72609351Y-111068450D02*
X72609351Y-111467589D01*
X70126100Y-111178600D02*
X70362250Y-110942450D01*
X74839950Y-110942450D02*
X72735351Y-110942450D01*
X121713600Y-112835319D02*
X119970730Y-111092449D01*
X71979351Y-111068450D02*
X71979351Y-111467589D01*
X71664351Y-111467589D02*
X71664351Y-111068450D01*
X72420351Y-111593589D02*
G75*
G02*
X72294411Y-111467589I49J125989D01*
G01*
X72609351Y-111467589D02*
G75*
G02*
X72483351Y-111593651I-126051J-11D01*
G01*
X72105351Y-110942450D02*
G75*
G03*
X71979350Y-111068450I49J-126050D01*
G01*
X71979351Y-111467589D02*
G75*
G02*
X71853351Y-111593651I-126051J-11D01*
G01*
X72294351Y-111068450D02*
G75*
G03*
X72168351Y-110942449I-126051J-50D01*
G01*
X71790351Y-111593589D02*
G75*
G02*
X71664411Y-111467589I49J125989D01*
G01*
X72735351Y-110942450D02*
G75*
G03*
X72609350Y-111068450I49J-126050D01*
G01*
X71664351Y-111068450D02*
G75*
G03*
X71538351Y-110942449I-126051J-50D01*
G01*
%TO.N,/TX0_P*%
X116999750Y-104764749D02*
X119003600Y-104764749D01*
X116913600Y-104678599D02*
X116999750Y-104764749D01*
X74839950Y-104614750D02*
X72836100Y-104614750D01*
X74926100Y-104528600D02*
X74839950Y-104614750D01*
X119003600Y-104764749D02*
X119163600Y-104604749D01*
X72836100Y-104614750D02*
X72676100Y-104454750D01*
%TO.N,/TX1_N*%
X116913599Y-108178600D02*
X116999750Y-108092450D01*
X119003600Y-108092450D02*
X119163600Y-108252450D01*
X72836100Y-107942451D02*
X72676100Y-108102451D01*
X74926101Y-108028601D02*
X74839950Y-107942451D01*
X74839950Y-107942451D02*
X72836100Y-107942451D01*
X116999750Y-108092450D02*
X119003600Y-108092450D01*
%TO.N,/TX0_N*%
X116913599Y-105178599D02*
X116999750Y-105092449D01*
X72836100Y-104942450D02*
X72676100Y-105102450D01*
X74839950Y-104942450D02*
X72836100Y-104942450D01*
X119003600Y-105092449D02*
X119163600Y-105252449D01*
X74926101Y-105028600D02*
X74839950Y-104942450D01*
X116999750Y-105092449D02*
X119003600Y-105092449D01*
%TO.N,/RX3_N*%
X72039263Y-112568450D02*
X72039263Y-112995135D01*
X72669263Y-112568450D02*
X72669263Y-112945133D01*
X70951100Y-112753600D02*
X70951100Y-118721880D01*
X71535263Y-112442450D02*
X71262250Y-112442450D01*
X73764950Y-112442450D02*
X72795263Y-112442450D01*
X118074750Y-112592449D02*
X117988600Y-112678599D01*
X71182820Y-118953600D02*
X120343439Y-118953600D01*
X119452450Y-112592449D02*
X118074750Y-112592449D01*
X71724263Y-112995135D02*
X71724263Y-112568450D01*
X120343439Y-118953600D02*
X120888600Y-118408439D01*
X72543263Y-113071133D02*
X72480263Y-113071133D01*
X120888600Y-118408439D02*
X120888600Y-114028599D01*
X70951100Y-118721880D02*
X71182820Y-118953600D01*
X71179250Y-112525450D02*
X70951100Y-112753600D01*
X71913263Y-113121135D02*
X71850263Y-113121135D01*
X72354263Y-112945133D02*
X72354263Y-112568450D01*
X71598263Y-112442450D02*
X71535263Y-112442450D01*
X72228263Y-112442450D02*
X72165263Y-112442450D01*
X73851100Y-112528600D02*
X73764950Y-112442450D01*
X120888600Y-114028599D02*
X119452450Y-112592449D01*
X71262250Y-112442450D02*
X71179250Y-112525450D01*
X71850263Y-113121135D02*
G75*
G02*
X71724265Y-112995135I37J126035D01*
G01*
X72669263Y-112945133D02*
G75*
G02*
X72543263Y-113071063I-125963J33D01*
G01*
X72165263Y-112442450D02*
G75*
G03*
X72039250Y-112568450I37J-126050D01*
G01*
X72354263Y-112568450D02*
G75*
G03*
X72228263Y-112442537I-125963J-50D01*
G01*
X71724263Y-112568450D02*
G75*
G03*
X71598263Y-112442537I-125963J-50D01*
G01*
X72480263Y-113071133D02*
G75*
G02*
X72354267Y-112945133I37J126033D01*
G01*
X72039263Y-112995135D02*
G75*
G02*
X71913263Y-113121063I-125963J35D01*
G01*
X72795263Y-112442450D02*
G75*
G03*
X72669250Y-112568450I37J-126050D01*
G01*
%TO.N,/TX2_P*%
X74839950Y-110614750D02*
X70226510Y-110614750D01*
X69798400Y-111042860D02*
X69798400Y-119607620D01*
X122041300Y-119294180D02*
X122041300Y-112699579D01*
X121029180Y-120306300D02*
X122041300Y-119294180D01*
X122041300Y-112699579D02*
X120106470Y-110764749D01*
X70226510Y-110614750D02*
X69798400Y-111042860D01*
X70497080Y-120306300D02*
X121029180Y-120306300D01*
X74926100Y-110528600D02*
X74839950Y-110614750D01*
X116999750Y-110764749D02*
X116913600Y-110678599D01*
X120106470Y-110764749D02*
X116999750Y-110764749D01*
X69798400Y-119607620D02*
X70497080Y-120306300D01*
%TO.N,/RX0_P*%
X73764949Y-103114751D02*
X71875691Y-103114751D01*
X73851100Y-103028600D02*
X73764949Y-103114751D01*
X121338600Y-93694712D02*
X121338600Y-101140159D01*
X71407234Y-101698270D02*
X71353493Y-101644529D01*
X70489950Y-101729010D02*
X70489950Y-93796470D01*
X71944638Y-102235670D02*
X71890897Y-102181929D01*
X120061338Y-92417450D02*
X121338600Y-93694712D01*
X71201923Y-102440982D02*
X71148183Y-102387243D01*
X71685585Y-102709684D02*
X71944638Y-102450630D01*
X71138533Y-101644529D02*
X70879481Y-101903580D01*
X121338600Y-101140159D02*
X119214009Y-103264750D01*
X70489950Y-93796470D02*
X71868970Y-92417450D01*
X70489950Y-101729010D02*
X70664521Y-101903580D01*
X71875691Y-103114751D02*
X71685585Y-102924645D01*
X71675937Y-102181929D02*
X71416883Y-102440982D01*
X71148183Y-102172282D02*
X71407234Y-101913230D01*
X119214009Y-103264750D02*
X118074751Y-103264750D01*
X71868970Y-92417450D02*
X120061338Y-92417450D01*
X118074751Y-103264750D02*
X117988600Y-103178599D01*
X71685585Y-102924645D02*
G75*
G02*
X71685620Y-102709719I107515J107445D01*
G01*
X71944638Y-102450630D02*
G75*
G03*
X71944588Y-102235720I-107438J107430D01*
G01*
X71416883Y-102440982D02*
G75*
G02*
X71201923Y-102440982I-107480J107479D01*
G01*
X71890897Y-102181929D02*
G75*
G03*
X71675937Y-102181929I-107480J-107479D01*
G01*
X70879481Y-101903580D02*
G75*
G02*
X70664521Y-101903580I-107480J107479D01*
G01*
X71148183Y-102387243D02*
G75*
G02*
X71148220Y-102172319I107517J107443D01*
G01*
X71407234Y-101913230D02*
G75*
G03*
X71407184Y-101698320I-107434J107430D01*
G01*
X71353493Y-101644529D02*
G75*
G03*
X71138533Y-101644529I-107480J-107479D01*
G01*
%TO.N,/TX3_N*%
X72262251Y-113942449D02*
X73764949Y-113942449D01*
X72051249Y-115417180D02*
X71902100Y-115417180D01*
X71776100Y-114428600D02*
X72034193Y-114170506D01*
X119713599Y-117928600D02*
X72276100Y-117928600D01*
X72276100Y-117928600D02*
X71776100Y-117428600D01*
X117988600Y-114178599D02*
X118074751Y-114092448D01*
X120063600Y-117578599D02*
X119713599Y-117928600D01*
X72551251Y-114787180D02*
X71902100Y-114787180D01*
X71776100Y-117428600D02*
X71776100Y-115858180D01*
X71902100Y-115102180D02*
X72551251Y-115102180D01*
X118074751Y-114092448D02*
X119177449Y-114092448D01*
X119177449Y-114092448D02*
X120063600Y-114978599D01*
X72677251Y-114976180D02*
X72677251Y-114913180D01*
X71776100Y-114661180D02*
X71776100Y-114428600D01*
X72177249Y-115606180D02*
X72177249Y-115543180D01*
X120063600Y-114978599D02*
X120063600Y-117578599D01*
X71776100Y-115291180D02*
X71776100Y-115228180D01*
X71902100Y-115732180D02*
X72051249Y-115732180D01*
X73764949Y-113942449D02*
X73851100Y-114028600D01*
X72034193Y-114170506D02*
X72262251Y-113942449D01*
X72551251Y-115102180D02*
G75*
G03*
X72677180Y-114976180I-51J125980D01*
G01*
X72051249Y-115732180D02*
G75*
G03*
X72177180Y-115606180I-49J125980D01*
G01*
X71902100Y-115417180D02*
G75*
G02*
X71776120Y-115291180I0J125980D01*
G01*
X71776100Y-115858180D02*
G75*
G02*
X71902100Y-115732200I126000J-20D01*
G01*
X72677251Y-114913180D02*
G75*
G03*
X72551251Y-114787149I-126051J-20D01*
G01*
X72177249Y-115543180D02*
G75*
G03*
X72051249Y-115417151I-126049J-20D01*
G01*
X71776100Y-115228180D02*
G75*
G02*
X71902100Y-115102200I126000J-20D01*
G01*
X71902100Y-114787180D02*
G75*
G02*
X71776120Y-114661180I0J125980D01*
G01*
%TO.N,/TX3_P*%
X73764949Y-113614750D02*
X72126510Y-113614750D01*
X71448400Y-114292860D02*
X71448400Y-117564340D01*
X120391300Y-117714339D02*
X120391300Y-114842859D01*
X118074751Y-113764749D02*
X117988600Y-113678598D01*
X73851100Y-113528599D02*
X73764949Y-113614750D01*
X72126510Y-113614750D02*
X71448400Y-114292860D01*
X119313190Y-113764749D02*
X118074751Y-113764749D01*
X119849339Y-118256300D02*
X120391300Y-117714339D01*
X71448400Y-117564340D02*
X72140360Y-118256300D01*
X120391300Y-114842859D02*
X119313190Y-113764749D01*
X72140360Y-118256300D02*
X119849339Y-118256300D01*
%TO.N,/RX3_P*%
X121216300Y-113892859D02*
X119588190Y-112264749D01*
X71047080Y-119281300D02*
X120479179Y-119281300D01*
X70623400Y-112617860D02*
X70623400Y-118857620D01*
X119588190Y-112264749D02*
X118074750Y-112264749D01*
X121216300Y-118544179D02*
X121216300Y-113892859D01*
X73764950Y-112114750D02*
X71126510Y-112114750D01*
X71126510Y-112114750D02*
X70623400Y-112617860D01*
X120479179Y-119281300D02*
X121216300Y-118544179D01*
X70623400Y-118857620D02*
X71047080Y-119281300D01*
X73851100Y-112028600D02*
X73764950Y-112114750D01*
X118074750Y-112264749D02*
X117988600Y-112178599D01*
%TO.N,/TX1_P*%
X119003600Y-107764750D02*
X119163600Y-107604750D01*
X72836100Y-107614751D02*
X72676100Y-107454751D01*
X74926100Y-107528601D02*
X74839950Y-107614751D01*
X116913600Y-107678600D02*
X116999750Y-107764750D01*
X74839950Y-107614751D02*
X72836100Y-107614751D01*
X116999750Y-107764750D02*
X119003600Y-107764750D01*
%TO.N,/REFCLK_N*%
X72026510Y-93114750D02*
X119663191Y-93114750D01*
X118074750Y-102092448D02*
X117988600Y-102178598D01*
X119174751Y-102092448D02*
X118074750Y-102092448D01*
X70998400Y-100275900D02*
X70998400Y-94142860D01*
X73764950Y-101942449D02*
X72664949Y-101942449D01*
X120841300Y-100425899D02*
X119174751Y-102092448D01*
X119663191Y-93114750D02*
X120841300Y-94292859D01*
X72664949Y-101942449D02*
X70998400Y-100275900D01*
X73851100Y-102028599D02*
X73764950Y-101942449D01*
X120841300Y-94292859D02*
X120841300Y-100425899D01*
X70998400Y-94142860D02*
X72026510Y-93114750D01*
%TO.N,/RX1_N*%
X72836100Y-106442449D02*
X72676100Y-106602449D01*
X119003600Y-106592448D02*
X119163600Y-106752448D01*
X74926101Y-106528599D02*
X74839950Y-106442449D01*
X116999750Y-106592448D02*
X119003600Y-106592448D01*
X74839950Y-106442449D02*
X72836100Y-106442449D01*
X116913599Y-106678598D02*
X116999750Y-106592448D01*
%TO.N,/RX2_N*%
X74926101Y-109528600D02*
X74839950Y-109442450D01*
X74839950Y-109442450D02*
X72836100Y-109442450D01*
X119003600Y-109592449D02*
X119163600Y-109752449D01*
X116999750Y-109592449D02*
X119003600Y-109592449D01*
X72836100Y-109442450D02*
X72676100Y-109602450D01*
X116913599Y-109678599D02*
X116999750Y-109592449D01*
%TD*%
%TA.AperFunction,Conductor*%
%TO.N,GND*%
G36*
X198704775Y-91979462D02*
G01*
X198737611Y-91982696D01*
X198830197Y-91991815D01*
X198844653Y-91994690D01*
X198961701Y-92030196D01*
X198975311Y-92035833D01*
X199083200Y-92093501D01*
X199095439Y-92101679D01*
X199189999Y-92179283D01*
X199200416Y-92189700D01*
X199278018Y-92284258D01*
X199286199Y-92296501D01*
X199343863Y-92404383D01*
X199349503Y-92417999D01*
X199385008Y-92535045D01*
X199387884Y-92549502D01*
X199400238Y-92674923D01*
X199400600Y-92682295D01*
X199400600Y-119699904D01*
X199400238Y-119707276D01*
X199387884Y-119832697D01*
X199385008Y-119847154D01*
X199349503Y-119964200D01*
X199343861Y-119977820D01*
X199286202Y-120085693D01*
X199278014Y-120097947D01*
X199200419Y-120192496D01*
X199189996Y-120202919D01*
X199095447Y-120280514D01*
X199083193Y-120288702D01*
X199009860Y-120327900D01*
X198975320Y-120346362D01*
X198961700Y-120352003D01*
X198844654Y-120387508D01*
X198830197Y-120390384D01*
X198713782Y-120401850D01*
X198704774Y-120402738D01*
X198697404Y-120403100D01*
X123026300Y-120403100D01*
X122977962Y-120385507D01*
X122952242Y-120340958D01*
X122951100Y-120327900D01*
X122951100Y-116824418D01*
X193323700Y-116824418D01*
X193323700Y-117132781D01*
X193363952Y-117438518D01*
X193363952Y-117438519D01*
X193443760Y-117736373D01*
X193561770Y-118021273D01*
X193715955Y-118288329D01*
X193890895Y-118516315D01*
X194784441Y-117622769D01*
X194837067Y-117695202D01*
X194959498Y-117817633D01*
X195031929Y-117870257D01*
X194138383Y-118763803D01*
X194366370Y-118938744D01*
X194633426Y-119092929D01*
X194918326Y-119210939D01*
X195216180Y-119290747D01*
X195521919Y-119331000D01*
X195830281Y-119331000D01*
X196136018Y-119290747D01*
X196136019Y-119290747D01*
X196433873Y-119210939D01*
X196718773Y-119092929D01*
X196985829Y-118938744D01*
X197213815Y-118763803D01*
X196320270Y-117870257D01*
X196392702Y-117817633D01*
X196515133Y-117695202D01*
X196567757Y-117622769D01*
X197461303Y-118516315D01*
X197636244Y-118288329D01*
X197790429Y-118021273D01*
X197908439Y-117736373D01*
X197988247Y-117438519D01*
X197988247Y-117438518D01*
X198028500Y-117132781D01*
X198028500Y-116824418D01*
X197988247Y-116518681D01*
X197988247Y-116518680D01*
X197908439Y-116220826D01*
X197790429Y-115935926D01*
X197636244Y-115668870D01*
X197461303Y-115440883D01*
X196567757Y-116334429D01*
X196515133Y-116261998D01*
X196392702Y-116139567D01*
X196320269Y-116086942D01*
X197213815Y-115193395D01*
X196985829Y-115018455D01*
X196718773Y-114864270D01*
X196433873Y-114746260D01*
X196136019Y-114666452D01*
X195830281Y-114626200D01*
X195521919Y-114626200D01*
X195216181Y-114666452D01*
X195216180Y-114666452D01*
X194918326Y-114746260D01*
X194633426Y-114864270D01*
X194366370Y-115018455D01*
X194138383Y-115193395D01*
X195031929Y-116086942D01*
X194959498Y-116139567D01*
X194837067Y-116261998D01*
X194784442Y-116334429D01*
X193890895Y-115440883D01*
X193715955Y-115668870D01*
X193561770Y-115935926D01*
X193443760Y-116220826D01*
X193363952Y-116518680D01*
X193363952Y-116518681D01*
X193323700Y-116824418D01*
X122951100Y-116824418D01*
X122951100Y-105824418D01*
X193323700Y-105824418D01*
X193323700Y-106132781D01*
X193363952Y-106438518D01*
X193363952Y-106438519D01*
X193443760Y-106736373D01*
X193561770Y-107021273D01*
X193715955Y-107288329D01*
X193890895Y-107516315D01*
X194784441Y-106622769D01*
X194837067Y-106695202D01*
X194959498Y-106817633D01*
X195031929Y-106870257D01*
X194138383Y-107763803D01*
X194366370Y-107938744D01*
X194633426Y-108092929D01*
X194918326Y-108210939D01*
X195216180Y-108290747D01*
X195521919Y-108331000D01*
X195830281Y-108331000D01*
X196136018Y-108290747D01*
X196136019Y-108290747D01*
X196433873Y-108210939D01*
X196718773Y-108092929D01*
X196985829Y-107938744D01*
X197213815Y-107763803D01*
X196320270Y-106870257D01*
X196392702Y-106817633D01*
X196515133Y-106695202D01*
X196567757Y-106622769D01*
X197461303Y-107516315D01*
X197636244Y-107288329D01*
X197790429Y-107021273D01*
X197908439Y-106736373D01*
X197988247Y-106438519D01*
X197988247Y-106438518D01*
X198028500Y-106132781D01*
X198028500Y-105824418D01*
X197988247Y-105518681D01*
X197988247Y-105518680D01*
X197908439Y-105220826D01*
X197790429Y-104935926D01*
X197636244Y-104668870D01*
X197461303Y-104440883D01*
X196567757Y-105334429D01*
X196515133Y-105261998D01*
X196392702Y-105139567D01*
X196320269Y-105086942D01*
X197213815Y-104193395D01*
X196985829Y-104018455D01*
X196718773Y-103864270D01*
X196433873Y-103746260D01*
X196136019Y-103666452D01*
X195830281Y-103626200D01*
X195521919Y-103626200D01*
X195216181Y-103666452D01*
X195216180Y-103666452D01*
X194918326Y-103746260D01*
X194633426Y-103864270D01*
X194366370Y-104018455D01*
X194138383Y-104193395D01*
X195031929Y-105086942D01*
X194959498Y-105139567D01*
X194837067Y-105261998D01*
X194784442Y-105334429D01*
X193890895Y-104440883D01*
X193715955Y-104668870D01*
X193561770Y-104935926D01*
X193443760Y-105220826D01*
X193363952Y-105518680D01*
X193363952Y-105518681D01*
X193323700Y-105824418D01*
X122951100Y-105824418D01*
X122951100Y-94824418D01*
X193323700Y-94824418D01*
X193323700Y-95132781D01*
X193363952Y-95438518D01*
X193363952Y-95438519D01*
X193443760Y-95736373D01*
X193561770Y-96021273D01*
X193715955Y-96288329D01*
X193890895Y-96516315D01*
X194784441Y-95622769D01*
X194837067Y-95695202D01*
X194959498Y-95817633D01*
X195031929Y-95870257D01*
X194138383Y-96763803D01*
X194366370Y-96938744D01*
X194633426Y-97092929D01*
X194918326Y-97210939D01*
X195216180Y-97290747D01*
X195521919Y-97331000D01*
X195830281Y-97331000D01*
X196136018Y-97290747D01*
X196136019Y-97290747D01*
X196433873Y-97210939D01*
X196718773Y-97092929D01*
X196985829Y-96938744D01*
X197213815Y-96763803D01*
X196320270Y-95870257D01*
X196392702Y-95817633D01*
X196515133Y-95695202D01*
X196567757Y-95622769D01*
X197461303Y-96516315D01*
X197636244Y-96288329D01*
X197790429Y-96021273D01*
X197908439Y-95736373D01*
X197988247Y-95438519D01*
X197988247Y-95438518D01*
X198028500Y-95132781D01*
X198028500Y-94824418D01*
X197988247Y-94518681D01*
X197988247Y-94518680D01*
X197908439Y-94220826D01*
X197790429Y-93935926D01*
X197636244Y-93668870D01*
X197461303Y-93440883D01*
X196567757Y-94334429D01*
X196515133Y-94261998D01*
X196392702Y-94139567D01*
X196320269Y-94086942D01*
X197213815Y-93193395D01*
X196985829Y-93018455D01*
X196718773Y-92864270D01*
X196433873Y-92746260D01*
X196136019Y-92666452D01*
X195830281Y-92626200D01*
X195521919Y-92626200D01*
X195216181Y-92666452D01*
X195216180Y-92666452D01*
X194918326Y-92746260D01*
X194633426Y-92864270D01*
X194366370Y-93018455D01*
X194138383Y-93193395D01*
X195031929Y-94086942D01*
X194959498Y-94139567D01*
X194837067Y-94261998D01*
X194784442Y-94334429D01*
X193890895Y-93440883D01*
X193715955Y-93668870D01*
X193561770Y-93935926D01*
X193443760Y-94220826D01*
X193363952Y-94518680D01*
X193363952Y-94518681D01*
X193323700Y-94824418D01*
X122951100Y-94824418D01*
X122951100Y-92054300D01*
X122968693Y-92005962D01*
X123013242Y-91980242D01*
X123026300Y-91979100D01*
X198653505Y-91979100D01*
X198697404Y-91979100D01*
X198704775Y-91979462D01*
G37*
%TD.AperFunction*%
%TA.AperFunction,Conductor*%
G36*
X107348737Y-94996193D02*
G01*
X107374457Y-95040742D01*
X107375599Y-95053800D01*
X107375600Y-116953400D01*
X107358007Y-117001738D01*
X107313458Y-117027458D01*
X107300400Y-117028600D01*
X85051800Y-117028600D01*
X85003462Y-117011007D01*
X84977742Y-116966458D01*
X84976600Y-116953400D01*
X84976600Y-113549418D01*
X102048700Y-113549418D01*
X102048700Y-113857781D01*
X102088952Y-114163518D01*
X102088952Y-114163519D01*
X102168760Y-114461373D01*
X102286770Y-114746273D01*
X102440955Y-115013329D01*
X102615895Y-115241315D01*
X103509441Y-114347769D01*
X103562067Y-114420202D01*
X103684498Y-114542633D01*
X103756929Y-114595257D01*
X102863383Y-115488803D01*
X103091370Y-115663744D01*
X103358426Y-115817929D01*
X103643326Y-115935939D01*
X103941180Y-116015747D01*
X104246919Y-116056000D01*
X104555281Y-116056000D01*
X104861018Y-116015747D01*
X104861019Y-116015747D01*
X105158873Y-115935939D01*
X105443773Y-115817929D01*
X105710829Y-115663744D01*
X105938815Y-115488803D01*
X105045270Y-114595257D01*
X105117702Y-114542633D01*
X105240133Y-114420202D01*
X105292757Y-114347769D01*
X106186303Y-115241315D01*
X106361244Y-115013329D01*
X106515429Y-114746273D01*
X106633439Y-114461373D01*
X106713247Y-114163519D01*
X106713247Y-114163518D01*
X106753500Y-113857781D01*
X106753500Y-113549418D01*
X106713247Y-113243681D01*
X106713247Y-113243680D01*
X106633439Y-112945826D01*
X106515429Y-112660926D01*
X106361244Y-112393870D01*
X106186303Y-112165883D01*
X105292757Y-113059429D01*
X105240133Y-112986998D01*
X105117702Y-112864567D01*
X105045269Y-112811942D01*
X105938815Y-111918395D01*
X105710829Y-111743455D01*
X105443773Y-111589270D01*
X105158873Y-111471260D01*
X104861019Y-111391452D01*
X104555281Y-111351200D01*
X104246919Y-111351200D01*
X103941181Y-111391452D01*
X103941180Y-111391452D01*
X103643326Y-111471260D01*
X103358426Y-111589270D01*
X103091370Y-111743455D01*
X102863383Y-111918395D01*
X103756929Y-112811942D01*
X103684498Y-112864567D01*
X103562067Y-112986998D01*
X103509442Y-113059429D01*
X102615895Y-112165883D01*
X102440955Y-112393870D01*
X102286770Y-112660926D01*
X102168760Y-112945826D01*
X102088952Y-113243680D01*
X102088952Y-113243681D01*
X102048700Y-113549418D01*
X84976600Y-113549418D01*
X84976600Y-111947477D01*
X84976601Y-105978600D01*
X84976601Y-97549418D01*
X102048700Y-97549418D01*
X102048700Y-97857781D01*
X102088952Y-98163518D01*
X102088952Y-98163519D01*
X102168760Y-98461373D01*
X102286770Y-98746273D01*
X102440955Y-99013329D01*
X102615895Y-99241315D01*
X103509441Y-98347769D01*
X103562067Y-98420202D01*
X103684498Y-98542633D01*
X103756929Y-98595257D01*
X102863383Y-99488803D01*
X103091370Y-99663744D01*
X103358426Y-99817929D01*
X103643326Y-99935939D01*
X103941180Y-100015747D01*
X104246919Y-100056000D01*
X104555281Y-100056000D01*
X104861018Y-100015747D01*
X104861019Y-100015747D01*
X105158873Y-99935939D01*
X105443773Y-99817929D01*
X105710829Y-99663744D01*
X105938815Y-99488803D01*
X105045270Y-98595257D01*
X105117702Y-98542633D01*
X105240133Y-98420202D01*
X105292757Y-98347769D01*
X106186303Y-99241315D01*
X106361244Y-99013329D01*
X106515429Y-98746273D01*
X106633439Y-98461373D01*
X106713247Y-98163519D01*
X106713247Y-98163518D01*
X106753500Y-97857781D01*
X106753500Y-97549418D01*
X106713247Y-97243681D01*
X106713247Y-97243680D01*
X106633439Y-96945826D01*
X106515429Y-96660926D01*
X106361244Y-96393870D01*
X106186303Y-96165883D01*
X105292757Y-97059429D01*
X105240133Y-96986998D01*
X105117702Y-96864567D01*
X105045269Y-96811942D01*
X105938815Y-95918395D01*
X105710829Y-95743455D01*
X105443773Y-95589270D01*
X105158873Y-95471260D01*
X104861019Y-95391452D01*
X104555281Y-95351200D01*
X104246919Y-95351200D01*
X103941181Y-95391452D01*
X103941180Y-95391452D01*
X103643326Y-95471260D01*
X103358426Y-95589270D01*
X103091370Y-95743455D01*
X102863383Y-95918395D01*
X103756929Y-96811942D01*
X103684498Y-96864567D01*
X103562067Y-96986998D01*
X103509442Y-97059429D01*
X102615895Y-96165883D01*
X102440955Y-96393870D01*
X102286770Y-96660926D01*
X102168760Y-96945826D01*
X102088952Y-97243680D01*
X102088952Y-97243681D01*
X102048700Y-97549418D01*
X84976601Y-97549418D01*
X84976601Y-95053800D01*
X84994194Y-95005462D01*
X85038743Y-94979742D01*
X85051801Y-94978600D01*
X107300399Y-94978600D01*
X107348737Y-94996193D01*
G37*
%TD.AperFunction*%
%TD*%
M02*
