G04 #@! TF.FileFunction,Copper,L1,Top,Signal*
%FSLAX46Y46*%
G04 Gerber Fmt 4.6, Leading zero omitted, Abs format (unit mm)*
G04 Created by KiCad (PCBNEW 4.0.7) date 06/05/18 19:10:08*
%MOMM*%
%LPD*%
G01*
G04 APERTURE LIST*
%ADD10C,0.100000*%
%ADD11R,0.400000X2.100000*%
%ADD12O,2.200000X2.200000*%
%ADD13R,0.400000X0.600000*%
%ADD14R,0.600000X0.400000*%
%ADD15R,0.450000X0.700000*%
%ADD16R,0.600000X0.500000*%
%ADD17R,0.500000X0.600000*%
%ADD18R,0.750000X0.800000*%
%ADD19R,0.800000X0.750000*%
%ADD20R,1.700000X1.700000*%
%ADD21O,1.700000X1.700000*%
%ADD22C,2.600000*%
%ADD23C,2.300000*%
%ADD24R,0.900000X0.500000*%
%ADD25C,4.500000*%
%ADD26C,1.500000*%
%ADD27R,0.250000X0.600000*%
%ADD28R,0.600000X0.250000*%
%ADD29R,2.600000X2.600000*%
%ADD30R,1.450000X0.450000*%
%ADD31R,0.400000X0.260000*%
%ADD32R,0.800000X1.300000*%
%ADD33R,0.600000X1.100000*%
%ADD34C,0.550000*%
%ADD35C,0.508000*%
%ADD36C,0.254000*%
%ADD37C,0.341630*%
G04 APERTURE END LIST*
D10*
D11*
X150388000Y-113390000D03*
D12*
X148788000Y-110490000D03*
X167188000Y-110490000D03*
X170313000Y-108115000D03*
X170313000Y-112865000D03*
X145663000Y-112865000D03*
X145663000Y-108115000D03*
D11*
X165588000Y-107065000D03*
X164788000Y-107090000D03*
X163988000Y-107090000D03*
X163188000Y-107090000D03*
X162388000Y-107090000D03*
X161588000Y-107090000D03*
X160788000Y-107090000D03*
X159988000Y-107090000D03*
X159188000Y-107090000D03*
X158388000Y-107090000D03*
X157588000Y-107090000D03*
X156788000Y-107090000D03*
X155988000Y-107090000D03*
X155188000Y-107090000D03*
X154388000Y-107090000D03*
X153588000Y-107090000D03*
X152788000Y-107090000D03*
X151988000Y-107090000D03*
X151188000Y-107090000D03*
X150388000Y-107090000D03*
X151188000Y-113390000D03*
X151988000Y-113390000D03*
X152788000Y-113390000D03*
X153588000Y-113390000D03*
X154388000Y-113390000D03*
X155188000Y-113390000D03*
X155988000Y-113390000D03*
X156788000Y-113390000D03*
X157588000Y-113390000D03*
X158388000Y-113390000D03*
X159188000Y-113390000D03*
X159988000Y-113390000D03*
X160788000Y-113390000D03*
X161588000Y-113390000D03*
X162388000Y-113390000D03*
X163188000Y-113390000D03*
X163988000Y-113390000D03*
X164788000Y-113390000D03*
X165588000Y-113390000D03*
D13*
X151050000Y-102600000D03*
X151950000Y-102600000D03*
D14*
X144018000Y-95308000D03*
X144018000Y-96208000D03*
D15*
X148194000Y-101584000D03*
X149494000Y-101584000D03*
X148844000Y-99584000D03*
D16*
X165566000Y-96520000D03*
X166666000Y-96520000D03*
D17*
X165608000Y-95546000D03*
X165608000Y-94446000D03*
X166624000Y-95546000D03*
X166624000Y-94446000D03*
X167640000Y-95546000D03*
X167640000Y-94446000D03*
X160020000Y-98764000D03*
X160020000Y-99864000D03*
D16*
X159046000Y-98806000D03*
X157946000Y-98806000D03*
X158030000Y-100838000D03*
X156930000Y-100838000D03*
X159046000Y-99822000D03*
X157946000Y-99822000D03*
D17*
X154940000Y-95716000D03*
X154940000Y-96816000D03*
D18*
X172466000Y-102096000D03*
X172466000Y-100596000D03*
D19*
X170422000Y-99568000D03*
X168922000Y-99568000D03*
D16*
X169376000Y-103124000D03*
X170476000Y-103124000D03*
D19*
X141974000Y-103632000D03*
X140474000Y-103632000D03*
D18*
X143383000Y-101842000D03*
X143383000Y-100342000D03*
D20*
X155702000Y-88392000D03*
D21*
X155702000Y-85852000D03*
X158242000Y-88392000D03*
X158242000Y-85852000D03*
X160782000Y-88392000D03*
X160782000Y-85852000D03*
X163322000Y-88392000D03*
X163322000Y-85852000D03*
X165862000Y-88392000D03*
X165862000Y-85852000D03*
X168402000Y-88392000D03*
X168402000Y-85852000D03*
X170942000Y-88392000D03*
X170942000Y-85852000D03*
D22*
X145542000Y-89027000D03*
X150622000Y-89027000D03*
X150622000Y-83947000D03*
D23*
X148082000Y-86487000D03*
D22*
X145542000Y-83947000D03*
D24*
X168910000Y-97016000D03*
X168910000Y-95516000D03*
D25*
X140208000Y-85852000D03*
X175768000Y-85852000D03*
X140208000Y-111252000D03*
X175768000Y-111252000D03*
D15*
X145654000Y-101584000D03*
X146954000Y-101584000D03*
X146304000Y-99584000D03*
D14*
X150114000Y-92652000D03*
X150114000Y-91752000D03*
D13*
X149040000Y-91694000D03*
X148140000Y-91694000D03*
X145854000Y-102616000D03*
X146754000Y-102616000D03*
X148394000Y-102616000D03*
X149294000Y-102616000D03*
X145346000Y-98044000D03*
X146246000Y-98044000D03*
X149802000Y-98044000D03*
X148902000Y-98044000D03*
D14*
X154940000Y-94684000D03*
X154940000Y-93784000D03*
D13*
X153866000Y-93726000D03*
X152966000Y-93726000D03*
D14*
X156210000Y-93784000D03*
X156210000Y-94684000D03*
X145288000Y-93530000D03*
X145288000Y-94430000D03*
X145288000Y-96208000D03*
X145288000Y-95308000D03*
X144018000Y-94430000D03*
X144018000Y-93530000D03*
D13*
X171508000Y-103124000D03*
X172408000Y-103124000D03*
D14*
X143256000Y-102928000D03*
X143256000Y-103828000D03*
D26*
X159512000Y-93726000D03*
D27*
X162064000Y-99182000D03*
X163564000Y-95382000D03*
D28*
X164714000Y-96532000D03*
X160914000Y-97032000D03*
X160914000Y-97532000D03*
X164714000Y-98032000D03*
X164714000Y-97532000D03*
X160914000Y-98032000D03*
X164714000Y-97032000D03*
X160914000Y-96532000D03*
D27*
X163064000Y-95382000D03*
X162564000Y-95382000D03*
X162064000Y-95382000D03*
X162564000Y-99182000D03*
X163064000Y-99182000D03*
X163564000Y-99182000D03*
D29*
X162814000Y-97282000D03*
D30*
X153330000Y-96733000D03*
X153330000Y-96083000D03*
X153330000Y-95433000D03*
X153330000Y-94783000D03*
X148930000Y-96733000D03*
X148930000Y-96083000D03*
X148930000Y-95433000D03*
X148930000Y-94783000D03*
D31*
X169534000Y-100696000D03*
X169534000Y-101346000D03*
X169534000Y-101996000D03*
X171334000Y-100696000D03*
X171334000Y-101346000D03*
X171334000Y-101996000D03*
D32*
X170434000Y-101346000D03*
D33*
X140274000Y-99538000D03*
X142174000Y-99538000D03*
X142174000Y-102138000D03*
X141224000Y-102138000D03*
X140274000Y-102138000D03*
D34*
X167650000Y-96500000D03*
X167650000Y-97350000D03*
X154940000Y-102870000D03*
X156210000Y-104140000D03*
X157480000Y-102870000D03*
X151130000Y-100330000D03*
X149860000Y-99060000D03*
X152400000Y-99060000D03*
X165735000Y-83185000D03*
X160655000Y-83185000D03*
X155575000Y-83185000D03*
X158350000Y-108600000D03*
X165600000Y-108550000D03*
X163150000Y-108600000D03*
X161550000Y-108600000D03*
X154800000Y-105600000D03*
X157600000Y-111800000D03*
X156000000Y-111800000D03*
X154400000Y-111800000D03*
X165200000Y-111800000D03*
X163600000Y-111800000D03*
X161200000Y-111800000D03*
X159600000Y-111800000D03*
X140970000Y-92710000D03*
X140970000Y-97790000D03*
X172720000Y-96520000D03*
X172720000Y-91440000D03*
X138430000Y-90170000D03*
X138430000Y-95250000D03*
X138430000Y-100330000D03*
X138430000Y-105410000D03*
X177800000Y-88900000D03*
X177800000Y-93980000D03*
X177800000Y-99060000D03*
X177800000Y-104140000D03*
X166550000Y-93700000D03*
X164750000Y-94450000D03*
X167650000Y-93700000D03*
X168500000Y-94450000D03*
X163850000Y-94600000D03*
X161650000Y-94600000D03*
X161250000Y-98950000D03*
X159550000Y-100600000D03*
X158350000Y-98100000D03*
X157200000Y-99800000D03*
X156150000Y-100850000D03*
X158400000Y-94650000D03*
X152000000Y-97450000D03*
X153300000Y-97450000D03*
X155800000Y-96800000D03*
X144000000Y-96850000D03*
X144050000Y-92900000D03*
X144500000Y-101850000D03*
X141250000Y-101200000D03*
X142700000Y-101200000D03*
X142700000Y-104450000D03*
X143850000Y-104450000D03*
X173100000Y-102950000D03*
X171400000Y-99550000D03*
X170450000Y-98700000D03*
X172450000Y-101400000D03*
X170450000Y-102450000D03*
X170450000Y-101350000D03*
X170450000Y-100350000D03*
X162750000Y-97250000D03*
X162000000Y-96500000D03*
X163500000Y-96500000D03*
X163500000Y-98000000D03*
X162000000Y-98000000D03*
X151000000Y-101600000D03*
X157300000Y-101600000D03*
X150900000Y-97000000D03*
X145300000Y-97000000D03*
X168200000Y-98900000D03*
X155800000Y-95500000D03*
X156800000Y-111800000D03*
X174100000Y-103200000D03*
X155200000Y-111000000D03*
X142400000Y-105700000D03*
X155200000Y-111800000D03*
X156000000Y-110100000D03*
X171500000Y-104000000D03*
X152800000Y-111800000D03*
X152000000Y-111800000D03*
X151200000Y-111800000D03*
X150400000Y-111800000D03*
D35*
X167200000Y-95546000D02*
X168854000Y-95546000D01*
X168854000Y-95546000D02*
X168900000Y-95500000D01*
X168900000Y-95500000D02*
X168910000Y-95516000D01*
X166624000Y-95546000D02*
X167200000Y-95546000D01*
X167200000Y-95546000D02*
X167546000Y-95546000D01*
X167546000Y-95546000D02*
X167600000Y-95600000D01*
X167600000Y-95600000D02*
X167640000Y-95546000D01*
X165608000Y-95546000D02*
X166554000Y-95546000D01*
X166554000Y-95546000D02*
X166600000Y-95500000D01*
X166600000Y-95500000D02*
X166624000Y-95546000D01*
X165566000Y-96520000D02*
X165566000Y-95534000D01*
X165566000Y-95534000D02*
X165600000Y-95500000D01*
X165600000Y-95500000D02*
X165608000Y-95546000D01*
X164714000Y-96532000D02*
X164714000Y-96564000D01*
X164714000Y-96564000D02*
X164800000Y-96650000D01*
X164800000Y-96650000D02*
X164800000Y-96950000D01*
X164800000Y-96950000D02*
X164714000Y-97032000D01*
X164714000Y-96532000D02*
X165468000Y-96532000D01*
X165468000Y-96532000D02*
X165500000Y-96500000D01*
X165500000Y-96500000D02*
X165566000Y-96520000D01*
X165566000Y-96520000D02*
X164980000Y-96520000D01*
D36*
X157588000Y-105518000D02*
X156210000Y-104140000D01*
X157588000Y-105518000D02*
X157588000Y-107090000D01*
X152400000Y-99060000D02*
X151130000Y-100330000D01*
X153330000Y-96733000D02*
X153330000Y-98130000D01*
X153330000Y-98130000D02*
X152400000Y-99060000D01*
X150622000Y-83947000D02*
X154813000Y-83947000D01*
X160655000Y-83185000D02*
X165735000Y-83185000D01*
X155575000Y-83185000D02*
X160655000Y-83185000D01*
X154813000Y-83947000D02*
X155575000Y-83185000D01*
X159188000Y-107090000D02*
X159188000Y-108188000D01*
X158776000Y-108600000D02*
X158350000Y-108600000D01*
X159188000Y-108188000D02*
X158776000Y-108600000D01*
X165588000Y-107065000D02*
X165588000Y-108538000D01*
X165588000Y-108538000D02*
X165600000Y-108550000D01*
X163188000Y-107090000D02*
X163188000Y-108562000D01*
X163188000Y-108562000D02*
X163150000Y-108600000D01*
X161588000Y-107090000D02*
X161588000Y-108562000D01*
X161588000Y-108562000D02*
X161550000Y-108600000D01*
X154388000Y-107090000D02*
X154388000Y-106012000D01*
X154388000Y-106012000D02*
X154800000Y-105600000D01*
X157588000Y-113390000D02*
X157588000Y-111812000D01*
X157588000Y-111812000D02*
X157600000Y-111800000D01*
X155988000Y-113390000D02*
X155988000Y-111812000D01*
X155988000Y-111812000D02*
X156000000Y-111800000D01*
X154388000Y-113390000D02*
X154388000Y-111812000D01*
X154388000Y-111812000D02*
X154400000Y-111800000D01*
X163188000Y-113390000D02*
X163188000Y-112212000D01*
X163600000Y-111800000D02*
X165200000Y-111800000D01*
X163188000Y-112212000D02*
X163600000Y-111800000D01*
X160788000Y-113390000D02*
X160788000Y-112212000D01*
X160788000Y-112212000D02*
X161200000Y-111800000D01*
X159988000Y-113390000D02*
X159988000Y-112188000D01*
X159988000Y-112188000D02*
X159600000Y-111800000D01*
X145542000Y-89027000D02*
X144653000Y-89027000D01*
X144653000Y-89027000D02*
X140970000Y-92710000D01*
X140970000Y-92710000D02*
X140970000Y-97790000D01*
X175768000Y-85852000D02*
X172720000Y-88900000D01*
X172720000Y-91440000D02*
X172720000Y-96520000D01*
X172720000Y-88900000D02*
X172720000Y-91440000D01*
X140208000Y-111252000D02*
X140208000Y-107188000D01*
X139700000Y-88900000D02*
X139700000Y-86360000D01*
X138430000Y-90170000D02*
X139700000Y-88900000D01*
X138430000Y-95250000D02*
X138430000Y-90170000D01*
X138430000Y-100330000D02*
X138430000Y-95250000D01*
X138430000Y-105410000D02*
X138430000Y-100330000D01*
X140208000Y-107188000D02*
X138430000Y-105410000D01*
X139700000Y-86360000D02*
X140208000Y-85852000D01*
X175768000Y-85852000D02*
X175768000Y-86868000D01*
X175768000Y-86868000D02*
X177800000Y-88900000D01*
X177800000Y-88900000D02*
X177800000Y-93980000D01*
X177800000Y-93980000D02*
X177800000Y-99060000D01*
X177800000Y-99060000D02*
X177800000Y-104140000D01*
X177800000Y-104140000D02*
X177800000Y-109220000D01*
X177800000Y-109220000D02*
X175260000Y-111760000D01*
X175260000Y-111760000D02*
X175768000Y-111252000D01*
X166624000Y-94446000D02*
X166624000Y-94424000D01*
X166624000Y-94424000D02*
X166550000Y-94350000D01*
X166550000Y-94350000D02*
X166550000Y-93700000D01*
X165608000Y-94446000D02*
X164754000Y-94446000D01*
X164754000Y-94446000D02*
X164750000Y-94450000D01*
X167640000Y-94446000D02*
X167640000Y-93710000D01*
X167640000Y-93710000D02*
X167650000Y-93700000D01*
X167640000Y-94446000D02*
X168496000Y-94446000D01*
X168496000Y-94446000D02*
X168500000Y-94450000D01*
X163564000Y-95382000D02*
X163564000Y-94886000D01*
X163564000Y-94886000D02*
X163850000Y-94600000D01*
X162064000Y-95382000D02*
X162064000Y-95014000D01*
X162064000Y-95014000D02*
X161650000Y-94600000D01*
X166666000Y-96520000D02*
X166820000Y-96520000D01*
X166820000Y-96520000D02*
X167650000Y-97350000D01*
X166666000Y-96520000D02*
X167630000Y-96520000D01*
X167630000Y-96520000D02*
X167650000Y-96500000D01*
X160020000Y-99864000D02*
X160336000Y-99864000D01*
X160336000Y-99864000D02*
X161250000Y-98950000D01*
X160020000Y-99864000D02*
X160020000Y-100130000D01*
X160020000Y-100130000D02*
X159550000Y-100600000D01*
X157946000Y-98806000D02*
X157946000Y-98504000D01*
X157946000Y-98504000D02*
X158350000Y-98100000D01*
X157946000Y-99822000D02*
X157222000Y-99822000D01*
X157222000Y-99822000D02*
X157200000Y-99800000D01*
X156930000Y-100838000D02*
X156162000Y-100838000D01*
X156162000Y-100838000D02*
X156150000Y-100850000D01*
X156210000Y-94684000D02*
X158366000Y-94684000D01*
X158366000Y-94684000D02*
X158400000Y-94650000D01*
X153330000Y-96733000D02*
X152717000Y-96733000D01*
X152717000Y-96733000D02*
X152000000Y-97450000D01*
X153330000Y-96733000D02*
X153330000Y-97420000D01*
X153330000Y-97420000D02*
X153300000Y-97450000D01*
X154940000Y-96816000D02*
X155784000Y-96816000D01*
X155784000Y-96816000D02*
X155800000Y-96800000D01*
X144018000Y-96208000D02*
X144018000Y-96832000D01*
X144018000Y-96832000D02*
X144000000Y-96850000D01*
X144018000Y-93530000D02*
X144018000Y-92932000D01*
X144018000Y-92932000D02*
X144050000Y-92900000D01*
X143383000Y-101842000D02*
X144492000Y-101842000D01*
X144492000Y-101842000D02*
X144500000Y-101850000D01*
X142700000Y-101200000D02*
X141250000Y-101200000D01*
X141224000Y-101226000D02*
X141250000Y-101200000D01*
X141224000Y-101226000D02*
X141224000Y-102138000D01*
X141974000Y-103632000D02*
X141974000Y-103724000D01*
X141974000Y-103724000D02*
X142700000Y-104450000D01*
X143256000Y-103828000D02*
X143256000Y-103856000D01*
X143256000Y-103856000D02*
X143850000Y-104450000D01*
X172466000Y-102096000D02*
X172466000Y-102316000D01*
X172466000Y-102316000D02*
X173100000Y-102950000D01*
X170422000Y-99568000D02*
X171382000Y-99568000D01*
X171382000Y-99568000D02*
X171400000Y-99550000D01*
X170422000Y-99568000D02*
X170422000Y-98728000D01*
X170422000Y-98728000D02*
X170450000Y-98700000D01*
X171334000Y-101346000D02*
X172396000Y-101346000D01*
X172396000Y-101346000D02*
X172450000Y-101400000D01*
X170434000Y-101346000D02*
X170434000Y-102434000D01*
X170434000Y-102434000D02*
X170450000Y-102450000D01*
X170434000Y-101346000D02*
X170446000Y-101346000D01*
X170446000Y-101346000D02*
X170450000Y-101350000D01*
X170450000Y-101350000D02*
X170450000Y-100350000D01*
X162814000Y-97282000D02*
X162782000Y-97282000D01*
X162782000Y-97282000D02*
X162750000Y-97250000D01*
X162750000Y-97250000D02*
X162000000Y-96500000D01*
X162000000Y-96500000D02*
X163500000Y-96500000D01*
X163500000Y-96500000D02*
X163500000Y-98000000D01*
X163500000Y-98000000D02*
X162000000Y-98000000D01*
X162000000Y-98000000D02*
X162814000Y-97282000D01*
D35*
X145700000Y-100500000D02*
X145700000Y-101600000D01*
X145700000Y-101600000D02*
X145700000Y-102500000D01*
X145700000Y-102500000D02*
X145854000Y-102616000D01*
X148200000Y-100500000D02*
X148200000Y-101600000D01*
X148200000Y-101600000D02*
X148200000Y-102400000D01*
X148200000Y-102400000D02*
X148394000Y-102616000D01*
X151000000Y-101600000D02*
X151000000Y-102600000D01*
X151000000Y-102600000D02*
X151050000Y-102600000D01*
X143383000Y-100342000D02*
X143383000Y-100483000D01*
X143383000Y-100483000D02*
X143400000Y-100500000D01*
X143400000Y-100500000D02*
X145700000Y-100500000D01*
X145700000Y-100500000D02*
X148200000Y-100500000D01*
X148200000Y-100500000D02*
X149900000Y-100500000D01*
X149900000Y-100500000D02*
X151000000Y-101600000D01*
X157300000Y-101600000D02*
X158100000Y-100800000D01*
X158100000Y-100800000D02*
X158030000Y-100838000D01*
X159046000Y-99822000D02*
X159046000Y-99854000D01*
X159046000Y-99854000D02*
X158100000Y-100800000D01*
X158100000Y-100800000D02*
X158030000Y-100838000D01*
X159046000Y-98806000D02*
X159046000Y-99754000D01*
X159046000Y-99754000D02*
X159000000Y-99800000D01*
X159000000Y-99800000D02*
X159046000Y-99822000D01*
X160020000Y-98764000D02*
X159136000Y-98764000D01*
X159136000Y-98764000D02*
X159100000Y-98800000D01*
X159100000Y-98800000D02*
X159046000Y-98806000D01*
X160020000Y-98764000D02*
X160036000Y-98764000D01*
X160036000Y-98764000D02*
X160700000Y-98100000D01*
X160700000Y-98100000D02*
X160914000Y-98032000D01*
X140274000Y-99538000D02*
X140274000Y-99574000D01*
X140274000Y-99574000D02*
X141200000Y-100500000D01*
X141200000Y-100500000D02*
X143400000Y-100500000D01*
X143400000Y-100500000D02*
X143383000Y-100342000D01*
X168910000Y-97016000D02*
X169049000Y-97016000D01*
X169049000Y-97016000D02*
X170915000Y-95150000D01*
X170915000Y-95150000D02*
X170915000Y-88265000D01*
X170815000Y-88265000D02*
X170942000Y-88392000D01*
X163200000Y-110700000D02*
X162400000Y-110700000D01*
X168000000Y-100400000D02*
X168832000Y-99568000D01*
X164700000Y-110700000D02*
X163200000Y-110700000D01*
X168000000Y-107400000D02*
X164700000Y-110700000D01*
X168000000Y-100400000D02*
X168000000Y-107400000D01*
X162400000Y-110700000D02*
X162400000Y-111500000D01*
X159500000Y-110700000D02*
X158800000Y-111400000D01*
X158400000Y-111800000D02*
X158400000Y-112500000D01*
X158800000Y-111400000D02*
X158400000Y-111800000D01*
X162400000Y-110700000D02*
X159500000Y-110700000D01*
X162400000Y-111500000D02*
X162400000Y-112500000D01*
X162400000Y-112500000D02*
X162388000Y-113390000D01*
X158400000Y-112500000D02*
X158388000Y-113390000D01*
X168922000Y-99568000D02*
X168832000Y-99568000D01*
X162400000Y-112600000D02*
X162388000Y-113390000D01*
X150114000Y-92652000D02*
X150114000Y-93314000D01*
X150114000Y-93314000D02*
X150300000Y-93500000D01*
X152300000Y-95500000D02*
X150300000Y-93500000D01*
X150300000Y-93500000D02*
X145300000Y-93500000D01*
X145300000Y-93500000D02*
X145288000Y-93530000D01*
X152400000Y-95500000D02*
X152300000Y-95500000D01*
X153330000Y-95433000D02*
X153330000Y-95470000D01*
X153330000Y-95470000D02*
X153300000Y-95500000D01*
X153300000Y-95500000D02*
X152400000Y-95500000D01*
X152600000Y-95800000D02*
X152600000Y-95800000D01*
X152300000Y-95500000D02*
X152600000Y-95800000D01*
X150900000Y-97000000D02*
X152100000Y-95800000D01*
X153200000Y-95800000D02*
X153330000Y-95800000D01*
X152100000Y-95800000D02*
X152600000Y-95800000D01*
X152600000Y-95800000D02*
X153200000Y-95800000D01*
X145300000Y-96300000D02*
X145288000Y-96208000D01*
X145300000Y-97000000D02*
X145300000Y-96300000D01*
X145300000Y-98000000D02*
X145346000Y-98044000D01*
X145300000Y-98000000D02*
X145300000Y-97000000D01*
X150900000Y-97000000D02*
X149900000Y-98000000D01*
X149900000Y-98000000D02*
X149802000Y-98044000D01*
X153330000Y-95433000D02*
X153330000Y-95800000D01*
X153330000Y-95800000D02*
X153330000Y-95870000D01*
X153330000Y-95870000D02*
X153200000Y-96000000D01*
X153200000Y-96000000D02*
X153330000Y-96083000D01*
X154940000Y-94684000D02*
X154940000Y-95460000D01*
X154940000Y-95460000D02*
X154900000Y-95500000D01*
X154900000Y-95500000D02*
X154940000Y-95716000D01*
X168922000Y-99568000D02*
X168922000Y-99622000D01*
X168922000Y-99622000D02*
X168200000Y-98900000D01*
X155800000Y-95500000D02*
X154900000Y-95500000D01*
X154900000Y-95500000D02*
X153700000Y-95500000D01*
X153700000Y-95500000D02*
X153800000Y-95600000D01*
X153800000Y-95600000D02*
X153800000Y-96000000D01*
X153800000Y-96000000D02*
X153330000Y-96083000D01*
X168910000Y-97016000D02*
X168910000Y-99590000D01*
X168910000Y-99590000D02*
X169500000Y-100180000D01*
X169500000Y-100180000D02*
X169500000Y-100600000D01*
X169500000Y-100600000D02*
X169534000Y-100696000D01*
X156788000Y-111812000D02*
X156800000Y-111800000D01*
X174100000Y-103200000D02*
X174100000Y-101600000D01*
X174100000Y-101600000D02*
X173200000Y-100700000D01*
X172400000Y-100700000D02*
X173200000Y-100700000D01*
X156788000Y-111760000D02*
X156788000Y-111812000D01*
X156788000Y-111760000D02*
X156788000Y-113390000D01*
X172400000Y-100700000D02*
X172466000Y-100596000D01*
X171334000Y-100696000D02*
X172396000Y-100696000D01*
X172396000Y-100696000D02*
X172400000Y-100700000D01*
X172400000Y-100700000D02*
X172466000Y-100596000D01*
X169376000Y-103124000D02*
X169376000Y-102124000D01*
X169376000Y-102124000D02*
X169500000Y-102000000D01*
X169500000Y-102000000D02*
X169534000Y-101996000D01*
X155200000Y-111100000D02*
X155200000Y-112600000D01*
X155200000Y-112600000D02*
X155188000Y-113390000D01*
X155194000Y-111760000D02*
X155188000Y-111760000D01*
X155188000Y-111754000D02*
X155194000Y-111760000D01*
X142400000Y-105700000D02*
X141700000Y-105000000D01*
X141700000Y-105000000D02*
X140300000Y-103600000D01*
X155188000Y-113390000D02*
X155188000Y-111760000D01*
X155188000Y-111760000D02*
X155188000Y-111812000D01*
X155188000Y-111812000D02*
X155200000Y-111800000D01*
X140474000Y-103632000D02*
X140332000Y-103632000D01*
X140332000Y-103632000D02*
X140300000Y-103600000D01*
X140300000Y-103600000D02*
X140300000Y-102200000D01*
X140300000Y-102200000D02*
X140274000Y-102138000D01*
X140300000Y-103600000D02*
X140474000Y-103632000D01*
X140500000Y-103600000D02*
X140474000Y-103632000D01*
D36*
X153588000Y-113390000D02*
X153588000Y-112562000D01*
X153588000Y-112562000D02*
X153650000Y-112500000D01*
X153650000Y-112500000D02*
X153650000Y-111550000D01*
X153650000Y-111550000D02*
X153600000Y-111550000D01*
X153600000Y-111800000D02*
X155300000Y-110100000D01*
X156000000Y-110100000D02*
X155300000Y-110100000D01*
X153600000Y-112500000D02*
X153600000Y-111800000D01*
X153600000Y-111800000D02*
X153600000Y-111550000D01*
X153600000Y-111550000D02*
X153600000Y-110400000D01*
X149200000Y-108800000D02*
X143500000Y-103100000D01*
X152000000Y-108800000D02*
X149200000Y-108800000D01*
X153600000Y-110400000D02*
X152000000Y-108800000D01*
X153600000Y-112500000D02*
X153588000Y-113390000D01*
X171500000Y-104000000D02*
X171500000Y-103100000D01*
X153588000Y-113390000D02*
X153588000Y-112512000D01*
X153600000Y-112600000D02*
X153588000Y-113390000D01*
X142174000Y-102138000D02*
X142174000Y-102474000D01*
X142174000Y-102474000D02*
X142600000Y-102900000D01*
X142600000Y-102900000D02*
X143200000Y-102900000D01*
X143200000Y-102900000D02*
X143256000Y-102928000D01*
X143256000Y-102928000D02*
X143328000Y-102928000D01*
X143328000Y-102928000D02*
X143500000Y-103100000D01*
X143500000Y-103100000D02*
X143256000Y-102928000D01*
X171500000Y-103100000D02*
X171508000Y-103124000D01*
X142200000Y-102100000D02*
X142174000Y-102138000D01*
X171508000Y-103124000D02*
X171508000Y-102208000D01*
X171508000Y-102208000D02*
X171300000Y-102000000D01*
X171300000Y-102000000D02*
X171334000Y-101996000D01*
X152788000Y-113390000D02*
X152788000Y-111812000D01*
X152788000Y-111812000D02*
X152800000Y-111800000D01*
X151988000Y-113390000D02*
X151988000Y-111812000D01*
X151988000Y-111812000D02*
X152000000Y-111800000D01*
X151188000Y-113390000D02*
X151188000Y-111812000D01*
X151188000Y-111812000D02*
X151200000Y-111800000D01*
X150388000Y-113390000D02*
X150388000Y-111812000D01*
X150388000Y-111812000D02*
X150400000Y-111800000D01*
D37*
X148140000Y-91694000D02*
X148140000Y-86672000D01*
X148140000Y-86672000D02*
X148082000Y-86614000D01*
X148082000Y-86614000D02*
X148082000Y-86487000D01*
X160800000Y-105900000D02*
X160800000Y-106450000D01*
X160800000Y-106450000D02*
X160788000Y-107090000D01*
X160800000Y-105850000D02*
X160800000Y-105900000D01*
X160800000Y-105900000D02*
X160800000Y-103950000D01*
X163064000Y-101686000D02*
X160800000Y-103950000D01*
X163064000Y-101686000D02*
X163064000Y-99182000D01*
X160000000Y-105900000D02*
X160000000Y-106600000D01*
X160000000Y-106600000D02*
X159988000Y-107090000D01*
X160000000Y-103750000D02*
X160000000Y-105900000D01*
X160000000Y-105900000D02*
X160000000Y-105850000D01*
X162564000Y-101186000D02*
X160000000Y-103750000D01*
X160000000Y-103750000D02*
X160000000Y-103750000D01*
X162564000Y-99182000D02*
X162564000Y-101186000D01*
X160000000Y-103750000D02*
X160000000Y-103750000D01*
D36*
X162064000Y-99182000D02*
X161818000Y-99182000D01*
X161818000Y-99182000D02*
X158400000Y-102600000D01*
X158400000Y-102600000D02*
X158400000Y-106400000D01*
X158400000Y-106400000D02*
X158388000Y-107090000D01*
D37*
X164000000Y-105900000D02*
X164000000Y-106350000D01*
X164000000Y-106350000D02*
X163988000Y-107090000D01*
X165400000Y-98250000D02*
X165400000Y-100800000D01*
X165182000Y-98032000D02*
X165400000Y-98250000D01*
X164714000Y-98032000D02*
X165182000Y-98032000D01*
X164950000Y-101250000D02*
X164950000Y-102250000D01*
X165400000Y-100800000D02*
X164950000Y-101250000D01*
X165400000Y-103350000D02*
X165400000Y-102700000D01*
X165400000Y-102700000D02*
X164950000Y-102250000D01*
X164950000Y-102250000D02*
X165000000Y-102300000D01*
X164000000Y-104750000D02*
X164000000Y-105900000D01*
X164000000Y-105900000D02*
X164000000Y-105850000D01*
X164000000Y-104750000D02*
X164000000Y-104200000D01*
X164000000Y-104200000D02*
X164450000Y-103750000D01*
X164450000Y-103750000D02*
X165000000Y-103750000D01*
X165000000Y-103750000D02*
X165400000Y-103350000D01*
X165400000Y-103350000D02*
X165400000Y-103350000D01*
X164000000Y-107000000D02*
X163988000Y-107090000D01*
X163982400Y-107086400D02*
X163988000Y-107090000D01*
X163982400Y-106248200D02*
X163988000Y-107090000D01*
X163957000Y-107061000D02*
X163988000Y-107090000D01*
X163957000Y-106934000D02*
X163988000Y-107090000D01*
X164800000Y-105900000D02*
X164800000Y-106350000D01*
X164800000Y-106350000D02*
X164788000Y-107090000D01*
X164714000Y-97532000D02*
X165482000Y-97532000D01*
X164800000Y-104800000D02*
X164800000Y-105900000D01*
X164800000Y-105900000D02*
X164800000Y-105850000D01*
X166000000Y-103600000D02*
X164800000Y-104800000D01*
X166000000Y-98050000D02*
X166000000Y-103600000D01*
X165482000Y-97532000D02*
X166000000Y-98050000D01*
D36*
X164000000Y-102200000D02*
X162400000Y-103800000D01*
X163564000Y-99182000D02*
X163682000Y-99182000D01*
X163682000Y-99182000D02*
X164000000Y-99500000D01*
X164000000Y-99500000D02*
X164000000Y-102200000D01*
X162400000Y-103800000D02*
X162400000Y-106300000D01*
X162400000Y-106300000D02*
X162388000Y-107090000D01*
X146754000Y-102616000D02*
X146784000Y-102616000D01*
X146784000Y-102616000D02*
X147768000Y-103600000D01*
X150400000Y-104700000D02*
X150400000Y-106200000D01*
X149300000Y-103600000D02*
X150400000Y-104700000D01*
X147768000Y-103600000D02*
X149300000Y-103600000D01*
X150400000Y-106200000D02*
X150388000Y-107090000D01*
X146954000Y-101584000D02*
X146916000Y-101584000D01*
X146916000Y-101584000D02*
X146800000Y-101700000D01*
X146800000Y-101700000D02*
X146800000Y-102600000D01*
X146800000Y-102600000D02*
X146754000Y-102616000D01*
X149294000Y-102616000D02*
X149294000Y-102606000D01*
X149294000Y-102606000D02*
X151200000Y-104512000D01*
X151200000Y-104512000D02*
X151200000Y-106300000D01*
X151200000Y-106300000D02*
X151188000Y-107090000D01*
X149494000Y-101584000D02*
X149416000Y-101584000D01*
X149416000Y-101584000D02*
X149300000Y-101700000D01*
X149300000Y-101700000D02*
X149300000Y-102600000D01*
X149300000Y-102600000D02*
X149294000Y-102616000D01*
X152000000Y-102600000D02*
X152000000Y-101800000D01*
X157268000Y-96532000D02*
X152000000Y-101800000D01*
X157268000Y-96532000D02*
X160914000Y-96532000D01*
X152000000Y-102600000D02*
X152000000Y-106300000D01*
X152000000Y-106300000D02*
X151988000Y-107090000D01*
X160914000Y-97532000D02*
X158068000Y-97532000D01*
X153600000Y-102000000D02*
X153600000Y-106200000D01*
X158068000Y-97532000D02*
X153600000Y-102000000D01*
X153600000Y-106200000D02*
X153588000Y-107090000D01*
X160914000Y-97032000D02*
X157668000Y-97032000D01*
X152800000Y-101900000D02*
X152800000Y-106300000D01*
X157668000Y-97032000D02*
X152800000Y-101900000D01*
X152800000Y-106300000D02*
X152788000Y-107090000D01*
X146304000Y-99584000D02*
X146304000Y-98044000D01*
X146304000Y-98044000D02*
X146246000Y-98044000D01*
X148930000Y-96083000D02*
X147317000Y-96083000D01*
X146300000Y-97100000D02*
X146300000Y-99600000D01*
X147317000Y-96083000D02*
X146300000Y-97100000D01*
X146300000Y-99600000D02*
X146304000Y-99584000D01*
X148930000Y-96733000D02*
X148930000Y-99570000D01*
X148930000Y-99570000D02*
X148900000Y-99600000D01*
X148900000Y-99600000D02*
X148844000Y-99584000D01*
X148930000Y-96733000D02*
X148930000Y-98070000D01*
X148930000Y-98070000D02*
X148900000Y-98100000D01*
X148900000Y-98100000D02*
X148902000Y-98044000D01*
D37*
X150114000Y-91752000D02*
X161348000Y-91752000D01*
X163068000Y-93472000D02*
X163068000Y-95250000D01*
X161348000Y-91752000D02*
X163068000Y-93472000D01*
X163068000Y-95250000D02*
X163064000Y-95382000D01*
X150114000Y-91752000D02*
X149156000Y-91752000D01*
X149156000Y-91752000D02*
X149098000Y-91694000D01*
X149098000Y-91694000D02*
X149040000Y-91694000D01*
X156210000Y-93784000D02*
X159454000Y-93784000D01*
X159454000Y-93784000D02*
X159512000Y-93726000D01*
X156210000Y-93784000D02*
X161856000Y-93784000D01*
X162560000Y-94488000D02*
X162560000Y-95250000D01*
X161856000Y-93784000D02*
X162560000Y-94488000D01*
X162560000Y-95250000D02*
X162564000Y-95382000D01*
X159454000Y-93784000D02*
X159512000Y-93726000D01*
X154940000Y-93784000D02*
X153982000Y-93784000D01*
X153982000Y-93784000D02*
X153924000Y-93726000D01*
X153924000Y-93726000D02*
X153866000Y-93726000D01*
X156210000Y-93784000D02*
X153982000Y-93784000D01*
X153982000Y-93784000D02*
X153924000Y-93726000D01*
X153924000Y-93726000D02*
X153866000Y-93726000D01*
X152966000Y-93726000D02*
X152966000Y-94684000D01*
X152966000Y-94684000D02*
X152908000Y-94742000D01*
X152908000Y-94742000D02*
X153330000Y-94783000D01*
D36*
X145288000Y-94430000D02*
X148030000Y-94430000D01*
X148030000Y-94430000D02*
X148400000Y-94800000D01*
X148400000Y-94800000D02*
X148930000Y-94783000D01*
X144018000Y-94430000D02*
X145270000Y-94430000D01*
X145270000Y-94430000D02*
X145300000Y-94400000D01*
X145300000Y-94400000D02*
X145288000Y-94430000D01*
X145288000Y-95308000D02*
X148444800Y-95308000D01*
X148444800Y-95308000D02*
X148615400Y-95478600D01*
X148615400Y-95478600D02*
X148930000Y-95433000D01*
X144018000Y-95308000D02*
X145230000Y-95308000D01*
X145230000Y-95308000D02*
X145237200Y-95300800D01*
X145237200Y-95300800D02*
X145288000Y-95308000D01*
X145230000Y-95308000D02*
X145288000Y-95250000D01*
X145288000Y-95250000D02*
X145288000Y-95308000D01*
X144000000Y-95300000D02*
X144018000Y-95308000D01*
G36*
X154565000Y-111618642D02*
X154544114Y-111668941D01*
X154543886Y-111929914D01*
X154553000Y-111951972D01*
X154553000Y-113390000D01*
X154576243Y-113506853D01*
X154597713Y-113624066D01*
X154599536Y-113626886D01*
X154599536Y-114440000D01*
X154626103Y-114581190D01*
X154642068Y-114606000D01*
X154135702Y-114606000D01*
X154145859Y-114591134D01*
X154176464Y-114440000D01*
X154176464Y-112340000D01*
X154158000Y-112241873D01*
X154158000Y-111960420D01*
X154565000Y-111553420D01*
X154565000Y-111618642D01*
X154565000Y-111618642D01*
G37*
X154565000Y-111618642D02*
X154544114Y-111668941D01*
X154543886Y-111929914D01*
X154553000Y-111951972D01*
X154553000Y-113390000D01*
X154576243Y-113506853D01*
X154597713Y-113624066D01*
X154599536Y-113626886D01*
X154599536Y-114440000D01*
X154626103Y-114581190D01*
X154642068Y-114606000D01*
X154135702Y-114606000D01*
X154145859Y-114591134D01*
X154176464Y-114440000D01*
X154176464Y-112340000D01*
X154158000Y-112241873D01*
X154158000Y-111960420D01*
X154565000Y-111553420D01*
X154565000Y-111618642D01*
G36*
X161765000Y-112495741D02*
X161753058Y-113381439D01*
X161775471Y-113502637D01*
X161797713Y-113624066D01*
X161798012Y-113624529D01*
X161798113Y-113625073D01*
X161799536Y-113627266D01*
X161799536Y-114440000D01*
X161826103Y-114581190D01*
X161842068Y-114606000D01*
X158935702Y-114606000D01*
X158945859Y-114591134D01*
X158976464Y-114440000D01*
X158976464Y-113616807D01*
X159022942Y-113398561D01*
X159034942Y-112508561D01*
X159034150Y-112504276D01*
X159035000Y-112500000D01*
X159035000Y-112063026D01*
X159249013Y-111849013D01*
X159763025Y-111335000D01*
X161765000Y-111335000D01*
X161765000Y-112495741D01*
X161765000Y-112495741D01*
G37*
X161765000Y-112495741D02*
X161753058Y-113381439D01*
X161775471Y-113502637D01*
X161797713Y-113624066D01*
X161798012Y-113624529D01*
X161798113Y-113625073D01*
X161799536Y-113627266D01*
X161799536Y-114440000D01*
X161826103Y-114581190D01*
X161842068Y-114606000D01*
X158935702Y-114606000D01*
X158945859Y-114591134D01*
X158976464Y-114440000D01*
X158976464Y-113616807D01*
X159022942Y-113398561D01*
X159034942Y-112508561D01*
X159034150Y-112504276D01*
X159035000Y-112500000D01*
X159035000Y-112063026D01*
X159249013Y-111849013D01*
X159763025Y-111335000D01*
X161765000Y-111335000D01*
X161765000Y-112495741D01*
G36*
X179122000Y-114606000D02*
X162935702Y-114606000D01*
X162945859Y-114591134D01*
X162976464Y-114440000D01*
X162976464Y-113616807D01*
X162997005Y-113520355D01*
X163022927Y-113399644D01*
X163034927Y-112609645D01*
X163033671Y-112602791D01*
X163034942Y-112508561D01*
X163034150Y-112504276D01*
X163035000Y-112500000D01*
X163035000Y-111335000D01*
X164700000Y-111335000D01*
X164943004Y-111286664D01*
X165149013Y-111149013D01*
X168449013Y-107849013D01*
X168586664Y-107643004D01*
X168635000Y-107400000D01*
X168635000Y-100663026D01*
X168860000Y-100438026D01*
X168865000Y-100443026D01*
X168865000Y-100600000D01*
X168885989Y-100705520D01*
X168901432Y-100811993D01*
X168935432Y-100907993D01*
X169004273Y-101023693D01*
X168976141Y-101064866D01*
X168945536Y-101216000D01*
X168945536Y-101476000D01*
X168972103Y-101617190D01*
X168977068Y-101624906D01*
X168926987Y-101674987D01*
X168789336Y-101880996D01*
X168741000Y-102124000D01*
X168741000Y-102689411D01*
X168718141Y-102722866D01*
X168687536Y-102874000D01*
X168687536Y-103374000D01*
X168714103Y-103515190D01*
X168797546Y-103644865D01*
X168924866Y-103731859D01*
X169076000Y-103762464D01*
X169676000Y-103762464D01*
X169817190Y-103735897D01*
X169946865Y-103652454D01*
X170033859Y-103525134D01*
X170064464Y-103374000D01*
X170064464Y-102874000D01*
X170037897Y-102732810D01*
X170011000Y-102691011D01*
X170011000Y-102407726D01*
X170032400Y-102389474D01*
X170083481Y-102289395D01*
X170091859Y-102277134D01*
X170093253Y-102270251D01*
X170145038Y-102168793D01*
X170164650Y-101921806D01*
X170146561Y-101866000D01*
X170745536Y-101866000D01*
X170745536Y-102126000D01*
X170772103Y-102267190D01*
X170855546Y-102396865D01*
X170982866Y-102483859D01*
X171000000Y-102487329D01*
X171000000Y-102599895D01*
X170950141Y-102672866D01*
X170919536Y-102824000D01*
X170919536Y-103424000D01*
X170946103Y-103565190D01*
X170969934Y-103602225D01*
X170944194Y-103627921D01*
X170844114Y-103868941D01*
X170843886Y-104129914D01*
X170943546Y-104371109D01*
X171127921Y-104555806D01*
X171368941Y-104655886D01*
X171629914Y-104656114D01*
X171871109Y-104556454D01*
X172055806Y-104372079D01*
X172155886Y-104131059D01*
X172156114Y-103870086D01*
X172056454Y-103628891D01*
X172040232Y-103612641D01*
X172065859Y-103575134D01*
X172096464Y-103424000D01*
X172096464Y-102824000D01*
X172069897Y-102682810D01*
X172016000Y-102599051D01*
X172016000Y-102208000D01*
X171977331Y-102013597D01*
X171977331Y-102013596D01*
X171922464Y-101931482D01*
X171922464Y-101866000D01*
X171895897Y-101724810D01*
X171812454Y-101595135D01*
X171685134Y-101508141D01*
X171534000Y-101477536D01*
X171134000Y-101477536D01*
X170992810Y-101504103D01*
X170863135Y-101587546D01*
X170776141Y-101714866D01*
X170745536Y-101866000D01*
X170146561Y-101866000D01*
X170088252Y-101686114D01*
X170067880Y-101662228D01*
X170091859Y-101627134D01*
X170122464Y-101476000D01*
X170122464Y-101216000D01*
X170095897Y-101074810D01*
X170064658Y-101026263D01*
X170107154Y-100969350D01*
X170168132Y-100729206D01*
X170163316Y-100696000D01*
X170699000Y-100696000D01*
X170747336Y-100939004D01*
X170884987Y-101145013D01*
X171090996Y-101282664D01*
X171334000Y-101331000D01*
X171906411Y-101331000D01*
X171939866Y-101353859D01*
X172091000Y-101384464D01*
X172841000Y-101384464D01*
X172963406Y-101361432D01*
X173465000Y-101863026D01*
X173465000Y-103018642D01*
X173444114Y-103068941D01*
X173443886Y-103329914D01*
X173543546Y-103571109D01*
X173727921Y-103755806D01*
X173968941Y-103855886D01*
X174229914Y-103856114D01*
X174471109Y-103756454D01*
X174655806Y-103572079D01*
X174755886Y-103331059D01*
X174756114Y-103070086D01*
X174735000Y-103018986D01*
X174735000Y-101600000D01*
X174686664Y-101356996D01*
X174549013Y-101150987D01*
X173649013Y-100250987D01*
X173443004Y-100113336D01*
X173205002Y-100065995D01*
X173202897Y-100054810D01*
X173119454Y-99925135D01*
X172992134Y-99838141D01*
X172841000Y-99807536D01*
X172091000Y-99807536D01*
X171949810Y-99834103D01*
X171820135Y-99917546D01*
X171733141Y-100044866D01*
X171729874Y-100061000D01*
X171334000Y-100061000D01*
X171090996Y-100109336D01*
X170884987Y-100246987D01*
X170747336Y-100452996D01*
X170699000Y-100696000D01*
X170163316Y-100696000D01*
X170135000Y-100500775D01*
X170135000Y-100180000D01*
X170086664Y-99936996D01*
X169949013Y-99730987D01*
X169710464Y-99492438D01*
X169710464Y-99193000D01*
X169683897Y-99051810D01*
X169600454Y-98922135D01*
X169545000Y-98884245D01*
X169545000Y-97599706D01*
X169630865Y-97544454D01*
X169717859Y-97417134D01*
X169748464Y-97266000D01*
X169748464Y-97214562D01*
X171364010Y-95599015D01*
X171364013Y-95599013D01*
X171501664Y-95393004D01*
X171503381Y-95384373D01*
X171550001Y-95150000D01*
X171550000Y-95149995D01*
X171550000Y-89461928D01*
X171812448Y-89286565D01*
X172079296Y-88887200D01*
X172173000Y-88416117D01*
X172173000Y-88367883D01*
X172079296Y-87896800D01*
X171812448Y-87497435D01*
X171413083Y-87230587D01*
X170942000Y-87136883D01*
X170470917Y-87230587D01*
X170071552Y-87497435D01*
X169804704Y-87896800D01*
X169711000Y-88367883D01*
X169711000Y-88416117D01*
X169804704Y-88887200D01*
X170071552Y-89286565D01*
X170280000Y-89425846D01*
X170280000Y-94886975D01*
X169748464Y-95418511D01*
X169748464Y-95266000D01*
X169721897Y-95124810D01*
X169638454Y-94995135D01*
X169511134Y-94908141D01*
X169360000Y-94877536D01*
X168963023Y-94877536D01*
X168900000Y-94865000D01*
X168848066Y-94875330D01*
X168795136Y-94873718D01*
X168785061Y-94877536D01*
X168460000Y-94877536D01*
X168318810Y-94904103D01*
X168308092Y-94911000D01*
X168074589Y-94911000D01*
X168041134Y-94888141D01*
X167890000Y-94857536D01*
X167390000Y-94857536D01*
X167248810Y-94884103D01*
X167207011Y-94911000D01*
X167058589Y-94911000D01*
X167025134Y-94888141D01*
X166874000Y-94857536D01*
X166374000Y-94857536D01*
X166232810Y-94884103D01*
X166191011Y-94911000D01*
X166042589Y-94911000D01*
X166009134Y-94888141D01*
X165858000Y-94857536D01*
X165358000Y-94857536D01*
X165216810Y-94884103D01*
X165087135Y-94967546D01*
X165000141Y-95094866D01*
X164969536Y-95246000D01*
X164969536Y-95340264D01*
X164931000Y-95534000D01*
X164931000Y-95894747D01*
X164919671Y-95897000D01*
X164714000Y-95897000D01*
X164470996Y-95945336D01*
X164340843Y-96032302D01*
X164272810Y-96045103D01*
X164143135Y-96128546D01*
X164056141Y-96255866D01*
X164025536Y-96407000D01*
X164025536Y-96657000D01*
X164049920Y-96786588D01*
X164025536Y-96907000D01*
X164025536Y-97157000D01*
X164049920Y-97286588D01*
X164025536Y-97407000D01*
X164025536Y-97657000D01*
X164049920Y-97786588D01*
X164025536Y-97907000D01*
X164025536Y-98157000D01*
X164052103Y-98298190D01*
X164135546Y-98427865D01*
X164262866Y-98514859D01*
X164414000Y-98545464D01*
X164521195Y-98545464D01*
X164714000Y-98583815D01*
X164848185Y-98583815D01*
X164848185Y-100571431D01*
X164559808Y-100859808D01*
X164508000Y-100937344D01*
X164508000Y-99500000D01*
X164469331Y-99305597D01*
X164359210Y-99140790D01*
X164072143Y-98853723D01*
X164050897Y-98740810D01*
X163967454Y-98611135D01*
X163840134Y-98524141D01*
X163689000Y-98493536D01*
X163439000Y-98493536D01*
X163309412Y-98517920D01*
X163189000Y-98493536D01*
X162939000Y-98493536D01*
X162809412Y-98517920D01*
X162689000Y-98493536D01*
X162439000Y-98493536D01*
X162309412Y-98517920D01*
X162189000Y-98493536D01*
X161939000Y-98493536D01*
X161797810Y-98520103D01*
X161668135Y-98603546D01*
X161581141Y-98730866D01*
X161578759Y-98742629D01*
X161458790Y-98822790D01*
X158040790Y-102240790D01*
X157930669Y-102405597D01*
X157892000Y-102600000D01*
X157892000Y-105798332D01*
X157830141Y-105888866D01*
X157799536Y-106040000D01*
X157799536Y-108140000D01*
X157826103Y-108281190D01*
X157909546Y-108410865D01*
X158036866Y-108497859D01*
X158188000Y-108528464D01*
X158588000Y-108528464D01*
X158729190Y-108501897D01*
X158858865Y-108418454D01*
X158945859Y-108291134D01*
X158976464Y-108140000D01*
X158976464Y-106040000D01*
X158949897Y-105898810D01*
X158908000Y-105833700D01*
X158908000Y-102810420D01*
X161863288Y-99855132D01*
X161939000Y-99870464D01*
X162012185Y-99870464D01*
X162012185Y-100957431D01*
X159609808Y-103359808D01*
X159490189Y-103538829D01*
X159476908Y-103605597D01*
X159448185Y-103750000D01*
X159448185Y-105862458D01*
X159430141Y-105888866D01*
X159399536Y-106040000D01*
X159399536Y-108140000D01*
X159426103Y-108281190D01*
X159509546Y-108410865D01*
X159636866Y-108497859D01*
X159788000Y-108528464D01*
X160188000Y-108528464D01*
X160329190Y-108501897D01*
X160387686Y-108464256D01*
X160436866Y-108497859D01*
X160588000Y-108528464D01*
X160988000Y-108528464D01*
X161129190Y-108501897D01*
X161258865Y-108418454D01*
X161345859Y-108291134D01*
X161376464Y-108140000D01*
X161376464Y-106040000D01*
X161351815Y-105909003D01*
X161351815Y-104178569D01*
X161942514Y-103587870D01*
X161930669Y-103605597D01*
X161892000Y-103800000D01*
X161892000Y-105798332D01*
X161830141Y-105888866D01*
X161799536Y-106040000D01*
X161799536Y-108140000D01*
X161826103Y-108281190D01*
X161909546Y-108410865D01*
X162036866Y-108497859D01*
X162188000Y-108528464D01*
X162588000Y-108528464D01*
X162729190Y-108501897D01*
X162858865Y-108418454D01*
X162945859Y-108291134D01*
X162976464Y-108140000D01*
X162976464Y-106040000D01*
X162949897Y-105898810D01*
X162908000Y-105833700D01*
X162908000Y-104010420D01*
X164359210Y-102559210D01*
X164436640Y-102443328D01*
X164440189Y-102461171D01*
X164559808Y-102640192D01*
X164848185Y-102928569D01*
X164848185Y-103121431D01*
X164771431Y-103198185D01*
X164450000Y-103198185D01*
X164238830Y-103240189D01*
X164102834Y-103331059D01*
X164059808Y-103359808D01*
X163609808Y-103809808D01*
X163490189Y-103988829D01*
X163450838Y-104186664D01*
X163448185Y-104200000D01*
X163448185Y-105862458D01*
X163430141Y-105888866D01*
X163399536Y-106040000D01*
X163399536Y-108140000D01*
X163426103Y-108281190D01*
X163509546Y-108410865D01*
X163636866Y-108497859D01*
X163788000Y-108528464D01*
X164188000Y-108528464D01*
X164329190Y-108501897D01*
X164387686Y-108464256D01*
X164436866Y-108497859D01*
X164588000Y-108528464D01*
X164988000Y-108528464D01*
X165129190Y-108501897D01*
X165258865Y-108418454D01*
X165345859Y-108291134D01*
X165376464Y-108140000D01*
X165376464Y-106040000D01*
X165351815Y-105909003D01*
X165351815Y-105028569D01*
X166390192Y-103990192D01*
X166410894Y-103959210D01*
X166509811Y-103811170D01*
X166551815Y-103600000D01*
X166551815Y-98050000D01*
X166542134Y-98001331D01*
X166509811Y-97838829D01*
X166390192Y-97659808D01*
X165885230Y-97154846D01*
X166007190Y-97131897D01*
X166136865Y-97048454D01*
X166223859Y-96921134D01*
X166254464Y-96770000D01*
X166254464Y-96270000D01*
X166242777Y-96207891D01*
X166374000Y-96234464D01*
X166874000Y-96234464D01*
X167015190Y-96207897D01*
X167056989Y-96181000D01*
X167205411Y-96181000D01*
X167238866Y-96203859D01*
X167390000Y-96234464D01*
X167597300Y-96234464D01*
X167600000Y-96235001D01*
X167602700Y-96234464D01*
X167890000Y-96234464D01*
X168031190Y-96207897D01*
X168072989Y-96181000D01*
X168854000Y-96181000D01*
X168987407Y-96154464D01*
X169012510Y-96154464D01*
X168789438Y-96377536D01*
X168460000Y-96377536D01*
X168318810Y-96404103D01*
X168189135Y-96487546D01*
X168102141Y-96614866D01*
X168071536Y-96766000D01*
X168071536Y-97266000D01*
X168098103Y-97407190D01*
X168181546Y-97536865D01*
X168275000Y-97600719D01*
X168275000Y-98244065D01*
X168070086Y-98243886D01*
X167828891Y-98343546D01*
X167644194Y-98527921D01*
X167544114Y-98768941D01*
X167543886Y-99029914D01*
X167643546Y-99271109D01*
X167827921Y-99455806D01*
X167878983Y-99477009D01*
X167951974Y-99550000D01*
X167550987Y-99950987D01*
X167413336Y-100156996D01*
X167365000Y-100400000D01*
X167365000Y-107136974D01*
X164436974Y-110065000D01*
X159500000Y-110065000D01*
X159256995Y-110113336D01*
X159174480Y-110168472D01*
X159050987Y-110250987D01*
X159050985Y-110250990D01*
X158350987Y-110950987D01*
X157950987Y-111350987D01*
X157813336Y-111556996D01*
X157765000Y-111800000D01*
X157765000Y-112495741D01*
X157753058Y-113381439D01*
X157798113Y-113625073D01*
X157799536Y-113627266D01*
X157799536Y-114440000D01*
X157826103Y-114581190D01*
X157842068Y-114606000D01*
X157335702Y-114606000D01*
X157345859Y-114591134D01*
X157376464Y-114440000D01*
X157376464Y-113623955D01*
X157423000Y-113390000D01*
X157423000Y-112010257D01*
X157455886Y-111931059D01*
X157456114Y-111670086D01*
X157356454Y-111428891D01*
X157172079Y-111244194D01*
X157079547Y-111205771D01*
X157031004Y-111173336D01*
X156974244Y-111162046D01*
X156931059Y-111144114D01*
X156883886Y-111144073D01*
X156788000Y-111125000D01*
X156692952Y-111143906D01*
X156670086Y-111143886D01*
X156648767Y-111152695D01*
X156544996Y-111173336D01*
X156457790Y-111231605D01*
X156428891Y-111243546D01*
X156406566Y-111265832D01*
X156338987Y-111310987D01*
X156294227Y-111377976D01*
X156244194Y-111427921D01*
X156216845Y-111493786D01*
X156201336Y-111516996D01*
X156195938Y-111544135D01*
X156144114Y-111668941D01*
X156143886Y-111929914D01*
X156153000Y-111951972D01*
X156153000Y-113390000D01*
X156199536Y-113623955D01*
X156199536Y-114440000D01*
X156226103Y-114581190D01*
X156242068Y-114606000D01*
X155735702Y-114606000D01*
X155745859Y-114591134D01*
X155776464Y-114440000D01*
X155776464Y-113623955D01*
X155797906Y-113516156D01*
X155822927Y-113399644D01*
X155834927Y-112609645D01*
X155834042Y-112604815D01*
X155835000Y-112600000D01*
X155835000Y-111981358D01*
X155855886Y-111931059D01*
X155856114Y-111670086D01*
X155835000Y-111618986D01*
X155835000Y-111181358D01*
X155855886Y-111131059D01*
X155856114Y-110870086D01*
X155796498Y-110725805D01*
X155868941Y-110755886D01*
X156129914Y-110756114D01*
X156371109Y-110656454D01*
X156555806Y-110472079D01*
X156655886Y-110231059D01*
X156656114Y-109970086D01*
X156556454Y-109728891D01*
X156372079Y-109544194D01*
X156131059Y-109444114D01*
X155870086Y-109443886D01*
X155628891Y-109543546D01*
X155580352Y-109592000D01*
X155300000Y-109592000D01*
X155105597Y-109630669D01*
X154940790Y-109740790D01*
X154108000Y-110573580D01*
X154108000Y-110400000D01*
X154069331Y-110205597D01*
X153959210Y-110040790D01*
X152384638Y-108466218D01*
X152387686Y-108464256D01*
X152436866Y-108497859D01*
X152588000Y-108528464D01*
X152988000Y-108528464D01*
X153129190Y-108501897D01*
X153187686Y-108464256D01*
X153236866Y-108497859D01*
X153388000Y-108528464D01*
X153788000Y-108528464D01*
X153929190Y-108501897D01*
X154058865Y-108418454D01*
X154145859Y-108291134D01*
X154176464Y-108140000D01*
X154176464Y-106040000D01*
X154149897Y-105898810D01*
X154108000Y-105833700D01*
X154108000Y-102210420D01*
X158278420Y-98040000D01*
X159861974Y-98040000D01*
X159826438Y-98075536D01*
X159770000Y-98075536D01*
X159628810Y-98102103D01*
X159587011Y-98129000D01*
X159136000Y-98129000D01*
X158942264Y-98167536D01*
X158746000Y-98167536D01*
X158604810Y-98194103D01*
X158475135Y-98277546D01*
X158388141Y-98404866D01*
X158357536Y-98556000D01*
X158357536Y-99056000D01*
X158384103Y-99197190D01*
X158411000Y-99238989D01*
X158411000Y-99387411D01*
X158388141Y-99420866D01*
X158357536Y-99572000D01*
X158357536Y-99644438D01*
X157802438Y-100199536D01*
X157730000Y-100199536D01*
X157588810Y-100226103D01*
X157459135Y-100309546D01*
X157372141Y-100436866D01*
X157341536Y-100588000D01*
X157341536Y-100660438D01*
X156979226Y-101022748D01*
X156928891Y-101043546D01*
X156744194Y-101227921D01*
X156644114Y-101468941D01*
X156643886Y-101729914D01*
X156743546Y-101971109D01*
X156927921Y-102155806D01*
X157168941Y-102255886D01*
X157429914Y-102256114D01*
X157671109Y-102156454D01*
X157855806Y-101972079D01*
X157877009Y-101921017D01*
X158321562Y-101476464D01*
X158330000Y-101476464D01*
X158471190Y-101449897D01*
X158600865Y-101366454D01*
X158687859Y-101239134D01*
X158718464Y-101088000D01*
X158718464Y-101079562D01*
X159337562Y-100460464D01*
X159346000Y-100460464D01*
X159487190Y-100433897D01*
X159616865Y-100350454D01*
X159703859Y-100223134D01*
X159734464Y-100072000D01*
X159734464Y-99572000D01*
X159709673Y-99440248D01*
X159770000Y-99452464D01*
X160270000Y-99452464D01*
X160411190Y-99425897D01*
X160540865Y-99342454D01*
X160627859Y-99215134D01*
X160658464Y-99064000D01*
X160658464Y-99039562D01*
X161039672Y-98658354D01*
X161106301Y-98637182D01*
X161302943Y-98528728D01*
X161355190Y-98518897D01*
X161484865Y-98435454D01*
X161571859Y-98308134D01*
X161602464Y-98157000D01*
X161602464Y-97907000D01*
X161578080Y-97777412D01*
X161602464Y-97657000D01*
X161602464Y-97407000D01*
X161578080Y-97277412D01*
X161602464Y-97157000D01*
X161602464Y-96907000D01*
X161578080Y-96777412D01*
X161602464Y-96657000D01*
X161602464Y-96407000D01*
X161575897Y-96265810D01*
X161492454Y-96136135D01*
X161365134Y-96049141D01*
X161214000Y-96018536D01*
X160614000Y-96018536D01*
X160584962Y-96024000D01*
X157268000Y-96024000D01*
X157073597Y-96062669D01*
X156908790Y-96172790D01*
X151643068Y-101438512D01*
X151556454Y-101228891D01*
X151372079Y-101044194D01*
X151321017Y-101022991D01*
X150349013Y-100050987D01*
X150143004Y-99913336D01*
X149900000Y-99865000D01*
X149457464Y-99865000D01*
X149457464Y-99234000D01*
X149438000Y-99130559D01*
X149438000Y-98693068D01*
X149450866Y-98701859D01*
X149602000Y-98732464D01*
X150002000Y-98732464D01*
X150143190Y-98705897D01*
X150272865Y-98622454D01*
X150359859Y-98495134D01*
X150374324Y-98423702D01*
X151220772Y-97577253D01*
X151271109Y-97556454D01*
X151455806Y-97372079D01*
X151477009Y-97321017D01*
X152284501Y-96513525D01*
X152326546Y-96578865D01*
X152453866Y-96665859D01*
X152605000Y-96696464D01*
X153177895Y-96696464D01*
X153192723Y-96702984D01*
X153206384Y-96703278D01*
X153219115Y-96708244D01*
X153329783Y-96705939D01*
X153440430Y-96708324D01*
X153507589Y-96696464D01*
X154055000Y-96696464D01*
X154196190Y-96669897D01*
X154325865Y-96586454D01*
X154412859Y-96459134D01*
X154443344Y-96308592D01*
X154538866Y-96373859D01*
X154690000Y-96404464D01*
X155190000Y-96404464D01*
X155331190Y-96377897D01*
X155460865Y-96294454D01*
X155547859Y-96167134D01*
X155554366Y-96135000D01*
X155618642Y-96135000D01*
X155668941Y-96155886D01*
X155929914Y-96156114D01*
X156171109Y-96056454D01*
X156355806Y-95872079D01*
X156455886Y-95631059D01*
X156456114Y-95370086D01*
X156356454Y-95128891D01*
X156172079Y-94944194D01*
X155931059Y-94844114D01*
X155670086Y-94843886D01*
X155628464Y-94861084D01*
X155628464Y-94484000D01*
X155601897Y-94342810D01*
X155597396Y-94335815D01*
X155750020Y-94335815D01*
X155758866Y-94341859D01*
X155910000Y-94372464D01*
X156510000Y-94372464D01*
X156651190Y-94345897D01*
X156666858Y-94335815D01*
X158540226Y-94335815D01*
X158552625Y-94365823D01*
X158870503Y-94684256D01*
X159286043Y-94856804D01*
X159735983Y-94857196D01*
X160151823Y-94685375D01*
X160470256Y-94367497D01*
X160483412Y-94335815D01*
X161627431Y-94335815D01*
X162008185Y-94716569D01*
X162008185Y-95250000D01*
X162009843Y-95258333D01*
X162008438Y-95266714D01*
X162012438Y-95398714D01*
X162050536Y-95563923D01*
X162050536Y-95682000D01*
X162077103Y-95823190D01*
X162160546Y-95952865D01*
X162287866Y-96039859D01*
X162439000Y-96070464D01*
X162689000Y-96070464D01*
X162818588Y-96046080D01*
X162939000Y-96070464D01*
X163189000Y-96070464D01*
X163330190Y-96043897D01*
X163459865Y-95960454D01*
X163546859Y-95833134D01*
X163577464Y-95682000D01*
X163577464Y-95563923D01*
X163615562Y-95398714D01*
X163619562Y-95266714D01*
X163618157Y-95258333D01*
X163619815Y-95250000D01*
X163619815Y-93472000D01*
X163577811Y-93260830D01*
X163458192Y-93081808D01*
X161738192Y-91361808D01*
X161559171Y-91242189D01*
X161348000Y-91200185D01*
X150573980Y-91200185D01*
X150565134Y-91194141D01*
X150414000Y-91163536D01*
X149814000Y-91163536D01*
X149672810Y-91190103D01*
X149657142Y-91200185D01*
X149568034Y-91200185D01*
X149518454Y-91123135D01*
X149391134Y-91036141D01*
X149240000Y-91005536D01*
X148840000Y-91005536D01*
X148698810Y-91032103D01*
X148691815Y-91036604D01*
X148691815Y-87891574D01*
X148948109Y-87785675D01*
X149192209Y-87542000D01*
X154463536Y-87542000D01*
X154463536Y-89242000D01*
X154490103Y-89383190D01*
X154573546Y-89512865D01*
X154700866Y-89599859D01*
X154852000Y-89630464D01*
X156552000Y-89630464D01*
X156693190Y-89603897D01*
X156822865Y-89520454D01*
X156909859Y-89393134D01*
X156940464Y-89242000D01*
X156940464Y-88367883D01*
X157011000Y-88367883D01*
X157011000Y-88416117D01*
X157104704Y-88887200D01*
X157371552Y-89286565D01*
X157770917Y-89553413D01*
X158242000Y-89647117D01*
X158713083Y-89553413D01*
X159112448Y-89286565D01*
X159379296Y-88887200D01*
X159473000Y-88416117D01*
X159473000Y-88367883D01*
X159551000Y-88367883D01*
X159551000Y-88416117D01*
X159644704Y-88887200D01*
X159911552Y-89286565D01*
X160310917Y-89553413D01*
X160782000Y-89647117D01*
X161253083Y-89553413D01*
X161652448Y-89286565D01*
X161919296Y-88887200D01*
X162013000Y-88416117D01*
X162013000Y-88367883D01*
X162091000Y-88367883D01*
X162091000Y-88416117D01*
X162184704Y-88887200D01*
X162451552Y-89286565D01*
X162850917Y-89553413D01*
X163322000Y-89647117D01*
X163793083Y-89553413D01*
X164192448Y-89286565D01*
X164459296Y-88887200D01*
X164553000Y-88416117D01*
X164553000Y-88367883D01*
X164631000Y-88367883D01*
X164631000Y-88416117D01*
X164724704Y-88887200D01*
X164991552Y-89286565D01*
X165390917Y-89553413D01*
X165862000Y-89647117D01*
X166333083Y-89553413D01*
X166732448Y-89286565D01*
X166999296Y-88887200D01*
X167093000Y-88416117D01*
X167093000Y-88367883D01*
X167171000Y-88367883D01*
X167171000Y-88416117D01*
X167264704Y-88887200D01*
X167531552Y-89286565D01*
X167930917Y-89553413D01*
X168402000Y-89647117D01*
X168873083Y-89553413D01*
X169272448Y-89286565D01*
X169539296Y-88887200D01*
X169633000Y-88416117D01*
X169633000Y-88367883D01*
X169539296Y-87896800D01*
X169272448Y-87497435D01*
X168873083Y-87230587D01*
X168402000Y-87136883D01*
X167930917Y-87230587D01*
X167531552Y-87497435D01*
X167264704Y-87896800D01*
X167171000Y-88367883D01*
X167093000Y-88367883D01*
X166999296Y-87896800D01*
X166732448Y-87497435D01*
X166333083Y-87230587D01*
X165862000Y-87136883D01*
X165390917Y-87230587D01*
X164991552Y-87497435D01*
X164724704Y-87896800D01*
X164631000Y-88367883D01*
X164553000Y-88367883D01*
X164459296Y-87896800D01*
X164192448Y-87497435D01*
X163793083Y-87230587D01*
X163322000Y-87136883D01*
X162850917Y-87230587D01*
X162451552Y-87497435D01*
X162184704Y-87896800D01*
X162091000Y-88367883D01*
X162013000Y-88367883D01*
X161919296Y-87896800D01*
X161652448Y-87497435D01*
X161253083Y-87230587D01*
X160782000Y-87136883D01*
X160310917Y-87230587D01*
X159911552Y-87497435D01*
X159644704Y-87896800D01*
X159551000Y-88367883D01*
X159473000Y-88367883D01*
X159379296Y-87896800D01*
X159112448Y-87497435D01*
X158713083Y-87230587D01*
X158242000Y-87136883D01*
X157770917Y-87230587D01*
X157371552Y-87497435D01*
X157104704Y-87896800D01*
X157011000Y-88367883D01*
X156940464Y-88367883D01*
X156940464Y-87542000D01*
X156913897Y-87400810D01*
X156830454Y-87271135D01*
X156703134Y-87184141D01*
X156552000Y-87153536D01*
X154852000Y-87153536D01*
X154710810Y-87180103D01*
X154581135Y-87263546D01*
X154494141Y-87390866D01*
X154463536Y-87542000D01*
X149192209Y-87542000D01*
X149379162Y-87355374D01*
X149612734Y-86792871D01*
X149613265Y-86183801D01*
X149466203Y-85827883D01*
X154471000Y-85827883D01*
X154471000Y-85876117D01*
X154564704Y-86347200D01*
X154831552Y-86746565D01*
X155230917Y-87013413D01*
X155702000Y-87107117D01*
X156173083Y-87013413D01*
X156572448Y-86746565D01*
X156839296Y-86347200D01*
X156933000Y-85876117D01*
X156933000Y-85827883D01*
X157011000Y-85827883D01*
X157011000Y-85876117D01*
X157104704Y-86347200D01*
X157371552Y-86746565D01*
X157770917Y-87013413D01*
X158242000Y-87107117D01*
X158713083Y-87013413D01*
X159112448Y-86746565D01*
X159379296Y-86347200D01*
X159473000Y-85876117D01*
X159473000Y-85827883D01*
X159551000Y-85827883D01*
X159551000Y-85876117D01*
X159644704Y-86347200D01*
X159911552Y-86746565D01*
X160310917Y-87013413D01*
X160782000Y-87107117D01*
X161253083Y-87013413D01*
X161652448Y-86746565D01*
X161919296Y-86347200D01*
X162013000Y-85876117D01*
X162013000Y-85827883D01*
X162091000Y-85827883D01*
X162091000Y-85876117D01*
X162184704Y-86347200D01*
X162451552Y-86746565D01*
X162850917Y-87013413D01*
X163322000Y-87107117D01*
X163793083Y-87013413D01*
X164192448Y-86746565D01*
X164459296Y-86347200D01*
X164553000Y-85876117D01*
X164553000Y-85827883D01*
X164631000Y-85827883D01*
X164631000Y-85876117D01*
X164724704Y-86347200D01*
X164991552Y-86746565D01*
X165390917Y-87013413D01*
X165862000Y-87107117D01*
X166333083Y-87013413D01*
X166732448Y-86746565D01*
X166999296Y-86347200D01*
X167093000Y-85876117D01*
X167093000Y-85827883D01*
X166999296Y-85356800D01*
X166732448Y-84957435D01*
X166333083Y-84690587D01*
X165862000Y-84596883D01*
X165390917Y-84690587D01*
X164991552Y-84957435D01*
X164724704Y-85356800D01*
X164631000Y-85827883D01*
X164553000Y-85827883D01*
X164459296Y-85356800D01*
X164192448Y-84957435D01*
X163793083Y-84690587D01*
X163322000Y-84596883D01*
X162850917Y-84690587D01*
X162451552Y-84957435D01*
X162184704Y-85356800D01*
X162091000Y-85827883D01*
X162013000Y-85827883D01*
X161919296Y-85356800D01*
X161652448Y-84957435D01*
X161253083Y-84690587D01*
X160782000Y-84596883D01*
X160310917Y-84690587D01*
X159911552Y-84957435D01*
X159644704Y-85356800D01*
X159551000Y-85827883D01*
X159473000Y-85827883D01*
X159379296Y-85356800D01*
X159112448Y-84957435D01*
X158713083Y-84690587D01*
X158242000Y-84596883D01*
X157770917Y-84690587D01*
X157371552Y-84957435D01*
X157104704Y-85356800D01*
X157011000Y-85827883D01*
X156933000Y-85827883D01*
X156839296Y-85356800D01*
X156572448Y-84957435D01*
X156173083Y-84690587D01*
X155702000Y-84596883D01*
X155230917Y-84690587D01*
X154831552Y-84957435D01*
X154564704Y-85356800D01*
X154471000Y-85827883D01*
X149466203Y-85827883D01*
X149380675Y-85620891D01*
X148950374Y-85189838D01*
X148387871Y-84956266D01*
X147778801Y-84955735D01*
X147215891Y-85188325D01*
X146784838Y-85618626D01*
X146551266Y-86181129D01*
X146550735Y-86790199D01*
X146783325Y-87353109D01*
X147213626Y-87784162D01*
X147588185Y-87939693D01*
X147588185Y-91234020D01*
X147582141Y-91242866D01*
X147551536Y-91394000D01*
X147551536Y-91994000D01*
X147578103Y-92135190D01*
X147661546Y-92264865D01*
X147788866Y-92351859D01*
X147940000Y-92382464D01*
X148340000Y-92382464D01*
X148481190Y-92355897D01*
X148591186Y-92285117D01*
X148688866Y-92351859D01*
X148840000Y-92382464D01*
X149240000Y-92382464D01*
X149381190Y-92355897D01*
X149454557Y-92308687D01*
X149425536Y-92452000D01*
X149425536Y-92852000D01*
X149427982Y-92865000D01*
X145300000Y-92865000D01*
X145296134Y-92865769D01*
X145292258Y-92865047D01*
X145174789Y-92889906D01*
X145056996Y-92913336D01*
X145053717Y-92915527D01*
X145049861Y-92916343D01*
X145013134Y-92941536D01*
X144988000Y-92941536D01*
X144846810Y-92968103D01*
X144717135Y-93051546D01*
X144630141Y-93178866D01*
X144599536Y-93330000D01*
X144599536Y-93730000D01*
X144626103Y-93871190D01*
X144658798Y-93922000D01*
X144542105Y-93922000D01*
X144469134Y-93872141D01*
X144318000Y-93841536D01*
X143718000Y-93841536D01*
X143576810Y-93868103D01*
X143447135Y-93951546D01*
X143360141Y-94078866D01*
X143329536Y-94230000D01*
X143329536Y-94630000D01*
X143356103Y-94771190D01*
X143419592Y-94869856D01*
X143360141Y-94956866D01*
X143329536Y-95108000D01*
X143329536Y-95508000D01*
X143356103Y-95649190D01*
X143439546Y-95778865D01*
X143566866Y-95865859D01*
X143718000Y-95896464D01*
X144318000Y-95896464D01*
X144459190Y-95869897D01*
X144542949Y-95816000D01*
X144658064Y-95816000D01*
X144630141Y-95856866D01*
X144599536Y-96008000D01*
X144599536Y-96408000D01*
X144626103Y-96549190D01*
X144665000Y-96609638D01*
X144665000Y-96818642D01*
X144644114Y-96868941D01*
X144643886Y-97129914D01*
X144665000Y-97181014D01*
X144665000Y-98000000D01*
X144666400Y-98007037D01*
X144665156Y-98014108D01*
X144690520Y-98128298D01*
X144713336Y-98243004D01*
X144717324Y-98248972D01*
X144718880Y-98255978D01*
X144757536Y-98311137D01*
X144757536Y-98344000D01*
X144784103Y-98485190D01*
X144867546Y-98614865D01*
X144994866Y-98701859D01*
X145146000Y-98732464D01*
X145546000Y-98732464D01*
X145687190Y-98705897D01*
X145792000Y-98638454D01*
X145792000Y-98979160D01*
X145721141Y-99082866D01*
X145690536Y-99234000D01*
X145690536Y-99865000D01*
X144131975Y-99865000D01*
X144119897Y-99800810D01*
X144036454Y-99671135D01*
X143909134Y-99584141D01*
X143758000Y-99553536D01*
X143008000Y-99553536D01*
X142866810Y-99580103D01*
X142862464Y-99582900D01*
X142862464Y-98988000D01*
X142835897Y-98846810D01*
X142752454Y-98717135D01*
X142625134Y-98630141D01*
X142474000Y-98599536D01*
X141874000Y-98599536D01*
X141732810Y-98626103D01*
X141603135Y-98709546D01*
X141516141Y-98836866D01*
X141485536Y-98988000D01*
X141485536Y-99865000D01*
X141463026Y-99865000D01*
X140962464Y-99364438D01*
X140962464Y-98988000D01*
X140935897Y-98846810D01*
X140852454Y-98717135D01*
X140725134Y-98630141D01*
X140574000Y-98599536D01*
X139974000Y-98599536D01*
X139832810Y-98626103D01*
X139703135Y-98709546D01*
X139616141Y-98836866D01*
X139585536Y-98988000D01*
X139585536Y-100088000D01*
X139612103Y-100229190D01*
X139695546Y-100358865D01*
X139822866Y-100445859D01*
X139974000Y-100476464D01*
X140278438Y-100476464D01*
X140750987Y-100949013D01*
X140956996Y-101086664D01*
X141200000Y-101135000D01*
X143399995Y-101135000D01*
X143400000Y-101135001D01*
X143400005Y-101135000D01*
X145060584Y-101135000D01*
X145040536Y-101234000D01*
X145040536Y-101934000D01*
X145065000Y-102064014D01*
X145065000Y-102500000D01*
X145073723Y-102543855D01*
X145071197Y-102588498D01*
X145097676Y-102664275D01*
X145113336Y-102743004D01*
X145138178Y-102780182D01*
X145152928Y-102822394D01*
X145206390Y-102882269D01*
X145250987Y-102949013D01*
X145274733Y-102964880D01*
X145292103Y-103057190D01*
X145375546Y-103186865D01*
X145502866Y-103273859D01*
X145654000Y-103304464D01*
X146054000Y-103304464D01*
X146195190Y-103277897D01*
X146305186Y-103207117D01*
X146402866Y-103273859D01*
X146554000Y-103304464D01*
X146754044Y-103304464D01*
X147408790Y-103959210D01*
X147573596Y-104069331D01*
X147768000Y-104108000D01*
X149089580Y-104108000D01*
X149892000Y-104910420D01*
X149892000Y-105798332D01*
X149830141Y-105888866D01*
X149799536Y-106040000D01*
X149799536Y-108140000D01*
X149826103Y-108281190D01*
X149833059Y-108292000D01*
X149410420Y-108292000D01*
X143944464Y-102826044D01*
X143944464Y-102728000D01*
X143917897Y-102586810D01*
X143834454Y-102457135D01*
X143707134Y-102370141D01*
X143556000Y-102339536D01*
X142956000Y-102339536D01*
X142862464Y-102357136D01*
X142862464Y-101588000D01*
X142835897Y-101446810D01*
X142752454Y-101317135D01*
X142625134Y-101230141D01*
X142474000Y-101199536D01*
X141874000Y-101199536D01*
X141732810Y-101226103D01*
X141603135Y-101309546D01*
X141516141Y-101436866D01*
X141485536Y-101588000D01*
X141485536Y-102688000D01*
X141512103Y-102829190D01*
X141595546Y-102958865D01*
X141722866Y-103045859D01*
X141874000Y-103076464D01*
X142058044Y-103076464D01*
X142240790Y-103259210D01*
X142405597Y-103369331D01*
X142600000Y-103408000D01*
X142690916Y-103408000D01*
X142804866Y-103485859D01*
X142956000Y-103516464D01*
X143198044Y-103516464D01*
X148840790Y-109159210D01*
X149005596Y-109269331D01*
X149037850Y-109275746D01*
X149200000Y-109308000D01*
X151789580Y-109308000D01*
X153092000Y-110610420D01*
X153092000Y-111210942D01*
X152931059Y-111144114D01*
X152670086Y-111143886D01*
X152428891Y-111243546D01*
X152400111Y-111272275D01*
X152372079Y-111244194D01*
X152131059Y-111144114D01*
X151870086Y-111143886D01*
X151628891Y-111243546D01*
X151600111Y-111272275D01*
X151572079Y-111244194D01*
X151331059Y-111144114D01*
X151070086Y-111143886D01*
X150828891Y-111243546D01*
X150800111Y-111272275D01*
X150772079Y-111244194D01*
X150531059Y-111144114D01*
X150270086Y-111143886D01*
X150028891Y-111243546D01*
X149844194Y-111427921D01*
X149744114Y-111668941D01*
X149743886Y-111929914D01*
X149843067Y-112169949D01*
X149830141Y-112188866D01*
X149799536Y-112340000D01*
X149799536Y-114440000D01*
X149826103Y-114581190D01*
X149842068Y-114606000D01*
X136854000Y-114606000D01*
X136854000Y-101588000D01*
X139585536Y-101588000D01*
X139585536Y-102688000D01*
X139612103Y-102829190D01*
X139665000Y-102911395D01*
X139665000Y-103600000D01*
X139678088Y-103665800D01*
X139679059Y-103732883D01*
X139685536Y-103747901D01*
X139685536Y-104007000D01*
X139712103Y-104148190D01*
X139795546Y-104277865D01*
X139922866Y-104364859D01*
X140074000Y-104395464D01*
X140197438Y-104395464D01*
X141822747Y-106020773D01*
X141843546Y-106071109D01*
X142027921Y-106255806D01*
X142268941Y-106355886D01*
X142529914Y-106356114D01*
X142771109Y-106256454D01*
X142955806Y-106072079D01*
X143055886Y-105831059D01*
X143056114Y-105570086D01*
X142956454Y-105328891D01*
X142772079Y-105144194D01*
X142721016Y-105122991D01*
X142149013Y-104550987D01*
X141262464Y-103664438D01*
X141262464Y-103257000D01*
X141235897Y-103115810D01*
X141152454Y-102986135D01*
X141025134Y-102899141D01*
X140935000Y-102880889D01*
X140935000Y-102823623D01*
X140962464Y-102688000D01*
X140962464Y-101588000D01*
X140935897Y-101446810D01*
X140852454Y-101317135D01*
X140725134Y-101230141D01*
X140574000Y-101199536D01*
X139974000Y-101199536D01*
X139832810Y-101226103D01*
X139703135Y-101309546D01*
X139616141Y-101436866D01*
X139585536Y-101588000D01*
X136854000Y-101588000D01*
X136854000Y-82498000D01*
X179122000Y-82498000D01*
X179122000Y-114606000D01*
X179122000Y-114606000D01*
G37*
X179122000Y-114606000D02*
X162935702Y-114606000D01*
X162945859Y-114591134D01*
X162976464Y-114440000D01*
X162976464Y-113616807D01*
X162997005Y-113520355D01*
X163022927Y-113399644D01*
X163034927Y-112609645D01*
X163033671Y-112602791D01*
X163034942Y-112508561D01*
X163034150Y-112504276D01*
X163035000Y-112500000D01*
X163035000Y-111335000D01*
X164700000Y-111335000D01*
X164943004Y-111286664D01*
X165149013Y-111149013D01*
X168449013Y-107849013D01*
X168586664Y-107643004D01*
X168635000Y-107400000D01*
X168635000Y-100663026D01*
X168860000Y-100438026D01*
X168865000Y-100443026D01*
X168865000Y-100600000D01*
X168885989Y-100705520D01*
X168901432Y-100811993D01*
X168935432Y-100907993D01*
X169004273Y-101023693D01*
X168976141Y-101064866D01*
X168945536Y-101216000D01*
X168945536Y-101476000D01*
X168972103Y-101617190D01*
X168977068Y-101624906D01*
X168926987Y-101674987D01*
X168789336Y-101880996D01*
X168741000Y-102124000D01*
X168741000Y-102689411D01*
X168718141Y-102722866D01*
X168687536Y-102874000D01*
X168687536Y-103374000D01*
X168714103Y-103515190D01*
X168797546Y-103644865D01*
X168924866Y-103731859D01*
X169076000Y-103762464D01*
X169676000Y-103762464D01*
X169817190Y-103735897D01*
X169946865Y-103652454D01*
X170033859Y-103525134D01*
X170064464Y-103374000D01*
X170064464Y-102874000D01*
X170037897Y-102732810D01*
X170011000Y-102691011D01*
X170011000Y-102407726D01*
X170032400Y-102389474D01*
X170083481Y-102289395D01*
X170091859Y-102277134D01*
X170093253Y-102270251D01*
X170145038Y-102168793D01*
X170164650Y-101921806D01*
X170146561Y-101866000D01*
X170745536Y-101866000D01*
X170745536Y-102126000D01*
X170772103Y-102267190D01*
X170855546Y-102396865D01*
X170982866Y-102483859D01*
X171000000Y-102487329D01*
X171000000Y-102599895D01*
X170950141Y-102672866D01*
X170919536Y-102824000D01*
X170919536Y-103424000D01*
X170946103Y-103565190D01*
X170969934Y-103602225D01*
X170944194Y-103627921D01*
X170844114Y-103868941D01*
X170843886Y-104129914D01*
X170943546Y-104371109D01*
X171127921Y-104555806D01*
X171368941Y-104655886D01*
X171629914Y-104656114D01*
X171871109Y-104556454D01*
X172055806Y-104372079D01*
X172155886Y-104131059D01*
X172156114Y-103870086D01*
X172056454Y-103628891D01*
X172040232Y-103612641D01*
X172065859Y-103575134D01*
X172096464Y-103424000D01*
X172096464Y-102824000D01*
X172069897Y-102682810D01*
X172016000Y-102599051D01*
X172016000Y-102208000D01*
X171977331Y-102013597D01*
X171977331Y-102013596D01*
X171922464Y-101931482D01*
X171922464Y-101866000D01*
X171895897Y-101724810D01*
X171812454Y-101595135D01*
X171685134Y-101508141D01*
X171534000Y-101477536D01*
X171134000Y-101477536D01*
X170992810Y-101504103D01*
X170863135Y-101587546D01*
X170776141Y-101714866D01*
X170745536Y-101866000D01*
X170146561Y-101866000D01*
X170088252Y-101686114D01*
X170067880Y-101662228D01*
X170091859Y-101627134D01*
X170122464Y-101476000D01*
X170122464Y-101216000D01*
X170095897Y-101074810D01*
X170064658Y-101026263D01*
X170107154Y-100969350D01*
X170168132Y-100729206D01*
X170163316Y-100696000D01*
X170699000Y-100696000D01*
X170747336Y-100939004D01*
X170884987Y-101145013D01*
X171090996Y-101282664D01*
X171334000Y-101331000D01*
X171906411Y-101331000D01*
X171939866Y-101353859D01*
X172091000Y-101384464D01*
X172841000Y-101384464D01*
X172963406Y-101361432D01*
X173465000Y-101863026D01*
X173465000Y-103018642D01*
X173444114Y-103068941D01*
X173443886Y-103329914D01*
X173543546Y-103571109D01*
X173727921Y-103755806D01*
X173968941Y-103855886D01*
X174229914Y-103856114D01*
X174471109Y-103756454D01*
X174655806Y-103572079D01*
X174755886Y-103331059D01*
X174756114Y-103070086D01*
X174735000Y-103018986D01*
X174735000Y-101600000D01*
X174686664Y-101356996D01*
X174549013Y-101150987D01*
X173649013Y-100250987D01*
X173443004Y-100113336D01*
X173205002Y-100065995D01*
X173202897Y-100054810D01*
X173119454Y-99925135D01*
X172992134Y-99838141D01*
X172841000Y-99807536D01*
X172091000Y-99807536D01*
X171949810Y-99834103D01*
X171820135Y-99917546D01*
X171733141Y-100044866D01*
X171729874Y-100061000D01*
X171334000Y-100061000D01*
X171090996Y-100109336D01*
X170884987Y-100246987D01*
X170747336Y-100452996D01*
X170699000Y-100696000D01*
X170163316Y-100696000D01*
X170135000Y-100500775D01*
X170135000Y-100180000D01*
X170086664Y-99936996D01*
X169949013Y-99730987D01*
X169710464Y-99492438D01*
X169710464Y-99193000D01*
X169683897Y-99051810D01*
X169600454Y-98922135D01*
X169545000Y-98884245D01*
X169545000Y-97599706D01*
X169630865Y-97544454D01*
X169717859Y-97417134D01*
X169748464Y-97266000D01*
X169748464Y-97214562D01*
X171364010Y-95599015D01*
X171364013Y-95599013D01*
X171501664Y-95393004D01*
X171503381Y-95384373D01*
X171550001Y-95150000D01*
X171550000Y-95149995D01*
X171550000Y-89461928D01*
X171812448Y-89286565D01*
X172079296Y-88887200D01*
X172173000Y-88416117D01*
X172173000Y-88367883D01*
X172079296Y-87896800D01*
X171812448Y-87497435D01*
X171413083Y-87230587D01*
X170942000Y-87136883D01*
X170470917Y-87230587D01*
X170071552Y-87497435D01*
X169804704Y-87896800D01*
X169711000Y-88367883D01*
X169711000Y-88416117D01*
X169804704Y-88887200D01*
X170071552Y-89286565D01*
X170280000Y-89425846D01*
X170280000Y-94886975D01*
X169748464Y-95418511D01*
X169748464Y-95266000D01*
X169721897Y-95124810D01*
X169638454Y-94995135D01*
X169511134Y-94908141D01*
X169360000Y-94877536D01*
X168963023Y-94877536D01*
X168900000Y-94865000D01*
X168848066Y-94875330D01*
X168795136Y-94873718D01*
X168785061Y-94877536D01*
X168460000Y-94877536D01*
X168318810Y-94904103D01*
X168308092Y-94911000D01*
X168074589Y-94911000D01*
X168041134Y-94888141D01*
X167890000Y-94857536D01*
X167390000Y-94857536D01*
X167248810Y-94884103D01*
X167207011Y-94911000D01*
X167058589Y-94911000D01*
X167025134Y-94888141D01*
X166874000Y-94857536D01*
X166374000Y-94857536D01*
X166232810Y-94884103D01*
X166191011Y-94911000D01*
X166042589Y-94911000D01*
X166009134Y-94888141D01*
X165858000Y-94857536D01*
X165358000Y-94857536D01*
X165216810Y-94884103D01*
X165087135Y-94967546D01*
X165000141Y-95094866D01*
X164969536Y-95246000D01*
X164969536Y-95340264D01*
X164931000Y-95534000D01*
X164931000Y-95894747D01*
X164919671Y-95897000D01*
X164714000Y-95897000D01*
X164470996Y-95945336D01*
X164340843Y-96032302D01*
X164272810Y-96045103D01*
X164143135Y-96128546D01*
X164056141Y-96255866D01*
X164025536Y-96407000D01*
X164025536Y-96657000D01*
X164049920Y-96786588D01*
X164025536Y-96907000D01*
X164025536Y-97157000D01*
X164049920Y-97286588D01*
X164025536Y-97407000D01*
X164025536Y-97657000D01*
X164049920Y-97786588D01*
X164025536Y-97907000D01*
X164025536Y-98157000D01*
X164052103Y-98298190D01*
X164135546Y-98427865D01*
X164262866Y-98514859D01*
X164414000Y-98545464D01*
X164521195Y-98545464D01*
X164714000Y-98583815D01*
X164848185Y-98583815D01*
X164848185Y-100571431D01*
X164559808Y-100859808D01*
X164508000Y-100937344D01*
X164508000Y-99500000D01*
X164469331Y-99305597D01*
X164359210Y-99140790D01*
X164072143Y-98853723D01*
X164050897Y-98740810D01*
X163967454Y-98611135D01*
X163840134Y-98524141D01*
X163689000Y-98493536D01*
X163439000Y-98493536D01*
X163309412Y-98517920D01*
X163189000Y-98493536D01*
X162939000Y-98493536D01*
X162809412Y-98517920D01*
X162689000Y-98493536D01*
X162439000Y-98493536D01*
X162309412Y-98517920D01*
X162189000Y-98493536D01*
X161939000Y-98493536D01*
X161797810Y-98520103D01*
X161668135Y-98603546D01*
X161581141Y-98730866D01*
X161578759Y-98742629D01*
X161458790Y-98822790D01*
X158040790Y-102240790D01*
X157930669Y-102405597D01*
X157892000Y-102600000D01*
X157892000Y-105798332D01*
X157830141Y-105888866D01*
X157799536Y-106040000D01*
X157799536Y-108140000D01*
X157826103Y-108281190D01*
X157909546Y-108410865D01*
X158036866Y-108497859D01*
X158188000Y-108528464D01*
X158588000Y-108528464D01*
X158729190Y-108501897D01*
X158858865Y-108418454D01*
X158945859Y-108291134D01*
X158976464Y-108140000D01*
X158976464Y-106040000D01*
X158949897Y-105898810D01*
X158908000Y-105833700D01*
X158908000Y-102810420D01*
X161863288Y-99855132D01*
X161939000Y-99870464D01*
X162012185Y-99870464D01*
X162012185Y-100957431D01*
X159609808Y-103359808D01*
X159490189Y-103538829D01*
X159476908Y-103605597D01*
X159448185Y-103750000D01*
X159448185Y-105862458D01*
X159430141Y-105888866D01*
X159399536Y-106040000D01*
X159399536Y-108140000D01*
X159426103Y-108281190D01*
X159509546Y-108410865D01*
X159636866Y-108497859D01*
X159788000Y-108528464D01*
X160188000Y-108528464D01*
X160329190Y-108501897D01*
X160387686Y-108464256D01*
X160436866Y-108497859D01*
X160588000Y-108528464D01*
X160988000Y-108528464D01*
X161129190Y-108501897D01*
X161258865Y-108418454D01*
X161345859Y-108291134D01*
X161376464Y-108140000D01*
X161376464Y-106040000D01*
X161351815Y-105909003D01*
X161351815Y-104178569D01*
X161942514Y-103587870D01*
X161930669Y-103605597D01*
X161892000Y-103800000D01*
X161892000Y-105798332D01*
X161830141Y-105888866D01*
X161799536Y-106040000D01*
X161799536Y-108140000D01*
X161826103Y-108281190D01*
X161909546Y-108410865D01*
X162036866Y-108497859D01*
X162188000Y-108528464D01*
X162588000Y-108528464D01*
X162729190Y-108501897D01*
X162858865Y-108418454D01*
X162945859Y-108291134D01*
X162976464Y-108140000D01*
X162976464Y-106040000D01*
X162949897Y-105898810D01*
X162908000Y-105833700D01*
X162908000Y-104010420D01*
X164359210Y-102559210D01*
X164436640Y-102443328D01*
X164440189Y-102461171D01*
X164559808Y-102640192D01*
X164848185Y-102928569D01*
X164848185Y-103121431D01*
X164771431Y-103198185D01*
X164450000Y-103198185D01*
X164238830Y-103240189D01*
X164102834Y-103331059D01*
X164059808Y-103359808D01*
X163609808Y-103809808D01*
X163490189Y-103988829D01*
X163450838Y-104186664D01*
X163448185Y-104200000D01*
X163448185Y-105862458D01*
X163430141Y-105888866D01*
X163399536Y-106040000D01*
X163399536Y-108140000D01*
X163426103Y-108281190D01*
X163509546Y-108410865D01*
X163636866Y-108497859D01*
X163788000Y-108528464D01*
X164188000Y-108528464D01*
X164329190Y-108501897D01*
X164387686Y-108464256D01*
X164436866Y-108497859D01*
X164588000Y-108528464D01*
X164988000Y-108528464D01*
X165129190Y-108501897D01*
X165258865Y-108418454D01*
X165345859Y-108291134D01*
X165376464Y-108140000D01*
X165376464Y-106040000D01*
X165351815Y-105909003D01*
X165351815Y-105028569D01*
X166390192Y-103990192D01*
X166410894Y-103959210D01*
X166509811Y-103811170D01*
X166551815Y-103600000D01*
X166551815Y-98050000D01*
X166542134Y-98001331D01*
X166509811Y-97838829D01*
X166390192Y-97659808D01*
X165885230Y-97154846D01*
X166007190Y-97131897D01*
X166136865Y-97048454D01*
X166223859Y-96921134D01*
X166254464Y-96770000D01*
X166254464Y-96270000D01*
X166242777Y-96207891D01*
X166374000Y-96234464D01*
X166874000Y-96234464D01*
X167015190Y-96207897D01*
X167056989Y-96181000D01*
X167205411Y-96181000D01*
X167238866Y-96203859D01*
X167390000Y-96234464D01*
X167597300Y-96234464D01*
X167600000Y-96235001D01*
X167602700Y-96234464D01*
X167890000Y-96234464D01*
X168031190Y-96207897D01*
X168072989Y-96181000D01*
X168854000Y-96181000D01*
X168987407Y-96154464D01*
X169012510Y-96154464D01*
X168789438Y-96377536D01*
X168460000Y-96377536D01*
X168318810Y-96404103D01*
X168189135Y-96487546D01*
X168102141Y-96614866D01*
X168071536Y-96766000D01*
X168071536Y-97266000D01*
X168098103Y-97407190D01*
X168181546Y-97536865D01*
X168275000Y-97600719D01*
X168275000Y-98244065D01*
X168070086Y-98243886D01*
X167828891Y-98343546D01*
X167644194Y-98527921D01*
X167544114Y-98768941D01*
X167543886Y-99029914D01*
X167643546Y-99271109D01*
X167827921Y-99455806D01*
X167878983Y-99477009D01*
X167951974Y-99550000D01*
X167550987Y-99950987D01*
X167413336Y-100156996D01*
X167365000Y-100400000D01*
X167365000Y-107136974D01*
X164436974Y-110065000D01*
X159500000Y-110065000D01*
X159256995Y-110113336D01*
X159174480Y-110168472D01*
X159050987Y-110250987D01*
X159050985Y-110250990D01*
X158350987Y-110950987D01*
X157950987Y-111350987D01*
X157813336Y-111556996D01*
X157765000Y-111800000D01*
X157765000Y-112495741D01*
X157753058Y-113381439D01*
X157798113Y-113625073D01*
X157799536Y-113627266D01*
X157799536Y-114440000D01*
X157826103Y-114581190D01*
X157842068Y-114606000D01*
X157335702Y-114606000D01*
X157345859Y-114591134D01*
X157376464Y-114440000D01*
X157376464Y-113623955D01*
X157423000Y-113390000D01*
X157423000Y-112010257D01*
X157455886Y-111931059D01*
X157456114Y-111670086D01*
X157356454Y-111428891D01*
X157172079Y-111244194D01*
X157079547Y-111205771D01*
X157031004Y-111173336D01*
X156974244Y-111162046D01*
X156931059Y-111144114D01*
X156883886Y-111144073D01*
X156788000Y-111125000D01*
X156692952Y-111143906D01*
X156670086Y-111143886D01*
X156648767Y-111152695D01*
X156544996Y-111173336D01*
X156457790Y-111231605D01*
X156428891Y-111243546D01*
X156406566Y-111265832D01*
X156338987Y-111310987D01*
X156294227Y-111377976D01*
X156244194Y-111427921D01*
X156216845Y-111493786D01*
X156201336Y-111516996D01*
X156195938Y-111544135D01*
X156144114Y-111668941D01*
X156143886Y-111929914D01*
X156153000Y-111951972D01*
X156153000Y-113390000D01*
X156199536Y-113623955D01*
X156199536Y-114440000D01*
X156226103Y-114581190D01*
X156242068Y-114606000D01*
X155735702Y-114606000D01*
X155745859Y-114591134D01*
X155776464Y-114440000D01*
X155776464Y-113623955D01*
X155797906Y-113516156D01*
X155822927Y-113399644D01*
X155834927Y-112609645D01*
X155834042Y-112604815D01*
X155835000Y-112600000D01*
X155835000Y-111981358D01*
X155855886Y-111931059D01*
X155856114Y-111670086D01*
X155835000Y-111618986D01*
X155835000Y-111181358D01*
X155855886Y-111131059D01*
X155856114Y-110870086D01*
X155796498Y-110725805D01*
X155868941Y-110755886D01*
X156129914Y-110756114D01*
X156371109Y-110656454D01*
X156555806Y-110472079D01*
X156655886Y-110231059D01*
X156656114Y-109970086D01*
X156556454Y-109728891D01*
X156372079Y-109544194D01*
X156131059Y-109444114D01*
X155870086Y-109443886D01*
X155628891Y-109543546D01*
X155580352Y-109592000D01*
X155300000Y-109592000D01*
X155105597Y-109630669D01*
X154940790Y-109740790D01*
X154108000Y-110573580D01*
X154108000Y-110400000D01*
X154069331Y-110205597D01*
X153959210Y-110040790D01*
X152384638Y-108466218D01*
X152387686Y-108464256D01*
X152436866Y-108497859D01*
X152588000Y-108528464D01*
X152988000Y-108528464D01*
X153129190Y-108501897D01*
X153187686Y-108464256D01*
X153236866Y-108497859D01*
X153388000Y-108528464D01*
X153788000Y-108528464D01*
X153929190Y-108501897D01*
X154058865Y-108418454D01*
X154145859Y-108291134D01*
X154176464Y-108140000D01*
X154176464Y-106040000D01*
X154149897Y-105898810D01*
X154108000Y-105833700D01*
X154108000Y-102210420D01*
X158278420Y-98040000D01*
X159861974Y-98040000D01*
X159826438Y-98075536D01*
X159770000Y-98075536D01*
X159628810Y-98102103D01*
X159587011Y-98129000D01*
X159136000Y-98129000D01*
X158942264Y-98167536D01*
X158746000Y-98167536D01*
X158604810Y-98194103D01*
X158475135Y-98277546D01*
X158388141Y-98404866D01*
X158357536Y-98556000D01*
X158357536Y-99056000D01*
X158384103Y-99197190D01*
X158411000Y-99238989D01*
X158411000Y-99387411D01*
X158388141Y-99420866D01*
X158357536Y-99572000D01*
X158357536Y-99644438D01*
X157802438Y-100199536D01*
X157730000Y-100199536D01*
X157588810Y-100226103D01*
X157459135Y-100309546D01*
X157372141Y-100436866D01*
X157341536Y-100588000D01*
X157341536Y-100660438D01*
X156979226Y-101022748D01*
X156928891Y-101043546D01*
X156744194Y-101227921D01*
X156644114Y-101468941D01*
X156643886Y-101729914D01*
X156743546Y-101971109D01*
X156927921Y-102155806D01*
X157168941Y-102255886D01*
X157429914Y-102256114D01*
X157671109Y-102156454D01*
X157855806Y-101972079D01*
X157877009Y-101921017D01*
X158321562Y-101476464D01*
X158330000Y-101476464D01*
X158471190Y-101449897D01*
X158600865Y-101366454D01*
X158687859Y-101239134D01*
X158718464Y-101088000D01*
X158718464Y-101079562D01*
X159337562Y-100460464D01*
X159346000Y-100460464D01*
X159487190Y-100433897D01*
X159616865Y-100350454D01*
X159703859Y-100223134D01*
X159734464Y-100072000D01*
X159734464Y-99572000D01*
X159709673Y-99440248D01*
X159770000Y-99452464D01*
X160270000Y-99452464D01*
X160411190Y-99425897D01*
X160540865Y-99342454D01*
X160627859Y-99215134D01*
X160658464Y-99064000D01*
X160658464Y-99039562D01*
X161039672Y-98658354D01*
X161106301Y-98637182D01*
X161302943Y-98528728D01*
X161355190Y-98518897D01*
X161484865Y-98435454D01*
X161571859Y-98308134D01*
X161602464Y-98157000D01*
X161602464Y-97907000D01*
X161578080Y-97777412D01*
X161602464Y-97657000D01*
X161602464Y-97407000D01*
X161578080Y-97277412D01*
X161602464Y-97157000D01*
X161602464Y-96907000D01*
X161578080Y-96777412D01*
X161602464Y-96657000D01*
X161602464Y-96407000D01*
X161575897Y-96265810D01*
X161492454Y-96136135D01*
X161365134Y-96049141D01*
X161214000Y-96018536D01*
X160614000Y-96018536D01*
X160584962Y-96024000D01*
X157268000Y-96024000D01*
X157073597Y-96062669D01*
X156908790Y-96172790D01*
X151643068Y-101438512D01*
X151556454Y-101228891D01*
X151372079Y-101044194D01*
X151321017Y-101022991D01*
X150349013Y-100050987D01*
X150143004Y-99913336D01*
X149900000Y-99865000D01*
X149457464Y-99865000D01*
X149457464Y-99234000D01*
X149438000Y-99130559D01*
X149438000Y-98693068D01*
X149450866Y-98701859D01*
X149602000Y-98732464D01*
X150002000Y-98732464D01*
X150143190Y-98705897D01*
X150272865Y-98622454D01*
X150359859Y-98495134D01*
X150374324Y-98423702D01*
X151220772Y-97577253D01*
X151271109Y-97556454D01*
X151455806Y-97372079D01*
X151477009Y-97321017D01*
X152284501Y-96513525D01*
X152326546Y-96578865D01*
X152453866Y-96665859D01*
X152605000Y-96696464D01*
X153177895Y-96696464D01*
X153192723Y-96702984D01*
X153206384Y-96703278D01*
X153219115Y-96708244D01*
X153329783Y-96705939D01*
X153440430Y-96708324D01*
X153507589Y-96696464D01*
X154055000Y-96696464D01*
X154196190Y-96669897D01*
X154325865Y-96586454D01*
X154412859Y-96459134D01*
X154443344Y-96308592D01*
X154538866Y-96373859D01*
X154690000Y-96404464D01*
X155190000Y-96404464D01*
X155331190Y-96377897D01*
X155460865Y-96294454D01*
X155547859Y-96167134D01*
X155554366Y-96135000D01*
X155618642Y-96135000D01*
X155668941Y-96155886D01*
X155929914Y-96156114D01*
X156171109Y-96056454D01*
X156355806Y-95872079D01*
X156455886Y-95631059D01*
X156456114Y-95370086D01*
X156356454Y-95128891D01*
X156172079Y-94944194D01*
X155931059Y-94844114D01*
X155670086Y-94843886D01*
X155628464Y-94861084D01*
X155628464Y-94484000D01*
X155601897Y-94342810D01*
X155597396Y-94335815D01*
X155750020Y-94335815D01*
X155758866Y-94341859D01*
X155910000Y-94372464D01*
X156510000Y-94372464D01*
X156651190Y-94345897D01*
X156666858Y-94335815D01*
X158540226Y-94335815D01*
X158552625Y-94365823D01*
X158870503Y-94684256D01*
X159286043Y-94856804D01*
X159735983Y-94857196D01*
X160151823Y-94685375D01*
X160470256Y-94367497D01*
X160483412Y-94335815D01*
X161627431Y-94335815D01*
X162008185Y-94716569D01*
X162008185Y-95250000D01*
X162009843Y-95258333D01*
X162008438Y-95266714D01*
X162012438Y-95398714D01*
X162050536Y-95563923D01*
X162050536Y-95682000D01*
X162077103Y-95823190D01*
X162160546Y-95952865D01*
X162287866Y-96039859D01*
X162439000Y-96070464D01*
X162689000Y-96070464D01*
X162818588Y-96046080D01*
X162939000Y-96070464D01*
X163189000Y-96070464D01*
X163330190Y-96043897D01*
X163459865Y-95960454D01*
X163546859Y-95833134D01*
X163577464Y-95682000D01*
X163577464Y-95563923D01*
X163615562Y-95398714D01*
X163619562Y-95266714D01*
X163618157Y-95258333D01*
X163619815Y-95250000D01*
X163619815Y-93472000D01*
X163577811Y-93260830D01*
X163458192Y-93081808D01*
X161738192Y-91361808D01*
X161559171Y-91242189D01*
X161348000Y-91200185D01*
X150573980Y-91200185D01*
X150565134Y-91194141D01*
X150414000Y-91163536D01*
X149814000Y-91163536D01*
X149672810Y-91190103D01*
X149657142Y-91200185D01*
X149568034Y-91200185D01*
X149518454Y-91123135D01*
X149391134Y-91036141D01*
X149240000Y-91005536D01*
X148840000Y-91005536D01*
X148698810Y-91032103D01*
X148691815Y-91036604D01*
X148691815Y-87891574D01*
X148948109Y-87785675D01*
X149192209Y-87542000D01*
X154463536Y-87542000D01*
X154463536Y-89242000D01*
X154490103Y-89383190D01*
X154573546Y-89512865D01*
X154700866Y-89599859D01*
X154852000Y-89630464D01*
X156552000Y-89630464D01*
X156693190Y-89603897D01*
X156822865Y-89520454D01*
X156909859Y-89393134D01*
X156940464Y-89242000D01*
X156940464Y-88367883D01*
X157011000Y-88367883D01*
X157011000Y-88416117D01*
X157104704Y-88887200D01*
X157371552Y-89286565D01*
X157770917Y-89553413D01*
X158242000Y-89647117D01*
X158713083Y-89553413D01*
X159112448Y-89286565D01*
X159379296Y-88887200D01*
X159473000Y-88416117D01*
X159473000Y-88367883D01*
X159551000Y-88367883D01*
X159551000Y-88416117D01*
X159644704Y-88887200D01*
X159911552Y-89286565D01*
X160310917Y-89553413D01*
X160782000Y-89647117D01*
X161253083Y-89553413D01*
X161652448Y-89286565D01*
X161919296Y-88887200D01*
X162013000Y-88416117D01*
X162013000Y-88367883D01*
X162091000Y-88367883D01*
X162091000Y-88416117D01*
X162184704Y-88887200D01*
X162451552Y-89286565D01*
X162850917Y-89553413D01*
X163322000Y-89647117D01*
X163793083Y-89553413D01*
X164192448Y-89286565D01*
X164459296Y-88887200D01*
X164553000Y-88416117D01*
X164553000Y-88367883D01*
X164631000Y-88367883D01*
X164631000Y-88416117D01*
X164724704Y-88887200D01*
X164991552Y-89286565D01*
X165390917Y-89553413D01*
X165862000Y-89647117D01*
X166333083Y-89553413D01*
X166732448Y-89286565D01*
X166999296Y-88887200D01*
X167093000Y-88416117D01*
X167093000Y-88367883D01*
X167171000Y-88367883D01*
X167171000Y-88416117D01*
X167264704Y-88887200D01*
X167531552Y-89286565D01*
X167930917Y-89553413D01*
X168402000Y-89647117D01*
X168873083Y-89553413D01*
X169272448Y-89286565D01*
X169539296Y-88887200D01*
X169633000Y-88416117D01*
X169633000Y-88367883D01*
X169539296Y-87896800D01*
X169272448Y-87497435D01*
X168873083Y-87230587D01*
X168402000Y-87136883D01*
X167930917Y-87230587D01*
X167531552Y-87497435D01*
X167264704Y-87896800D01*
X167171000Y-88367883D01*
X167093000Y-88367883D01*
X166999296Y-87896800D01*
X166732448Y-87497435D01*
X166333083Y-87230587D01*
X165862000Y-87136883D01*
X165390917Y-87230587D01*
X164991552Y-87497435D01*
X164724704Y-87896800D01*
X164631000Y-88367883D01*
X164553000Y-88367883D01*
X164459296Y-87896800D01*
X164192448Y-87497435D01*
X163793083Y-87230587D01*
X163322000Y-87136883D01*
X162850917Y-87230587D01*
X162451552Y-87497435D01*
X162184704Y-87896800D01*
X162091000Y-88367883D01*
X162013000Y-88367883D01*
X161919296Y-87896800D01*
X161652448Y-87497435D01*
X161253083Y-87230587D01*
X160782000Y-87136883D01*
X160310917Y-87230587D01*
X159911552Y-87497435D01*
X159644704Y-87896800D01*
X159551000Y-88367883D01*
X159473000Y-88367883D01*
X159379296Y-87896800D01*
X159112448Y-87497435D01*
X158713083Y-87230587D01*
X158242000Y-87136883D01*
X157770917Y-87230587D01*
X157371552Y-87497435D01*
X157104704Y-87896800D01*
X157011000Y-88367883D01*
X156940464Y-88367883D01*
X156940464Y-87542000D01*
X156913897Y-87400810D01*
X156830454Y-87271135D01*
X156703134Y-87184141D01*
X156552000Y-87153536D01*
X154852000Y-87153536D01*
X154710810Y-87180103D01*
X154581135Y-87263546D01*
X154494141Y-87390866D01*
X154463536Y-87542000D01*
X149192209Y-87542000D01*
X149379162Y-87355374D01*
X149612734Y-86792871D01*
X149613265Y-86183801D01*
X149466203Y-85827883D01*
X154471000Y-85827883D01*
X154471000Y-85876117D01*
X154564704Y-86347200D01*
X154831552Y-86746565D01*
X155230917Y-87013413D01*
X155702000Y-87107117D01*
X156173083Y-87013413D01*
X156572448Y-86746565D01*
X156839296Y-86347200D01*
X156933000Y-85876117D01*
X156933000Y-85827883D01*
X157011000Y-85827883D01*
X157011000Y-85876117D01*
X157104704Y-86347200D01*
X157371552Y-86746565D01*
X157770917Y-87013413D01*
X158242000Y-87107117D01*
X158713083Y-87013413D01*
X159112448Y-86746565D01*
X159379296Y-86347200D01*
X159473000Y-85876117D01*
X159473000Y-85827883D01*
X159551000Y-85827883D01*
X159551000Y-85876117D01*
X159644704Y-86347200D01*
X159911552Y-86746565D01*
X160310917Y-87013413D01*
X160782000Y-87107117D01*
X161253083Y-87013413D01*
X161652448Y-86746565D01*
X161919296Y-86347200D01*
X162013000Y-85876117D01*
X162013000Y-85827883D01*
X162091000Y-85827883D01*
X162091000Y-85876117D01*
X162184704Y-86347200D01*
X162451552Y-86746565D01*
X162850917Y-87013413D01*
X163322000Y-87107117D01*
X163793083Y-87013413D01*
X164192448Y-86746565D01*
X164459296Y-86347200D01*
X164553000Y-85876117D01*
X164553000Y-85827883D01*
X164631000Y-85827883D01*
X164631000Y-85876117D01*
X164724704Y-86347200D01*
X164991552Y-86746565D01*
X165390917Y-87013413D01*
X165862000Y-87107117D01*
X166333083Y-87013413D01*
X166732448Y-86746565D01*
X166999296Y-86347200D01*
X167093000Y-85876117D01*
X167093000Y-85827883D01*
X166999296Y-85356800D01*
X166732448Y-84957435D01*
X166333083Y-84690587D01*
X165862000Y-84596883D01*
X165390917Y-84690587D01*
X164991552Y-84957435D01*
X164724704Y-85356800D01*
X164631000Y-85827883D01*
X164553000Y-85827883D01*
X164459296Y-85356800D01*
X164192448Y-84957435D01*
X163793083Y-84690587D01*
X163322000Y-84596883D01*
X162850917Y-84690587D01*
X162451552Y-84957435D01*
X162184704Y-85356800D01*
X162091000Y-85827883D01*
X162013000Y-85827883D01*
X161919296Y-85356800D01*
X161652448Y-84957435D01*
X161253083Y-84690587D01*
X160782000Y-84596883D01*
X160310917Y-84690587D01*
X159911552Y-84957435D01*
X159644704Y-85356800D01*
X159551000Y-85827883D01*
X159473000Y-85827883D01*
X159379296Y-85356800D01*
X159112448Y-84957435D01*
X158713083Y-84690587D01*
X158242000Y-84596883D01*
X157770917Y-84690587D01*
X157371552Y-84957435D01*
X157104704Y-85356800D01*
X157011000Y-85827883D01*
X156933000Y-85827883D01*
X156839296Y-85356800D01*
X156572448Y-84957435D01*
X156173083Y-84690587D01*
X155702000Y-84596883D01*
X155230917Y-84690587D01*
X154831552Y-84957435D01*
X154564704Y-85356800D01*
X154471000Y-85827883D01*
X149466203Y-85827883D01*
X149380675Y-85620891D01*
X148950374Y-85189838D01*
X148387871Y-84956266D01*
X147778801Y-84955735D01*
X147215891Y-85188325D01*
X146784838Y-85618626D01*
X146551266Y-86181129D01*
X146550735Y-86790199D01*
X146783325Y-87353109D01*
X147213626Y-87784162D01*
X147588185Y-87939693D01*
X147588185Y-91234020D01*
X147582141Y-91242866D01*
X147551536Y-91394000D01*
X147551536Y-91994000D01*
X147578103Y-92135190D01*
X147661546Y-92264865D01*
X147788866Y-92351859D01*
X147940000Y-92382464D01*
X148340000Y-92382464D01*
X148481190Y-92355897D01*
X148591186Y-92285117D01*
X148688866Y-92351859D01*
X148840000Y-92382464D01*
X149240000Y-92382464D01*
X149381190Y-92355897D01*
X149454557Y-92308687D01*
X149425536Y-92452000D01*
X149425536Y-92852000D01*
X149427982Y-92865000D01*
X145300000Y-92865000D01*
X145296134Y-92865769D01*
X145292258Y-92865047D01*
X145174789Y-92889906D01*
X145056996Y-92913336D01*
X145053717Y-92915527D01*
X145049861Y-92916343D01*
X145013134Y-92941536D01*
X144988000Y-92941536D01*
X144846810Y-92968103D01*
X144717135Y-93051546D01*
X144630141Y-93178866D01*
X144599536Y-93330000D01*
X144599536Y-93730000D01*
X144626103Y-93871190D01*
X144658798Y-93922000D01*
X144542105Y-93922000D01*
X144469134Y-93872141D01*
X144318000Y-93841536D01*
X143718000Y-93841536D01*
X143576810Y-93868103D01*
X143447135Y-93951546D01*
X143360141Y-94078866D01*
X143329536Y-94230000D01*
X143329536Y-94630000D01*
X143356103Y-94771190D01*
X143419592Y-94869856D01*
X143360141Y-94956866D01*
X143329536Y-95108000D01*
X143329536Y-95508000D01*
X143356103Y-95649190D01*
X143439546Y-95778865D01*
X143566866Y-95865859D01*
X143718000Y-95896464D01*
X144318000Y-95896464D01*
X144459190Y-95869897D01*
X144542949Y-95816000D01*
X144658064Y-95816000D01*
X144630141Y-95856866D01*
X144599536Y-96008000D01*
X144599536Y-96408000D01*
X144626103Y-96549190D01*
X144665000Y-96609638D01*
X144665000Y-96818642D01*
X144644114Y-96868941D01*
X144643886Y-97129914D01*
X144665000Y-97181014D01*
X144665000Y-98000000D01*
X144666400Y-98007037D01*
X144665156Y-98014108D01*
X144690520Y-98128298D01*
X144713336Y-98243004D01*
X144717324Y-98248972D01*
X144718880Y-98255978D01*
X144757536Y-98311137D01*
X144757536Y-98344000D01*
X144784103Y-98485190D01*
X144867546Y-98614865D01*
X144994866Y-98701859D01*
X145146000Y-98732464D01*
X145546000Y-98732464D01*
X145687190Y-98705897D01*
X145792000Y-98638454D01*
X145792000Y-98979160D01*
X145721141Y-99082866D01*
X145690536Y-99234000D01*
X145690536Y-99865000D01*
X144131975Y-99865000D01*
X144119897Y-99800810D01*
X144036454Y-99671135D01*
X143909134Y-99584141D01*
X143758000Y-99553536D01*
X143008000Y-99553536D01*
X142866810Y-99580103D01*
X142862464Y-99582900D01*
X142862464Y-98988000D01*
X142835897Y-98846810D01*
X142752454Y-98717135D01*
X142625134Y-98630141D01*
X142474000Y-98599536D01*
X141874000Y-98599536D01*
X141732810Y-98626103D01*
X141603135Y-98709546D01*
X141516141Y-98836866D01*
X141485536Y-98988000D01*
X141485536Y-99865000D01*
X141463026Y-99865000D01*
X140962464Y-99364438D01*
X140962464Y-98988000D01*
X140935897Y-98846810D01*
X140852454Y-98717135D01*
X140725134Y-98630141D01*
X140574000Y-98599536D01*
X139974000Y-98599536D01*
X139832810Y-98626103D01*
X139703135Y-98709546D01*
X139616141Y-98836866D01*
X139585536Y-98988000D01*
X139585536Y-100088000D01*
X139612103Y-100229190D01*
X139695546Y-100358865D01*
X139822866Y-100445859D01*
X139974000Y-100476464D01*
X140278438Y-100476464D01*
X140750987Y-100949013D01*
X140956996Y-101086664D01*
X141200000Y-101135000D01*
X143399995Y-101135000D01*
X143400000Y-101135001D01*
X143400005Y-101135000D01*
X145060584Y-101135000D01*
X145040536Y-101234000D01*
X145040536Y-101934000D01*
X145065000Y-102064014D01*
X145065000Y-102500000D01*
X145073723Y-102543855D01*
X145071197Y-102588498D01*
X145097676Y-102664275D01*
X145113336Y-102743004D01*
X145138178Y-102780182D01*
X145152928Y-102822394D01*
X145206390Y-102882269D01*
X145250987Y-102949013D01*
X145274733Y-102964880D01*
X145292103Y-103057190D01*
X145375546Y-103186865D01*
X145502866Y-103273859D01*
X145654000Y-103304464D01*
X146054000Y-103304464D01*
X146195190Y-103277897D01*
X146305186Y-103207117D01*
X146402866Y-103273859D01*
X146554000Y-103304464D01*
X146754044Y-103304464D01*
X147408790Y-103959210D01*
X147573596Y-104069331D01*
X147768000Y-104108000D01*
X149089580Y-104108000D01*
X149892000Y-104910420D01*
X149892000Y-105798332D01*
X149830141Y-105888866D01*
X149799536Y-106040000D01*
X149799536Y-108140000D01*
X149826103Y-108281190D01*
X149833059Y-108292000D01*
X149410420Y-108292000D01*
X143944464Y-102826044D01*
X143944464Y-102728000D01*
X143917897Y-102586810D01*
X143834454Y-102457135D01*
X143707134Y-102370141D01*
X143556000Y-102339536D01*
X142956000Y-102339536D01*
X142862464Y-102357136D01*
X142862464Y-101588000D01*
X142835897Y-101446810D01*
X142752454Y-101317135D01*
X142625134Y-101230141D01*
X142474000Y-101199536D01*
X141874000Y-101199536D01*
X141732810Y-101226103D01*
X141603135Y-101309546D01*
X141516141Y-101436866D01*
X141485536Y-101588000D01*
X141485536Y-102688000D01*
X141512103Y-102829190D01*
X141595546Y-102958865D01*
X141722866Y-103045859D01*
X141874000Y-103076464D01*
X142058044Y-103076464D01*
X142240790Y-103259210D01*
X142405597Y-103369331D01*
X142600000Y-103408000D01*
X142690916Y-103408000D01*
X142804866Y-103485859D01*
X142956000Y-103516464D01*
X143198044Y-103516464D01*
X148840790Y-109159210D01*
X149005596Y-109269331D01*
X149037850Y-109275746D01*
X149200000Y-109308000D01*
X151789580Y-109308000D01*
X153092000Y-110610420D01*
X153092000Y-111210942D01*
X152931059Y-111144114D01*
X152670086Y-111143886D01*
X152428891Y-111243546D01*
X152400111Y-111272275D01*
X152372079Y-111244194D01*
X152131059Y-111144114D01*
X151870086Y-111143886D01*
X151628891Y-111243546D01*
X151600111Y-111272275D01*
X151572079Y-111244194D01*
X151331059Y-111144114D01*
X151070086Y-111143886D01*
X150828891Y-111243546D01*
X150800111Y-111272275D01*
X150772079Y-111244194D01*
X150531059Y-111144114D01*
X150270086Y-111143886D01*
X150028891Y-111243546D01*
X149844194Y-111427921D01*
X149744114Y-111668941D01*
X149743886Y-111929914D01*
X149843067Y-112169949D01*
X149830141Y-112188866D01*
X149799536Y-112340000D01*
X149799536Y-114440000D01*
X149826103Y-114581190D01*
X149842068Y-114606000D01*
X136854000Y-114606000D01*
X136854000Y-101588000D01*
X139585536Y-101588000D01*
X139585536Y-102688000D01*
X139612103Y-102829190D01*
X139665000Y-102911395D01*
X139665000Y-103600000D01*
X139678088Y-103665800D01*
X139679059Y-103732883D01*
X139685536Y-103747901D01*
X139685536Y-104007000D01*
X139712103Y-104148190D01*
X139795546Y-104277865D01*
X139922866Y-104364859D01*
X140074000Y-104395464D01*
X140197438Y-104395464D01*
X141822747Y-106020773D01*
X141843546Y-106071109D01*
X142027921Y-106255806D01*
X142268941Y-106355886D01*
X142529914Y-106356114D01*
X142771109Y-106256454D01*
X142955806Y-106072079D01*
X143055886Y-105831059D01*
X143056114Y-105570086D01*
X142956454Y-105328891D01*
X142772079Y-105144194D01*
X142721016Y-105122991D01*
X142149013Y-104550987D01*
X141262464Y-103664438D01*
X141262464Y-103257000D01*
X141235897Y-103115810D01*
X141152454Y-102986135D01*
X141025134Y-102899141D01*
X140935000Y-102880889D01*
X140935000Y-102823623D01*
X140962464Y-102688000D01*
X140962464Y-101588000D01*
X140935897Y-101446810D01*
X140852454Y-101317135D01*
X140725134Y-101230141D01*
X140574000Y-101199536D01*
X139974000Y-101199536D01*
X139832810Y-101226103D01*
X139703135Y-101309546D01*
X139616141Y-101436866D01*
X139585536Y-101588000D01*
X136854000Y-101588000D01*
X136854000Y-82498000D01*
X179122000Y-82498000D01*
X179122000Y-114606000D01*
M02*
