G04 #@! TF.FileFunction,Copper,L4,Bot,Signal*
%FSLAX46Y46*%
G04 Gerber Fmt 4.6, Leading zero omitted, Abs format (unit mm)*
G04 Created by KiCad (PCBNEW 4.0.7) date 06/05/18 19:10:08*
%MOMM*%
%LPD*%
G01*
G04 APERTURE LIST*
%ADD10C,0.100000*%
%ADD11O,2.200000X2.200000*%
%ADD12R,1.700000X1.700000*%
%ADD13O,1.700000X1.700000*%
%ADD14C,2.600000*%
%ADD15C,2.300000*%
%ADD16C,4.500000*%
%ADD17C,1.500000*%
%ADD18C,0.550000*%
%ADD19C,0.254000*%
%ADD20C,0.508000*%
G04 APERTURE END LIST*
D10*
D11*
X148788000Y-110490000D03*
X167188000Y-110490000D03*
X170313000Y-108115000D03*
X170313000Y-112865000D03*
X145663000Y-112865000D03*
X145663000Y-108115000D03*
D12*
X155702000Y-88392000D03*
D13*
X155702000Y-85852000D03*
X158242000Y-88392000D03*
X158242000Y-85852000D03*
X160782000Y-88392000D03*
X160782000Y-85852000D03*
X163322000Y-88392000D03*
X163322000Y-85852000D03*
X165862000Y-88392000D03*
X165862000Y-85852000D03*
X168402000Y-88392000D03*
X168402000Y-85852000D03*
X170942000Y-88392000D03*
X170942000Y-85852000D03*
D14*
X145542000Y-89027000D03*
X150622000Y-89027000D03*
X150622000Y-83947000D03*
D15*
X148082000Y-86487000D03*
D14*
X145542000Y-83947000D03*
D16*
X140208000Y-85852000D03*
X175768000Y-85852000D03*
X140208000Y-111252000D03*
X175768000Y-111252000D03*
D17*
X159512000Y-93726000D03*
D18*
X167650000Y-96500000D03*
X167650000Y-97350000D03*
X154940000Y-102870000D03*
X156210000Y-104140000D03*
X157480000Y-102870000D03*
X151130000Y-100330000D03*
X149860000Y-99060000D03*
X152400000Y-99060000D03*
X165735000Y-83185000D03*
X160655000Y-83185000D03*
X155575000Y-83185000D03*
X158350000Y-108600000D03*
X165600000Y-108550000D03*
X163150000Y-108600000D03*
X161550000Y-108600000D03*
X154800000Y-105600000D03*
X157600000Y-111800000D03*
X156000000Y-111800000D03*
X154400000Y-111800000D03*
X165200000Y-111800000D03*
X163600000Y-111800000D03*
X161200000Y-111800000D03*
X159600000Y-111800000D03*
X140970000Y-92710000D03*
X140970000Y-97790000D03*
X172720000Y-96520000D03*
X172720000Y-91440000D03*
X138430000Y-90170000D03*
X138430000Y-95250000D03*
X138430000Y-100330000D03*
X138430000Y-105410000D03*
X177800000Y-88900000D03*
X177800000Y-93980000D03*
X177800000Y-99060000D03*
X177800000Y-104140000D03*
X166550000Y-93700000D03*
X164750000Y-94450000D03*
X167650000Y-93700000D03*
X168500000Y-94450000D03*
X163850000Y-94600000D03*
X161650000Y-94600000D03*
X161250000Y-98950000D03*
X159550000Y-100600000D03*
X158350000Y-98100000D03*
X157200000Y-99800000D03*
X156150000Y-100850000D03*
X158400000Y-94650000D03*
X152000000Y-97450000D03*
X153300000Y-97450000D03*
X155800000Y-96800000D03*
X144000000Y-96850000D03*
X144050000Y-92900000D03*
X144500000Y-101850000D03*
X141250000Y-101200000D03*
X142700000Y-101200000D03*
X142700000Y-104450000D03*
X143850000Y-104450000D03*
X173100000Y-102950000D03*
X171400000Y-99550000D03*
X170450000Y-98700000D03*
X172450000Y-101400000D03*
X170450000Y-102450000D03*
X170450000Y-101350000D03*
X170450000Y-100350000D03*
X162750000Y-97250000D03*
X162000000Y-96500000D03*
X163500000Y-96500000D03*
X163500000Y-98000000D03*
X162000000Y-98000000D03*
X151000000Y-101600000D03*
X157300000Y-101600000D03*
X150900000Y-97000000D03*
X145300000Y-97000000D03*
X168200000Y-98900000D03*
X155800000Y-95500000D03*
X156800000Y-111800000D03*
X174100000Y-103200000D03*
X155200000Y-111000000D03*
X142400000Y-105700000D03*
X155200000Y-111800000D03*
X156000000Y-110100000D03*
X171500000Y-104000000D03*
X152800000Y-111800000D03*
X152000000Y-111800000D03*
X151200000Y-111800000D03*
X150400000Y-111800000D03*
D19*
X175768000Y-85852000D02*
X175648000Y-85852000D01*
X175648000Y-85852000D02*
X171600000Y-89900000D01*
X169600000Y-88800000D02*
X169600000Y-88100000D01*
X170700000Y-89900000D02*
X169600000Y-88800000D01*
X171600000Y-89900000D02*
X170700000Y-89900000D01*
X167640000Y-96520000D02*
X168783000Y-97663000D01*
X168783000Y-97663000D02*
X168783000Y-99568000D01*
X156210000Y-104140000D02*
X154940000Y-102870000D01*
X157480000Y-102870000D02*
X156210000Y-104140000D01*
X152400000Y-99060000D02*
X149860000Y-99060000D01*
D20*
X151000000Y-101600000D02*
X157300000Y-101600000D01*
X145300000Y-97000000D02*
X150900000Y-97000000D01*
X168200000Y-98900000D02*
X164800000Y-95500000D01*
X164800000Y-95500000D02*
X155800000Y-95500000D01*
X156800000Y-111800000D02*
X156800000Y-111100000D01*
X163200000Y-105400000D02*
X171900000Y-105400000D01*
X171900000Y-105400000D02*
X174100000Y-103200000D01*
X162500000Y-105400000D02*
X163200000Y-105400000D01*
X156800000Y-111100000D02*
X162500000Y-105400000D01*
X155200000Y-109400000D02*
X155200000Y-111000000D01*
X168402000Y-88392000D02*
X168402000Y-88402000D01*
X155200000Y-109400000D02*
X155200000Y-111800000D01*
X161400000Y-103200000D02*
X155200000Y-109400000D01*
X167270000Y-103200000D02*
X161400000Y-103200000D01*
X169427000Y-101043000D02*
X167270000Y-103200000D01*
X169427000Y-89427000D02*
X169427000Y-101043000D01*
X168402000Y-88402000D02*
X169427000Y-89427000D01*
X155200000Y-111100000D02*
X152900000Y-108800000D01*
X152900000Y-108800000D02*
X149200000Y-108800000D01*
X149200000Y-108800000D02*
X146100000Y-105700000D01*
X146100000Y-105700000D02*
X142400000Y-105700000D01*
X155200000Y-111800000D02*
X155200000Y-111100000D01*
D19*
G36*
X179122000Y-114606000D02*
X136854000Y-114606000D01*
X136854000Y-111929914D01*
X149743886Y-111929914D01*
X149843546Y-112171109D01*
X150027921Y-112355806D01*
X150268941Y-112455886D01*
X150529914Y-112456114D01*
X150771109Y-112356454D01*
X150799889Y-112327725D01*
X150827921Y-112355806D01*
X151068941Y-112455886D01*
X151329914Y-112456114D01*
X151571109Y-112356454D01*
X151599889Y-112327725D01*
X151627921Y-112355806D01*
X151868941Y-112455886D01*
X152129914Y-112456114D01*
X152371109Y-112356454D01*
X152399889Y-112327725D01*
X152427921Y-112355806D01*
X152668941Y-112455886D01*
X152929914Y-112456114D01*
X153171109Y-112356454D01*
X153355806Y-112172079D01*
X153455886Y-111931059D01*
X153456114Y-111670086D01*
X153356454Y-111428891D01*
X153172079Y-111244194D01*
X152931059Y-111144114D01*
X152670086Y-111143886D01*
X152428891Y-111243546D01*
X152400111Y-111272275D01*
X152372079Y-111244194D01*
X152131059Y-111144114D01*
X151870086Y-111143886D01*
X151628891Y-111243546D01*
X151600111Y-111272275D01*
X151572079Y-111244194D01*
X151331059Y-111144114D01*
X151070086Y-111143886D01*
X150828891Y-111243546D01*
X150800111Y-111272275D01*
X150772079Y-111244194D01*
X150531059Y-111144114D01*
X150270086Y-111143886D01*
X150028891Y-111243546D01*
X149844194Y-111427921D01*
X149744114Y-111668941D01*
X149743886Y-111929914D01*
X136854000Y-111929914D01*
X136854000Y-105829914D01*
X141743886Y-105829914D01*
X141843546Y-106071109D01*
X142027921Y-106255806D01*
X142268941Y-106355886D01*
X142529914Y-106356114D01*
X142581014Y-106335000D01*
X145836974Y-106335000D01*
X148750987Y-109249013D01*
X148956996Y-109386664D01*
X149200000Y-109435000D01*
X152636974Y-109435000D01*
X154565000Y-111363026D01*
X154565000Y-111618642D01*
X154544114Y-111668941D01*
X154543886Y-111929914D01*
X154643546Y-112171109D01*
X154827921Y-112355806D01*
X155068941Y-112455886D01*
X155329914Y-112456114D01*
X155571109Y-112356454D01*
X155755806Y-112172079D01*
X155855886Y-111931059D01*
X155856114Y-111670086D01*
X155835000Y-111618986D01*
X155835000Y-111506000D01*
X156165000Y-111506000D01*
X156165000Y-111618642D01*
X156144114Y-111668941D01*
X156143886Y-111929914D01*
X156243546Y-112171109D01*
X156427921Y-112355806D01*
X156668941Y-112455886D01*
X156929914Y-112456114D01*
X157171109Y-112356454D01*
X157355806Y-112172079D01*
X157455886Y-111931059D01*
X157456114Y-111670086D01*
X157435000Y-111618986D01*
X157435000Y-111363026D01*
X162763026Y-106035000D01*
X171900000Y-106035000D01*
X172143004Y-105986664D01*
X172349013Y-105849013D01*
X174420774Y-103777252D01*
X174471109Y-103756454D01*
X174655806Y-103572079D01*
X174755886Y-103331059D01*
X174756114Y-103070086D01*
X174656454Y-102828891D01*
X174472079Y-102644194D01*
X174231059Y-102544114D01*
X173970086Y-102543886D01*
X173728891Y-102643546D01*
X173544194Y-102827921D01*
X173522991Y-102878983D01*
X172074205Y-104327769D01*
X172155886Y-104131059D01*
X172156114Y-103870086D01*
X172056454Y-103628891D01*
X171872079Y-103444194D01*
X171631059Y-103344114D01*
X171370086Y-103343886D01*
X171128891Y-103443546D01*
X170944194Y-103627921D01*
X170844114Y-103868941D01*
X170843886Y-104129914D01*
X170943546Y-104371109D01*
X171127921Y-104555806D01*
X171368941Y-104655886D01*
X171629914Y-104656114D01*
X171827502Y-104574472D01*
X171636974Y-104765000D01*
X162500000Y-104765000D01*
X162256995Y-104813336D01*
X162050987Y-104950987D01*
X156574205Y-110427769D01*
X156655886Y-110231059D01*
X156656114Y-109970086D01*
X156556454Y-109728891D01*
X156372079Y-109544194D01*
X156131059Y-109444114D01*
X156053979Y-109444047D01*
X161663026Y-103835000D01*
X167270000Y-103835000D01*
X167513004Y-103786664D01*
X167719013Y-103649013D01*
X169876013Y-101492013D01*
X170013664Y-101286004D01*
X170062001Y-101043000D01*
X170062000Y-101042995D01*
X170062000Y-89427000D01*
X170018177Y-89206684D01*
X170071552Y-89286565D01*
X170470917Y-89553413D01*
X170942000Y-89647117D01*
X171413083Y-89553413D01*
X171812448Y-89286565D01*
X172079296Y-88887200D01*
X172173000Y-88416117D01*
X172173000Y-88367883D01*
X172079296Y-87896800D01*
X171812448Y-87497435D01*
X171413083Y-87230587D01*
X170942000Y-87136883D01*
X170470917Y-87230587D01*
X170071552Y-87497435D01*
X169804704Y-87896800D01*
X169711000Y-88367883D01*
X169711000Y-88416117D01*
X169804704Y-88887200D01*
X169843927Y-88945901D01*
X169580098Y-88682072D01*
X169633000Y-88416117D01*
X169633000Y-88367883D01*
X169539296Y-87896800D01*
X169272448Y-87497435D01*
X168873083Y-87230587D01*
X168402000Y-87136883D01*
X167930917Y-87230587D01*
X167531552Y-87497435D01*
X167264704Y-87896800D01*
X167171000Y-88367883D01*
X167171000Y-88416117D01*
X167264704Y-88887200D01*
X167531552Y-89286565D01*
X167930917Y-89553413D01*
X168402000Y-89647117D01*
X168691505Y-89589531D01*
X168792000Y-89690026D01*
X168792000Y-98614919D01*
X168756454Y-98528891D01*
X168572079Y-98344194D01*
X168521017Y-98322991D01*
X165249013Y-95050987D01*
X165043004Y-94913336D01*
X164800000Y-94865000D01*
X155981358Y-94865000D01*
X155931059Y-94844114D01*
X155670086Y-94843886D01*
X155428891Y-94943546D01*
X155244194Y-95127921D01*
X155144114Y-95368941D01*
X155143886Y-95629914D01*
X155243546Y-95871109D01*
X155427921Y-96055806D01*
X155668941Y-96155886D01*
X155929914Y-96156114D01*
X155981014Y-96135000D01*
X164536974Y-96135000D01*
X167622748Y-99220774D01*
X167643546Y-99271109D01*
X167827921Y-99455806D01*
X168068941Y-99555886D01*
X168329914Y-99556114D01*
X168571109Y-99456454D01*
X168755806Y-99272079D01*
X168792000Y-99184914D01*
X168792000Y-100779974D01*
X167006974Y-102565000D01*
X161400000Y-102565000D01*
X161156996Y-102613336D01*
X160950987Y-102750987D01*
X154750987Y-108950987D01*
X154613336Y-109156996D01*
X154565000Y-109400000D01*
X154565000Y-109566974D01*
X153349013Y-108350987D01*
X153143004Y-108213336D01*
X152900000Y-108165000D01*
X149463026Y-108165000D01*
X146549013Y-105250987D01*
X146343004Y-105113336D01*
X146100000Y-105065000D01*
X142581358Y-105065000D01*
X142531059Y-105044114D01*
X142270086Y-105043886D01*
X142028891Y-105143546D01*
X141844194Y-105327921D01*
X141744114Y-105568941D01*
X141743886Y-105829914D01*
X136854000Y-105829914D01*
X136854000Y-101729914D01*
X150343886Y-101729914D01*
X150443546Y-101971109D01*
X150627921Y-102155806D01*
X150868941Y-102255886D01*
X151129914Y-102256114D01*
X151181014Y-102235000D01*
X157118642Y-102235000D01*
X157168941Y-102255886D01*
X157429914Y-102256114D01*
X157671109Y-102156454D01*
X157855806Y-101972079D01*
X157955886Y-101731059D01*
X157956114Y-101470086D01*
X157856454Y-101228891D01*
X157672079Y-101044194D01*
X157431059Y-100944114D01*
X157170086Y-100943886D01*
X157118986Y-100965000D01*
X151181358Y-100965000D01*
X151131059Y-100944114D01*
X150870086Y-100943886D01*
X150628891Y-101043546D01*
X150444194Y-101227921D01*
X150344114Y-101468941D01*
X150343886Y-101729914D01*
X136854000Y-101729914D01*
X136854000Y-97129914D01*
X144643886Y-97129914D01*
X144743546Y-97371109D01*
X144927921Y-97555806D01*
X145168941Y-97655886D01*
X145429914Y-97656114D01*
X145481014Y-97635000D01*
X150718642Y-97635000D01*
X150768941Y-97655886D01*
X151029914Y-97656114D01*
X151271109Y-97556454D01*
X151455806Y-97372079D01*
X151555886Y-97131059D01*
X151556114Y-96870086D01*
X151456454Y-96628891D01*
X151272079Y-96444194D01*
X151031059Y-96344114D01*
X150770086Y-96343886D01*
X150718986Y-96365000D01*
X145481358Y-96365000D01*
X145431059Y-96344114D01*
X145170086Y-96343886D01*
X144928891Y-96443546D01*
X144744194Y-96627921D01*
X144644114Y-96868941D01*
X144643886Y-97129914D01*
X136854000Y-97129914D01*
X136854000Y-93949983D01*
X158380804Y-93949983D01*
X158552625Y-94365823D01*
X158870503Y-94684256D01*
X159286043Y-94856804D01*
X159735983Y-94857196D01*
X160151823Y-94685375D01*
X160470256Y-94367497D01*
X160642804Y-93951957D01*
X160643196Y-93502017D01*
X160471375Y-93086177D01*
X160153497Y-92767744D01*
X159737957Y-92595196D01*
X159288017Y-92594804D01*
X158872177Y-92766625D01*
X158553744Y-93084503D01*
X158381196Y-93500043D01*
X158380804Y-93949983D01*
X136854000Y-93949983D01*
X136854000Y-86790199D01*
X146550735Y-86790199D01*
X146783325Y-87353109D01*
X147213626Y-87784162D01*
X147776129Y-88017734D01*
X148385199Y-88018265D01*
X148948109Y-87785675D01*
X149192209Y-87542000D01*
X154463536Y-87542000D01*
X154463536Y-89242000D01*
X154490103Y-89383190D01*
X154573546Y-89512865D01*
X154700866Y-89599859D01*
X154852000Y-89630464D01*
X156552000Y-89630464D01*
X156693190Y-89603897D01*
X156822865Y-89520454D01*
X156909859Y-89393134D01*
X156940464Y-89242000D01*
X156940464Y-88367883D01*
X157011000Y-88367883D01*
X157011000Y-88416117D01*
X157104704Y-88887200D01*
X157371552Y-89286565D01*
X157770917Y-89553413D01*
X158242000Y-89647117D01*
X158713083Y-89553413D01*
X159112448Y-89286565D01*
X159379296Y-88887200D01*
X159473000Y-88416117D01*
X159473000Y-88367883D01*
X159551000Y-88367883D01*
X159551000Y-88416117D01*
X159644704Y-88887200D01*
X159911552Y-89286565D01*
X160310917Y-89553413D01*
X160782000Y-89647117D01*
X161253083Y-89553413D01*
X161652448Y-89286565D01*
X161919296Y-88887200D01*
X162013000Y-88416117D01*
X162013000Y-88367883D01*
X162091000Y-88367883D01*
X162091000Y-88416117D01*
X162184704Y-88887200D01*
X162451552Y-89286565D01*
X162850917Y-89553413D01*
X163322000Y-89647117D01*
X163793083Y-89553413D01*
X164192448Y-89286565D01*
X164459296Y-88887200D01*
X164553000Y-88416117D01*
X164553000Y-88367883D01*
X164631000Y-88367883D01*
X164631000Y-88416117D01*
X164724704Y-88887200D01*
X164991552Y-89286565D01*
X165390917Y-89553413D01*
X165862000Y-89647117D01*
X166333083Y-89553413D01*
X166732448Y-89286565D01*
X166999296Y-88887200D01*
X167093000Y-88416117D01*
X167093000Y-88367883D01*
X166999296Y-87896800D01*
X166732448Y-87497435D01*
X166333083Y-87230587D01*
X165862000Y-87136883D01*
X165390917Y-87230587D01*
X164991552Y-87497435D01*
X164724704Y-87896800D01*
X164631000Y-88367883D01*
X164553000Y-88367883D01*
X164459296Y-87896800D01*
X164192448Y-87497435D01*
X163793083Y-87230587D01*
X163322000Y-87136883D01*
X162850917Y-87230587D01*
X162451552Y-87497435D01*
X162184704Y-87896800D01*
X162091000Y-88367883D01*
X162013000Y-88367883D01*
X161919296Y-87896800D01*
X161652448Y-87497435D01*
X161253083Y-87230587D01*
X160782000Y-87136883D01*
X160310917Y-87230587D01*
X159911552Y-87497435D01*
X159644704Y-87896800D01*
X159551000Y-88367883D01*
X159473000Y-88367883D01*
X159379296Y-87896800D01*
X159112448Y-87497435D01*
X158713083Y-87230587D01*
X158242000Y-87136883D01*
X157770917Y-87230587D01*
X157371552Y-87497435D01*
X157104704Y-87896800D01*
X157011000Y-88367883D01*
X156940464Y-88367883D01*
X156940464Y-87542000D01*
X156913897Y-87400810D01*
X156830454Y-87271135D01*
X156703134Y-87184141D01*
X156552000Y-87153536D01*
X154852000Y-87153536D01*
X154710810Y-87180103D01*
X154581135Y-87263546D01*
X154494141Y-87390866D01*
X154463536Y-87542000D01*
X149192209Y-87542000D01*
X149379162Y-87355374D01*
X149612734Y-86792871D01*
X149613265Y-86183801D01*
X149466203Y-85827883D01*
X154471000Y-85827883D01*
X154471000Y-85876117D01*
X154564704Y-86347200D01*
X154831552Y-86746565D01*
X155230917Y-87013413D01*
X155702000Y-87107117D01*
X156173083Y-87013413D01*
X156572448Y-86746565D01*
X156839296Y-86347200D01*
X156933000Y-85876117D01*
X156933000Y-85827883D01*
X157011000Y-85827883D01*
X157011000Y-85876117D01*
X157104704Y-86347200D01*
X157371552Y-86746565D01*
X157770917Y-87013413D01*
X158242000Y-87107117D01*
X158713083Y-87013413D01*
X159112448Y-86746565D01*
X159379296Y-86347200D01*
X159473000Y-85876117D01*
X159473000Y-85827883D01*
X159551000Y-85827883D01*
X159551000Y-85876117D01*
X159644704Y-86347200D01*
X159911552Y-86746565D01*
X160310917Y-87013413D01*
X160782000Y-87107117D01*
X161253083Y-87013413D01*
X161652448Y-86746565D01*
X161919296Y-86347200D01*
X162013000Y-85876117D01*
X162013000Y-85827883D01*
X162091000Y-85827883D01*
X162091000Y-85876117D01*
X162184704Y-86347200D01*
X162451552Y-86746565D01*
X162850917Y-87013413D01*
X163322000Y-87107117D01*
X163793083Y-87013413D01*
X164192448Y-86746565D01*
X164459296Y-86347200D01*
X164553000Y-85876117D01*
X164553000Y-85827883D01*
X164631000Y-85827883D01*
X164631000Y-85876117D01*
X164724704Y-86347200D01*
X164991552Y-86746565D01*
X165390917Y-87013413D01*
X165862000Y-87107117D01*
X166333083Y-87013413D01*
X166732448Y-86746565D01*
X166999296Y-86347200D01*
X167093000Y-85876117D01*
X167093000Y-85827883D01*
X166999296Y-85356800D01*
X166732448Y-84957435D01*
X166333083Y-84690587D01*
X165862000Y-84596883D01*
X165390917Y-84690587D01*
X164991552Y-84957435D01*
X164724704Y-85356800D01*
X164631000Y-85827883D01*
X164553000Y-85827883D01*
X164459296Y-85356800D01*
X164192448Y-84957435D01*
X163793083Y-84690587D01*
X163322000Y-84596883D01*
X162850917Y-84690587D01*
X162451552Y-84957435D01*
X162184704Y-85356800D01*
X162091000Y-85827883D01*
X162013000Y-85827883D01*
X161919296Y-85356800D01*
X161652448Y-84957435D01*
X161253083Y-84690587D01*
X160782000Y-84596883D01*
X160310917Y-84690587D01*
X159911552Y-84957435D01*
X159644704Y-85356800D01*
X159551000Y-85827883D01*
X159473000Y-85827883D01*
X159379296Y-85356800D01*
X159112448Y-84957435D01*
X158713083Y-84690587D01*
X158242000Y-84596883D01*
X157770917Y-84690587D01*
X157371552Y-84957435D01*
X157104704Y-85356800D01*
X157011000Y-85827883D01*
X156933000Y-85827883D01*
X156839296Y-85356800D01*
X156572448Y-84957435D01*
X156173083Y-84690587D01*
X155702000Y-84596883D01*
X155230917Y-84690587D01*
X154831552Y-84957435D01*
X154564704Y-85356800D01*
X154471000Y-85827883D01*
X149466203Y-85827883D01*
X149380675Y-85620891D01*
X148950374Y-85189838D01*
X148387871Y-84956266D01*
X147778801Y-84955735D01*
X147215891Y-85188325D01*
X146784838Y-85618626D01*
X146551266Y-86181129D01*
X146550735Y-86790199D01*
X136854000Y-86790199D01*
X136854000Y-82498000D01*
X179122000Y-82498000D01*
X179122000Y-114606000D01*
X179122000Y-114606000D01*
G37*
X179122000Y-114606000D02*
X136854000Y-114606000D01*
X136854000Y-111929914D01*
X149743886Y-111929914D01*
X149843546Y-112171109D01*
X150027921Y-112355806D01*
X150268941Y-112455886D01*
X150529914Y-112456114D01*
X150771109Y-112356454D01*
X150799889Y-112327725D01*
X150827921Y-112355806D01*
X151068941Y-112455886D01*
X151329914Y-112456114D01*
X151571109Y-112356454D01*
X151599889Y-112327725D01*
X151627921Y-112355806D01*
X151868941Y-112455886D01*
X152129914Y-112456114D01*
X152371109Y-112356454D01*
X152399889Y-112327725D01*
X152427921Y-112355806D01*
X152668941Y-112455886D01*
X152929914Y-112456114D01*
X153171109Y-112356454D01*
X153355806Y-112172079D01*
X153455886Y-111931059D01*
X153456114Y-111670086D01*
X153356454Y-111428891D01*
X153172079Y-111244194D01*
X152931059Y-111144114D01*
X152670086Y-111143886D01*
X152428891Y-111243546D01*
X152400111Y-111272275D01*
X152372079Y-111244194D01*
X152131059Y-111144114D01*
X151870086Y-111143886D01*
X151628891Y-111243546D01*
X151600111Y-111272275D01*
X151572079Y-111244194D01*
X151331059Y-111144114D01*
X151070086Y-111143886D01*
X150828891Y-111243546D01*
X150800111Y-111272275D01*
X150772079Y-111244194D01*
X150531059Y-111144114D01*
X150270086Y-111143886D01*
X150028891Y-111243546D01*
X149844194Y-111427921D01*
X149744114Y-111668941D01*
X149743886Y-111929914D01*
X136854000Y-111929914D01*
X136854000Y-105829914D01*
X141743886Y-105829914D01*
X141843546Y-106071109D01*
X142027921Y-106255806D01*
X142268941Y-106355886D01*
X142529914Y-106356114D01*
X142581014Y-106335000D01*
X145836974Y-106335000D01*
X148750987Y-109249013D01*
X148956996Y-109386664D01*
X149200000Y-109435000D01*
X152636974Y-109435000D01*
X154565000Y-111363026D01*
X154565000Y-111618642D01*
X154544114Y-111668941D01*
X154543886Y-111929914D01*
X154643546Y-112171109D01*
X154827921Y-112355806D01*
X155068941Y-112455886D01*
X155329914Y-112456114D01*
X155571109Y-112356454D01*
X155755806Y-112172079D01*
X155855886Y-111931059D01*
X155856114Y-111670086D01*
X155835000Y-111618986D01*
X155835000Y-111506000D01*
X156165000Y-111506000D01*
X156165000Y-111618642D01*
X156144114Y-111668941D01*
X156143886Y-111929914D01*
X156243546Y-112171109D01*
X156427921Y-112355806D01*
X156668941Y-112455886D01*
X156929914Y-112456114D01*
X157171109Y-112356454D01*
X157355806Y-112172079D01*
X157455886Y-111931059D01*
X157456114Y-111670086D01*
X157435000Y-111618986D01*
X157435000Y-111363026D01*
X162763026Y-106035000D01*
X171900000Y-106035000D01*
X172143004Y-105986664D01*
X172349013Y-105849013D01*
X174420774Y-103777252D01*
X174471109Y-103756454D01*
X174655806Y-103572079D01*
X174755886Y-103331059D01*
X174756114Y-103070086D01*
X174656454Y-102828891D01*
X174472079Y-102644194D01*
X174231059Y-102544114D01*
X173970086Y-102543886D01*
X173728891Y-102643546D01*
X173544194Y-102827921D01*
X173522991Y-102878983D01*
X172074205Y-104327769D01*
X172155886Y-104131059D01*
X172156114Y-103870086D01*
X172056454Y-103628891D01*
X171872079Y-103444194D01*
X171631059Y-103344114D01*
X171370086Y-103343886D01*
X171128891Y-103443546D01*
X170944194Y-103627921D01*
X170844114Y-103868941D01*
X170843886Y-104129914D01*
X170943546Y-104371109D01*
X171127921Y-104555806D01*
X171368941Y-104655886D01*
X171629914Y-104656114D01*
X171827502Y-104574472D01*
X171636974Y-104765000D01*
X162500000Y-104765000D01*
X162256995Y-104813336D01*
X162050987Y-104950987D01*
X156574205Y-110427769D01*
X156655886Y-110231059D01*
X156656114Y-109970086D01*
X156556454Y-109728891D01*
X156372079Y-109544194D01*
X156131059Y-109444114D01*
X156053979Y-109444047D01*
X161663026Y-103835000D01*
X167270000Y-103835000D01*
X167513004Y-103786664D01*
X167719013Y-103649013D01*
X169876013Y-101492013D01*
X170013664Y-101286004D01*
X170062001Y-101043000D01*
X170062000Y-101042995D01*
X170062000Y-89427000D01*
X170018177Y-89206684D01*
X170071552Y-89286565D01*
X170470917Y-89553413D01*
X170942000Y-89647117D01*
X171413083Y-89553413D01*
X171812448Y-89286565D01*
X172079296Y-88887200D01*
X172173000Y-88416117D01*
X172173000Y-88367883D01*
X172079296Y-87896800D01*
X171812448Y-87497435D01*
X171413083Y-87230587D01*
X170942000Y-87136883D01*
X170470917Y-87230587D01*
X170071552Y-87497435D01*
X169804704Y-87896800D01*
X169711000Y-88367883D01*
X169711000Y-88416117D01*
X169804704Y-88887200D01*
X169843927Y-88945901D01*
X169580098Y-88682072D01*
X169633000Y-88416117D01*
X169633000Y-88367883D01*
X169539296Y-87896800D01*
X169272448Y-87497435D01*
X168873083Y-87230587D01*
X168402000Y-87136883D01*
X167930917Y-87230587D01*
X167531552Y-87497435D01*
X167264704Y-87896800D01*
X167171000Y-88367883D01*
X167171000Y-88416117D01*
X167264704Y-88887200D01*
X167531552Y-89286565D01*
X167930917Y-89553413D01*
X168402000Y-89647117D01*
X168691505Y-89589531D01*
X168792000Y-89690026D01*
X168792000Y-98614919D01*
X168756454Y-98528891D01*
X168572079Y-98344194D01*
X168521017Y-98322991D01*
X165249013Y-95050987D01*
X165043004Y-94913336D01*
X164800000Y-94865000D01*
X155981358Y-94865000D01*
X155931059Y-94844114D01*
X155670086Y-94843886D01*
X155428891Y-94943546D01*
X155244194Y-95127921D01*
X155144114Y-95368941D01*
X155143886Y-95629914D01*
X155243546Y-95871109D01*
X155427921Y-96055806D01*
X155668941Y-96155886D01*
X155929914Y-96156114D01*
X155981014Y-96135000D01*
X164536974Y-96135000D01*
X167622748Y-99220774D01*
X167643546Y-99271109D01*
X167827921Y-99455806D01*
X168068941Y-99555886D01*
X168329914Y-99556114D01*
X168571109Y-99456454D01*
X168755806Y-99272079D01*
X168792000Y-99184914D01*
X168792000Y-100779974D01*
X167006974Y-102565000D01*
X161400000Y-102565000D01*
X161156996Y-102613336D01*
X160950987Y-102750987D01*
X154750987Y-108950987D01*
X154613336Y-109156996D01*
X154565000Y-109400000D01*
X154565000Y-109566974D01*
X153349013Y-108350987D01*
X153143004Y-108213336D01*
X152900000Y-108165000D01*
X149463026Y-108165000D01*
X146549013Y-105250987D01*
X146343004Y-105113336D01*
X146100000Y-105065000D01*
X142581358Y-105065000D01*
X142531059Y-105044114D01*
X142270086Y-105043886D01*
X142028891Y-105143546D01*
X141844194Y-105327921D01*
X141744114Y-105568941D01*
X141743886Y-105829914D01*
X136854000Y-105829914D01*
X136854000Y-101729914D01*
X150343886Y-101729914D01*
X150443546Y-101971109D01*
X150627921Y-102155806D01*
X150868941Y-102255886D01*
X151129914Y-102256114D01*
X151181014Y-102235000D01*
X157118642Y-102235000D01*
X157168941Y-102255886D01*
X157429914Y-102256114D01*
X157671109Y-102156454D01*
X157855806Y-101972079D01*
X157955886Y-101731059D01*
X157956114Y-101470086D01*
X157856454Y-101228891D01*
X157672079Y-101044194D01*
X157431059Y-100944114D01*
X157170086Y-100943886D01*
X157118986Y-100965000D01*
X151181358Y-100965000D01*
X151131059Y-100944114D01*
X150870086Y-100943886D01*
X150628891Y-101043546D01*
X150444194Y-101227921D01*
X150344114Y-101468941D01*
X150343886Y-101729914D01*
X136854000Y-101729914D01*
X136854000Y-97129914D01*
X144643886Y-97129914D01*
X144743546Y-97371109D01*
X144927921Y-97555806D01*
X145168941Y-97655886D01*
X145429914Y-97656114D01*
X145481014Y-97635000D01*
X150718642Y-97635000D01*
X150768941Y-97655886D01*
X151029914Y-97656114D01*
X151271109Y-97556454D01*
X151455806Y-97372079D01*
X151555886Y-97131059D01*
X151556114Y-96870086D01*
X151456454Y-96628891D01*
X151272079Y-96444194D01*
X151031059Y-96344114D01*
X150770086Y-96343886D01*
X150718986Y-96365000D01*
X145481358Y-96365000D01*
X145431059Y-96344114D01*
X145170086Y-96343886D01*
X144928891Y-96443546D01*
X144744194Y-96627921D01*
X144644114Y-96868941D01*
X144643886Y-97129914D01*
X136854000Y-97129914D01*
X136854000Y-93949983D01*
X158380804Y-93949983D01*
X158552625Y-94365823D01*
X158870503Y-94684256D01*
X159286043Y-94856804D01*
X159735983Y-94857196D01*
X160151823Y-94685375D01*
X160470256Y-94367497D01*
X160642804Y-93951957D01*
X160643196Y-93502017D01*
X160471375Y-93086177D01*
X160153497Y-92767744D01*
X159737957Y-92595196D01*
X159288017Y-92594804D01*
X158872177Y-92766625D01*
X158553744Y-93084503D01*
X158381196Y-93500043D01*
X158380804Y-93949983D01*
X136854000Y-93949983D01*
X136854000Y-86790199D01*
X146550735Y-86790199D01*
X146783325Y-87353109D01*
X147213626Y-87784162D01*
X147776129Y-88017734D01*
X148385199Y-88018265D01*
X148948109Y-87785675D01*
X149192209Y-87542000D01*
X154463536Y-87542000D01*
X154463536Y-89242000D01*
X154490103Y-89383190D01*
X154573546Y-89512865D01*
X154700866Y-89599859D01*
X154852000Y-89630464D01*
X156552000Y-89630464D01*
X156693190Y-89603897D01*
X156822865Y-89520454D01*
X156909859Y-89393134D01*
X156940464Y-89242000D01*
X156940464Y-88367883D01*
X157011000Y-88367883D01*
X157011000Y-88416117D01*
X157104704Y-88887200D01*
X157371552Y-89286565D01*
X157770917Y-89553413D01*
X158242000Y-89647117D01*
X158713083Y-89553413D01*
X159112448Y-89286565D01*
X159379296Y-88887200D01*
X159473000Y-88416117D01*
X159473000Y-88367883D01*
X159551000Y-88367883D01*
X159551000Y-88416117D01*
X159644704Y-88887200D01*
X159911552Y-89286565D01*
X160310917Y-89553413D01*
X160782000Y-89647117D01*
X161253083Y-89553413D01*
X161652448Y-89286565D01*
X161919296Y-88887200D01*
X162013000Y-88416117D01*
X162013000Y-88367883D01*
X162091000Y-88367883D01*
X162091000Y-88416117D01*
X162184704Y-88887200D01*
X162451552Y-89286565D01*
X162850917Y-89553413D01*
X163322000Y-89647117D01*
X163793083Y-89553413D01*
X164192448Y-89286565D01*
X164459296Y-88887200D01*
X164553000Y-88416117D01*
X164553000Y-88367883D01*
X164631000Y-88367883D01*
X164631000Y-88416117D01*
X164724704Y-88887200D01*
X164991552Y-89286565D01*
X165390917Y-89553413D01*
X165862000Y-89647117D01*
X166333083Y-89553413D01*
X166732448Y-89286565D01*
X166999296Y-88887200D01*
X167093000Y-88416117D01*
X167093000Y-88367883D01*
X166999296Y-87896800D01*
X166732448Y-87497435D01*
X166333083Y-87230587D01*
X165862000Y-87136883D01*
X165390917Y-87230587D01*
X164991552Y-87497435D01*
X164724704Y-87896800D01*
X164631000Y-88367883D01*
X164553000Y-88367883D01*
X164459296Y-87896800D01*
X164192448Y-87497435D01*
X163793083Y-87230587D01*
X163322000Y-87136883D01*
X162850917Y-87230587D01*
X162451552Y-87497435D01*
X162184704Y-87896800D01*
X162091000Y-88367883D01*
X162013000Y-88367883D01*
X161919296Y-87896800D01*
X161652448Y-87497435D01*
X161253083Y-87230587D01*
X160782000Y-87136883D01*
X160310917Y-87230587D01*
X159911552Y-87497435D01*
X159644704Y-87896800D01*
X159551000Y-88367883D01*
X159473000Y-88367883D01*
X159379296Y-87896800D01*
X159112448Y-87497435D01*
X158713083Y-87230587D01*
X158242000Y-87136883D01*
X157770917Y-87230587D01*
X157371552Y-87497435D01*
X157104704Y-87896800D01*
X157011000Y-88367883D01*
X156940464Y-88367883D01*
X156940464Y-87542000D01*
X156913897Y-87400810D01*
X156830454Y-87271135D01*
X156703134Y-87184141D01*
X156552000Y-87153536D01*
X154852000Y-87153536D01*
X154710810Y-87180103D01*
X154581135Y-87263546D01*
X154494141Y-87390866D01*
X154463536Y-87542000D01*
X149192209Y-87542000D01*
X149379162Y-87355374D01*
X149612734Y-86792871D01*
X149613265Y-86183801D01*
X149466203Y-85827883D01*
X154471000Y-85827883D01*
X154471000Y-85876117D01*
X154564704Y-86347200D01*
X154831552Y-86746565D01*
X155230917Y-87013413D01*
X155702000Y-87107117D01*
X156173083Y-87013413D01*
X156572448Y-86746565D01*
X156839296Y-86347200D01*
X156933000Y-85876117D01*
X156933000Y-85827883D01*
X157011000Y-85827883D01*
X157011000Y-85876117D01*
X157104704Y-86347200D01*
X157371552Y-86746565D01*
X157770917Y-87013413D01*
X158242000Y-87107117D01*
X158713083Y-87013413D01*
X159112448Y-86746565D01*
X159379296Y-86347200D01*
X159473000Y-85876117D01*
X159473000Y-85827883D01*
X159551000Y-85827883D01*
X159551000Y-85876117D01*
X159644704Y-86347200D01*
X159911552Y-86746565D01*
X160310917Y-87013413D01*
X160782000Y-87107117D01*
X161253083Y-87013413D01*
X161652448Y-86746565D01*
X161919296Y-86347200D01*
X162013000Y-85876117D01*
X162013000Y-85827883D01*
X162091000Y-85827883D01*
X162091000Y-85876117D01*
X162184704Y-86347200D01*
X162451552Y-86746565D01*
X162850917Y-87013413D01*
X163322000Y-87107117D01*
X163793083Y-87013413D01*
X164192448Y-86746565D01*
X164459296Y-86347200D01*
X164553000Y-85876117D01*
X164553000Y-85827883D01*
X164631000Y-85827883D01*
X164631000Y-85876117D01*
X164724704Y-86347200D01*
X164991552Y-86746565D01*
X165390917Y-87013413D01*
X165862000Y-87107117D01*
X166333083Y-87013413D01*
X166732448Y-86746565D01*
X166999296Y-86347200D01*
X167093000Y-85876117D01*
X167093000Y-85827883D01*
X166999296Y-85356800D01*
X166732448Y-84957435D01*
X166333083Y-84690587D01*
X165862000Y-84596883D01*
X165390917Y-84690587D01*
X164991552Y-84957435D01*
X164724704Y-85356800D01*
X164631000Y-85827883D01*
X164553000Y-85827883D01*
X164459296Y-85356800D01*
X164192448Y-84957435D01*
X163793083Y-84690587D01*
X163322000Y-84596883D01*
X162850917Y-84690587D01*
X162451552Y-84957435D01*
X162184704Y-85356800D01*
X162091000Y-85827883D01*
X162013000Y-85827883D01*
X161919296Y-85356800D01*
X161652448Y-84957435D01*
X161253083Y-84690587D01*
X160782000Y-84596883D01*
X160310917Y-84690587D01*
X159911552Y-84957435D01*
X159644704Y-85356800D01*
X159551000Y-85827883D01*
X159473000Y-85827883D01*
X159379296Y-85356800D01*
X159112448Y-84957435D01*
X158713083Y-84690587D01*
X158242000Y-84596883D01*
X157770917Y-84690587D01*
X157371552Y-84957435D01*
X157104704Y-85356800D01*
X157011000Y-85827883D01*
X156933000Y-85827883D01*
X156839296Y-85356800D01*
X156572448Y-84957435D01*
X156173083Y-84690587D01*
X155702000Y-84596883D01*
X155230917Y-84690587D01*
X154831552Y-84957435D01*
X154564704Y-85356800D01*
X154471000Y-85827883D01*
X149466203Y-85827883D01*
X149380675Y-85620891D01*
X148950374Y-85189838D01*
X148387871Y-84956266D01*
X147778801Y-84955735D01*
X147215891Y-85188325D01*
X146784838Y-85618626D01*
X146551266Y-86181129D01*
X146550735Y-86790199D01*
X136854000Y-86790199D01*
X136854000Y-82498000D01*
X179122000Y-82498000D01*
X179122000Y-114606000D01*
M02*
