G04*
G04 #@! TF.GenerationSoftware,Altium Limited,Altium Designer,22.4.2 (48)*
G04*
G04 Layer_Color=8388736*
%FSLAX25Y25*%
%MOIN*%
G70*
G04*
G04 #@! TF.SameCoordinates,D0525307-FA06-41FD-84B0-9E93535F59E6*
G04*
G04*
G04 #@! TF.FilePolarity,Negative*
G04*
G01*
G75*
%ADD10C,0.00800*%
G36*
X290693Y47875D02*
X290802D01*
X290923Y47864D01*
X291054Y47842D01*
X291207Y47831D01*
X291524Y47766D01*
X291884Y47678D01*
X292245Y47569D01*
X292420Y47492D01*
X292595Y47405D01*
X292606D01*
X292639Y47383D01*
X292682Y47361D01*
X292748Y47317D01*
X292824Y47274D01*
X292912Y47219D01*
X293120Y47088D01*
X293349Y46913D01*
X293589Y46716D01*
X293819Y46487D01*
X294016Y46235D01*
X294027Y46224D01*
X294038Y46203D01*
X294059Y46170D01*
X294092Y46115D01*
X294125Y46060D01*
X294169Y45984D01*
X294267Y45820D01*
X294355Y45612D01*
X294431Y45394D01*
X294486Y45164D01*
X294508Y45055D01*
Y44935D01*
Y44924D01*
Y44880D01*
X294497Y44815D01*
X294475Y44738D01*
X294453Y44640D01*
X294409Y44541D01*
X294344Y44432D01*
X294267Y44334D01*
X294256Y44323D01*
X294223Y44290D01*
X294169Y44257D01*
X294103Y44213D01*
X294016Y44159D01*
X293917Y44126D01*
X293808Y44093D01*
X293688Y44082D01*
X293622D01*
X293557Y44093D01*
X293480Y44104D01*
X293382Y44126D01*
X293294Y44159D01*
X293196Y44202D01*
X293120Y44257D01*
X293109Y44268D01*
X293087Y44290D01*
X293054Y44334D01*
X292999Y44399D01*
X292934Y44487D01*
X292868Y44596D01*
X292792Y44727D01*
X292704Y44880D01*
Y44891D01*
X292682Y44913D01*
X292660Y44946D01*
X292639Y45000D01*
X292551Y45131D01*
X292453Y45285D01*
X292311Y45459D01*
X292158Y45645D01*
X291983Y45809D01*
X291797Y45962D01*
X291786D01*
X291775Y45973D01*
X291742Y45995D01*
X291699Y46017D01*
X291589Y46071D01*
X291436Y46148D01*
X291250Y46213D01*
X291032Y46268D01*
X290780Y46312D01*
X290507Y46323D01*
X290453D01*
X290387Y46312D01*
X290311D01*
X290201Y46290D01*
X290081Y46279D01*
X289950Y46246D01*
X289808Y46203D01*
X289655Y46159D01*
X289502Y46093D01*
X289338Y46017D01*
X289185Y45929D01*
X289021Y45820D01*
X288868Y45700D01*
X288715Y45558D01*
X288573Y45394D01*
X288562Y45383D01*
X288540Y45350D01*
X288507Y45295D01*
X288463Y45219D01*
X288409Y45131D01*
X288343Y45011D01*
X288288Y44869D01*
X288223Y44716D01*
X288146Y44541D01*
X288092Y44344D01*
X288026Y44126D01*
X287971Y43896D01*
X287928Y43645D01*
X287895Y43372D01*
X287873Y43077D01*
X287862Y42771D01*
Y42760D01*
Y42716D01*
Y42661D01*
Y42585D01*
X287873Y42486D01*
X287884Y42366D01*
Y42246D01*
X287906Y42104D01*
X287939Y41809D01*
X287993Y41492D01*
X288070Y41175D01*
X288179Y40880D01*
Y40869D01*
X288190Y40847D01*
X288212Y40803D01*
X288234Y40760D01*
X288267Y40694D01*
X288310Y40617D01*
X288409Y40453D01*
X288540Y40279D01*
X288693Y40082D01*
X288868Y39907D01*
X289075Y39754D01*
X289086D01*
X289097Y39743D01*
X289130Y39721D01*
X289185Y39699D01*
X289239Y39667D01*
X289305Y39634D01*
X289469Y39568D01*
X289666Y39503D01*
X289906Y39437D01*
X290158Y39393D01*
X290442Y39382D01*
X290529D01*
X290584Y39393D01*
X290660D01*
X290748Y39404D01*
X290944Y39437D01*
X291174Y39481D01*
X291414Y39557D01*
X291655Y39656D01*
X291884Y39798D01*
X291895D01*
X291906Y39819D01*
X291939Y39841D01*
X291983Y39874D01*
X292092Y39972D01*
X292212Y40115D01*
X292365Y40290D01*
X292507Y40508D01*
X292650Y40760D01*
X292770Y41044D01*
X292781Y41065D01*
X292792Y41109D01*
X292824Y41175D01*
X292857Y41262D01*
X292901Y41361D01*
X292956Y41470D01*
X293021Y41568D01*
X293087Y41667D01*
X293098Y41678D01*
X293120Y41699D01*
X293163Y41743D01*
X293229Y41787D01*
X293316Y41831D01*
X293415Y41874D01*
X293535Y41896D01*
X293677Y41907D01*
X293732D01*
X293797Y41896D01*
X293885Y41874D01*
X293983Y41842D01*
X294081Y41798D01*
X294180Y41743D01*
X294278Y41656D01*
X294289Y41645D01*
X294322Y41612D01*
X294366Y41557D01*
X294409Y41492D01*
X294453Y41404D01*
X294497Y41306D01*
X294530Y41186D01*
X294540Y41055D01*
Y41033D01*
Y40978D01*
X294530Y40880D01*
X294508Y40749D01*
X294486Y40595D01*
X294442Y40432D01*
X294387Y40235D01*
X294311Y40038D01*
Y40027D01*
X294300Y40016D01*
X294289Y39983D01*
X294267Y39951D01*
X294213Y39841D01*
X294136Y39710D01*
X294038Y39546D01*
X293906Y39360D01*
X293764Y39175D01*
X293589Y38978D01*
Y38967D01*
X293568Y38956D01*
X293502Y38890D01*
X293393Y38803D01*
X293251Y38683D01*
X293065Y38552D01*
X292857Y38410D01*
X292606Y38267D01*
X292333Y38136D01*
X292322D01*
X292300Y38125D01*
X292256Y38104D01*
X292201Y38092D01*
X292125Y38060D01*
X292037Y38038D01*
X291939Y38005D01*
X291819Y37983D01*
X291699Y37951D01*
X291557Y37918D01*
X291261Y37874D01*
X290923Y37830D01*
X290551Y37819D01*
X290354D01*
X290278Y37830D01*
X290092Y37841D01*
X289873Y37852D01*
X289644Y37885D01*
X289392Y37918D01*
X289152Y37961D01*
X289141D01*
X289119Y37972D01*
X289086D01*
X289043Y37994D01*
X288922Y38027D01*
X288769Y38071D01*
X288595Y38136D01*
X288398Y38213D01*
X288201Y38300D01*
X288004Y38410D01*
X287993D01*
X287982Y38420D01*
X287917Y38464D01*
X287819Y38541D01*
X287698Y38628D01*
X287545Y38748D01*
X287392Y38890D01*
X287228Y39054D01*
X287064Y39229D01*
X287042Y39251D01*
X286999Y39306D01*
X286922Y39404D01*
X286835Y39524D01*
X286725Y39677D01*
X286616Y39852D01*
X286507Y40038D01*
X286398Y40246D01*
Y40257D01*
X286387Y40268D01*
X286376Y40300D01*
X286354Y40344D01*
X286299Y40464D01*
X286245Y40606D01*
X286179Y40792D01*
X286113Y41000D01*
X286048Y41219D01*
X285993Y41459D01*
Y41470D01*
Y41492D01*
X285982Y41525D01*
X285971Y41568D01*
X285960Y41634D01*
X285949Y41699D01*
X285928Y41874D01*
X285906Y42082D01*
X285884Y42311D01*
X285873Y42563D01*
X285862Y42836D01*
Y42847D01*
Y42891D01*
Y42946D01*
X285873Y43033D01*
Y43131D01*
X285884Y43251D01*
X285895Y43394D01*
X285906Y43536D01*
X285949Y43864D01*
X286004Y44213D01*
X286091Y44574D01*
X286201Y44935D01*
Y44946D01*
X286212Y44978D01*
X286234Y45022D01*
X286266Y45088D01*
X286299Y45175D01*
X286343Y45263D01*
X286387Y45372D01*
X286452Y45481D01*
X286583Y45733D01*
X286758Y45995D01*
X286955Y46268D01*
X287174Y46520D01*
X287185Y46531D01*
X287206Y46552D01*
X287239Y46585D01*
X287283Y46629D01*
X287349Y46683D01*
X287425Y46749D01*
X287512Y46826D01*
X287600Y46902D01*
X287819Y47066D01*
X288081Y47230D01*
X288365Y47394D01*
X288671Y47536D01*
X288682D01*
X288715Y47547D01*
X288758Y47569D01*
X288824Y47591D01*
X288900Y47613D01*
X288999Y47645D01*
X289108Y47678D01*
X289228Y47711D01*
X289360Y47744D01*
X289502Y47776D01*
X289808Y47831D01*
X290146Y47875D01*
X290496Y47886D01*
X290616D01*
X290693Y47875D01*
D02*
G37*
G36*
X311537D02*
X311635Y47853D01*
X311744Y47820D01*
X311854Y47776D01*
X311963Y47722D01*
X312072Y47634D01*
X312083Y47624D01*
X312116Y47591D01*
X312160Y47536D01*
X312203Y47460D01*
X312247Y47372D01*
X312291Y47274D01*
X312323Y47153D01*
X312334Y47022D01*
Y47001D01*
X312323Y46946D01*
X312313Y46869D01*
X312280Y46760D01*
X312225Y46629D01*
X312149Y46487D01*
X312039Y46334D01*
X311886Y46170D01*
X309493Y43896D01*
X312247Y39940D01*
X312258Y39918D01*
X312291Y39874D01*
X312345Y39798D01*
X312411Y39699D01*
X312488Y39579D01*
X312553Y39459D01*
X312630Y39339D01*
X312684Y39218D01*
X312695Y39207D01*
X312706Y39164D01*
X312728Y39109D01*
X312761Y39033D01*
X312793Y38934D01*
X312815Y38836D01*
X312826Y38726D01*
X312837Y38617D01*
Y38606D01*
Y38563D01*
X312826Y38497D01*
X312804Y38420D01*
X312772Y38333D01*
X312728Y38235D01*
X312662Y38147D01*
X312575Y38049D01*
X312564Y38038D01*
X312531Y38016D01*
X312476Y37972D01*
X312400Y37940D01*
X312302Y37896D01*
X312181Y37852D01*
X312039Y37830D01*
X311886Y37819D01*
X311821D01*
X311744Y37830D01*
X311646Y37841D01*
X311537Y37863D01*
X311427Y37896D01*
X311318Y37940D01*
X311209Y37994D01*
X311198Y38005D01*
X311165Y38027D01*
X311121Y38060D01*
X311056Y38114D01*
X310990Y38180D01*
X310913Y38267D01*
X310848Y38355D01*
X310771Y38453D01*
X310760Y38464D01*
X310739Y38508D01*
X310706Y38563D01*
X310662Y38628D01*
X310618Y38716D01*
X310564Y38803D01*
X310455Y38989D01*
X308126Y42574D01*
X306520Y41022D01*
Y39011D01*
Y39000D01*
Y38989D01*
Y38956D01*
Y38912D01*
X306509Y38803D01*
X306487Y38672D01*
X306454Y38530D01*
X306399Y38377D01*
X306334Y38235D01*
X306236Y38114D01*
X306225Y38104D01*
X306192Y38071D01*
X306126Y38016D01*
X306050Y37972D01*
X305940Y37918D01*
X305820Y37863D01*
X305678Y37830D01*
X305525Y37819D01*
X305481D01*
X305438Y37830D01*
X305372Y37841D01*
X305295Y37852D01*
X305208Y37874D01*
X305121Y37907D01*
X305033Y37951D01*
X305022Y37961D01*
X305000Y37972D01*
X304957Y38005D01*
X304902Y38049D01*
X304793Y38158D01*
X304683Y38300D01*
Y38311D01*
X304673Y38333D01*
X304651Y38377D01*
X304629Y38420D01*
X304607Y38486D01*
X304596Y38563D01*
X304563Y38726D01*
Y38737D01*
Y38770D01*
Y38836D01*
Y38912D01*
X304552Y39011D01*
Y39142D01*
Y39284D01*
Y39448D01*
Y46683D01*
Y46694D01*
Y46705D01*
Y46738D01*
Y46782D01*
X304563Y46891D01*
X304585Y47022D01*
X304618Y47164D01*
X304662Y47317D01*
X304716Y47460D01*
X304804Y47580D01*
X304815Y47591D01*
X304847Y47624D01*
X304913Y47678D01*
X304990Y47733D01*
X305099Y47787D01*
X305219Y47842D01*
X305361Y47875D01*
X305525Y47886D01*
X305602D01*
X305678Y47875D01*
X305777Y47853D01*
X305886Y47809D01*
X306006Y47755D01*
X306126Y47678D01*
X306236Y47580D01*
X306246Y47569D01*
X306279Y47525D01*
X306323Y47460D01*
X306378Y47361D01*
X306432Y47230D01*
X306476Y47077D01*
X306509Y46891D01*
X306520Y46683D01*
Y43273D01*
X310389Y47306D01*
X310400Y47317D01*
X310433Y47350D01*
X310487Y47405D01*
X310553Y47471D01*
X310706Y47613D01*
X310782Y47689D01*
X310859Y47744D01*
X310870Y47755D01*
X310892Y47766D01*
X310935Y47787D01*
X311001Y47820D01*
X311077Y47842D01*
X311165Y47864D01*
X311263Y47875D01*
X311384Y47886D01*
X311460D01*
X311537Y47875D01*
D02*
G37*
G36*
X297404D02*
X297502Y47853D01*
X297612Y47809D01*
X297732Y47755D01*
X297852Y47678D01*
X297961Y47580D01*
X297972Y47569D01*
X298005Y47525D01*
X298049Y47460D01*
X298104Y47361D01*
X298158Y47230D01*
X298202Y47077D01*
X298235Y46891D01*
X298246Y46683D01*
Y39601D01*
X302312D01*
X302399Y39590D01*
X302508Y39568D01*
X302629Y39546D01*
X302749Y39503D01*
X302869Y39437D01*
X302967Y39360D01*
X302978Y39349D01*
X303011Y39317D01*
X303055Y39273D01*
X303099Y39207D01*
X303142Y39120D01*
X303186Y39022D01*
X303219Y38901D01*
X303230Y38781D01*
Y38770D01*
Y38726D01*
X303219Y38661D01*
X303197Y38574D01*
X303164Y38486D01*
X303120Y38388D01*
X303066Y38289D01*
X302978Y38202D01*
X302967Y38191D01*
X302935Y38169D01*
X302869Y38136D01*
X302793Y38092D01*
X302683Y38049D01*
X302563Y38016D01*
X302410Y37994D01*
X302235Y37983D01*
X297371D01*
X297262Y37994D01*
X297120Y38016D01*
X296967Y38049D01*
X296814Y38104D01*
X296672Y38169D01*
X296551Y38267D01*
X296541Y38278D01*
X296508Y38322D01*
X296464Y38388D01*
X296420Y38486D01*
X296366Y38617D01*
X296322Y38770D01*
X296289Y38967D01*
X296278Y39186D01*
Y46683D01*
Y46694D01*
Y46705D01*
Y46738D01*
Y46782D01*
X296289Y46891D01*
X296311Y47022D01*
X296344Y47164D01*
X296388Y47317D01*
X296453Y47460D01*
X296541Y47580D01*
X296551Y47591D01*
X296595Y47624D01*
X296650Y47678D01*
X296737Y47733D01*
X296836Y47787D01*
X296956Y47842D01*
X297098Y47875D01*
X297251Y47886D01*
X297328D01*
X297404Y47875D01*
D02*
G37*
G36*
X275522Y47700D02*
X275621Y47689D01*
X275741Y47656D01*
X275850Y47624D01*
X275959Y47569D01*
X276058Y47492D01*
X276069Y47481D01*
X276091Y47460D01*
X276134Y47405D01*
X276178Y47350D01*
X276211Y47263D01*
X276255Y47175D01*
X276276Y47066D01*
X276287Y46946D01*
Y46935D01*
Y46891D01*
X276276Y46826D01*
X276255Y46749D01*
X276233Y46662D01*
X276189Y46574D01*
X276134Y46487D01*
X276058Y46399D01*
X276047Y46388D01*
X276014Y46367D01*
X275959Y46334D01*
X275883Y46301D01*
X275784Y46257D01*
X275664Y46224D01*
X275522Y46203D01*
X275358Y46192D01*
X270921D01*
Y43809D01*
X275085D01*
X275162Y43798D01*
X275260Y43787D01*
X275369Y43754D01*
X275479Y43722D01*
X275588Y43667D01*
X275675Y43601D01*
X275686Y43590D01*
X275708Y43569D01*
X275752Y43514D01*
X275796Y43459D01*
X275828Y43383D01*
X275872Y43284D01*
X275894Y43186D01*
X275905Y43066D01*
Y43055D01*
Y43011D01*
X275894Y42956D01*
X275883Y42880D01*
X275850Y42792D01*
X275817Y42705D01*
X275763Y42618D01*
X275686Y42530D01*
X275675Y42519D01*
X275642Y42497D01*
X275588Y42465D01*
X275522Y42432D01*
X275424Y42388D01*
X275304Y42355D01*
X275172Y42333D01*
X275009Y42322D01*
X270921D01*
Y39546D01*
X275588D01*
X275664Y39535D01*
X275774Y39524D01*
X275883Y39492D01*
X275992Y39459D01*
X276101Y39404D01*
X276200Y39328D01*
X276211Y39317D01*
X276233Y39284D01*
X276276Y39240D01*
X276320Y39175D01*
X276364Y39087D01*
X276408Y38989D01*
X276429Y38879D01*
X276440Y38748D01*
Y38737D01*
Y38694D01*
X276429Y38628D01*
X276408Y38552D01*
X276386Y38464D01*
X276342Y38366D01*
X276276Y38278D01*
X276200Y38191D01*
X276189Y38180D01*
X276156Y38158D01*
X276101Y38125D01*
X276025Y38092D01*
X275927Y38049D01*
X275817Y38016D01*
X275675Y37994D01*
X275511Y37983D01*
X270046D01*
X269937Y37994D01*
X269795Y38016D01*
X269642Y38049D01*
X269489Y38104D01*
X269347Y38169D01*
X269227Y38267D01*
X269216Y38278D01*
X269183Y38322D01*
X269139Y38388D01*
X269095Y38486D01*
X269041Y38617D01*
X268997Y38770D01*
X268964Y38967D01*
X268953Y39186D01*
Y46498D01*
Y46520D01*
Y46574D01*
X268964Y46651D01*
Y46749D01*
X268986Y46858D01*
X269008Y46968D01*
X269030Y47077D01*
X269074Y47186D01*
X269084Y47197D01*
X269095Y47230D01*
X269128Y47285D01*
X269172Y47339D01*
X269227Y47405D01*
X269292Y47471D01*
X269380Y47525D01*
X269467Y47580D01*
X269478Y47591D01*
X269522Y47602D01*
X269576Y47624D01*
X269653Y47645D01*
X269751Y47667D01*
X269871Y47689D01*
X270003Y47711D01*
X275435D01*
X275522Y47700D01*
D02*
G37*
G36*
X284004D02*
X284102Y47689D01*
X284223Y47656D01*
X284332Y47624D01*
X284441Y47569D01*
X284540Y47492D01*
X284550Y47481D01*
X284572Y47460D01*
X284616Y47405D01*
X284660Y47350D01*
X284693Y47263D01*
X284736Y47175D01*
X284758Y47066D01*
X284769Y46946D01*
Y46935D01*
Y46891D01*
X284758Y46826D01*
X284736Y46749D01*
X284714Y46662D01*
X284671Y46574D01*
X284616Y46487D01*
X284540Y46399D01*
X284528Y46388D01*
X284496Y46367D01*
X284441Y46334D01*
X284365Y46301D01*
X284266Y46257D01*
X284146Y46224D01*
X284004Y46203D01*
X283840Y46192D01*
X279960D01*
Y43700D01*
X283282D01*
X283359Y43689D01*
X283457Y43678D01*
X283567Y43645D01*
X283676Y43612D01*
X283785Y43558D01*
X283873Y43492D01*
X283884Y43481D01*
X283906Y43459D01*
X283949Y43415D01*
X283993Y43350D01*
X284026Y43273D01*
X284069Y43186D01*
X284091Y43077D01*
X284102Y42956D01*
Y42946D01*
Y42902D01*
X284091Y42836D01*
X284069Y42760D01*
X284048Y42672D01*
X284004Y42585D01*
X283949Y42497D01*
X283873Y42421D01*
X283862Y42410D01*
X283829Y42388D01*
X283774Y42355D01*
X283709Y42322D01*
X283610Y42290D01*
X283490Y42257D01*
X283359Y42235D01*
X283206Y42224D01*
X279960D01*
Y39011D01*
Y39000D01*
Y38989D01*
Y38956D01*
Y38912D01*
X279949Y38803D01*
X279927Y38672D01*
X279894Y38530D01*
X279840Y38377D01*
X279774Y38235D01*
X279676Y38114D01*
X279665Y38104D01*
X279632Y38071D01*
X279566Y38016D01*
X279490Y37972D01*
X279380Y37918D01*
X279260Y37863D01*
X279129Y37830D01*
X278976Y37819D01*
X278900D01*
X278823Y37830D01*
X278725Y37852D01*
X278615Y37896D01*
X278495Y37940D01*
X278375Y38016D01*
X278266Y38114D01*
X278255Y38125D01*
X278222Y38169D01*
X278178Y38235D01*
X278134Y38333D01*
X278080Y38464D01*
X278036Y38617D01*
X278003Y38803D01*
X277992Y39011D01*
Y46498D01*
Y46520D01*
Y46574D01*
X278003Y46651D01*
Y46749D01*
X278025Y46858D01*
X278047Y46968D01*
X278069Y47077D01*
X278113Y47186D01*
X278123Y47197D01*
X278134Y47230D01*
X278167Y47285D01*
X278211Y47339D01*
X278266Y47405D01*
X278331Y47471D01*
X278419Y47525D01*
X278506Y47580D01*
X278517Y47591D01*
X278561Y47602D01*
X278615Y47624D01*
X278692Y47645D01*
X278790Y47667D01*
X278910Y47689D01*
X279042Y47711D01*
X283916D01*
X284004Y47700D01*
D02*
G37*
G36*
X263958D02*
X264133D01*
X264330Y47689D01*
X264516Y47667D01*
X264702Y47645D01*
X264723D01*
X264778Y47634D01*
X264865Y47624D01*
X264986Y47602D01*
X265117Y47569D01*
X265259Y47525D01*
X265412Y47481D01*
X265554Y47416D01*
X265576Y47405D01*
X265631Y47383D01*
X265718Y47339D01*
X265827Y47274D01*
X265958Y47197D01*
X266090Y47110D01*
X266232Y47001D01*
X266363Y46869D01*
X266374Y46858D01*
X266418Y46804D01*
X266483Y46727D01*
X266560Y46629D01*
X266647Y46509D01*
X266735Y46367D01*
X266822Y46213D01*
X266898Y46039D01*
X266909Y46017D01*
X266931Y45962D01*
X266953Y45864D01*
X266997Y45733D01*
X267030Y45590D01*
X267052Y45416D01*
X267073Y45230D01*
X267084Y45033D01*
Y45022D01*
Y44989D01*
Y44924D01*
X267073Y44858D01*
X267062Y44760D01*
X267052Y44662D01*
X267030Y44541D01*
X267008Y44410D01*
X266931Y44137D01*
X266887Y43984D01*
X266822Y43842D01*
X266745Y43700D01*
X266669Y43558D01*
X266570Y43426D01*
X266461Y43295D01*
X266450Y43284D01*
X266428Y43262D01*
X266396Y43230D01*
X266352Y43186D01*
X266286Y43142D01*
X266199Y43077D01*
X266111Y43011D01*
X266002Y42935D01*
X265882Y42869D01*
X265740Y42792D01*
X265587Y42716D01*
X265423Y42639D01*
X265237Y42563D01*
X265040Y42497D01*
X264833Y42432D01*
X264603Y42377D01*
X264614D01*
X264625Y42366D01*
X264691Y42322D01*
X264789Y42257D01*
X264920Y42169D01*
X265073Y42049D01*
X265248Y41907D01*
X265423Y41743D01*
X265598Y41546D01*
X265609Y41535D01*
X265620Y41525D01*
X265641Y41492D01*
X265674Y41448D01*
X265773Y41350D01*
X265882Y41197D01*
X266013Y41033D01*
X266166Y40836D01*
X266308Y40617D01*
X266450Y40388D01*
Y40377D01*
X266472Y40366D01*
X266483Y40333D01*
X266516Y40290D01*
X266582Y40169D01*
X266669Y40016D01*
X266767Y39852D01*
X266866Y39667D01*
X266953Y39470D01*
X267040Y39284D01*
X267052Y39262D01*
X267073Y39207D01*
X267106Y39120D01*
X267150Y39011D01*
X267215Y38792D01*
X267237Y38694D01*
X267248Y38606D01*
Y38595D01*
Y38574D01*
X267237Y38530D01*
Y38486D01*
X267194Y38366D01*
X267172Y38289D01*
X267128Y38224D01*
Y38213D01*
X267106Y38191D01*
X267073Y38158D01*
X267040Y38114D01*
X266931Y38016D01*
X266789Y37929D01*
X266778D01*
X266756Y37907D01*
X266713Y37896D01*
X266647Y37874D01*
X266582Y37852D01*
X266494Y37841D01*
X266297Y37819D01*
X266243D01*
X266177Y37830D01*
X266101Y37841D01*
X265926Y37885D01*
X265827Y37918D01*
X265740Y37972D01*
X265729Y37983D01*
X265707Y38005D01*
X265663Y38038D01*
X265609Y38082D01*
X265554Y38136D01*
X265489Y38202D01*
X265357Y38366D01*
X265346Y38377D01*
X265324Y38410D01*
X265292Y38464D01*
X265237Y38541D01*
X265172Y38639D01*
X265095Y38759D01*
X265007Y38901D01*
X264909Y39065D01*
X264122Y40388D01*
Y40399D01*
X264100Y40421D01*
X264078Y40453D01*
X264046Y40508D01*
X263969Y40639D01*
X263871Y40792D01*
X263751Y40967D01*
X263619Y41153D01*
X263488Y41328D01*
X263357Y41481D01*
X263346Y41503D01*
X263302Y41546D01*
X263237Y41612D01*
X263149Y41688D01*
X263051Y41776D01*
X262931Y41863D01*
X262811Y41940D01*
X262680Y42006D01*
X262668Y42016D01*
X262614Y42027D01*
X262548Y42049D01*
X262450Y42082D01*
X262319Y42104D01*
X262177Y42126D01*
X262002Y42137D01*
X261816Y42148D01*
X261127D01*
Y39011D01*
Y39000D01*
Y38989D01*
Y38956D01*
Y38912D01*
X261117Y38803D01*
X261095Y38672D01*
X261062Y38519D01*
X261007Y38366D01*
X260942Y38224D01*
X260854Y38104D01*
X260843Y38092D01*
X260810Y38060D01*
X260745Y38016D01*
X260668Y37961D01*
X260559Y37907D01*
X260439Y37863D01*
X260297Y37830D01*
X260144Y37819D01*
X260067D01*
X259980Y37830D01*
X259881Y37852D01*
X259761Y37896D01*
X259641Y37940D01*
X259521Y38016D01*
X259411Y38114D01*
X259401Y38125D01*
X259368Y38169D01*
X259335Y38246D01*
X259291Y38344D01*
X259237Y38464D01*
X259204Y38617D01*
X259171Y38803D01*
X259160Y39011D01*
Y46498D01*
Y46509D01*
Y46531D01*
Y46563D01*
Y46607D01*
X259171Y46716D01*
X259193Y46848D01*
X259226Y47001D01*
X259280Y47153D01*
X259346Y47296D01*
X259444Y47416D01*
X259455Y47427D01*
X259499Y47460D01*
X259564Y47514D01*
X259663Y47569D01*
X259794Y47613D01*
X259947Y47667D01*
X260144Y47700D01*
X260362Y47711D01*
X263805D01*
X263958Y47700D01*
D02*
G37*
G36*
X274200Y35863D02*
X274287Y35841D01*
X274396Y35808D01*
X274506Y35754D01*
X274615Y35688D01*
X274713Y35590D01*
X274724Y35579D01*
X274757Y35535D01*
X274790Y35469D01*
X274845Y35382D01*
X274888Y35262D01*
X274921Y35109D01*
X274954Y34934D01*
X274965Y34737D01*
Y27086D01*
Y27075D01*
Y27031D01*
X274954Y26966D01*
Y26889D01*
X274932Y26791D01*
X274910Y26682D01*
X274877Y26561D01*
X274834Y26452D01*
X274779Y26332D01*
X274703Y26212D01*
X274615Y26102D01*
X274517Y26004D01*
X274385Y25927D01*
X274243Y25862D01*
X274079Y25818D01*
X273894Y25807D01*
X273795D01*
X273741Y25818D01*
X273577Y25840D01*
X273413Y25884D01*
X273402D01*
X273380Y25895D01*
X273336Y25916D01*
X273282Y25938D01*
X273161Y26015D01*
X273019Y26124D01*
X273008Y26135D01*
X272987Y26157D01*
X272954Y26190D01*
X272910Y26234D01*
X272790Y26354D01*
X272670Y26507D01*
X272659Y26518D01*
X272648Y26550D01*
X272615Y26594D01*
X272571Y26649D01*
X272473Y26802D01*
X272353Y26966D01*
X268669Y32638D01*
Y26933D01*
Y26922D01*
Y26911D01*
Y26846D01*
X268658Y26747D01*
X268636Y26616D01*
X268603Y26485D01*
X268560Y26343D01*
X268494Y26212D01*
X268407Y26091D01*
X268396Y26081D01*
X268363Y26048D01*
X268298Y26004D01*
X268221Y25949D01*
X268133Y25895D01*
X268013Y25851D01*
X267882Y25818D01*
X267740Y25807D01*
X267674D01*
X267598Y25818D01*
X267500Y25840D01*
X267390Y25873D01*
X267281Y25927D01*
X267172Y25993D01*
X267073Y26091D01*
X267062Y26102D01*
X267030Y26146D01*
X266997Y26212D01*
X266953Y26299D01*
X266898Y26419D01*
X266866Y26561D01*
X266833Y26736D01*
X266822Y26933D01*
Y34442D01*
Y34453D01*
Y34464D01*
Y34518D01*
X266833Y34606D01*
Y34715D01*
X266844Y34835D01*
X266866Y34967D01*
X266887Y35087D01*
X266920Y35196D01*
X266931Y35207D01*
X266942Y35251D01*
X266975Y35294D01*
X267019Y35371D01*
X267084Y35447D01*
X267150Y35524D01*
X267237Y35601D01*
X267336Y35677D01*
X267347Y35688D01*
X267390Y35710D01*
X267445Y35743D01*
X267522Y35775D01*
X267620Y35808D01*
X267729Y35841D01*
X267849Y35863D01*
X267970Y35874D01*
X268068D01*
X268133Y35863D01*
X268276Y35841D01*
X268429Y35786D01*
X268440D01*
X268461Y35775D01*
X268494Y35754D01*
X268538Y35721D01*
X268647Y35644D01*
X268757Y35546D01*
X268767Y35535D01*
X268778Y35524D01*
X268811Y35491D01*
X268844Y35447D01*
X268888Y35393D01*
X268942Y35327D01*
X269052Y35163D01*
X269063Y35152D01*
X269074Y35120D01*
X269106Y35076D01*
X269150Y35021D01*
X269194Y34945D01*
X269248Y34868D01*
X269358Y34682D01*
X273150Y28955D01*
Y34737D01*
Y34748D01*
Y34759D01*
Y34835D01*
X273161Y34934D01*
X273183Y35054D01*
X273205Y35196D01*
X273249Y35338D01*
X273314Y35469D01*
X273391Y35590D01*
X273402Y35601D01*
X273435Y35633D01*
X273489Y35677D01*
X273566Y35732D01*
X273653Y35786D01*
X273773Y35830D01*
X273905Y35863D01*
X274047Y35874D01*
X274112D01*
X274200Y35863D01*
D02*
G37*
G36*
X299065D02*
X299164Y35841D01*
X299273Y35797D01*
X299393Y35743D01*
X299514Y35666D01*
X299623Y35568D01*
X299634Y35557D01*
X299667Y35513D01*
X299710Y35447D01*
X299765Y35349D01*
X299820Y35218D01*
X299863Y35065D01*
X299896Y34879D01*
X299907Y34672D01*
Y29993D01*
Y29983D01*
Y29939D01*
Y29884D01*
Y29808D01*
X299896Y29709D01*
Y29589D01*
X299885Y29458D01*
X299874Y29327D01*
X299852Y29021D01*
X299809Y28704D01*
X299754Y28387D01*
X299677Y28081D01*
Y28070D01*
X299667Y28048D01*
X299656Y28004D01*
X299634Y27950D01*
X299612Y27884D01*
X299579Y27807D01*
X299492Y27632D01*
X299382Y27414D01*
X299240Y27195D01*
X299055Y26966D01*
X298847Y26747D01*
X298836D01*
X298825Y26725D01*
X298792Y26704D01*
X298748Y26671D01*
X298639Y26583D01*
X298486Y26474D01*
X298311Y26354D01*
X298093Y26234D01*
X297863Y26124D01*
X297601Y26026D01*
X297590D01*
X297568Y26015D01*
X297535Y26004D01*
X297481Y25993D01*
X297415Y25971D01*
X297328Y25960D01*
X297240Y25938D01*
X297131Y25916D01*
X297022Y25895D01*
X296890Y25873D01*
X296617Y25840D01*
X296300Y25818D01*
X295961Y25807D01*
X295776D01*
X295677Y25818D01*
X295568D01*
X295437Y25829D01*
X295305Y25840D01*
X295000Y25862D01*
X294683Y25906D01*
X294355Y25971D01*
X294038Y26048D01*
X294027D01*
X294005Y26059D01*
X293961Y26070D01*
X293906Y26091D01*
X293830Y26124D01*
X293754Y26146D01*
X293568Y26234D01*
X293360Y26332D01*
X293141Y26463D01*
X292923Y26616D01*
X292715Y26791D01*
X292704Y26802D01*
X292693Y26813D01*
X292671Y26846D01*
X292628Y26889D01*
X292540Y26999D01*
X292431Y27152D01*
X292311Y27337D01*
X292179Y27556D01*
X292059Y27807D01*
X291961Y28092D01*
Y28102D01*
X291950Y28124D01*
X291939Y28168D01*
X291928Y28234D01*
X291906Y28310D01*
X291884Y28398D01*
X291863Y28507D01*
X291852Y28627D01*
X291830Y28758D01*
X291808Y28911D01*
X291786Y29064D01*
X291764Y29228D01*
X291742Y29600D01*
X291731Y29993D01*
Y34672D01*
Y34682D01*
Y34693D01*
Y34726D01*
Y34770D01*
X291742Y34879D01*
X291764Y35010D01*
X291797Y35152D01*
X291841Y35305D01*
X291906Y35447D01*
X291994Y35568D01*
X292005Y35579D01*
X292048Y35611D01*
X292103Y35666D01*
X292191Y35721D01*
X292289Y35775D01*
X292409Y35830D01*
X292551Y35863D01*
X292704Y35874D01*
X292781D01*
X292857Y35863D01*
X292967Y35841D01*
X293076Y35797D01*
X293196Y35743D01*
X293316Y35666D01*
X293426Y35568D01*
X293437Y35557D01*
X293469Y35513D01*
X293513Y35447D01*
X293568Y35349D01*
X293611Y35218D01*
X293655Y35065D01*
X293688Y34879D01*
X293699Y34672D01*
Y29884D01*
Y29873D01*
Y29851D01*
Y29808D01*
Y29753D01*
X293710Y29676D01*
Y29600D01*
X293721Y29403D01*
X293742Y29195D01*
X293775Y28966D01*
X293819Y28736D01*
X293874Y28518D01*
Y28507D01*
X293885Y28496D01*
X293906Y28430D01*
X293961Y28332D01*
X294027Y28212D01*
X294114Y28070D01*
X294223Y27928D01*
X294355Y27786D01*
X294519Y27665D01*
X294530D01*
X294540Y27654D01*
X294606Y27622D01*
X294715Y27567D01*
X294857Y27523D01*
X295043Y27469D01*
X295262Y27414D01*
X295524Y27381D01*
X295819Y27370D01*
X295929D01*
X296005Y27381D01*
X296103Y27392D01*
X296213Y27403D01*
X296333Y27425D01*
X296464Y27447D01*
X296726Y27523D01*
X297000Y27632D01*
X297131Y27698D01*
X297251Y27786D01*
X297360Y27873D01*
X297459Y27982D01*
X297470Y27993D01*
X297481Y28015D01*
X297502Y28048D01*
X297535Y28102D01*
X297568Y28157D01*
X297612Y28245D01*
X297656Y28332D01*
X297699Y28441D01*
X297743Y28572D01*
X297787Y28704D01*
X297830Y28857D01*
X297863Y29021D01*
X297896Y29206D01*
X297918Y29403D01*
X297940Y29611D01*
Y29840D01*
Y34672D01*
Y34682D01*
Y34693D01*
Y34726D01*
Y34770D01*
X297951Y34879D01*
X297972Y35010D01*
X298005Y35152D01*
X298049Y35305D01*
X298114Y35447D01*
X298202Y35568D01*
X298213Y35579D01*
X298246Y35611D01*
X298311Y35666D01*
X298388Y35721D01*
X298486Y35775D01*
X298617Y35830D01*
X298748Y35863D01*
X298912Y35874D01*
X298989D01*
X299065Y35863D01*
D02*
G37*
G36*
X308531Y35688D02*
X308640Y35666D01*
X308771Y35644D01*
X308892Y35601D01*
X309012Y35546D01*
X309121Y35469D01*
X309132Y35458D01*
X309165Y35426D01*
X309197Y35382D01*
X309252Y35305D01*
X309296Y35229D01*
X309329Y35120D01*
X309362Y35010D01*
X309372Y34879D01*
Y34868D01*
Y34813D01*
X309362Y34748D01*
X309340Y34672D01*
X309307Y34573D01*
X309263Y34475D01*
X309197Y34376D01*
X309110Y34289D01*
X309099Y34278D01*
X309066Y34256D01*
X309001Y34223D01*
X308924Y34180D01*
X308815Y34136D01*
X308684Y34103D01*
X308531Y34081D01*
X308356Y34070D01*
X306214D01*
Y26999D01*
Y26988D01*
Y26977D01*
Y26944D01*
Y26900D01*
X306203Y26791D01*
X306181Y26660D01*
X306148Y26518D01*
X306093Y26365D01*
X306028Y26223D01*
X305940Y26102D01*
X305929Y26091D01*
X305897Y26059D01*
X305831Y26004D01*
X305755Y25960D01*
X305645Y25906D01*
X305525Y25851D01*
X305383Y25818D01*
X305230Y25807D01*
X305153D01*
X305077Y25818D01*
X304979Y25840D01*
X304869Y25884D01*
X304749Y25927D01*
X304629Y26004D01*
X304520Y26102D01*
X304509Y26113D01*
X304476Y26157D01*
X304432Y26223D01*
X304388Y26321D01*
X304334Y26452D01*
X304290Y26605D01*
X304257Y26791D01*
X304246Y26999D01*
Y34070D01*
X302006D01*
X301918Y34081D01*
X301809Y34103D01*
X301689Y34125D01*
X301568Y34158D01*
X301448Y34212D01*
X301339Y34289D01*
X301328Y34300D01*
X301306Y34333D01*
X301262Y34376D01*
X301219Y34442D01*
X301175Y34529D01*
X301131Y34628D01*
X301109Y34748D01*
X301098Y34879D01*
Y34901D01*
Y34945D01*
X301109Y35010D01*
X301131Y35098D01*
X301164Y35185D01*
X301208Y35283D01*
X301262Y35382D01*
X301350Y35469D01*
X301361Y35480D01*
X301394Y35502D01*
X301459Y35546D01*
X301536Y35590D01*
X301645Y35622D01*
X301765Y35666D01*
X301918Y35688D01*
X302093Y35699D01*
X308443D01*
X308531Y35688D01*
D02*
G37*
G36*
X285458Y35863D02*
X285589Y35852D01*
X285742Y35841D01*
X285917Y35819D01*
X286102Y35797D01*
X286299Y35765D01*
X286507Y35721D01*
X286725Y35677D01*
X286944Y35611D01*
X287163Y35535D01*
X287381Y35458D01*
X287600Y35360D01*
X287807Y35251D01*
X287819Y35240D01*
X287851Y35218D01*
X287917Y35185D01*
X287982Y35141D01*
X288081Y35076D01*
X288179Y34999D01*
X288299Y34912D01*
X288420Y34803D01*
X288551Y34682D01*
X288682Y34551D01*
X288824Y34409D01*
X288955Y34256D01*
X289086Y34081D01*
X289217Y33906D01*
X289338Y33710D01*
X289447Y33502D01*
X289458Y33491D01*
X289469Y33447D01*
X289502Y33393D01*
X289534Y33305D01*
X289578Y33196D01*
X289622Y33065D01*
X289677Y32912D01*
X289731Y32748D01*
X289786Y32562D01*
X289841Y32354D01*
X289884Y32136D01*
X289928Y31906D01*
X289961Y31655D01*
X289994Y31403D01*
X290004Y31130D01*
X290015Y30846D01*
Y30835D01*
Y30791D01*
Y30737D01*
Y30660D01*
X290004Y30562D01*
Y30442D01*
X289994Y30310D01*
X289983Y30168D01*
X289939Y29851D01*
X289884Y29502D01*
X289808Y29152D01*
X289709Y28791D01*
Y28780D01*
X289698Y28747D01*
X289677Y28704D01*
X289655Y28638D01*
X289622Y28562D01*
X289578Y28463D01*
X289534Y28365D01*
X289480Y28245D01*
X289349Y27993D01*
X289196Y27731D01*
X289010Y27458D01*
X288791Y27195D01*
X288780Y27184D01*
X288758Y27163D01*
X288726Y27130D01*
X288682Y27086D01*
X288627Y27031D01*
X288551Y26966D01*
X288463Y26889D01*
X288376Y26813D01*
X288157Y26649D01*
X287895Y26474D01*
X287611Y26310D01*
X287283Y26157D01*
X287272D01*
X287239Y26146D01*
X287195Y26124D01*
X287130Y26102D01*
X287042Y26081D01*
X286944Y26048D01*
X286824Y26015D01*
X286693Y25982D01*
X286551Y25949D01*
X286398Y25916D01*
X286234Y25884D01*
X286048Y25862D01*
X285665Y25818D01*
X285250Y25807D01*
X285141D01*
X285053Y25818D01*
X284955D01*
X284845Y25829D01*
X284714Y25840D01*
X284572Y25851D01*
X284255Y25895D01*
X283906Y25960D01*
X283556Y26048D01*
X283206Y26168D01*
X283195D01*
X283162Y26190D01*
X283119Y26212D01*
X283053Y26234D01*
X282977Y26277D01*
X282889Y26321D01*
X282681Y26441D01*
X282441Y26583D01*
X282189Y26758D01*
X281938Y26966D01*
X281698Y27206D01*
X281687Y27217D01*
X281676Y27239D01*
X281643Y27272D01*
X281599Y27327D01*
X281545Y27392D01*
X281490Y27469D01*
X281424Y27556D01*
X281359Y27665D01*
X281282Y27775D01*
X281217Y27895D01*
X281064Y28179D01*
X280922Y28485D01*
X280790Y28824D01*
Y28835D01*
X280780Y28868D01*
X280758Y28922D01*
X280747Y28988D01*
X280725Y29075D01*
X280692Y29185D01*
X280670Y29294D01*
X280637Y29436D01*
X280605Y29578D01*
X280583Y29731D01*
X280528Y30081D01*
X280495Y30452D01*
X280484Y30857D01*
Y30868D01*
Y30911D01*
Y30966D01*
Y31043D01*
X280495Y31152D01*
X280506Y31261D01*
Y31392D01*
X280528Y31535D01*
X280561Y31852D01*
X280616Y32201D01*
X280692Y32562D01*
X280801Y32912D01*
Y32923D01*
X280812Y32956D01*
X280834Y32999D01*
X280856Y33065D01*
X280889Y33152D01*
X280933Y33240D01*
X280987Y33349D01*
X281042Y33469D01*
X281173Y33710D01*
X281326Y33983D01*
X281512Y34256D01*
X281731Y34508D01*
X281741Y34518D01*
X281763Y34540D01*
X281796Y34573D01*
X281840Y34617D01*
X281894Y34672D01*
X281971Y34737D01*
X282058Y34813D01*
X282146Y34890D01*
X282364Y35054D01*
X282616Y35218D01*
X282900Y35382D01*
X283217Y35524D01*
X283228D01*
X283261Y35535D01*
X283304Y35557D01*
X283370Y35579D01*
X283457Y35601D01*
X283556Y35633D01*
X283665Y35666D01*
X283796Y35699D01*
X283938Y35732D01*
X284091Y35765D01*
X284255Y35797D01*
X284430Y35819D01*
X284802Y35863D01*
X285206Y35874D01*
X285359D01*
X285458Y35863D01*
D02*
G37*
G36*
X279118D02*
X279195Y35852D01*
X279271Y35830D01*
X279359Y35808D01*
X279435Y35765D01*
X279512Y35710D01*
X279523Y35699D01*
X279544Y35677D01*
X279566Y35644D01*
X279610Y35590D01*
X279643Y35535D01*
X279665Y35458D01*
X279686Y35371D01*
X279697Y35273D01*
Y35262D01*
Y35229D01*
X279686Y35174D01*
X279676Y35098D01*
X279665Y34999D01*
X279643Y34868D01*
X279599Y34704D01*
X279555Y34518D01*
X277697Y26867D01*
Y26846D01*
X277686Y26802D01*
X277664Y26736D01*
X277643Y26649D01*
X277577Y26452D01*
X277555Y26354D01*
X277522Y26266D01*
Y26255D01*
X277512Y26234D01*
X277490Y26190D01*
X277468Y26146D01*
X277402Y26037D01*
X277315Y25927D01*
X277304D01*
X277293Y25906D01*
X277260Y25895D01*
X277205Y25873D01*
X277151Y25851D01*
X277085Y25829D01*
X276998Y25818D01*
X276899Y25807D01*
X276834D01*
X276801Y25818D01*
X276692Y25840D01*
X276571Y25884D01*
X276440Y25949D01*
X276342Y26048D01*
X276298Y26113D01*
X276266Y26201D01*
X276244Y26288D01*
X276233Y26386D01*
Y26397D01*
Y26419D01*
X276244Y26463D01*
X276255Y26539D01*
X276266Y26638D01*
X276287Y26769D01*
X276320Y26944D01*
X276364Y27152D01*
X278211Y34803D01*
Y34813D01*
X278222Y34824D01*
Y34857D01*
X278233Y34901D01*
X278266Y35010D01*
X278298Y35141D01*
X278342Y35273D01*
X278386Y35415D01*
X278440Y35546D01*
X278484Y35644D01*
X278495Y35655D01*
X278517Y35677D01*
X278550Y35721D01*
X278605Y35765D01*
X278670Y35797D01*
X278768Y35841D01*
X278878Y35863D01*
X279009Y35874D01*
X279064D01*
X279118Y35863D01*
D02*
G37*
G36*
X263751D02*
X263849Y35841D01*
X263958Y35797D01*
X264078Y35743D01*
X264199Y35666D01*
X264308Y35568D01*
X264319Y35557D01*
X264352Y35513D01*
X264395Y35447D01*
X264450Y35349D01*
X264505Y35218D01*
X264548Y35065D01*
X264581Y34879D01*
X264592Y34672D01*
Y26999D01*
Y26988D01*
Y26977D01*
Y26944D01*
Y26900D01*
X264581Y26791D01*
X264559Y26660D01*
X264527Y26518D01*
X264472Y26365D01*
X264406Y26223D01*
X264308Y26102D01*
X264297Y26091D01*
X264264Y26059D01*
X264199Y26004D01*
X264122Y25960D01*
X264013Y25906D01*
X263893Y25851D01*
X263751Y25818D01*
X263598Y25807D01*
X263532D01*
X263445Y25818D01*
X263346Y25840D01*
X263237Y25884D01*
X263128Y25927D01*
X263007Y26004D01*
X262898Y26102D01*
X262887Y26113D01*
X262854Y26157D01*
X262811Y26234D01*
X262767Y26332D01*
X262712Y26452D01*
X262668Y26605D01*
X262636Y26791D01*
X262625Y26999D01*
Y34672D01*
Y34682D01*
Y34693D01*
Y34726D01*
Y34770D01*
X262636Y34879D01*
X262658Y35010D01*
X262690Y35152D01*
X262734Y35305D01*
X262800Y35447D01*
X262887Y35568D01*
X262898Y35579D01*
X262942Y35611D01*
X262996Y35666D01*
X263084Y35721D01*
X263182Y35775D01*
X263302Y35830D01*
X263445Y35863D01*
X263598Y35874D01*
X263674D01*
X263751Y35863D01*
D02*
G37*
G36*
X103286Y47875D02*
X103373D01*
X103472Y47864D01*
X103592Y47853D01*
X103832Y47831D01*
X104095Y47787D01*
X104357Y47733D01*
X104608Y47656D01*
X104619D01*
X104641Y47645D01*
X104674Y47634D01*
X104718Y47613D01*
X104838Y47569D01*
X104991Y47503D01*
X105166Y47416D01*
X105341Y47317D01*
X105526Y47197D01*
X105690Y47066D01*
X105712Y47044D01*
X105767Y47001D01*
X105843Y46924D01*
X105931Y46826D01*
X106040Y46716D01*
X106138Y46585D01*
X106237Y46443D01*
X106324Y46290D01*
X106335Y46268D01*
X106357Y46224D01*
X106390Y46137D01*
X106433Y46039D01*
X106466Y45918D01*
X106499Y45787D01*
X106521Y45645D01*
X106532Y45503D01*
Y45492D01*
Y45448D01*
X106521Y45383D01*
X106499Y45295D01*
X106466Y45197D01*
X106423Y45088D01*
X106368Y44978D01*
X106281Y44869D01*
X106270Y44858D01*
X106237Y44825D01*
X106182Y44782D01*
X106106Y44727D01*
X106018Y44672D01*
X105909Y44629D01*
X105789Y44596D01*
X105657Y44585D01*
X105603D01*
X105537Y44596D01*
X105472Y44607D01*
X105384Y44629D01*
X105297Y44651D01*
X105220Y44694D01*
X105144Y44749D01*
X105133Y44760D01*
X105111Y44782D01*
X105078Y44825D01*
X105034Y44891D01*
X104969Y44967D01*
X104914Y45066D01*
X104838Y45175D01*
X104761Y45317D01*
Y45328D01*
X104750Y45339D01*
X104718Y45405D01*
X104663Y45503D01*
X104586Y45634D01*
X104488Y45765D01*
X104379Y45908D01*
X104258Y46050D01*
X104127Y46170D01*
X104105Y46181D01*
X104062Y46224D01*
X103963Y46268D01*
X103843Y46334D01*
X103668Y46388D01*
X103461Y46443D01*
X103220Y46476D01*
X102925Y46487D01*
X102794D01*
X102728Y46476D01*
X102663Y46465D01*
X102488Y46443D01*
X102291Y46399D01*
X102083Y46345D01*
X101876Y46257D01*
X101690Y46148D01*
X101668Y46137D01*
X101613Y46093D01*
X101548Y46017D01*
X101460Y45918D01*
X101373Y45798D01*
X101307Y45667D01*
X101253Y45514D01*
X101231Y45339D01*
Y45328D01*
Y45295D01*
X101242Y45230D01*
X101253Y45164D01*
X101296Y45000D01*
X101329Y44913D01*
X101384Y44825D01*
X101395Y44815D01*
X101417Y44793D01*
X101449Y44749D01*
X101504Y44705D01*
X101559Y44651D01*
X101635Y44585D01*
X101723Y44519D01*
X101821Y44465D01*
X101832Y44454D01*
X101876Y44443D01*
X101930Y44410D01*
X101996Y44377D01*
X102083Y44344D01*
X102182Y44301D01*
X102389Y44224D01*
X102400D01*
X102444Y44213D01*
X102510Y44192D01*
X102619Y44159D01*
X102739Y44126D01*
X102903Y44082D01*
X103100Y44028D01*
X103329Y43973D01*
X103340D01*
X103362Y43962D01*
X103406Y43951D01*
X103472Y43940D01*
X103548Y43918D01*
X103624Y43896D01*
X103832Y43853D01*
X104062Y43787D01*
X104313Y43711D01*
X104575Y43634D01*
X104827Y43547D01*
X104838D01*
X104860Y43536D01*
X104892Y43525D01*
X104936Y43503D01*
X105067Y43459D01*
X105220Y43394D01*
X105395Y43306D01*
X105581Y43208D01*
X105778Y43099D01*
X105953Y42978D01*
X105964D01*
X105974Y42967D01*
X106029Y42924D01*
X106116Y42847D01*
X106226Y42749D01*
X106335Y42628D01*
X106455Y42486D01*
X106576Y42322D01*
X106685Y42137D01*
Y42126D01*
X106696Y42115D01*
X106707Y42082D01*
X106729Y42049D01*
X106772Y41940D01*
X106827Y41798D01*
X106871Y41612D01*
X106914Y41404D01*
X106947Y41164D01*
X106958Y40902D01*
Y40891D01*
Y40858D01*
Y40814D01*
X106947Y40749D01*
Y40672D01*
X106936Y40585D01*
X106925Y40486D01*
X106904Y40366D01*
X106849Y40126D01*
X106761Y39852D01*
X106652Y39579D01*
X106499Y39306D01*
Y39295D01*
X106477Y39273D01*
X106455Y39240D01*
X106412Y39186D01*
X106313Y39065D01*
X106160Y38912D01*
X105974Y38726D01*
X105745Y38552D01*
X105472Y38377D01*
X105166Y38213D01*
X105155D01*
X105122Y38191D01*
X105078Y38180D01*
X105013Y38147D01*
X104925Y38125D01*
X104827Y38092D01*
X104707Y38049D01*
X104575Y38016D01*
X104433Y37983D01*
X104269Y37940D01*
X104105Y37907D01*
X103920Y37885D01*
X103526Y37841D01*
X103089Y37819D01*
X102947D01*
X102848Y37830D01*
X102728Y37841D01*
X102586Y37852D01*
X102422Y37863D01*
X102247Y37885D01*
X102061Y37918D01*
X101876Y37951D01*
X101471Y38049D01*
X101275Y38104D01*
X101078Y38180D01*
X100892Y38256D01*
X100706Y38355D01*
X100695D01*
X100673Y38377D01*
X100641Y38399D01*
X100597Y38431D01*
X100477Y38519D01*
X100324Y38639D01*
X100149Y38781D01*
X99974Y38967D01*
X99788Y39175D01*
X99624Y39404D01*
Y39415D01*
X99602Y39437D01*
X99591Y39470D01*
X99559Y39513D01*
X99526Y39579D01*
X99493Y39645D01*
X99416Y39809D01*
X99340Y40005D01*
X99274Y40213D01*
X99231Y40442D01*
X99209Y40672D01*
Y40683D01*
Y40738D01*
X99220Y40803D01*
X99242Y40880D01*
X99274Y40978D01*
X99318Y41087D01*
X99373Y41186D01*
X99460Y41284D01*
X99471Y41295D01*
X99504Y41328D01*
X99559Y41372D01*
X99635Y41415D01*
X99722Y41459D01*
X99832Y41503D01*
X99952Y41535D01*
X100094Y41546D01*
X100149D01*
X100203Y41535D01*
X100280Y41525D01*
X100356Y41492D01*
X100455Y41459D01*
X100542Y41404D01*
X100619Y41339D01*
X100630Y41328D01*
X100652Y41306D01*
X100695Y41251D01*
X100750Y41197D01*
X100805Y41109D01*
X100870Y41011D01*
X100936Y40891D01*
X100990Y40749D01*
X101001Y40727D01*
X101023Y40672D01*
X101056Y40585D01*
X101111Y40475D01*
X101176Y40355D01*
X101242Y40224D01*
X101318Y40093D01*
X101395Y39972D01*
X101406Y39962D01*
X101438Y39918D01*
X101482Y39863D01*
X101559Y39798D01*
X101635Y39710D01*
X101744Y39623D01*
X101865Y39546D01*
X102007Y39459D01*
X102029Y39448D01*
X102083Y39426D01*
X102160Y39393D01*
X102280Y39360D01*
X102433Y39328D01*
X102608Y39295D01*
X102805Y39273D01*
X103034Y39262D01*
X103122D01*
X103176Y39273D01*
X103253D01*
X103340Y39284D01*
X103537Y39317D01*
X103767Y39360D01*
X104007Y39437D01*
X104237Y39535D01*
X104455Y39667D01*
X104466D01*
X104477Y39688D01*
X104543Y39743D01*
X104630Y39830D01*
X104739Y39951D01*
X104838Y40093D01*
X104925Y40268D01*
X104991Y40464D01*
X105002Y40574D01*
X105013Y40683D01*
Y40694D01*
Y40705D01*
Y40760D01*
X105002Y40858D01*
X104980Y40967D01*
X104936Y41087D01*
X104881Y41219D01*
X104805Y41350D01*
X104707Y41470D01*
X104696Y41481D01*
X104652Y41525D01*
X104586Y41579D01*
X104499Y41645D01*
X104390Y41721D01*
X104258Y41798D01*
X104105Y41863D01*
X103942Y41929D01*
X103920Y41940D01*
X103854Y41962D01*
X103756Y41995D01*
X103614Y42038D01*
X103439Y42082D01*
X103220Y42148D01*
X102980Y42213D01*
X102696Y42279D01*
X102684D01*
X102652Y42290D01*
X102597Y42301D01*
X102521Y42322D01*
X102433Y42344D01*
X102324Y42377D01*
X102215Y42399D01*
X102083Y42443D01*
X101810Y42519D01*
X101515Y42618D01*
X101220Y42727D01*
X100936Y42847D01*
X100925D01*
X100903Y42858D01*
X100870Y42880D01*
X100815Y42913D01*
X100684Y42978D01*
X100531Y43088D01*
X100346Y43208D01*
X100160Y43361D01*
X99974Y43547D01*
X99810Y43743D01*
Y43754D01*
X99788Y43765D01*
X99777Y43798D01*
X99744Y43842D01*
X99712Y43896D01*
X99679Y43973D01*
X99613Y44137D01*
X99537Y44334D01*
X99471Y44574D01*
X99427Y44847D01*
X99405Y45153D01*
Y45164D01*
Y45186D01*
Y45230D01*
X99416Y45285D01*
Y45361D01*
X99427Y45437D01*
X99460Y45634D01*
X99515Y45864D01*
X99591Y46104D01*
X99701Y46345D01*
X99843Y46585D01*
Y46596D01*
X99865Y46618D01*
X99886Y46640D01*
X99919Y46683D01*
X100029Y46804D01*
X100171Y46935D01*
X100346Y47099D01*
X100564Y47252D01*
X100815Y47405D01*
X101111Y47547D01*
X101121D01*
X101143Y47558D01*
X101198Y47580D01*
X101264Y47602D01*
X101340Y47624D01*
X101428Y47656D01*
X101537Y47689D01*
X101668Y47722D01*
X101799Y47744D01*
X101952Y47776D01*
X102116Y47809D01*
X102280Y47831D01*
X102652Y47875D01*
X103056Y47886D01*
X103209D01*
X103286Y47875D01*
D02*
G37*
G36*
X131911D02*
X132021D01*
X132141Y47864D01*
X132272Y47842D01*
X132425Y47831D01*
X132742Y47766D01*
X133103Y47678D01*
X133463Y47569D01*
X133638Y47492D01*
X133813Y47405D01*
X133824D01*
X133857Y47383D01*
X133901Y47361D01*
X133966Y47317D01*
X134043Y47274D01*
X134130Y47219D01*
X134338Y47088D01*
X134567Y46913D01*
X134808Y46716D01*
X135037Y46487D01*
X135234Y46235D01*
X135245Y46224D01*
X135256Y46203D01*
X135278Y46170D01*
X135311Y46115D01*
X135343Y46060D01*
X135387Y45984D01*
X135485Y45820D01*
X135573Y45612D01*
X135649Y45394D01*
X135704Y45164D01*
X135726Y45055D01*
Y44935D01*
Y44924D01*
Y44880D01*
X135715Y44815D01*
X135693Y44738D01*
X135671Y44640D01*
X135627Y44541D01*
X135562Y44432D01*
X135485Y44334D01*
X135475Y44323D01*
X135442Y44290D01*
X135387Y44257D01*
X135321Y44213D01*
X135234Y44159D01*
X135136Y44126D01*
X135026Y44093D01*
X134906Y44082D01*
X134841D01*
X134775Y44093D01*
X134698Y44104D01*
X134600Y44126D01*
X134513Y44159D01*
X134414Y44202D01*
X134338Y44257D01*
X134327Y44268D01*
X134305Y44290D01*
X134272Y44334D01*
X134218Y44399D01*
X134152Y44487D01*
X134086Y44596D01*
X134010Y44727D01*
X133923Y44880D01*
Y44891D01*
X133901Y44913D01*
X133879Y44946D01*
X133857Y45000D01*
X133769Y45131D01*
X133671Y45285D01*
X133529Y45459D01*
X133376Y45645D01*
X133201Y45809D01*
X133015Y45962D01*
X133004D01*
X132993Y45973D01*
X132961Y45995D01*
X132917Y46017D01*
X132808Y46071D01*
X132655Y46148D01*
X132469Y46213D01*
X132250Y46268D01*
X131999Y46312D01*
X131726Y46323D01*
X131671D01*
X131605Y46312D01*
X131529D01*
X131420Y46290D01*
X131299Y46279D01*
X131168Y46246D01*
X131026Y46203D01*
X130873Y46159D01*
X130720Y46093D01*
X130556Y46017D01*
X130403Y45929D01*
X130239Y45820D01*
X130086Y45700D01*
X129933Y45558D01*
X129791Y45394D01*
X129780Y45383D01*
X129758Y45350D01*
X129725Y45295D01*
X129682Y45219D01*
X129627Y45131D01*
X129561Y45011D01*
X129507Y44869D01*
X129441Y44716D01*
X129365Y44541D01*
X129310Y44344D01*
X129244Y44126D01*
X129190Y43896D01*
X129146Y43645D01*
X129113Y43372D01*
X129091Y43077D01*
X129080Y42771D01*
Y42760D01*
Y42716D01*
Y42661D01*
Y42585D01*
X129091Y42486D01*
X129102Y42366D01*
Y42246D01*
X129124Y42104D01*
X129157Y41809D01*
X129212Y41492D01*
X129288Y41175D01*
X129397Y40880D01*
Y40869D01*
X129408Y40847D01*
X129430Y40803D01*
X129452Y40760D01*
X129485Y40694D01*
X129529Y40617D01*
X129627Y40453D01*
X129758Y40279D01*
X129911Y40082D01*
X130086Y39907D01*
X130294Y39754D01*
X130305D01*
X130316Y39743D01*
X130348Y39721D01*
X130403Y39699D01*
X130458Y39667D01*
X130523Y39634D01*
X130687Y39568D01*
X130884Y39503D01*
X131124Y39437D01*
X131376Y39393D01*
X131660Y39382D01*
X131747D01*
X131802Y39393D01*
X131878D01*
X131966Y39404D01*
X132163Y39437D01*
X132392Y39481D01*
X132633Y39557D01*
X132873Y39656D01*
X133103Y39798D01*
X133114D01*
X133125Y39819D01*
X133157Y39841D01*
X133201Y39874D01*
X133310Y39972D01*
X133431Y40115D01*
X133584Y40290D01*
X133726Y40508D01*
X133868Y40760D01*
X133988Y41044D01*
X133999Y41065D01*
X134010Y41109D01*
X134043Y41175D01*
X134075Y41262D01*
X134119Y41361D01*
X134174Y41470D01*
X134239Y41568D01*
X134305Y41667D01*
X134316Y41678D01*
X134338Y41699D01*
X134381Y41743D01*
X134447Y41787D01*
X134535Y41831D01*
X134633Y41874D01*
X134753Y41896D01*
X134895Y41907D01*
X134950D01*
X135015Y41896D01*
X135103Y41874D01*
X135201Y41842D01*
X135300Y41798D01*
X135398Y41743D01*
X135496Y41656D01*
X135507Y41645D01*
X135540Y41612D01*
X135584Y41557D01*
X135627Y41492D01*
X135671Y41404D01*
X135715Y41306D01*
X135748Y41186D01*
X135759Y41055D01*
Y41033D01*
Y40978D01*
X135748Y40880D01*
X135726Y40749D01*
X135704Y40595D01*
X135660Y40432D01*
X135606Y40235D01*
X135529Y40038D01*
Y40027D01*
X135518Y40016D01*
X135507Y39983D01*
X135485Y39951D01*
X135431Y39841D01*
X135354Y39710D01*
X135256Y39546D01*
X135125Y39360D01*
X134983Y39175D01*
X134808Y38978D01*
Y38967D01*
X134786Y38956D01*
X134720Y38890D01*
X134611Y38803D01*
X134469Y38683D01*
X134283Y38552D01*
X134075Y38410D01*
X133824Y38267D01*
X133551Y38136D01*
X133540D01*
X133518Y38125D01*
X133474Y38104D01*
X133420Y38092D01*
X133343Y38060D01*
X133256Y38038D01*
X133157Y38005D01*
X133037Y37983D01*
X132917Y37951D01*
X132775Y37918D01*
X132480Y37874D01*
X132141Y37830D01*
X131769Y37819D01*
X131572D01*
X131496Y37830D01*
X131310Y37841D01*
X131092Y37852D01*
X130862Y37885D01*
X130611Y37918D01*
X130370Y37961D01*
X130359D01*
X130337Y37972D01*
X130305D01*
X130261Y37994D01*
X130141Y38027D01*
X129988Y38071D01*
X129813Y38136D01*
X129616Y38213D01*
X129419Y38300D01*
X129223Y38410D01*
X129212D01*
X129201Y38420D01*
X129135Y38464D01*
X129037Y38541D01*
X128917Y38628D01*
X128763Y38748D01*
X128611Y38890D01*
X128446Y39054D01*
X128283Y39229D01*
X128261Y39251D01*
X128217Y39306D01*
X128140Y39404D01*
X128053Y39524D01*
X127944Y39677D01*
X127834Y39852D01*
X127725Y40038D01*
X127616Y40246D01*
Y40257D01*
X127605Y40268D01*
X127594Y40300D01*
X127572Y40344D01*
X127517Y40464D01*
X127463Y40606D01*
X127397Y40792D01*
X127332Y41000D01*
X127266Y41219D01*
X127211Y41459D01*
Y41470D01*
Y41492D01*
X127200Y41525D01*
X127190Y41568D01*
X127179Y41634D01*
X127168Y41699D01*
X127146Y41874D01*
X127124Y42082D01*
X127102Y42311D01*
X127091Y42563D01*
X127080Y42836D01*
Y42847D01*
Y42891D01*
Y42946D01*
X127091Y43033D01*
Y43131D01*
X127102Y43251D01*
X127113Y43394D01*
X127124Y43536D01*
X127168Y43864D01*
X127222Y44213D01*
X127310Y44574D01*
X127419Y44935D01*
Y44946D01*
X127430Y44978D01*
X127452Y45022D01*
X127485Y45088D01*
X127517Y45175D01*
X127561Y45263D01*
X127605Y45372D01*
X127671Y45481D01*
X127802Y45733D01*
X127977Y45995D01*
X128173Y46268D01*
X128392Y46520D01*
X128403Y46531D01*
X128425Y46552D01*
X128457Y46585D01*
X128501Y46629D01*
X128567Y46683D01*
X128643Y46749D01*
X128731Y46826D01*
X128818Y46902D01*
X129037Y47066D01*
X129299Y47230D01*
X129583Y47394D01*
X129889Y47536D01*
X129900D01*
X129933Y47547D01*
X129977Y47569D01*
X130042Y47591D01*
X130119Y47613D01*
X130217Y47645D01*
X130326Y47678D01*
X130447Y47711D01*
X130578Y47744D01*
X130720Y47776D01*
X131026Y47831D01*
X131365Y47875D01*
X131715Y47886D01*
X131835D01*
X131911Y47875D01*
D02*
G37*
G36*
X115024D02*
X115112Y47853D01*
X115210Y47820D01*
X115309Y47776D01*
X115407Y47722D01*
X115505Y47634D01*
X115516Y47624D01*
X115549Y47591D01*
X115582Y47547D01*
X115637Y47471D01*
X115680Y47394D01*
X115713Y47296D01*
X115746Y47197D01*
X115757Y47077D01*
Y47066D01*
Y47033D01*
X115746Y46979D01*
Y46913D01*
X115724Y46837D01*
X115702Y46749D01*
X115669Y46651D01*
X115626Y46552D01*
Y46541D01*
X115604Y46509D01*
X115571Y46454D01*
X115527Y46367D01*
X115473Y46268D01*
X115396Y46148D01*
X115309Y46006D01*
X115199Y45842D01*
X112773Y42104D01*
Y39011D01*
Y39000D01*
Y38989D01*
Y38956D01*
Y38912D01*
X112762Y38803D01*
X112740Y38672D01*
X112707Y38530D01*
X112653Y38377D01*
X112587Y38235D01*
X112489Y38114D01*
X112478Y38104D01*
X112445Y38071D01*
X112379Y38016D01*
X112303Y37972D01*
X112194Y37918D01*
X112073Y37863D01*
X111931Y37830D01*
X111778Y37819D01*
X111702D01*
X111625Y37830D01*
X111527Y37852D01*
X111418Y37896D01*
X111297Y37940D01*
X111177Y38016D01*
X111068Y38114D01*
X111057Y38125D01*
X111024Y38169D01*
X110980Y38235D01*
X110937Y38333D01*
X110893Y38464D01*
X110849Y38617D01*
X110816Y38803D01*
X110805Y39011D01*
Y42104D01*
X108423Y45787D01*
Y45798D01*
X108412Y45809D01*
X108368Y45875D01*
X108324Y45962D01*
X108259Y46071D01*
X108182Y46203D01*
X108106Y46323D01*
X108040Y46454D01*
X107986Y46563D01*
Y46574D01*
X107964Y46607D01*
X107942Y46662D01*
X107920Y46727D01*
X107876Y46891D01*
X107865Y46979D01*
X107854Y47055D01*
Y47066D01*
Y47110D01*
X107865Y47175D01*
X107887Y47252D01*
X107920Y47350D01*
X107964Y47438D01*
X108029Y47536D01*
X108117Y47634D01*
X108128Y47645D01*
X108160Y47678D01*
X108215Y47711D01*
X108292Y47766D01*
X108390Y47809D01*
X108499Y47842D01*
X108619Y47875D01*
X108762Y47886D01*
X108827D01*
X108904Y47875D01*
X108991Y47853D01*
X109090Y47831D01*
X109188Y47787D01*
X109286Y47733D01*
X109374Y47656D01*
X109385Y47645D01*
X109417Y47613D01*
X109461Y47547D01*
X109527Y47460D01*
X109625Y47328D01*
X109734Y47175D01*
X109855Y46979D01*
X110008Y46738D01*
X111822Y43787D01*
X113658Y46738D01*
X113669Y46749D01*
X113691Y46782D01*
X113713Y46837D01*
X113757Y46902D01*
X113844Y47044D01*
X113932Y47197D01*
X113942Y47208D01*
X113953Y47230D01*
X113975Y47263D01*
X114008Y47306D01*
X114084Y47427D01*
X114183Y47547D01*
X114194Y47558D01*
X114205Y47580D01*
X114270Y47645D01*
X114369Y47722D01*
X114489Y47798D01*
X114500D01*
X114522Y47809D01*
X114555Y47831D01*
X114598Y47842D01*
X114664Y47864D01*
X114729Y47875D01*
X114893Y47886D01*
X114959D01*
X115024Y47875D01*
D02*
G37*
G36*
X124545D02*
X124632Y47853D01*
X124741Y47820D01*
X124851Y47766D01*
X124960Y47700D01*
X125058Y47602D01*
X125069Y47591D01*
X125102Y47547D01*
X125135Y47481D01*
X125189Y47394D01*
X125233Y47274D01*
X125266Y47121D01*
X125299Y46946D01*
X125310Y46749D01*
Y39098D01*
Y39087D01*
Y39044D01*
X125299Y38978D01*
Y38901D01*
X125277Y38803D01*
X125255Y38694D01*
X125222Y38574D01*
X125179Y38464D01*
X125124Y38344D01*
X125047Y38224D01*
X124960Y38114D01*
X124862Y38016D01*
X124730Y37940D01*
X124588Y37874D01*
X124424Y37830D01*
X124239Y37819D01*
X124140D01*
X124085Y37830D01*
X123922Y37852D01*
X123758Y37896D01*
X123747D01*
X123725Y37907D01*
X123681Y37929D01*
X123626Y37951D01*
X123506Y38027D01*
X123364Y38136D01*
X123353Y38147D01*
X123331Y38169D01*
X123299Y38202D01*
X123255Y38246D01*
X123135Y38366D01*
X123014Y38519D01*
X123003Y38530D01*
X122993Y38563D01*
X122960Y38606D01*
X122916Y38661D01*
X122818Y38814D01*
X122697Y38978D01*
X119014Y44651D01*
Y38945D01*
Y38934D01*
Y38923D01*
Y38858D01*
X119003Y38759D01*
X118981Y38628D01*
X118948Y38497D01*
X118905Y38355D01*
X118839Y38224D01*
X118752Y38104D01*
X118741Y38092D01*
X118708Y38060D01*
X118642Y38016D01*
X118566Y37961D01*
X118478Y37907D01*
X118358Y37863D01*
X118227Y37830D01*
X118085Y37819D01*
X118019D01*
X117943Y37830D01*
X117844Y37852D01*
X117735Y37885D01*
X117626Y37940D01*
X117517Y38005D01*
X117418Y38104D01*
X117407Y38114D01*
X117374Y38158D01*
X117342Y38224D01*
X117298Y38311D01*
X117243Y38431D01*
X117210Y38574D01*
X117178Y38748D01*
X117167Y38945D01*
Y46454D01*
Y46465D01*
Y46476D01*
Y46531D01*
X117178Y46618D01*
Y46727D01*
X117189Y46848D01*
X117210Y46979D01*
X117232Y47099D01*
X117265Y47208D01*
X117276Y47219D01*
X117287Y47263D01*
X117320Y47306D01*
X117364Y47383D01*
X117429Y47460D01*
X117495Y47536D01*
X117582Y47613D01*
X117681Y47689D01*
X117691Y47700D01*
X117735Y47722D01*
X117790Y47755D01*
X117866Y47787D01*
X117965Y47820D01*
X118074Y47853D01*
X118194Y47875D01*
X118314Y47886D01*
X118413D01*
X118478Y47875D01*
X118621Y47853D01*
X118773Y47798D01*
X118784D01*
X118806Y47787D01*
X118839Y47766D01*
X118883Y47733D01*
X118992Y47656D01*
X119101Y47558D01*
X119112Y47547D01*
X119123Y47536D01*
X119156Y47503D01*
X119189Y47460D01*
X119232Y47405D01*
X119287Y47339D01*
X119396Y47175D01*
X119407Y47164D01*
X119418Y47132D01*
X119451Y47088D01*
X119495Y47033D01*
X119539Y46957D01*
X119593Y46880D01*
X119702Y46694D01*
X123495Y40967D01*
Y46749D01*
Y46760D01*
Y46771D01*
Y46848D01*
X123506Y46946D01*
X123528Y47066D01*
X123550Y47208D01*
X123594Y47350D01*
X123659Y47481D01*
X123736Y47602D01*
X123747Y47613D01*
X123779Y47645D01*
X123834Y47689D01*
X123911Y47744D01*
X123998Y47798D01*
X124118Y47842D01*
X124249Y47875D01*
X124391Y47886D01*
X124457D01*
X124545Y47875D01*
D02*
G37*
G36*
X108171Y35863D02*
X108270D01*
X108379Y35852D01*
X108510Y35841D01*
X108773Y35808D01*
X109068Y35754D01*
X109363Y35688D01*
X109658Y35601D01*
X109669D01*
X109691Y35590D01*
X109734Y35579D01*
X109778Y35557D01*
X109844Y35524D01*
X109920Y35491D01*
X110095Y35415D01*
X110292Y35327D01*
X110488Y35207D01*
X110696Y35076D01*
X110882Y34934D01*
X110893D01*
X110904Y34912D01*
X110959Y34868D01*
X111046Y34781D01*
X111155Y34682D01*
X111265Y34551D01*
X111385Y34409D01*
X111494Y34256D01*
X111592Y34092D01*
X111603Y34070D01*
X111625Y34016D01*
X111669Y33939D01*
X111713Y33830D01*
X111756Y33710D01*
X111800Y33579D01*
X111822Y33436D01*
X111833Y33305D01*
Y33294D01*
Y33240D01*
X111822Y33174D01*
X111800Y33087D01*
X111767Y32988D01*
X111713Y32879D01*
X111647Y32770D01*
X111560Y32671D01*
X111549Y32660D01*
X111516Y32628D01*
X111450Y32584D01*
X111374Y32540D01*
X111275Y32496D01*
X111166Y32453D01*
X111046Y32420D01*
X110904Y32409D01*
X110871D01*
X110827Y32420D01*
X110773D01*
X110642Y32453D01*
X110488Y32507D01*
X110478D01*
X110456Y32529D01*
X110423Y32551D01*
X110379Y32584D01*
X110270Y32671D01*
X110161Y32792D01*
Y32802D01*
X110150Y32813D01*
X110106Y32890D01*
X110029Y32988D01*
X109953Y33108D01*
X109855Y33251D01*
X109745Y33393D01*
X109647Y33535D01*
X109549Y33655D01*
X109538Y33666D01*
X109505Y33710D01*
X109450Y33764D01*
X109374Y33830D01*
X109275Y33906D01*
X109155Y33983D01*
X109024Y34070D01*
X108871Y34147D01*
X108849Y34158D01*
X108794Y34180D01*
X108696Y34212D01*
X108576Y34256D01*
X108412Y34289D01*
X108226Y34322D01*
X108018Y34344D01*
X107778Y34354D01*
X107669D01*
X107603Y34344D01*
X107537D01*
X107373Y34322D01*
X107177Y34300D01*
X106980Y34256D01*
X106761Y34190D01*
X106554Y34114D01*
X106543D01*
X106532Y34103D01*
X106466Y34070D01*
X106368Y34016D01*
X106237Y33939D01*
X106095Y33841D01*
X105942Y33720D01*
X105789Y33589D01*
X105636Y33425D01*
X105625Y33404D01*
X105570Y33349D01*
X105505Y33251D01*
X105428Y33119D01*
X105330Y32956D01*
X105231Y32770D01*
X105144Y32562D01*
X105056Y32322D01*
Y32311D01*
X105045Y32289D01*
X105034Y32256D01*
X105024Y32212D01*
X105013Y32147D01*
X104991Y32081D01*
X104958Y31906D01*
X104925Y31688D01*
X104892Y31447D01*
X104870Y31174D01*
X104860Y30890D01*
Y30868D01*
Y30813D01*
Y30726D01*
X104870Y30606D01*
X104881Y30463D01*
X104903Y30299D01*
X104925Y30114D01*
X104958Y29917D01*
X105002Y29709D01*
X105045Y29491D01*
X105111Y29272D01*
X105187Y29053D01*
X105275Y28835D01*
X105384Y28627D01*
X105505Y28430D01*
X105636Y28245D01*
X105647Y28234D01*
X105668Y28201D01*
X105723Y28157D01*
X105778Y28102D01*
X105865Y28037D01*
X105964Y27950D01*
X106073Y27873D01*
X106204Y27786D01*
X106357Y27698D01*
X106521Y27622D01*
X106696Y27545D01*
X106893Y27469D01*
X107111Y27414D01*
X107330Y27370D01*
X107581Y27337D01*
X107833Y27327D01*
X107953D01*
X108007Y27337D01*
X108084D01*
X108248Y27348D01*
X108445Y27370D01*
X108663Y27403D01*
X108882Y27447D01*
X109111Y27501D01*
X109122D01*
X109144Y27512D01*
X109166Y27523D01*
X109221Y27534D01*
X109330Y27578D01*
X109494Y27632D01*
X109680Y27709D01*
X109877Y27797D01*
X110106Y27895D01*
X110336Y28015D01*
Y29600D01*
X108718D01*
X108619Y29611D01*
X108499Y29622D01*
X108368Y29644D01*
X108226Y29665D01*
X108095Y29709D01*
X107975Y29764D01*
X107964Y29775D01*
X107931Y29797D01*
X107887Y29840D01*
X107833Y29895D01*
X107778Y29972D01*
X107734Y30070D01*
X107701Y30190D01*
X107691Y30321D01*
Y30332D01*
Y30376D01*
X107701Y30442D01*
X107723Y30507D01*
X107745Y30595D01*
X107789Y30682D01*
X107843Y30770D01*
X107920Y30857D01*
X107931Y30868D01*
X107964Y30890D01*
X108018Y30922D01*
X108095Y30966D01*
X108182Y31010D01*
X108292Y31043D01*
X108423Y31065D01*
X108565Y31076D01*
X110948D01*
X111046Y31065D01*
X111155Y31054D01*
X111265Y31043D01*
X111385Y31021D01*
X111494Y30999D01*
X111505D01*
X111538Y30988D01*
X111592Y30966D01*
X111658Y30933D01*
X111735Y30890D01*
X111811Y30824D01*
X111888Y30759D01*
X111953Y30671D01*
X111964Y30660D01*
X111986Y30627D01*
X112008Y30562D01*
X112051Y30485D01*
X112084Y30376D01*
X112106Y30245D01*
X112128Y30092D01*
X112139Y29917D01*
Y28059D01*
Y28048D01*
Y27993D01*
Y27928D01*
X112128Y27840D01*
X112106Y27643D01*
X112084Y27545D01*
X112063Y27458D01*
Y27447D01*
X112051Y27425D01*
X112030Y27381D01*
X111997Y27327D01*
X111920Y27195D01*
X111855Y27130D01*
X111789Y27053D01*
X111778Y27042D01*
X111756Y27020D01*
X111713Y26988D01*
X111658Y26944D01*
X111582Y26889D01*
X111494Y26835D01*
X111396Y26780D01*
X111286Y26714D01*
X111275D01*
X111243Y26693D01*
X111199Y26671D01*
X111133Y26638D01*
X111057Y26594D01*
X110969Y26550D01*
X110860Y26496D01*
X110751Y26452D01*
X110488Y26332D01*
X110204Y26212D01*
X109898Y26113D01*
X109592Y26015D01*
X109581D01*
X109560Y26004D01*
X109516Y25993D01*
X109450Y25982D01*
X109374Y25971D01*
X109286Y25949D01*
X109177Y25927D01*
X109068Y25916D01*
X108937Y25895D01*
X108794Y25873D01*
X108499Y25840D01*
X108160Y25818D01*
X107811Y25807D01*
X107701D01*
X107625Y25818D01*
X107527D01*
X107406Y25829D01*
X107275Y25840D01*
X107133Y25851D01*
X106827Y25895D01*
X106477Y25949D01*
X106116Y26037D01*
X105767Y26146D01*
X105756D01*
X105723Y26168D01*
X105679Y26179D01*
X105614Y26212D01*
X105537Y26244D01*
X105439Y26288D01*
X105341Y26343D01*
X105231Y26408D01*
X104980Y26550D01*
X104718Y26714D01*
X104444Y26922D01*
X104193Y27152D01*
X104182Y27163D01*
X104160Y27184D01*
X104127Y27217D01*
X104084Y27272D01*
X104029Y27337D01*
X103974Y27403D01*
X103898Y27501D01*
X103832Y27600D01*
X103668Y27829D01*
X103504Y28102D01*
X103340Y28398D01*
X103198Y28736D01*
Y28747D01*
X103187Y28780D01*
X103165Y28835D01*
X103144Y28900D01*
X103122Y28988D01*
X103089Y29097D01*
X103056Y29217D01*
X103034Y29349D01*
X103001Y29502D01*
X102969Y29665D01*
X102936Y29840D01*
X102914Y30015D01*
X102870Y30409D01*
X102859Y30835D01*
Y30846D01*
Y30890D01*
Y30944D01*
X102870Y31032D01*
Y31130D01*
X102881Y31239D01*
X102892Y31381D01*
X102903Y31524D01*
X102914Y31677D01*
X102936Y31841D01*
X103001Y32190D01*
X103078Y32551D01*
X103187Y32912D01*
Y32923D01*
X103198Y32956D01*
X103220Y32999D01*
X103253Y33065D01*
X103286Y33152D01*
X103329Y33240D01*
X103384Y33349D01*
X103439Y33469D01*
X103581Y33710D01*
X103756Y33983D01*
X103952Y34256D01*
X104182Y34508D01*
X104193Y34518D01*
X104215Y34540D01*
X104247Y34573D01*
X104302Y34617D01*
X104368Y34672D01*
X104444Y34737D01*
X104532Y34813D01*
X104630Y34890D01*
X104750Y34967D01*
X104870Y35054D01*
X105144Y35218D01*
X105450Y35382D01*
X105789Y35524D01*
X105800D01*
X105832Y35535D01*
X105887Y35557D01*
X105953Y35579D01*
X106040Y35601D01*
X106149Y35633D01*
X106270Y35666D01*
X106412Y35699D01*
X106554Y35732D01*
X106718Y35765D01*
X106904Y35797D01*
X107089Y35819D01*
X107483Y35863D01*
X107920Y35874D01*
X108084D01*
X108171Y35863D01*
D02*
G37*
G36*
X131878D02*
X132010Y35852D01*
X132163Y35841D01*
X132338Y35819D01*
X132523Y35797D01*
X132720Y35765D01*
X132928Y35721D01*
X133146Y35677D01*
X133365Y35611D01*
X133584Y35535D01*
X133802Y35458D01*
X134021Y35360D01*
X134229Y35251D01*
X134239Y35240D01*
X134272Y35218D01*
X134338Y35185D01*
X134403Y35141D01*
X134502Y35076D01*
X134600Y34999D01*
X134720Y34912D01*
X134841Y34803D01*
X134972Y34682D01*
X135103Y34551D01*
X135245Y34409D01*
X135376Y34256D01*
X135507Y34081D01*
X135638Y33906D01*
X135759Y33710D01*
X135868Y33502D01*
X135879Y33491D01*
X135890Y33447D01*
X135923Y33393D01*
X135955Y33305D01*
X135999Y33196D01*
X136043Y33065D01*
X136098Y32912D01*
X136152Y32748D01*
X136207Y32562D01*
X136261Y32354D01*
X136305Y32136D01*
X136349Y31906D01*
X136382Y31655D01*
X136415Y31403D01*
X136425Y31130D01*
X136436Y30846D01*
Y30835D01*
Y30791D01*
Y30737D01*
Y30660D01*
X136425Y30562D01*
Y30442D01*
X136415Y30310D01*
X136404Y30168D01*
X136360Y29851D01*
X136305Y29502D01*
X136229Y29152D01*
X136130Y28791D01*
Y28780D01*
X136119Y28747D01*
X136098Y28704D01*
X136076Y28638D01*
X136043Y28562D01*
X135999Y28463D01*
X135955Y28365D01*
X135901Y28245D01*
X135770Y27993D01*
X135617Y27731D01*
X135431Y27458D01*
X135212Y27195D01*
X135201Y27184D01*
X135179Y27163D01*
X135147Y27130D01*
X135103Y27086D01*
X135048Y27031D01*
X134972Y26966D01*
X134884Y26889D01*
X134797Y26813D01*
X134578Y26649D01*
X134316Y26474D01*
X134032Y26310D01*
X133704Y26157D01*
X133693D01*
X133660Y26146D01*
X133616Y26124D01*
X133551Y26102D01*
X133463Y26081D01*
X133365Y26048D01*
X133245Y26015D01*
X133114Y25982D01*
X132972Y25949D01*
X132818Y25916D01*
X132655Y25884D01*
X132469Y25862D01*
X132086Y25818D01*
X131671Y25807D01*
X131562D01*
X131474Y25818D01*
X131376D01*
X131266Y25829D01*
X131135Y25840D01*
X130993Y25851D01*
X130676Y25895D01*
X130326Y25960D01*
X129977Y26048D01*
X129627Y26168D01*
X129616D01*
X129583Y26190D01*
X129540Y26212D01*
X129474Y26234D01*
X129397Y26277D01*
X129310Y26321D01*
X129102Y26441D01*
X128862Y26583D01*
X128611Y26758D01*
X128359Y26966D01*
X128119Y27206D01*
X128108Y27217D01*
X128097Y27239D01*
X128064Y27272D01*
X128020Y27327D01*
X127966Y27392D01*
X127911Y27469D01*
X127845Y27556D01*
X127780Y27665D01*
X127703Y27775D01*
X127638Y27895D01*
X127485Y28179D01*
X127343Y28485D01*
X127211Y28824D01*
Y28835D01*
X127200Y28868D01*
X127179Y28922D01*
X127168Y28988D01*
X127146Y29075D01*
X127113Y29185D01*
X127091Y29294D01*
X127058Y29436D01*
X127026Y29578D01*
X127004Y29731D01*
X126949Y30081D01*
X126916Y30452D01*
X126905Y30857D01*
Y30868D01*
Y30911D01*
Y30966D01*
Y31043D01*
X126916Y31152D01*
X126927Y31261D01*
Y31392D01*
X126949Y31535D01*
X126982Y31852D01*
X127037Y32201D01*
X127113Y32562D01*
X127222Y32912D01*
Y32923D01*
X127233Y32956D01*
X127255Y32999D01*
X127277Y33065D01*
X127310Y33152D01*
X127354Y33240D01*
X127408Y33349D01*
X127463Y33469D01*
X127594Y33710D01*
X127747Y33983D01*
X127933Y34256D01*
X128151Y34508D01*
X128162Y34518D01*
X128184Y34540D01*
X128217Y34573D01*
X128261Y34617D01*
X128315Y34672D01*
X128392Y34737D01*
X128479Y34813D01*
X128567Y34890D01*
X128785Y35054D01*
X129037Y35218D01*
X129321Y35382D01*
X129638Y35524D01*
X129649D01*
X129682Y35535D01*
X129725Y35557D01*
X129791Y35579D01*
X129878Y35601D01*
X129977Y35633D01*
X130086Y35666D01*
X130217Y35699D01*
X130359Y35732D01*
X130512Y35765D01*
X130676Y35797D01*
X130851Y35819D01*
X131223Y35863D01*
X131627Y35874D01*
X131780D01*
X131878Y35863D01*
D02*
G37*
G36*
X124315D02*
X124413Y35841D01*
X124523Y35797D01*
X124643Y35743D01*
X124763Y35666D01*
X124872Y35568D01*
X124883Y35557D01*
X124916Y35513D01*
X124960Y35447D01*
X125014Y35349D01*
X125069Y35218D01*
X125113Y35065D01*
X125146Y34879D01*
X125157Y34672D01*
Y26999D01*
Y26988D01*
Y26977D01*
Y26944D01*
Y26900D01*
X125146Y26791D01*
X125124Y26660D01*
X125091Y26518D01*
X125036Y26365D01*
X124971Y26223D01*
X124872Y26102D01*
X124862Y26091D01*
X124829Y26059D01*
X124763Y26004D01*
X124687Y25960D01*
X124577Y25906D01*
X124457Y25851D01*
X124315Y25818D01*
X124162Y25807D01*
X124096D01*
X124009Y25818D01*
X123911Y25840D01*
X123801Y25884D01*
X123692Y25927D01*
X123572Y26004D01*
X123462Y26102D01*
X123451Y26113D01*
X123419Y26157D01*
X123375Y26234D01*
X123331Y26332D01*
X123277Y26452D01*
X123233Y26605D01*
X123200Y26791D01*
X123189Y26999D01*
Y34672D01*
Y34682D01*
Y34693D01*
Y34726D01*
Y34770D01*
X123200Y34879D01*
X123222Y35010D01*
X123255Y35152D01*
X123299Y35305D01*
X123364Y35447D01*
X123451Y35568D01*
X123462Y35579D01*
X123506Y35611D01*
X123561Y35666D01*
X123648Y35721D01*
X123747Y35775D01*
X123867Y35830D01*
X124009Y35863D01*
X124162Y35874D01*
X124239D01*
X124315Y35863D01*
D02*
G37*
G36*
X118194Y35688D02*
X118314D01*
X118435Y35677D01*
X118719Y35655D01*
X119003Y35622D01*
X119276Y35579D01*
X119407Y35557D01*
X119528Y35524D01*
X119539D01*
X119550Y35513D01*
X119582Y35502D01*
X119626Y35491D01*
X119735Y35447D01*
X119877Y35393D01*
X120041Y35316D01*
X120216Y35218D01*
X120391Y35109D01*
X120555Y34967D01*
X120577Y34945D01*
X120632Y34901D01*
X120708Y34813D01*
X120807Y34704D01*
X120916Y34573D01*
X121025Y34409D01*
X121123Y34223D01*
X121222Y34027D01*
Y34016D01*
X121233Y34005D01*
X121244Y33972D01*
X121255Y33928D01*
X121298Y33819D01*
X121342Y33666D01*
X121375Y33480D01*
X121418Y33261D01*
X121440Y33032D01*
X121451Y32781D01*
Y32759D01*
Y32715D01*
X121440Y32638D01*
Y32540D01*
X121418Y32409D01*
X121408Y32267D01*
X121375Y32114D01*
X121342Y31939D01*
X121287Y31764D01*
X121233Y31578D01*
X121156Y31392D01*
X121069Y31207D01*
X120959Y31021D01*
X120839Y30846D01*
X120697Y30682D01*
X120533Y30529D01*
X120522Y30518D01*
X120490Y30496D01*
X120435Y30463D01*
X120358Y30409D01*
X120260Y30354D01*
X120151Y30288D01*
X120009Y30223D01*
X119845Y30146D01*
X119670Y30081D01*
X119462Y30004D01*
X119244Y29939D01*
X118992Y29884D01*
X118730Y29829D01*
X118435Y29797D01*
X118129Y29775D01*
X117801Y29764D01*
X115997D01*
Y26999D01*
Y26988D01*
Y26977D01*
Y26944D01*
Y26900D01*
X115986Y26791D01*
X115964Y26671D01*
X115932Y26518D01*
X115877Y26376D01*
X115811Y26234D01*
X115713Y26102D01*
X115702Y26091D01*
X115669Y26059D01*
X115604Y26004D01*
X115527Y25960D01*
X115418Y25906D01*
X115298Y25851D01*
X115167Y25818D01*
X115014Y25807D01*
X114937D01*
X114860Y25818D01*
X114751Y25840D01*
X114642Y25884D01*
X114522Y25927D01*
X114401Y26004D01*
X114292Y26102D01*
X114281Y26113D01*
X114249Y26157D01*
X114205Y26234D01*
X114161Y26332D01*
X114117Y26452D01*
X114074Y26605D01*
X114041Y26780D01*
X114030Y26988D01*
Y34486D01*
Y34497D01*
Y34518D01*
Y34551D01*
Y34595D01*
X114041Y34704D01*
X114063Y34846D01*
X114106Y34999D01*
X114150Y35152D01*
X114227Y35294D01*
X114325Y35415D01*
X114336Y35426D01*
X114380Y35458D01*
X114456Y35502D01*
X114555Y35557D01*
X114686Y35611D01*
X114850Y35655D01*
X115046Y35688D01*
X115276Y35699D01*
X118085D01*
X118194Y35688D01*
D02*
G37*
G36*
X101438Y35863D02*
X101515Y35852D01*
X101592Y35830D01*
X101679Y35808D01*
X101755Y35765D01*
X101832Y35710D01*
X101843Y35699D01*
X101865Y35677D01*
X101887Y35644D01*
X101930Y35590D01*
X101963Y35535D01*
X101985Y35458D01*
X102007Y35371D01*
X102018Y35273D01*
Y35262D01*
Y35229D01*
X102007Y35174D01*
X101996Y35098D01*
X101985Y34999D01*
X101963Y34868D01*
X101919Y34704D01*
X101876Y34518D01*
X100018Y26867D01*
Y26846D01*
X100007Y26802D01*
X99985Y26736D01*
X99963Y26649D01*
X99897Y26452D01*
X99875Y26354D01*
X99843Y26266D01*
Y26255D01*
X99832Y26234D01*
X99810Y26190D01*
X99788Y26146D01*
X99722Y26037D01*
X99635Y25927D01*
X99624D01*
X99613Y25906D01*
X99580Y25895D01*
X99526Y25873D01*
X99471Y25851D01*
X99405Y25829D01*
X99318Y25818D01*
X99220Y25807D01*
X99154D01*
X99121Y25818D01*
X99012Y25840D01*
X98892Y25884D01*
X98761Y25949D01*
X98662Y26048D01*
X98619Y26113D01*
X98586Y26201D01*
X98564Y26288D01*
X98553Y26386D01*
Y26397D01*
Y26419D01*
X98564Y26463D01*
X98575Y26539D01*
X98586Y26638D01*
X98608Y26769D01*
X98640Y26944D01*
X98684Y27152D01*
X100531Y34803D01*
Y34813D01*
X100542Y34824D01*
Y34857D01*
X100553Y34901D01*
X100586Y35010D01*
X100619Y35141D01*
X100663Y35273D01*
X100706Y35415D01*
X100761Y35546D01*
X100805Y35644D01*
X100815Y35655D01*
X100837Y35677D01*
X100870Y35721D01*
X100925Y35765D01*
X100990Y35797D01*
X101089Y35841D01*
X101198Y35863D01*
X101329Y35874D01*
X101384D01*
X101438Y35863D01*
D02*
G37*
G36*
X213644Y115427D02*
X213731D01*
X213830Y115416D01*
X213950Y115405D01*
X214190Y115384D01*
X214453Y115340D01*
X214715Y115285D01*
X214967Y115209D01*
X214977D01*
X214999Y115198D01*
X215032Y115187D01*
X215076Y115165D01*
X215196Y115121D01*
X215349Y115056D01*
X215524Y114968D01*
X215699Y114870D01*
X215885Y114750D01*
X216049Y114618D01*
X216070Y114596D01*
X216125Y114553D01*
X216202Y114476D01*
X216289Y114378D01*
X216398Y114269D01*
X216497Y114137D01*
X216595Y113995D01*
X216683Y113842D01*
X216693Y113821D01*
X216715Y113777D01*
X216748Y113689D01*
X216792Y113591D01*
X216825Y113471D01*
X216857Y113340D01*
X216879Y113198D01*
X216890Y113055D01*
Y113044D01*
Y113001D01*
X216879Y112935D01*
X216857Y112848D01*
X216825Y112749D01*
X216781Y112640D01*
X216726Y112531D01*
X216639Y112421D01*
X216628Y112410D01*
X216595Y112378D01*
X216540Y112334D01*
X216464Y112279D01*
X216376Y112225D01*
X216267Y112181D01*
X216147Y112148D01*
X216016Y112137D01*
X215961D01*
X215896Y112148D01*
X215830Y112159D01*
X215742Y112181D01*
X215655Y112203D01*
X215579Y112247D01*
X215502Y112301D01*
X215491Y112312D01*
X215469Y112334D01*
X215437Y112378D01*
X215393Y112443D01*
X215327Y112520D01*
X215272Y112618D01*
X215196Y112727D01*
X215120Y112870D01*
Y112881D01*
X215109Y112891D01*
X215076Y112957D01*
X215021Y113055D01*
X214945Y113187D01*
X214846Y113318D01*
X214737Y113460D01*
X214617Y113602D01*
X214486Y113722D01*
X214464Y113733D01*
X214420Y113777D01*
X214322Y113821D01*
X214201Y113886D01*
X214026Y113941D01*
X213819Y113995D01*
X213578Y114028D01*
X213283Y114039D01*
X213152D01*
X213087Y114028D01*
X213021Y114017D01*
X212846Y113995D01*
X212649Y113952D01*
X212442Y113897D01*
X212234Y113810D01*
X212048Y113700D01*
X212026Y113689D01*
X211972Y113646D01*
X211906Y113569D01*
X211819Y113471D01*
X211731Y113350D01*
X211666Y113219D01*
X211611Y113066D01*
X211589Y112891D01*
Y112881D01*
Y112848D01*
X211600Y112782D01*
X211611Y112716D01*
X211655Y112553D01*
X211687Y112465D01*
X211742Y112378D01*
X211753Y112367D01*
X211775Y112345D01*
X211808Y112301D01*
X211862Y112258D01*
X211917Y112203D01*
X211994Y112137D01*
X212081Y112072D01*
X212179Y112017D01*
X212190Y112006D01*
X212234Y111995D01*
X212289Y111962D01*
X212354Y111930D01*
X212442Y111897D01*
X212540Y111853D01*
X212748Y111777D01*
X212759D01*
X212802Y111766D01*
X212868Y111744D01*
X212977Y111711D01*
X213097Y111678D01*
X213261Y111635D01*
X213458Y111580D01*
X213688Y111525D01*
X213699D01*
X213720Y111514D01*
X213764Y111503D01*
X213830Y111492D01*
X213906Y111470D01*
X213983Y111449D01*
X214190Y111405D01*
X214420Y111339D01*
X214671Y111263D01*
X214934Y111186D01*
X215185Y111099D01*
X215196D01*
X215218Y111088D01*
X215251Y111077D01*
X215294Y111055D01*
X215425Y111012D01*
X215579Y110946D01*
X215753Y110858D01*
X215939Y110760D01*
X216136Y110651D01*
X216311Y110530D01*
X216322D01*
X216333Y110520D01*
X216387Y110476D01*
X216475Y110399D01*
X216584Y110301D01*
X216693Y110181D01*
X216814Y110039D01*
X216934Y109875D01*
X217043Y109689D01*
Y109678D01*
X217054Y109667D01*
X217065Y109634D01*
X217087Y109601D01*
X217131Y109492D01*
X217185Y109350D01*
X217229Y109164D01*
X217273Y108957D01*
X217305Y108716D01*
X217316Y108454D01*
Y108443D01*
Y108410D01*
Y108366D01*
X217305Y108301D01*
Y108224D01*
X217295Y108137D01*
X217284Y108038D01*
X217262Y107918D01*
X217207Y107678D01*
X217120Y107405D01*
X217010Y107131D01*
X216857Y106858D01*
Y106847D01*
X216835Y106825D01*
X216814Y106792D01*
X216770Y106738D01*
X216671Y106618D01*
X216518Y106465D01*
X216333Y106279D01*
X216103Y106104D01*
X215830Y105929D01*
X215524Y105765D01*
X215513D01*
X215480Y105743D01*
X215437Y105732D01*
X215371Y105700D01*
X215283Y105678D01*
X215185Y105645D01*
X215065Y105601D01*
X214934Y105568D01*
X214792Y105535D01*
X214628Y105492D01*
X214464Y105459D01*
X214278Y105437D01*
X213884Y105393D01*
X213447Y105372D01*
X213305D01*
X213207Y105383D01*
X213087Y105393D01*
X212944Y105404D01*
X212780Y105415D01*
X212606Y105437D01*
X212420Y105470D01*
X212234Y105503D01*
X211830Y105601D01*
X211633Y105656D01*
X211436Y105732D01*
X211250Y105809D01*
X211065Y105907D01*
X211053D01*
X211032Y105929D01*
X210999Y105951D01*
X210955Y105984D01*
X210835Y106071D01*
X210682Y106191D01*
X210507Y106333D01*
X210332Y106519D01*
X210146Y106727D01*
X209982Y106956D01*
Y106967D01*
X209961Y106989D01*
X209950Y107022D01*
X209917Y107066D01*
X209884Y107131D01*
X209851Y107197D01*
X209775Y107361D01*
X209698Y107558D01*
X209633Y107765D01*
X209589Y107995D01*
X209567Y108224D01*
Y108235D01*
Y108290D01*
X209578Y108355D01*
X209600Y108432D01*
X209633Y108530D01*
X209676Y108640D01*
X209731Y108738D01*
X209818Y108836D01*
X209829Y108847D01*
X209862Y108880D01*
X209917Y108924D01*
X209993Y108968D01*
X210081Y109011D01*
X210190Y109055D01*
X210310Y109088D01*
X210452Y109099D01*
X210507D01*
X210562Y109088D01*
X210638Y109077D01*
X210715Y109044D01*
X210813Y109011D01*
X210900Y108957D01*
X210977Y108891D01*
X210988Y108880D01*
X211010Y108858D01*
X211053Y108804D01*
X211108Y108749D01*
X211163Y108661D01*
X211228Y108563D01*
X211294Y108443D01*
X211349Y108301D01*
X211360Y108279D01*
X211381Y108224D01*
X211414Y108137D01*
X211469Y108028D01*
X211535Y107907D01*
X211600Y107776D01*
X211677Y107645D01*
X211753Y107525D01*
X211764Y107514D01*
X211797Y107470D01*
X211841Y107415D01*
X211917Y107350D01*
X211994Y107263D01*
X212103Y107175D01*
X212223Y107098D01*
X212365Y107011D01*
X212387Y107000D01*
X212442Y106978D01*
X212518Y106946D01*
X212638Y106913D01*
X212791Y106880D01*
X212966Y106847D01*
X213163Y106825D01*
X213392Y106814D01*
X213480D01*
X213535Y106825D01*
X213611D01*
X213699Y106836D01*
X213895Y106869D01*
X214125Y106913D01*
X214365Y106989D01*
X214595Y107088D01*
X214813Y107219D01*
X214824D01*
X214835Y107241D01*
X214901Y107295D01*
X214988Y107383D01*
X215098Y107503D01*
X215196Y107645D01*
X215283Y107820D01*
X215349Y108017D01*
X215360Y108126D01*
X215371Y108235D01*
Y108246D01*
Y108257D01*
Y108312D01*
X215360Y108410D01*
X215338Y108519D01*
X215294Y108640D01*
X215240Y108771D01*
X215163Y108902D01*
X215065Y109022D01*
X215054Y109033D01*
X215010Y109077D01*
X214945Y109132D01*
X214857Y109197D01*
X214748Y109274D01*
X214617Y109350D01*
X214464Y109416D01*
X214300Y109481D01*
X214278Y109492D01*
X214212Y109514D01*
X214114Y109547D01*
X213972Y109591D01*
X213797Y109634D01*
X213578Y109700D01*
X213338Y109765D01*
X213054Y109831D01*
X213043D01*
X213010Y109842D01*
X212955Y109853D01*
X212879Y109875D01*
X212791Y109897D01*
X212682Y109929D01*
X212573Y109951D01*
X212442Y109995D01*
X212168Y110072D01*
X211873Y110170D01*
X211578Y110279D01*
X211294Y110399D01*
X211283D01*
X211261Y110410D01*
X211228Y110432D01*
X211174Y110465D01*
X211043Y110530D01*
X210890Y110640D01*
X210704Y110760D01*
X210518Y110913D01*
X210332Y111099D01*
X210168Y111296D01*
Y111307D01*
X210146Y111318D01*
X210135Y111350D01*
X210103Y111394D01*
X210070Y111449D01*
X210037Y111525D01*
X209971Y111689D01*
X209895Y111886D01*
X209829Y112126D01*
X209786Y112400D01*
X209764Y112706D01*
Y112716D01*
Y112738D01*
Y112782D01*
X209775Y112837D01*
Y112913D01*
X209786Y112990D01*
X209818Y113187D01*
X209873Y113416D01*
X209950Y113656D01*
X210059Y113897D01*
X210201Y114137D01*
Y114148D01*
X210223Y114170D01*
X210245Y114192D01*
X210278Y114236D01*
X210387Y114356D01*
X210529Y114487D01*
X210704Y114651D01*
X210922Y114804D01*
X211174Y114957D01*
X211469Y115099D01*
X211480D01*
X211502Y115110D01*
X211556Y115132D01*
X211622Y115154D01*
X211698Y115176D01*
X211786Y115209D01*
X211895Y115241D01*
X212026Y115274D01*
X212158Y115296D01*
X212311Y115329D01*
X212474Y115362D01*
X212638Y115384D01*
X213010Y115427D01*
X213414Y115438D01*
X213567D01*
X213644Y115427D01*
D02*
G37*
G36*
X193216D02*
X193314Y115405D01*
X193412Y115373D01*
X193522Y115329D01*
X193620Y115263D01*
X193708Y115176D01*
X193719Y115165D01*
X193740Y115132D01*
X193784Y115067D01*
X193828Y114979D01*
X193861Y114870D01*
X193904Y114739D01*
X193926Y114586D01*
X193937Y114400D01*
Y106399D01*
Y106388D01*
Y106377D01*
Y106312D01*
X193926Y106224D01*
X193904Y106115D01*
X193883Y105984D01*
X193839Y105852D01*
X193773Y105732D01*
X193697Y105623D01*
X193686Y105612D01*
X193653Y105579D01*
X193598Y105546D01*
X193533Y105503D01*
X193434Y105448D01*
X193336Y105415D01*
X193216Y105383D01*
X193074Y105372D01*
X193008D01*
X192943Y105383D01*
X192855Y105404D01*
X192757Y105437D01*
X192658Y105481D01*
X192560Y105546D01*
X192462Y105634D01*
X192451Y105645D01*
X192429Y105689D01*
X192385Y105743D01*
X192341Y105831D01*
X192298Y105940D01*
X192254Y106071D01*
X192232Y106224D01*
X192221Y106399D01*
Y106585D01*
X192210Y106563D01*
X192156Y106519D01*
X192090Y106432D01*
X191992Y106344D01*
X191882Y106235D01*
X191751Y106115D01*
X191620Y106006D01*
X191489Y105896D01*
X191478Y105885D01*
X191423Y105852D01*
X191358Y105809D01*
X191259Y105754D01*
X191150Y105689D01*
X191019Y105623D01*
X190877Y105557D01*
X190724Y105503D01*
X190702D01*
X190647Y105481D01*
X190571Y105459D01*
X190461Y105437D01*
X190319Y105415D01*
X190166Y105393D01*
X190002Y105383D01*
X189828Y105372D01*
X189718D01*
X189664Y105383D01*
X189587D01*
X189434Y105404D01*
X189248Y105437D01*
X189041Y105492D01*
X188822Y105557D01*
X188614Y105645D01*
X188603D01*
X188592Y105656D01*
X188527Y105700D01*
X188417Y105754D01*
X188286Y105842D01*
X188144Y105951D01*
X187980Y106093D01*
X187816Y106246D01*
X187663Y106421D01*
Y106432D01*
X187642Y106443D01*
X187620Y106475D01*
X187598Y106508D01*
X187521Y106618D01*
X187434Y106760D01*
X187335Y106946D01*
X187237Y107142D01*
X187139Y107372D01*
X187051Y107623D01*
Y107634D01*
X187040Y107656D01*
X187029Y107689D01*
X187019Y107743D01*
X187007Y107809D01*
X186986Y107886D01*
X186964Y107973D01*
X186953Y108071D01*
X186909Y108301D01*
X186876Y108552D01*
X186855Y108826D01*
X186844Y109121D01*
Y109142D01*
Y109197D01*
X186855Y109284D01*
Y109405D01*
X186865Y109547D01*
X186887Y109711D01*
X186909Y109897D01*
X186942Y110093D01*
X186986Y110301D01*
X187040Y110520D01*
X187106Y110738D01*
X187193Y110957D01*
X187281Y111175D01*
X187390Y111394D01*
X187521Y111591D01*
X187663Y111777D01*
X187674Y111787D01*
X187707Y111820D01*
X187751Y111864D01*
X187816Y111930D01*
X187893Y111995D01*
X188002Y112083D01*
X188111Y112159D01*
X188253Y112258D01*
X188396Y112345D01*
X188560Y112432D01*
X188745Y112509D01*
X188931Y112575D01*
X189150Y112640D01*
X189368Y112684D01*
X189598Y112716D01*
X189849Y112727D01*
X189980D01*
X190046Y112716D01*
X190123D01*
X190308Y112695D01*
X190516Y112662D01*
X190735Y112607D01*
X190964Y112542D01*
X191172Y112454D01*
X191183D01*
X191194Y112443D01*
X191259Y112400D01*
X191369Y112334D01*
X191500Y112247D01*
X191664Y112126D01*
X191839Y111984D01*
X192024Y111820D01*
X192221Y111624D01*
Y114301D01*
Y114312D01*
Y114323D01*
Y114389D01*
X192232Y114498D01*
X192254Y114618D01*
X192276Y114750D01*
X192309Y114892D01*
X192363Y115023D01*
X192440Y115143D01*
X192451Y115154D01*
X192483Y115187D01*
X192527Y115241D01*
X192604Y115296D01*
X192691Y115340D01*
X192800Y115394D01*
X192932Y115427D01*
X193074Y115438D01*
X193139D01*
X193216Y115427D01*
D02*
G37*
G36*
X207359Y112727D02*
X207501Y112706D01*
X207676Y112662D01*
X207862Y112618D01*
X208059Y112542D01*
X208256Y112443D01*
X208266D01*
X208277Y112432D01*
X208343Y112389D01*
X208430Y112334D01*
X208529Y112247D01*
X208627Y112137D01*
X208704Y112006D01*
X208769Y111853D01*
X208780Y111777D01*
X208791Y111689D01*
Y111678D01*
Y111635D01*
X208780Y111569D01*
X208758Y111503D01*
X208736Y111416D01*
X208693Y111318D01*
X208638Y111230D01*
X208561Y111143D01*
X208551Y111132D01*
X208518Y111110D01*
X208474Y111077D01*
X208419Y111033D01*
X208343Y110990D01*
X208256Y110957D01*
X208168Y110935D01*
X208070Y110924D01*
X208048D01*
X208015Y110935D01*
X207971D01*
X207906Y110957D01*
X207829Y110979D01*
X207720Y111001D01*
X207589Y111044D01*
X207567Y111055D01*
X207523Y111066D01*
X207458Y111088D01*
X207359Y111110D01*
X207261Y111132D01*
X207141Y111153D01*
X207020Y111175D01*
X206845D01*
X206769Y111164D01*
X206681Y111153D01*
X206583Y111121D01*
X206474Y111088D01*
X206365Y111033D01*
X206266Y110957D01*
X206255Y110946D01*
X206223Y110913D01*
X206179Y110869D01*
X206124Y110804D01*
X206059Y110716D01*
X205993Y110607D01*
X205927Y110476D01*
X205873Y110334D01*
X205862Y110312D01*
X205851Y110257D01*
X205829Y110181D01*
X205796Y110061D01*
X205763Y109918D01*
X205731Y109755D01*
X205698Y109569D01*
X205676Y109361D01*
Y109350D01*
Y109339D01*
Y109306D01*
X205665Y109263D01*
Y109208D01*
Y109142D01*
X205654Y108978D01*
X205643Y108771D01*
Y108541D01*
X205632Y108279D01*
Y107984D01*
Y106465D01*
Y106454D01*
Y106443D01*
Y106377D01*
X205621Y106279D01*
X205599Y106158D01*
X205567Y106027D01*
X205523Y105885D01*
X205457Y105754D01*
X205370Y105645D01*
X205359Y105634D01*
X205326Y105601D01*
X205272Y105557D01*
X205195Y105514D01*
X205097Y105459D01*
X204987Y105415D01*
X204856Y105383D01*
X204714Y105372D01*
X204649D01*
X204572Y105383D01*
X204485Y105404D01*
X204386Y105437D01*
X204277Y105492D01*
X204168Y105557D01*
X204069Y105645D01*
X204058Y105656D01*
X204026Y105700D01*
X203993Y105765D01*
X203949Y105852D01*
X203894Y105973D01*
X203862Y106115D01*
X203829Y106279D01*
X203818Y106465D01*
Y111514D01*
Y111525D01*
Y111569D01*
X203829Y111624D01*
Y111711D01*
X203840Y111798D01*
X203862Y111897D01*
X203927Y112126D01*
X203971Y112236D01*
X204036Y112356D01*
X204102Y112454D01*
X204189Y112553D01*
X204288Y112629D01*
X204408Y112684D01*
X204539Y112727D01*
X204692Y112738D01*
X204769D01*
X204845Y112727D01*
X204944Y112706D01*
X205053Y112662D01*
X205162Y112618D01*
X205261Y112542D01*
X205348Y112443D01*
X205359Y112432D01*
X205381Y112389D01*
X205414Y112323D01*
X205446Y112236D01*
X205490Y112115D01*
X205523Y111973D01*
X205556Y111798D01*
X205567Y111602D01*
Y111613D01*
X205578Y111624D01*
X205621Y111689D01*
X205687Y111798D01*
X205774Y111919D01*
X205873Y112050D01*
X205982Y112192D01*
X206113Y112323D01*
X206233Y112443D01*
X206244Y112454D01*
X206299Y112487D01*
X206376Y112542D01*
X206474Y112596D01*
X206605Y112640D01*
X206769Y112695D01*
X206944Y112727D01*
X207152Y112738D01*
X207250D01*
X207359Y112727D01*
D02*
G37*
G36*
X183215D02*
X183291D01*
X183455Y112695D01*
X183663Y112662D01*
X183871Y112607D01*
X184089Y112531D01*
X184308Y112421D01*
X184319D01*
X184330Y112410D01*
X184406Y112367D01*
X184505Y112290D01*
X184625Y112192D01*
X184767Y112072D01*
X184898Y111919D01*
X185040Y111733D01*
X185149Y111536D01*
X185160Y111525D01*
X185182Y111481D01*
X185215Y111416D01*
X185248Y111328D01*
X185292Y111219D01*
X185324Y111099D01*
X185368Y110968D01*
X185390Y110826D01*
Y110804D01*
X185401Y110760D01*
X185412Y110673D01*
X185423Y110563D01*
Y110421D01*
X185434Y110246D01*
X185444Y110061D01*
Y109842D01*
Y106465D01*
Y106454D01*
Y106443D01*
Y106377D01*
X185434Y106279D01*
X185412Y106158D01*
X185379Y106027D01*
X185335Y105896D01*
X185281Y105765D01*
X185193Y105645D01*
X185182Y105634D01*
X185149Y105601D01*
X185095Y105557D01*
X185018Y105514D01*
X184931Y105459D01*
X184811Y105415D01*
X184690Y105383D01*
X184548Y105372D01*
X184483D01*
X184406Y105383D01*
X184319Y105404D01*
X184209Y105437D01*
X184100Y105492D01*
X183991Y105557D01*
X183893Y105656D01*
X183881Y105667D01*
X183849Y105710D01*
X183816Y105776D01*
X183772Y105863D01*
X183718Y105984D01*
X183685Y106115D01*
X183652Y106279D01*
X183641Y106465D01*
Y109492D01*
Y109503D01*
Y109536D01*
Y109580D01*
Y109645D01*
X183630Y109711D01*
Y109798D01*
X183608Y109995D01*
X183575Y110224D01*
X183532Y110443D01*
X183477Y110662D01*
X183390Y110858D01*
Y110869D01*
X183379Y110880D01*
X183335Y110935D01*
X183270Y111012D01*
X183171Y111099D01*
X183040Y111186D01*
X182865Y111263D01*
X182647Y111318D01*
X182526Y111339D01*
X182319D01*
X182220Y111328D01*
X182100Y111307D01*
X181969Y111263D01*
X181816Y111219D01*
X181663Y111143D01*
X181510Y111044D01*
X181488Y111033D01*
X181444Y110990D01*
X181379Y110924D01*
X181291Y110837D01*
X181193Y110727D01*
X181094Y110596D01*
X181007Y110432D01*
X180930Y110257D01*
Y110235D01*
X180920Y110214D01*
X180909Y110181D01*
X180898Y110126D01*
X180887Y110072D01*
X180876Y109995D01*
X180865Y109907D01*
X180854Y109820D01*
X180843Y109700D01*
X180832Y109580D01*
X180821Y109438D01*
X180810Y109284D01*
Y109121D01*
X180799Y108935D01*
Y108738D01*
Y106465D01*
Y106454D01*
Y106443D01*
Y106377D01*
X180788Y106279D01*
X180766Y106158D01*
X180734Y106027D01*
X180690Y105885D01*
X180624Y105754D01*
X180537Y105645D01*
X180526Y105634D01*
X180493Y105601D01*
X180439Y105557D01*
X180362Y105514D01*
X180264Y105459D01*
X180154Y105415D01*
X180023Y105383D01*
X179881Y105372D01*
X179816D01*
X179739Y105383D01*
X179652Y105404D01*
X179553Y105437D01*
X179444Y105492D01*
X179335Y105557D01*
X179236Y105656D01*
X179225Y105667D01*
X179193Y105710D01*
X179160Y105776D01*
X179116Y105863D01*
X179061Y105984D01*
X179029Y106115D01*
X178996Y106279D01*
X178985Y106465D01*
Y111700D01*
Y111711D01*
Y111722D01*
Y111787D01*
X178996Y111875D01*
X179018Y111995D01*
X179040Y112115D01*
X179072Y112247D01*
X179127Y112367D01*
X179203Y112476D01*
X179214Y112487D01*
X179247Y112520D01*
X179302Y112564D01*
X179367Y112607D01*
X179455Y112651D01*
X179564Y112695D01*
X179684Y112727D01*
X179826Y112738D01*
X179870D01*
X179914Y112727D01*
X179969D01*
X180111Y112684D01*
X180176Y112662D01*
X180253Y112618D01*
X180264D01*
X180286Y112596D01*
X180318Y112574D01*
X180362Y112531D01*
X180417Y112487D01*
X180461Y112432D01*
X180515Y112356D01*
X180559Y112279D01*
X180570Y112268D01*
X180581Y112236D01*
X180603Y112192D01*
X180624Y112126D01*
X180646Y112050D01*
X180657Y111962D01*
X180679Y111853D01*
Y111733D01*
Y111514D01*
X180690Y111525D01*
X180701Y111547D01*
X180723Y111580D01*
X180766Y111624D01*
X180865Y111733D01*
X180996Y111864D01*
X181149Y112017D01*
X181324Y112170D01*
X181521Y112323D01*
X181728Y112443D01*
X181739D01*
X181750Y112454D01*
X181783Y112476D01*
X181827Y112487D01*
X181881Y112509D01*
X181947Y112542D01*
X182100Y112596D01*
X182297Y112640D01*
X182515Y112695D01*
X182767Y112727D01*
X183029Y112738D01*
X183149D01*
X183215Y112727D01*
D02*
G37*
G36*
X222322Y112738D02*
X222388D01*
X222563Y112727D01*
X222760Y112695D01*
X222978Y112662D01*
X223208Y112607D01*
X223426Y112542D01*
X223437D01*
X223448Y112531D01*
X223481Y112520D01*
X223525Y112509D01*
X223634Y112454D01*
X223776Y112400D01*
X223929Y112323D01*
X224093Y112225D01*
X224257Y112126D01*
X224421Y112006D01*
X224443Y111995D01*
X224486Y111951D01*
X224563Y111886D01*
X224651Y111798D01*
X224760Y111689D01*
X224858Y111569D01*
X224956Y111449D01*
X225044Y111307D01*
X225055Y111296D01*
X225077Y111241D01*
X225110Y111175D01*
X225153Y111088D01*
X225197Y110979D01*
X225230Y110869D01*
X225252Y110749D01*
X225262Y110629D01*
Y110618D01*
Y110574D01*
X225252Y110509D01*
X225230Y110432D01*
X225208Y110345D01*
X225164Y110257D01*
X225099Y110159D01*
X225022Y110072D01*
X225011Y110061D01*
X224978Y110039D01*
X224924Y109995D01*
X224858Y109962D01*
X224771Y109918D01*
X224672Y109875D01*
X224563Y109853D01*
X224432Y109842D01*
X224399D01*
X224355Y109853D01*
X224301D01*
X224181Y109897D01*
X224126Y109918D01*
X224060Y109962D01*
X224049Y109973D01*
X224038Y109984D01*
X224006Y110017D01*
X223962Y110050D01*
X223918Y110104D01*
X223864Y110170D01*
X223798Y110246D01*
X223732Y110334D01*
Y110345D01*
X223721Y110356D01*
X223678Y110421D01*
X223601Y110509D01*
X223514Y110618D01*
X223415Y110738D01*
X223295Y110869D01*
X223164Y110979D01*
X223033Y111088D01*
X223022Y111099D01*
X222967Y111132D01*
X222891Y111175D01*
X222781Y111219D01*
X222650Y111263D01*
X222497Y111307D01*
X222311Y111339D01*
X222115Y111350D01*
X222038D01*
X221984Y111339D01*
X221907Y111328D01*
X221831Y111318D01*
X221645Y111274D01*
X221437Y111197D01*
X221339Y111143D01*
X221229Y111088D01*
X221120Y111012D01*
X221011Y110924D01*
X220912Y110826D01*
X220814Y110716D01*
Y110705D01*
X220792Y110684D01*
X220770Y110651D01*
X220738Y110607D01*
X220705Y110541D01*
X220661Y110465D01*
X220617Y110367D01*
X220574Y110268D01*
X220530Y110148D01*
X220486Y110028D01*
X220442Y109886D01*
X220410Y109733D01*
X220377Y109569D01*
X220355Y109383D01*
X220344Y109197D01*
X220333Y109000D01*
Y108978D01*
Y108913D01*
X220344Y108815D01*
Y108694D01*
X220366Y108552D01*
X220388Y108388D01*
X220410Y108224D01*
X220453Y108060D01*
X220464Y108038D01*
X220475Y107995D01*
X220508Y107907D01*
X220552Y107809D01*
X220595Y107700D01*
X220661Y107569D01*
X220738Y107448D01*
X220814Y107328D01*
X220825Y107317D01*
X220858Y107284D01*
X220912Y107230D01*
X220978Y107164D01*
X221065Y107088D01*
X221164Y107011D01*
X221273Y106946D01*
X221393Y106880D01*
X221404Y106869D01*
X221448Y106858D01*
X221525Y106836D01*
X221612Y106803D01*
X221721Y106771D01*
X221852Y106749D01*
X221984Y106738D01*
X222136Y106727D01*
X222224D01*
X222333Y106738D01*
X222453Y106760D01*
X222606Y106792D01*
X222760Y106836D01*
X222913Y106891D01*
X223066Y106978D01*
X223088Y106989D01*
X223131Y107022D01*
X223208Y107088D01*
X223306Y107164D01*
X223404Y107273D01*
X223525Y107405D01*
X223645Y107569D01*
X223765Y107743D01*
X223776Y107754D01*
X223798Y107798D01*
X223831Y107853D01*
X223874Y107918D01*
X223984Y108071D01*
X224049Y108148D01*
X224115Y108213D01*
X224126Y108224D01*
X224148Y108246D01*
X224191Y108268D01*
X224246Y108301D01*
X224312Y108334D01*
X224399Y108366D01*
X224486Y108377D01*
X224585Y108388D01*
X224640D01*
X224705Y108377D01*
X224782Y108355D01*
X224869Y108323D01*
X224967Y108279D01*
X225055Y108224D01*
X225142Y108137D01*
X225153Y108126D01*
X225175Y108093D01*
X225208Y108038D01*
X225252Y107973D01*
X225295Y107896D01*
X225328Y107809D01*
X225350Y107711D01*
X225361Y107601D01*
Y107590D01*
Y107547D01*
X225350Y107470D01*
X225339Y107383D01*
X225306Y107273D01*
X225273Y107153D01*
X225219Y107022D01*
X225153Y106880D01*
X225142Y106858D01*
X225120Y106814D01*
X225066Y106738D01*
X225000Y106650D01*
X224913Y106530D01*
X224814Y106410D01*
X224683Y106279D01*
X224541Y106148D01*
X224519Y106137D01*
X224465Y106093D01*
X224377Y106027D01*
X224257Y105951D01*
X224104Y105863D01*
X223929Y105765D01*
X223721Y105678D01*
X223492Y105590D01*
X223481D01*
X223459Y105579D01*
X223426Y105568D01*
X223383Y105557D01*
X223328Y105546D01*
X223251Y105525D01*
X223077Y105492D01*
X222869Y105448D01*
X222628Y105415D01*
X222366Y105393D01*
X222071Y105383D01*
X221994D01*
X221907Y105393D01*
X221798D01*
X221656Y105415D01*
X221492Y105437D01*
X221317Y105459D01*
X221120Y105503D01*
X220912Y105557D01*
X220694Y105623D01*
X220486Y105700D01*
X220268Y105798D01*
X220049Y105907D01*
X219841Y106038D01*
X219644Y106180D01*
X219459Y106355D01*
X219448Y106366D01*
X219415Y106399D01*
X219371Y106454D01*
X219317Y106530D01*
X219240Y106629D01*
X219164Y106749D01*
X219076Y106891D01*
X218989Y107055D01*
X218901Y107230D01*
X218814Y107426D01*
X218737Y107645D01*
X218661Y107875D01*
X218606Y108126D01*
X218562Y108399D01*
X218530Y108683D01*
X218519Y108978D01*
Y108989D01*
Y109033D01*
Y109088D01*
X218530Y109164D01*
Y109263D01*
X218541Y109372D01*
X218551Y109503D01*
X218573Y109645D01*
X218628Y109951D01*
X218694Y110279D01*
X218803Y110618D01*
X218945Y110946D01*
Y110957D01*
X218967Y110990D01*
X218989Y111033D01*
X219022Y111088D01*
X219065Y111164D01*
X219120Y111241D01*
X219262Y111438D01*
X219437Y111656D01*
X219644Y111875D01*
X219896Y112083D01*
X220180Y112279D01*
X220191Y112290D01*
X220213Y112301D01*
X220268Y112323D01*
X220322Y112356D01*
X220410Y112389D01*
X220497Y112432D01*
X220606Y112476D01*
X220738Y112520D01*
X220869Y112564D01*
X221022Y112596D01*
X221175Y112640D01*
X221350Y112673D01*
X221721Y112727D01*
X221929Y112749D01*
X222257D01*
X222322Y112738D01*
D02*
G37*
G36*
X176471Y112727D02*
X176558Y112706D01*
X176668Y112673D01*
X176777Y112618D01*
X176875Y112553D01*
X176974Y112465D01*
X176985Y112454D01*
X177017Y112410D01*
X177050Y112356D01*
X177105Y112258D01*
X177149Y112148D01*
X177181Y112006D01*
X177214Y111842D01*
X177225Y111656D01*
Y106399D01*
Y106388D01*
Y106377D01*
Y106312D01*
X177214Y106224D01*
X177192Y106115D01*
X177171Y105984D01*
X177127Y105852D01*
X177061Y105732D01*
X176985Y105623D01*
X176974Y105612D01*
X176941Y105579D01*
X176886Y105546D01*
X176821Y105503D01*
X176733Y105448D01*
X176624Y105415D01*
X176504Y105383D01*
X176373Y105372D01*
X176307D01*
X176242Y105383D01*
X176154Y105404D01*
X176056Y105437D01*
X175957Y105481D01*
X175859Y105546D01*
X175761Y105634D01*
X175750Y105645D01*
X175728Y105678D01*
X175684Y105743D01*
X175640Y105831D01*
X175597Y105929D01*
X175553Y106060D01*
X175531Y106213D01*
X175520Y106388D01*
Y106618D01*
X175509Y106596D01*
X175466Y106552D01*
X175400Y106475D01*
X175312Y106377D01*
X175203Y106268D01*
X175094Y106148D01*
X174963Y106027D01*
X174831Y105918D01*
X174821Y105907D01*
X174766Y105874D01*
X174700Y105820D01*
X174602Y105765D01*
X174493Y105700D01*
X174362Y105634D01*
X174208Y105568D01*
X174056Y105514D01*
X174034D01*
X173979Y105492D01*
X173891Y105470D01*
X173771Y105448D01*
X173629Y105426D01*
X173465Y105404D01*
X173279Y105393D01*
X173083Y105383D01*
X172973D01*
X172853Y105393D01*
X172689Y105415D01*
X172503Y105448D01*
X172307Y105492D01*
X172099Y105557D01*
X171902Y105645D01*
X171891D01*
X171880Y105656D01*
X171815Y105700D01*
X171727Y105754D01*
X171607Y105842D01*
X171487Y105951D01*
X171345Y106082D01*
X171225Y106224D01*
X171104Y106399D01*
Y106410D01*
X171093Y106432D01*
X171072Y106465D01*
X171050Y106508D01*
X171028Y106563D01*
X170995Y106640D01*
X170962Y106727D01*
X170940Y106825D01*
X170908Y106935D01*
X170875Y107055D01*
X170842Y107197D01*
X170820Y107350D01*
X170798Y107503D01*
X170776Y107678D01*
X170766Y107864D01*
Y108060D01*
Y111645D01*
Y111656D01*
Y111667D01*
Y111733D01*
X170776Y111831D01*
X170798Y111951D01*
X170820Y112083D01*
X170864Y112225D01*
X170930Y112356D01*
X171006Y112465D01*
X171017Y112476D01*
X171050Y112509D01*
X171104Y112553D01*
X171181Y112607D01*
X171279Y112651D01*
X171389Y112695D01*
X171520Y112727D01*
X171662Y112738D01*
X171727D01*
X171804Y112727D01*
X171891Y112706D01*
X172001Y112673D01*
X172110Y112618D01*
X172219Y112553D01*
X172318Y112465D01*
X172328Y112454D01*
X172361Y112410D01*
X172405Y112345D01*
X172449Y112258D01*
X172493Y112148D01*
X172536Y112006D01*
X172569Y111842D01*
X172580Y111645D01*
Y108749D01*
Y108738D01*
Y108716D01*
Y108683D01*
Y108640D01*
X172591Y108530D01*
Y108377D01*
X172602Y108213D01*
X172624Y108038D01*
X172645Y107853D01*
X172678Y107689D01*
X172689Y107667D01*
X172700Y107623D01*
X172733Y107547D01*
X172766Y107448D01*
X172820Y107339D01*
X172886Y107230D01*
X172962Y107120D01*
X173061Y107022D01*
X173072Y107011D01*
X173116Y106989D01*
X173170Y106946D01*
X173258Y106902D01*
X173367Y106858D01*
X173487Y106814D01*
X173640Y106792D01*
X173804Y106781D01*
X173881D01*
X173968Y106792D01*
X174088Y106814D01*
X174219Y106847D01*
X174362Y106891D01*
X174514Y106956D01*
X174668Y107044D01*
X174689Y107055D01*
X174733Y107098D01*
X174810Y107153D01*
X174897Y107241D01*
X174996Y107339D01*
X175094Y107459D01*
X175192Y107601D01*
X175269Y107754D01*
X175280Y107776D01*
Y107798D01*
X175291Y107842D01*
X175302Y107886D01*
X175312Y107951D01*
X175334Y108028D01*
X175345Y108115D01*
X175356Y108224D01*
X175378Y108344D01*
X175389Y108476D01*
X175400Y108640D01*
X175411Y108815D01*
Y109000D01*
X175422Y109219D01*
Y109449D01*
Y111645D01*
Y111656D01*
Y111667D01*
Y111733D01*
X175433Y111831D01*
X175454Y111951D01*
X175487Y112083D01*
X175531Y112225D01*
X175586Y112356D01*
X175673Y112465D01*
X175684Y112476D01*
X175717Y112509D01*
X175771Y112553D01*
X175848Y112607D01*
X175946Y112651D01*
X176056Y112695D01*
X176187Y112727D01*
X176329Y112738D01*
X176394D01*
X176471Y112727D01*
D02*
G37*
G36*
X247046Y112738D02*
X247144D01*
X247243Y112727D01*
X247363Y112717D01*
X247494Y112695D01*
X247778Y112640D01*
X248084Y112564D01*
X248390Y112454D01*
X248686Y112301D01*
X248696D01*
X248718Y112279D01*
X248762Y112258D01*
X248817Y112225D01*
X248871Y112181D01*
X248948Y112126D01*
X249112Y111984D01*
X249298Y111820D01*
X249494Y111624D01*
X249669Y111394D01*
X249833Y111143D01*
Y111132D01*
X249855Y111110D01*
X249866Y111077D01*
X249899Y111022D01*
X249921Y110957D01*
X249953Y110880D01*
X250030Y110695D01*
X250096Y110476D01*
X250161Y110235D01*
X250205Y109962D01*
X250216Y109689D01*
Y109678D01*
Y109656D01*
Y109623D01*
X250205Y109580D01*
X250194Y109459D01*
X250172Y109328D01*
X250117Y109175D01*
X250052Y109033D01*
X249953Y108902D01*
X249888Y108847D01*
X249822Y108804D01*
X249800Y108793D01*
X249746Y108771D01*
X249658Y108738D01*
X249538Y108705D01*
X249385Y108672D01*
X249188Y108640D01*
X248970Y108618D01*
X248718Y108607D01*
X245177D01*
Y108596D01*
Y108574D01*
Y108541D01*
Y108498D01*
X245188Y108388D01*
X245210Y108235D01*
X245232Y108071D01*
X245275Y107886D01*
X245341Y107700D01*
X245417Y107514D01*
X245428Y107492D01*
X245461Y107437D01*
X245516Y107350D01*
X245592Y107252D01*
X245680Y107131D01*
X245789Y107011D01*
X245920Y106902D01*
X246062Y106803D01*
X246084Y106792D01*
X246139Y106771D01*
X246215Y106727D01*
X246325Y106694D01*
X246456Y106650D01*
X246609Y106607D01*
X246773Y106585D01*
X246948Y106574D01*
X247068D01*
X247144Y106585D01*
X247232D01*
X247330Y106607D01*
X247538Y106640D01*
X247549D01*
X247582Y106650D01*
X247636Y106672D01*
X247702Y106694D01*
X247789Y106727D01*
X247877Y106771D01*
X248062Y106880D01*
X248073Y106891D01*
X248106Y106913D01*
X248150Y106946D01*
X248216Y106989D01*
X248358Y107098D01*
X248522Y107230D01*
X248533Y107241D01*
X248565Y107263D01*
X248609Y107306D01*
X248675Y107361D01*
X248751Y107437D01*
X248850Y107525D01*
X248959Y107623D01*
X249079Y107732D01*
X249090Y107743D01*
X249101Y107754D01*
X249134Y107776D01*
X249188Y107798D01*
X249243Y107820D01*
X249308Y107831D01*
X249396Y107853D01*
X249527D01*
X249582Y107842D01*
X249647Y107831D01*
X249789Y107787D01*
X249866Y107754D01*
X249932Y107700D01*
X249942Y107689D01*
X249964Y107667D01*
X249986Y107634D01*
X250019Y107590D01*
X250052Y107525D01*
X250085Y107459D01*
X250096Y107372D01*
X250106Y107273D01*
Y107263D01*
Y107230D01*
X250096Y107175D01*
X250085Y107109D01*
X250063Y107022D01*
X250019Y106924D01*
X249975Y106814D01*
X249910Y106694D01*
X249899Y106683D01*
X249877Y106640D01*
X249833Y106574D01*
X249768Y106497D01*
X249691Y106399D01*
X249593Y106290D01*
X249472Y106180D01*
X249330Y106060D01*
X249308Y106049D01*
X249265Y106017D01*
X249177Y105962D01*
X249068Y105885D01*
X248926Y105809D01*
X248762Y105732D01*
X248565Y105645D01*
X248358Y105568D01*
X248347D01*
X248336Y105557D01*
X248303Y105546D01*
X248259Y105535D01*
X248194Y105525D01*
X248128Y105503D01*
X247964Y105470D01*
X247767Y105437D01*
X247538Y105404D01*
X247276Y105383D01*
X247002Y105372D01*
X246926D01*
X246838Y105383D01*
X246718D01*
X246565Y105404D01*
X246401Y105426D01*
X246215Y105459D01*
X246008Y105492D01*
X245789Y105546D01*
X245570Y105612D01*
X245352Y105700D01*
X245122Y105787D01*
X244904Y105907D01*
X244685Y106038D01*
X244478Y106191D01*
X244292Y106366D01*
X244281Y106377D01*
X244248Y106410D01*
X244204Y106465D01*
X244139Y106552D01*
X244073Y106650D01*
X243986Y106771D01*
X243898Y106913D01*
X243811Y107077D01*
X243723Y107263D01*
X243636Y107459D01*
X243548Y107689D01*
X243483Y107929D01*
X243417Y108181D01*
X243373Y108465D01*
X243341Y108760D01*
X243330Y109066D01*
Y109077D01*
Y109099D01*
Y109142D01*
Y109197D01*
X243341Y109274D01*
Y109350D01*
X243363Y109547D01*
X243385Y109776D01*
X243428Y110028D01*
X243483Y110290D01*
X243559Y110552D01*
Y110563D01*
X243570Y110585D01*
X243581Y110618D01*
X243603Y110673D01*
X243625Y110727D01*
X243658Y110793D01*
X243734Y110957D01*
X243833Y111143D01*
X243953Y111339D01*
X244095Y111536D01*
X244259Y111733D01*
X244270Y111744D01*
X244281Y111755D01*
X244346Y111809D01*
X244445Y111908D01*
X244576Y112017D01*
X244740Y112137D01*
X244926Y112258D01*
X245144Y112378D01*
X245385Y112487D01*
X245396D01*
X245417Y112498D01*
X245450Y112509D01*
X245505Y112531D01*
X245560Y112553D01*
X245636Y112575D01*
X245724Y112596D01*
X245822Y112618D01*
X246041Y112662D01*
X246292Y112706D01*
X246576Y112738D01*
X246871Y112749D01*
X246970D01*
X247046Y112738D01*
D02*
G37*
G36*
X236094Y112727D02*
X236182Y112706D01*
X236280Y112673D01*
X236389Y112629D01*
X236488Y112564D01*
X236586Y112476D01*
X236597Y112465D01*
X236630Y112432D01*
X236663Y112367D01*
X236717Y112279D01*
X236761Y112181D01*
X236794Y112050D01*
X236826Y111897D01*
X236837Y111722D01*
Y111492D01*
X236848Y111503D01*
X236859Y111525D01*
X236892Y111558D01*
X236925Y111602D01*
X237023Y111711D01*
X237154Y111842D01*
X237318Y111995D01*
X237493Y112148D01*
X237690Y112301D01*
X237887Y112421D01*
X237898D01*
X237909Y112432D01*
X237941Y112454D01*
X237985Y112465D01*
X238105Y112520D01*
X238258Y112575D01*
X238444Y112629D01*
X238652Y112684D01*
X238892Y112716D01*
X239144Y112727D01*
X239220D01*
X239286Y112717D01*
X239362D01*
X239439Y112706D01*
X239537Y112695D01*
X239646Y112673D01*
X239887Y112618D01*
X240138Y112542D01*
X240411Y112432D01*
X240674Y112290D01*
X240685D01*
X240707Y112268D01*
X240739Y112247D01*
X240794Y112214D01*
X240925Y112115D01*
X241078Y111973D01*
X241253Y111798D01*
X241439Y111580D01*
X241625Y111328D01*
X241789Y111033D01*
Y111022D01*
X241811Y111001D01*
X241832Y110946D01*
X241854Y110891D01*
X241887Y110804D01*
X241920Y110716D01*
X241953Y110596D01*
X241996Y110476D01*
X242040Y110334D01*
X242073Y110192D01*
X242106Y110028D01*
X242139Y109853D01*
X242182Y109481D01*
X242204Y109066D01*
Y109055D01*
Y109033D01*
Y108989D01*
Y108924D01*
X242193Y108847D01*
Y108760D01*
X242182Y108661D01*
X242171Y108563D01*
X242149Y108323D01*
X242106Y108060D01*
X242040Y107787D01*
X241964Y107525D01*
Y107514D01*
X241953Y107492D01*
X241942Y107459D01*
X241920Y107405D01*
X241898Y107350D01*
X241865Y107273D01*
X241789Y107120D01*
X241701Y106935D01*
X241581Y106727D01*
X241461Y106530D01*
X241308Y106344D01*
X241286Y106323D01*
X241231Y106268D01*
X241155Y106180D01*
X241035Y106082D01*
X240892Y105962D01*
X240728Y105842D01*
X240543Y105721D01*
X240346Y105623D01*
X240335D01*
X240324Y105612D01*
X240291Y105601D01*
X240248Y105579D01*
X240138Y105546D01*
X239985Y105503D01*
X239810Y105448D01*
X239603Y105415D01*
X239384Y105383D01*
X239144Y105372D01*
X239013Y105372D01*
X238947Y105383D01*
X238870Y105393D01*
X238685Y105415D01*
X238488Y105448D01*
X238258Y105503D01*
X238040Y105579D01*
X237832Y105678D01*
X237821D01*
X237810Y105689D01*
X237745Y105732D01*
X237646Y105809D01*
X237515Y105907D01*
X237362Y106038D01*
X237187Y106202D01*
X237012Y106388D01*
X236837Y106596D01*
Y103885D01*
Y103874D01*
Y103830D01*
Y103776D01*
X236826Y103699D01*
X236816Y103612D01*
X236794Y103503D01*
X236728Y103284D01*
X236684Y103175D01*
X236630Y103065D01*
X236553Y102967D01*
X236466Y102869D01*
X236367Y102792D01*
X236247Y102737D01*
X236116Y102694D01*
X235963Y102683D01*
X235876D01*
X235788Y102705D01*
X235690Y102726D01*
X235570Y102759D01*
X235460Y102814D01*
X235362Y102891D01*
X235285Y103000D01*
X235274Y103011D01*
X235263Y103054D01*
X235231Y103131D01*
X235209Y103229D01*
X235176Y103349D01*
X235143Y103503D01*
X235132Y103688D01*
X235121Y103896D01*
Y111711D01*
Y111722D01*
Y111733D01*
Y111798D01*
X235132Y111886D01*
X235154Y111995D01*
X235176Y112126D01*
X235209Y112247D01*
X235263Y112367D01*
X235340Y112476D01*
X235351Y112487D01*
X235384Y112520D01*
X235438Y112564D01*
X235504Y112607D01*
X235591Y112651D01*
X235701Y112695D01*
X235821Y112727D01*
X235963Y112738D01*
X236029D01*
X236094Y112727D01*
D02*
G37*
G36*
X230312D02*
X230400D01*
X230596Y112706D01*
X230826Y112673D01*
X231077Y112618D01*
X231340Y112553D01*
X231591Y112465D01*
X231602D01*
X231624Y112454D01*
X231657Y112443D01*
X231700Y112421D01*
X231832Y112356D01*
X231984Y112268D01*
X232170Y112170D01*
X232356Y112039D01*
X232553Y111886D01*
X232739Y111711D01*
X232750D01*
X232761Y111689D01*
X232815Y111624D01*
X232903Y111525D01*
X233012Y111383D01*
X233132Y111208D01*
X233252Y111012D01*
X233373Y110782D01*
X233471Y110541D01*
Y110530D01*
X233482Y110509D01*
X233493Y110476D01*
X233515Y110421D01*
X233526Y110356D01*
X233547Y110279D01*
X233569Y110203D01*
X233602Y110104D01*
X233646Y109875D01*
X233679Y109623D01*
X233711Y109339D01*
X233722Y109044D01*
Y109033D01*
Y109011D01*
Y108968D01*
Y108902D01*
X233711Y108836D01*
Y108749D01*
X233690Y108552D01*
X233657Y108323D01*
X233613Y108071D01*
X233547Y107809D01*
X233460Y107547D01*
Y107536D01*
X233449Y107514D01*
X233438Y107481D01*
X233416Y107437D01*
X233351Y107306D01*
X233274Y107142D01*
X233176Y106967D01*
X233045Y106771D01*
X232903Y106574D01*
X232728Y106377D01*
X232706Y106355D01*
X232640Y106301D01*
X232542Y106213D01*
X232411Y106104D01*
X232247Y105973D01*
X232050Y105852D01*
X231832Y105732D01*
X231591Y105623D01*
X231580D01*
X231558Y105612D01*
X231525Y105601D01*
X231471Y105579D01*
X231416Y105568D01*
X231340Y105546D01*
X231252Y105525D01*
X231154Y105503D01*
X230935Y105448D01*
X230684Y105415D01*
X230400Y105383D01*
X230104Y105372D01*
X229962D01*
X229897Y105383D01*
X229809D01*
X229613Y105404D01*
X229372Y105437D01*
X229132Y105481D01*
X228869Y105546D01*
X228618Y105634D01*
X228607D01*
X228585Y105645D01*
X228553Y105667D01*
X228509Y105678D01*
X228389Y105743D01*
X228236Y105831D01*
X228050Y105929D01*
X227864Y106060D01*
X227667Y106213D01*
X227481Y106388D01*
Y106399D01*
X227460Y106410D01*
X227405Y106475D01*
X227317Y106585D01*
X227208Y106727D01*
X227088Y106891D01*
X226968Y107098D01*
X226858Y107317D01*
X226749Y107558D01*
Y107569D01*
X226738Y107590D01*
X226727Y107623D01*
X226716Y107678D01*
X226694Y107743D01*
X226673Y107820D01*
X226651Y107907D01*
X226629Y107995D01*
X226585Y108224D01*
X226541Y108476D01*
X226519Y108760D01*
X226509Y109055D01*
Y109066D01*
Y109088D01*
Y109132D01*
Y109197D01*
X226519Y109263D01*
Y109350D01*
X226541Y109547D01*
X226574Y109776D01*
X226618Y110028D01*
X226673Y110290D01*
X226760Y110552D01*
Y110563D01*
X226771Y110585D01*
X226782Y110618D01*
X226804Y110673D01*
X226869Y110793D01*
X226946Y110957D01*
X227044Y111143D01*
X227175Y111339D01*
X227317Y111536D01*
X227481Y111722D01*
X227492Y111733D01*
X227503Y111744D01*
X227569Y111798D01*
X227667Y111897D01*
X227798Y112006D01*
X227962Y112126D01*
X228159Y112247D01*
X228378Y112367D01*
X228618Y112476D01*
X228629D01*
X228651Y112487D01*
X228684Y112498D01*
X228738Y112520D01*
X228804Y112542D01*
X228880Y112564D01*
X228957Y112585D01*
X229055Y112607D01*
X229274Y112651D01*
X229536Y112695D01*
X229809Y112727D01*
X230104Y112738D01*
X230247D01*
X230312Y112727D01*
D02*
G37*
G36*
X199140Y112738D02*
X199238D01*
X199337Y112727D01*
X199457Y112716D01*
X199588Y112695D01*
X199872Y112640D01*
X200178Y112564D01*
X200484Y112454D01*
X200779Y112301D01*
X200790D01*
X200812Y112279D01*
X200856Y112258D01*
X200910Y112225D01*
X200965Y112181D01*
X201042Y112126D01*
X201206Y111984D01*
X201391Y111820D01*
X201588Y111624D01*
X201763Y111394D01*
X201927Y111143D01*
Y111132D01*
X201949Y111110D01*
X201960Y111077D01*
X201993Y111022D01*
X202014Y110957D01*
X202047Y110880D01*
X202124Y110695D01*
X202189Y110476D01*
X202255Y110235D01*
X202299Y109962D01*
X202309Y109689D01*
Y109678D01*
Y109656D01*
Y109623D01*
X202299Y109580D01*
X202288Y109459D01*
X202266Y109328D01*
X202211Y109175D01*
X202146Y109033D01*
X202047Y108902D01*
X201982Y108847D01*
X201916Y108804D01*
X201894Y108793D01*
X201839Y108771D01*
X201752Y108738D01*
X201632Y108705D01*
X201479Y108672D01*
X201282Y108640D01*
X201063Y108618D01*
X200812Y108607D01*
X197271D01*
Y108596D01*
Y108574D01*
Y108541D01*
Y108498D01*
X197282Y108388D01*
X197304Y108235D01*
X197326Y108071D01*
X197369Y107886D01*
X197435Y107700D01*
X197511Y107514D01*
X197522Y107492D01*
X197555Y107437D01*
X197610Y107350D01*
X197686Y107252D01*
X197774Y107131D01*
X197883Y107011D01*
X198014Y106902D01*
X198156Y106803D01*
X198178Y106792D01*
X198233Y106771D01*
X198309Y106727D01*
X198418Y106694D01*
X198550Y106650D01*
X198703Y106607D01*
X198867Y106585D01*
X199041Y106574D01*
X199162D01*
X199238Y106585D01*
X199326D01*
X199424Y106607D01*
X199632Y106640D01*
X199643D01*
X199675Y106650D01*
X199730Y106672D01*
X199796Y106694D01*
X199883Y106727D01*
X199970Y106771D01*
X200156Y106880D01*
X200167Y106891D01*
X200200Y106913D01*
X200244Y106946D01*
X200309Y106989D01*
X200451Y107098D01*
X200615Y107230D01*
X200626Y107241D01*
X200659Y107263D01*
X200703Y107306D01*
X200768Y107361D01*
X200845Y107437D01*
X200943Y107525D01*
X201053Y107623D01*
X201173Y107732D01*
X201184Y107743D01*
X201195Y107754D01*
X201227Y107776D01*
X201282Y107798D01*
X201337Y107820D01*
X201402Y107831D01*
X201490Y107853D01*
X201621D01*
X201676Y107842D01*
X201741Y107831D01*
X201883Y107787D01*
X201960Y107754D01*
X202025Y107700D01*
X202036Y107689D01*
X202058Y107667D01*
X202080Y107634D01*
X202113Y107590D01*
X202146Y107525D01*
X202178Y107459D01*
X202189Y107372D01*
X202200Y107273D01*
Y107263D01*
Y107230D01*
X202189Y107175D01*
X202178Y107109D01*
X202156Y107022D01*
X202113Y106924D01*
X202069Y106814D01*
X202004Y106694D01*
X201993Y106683D01*
X201971Y106640D01*
X201927Y106574D01*
X201861Y106497D01*
X201785Y106399D01*
X201687Y106290D01*
X201566Y106180D01*
X201424Y106060D01*
X201402Y106049D01*
X201359Y106017D01*
X201271Y105962D01*
X201162Y105885D01*
X201020Y105809D01*
X200856Y105732D01*
X200659Y105645D01*
X200451Y105568D01*
X200441D01*
X200430Y105557D01*
X200397Y105546D01*
X200353Y105535D01*
X200288Y105525D01*
X200222Y105503D01*
X200058Y105470D01*
X199861Y105437D01*
X199632Y105404D01*
X199369Y105383D01*
X199096Y105372D01*
X199020D01*
X198932Y105383D01*
X198812D01*
X198659Y105404D01*
X198495Y105426D01*
X198309Y105459D01*
X198101Y105492D01*
X197883Y105546D01*
X197664Y105612D01*
X197446Y105700D01*
X197216Y105787D01*
X196998Y105907D01*
X196779Y106038D01*
X196571Y106191D01*
X196386Y106366D01*
X196374Y106377D01*
X196342Y106410D01*
X196298Y106465D01*
X196232Y106552D01*
X196167Y106650D01*
X196079Y106771D01*
X195992Y106913D01*
X195905Y107077D01*
X195817Y107263D01*
X195730Y107459D01*
X195642Y107689D01*
X195577Y107929D01*
X195511Y108181D01*
X195467Y108465D01*
X195435Y108760D01*
X195424Y109066D01*
Y109077D01*
Y109099D01*
Y109142D01*
Y109197D01*
X195435Y109274D01*
Y109350D01*
X195456Y109547D01*
X195478Y109776D01*
X195522Y110028D01*
X195577Y110290D01*
X195653Y110552D01*
Y110563D01*
X195664Y110585D01*
X195675Y110618D01*
X195697Y110673D01*
X195719Y110727D01*
X195752Y110793D01*
X195828Y110957D01*
X195926Y111143D01*
X196047Y111339D01*
X196189Y111536D01*
X196353Y111733D01*
X196364Y111744D01*
X196374Y111755D01*
X196440Y111809D01*
X196538Y111908D01*
X196670Y112017D01*
X196834Y112137D01*
X197019Y112258D01*
X197238Y112378D01*
X197478Y112487D01*
X197489D01*
X197511Y112498D01*
X197544Y112509D01*
X197599Y112531D01*
X197653Y112553D01*
X197730Y112575D01*
X197817Y112596D01*
X197916Y112618D01*
X198134Y112662D01*
X198386Y112706D01*
X198670Y112738D01*
X198965Y112749D01*
X199063D01*
X199140Y112738D01*
D02*
G37*
G36*
X163606Y115427D02*
X163694Y115405D01*
X163803Y115373D01*
X163912Y115318D01*
X164022Y115252D01*
X164120Y115154D01*
X164131Y115143D01*
X164164Y115099D01*
X164197Y115034D01*
X164251Y114946D01*
X164295Y114826D01*
X164328Y114684D01*
X164361Y114520D01*
X164372Y114334D01*
Y111635D01*
X164382Y111656D01*
X164426Y111700D01*
X164492Y111776D01*
X164579Y111864D01*
X164689Y111962D01*
X164798Y112072D01*
X164918Y112181D01*
X165038Y112268D01*
X165049Y112279D01*
X165093Y112301D01*
X165158Y112345D01*
X165257Y112400D01*
X165355Y112454D01*
X165486Y112509D01*
X165618Y112564D01*
X165760Y112618D01*
X165781Y112629D01*
X165825Y112640D01*
X165913Y112662D01*
X166022Y112684D01*
X166153Y112706D01*
X166295Y112716D01*
X166459Y112738D01*
X166743D01*
X166798Y112727D01*
X166875D01*
X167038Y112706D01*
X167224Y112662D01*
X167432Y112618D01*
X167640Y112542D01*
X167847Y112443D01*
X167858D01*
X167869Y112432D01*
X167935Y112389D01*
X168033Y112323D01*
X168153Y112225D01*
X168284Y112104D01*
X168427Y111962D01*
X168569Y111787D01*
X168689Y111591D01*
X168700Y111580D01*
X168722Y111536D01*
X168754Y111470D01*
X168787Y111372D01*
X168831Y111263D01*
X168875Y111143D01*
X168907Y111011D01*
X168940Y110858D01*
Y110837D01*
X168951Y110793D01*
X168962Y110705D01*
X168984Y110596D01*
X168995Y110465D01*
X169006Y110301D01*
X169017Y110126D01*
Y109940D01*
Y106465D01*
Y106454D01*
Y106443D01*
Y106377D01*
X169006Y106279D01*
X168984Y106158D01*
X168951Y106027D01*
X168907Y105896D01*
X168853Y105765D01*
X168765Y105645D01*
X168754Y105634D01*
X168722Y105601D01*
X168667Y105557D01*
X168590Y105514D01*
X168492Y105459D01*
X168383Y105415D01*
X168252Y105383D01*
X168099Y105372D01*
X168066D01*
X168022Y105383D01*
X167956Y105393D01*
X167815Y105426D01*
X167738Y105459D01*
X167661Y105514D01*
X167574Y105568D01*
X167498Y105634D01*
X167421Y105732D01*
X167355Y105831D01*
X167301Y105962D01*
X167257Y106104D01*
X167224Y106268D01*
X167213Y106465D01*
Y109525D01*
Y109536D01*
Y109569D01*
Y109612D01*
Y109667D01*
X167202Y109744D01*
Y109831D01*
X167181Y110017D01*
X167148Y110235D01*
X167104Y110465D01*
X167038Y110673D01*
X166951Y110869D01*
Y110880D01*
X166940Y110891D01*
X166896Y110946D01*
X166831Y111022D01*
X166732Y111110D01*
X166601Y111186D01*
X166426Y111263D01*
X166219Y111318D01*
X166098Y111339D01*
X165891D01*
X165792Y111328D01*
X165683Y111307D01*
X165541Y111274D01*
X165399Y111219D01*
X165246Y111153D01*
X165093Y111055D01*
X165071Y111044D01*
X165027Y111001D01*
X164962Y110946D01*
X164874Y110858D01*
X164776Y110749D01*
X164678Y110618D01*
X164590Y110476D01*
X164514Y110301D01*
X164503Y110279D01*
X164492Y110224D01*
X164481Y110181D01*
X164470Y110115D01*
X164459Y110050D01*
X164448Y109973D01*
X164426Y109875D01*
X164415Y109776D01*
X164404Y109656D01*
X164393Y109525D01*
X164382Y109383D01*
Y109230D01*
X164372Y109055D01*
Y108869D01*
Y106465D01*
Y106454D01*
Y106443D01*
Y106377D01*
X164361Y106279D01*
X164339Y106158D01*
X164306Y106027D01*
X164262Y105896D01*
X164207Y105765D01*
X164120Y105645D01*
X164109Y105634D01*
X164076Y105601D01*
X164022Y105557D01*
X163945Y105514D01*
X163847Y105459D01*
X163738Y105415D01*
X163606Y105383D01*
X163453Y105372D01*
X163421D01*
X163366Y105383D01*
X163311Y105393D01*
X163169Y105426D01*
X163093Y105459D01*
X163005Y105514D01*
X162918Y105568D01*
X162841Y105634D01*
X162765Y105732D01*
X162699Y105831D01*
X162645Y105962D01*
X162601Y106104D01*
X162568Y106268D01*
X162557Y106465D01*
Y114334D01*
Y114345D01*
Y114356D01*
Y114422D01*
X162568Y114520D01*
X162590Y114640D01*
X162612Y114771D01*
X162655Y114913D01*
X162710Y115045D01*
X162787Y115154D01*
X162798Y115165D01*
X162830Y115198D01*
X162885Y115241D01*
X162961Y115296D01*
X163060Y115351D01*
X163169Y115394D01*
X163300Y115427D01*
X163453Y115438D01*
X163519D01*
X163606Y115427D01*
D02*
G37*
G36*
X160710Y115252D02*
X160819Y115230D01*
X160950Y115209D01*
X161071Y115165D01*
X161191Y115110D01*
X161300Y115034D01*
X161311Y115023D01*
X161344Y114990D01*
X161377Y114946D01*
X161431Y114870D01*
X161475Y114793D01*
X161508Y114684D01*
X161541Y114575D01*
X161552Y114444D01*
Y114433D01*
Y114378D01*
X161541Y114312D01*
X161519Y114236D01*
X161486Y114137D01*
X161442Y114039D01*
X161377Y113941D01*
X161289Y113853D01*
X161278Y113842D01*
X161246Y113821D01*
X161180Y113788D01*
X161103Y113744D01*
X160994Y113700D01*
X160863Y113667D01*
X160710Y113646D01*
X160535Y113635D01*
X158393D01*
Y106563D01*
Y106552D01*
Y106541D01*
Y106508D01*
Y106465D01*
X158382Y106355D01*
X158360Y106224D01*
X158327Y106082D01*
X158273Y105929D01*
X158207Y105787D01*
X158119Y105667D01*
X158109Y105656D01*
X158076Y105623D01*
X158010Y105568D01*
X157934Y105525D01*
X157824Y105470D01*
X157704Y105415D01*
X157562Y105383D01*
X157409Y105372D01*
X157333D01*
X157256Y105383D01*
X157158Y105404D01*
X157048Y105448D01*
X156928Y105492D01*
X156808Y105568D01*
X156699Y105667D01*
X156688Y105678D01*
X156655Y105721D01*
X156611Y105787D01*
X156568Y105885D01*
X156513Y106016D01*
X156469Y106169D01*
X156436Y106355D01*
X156425Y106563D01*
Y113635D01*
X154185D01*
X154097Y113646D01*
X153988Y113667D01*
X153868Y113689D01*
X153747Y113722D01*
X153627Y113777D01*
X153518Y113853D01*
X153507Y113864D01*
X153485Y113897D01*
X153442Y113941D01*
X153398Y114006D01*
X153354Y114094D01*
X153310Y114192D01*
X153288Y114312D01*
X153278Y114444D01*
Y114465D01*
Y114509D01*
X153288Y114575D01*
X153310Y114662D01*
X153343Y114750D01*
X153387Y114848D01*
X153442Y114946D01*
X153529Y115034D01*
X153540Y115045D01*
X153573Y115067D01*
X153638Y115110D01*
X153715Y115154D01*
X153824Y115187D01*
X153944Y115230D01*
X154097Y115252D01*
X154272Y115263D01*
X160623D01*
X160710Y115252D01*
D02*
G37*
G36*
X214297Y11072D02*
X214341D01*
X214390Y11066D01*
X214450Y11061D01*
X214570Y11050D01*
X214701Y11028D01*
X214832Y11001D01*
X214957Y10963D01*
X214963D01*
X214974Y10957D01*
X214990Y10952D01*
X215012Y10941D01*
X215072Y10919D01*
X215149Y10886D01*
X215236Y10842D01*
X215323Y10793D01*
X215416Y10733D01*
X215498Y10668D01*
X215509Y10657D01*
X215536Y10635D01*
X215575Y10597D01*
X215618Y10548D01*
X215673Y10493D01*
X215722Y10428D01*
X215771Y10357D01*
X215815Y10280D01*
X215820Y10269D01*
X215831Y10247D01*
X215847Y10204D01*
X215869Y10155D01*
X215886Y10095D01*
X215902Y10029D01*
X215913Y9958D01*
X215918Y9887D01*
Y9882D01*
Y9860D01*
X215913Y9827D01*
X215902Y9783D01*
X215886Y9734D01*
X215864Y9680D01*
X215837Y9625D01*
X215793Y9570D01*
X215788Y9565D01*
X215771Y9549D01*
X215744Y9527D01*
X215706Y9499D01*
X215662Y9472D01*
X215607Y9450D01*
X215547Y9434D01*
X215482Y9428D01*
X215454D01*
X215422Y9434D01*
X215389Y9439D01*
X215345Y9450D01*
X215301Y9461D01*
X215263Y9483D01*
X215225Y9510D01*
X215220Y9516D01*
X215209Y9527D01*
X215192Y9549D01*
X215171Y9581D01*
X215138Y9619D01*
X215110Y9669D01*
X215072Y9723D01*
X215034Y9794D01*
Y9800D01*
X215029Y9805D01*
X215012Y9838D01*
X214985Y9887D01*
X214947Y9953D01*
X214897Y10018D01*
X214843Y10089D01*
X214783Y10160D01*
X214717Y10220D01*
X214706Y10226D01*
X214685Y10247D01*
X214635Y10269D01*
X214575Y10302D01*
X214488Y10329D01*
X214384Y10357D01*
X214264Y10373D01*
X214117Y10378D01*
X214051D01*
X214018Y10373D01*
X213986Y10368D01*
X213898Y10357D01*
X213800Y10335D01*
X213696Y10307D01*
X213593Y10264D01*
X213500Y10209D01*
X213489Y10204D01*
X213461Y10182D01*
X213429Y10144D01*
X213385Y10095D01*
X213341Y10035D01*
X213309Y9969D01*
X213281Y9893D01*
X213270Y9805D01*
Y9800D01*
Y9783D01*
X213276Y9751D01*
X213281Y9718D01*
X213303Y9636D01*
X213319Y9592D01*
X213347Y9549D01*
X213352Y9543D01*
X213363Y9532D01*
X213380Y9510D01*
X213407Y9488D01*
X213434Y9461D01*
X213472Y9428D01*
X213516Y9396D01*
X213565Y9368D01*
X213571Y9363D01*
X213593Y9357D01*
X213620Y9341D01*
X213653Y9325D01*
X213696Y9308D01*
X213745Y9286D01*
X213849Y9248D01*
X213855D01*
X213877Y9243D01*
X213909Y9232D01*
X213964Y9216D01*
X214024Y9199D01*
X214106Y9177D01*
X214204Y9150D01*
X214319Y9123D01*
X214324D01*
X214335Y9117D01*
X214357Y9112D01*
X214390Y9106D01*
X214428Y9095D01*
X214466Y9084D01*
X214570Y9063D01*
X214685Y9030D01*
X214810Y8992D01*
X214941Y8953D01*
X215067Y8910D01*
X215072D01*
X215083Y8904D01*
X215100Y8899D01*
X215121Y8888D01*
X215187Y8866D01*
X215263Y8833D01*
X215351Y8790D01*
X215443Y8740D01*
X215542Y8686D01*
X215629Y8626D01*
X215635D01*
X215640Y8620D01*
X215667Y8598D01*
X215711Y8560D01*
X215766Y8511D01*
X215820Y8451D01*
X215880Y8380D01*
X215940Y8298D01*
X215995Y8205D01*
Y8200D01*
X216000Y8194D01*
X216006Y8178D01*
X216017Y8162D01*
X216039Y8107D01*
X216066Y8036D01*
X216088Y7943D01*
X216110Y7840D01*
X216126Y7719D01*
X216131Y7588D01*
Y7583D01*
Y7566D01*
Y7545D01*
X216126Y7512D01*
Y7474D01*
X216121Y7430D01*
X216115Y7381D01*
X216104Y7321D01*
X216077Y7201D01*
X216033Y7064D01*
X215979Y6928D01*
X215902Y6791D01*
Y6786D01*
X215891Y6775D01*
X215880Y6758D01*
X215858Y6731D01*
X215809Y6671D01*
X215733Y6595D01*
X215640Y6502D01*
X215525Y6414D01*
X215389Y6327D01*
X215236Y6245D01*
X215230D01*
X215214Y6234D01*
X215192Y6229D01*
X215160Y6213D01*
X215116Y6202D01*
X215067Y6185D01*
X215007Y6163D01*
X214941Y6147D01*
X214870Y6131D01*
X214788Y6109D01*
X214706Y6092D01*
X214614Y6081D01*
X214417Y6060D01*
X214199Y6049D01*
X214128D01*
X214078Y6054D01*
X214018Y6060D01*
X213947Y6065D01*
X213865Y6070D01*
X213778Y6081D01*
X213685Y6098D01*
X213593Y6114D01*
X213390Y6163D01*
X213292Y6191D01*
X213194Y6229D01*
X213101Y6267D01*
X213008Y6316D01*
X213003D01*
X212992Y6327D01*
X212976Y6338D01*
X212954Y6354D01*
X212894Y6398D01*
X212817Y6458D01*
X212730Y6529D01*
X212643Y6622D01*
X212550Y6726D01*
X212468Y6840D01*
Y6846D01*
X212457Y6857D01*
X212451Y6873D01*
X212435Y6895D01*
X212419Y6928D01*
X212402Y6961D01*
X212364Y7042D01*
X212326Y7141D01*
X212293Y7244D01*
X212271Y7359D01*
X212260Y7474D01*
Y7479D01*
Y7507D01*
X212266Y7539D01*
X212277Y7577D01*
X212293Y7627D01*
X212315Y7681D01*
X212342Y7730D01*
X212386Y7779D01*
X212391Y7785D01*
X212408Y7801D01*
X212435Y7823D01*
X212473Y7845D01*
X212517Y7867D01*
X212572Y7889D01*
X212632Y7905D01*
X212703Y7910D01*
X212730D01*
X212757Y7905D01*
X212795Y7900D01*
X212834Y7883D01*
X212883Y7867D01*
X212926Y7840D01*
X212965Y7807D01*
X212970Y7801D01*
X212981Y7790D01*
X213003Y7763D01*
X213030Y7736D01*
X213057Y7692D01*
X213090Y7643D01*
X213123Y7583D01*
X213150Y7512D01*
X213156Y7501D01*
X213167Y7474D01*
X213183Y7430D01*
X213210Y7375D01*
X213243Y7315D01*
X213276Y7250D01*
X213314Y7184D01*
X213352Y7124D01*
X213358Y7119D01*
X213374Y7097D01*
X213396Y7070D01*
X213434Y7037D01*
X213472Y6993D01*
X213527Y6950D01*
X213587Y6911D01*
X213658Y6868D01*
X213669Y6862D01*
X213696Y6851D01*
X213735Y6835D01*
X213795Y6819D01*
X213871Y6802D01*
X213958Y6786D01*
X214057Y6775D01*
X214171Y6769D01*
X214215D01*
X214242Y6775D01*
X214281D01*
X214324Y6780D01*
X214422Y6797D01*
X214537Y6819D01*
X214657Y6857D01*
X214772Y6906D01*
X214881Y6971D01*
X214887D01*
X214892Y6982D01*
X214925Y7010D01*
X214968Y7053D01*
X215023Y7113D01*
X215072Y7184D01*
X215116Y7272D01*
X215149Y7370D01*
X215154Y7425D01*
X215160Y7479D01*
Y7485D01*
Y7490D01*
Y7517D01*
X215154Y7566D01*
X215143Y7621D01*
X215121Y7681D01*
X215094Y7747D01*
X215056Y7812D01*
X215007Y7872D01*
X215001Y7878D01*
X214979Y7900D01*
X214947Y7927D01*
X214903Y7960D01*
X214848Y7998D01*
X214783Y8036D01*
X214706Y8069D01*
X214625Y8102D01*
X214614Y8107D01*
X214581Y8118D01*
X214532Y8134D01*
X214461Y8156D01*
X214373Y8178D01*
X214264Y8211D01*
X214144Y8244D01*
X214002Y8276D01*
X213997D01*
X213980Y8282D01*
X213953Y8287D01*
X213915Y8298D01*
X213871Y8309D01*
X213816Y8326D01*
X213762Y8336D01*
X213696Y8358D01*
X213560Y8397D01*
X213412Y8446D01*
X213265Y8500D01*
X213123Y8560D01*
X213118D01*
X213107Y8566D01*
X213090Y8577D01*
X213063Y8593D01*
X212997Y8626D01*
X212921Y8680D01*
X212828Y8740D01*
X212735Y8817D01*
X212643Y8910D01*
X212561Y9008D01*
Y9013D01*
X212550Y9019D01*
X212544Y9035D01*
X212528Y9057D01*
X212511Y9084D01*
X212495Y9123D01*
X212462Y9205D01*
X212424Y9303D01*
X212391Y9423D01*
X212369Y9559D01*
X212359Y9712D01*
Y9718D01*
Y9729D01*
Y9751D01*
X212364Y9778D01*
Y9816D01*
X212369Y9854D01*
X212386Y9953D01*
X212413Y10067D01*
X212451Y10187D01*
X212506Y10307D01*
X212577Y10428D01*
Y10433D01*
X212588Y10444D01*
X212599Y10455D01*
X212615Y10477D01*
X212670Y10537D01*
X212741Y10602D01*
X212828Y10684D01*
X212937Y10761D01*
X213063Y10837D01*
X213210Y10908D01*
X213216D01*
X213227Y10914D01*
X213254Y10924D01*
X213287Y10935D01*
X213325Y10946D01*
X213369Y10963D01*
X213423Y10979D01*
X213489Y10995D01*
X213554Y11006D01*
X213631Y11023D01*
X213713Y11039D01*
X213795Y11050D01*
X213980Y11072D01*
X214182Y11077D01*
X214259D01*
X214297Y11072D01*
D02*
G37*
G36*
X200090D02*
X200139D01*
X200194Y11066D01*
X200259Y11061D01*
X200390Y11045D01*
X200538Y11017D01*
X200685Y10984D01*
X200833Y10941D01*
X200838D01*
X200849Y10935D01*
X200871Y10930D01*
X200893Y10919D01*
X200925Y10903D01*
X200964Y10886D01*
X201051Y10848D01*
X201149Y10804D01*
X201248Y10744D01*
X201351Y10679D01*
X201444Y10608D01*
X201449D01*
X201455Y10597D01*
X201482Y10575D01*
X201526Y10531D01*
X201581Y10482D01*
X201635Y10417D01*
X201695Y10346D01*
X201750Y10269D01*
X201799Y10187D01*
X201804Y10176D01*
X201815Y10149D01*
X201837Y10111D01*
X201859Y10056D01*
X201881Y9996D01*
X201903Y9931D01*
X201914Y9860D01*
X201919Y9794D01*
Y9789D01*
Y9762D01*
X201914Y9729D01*
X201903Y9685D01*
X201886Y9636D01*
X201859Y9581D01*
X201826Y9527D01*
X201783Y9477D01*
X201777Y9472D01*
X201761Y9456D01*
X201728Y9434D01*
X201690Y9412D01*
X201641Y9390D01*
X201586Y9368D01*
X201526Y9352D01*
X201455Y9347D01*
X201439D01*
X201417Y9352D01*
X201390D01*
X201324Y9368D01*
X201248Y9396D01*
X201242D01*
X201231Y9407D01*
X201215Y9418D01*
X201193Y9434D01*
X201138Y9477D01*
X201084Y9538D01*
Y9543D01*
X201078Y9549D01*
X201056Y9587D01*
X201018Y9636D01*
X200980Y9696D01*
X200931Y9767D01*
X200876Y9838D01*
X200827Y9909D01*
X200778Y9969D01*
X200773Y9974D01*
X200756Y9996D01*
X200729Y10024D01*
X200691Y10056D01*
X200641Y10095D01*
X200581Y10133D01*
X200516Y10176D01*
X200439Y10215D01*
X200429Y10220D01*
X200401Y10231D01*
X200352Y10247D01*
X200292Y10269D01*
X200210Y10286D01*
X200117Y10302D01*
X200013Y10313D01*
X199893Y10318D01*
X199839D01*
X199806Y10313D01*
X199773D01*
X199691Y10302D01*
X199593Y10291D01*
X199495Y10269D01*
X199386Y10237D01*
X199282Y10198D01*
X199276D01*
X199271Y10193D01*
X199238Y10176D01*
X199189Y10149D01*
X199124Y10111D01*
X199053Y10062D01*
X198976Y10002D01*
X198900Y9936D01*
X198823Y9854D01*
X198818Y9843D01*
X198791Y9816D01*
X198758Y9767D01*
X198720Y9701D01*
X198670Y9619D01*
X198621Y9527D01*
X198577Y9423D01*
X198534Y9303D01*
Y9297D01*
X198528Y9286D01*
X198523Y9270D01*
X198518Y9248D01*
X198512Y9216D01*
X198501Y9183D01*
X198485Y9095D01*
X198468Y8986D01*
X198452Y8866D01*
X198441Y8730D01*
X198436Y8588D01*
Y8577D01*
Y8549D01*
Y8506D01*
X198441Y8446D01*
X198447Y8375D01*
X198457Y8293D01*
X198468Y8200D01*
X198485Y8102D01*
X198507Y7998D01*
X198528Y7889D01*
X198561Y7779D01*
X198599Y7670D01*
X198643Y7561D01*
X198698Y7457D01*
X198758Y7359D01*
X198823Y7266D01*
X198829Y7261D01*
X198840Y7244D01*
X198867Y7223D01*
X198894Y7195D01*
X198938Y7163D01*
X198987Y7119D01*
X199042Y7081D01*
X199107Y7037D01*
X199184Y6993D01*
X199266Y6955D01*
X199353Y6917D01*
X199451Y6879D01*
X199560Y6851D01*
X199670Y6829D01*
X199795Y6813D01*
X199921Y6808D01*
X199981D01*
X200008Y6813D01*
X200046D01*
X200128Y6819D01*
X200226Y6829D01*
X200336Y6846D01*
X200445Y6868D01*
X200559Y6895D01*
X200565D01*
X200576Y6900D01*
X200587Y6906D01*
X200614Y6911D01*
X200669Y6933D01*
X200751Y6961D01*
X200844Y6999D01*
X200942Y7042D01*
X201056Y7091D01*
X201171Y7152D01*
Y7943D01*
X200363D01*
X200314Y7949D01*
X200254Y7954D01*
X200188Y7965D01*
X200117Y7976D01*
X200052Y7998D01*
X199992Y8025D01*
X199986Y8031D01*
X199970Y8042D01*
X199948Y8063D01*
X199921Y8091D01*
X199893Y8129D01*
X199872Y8178D01*
X199855Y8238D01*
X199850Y8304D01*
Y8309D01*
Y8331D01*
X199855Y8364D01*
X199866Y8397D01*
X199877Y8440D01*
X199899Y8484D01*
X199926Y8528D01*
X199964Y8571D01*
X199970Y8577D01*
X199986Y8588D01*
X200013Y8604D01*
X200052Y8626D01*
X200095Y8648D01*
X200150Y8664D01*
X200216Y8675D01*
X200287Y8680D01*
X201477D01*
X201526Y8675D01*
X201581Y8670D01*
X201635Y8664D01*
X201695Y8653D01*
X201750Y8642D01*
X201755D01*
X201772Y8637D01*
X201799Y8626D01*
X201832Y8609D01*
X201870Y8588D01*
X201908Y8555D01*
X201946Y8522D01*
X201979Y8478D01*
X201985Y8473D01*
X201995Y8456D01*
X202006Y8424D01*
X202028Y8386D01*
X202045Y8331D01*
X202056Y8265D01*
X202066Y8189D01*
X202072Y8102D01*
Y7173D01*
Y7168D01*
Y7141D01*
Y7108D01*
X202066Y7064D01*
X202056Y6966D01*
X202045Y6917D01*
X202034Y6873D01*
Y6868D01*
X202028Y6857D01*
X202017Y6835D01*
X202001Y6808D01*
X201963Y6742D01*
X201930Y6709D01*
X201897Y6671D01*
X201892Y6666D01*
X201881Y6655D01*
X201859Y6638D01*
X201832Y6617D01*
X201794Y6589D01*
X201750Y6562D01*
X201701Y6535D01*
X201646Y6502D01*
X201641D01*
X201624Y6491D01*
X201602Y6480D01*
X201570Y6464D01*
X201531Y6442D01*
X201488Y6420D01*
X201433Y6393D01*
X201378Y6371D01*
X201248Y6311D01*
X201105Y6251D01*
X200953Y6202D01*
X200800Y6152D01*
X200794D01*
X200783Y6147D01*
X200762Y6142D01*
X200729Y6136D01*
X200691Y6131D01*
X200647Y6120D01*
X200592Y6109D01*
X200538Y6103D01*
X200472Y6092D01*
X200401Y6081D01*
X200254Y6065D01*
X200084Y6054D01*
X199910Y6049D01*
X199855D01*
X199817Y6054D01*
X199768D01*
X199708Y6060D01*
X199642Y6065D01*
X199571Y6070D01*
X199418Y6092D01*
X199244Y6120D01*
X199064Y6163D01*
X198889Y6218D01*
X198883D01*
X198867Y6229D01*
X198845Y6234D01*
X198812Y6251D01*
X198774Y6267D01*
X198725Y6289D01*
X198676Y6316D01*
X198621Y6349D01*
X198496Y6420D01*
X198365Y6502D01*
X198228Y6606D01*
X198102Y6720D01*
X198097Y6726D01*
X198086Y6737D01*
X198070Y6753D01*
X198048Y6780D01*
X198021Y6813D01*
X197993Y6846D01*
X197955Y6895D01*
X197922Y6944D01*
X197840Y7059D01*
X197758Y7195D01*
X197677Y7343D01*
X197606Y7512D01*
Y7517D01*
X197600Y7534D01*
X197589Y7561D01*
X197578Y7594D01*
X197567Y7638D01*
X197551Y7692D01*
X197535Y7752D01*
X197524Y7818D01*
X197507Y7894D01*
X197491Y7976D01*
X197475Y8063D01*
X197464Y8151D01*
X197442Y8347D01*
X197436Y8560D01*
Y8566D01*
Y8588D01*
Y8615D01*
X197442Y8659D01*
Y8708D01*
X197447Y8762D01*
X197453Y8833D01*
X197458Y8904D01*
X197464Y8981D01*
X197475Y9063D01*
X197507Y9237D01*
X197546Y9418D01*
X197600Y9598D01*
Y9603D01*
X197606Y9619D01*
X197617Y9641D01*
X197633Y9674D01*
X197649Y9718D01*
X197671Y9762D01*
X197698Y9816D01*
X197726Y9876D01*
X197797Y9996D01*
X197884Y10133D01*
X197982Y10269D01*
X198097Y10395D01*
X198102Y10400D01*
X198113Y10411D01*
X198130Y10428D01*
X198157Y10449D01*
X198190Y10477D01*
X198228Y10509D01*
X198272Y10548D01*
X198321Y10586D01*
X198381Y10624D01*
X198441Y10668D01*
X198577Y10750D01*
X198730Y10832D01*
X198900Y10903D01*
X198905D01*
X198922Y10908D01*
X198949Y10919D01*
X198982Y10930D01*
X199025Y10941D01*
X199080Y10957D01*
X199140Y10974D01*
X199211Y10990D01*
X199282Y11006D01*
X199364Y11023D01*
X199457Y11039D01*
X199549Y11050D01*
X199746Y11072D01*
X199964Y11077D01*
X200046D01*
X200090Y11072D01*
D02*
G37*
G36*
X205386Y10984D02*
X205479Y10979D01*
X205583Y10974D01*
X205686Y10963D01*
X205785Y10946D01*
X205796D01*
X205828Y10935D01*
X205878Y10924D01*
X205938Y10908D01*
X206009Y10886D01*
X206085Y10859D01*
X206167Y10821D01*
X206243Y10777D01*
X206249Y10772D01*
X206271Y10761D01*
X206304Y10739D01*
X206347Y10706D01*
X206391Y10673D01*
X206440Y10630D01*
X206494Y10575D01*
X206544Y10520D01*
X206549Y10515D01*
X206565Y10493D01*
X206593Y10460D01*
X206620Y10417D01*
X206653Y10368D01*
X206691Y10307D01*
X206724Y10242D01*
X206751Y10171D01*
X206757Y10160D01*
X206762Y10138D01*
X206773Y10100D01*
X206789Y10051D01*
X206800Y9991D01*
X206811Y9920D01*
X206817Y9843D01*
X206822Y9767D01*
Y9762D01*
Y9734D01*
X206817Y9696D01*
X206811Y9647D01*
X206800Y9587D01*
X206784Y9521D01*
X206762Y9445D01*
X206729Y9363D01*
X206691Y9275D01*
X206642Y9188D01*
X206582Y9101D01*
X206516Y9013D01*
X206429Y8926D01*
X206331Y8844D01*
X206222Y8768D01*
X206090Y8702D01*
X206096D01*
X206101Y8697D01*
X206134Y8686D01*
X206178Y8670D01*
X206243Y8642D01*
X206314Y8604D01*
X206396Y8560D01*
X206484Y8506D01*
X206571Y8440D01*
X206658Y8364D01*
X206746Y8276D01*
X206828Y8184D01*
X206904Y8074D01*
X206964Y7954D01*
X207008Y7823D01*
X207041Y7676D01*
X207051Y7599D01*
Y7517D01*
Y7512D01*
Y7501D01*
Y7479D01*
X207046Y7446D01*
Y7414D01*
X207041Y7370D01*
X207024Y7272D01*
X207002Y7157D01*
X206964Y7032D01*
X206909Y6906D01*
X206838Y6780D01*
Y6775D01*
X206828Y6764D01*
X206817Y6747D01*
X206800Y6726D01*
X206757Y6671D01*
X206691Y6595D01*
X206609Y6518D01*
X206516Y6436D01*
X206402Y6360D01*
X206276Y6294D01*
X206265Y6289D01*
X206238Y6278D01*
X206189Y6262D01*
X206129Y6245D01*
X206052Y6223D01*
X205965Y6202D01*
X205867Y6180D01*
X205763Y6163D01*
X205752D01*
X205736Y6158D01*
X205686D01*
X205654Y6152D01*
X205572Y6147D01*
X205473Y6142D01*
X205359Y6136D01*
X205228Y6131D01*
X203552D01*
X203497Y6136D01*
X203426Y6147D01*
X203355Y6163D01*
X203279Y6191D01*
X203208Y6223D01*
X203148Y6273D01*
X203142Y6278D01*
X203126Y6300D01*
X203104Y6333D01*
X203082Y6382D01*
X203055Y6447D01*
X203033Y6524D01*
X203016Y6622D01*
X203011Y6731D01*
Y10384D01*
Y10389D01*
Y10400D01*
Y10417D01*
Y10439D01*
X203016Y10493D01*
X203027Y10564D01*
X203044Y10640D01*
X203071Y10717D01*
X203104Y10788D01*
X203148Y10848D01*
X203153Y10853D01*
X203175Y10870D01*
X203208Y10892D01*
X203257Y10919D01*
X203322Y10946D01*
X203399Y10968D01*
X203497Y10984D01*
X203606Y10990D01*
X205304D01*
X205386Y10984D01*
D02*
G37*
G36*
X193451Y11023D02*
X193483D01*
X193565Y11012D01*
X193664Y11001D01*
X193767Y10979D01*
X193877Y10952D01*
X193980Y10914D01*
X193986D01*
X193991Y10908D01*
X194008Y10903D01*
X194029Y10892D01*
X194079Y10870D01*
X194144Y10832D01*
X194220Y10788D01*
X194308Y10728D01*
X194390Y10662D01*
X194472Y10586D01*
X194483Y10575D01*
X194510Y10548D01*
X194548Y10504D01*
X194597Y10439D01*
X194652Y10362D01*
X194712Y10275D01*
X194772Y10176D01*
X194826Y10062D01*
X194832Y10056D01*
X194837Y10035D01*
X194848Y10007D01*
X194865Y9963D01*
X194887Y9903D01*
X194908Y9838D01*
X194930Y9756D01*
X194958Y9663D01*
X194979Y9559D01*
X195001Y9445D01*
X195023Y9314D01*
X195045Y9177D01*
X195061Y9030D01*
X195072Y8866D01*
X195083Y8697D01*
Y8511D01*
Y8506D01*
Y8489D01*
Y8456D01*
Y8418D01*
Y8375D01*
X195078Y8320D01*
Y8254D01*
X195072Y8189D01*
X195067Y8042D01*
X195056Y7883D01*
X195034Y7725D01*
X195012Y7572D01*
Y7566D01*
X195007Y7556D01*
Y7534D01*
X195001Y7507D01*
X194990Y7474D01*
X194985Y7435D01*
X194958Y7337D01*
X194925Y7228D01*
X194881Y7113D01*
X194832Y6988D01*
X194772Y6868D01*
Y6862D01*
X194761Y6851D01*
X194750Y6829D01*
X194728Y6802D01*
X194706Y6769D01*
X194679Y6731D01*
X194614Y6644D01*
X194526Y6545D01*
X194428Y6447D01*
X194313Y6349D01*
X194182Y6262D01*
X194177D01*
X194166Y6251D01*
X194149Y6245D01*
X194122Y6229D01*
X194089Y6213D01*
X194046Y6196D01*
X194002Y6180D01*
X193953Y6158D01*
X193833Y6120D01*
X193696Y6087D01*
X193549Y6065D01*
X193391Y6054D01*
X193341D01*
X193303Y6060D01*
X193260Y6065D01*
X193210Y6070D01*
X193150Y6076D01*
X193085Y6092D01*
X192948Y6125D01*
X192795Y6174D01*
X192713Y6207D01*
X192637Y6245D01*
X192561Y6289D01*
X192484Y6338D01*
X192479Y6344D01*
X192468Y6349D01*
X192446Y6365D01*
X192419Y6393D01*
X192386Y6420D01*
X192348Y6453D01*
X192304Y6496D01*
X192260Y6545D01*
X192211Y6595D01*
X192162Y6655D01*
X192113Y6720D01*
X192064Y6791D01*
X192015Y6868D01*
X191965Y6944D01*
X191884Y7124D01*
Y7130D01*
X191878Y7135D01*
X191873Y7152D01*
X191867Y7173D01*
X191851Y7228D01*
X191823Y7305D01*
X191802Y7397D01*
X191774Y7501D01*
X191753Y7616D01*
X191731Y7736D01*
Y7741D01*
Y7752D01*
X191725Y7769D01*
Y7796D01*
X191720Y7823D01*
Y7861D01*
X191709Y7949D01*
X191703Y8058D01*
X191692Y8178D01*
X191687Y8315D01*
Y8456D01*
Y8462D01*
Y8478D01*
Y8506D01*
Y8544D01*
Y8588D01*
X191692Y8637D01*
Y8697D01*
Y8757D01*
X191698Y8899D01*
X191709Y9046D01*
X191720Y9205D01*
X191736Y9357D01*
Y9363D01*
X191742Y9374D01*
Y9396D01*
X191747Y9423D01*
X191753Y9461D01*
X191758Y9499D01*
X191780Y9598D01*
X191802Y9707D01*
X191829Y9821D01*
X191867Y9936D01*
X191905Y10051D01*
Y10056D01*
X191916Y10073D01*
X191927Y10095D01*
X191944Y10127D01*
X191960Y10171D01*
X191987Y10215D01*
X192047Y10318D01*
X192129Y10439D01*
X192222Y10559D01*
X192337Y10673D01*
X192468Y10777D01*
X192473Y10783D01*
X192484Y10788D01*
X192506Y10799D01*
X192533Y10815D01*
X192572Y10837D01*
X192615Y10859D01*
X192664Y10881D01*
X192719Y10903D01*
X192785Y10924D01*
X192850Y10946D01*
X193003Y10990D01*
X193178Y11017D01*
X193270Y11028D01*
X193423D01*
X193451Y11023D01*
D02*
G37*
G36*
X209983Y10984D02*
X210044D01*
X210104Y10979D01*
X210246Y10968D01*
X210387Y10952D01*
X210524Y10930D01*
X210590Y10919D01*
X210650Y10903D01*
X210655D01*
X210661Y10897D01*
X210677Y10892D01*
X210699Y10886D01*
X210753Y10864D01*
X210824Y10837D01*
X210906Y10799D01*
X210994Y10750D01*
X211081Y10695D01*
X211163Y10624D01*
X211174Y10613D01*
X211201Y10591D01*
X211239Y10548D01*
X211288Y10493D01*
X211343Y10428D01*
X211398Y10346D01*
X211447Y10253D01*
X211496Y10155D01*
Y10149D01*
X211501Y10144D01*
X211507Y10127D01*
X211512Y10105D01*
X211534Y10051D01*
X211556Y9974D01*
X211572Y9882D01*
X211594Y9772D01*
X211605Y9658D01*
X211611Y9532D01*
Y9521D01*
Y9499D01*
X211605Y9461D01*
Y9412D01*
X211594Y9347D01*
X211589Y9275D01*
X211572Y9199D01*
X211556Y9112D01*
X211529Y9024D01*
X211501Y8931D01*
X211463Y8839D01*
X211420Y8746D01*
X211365Y8653D01*
X211305Y8566D01*
X211234Y8484D01*
X211152Y8407D01*
X211146Y8402D01*
X211130Y8391D01*
X211103Y8375D01*
X211065Y8347D01*
X211015Y8320D01*
X210961Y8287D01*
X210890Y8254D01*
X210808Y8216D01*
X210721Y8184D01*
X210617Y8145D01*
X210508Y8112D01*
X210382Y8085D01*
X210251Y8058D01*
X210104Y8042D01*
X209951Y8031D01*
X209787Y8025D01*
X208886D01*
Y6644D01*
Y6638D01*
Y6633D01*
Y6617D01*
Y6595D01*
X208881Y6540D01*
X208870Y6480D01*
X208853Y6404D01*
X208826Y6333D01*
X208793Y6262D01*
X208744Y6196D01*
X208739Y6191D01*
X208722Y6174D01*
X208689Y6147D01*
X208651Y6125D01*
X208597Y6098D01*
X208537Y6070D01*
X208471Y6054D01*
X208395Y6049D01*
X208356D01*
X208318Y6054D01*
X208264Y6065D01*
X208209Y6087D01*
X208149Y6109D01*
X208089Y6147D01*
X208034Y6196D01*
X208029Y6202D01*
X208012Y6223D01*
X207991Y6262D01*
X207969Y6311D01*
X207947Y6371D01*
X207925Y6447D01*
X207909Y6535D01*
X207903Y6638D01*
Y10384D01*
Y10389D01*
Y10400D01*
Y10417D01*
Y10439D01*
X207909Y10493D01*
X207920Y10564D01*
X207941Y10640D01*
X207963Y10717D01*
X208001Y10788D01*
X208051Y10848D01*
X208056Y10853D01*
X208078Y10870D01*
X208116Y10892D01*
X208165Y10919D01*
X208231Y10946D01*
X208313Y10968D01*
X208411Y10984D01*
X208526Y10990D01*
X209929D01*
X209983Y10984D01*
D02*
G37*
G36*
X190082Y11050D02*
X190115Y11045D01*
X190153Y11039D01*
X190191Y11023D01*
X190240Y11006D01*
X190289Y10984D01*
X190333Y10952D01*
X190382Y10914D01*
X190420Y10870D01*
X190464Y10810D01*
X190491Y10744D01*
X190519Y10668D01*
X190535Y10581D01*
X190540Y10477D01*
Y7910D01*
X190726D01*
X190770Y7905D01*
X190830Y7900D01*
X190890Y7894D01*
X190961Y7883D01*
X191026Y7861D01*
X191086Y7840D01*
X191092Y7834D01*
X191114Y7823D01*
X191136Y7807D01*
X191168Y7774D01*
X191196Y7736D01*
X191223Y7681D01*
X191239Y7616D01*
X191245Y7534D01*
Y7523D01*
Y7501D01*
X191239Y7468D01*
X191228Y7430D01*
X191212Y7381D01*
X191190Y7337D01*
X191163Y7294D01*
X191119Y7255D01*
X191114Y7250D01*
X191097Y7244D01*
X191065Y7228D01*
X191026Y7212D01*
X190972Y7195D01*
X190906Y7184D01*
X190830Y7173D01*
X190743Y7168D01*
X190540D01*
Y6551D01*
Y6545D01*
Y6540D01*
Y6507D01*
X190535Y6464D01*
X190524Y6409D01*
X190513Y6344D01*
X190491Y6283D01*
X190464Y6223D01*
X190426Y6169D01*
X190420Y6163D01*
X190404Y6152D01*
X190382Y6131D01*
X190344Y6109D01*
X190300Y6087D01*
X190251Y6065D01*
X190191Y6054D01*
X190126Y6049D01*
X190093D01*
X190060Y6054D01*
X190016Y6065D01*
X189967Y6081D01*
X189918Y6103D01*
X189863Y6131D01*
X189820Y6174D01*
X189814Y6180D01*
X189803Y6196D01*
X189787Y6229D01*
X189765Y6267D01*
X189743Y6322D01*
X189727Y6387D01*
X189716Y6464D01*
X189710Y6551D01*
Y7168D01*
X187996D01*
X187936Y7173D01*
X187865Y7184D01*
X187789Y7201D01*
X187712Y7228D01*
X187636Y7261D01*
X187570Y7310D01*
X187565Y7315D01*
X187548Y7337D01*
X187521Y7370D01*
X187494Y7414D01*
X187461Y7468D01*
X187439Y7534D01*
X187417Y7610D01*
X187412Y7698D01*
Y7703D01*
Y7709D01*
X187417Y7736D01*
X187423Y7774D01*
X187434Y7823D01*
Y7829D01*
X187439Y7834D01*
X187455Y7867D01*
X187477Y7910D01*
X187505Y7960D01*
Y7965D01*
X187516Y7971D01*
X187537Y8003D01*
X187565Y8047D01*
X187603Y8096D01*
Y8102D01*
X187614Y8107D01*
X187636Y8140D01*
X187674Y8194D01*
X187723Y8260D01*
X189481Y10613D01*
X189487Y10624D01*
X189508Y10651D01*
X189541Y10690D01*
X189585Y10739D01*
X189672Y10848D01*
X189721Y10903D01*
X189765Y10946D01*
X189771Y10952D01*
X189787Y10963D01*
X189809Y10979D01*
X189842Y11001D01*
X189880Y11023D01*
X189929Y11039D01*
X189978Y11050D01*
X190033Y11056D01*
X190055D01*
X190082Y11050D01*
D02*
G37*
%LPC*%
G36*
X263128Y46235D02*
X261127D01*
Y43558D01*
X263062D01*
X263139Y43569D01*
X263302D01*
X263488Y43590D01*
X263685Y43612D01*
X263893Y43634D01*
X264078Y43678D01*
X264089D01*
X264100Y43689D01*
X264155Y43700D01*
X264243Y43732D01*
X264352Y43776D01*
X264472Y43831D01*
X264603Y43907D01*
X264723Y43995D01*
X264822Y44093D01*
X264833Y44104D01*
X264865Y44148D01*
X264909Y44213D01*
X264953Y44312D01*
X264997Y44421D01*
X265040Y44563D01*
X265073Y44727D01*
X265084Y44913D01*
Y44935D01*
Y44978D01*
X265073Y45055D01*
X265062Y45153D01*
X265029Y45263D01*
X264997Y45383D01*
X264942Y45503D01*
X264876Y45623D01*
X264865Y45634D01*
X264844Y45678D01*
X264789Y45733D01*
X264723Y45798D01*
X264647Y45875D01*
X264548Y45951D01*
X264428Y46017D01*
X264297Y46082D01*
X264286Y46093D01*
X264231Y46104D01*
X264133Y46126D01*
X264078Y46148D01*
X264002Y46159D01*
X263915Y46170D01*
X263816Y46192D01*
X263707Y46203D01*
X263587Y46213D01*
X263445Y46224D01*
X263292D01*
X263128Y46235D01*
D02*
G37*
G36*
X285206Y34311D02*
X285108D01*
X284998Y34300D01*
X284845Y34278D01*
X284682Y34256D01*
X284496Y34212D01*
X284310Y34158D01*
X284113Y34081D01*
X284091Y34070D01*
X284026Y34038D01*
X283938Y33994D01*
X283818Y33917D01*
X283687Y33830D01*
X283545Y33720D01*
X283403Y33589D01*
X283261Y33436D01*
X283250Y33415D01*
X283206Y33360D01*
X283140Y33261D01*
X283053Y33141D01*
X282965Y32977D01*
X282867Y32792D01*
X282780Y32584D01*
X282692Y32343D01*
Y32332D01*
X282681Y32311D01*
X282670Y32278D01*
X282660Y32223D01*
X282649Y32168D01*
X282627Y32092D01*
X282605Y32004D01*
X282594Y31917D01*
X282550Y31688D01*
X282517Y31436D01*
X282496Y31163D01*
X282485Y30857D01*
Y30846D01*
Y30824D01*
Y30780D01*
Y30715D01*
X282496Y30649D01*
Y30562D01*
X282506Y30354D01*
X282539Y30125D01*
X282572Y29873D01*
X282627Y29611D01*
X282692Y29359D01*
Y29349D01*
X282703Y29327D01*
X282714Y29294D01*
X282736Y29250D01*
X282780Y29130D01*
X282845Y28966D01*
X282933Y28791D01*
X283031Y28605D01*
X283151Y28420D01*
X283282Y28245D01*
X283304Y28223D01*
X283348Y28168D01*
X283425Y28092D01*
X283534Y28004D01*
X283665Y27895D01*
X283818Y27786D01*
X283982Y27676D01*
X284157Y27589D01*
X284168D01*
X284179Y27578D01*
X284244Y27556D01*
X284343Y27523D01*
X284474Y27479D01*
X284638Y27436D01*
X284824Y27403D01*
X285020Y27381D01*
X285239Y27370D01*
X285315D01*
X285370Y27381D01*
X285436D01*
X285512Y27392D01*
X285698Y27414D01*
X285906Y27458D01*
X286146Y27523D01*
X286387Y27622D01*
X286627Y27742D01*
X286638D01*
X286660Y27764D01*
X286693Y27786D01*
X286736Y27818D01*
X286846Y27906D01*
X286988Y28037D01*
X287152Y28201D01*
X287316Y28398D01*
X287480Y28638D01*
X287633Y28911D01*
Y28922D01*
X287654Y28944D01*
X287665Y28988D01*
X287698Y29053D01*
X287720Y29130D01*
X287753Y29228D01*
X287786Y29338D01*
X287829Y29458D01*
X287862Y29589D01*
X287895Y29742D01*
X287928Y29895D01*
X287961Y30070D01*
X288004Y30442D01*
X288015Y30857D01*
Y30868D01*
Y30901D01*
Y30966D01*
Y31032D01*
X288004Y31130D01*
X287993Y31239D01*
X287982Y31360D01*
X287971Y31491D01*
X287928Y31786D01*
X287873Y32092D01*
X287786Y32409D01*
X287665Y32715D01*
Y32726D01*
X287654Y32748D01*
X287633Y32792D01*
X287600Y32846D01*
X287567Y32912D01*
X287523Y32988D01*
X287414Y33163D01*
X287272Y33349D01*
X287097Y33546D01*
X286900Y33742D01*
X286671Y33906D01*
X286660D01*
X286638Y33928D01*
X286605Y33939D01*
X286561Y33972D01*
X286496Y34005D01*
X286430Y34038D01*
X286343Y34070D01*
X286256Y34114D01*
X286037Y34180D01*
X285786Y34245D01*
X285512Y34289D01*
X285206Y34311D01*
D02*
G37*
G36*
X131627D02*
X131529D01*
X131420Y34300D01*
X131266Y34278D01*
X131103Y34256D01*
X130917Y34212D01*
X130731Y34158D01*
X130534Y34081D01*
X130512Y34070D01*
X130447Y34038D01*
X130359Y33994D01*
X130239Y33917D01*
X130108Y33830D01*
X129966Y33720D01*
X129824Y33589D01*
X129682Y33436D01*
X129671Y33415D01*
X129627Y33360D01*
X129561Y33261D01*
X129474Y33141D01*
X129386Y32977D01*
X129288Y32792D01*
X129201Y32584D01*
X129113Y32343D01*
Y32332D01*
X129102Y32311D01*
X129091Y32278D01*
X129080Y32223D01*
X129069Y32168D01*
X129048Y32092D01*
X129026Y32004D01*
X129015Y31917D01*
X128971Y31688D01*
X128938Y31436D01*
X128917Y31163D01*
X128906Y30857D01*
Y30846D01*
Y30824D01*
Y30780D01*
Y30715D01*
X128917Y30649D01*
Y30562D01*
X128927Y30354D01*
X128960Y30125D01*
X128993Y29873D01*
X129048Y29611D01*
X129113Y29359D01*
Y29349D01*
X129124Y29327D01*
X129135Y29294D01*
X129157Y29250D01*
X129201Y29130D01*
X129266Y28966D01*
X129354Y28791D01*
X129452Y28605D01*
X129572Y28420D01*
X129703Y28245D01*
X129725Y28223D01*
X129769Y28168D01*
X129846Y28092D01*
X129955Y28004D01*
X130086Y27895D01*
X130239Y27786D01*
X130403Y27676D01*
X130578Y27589D01*
X130589D01*
X130600Y27578D01*
X130665Y27556D01*
X130764Y27523D01*
X130895Y27479D01*
X131059Y27436D01*
X131245Y27403D01*
X131441Y27381D01*
X131660Y27370D01*
X131737D01*
X131791Y27381D01*
X131857D01*
X131933Y27392D01*
X132119Y27414D01*
X132327Y27458D01*
X132567Y27523D01*
X132808Y27622D01*
X133048Y27742D01*
X133059D01*
X133081Y27764D01*
X133114Y27786D01*
X133157Y27818D01*
X133267Y27906D01*
X133409Y28037D01*
X133573Y28201D01*
X133737Y28398D01*
X133901Y28638D01*
X134054Y28911D01*
Y28922D01*
X134075Y28944D01*
X134086Y28988D01*
X134119Y29053D01*
X134141Y29130D01*
X134174Y29228D01*
X134207Y29338D01*
X134250Y29458D01*
X134283Y29589D01*
X134316Y29742D01*
X134349Y29895D01*
X134381Y30070D01*
X134425Y30442D01*
X134436Y30857D01*
Y30868D01*
Y30901D01*
Y30966D01*
Y31032D01*
X134425Y31130D01*
X134414Y31239D01*
X134403Y31360D01*
X134392Y31491D01*
X134349Y31786D01*
X134294Y32092D01*
X134207Y32409D01*
X134086Y32715D01*
Y32726D01*
X134075Y32748D01*
X134054Y32792D01*
X134021Y32846D01*
X133988Y32912D01*
X133944Y32988D01*
X133835Y33163D01*
X133693Y33349D01*
X133518Y33546D01*
X133321Y33742D01*
X133092Y33906D01*
X133081D01*
X133059Y33928D01*
X133026Y33939D01*
X132983Y33972D01*
X132917Y34005D01*
X132851Y34038D01*
X132764Y34070D01*
X132676Y34114D01*
X132458Y34180D01*
X132206Y34245D01*
X131933Y34289D01*
X131627Y34311D01*
D02*
G37*
G36*
X117560Y34223D02*
X115997D01*
Y31250D01*
X117495D01*
X117571Y31261D01*
X117724Y31272D01*
X117910Y31283D01*
X118107Y31316D01*
X118304Y31349D01*
X118489Y31392D01*
X118500D01*
X118511Y31403D01*
X118566Y31425D01*
X118653Y31458D01*
X118752Y31502D01*
X118872Y31567D01*
X118992Y31655D01*
X119101Y31753D01*
X119200Y31863D01*
X119211Y31873D01*
X119244Y31928D01*
X119276Y31994D01*
X119331Y32103D01*
X119375Y32223D01*
X119407Y32376D01*
X119440Y32551D01*
X119451Y32737D01*
Y32748D01*
Y32770D01*
Y32802D01*
X119440Y32846D01*
X119429Y32966D01*
X119407Y33108D01*
X119353Y33272D01*
X119287Y33447D01*
X119200Y33622D01*
X119069Y33786D01*
X119047Y33808D01*
X119025Y33830D01*
X118981Y33852D01*
X118927Y33885D01*
X118861Y33928D01*
X118784Y33961D01*
X118686Y34005D01*
X118577Y34049D01*
X118456Y34081D01*
X118314Y34125D01*
X118150Y34158D01*
X117976Y34180D01*
X117779Y34201D01*
X117560Y34223D01*
D02*
G37*
G36*
X190363Y111383D02*
X190276D01*
X190188Y111372D01*
X190068Y111350D01*
X189926Y111318D01*
X189784Y111263D01*
X189631Y111197D01*
X189478Y111099D01*
X189456Y111088D01*
X189412Y111044D01*
X189347Y110979D01*
X189259Y110891D01*
X189161Y110771D01*
X189051Y110629D01*
X188953Y110465D01*
X188866Y110279D01*
Y110268D01*
X188855Y110257D01*
X188844Y110224D01*
X188833Y110192D01*
X188800Y110082D01*
X188767Y109929D01*
X188724Y109755D01*
X188691Y109547D01*
X188669Y109317D01*
X188658Y109066D01*
Y109055D01*
Y109033D01*
Y108989D01*
Y108946D01*
X188669Y108880D01*
Y108804D01*
X188691Y108629D01*
X188713Y108432D01*
X188745Y108213D01*
X188800Y108006D01*
X188877Y107798D01*
Y107787D01*
X188888Y107776D01*
X188920Y107711D01*
X188975Y107623D01*
X189041Y107514D01*
X189128Y107383D01*
X189237Y107252D01*
X189357Y107131D01*
X189500Y107022D01*
X189521Y107011D01*
X189565Y106978D01*
X189653Y106946D01*
X189762Y106902D01*
X189893Y106847D01*
X190035Y106814D01*
X190199Y106781D01*
X190374Y106771D01*
X190451D01*
X190549Y106781D01*
X190669Y106803D01*
X190800Y106825D01*
X190942Y106869D01*
X191095Y106935D01*
X191248Y107011D01*
X191270Y107022D01*
X191314Y107055D01*
X191391Y107120D01*
X191478Y107197D01*
X191576Y107306D01*
X191675Y107437D01*
X191784Y107601D01*
X191871Y107776D01*
Y107787D01*
X191882Y107798D01*
X191893Y107831D01*
X191904Y107864D01*
X191948Y107984D01*
X191992Y108126D01*
X192035Y108312D01*
X192079Y108541D01*
X192101Y108793D01*
X192112Y109066D01*
Y109077D01*
Y109099D01*
Y109132D01*
Y109186D01*
X192101Y109252D01*
Y109317D01*
X192079Y109492D01*
X192057Y109689D01*
X192014Y109897D01*
X191948Y110104D01*
X191871Y110301D01*
Y110312D01*
X191860Y110323D01*
X191828Y110388D01*
X191773Y110487D01*
X191707Y110596D01*
X191620Y110727D01*
X191511Y110858D01*
X191379Y110990D01*
X191237Y111099D01*
X191216Y111110D01*
X191172Y111143D01*
X191084Y111186D01*
X190986Y111241D01*
X190855Y111296D01*
X190702Y111339D01*
X190538Y111372D01*
X190363Y111383D01*
D02*
G37*
G36*
X246948Y111492D02*
X246751D01*
X246707Y111481D01*
X246576Y111470D01*
X246423Y111438D01*
X246248Y111383D01*
X246062Y111296D01*
X245877Y111175D01*
X245789Y111110D01*
X245702Y111022D01*
X245680Y111001D01*
X245658Y110979D01*
X245636Y110935D01*
X245560Y110826D01*
X245472Y110673D01*
X245385Y110476D01*
X245297Y110235D01*
X245221Y109962D01*
X245177Y109634D01*
X248456D01*
Y109645D01*
Y109678D01*
X248445Y109722D01*
X248434Y109787D01*
X248423Y109864D01*
X248412Y109951D01*
X248369Y110159D01*
X248303Y110378D01*
X248216Y110607D01*
X248095Y110837D01*
X248030Y110935D01*
X247953Y111022D01*
Y111033D01*
X247931Y111044D01*
X247877Y111099D01*
X247778Y111175D01*
X247647Y111263D01*
X247494Y111339D01*
X247297Y111416D01*
X247068Y111470D01*
X246948Y111492D01*
D02*
G37*
G36*
X238696Y111383D02*
X238619D01*
X238575Y111372D01*
X238510Y111361D01*
X238433Y111350D01*
X238258Y111307D01*
X238062Y111241D01*
X237843Y111132D01*
X237745Y111066D01*
X237635Y110979D01*
X237526Y110891D01*
X237428Y110782D01*
Y110771D01*
X237406Y110760D01*
X237384Y110716D01*
X237351Y110673D01*
X237307Y110607D01*
X237264Y110530D01*
X237220Y110443D01*
X237176Y110345D01*
X237122Y110224D01*
X237078Y110093D01*
X237034Y109951D01*
X236990Y109798D01*
X236958Y109634D01*
X236936Y109449D01*
X236925Y109252D01*
X236914Y109044D01*
Y109033D01*
Y109000D01*
Y108946D01*
X236925Y108869D01*
Y108771D01*
X236947Y108672D01*
X236958Y108552D01*
X236980Y108432D01*
X237045Y108159D01*
X237133Y107875D01*
X237264Y107601D01*
X237340Y107481D01*
X237428Y107361D01*
X237439Y107350D01*
X237450Y107339D01*
X237482Y107306D01*
X237515Y107273D01*
X237635Y107175D01*
X237777Y107066D01*
X237963Y106956D01*
X238182Y106858D01*
X238422Y106792D01*
X238553Y106781D01*
X238696Y106771D01*
X238772D01*
X238860Y106781D01*
X238969Y106803D01*
X239100Y106836D01*
X239242Y106880D01*
X239395Y106935D01*
X239537Y107022D01*
X239559Y107033D01*
X239603Y107077D01*
X239668Y107131D01*
X239756Y107219D01*
X239854Y107328D01*
X239952Y107470D01*
X240062Y107623D01*
X240149Y107809D01*
Y107820D01*
X240160Y107831D01*
X240171Y107864D01*
X240182Y107907D01*
X240226Y108017D01*
X240269Y108170D01*
X240313Y108345D01*
X240357Y108563D01*
X240379Y108815D01*
X240390Y109077D01*
Y109088D01*
Y109110D01*
Y109142D01*
Y109197D01*
X240379Y109263D01*
Y109328D01*
X240357Y109503D01*
X240335Y109700D01*
X240291Y109907D01*
X240237Y110115D01*
X240160Y110312D01*
Y110323D01*
X240149Y110334D01*
X240116Y110399D01*
X240073Y110487D01*
X240007Y110607D01*
X239920Y110727D01*
X239810Y110858D01*
X239690Y110990D01*
X239548Y111099D01*
X239526Y111110D01*
X239482Y111143D01*
X239406Y111186D01*
X239297Y111241D01*
X239176Y111296D01*
X239023Y111339D01*
X238870Y111372D01*
X238696Y111383D01*
D02*
G37*
G36*
X230104Y111394D02*
X230017D01*
X229919Y111383D01*
X229788Y111361D01*
X229645Y111328D01*
X229482Y111274D01*
X229318Y111208D01*
X229165Y111110D01*
X229143Y111099D01*
X229099Y111055D01*
X229022Y111001D01*
X228935Y110902D01*
X228837Y110793D01*
X228727Y110651D01*
X228629Y110487D01*
X228541Y110301D01*
Y110290D01*
X228531Y110279D01*
X228520Y110246D01*
X228509Y110203D01*
X228476Y110093D01*
X228432Y109940D01*
X228389Y109755D01*
X228356Y109547D01*
X228334Y109306D01*
X228323Y109044D01*
Y109033D01*
Y109011D01*
Y108978D01*
Y108924D01*
X228334Y108858D01*
Y108793D01*
X228345Y108618D01*
X228378Y108432D01*
X228410Y108224D01*
X228465Y108006D01*
X228531Y107798D01*
Y107787D01*
X228541Y107776D01*
X228574Y107711D01*
X228618Y107612D01*
X228695Y107503D01*
X228782Y107372D01*
X228891Y107241D01*
X229012Y107109D01*
X229154Y106989D01*
X229175Y106978D01*
X229230Y106946D01*
X229307Y106902D01*
X229427Y106858D01*
X229569Y106803D01*
X229722Y106760D01*
X229908Y106727D01*
X230104Y106716D01*
X230181D01*
X230236Y106727D01*
X230312Y106738D01*
X230389Y106749D01*
X230574Y106792D01*
X230782Y106869D01*
X231001Y106978D01*
X231110Y107044D01*
X231219Y107131D01*
X231318Y107219D01*
X231416Y107328D01*
X231427Y107339D01*
X231438Y107361D01*
X231460Y107394D01*
X231493Y107448D01*
X231525Y107503D01*
X231569Y107579D01*
X231613Y107678D01*
X231667Y107776D01*
X231711Y107896D01*
X231755Y108017D01*
X231799Y108159D01*
X231832Y108312D01*
X231864Y108476D01*
X231886Y108661D01*
X231908Y108847D01*
Y109044D01*
Y109055D01*
Y109099D01*
Y109153D01*
X231897Y109230D01*
Y109317D01*
X231886Y109427D01*
X231864Y109547D01*
X231842Y109678D01*
X231788Y109951D01*
X231700Y110246D01*
X231580Y110520D01*
X231504Y110651D01*
X231416Y110771D01*
Y110782D01*
X231394Y110793D01*
X231362Y110826D01*
X231329Y110869D01*
X231219Y110968D01*
X231066Y111088D01*
X230880Y111197D01*
X230651Y111296D01*
X230531Y111339D01*
X230400Y111372D01*
X230258Y111383D01*
X230104Y111394D01*
D02*
G37*
G36*
X199041Y111492D02*
X198845D01*
X198801Y111481D01*
X198670Y111470D01*
X198517Y111438D01*
X198342Y111383D01*
X198156Y111296D01*
X197970Y111175D01*
X197883Y111110D01*
X197795Y111022D01*
X197774Y111001D01*
X197752Y110979D01*
X197730Y110935D01*
X197653Y110826D01*
X197566Y110673D01*
X197478Y110476D01*
X197391Y110235D01*
X197315Y109962D01*
X197271Y109634D01*
X200550D01*
Y109645D01*
Y109678D01*
X200539Y109722D01*
X200528Y109787D01*
X200517Y109864D01*
X200506Y109951D01*
X200462Y110159D01*
X200397Y110378D01*
X200309Y110607D01*
X200189Y110837D01*
X200124Y110935D01*
X200047Y111022D01*
Y111033D01*
X200025Y111044D01*
X199970Y111099D01*
X199872Y111175D01*
X199741Y111263D01*
X199588Y111339D01*
X199391Y111416D01*
X199162Y111470D01*
X199041Y111492D01*
D02*
G37*
G36*
X204889Y10253D02*
X203994D01*
Y8997D01*
X204988D01*
X205020Y9003D01*
X205102Y9008D01*
X205195Y9013D01*
X205288Y9024D01*
X205381Y9041D01*
X205463Y9063D01*
X205473Y9068D01*
X205495Y9079D01*
X205534Y9095D01*
X205577Y9123D01*
X205626Y9161D01*
X205676Y9205D01*
X205725Y9265D01*
X205768Y9330D01*
X205774Y9336D01*
X205785Y9352D01*
X205796Y9385D01*
X205812Y9423D01*
X205828Y9467D01*
X205845Y9521D01*
X205850Y9576D01*
X205856Y9641D01*
Y9647D01*
Y9658D01*
Y9674D01*
X205850Y9701D01*
X205845Y9762D01*
X205823Y9838D01*
X205790Y9920D01*
X205747Y10002D01*
X205681Y10073D01*
X205637Y10100D01*
X205594Y10127D01*
X205588D01*
X205583Y10133D01*
X205566Y10138D01*
X205544Y10149D01*
X205517Y10155D01*
X205485Y10165D01*
X205441Y10176D01*
X205397Y10193D01*
X205343Y10204D01*
X205282Y10215D01*
X205217Y10226D01*
X205146Y10231D01*
X205064Y10242D01*
X204982Y10247D01*
X204889Y10253D01*
D02*
G37*
G36*
X205108Y8293D02*
X203994D01*
Y6868D01*
X205091D01*
X205140Y6873D01*
X205206Y6879D01*
X205282Y6889D01*
X205364Y6906D01*
X205457Y6928D01*
X205550Y6961D01*
X205643Y6999D01*
X205736Y7042D01*
X205818Y7102D01*
X205894Y7173D01*
X205960Y7255D01*
X206009Y7348D01*
X206041Y7463D01*
X206052Y7523D01*
Y7588D01*
Y7594D01*
Y7605D01*
Y7627D01*
X206047Y7648D01*
X206041Y7714D01*
X206019Y7796D01*
X205987Y7883D01*
X205943Y7971D01*
X205878Y8053D01*
X205834Y8091D01*
X205790Y8123D01*
X205785D01*
X205779Y8129D01*
X205763Y8140D01*
X205741Y8151D01*
X205714Y8162D01*
X205681Y8178D01*
X205643Y8194D01*
X205599Y8211D01*
X205544Y8222D01*
X205490Y8238D01*
X205424Y8254D01*
X205353Y8265D01*
X205277Y8276D01*
X205195Y8287D01*
X205108Y8293D01*
D02*
G37*
G36*
X193374Y10357D02*
X193358D01*
X193331Y10351D01*
X193303D01*
X193270Y10346D01*
X193227Y10335D01*
X193134Y10302D01*
X193085Y10280D01*
X193036Y10247D01*
X192987Y10215D01*
X192932Y10171D01*
X192888Y10122D01*
X192845Y10062D01*
X192801Y9991D01*
X192768Y9914D01*
Y9909D01*
X192763Y9893D01*
X192752Y9865D01*
X192741Y9832D01*
X192730Y9783D01*
X192713Y9723D01*
X192697Y9658D01*
X192686Y9576D01*
X192670Y9488D01*
X192653Y9385D01*
X192637Y9275D01*
X192626Y9150D01*
X192615Y9019D01*
X192604Y8872D01*
X192599Y8719D01*
Y8549D01*
Y8544D01*
Y8522D01*
Y8489D01*
Y8446D01*
Y8391D01*
X192604Y8331D01*
Y8265D01*
X192610Y8189D01*
X192615Y8025D01*
X192632Y7856D01*
X192648Y7687D01*
X192670Y7528D01*
Y7523D01*
X192675Y7512D01*
Y7490D01*
X192686Y7463D01*
X192692Y7430D01*
X192703Y7392D01*
X192730Y7305D01*
X192763Y7206D01*
X192806Y7108D01*
X192856Y7010D01*
X192915Y6928D01*
X192926Y6917D01*
X192948Y6895D01*
X192987Y6862D01*
X193041Y6829D01*
X193107Y6791D01*
X193189Y6758D01*
X193281Y6737D01*
X193385Y6726D01*
X193412D01*
X193434Y6731D01*
X193489Y6737D01*
X193560Y6753D01*
X193636Y6775D01*
X193713Y6813D01*
X193789Y6862D01*
X193860Y6933D01*
X193866Y6944D01*
X193887Y6971D01*
X193920Y7021D01*
X193958Y7091D01*
X193997Y7173D01*
X194040Y7277D01*
X194073Y7403D01*
X194106Y7539D01*
Y7545D01*
X194111Y7556D01*
Y7583D01*
X194117Y7610D01*
X194122Y7654D01*
X194128Y7698D01*
X194133Y7758D01*
X194144Y7818D01*
X194149Y7889D01*
X194155Y7965D01*
X194160Y8053D01*
X194166Y8145D01*
X194171Y8244D01*
Y8347D01*
X194177Y8462D01*
Y8577D01*
Y8582D01*
Y8604D01*
Y8637D01*
Y8680D01*
Y8730D01*
X194171Y8790D01*
Y8855D01*
X194166Y8931D01*
X194160Y9090D01*
X194144Y9254D01*
X194128Y9418D01*
X194100Y9570D01*
Y9576D01*
X194095Y9587D01*
Y9609D01*
X194089Y9636D01*
X194079Y9669D01*
X194068Y9701D01*
X194046Y9789D01*
X194008Y9882D01*
X193969Y9980D01*
X193915Y10073D01*
X193855Y10155D01*
X193849Y10165D01*
X193822Y10187D01*
X193784Y10220D01*
X193729Y10258D01*
X193658Y10291D01*
X193576Y10324D01*
X193483Y10346D01*
X193374Y10357D01*
D02*
G37*
G36*
X209667Y10253D02*
X208886D01*
Y8768D01*
X209634D01*
X209672Y8773D01*
X209749Y8779D01*
X209841Y8784D01*
X209940Y8800D01*
X210038Y8817D01*
X210131Y8839D01*
X210136D01*
X210142Y8844D01*
X210169Y8855D01*
X210213Y8872D01*
X210262Y8893D01*
X210322Y8926D01*
X210382Y8970D01*
X210437Y9019D01*
X210486Y9074D01*
X210491Y9079D01*
X210508Y9106D01*
X210524Y9139D01*
X210551Y9194D01*
X210573Y9254D01*
X210590Y9330D01*
X210606Y9418D01*
X210611Y9510D01*
Y9516D01*
Y9527D01*
Y9543D01*
X210606Y9565D01*
X210600Y9625D01*
X210590Y9696D01*
X210562Y9778D01*
X210529Y9865D01*
X210486Y9953D01*
X210420Y10035D01*
X210409Y10045D01*
X210399Y10056D01*
X210377Y10067D01*
X210349Y10084D01*
X210317Y10105D01*
X210278Y10122D01*
X210229Y10144D01*
X210175Y10165D01*
X210115Y10182D01*
X210044Y10204D01*
X209962Y10220D01*
X209874Y10231D01*
X209776Y10242D01*
X209667Y10253D01*
D02*
G37*
G36*
X189710Y9838D02*
X188280Y7910D01*
X189710D01*
Y9838D01*
D02*
G37*
%LPD*%
D10*
X201772Y21949D02*
D03*
X286024Y78917D02*
D03*
D03*
X117520D02*
D03*
D03*
X15748Y104331D02*
D03*
Y15748D02*
D03*
X389764D02*
D03*
Y104331D02*
D03*
M02*
