G04*
G04 #@! TF.GenerationSoftware,Altium Limited,Altium Designer,22.4.2 (48)*
G04*
G04 Layer_Color=16711935*
%FSLAX25Y25*%
%MOIN*%
G70*
G04*
G04 #@! TF.SameCoordinates,407642F0-E37F-43E1-BC9E-C6ACD67937A9*
G04*
G04*
G04 #@! TF.FilePolarity,Positive*
G04*
G01*
G75*
%ADD13C,0.00050*%
D13*
X206718Y66049D02*
G03*
X206718Y66049I-3937J0D01*
G01*
X350616Y78942D02*
G03*
X350616Y78942I-19980J0D01*
G01*
X265379D02*
G03*
X265379Y78942I-19980J0D01*
G01*
X180143D02*
G03*
X180143Y78942I-19980J0D01*
G01*
X94907D02*
G03*
X94907Y78942I-19980J0D01*
G01*
X398078Y15734D02*
G03*
X398078Y15734I-8250J0D01*
G01*
X23984D02*
G03*
X23984Y15734I-8250J0D01*
G01*
X398078Y104395D02*
G03*
X398078Y104395I-8250J0D01*
G01*
X23984D02*
G03*
X23984Y104395I-8250J0D01*
G01*
X405537D02*
G03*
X389828Y120104I-15709J-0D01*
G01*
Y25D02*
G03*
X405537Y15734I0J15709D01*
G01*
X25Y15734D02*
G03*
X15734Y25I15709J0D01*
G01*
X15734Y120104D02*
G03*
X25Y104395I-0J-15709D01*
G01*
X325714Y101620D02*
X335557D01*
Y56265D02*
Y101620D01*
X325714Y56265D02*
X335557D01*
X325714D02*
Y101620D01*
X240478D02*
X250320D01*
Y56265D02*
Y101620D01*
X240478Y56265D02*
X250320D01*
X240478D02*
Y101620D01*
X155242D02*
X165084D01*
Y56265D02*
Y101620D01*
X155242Y56265D02*
X165084D01*
X155242D02*
Y101620D01*
X21063Y65748D02*
Y85433D01*
X30906D01*
Y65748D02*
Y85433D01*
X21063Y65748D02*
X30906D01*
X79848Y56265D02*
Y101620D01*
X70005Y56265D02*
X79848D01*
X70005D02*
Y101620D01*
X79848D01*
X405537Y15734D02*
Y104395D01*
X15734Y25D02*
X389828D01*
X25Y15734D02*
Y104395D01*
X15734Y120104D02*
X389828D01*
M02*
