M48
; DRILL file {KiCad 9.0.3} date 2025-09-21T22:43:29-0400
; FORMAT={-:-/ absolute / metric / decimal}
; #@! TF.CreationDate,2025-09-21T22:43:29-04:00
; #@! TF.GenerationSoftware,Kicad,Pcbnew,9.0.3
; #@! TF.FileFunction,Plated,1,6,PTH
FMAT,2
METRIC
; #@! TA.AperFunction,Plated,PTH,ViaDrill
T1C0.203
; #@! TA.AperFunction,Plated,PTH,ComponentDrill
T2C0.740
; #@! TA.AperFunction,Plated,PTH,ComponentDrill
T3C0.900
; #@! TA.AperFunction,Plated,PTH,ComponentDrill
T4C1.000
; #@! TA.AperFunction,Plated,PTH,ComponentDrill
T5C1.800
; #@! TA.AperFunction,Plated,PTH,ComponentDrill
T6C1.900
; #@! TA.AperFunction,Plated,PTH,ComponentDrill
T7C3.000
%
G90
G05
T1
X87.749Y-132.256
X87.751Y-61.754
X87.751Y-63.754
X87.751Y-65.754
X87.751Y-67.754
X87.751Y-69.754
X87.751Y-71.754
X87.751Y-73.754
X87.751Y-75.754
X87.751Y-77.754
X87.751Y-79.754
X87.751Y-81.754
X87.751Y-84.404
X87.751Y-86.404
X87.751Y-89.554
X87.751Y-91.554
X87.751Y-93.554
X87.751Y-95.554
X87.751Y-97.554
X87.751Y-99.554
X87.751Y-101.554
X87.751Y-103.554
X87.751Y-105.554
X87.751Y-107.054
X87.751Y-109.304
X87.751Y-111.054
X87.751Y-113.054
X87.751Y-115.054
X87.751Y-117.054
X87.751Y-119.054
X87.751Y-121.054
X87.751Y-123.054
X87.751Y-125.054
X87.751Y-127.704
X87.751Y-129.704
X87.751Y-133.704
X87.751Y-136.654
X87.751Y-138.254
X87.751Y-140.854
X87.751Y-142.504
X87.751Y-145.454
X87.751Y-147.054
X87.751Y-149.504
X88.751Y-62.754
X88.751Y-64.754
X88.751Y-66.754
X88.751Y-68.754
X88.751Y-70.754
X88.751Y-72.754
X88.751Y-74.754
X88.751Y-76.754
X88.751Y-78.754
X88.751Y-80.754
X88.751Y-90.554
X88.751Y-92.554
X88.751Y-94.554
X88.751Y-96.554
X88.751Y-98.554
X88.751Y-100.554
X88.751Y-102.554
X88.751Y-104.554
X88.751Y-110.054
X88.751Y-112.054
X88.751Y-114.054
X88.751Y-116.054
X88.751Y-118.054
X88.751Y-120.054
X88.751Y-122.054
X88.751Y-124.054
X89.001Y-84.404
X89.001Y-86.404
X89.301Y-105.554
X89.401Y-143.054
X89.501Y-69.804
X89.501Y-71.754
X89.501Y-77.754
X89.501Y-91.554
X89.501Y-113.054
X89.501Y-115.054
X89.501Y-121.054
X89.501Y-135.054
X89.551Y-61.754
X89.751Y-63.754
X89.751Y-65.754
X89.751Y-67.754
X89.751Y-73.754
X89.751Y-75.754
X89.751Y-79.554
X89.751Y-83.254
X89.751Y-87.554
X89.751Y-89.554
X89.751Y-93.554
X89.751Y-95.554
X89.751Y-97.554
X89.751Y-101.554
X89.751Y-103.554
X89.751Y-111.054
X89.751Y-117.054
X89.751Y-119.054
X89.751Y-123.054
X89.751Y-125.054
X89.751Y-133.054
X89.751Y-137.054
X89.751Y-139.054
X89.751Y-141.254
X89.751Y-145.054
X89.751Y-149.054
X90.251Y-105.554
X90.501Y-83.504
X90.513Y-87.292
X90.513Y-126.804
X90.513Y-130.592
X90.751Y-64.754
X90.751Y-66.554
X90.751Y-68.754
X90.751Y-73.054
X90.751Y-74.754
X90.751Y-76.304
X90.751Y-80.554
X90.751Y-88.554
X90.751Y-90.304
X90.751Y-94.554
X90.751Y-96.554
X90.751Y-102.554
X90.751Y-104.554
X90.751Y-110.304
X90.751Y-111.804
X90.751Y-116.304
X90.751Y-118.054
X90.751Y-119.554
X90.751Y-124.054
X90.751Y-132.054
X90.751Y-133.554
X90.751Y-138.054
X90.751Y-140.054
X90.751Y-145.654
X91.151Y-147.054
X91.401Y-127.704
X91.412Y-86.404
X91.412Y-129.704
X91.751Y-63.754
X91.751Y-65.754
X91.751Y-67.754
X91.751Y-73.754
X91.751Y-75.754
X91.751Y-81.554
X91.751Y-83.554
X91.751Y-87.554
X91.751Y-89.554
X91.751Y-95.554
X91.751Y-97.554
X91.751Y-103.554
X91.751Y-105.554
X91.751Y-117.054
X91.751Y-119.054
X91.751Y-125.054
X91.751Y-131.054
X91.751Y-133.054
X91.751Y-139.054
X91.751Y-140.654
X91.751Y-85.854
X91.751Y-149.054
X92.201Y-106.604
X92.201Y-109.604
X92.201Y-108.604
X92.401Y-64.754
X92.701Y-76.354
X92.751Y-62.754
X92.751Y-72.754
X92.751Y-102.554
X92.751Y-104.554
X92.751Y-112.054
X92.751Y-116.054
X92.751Y-118.054
X92.751Y-124.054
X92.751Y-126.054
X92.751Y-128.054
X92.751Y-130.054
X92.751Y-132.054
X92.751Y-133.554
X92.751Y-138.054
X92.751Y-140.054
X92.751Y-141.154
X92.751Y-145.654
X92.751Y-68.554
X92.751Y-74.554
X92.751Y-80.554
X92.751Y-82.554
X92.751Y-84.204
X92.751Y-88.554
X92.751Y-90.454
X92.751Y-94.554
X92.751Y-96.554
X93.051Y-66.304
X93.051Y-85.854
X93.301Y-106.554
X93.751Y-61.754
X93.751Y-63.754
X93.751Y-67.754
X93.751Y-134.639
X93.751Y-137.054
X93.751Y-142.239
X93.751Y-144.654
X93.751Y-149.054
X94.001Y-135.804
X94.001Y-143.404
X94.551Y-64.754
X94.751Y-142.154
X94.751Y-62.754
X94.751Y-108.054
X94.751Y-110.054
X94.751Y-112.054
X94.751Y-114.054
X94.751Y-116.054
X94.751Y-118.054
X94.751Y-120.054
X94.751Y-122.054
X94.751Y-124.054
X94.751Y-126.054
X94.751Y-132.054
X94.751Y-134.054
X94.751Y-136.054
X94.751Y-138.054
X94.751Y-140.054
X94.751Y-144.054
X94.751Y-70.554
X94.751Y-72.554
X94.751Y-74.554
X94.751Y-76.554
X94.751Y-78.554
X94.751Y-80.554
X94.751Y-82.554
X94.751Y-88.554
X94.751Y-90.554
X94.751Y-92.554
X94.751Y-94.554
X94.751Y-96.554
X94.751Y-98.554
X94.751Y-100.554
X94.751Y-102.554
X95.701Y-66.954
X95.751Y-60.054
X95.751Y-58.054
X95.751Y-143.054
X95.751Y-63.754
X95.751Y-145.054
X95.751Y-149.054
X96.501Y-69.304
X96.501Y-71.554
X96.501Y-89.804
X96.501Y-92.054
X96.501Y-110.304
X96.501Y-112.554
X96.501Y-135.054
X96.501Y-137.054
X96.501Y-147.054
X96.751Y-59.054
X96.751Y-142.154
X96.751Y-88.804
X96.751Y-103.204
X96.751Y-108.054
X96.751Y-112.054
X96.751Y-114.054
X96.751Y-116.054
X96.751Y-118.054
X96.751Y-120.054
X96.751Y-122.054
X96.751Y-124.054
X96.751Y-132.054
X96.751Y-134.054
X96.751Y-136.054
X96.751Y-138.054
X96.751Y-140.054
X96.751Y-144.054
X96.751Y-68.554
X96.751Y-70.554
X96.751Y-72.554
X96.751Y-74.554
X96.751Y-76.554
X96.751Y-78.554
X96.751Y-80.554
X96.751Y-90.554
X96.751Y-92.554
X96.751Y-94.554
X96.751Y-96.554
X96.751Y-98.554
X96.751Y-100.554
X96.951Y-64.754
X97.101Y-63.354
X97.651Y-67.854
X97.701Y-139.654
X97.726Y-93.529
X97.751Y-60.054
X97.751Y-62.054
X97.751Y-58.054
X97.751Y-143.054
X97.751Y-69.854
X97.751Y-72.204
X97.751Y-102.204
X97.751Y-105.054
X97.751Y-107.054
X97.751Y-109.054
X97.751Y-111.054
X97.751Y-113.054
X97.751Y-115.054
X97.751Y-117.054
X97.751Y-119.054
X97.751Y-121.054
X97.751Y-123.054
X97.751Y-125.054
X97.751Y-133.054
X97.751Y-135.054
X97.751Y-137.054
X97.751Y-74.004
X97.751Y-75.554
X97.751Y-77.554
X97.751Y-79.554
X97.751Y-81.554
X97.751Y-91.554
X97.751Y-95.554
X97.751Y-97.554
X97.751Y-99.554
X97.751Y-145.054
X97.751Y-149.054
X97.801Y-138.904
X97.801Y-140.354
X98.251Y-64.254
X98.251Y-140.904
X98.601Y-66.304
X98.601Y-67.754
X98.601Y-137.954
X98.651Y-136.054
X98.751Y-61.054
X98.751Y-63.054
X98.751Y-59.054
X98.751Y-101.204
X98.751Y-104.054
X98.751Y-106.054
X98.751Y-108.054
X98.751Y-110.054
X98.751Y-112.054
X98.751Y-114.054
X98.751Y-120.054
X98.751Y-122.054
X98.751Y-124.054
X98.751Y-132.054
X98.751Y-134.054
X98.751Y-76.554
X98.751Y-78.554
X98.751Y-80.554
X98.751Y-88.554
X98.751Y-90.554
X98.751Y-98.554
X98.751Y-142.154
X98.751Y-144.054
X98.801Y-141.304
X98.851Y-82.504
X99.024Y-65.154
X99.024Y-69.154
X99.024Y-70.554
X99.501Y-141.454
X99.751Y-62.054
X99.751Y-64.054
X99.751Y-60.054
X99.751Y-58.054
X99.751Y-99.404
X99.751Y-103.054
X99.751Y-105.054
X99.751Y-107.054
X99.751Y-109.054
X99.751Y-111.054
X99.751Y-113.054
X99.751Y-121.054
X99.751Y-123.054
X99.751Y-125.054
X99.751Y-131.054
X99.751Y-133.054
X99.751Y-77.554
X99.751Y-79.554
X99.751Y-81.554
X99.751Y-89.554
X99.751Y-91.554
X99.751Y-143.054
X99.751Y-145.054
X99.751Y-149.054
X99.901Y-83.554
X100.024Y-66.154
X100.024Y-68.154
X100.024Y-69.854
X100.201Y-141.304
X100.251Y-126.254
X100.251Y-127.704
X100.251Y-129.604
X100.401Y-116.054
X100.401Y-132.054
X100.401Y-135.579
X100.401Y-136.704
X100.401Y-137.954
X100.426Y-114.654
X100.451Y-98.554
X100.751Y-59.054
X100.751Y-140.904
X100.751Y-144.054
X101.024Y-67.154
X101.449Y-60.598
X101.449Y-62.098
X101.449Y-63.598
X101.449Y-65.098
X101.449Y-81.098
X101.449Y-82.598
X101.449Y-84.098
X101.449Y-85.598
X101.449Y-101.598
X101.449Y-103.098
X101.449Y-104.598
X101.449Y-106.098
X101.449Y-122.098
X101.449Y-123.598
X101.449Y-125.098
X101.449Y-126.598
X101.451Y-68.504
X101.451Y-69.754
X101.451Y-71.004
X101.451Y-74.404
X101.451Y-75.904
X101.451Y-77.404
X101.451Y-78.904
X101.451Y-89.004
X101.451Y-90.254
X101.451Y-91.504
X101.451Y-94.904
X101.451Y-96.404
X101.451Y-97.904
X101.451Y-99.404
X101.451Y-109.504
X101.451Y-110.754
X101.451Y-112.004
X101.451Y-115.404
X101.451Y-116.904
X101.451Y-118.404
X101.451Y-119.904
X101.451Y-130.004
X101.451Y-131.254
X101.451Y-132.504
X101.451Y-135.904
X101.451Y-137.404
X101.451Y-138.904
X101.451Y-140.404
X101.451Y-143.154
X101.451Y-145.054
X101.451Y-149.054
X101.475Y-147.048
X101.751Y-58.054
X102.334Y-66.677
X102.334Y-87.177
X102.334Y-107.677
X102.334Y-128.177
X102.736Y-65.129
X102.736Y-85.629
X102.736Y-106.129
X102.736Y-126.629
X102.749Y-60.598
X102.749Y-62.098
X102.749Y-63.604
X102.749Y-81.098
X102.749Y-82.598
X102.749Y-84.104
X102.749Y-101.598
X102.749Y-103.098
X102.749Y-104.604
X102.749Y-122.098
X102.749Y-123.598
X102.749Y-125.104
X102.751Y-59.054
X102.751Y-78.904
X102.751Y-99.404
X102.751Y-119.904
X102.751Y-140.404
X102.826Y-77.379
X102.826Y-97.879
X102.826Y-118.379
X102.826Y-138.879
X102.876Y-70.504
X102.876Y-72.704
X102.876Y-74.929
X102.876Y-91.004
X102.876Y-93.204
X102.876Y-95.429
X102.876Y-111.504
X102.876Y-113.704
X102.876Y-115.929
X102.876Y-132.004
X102.876Y-134.204
X102.876Y-136.429
X103.551Y-76.254
X103.551Y-96.754
X103.551Y-117.254
X103.551Y-137.754
X103.701Y-77.366
X103.701Y-97.866
X103.701Y-118.366
X103.701Y-138.866
X103.751Y-58.054
X104.049Y-60.598
X104.049Y-62.098
X104.049Y-63.604
X104.049Y-81.098
X104.049Y-82.598
X104.049Y-84.104
X104.049Y-101.598
X104.049Y-103.098
X104.049Y-104.604
X104.049Y-122.098
X104.049Y-123.598
X104.049Y-125.104
X104.051Y-78.904
X104.051Y-99.404
X104.051Y-119.904
X104.051Y-140.404
X104.251Y-77.977
X104.251Y-98.477
X104.251Y-118.977
X104.251Y-139.477
X104.331Y-65.116
X104.331Y-85.616
X104.331Y-106.116
X104.331Y-126.616
X104.376Y-70.504
X104.376Y-72.704
X104.376Y-74.929
X104.376Y-91.004
X104.376Y-93.204
X104.376Y-95.429
X104.376Y-111.504
X104.376Y-113.704
X104.376Y-115.929
X104.376Y-132.004
X104.376Y-134.204
X104.376Y-136.429
X104.751Y-59.054
X105.101Y-77.977
X105.101Y-98.477
X105.101Y-118.977
X105.101Y-139.477
X105.151Y-71.579
X105.151Y-73.804
X105.151Y-92.079
X105.151Y-94.304
X105.151Y-112.579
X105.151Y-114.804
X105.151Y-133.079
X105.151Y-135.304
X105.349Y-60.598
X105.349Y-62.098
X105.349Y-81.098
X105.349Y-82.598
X105.349Y-101.598
X105.349Y-103.098
X105.349Y-122.098
X105.349Y-123.598
X105.351Y-78.904
X105.351Y-99.404
X105.351Y-119.904
X105.351Y-140.404
X105.751Y-58.054
X105.876Y-70.504
X105.876Y-72.704
X105.876Y-74.929
X105.876Y-91.004
X105.876Y-93.204
X105.876Y-95.429
X105.876Y-111.504
X105.876Y-113.704
X105.876Y-115.929
X105.876Y-132.004
X105.876Y-134.204
X105.876Y-136.429
X105.926Y-65.104
X105.926Y-85.604
X105.926Y-106.104
X105.926Y-126.604
X105.951Y-77.977
X105.951Y-98.477
X105.951Y-118.977
X105.951Y-139.477
X106.201Y-66.254
X106.201Y-86.754
X106.201Y-107.254
X106.201Y-127.754
X106.401Y-62.098
X106.401Y-82.598
X106.401Y-103.098
X106.401Y-123.598
X106.501Y-77.366
X106.501Y-97.866
X106.501Y-118.366
X106.501Y-138.866
X106.651Y-71.579
X106.651Y-73.804
X106.651Y-92.079
X106.651Y-94.304
X106.651Y-112.579
X106.651Y-114.804
X106.651Y-133.079
X106.651Y-135.304
X106.751Y-59.054
X106.961Y-67.104
X106.961Y-68.104
X106.961Y-69.104
X106.961Y-70.104
X106.961Y-87.604
X106.961Y-88.604
X106.961Y-89.604
X106.961Y-90.604
X106.961Y-108.104
X106.961Y-109.104
X106.961Y-110.104
X106.961Y-111.104
X106.961Y-128.604
X106.961Y-129.604
X106.961Y-130.604
X106.961Y-131.604
X107.376Y-72.704
X107.376Y-74.929
X107.376Y-93.204
X107.376Y-95.429
X107.376Y-113.704
X107.376Y-115.929
X107.376Y-134.204
X107.376Y-136.429
X107.401Y-61.844
X107.401Y-62.484
X107.401Y-82.344
X107.401Y-82.984
X107.401Y-102.844
X107.401Y-103.484
X107.401Y-123.344
X107.401Y-123.984
X107.521Y-65.091
X107.521Y-66.254
X107.521Y-85.591
X107.521Y-86.754
X107.521Y-106.091
X107.521Y-107.254
X107.521Y-126.591
X107.521Y-127.754
X107.751Y-58.054
X108.091Y-73.829
X108.091Y-94.329
X108.091Y-114.829
X108.091Y-135.329
X108.301Y-70.079
X108.301Y-90.579
X108.301Y-111.079
X108.301Y-131.579
X108.751Y-59.054
X108.781Y-60.604
X108.781Y-81.104
X108.781Y-101.604
X108.781Y-122.104
X108.784Y-78.898
X108.784Y-99.398
X108.784Y-119.898
X108.784Y-140.398
X108.876Y-74.939
X108.876Y-95.439
X108.876Y-115.939
X108.876Y-136.439
X108.886Y-66.972
X108.886Y-87.472
X108.886Y-107.972
X108.886Y-128.472
X108.901Y-61.849
X108.901Y-62.489
X108.901Y-82.349
X108.901Y-82.989
X108.901Y-102.849
X108.901Y-103.489
X108.901Y-123.349
X108.901Y-123.989
X108.926Y-72.704
X108.926Y-93.204
X108.926Y-113.704
X108.926Y-134.204
X109.116Y-65.079
X109.116Y-85.579
X109.116Y-106.079
X109.116Y-126.579
X109.201Y-63.604
X109.201Y-84.104
X109.201Y-104.604
X109.201Y-125.104
X109.551Y-68.104
X109.551Y-88.604
X109.551Y-109.104
X109.551Y-129.604
X109.701Y-70.504
X109.701Y-91.004
X109.701Y-111.504
X109.701Y-132.004
X109.726Y-62.103
X109.726Y-82.603
X109.726Y-103.103
X109.726Y-123.603
X109.751Y-58.054
X109.881Y-67.214
X109.881Y-87.714
X109.881Y-108.214
X109.881Y-128.714
X110.031Y-60.604
X110.031Y-81.104
X110.031Y-101.604
X110.031Y-122.104
X110.034Y-78.898
X110.034Y-99.398
X110.034Y-119.898
X110.034Y-140.398
X110.081Y-77.466
X110.081Y-97.966
X110.081Y-118.466
X110.081Y-138.966
X110.121Y-72.714
X110.121Y-93.214
X110.121Y-113.714
X110.121Y-134.214
X110.176Y-63.604
X110.176Y-84.104
X110.176Y-104.604
X110.176Y-125.104
X110.301Y-65.074
X110.301Y-85.574
X110.301Y-106.074
X110.301Y-126.574
X110.376Y-74.929
X110.376Y-95.429
X110.376Y-115.929
X110.376Y-136.429
X110.576Y-62.103
X110.576Y-82.603
X110.576Y-103.103
X110.576Y-123.603
X110.601Y-76.304
X110.601Y-96.804
X110.601Y-117.304
X110.601Y-137.804
X110.711Y-65.651
X110.711Y-86.151
X110.711Y-106.651
X110.711Y-127.151
X110.751Y-59.054
X111.051Y-63.699
X111.051Y-84.199
X111.051Y-104.699
X111.051Y-125.199
X111.071Y-68.694
X111.071Y-89.194
X111.071Y-109.694
X111.071Y-130.194
X111.201Y-68.134
X111.201Y-88.634
X111.201Y-109.134
X111.201Y-129.634
X111.221Y-67.204
X111.221Y-87.704
X111.221Y-108.204
X111.221Y-128.704
X111.281Y-60.604
X111.281Y-81.104
X111.281Y-101.604
X111.281Y-122.104
X111.284Y-78.898
X111.284Y-99.398
X111.284Y-119.898
X111.284Y-140.398
X111.581Y-73.041
X111.581Y-75.266
X111.581Y-77.466
X111.581Y-93.541
X111.581Y-95.766
X111.581Y-97.966
X111.581Y-114.041
X111.581Y-116.266
X111.581Y-118.466
X111.581Y-134.541
X111.581Y-136.766
X111.581Y-138.966
X111.701Y-63.039
X111.701Y-83.539
X111.701Y-104.039
X111.701Y-124.539
X111.751Y-58.054
X111.876Y-62.103
X111.876Y-82.603
X111.876Y-103.103
X111.876Y-123.603
X112.311Y-67.074
X112.311Y-87.574
X112.311Y-108.074
X112.311Y-128.574
X112.361Y-64.954
X112.361Y-85.454
X112.361Y-105.954
X112.361Y-126.454
X112.381Y-63.689
X112.381Y-84.189
X112.381Y-104.689
X112.381Y-125.189
X112.751Y-59.054
X113.081Y-73.041
X113.081Y-75.266
X113.081Y-77.466
X113.081Y-93.541
X113.081Y-95.766
X113.081Y-97.966
X113.081Y-114.041
X113.081Y-116.266
X113.081Y-118.466
X113.081Y-134.541
X113.081Y-136.766
X113.081Y-138.966
X113.401Y-62.124
X113.401Y-82.624
X113.401Y-103.124
X113.401Y-123.624
X113.511Y-63.624
X113.511Y-84.124
X113.511Y-104.624
X113.511Y-125.124
X113.546Y-64.954
X113.546Y-85.454
X113.546Y-105.954
X113.546Y-126.454
X113.561Y-67.074
X113.561Y-87.574
X113.561Y-108.074
X113.561Y-128.574
X113.571Y-70.354
X113.571Y-90.854
X113.571Y-111.354
X113.571Y-131.854
X113.701Y-68.884
X113.701Y-89.384
X113.701Y-109.884
X113.701Y-130.384
X113.751Y-58.054
X113.856Y-74.141
X113.856Y-94.641
X113.856Y-115.141
X113.856Y-135.641
X114.051Y-61.464
X114.051Y-81.964
X114.051Y-102.464
X114.051Y-122.964
X114.581Y-73.041
X114.581Y-75.266
X114.581Y-77.466
X114.581Y-93.541
X114.581Y-95.766
X114.581Y-97.966
X114.581Y-114.041
X114.581Y-116.266
X114.581Y-118.466
X114.581Y-134.541
X114.581Y-136.766
X114.581Y-138.966
X114.731Y-62.114
X114.731Y-63.624
X114.731Y-64.954
X114.731Y-82.614
X114.731Y-84.124
X114.731Y-85.454
X114.731Y-103.114
X114.731Y-104.624
X114.731Y-105.954
X114.731Y-123.614
X114.731Y-125.124
X114.731Y-126.454
X114.751Y-59.054
X114.781Y-60.604
X114.781Y-81.104
X114.781Y-101.604
X114.781Y-122.104
X114.784Y-78.898
X114.784Y-99.398
X114.784Y-119.898
X114.784Y-140.398
X115.291Y-65.724
X115.291Y-86.224
X115.291Y-106.724
X115.291Y-127.224
X115.356Y-74.141
X115.356Y-94.641
X115.356Y-115.141
X115.356Y-135.641
X115.381Y-61.524
X115.381Y-82.024
X115.381Y-102.524
X115.381Y-123.024
X115.621Y-70.664
X115.621Y-91.164
X115.621Y-111.664
X115.621Y-132.164
X115.731Y-68.864
X115.731Y-89.364
X115.731Y-109.864
X115.731Y-130.364
X115.751Y-58.054
X115.851Y-63.624
X115.851Y-64.954
X115.851Y-84.124
X115.851Y-85.454
X115.851Y-104.624
X115.851Y-105.954
X115.851Y-125.124
X115.851Y-126.454
X115.871Y-67.119
X115.871Y-87.619
X115.871Y-108.119
X115.871Y-128.619
X115.986Y-71.529
X115.986Y-72.529
X115.986Y-92.029
X115.986Y-93.029
X115.986Y-112.529
X115.986Y-113.529
X115.986Y-133.029
X115.986Y-134.029
X116.031Y-60.604
X116.031Y-81.104
X116.031Y-101.604
X116.031Y-122.104
X116.034Y-78.898
X116.034Y-99.398
X116.034Y-119.898
X116.034Y-140.398
X116.081Y-75.266
X116.081Y-77.466
X116.081Y-95.766
X116.081Y-97.966
X116.081Y-116.266
X116.081Y-118.466
X116.081Y-136.766
X116.081Y-138.966
X116.351Y-61.464
X116.351Y-81.964
X116.351Y-102.464
X116.351Y-122.964
X116.751Y-59.054
X116.971Y-63.624
X116.971Y-64.954
X116.971Y-67.119
X116.971Y-84.124
X116.971Y-85.454
X116.971Y-87.619
X116.971Y-104.624
X116.971Y-105.954
X116.971Y-108.119
X116.971Y-125.124
X116.971Y-126.454
X116.971Y-128.619
X116.991Y-68.764
X116.991Y-89.264
X116.991Y-109.764
X116.991Y-130.264
X117.001Y-62.114
X117.001Y-82.614
X117.001Y-103.114
X117.001Y-123.614
X117.281Y-60.604
X117.281Y-81.104
X117.281Y-101.604
X117.281Y-122.104
X117.284Y-78.898
X117.284Y-99.398
X117.284Y-119.898
X117.284Y-140.398
X117.321Y-70.554
X117.321Y-91.054
X117.321Y-111.554
X117.321Y-132.054
X117.326Y-69.554
X117.326Y-90.054
X117.326Y-110.554
X117.326Y-131.054
X117.501Y-72.854
X117.501Y-93.354
X117.501Y-113.854
X117.501Y-134.354
X117.526Y-64.304
X117.526Y-84.804
X117.526Y-105.304
X117.526Y-125.804
X117.581Y-75.266
X117.581Y-77.466
X117.581Y-95.766
X117.581Y-97.966
X117.581Y-116.266
X117.581Y-118.466
X117.581Y-136.766
X117.581Y-138.966
X117.621Y-65.774
X117.621Y-66.434
X117.621Y-86.274
X117.621Y-86.934
X117.621Y-106.774
X117.621Y-107.434
X117.621Y-127.274
X117.621Y-127.934
X117.751Y-58.054
X117.821Y-67.616
X117.821Y-88.116
X117.821Y-108.616
X117.821Y-129.116
X118.101Y-63.629
X118.101Y-84.129
X118.101Y-104.629
X118.101Y-125.129
X118.321Y-65.124
X118.321Y-67.084
X118.321Y-85.624
X118.321Y-87.584
X118.321Y-106.124
X118.321Y-108.084
X118.321Y-126.624
X118.321Y-128.584
X118.596Y-72.841
X118.596Y-93.341
X118.596Y-113.841
X118.596Y-134.341
X118.651Y-70.341
X118.651Y-90.841
X118.651Y-111.341
X118.651Y-131.841
X118.656Y-64.309
X118.656Y-84.809
X118.656Y-105.309
X118.656Y-125.809
X118.751Y-59.054
X118.981Y-65.124
X118.981Y-67.084
X118.981Y-85.624
X118.981Y-87.584
X118.981Y-106.124
X118.981Y-108.084
X118.981Y-126.624
X118.981Y-128.584
X119.091Y-69.559
X119.091Y-90.059
X119.091Y-110.559
X119.091Y-131.059
X119.106Y-71.091
X119.106Y-91.591
X119.106Y-112.091
X119.106Y-132.591
X119.176Y-75.254
X119.176Y-77.466
X119.176Y-95.754
X119.176Y-97.966
X119.176Y-116.254
X119.176Y-118.466
X119.176Y-136.754
X119.176Y-138.966
X119.231Y-63.634
X119.231Y-84.134
X119.231Y-104.634
X119.231Y-125.134
X119.451Y-68.134
X119.451Y-88.634
X119.451Y-109.134
X119.451Y-129.634
X119.681Y-65.774
X119.681Y-66.434
X119.681Y-86.274
X119.681Y-86.934
X119.681Y-106.774
X119.681Y-107.434
X119.681Y-127.274
X119.681Y-127.934
X119.751Y-58.054
X119.751Y-68.664
X119.751Y-89.164
X119.751Y-109.664
X119.751Y-130.164
X120.141Y-61.604
X120.141Y-62.854
X120.141Y-64.104
X120.141Y-65.224
X120.141Y-67.854
X120.141Y-82.104
X120.141Y-83.354
X120.141Y-84.604
X120.141Y-85.724
X120.141Y-88.354
X120.141Y-102.604
X120.141Y-103.854
X120.141Y-105.104
X120.141Y-106.224
X120.141Y-108.854
X120.141Y-123.104
X120.141Y-124.354
X120.141Y-125.604
X120.141Y-126.724
X120.141Y-129.354
X120.141Y-76.291
X120.141Y-96.791
X120.141Y-117.291
X120.141Y-137.791
X120.141Y-66.954
X120.141Y-87.454
X120.141Y-107.954
X120.141Y-128.454
X120.651Y-74.879
X120.651Y-95.379
X120.651Y-115.879
X120.651Y-136.379
X120.751Y-59.054
X120.781Y-60.604
X120.781Y-81.104
X120.781Y-101.604
X120.781Y-122.104
X120.784Y-78.898
X120.784Y-99.398
X120.784Y-119.898
X120.784Y-140.398
X121.426Y-62.304
X121.426Y-82.804
X121.426Y-103.304
X121.426Y-123.804
X121.444Y-63.286
X121.444Y-83.786
X121.444Y-104.286
X121.444Y-124.786
X121.651Y-73.879
X121.651Y-94.379
X121.651Y-114.879
X121.651Y-135.379
X121.751Y-58.054
X122.001Y-69.529
X122.001Y-90.029
X122.001Y-110.529
X122.001Y-131.029
X122.001Y-71.914
X122.001Y-92.414
X122.001Y-112.914
X122.001Y-133.414
X122.031Y-60.604
X122.031Y-81.104
X122.031Y-101.604
X122.031Y-122.104
X122.034Y-78.898
X122.034Y-99.398
X122.034Y-119.898
X122.034Y-140.398
X122.101Y-61.629
X122.101Y-82.129
X122.101Y-102.629
X122.101Y-123.129
X122.751Y-59.054
X123.026Y-61.629
X123.026Y-82.129
X123.026Y-102.629
X123.026Y-123.129
X123.281Y-60.604
X123.281Y-81.104
X123.281Y-101.604
X123.281Y-122.104
X123.284Y-78.898
X123.284Y-99.398
X123.284Y-119.898
X123.284Y-140.398
X123.501Y-75.529
X123.501Y-76.454
X123.501Y-96.029
X123.501Y-96.954
X123.501Y-116.529
X123.501Y-117.454
X123.501Y-137.029
X123.501Y-137.954
X123.658Y-62.304
X123.658Y-82.804
X123.658Y-103.304
X123.658Y-123.804
X123.676Y-67.754
X123.676Y-88.254
X123.676Y-108.754
X123.676Y-129.254
X123.751Y-58.054
X123.901Y-66.379
X123.901Y-86.879
X123.901Y-107.379
X123.901Y-127.879
X124.076Y-68.729
X124.076Y-89.229
X124.076Y-109.729
X124.076Y-130.229
X124.151Y-73.554
X124.151Y-74.254
X124.151Y-94.054
X124.151Y-94.754
X124.151Y-114.554
X124.151Y-115.254
X124.151Y-135.054
X124.151Y-135.754
X124.476Y-61.829
X124.476Y-82.329
X124.476Y-102.829
X124.476Y-123.329
X124.751Y-59.054
X125.001Y-63.829
X125.001Y-65.029
X125.001Y-84.329
X125.001Y-85.529
X125.001Y-104.829
X125.001Y-106.029
X125.001Y-125.329
X125.001Y-126.529
X125.551Y-67.404
X125.551Y-87.904
X125.551Y-108.404
X125.551Y-128.904
X125.576Y-70.229
X125.576Y-73.204
X125.576Y-90.729
X125.576Y-93.704
X125.576Y-111.229
X125.576Y-114.204
X125.576Y-131.729
X125.576Y-134.704
X125.601Y-64.429
X125.601Y-84.929
X125.601Y-105.429
X125.601Y-125.929
X125.649Y-66.727
X125.649Y-87.227
X125.649Y-107.727
X125.649Y-128.227
X125.751Y-58.054
X125.951Y-68.304
X125.951Y-88.804
X125.951Y-109.304
X125.951Y-129.804
X126.151Y-67.729
X126.151Y-88.229
X126.151Y-108.729
X126.151Y-129.229
X126.201Y-63.829
X126.201Y-65.029
X126.201Y-84.329
X126.201Y-85.529
X126.201Y-104.829
X126.201Y-106.029
X126.201Y-125.329
X126.201Y-126.529
X126.276Y-75.479
X126.276Y-95.979
X126.276Y-116.479
X126.276Y-136.979
X126.576Y-70.229
X126.576Y-90.729
X126.576Y-111.229
X126.576Y-131.729
X126.714Y-60.598
X126.714Y-81.098
X126.714Y-101.598
X126.714Y-122.098
X126.716Y-78.904
X126.716Y-99.404
X126.716Y-119.904
X126.716Y-140.404
X126.726Y-61.829
X126.726Y-82.329
X126.726Y-102.829
X126.726Y-123.329
X126.751Y-59.054
X127.026Y-66.379
X127.026Y-86.879
X127.026Y-107.379
X127.026Y-127.879
X127.544Y-62.304
X127.544Y-82.804
X127.544Y-103.304
X127.544Y-123.804
X127.551Y-65.929
X127.551Y-86.429
X127.551Y-106.929
X127.551Y-127.429
X127.676Y-64.679
X127.676Y-85.179
X127.676Y-105.679
X127.676Y-126.179
X127.751Y-58.054
X128.014Y-60.598
X128.014Y-81.098
X128.014Y-101.598
X128.014Y-122.098
X128.016Y-78.904
X128.016Y-99.404
X128.016Y-119.904
X128.016Y-140.404
X128.076Y-74.354
X128.076Y-94.854
X128.076Y-115.354
X128.076Y-135.854
X128.101Y-76.104
X128.101Y-96.604
X128.101Y-117.104
X128.101Y-137.604
X128.176Y-61.629
X128.176Y-82.129
X128.176Y-102.629
X128.176Y-123.129
X128.701Y-74.654
X128.701Y-95.154
X128.701Y-115.654
X128.701Y-136.154
X128.751Y-59.054
X129.101Y-61.629
X129.101Y-82.129
X129.101Y-102.629
X129.101Y-123.129
X129.176Y-67.729
X129.176Y-73.004
X129.176Y-88.229
X129.176Y-93.504
X129.176Y-108.729
X129.176Y-114.004
X129.176Y-129.229
X129.176Y-134.504
X129.314Y-60.598
X129.314Y-81.098
X129.314Y-101.598
X129.314Y-122.098
X129.316Y-78.904
X129.316Y-99.404
X129.316Y-119.904
X129.316Y-140.404
X129.751Y-58.054
X129.758Y-63.286
X129.758Y-83.786
X129.758Y-104.286
X129.758Y-124.786
X129.776Y-62.304
X129.776Y-82.804
X129.776Y-103.304
X129.776Y-123.804
X129.826Y-63.929
X129.826Y-84.429
X129.826Y-104.929
X129.826Y-125.429
X130.611Y-68.254
X130.611Y-69.754
X130.611Y-71.004
X130.611Y-89.004
X130.611Y-90.254
X130.611Y-91.504
X130.611Y-109.504
X130.611Y-110.754
X130.611Y-112.004
X130.611Y-130.004
X130.611Y-131.254
X130.611Y-132.504
X130.614Y-60.598
X130.614Y-62.098
X130.614Y-63.229
X130.614Y-81.098
X130.614Y-82.598
X130.614Y-83.729
X130.614Y-101.598
X130.614Y-103.098
X130.614Y-104.229
X130.614Y-122.098
X130.614Y-123.598
X130.614Y-124.729
X130.616Y-74.404
X130.616Y-75.904
X130.616Y-77.404
X130.616Y-78.904
X130.616Y-94.904
X130.616Y-96.404
X130.616Y-97.904
X130.616Y-99.404
X130.616Y-115.404
X130.616Y-116.904
X130.616Y-118.404
X130.616Y-119.904
X130.616Y-135.754
X130.616Y-137.404
X130.616Y-138.904
X130.616Y-140.404
X130.751Y-59.054
X131.126Y-134.354
X131.726Y-70.604
X131.726Y-72.104
X131.726Y-73.604
X131.726Y-75.104
X131.726Y-76.604
X131.726Y-77.904
X131.726Y-79.854
X131.726Y-91.354
X131.726Y-93.354
X131.726Y-95.354
X131.726Y-97.354
X131.726Y-99.354
X131.726Y-111.654
X131.726Y-113.654
X131.726Y-115.654
X131.726Y-117.654
X131.726Y-119.654
X131.751Y-58.054
X131.776Y-65.579
X131.776Y-66.579
X131.776Y-67.354
X131.776Y-86.079
X131.776Y-87.079
X131.776Y-87.854
X131.776Y-106.579
X131.776Y-107.579
X131.776Y-108.354
X131.776Y-127.079
X131.776Y-128.079
X131.776Y-128.854
X131.801Y-60.479
X131.801Y-61.329
X131.801Y-62.279
X131.801Y-63.229
X131.801Y-68.104
X131.801Y-80.879
X131.801Y-81.829
X131.801Y-82.779
X131.801Y-83.729
X131.801Y-88.604
X131.801Y-101.379
X131.801Y-102.329
X131.801Y-103.279
X131.801Y-104.229
X131.801Y-109.104
X131.801Y-121.879
X131.801Y-122.829
X131.801Y-123.779
X131.801Y-124.729
X131.801Y-129.604
X131.916Y-140.404
X132.126Y-133.354
X132.126Y-135.354
X132.126Y-136.654
X132.126Y-137.954
X132.376Y-90.354
X132.376Y-92.354
X132.376Y-94.354
X132.376Y-96.354
X132.376Y-98.354
X132.376Y-112.654
X132.376Y-114.654
X132.376Y-116.654
X132.376Y-118.654
X132.551Y-144.204
X132.551Y-145.504
X132.551Y-146.804
X132.566Y-141.404
X132.751Y-59.054
X132.926Y-134.554
X133.216Y-140.404
X133.286Y-71.804
X133.286Y-74.304
X133.286Y-75.804
X133.301Y-68.964
X133.301Y-89.464
X133.301Y-109.964
X133.301Y-130.464
X133.326Y-77.904
X133.326Y-79.854
X133.376Y-65.329
X133.376Y-66.329
X133.376Y-67.329
X133.376Y-85.829
X133.376Y-86.829
X133.376Y-87.829
X133.376Y-91.354
X133.376Y-93.354
X133.376Y-95.354
X133.376Y-97.354
X133.376Y-99.354
X133.376Y-106.329
X133.376Y-107.329
X133.376Y-108.329
X133.376Y-111.654
X133.376Y-113.654
X133.376Y-115.654
X133.376Y-117.654
X133.376Y-119.654
X133.376Y-126.829
X133.376Y-127.829
X133.376Y-128.829
X133.376Y-138.304
X133.551Y-142.429
X133.626Y-133.879
X133.651Y-147.754
X133.651Y-148.754
X133.751Y-58.054
X133.866Y-141.404
X133.891Y-69.204
X133.891Y-89.704
X133.891Y-110.204
X133.891Y-130.704
X133.926Y-143.554
X133.926Y-144.854
X134.351Y-72.779
X134.376Y-65.329
X134.376Y-66.329
X134.376Y-67.329
X134.376Y-78.854
X134.376Y-85.829
X134.376Y-86.829
X134.376Y-87.829
X134.376Y-92.354
X134.376Y-94.354
X134.376Y-96.354
X134.376Y-98.354
X134.376Y-106.329
X134.376Y-107.329
X134.376Y-108.329
X134.376Y-112.654
X134.376Y-114.654
X134.376Y-116.654
X134.376Y-118.654
X134.376Y-120.654
X134.376Y-126.829
X134.376Y-127.829
X134.376Y-128.829
X134.501Y-133.879
X134.516Y-140.404
X134.651Y-147.754
X134.651Y-148.754
X134.751Y-59.054
X134.861Y-69.204
X134.861Y-89.704
X134.861Y-110.204
X134.861Y-130.704
X135.001Y-138.679
X135.166Y-141.404
X135.326Y-133.879
X135.351Y-72.189
X135.351Y-72.779
X135.376Y-60.754
X135.376Y-61.579
X135.376Y-65.329
X135.376Y-66.329
X135.376Y-67.329
X135.376Y-77.904
X135.376Y-79.854
X135.376Y-81.454
X135.376Y-82.054
X135.376Y-85.829
X135.376Y-86.829
X135.376Y-87.829
X135.376Y-91.504
X135.376Y-93.354
X135.376Y-95.354
X135.376Y-97.354
X135.376Y-99.654
X135.376Y-101.754
X135.376Y-102.554
X135.376Y-106.329
X135.376Y-107.329
X135.376Y-108.329
X135.376Y-113.654
X135.376Y-115.654
X135.376Y-117.654
X135.376Y-119.654
X135.376Y-121.654
X135.376Y-122.354
X135.376Y-123.004
X135.376Y-126.829
X135.376Y-127.829
X135.376Y-128.829
X135.401Y-75.104
X135.401Y-75.904
X135.401Y-76.729
X135.511Y-135.014
X135.626Y-70.079
X135.626Y-90.579
X135.626Y-111.079
X135.626Y-131.579
X135.651Y-148.754
X135.751Y-58.054
X135.816Y-140.404
X135.876Y-63.704
X135.876Y-84.204
X135.876Y-104.704
X135.876Y-125.204
X135.901Y-139.554
X136.041Y-72.779
X136.126Y-133.354
X136.401Y-147.754
X136.466Y-141.404
X136.551Y-70.104
X136.551Y-90.604
X136.551Y-111.104
X136.551Y-131.604
X136.716Y-72.779
X136.751Y-59.054
X136.851Y-137.379
X137.051Y-63.754
X137.051Y-84.254
X137.051Y-104.754
X137.051Y-125.254
X137.056Y-66.026
X137.056Y-86.526
X137.056Y-107.026
X137.056Y-127.526
X137.076Y-66.599
X137.076Y-87.099
X137.076Y-107.599
X137.076Y-128.099
X137.126Y-133.354
X137.151Y-148.754
X137.226Y-72.779
X137.301Y-62.304
X137.301Y-82.804
X137.301Y-103.304
X137.301Y-123.804
X137.337Y-67.487
X137.337Y-87.987
X137.337Y-108.487
X137.337Y-128.987
X137.576Y-70.904
X137.576Y-76.904
X137.576Y-78.904
X137.576Y-80.904
X137.576Y-91.504
X137.576Y-93.454
X137.576Y-95.454
X137.576Y-97.454
X137.576Y-99.454
X137.576Y-101.454
X137.576Y-113.454
X137.576Y-115.454
X137.576Y-117.454
X137.576Y-119.454
X137.576Y-121.454
X137.701Y-135.329
X137.701Y-135.979
X137.701Y-136.779
X137.701Y-137.429
X137.751Y-58.054
X137.901Y-147.754
X138.126Y-133.354
X138.351Y-135.329
X138.351Y-135.979
X138.351Y-136.779
X138.351Y-137.429
X138.651Y-148.754
X138.751Y-59.054
X139.126Y-73.904
X139.126Y-75.904
X139.126Y-77.904
X139.126Y-79.904
X139.126Y-81.904
X139.126Y-93.904
X139.126Y-95.904
X139.126Y-97.904
X139.126Y-99.904
X139.126Y-101.904
X139.126Y-103.904
X139.126Y-111.904
X139.126Y-113.904
X139.126Y-115.904
X139.126Y-117.904
X139.126Y-119.904
X139.126Y-121.904
X139.126Y-123.904
X139.126Y-133.354
X139.151Y-139.344
X139.151Y-139.954
X139.151Y-135.329
X139.151Y-135.979
X139.382Y-64.287
X139.382Y-84.787
X139.382Y-85.987
X139.382Y-105.287
X139.382Y-125.787
X139.401Y-68.454
X139.401Y-87.754
X139.401Y-88.954
X139.401Y-109.454
X139.401Y-129.954
X139.401Y-147.754
X139.482Y-65.487
X139.482Y-106.487
X139.482Y-126.987
X139.501Y-67.254
X139.501Y-108.254
X139.501Y-128.754
X139.751Y-60.054
X139.751Y-58.054
X140.051Y-139.954
X140.126Y-62.904
X140.126Y-64.904
X140.126Y-68.904
X140.126Y-70.904
X140.126Y-72.904
X140.126Y-74.904
X140.126Y-76.904
X140.126Y-78.904
X140.126Y-80.904
X140.126Y-82.904
X140.126Y-84.904
X140.126Y-92.904
X140.126Y-94.904
X140.126Y-96.904
X140.126Y-98.904
X140.126Y-100.904
X140.126Y-102.904
X140.126Y-104.904
X140.126Y-108.904
X140.126Y-110.904
X140.126Y-112.904
X140.126Y-114.904
X140.126Y-116.904
X140.126Y-118.904
X140.126Y-120.904
X140.126Y-122.904
X140.126Y-124.904
X140.126Y-130.904
X140.126Y-133.354
X140.151Y-148.754
X140.301Y-135.329
X140.301Y-135.979
X140.326Y-88.904
X140.536Y-128.644
X140.551Y-67.479
X140.751Y-59.054
X140.901Y-140.354
X140.901Y-141.354
X140.901Y-142.354
X140.901Y-143.354
X140.901Y-147.754
X140.926Y-125.904
X141.026Y-85.904
X141.026Y-89.904
X141.026Y-105.904
X141.126Y-63.904
X141.126Y-69.904
X141.126Y-71.904
X141.126Y-73.904
X141.126Y-75.904
X141.126Y-77.904
X141.126Y-79.904
X141.126Y-81.904
X141.126Y-91.904
X141.126Y-93.904
X141.126Y-95.904
X141.126Y-97.904
X141.126Y-99.904
X141.126Y-101.904
X141.126Y-103.904
X141.126Y-109.904
X141.126Y-111.904
X141.126Y-113.904
X141.126Y-115.904
X141.126Y-117.904
X141.126Y-119.904
X141.126Y-121.904
X141.126Y-123.904
X141.126Y-129.904
X141.126Y-131.904
X141.126Y-133.354
X141.226Y-65.804
X141.326Y-87.904
X141.326Y-107.904
X141.326Y-127.904
X141.651Y-148.754
X141.751Y-60.054
X141.751Y-58.054
X141.926Y-124.904
X142.026Y-88.904
X142.026Y-104.904
X142.126Y-62.904
X142.126Y-64.904
X142.126Y-70.904
X142.126Y-72.904
X142.126Y-74.904
X142.126Y-76.904
X142.126Y-78.904
X142.126Y-80.904
X142.126Y-92.904
X142.126Y-94.904
X142.126Y-96.904
X142.126Y-102.904
X142.126Y-108.904
X142.126Y-110.904
X142.126Y-112.904
X142.126Y-114.904
X142.126Y-116.904
X142.126Y-118.904
X142.126Y-120.904
X142.126Y-122.904
X142.126Y-128.904
X142.126Y-130.904
X142.126Y-133.354
X142.126Y-134.354
X142.126Y-139.354
X142.126Y-141.354
X142.326Y-86.904
X142.326Y-106.904
X142.326Y-126.904
X142.731Y-138.564
X142.751Y-59.054
X142.926Y-123.904
X143.026Y-87.904
X143.126Y-63.904
X143.126Y-65.904
X143.126Y-71.904
X143.126Y-73.904
X143.126Y-75.904
X143.126Y-77.904
X143.126Y-79.904
X143.126Y-107.904
X143.126Y-109.904
X143.126Y-111.904
X143.126Y-113.904
X143.126Y-115.904
X143.126Y-117.904
X143.126Y-119.904
X143.126Y-121.904
X143.126Y-127.904
X143.126Y-129.904
X143.126Y-131.904
X143.126Y-134.354
X143.126Y-140.354
X143.326Y-85.904
X143.326Y-105.904
X143.326Y-125.904
X143.731Y-138.564
X143.751Y-60.054
X143.751Y-58.054
X143.926Y-122.904
X144.026Y-86.904
X144.126Y-62.904
X144.126Y-64.904
X144.126Y-66.904
X144.126Y-72.904
X144.126Y-74.904
X144.126Y-76.904
X144.126Y-78.904
X144.126Y-92.904
X144.126Y-94.904
X144.126Y-96.904
X144.126Y-102.904
X144.126Y-104.904
X144.126Y-106.904
X144.126Y-108.904
X144.126Y-110.904
X144.126Y-112.904
X144.126Y-114.904
X144.126Y-116.904
X144.126Y-118.904
X144.126Y-120.904
X144.126Y-126.904
X144.126Y-128.904
X144.126Y-130.904
X144.126Y-133.354
X144.126Y-134.354
X144.126Y-139.354
X144.126Y-141.354
X144.126Y-143.354
X144.126Y-145.654
X144.326Y-84.904
X144.326Y-88.904
X144.326Y-124.904
X144.731Y-138.564
X144.751Y-59.054
X144.926Y-121.904
X145.026Y-71.904
X145.026Y-85.904
X145.026Y-89.904
X145.126Y-63.904
X145.126Y-65.904
X145.126Y-67.904
X145.126Y-73.904
X145.126Y-75.904
X145.126Y-77.904
X145.126Y-79.904
X145.126Y-91.904
X145.126Y-93.904
X145.126Y-95.904
X145.126Y-97.904
X145.126Y-99.904
X145.126Y-101.904
X145.126Y-103.904
X145.126Y-105.904
X145.126Y-107.904
X145.126Y-109.904
X145.126Y-111.904
X145.126Y-113.904
X145.126Y-115.904
X145.126Y-117.904
X145.126Y-119.904
X145.126Y-125.904
X145.126Y-127.904
X145.126Y-129.904
X145.126Y-131.904
X145.126Y-134.354
X145.126Y-140.354
X145.126Y-142.354
X145.126Y-143.554
X145.326Y-83.904
X145.326Y-87.904
X145.326Y-123.904
X145.351Y-144.279
X145.701Y-148.754
X145.731Y-138.564
X145.751Y-60.054
X145.751Y-58.054
X145.926Y-120.904
X146.026Y-72.904
X146.026Y-84.904
X146.026Y-88.904
X146.026Y-141.254
X146.026Y-143.029
X146.056Y-80.904
X146.126Y-62.904
X146.126Y-64.904
X146.126Y-66.904
X146.126Y-68.904
X146.126Y-74.904
X146.126Y-76.904
X146.126Y-78.904
X146.126Y-92.904
X146.126Y-94.904
X146.126Y-96.904
X146.126Y-98.904
X146.126Y-100.904
X146.126Y-102.904
X146.126Y-104.904
X146.126Y-106.904
X146.126Y-108.904
X146.126Y-110.904
X146.126Y-112.904
X146.126Y-114.904
X146.126Y-116.904
X146.126Y-118.904
X146.126Y-124.904
X146.126Y-130.904
X146.126Y-133.354
X146.126Y-134.354
X146.126Y-139.354
X146.276Y-145.654
X146.276Y-147.054
X146.326Y-70.904
X146.326Y-82.904
X146.326Y-86.904
X146.326Y-122.904
X146.731Y-138.564
X146.751Y-59.054
X147.026Y-73.904
X147.026Y-83.904
X147.026Y-87.904
X147.026Y-140.254
X147.126Y-63.904
X147.126Y-65.904
X147.126Y-67.904
X147.126Y-69.904
X147.126Y-75.904
X147.126Y-77.904
X147.126Y-79.904
X147.126Y-123.904
X147.126Y-125.704
X147.126Y-130.104
X147.126Y-131.904
X147.126Y-134.354
X147.326Y-71.904
X147.326Y-81.904
X147.326Y-85.904
X147.326Y-121.904
X147.751Y-60.054
X147.751Y-58.054
X148.026Y-74.904
X148.026Y-82.904
X148.026Y-86.904
X148.026Y-139.254
X148.026Y-143.004
X148.126Y-62.904
X148.126Y-64.904
X148.126Y-66.904
X148.126Y-68.904
X148.126Y-70.904
X148.126Y-76.904
X148.126Y-78.904
X148.126Y-92.904
X148.126Y-94.904
X148.126Y-96.904
X148.126Y-98.904
X148.126Y-100.904
X148.126Y-102.904
X148.126Y-104.904
X148.126Y-106.904
X148.126Y-108.904
X148.126Y-110.904
X148.126Y-112.904
X148.126Y-114.904
X148.126Y-116.904
X148.126Y-118.904
X148.126Y-120.904
X148.126Y-122.904
X148.126Y-124.904
X148.126Y-130.904
X148.126Y-133.354
X148.126Y-134.354
X148.126Y-135.354
X148.126Y-137.354
X148.326Y-72.904
X148.326Y-84.904
X148.326Y-88.904
X148.326Y-141.454
X148.751Y-59.054
X148.776Y-131.904
X149.026Y-75.904
X149.026Y-81.904
X149.026Y-85.904
X149.026Y-138.254
X149.026Y-145.654
X149.026Y-147.054
X149.076Y-142.504
X149.126Y-63.904
X149.126Y-65.904
X149.126Y-67.904
X149.126Y-69.904
X149.126Y-71.904
X149.126Y-77.904
X149.126Y-79.904
X149.126Y-89.904
X149.126Y-125.904
X149.126Y-129.904
X149.126Y-134.354
X149.126Y-136.354
X149.151Y-148.454
X149.326Y-73.904
X149.326Y-87.904
X149.326Y-140.454
X149.731Y-101.424
X149.751Y-60.054
X149.751Y-58.054
X149.776Y-95.679
X149.776Y-96.679
X149.776Y-130.904
X149.906Y-99.004
X150.026Y-76.904
X150.026Y-97.304
X150.026Y-100.779
X150.026Y-137.254
X150.076Y-68.954
X150.076Y-141.504
X150.101Y-124.379
X150.126Y-62.904
X150.126Y-64.904
X150.126Y-66.904
X150.126Y-70.904
X150.126Y-72.904
X150.126Y-78.904
X150.126Y-82.904
X150.126Y-84.904
X150.126Y-117.579
X150.126Y-119.429
X150.126Y-120.079
X150.126Y-125.429
X150.126Y-126.904
X150.126Y-128.904
X150.126Y-133.354
X150.126Y-135.354
X150.266Y-110.154
X150.266Y-110.904
X150.266Y-111.654
X150.326Y-74.904
X150.326Y-139.454
X150.376Y-91.804
X150.376Y-92.454
X150.426Y-102.854
X150.531Y-112.634
X150.676Y-120.479
X150.681Y-98.629
X150.681Y-99.379
X150.751Y-59.054
X150.776Y-129.904
X150.896Y-68.754
X150.901Y-123.579
X150.951Y-100.779
X151.009Y-114.304
X151.026Y-77.904
X151.026Y-91.804
X151.026Y-92.454
X151.026Y-126.329
X151.026Y-136.254
X151.026Y-144.254
X151.026Y-145.654
X151.026Y-147.054
X151.076Y-140.504
X151.126Y-63.904
X151.126Y-65.904
X151.126Y-69.904
X151.126Y-71.904
X151.126Y-73.904
X151.126Y-79.904
X151.126Y-81.904
X151.126Y-85.904
X151.126Y-87.904
X151.126Y-127.904
X151.126Y-132.354
X151.126Y-134.354
X151.176Y-102.854
X151.201Y-93.779
X151.201Y-94.379
X151.326Y-75.904
X151.326Y-120.479
X151.326Y-138.454
X151.451Y-99.004
X151.476Y-90.179
X151.546Y-68.754
X151.551Y-62.854
X151.576Y-142.504
X151.651Y-148.754
X151.751Y-60.054
X151.751Y-58.054
X151.776Y-128.904
X151.926Y-102.854
X152.026Y-135.254
X152.076Y-112.604
X152.076Y-113.404
X152.076Y-114.204
X152.076Y-139.504
X152.126Y-64.904
X152.126Y-72.904
X152.126Y-74.904
X152.126Y-78.904
X152.126Y-82.904
X152.126Y-84.904
X152.126Y-101.804
X152.126Y-131.354
X152.126Y-133.354
X152.171Y-126.439
X152.196Y-62.854
X152.226Y-147.054
X152.231Y-98.629
X152.231Y-99.379
X152.276Y-144.504
X152.276Y-145.654
X152.326Y-76.904
X152.326Y-137.454
X152.551Y-119.104
X152.556Y-120.954
X152.556Y-123.344
X152.576Y-141.504
X152.651Y-69.874
X152.676Y-102.854
X152.751Y-59.054
X152.776Y-127.904
X152.846Y-62.854
X152.851Y-66.654
X152.871Y-122.644
X152.971Y-125.639
X153.006Y-99.004
X153.026Y-134.254
X153.076Y-103.754
X153.076Y-138.504
X153.081Y-106.654
X153.126Y-63.904
X153.126Y-65.904
X153.126Y-71.904
X153.126Y-73.904
X153.126Y-75.904
X153.126Y-79.904
X153.126Y-81.904
X153.126Y-85.904
X153.126Y-87.904
X153.126Y-132.354
X153.201Y-110.904
X153.226Y-142.754
X153.291Y-107.354
X153.326Y-136.454
X153.331Y-120.579
X153.331Y-121.329
X153.476Y-130.229
X153.501Y-62.854
X153.521Y-110.154
X153.521Y-111.654
X153.571Y-69.874
X153.576Y-140.504
X153.586Y-114.454
X153.601Y-122.674
X153.751Y-60.054
X153.751Y-58.054
X153.796Y-115.154
X153.826Y-110.904
X153.951Y-94.054
X153.951Y-94.608
X153.961Y-88.554
X153.961Y-91.804
X153.961Y-93.424
X153.976Y-130.729
X154.026Y-133.254
X154.026Y-144.504
X154.026Y-145.654
X154.026Y-147.054
X154.076Y-137.504
X154.101Y-120.954
X154.126Y-72.904
X154.126Y-74.904
X154.126Y-76.904
X154.126Y-78.904
X154.126Y-82.904
X154.126Y-84.904
X154.126Y-131.354
X154.151Y-148.454
X154.226Y-141.754
X154.243Y-65.662
X154.326Y-135.454
X154.401Y-101.929
X154.451Y-90.179
X154.451Y-92.554
X154.506Y-99.004
X154.576Y-139.504
X154.751Y-59.054
X154.796Y-62.854
X154.796Y-68.754
X154.881Y-120.579
X154.881Y-121.329
X154.901Y-124.379
X154.901Y-125.029
X154.941Y-88.554
X154.941Y-91.804
X154.951Y-107.604
X154.951Y-108.404
X154.951Y-109.204
X155.001Y-93.029
X155.026Y-132.254
X155.031Y-95.839
X155.076Y-136.504
X155.126Y-69.904
X155.126Y-71.904
X155.126Y-73.904
X155.126Y-75.904
X155.126Y-79.904
X155.126Y-81.904
X155.126Y-85.904
X155.126Y-87.904
X155.226Y-140.754
X155.326Y-134.454
X155.551Y-124.379
X155.551Y-125.029
X155.576Y-138.504
X155.626Y-62.904
X155.626Y-65.904
X155.626Y-67.404
X155.626Y-68.904
X155.631Y-95.839
X155.681Y-120.954
X155.726Y-129.854
X155.751Y-60.054
X155.751Y-58.054
X156.026Y-143.054
X156.026Y-144.504
X156.026Y-145.654
X156.026Y-147.054
X156.031Y-117.789
X156.076Y-135.504
X156.126Y-72.904
X156.126Y-74.904
X156.126Y-76.904
X156.126Y-78.904
X156.126Y-82.904
X156.126Y-84.904
X156.131Y-97.679
X156.131Y-99.004
X156.131Y-100.479
X156.176Y-131.104
X156.176Y-148.454
X156.226Y-139.754
X156.326Y-133.454
X156.336Y-96.479
X156.336Y-97.079
X156.511Y-108.904
X156.576Y-93.954
X156.576Y-137.504
X156.626Y-62.304
X156.636Y-69.874
X156.726Y-141.754
X156.751Y-59.054
X156.761Y-110.154
X156.761Y-110.904
X156.761Y-111.654
X156.776Y-103.354
X156.781Y-117.789
X157.076Y-134.504
X157.126Y-65.979
X157.126Y-71.904
X157.126Y-73.904
X157.126Y-75.904
X157.126Y-79.904
X157.126Y-81.904
X157.126Y-85.904
X157.126Y-87.904
X157.156Y-120.954
X157.176Y-130.104
X157.201Y-95.154
X157.226Y-128.604
X157.226Y-138.754
X157.251Y-123.954
X157.476Y-132.304
X157.482Y-127.048
X157.526Y-143.054
X157.531Y-117.789
X157.556Y-69.874
X157.576Y-136.504
X157.626Y-66.629
X157.651Y-89.404
X157.651Y-90.054
X157.726Y-140.754
X157.751Y-60.054
X157.751Y-58.054
X157.911Y-91.794
X157.926Y-92.479
X157.926Y-95.284
X157.937Y-93.138
X157.937Y-95.943
X157.942Y-103.374
X157.951Y-96.604
X158.026Y-145.654
X158.026Y-147.054
X158.101Y-106.679
X158.126Y-68.729
X158.126Y-72.904
X158.126Y-74.904
X158.126Y-76.904
X158.126Y-78.904
X158.126Y-82.904
X158.141Y-107.244
X158.151Y-148.454
X158.213Y-127.048
X158.226Y-137.754
X158.281Y-117.789
X158.301Y-89.404
X158.301Y-90.054
X158.301Y-133.304
X158.426Y-84.904
X158.476Y-131.304
X158.501Y-135.579
X158.526Y-142.054
X158.626Y-65.404
X158.681Y-119.629
X158.681Y-120.954
X158.681Y-122.279
X158.726Y-139.754
X158.746Y-127.048
X158.751Y-59.054
X159.126Y-69.904
X159.126Y-71.904
X159.126Y-73.904
X159.126Y-75.904
X159.126Y-79.904
X159.126Y-81.904
X159.126Y-87.904
X159.226Y-132.354
X159.226Y-136.754
X159.276Y-131.304
X159.288Y-130.742
X159.344Y-100.127
X159.426Y-85.904
X159.476Y-116.279
X159.476Y-127.048
X159.526Y-141.054
X159.626Y-63.629
X159.626Y-66.329
X159.665Y-130.365
X159.671Y-100.549
X159.726Y-134.554
X159.726Y-138.754
X159.751Y-60.054
X159.751Y-58.054
X159.836Y-129.837
X159.926Y-84.904
X160.026Y-143.054
X160.026Y-145.654
X160.026Y-147.054
X160.126Y-62.904
X160.126Y-64.904
X160.126Y-66.904
X160.126Y-70.904
X160.126Y-72.904
X160.126Y-74.904
X160.126Y-76.904
X160.126Y-78.904
X160.126Y-82.904
X160.126Y-91.154
X160.176Y-148.454
X160.208Y-100.549
X160.213Y-127.048
X160.401Y-114.954
X160.426Y-86.904
X160.526Y-135.504
X160.526Y-140.054
X160.556Y-100.127
X160.576Y-104.729
X160.576Y-107.399
X160.626Y-144.379
X160.726Y-137.754
X160.746Y-127.048
X160.751Y-59.054
X160.883Y-100.549
X160.926Y-85.881
X160.956Y-132.799
X160.976Y-122.454
X160.976Y-123.129
X161.001Y-124.729
X161.026Y-81.904
X161.026Y-142.054
X161.116Y-131.27
X161.126Y-61.904
X161.126Y-63.904
X161.126Y-65.904
X161.126Y-67.904
X161.126Y-69.904
X161.126Y-71.904
X161.126Y-73.904
X161.126Y-75.904
X161.126Y-79.904
X161.169Y-93.229
X161.169Y-95.229
X161.169Y-97.229
X161.288Y-130.742
X161.326Y-83.904
X161.419Y-100.549
X161.426Y-87.904
X161.476Y-127.048
X161.501Y-134.529
X161.526Y-139.054
X161.626Y-143.379
X161.665Y-130.365
X161.726Y-60.369
X161.726Y-115.504
X161.751Y-58.054
X161.767Y-100.127
X161.776Y-106.014
X161.836Y-129.837
X161.926Y-78.904
X161.926Y-91.154
X161.991Y-65.114
X162.026Y-82.904
X162.026Y-141.054
X162.026Y-145.654
X162.026Y-147.054
X162.051Y-137.054
X162.094Y-100.549
X162.126Y-70.904
X162.126Y-72.904
X162.126Y-74.904
X162.126Y-76.904
X162.151Y-148.454
X162.169Y-94.229
X162.169Y-96.229
X162.213Y-127.048
X162.326Y-80.904
X162.326Y-84.904
X162.376Y-60.369
X162.427Y-123.556
X162.626Y-142.379
X162.631Y-100.549
X162.746Y-127.048
X162.751Y-59.054
X162.801Y-137.804
X162.911Y-66.429
X162.926Y-79.904
X162.976Y-104.729
X162.976Y-107.399
X162.979Y-100.127
X163.026Y-83.904
X163.026Y-140.054
X163.076Y-132.929
X163.116Y-131.27
X163.126Y-69.904
X163.126Y-71.904
X163.126Y-73.904
X163.126Y-75.904
X163.169Y-93.229
X163.169Y-95.229
X163.169Y-97.229
X163.176Y-60.369
X163.201Y-135.279
X163.226Y-77.904
X163.288Y-130.742
X163.326Y-81.904
X163.401Y-64.004
X163.401Y-65.644
X163.426Y-85.904
X163.426Y-87.904
X163.426Y-91.154
X163.476Y-127.048
X163.611Y-62.514
X163.665Y-130.365
X163.721Y-111.304
X163.726Y-115.404
X163.751Y-58.054
X163.751Y-141.279
X163.767Y-119.348
X163.767Y-118.548
X163.769Y-120.182
X163.769Y-109.782
X163.769Y-122.582
X163.769Y-123.382
X163.826Y-60.369
X163.836Y-129.837
X163.891Y-64.824
X163.891Y-66.429
X163.926Y-80.904
X164.026Y-144.254
X164.026Y-145.654
X164.026Y-147.054
X164.126Y-70.904
X164.126Y-72.904
X164.126Y-74.904
X164.126Y-76.904
X164.169Y-94.229
X164.169Y-96.229
X164.176Y-148.454
X164.213Y-127.048
X164.226Y-78.904
X164.326Y-82.904
X164.401Y-60.944
X164.401Y-61.594
X164.529Y-122.554
X164.539Y-121.754
X164.541Y-113.784
X164.551Y-115.379
X164.551Y-120.954
X164.551Y-142.979
X164.567Y-118.548
X164.567Y-119.348
X164.581Y-120.154
X164.651Y-147.579
X164.746Y-127.048
X164.751Y-59.054
X164.751Y-63.214
X164.771Y-103.064
X164.926Y-81.904
X164.926Y-91.154
X164.976Y-104.729
X164.976Y-108.704
X164.976Y-109.654
X165.076Y-132.929
X165.116Y-131.27
X165.126Y-71.904
X165.126Y-73.904
X165.126Y-75.904
X165.126Y-77.904
X165.169Y-93.229
X165.169Y-97.229
X165.201Y-148.604
X165.226Y-79.904
X165.249Y-60.944
X165.249Y-61.594
X165.276Y-83.904
X165.276Y-85.904
X165.276Y-87.904
X165.288Y-130.742
X165.301Y-111.329
X165.326Y-137.504
X165.331Y-113.764
X165.351Y-112.154
X165.351Y-112.954
X165.351Y-115.364
X165.351Y-118.554
X165.351Y-120.964
X165.351Y-135.254
X165.361Y-121.764
X165.367Y-123.348
X165.381Y-117.034
X165.391Y-69.904
X165.401Y-124.134
X165.476Y-127.048
X165.526Y-104.804
X165.551Y-141.979
X165.576Y-95.354
X165.665Y-130.365
X165.751Y-58.054
X165.751Y-143.054
X165.751Y-145.054
X165.751Y-147.054
X165.824Y-60.369
X165.836Y-129.837
X166.111Y-111.354
X166.121Y-122.546
X166.122Y-117.823
X166.126Y-63.654
X166.126Y-64.904
X166.126Y-66.904
X166.126Y-70.904
X166.126Y-72.904
X166.126Y-74.904
X166.126Y-76.904
X166.126Y-78.904
X166.131Y-117.029
X166.133Y-120.154
X166.139Y-121.754
X166.141Y-116.174
X166.151Y-112.154
X166.151Y-112.954
X166.151Y-113.764
X166.151Y-115.329
X166.151Y-118.554
X166.151Y-120.954
X166.167Y-119.348
X166.169Y-110.554
X166.213Y-127.048
X166.226Y-80.904
X166.226Y-108.229
X166.314Y-62.524
X166.474Y-60.369
X166.484Y-68.639
X166.484Y-69.289
X166.501Y-91.304
X166.746Y-127.048
X166.751Y-59.054
X166.921Y-122.55
X166.931Y-116.944
X166.933Y-121.754
X166.941Y-113.754
X166.951Y-111.329
X166.951Y-112.954
X166.951Y-114.554
X166.951Y-115.35
X166.951Y-117.764
X166.957Y-116.104
X166.961Y-118.564
X166.964Y-119.364
X166.967Y-120.964
X166.967Y-123.348
X166.967Y-120.164
X167.001Y-124.134
X167.059Y-69.864
X167.116Y-131.27
X167.126Y-67.904
X167.126Y-71.904
X167.126Y-73.904
X167.126Y-75.904
X167.126Y-77.904
X167.126Y-79.904
X167.126Y-81.904
X167.126Y-83.904
X167.126Y-85.904
X167.126Y-87.904
X167.151Y-91.304
X167.251Y-93.954
X167.251Y-94.529
X167.256Y-95.544
X167.274Y-60.369
X167.288Y-130.742
X167.291Y-102.244
X167.476Y-127.048
X167.476Y-137.754
X167.489Y-97.46
X167.489Y-97.997
X167.576Y-133.304
X167.665Y-130.365
X167.676Y-135.404
X167.697Y-140.554
X167.701Y-89.679
X167.704Y-102.631
X167.709Y-69.864
X167.72Y-112.16
X167.731Y-113.754
X167.739Y-121.754
X167.741Y-122.554
X167.745Y-115.378
X167.751Y-58.054
X167.751Y-112.964
X167.751Y-114.584
X167.751Y-116.175
X167.751Y-116.979
X167.767Y-120.954
X167.771Y-118.548
X167.836Y-129.837
X167.924Y-60.369
X167.959Y-98.249
X168.051Y-97.46
X168.126Y-66.904
X168.126Y-70.904
X168.126Y-72.904
X168.126Y-74.904
X168.126Y-76.904
X168.126Y-78.904
X168.126Y-80.904
X168.126Y-82.904
X168.126Y-84.904
X168.126Y-86.904
X168.213Y-127.033
X168.351Y-89.679
X168.433Y-98.004
X168.481Y-122.514
X168.501Y-139.035
X168.509Y-69.864
X168.533Y-121.75
X168.551Y-112.154
X168.551Y-112.964
X168.551Y-113.764
X168.551Y-114.564
X168.551Y-116.179
X168.551Y-116.979
X168.551Y-119.344
X168.567Y-120.948
X168.567Y-123.348
X168.571Y-118.554
X168.601Y-124.134
X168.676Y-136.554
X168.746Y-127.033
X168.751Y-59.054
X168.864Y-60.939
X168.951Y-109.654
X168.969Y-98.004
X169.076Y-134.154
X169.126Y-71.904
X169.126Y-73.904
X169.126Y-75.904
X169.126Y-77.904
X169.126Y-79.904
X169.126Y-81.904
X169.126Y-83.904
X169.126Y-85.904
X169.126Y-87.904
X169.151Y-89.679
X169.159Y-69.864
X169.301Y-130.354
X169.301Y-131.658
X169.335Y-114.584
X169.339Y-121.744
X169.339Y-122.536
X169.351Y-112.166
X169.351Y-112.954
X169.351Y-113.764
X169.351Y-116.979
X169.351Y-117.779
X169.361Y-118.574
X169.364Y-111.366
X169.367Y-120.948
X169.426Y-96.404
X169.476Y-91.754
X169.501Y-94.704
X169.524Y-98.004
X169.682Y-126.347
X169.751Y-58.054
X169.776Y-137.754
X169.784Y-60.939
X169.801Y-89.679
X169.861Y-60.054
X170.113Y-127.033
X170.126Y-63.284
X170.126Y-64.904
X170.126Y-66.904
X170.126Y-68.904
X170.126Y-70.904
X170.126Y-72.904
X170.126Y-74.904
X170.126Y-76.904
X170.126Y-78.904
X170.126Y-80.904
X170.126Y-82.904
X170.126Y-84.904
X170.126Y-86.904
X170.126Y-139.004
X170.135Y-121.784
X170.151Y-118.579
X170.151Y-114.554
X170.151Y-115.379
X170.155Y-116.964
X170.16Y-117.768
X170.164Y-120.166
X170.176Y-120.964
X170.201Y-122.504
X170.226Y-96.779
X170.226Y-97.704
X170.226Y-98.429
X170.276Y-96.079
X170.552Y-92.935
X170.552Y-93.472
X170.646Y-127.033
X170.751Y-59.054
X170.751Y-92.329
X170.776Y-94.129
X170.921Y-111.384
X170.921Y-112.254
X170.926Y-98.429
X170.935Y-122.584
X170.935Y-123.384
X170.941Y-110.534
X170.948Y-115.38
X170.951Y-113.754
X170.951Y-116.979
X170.951Y-118.554
X170.951Y-119.354
X170.964Y-121.749
X171.126Y-61.904
X171.126Y-63.904
X171.126Y-65.904
X171.126Y-67.904
X171.126Y-69.904
X171.126Y-71.904
X171.126Y-73.904
X171.126Y-75.904
X171.126Y-77.904
X171.126Y-79.904
X171.126Y-81.904
X171.126Y-83.904
X171.126Y-85.904
X171.126Y-87.904
X171.301Y-130.354
X171.301Y-131.704
X171.376Y-127.033
X171.376Y-137.754
X171.431Y-100.829
X171.431Y-102.029
X171.431Y-103.229
X171.431Y-104.429
X171.431Y-105.629
X171.501Y-93.756
X171.501Y-94.454
X171.501Y-95.204
X171.501Y-106.829
X171.561Y-90.954
X171.561Y-92.454
X171.576Y-89.779
X171.626Y-98.429
X171.726Y-133.504
X171.731Y-112.201
X171.735Y-111.384
X171.751Y-60.054
X171.751Y-58.054
X171.751Y-113.754
X171.751Y-115.379
X171.751Y-116.979
X171.751Y-118.579
X171.751Y-123.354
X171.79Y-109.51
X171.876Y-139.004
X171.941Y-88.479
X171.951Y-108.854
X172.004Y-127.033
X172.126Y-66.904
X172.126Y-68.904
X172.126Y-71.104
X172.126Y-72.904
X172.126Y-74.904
X172.126Y-76.904
X172.126Y-78.904
X172.126Y-80.904
X172.126Y-82.904
X172.126Y-84.904
X172.126Y-86.904
X172.226Y-63.619
X172.226Y-64.269
X172.274Y-109.285
X172.326Y-98.429
X172.531Y-120.164
X172.535Y-111.384
X172.535Y-112.184
X172.537Y-127.033
X172.541Y-123.374
X172.551Y-122.564
X172.551Y-113.754
X172.551Y-114.554
X172.551Y-115.379
X172.551Y-116.954
X172.551Y-118.579
X172.559Y-121.776
X172.564Y-117.766
X172.751Y-59.054
X172.821Y-63.064
X172.851Y-88.479
X173.096Y-109.303
X173.101Y-98.854
X173.101Y-137.754
X173.101Y-139.004
X173.126Y-72.104
X173.126Y-73.904
X173.126Y-75.904
X173.126Y-77.904
X173.126Y-79.904
X173.126Y-81.904
X173.126Y-83.904
X173.126Y-85.904
X173.126Y-87.904
X173.201Y-130.354
X173.201Y-131.704
X173.267Y-127.033
X173.326Y-109.784
X173.335Y-110.584
X173.335Y-111.384
X173.335Y-112.184
X173.335Y-112.984
X173.351Y-115.379
X173.351Y-118.579
X173.351Y-120.164
X173.401Y-106.829
X173.601Y-109.054
X173.631Y-69.084
X173.631Y-69.834
X173.631Y-70.584
X173.631Y-71.334
X173.631Y-66.904
X173.631Y-67.644
X173.661Y-61.194
X173.751Y-60.054
X173.751Y-58.054
X173.904Y-127.033
X173.908Y-92.004
X173.908Y-94.204
X173.908Y-96.404
X174.126Y-72.904
X174.126Y-74.904
X174.126Y-76.904
X174.126Y-78.904
X174.126Y-80.904
X174.126Y-82.904
X174.126Y-84.904
X174.126Y-86.904
X174.135Y-110.584
X174.135Y-111.384
X174.135Y-112.184
X174.135Y-112.984
X174.139Y-117.766
X174.141Y-113.764
X174.145Y-109.2
X174.151Y-114.574
X174.151Y-115.379
X174.161Y-116.144
X174.161Y-120.174
X174.167Y-118.564
X174.171Y-116.994
X174.351Y-89.554
X174.351Y-98.829
X174.376Y-106.804
X174.437Y-127.033
X174.751Y-59.054
X174.921Y-63.179
X174.931Y-113.774
X174.935Y-110.584
X174.935Y-111.384
X174.935Y-112.184
X174.935Y-112.984
X174.941Y-123.354
X174.951Y-120.164
X174.951Y-120.964
X174.951Y-122.564
X174.961Y-115.364
X174.961Y-121.759
X174.967Y-116.156
X174.976Y-117.721
X174.991Y-118.554
X175.008Y-93.104
X175.008Y-95.304
X175.126Y-72.104
X175.126Y-73.904
X175.126Y-75.904
X175.126Y-77.904
X175.126Y-79.904
X175.126Y-81.904
X175.126Y-83.904
X175.126Y-85.904
X175.126Y-87.904
X175.151Y-109.004
X175.167Y-127.033
X175.231Y-63.819
X175.231Y-64.419
X175.231Y-65.019
X175.451Y-65.669
X175.501Y-78.379
X175.501Y-79.379
X175.501Y-80.379
X175.501Y-81.404
X175.501Y-82.404
X175.501Y-83.404
X175.501Y-84.404
X175.601Y-89.604
X175.735Y-110.584
X175.735Y-111.384
X175.735Y-112.184
X175.735Y-113.784
X175.741Y-61.194
X175.741Y-124.174
X175.751Y-60.054
X175.751Y-58.054
X175.751Y-112.979
X175.761Y-100.829
X175.761Y-102.029
X175.761Y-103.229
X175.761Y-104.429
X175.761Y-105.629
X175.761Y-115.379
X175.761Y-116.174
X175.761Y-120.159
X175.771Y-117.799
X175.851Y-98.829
X175.9Y-130.054
X175.901Y-69.214
X175.901Y-69.904
X176.076Y-127.029
X176.108Y-92.004
X176.108Y-94.204
X176.108Y-96.404
X176.126Y-72.904
X176.126Y-74.904
X176.126Y-76.904
X176.126Y-86.904
X176.151Y-78.904
X176.151Y-80.904
X176.151Y-82.904
X176.151Y-84.904
X176.376Y-62.094
X176.376Y-62.744
X176.454Y-130.054
X176.476Y-137.731
X176.531Y-111.384
X176.535Y-110.564
X176.535Y-113.774
X176.541Y-118.574
X176.541Y-114.578
X176.551Y-120.164
X176.561Y-115.374
X176.571Y-117.774
X176.591Y-109.734
X176.599Y-116.166
X176.751Y-59.054
X176.876Y-67.644
X176.956Y-66.094
X176.956Y-66.744
X176.988Y-130.054
X177.051Y-89.504
X177.101Y-98.829
X177.126Y-69.904
X177.126Y-72.104
X177.126Y-73.904
X177.126Y-75.904
X177.126Y-77.904
X177.126Y-79.904
X177.126Y-81.904
X177.126Y-83.904
X177.126Y-85.904
X177.201Y-106.829
X177.208Y-93.104
X177.208Y-95.304
X177.331Y-111.384
X177.331Y-113.744
X177.333Y-112.95
X177.335Y-110.564
X177.341Y-121.774
X177.351Y-122.564
X177.351Y-123.364
X177.351Y-109.724
X177.351Y-114.585
X177.357Y-118.578
X177.359Y-120.176
X177.371Y-115.384
X177.401Y-136.529
X177.444Y-116.213
X177.476Y-137.731
X177.543Y-130.054
X177.631Y-70.594
X177.631Y-71.344
X177.701Y-65.004
X177.751Y-60.054
X177.751Y-58.054
X177.811Y-62.724
X177.826Y-89.529
X178.076Y-111.396
X178.076Y-112.904
X178.101Y-98.829
X178.126Y-66.904
X178.126Y-68.904
X178.126Y-72.904
X178.126Y-74.904
X178.126Y-76.904
X178.126Y-78.904
X178.126Y-80.904
X178.126Y-82.904
X178.126Y-84.904
X178.126Y-86.904
X178.151Y-106.829
X178.151Y-114.585
X178.171Y-113.744
X178.171Y-115.414
X178.226Y-129.154
X178.308Y-92.004
X178.308Y-94.204
X178.308Y-96.404
X178.384Y-89.534
X178.526Y-133.704
X178.626Y-108.829
X178.72Y-114.579
X178.751Y-59.054
X178.901Y-136.529
X178.91Y-130.052
X178.951Y-89.543
X178.976Y-132.604
X179.043Y-128.254
X179.126Y-60.904
X179.126Y-63.904
X179.126Y-71.904
X179.126Y-73.904
X179.126Y-75.904
X179.126Y-77.904
X179.126Y-79.904
X179.126Y-81.904
X179.126Y-83.904
X179.126Y-85.904
X179.24Y-110.823
X179.351Y-98.829
X179.464Y-130.052
X179.49Y-137.731
X179.503Y-110.358
X179.551Y-89.529
X179.576Y-116.429
X179.626Y-66.704
X179.626Y-68.029
X179.626Y-69.354
X179.726Y-129.154
X179.751Y-60.054
X179.751Y-58.054
X179.926Y-106.823
X179.998Y-130.052
X180.001Y-110.167
X180.001Y-110.817
X180.026Y-71.194
X180.091Y-100.829
X180.091Y-102.029
X180.091Y-103.229
X180.091Y-104.429
X180.091Y-105.629
X180.126Y-72.904
X180.126Y-74.904
X180.126Y-76.904
X180.126Y-78.904
X180.126Y-80.904
X180.126Y-82.904
X180.126Y-84.904
X180.126Y-86.904
X180.126Y-134.904
X180.176Y-120.179
X180.191Y-116.892
X180.191Y-117.642
X180.191Y-118.392
X180.376Y-136.529
X180.401Y-109.617
X180.456Y-119.179
X180.467Y-137.731
X180.543Y-128.254
X180.553Y-130.052
X180.651Y-120.679
X180.726Y-96.454
X180.751Y-59.054
X180.751Y-93.454
X180.751Y-94.454
X180.776Y-71.194
X180.801Y-106.829
X180.851Y-113.629
X181.001Y-64.924
X181.051Y-109.617
X181.126Y-60.904
X181.126Y-71.904
X181.126Y-73.904
X181.126Y-75.904
X181.126Y-77.904
X181.126Y-79.904
X181.126Y-81.904
X181.126Y-83.904
X181.126Y-87.904
X181.126Y-133.904
X181.151Y-68.029
X181.226Y-129.154
X181.251Y-124.954
X181.451Y-113.629
X181.526Y-71.194
X181.751Y-60.054
X181.751Y-58.054
X181.826Y-93.279
X181.901Y-136.529
X181.91Y-130.054
X181.976Y-132.604
X182.001Y-119.379
X182.001Y-120.179
X182.001Y-120.979
X182.001Y-126.404
X182.043Y-128.254
X182.126Y-72.904
X182.126Y-74.904
X182.126Y-82.904
X182.126Y-88.904
X182.151Y-113.342
X182.276Y-71.194
X182.301Y-92.829
X182.451Y-109.054
X182.464Y-130.054
X182.476Y-106.829
X182.526Y-134.804
X182.601Y-125.804
X182.651Y-68.029
X182.726Y-129.154
X182.751Y-59.054
X182.826Y-95.429
X182.851Y-64.284
X182.851Y-94.454
X182.951Y-91.029
X182.981Y-113.342
X182.998Y-130.054
X183.001Y-96.954
X183.026Y-109.054
X183.126Y-60.904
X183.126Y-73.904
X183.126Y-75.904
X183.126Y-83.904
X183.126Y-87.904
X183.126Y-89.904
X183.126Y-117.642
X183.191Y-114.042
X183.201Y-126.404
X183.276Y-121.054
X183.426Y-67.654
X183.426Y-68.404
X183.451Y-116.892
X183.451Y-118.392
X183.526Y-133.804
X183.543Y-128.254
X183.553Y-130.054
X183.751Y-60.054
X183.751Y-58.054
X183.776Y-117.642
X183.801Y-125.804
X183.876Y-121.754
X184.126Y-72.904
X184.126Y-74.904
X184.126Y-82.904
X184.126Y-84.904
X184.126Y-86.904
X184.126Y-88.904
X184.151Y-110.154
X184.183Y-137.66
X184.206Y-68.029
X184.226Y-129.154
X184.326Y-98.4
X184.401Y-126.404
X184.426Y-94.254
X184.431Y-100.829
X184.431Y-102.029
X184.431Y-103.229
X184.431Y-104.429
X184.431Y-105.629
X184.526Y-92.504
X184.701Y-66.229
X184.751Y-59.054
X184.776Y-121.754
X184.826Y-89.604
X184.851Y-97.254
X184.876Y-95.854
X184.901Y-114.242
X184.901Y-115.092
X184.901Y-115.942
X184.91Y-130.054
X184.976Y-67.654
X184.976Y-68.404
X184.976Y-132.604
X185.001Y-125.804
X185.006Y-72.029
X185.043Y-128.254
X185.126Y-60.904
X185.126Y-73.904
X185.126Y-75.904
X185.126Y-83.904
X185.126Y-85.904
X185.126Y-87.904
X185.176Y-136.629
X185.201Y-69.724
X185.376Y-110.21
X185.464Y-130.054
X185.576Y-97.279
X185.601Y-126.404
X185.726Y-129.154
X185.751Y-60.054
X185.751Y-58.054
X185.751Y-68.029
X185.751Y-70.379
X185.751Y-71.379
X185.801Y-65.629
X185.826Y-88.604
X185.976Y-135.729
X185.976Y-137.729
X185.998Y-130.054
X186.126Y-66.904
X186.126Y-72.904
X186.126Y-74.904
X186.126Y-82.904
X186.126Y-84.904
X186.126Y-86.904
X186.151Y-115.954
X186.201Y-125.804
X186.401Y-103.254
X186.543Y-128.254
X186.553Y-130.054
X186.711Y-116.892
X186.711Y-117.642
X186.711Y-118.392
X186.926Y-91.704
X186.976Y-134.729
X186.976Y-136.629
X187.126Y-65.904
X187.126Y-67.904
X187.126Y-69.904
X187.126Y-71.904
X187.126Y-73.904
X187.126Y-75.904
X187.126Y-81.904
X187.126Y-83.904
X187.126Y-85.904
X187.126Y-87.904
X187.226Y-129.154
X187.401Y-102.31
X187.401Y-102.947
X187.401Y-103.51
X187.401Y-104.147
X187.451Y-122.529
X187.751Y-58.054
X187.804Y-137.682
X187.851Y-99.654
X187.876Y-119.304
X187.879Y-102.029
X187.879Y-103.228
X187.879Y-104.428
X187.886Y-73.214
X187.886Y-73.814
X187.886Y-74.414
X187.901Y-76.279
X187.91Y-130.052
X187.926Y-90.704
X187.976Y-132.604
X187.976Y-133.729
X187.976Y-135.729
X188.026Y-92.804
X188.043Y-128.254
X188.126Y-68.904
X188.126Y-70.904
X188.126Y-76.904
X188.126Y-78.904
X188.126Y-80.904
X188.126Y-82.904
X188.126Y-88.904
X188.126Y-94.904
X188.126Y-127.279
X188.151Y-62.204
X188.278Y-118.32
X188.351Y-101.114
X188.351Y-101.751
X188.351Y-104.71
X188.351Y-105.347
X188.401Y-114.204
X188.426Y-110.079
X188.454Y-130.054
X188.486Y-73.214
X188.601Y-117.054
X188.626Y-121.904
X188.626Y-123.154
X188.626Y-124.404
X188.776Y-98.654
X188.829Y-100.833
X188.829Y-102.032
X188.829Y-104.429
X188.829Y-105.628
X188.833Y-118.32
X188.976Y-132.729
X188.976Y-134.729
X188.988Y-130.054
X189.026Y-91.804
X189.126Y-77.904
X189.126Y-79.904
X189.126Y-81.904
X189.126Y-83.904
X189.126Y-89.904
X189.126Y-93.904
X189.126Y-95.904
X189.276Y-136.629
X189.301Y-99.914
X189.301Y-100.551
X189.301Y-105.91
X189.301Y-106.547
X189.369Y-118.32
X189.501Y-137.729
X189.553Y-130.052
X189.651Y-116.429
X189.751Y-58.054
X189.777Y-122.133
X189.779Y-99.633
X189.779Y-100.832
X189.779Y-105.629
X189.779Y-106.828
X189.801Y-64.179
X189.801Y-65.179
X189.801Y-66.179
X189.801Y-67.179
X189.851Y-114.204
X189.879Y-103.228
X189.921Y-118.32
X189.976Y-133.729
X190.026Y-90.804
X190.026Y-97.104
X190.126Y-76.904
X190.126Y-78.904
X190.126Y-80.904
X190.126Y-82.904
X190.126Y-88.904
X190.126Y-92.904
X190.126Y-94.904
X190.133Y-121.707
X190.276Y-135.629
X190.301Y-67.704
X190.301Y-68.404
X190.476Y-136.729
X190.669Y-121.707
X190.976Y-132.729
X190.976Y-137.729
X191.025Y-122.133
X191.026Y-89.804
X191.051Y-106.329
X191.126Y-77.904
X191.126Y-79.904
X191.126Y-81.904
X191.126Y-87.904
X191.126Y-91.904
X191.126Y-93.904
X191.126Y-95.904
X191.126Y-99.633
X191.126Y-101.904
X191.186Y-68.744
X191.186Y-69.544
X191.186Y-70.344
X191.251Y-123.404
X191.276Y-116.429
X191.276Y-134.629
X191.301Y-114.204
X191.476Y-109.529
X191.476Y-135.729
X191.726Y-118.529
X191.751Y-58.054
X191.776Y-122.404
X191.776Y-124.404
X191.926Y-70.554
X191.926Y-71.554
X191.926Y-72.554
X191.926Y-73.554
X191.926Y-74.554
X191.926Y-76.904
X191.976Y-136.729
X192.011Y-130.104
X192.026Y-78.904
X192.026Y-80.904
X192.026Y-82.904
X192.026Y-88.804
X192.051Y-62.204
X192.126Y-86.904
X192.126Y-90.904
X192.126Y-92.904
X192.126Y-94.904
X192.126Y-96.904
X192.126Y-98.904
X192.176Y-103.154
X192.276Y-133.629
X192.476Y-134.729
X192.476Y-137.729
X192.601Y-111.154
X192.751Y-114.204
X192.751Y-132.404
X192.873Y-108.132
X192.926Y-77.904
X192.926Y-79.904
X192.926Y-81.904
X192.951Y-116.429
X192.976Y-135.729
X193.026Y-87.804
X193.126Y-83.904
X193.126Y-89.904
X193.126Y-91.904
X193.126Y-95.904
X193.126Y-99.633
X193.126Y-101.904
X193.126Y-104.679
X193.471Y-132.404
X193.476Y-120.279
X193.476Y-123.104
X193.476Y-136.729
X193.501Y-130.129
X193.576Y-118.729
X193.751Y-58.054
X193.801Y-137.604
X193.951Y-124.929
X193.976Y-134.729
X194.021Y-67.119
X194.026Y-117.529
X194.051Y-124.129
X194.126Y-84.904
X194.126Y-90.904
X194.126Y-92.904
X194.126Y-94.904
X194.126Y-96.904
X194.126Y-98.904
X194.126Y-100.904
X194.126Y-103.151
X194.151Y-109.579
X194.151Y-112.479
X194.251Y-121.029
X194.301Y-114.204
X194.376Y-68.904
X194.376Y-70.904
X194.376Y-72.904
X194.376Y-74.904
X194.376Y-76.904
X194.376Y-78.904
X194.376Y-80.904
X194.376Y-82.904
X194.413Y-128.23
X194.413Y-130.23
X194.413Y-132.23
X194.476Y-135.729
X194.671Y-67.119
X194.676Y-119.804
X194.701Y-106.304
X194.751Y-59.054
X194.751Y-61.054
X194.851Y-116.429
X194.901Y-121.029
X195.126Y-83.904
X195.126Y-87.904
X195.126Y-91.904
X195.126Y-95.904
X195.126Y-97.904
X195.126Y-99.904
X195.126Y-101.904
X195.151Y-65.404
X195.151Y-66.049
X195.151Y-66.699
X195.226Y-86.004
X195.391Y-122.874
X195.391Y-123.624
X195.413Y-129.43
X195.413Y-131.23
X195.413Y-135.23
X195.426Y-126.979
X195.429Y-118.654
X195.476Y-104.654
X195.476Y-105.254
X195.476Y-108.254
X195.476Y-108.854
X195.476Y-111.254
X195.476Y-111.854
X195.545Y-121.004
X195.551Y-89.754
X195.626Y-112.979
X195.851Y-58.054
X195.851Y-60.054
X195.851Y-62.054
X195.851Y-64.054
X195.851Y-66.054
X195.851Y-68.054
X195.851Y-70.054
X195.851Y-72.054
X195.851Y-74.054
X195.851Y-76.054
X195.851Y-78.054
X195.851Y-80.054
X195.851Y-82.054
X196.076Y-104.054
X196.076Y-104.654
X196.076Y-107.654
X196.076Y-108.254
X196.076Y-110.654
X196.076Y-111.254
X196.076Y-114.204
X196.124Y-119.804
X196.126Y-84.904
X196.126Y-90.904
X196.126Y-92.904
X196.126Y-94.904
X196.126Y-96.904
X196.126Y-98.904
X196.126Y-100.904
X196.254Y-117.504
X196.413Y-122.43
X196.413Y-128.23
X196.413Y-130.23
X196.676Y-103.454
X196.676Y-104.054
X196.676Y-107.654
X196.676Y-110.054
X196.676Y-110.654
X196.701Y-113.125
X196.751Y-83.714
X196.876Y-118.654
X196.992Y-120.987
X197.079Y-116.42
X197.126Y-86.01
X197.126Y-91.904
X197.126Y-96.079
X197.126Y-99.904
X197.126Y-101.904
X197.276Y-102.854
X197.276Y-103.454
X197.413Y-123.23
X197.413Y-129.43
X197.413Y-131.23
X197.571Y-119.804
X197.701Y-117.504
X197.831Y-127.594
X197.861Y-122.43
X197.951Y-101.349
X197.951Y-103.889
X197.951Y-106.429
X197.951Y-109.004
X198.026Y-111.604
X198.126Y-84.904
X198.126Y-90.904
X198.126Y-92.904
X198.126Y-94.904
X198.126Y-96.904
X198.126Y-98.904
X198.151Y-115.329
X198.324Y-118.654
X198.413Y-126.23
X198.413Y-130.23
X198.44Y-120.971
X198.526Y-116.404
X198.526Y-124.104
X198.701Y-127.979
X198.751Y-83.714
X199.026Y-119.804
X199.051Y-132.379
X199.051Y-133.129
X199.126Y-86.01
X199.126Y-89.904
X199.126Y-91.904
X199.126Y-96.079
X199.149Y-117.504
X199.309Y-122.43
X199.401Y-115.328
X199.413Y-123.23
X199.413Y-125.23
X199.413Y-127.23
X199.413Y-129.43
X199.413Y-131.23
X199.413Y-137.23
X199.776Y-118.654
X199.801Y-132.379
X199.801Y-133.129
X199.888Y-120.954
X199.901Y-116.387
X200.126Y-90.904
X200.126Y-92.904
X200.126Y-94.904
X200.126Y-96.904
X200.376Y-85.129
X200.413Y-124.23
X200.413Y-126.23
X200.413Y-130.23
X200.466Y-119.804
X200.476Y-127.979
X200.531Y-107.079
X200.551Y-101.979
X200.551Y-104.519
X200.551Y-109.604
X200.551Y-112.139
X200.551Y-114.579
X200.751Y-83.714
X200.756Y-122.43
X201.126Y-89.904
X201.126Y-91.904
X201.126Y-96.079
X201.226Y-85.979
X201.335Y-120.938
X201.413Y-123.23
X201.413Y-125.23
X201.413Y-127.23
X201.413Y-129.43
X201.413Y-131.23
X201.413Y-137.23
X201.576Y-119.104
X202.126Y-84.904
X202.126Y-86.904
X202.126Y-90.904
X202.126Y-92.904
X202.204Y-122.43
X202.335Y-119.938
X202.413Y-124.23
X202.413Y-126.23
X202.413Y-128.23
X202.413Y-130.23
X202.413Y-138.23
X202.413Y-140.504
X202.501Y-103.504
X202.501Y-105.429
X202.501Y-107.004
X202.501Y-108.554
X202.576Y-118.104
X202.751Y-83.714
X203.126Y-87.904
X203.126Y-89.904
X203.335Y-118.938
X203.413Y-123.23
X203.413Y-125.23
X203.413Y-127.23
X203.413Y-131.23
X203.413Y-137.23
X204.051Y-132.379
X204.051Y-133.129
X204.126Y-88.904
X204.176Y-89.904
X204.301Y-118.254
X204.413Y-124.23
X204.413Y-126.23
X204.413Y-136.23
X204.576Y-99.304
X204.576Y-100.804
X204.576Y-102.304
X204.576Y-103.804
X204.576Y-105.304
X204.576Y-106.804
X204.576Y-108.304
X204.576Y-109.804
X204.576Y-111.304
X204.576Y-112.804
X204.576Y-114.304
X204.576Y-115.804
X204.801Y-132.379
X204.801Y-133.129
X205.09Y-135.304
X205.126Y-87.904
X205.126Y-89.904
X205.351Y-118.254
X205.413Y-125.23
X205.413Y-131.23
X205.413Y-137.23
X205.426Y-126.904
X205.726Y-98.229
X205.726Y-100.804
X205.726Y-103.004
X205.726Y-105.004
X205.726Y-107.004
X205.726Y-109.004
X205.726Y-111.004
X205.726Y-113.004
X205.979Y-136.204
X206.126Y-88.904
X206.126Y-90.904
X206.276Y-118.254
X206.413Y-124.23
X206.413Y-126.23
X206.413Y-132.23
X206.413Y-138.23
X206.451Y-95.854
X206.676Y-116.754
X206.826Y-97.354
X206.826Y-130.604
X207.001Y-83.714
X207.126Y-85.904
X207.126Y-87.904
X207.126Y-89.904
X207.126Y-91.904
X207.126Y-93.904
X207.126Y-99.904
X207.126Y-101.904
X207.126Y-103.904
X207.126Y-105.904
X207.126Y-107.904
X207.126Y-109.904
X207.126Y-113.904
X207.126Y-115.904
X207.176Y-111.854
X207.176Y-118.254
X207.326Y-95.854
X207.326Y-119.904
X207.326Y-121.229
X207.413Y-123.23
X207.413Y-125.23
X207.413Y-127.23
X207.413Y-129.23
X207.626Y-139.804
X208.751Y-84.804
X208.751Y-86.804
X208.751Y-88.804
X208.751Y-90.804
X208.751Y-92.804
X208.751Y-94.804
X208.751Y-100.804
X208.751Y-102.804
X208.751Y-104.804
X208.751Y-106.804
X208.751Y-108.804
X208.751Y-110.804
X208.751Y-112.804
X208.751Y-120.804
X208.751Y-122.804
X208.751Y-124.804
X208.751Y-126.804
X208.751Y-128.804
X208.751Y-130.554
X208.751Y-138.804
X208.751Y-140.804
X208.753Y-133.304
X208.753Y-135.304
X208.798Y-118.954
T2
X187.561Y-59.819
X187.561Y-61.089
X188.831Y-59.819
X188.831Y-61.089
X190.101Y-59.819
X190.101Y-61.089
X191.371Y-59.819
X191.371Y-61.089
X192.641Y-59.819
X192.641Y-61.089
T3
X91.111Y-62.154
X96.191Y-62.154
X199.401Y-100.704
X199.401Y-103.244
X199.401Y-105.784
X199.401Y-108.324
X199.401Y-110.864
X199.401Y-113.404
T4
X99.476Y-74.579
X99.476Y-96.229
X99.476Y-117.879
X99.476Y-139.529
X197.101Y-89.004
X197.101Y-125.104
T5
X91.676Y-70.779
X91.676Y-78.379
X91.676Y-92.429
X91.676Y-100.029
X91.676Y-114.079
X91.676Y-121.679
X91.676Y-135.729
X91.676Y-143.329
X204.901Y-85.204
X204.901Y-92.804
X204.901Y-121.304
X204.901Y-128.904
T6
X199.701Y-139.654
X199.701Y-147.154
X204.701Y-139.654
X204.701Y-147.154
T7
X97.001Y-85.404
X97.001Y-128.704
X184.476Y-79.279
M30
