M48
;Layer_Color=9474304
;FILE_FORMAT=2:4
INCH
;TYPE=PLATED
T01F00S00C0.0080
T02F00S00C0.0291
T03F00S00C0.0339
T04F00S00C0.0354
T05F00S00C0.0394
T06F00S00C0.0709
T07F00S00C0.0945
;TYPE=NON_PLATED
T08F00S00C0.0150
T10F00S00C0.0430
T11F00S00C0.0591
T12F00S00C0.0630
T13F00S00C0.1252
T14F00S00C0.1260
%
T01
X000787Y003150
X001575
X002362
X003150
X003937
X004724
X005512
Y003937
Y004724
Y005512
X005689Y006457
X006201
X006713
X007224
X005689Y007047
Y007638
Y008228
X005020Y008268
Y007874
Y007480
X000394Y007874
Y007087
Y006299
Y005512
Y004724
Y003937
X008576Y006459
X009068
X009560
X010938
X011430
X011922
X012717Y006772
X012717Y007421
X013051Y007096
X013593Y007047
X014085Y006978
X014284Y006459
X013792
X013300
X013094Y007841
X013573Y008219
X014970Y006988
X015423Y006858
X015778
X016161Y006840
X016427Y006841
X016659Y006457
X016147
X015636
X017171
Y007047
Y007638
Y008228
X018453Y005679
X018453Y005256
X018453Y004833
X019656Y004929
X019656Y005583
X019154Y003150
X018760
X018366
X020335
X020728
Y003360
X021896Y003150
X023091
X022753Y006952
X021906
X021483Y007685
X023176
X027675Y007771
X028533Y006926
X029121Y006837
X029312Y006926
X029522
X029712Y006837
X029902Y006926
X030112
X030302Y006837
X030493Y006926
X030703
X030893Y006837
X031083Y006926
X031293
X031483Y006837
X031890Y006496
X032677
X033465
X034252
X035292Y006952
X036139
X036562Y007685
X034869
X037402Y006496
X038189
X031486Y008258
X030896
X030305Y008258
X029715Y008258
X029124
X028642Y003349
X028515Y003175
X028305
X028179Y003349
X027067Y003340
X026941Y003167
X026731
X026604Y003340
X025453Y003150
X024972Y003171
X024762
X024636Y003344
X025098
X023917Y003327
X023791Y003153
X023581
X023455Y003327
X029754Y003343
X029880Y003170
X030090
X030217Y003343
X030571Y003346
X030965Y003150
X038976Y006496
X039764
X040551
X041339
X042126
X042913
X043701
X044488
X045276
X046063
Y007087
Y007874
Y008661
Y009449
Y010236
Y011024
Y011811
Y012598
Y013386
Y014173
Y014961
Y015748
Y016535
Y017323
Y018110
Y018898
Y019685
Y020472
Y021260
Y022047
X039390Y015758
X038842Y015776
X038844Y015986
X038898Y014715
X039124
X038996Y014124
X038887Y013338
X038888Y013128
X039646Y014380
Y015256
X039911Y014990
X040716Y011575
X040945Y011386
X041173Y011575
X038189Y011152
X038179Y012087
X037461Y012411
X036475Y012904
Y011919
Y011526
X035625Y011722
Y012707
X035019Y012116
X034168Y011526
Y013297
X034163Y014085
Y014370
X034168Y014675
X035019Y013888
X035625Y014282
X035019Y015659
X034168Y016644
X035625Y017011
Y017221
Y017431
Y017641
X035039Y017628
X035625Y018585
Y018795
Y019005
Y019215
X035019Y019596
X034168Y020187
Y018612
X032392Y018937
X032185Y018986
X032540Y019086
X032491Y019292
X031752Y019281
X031801Y019075
X031653Y018926
X031446Y018976
X026724Y018950
X026724Y018740
Y018530
X025854Y016968
X025689Y016772
X025854Y016575
X024873Y016101
X024855Y015886
X024704Y015740
X024494Y015722
X024803Y014961
X025197Y014567
X025591Y014173
X026724Y013645
X026724Y013435
Y013225
X026724Y013015
Y012257
Y012047
X029092Y011801
X029092Y011378
X029092Y010955
X029075Y010079
X028870Y010029
X028660Y010029
X028445Y010079
X028531Y009322
X028721Y009233
X028931
X029121Y009322
X029312Y009233
X029522
X029712Y009322
X029902Y009233
X030112
X030302Y009322
X030493Y009233
X030703
X030893Y009322
X031083Y009233
X031293
X031484Y009321
X031390Y010029
X031180Y010029
X030965Y010079
X030760Y010029
X030550Y010029
X030335Y010079
X030130Y010029
X029920Y010029
X029705Y010079
X029500Y010029
X029290Y010029
X029311Y008376
X029532
X029902
X030122
X030492
X030713
X031083
X031303
X031594Y010079
X032138Y010955
Y011378
Y011801
X030925Y011705
X030295
X030295Y011051
X030925
X028937Y008376
X028711
X028501Y008382
X027675Y008387
X024262Y008955
X024014Y009557
X023877Y011906
X023878Y012116
X023877Y012333
X023877Y012544
X023876Y012761
X023879Y013286
X023878Y013504
Y013714
X023877Y013930
X023879Y014473
X023878Y014692
Y014902
X023877Y015118
X024140Y017494
X024350Y017490
Y017707
X024134
X024409Y020394
X023937Y020591
X024134Y020787
X023878Y021004
X023868Y021309
X025512Y020226
X037598Y019567
Y022126
X037795Y022815
X037461Y023130
X038150
X036801Y022539
X036475Y016644
X038429Y015986
X038430Y015776
X038636Y015886
X038274Y015226
X038008Y015492
X038061Y014195
X037805
X038671Y014715
X038681Y013228
X038473Y013128
X038475Y013338
X037421Y010266
Y009518
X036139Y008418
X035292
X033327Y013671
X022420Y013297
X022559Y013091
Y012106
Y011722
X022874Y011526
Y011919
Y012303
X022420Y014282
X021565Y014478
X021570Y014872
Y015256
Y015659
X021570Y016053
X021570Y016447
Y016841
X021565Y017234
X021565Y017444
X021565Y017657
X021407Y017835
X022441
Y017625
Y017402
X022421Y017037
X022420Y016654
Y016260
X022874Y016250
X022884Y017192
X022882Y018218
X022882Y018629
X022882Y018839
Y019055
X022420Y019203
X022461Y018366
X022441Y018051
X022420Y020187
X019552Y020120
X019707Y019590
X019715Y019380
X019941Y018967
X019551Y018780
X019429Y017992
X019065Y017992
X018738Y018414
X018508Y018415
X018278
X018258Y019085
X018652
Y019478
X019045
Y019872
X018652Y019872
X018258Y019872
Y019478
X017628Y019380
X017657Y019065
X017913Y018799
X017657Y019892
X017701Y020470
X017677Y020955
X017690Y021296
X017170Y021144
X016663Y021191
X016668Y020796
X016782Y020404
X017170Y020553
Y021734
X016659
X016147
X015635
X015640Y021341
X015886Y021211
X015867Y020790
X015896Y019961
X015846Y019400
X015630Y019193
X015169Y019190
X015157Y018652
X015266Y018455
X014990Y018386
X014759Y018391
X014547Y018386
X014488Y017904
X014035Y018120
X013780Y019321
X014518Y019311
X014833Y019823
X015069Y020059
X014833Y020295
X015305
Y019823
X015876Y018789
X016122Y018760
X016463Y018754
X017169Y018130
Y017638
Y017323
X017169Y016821
X017171Y016299
Y015709
Y015118
Y014528
X016659
X016147
X016161Y014911
X016427
X015778Y014929
X015423
X014970Y015059
X014085Y015049
X013593Y015118
X013051Y015167
X012717Y015492
X012717Y014843
X013300Y014530
X013792
X014284
X014283Y013661
X014242Y013258
X014547Y013288
X014774Y013287
X015640Y013270
X015886Y013140
X015867Y012719
X016668Y012725
X016663Y013120
X016659Y013663
X017170
Y013073
Y012482
X016782Y012333
X017701Y012399
X017677Y012884
X017690Y013225
X017958Y013663
X018642Y013642
X019006Y013661
X019547Y013661
X019213Y013189
X019227Y012826
X019220Y012425
X019552Y012049
X019707Y011519
X019715Y011309
X019941Y010896
X019551Y010709
X019429Y009921
X019065Y009921
X018738Y010343
X018508Y010344
X018278
X018258Y011014
X018652
Y011407
X019045
Y011801
X018652Y011801
X018258Y011801
Y011407
X017628Y011309
X017657Y010994
X017913Y010728
X017657Y011821
X015896Y011890
X015846Y011329
X015630Y011122
X015169Y011119
X015157Y010581
X015266Y010384
X014990Y010315
X014759Y010320
X014547Y010315
X014488Y009833
X014035Y010049
X013780Y011250
X014518Y011240
X014833Y011752
X015069Y011988
X014833Y012224
X015305
Y011752
X015876Y010718
X016122Y010689
X016463Y010683
X017169Y010059
Y009567
Y009252
X017169Y008750
X016378
X016024
Y009203
X016378
X015551Y008976
X012835Y008465
X012608Y011742
X012963Y012077
X012608Y012441
X012165Y012785
X011811
Y013238
X012165
X011921Y013661
X011429
X010937
X011069Y013238
Y012785
X009833Y012667
Y012431
X009764Y012215
X009469Y012146
X009173Y012215
X009193Y011762
X009665Y011417
X009419Y010837
X008189Y010030
X010699
X011791Y011132
X013452Y012825
Y013218
X013848Y013250
X013791Y013661
X013299
X014246Y012824
X015635Y013663
X016147
X015636Y014528
X015551Y017047
X016024Y016821
X016378
Y017274
X016024
X013573Y016289
X013094Y015911
X012835Y016535
X011922Y014530
X011430
X010938
X009560
X009068
X008576
X008575Y013661
X009067
X009559
X009469Y012953
X009173Y012884
X009764
X010699Y018100
X009419Y018907
X009665Y019488
X009193Y019833
X009173Y020285
X009469Y020217
X009764Y020285
X009833Y020502
Y020738
X009764Y020955
X009469Y021024
X009173Y020955
X009067Y021732
X008575
X008576Y022600
X009068
X009560
X009559Y021732
X010937
X011429
X011921
X011811Y021309
X012165
Y020856
X011811
X011069
Y021309
X010938Y022600
X011430
X011922
X012717Y022913
X012717Y023563
X013051Y023238
X013593Y023189
X014085Y023120
X014284Y022600
X013792
X013300
X013299Y021732
X013791
X013848Y021321
X014242Y021329
X014547Y021359
X014774Y021358
X014283Y021732
X014246Y020894
X013452Y020896
Y021289
X012608Y020512
Y019813
X012963Y020148
X011791Y019203
X008189Y018100
X014970Y023130
X015423Y023000
X015778
X016161Y022982
X016427
X016659Y022598
X016147
X015636
X017171
Y023189
Y023780
X017958Y021734
X018642Y021713
X019006Y021732
X019547Y021732
X019213Y021260
X019227Y020897
X019220Y020496
X021073Y016053
X021270Y015472
Y015069
Y014675
X021906Y008418
X022753
X005315Y008957
X005020Y008661
X005689Y009567
Y010059
Y010551
X006024Y010856
X006083Y011850
X006319Y011791
X006555Y011850
Y012362
X006083
X005688Y012482
Y011892
Y013073
Y013663
X006200
X006712
X007224
X007224Y014528
X006713
X006201
X005689
Y015118
Y015709
Y016299
X005020Y016398
X004970Y015994
X004980Y016821
X005276Y017136
X005689Y017638
Y018130
Y018622
X006024Y018927
X006083Y019921
X006319Y019862
X006555Y019921
Y020433
X006083
X005688Y020553
Y019963
Y021144
Y021734
X006200
X006712
X007224
X007224Y022598
X006713
X006201
X005689
Y023189
Y023780
X000394Y023622
Y022835
Y022047
Y021260
Y020472
X001181Y020079
Y019291
X000866Y019154
X000354Y018846
X000394Y018110
Y017323
Y016535
Y015748
Y014961
Y014173
Y013386
Y012598
Y011811
Y011024
Y010236
Y009449
Y008661
X001181Y018504
X000394Y024409
Y025197
Y025984
Y026772
Y027559
Y028346
Y029134
Y029921
Y030709
Y031496
Y032283
Y033071
Y033858
Y034646
Y035433
Y036220
Y037008
X003326Y037876
X004113
X004901
X004833Y037234
X005688Y037286
Y036695
X006083Y036575
X006555
Y036063
X006319Y036004
X006083Y036063
X005688Y036104
X004833Y036157
X003809Y036181
X003455Y035384
X005689Y034764
Y034272
Y033780
X005315Y033346
X005020Y033051
X005689Y032441
Y031850
Y031260
Y030669
X006201
X006713
X007224
X007224Y029805
X006712
X006200
X005688
Y029215
Y028624
X006083Y028504
X006555
Y027992
X006319Y027933
X006083Y027992
X005688Y028034
X005689Y026693
Y026201
Y025709
X005315Y025217
X005020Y024921
Y024528
X005689Y024370
X006024Y026998
Y035069
X006200Y037876
X006712
X007224
X005688
X008575Y037874
X009067
X009559
X009469Y037165
X009764Y037096
X009833Y036880
Y036644
X009764Y036427
X009469Y036358
X009173Y036427
X009193Y035974
X009665Y035630
X009419Y035049
X010699Y034242
X011791Y035344
X012608Y035955
X012963Y036289
X012608Y036654
X012165Y036998
X011811
Y037451
X012165
X011921Y037874
X011429
X010937
X011069Y037451
Y036998
X009173Y037096
X008081Y034232
X008576Y030671
X009068
X009560
X009559Y029803
X009067
X008575
X009173Y029026
X009469Y029094
X009764Y029026
X009833Y028809
Y028573
X009764Y028356
X009469Y028287
X009173Y028356
X009193Y027904
X009665Y027559
X009419Y026978
X008189Y026171
X010699
X011791Y027274
X012608Y027884
X012963Y028219
X012608Y028583
X012165Y028927
X011811
Y029380
X012165
X011921Y029803
X011429
X010937
X011069Y029380
Y028927
X010938Y030671
X011430
X011922
X012717Y030984
X012717Y031634
X013051Y031309
X013593Y031260
X014085Y031191
X014284Y030671
X013792
X013300
X013299Y029803
X013791
X013848Y029391
X014242Y029400
X014547Y029429
X014774Y029429
X014283Y029803
X014246Y028965
X013452Y028967
Y029360
X015640Y029411
X015886Y029281
X015867Y028861
X016668Y028867
X016663Y029262
X016659Y029805
X017170
Y029215
Y028624
X016782Y028474
X017701Y028540
X017677Y029026
X017690Y029367
X017958Y029805
X018642Y029783
X019006Y029803
X019547
Y030433
X019235
X019114Y030974
X019094Y032008
X018452Y032256
X018524Y033130
X019054Y033109
X019065Y034134
X019429Y034134
X018738Y034555
X018508Y034557
X018278
X018258Y035226
X018652
Y035620
X018258
Y036014
X018652Y036014
X019045Y036014
Y035620
X019715Y035522
X019707Y035731
X019941Y035108
X020457Y034597
X017913Y034941
X017657Y035207
X017628Y035522
X017657Y036033
X017701Y036611
X017677Y037096
Y037470
X017958Y037876
X018455Y037876
X018701Y037874
X019006
X019533Y037876
X020320
X021107
X021895
X022682
X022352Y037264
X019203Y037411
X019227Y037039
X019220Y036637
X017170Y036695
X016782Y036535
X016668Y036937
X016663Y037333
X016659Y037876
X017170
Y037286
X015886Y037352
X015640Y037482
X015635Y037876
X016147
X015867Y036932
X015896Y036102
X015846Y035541
X015630Y035335
X015169Y035332
X015157Y034793
X015266Y034596
X014990Y034528
X014759Y034532
X014547Y034528
X014488Y034045
X014035Y034262
X013780Y035463
X014518Y035453
X014833Y035965
X015069Y036201
X014833Y036437
X015305
Y035965
X015876Y034931
X016122Y034902
X016463Y034896
X017169Y034272
Y033780
Y033465
X017169Y032963
X017171Y032441
Y031850
Y031260
Y030669
X016659
X016147
X016161Y031053
X016427
X015778Y031071
X015423
X014970Y031201
X015636Y030669
X015635Y029805
X016147
X015896Y028031
X015846Y027470
X015630Y027264
X015169Y027261
X015157Y026722
X015266Y026526
X014990Y026457
X014759Y026461
X014547Y026457
X014488Y025974
X014035Y026191
X013780Y027392
X014518Y027382
X014833Y027894
X015069Y028130
X015305Y027894
Y028366
X014833
X015876Y026860
X016122Y026831
X016463Y026825
X017169Y026201
Y025709
Y025394
X017169Y024892
X017171Y024370
X016378Y024892
X016024
Y025344
X016378
X015551Y025118
X013573Y024360
X013094Y023982
X012835Y024606
X018278Y026486
X018508
X018738Y026484
X019065Y026063
X019429Y026063
X019551Y026850
X019941Y027037
X019715Y027451
X019707Y027661
X019552Y028191
X019220Y028567
X019227Y028968
X019213Y029331
X019045Y027943
Y027549
X018652
Y027156
X018258
X018258Y027549
Y027943
X018652Y027943
X017657Y027963
X017628Y027451
X017657Y027136
X017913Y026870
X021906Y025741
X022753
Y024275
X021906
X021483Y025008
X022835Y027244
Y027461
X018071Y033031
X016378Y032963
X016024
Y033415
X016378
X015551Y033189
X013573Y032431
X013094Y032053
X012835Y032677
X013452Y037038
Y037431
X013848Y037462
X014242Y037470
X014547Y037500
X014774Y037500
X014283Y037874
X013791
X013299
X014246Y037036
X023228Y037165
X023996
X024257Y037876
X025044
X024843Y037333
X024892Y036762
X025226Y036555
X023740Y036358
X023484Y036161
X023228Y034823
X024508
X024892Y034478
X025315Y034843
X025591
X025817Y034045
X025589Y033602
X025226
X026102Y033386
X026801Y033573
X027589Y033366
X028022
X028583Y033563
Y033917
X030305Y033671
X030669Y033671
X030921Y033917
X031455Y034232
X031703Y034480
Y034783
Y033984
X032343Y034252
Y034469
Y034970
X032303Y035276
Y035502
Y035728
X032343Y036033
X032618Y036607
X032961Y036289
X033583Y036299
Y036732
X033465Y037874
X034252
X035039
X035827
X036614
X037402
X038189
X037805Y036476
X038524Y036063
X038209Y035305
X037953Y034685
X037795Y034409
X037530Y034144
X037114Y034142
X036919Y034449
Y035187
X036467Y035285
Y035495
Y035705
Y035915
X035315Y035787
Y036181
X034941Y036171
Y036427
X035315Y036575
Y036969
Y037362
X034596Y035965
X034656Y035315
Y034961
X034301Y035138
X033947Y034961
Y035315
X033760Y034343
X033504
X033947Y033632
X034232Y033622
X034508
X035063Y034341
X035329Y034075
X035128Y031163
X035659Y031161
X035915Y031171
X036161Y031161
X036388Y031171
X035935Y031526
X036722Y032185
X037904Y031301
X037902Y030921
X037904Y030543
Y029421
X038276Y029508
X038662Y029194
X037943Y028898
X037913Y028219
X037059Y028445
X037043Y029107
X037047Y029341
Y029902
Y030118
X036095Y030197
Y029331
Y028465
X035229
X034363
Y029331
X035229
Y030197
X034363
X034537Y031163
X034488Y031388
X034232Y031594
X033130Y031565
X032894Y031329
X033130Y031093
X033484Y031083
X032625Y030827
X032369Y031083
X032008
X031751Y030827
Y030433
X031735Y029228
X031766Y029006
X031751Y028465
X032372Y028150
X032726Y028246
X032628Y028858
X032994Y029346
X032994Y029556
X033406Y029508
X033394Y029232
X033406Y028967
X033415Y028346
X033396Y028091
X033661Y027852
X033947Y027498
X034537
X035128
X035620Y027500
X036004
X036506Y027498
X036772Y027530
X036959Y027274
X036139Y025741
X035292
X034869Y025008
X035292Y024275
X036139
X036562Y025008
X037657Y025571
X037953
X038406
X038701
X033394Y030020
X032625Y030039
X030787Y029331
X030118
X029449
Y028661
Y027992
X030118
Y028661
X030787
Y027992
X028120Y028081
X027727Y028078
Y028848
X028114Y028853
X028506Y028854
X028465Y029350
X028238
X027913Y029711
X027520
X027146Y029722
X026791
X026543Y029970
X026543Y030325
X026791Y030573
X027146
X027520Y030585
X027913Y030585
X028307
X028830Y030254
X027323Y029518
X027500Y029035
X026998Y028858
X026998Y028642
X026996Y028350
X026860Y027844
X026902Y027618
X026565Y027291
X026260Y027293
X026014Y027291
X025768Y027293
X025335Y027343
X025207Y027736
X025512Y027717
X024705Y027756
Y027966
Y028176
Y028386
X024970Y028504
X024222Y028494
X024171Y028829
X024606Y029963
X025896Y029904
X026329Y029301
X026549Y029425
X025689Y026417
X025148Y026073
X024970Y026250
X025325Y025896
X024970Y027035
X024400Y027026
X023159Y027026
X023176Y025008
X023689Y033591
X024054Y033584
X023470Y037876
X025832
X026619
X026957Y037520
X027321Y037520
X027407Y037876
X028194
X028981
X029528Y037874
X029656Y037520
X029291Y037520
X030158Y037079
X030315Y037874
X031102
X031890
X032677
X031717Y036289
X031447Y036124
X031136Y035797
X027823Y037079
X038976Y037874
X039764
X040551
X041339
X042126
Y037008
Y036220
Y035433
Y034646
Y033858
Y033071
Y032283
Y031496
Y030709
Y029921
Y029134
X042913
X043701
X046063
Y028346
Y027559
Y026772
Y025984
Y025197
X041614Y025197
Y025482
Y024734
Y024449
X040610Y024154
X040315
X039744Y024075
X039134Y024094
Y025039
X039154Y025673
X039744Y025236
Y024705
X039508
X040177Y024961
X039942Y026102
X040716Y027047
X040945Y026858
X041173Y027047
X039764Y028376
X039762Y029236
X039419Y035096
X039230Y035325
X041163Y035325
X040974Y035096
T02
X039199Y036049
X039699
X040199
X040699
X041199
Y036549
X040699
X040199
X039699
X039199
T03
X038248Y032520
Y033307
X040423
Y032520
T04
X042874Y016988
Y017988
Y018988
Y019988
Y020988
Y021988
X002606Y037264
X001606
T05
X004911Y006801
X041968Y011850
X035774Y010451
X032950Y008532
X025096
X023176Y010451
Y022242
X035774
X004911Y023848
Y015325
Y032372
X041968Y027323
T06
X001841Y005305
X045039Y010354
Y013346
X001841Y013829
Y016821
Y022352
Y008297
Y025344
Y030876
Y033868
X045039Y028819
Y025827
T07
X044370Y015354
X045472Y023425
T08
X000197Y002480
X000449
X000701
X000953
X001205
X004701
X004953
X005205
X005457
X005709
X009014Y005728
X009266
X009518
X009770
X010022
X013311Y002480
X013563
X013815
X014067
X014319
X014571
X014823
X015075
X015327
X015579
X015831
X016083
X032596Y005728
X032848
X033100
X033352
X033604
X036947
X037199
X037451
X037703
X037955
X041297
X041549
X041801
X042053
X042305
X045646
X045898
X046150
X046402
X046654
X002986Y039252
X002734
X002482
X002230
X001978
X000449
X000197
T10
X024213Y011555
T11
X025676Y007745
X032369
X034987Y011032
Y021662
X022389
Y011032
T12
X024213Y019429
T13
X001201Y039587
T14
X022330Y007685
X035715Y007685
X022330Y025008
X035715
M30
