M48
;Layer_Color=9474304
;FILE_FORMAT=2:4
INCH
;TYPE=PLATED
T1F00S00C0.0080
T2F00S00C0.0394
T3F00S00C0.1260
;TYPE=NON_PLATED
T4F00S00C0.0591
%
T01
X001033Y003465
X001220Y003327
X001405Y003465
X001585Y003327
X002728Y003021
X002776Y002795
X002551Y002845
X003001Y002747
X002825Y002571
X003955Y002230
X004095Y002067
X004105Y001702
X003957Y001554
X004016Y003593
X004226
X004232Y003809
X004016
X003967Y004478
X003671Y004530
X003396Y004478
X003298Y005023
X003684Y005376
X004163Y005252
X004238Y005039
X004998Y005276
X005039Y004803
X005354
X005039Y004488
Y004173
Y003858
X005669
Y004173
Y004488
Y004803
X005984
X005984Y005118
X005669Y005118
X006299
Y004803
X006614
X006929
Y005118
X007244
Y004803
X007559Y004803
X007874
X007874Y005100
X008189Y005118
X008187Y004831
X008504Y004803
X008819
X009134
X009449
X009449Y005118
X009134Y005118
X008819
X008504
Y004488
X008504Y004173
X008189
X008189Y004456
X007874Y004488
Y004183
X007559Y004173
X007559Y004488
X007244Y004488
X006929Y004488
Y004173
Y003858
X006299
Y004173
Y004488
X006614Y005118
X007559Y005118
X007874Y003858
X008189
X008504
X008819Y004488
X009449Y004488
Y004173
X009449Y003858
X010079Y003858
Y004173
X009764Y004488
X009768Y005094
X010062Y005110
X010079Y004839
X010403Y004809
X010709Y003858
X011239Y002667
X011447Y002638
X011418Y002846
X011634Y002815
X011304Y002458
X010348Y001839
X010141Y001878
X009931
X009741Y001788
X009551Y001878
X009341
X009150Y001788
X008960Y001878
X008750
X008559Y001788
X008573Y001535
X008592Y001278
X008382Y001274
X008172
X007928Y001271
X007969Y001788
X007779Y001878
X007569
X008159
X008369
X007230Y001541
X006405Y001720
X006398Y000394
X007382
X008550Y000402
X008760Y000413
X008970
X009350
X009560
X009744Y000305
X009941Y000413
X010151
X010335Y000305
X010338Y001280
X010128
Y001496
X010341Y001501
X009352Y000192
X012687Y001752
X013022Y002343
X013113Y002549
X013317Y002638
X013266Y002405
X013470Y002476
X013199Y002185
X013465Y003366
X013314Y003553
X012825Y003730
X012791Y003944
X012938Y004095
X012792Y004246
X012643Y004097
X012673Y003585
X012470Y003337
X012284Y004382
X012428Y004535
X011457Y005374
X013870Y005020
X014476
X014377Y005217
X015426Y005217
X015327Y005020
X014144Y003711
X014139Y003401
X013946Y003514
X014222Y002874
X014047Y005455
X014476Y005413
X015327Y005413
X015366Y006178
X015367Y006407
X015324Y007833
X014167Y007507
X014065Y006791
X014124Y008484
X014193Y010148
X013909Y010312
X013927Y010522
X013878Y010738
Y010948
X014006Y011122
X013878Y011306
Y011516
Y011762
Y011972
Y012205
X013870Y013091
Y013681
X014459Y014085
Y014321
X015364Y012766
Y012500
Y012281
X015344Y012047
X015364Y010974
X015366Y010730
X015364Y010520
X015324Y010266
X012982Y009350
X011329Y009213
Y008898
X011339Y008593
X011329Y008268
Y007953
Y007638
X010699
Y007953
Y008268
Y008583
X010394
X010384Y008888
X010699
Y009203
X010384Y009213
Y009537
X010394Y009847
X010709Y009528
X009784Y009528
X009764Y009803
X009449Y009852
X009449Y009529
X009449Y009213
Y008907
Y008583
Y008268
X009439Y007963
X009783Y007952
X009786Y008274
X009786Y008579
X009786Y008902
X009786Y009213
X008819Y009213
Y009528
X008505Y009532
X008504Y009213
Y008878
Y008563
X008526Y008268
X008839Y008268
Y008583
Y008898
X008189Y008907
X008187Y009232
X007874Y009242
X007875Y009552
X007559Y009528
Y009213
X007559Y008898
X007874Y008878
X007884Y008563
X008189Y008553
X008169Y008268
X007530
X007244Y008268
X007244Y008553
X006929Y008563
X006933Y008295
X006929Y007963
X007244
X007244Y007638
X007559
X007559Y007953
X007844
X007874Y007638
Y007323
Y007008
X008189
Y006693
Y006378
X007874
X007559
Y006693
X007244
Y006378
Y006063
Y005748
X007559
X007559Y005463
X007874
Y005748
X008189
X008504
X008819
Y005433
X008504
X008189
Y006063
X008504
Y006378
X008819
Y006063
X009134Y006063
X009134Y005748
X009449Y005778
Y006063
X009449Y006378
X009134
X009102Y006694
X008819Y006693
Y007008
X009104Y007008
X009429Y007018
Y007313
X009134Y007323
X009124Y007628
X008819Y007648
X008819Y007323
X008504
X008504Y007638
X008189Y007638
Y007323
X008504Y007008
Y006693
X009436Y006693
X009779Y006679
X010064Y006688
X010089Y006378
X010423
X010709Y006342
X010709Y007008
X010699Y007303
X010092Y007302
X010083Y007612
X010384Y007628
X010389Y007943
X010394Y008248
X009764Y007628
X009744Y007008
X009754Y006398
X009754Y006083
X009750Y005765
X009766Y005451
X010086Y005447
X010087Y005767
X009449Y005443
X010738
X007874Y006063
X007559
X006929
X006614
X006299
X005984
Y005748
X006299
X006614
X006929
Y005433
X007244
X006614Y005433
X006299
X005984
X005669
X005669Y005748
X005984Y006378
X005984Y006693
X006299Y006693
X006614
X006929
Y007008
Y007323
X006614
X006322Y007321
X006334Y007638
X006614Y007638
X006929
X007244Y007323
Y007008
X006614
X006299
X005984Y007008
X005984Y007323
X005669
X005662Y007622
X005961Y007628
X005972Y007945
X005665Y007940
X005696Y008260
X005984Y008268
Y008583
X006299Y008583
Y008898
X005984Y008898
Y009213
Y009528
X006299
X006929
X006929Y009744
X006929Y009213
Y008898
X006614Y008898
Y008612
Y007963
X006299Y007953
X005669Y008573
Y008927
X005667Y009187
X005679Y009567
X005639Y007009
X005640Y006693
X006299Y006378
X006614
X006929
X007559Y007323
X009132Y008245
X008711Y009774
X008819Y012352
X009134Y012362
X009449
X009764Y012362
X010079
X010234Y013641
X009921Y013642
X009606
X009292Y013641
X008976Y013642
X008661
X008346
X008032Y013641
X008189Y013917
X008504
X008819
X009134
X009449
X009764
X010079
X010394
X010709Y013921
X011024Y013917
X011181Y013642
X010866
X010551
X010709Y015197
X010394
X010079Y015197
X009764
X009449
X009134
X009144Y014882
X008504Y015197
X008189Y015207
X007877Y015205
X007559Y015207
X007244Y015207
X006929Y015217
X006614
X006614Y014902
X006299Y014894
Y015214
X005984Y015217
X005669
X005522Y016407
Y016683
X005689Y016545
X005856Y016683
Y016407
X006099Y017280
X006486Y017224
X006841
X007569Y017116
X007785
Y016900
X007569
Y016654
X007569Y016437
X007785
Y016654
X008031
Y016437
X008248
Y016654
X007596Y017714
X007598Y018130
X007596Y018553
X007982Y018831
X008278Y019222
X008880Y019372
X009528Y019380
X010169Y019372
X010738Y019272
X011093
X011447
X011270Y019459
X010915
X012182Y019196
Y018986
X012018Y018799
X012500Y019480
X012746
X012854Y017972
X013051Y017835
X013041Y018140
X013051Y017480
X012854Y017638
X012854Y017283
X012657Y017106
X012657Y017461
Y017815
X013061Y017106
X013258Y017283
X013465Y017106
X011998Y017096
X011102Y016742
X010709Y015571
X007884Y014882
X007874Y014567
X007559Y014567
X007559Y014252
X007244
X006929
X006929Y014567
X007244
X007244Y014882
X007559Y014882
X007087Y015394
X007175Y013927
X007348Y013792
X007548Y013728
X007874Y013917
X006693Y013927
X006614Y014242
X006250Y013898
X006398Y013740
X006258Y013578
X006404Y013425
X006614Y013307
X006929Y013307
X006929Y012992
X006929Y012677
X006614Y012677
Y012362
X006929
X007106Y012079
X007316Y012078
X007559Y012362
X007559Y012677
X007874Y012677
X007876Y012352
X008189Y012362
X006299
Y012677
X006302Y012988
X006614Y012992
X005984Y012992
X005669Y013287
X005669Y012362
X005984Y012362
X006488Y018749
X006841Y018780
X006841Y019016
X005856Y019321
X005689Y019459
X005522Y019321
X005220Y019323
X005010
X004783Y019222
Y019439
X004557Y019321
X004559Y019104
X004557Y018893
X004781Y019006
X004306Y019478
X004094Y019480
X003878Y019478
X003435Y017787
X002844Y017787
X002441Y016978
Y016732
Y016467
X002717
X002972
X003278Y016447
Y016181
X003445Y016309
Y016033
X003642Y016201
Y016447
X003878Y016526
X004094Y016524
X004306Y016526
X004557Y016683
X004559Y016900
X004557Y017111
X004781Y016998
X004783Y016782
Y016565
X005010Y016681
X005220
X005354Y015217
X005207Y014724
X005295Y012835
X005344Y012352
X005357Y009552
X005039Y009537
X005046Y009216
X005039Y008927
X005354Y008907
Y008573
X005334Y008258
X005335Y007944
X005065Y007947
X005046Y007622
X005354Y007618
X004833Y007520
X004646Y007618
X004341Y007192
X005000Y007106
X005039Y006063
Y005748
X004823Y005748
X004429
Y005443
X004222Y005591
X004232Y005906
X004577Y006220
X004803
X005354Y006063
Y005748
X003533Y005538
X002913Y005548
Y005758
Y005974
X002856Y006319
X001882Y006093
X001260Y006496
X001272Y006791
X001272Y007776
Y008563
Y008957
Y009350
Y009744
Y010138
Y010531
X001272Y010925
X001878Y011122
Y011516
X001860Y011909
X001280
X001575Y012293
X001280Y012697
X001870
X001878Y013878
X001614Y013807
X001358Y013681
X001272Y014272
X000360Y013976
X000364Y014636
X002736Y014468
X002736Y014075
X003041Y014262
X003051Y014656
X002736Y010925
Y010532
Y010138
Y009744
Y009350
Y008957
X002734Y008671
X001892Y008662
X001878Y009154
Y009547
Y009941
Y010335
Y010728
X000421
X000421Y010335
Y009941
Y009547
Y009154
X000421Y008760
X001890Y007280
X002739Y007532
Y007815
X005374Y009222
T02
X003947Y001122
X001122Y003947
X013720
X011801Y001122
X013720Y015738
X001122
T03
X001181Y001181
X014567
Y018504
X001181
T04
X004528Y001909
X001909Y004528
X011220Y001909
X014508Y004528
Y015157
X001909
M30
