G04*
G04 #@! TF.GenerationSoftware,Altium Limited,Altium Designer,23.10.1 (27)*
G04*
G04 Layer_Color=32896*
%FSAX25Y25*%
%MOIN*%
G70*
G04*
G04 #@! TF.SameCoordinates,DD09C1F2-BA3A-4F81-A9C7-6BB9A0416EC0*
G04*
G04*
G04 #@! TF.FilePolarity,Positive*
G04*
G01*
G75*
%ADD10C,0.00394*%
D10*
X0108563Y0038091D02*
Y0040453D01*
X0107382Y0039272D02*
X0109744D01*
X0093110Y0029429D02*
X0097047D01*
X0095079Y0027461D02*
Y0031398D01*
X0087894Y0054921D02*
X0091831D01*
X0089862Y0052953D02*
Y0056890D01*
X0120965Y0057087D02*
Y0061024D01*
X0118996Y0059055D02*
X0122933D01*
X0111811Y0037106D02*
X0115354D01*
X0113583Y0035335D02*
Y0038878D01*
X0383465Y0029921D02*
X0385827D01*
X0384646Y0028740D02*
Y0031102D01*
X0098228Y0052953D02*
Y0056890D01*
X0096260Y0054921D02*
X0100197D01*
X0200492Y0070079D02*
X0204035D01*
X0202264Y0068307D02*
Y0071850D01*
X0173031Y0025197D02*
X0175394D01*
X0174213Y0024016D02*
Y0026378D01*
X0248917Y0048622D02*
Y0050984D01*
X0247736Y0049803D02*
X0250098D01*
X0248917Y0062992D02*
Y0065354D01*
X0247736Y0064173D02*
X0250098D01*
X0264567Y0050984D02*
Y0053347D01*
X0263386Y0052165D02*
X0265748D01*
X0264567Y0062205D02*
Y0064567D01*
X0263386Y0063386D02*
X0265748D01*
X0256594Y0049606D02*
Y0053543D01*
X0254626Y0051575D02*
X0258563D01*
X0256594Y0060433D02*
Y0064370D01*
X0254626Y0062402D02*
X0258563D01*
X0172146Y0054134D02*
X0174508D01*
X0173327Y0052953D02*
Y0055315D01*
X0169587Y0060335D02*
Y0062697D01*
X0168405Y0061516D02*
X0170768D01*
X0173327Y0060335D02*
Y0062697D01*
X0172146Y0061516D02*
X0174508D01*
X0131004Y0028839D02*
Y0031201D01*
X0129823Y0030020D02*
X0132185D01*
X0129035Y0020472D02*
X0132973D01*
X0131004Y0018504D02*
Y0022441D01*
X0155217Y0060335D02*
X0157579D01*
X0156398Y0059154D02*
Y0061516D01*
X0145669Y0048720D02*
X0148031D01*
X0146850Y0047539D02*
Y0049902D01*
X0148622Y0053248D02*
Y0055610D01*
X0147441Y0054429D02*
X0149803D01*
X0134744Y0028839D02*
Y0031201D01*
X0133563Y0030020D02*
X0135925D01*
X0137894Y0010039D02*
X0140256D01*
X0139075Y0008858D02*
Y0011220D01*
X0147638Y0018209D02*
X0150000D01*
X0148819Y0017028D02*
Y0019390D01*
X0164567Y0061713D02*
X0166929D01*
X0165748Y0060532D02*
Y0062894D01*
X0168209Y0046850D02*
X0170571D01*
X0169390Y0045669D02*
Y0048031D01*
X0169488Y0053051D02*
Y0055413D01*
X0168307Y0054232D02*
X0170669D01*
X0218209Y0070079D02*
X0221752D01*
X0219980Y0068307D02*
Y0071850D01*
X0211122Y0071063D02*
Y0075000D01*
X0209154Y0073032D02*
X0213091D01*
X0065748Y0055020D02*
X0069685D01*
X0067716Y0053051D02*
Y0056988D01*
X0168012Y0025098D02*
X0170374D01*
X0169193Y0023917D02*
Y0026280D01*
X0157874Y0030217D02*
Y0032579D01*
X0156693Y0031398D02*
X0159055D01*
M02*
