%TF.GenerationSoftware,KiCad,Pcbnew,8.99.0-3402-gadd58faa30*%
%TF.CreationDate,2024-12-15T16:18:47-05:00*%
%TF.ProjectId,Thunderscope_Rev5_Mech_Model,5468756e-6465-4727-9363-6f70655f5265,rev?*%
%TF.SameCoordinates,Original*%
%TF.FileFunction,Legend,Bot*%
%TF.FilePolarity,Positive*%
%FSLAX46Y46*%
G04 Gerber Fmt 4.6, Leading zero omitted, Abs format (unit mm)*
G04 Created by KiCad (PCBNEW 8.99.0-3402-gadd58faa30) date 2024-12-15 16:18:47*
%MOMM*%
%LPD*%
G01*
G04 APERTURE LIST*
%ADD10C,0.150000*%
%ADD11C,0.200000*%
%ADD12C,0.152400*%
%ADD13C,0.127000*%
G04 APERTURE END LIST*
D10*
G36*
X208604026Y-106825600D02*
G01*
X208912248Y-106825600D01*
X208912248Y-106291001D01*
X208838060Y-106291001D01*
X208838060Y-106763464D01*
X208604026Y-106763464D01*
X208604026Y-106825600D01*
G37*
G36*
X208159516Y-106825600D02*
G01*
X208464038Y-106825600D01*
X208464038Y-106291001D01*
X208159516Y-106291001D01*
X208159516Y-106352550D01*
X208391095Y-106352550D01*
X208391095Y-106517854D01*
X208168529Y-106517854D01*
X208168529Y-106579403D01*
X208391095Y-106579403D01*
X208391095Y-106763464D01*
X208159516Y-106763464D01*
X208159516Y-106825600D01*
G37*
G36*
X208040448Y-106825600D02*
G01*
X207925666Y-106825600D01*
X207875932Y-106823063D01*
X207834295Y-106816001D01*
X207795838Y-106804095D01*
X207763770Y-106788780D01*
X207735548Y-106769202D01*
X207712552Y-106746465D01*
X207693619Y-106720382D01*
X207678517Y-106691437D01*
X207667287Y-106660260D01*
X207659466Y-106626004D01*
X207655042Y-106590353D01*
X207653741Y-106557641D01*
X207730174Y-106557641D01*
X207733684Y-106610430D01*
X207743321Y-106652692D01*
X207758102Y-106686363D01*
X207777580Y-106713009D01*
X207801880Y-106733719D01*
X207831693Y-106749012D01*
X207868195Y-106758779D01*
X207912953Y-106762292D01*
X207967468Y-106762292D01*
X207967468Y-106352550D01*
X207904747Y-106352550D01*
X207862123Y-106355438D01*
X207827700Y-106363394D01*
X207797469Y-106377660D01*
X207773185Y-106398309D01*
X207754699Y-106425296D01*
X207740835Y-106461653D01*
X207733081Y-106503131D01*
X207730174Y-106557641D01*
X207653741Y-106557641D01*
X207653531Y-106552365D01*
X207656493Y-106497561D01*
X207664751Y-106451730D01*
X207677552Y-106413510D01*
X207694430Y-106381730D01*
X207715226Y-106355444D01*
X207740723Y-106333449D01*
X207771237Y-106315799D01*
X207807593Y-106302535D01*
X207850857Y-106294037D01*
X207902292Y-106291001D01*
X208040448Y-106291001D01*
X208040448Y-106825600D01*
G37*
G36*
X207162273Y-106994420D02*
G01*
X207623782Y-106994420D01*
X207623782Y-106935216D01*
X207162273Y-106935216D01*
X207162273Y-106994420D01*
G37*
G36*
X207097683Y-106825600D02*
G01*
X206957512Y-106825600D01*
X206910836Y-106822820D01*
X206870427Y-106814938D01*
X206833452Y-106801464D01*
X206803602Y-106783724D01*
X206779032Y-106760796D01*
X206760994Y-106733459D01*
X206749894Y-106702090D01*
X206746279Y-106667623D01*
X206823496Y-106667623D01*
X206827282Y-106699237D01*
X206837661Y-106722934D01*
X206854234Y-106740676D01*
X206876051Y-106752797D01*
X206906337Y-106760964D01*
X206947693Y-106764050D01*
X207024740Y-106764050D01*
X207024740Y-106579403D01*
X206950148Y-106579403D01*
X206921454Y-106581019D01*
X206897062Y-106585558D01*
X206874788Y-106593220D01*
X206857128Y-106602997D01*
X206842555Y-106615686D01*
X206832105Y-106630694D01*
X206825702Y-106647901D01*
X206823496Y-106667623D01*
X206746279Y-106667623D01*
X206746010Y-106665059D01*
X206748242Y-106639283D01*
X206754619Y-106617065D01*
X206764866Y-106596988D01*
X206777993Y-106580099D01*
X206793905Y-106565955D01*
X206812248Y-106554636D01*
X206832236Y-106546231D01*
X206853428Y-106540678D01*
X206823846Y-106528163D01*
X206801830Y-106512790D01*
X206785980Y-106494663D01*
X206774680Y-106473169D01*
X206767711Y-106448678D01*
X206766137Y-106430439D01*
X206841118Y-106430439D01*
X206843227Y-106452119D01*
X206849105Y-106469567D01*
X206858741Y-106484617D01*
X206871673Y-106496934D01*
X206887350Y-106506326D01*
X206906514Y-106513164D01*
X206927449Y-106517060D01*
X206951796Y-106518440D01*
X207024740Y-106518440D01*
X207024740Y-106352550D01*
X206949305Y-106352550D01*
X206918785Y-106354229D01*
X206896475Y-106358632D01*
X206877059Y-106366109D01*
X206863246Y-106375081D01*
X206852728Y-106386514D01*
X206846027Y-106399811D01*
X206842365Y-106414547D01*
X206841118Y-106430439D01*
X206766137Y-106430439D01*
X206765280Y-106420511D01*
X206768846Y-106386543D01*
X206778847Y-106359034D01*
X206794942Y-106336552D01*
X206817739Y-106318265D01*
X206848710Y-106304057D01*
X206890026Y-106294546D01*
X206944396Y-106291001D01*
X207097683Y-106291001D01*
X207097683Y-106825600D01*
G37*
G36*
X208588752Y-101300101D02*
G01*
X208619209Y-101286198D01*
X208650264Y-101275884D01*
X208682681Y-101269498D01*
X208719104Y-101267274D01*
X208760091Y-101271222D01*
X208794941Y-101282478D01*
X208825585Y-101300825D01*
X208850885Y-101325343D01*
X208870689Y-101355296D01*
X208885726Y-101391985D01*
X208894684Y-101432233D01*
X208897816Y-101478117D01*
X208895231Y-101525948D01*
X208887998Y-101566337D01*
X208875076Y-101602977D01*
X208857260Y-101632356D01*
X208833558Y-101656152D01*
X208803771Y-101673792D01*
X208769158Y-101684335D01*
X208725662Y-101688154D01*
X208708846Y-101687348D01*
X208690821Y-101685076D01*
X208673418Y-101681596D01*
X208658434Y-101677089D01*
X208658434Y-101506437D01*
X208767867Y-101506437D01*
X208767867Y-101446060D01*
X208586297Y-101446060D01*
X208586297Y-101720210D01*
X208621761Y-101734169D01*
X208659899Y-101744427D01*
X208698624Y-101750582D01*
X208735920Y-101752634D01*
X208772215Y-101750620D01*
X208805067Y-101744801D01*
X208834912Y-101735415D01*
X208862997Y-101721963D01*
X208887888Y-101704972D01*
X208909906Y-101684307D01*
X208928536Y-101660490D01*
X208944412Y-101632573D01*
X208957461Y-101600006D01*
X208966402Y-101565983D01*
X208972064Y-101527217D01*
X208974057Y-101483063D01*
X208971882Y-101439308D01*
X208965633Y-101400040D01*
X208955629Y-101364727D01*
X208941333Y-101330979D01*
X208924029Y-101301595D01*
X208903752Y-101276104D01*
X208880036Y-101253845D01*
X208853360Y-101235429D01*
X208823408Y-101220709D01*
X208791607Y-101210247D01*
X208757241Y-101203826D01*
X208719910Y-101201622D01*
X208684374Y-101203193D01*
X208651290Y-101207777D01*
X208619312Y-101215776D01*
X208588752Y-101227414D01*
X208588752Y-101300101D01*
G37*
G36*
X208126620Y-101745600D02*
G01*
X208221691Y-101745600D01*
X208377872Y-101412025D01*
X208422972Y-101304790D01*
X208422972Y-101574507D01*
X208422972Y-101745600D01*
X208491006Y-101745600D01*
X208491006Y-101211001D01*
X208397143Y-101211001D01*
X208248362Y-101527063D01*
X208194653Y-101649466D01*
X208194653Y-101362895D01*
X208194653Y-101211001D01*
X208126620Y-101211001D01*
X208126620Y-101745600D01*
G37*
G36*
X208033783Y-101745600D02*
G01*
X207919001Y-101745600D01*
X207869267Y-101743063D01*
X207827630Y-101736001D01*
X207789173Y-101724095D01*
X207757105Y-101708780D01*
X207728883Y-101689202D01*
X207705887Y-101666465D01*
X207686954Y-101640382D01*
X207671852Y-101611437D01*
X207660622Y-101580260D01*
X207652801Y-101546004D01*
X207648377Y-101510353D01*
X207647076Y-101477641D01*
X207723509Y-101477641D01*
X207727019Y-101530430D01*
X207736656Y-101572692D01*
X207751437Y-101606363D01*
X207770915Y-101633009D01*
X207795215Y-101653719D01*
X207825028Y-101669012D01*
X207861530Y-101678779D01*
X207906288Y-101682292D01*
X207960803Y-101682292D01*
X207960803Y-101272550D01*
X207898082Y-101272550D01*
X207855458Y-101275438D01*
X207821035Y-101283394D01*
X207790804Y-101297660D01*
X207766520Y-101318309D01*
X207748034Y-101345296D01*
X207734170Y-101381653D01*
X207726416Y-101423131D01*
X207723509Y-101477641D01*
X207647076Y-101477641D01*
X207646866Y-101472365D01*
X207649828Y-101417561D01*
X207658086Y-101371730D01*
X207670887Y-101333510D01*
X207687765Y-101301730D01*
X207708561Y-101275444D01*
X207734058Y-101253449D01*
X207764572Y-101235799D01*
X207800928Y-101222535D01*
X207844192Y-101214037D01*
X207895627Y-101211001D01*
X208033783Y-101211001D01*
X208033783Y-101745600D01*
G37*
G36*
X208597361Y-104302600D02*
G01*
X208905583Y-104302600D01*
X208905583Y-103768001D01*
X208831395Y-103768001D01*
X208831395Y-104240464D01*
X208597361Y-104240464D01*
X208597361Y-104302600D01*
G37*
G36*
X208152851Y-104302600D02*
G01*
X208457373Y-104302600D01*
X208457373Y-103768001D01*
X208152851Y-103768001D01*
X208152851Y-103829550D01*
X208384430Y-103829550D01*
X208384430Y-103994854D01*
X208161864Y-103994854D01*
X208161864Y-104056403D01*
X208384430Y-104056403D01*
X208384430Y-104240464D01*
X208152851Y-104240464D01*
X208152851Y-104302600D01*
G37*
G36*
X208033783Y-104302600D02*
G01*
X207919001Y-104302600D01*
X207869267Y-104300063D01*
X207827630Y-104293001D01*
X207789173Y-104281095D01*
X207757105Y-104265780D01*
X207728883Y-104246202D01*
X207705887Y-104223465D01*
X207686954Y-104197382D01*
X207671852Y-104168437D01*
X207660622Y-104137260D01*
X207652801Y-104103004D01*
X207648377Y-104067353D01*
X207647076Y-104034641D01*
X207723509Y-104034641D01*
X207727019Y-104087430D01*
X207736656Y-104129692D01*
X207751437Y-104163363D01*
X207770915Y-104190009D01*
X207795215Y-104210719D01*
X207825028Y-104226012D01*
X207861530Y-104235779D01*
X207906288Y-104239292D01*
X207960803Y-104239292D01*
X207960803Y-103829550D01*
X207898082Y-103829550D01*
X207855458Y-103832438D01*
X207821035Y-103840394D01*
X207790804Y-103854660D01*
X207766520Y-103875309D01*
X207748034Y-103902296D01*
X207734170Y-103938653D01*
X207726416Y-103980131D01*
X207723509Y-104034641D01*
X207647076Y-104034641D01*
X207646866Y-104029365D01*
X207649828Y-103974561D01*
X207658086Y-103928730D01*
X207670887Y-103890510D01*
X207687765Y-103858730D01*
X207708561Y-103832444D01*
X207734058Y-103810449D01*
X207764572Y-103792799D01*
X207800928Y-103779535D01*
X207844192Y-103771037D01*
X207895627Y-103768001D01*
X208033783Y-103768001D01*
X208033783Y-104302600D01*
G37*
G36*
X207155608Y-104471420D02*
G01*
X207617117Y-104471420D01*
X207617117Y-104412216D01*
X207155608Y-104412216D01*
X207155608Y-104471420D01*
G37*
G36*
X206743448Y-103857101D02*
G01*
X206773906Y-103843198D01*
X206804961Y-103832884D01*
X206837378Y-103826498D01*
X206873800Y-103824274D01*
X206914788Y-103828222D01*
X206949638Y-103839478D01*
X206980281Y-103857825D01*
X207005582Y-103882343D01*
X207025385Y-103912296D01*
X207040423Y-103948985D01*
X207049380Y-103989233D01*
X207052513Y-104035117D01*
X207049928Y-104082948D01*
X207042694Y-104123337D01*
X207029772Y-104159977D01*
X207011956Y-104189356D01*
X206988254Y-104213152D01*
X206958467Y-104230792D01*
X206923854Y-104241335D01*
X206880358Y-104245154D01*
X206863542Y-104244348D01*
X206845517Y-104242076D01*
X206828115Y-104238596D01*
X206813130Y-104234089D01*
X206813130Y-104063437D01*
X206922563Y-104063437D01*
X206922563Y-104003060D01*
X206740993Y-104003060D01*
X206740993Y-104277210D01*
X206776457Y-104291169D01*
X206814596Y-104301427D01*
X206853321Y-104307582D01*
X206890616Y-104309634D01*
X206926912Y-104307620D01*
X206959763Y-104301801D01*
X206989608Y-104292415D01*
X207017694Y-104278963D01*
X207042584Y-104261972D01*
X207064603Y-104241307D01*
X207083233Y-104217490D01*
X207099108Y-104189573D01*
X207112157Y-104157006D01*
X207121098Y-104122983D01*
X207126761Y-104084217D01*
X207128753Y-104040063D01*
X207126579Y-103996308D01*
X207120330Y-103957040D01*
X207110325Y-103921727D01*
X207096029Y-103887979D01*
X207078725Y-103858595D01*
X207058448Y-103833104D01*
X207034732Y-103810845D01*
X207008057Y-103792429D01*
X206978104Y-103777709D01*
X206946304Y-103767247D01*
X206911937Y-103760826D01*
X206874606Y-103758622D01*
X206839070Y-103760193D01*
X206805986Y-103764777D01*
X206774008Y-103772776D01*
X206743448Y-103784414D01*
X206743448Y-103857101D01*
G37*
G36*
X208592769Y-114253332D02*
G01*
X208753822Y-114253332D01*
X208753822Y-114419807D01*
X208824348Y-114419807D01*
X208824348Y-114253332D01*
X208985401Y-114253332D01*
X208985401Y-114191196D01*
X208824348Y-114191196D01*
X208824348Y-114024720D01*
X208753822Y-114024720D01*
X208753822Y-114191196D01*
X208592769Y-114191196D01*
X208592769Y-114253332D01*
G37*
G36*
X208098653Y-113911001D02*
G01*
X208280626Y-114445600D01*
X208378995Y-114445600D01*
X208556865Y-113911001D01*
X208474506Y-113911001D01*
X208358918Y-114271357D01*
X208326129Y-114376870D01*
X208292497Y-114271357D01*
X208176506Y-113911001D01*
X208098653Y-113911001D01*
G37*
G36*
X207679935Y-114259267D02*
G01*
X207683188Y-114302082D01*
X207692465Y-114339207D01*
X207708066Y-114372616D01*
X207729138Y-114400097D01*
X207755762Y-114422190D01*
X207788379Y-114438932D01*
X207825057Y-114449042D01*
X207868906Y-114452634D01*
X207916718Y-114449108D01*
X207953719Y-114439554D01*
X207985817Y-114423450D01*
X208010506Y-114402552D01*
X208029309Y-114376502D01*
X208042490Y-114345142D01*
X208049912Y-114310459D01*
X208052528Y-114270331D01*
X208052528Y-113911001D01*
X207979548Y-113911001D01*
X207979548Y-114264542D01*
X207977965Y-114294990D01*
X207973613Y-114319753D01*
X207965592Y-114341901D01*
X207954159Y-114359394D01*
X207938822Y-114373247D01*
X207919098Y-114383501D01*
X207896215Y-114389463D01*
X207866415Y-114391671D01*
X207837457Y-114389269D01*
X207814203Y-114382623D01*
X207795517Y-114372240D01*
X207780576Y-114358148D01*
X207765862Y-114334284D01*
X207756357Y-114303458D01*
X207752879Y-114263736D01*
X207752879Y-113911001D01*
X207679935Y-113911001D01*
X207679935Y-114259267D01*
G37*
G36*
X207227219Y-114300006D02*
G01*
X207231265Y-114336468D01*
X207242790Y-114366904D01*
X207261346Y-114393090D01*
X207286240Y-114414678D01*
X207316202Y-114431041D01*
X207353285Y-114443218D01*
X207393545Y-114450184D01*
X207439527Y-114452634D01*
X207481952Y-114450985D01*
X207522545Y-114446882D01*
X207559218Y-114441166D01*
X207590359Y-114434169D01*
X207590359Y-114363571D01*
X207558487Y-114373611D01*
X207521300Y-114381596D01*
X207481671Y-114386414D01*
X207434215Y-114388154D01*
X207400286Y-114386648D01*
X207374168Y-114382621D01*
X207350878Y-114375460D01*
X207333575Y-114366245D01*
X207319785Y-114354006D01*
X207310640Y-114339793D01*
X207305325Y-114323415D01*
X207303460Y-114304110D01*
X207306565Y-114283698D01*
X207315550Y-114266997D01*
X207329207Y-114252719D01*
X207347313Y-114239520D01*
X207367902Y-114228147D01*
X207392193Y-114217355D01*
X207443630Y-114196618D01*
X207495068Y-114173464D01*
X207519105Y-114159666D01*
X207539948Y-114143899D01*
X207557730Y-114125373D01*
X207571711Y-114103892D01*
X207580628Y-114079440D01*
X207583801Y-114049340D01*
X207580972Y-114022214D01*
X207572334Y-113995155D01*
X207557890Y-113970244D01*
X207536687Y-113947784D01*
X207509970Y-113929540D01*
X207474588Y-113914335D01*
X207434625Y-113905029D01*
X207384206Y-113901622D01*
X207354897Y-113902867D01*
X207322913Y-113906348D01*
X207290967Y-113911514D01*
X207261657Y-113917669D01*
X207261657Y-113983394D01*
X207324782Y-113969656D01*
X207356115Y-113966089D01*
X207385855Y-113964930D01*
X207427418Y-113967745D01*
X207457207Y-113975103D01*
X207478069Y-113985812D01*
X207494626Y-114001556D01*
X207504256Y-114019952D01*
X207507561Y-114041939D01*
X207504464Y-114062392D01*
X207495471Y-114079309D01*
X207481809Y-114093779D01*
X207463707Y-114107189D01*
X207443104Y-114118704D01*
X207418828Y-114129537D01*
X207367390Y-114150273D01*
X207315953Y-114173647D01*
X207291936Y-114187672D01*
X207271073Y-114203799D01*
X207253299Y-114222726D01*
X207239309Y-114244649D01*
X207230392Y-114269497D01*
X207227219Y-114300006D01*
G37*
G36*
X207109763Y-114445600D02*
G01*
X206969592Y-114445600D01*
X206922916Y-114442820D01*
X206882507Y-114434938D01*
X206845532Y-114421464D01*
X206815682Y-114403724D01*
X206791112Y-114380796D01*
X206773074Y-114353459D01*
X206761974Y-114322090D01*
X206758359Y-114287623D01*
X206835576Y-114287623D01*
X206839362Y-114319237D01*
X206849741Y-114342934D01*
X206866314Y-114360676D01*
X206888131Y-114372797D01*
X206918417Y-114380964D01*
X206959773Y-114384050D01*
X207036820Y-114384050D01*
X207036820Y-114199403D01*
X206962228Y-114199403D01*
X206933534Y-114201019D01*
X206909142Y-114205558D01*
X206886868Y-114213220D01*
X206869208Y-114222997D01*
X206854635Y-114235686D01*
X206844185Y-114250694D01*
X206837782Y-114267901D01*
X206835576Y-114287623D01*
X206758359Y-114287623D01*
X206758090Y-114285059D01*
X206760322Y-114259283D01*
X206766699Y-114237065D01*
X206776946Y-114216988D01*
X206790073Y-114200099D01*
X206805985Y-114185955D01*
X206824328Y-114174636D01*
X206844316Y-114166231D01*
X206865508Y-114160678D01*
X206835926Y-114148163D01*
X206813910Y-114132790D01*
X206798060Y-114114663D01*
X206786760Y-114093169D01*
X206779791Y-114068678D01*
X206778217Y-114050439D01*
X206853198Y-114050439D01*
X206855307Y-114072119D01*
X206861185Y-114089567D01*
X206870821Y-114104617D01*
X206883753Y-114116934D01*
X206899430Y-114126326D01*
X206918594Y-114133164D01*
X206939529Y-114137060D01*
X206963876Y-114138440D01*
X207036820Y-114138440D01*
X207036820Y-113972550D01*
X206961385Y-113972550D01*
X206930865Y-113974229D01*
X206908555Y-113978632D01*
X206889139Y-113986109D01*
X206875326Y-113995081D01*
X206864808Y-114006514D01*
X206858107Y-114019811D01*
X206854445Y-114034547D01*
X206853198Y-114050439D01*
X206778217Y-114050439D01*
X206777360Y-114040511D01*
X206780926Y-114006543D01*
X206790927Y-113979034D01*
X206807022Y-113956552D01*
X206829819Y-113938265D01*
X206860790Y-113924057D01*
X206902106Y-113914546D01*
X206956476Y-113911001D01*
X207109763Y-113911001D01*
X207109763Y-114445600D01*
G37*
G36*
X208597781Y-109365590D02*
G01*
X208906003Y-109365590D01*
X208906003Y-108830991D01*
X208831815Y-108830991D01*
X208831815Y-109303454D01*
X208597781Y-109303454D01*
X208597781Y-109365590D01*
G37*
G36*
X208153271Y-109365590D02*
G01*
X208457793Y-109365590D01*
X208457793Y-108830991D01*
X208153271Y-108830991D01*
X208153271Y-108892540D01*
X208384850Y-108892540D01*
X208384850Y-109057844D01*
X208162284Y-109057844D01*
X208162284Y-109119393D01*
X208384850Y-109119393D01*
X208384850Y-109303454D01*
X208153271Y-109303454D01*
X208153271Y-109365590D01*
G37*
G36*
X208034203Y-109365590D02*
G01*
X207919421Y-109365590D01*
X207869687Y-109363053D01*
X207828050Y-109355991D01*
X207789593Y-109344085D01*
X207757525Y-109328770D01*
X207729303Y-109309192D01*
X207706307Y-109286455D01*
X207687374Y-109260372D01*
X207672272Y-109231427D01*
X207661042Y-109200250D01*
X207653221Y-109165994D01*
X207648797Y-109130343D01*
X207647496Y-109097631D01*
X207723929Y-109097631D01*
X207727439Y-109150420D01*
X207737076Y-109192682D01*
X207751857Y-109226353D01*
X207771335Y-109252999D01*
X207795635Y-109273709D01*
X207825448Y-109289002D01*
X207861950Y-109298769D01*
X207906708Y-109302282D01*
X207961223Y-109302282D01*
X207961223Y-108892540D01*
X207898502Y-108892540D01*
X207855878Y-108895428D01*
X207821455Y-108903384D01*
X207791224Y-108917650D01*
X207766940Y-108938299D01*
X207748454Y-108965286D01*
X207734590Y-109001643D01*
X207726836Y-109043121D01*
X207723929Y-109097631D01*
X207647496Y-109097631D01*
X207647286Y-109092355D01*
X207650248Y-109037551D01*
X207658506Y-108991720D01*
X207671307Y-108953500D01*
X207688185Y-108921720D01*
X207708981Y-108895434D01*
X207734478Y-108873439D01*
X207764992Y-108855789D01*
X207801348Y-108842525D01*
X207844612Y-108834027D01*
X207896047Y-108830991D01*
X208034203Y-108830991D01*
X208034203Y-109365590D01*
G37*
G36*
X207156028Y-109534410D02*
G01*
X207617537Y-109534410D01*
X207617537Y-109475206D01*
X207156028Y-109475206D01*
X207156028Y-109534410D01*
G37*
G36*
X207086528Y-109365590D02*
G01*
X207013585Y-109365590D01*
X207013585Y-109128772D01*
X206979147Y-109128772D01*
X206950278Y-109132032D01*
X206937853Y-109136371D01*
X206926501Y-109142840D01*
X206916223Y-109151442D01*
X206906204Y-109163173D01*
X206887739Y-109195487D01*
X206807835Y-109365590D01*
X206725440Y-109365590D01*
X206810290Y-109189735D01*
X206827299Y-109159849D01*
X206842457Y-109138773D01*
X206860033Y-109122418D01*
X206880778Y-109111956D01*
X206854114Y-109103550D01*
X206831392Y-109092062D01*
X206811450Y-109077307D01*
X206795342Y-109060408D01*
X206782575Y-109041120D01*
X206773397Y-109019742D01*
X206767874Y-108996863D01*
X206766467Y-108978452D01*
X206842237Y-108978452D01*
X206844325Y-108999771D01*
X206850260Y-109017727D01*
X206859899Y-109033478D01*
X206872792Y-109046523D01*
X206888564Y-109056652D01*
X206908036Y-109064218D01*
X206929479Y-109068600D01*
X206954564Y-109070153D01*
X207013585Y-109070153D01*
X207013585Y-108892540D01*
X206944709Y-108892540D01*
X206912834Y-108895239D01*
X206888146Y-108902596D01*
X206869091Y-108913936D01*
X206854568Y-108929972D01*
X206845517Y-108950949D01*
X206842237Y-108978452D01*
X206766467Y-108978452D01*
X206765996Y-108972297D01*
X206768592Y-108941626D01*
X206776071Y-108914595D01*
X206788949Y-108890453D01*
X206807615Y-108870045D01*
X206831405Y-108853997D01*
X206862753Y-108841286D01*
X206898134Y-108833760D01*
X206943060Y-108830991D01*
X207086528Y-108830991D01*
X207086528Y-109365590D01*
G37*
D11*
X175544577Y-140236380D02*
X174973149Y-140236380D01*
X175258863Y-140236380D02*
X175258863Y-141236380D01*
X175258863Y-141236380D02*
X175163625Y-141093523D01*
X175163625Y-141093523D02*
X175068387Y-140998285D01*
X175068387Y-140998285D02*
X174973149Y-140950666D01*
D12*
%TO.C,J8*%
X173401695Y-130545500D02*
X173401695Y-136349660D01*
X173401695Y-130545500D02*
X174990955Y-130545500D01*
X189711235Y-139511700D02*
X191240955Y-139511700D01*
X189961235Y-130545500D02*
X191490955Y-130545500D01*
X193961235Y-130545500D02*
X195550495Y-130545500D01*
X195550495Y-133887760D02*
X195550495Y-136349660D01*
X195550495Y-130545500D02*
X195550495Y-133169450D01*
D13*
%TO.C,J10*%
X205341095Y-131653600D02*
X205341095Y-136953600D01*
X205341095Y-131653600D02*
X209691095Y-131653600D01*
X205341095Y-136953600D02*
X209691095Y-136953600D01*
X209691095Y-131653600D02*
X209691095Y-136953600D01*
D10*
%TO.C,J5*%
X198631095Y-99433600D02*
X201171095Y-99433600D01*
X198631095Y-112133600D02*
X201171095Y-112133600D01*
X198631095Y-114673600D02*
X198631095Y-99433600D01*
X198631095Y-114673600D02*
X201171095Y-114673600D01*
X201171095Y-114673600D02*
X201171095Y-99433600D01*
%TD*%
M02*
