M48
; DRILL file {KiCad 8.99.0-3402-gadd58faa30} date 2024-12-15T16:18:51-0500
; FORMAT={-:-/ absolute / inch / decimal}
; #@! TF.CreationDate,2024-12-15T16:18:51-05:00
; #@! TF.GenerationSoftware,Kicad,Pcbnew,8.99.0-3402-gadd58faa30
; #@! TF.FileFunction,Plated,1,2,PTH
FMAT,2
INCH
; #@! TA.AperFunction,Plated,PTH,ComponentDrill
T1C0.0291
; #@! TA.AperFunction,Plated,PTH,ComponentDrill
T2C0.0354
; #@! TA.AperFunction,Plated,PTH,ComponentDrill
T3C0.0394
; #@! TA.AperFunction,Plated,PTH,ComponentDrill
T4C0.0709
; #@! TA.AperFunction,Plated,PTH,ComponentDrill
T5C0.0748
; #@! TA.AperFunction,Plated,PTH,ComponentDrill
T6C0.1378
%
G90
G05
T1
X7.3843Y-2.3551
X7.3843Y-2.4051
X7.4343Y-2.3551
X7.4343Y-2.4051
X7.4843Y-2.3551
X7.4843Y-2.4051
X7.5343Y-2.3551
X7.5343Y-2.4051
X7.5843Y-2.3551
X7.5843Y-2.4051
T2
X3.5871Y-2.447
X3.7871Y-2.447
X7.8701Y-3.9647
X7.8701Y-4.0647
X7.8701Y-4.1647
X7.8701Y-4.2647
X7.8701Y-4.3647
X7.8701Y-4.4647
T3
X3.9164Y-2.9362
X3.9164Y-3.7885
X3.9164Y-4.6409
X3.9164Y-5.4933
X7.7796Y-3.5041
X7.7796Y-4.9253
T4
X3.6093Y-2.7866
X3.6093Y-3.0858
X3.6093Y-3.6389
X3.6093Y-3.9381
X3.6093Y-4.4913
X3.6093Y-4.7905
X3.6093Y-5.3436
X3.6093Y-5.6429
X8.0867Y-3.3545
X8.0867Y-3.6537
X8.0867Y-4.7757
X8.0867Y-5.0749
T5
X7.878Y-5.4982
X7.878Y-5.7934
X8.0748Y-5.4982
X8.0748Y-5.7934
T6
X7.2628Y-3.1212
M30
