%TF.GenerationSoftware,KiCad,Pcbnew,8.99.0-3402-gadd58faa30*%
%TF.CreationDate,2024-12-15T16:18:47-05:00*%
%TF.ProjectId,Thunderscope_Rev5_Mech_Model,5468756e-6465-4727-9363-6f70655f5265,rev?*%
%TF.SameCoordinates,Original*%
%TF.FileFunction,Soldermask,Top*%
%TF.FilePolarity,Negative*%
%FSLAX46Y46*%
G04 Gerber Fmt 4.6, Leading zero omitted, Abs format (unit mm)*
G04 Created by KiCad (PCBNEW 8.99.0-3402-gadd58faa30) date 2024-12-15 16:18:47*
%MOMM*%
%LPD*%
G01*
G04 APERTURE LIST*
G04 Aperture macros list*
%AMRoundRect*
0 Rectangle with rounded corners*
0 $1 Rounding radius*
0 $2 $3 $4 $5 $6 $7 $8 $9 X,Y pos of 4 corners*
0 Add a 4 corners polygon primitive as box body*
4,1,4,$2,$3,$4,$5,$6,$7,$8,$9,$2,$3,0*
0 Add four circle primitives for the rounded corners*
1,1,$1+$1,$2,$3*
1,1,$1+$1,$4,$5*
1,1,$1+$1,$6,$7*
1,1,$1+$1,$8,$9*
0 Add four rect primitives between the rounded corners*
20,1,$1+$1,$2,$3,$4,$5,0*
20,1,$1+$1,$4,$5,$6,$7,0*
20,1,$1+$1,$6,$7,$8,$9,0*
20,1,$1+$1,$8,$9,$2,$3,0*%
G04 Aperture macros list end*
%ADD10C,0.000000*%
%ADD11RoundRect,0.075000X0.350000X-0.075000X0.350000X0.075000X-0.350000X0.075000X-0.350000X-0.075000X0*%
%ADD12RoundRect,0.200000X0.800000X-0.200000X0.800000X0.200000X-0.800000X0.200000X-0.800000X-0.200000X0*%
%ADD13RoundRect,0.150000X-0.150000X0.150000X-0.150000X-0.150000X0.150000X-0.150000X0.150000X0.150000X0*%
%ADD14C,1.092200*%
%ADD15C,1.600200*%
%ADD16O,30.200000X1.000000*%
%ADD17C,0.380000*%
%ADD18C,1.090000*%
%ADD19R,1.090000X1.090000*%
%ADD20C,2.000000*%
%ADD21C,3.000000*%
%ADD22R,0.700000X4.200000*%
%ADD23R,0.700000X3.200000*%
%ADD24O,7.500000X1.000000*%
%ADD25C,2.500000*%
%ADD26O,8.000000X1.000000*%
%ADD27O,1.000000X8.750000*%
%ADD28C,5.703200*%
%ADD29O,7.400000X1.000000*%
%ADD30RoundRect,0.375000X-0.375000X-0.375000X0.375000X-0.375000X0.375000X0.375000X-0.375000X0.375000X0*%
%ADD31C,1.500000*%
%ADD32RoundRect,0.135000X0.315000X-0.365000X0.315000X0.365000X-0.315000X0.365000X-0.315000X-0.365000X0*%
%ADD33RoundRect,0.060000X0.340000X-0.140000X0.340000X0.140000X-0.340000X0.140000X-0.340000X-0.140000X0*%
%ADD34C,3.180000*%
%ADD35C,0.900000*%
%ADD36RoundRect,0.375000X0.375000X-0.375000X0.375000X0.375000X-0.375000X0.375000X-0.375000X-0.375000X0*%
G04 APERTURE END LIST*
D10*
G36*
X62053025Y-85367370D02*
G01*
X62051695Y-85368030D01*
X62051365Y-85365040D01*
X62052365Y-85364040D01*
X62053025Y-85367370D01*
G37*
G36*
X62056685Y-85373020D02*
G01*
X62056355Y-85378020D01*
X62055025Y-85377350D01*
X62054025Y-85376350D01*
X62054025Y-85375020D01*
X62054685Y-85371690D01*
X62056685Y-85373020D01*
G37*
%TO.C,P1*%
G36*
X131751095Y-155053600D02*
G01*
X166551095Y-155053600D01*
X166551095Y-149078600D01*
X131751095Y-149078600D01*
X131751095Y-155053600D01*
G37*
%TD*%
D11*
%TO.C,J6*%
X204301095Y-115803600D03*
X204301095Y-115303600D03*
X204301095Y-114803600D03*
X204301095Y-114303600D03*
X204301095Y-113803600D03*
X204301095Y-113303600D03*
X204301095Y-112803600D03*
X204301095Y-112303600D03*
X204301095Y-111803600D03*
X204301095Y-111303600D03*
X204301095Y-110803600D03*
X204301095Y-110303600D03*
X204301095Y-109803600D03*
X204301095Y-109303600D03*
X204301095Y-108803600D03*
X204301095Y-108303600D03*
X204301095Y-107803600D03*
X204301095Y-107303600D03*
X204301095Y-106803600D03*
X204301095Y-106303600D03*
X204301095Y-105803600D03*
X204301095Y-105303600D03*
X204301095Y-104803600D03*
X204301095Y-104303600D03*
X204301095Y-103803600D03*
X204301095Y-103303600D03*
X204301095Y-102803600D03*
X204301095Y-102303600D03*
X204301095Y-101803600D03*
X204301095Y-101303600D03*
X204301095Y-100803600D03*
X204301095Y-100303600D03*
X204301095Y-99803600D03*
X204301095Y-99303600D03*
X204301095Y-98803600D03*
X204301095Y-98303600D03*
D12*
X207476095Y-117503600D03*
X207476095Y-96603600D03*
%TD*%
D13*
%TO.C,R3*%
X90551085Y-108803600D03*
X91451085Y-108803600D03*
%TD*%
%TO.C,R2*%
X91451085Y-106303600D03*
X90551085Y-106303600D03*
%TD*%
%TO.C,R1*%
X91451085Y-107553600D03*
X90551085Y-107553600D03*
%TD*%
D14*
%TO.C,J8*%
X174476095Y-133528600D03*
D15*
X194476095Y-133528600D03*
%TD*%
D16*
%TO.C,*%
X110201095Y-56803600D03*
%TD*%
D17*
%TO.C,*%
X126441095Y-57103600D03*
%TD*%
%TO.C,*%
X127721105Y-57103600D03*
%TD*%
%TO.C,*%
X125801095Y-57103600D03*
%TD*%
%TO.C,*%
X127081095Y-57103600D03*
%TD*%
%TO.C,*%
X128361105Y-57103600D03*
%TD*%
D18*
%TO.C,J3*%
X192641095Y-59818600D03*
X192641095Y-61088600D03*
X191371095Y-59818600D03*
X191371095Y-61088600D03*
X190101095Y-59818600D03*
X190101095Y-61088600D03*
X188831095Y-59818600D03*
X188831095Y-61088600D03*
X187561095Y-59818600D03*
D19*
X187561095Y-61088600D03*
%TD*%
D16*
%TO.C,*%
X177751095Y-56803600D03*
%TD*%
D17*
%TO.C,*%
X193991095Y-57128589D03*
%TD*%
%TO.C,*%
X194631105Y-57128589D03*
%TD*%
%TO.C,*%
X195911105Y-57128589D03*
%TD*%
%TO.C,*%
X195271105Y-57128589D03*
%TD*%
%TO.C,*%
X193351095Y-57128589D03*
%TD*%
%TO.C,*%
X110536095Y-142253600D03*
%TD*%
%TO.C,*%
X125291095Y-150503600D03*
%TD*%
D20*
%TO.C,J2*%
X197601095Y-125103600D03*
D21*
X205401095Y-121303600D03*
X205401095Y-128903600D03*
%TD*%
D17*
%TO.C,*%
X94586105Y-57103590D03*
%TD*%
%TO.C,*%
X159591085Y-57103600D03*
%TD*%
D20*
%TO.C,J1002A1*%
X99476095Y-139528610D03*
D21*
X91676095Y-143328610D03*
X91676095Y-135728610D03*
%TD*%
D22*
%TO.C,P1*%
X132651095Y-151303600D03*
X133651095Y-151303600D03*
X134651095Y-151303600D03*
X135651095Y-151303600D03*
X136651095Y-151303600D03*
X137651095Y-151303600D03*
X138651095Y-151303600D03*
X139651095Y-151303600D03*
X140651095Y-151303600D03*
X141651095Y-151303600D03*
X142651095Y-151303600D03*
X145651095Y-151303600D03*
X146651095Y-151303600D03*
X147651095Y-151303600D03*
X148651095Y-151303600D03*
X149651095Y-151303600D03*
D23*
X150651095Y-150803600D03*
D22*
X151651095Y-151303600D03*
X152651095Y-151303600D03*
X153651095Y-151303600D03*
X154651095Y-151303600D03*
X155651095Y-151303600D03*
X156651095Y-151303600D03*
X157651095Y-151303600D03*
X158651095Y-151303600D03*
X159651095Y-151303600D03*
X160651095Y-151303600D03*
X161651095Y-151303600D03*
X162651095Y-151303600D03*
X163651105Y-151303600D03*
D23*
X164651105Y-150803600D03*
D22*
X165651095Y-151303600D03*
%TD*%
D17*
%TO.C,*%
X171076095Y-142253600D03*
%TD*%
D24*
%TO.C,*%
X198701095Y-142553600D03*
%TD*%
D25*
%TO.C,J11*%
X200101095Y-147153600D03*
X205101095Y-147153600D03*
X200101095Y-139653600D03*
X205101095Y-139653600D03*
%TD*%
D26*
%TO.C,*%
X94501095Y-150803600D03*
%TD*%
D17*
%TO.C,*%
X111176095Y-142253600D03*
%TD*%
%TO.C,*%
X169796095Y-142253600D03*
%TD*%
D27*
%TO.C,*%
X102501095Y-146428600D03*
%TD*%
D17*
%TO.C,*%
X93841095Y-57103590D03*
%TD*%
%TO.C,*%
X93101095Y-57103590D03*
%TD*%
%TO.C,*%
X208161105Y-142253600D03*
%TD*%
%TO.C,*%
X182766095Y-142253600D03*
%TD*%
%TO.C,*%
X122731085Y-150503600D03*
%TD*%
%TO.C,*%
X203041095Y-142253600D03*
%TD*%
%TO.C,*%
X88141095Y-150503600D03*
%TD*%
%TO.C,*%
X208801105Y-142253600D03*
%TD*%
%TO.C,*%
X123371085Y-150503600D03*
%TD*%
%TO.C,*%
X112456095Y-142253600D03*
%TD*%
%TO.C,*%
X194456095Y-142253600D03*
%TD*%
%TO.C,*%
X124651095Y-150503600D03*
%TD*%
%TO.C,*%
X205601095Y-142253600D03*
%TD*%
%TO.C,*%
X193816095Y-142253600D03*
%TD*%
%TO.C,*%
X182126095Y-142253600D03*
%TD*%
%TO.C,*%
X203681095Y-142253600D03*
%TD*%
%TO.C,*%
X124011095Y-150503600D03*
%TD*%
%TO.C,*%
X98941095Y-150503600D03*
%TD*%
%TO.C,*%
X193176095Y-142253600D03*
%TD*%
%TO.C,*%
X100861095Y-150503600D03*
%TD*%
%TO.C,*%
X203041095Y-142253600D03*
%TD*%
%TO.C,*%
X87501095Y-57103590D03*
%TD*%
%TO.C,*%
X192536095Y-142253600D03*
%TD*%
D28*
%TO.C,H1*%
X184476095Y-79278600D03*
%TD*%
D17*
%TO.C,*%
X122091085Y-150503600D03*
%TD*%
%TO.C,*%
X121451085Y-150503600D03*
%TD*%
%TO.C,*%
X206241095Y-142253600D03*
%TD*%
%TO.C,*%
X191896095Y-142253600D03*
%TD*%
%TO.C,*%
X172356095Y-142253600D03*
%TD*%
D29*
%TO.C,*%
X105701095Y-142553600D03*
%TD*%
D17*
%TO.C,*%
X89001095Y-57103590D03*
%TD*%
%TO.C,*%
X127211095Y-150503600D03*
%TD*%
%TO.C,*%
X204321095Y-142253600D03*
%TD*%
%TO.C,*%
X161511095Y-57103600D03*
%TD*%
D30*
%TO.C,J4*%
X91111095Y-62153600D03*
D31*
X96191095Y-62153600D03*
%TD*%
D17*
%TO.C,*%
X99581095Y-150503600D03*
%TD*%
D27*
%TO.C,*%
X119851095Y-146428600D03*
%TD*%
D17*
%TO.C,*%
X207521105Y-142253600D03*
%TD*%
D20*
%TO.C,J1*%
X197601095Y-89003600D03*
D21*
X205401095Y-85203600D03*
X205401095Y-92803600D03*
%TD*%
D17*
%TO.C,*%
X126571095Y-150503600D03*
%TD*%
D24*
%TO.C,*%
X176601095Y-142553600D03*
%TD*%
D16*
%TO.C,*%
X144001090Y-56803600D03*
%TD*%
D17*
%TO.C,*%
X111816095Y-142253600D03*
%TD*%
%TO.C,*%
X204961095Y-142253600D03*
%TD*%
%TO.C,*%
X88261095Y-57103590D03*
%TD*%
D29*
%TO.C,*%
X116651095Y-142553600D03*
%TD*%
D17*
%TO.C,*%
X206881105Y-142253600D03*
%TD*%
%TO.C,*%
X125931095Y-150503600D03*
%TD*%
%TO.C,*%
X181486095Y-142253600D03*
%TD*%
%TO.C,*%
X204321095Y-142253600D03*
%TD*%
%TO.C,*%
X101501095Y-150503600D03*
%TD*%
D20*
%TO.C,J1002D1*%
X99476095Y-74578610D03*
D21*
X91676095Y-78378610D03*
X91676095Y-70778610D03*
%TD*%
D17*
%TO.C,*%
X109896095Y-142253600D03*
%TD*%
%TO.C,*%
X100221095Y-150503600D03*
%TD*%
%TO.C,*%
X120811085Y-150503600D03*
%TD*%
%TO.C,*%
X208161105Y-142253600D03*
%TD*%
%TO.C,*%
X89421095Y-150503600D03*
%TD*%
%TO.C,*%
X90061105Y-150503600D03*
%TD*%
D32*
%TO.C,D1*%
X88500000Y-108553600D03*
X88500000Y-105553600D03*
D33*
X88950000Y-106653600D03*
X88950000Y-107453600D03*
%TD*%
D20*
%TO.C,J1002B1*%
X99476095Y-117878610D03*
D21*
X91676095Y-121678610D03*
X91676095Y-114078610D03*
%TD*%
D17*
%TO.C,*%
X171716095Y-142253600D03*
%TD*%
%TO.C,*%
X207521105Y-142253600D03*
%TD*%
%TO.C,*%
X162151095Y-57103600D03*
%TD*%
D24*
%TO.C,*%
X187651095Y-142553600D03*
%TD*%
D17*
%TO.C,*%
X88781095Y-150503600D03*
%TD*%
%TO.C,*%
X160871095Y-57103600D03*
%TD*%
%TO.C,*%
X160231085Y-57103600D03*
%TD*%
%TO.C,*%
X206881105Y-142253600D03*
%TD*%
%TO.C,*%
X183406095Y-142253600D03*
%TD*%
%TO.C,*%
X203681095Y-142253600D03*
%TD*%
%TO.C,*%
X209441105Y-142253600D03*
%TD*%
D20*
%TO.C,J1002C1*%
X99476095Y-96228610D03*
D21*
X91676095Y-100028610D03*
X91676095Y-92428610D03*
%TD*%
D17*
%TO.C,*%
X180846095Y-142253600D03*
%TD*%
%TO.C,*%
X87501095Y-150503600D03*
%TD*%
%TO.C,*%
X204961095Y-142253600D03*
%TD*%
%TO.C,*%
X127851095Y-150503600D03*
%TD*%
%TO.C,*%
X205601095Y-142253600D03*
%TD*%
D24*
%TO.C,*%
X198701095Y-142553600D03*
%TD*%
D17*
%TO.C,*%
X206241095Y-142253600D03*
%TD*%
%TO.C,*%
X170436095Y-142253600D03*
%TD*%
D34*
%TO.C,*%
X91051095Y-56253590D03*
%TD*%
D35*
%TO.C,J10*%
X208104095Y-134303600D03*
%TD*%
D36*
%TO.C,J5*%
X199901095Y-113403600D03*
D31*
X199901095Y-110863600D03*
X199901095Y-108323600D03*
X199901095Y-105783600D03*
X199901095Y-103243600D03*
X199901095Y-100703600D03*
%TD*%
M02*
