%TF.GenerationSoftware,KiCad,Pcbnew,9.0.0*%
%TF.CreationDate,2025-03-02T12:58:23-05:00*%
%TF.ProjectId,Interposer_Board_IOCrest,496e7465-7270-46f7-9365-725f426f6172,rev?*%
%TF.SameCoordinates,Original*%
%TF.FileFunction,Profile,NP*%
%FSLAX46Y46*%
G04 Gerber Fmt 4.6, Leading zero omitted, Abs format (unit mm)*
G04 Created by KiCad (PCBNEW 9.0.0) date 2025-03-02 12:58:23*
%MOMM*%
%LPD*%
G01*
G04 APERTURE LIST*
%TA.AperFunction,Profile*%
%ADD10C,0.050000*%
%TD*%
G04 APERTURE END LIST*
D10*
X191776100Y-46278600D02*
G75*
G02*
X192276100Y-46778600I0J-500000D01*
G01*
X99846100Y-52578600D02*
X99846100Y-55603600D01*
X177201100Y-98153599D02*
G75*
G02*
X177001101Y-98353600I-200000J-1D01*
G01*
X178301100Y-94353599D02*
X177751100Y-94353600D01*
X179776100Y-46278600D02*
G75*
G02*
X179276100Y-45778599I0J500000D01*
G01*
X103346100Y-52378600D02*
X100046100Y-52378600D01*
X103346100Y-50778599D02*
G75*
G02*
X103846101Y-51278600I0J-500001D01*
G01*
X179276101Y-45778599D02*
X179276100Y-20903600D01*
X177201100Y-98153600D02*
X177201100Y-94853600D01*
X178751100Y-20378601D02*
G75*
G02*
X179276099Y-20903600I0J-524999D01*
G01*
X192276100Y-119378600D02*
G75*
G02*
X191776100Y-119878600I-500000J0D01*
G01*
X156251100Y-106853600D02*
X178301100Y-106853600D01*
X156251100Y-94353599D02*
X156801100Y-94353600D01*
X178801101Y-94853600D02*
X178801100Y-106353600D01*
X173376100Y-94853600D02*
G75*
G02*
X173976100Y-95453600I0J-600000D01*
G01*
X103846100Y-51878601D02*
G75*
G02*
X103346099Y-52378600I-500000J1D01*
G01*
X100046100Y-72278600D02*
G75*
G02*
X99846100Y-72078600I0J200000D01*
G01*
X177201100Y-94853600D02*
G75*
G02*
X177701100Y-94353600I500000J0D01*
G01*
X70276100Y-119878600D02*
G75*
G02*
X69776100Y-119378600I0J500000D01*
G01*
X103346100Y-73828600D02*
X92346100Y-73828600D01*
X157501100Y-98353600D02*
G75*
G02*
X157301100Y-98153600I0J200000D01*
G01*
X155751099Y-94853600D02*
G75*
G02*
X156251100Y-94353599I500001J0D01*
G01*
X172776100Y-95453600D02*
G75*
G02*
X173376100Y-94853600I600000J0D01*
G01*
X103346100Y-56203600D02*
G75*
G02*
X102746100Y-56803600I-600000J0D01*
G01*
X91846100Y-73328600D02*
X91846100Y-51278600D01*
X156251100Y-106853600D02*
G75*
G02*
X155751100Y-106353599I0J500000D01*
G01*
X179776100Y-46278600D02*
X191776100Y-46278600D01*
X177701100Y-94353600D02*
X177751100Y-94353600D01*
X157301100Y-98153600D02*
X157301100Y-94853600D01*
X102746100Y-56803600D02*
X99846100Y-56803600D01*
X92346101Y-73828600D02*
G75*
G02*
X91846100Y-73328600I-1J500000D01*
G01*
X178751100Y-20378600D02*
X70276095Y-20378600D01*
X99846100Y-56803600D02*
X99846100Y-72078600D01*
X100046100Y-72278600D02*
X103346100Y-72278600D01*
X157501100Y-98353600D02*
X172776100Y-98353600D01*
X69776105Y-20878600D02*
G75*
G02*
X70276095Y-20378605I499995J0D01*
G01*
X191776100Y-119878600D02*
X70276100Y-119878600D01*
X91846100Y-51278600D02*
G75*
G02*
X92346101Y-50778600I500000J0D01*
G01*
X103346100Y-72278600D02*
G75*
G02*
X103846100Y-72778600I0J-500000D01*
G01*
X178801100Y-106353599D02*
G75*
G02*
X178301100Y-106853600I-500000J-1D01*
G01*
X103846101Y-73328600D02*
X103846100Y-72778600D01*
X102746101Y-55603600D02*
G75*
G02*
X103346100Y-56203601I-1J-600000D01*
G01*
X173976100Y-98353600D02*
X177001101Y-98353600D01*
X103846101Y-51278600D02*
X103846099Y-51878601D01*
X103846100Y-73328600D02*
G75*
G02*
X103346100Y-73828600I-500000J0D01*
G01*
X69776100Y-119378600D02*
X69776100Y-20878600D01*
X173976100Y-95453600D02*
X173976100Y-98353600D01*
X156801100Y-94353600D02*
G75*
G02*
X157301100Y-94853600I0J-500000D01*
G01*
X99846100Y-55603600D02*
X102746101Y-55603600D01*
X103346100Y-50778599D02*
X92346100Y-50778600D01*
X155751099Y-94853600D02*
X155751100Y-106353600D01*
X178301100Y-94353600D02*
G75*
G02*
X178801100Y-94853600I0J-500000D01*
G01*
X99846100Y-52578600D02*
G75*
G02*
X100046100Y-52378600I200000J0D01*
G01*
X172776100Y-98353600D02*
X172776100Y-95453600D01*
X192276100Y-119378600D02*
X192276100Y-46778600D01*
M02*
