  0
SECTION
  2
HEADER
  9
$ANGBASE
  50
0.0
  9
$ANGDIR
  70
1
  9
$MEASUREMENT
  70
0
  0
ENDSEC
  0
SECTION
  2
TABLES
  0
TABLE
  2
LTYPE
  70
4
  0
LTYPE
  5
40F
  2
CONTINUOUS
  70
0
  3
Solid line
  72
65
  73
0
  40
0.0
  0
LTYPE
  5
410
  2
DASHDOT
 70
0
  3
Dash Dot ____ _ ____ _
 72
65
 73
4
 40
2.0
 49
1.25
 49
-0.25
 49
0.25
 49
-0.25
  0
LTYPE
  5
411
  2
DASHED
 70
0
  3
Dashed __ __ __ __ __
 72
65
 73
2
 40
0.75
 49
0.5
 49
-0.25
  0
LTYPE
  5
43B
  2
DOTTED
 70
0
  3
Dotted .  .  .  .
 72
65
 73
2
 40
0.2
 49
0.0
 49
-0.2
  0
ENDTAB
  0
TABLE
  2
STYLE
  70
4
  0
STYLE
  2
KICAD
  70
0
  40
0
  41
1
  42
1
  50
0
  71
0
  3
isocp.shx
  0
STYLE
  2
KICADB
  70
0
  40
0
  41
1
  42
1
  50
0
  71
0
  3
isocp.shx
  0
STYLE
  2
KICADI
  70
0
  40
0
  41
1
  42
1
  50
15
  71
0
  3
isocp.shx
  0
STYLE
  2
KICADBI
  70
0
  40
0
  41
1
  42
1
  50
15
  71
0
  3
isocp.shx
  0
ENDTAB
  0
TABLE
  2
LAYER
  70
1
  0
LAYER
  2
BLACK
  70
0
  62
7
  6
CONTINUOUS
  0
ENDTAB
  0
ENDSEC
  0
SECTION
  2
ENTITIES
0
LINE
8
BLACK
6
CONTINUOUS
10
7.0197287795275587
20
-3.7137244488188976
11
7.0243276771653544
21
-3.7142426377952753
0
LINE
8
BLACK
6
CONTINUOUS
10
7.0243276771653544
20
-3.7142426377952753
11
7.0286964173228341
21
-3.7157712992125984
0
LINE
8
BLACK
6
CONTINUOUS
10
7.0286964173228341
20
-3.7157712992125984
11
7.0326154330708661
21
-3.7182337795275591
0
LINE
8
BLACK
6
CONTINUOUS
10
7.0326154330708661
20
-3.7182337795275591
11
7.0358882677165351
21
-3.7215066141732285
0
LINE
8
BLACK
6
CONTINUOUS
10
7.0358882677165351
20
-3.7215066141732285
11
7.0383507480314957
21
-3.7254256299212596
0
LINE
8
BLACK
6
CONTINUOUS
10
7.0383507480314957
20
-3.7254256299212596
11
7.0398794094488188
21
-3.7297943700787402
0
LINE
8
BLACK
6
CONTINUOUS
10
7.0398794094488188
20
-3.7297943700787402
11
7.0403975590551182
21
-3.7343932283464567
0
LINE
8
BLACK
6
CONTINUOUS
10
7.0403975590551182
20
-3.7343932283464567
11
7.0403976771653545
21
-3.7343937007874013
0
LINE
8
BLACK
6
CONTINUOUS
10
7.0403976771653545
20
-3.7343937007874013
11
7.0403976377952757
21
-4.1871495669291336
0
LINE
8
BLACK
6
CONTINUOUS
10
7.0403976377952757
20
-4.1871495669291336
11
7.0398794094488188
21
-4.1917489370078735
0
LINE
8
BLACK
6
CONTINUOUS
10
7.0398794094488188
20
-4.1917489370078735
11
7.0383507480314957
21
-4.1961176377952754
0
LINE
8
BLACK
6
CONTINUOUS
10
7.0383507480314957
20
-4.1961176377952754
11
7.0358882677165351
21
-4.2000366929133861
0
LINE
8
BLACK
6
CONTINUOUS
10
7.0358882677165351
20
-4.2000366929133861
11
7.0326154330708661
21
-4.2033094881889763
0
LINE
8
BLACK
6
CONTINUOUS
10
7.0326154330708661
20
-4.2033094881889763
11
7.0286964173228341
21
-4.2057720078740157
0
LINE
8
BLACK
6
CONTINUOUS
10
7.0286964173228341
20
-4.2057720078740157
11
7.0243277165354332
21
-4.2073006692913388
0
LINE
8
BLACK
6
CONTINUOUS
10
7.0243277165354332
20
-4.2073006692913388
11
7.0197283464566924
21
-4.2078188976377948
0
LINE
8
BLACK
6
CONTINUOUS
10
7.0197283464566924
20
-4.2078188976377948
11
6.1516181102362202
21
-4.2078188976377948
0
LINE
8
BLACK
6
CONTINUOUS
10
6.1516181102362202
20
-4.2078188976377948
11
6.1470187401574803
21
-4.2073006692913388
0
LINE
8
BLACK
6
CONTINUOUS
10
6.1470187401574803
20
-4.2073006692913388
11
6.1426500393700785
21
-4.2057720078740157
0
LINE
8
BLACK
6
CONTINUOUS
10
6.1426500393700785
20
-4.2057720078740157
11
6.1387310236220474
21
-4.2033094881889763
0
LINE
8
BLACK
6
CONTINUOUS
10
6.1387310236220474
20
-4.2033094881889763
11
6.1354581889763775
21
-4.2000366929133861
0
LINE
8
BLACK
6
CONTINUOUS
10
6.1354581889763775
20
-4.2000366929133861
11
6.1329957086614169
21
-4.1961176377952754
0
LINE
8
BLACK
6
CONTINUOUS
10
6.1329957086614169
20
-4.1961176377952754
11
6.1314670472440946
21
-4.1917489370078735
0
LINE
8
BLACK
6
CONTINUOUS
10
6.1314670472440946
20
-4.1917489370078735
11
6.1309488188976378
21
-4.1871495669291336
0
LINE
8
BLACK
6
CONTINUOUS
10
6.1309488188976378
20
-4.1871495669291336
11
6.130948779527559
21
-3.7343937007874013
0
LINE
8
BLACK
6
CONTINUOUS
10
6.130948779527559
20
-3.7343937007874013
11
6.1314670078740159
21
-3.7297943307086614
0
LINE
8
BLACK
6
CONTINUOUS
10
6.1314670078740159
20
-3.7297943307086614
11
6.1329956692913381
21
-3.7254256299212596
0
LINE
8
BLACK
6
CONTINUOUS
10
6.1329956692913381
20
-3.7254256299212596
11
6.1354581889763775
21
-3.7215065748031497
0
LINE
8
BLACK
6
CONTINUOUS
10
6.1354581889763775
20
-3.7215065748031497
11
6.1387309842519686
21
-3.7182337795275591
0
LINE
8
BLACK
6
CONTINUOUS
10
6.1387309842519686
20
-3.7182337795275591
11
6.1426500393700785
21
-3.7157712598425197
0
LINE
8
BLACK
6
CONTINUOUS
10
6.1426500393700785
20
-3.7157712598425197
11
6.1470187401574803
21
-3.7142425984251966
0
LINE
8
BLACK
6
CONTINUOUS
10
6.1470187401574803
20
-3.7142425984251966
11
6.1516181102362202
21
-3.7137243700787401
0
LINE
8
BLACK
6
CONTINUOUS
10
6.1516181102362202
20
-3.7137243700787401
11
6.1732716535433072
21
-3.7137244094488189
0
LINE
8
BLACK
6
CONTINUOUS
10
6.1732716535433072
20
-3.7137244094488189
11
6.1778709842519683
21
-3.7142426377952753
0
LINE
8
BLACK
6
CONTINUOUS
10
6.1778709842519683
20
-3.7142426377952753
11
6.1822397244094489
21
-3.7157712992125984
0
LINE
8
BLACK
6
CONTINUOUS
10
6.1822397244094489
20
-3.7157712992125984
11
6.18615874015748
21
-3.7182337795275591
0
LINE
8
BLACK
6
CONTINUOUS
10
6.18615874015748
20
-3.7182337795275591
11
6.1894315748031499
21
-3.7215066141732285
0
LINE
8
BLACK
6
CONTINUOUS
10
6.1894315748031499
20
-3.7215066141732285
11
6.1918940551181105
21
-3.7254256299212596
0
LINE
8
BLACK
6
CONTINUOUS
10
6.1918940551181105
20
-3.7254256299212596
11
6.1934227165354327
21
-3.7297943700787402
0
LINE
8
BLACK
6
CONTINUOUS
10
6.1934227165354327
20
-3.7297943700787402
11
6.1939409448818896
21
-3.7343937007874013
0
LINE
8
BLACK
6
CONTINUOUS
10
6.1939409448818896
20
-3.7343937007874013
11
6.1939409448818896
21
-3.8643149212598424
0
LINE
8
BLACK
6
CONTINUOUS
10
6.1939409448818896
20
-3.8643149212598424
11
6.1939409448818896
21
-3.8643149606299212
0
LINE
8
BLACK
6
CONTINUOUS
10
6.1939409448818896
20
-3.8643149606299212
11
6.1939409448818896
21
-3.8656854330708659
0
LINE
8
BLACK
6
CONTINUOUS
10
6.1939409448818896
20
-3.8656854330708659
11
6.1949898818897635
21
-3.868217677165354
0
LINE
8
BLACK
6
CONTINUOUS
10
6.1949898818897635
20
-3.868217677165354
11
6.1969279921259846
21
-3.8701557874015746
0
LINE
8
BLACK
6
CONTINUOUS
10
6.1969279921259846
20
-3.8701557874015746
11
6.1994602362204727
21
-3.8712047244094485
0
LINE
8
BLACK
6
CONTINUOUS
10
6.1994602362204727
20
-3.8712047244094485
11
6.2008307086614174
21
-3.8712047244094485
0
LINE
8
BLACK
6
CONTINUOUS
10
6.2008307086614174
20
-3.8712047244094485
11
6.8012244094488183
21
-3.8712047244094485
0
LINE
8
BLACK
6
CONTINUOUS
10
6.8012244094488183
20
-3.8712047244094485
11
6.8012244094488183
21
-3.7580157480314962
0
LINE
8
BLACK
6
CONTINUOUS
10
6.8012244094488183
20
-3.7580157480314962
11
6.801841338582677
21
-3.7525403149606298
0
LINE
8
BLACK
6
CONTINUOUS
10
6.801841338582677
20
-3.7525403149606298
11
6.8036611811023624
21
-3.7473394881889761
0
LINE
8
BLACK
6
CONTINUOUS
10
6.8036611811023624
20
-3.7473394881889761
11
6.806592716535433
21
-3.7426739763779526
0
LINE
8
BLACK
6
CONTINUOUS
10
6.806592716535433
20
-3.7426739763779526
11
6.8104889370078743
21
-3.7387777559055118
0
LINE
8
BLACK
6
CONTINUOUS
10
6.8104889370078743
20
-3.7387777559055118
11
6.8151544488188973
21
-3.7358462204724407
0
LINE
8
BLACK
6
CONTINUOUS
10
6.8151544488188973
20
-3.7358462204724407
11
6.8203552755905514
21
-3.7340263779527558
0
LINE
8
BLACK
6
CONTINUOUS
10
6.8203552755905514
20
-3.7340263779527558
11
6.8258307086614174
21
-3.7334094488188976
0
LINE
8
BLACK
6
CONTINUOUS
10
6.8258307086614174
20
-3.7334094488188976
11
6.8313061417322833
21
-3.7340263779527558
0
LINE
8
BLACK
6
CONTINUOUS
10
6.8313061417322833
20
-3.7340263779527558
11
6.8365069685039366
21
-3.7358462204724407
0
LINE
8
BLACK
6
CONTINUOUS
10
6.8365069685039366
20
-3.7358462204724407
11
6.8411724803149605
21
-3.7387777559055118
0
LINE
8
BLACK
6
CONTINUOUS
10
6.8411724803149605
20
-3.7387777559055118
11
6.8450687007874018
21
-3.7426739763779526
0
LINE
8
BLACK
6
CONTINUOUS
10
6.8450687007874018
20
-3.7426739763779526
11
6.8480002362204724
21
-3.7473394881889761
0
LINE
8
BLACK
6
CONTINUOUS
10
6.8480002362204724
20
-3.7473394881889761
11
6.8498200787401577
21
-3.7525403149606298
0
LINE
8
BLACK
6
CONTINUOUS
10
6.8498200787401577
20
-3.7525403149606298
11
6.8504370078740155
21
-3.7580157480314962
0
LINE
8
BLACK
6
CONTINUOUS
10
6.8504370078740155
20
-3.7580157480314962
11
6.8504370078740155
21
-3.8712047244094485
0
LINE
8
BLACK
6
CONTINUOUS
10
6.8504370078740155
20
-3.8712047244094485
11
6.9685472834645665
21
-3.8712047244094485
0
LINE
8
BLACK
6
CONTINUOUS
10
6.9685472834645665
20
-3.8712047244094485
11
6.9699177165354333
21
-3.8712046850393702
0
LINE
8
BLACK
6
CONTINUOUS
10
6.9699177165354333
20
-3.8712046850393702
11
6.9724500000000003
21
-3.8701557874015746
0
LINE
8
BLACK
6
CONTINUOUS
10
6.9724500000000003
20
-3.8701557874015746
11
6.9743881102362204
21
-3.868217677165354
0
LINE
8
BLACK
6
CONTINUOUS
10
6.9743881102362204
20
-3.868217677165354
11
6.9754370078740155
21
-3.8656853937007871
0
LINE
8
BLACK
6
CONTINUOUS
10
6.9754370078740155
20
-3.8656853937007871
11
6.9754370078740155
21
-3.8643149212598424
0
LINE
8
BLACK
6
CONTINUOUS
10
6.9754370078740155
20
-3.8643149212598424
11
6.9754370078740155
21
-3.7343937007874013
0
LINE
8
BLACK
6
CONTINUOUS
10
6.9754370078740155
20
-3.7343937007874013
11
6.9759552362204724
21
-3.7297943700787402
0
LINE
8
BLACK
6
CONTINUOUS
10
6.9759552362204724
20
-3.7297943700787402
11
6.9774838976377955
21
-3.7254256299212596
0
LINE
8
BLACK
6
CONTINUOUS
10
6.9774838976377955
20
-3.7254256299212596
11
6.9799463779527562
21
-3.7215066141732285
0
LINE
8
BLACK
6
CONTINUOUS
10
6.9799463779527562
20
-3.7215066141732285
11
6.9832192125984252
21
-3.7182337795275591
0
LINE
8
BLACK
6
CONTINUOUS
10
6.9832192125984252
20
-3.7182337795275591
11
6.9871382283464563
21
-3.7157712992125984
0
LINE
8
BLACK
6
CONTINUOUS
10
6.9871382283464563
20
-3.7157712992125984
11
6.9915069685039368
21
-3.7142426377952753
0
LINE
8
BLACK
6
CONTINUOUS
10
6.9915069685039368
20
-3.7142426377952753
11
6.996106299212598
21
-3.7137244094488189
0
LINE
8
BLACK
6
CONTINUOUS
10
6.996106299212598
20
-3.7137244094488189
11
6.9980748031496063
21
-3.7137244094488189
0
LINE
8
BLACK
6
CONTINUOUS
10
6.9980748031496063
20
-3.7137244094488189
11
7.0197283464566924
21
-3.7137243700787401
0
LINE
8
BLACK
6
CONTINUOUS
10
7.0197283464566924
20
-3.7137243700787401
11
7.0197287795275587
21
-3.7137244488188976
0
LINE
8
BLACK
6
CONTINUOUS
10
6.1443998425196851
20
-3.7169672834645668
11
6.1401355118110237
21
-3.7194292913385825
0
LINE
8
BLACK
6
CONTINUOUS
10
6.1401355118110237
20
-3.7194292913385825
11
6.1366537007874014
21
-3.7229111023622048
0
LINE
8
BLACK
6
CONTINUOUS
10
6.1366537007874014
20
-3.7229111023622048
11
6.1341916929133857
21
-3.7271754330708662
0
LINE
8
BLACK
6
CONTINUOUS
10
6.1341916929133857
20
-3.7271754330708662
11
6.1329172834645664
21
-3.7319316929133857
0
LINE
8
BLACK
6
CONTINUOUS
10
6.1329172834645664
20
-3.7319316929133857
11
6.1329172834645664
21
-3.7343937007874013
0
LINE
8
BLACK
6
CONTINUOUS
10
6.1329172834645664
20
-3.7343937007874013
11
6.1329172834645664
21
-4.1871495275590549
0
LINE
8
BLACK
6
CONTINUOUS
10
6.1329172834645664
20
-4.1871495275590549
11
6.1329173228346452
21
-4.1871495669291336
0
LINE
8
BLACK
6
CONTINUOUS
10
6.1329173228346452
20
-4.1871495669291336
11
6.1329173228346452
21
-4.1896115748031493
0
LINE
8
BLACK
6
CONTINUOUS
10
6.1329173228346452
20
-4.1896115748031493
11
6.1341917322834645
21
-4.1943678346456688
0
LINE
8
BLACK
6
CONTINUOUS
10
6.1341917322834645
20
-4.1943678346456688
11
6.1366537401574801
21
-4.198632165354331
0
LINE
8
BLACK
6
CONTINUOUS
10
6.1366537401574801
20
-4.198632165354331
11
6.1401355511811024
21
-4.2021139763779525
0
LINE
8
BLACK
6
CONTINUOUS
10
6.1401355511811024
20
-4.2021139763779525
11
6.1443998818897638
21
-4.2045759842519681
0
LINE
8
BLACK
6
CONTINUOUS
10
6.1443998818897638
20
-4.2045759842519681
11
6.1491561023622046
21
-4.2058503937007874
0
LINE
8
BLACK
6
CONTINUOUS
10
6.1491561023622046
20
-4.2058503937007874
11
6.1516181102362202
21
-4.2058503937007874
0
LINE
8
BLACK
6
CONTINUOUS
10
6.1516181102362202
20
-4.2058503937007874
11
7.0197283464566924
21
-4.2058503937007874
0
LINE
8
BLACK
6
CONTINUOUS
10
7.0197283464566924
20
-4.2058503937007874
11
7.0221903543307089
21
-4.2058503937007874
0
LINE
8
BLACK
6
CONTINUOUS
10
7.0221903543307089
20
-4.2058503937007874
11
7.0269465748031497
21
-4.2045759842519681
0
LINE
8
BLACK
6
CONTINUOUS
10
7.0269465748031497
20
-4.2045759842519681
11
7.031210905511811
21
-4.2021139763779525
0
LINE
8
BLACK
6
CONTINUOUS
10
7.031210905511811
20
-4.2021139763779525
11
7.0346927165354325
21
-4.198632165354331
0
LINE
8
BLACK
6
CONTINUOUS
10
7.0346927165354325
20
-4.198632165354331
11
7.037154724409449
21
-4.1943678346456688
0
LINE
8
BLACK
6
CONTINUOUS
10
7.037154724409449
20
-4.1943678346456688
11
7.0384291338582674
21
-4.1896115748031493
0
LINE
8
BLACK
6
CONTINUOUS
10
7.0384291338582674
20
-4.1896115748031493
11
7.0384291338582674
21
-4.1871495669291336
0
LINE
8
BLACK
6
CONTINUOUS
10
7.0384291338582674
20
-4.1871495669291336
11
7.0384291338582674
21
-4.1871495275590549
0
LINE
8
BLACK
6
CONTINUOUS
10
7.0384291338582674
20
-4.1871495275590549
11
7.0384291732283462
21
-3.7343937007874013
0
LINE
8
BLACK
6
CONTINUOUS
10
7.0384291732283462
20
-3.7343937007874013
11
7.0384291338582674
21
-3.7343937007874013
0
LINE
8
BLACK
6
CONTINUOUS
10
7.0384291338582674
20
-3.7343937007874013
11
7.0384291338582674
21
-3.7319316929133857
0
LINE
8
BLACK
6
CONTINUOUS
10
7.0384291338582674
20
-3.7319316929133857
11
7.037154724409449
21
-3.7271754724409449
0
LINE
8
BLACK
6
CONTINUOUS
10
7.037154724409449
20
-3.7271754724409449
11
7.0346927165354325
21
-3.7229111417322835
0
LINE
8
BLACK
6
CONTINUOUS
10
7.0346927165354325
20
-3.7229111417322835
11
7.031210905511811
21
-3.7194293307086612
0
LINE
8
BLACK
6
CONTINUOUS
10
7.031210905511811
20
-3.7194293307086612
11
7.0269465748031497
21
-3.7169673228346456
0
LINE
8
BLACK
6
CONTINUOUS
10
7.0269465748031497
20
-3.7169673228346456
11
7.0221903543307089
21
-3.7156929133858267
0
LINE
8
BLACK
6
CONTINUOUS
10
7.0221903543307089
20
-3.7156929133858267
11
7.0197283464566924
21
-3.7156929133858267
0
LINE
8
BLACK
6
CONTINUOUS
10
7.0197283464566924
20
-3.7156929133858267
11
7.0197281889763774
21
-3.715692874015748
0
LINE
8
BLACK
6
CONTINUOUS
10
7.0197281889763774
20
-3.715692874015748
11
6.9980748031496063
21
-3.7156929133858267
0
LINE
8
BLACK
6
CONTINUOUS
10
6.9980748031496063
20
-3.7156929133858267
11
6.996106299212598
21
-3.7156929133858267
0
LINE
8
BLACK
6
CONTINUOUS
10
6.996106299212598
20
-3.7156929133858267
11
6.9936442913385823
21
-3.7156929133858267
0
LINE
8
BLACK
6
CONTINUOUS
10
6.9936442913385823
20
-3.7156929133858267
11
6.9888880708661416
21
-3.7169673228346456
0
LINE
8
BLACK
6
CONTINUOUS
10
6.9888880708661416
20
-3.7169673228346456
11
6.9846237401574802
21
-3.7194293307086612
0
LINE
8
BLACK
6
CONTINUOUS
10
6.9846237401574802
20
-3.7194293307086612
11
6.9811419291338579
21
-3.7229111417322835
0
LINE
8
BLACK
6
CONTINUOUS
10
6.9811419291338579
20
-3.7229111417322835
11
6.9786799212598423
21
-3.7271754724409449
0
LINE
8
BLACK
6
CONTINUOUS
10
6.9786799212598423
20
-3.7271754724409449
11
6.9774055118110239
21
-3.7319316929133857
0
LINE
8
BLACK
6
CONTINUOUS
10
6.9774055118110239
20
-3.7319316929133857
11
6.9774055118110239
21
-3.7343937007874013
0
LINE
8
BLACK
6
CONTINUOUS
10
6.9774055118110239
20
-3.7343937007874013
11
6.9774055118110239
21
-3.8643149212598424
0
LINE
8
BLACK
6
CONTINUOUS
10
6.9774055118110239
20
-3.8643149212598424
11
6.9769719685039364
21
-3.8670522834645666
0
LINE
8
BLACK
6
CONTINUOUS
10
6.9769719685039364
20
-3.8670522834645666
11
6.97571374015748
21
-3.8695216929133855
0
LINE
8
BLACK
6
CONTINUOUS
10
6.97571374015748
20
-3.8695216929133855
11
6.9737540551181096
21
-3.8714814173228347
0
LINE
8
BLACK
6
CONTINUOUS
10
6.9737540551181096
20
-3.8714814173228347
11
6.9712846456692912
21
-3.8727396456692911
0
LINE
8
BLACK
6
CONTINUOUS
10
6.9712846456692912
20
-3.8727396456692911
11
6.9685472834645665
21
-3.8731732283464564
0
LINE
8
BLACK
6
CONTINUOUS
10
6.9685472834645665
20
-3.8731732283464564
11
6.8494527559055118
21
-3.8731732283464564
0
LINE
8
BLACK
6
CONTINUOUS
10
6.8494527559055118
20
-3.8731732283464564
11
6.8490761023622042
21
-3.8730983070866141
0
LINE
8
BLACK
6
CONTINUOUS
10
6.8490761023622042
20
-3.8730983070866141
11
6.8485434251968504
21
-3.8725656299212599
0
LINE
8
BLACK
6
CONTINUOUS
10
6.8485434251968504
20
-3.8725656299212599
11
6.8484685039370081
21
-3.8721889763779527
0
LINE
8
BLACK
6
CONTINUOUS
10
6.8484685039370081
20
-3.8721889763779527
11
6.8484685039370081
21
-3.7580157480314962
0
LINE
8
BLACK
6
CONTINUOUS
10
6.8484685039370081
20
-3.7580157480314962
11
6.8484685039370081
21
-3.7554650787401576
0
LINE
8
BLACK
6
CONTINUOUS
10
6.8484685039370081
20
-3.7554650787401576
11
6.8473333464566926
21
-3.7504916535433068
0
LINE
8
BLACK
6
CONTINUOUS
10
6.8473333464566926
20
-3.7504916535433068
11
6.8451199606299209
21
-3.7458955118110233
0
LINE
8
BLACK
6
CONTINUOUS
10
6.8451199606299209
20
-3.7458955118110233
11
6.8419393307086613
21
-3.7419071259842518
0
LINE
8
BLACK
6
CONTINUOUS
10
6.8419393307086613
20
-3.7419071259842518
11
6.8379509448818894
21
-3.7387264960629922
0
LINE
8
BLACK
6
CONTINUOUS
10
6.8379509448818894
20
-3.7387264960629922
11
6.8333548031496063
21
-3.7365131102362206
0
LINE
8
BLACK
6
CONTINUOUS
10
6.8333548031496063
20
-3.7365131102362206
11
6.8283813779527556
21
-3.7353779527559055
0
LINE
8
BLACK
6
CONTINUOUS
10
6.8283813779527556
20
-3.7353779527559055
11
6.8258307086614174
21
-3.7353779527559055
0
LINE
8
BLACK
6
CONTINUOUS
10
6.8258307086614174
20
-3.7353779527559055
11
6.8232800393700783
21
-3.7353779527559055
0
LINE
8
BLACK
6
CONTINUOUS
10
6.8232800393700783
20
-3.7353779527559055
11
6.8183066141732285
21
-3.7365131102362206
0
LINE
8
BLACK
6
CONTINUOUS
10
6.8183066141732285
20
-3.7365131102362206
11
6.8137104724409445
21
-3.7387264960629922
0
LINE
8
BLACK
6
CONTINUOUS
10
6.8137104724409445
20
-3.7387264960629922
11
6.8097220866141734
21
-3.7419071259842518
0
LINE
8
BLACK
6
CONTINUOUS
10
6.8097220866141734
20
-3.7419071259842518
11
6.806541456692913
21
-3.7458955118110233
0
LINE
8
BLACK
6
CONTINUOUS
10
6.806541456692913
20
-3.7458955118110233
11
6.8043280708661413
21
-3.7504916535433068
0
LINE
8
BLACK
6
CONTINUOUS
10
6.8043280708661413
20
-3.7504916535433068
11
6.8031929133858267
21
-3.7554650787401576
0
LINE
8
BLACK
6
CONTINUOUS
10
6.8031929133858267
20
-3.7554650787401576
11
6.8031929133858267
21
-3.7580157480314962
0
LINE
8
BLACK
6
CONTINUOUS
10
6.8031929133858267
20
-3.7580157480314962
11
6.8031929133858267
21
-3.8721889763779527
0
LINE
8
BLACK
6
CONTINUOUS
10
6.8031929133858267
20
-3.8721889763779527
11
6.8031179921259843
21
-3.8725656299212599
0
LINE
8
BLACK
6
CONTINUOUS
10
6.8031179921259843
20
-3.8725656299212599
11
6.8025853149606297
21
-3.8730983070866141
0
LINE
8
BLACK
6
CONTINUOUS
10
6.8025853149606297
20
-3.8730983070866141
11
6.8022086614173229
21
-3.8731732283464564
0
LINE
8
BLACK
6
CONTINUOUS
10
6.8022086614173229
20
-3.8731732283464564
11
6.2008307086614174
21
-3.8731732283464564
0
LINE
8
BLACK
6
CONTINUOUS
10
6.2008307086614174
20
-3.8731732283464564
11
6.1980933464566927
21
-3.8727396850393698
0
LINE
8
BLACK
6
CONTINUOUS
10
6.1980933464566927
20
-3.8727396850393698
11
6.1956239370078743
21
-3.8714814566929134
0
LINE
8
BLACK
6
CONTINUOUS
10
6.1956239370078743
20
-3.8714814566929134
11
6.1936642125984251
21
-3.8695217322834643
0
LINE
8
BLACK
6
CONTINUOUS
10
6.1936642125984251
20
-3.8695217322834643
11
6.1924059842519688
21
-3.8670523228346454
0
LINE
8
BLACK
6
CONTINUOUS
10
6.1924059842519688
20
-3.8670523228346454
11
6.1919724409448813
21
-3.8643149606299212
0
LINE
8
BLACK
6
CONTINUOUS
10
6.1919724409448813
20
-3.8643149606299212
11
6.1919724409448813
21
-3.8643149212598424
0
LINE
8
BLACK
6
CONTINUOUS
10
6.1919724409448813
20
-3.8643149212598424
11
6.1919724409448813
21
-3.7343937007874013
0
LINE
8
BLACK
6
CONTINUOUS
10
6.1919724409448813
20
-3.7343937007874013
11
6.1919724409448813
21
-3.7319316929133857
0
LINE
8
BLACK
6
CONTINUOUS
10
6.1919724409448813
20
-3.7319316929133857
11
6.1906980314960629
21
-3.7271754724409449
0
LINE
8
BLACK
6
CONTINUOUS
10
6.1906980314960629
20
-3.7271754724409449
11
6.1882360236220473
21
-3.7229111417322835
0
LINE
8
BLACK
6
CONTINUOUS
10
6.1882360236220473
20
-3.7229111417322835
11
6.1847542125984249
21
-3.7194293307086612
0
LINE
8
BLACK
6
CONTINUOUS
10
6.1847542125984249
20
-3.7194293307086612
11
6.1804898818897636
21
-3.7169673228346456
0
LINE
8
BLACK
6
CONTINUOUS
10
6.1804898818897636
20
-3.7169673228346456
11
6.1757336614173228
21
-3.7156929133858267
0
LINE
8
BLACK
6
CONTINUOUS
10
6.1757336614173228
20
-3.7156929133858267
11
6.1732716535433072
21
-3.7156929133858267
0
LINE
8
BLACK
6
CONTINUOUS
10
6.1732716535433072
20
-3.7156929133858267
11
6.1516182283464564
21
-3.715692874015748
0
LINE
8
BLACK
6
CONTINUOUS
10
6.1516182283464564
20
-3.715692874015748
11
6.1516181102362202
21
-3.7156929133858267
0
LINE
8
BLACK
6
CONTINUOUS
10
6.1516181102362202
20
-3.7156929133858267
11
6.1516181102362202
21
-3.715692874015748
0
LINE
8
BLACK
6
CONTINUOUS
10
6.1516181102362202
20
-3.715692874015748
11
6.1491561023622046
21
-3.715692874015748
0
LINE
8
BLACK
6
CONTINUOUS
10
6.1491561023622046
20
-3.715692874015748
11
6.1443998425196851
21
-3.7169672834645668
0
LINE
8
BLACK
6
CONTINUOUS
10
3.1511309448818898
20
-3.5702631496062991
11
3.1577409055118109
21
-3.5724108661417322
0
LINE
8
BLACK
6
CONTINUOUS
10
3.1577409055118109
20
-3.5724108661417322
11
3.1639335039370078
21
-3.5755661417322835
0
LINE
8
BLACK
6
CONTINUOUS
10
3.1639335039370078
20
-3.5755661417322835
11
3.1695562598425195
21
-3.5796512992125984
0
LINE
8
BLACK
6
CONTINUOUS
10
3.1695562598425195
20
-3.5796512992125984
11
3.1744707480314962
21
-3.5845657874015746
0
LINE
8
BLACK
6
CONTINUOUS
10
3.1744707480314962
20
-3.5845657874015746
11
3.1785559055118111
21
-3.5901885433070864
0
LINE
8
BLACK
6
CONTINUOUS
10
3.1785559055118111
20
-3.5901885433070864
11
3.181711181102362
21
-3.5963811417322833
0
LINE
8
BLACK
6
CONTINUOUS
10
3.181711181102362
20
-3.5963811417322833
11
3.1838588976377951
21
-3.6029911023622048
0
LINE
8
BLACK
6
CONTINUOUS
10
3.1838588976377951
20
-3.6029911023622048
11
3.1849461417322833
21
-3.6098556692913384
0
LINE
8
BLACK
6
CONTINUOUS
10
3.1849461417322833
20
-3.6098556692913384
11
3.1849461417322833
21
-3.6168057480314961
0
LINE
8
BLACK
6
CONTINUOUS
10
3.1849461417322833
20
-3.6168057480314961
11
3.1838588976377951
21
-3.6236703149606297
0
LINE
8
BLACK
6
CONTINUOUS
10
3.1838588976377951
20
-3.6236703149606297
11
3.181711181102362
21
-3.6302802755905512
0
LINE
8
BLACK
6
CONTINUOUS
10
3.181711181102362
20
-3.6302802755905512
11
3.1785559055118111
21
-3.6364728740157481
0
LINE
8
BLACK
6
CONTINUOUS
10
3.1785559055118111
20
-3.6364728740157481
11
3.1744707480314962
21
-3.6420956299212599
0
LINE
8
BLACK
6
CONTINUOUS
10
3.1744707480314962
20
-3.6420956299212599
11
3.1695562598425195
21
-3.6470101181102361
0
LINE
8
BLACK
6
CONTINUOUS
10
3.1695562598425195
20
-3.6470101181102361
11
3.1639335039370078
21
-3.651095275590551
0
LINE
8
BLACK
6
CONTINUOUS
10
3.1639335039370078
20
-3.651095275590551
11
3.1577409055118109
21
-3.6542505511811023
0
LINE
8
BLACK
6
CONTINUOUS
10
3.1577409055118109
20
-3.6542505511811023
11
3.1511309448818898
21
-3.6563982677165354
0
LINE
8
BLACK
6
CONTINUOUS
10
3.1511309448818898
20
-3.6563982677165354
11
3.1442663779527558
21
-3.6574855118110237
0
LINE
8
BLACK
6
CONTINUOUS
10
3.1442663779527558
20
-3.6574855118110237
11
3.1373162992125985
21
-3.6574855118110237
0
LINE
8
BLACK
6
CONTINUOUS
10
3.1373162992125985
20
-3.6574855118110237
11
3.1304517322834644
21
-3.6563982677165354
0
LINE
8
BLACK
6
CONTINUOUS
10
3.1304517322834644
20
-3.6563982677165354
11
3.1238417716535434
21
-3.6542505511811023
0
LINE
8
BLACK
6
CONTINUOUS
10
3.1238417716535434
20
-3.6542505511811023
11
3.1176491732283464
21
-3.651095275590551
0
LINE
8
BLACK
6
CONTINUOUS
10
3.1176491732283464
20
-3.651095275590551
11
3.1120264173228347
21
-3.6470101181102361
0
LINE
8
BLACK
6
CONTINUOUS
10
3.1120264173228347
20
-3.6470101181102361
11
3.107111929133858
21
-3.6420956299212599
0
LINE
8
BLACK
6
CONTINUOUS
10
3.107111929133858
20
-3.6420956299212599
11
3.1030267716535431
21
-3.6364728740157481
0
LINE
8
BLACK
6
CONTINUOUS
10
3.1030267716535431
20
-3.6364728740157481
11
3.0998714960629918
21
-3.6302802755905512
0
LINE
8
BLACK
6
CONTINUOUS
10
3.0998714960629918
20
-3.6302802755905512
11
3.0977237795275592
21
-3.6236703149606297
0
LINE
8
BLACK
6
CONTINUOUS
10
3.0977237795275592
20
-3.6236703149606297
11
3.0966365354330709
21
-3.6168057480314961
0
LINE
8
BLACK
6
CONTINUOUS
10
3.0966365354330709
20
-3.6168057480314961
11
3.0966365354330709
21
-3.6099998425196849
0
LINE
8
BLACK
6
CONTINUOUS
10
3.0966365354330709
20
-3.6099998425196849
11
3.0966365354330709
21
-3.6098556692913384
0
LINE
8
BLACK
6
CONTINUOUS
10
3.0966365354330709
20
-3.6098556692913384
11
3.0977237795275592
21
-3.6029911023622048
0
LINE
8
BLACK
6
CONTINUOUS
10
3.0977237795275592
20
-3.6029911023622048
11
3.0998714960629918
21
-3.5963811417322833
0
LINE
8
BLACK
6
CONTINUOUS
10
3.0998714960629918
20
-3.5963811417322833
11
3.1030267716535431
21
-3.5901885433070864
0
LINE
8
BLACK
6
CONTINUOUS
10
3.1030267716535431
20
-3.5901885433070864
11
3.107111929133858
21
-3.5845657874015746
0
LINE
8
BLACK
6
CONTINUOUS
10
3.107111929133858
20
-3.5845657874015746
11
3.1120264173228347
21
-3.5796512992125984
0
LINE
8
BLACK
6
CONTINUOUS
10
3.1120264173228347
20
-3.5796512992125984
11
3.1176491732283464
21
-3.5755661417322835
0
LINE
8
BLACK
6
CONTINUOUS
10
3.1176491732283464
20
-3.5755661417322835
11
3.1238417716535434
21
-3.5724108661417322
0
LINE
8
BLACK
6
CONTINUOUS
10
3.1238417716535434
20
-3.5724108661417322
11
3.1304517322834644
21
-3.5702631496062991
0
LINE
8
BLACK
6
CONTINUOUS
10
3.1304517322834644
20
-3.5702631496062991
11
3.1373162992125985
21
-3.5691759055118109
0
LINE
8
BLACK
6
CONTINUOUS
10
3.1373162992125985
20
-3.5691759055118109
11
3.1442663779527558
21
-3.5691759055118109
0
LINE
8
BLACK
6
CONTINUOUS
10
3.1442663779527558
20
-3.5691759055118109
11
3.1511309448818898
21
-3.5702631496062991
0
LINE
8
BLACK
6
CONTINUOUS
10
3.0984685039370077
20
-3.6166615748031496
11
3.0995106299212596
21
-3.6232413385826772
0
LINE
8
BLACK
6
CONTINUOUS
10
3.0995106299212596
20
-3.6232413385826772
11
3.1015692519685039
21
-3.6295770472440942
0
LINE
8
BLACK
6
CONTINUOUS
10
3.1015692519685039
20
-3.6295770472440942
11
3.1045936220472439
21
-3.6355127165354331
0
LINE
8
BLACK
6
CONTINUOUS
10
3.1045936220472439
20
-3.6355127165354331
11
3.1085092913385828
21
-3.6409021653543308
0
LINE
8
BLACK
6
CONTINUOUS
10
3.1085092913385828
20
-3.6409021653543308
11
3.1132198818897638
21
-3.6456127559055118
0
LINE
8
BLACK
6
CONTINUOUS
10
3.1132198818897638
20
-3.6456127559055118
11
3.1186093307086615
21
-3.6495284251968503
0
LINE
8
BLACK
6
CONTINUOUS
10
3.1186093307086615
20
-3.6495284251968503
11
3.1245449999999999
21
-3.6525527952755903
0
LINE
8
BLACK
6
CONTINUOUS
10
3.1245449999999999
20
-3.6525527952755903
11
3.1308807086614174
21
-3.6546114173228346
0
LINE
8
BLACK
6
CONTINUOUS
10
3.1308807086614174
20
-3.6546114173228346
11
3.1374604724409449
21
-3.6556535433070865
0
LINE
8
BLACK
6
CONTINUOUS
10
3.1374604724409449
20
-3.6556535433070865
11
3.1441222047244093
21
-3.6556535433070865
0
LINE
8
BLACK
6
CONTINUOUS
10
3.1441222047244093
20
-3.6556535433070865
11
3.1507019685039368
21
-3.6546114173228346
0
LINE
8
BLACK
6
CONTINUOUS
10
3.1507019685039368
20
-3.6546114173228346
11
3.1570376771653543
21
-3.6525527952755903
0
LINE
8
BLACK
6
CONTINUOUS
10
3.1570376771653543
20
-3.6525527952755903
11
3.1629733464566927
21
-3.6495284251968503
0
LINE
8
BLACK
6
CONTINUOUS
10
3.1629733464566927
20
-3.6495284251968503
11
3.1683627952755904
21
-3.6456127559055118
0
LINE
8
BLACK
6
CONTINUOUS
10
3.1683627952755904
20
-3.6456127559055118
11
3.1730733858267715
21
-3.6409021653543308
0
LINE
8
BLACK
6
CONTINUOUS
10
3.1730733858267715
20
-3.6409021653543308
11
3.1769890551181104
21
-3.6355127165354331
0
LINE
8
BLACK
6
CONTINUOUS
10
3.1769890551181104
20
-3.6355127165354331
11
3.1800134251968504
21
-3.6295770472440942
0
LINE
8
BLACK
6
CONTINUOUS
10
3.1800134251968504
20
-3.6295770472440942
11
3.1820720472440942
21
-3.6232413385826772
0
LINE
8
BLACK
6
CONTINUOUS
10
3.1820720472440942
20
-3.6232413385826772
11
3.1831141732283466
21
-3.6166615748031496
0
LINE
8
BLACK
6
CONTINUOUS
10
3.1831141732283466
20
-3.6166615748031496
11
3.1831141732283466
21
-3.6099998425196849
0
LINE
8
BLACK
6
CONTINUOUS
10
3.1831141732283466
20
-3.6099998425196849
11
3.1820720472440942
21
-3.6034200787401574
0
LINE
8
BLACK
6
CONTINUOUS
10
3.1820720472440942
20
-3.6034200787401574
11
3.1800134251968504
21
-3.5970843700787403
0
LINE
8
BLACK
6
CONTINUOUS
10
3.1800134251968504
20
-3.5970843700787403
11
3.1769890551181104
21
-3.5911487007874014
0
LINE
8
BLACK
6
CONTINUOUS
10
3.1769890551181104
20
-3.5911487007874014
11
3.1730733858267715
21
-3.5857592519685038
0
LINE
8
BLACK
6
CONTINUOUS
10
3.1730733858267715
20
-3.5857592519685038
11
3.1683627952755904
21
-3.5810486614173227
0
LINE
8
BLACK
6
CONTINUOUS
10
3.1683627952755904
20
-3.5810486614173227
11
3.1629733464566927
21
-3.5771329921259842
0
LINE
8
BLACK
6
CONTINUOUS
10
3.1629733464566927
20
-3.5771329921259842
11
3.1570376771653543
21
-3.5741086220472442
0
LINE
8
BLACK
6
CONTINUOUS
10
3.1570376771653543
20
-3.5741086220472442
11
3.1507019685039368
21
-3.5720499999999999
0
LINE
8
BLACK
6
CONTINUOUS
10
3.1507019685039368
20
-3.5720499999999999
11
3.1441222047244093
21
-3.571007874015748
0
LINE
8
BLACK
6
CONTINUOUS
10
3.1441222047244093
20
-3.571007874015748
11
3.1374604724409449
21
-3.571007874015748
0
LINE
8
BLACK
6
CONTINUOUS
10
3.1374604724409449
20
-3.571007874015748
11
3.1308807086614174
21
-3.5720499999999999
0
LINE
8
BLACK
6
CONTINUOUS
10
3.1308807086614174
20
-3.5720499999999999
11
3.1245449999999999
21
-3.5741086220472442
0
LINE
8
BLACK
6
CONTINUOUS
10
3.1245449999999999
20
-3.5741086220472442
11
3.1186093307086615
21
-3.5771329921259842
0
LINE
8
BLACK
6
CONTINUOUS
10
3.1186093307086615
20
-3.5771329921259842
11
3.1132198818897638
21
-3.5810486614173227
0
LINE
8
BLACK
6
CONTINUOUS
10
3.1132198818897638
20
-3.5810486614173227
11
3.1085092913385828
21
-3.5857592519685038
0
LINE
8
BLACK
6
CONTINUOUS
10
3.1085092913385828
20
-3.5857592519685038
11
3.1045936220472439
21
-3.5911487007874014
0
LINE
8
BLACK
6
CONTINUOUS
10
3.1045936220472439
20
-3.5911487007874014
11
3.1015692519685039
21
-3.5970843700787403
0
LINE
8
BLACK
6
CONTINUOUS
10
3.1015692519685039
20
-3.5970843700787403
11
3.0995106299212596
21
-3.6034200787401574
0
LINE
8
BLACK
6
CONTINUOUS
10
3.0995106299212596
20
-3.6034200787401574
11
3.0984685039370077
21
-3.6099998425196849
0
LINE
8
BLACK
6
CONTINUOUS
10
3.0984685039370077
20
-3.6099998425196849
11
3.0984685039370077
21
-3.6166615748031496
0
LINE
8
BLACK
6
CONTINUOUS
10
4.0733434645669293
20
-1.9986914173228345
11
4.0777121653543302
21
-2.0002200787401576
0
LINE
8
BLACK
6
CONTINUOUS
10
4.0777121653543302
20
-2.0002200787401576
11
4.081631220472441
21
-2.002682598425197
0
LINE
8
BLACK
6
CONTINUOUS
10
4.081631220472441
20
-2.002682598425197
11
4.0849040157480312
21
-2.0059553937007872
0
LINE
8
BLACK
6
CONTINUOUS
10
4.0849040157480312
20
-2.0059553937007872
11
4.0873665354330706
21
-2.0098744488188975
0
LINE
8
BLACK
6
CONTINUOUS
10
4.0873665354330706
20
-2.0098744488188975
11
4.0888951968503937
21
-2.0142431496062994
0
LINE
8
BLACK
6
CONTINUOUS
10
4.0888951968503937
20
-2.0142431496062994
11
4.0894134251968506
21
-2.0188425196850392
0
LINE
8
BLACK
6
CONTINUOUS
10
4.0894134251968506
20
-2.0188425196850392
11
4.0894133464566931
21
-2.0424644488188974
0
LINE
8
BLACK
6
CONTINUOUS
10
4.0894133464566931
20
-2.0424644488188974
11
4.0894133858267718
21
-2.0424646062992124
0
LINE
8
BLACK
6
CONTINUOUS
10
4.0894133858267718
20
-2.0424646062992124
11
4.088895157480315
21
-2.0470639763779528
0
LINE
8
BLACK
6
CONTINUOUS
10
4.088895157480315
20
-2.0470639763779528
11
4.0873664566929131
21
-2.0514326771653542
0
LINE
8
BLACK
6
CONTINUOUS
10
4.0873664566929131
20
-2.0514326771653542
11
4.0849039763779524
21
-2.0553516929133857
0
LINE
8
BLACK
6
CONTINUOUS
10
4.0849039763779524
20
-2.0553516929133857
11
4.0816311417322835
21
-2.0586244881889764
0
LINE
8
BLACK
6
CONTINUOUS
10
4.0816311417322835
20
-2.0586244881889764
11
4.0777121259842515
21
-2.061086968503937
0
LINE
8
BLACK
6
CONTINUOUS
10
4.0777121259842515
20
-2.061086968503937
11
4.0733433858267718
21
-2.0626156299212597
0
LINE
8
BLACK
6
CONTINUOUS
10
4.0733433858267718
20
-2.0626156299212597
11
4.0687441338582673
21
-2.0631338188976378
0
LINE
8
BLACK
6
CONTINUOUS
10
4.0687441338582673
20
-2.0631338188976378
11
4.0687440944881885
21
-2.0631338582677166
0
LINE
8
BLACK
6
CONTINUOUS
10
4.0687440944881885
20
-2.0631338582677166
11
4.0687440551181098
21
-2.0631338582677166
0
LINE
8
BLACK
6
CONTINUOUS
10
4.0687440551181098
20
-2.0631338582677166
11
3.9388228346456691
21
-2.0631338582677166
0
LINE
8
BLACK
6
CONTINUOUS
10
3.9388228346456691
20
-2.0631338582677166
11
3.9374523622047244
21
-2.0631338582677166
0
LINE
8
BLACK
6
CONTINUOUS
10
3.9374523622047244
20
-2.0631338582677166
11
3.9349201181102362
21
-2.0641827952755905
0
LINE
8
BLACK
6
CONTINUOUS
10
3.9349201181102362
20
-2.0641827952755905
11
3.9329820078740156
21
-2.066120905511811
0
LINE
8
BLACK
6
CONTINUOUS
10
3.9329820078740156
20
-2.066120905511811
11
3.9319330708661417
21
-2.0686531496062992
0
LINE
8
BLACK
6
CONTINUOUS
10
3.9319330708661417
20
-2.0686531496062992
11
3.9319330708661417
21
-2.0700236220472439
0
LINE
8
BLACK
6
CONTINUOUS
10
3.9319330708661417
20
-2.0700236220472439
11
3.9319330708661417
21
-2.1881338582677166
0
LINE
8
BLACK
6
CONTINUOUS
10
3.9319330708661417
20
-2.1881338582677166
11
4.0451220866141728
21
-2.1881338582677166
0
LINE
8
BLACK
6
CONTINUOUS
10
4.0451220866141728
20
-2.1881338582677166
11
4.0505975196850397
21
-2.1887507874015748
0
LINE
8
BLACK
6
CONTINUOUS
10
4.0505975196850397
20
-2.1887507874015748
11
4.0557983464566929
21
-2.1905706692913385
0
LINE
8
BLACK
6
CONTINUOUS
10
4.0557983464566929
20
-2.1905706692913385
11
4.0604638582677168
21
-2.1935022047244095
0
LINE
8
BLACK
6
CONTINUOUS
10
4.0604638582677168
20
-2.1935022047244095
11
4.0643600393700785
21
-2.1973984251968504
0
LINE
8
BLACK
6
CONTINUOUS
10
4.0643600393700785
20
-2.1973984251968504
11
4.06729157480315
21
-2.2020639370078738
0
LINE
8
BLACK
6
CONTINUOUS
10
4.06729157480315
20
-2.2020639370078738
11
4.0691114173228344
21
-2.2072647637795275
0
LINE
8
BLACK
6
CONTINUOUS
10
4.0691114173228344
20
-2.2072647637795275
11
4.0697283070866144
21
-2.212740118110236
0
LINE
8
BLACK
6
CONTINUOUS
10
4.0697283070866144
20
-2.212740118110236
11
4.0697283464566931
21
-2.2127401574803147
0
LINE
8
BLACK
6
CONTINUOUS
10
4.0697283464566931
20
-2.2127401574803147
11
4.0691114173228344
21
-2.2182155905511811
0
LINE
8
BLACK
6
CONTINUOUS
10
4.0691114173228344
20
-2.2182155905511811
11
4.06729157480315
21
-2.2234164173228348
0
LINE
8
BLACK
6
CONTINUOUS
10
4.06729157480315
20
-2.2234164173228348
11
4.0643600393700785
21
-2.2280819291338583
0
LINE
8
BLACK
6
CONTINUOUS
10
4.0643600393700785
20
-2.2280819291338583
11
4.0604638188976381
21
-2.2319781496062991
0
LINE
8
BLACK
6
CONTINUOUS
10
4.0604638188976381
20
-2.2319781496062991
11
4.0557983070866142
21
-2.2349096850393702
0
LINE
8
BLACK
6
CONTINUOUS
10
4.0557983070866142
20
-2.2349096850393702
11
4.0505974803149609
21
-2.2367295275590551
0
LINE
8
BLACK
6
CONTINUOUS
10
4.0505974803149609
20
-2.2367295275590551
11
4.0451220472440941
21
-2.2373464566929133
0
LINE
8
BLACK
6
CONTINUOUS
10
4.0451220472440941
20
-2.2373464566929133
11
3.9319330708661417
21
-2.2373464566929133
0
LINE
8
BLACK
6
CONTINUOUS
10
3.9319330708661417
20
-2.2373464566929133
11
3.9319330708661417
21
-2.8377401574803147
0
LINE
8
BLACK
6
CONTINUOUS
10
3.9319330708661417
20
-2.8377401574803147
11
3.9319330708661417
21
-2.8391106299212598
0
LINE
8
BLACK
6
CONTINUOUS
10
3.9319330708661417
20
-2.8391106299212598
11
3.9329820078740156
21
-2.841642874015748
0
LINE
8
BLACK
6
CONTINUOUS
10
3.9329820078740156
20
-2.841642874015748
11
3.9349201181102362
21
-2.8435809842519686
0
LINE
8
BLACK
6
CONTINUOUS
10
3.9349201181102362
20
-2.8435809842519686
11
3.9374523622047244
21
-2.8446299212598425
0
LINE
8
BLACK
6
CONTINUOUS
10
3.9374523622047244
20
-2.8446299212598425
11
3.9388228346456691
21
-2.8446299212598425
0
LINE
8
BLACK
6
CONTINUOUS
10
3.9388228346456691
20
-2.8446299212598425
11
4.0687440944881885
21
-2.8446299212598425
0
LINE
8
BLACK
6
CONTINUOUS
10
4.0687440944881885
20
-2.8446299212598425
11
4.0733434251968506
21
-2.8451481496062994
0
LINE
8
BLACK
6
CONTINUOUS
10
4.0733434251968506
20
-2.8451481496062994
11
4.0777121653543302
21
-2.846676811023622
0
LINE
8
BLACK
6
CONTINUOUS
10
4.0777121653543302
20
-2.846676811023622
11
4.0816311811023622
21
-2.8491392913385827
0
LINE
8
BLACK
6
CONTINUOUS
10
4.0816311811023622
20
-2.8491392913385827
11
4.0849040157480312
21
-2.8524121259842521
0
LINE
8
BLACK
6
CONTINUOUS
10
4.0849040157480312
20
-2.8524121259842521
11
4.0873664960629918
21
-2.8563311417322832
0
LINE
8
BLACK
6
CONTINUOUS
10
4.0873664960629918
20
-2.8563311417322832
11
4.088895157480315
21
-2.8606998818897638
0
LINE
8
BLACK
6
CONTINUOUS
10
4.088895157480315
20
-2.8606998818897638
11
4.0894133858267718
21
-2.8652992125984253
0
LINE
8
BLACK
6
CONTINUOUS
10
4.0894133858267718
20
-2.8652992125984253
11
4.0894134251968506
21
-2.8869527559055119
0
LINE
8
BLACK
6
CONTINUOUS
10
4.0894134251968506
20
-2.8869527559055119
11
4.0894133070866143
21
-2.8869531889763778
0
LINE
8
BLACK
6
CONTINUOUS
10
4.0894133070866143
20
-2.8869531889763778
11
4.088895157480315
21
-2.8915520866141731
0
LINE
8
BLACK
6
CONTINUOUS
10
4.088895157480315
20
-2.8915520866141731
11
4.0873664960629918
21
-2.8959208267716536
0
LINE
8
BLACK
6
CONTINUOUS
10
4.0873664960629918
20
-2.8959208267716536
11
4.0849040157480312
21
-2.8998398425196852
0
LINE
8
BLACK
6
CONTINUOUS
10
4.0849040157480312
20
-2.8998398425196852
11
4.0816311811023622
21
-2.9031126771653541
0
LINE
8
BLACK
6
CONTINUOUS
10
4.0816311811023622
20
-2.9031126771653541
11
4.0777121653543302
21
-2.9055751574803148
0
LINE
8
BLACK
6
CONTINUOUS
10
4.0777121653543302
20
-2.9055751574803148
11
4.0733434251968506
21
-2.9071038188976379
0
LINE
8
BLACK
6
CONTINUOUS
10
4.0733434251968506
20
-2.9071038188976379
11
4.0687440944881885
21
-2.9076220472440943
0
LINE
8
BLACK
6
CONTINUOUS
10
4.0687440944881885
20
-2.9076220472440943
11
4.0687440944881885
21
-2.9076220866141731
0
LINE
8
BLACK
6
CONTINUOUS
10
4.0687440944881885
20
-2.9076220866141731
11
4.0687439763779523
21
-2.9076220472440943
0
LINE
8
BLACK
6
CONTINUOUS
10
4.0687439763779523
20
-2.9076220472440943
11
3.6356732677165353
21
-2.9076220472440943
0
LINE
8
BLACK
6
CONTINUOUS
10
3.6356732677165353
20
-2.9076220472440943
11
3.6356732283464566
21
-2.9076220472440943
0
LINE
8
BLACK
6
CONTINUOUS
10
3.6356732283464566
20
-2.9076220472440943
11
3.6356731496062991
21
-2.9076220078740156
0
LINE
8
BLACK
6
CONTINUOUS
10
3.6356731496062991
20
-2.9076220078740156
11
3.631073897637795
21
-2.9071038188976379
0
LINE
8
BLACK
6
CONTINUOUS
10
3.631073897637795
20
-2.9071038188976379
11
3.6267051968503936
21
-2.9055751574803148
0
LINE
8
BLACK
6
CONTINUOUS
10
3.6267051968503936
20
-2.9055751574803148
11
3.6227861417322833
21
-2.9031126771653541
0
LINE
8
BLACK
6
CONTINUOUS
10
3.6227861417322833
20
-2.9031126771653541
11
3.6195133464566926
21
-2.8998398425196852
0
LINE
8
BLACK
6
CONTINUOUS
10
3.6195133464566926
20
-2.8998398425196852
11
3.6170508267716537
21
-2.8959208267716536
0
LINE
8
BLACK
6
CONTINUOUS
10
3.6170508267716537
20
-2.8959208267716536
11
3.6155221653543306
21
-2.8915521259842518
0
LINE
8
BLACK
6
CONTINUOUS
10
3.6155221653543306
20
-2.8915521259842518
11
3.6150039370078741
21
-2.8869527559055119
0
LINE
8
BLACK
6
CONTINUOUS
10
3.6150039370078741
20
-2.8869527559055119
11
3.6150039370078741
21
-2.0188425196850392
0
LINE
8
BLACK
6
CONTINUOUS
10
3.6150039370078741
20
-2.0188425196850392
11
3.6155221653543306
21
-2.0142431496062994
0
LINE
8
BLACK
6
CONTINUOUS
10
3.6155221653543306
20
-2.0142431496062994
11
3.6170508267716537
21
-2.0098744488188975
0
LINE
8
BLACK
6
CONTINUOUS
10
3.6170508267716537
20
-2.0098744488188975
11
3.6195133464566926
21
-2.005955433070866
0
LINE
8
BLACK
6
CONTINUOUS
10
3.6195133464566926
20
-2.005955433070866
11
3.6227861417322833
21
-2.002682598425197
0
LINE
8
BLACK
6
CONTINUOUS
10
3.6227861417322833
20
-2.002682598425197
11
3.6267051968503936
21
-2.0002201181102364
0
LINE
8
BLACK
6
CONTINUOUS
10
3.6267051968503936
20
-2.0002201181102364
11
3.631073897637795
21
-1.9986914566929133
0
LINE
8
BLACK
6
CONTINUOUS
10
3.631073897637795
20
-1.9986914566929133
11
3.6356731496062991
21
-1.9981732283464566
0
LINE
8
BLACK
6
CONTINUOUS
10
3.6356731496062991
20
-1.9981732283464566
11
3.6356732283464566
21
-1.9981732283464566
0
LINE
8
BLACK
6
CONTINUOUS
10
3.6356732283464566
20
-1.9981732283464566
11
4.0687440944881885
21
-1.9981731889763779
0
LINE
8
BLACK
6
CONTINUOUS
10
4.0687440944881885
20
-1.9981731889763779
11
4.0733434645669293
21
-1.9986914173228345
0
LINE
8
BLACK
6
CONTINUOUS
10
3.6356732677165353
20
-2.0001416929133859
11
3.6356732677165353
21
-2.0001417322834647
0
LINE
8
BLACK
6
CONTINUOUS
10
3.6356732677165353
20
-2.0001417322834647
11
3.6332112598425197
21
-2.0001417322834647
0
LINE
8
BLACK
6
CONTINUOUS
10
3.6332112598425197
20
-2.0001417322834647
11
3.6284549999999998
21
-2.0014161417322835
0
LINE
8
BLACK
6
CONTINUOUS
10
3.6284549999999998
20
-2.0014161417322835
11
3.6241906692913384
21
-2.0038781496062992
0
LINE
8
BLACK
6
CONTINUOUS
10
3.6241906692913384
20
-2.0038781496062992
11
3.6207088582677165
21
-2.0073599606299211
0
LINE
8
BLACK
6
CONTINUOUS
10
3.6207088582677165
20
-2.0073599606299211
11
3.6182468503937009
21
-2.0116242913385824
0
LINE
8
BLACK
6
CONTINUOUS
10
3.6182468503937009
20
-2.0116242913385824
11
3.616972440944882
21
-2.0163805118110236
0
LINE
8
BLACK
6
CONTINUOUS
10
3.616972440944882
20
-2.0163805118110236
11
3.616972440944882
21
-2.0188425196850392
0
LINE
8
BLACK
6
CONTINUOUS
10
3.616972440944882
20
-2.0188425196850392
11
3.616972440944882
21
-2.8869527559055119
0
LINE
8
BLACK
6
CONTINUOUS
10
3.616972440944882
20
-2.8869527559055119
11
3.616972440944882
21
-2.8894147637795276
0
LINE
8
BLACK
6
CONTINUOUS
10
3.616972440944882
20
-2.8894147637795276
11
3.6182468503937009
21
-2.8941709842519683
0
LINE
8
BLACK
6
CONTINUOUS
10
3.6182468503937009
20
-2.8941709842519683
11
3.6207088582677165
21
-2.8984353149606297
0
LINE
8
BLACK
6
CONTINUOUS
10
3.6207088582677165
20
-2.8984353149606297
11
3.6241906692913384
21
-2.901917125984252
0
LINE
8
BLACK
6
CONTINUOUS
10
3.6241906692913384
20
-2.901917125984252
11
3.6284549999999998
21
-2.9043791338582676
0
LINE
8
BLACK
6
CONTINUOUS
10
3.6284549999999998
20
-2.9043791338582676
11
3.6332112598425197
21
-2.9056535433070865
0
LINE
8
BLACK
6
CONTINUOUS
10
3.6332112598425197
20
-2.9056535433070865
11
3.6356732283464566
21
-2.9056535433070865
0
LINE
8
BLACK
6
CONTINUOUS
10
3.6356732283464566
20
-2.9056535433070865
11
4.0687440944881885
21
-2.9056535433070865
0
LINE
8
BLACK
6
CONTINUOUS
10
4.0687440944881885
20
-2.9056535433070865
11
4.071206102362205
21
-2.9056535433070865
0
LINE
8
BLACK
6
CONTINUOUS
10
4.071206102362205
20
-2.9056535433070865
11
4.0759623228346458
21
-2.9043791338582676
0
LINE
8
BLACK
6
CONTINUOUS
10
4.0759623228346458
20
-2.9043791338582676
11
4.0802266535433072
21
-2.901917125984252
0
LINE
8
BLACK
6
CONTINUOUS
10
4.0802266535433072
20
-2.901917125984252
11
4.0837084645669286
21
-2.8984353149606297
0
LINE
8
BLACK
6
CONTINUOUS
10
4.0837084645669286
20
-2.8984353149606297
11
4.0861704724409451
21
-2.8941709842519683
0
LINE
8
BLACK
6
CONTINUOUS
10
4.0861704724409451
20
-2.8941709842519683
11
4.0874448818897635
21
-2.8894147637795276
0
LINE
8
BLACK
6
CONTINUOUS
10
4.0874448818897635
20
-2.8894147637795276
11
4.0874448818897635
21
-2.8869527559055119
0
LINE
8
BLACK
6
CONTINUOUS
10
4.0874448818897635
20
-2.8869527559055119
11
4.0874448818897635
21
-2.8869525984251969
0
LINE
8
BLACK
6
CONTINUOUS
10
4.0874448818897635
20
-2.8869525984251969
11
4.0874448818897635
21
-2.8652992125984253
0
LINE
8
BLACK
6
CONTINUOUS
10
4.0874448818897635
20
-2.8652992125984253
11
4.0874448818897635
21
-2.8628372047244093
0
LINE
8
BLACK
6
CONTINUOUS
10
4.0874448818897635
20
-2.8628372047244093
11
4.0861704724409451
21
-2.8580809842519685
0
LINE
8
BLACK
6
CONTINUOUS
10
4.0861704724409451
20
-2.8580809842519685
11
4.0837084645669286
21
-2.8538166535433072
0
LINE
8
BLACK
6
CONTINUOUS
10
4.0837084645669286
20
-2.8538166535433072
11
4.0802266535433072
21
-2.8503348425196848
0
LINE
8
BLACK
6
CONTINUOUS
10
4.0802266535433072
20
-2.8503348425196848
11
4.0759623228346458
21
-2.8478728346456692
0
LINE
8
BLACK
6
CONTINUOUS
10
4.0759623228346458
20
-2.8478728346456692
11
4.071206102362205
21
-2.8465984251968504
0
LINE
8
BLACK
6
CONTINUOUS
10
4.071206102362205
20
-2.8465984251968504
11
4.0687440944881885
21
-2.8465984251968504
0
LINE
8
BLACK
6
CONTINUOUS
10
4.0687440944881885
20
-2.8465984251968504
11
3.9388228346456691
21
-2.8465984251968504
0
LINE
8
BLACK
6
CONTINUOUS
10
3.9388228346456691
20
-2.8465984251968504
11
3.9360854724409449
21
-2.8461648818897638
0
LINE
8
BLACK
6
CONTINUOUS
10
3.9360854724409449
20
-2.8461648818897638
11
3.933616062992126
21
-2.844906653543307
0
LINE
8
BLACK
6
CONTINUOUS
10
3.933616062992126
20
-2.844906653543307
11
3.9316563385826773
21
-2.8429469291338583
0
LINE
8
BLACK
6
CONTINUOUS
10
3.9316563385826773
20
-2.8429469291338583
11
3.9303981102362204
21
-2.8404775196850394
0
LINE
8
BLACK
6
CONTINUOUS
10
3.9303981102362204
20
-2.8404775196850394
11
3.9299645669291339
21
-2.8377401574803147
0
LINE
8
BLACK
6
CONTINUOUS
10
3.9299645669291339
20
-2.8377401574803147
11
3.9299645669291339
21
-2.2363622047244096
0
LINE
8
BLACK
6
CONTINUOUS
10
3.9299645669291339
20
-2.2363622047244096
11
3.9300394881889762
21
-2.2359855511811024
0
LINE
8
BLACK
6
CONTINUOUS
10
3.9300394881889762
20
-2.2359855511811024
11
3.9305721653543304
21
-2.2354528740157478
0
LINE
8
BLACK
6
CONTINUOUS
10
3.9305721653543304
20
-2.2354528740157478
11
3.9309488188976376
21
-2.2353779527559055
0
LINE
8
BLACK
6
CONTINUOUS
10
3.9309488188976376
20
-2.2353779527559055
11
4.0451220472440941
21
-2.2353779527559055
0
LINE
8
BLACK
6
CONTINUOUS
10
4.0451220472440941
20
-2.2353779527559055
11
4.0476727165354331
21
-2.2353779527559055
0
LINE
8
BLACK
6
CONTINUOUS
10
4.0476727165354331
20
-2.2353779527559055
11
4.052646141732283
21
-2.2342427952755903
0
LINE
8
BLACK
6
CONTINUOUS
10
4.052646141732283
20
-2.2342427952755903
11
4.0572422834645669
21
-2.2320294094488187
0
LINE
8
BLACK
6
CONTINUOUS
10
4.0572422834645669
20
-2.2320294094488187
11
4.0612306692913389
21
-2.2288487795275591
0
LINE
8
BLACK
6
CONTINUOUS
10
4.0612306692913389
20
-2.2288487795275591
11
4.0644112992125985
21
-2.2248603937007871
0
LINE
8
BLACK
6
CONTINUOUS
10
4.0644112992125985
20
-2.2248603937007871
11
4.0666246850393701
21
-2.2202642519685041
0
LINE
8
BLACK
6
CONTINUOUS
10
4.0666246850393701
20
-2.2202642519685041
11
4.0677598425196848
21
-2.2152908267716533
0
LINE
8
BLACK
6
CONTINUOUS
10
4.0677598425196848
20
-2.2152908267716533
11
4.0677598425196848
21
-2.2127401574803147
0
LINE
8
BLACK
6
CONTINUOUS
10
4.0677598425196848
20
-2.2127401574803147
11
4.0677598425196848
21
-2.2101895275590553
0
LINE
8
BLACK
6
CONTINUOUS
10
4.0677598425196848
20
-2.2101895275590553
11
4.0666246850393701
21
-2.2052161023622046
0
LINE
8
BLACK
6
CONTINUOUS
10
4.0666246850393701
20
-2.2052161023622046
11
4.0644112992125985
21
-2.200619960629921
0
LINE
8
BLACK
6
CONTINUOUS
10
4.0644112992125985
20
-2.200619960629921
11
4.0612307086614177
21
-2.1966315748031495
0
LINE
8
BLACK
6
CONTINUOUS
10
4.0612307086614177
20
-2.1966315748031495
11
4.0572423228346457
21
-2.1934509448818895
0
LINE
8
BLACK
6
CONTINUOUS
10
4.0572423228346457
20
-2.1934509448818895
11
4.0526461811023617
21
-2.1912375590551179
0
LINE
8
BLACK
6
CONTINUOUS
10
4.0526461811023617
20
-2.1912375590551179
11
4.0476727559055119
21
-2.1901023622047244
0
LINE
8
BLACK
6
CONTINUOUS
10
4.0476727559055119
20
-2.1901023622047244
11
4.0451220866141728
21
-2.1901023622047244
0
LINE
8
BLACK
6
CONTINUOUS
10
4.0451220866141728
20
-2.1901023622047244
11
3.9309488188976376
21
-2.1901023622047244
0
LINE
8
BLACK
6
CONTINUOUS
10
3.9309488188976376
20
-2.1901023622047244
11
3.9305721653543304
21
-2.1900274409448817
0
LINE
8
BLACK
6
CONTINUOUS
10
3.9305721653543304
20
-2.1900274409448817
11
3.9300394881889762
21
-2.1894947637795275
0
LINE
8
BLACK
6
CONTINUOUS
10
3.9300394881889762
20
-2.1894947637795275
11
3.9299645669291339
21
-2.1891181102362203
0
LINE
8
BLACK
6
CONTINUOUS
10
3.9299645669291339
20
-2.1891181102362203
11
3.9299645669291339
21
-2.0700236220472439
0
LINE
8
BLACK
6
CONTINUOUS
10
3.9299645669291339
20
-2.0700236220472439
11
3.9303981102362204
21
-2.0672862598425197
0
LINE
8
BLACK
6
CONTINUOUS
10
3.9303981102362204
20
-2.0672862598425197
11
3.9316563385826773
21
-2.0648168503937008
0
LINE
8
BLACK
6
CONTINUOUS
10
3.9316563385826773
20
-2.0648168503937008
11
3.933616062992126
21
-2.0628571259842521
0
LINE
8
BLACK
6
CONTINUOUS
10
3.933616062992126
20
-2.0628571259842521
11
3.9360854724409449
21
-2.0615988976377952
0
LINE
8
BLACK
6
CONTINUOUS
10
3.9360854724409449
20
-2.0615988976377952
11
3.9388228346456691
21
-2.0611653543307087
0
LINE
8
BLACK
6
CONTINUOUS
10
3.9388228346456691
20
-2.0611653543307087
11
4.0687440944881885
21
-2.0611653543307087
0
LINE
8
BLACK
6
CONTINUOUS
10
4.0687440944881885
20
-2.0611653543307087
11
4.0712060629921263
21
-2.0611653543307087
0
LINE
8
BLACK
6
CONTINUOUS
10
4.0712060629921263
20
-2.0611653543307087
11
4.075962283464567
21
-2.0598909448818898
0
LINE
8
BLACK
6
CONTINUOUS
10
4.075962283464567
20
-2.0598909448818898
11
4.0802266141732284
21
-2.0574289370078738
0
LINE
8
BLACK
6
CONTINUOUS
10
4.0802266141732284
20
-2.0574289370078738
11
4.0837084251968507
21
-2.0539471653543306
0
LINE
8
BLACK
6
CONTINUOUS
10
4.0837084251968507
20
-2.0539471653543306
11
4.0861704330708664
21
-2.0496828346456692
0
LINE
8
BLACK
6
CONTINUOUS
10
4.0861704330708664
20
-2.0496828346456692
11
4.0874448818897635
21
-2.0449266141732285
0
LINE
8
BLACK
6
CONTINUOUS
10
4.0874448818897635
20
-2.0449266141732285
11
4.0874448818897635
21
-2.0424648031496062
0
LINE
8
BLACK
6
CONTINUOUS
10
4.0874448818897635
20
-2.0424648031496062
11
4.0874448425196848
21
-2.0424646062992124
0
LINE
8
BLACK
6
CONTINUOUS
10
4.0874448425196848
20
-2.0424646062992124
11
4.0874448818897635
21
-2.0188426377952755
0
LINE
8
BLACK
6
CONTINUOUS
10
4.0874448818897635
20
-2.0188426377952755
11
4.0874448818897635
21
-2.0188425196850392
0
LINE
8
BLACK
6
CONTINUOUS
10
4.0874448818897635
20
-2.0188425196850392
11
4.0874449212598423
21
-2.0188425196850392
0
LINE
8
BLACK
6
CONTINUOUS
10
4.0874449212598423
20
-2.0188425196850392
11
4.0874449212598423
21
-2.0163805118110236
0
LINE
8
BLACK
6
CONTINUOUS
10
4.0874449212598423
20
-2.0163805118110236
11
4.0861705118110239
21
-2.0116242519685037
0
LINE
8
BLACK
6
CONTINUOUS
10
4.0861705118110239
20
-2.0116242519685037
11
4.0837085039370074
21
-2.0073599212598423
0
LINE
8
BLACK
6
CONTINUOUS
10
4.0837085039370074
20
-2.0073599212598423
11
4.0802266929133859
21
-2.0038781102362204
0
LINE
8
BLACK
6
CONTINUOUS
10
4.0802266929133859
20
-2.0038781102362204
11
4.0759623622047245
21
-2.0014161023622048
0
LINE
8
BLACK
6
CONTINUOUS
10
4.0759623622047245
20
-2.0014161023622048
11
4.071206102362205
21
-2.0001416929133859
0
LINE
8
BLACK
6
CONTINUOUS
10
4.071206102362205
20
-2.0001416929133859
11
4.0687440944881885
21
-2.0001416929133859
0
LINE
8
BLACK
6
CONTINUOUS
10
4.0687440944881885
20
-2.0001416929133859
11
3.6356732677165353
21
-2.0001416929133859
0
LINE
8
BLACK
6
CONTINUOUS
10
7.0908947244094485
20
-2.4088458267716537
11
7.0975046850393699
21
-2.4109935433070864
0
LINE
8
BLACK
6
CONTINUOUS
10
7.0975046850393699
20
-2.4109935433070864
11
7.1036972834645669
21
-2.4141488188976377
0
LINE
8
BLACK
6
CONTINUOUS
10
7.1036972834645669
20
-2.4141488188976377
11
7.1093200393700782
21
-2.4182339763779526
0
LINE
8
BLACK
6
CONTINUOUS
10
7.1093200393700782
20
-2.4182339763779526
11
7.1142345275590548
21
-2.4231484645669292
0
LINE
8
BLACK
6
CONTINUOUS
10
7.1142345275590548
20
-2.4231484645669292
11
7.1183196850393697
21
-2.428771220472441
0
LINE
8
BLACK
6
CONTINUOUS
10
7.1183196850393697
20
-2.428771220472441
11
7.1214749606299215
21
-2.4349638188976379
0
LINE
8
BLACK
6
CONTINUOUS
10
7.1214749606299215
20
-2.4349638188976379
11
7.1236226771653541
21
-2.4415737795275589
0
LINE
8
BLACK
6
CONTINUOUS
10
7.1236226771653541
20
-2.4415737795275589
11
7.1247099212598419
21
-2.448438346456693
0
LINE
8
BLACK
6
CONTINUOUS
10
7.1247099212598419
20
-2.448438346456693
11
7.1247099212598419
21
-2.4553884251968503
0
LINE
8
BLACK
6
CONTINUOUS
10
7.1247099212598419
20
-2.4553884251968503
11
7.1236226771653541
21
-2.4622529921259844
0
LINE
8
BLACK
6
CONTINUOUS
10
7.1236226771653541
20
-2.4622529921259844
11
7.1214749606299215
21
-2.4688629527559054
0
LINE
8
BLACK
6
CONTINUOUS
10
7.1214749606299215
20
-2.4688629527559054
11
7.1183196850393697
21
-2.4750555511811023
0
LINE
8
BLACK
6
CONTINUOUS
10
7.1183196850393697
20
-2.4750555511811023
11
7.1142345275590548
21
-2.4806783070866141
0
LINE
8
BLACK
6
CONTINUOUS
10
7.1142345275590548
20
-2.4806783070866141
11
7.1093200393700782
21
-2.4855927952755903
0
LINE
8
BLACK
6
CONTINUOUS
10
7.1093200393700782
20
-2.4855927952755903
11
7.1036972834645669
21
-2.4896779527559056
0
LINE
8
BLACK
6
CONTINUOUS
10
7.1036972834645669
20
-2.4896779527559056
11
7.0975046850393699
21
-2.4928332283464565
0
LINE
8
BLACK
6
CONTINUOUS
10
7.0975046850393699
20
-2.4928332283464565
11
7.0908947244094485
21
-2.4949809448818896
0
LINE
8
BLACK
6
CONTINUOUS
10
7.0908947244094485
20
-2.4949809448818896
11
7.0840301574803144
21
-2.4960681889763778
0
LINE
8
BLACK
6
CONTINUOUS
10
7.0840301574803144
20
-2.4960681889763778
11
7.0770800787401571
21
-2.4960681889763778
0
LINE
8
BLACK
6
CONTINUOUS
10
7.0770800787401571
20
-2.4960681889763778
11
7.070215511811023
21
-2.4949809448818896
0
LINE
8
BLACK
6
CONTINUOUS
10
7.070215511811023
20
-2.4949809448818896
11
7.0636055511811024
21
-2.4928332283464565
0
LINE
8
BLACK
6
CONTINUOUS
10
7.0636055511811024
20
-2.4928332283464565
11
7.0574129527559055
21
-2.4896779527559056
0
LINE
8
BLACK
6
CONTINUOUS
10
7.0574129527559055
20
-2.4896779527559056
11
7.0517901968503933
21
-2.4855927952755903
0
LINE
8
BLACK
6
CONTINUOUS
10
7.0517901968503933
20
-2.4855927952755903
11
7.0468757086614175
21
-2.4806783070866141
0
LINE
8
BLACK
6
CONTINUOUS
10
7.0468757086614175
20
-2.4806783070866141
11
7.0427905511811026
21
-2.4750555511811023
0
LINE
8
BLACK
6
CONTINUOUS
10
7.0427905511811026
20
-2.4750555511811023
11
7.0396352755905509
21
-2.4688629527559054
0
LINE
8
BLACK
6
CONTINUOUS
10
7.0396352755905509
20
-2.4688629527559054
11
7.0374875590551182
21
-2.4622529921259844
0
LINE
8
BLACK
6
CONTINUOUS
10
7.0374875590551182
20
-2.4622529921259844
11
7.0364003149606296
21
-2.4553884251968503
0
LINE
8
BLACK
6
CONTINUOUS
10
7.0364003149606296
20
-2.4553884251968503
11
7.0364003149606296
21
-2.4485825196850395
0
LINE
8
BLACK
6
CONTINUOUS
10
7.0364003149606296
20
-2.4485825196850395
11
7.0364003149606296
21
-2.448438346456693
0
LINE
8
BLACK
6
CONTINUOUS
10
7.0364003149606296
20
-2.448438346456693
11
7.0374875590551182
21
-2.4415737795275589
0
LINE
8
BLACK
6
CONTINUOUS
10
7.0374875590551182
20
-2.4415737795275589
11
7.0396352755905509
21
-2.4349638188976379
0
LINE
8
BLACK
6
CONTINUOUS
10
7.0396352755905509
20
-2.4349638188976379
11
7.0427905511811026
21
-2.428771220472441
0
LINE
8
BLACK
6
CONTINUOUS
10
7.0427905511811026
20
-2.428771220472441
11
7.0468757086614175
21
-2.4231484645669292
0
LINE
8
BLACK
6
CONTINUOUS
10
7.0468757086614175
20
-2.4231484645669292
11
7.0517901968503933
21
-2.4182339763779526
0
LINE
8
BLACK
6
CONTINUOUS
10
7.0517901968503933
20
-2.4182339763779526
11
7.0574129527559055
21
-2.4141488188976377
0
LINE
8
BLACK
6
CONTINUOUS
10
7.0574129527559055
20
-2.4141488188976377
11
7.0636055511811024
21
-2.4109935433070864
0
LINE
8
BLACK
6
CONTINUOUS
10
7.0636055511811024
20
-2.4109935433070864
11
7.070215511811023
21
-2.4088458267716537
0
LINE
8
BLACK
6
CONTINUOUS
10
7.070215511811023
20
-2.4088458267716537
11
7.0770800787401571
21
-2.4077585826771655
0
LINE
8
BLACK
6
CONTINUOUS
10
7.0770800787401571
20
-2.4077585826771655
11
7.0840301574803144
21
-2.4077585826771655
0
LINE
8
BLACK
6
CONTINUOUS
10
7.0840301574803144
20
-2.4077585826771655
11
7.0908947244094485
21
-2.4088458267716537
0
LINE
8
BLACK
6
CONTINUOUS
10
7.0382322834645672
20
-2.4552442519685038
11
7.0392744094488187
21
-2.4618240157480313
0
LINE
8
BLACK
6
CONTINUOUS
10
7.0392744094488187
20
-2.4618240157480313
11
7.0413330314960625
21
-2.4681597244094489
0
LINE
8
BLACK
6
CONTINUOUS
10
7.0413330314960625
20
-2.4681597244094489
11
7.0443574015748034
21
-2.4740953937007872
0
LINE
8
BLACK
6
CONTINUOUS
10
7.0443574015748034
20
-2.4740953937007872
11
7.0482730708661414
21
-2.4794848425196849
0
LINE
8
BLACK
6
CONTINUOUS
10
7.0482730708661414
20
-2.4794848425196849
11
7.0529836614173229
21
-2.484195433070866
0
LINE
8
BLACK
6
CONTINUOUS
10
7.0529836614173229
20
-2.484195433070866
11
7.0583731102362206
21
-2.4881111023622045
0
LINE
8
BLACK
6
CONTINUOUS
10
7.0583731102362206
20
-2.4881111023622045
11
7.0643087795275585
21
-2.4911354724409449
0
LINE
8
BLACK
6
CONTINUOUS
10
7.0643087795275585
20
-2.4911354724409449
11
7.0706444881889761
21
-2.4931940944881887
0
LINE
8
BLACK
6
CONTINUOUS
10
7.0706444881889761
20
-2.4931940944881887
11
7.077224251968504
21
-2.4942362204724411
0
LINE
8
BLACK
6
CONTINUOUS
10
7.077224251968504
20
-2.4942362204724411
11
7.0838859842519684
21
-2.4942362204724411
0
LINE
8
BLACK
6
CONTINUOUS
10
7.0838859842519684
20
-2.4942362204724411
11
7.0904657480314963
21
-2.4931940944881887
0
LINE
8
BLACK
6
CONTINUOUS
10
7.0904657480314963
20
-2.4931940944881887
11
7.096801456692913
21
-2.4911354724409449
0
LINE
8
BLACK
6
CONTINUOUS
10
7.096801456692913
20
-2.4911354724409449
11
7.1027371259842518
21
-2.4881111023622045
0
LINE
8
BLACK
6
CONTINUOUS
10
7.1027371259842518
20
-2.4881111023622045
11
7.1081265748031495
21
-2.484195433070866
0
LINE
8
BLACK
6
CONTINUOUS
10
7.1081265748031495
20
-2.484195433070866
11
7.112837165354331
21
-2.4794848425196849
0
LINE
8
BLACK
6
CONTINUOUS
10
7.112837165354331
20
-2.4794848425196849
11
7.116752834645669
21
-2.4740953937007872
0
LINE
8
BLACK
6
CONTINUOUS
10
7.116752834645669
20
-2.4740953937007872
11
7.119777204724409
21
-2.4681597244094489
0
LINE
8
BLACK
6
CONTINUOUS
10
7.119777204724409
20
-2.4681597244094489
11
7.1218358267716537
21
-2.4618240157480313
0
LINE
8
BLACK
6
CONTINUOUS
10
7.1218358267716537
20
-2.4618240157480313
11
7.1228779527559052
21
-2.4552442519685038
0
LINE
8
BLACK
6
CONTINUOUS
10
7.1228779527559052
20
-2.4552442519685038
11
7.1228779527559052
21
-2.4485825196850395
0
LINE
8
BLACK
6
CONTINUOUS
10
7.1228779527559052
20
-2.4485825196850395
11
7.1218358267716537
21
-2.442002755905512
0
LINE
8
BLACK
6
CONTINUOUS
10
7.1218358267716537
20
-2.442002755905512
11
7.119777204724409
21
-2.4356670472440944
0
LINE
8
BLACK
6
CONTINUOUS
10
7.119777204724409
20
-2.4356670472440944
11
7.116752834645669
21
-2.4297313779527561
0
LINE
8
BLACK
6
CONTINUOUS
10
7.116752834645669
20
-2.4297313779527561
11
7.112837165354331
21
-2.4243419291338584
0
LINE
8
BLACK
6
CONTINUOUS
10
7.112837165354331
20
-2.4243419291338584
11
7.1081265748031495
21
-2.4196313385826773
0
LINE
8
BLACK
6
CONTINUOUS
10
7.1081265748031495
20
-2.4196313385826773
11
7.1027371259842518
21
-2.4157156692913384
0
LINE
8
BLACK
6
CONTINUOUS
10
7.1027371259842518
20
-2.4157156692913384
11
7.096801456692913
21
-2.4126912992125984
0
LINE
8
BLACK
6
CONTINUOUS
10
7.096801456692913
20
-2.4126912992125984
11
7.0904657480314963
21
-2.4106326771653541
0
LINE
8
BLACK
6
CONTINUOUS
10
7.0904657480314963
20
-2.4106326771653541
11
7.0838859842519684
21
-2.4095905511811022
0
LINE
8
BLACK
6
CONTINUOUS
10
7.0838859842519684
20
-2.4095905511811022
11
7.077224251968504
21
-2.4095905511811022
0
LINE
8
BLACK
6
CONTINUOUS
10
7.077224251968504
20
-2.4095905511811022
11
7.0706444881889761
21
-2.4106326771653541
0
LINE
8
BLACK
6
CONTINUOUS
10
7.0706444881889761
20
-2.4106326771653541
11
7.0643087795275585
21
-2.4126912992125984
0
LINE
8
BLACK
6
CONTINUOUS
10
7.0643087795275585
20
-2.4126912992125984
11
7.0583731102362206
21
-2.4157156692913384
0
LINE
8
BLACK
6
CONTINUOUS
10
7.0583731102362206
20
-2.4157156692913384
11
7.0529836614173229
21
-2.4196313385826773
0
LINE
8
BLACK
6
CONTINUOUS
10
7.0529836614173229
20
-2.4196313385826773
11
7.0482730708661414
21
-2.4243419291338584
0
LINE
8
BLACK
6
CONTINUOUS
10
7.0482730708661414
20
-2.4243419291338584
11
7.0443574015748034
21
-2.4297313779527561
0
LINE
8
BLACK
6
CONTINUOUS
10
7.0443574015748034
20
-2.4297313779527561
11
7.0413330314960625
21
-2.4356670472440944
0
LINE
8
BLACK
6
CONTINUOUS
10
7.0413330314960625
20
-2.4356670472440944
11
7.0392744094488187
21
-2.442002755905512
0
LINE
8
BLACK
6
CONTINUOUS
10
7.0392744094488187
20
-2.442002755905512
11
7.0382322834645672
21
-2.4485825196850395
0
LINE
8
BLACK
6
CONTINUOUS
10
7.0382322834645672
20
-2.4485825196850395
11
7.0382322834645672
21
-2.4552442519685038
0
LINE
8
BLACK
6
CONTINUOUS
10
3.1511309448818898
20
-1.8655387401574803
11
3.1577409055118109
21
-1.8676864566929134
0
LINE
8
BLACK
6
CONTINUOUS
10
3.1577409055118109
20
-1.8676864566929134
11
3.1639335039370078
21
-1.8708417322834645
0
LINE
8
BLACK
6
CONTINUOUS
10
3.1639335039370078
20
-1.8708417322834645
11
3.1695562598425195
21
-1.8749268897637794
0
LINE
8
BLACK
6
CONTINUOUS
10
3.1695562598425195
20
-1.8749268897637794
11
3.1744707480314962
21
-1.8798413779527559
0
LINE
8
BLACK
6
CONTINUOUS
10
3.1744707480314962
20
-1.8798413779527559
11
3.1785559055118111
21
-1.8854641338582676
0
LINE
8
BLACK
6
CONTINUOUS
10
3.1785559055118111
20
-1.8854641338582676
11
3.181711181102362
21
-1.8916567322834645
0
LINE
8
BLACK
6
CONTINUOUS
10
3.181711181102362
20
-1.8916567322834645
11
3.1838588976377951
21
-1.8982666929133858
0
LINE
8
BLACK
6
CONTINUOUS
10
3.1838588976377951
20
-1.8982666929133858
11
3.1849461417322833
21
-1.9051312598425196
0
LINE
8
BLACK
6
CONTINUOUS
10
3.1849461417322833
20
-1.9051312598425196
11
3.1849461417322833
21
-1.9120813385826771
0
LINE
8
BLACK
6
CONTINUOUS
10
3.1849461417322833
20
-1.9120813385826771
11
3.1838588976377951
21
-1.918945905511811
0
LINE
8
BLACK
6
CONTINUOUS
10
3.1838588976377951
20
-1.918945905511811
11
3.181711181102362
21
-1.9255558661417322
0
LINE
8
BLACK
6
CONTINUOUS
10
3.181711181102362
20
-1.9255558661417322
11
3.1785559055118111
21
-1.9317484645669292
0
LINE
8
BLACK
6
CONTINUOUS
10
3.1785559055118111
20
-1.9317484645669292
11
3.1744707480314962
21
-1.9373712204724409
0
LINE
8
BLACK
6
CONTINUOUS
10
3.1744707480314962
20
-1.9373712204724409
11
3.1695562598425195
21
-1.9422857086614174
0
LINE
8
BLACK
6
CONTINUOUS
10
3.1695562598425195
20
-1.9422857086614174
11
3.1639335039370078
21
-1.9463708661417323
0
LINE
8
BLACK
6
CONTINUOUS
10
3.1639335039370078
20
-1.9463708661417323
11
3.1577409055118109
21
-1.9495261417322833
0
LINE
8
BLACK
6
CONTINUOUS
10
3.1577409055118109
20
-1.9495261417322833
11
3.1511309448818898
21
-1.9516738582677164
0
LINE
8
BLACK
6
CONTINUOUS
10
3.1511309448818898
20
-1.9516738582677164
11
3.1442663779527558
21
-1.9527611023622047
0
LINE
8
BLACK
6
CONTINUOUS
10
3.1442663779527558
20
-1.9527611023622047
11
3.1373162992125985
21
-1.9527611023622047
0
LINE
8
BLACK
6
CONTINUOUS
10
3.1373162992125985
20
-1.9527611023622047
11
3.1304517322834644
21
-1.9516738582677164
0
LINE
8
BLACK
6
CONTINUOUS
10
3.1304517322834644
20
-1.9516738582677164
11
3.1238417716535434
21
-1.9495261417322833
0
LINE
8
BLACK
6
CONTINUOUS
10
3.1238417716535434
20
-1.9495261417322833
11
3.1176491732283464
21
-1.9463708661417323
0
LINE
8
BLACK
6
CONTINUOUS
10
3.1176491732283464
20
-1.9463708661417323
11
3.1120264173228347
21
-1.9422857086614174
0
LINE
8
BLACK
6
CONTINUOUS
10
3.1120264173228347
20
-1.9422857086614174
11
3.107111929133858
21
-1.9373712204724409
0
LINE
8
BLACK
6
CONTINUOUS
10
3.107111929133858
20
-1.9373712204724409
11
3.1030267716535431
21
-1.9317484645669292
0
LINE
8
BLACK
6
CONTINUOUS
10
3.1030267716535431
20
-1.9317484645669292
11
3.0998714960629918
21
-1.9255558661417322
0
LINE
8
BLACK
6
CONTINUOUS
10
3.0998714960629918
20
-1.9255558661417322
11
3.0977237795275592
21
-1.918945905511811
0
LINE
8
BLACK
6
CONTINUOUS
10
3.0977237795275592
20
-1.918945905511811
11
3.0966365354330709
21
-1.9120813385826771
0
LINE
8
BLACK
6
CONTINUOUS
10
3.0966365354330709
20
-1.9120813385826771
11
3.0966365354330709
21
-1.9052754330708661
0
LINE
8
BLACK
6
CONTINUOUS
10
3.0966365354330709
20
-1.9052754330708661
11
3.0966365354330709
21
-1.9051312598425196
0
LINE
8
BLACK
6
CONTINUOUS
10
3.0966365354330709
20
-1.9051312598425196
11
3.0977237795275592
21
-1.8982666929133858
0
LINE
8
BLACK
6
CONTINUOUS
10
3.0977237795275592
20
-1.8982666929133858
11
3.0998714960629918
21
-1.8916567322834645
0
LINE
8
BLACK
6
CONTINUOUS
10
3.0998714960629918
20
-1.8916567322834645
11
3.1030267716535431
21
-1.8854641338582676
0
LINE
8
BLACK
6
CONTINUOUS
10
3.1030267716535431
20
-1.8854641338582676
11
3.107111929133858
21
-1.8798413779527559
0
LINE
8
BLACK
6
CONTINUOUS
10
3.107111929133858
20
-1.8798413779527559
11
3.1120264173228347
21
-1.8749268897637794
0
LINE
8
BLACK
6
CONTINUOUS
10
3.1120264173228347
20
-1.8749268897637794
11
3.1176491732283464
21
-1.8708417322834645
0
LINE
8
BLACK
6
CONTINUOUS
10
3.1176491732283464
20
-1.8708417322834645
11
3.1238417716535434
21
-1.8676864566929134
0
LINE
8
BLACK
6
CONTINUOUS
10
3.1238417716535434
20
-1.8676864566929134
11
3.1304517322834644
21
-1.8655387401574803
0
LINE
8
BLACK
6
CONTINUOUS
10
3.1304517322834644
20
-1.8655387401574803
11
3.1373162992125985
21
-1.8644514960629921
0
LINE
8
BLACK
6
CONTINUOUS
10
3.1373162992125985
20
-1.8644514960629921
11
3.1442663779527558
21
-1.8644514960629921
0
LINE
8
BLACK
6
CONTINUOUS
10
3.1442663779527558
20
-1.8644514960629921
11
3.1511309448818898
21
-1.8655387401574803
0
LINE
8
BLACK
6
CONTINUOUS
10
3.0984685039370077
20
-1.9119371653543307
11
3.0995106299212596
21
-1.9185169291338582
0
LINE
8
BLACK
6
CONTINUOUS
10
3.0995106299212596
20
-1.9185169291338582
11
3.1015692519685039
21
-1.9248526377952755
0
LINE
8
BLACK
6
CONTINUOUS
10
3.1015692519685039
20
-1.9248526377952755
11
3.1045936220472439
21
-1.9307883070866141
0
LINE
8
BLACK
6
CONTINUOUS
10
3.1045936220472439
20
-1.9307883070866141
11
3.1085092913385828
21
-1.9361777559055118
0
LINE
8
BLACK
6
CONTINUOUS
10
3.1085092913385828
20
-1.9361777559055118
11
3.1132198818897638
21
-1.9408883464566928
0
LINE
8
BLACK
6
CONTINUOUS
10
3.1132198818897638
20
-1.9408883464566928
11
3.1186093307086615
21
-1.9448040157480315
0
LINE
8
BLACK
6
CONTINUOUS
10
3.1186093307086615
20
-1.9448040157480315
11
3.1245449999999999
21
-1.9478283858267715
0
LINE
8
BLACK
6
CONTINUOUS
10
3.1245449999999999
20
-1.9478283858267715
11
3.1308807086614174
21
-1.9498870078740158
0
LINE
8
BLACK
6
CONTINUOUS
10
3.1308807086614174
20
-1.9498870078740158
11
3.1374604724409449
21
-1.9509291338582677
0
LINE
8
BLACK
6
CONTINUOUS
10
3.1374604724409449
20
-1.9509291338582677
11
3.1441222047244093
21
-1.9509291338582677
0
LINE
8
BLACK
6
CONTINUOUS
10
3.1441222047244093
20
-1.9509291338582677
11
3.1507019685039368
21
-1.9498870078740158
0
LINE
8
BLACK
6
CONTINUOUS
10
3.1507019685039368
20
-1.9498870078740158
11
3.1570376771653543
21
-1.9478283858267715
0
LINE
8
BLACK
6
CONTINUOUS
10
3.1570376771653543
20
-1.9478283858267715
11
3.1629733464566927
21
-1.9448040157480315
0
LINE
8
BLACK
6
CONTINUOUS
10
3.1629733464566927
20
-1.9448040157480315
11
3.1683627952755904
21
-1.9408883464566928
0
LINE
8
BLACK
6
CONTINUOUS
10
3.1683627952755904
20
-1.9408883464566928
11
3.1730733858267715
21
-1.9361777559055118
0
LINE
8
BLACK
6
CONTINUOUS
10
3.1730733858267715
20
-1.9361777559055118
11
3.1769890551181104
21
-1.9307883070866141
0
LINE
8
BLACK
6
CONTINUOUS
10
3.1769890551181104
20
-1.9307883070866141
11
3.1800134251968504
21
-1.9248526377952755
0
LINE
8
BLACK
6
CONTINUOUS
10
3.1800134251968504
20
-1.9248526377952755
11
3.1820720472440942
21
-1.9185169291338582
0
LINE
8
BLACK
6
CONTINUOUS
10
3.1820720472440942
20
-1.9185169291338582
11
3.1831141732283466
21
-1.9119371653543307
0
LINE
8
BLACK
6
CONTINUOUS
10
3.1831141732283466
20
-1.9119371653543307
11
3.1831141732283466
21
-1.9052754330708661
0
LINE
8
BLACK
6
CONTINUOUS
10
3.1831141732283466
20
-1.9052754330708661
11
3.1820720472440942
21
-1.8986956692913386
0
LINE
8
BLACK
6
CONTINUOUS
10
3.1820720472440942
20
-1.8986956692913386
11
3.1800134251968504
21
-1.8923599606299213
0
LINE
8
BLACK
6
CONTINUOUS
10
3.1800134251968504
20
-1.8923599606299213
11
3.1769890551181104
21
-1.8864242913385827
0
LINE
8
BLACK
6
CONTINUOUS
10
3.1769890551181104
20
-1.8864242913385827
11
3.1730733858267715
21
-1.881034842519685
0
LINE
8
BLACK
6
CONTINUOUS
10
3.1730733858267715
20
-1.881034842519685
11
3.1683627952755904
21
-1.8763242519685039
0
LINE
8
BLACK
6
CONTINUOUS
10
3.1683627952755904
20
-1.8763242519685039
11
3.1629733464566927
21
-1.8724085826771653
0
LINE
8
BLACK
6
CONTINUOUS
10
3.1629733464566927
20
-1.8724085826771653
11
3.1570376771653543
21
-1.8693842125984252
0
LINE
8
BLACK
6
CONTINUOUS
10
3.1570376771653543
20
-1.8693842125984252
11
3.1507019685039368
21
-1.867325590551181
0
LINE
8
BLACK
6
CONTINUOUS
10
3.1507019685039368
20
-1.867325590551181
11
3.1441222047244093
21
-1.8662834645669291
0
LINE
8
BLACK
6
CONTINUOUS
10
3.1441222047244093
20
-1.8662834645669291
11
3.1374604724409449
21
-1.8662834645669291
0
LINE
8
BLACK
6
CONTINUOUS
10
3.1374604724409449
20
-1.8662834645669291
11
3.1308807086614174
21
-1.867325590551181
0
LINE
8
BLACK
6
CONTINUOUS
10
3.1308807086614174
20
-1.867325590551181
11
3.1245449999999999
21
-1.8693842125984252
0
LINE
8
BLACK
6
CONTINUOUS
10
3.1245449999999999
20
-1.8693842125984252
11
3.1186093307086615
21
-1.8724085826771653
0
LINE
8
BLACK
6
CONTINUOUS
10
3.1186093307086615
20
-1.8724085826771653
11
3.1132198818897638
21
-1.8763242519685039
0
LINE
8
BLACK
6
CONTINUOUS
10
3.1132198818897638
20
-1.8763242519685039
11
3.1085092913385828
21
-1.881034842519685
0
LINE
8
BLACK
6
CONTINUOUS
10
3.1085092913385828
20
-1.881034842519685
11
3.1045936220472439
21
-1.8864242913385827
0
LINE
8
BLACK
6
CONTINUOUS
10
3.1045936220472439
20
-1.8864242913385827
11
3.1015692519685039
21
-1.8923599606299213
0
LINE
8
BLACK
6
CONTINUOUS
10
3.1015692519685039
20
-1.8923599606299213
11
3.0995106299212596
21
-1.8986956692913386
0
LINE
8
BLACK
6
CONTINUOUS
10
3.0995106299212596
20
-1.8986956692913386
11
3.0984685039370077
21
-1.9052754330708661
0
LINE
8
BLACK
6
CONTINUOUS
10
3.0984685039370077
20
-1.9052754330708661
11
3.0984685039370077
21
-1.9119371653543307
0
LINE
8
BLACK
6
CONTINUOUS
10
6.5950285826771653
20
-1.6243970078740158
11
6.6016385433070868
21
-1.6265447244094489
0
LINE
8
BLACK
6
CONTINUOUS
10
6.6016385433070868
20
-1.6265447244094489
11
6.6078311417322837
21
-1.6296999999999999
0
LINE
8
BLACK
6
CONTINUOUS
10
6.6078311417322837
20
-1.6296999999999999
11
6.613453897637795
21
-1.6337851574803148
0
LINE
8
BLACK
6
CONTINUOUS
10
6.613453897637795
20
-1.6337851574803148
11
6.6183683858267717
21
-1.6386996456692913
0
LINE
8
BLACK
6
CONTINUOUS
10
6.6183683858267717
20
-1.6386996456692913
11
6.6224535433070866
21
-1.644322401574803
0
LINE
8
BLACK
6
CONTINUOUS
10
6.6224535433070866
20
-1.644322401574803
11
6.6256088188976374
21
-1.650515
0
LINE
8
BLACK
6
CONTINUOUS
10
6.6256088188976374
20
-1.650515
11
6.627756535433071
21
-1.6571249606299212
0
LINE
8
BLACK
6
CONTINUOUS
10
6.627756535433071
20
-1.6571249606299212
11
6.6288437795275588
21
-1.663989527559055
0
LINE
8
BLACK
6
CONTINUOUS
10
6.6288437795275588
20
-1.663989527559055
11
6.6288437795275588
21
-1.6709396062992126
0
LINE
8
BLACK
6
CONTINUOUS
10
6.6288437795275588
20
-1.6709396062992126
11
6.627756535433071
21
-1.6778041732283464
0
LINE
8
BLACK
6
CONTINUOUS
10
6.627756535433071
20
-1.6778041732283464
11
6.6256088188976374
21
-1.6844141338582677
0
LINE
8
BLACK
6
CONTINUOUS
10
6.6256088188976374
20
-1.6844141338582677
11
6.6224535433070866
21
-1.6906067322834646
0
LINE
8
BLACK
6
CONTINUOUS
10
6.6224535433070866
20
-1.6906067322834646
11
6.6183683858267717
21
-1.6962294881889763
0
LINE
8
BLACK
6
CONTINUOUS
10
6.6183683858267717
20
-1.6962294881889763
11
6.613453897637795
21
-1.7011439763779528
0
LINE
8
BLACK
6
CONTINUOUS
10
6.613453897637795
20
-1.7011439763779528
11
6.6078311417322837
21
-1.7052291338582677
0
LINE
8
BLACK
6
CONTINUOUS
10
6.6078311417322837
20
-1.7052291338582677
11
6.6016385433070868
21
-1.7083844094488188
0
LINE
8
BLACK
6
CONTINUOUS
10
6.6016385433070868
20
-1.7083844094488188
11
6.5950285826771653
21
-1.7105321259842519
0
LINE
8
BLACK
6
CONTINUOUS
10
6.5950285826771653
20
-1.7105321259842519
11
6.5881640157480312
21
-1.7116193700787401
0
LINE
8
BLACK
6
CONTINUOUS
10
6.5881640157480312
20
-1.7116193700787401
11
6.5812139370078739
21
-1.7116193700787401
0
LINE
8
BLACK
6
CONTINUOUS
10
6.5812139370078739
20
-1.7116193700787401
11
6.5743493700787399
21
-1.7105321259842519
0
LINE
8
BLACK
6
CONTINUOUS
10
6.5743493700787399
20
-1.7105321259842519
11
6.5677394094488184
21
-1.7083844094488188
0
LINE
8
BLACK
6
CONTINUOUS
10
6.5677394094488184
20
-1.7083844094488188
11
6.5615468110236215
21
-1.7052291338582677
0
LINE
8
BLACK
6
CONTINUOUS
10
6.5615468110236215
20
-1.7052291338582677
11
6.5559240551181102
21
-1.7011439763779528
0
LINE
8
BLACK
6
CONTINUOUS
10
6.5559240551181102
20
-1.7011439763779528
11
6.5510095669291335
21
-1.6962294881889763
0
LINE
8
BLACK
6
CONTINUOUS
10
6.5510095669291335
20
-1.6962294881889763
11
6.5469244094488186
21
-1.6906067322834646
0
LINE
8
BLACK
6
CONTINUOUS
10
6.5469244094488186
20
-1.6906067322834646
11
6.5437691338582678
21
-1.6844141338582677
0
LINE
8
BLACK
6
CONTINUOUS
10
6.5437691338582678
20
-1.6844141338582677
11
6.5416214173228342
21
-1.6778041732283464
0
LINE
8
BLACK
6
CONTINUOUS
10
6.5416214173228342
20
-1.6778041732283464
11
6.5405341732283464
21
-1.6709396062992126
0
LINE
8
BLACK
6
CONTINUOUS
10
6.5405341732283464
20
-1.6709396062992126
11
6.5405341732283464
21
-1.6641337007874015
0
LINE
8
BLACK
6
CONTINUOUS
10
6.5405341732283464
20
-1.6641337007874015
11
6.5405341732283464
21
-1.663989527559055
0
LINE
8
BLACK
6
CONTINUOUS
10
6.5405341732283464
20
-1.663989527559055
11
6.5416214173228342
21
-1.6571249606299212
0
LINE
8
BLACK
6
CONTINUOUS
10
6.5416214173228342
20
-1.6571249606299212
11
6.5437691338582678
21
-1.650515
0
LINE
8
BLACK
6
CONTINUOUS
10
6.5437691338582678
20
-1.650515
11
6.5469244094488186
21
-1.644322401574803
0
LINE
8
BLACK
6
CONTINUOUS
10
6.5469244094488186
20
-1.644322401574803
11
6.5510095669291335
21
-1.6386996456692913
0
LINE
8
BLACK
6
CONTINUOUS
10
6.5510095669291335
20
-1.6386996456692913
11
6.5559240551181102
21
-1.6337851574803148
0
LINE
8
BLACK
6
CONTINUOUS
10
6.5559240551181102
20
-1.6337851574803148
11
6.5615468110236215
21
-1.6296999999999999
0
LINE
8
BLACK
6
CONTINUOUS
10
6.5615468110236215
20
-1.6296999999999999
11
6.5677394094488184
21
-1.6265447244094489
0
LINE
8
BLACK
6
CONTINUOUS
10
6.5677394094488184
20
-1.6265447244094489
11
6.5743493700787399
21
-1.6243970078740158
0
LINE
8
BLACK
6
CONTINUOUS
10
6.5743493700787399
20
-1.6243970078740158
11
6.5812139370078739
21
-1.6233097637795275
0
LINE
8
BLACK
6
CONTINUOUS
10
6.5812139370078739
20
-1.6233097637795275
11
6.5881640157480312
21
-1.6233097637795275
0
LINE
8
BLACK
6
CONTINUOUS
10
6.5881640157480312
20
-1.6233097637795275
11
6.5950285826771653
21
-1.6243970078740158
0
LINE
8
BLACK
6
CONTINUOUS
10
6.5423661417322831
20
-1.6707954330708661
11
6.5434082677165355
21
-1.6773751968503936
0
LINE
8
BLACK
6
CONTINUOUS
10
6.5434082677165355
20
-1.6773751968503936
11
6.5454668897637793
21
-1.6837109055118109
0
LINE
8
BLACK
6
CONTINUOUS
10
6.5454668897637793
20
-1.6837109055118109
11
6.5484912598425193
21
-1.6896465748031495
0
LINE
8
BLACK
6
CONTINUOUS
10
6.5484912598425193
20
-1.6896465748031495
11
6.5524069291338582
21
-1.6950360236220472
0
LINE
8
BLACK
6
CONTINUOUS
10
6.5524069291338582
20
-1.6950360236220472
11
6.5571175196850389
21
-1.6997466141732283
0
LINE
8
BLACK
6
CONTINUOUS
10
6.5571175196850389
20
-1.6997466141732283
11
6.5625069685039366
21
-1.7036622834645669
0
LINE
8
BLACK
6
CONTINUOUS
10
6.5625069685039366
20
-1.7036622834645669
11
6.5684426377952754
21
-1.706686653543307
0
LINE
8
BLACK
6
CONTINUOUS
10
6.5684426377952754
20
-1.706686653543307
11
6.5747783464566929
21
-1.7087452755905512
0
LINE
8
BLACK
6
CONTINUOUS
10
6.5747783464566929
20
-1.7087452755905512
11
6.58135811023622
21
-1.7097874015748031
0
LINE
8
BLACK
6
CONTINUOUS
10
6.58135811023622
20
-1.7097874015748031
11
6.5880198425196852
21
-1.7097874015748031
0
LINE
8
BLACK
6
CONTINUOUS
10
6.5880198425196852
20
-1.7097874015748031
11
6.5945996062992123
21
-1.7087452755905512
0
LINE
8
BLACK
6
CONTINUOUS
10
6.5945996062992123
20
-1.7087452755905512
11
6.6009353149606298
21
-1.706686653543307
0
LINE
8
BLACK
6
CONTINUOUS
10
6.6009353149606298
20
-1.706686653543307
11
6.6068709842519686
21
-1.7036622834645669
0
LINE
8
BLACK
6
CONTINUOUS
10
6.6068709842519686
20
-1.7036622834645669
11
6.6122604330708663
21
-1.6997466141732283
0
LINE
8
BLACK
6
CONTINUOUS
10
6.6122604330708663
20
-1.6997466141732283
11
6.6169710236220469
21
-1.6950360236220472
0
LINE
8
BLACK
6
CONTINUOUS
10
6.6169710236220469
20
-1.6950360236220472
11
6.6208866929133858
21
-1.6896465748031495
0
LINE
8
BLACK
6
CONTINUOUS
10
6.6208866929133858
20
-1.6896465748031495
11
6.6239110629921258
21
-1.6837109055118109
0
LINE
8
BLACK
6
CONTINUOUS
10
6.6239110629921258
20
-1.6837109055118109
11
6.6259696850393697
21
-1.6773751968503936
0
LINE
8
BLACK
6
CONTINUOUS
10
6.6259696850393697
20
-1.6773751968503936
11
6.627011811023622
21
-1.6707954330708661
0
LINE
8
BLACK
6
CONTINUOUS
10
6.627011811023622
20
-1.6707954330708661
11
6.627011811023622
21
-1.6641337007874015
0
LINE
8
BLACK
6
CONTINUOUS
10
6.627011811023622
20
-1.6641337007874015
11
6.6259696850393697
21
-1.657553937007874
0
LINE
8
BLACK
6
CONTINUOUS
10
6.6259696850393697
20
-1.657553937007874
11
6.6239110629921258
21
-1.6512182283464567
0
LINE
8
BLACK
6
CONTINUOUS
10
6.6239110629921258
20
-1.6512182283464567
11
6.6208866929133858
21
-1.6452825590551181
0
LINE
8
BLACK
6
CONTINUOUS
10
6.6208866929133858
20
-1.6452825590551181
11
6.6169710236220469
21
-1.6398931102362204
0
LINE
8
BLACK
6
CONTINUOUS
10
6.6169710236220469
20
-1.6398931102362204
11
6.6122604330708663
21
-1.6351825196850394
0
LINE
8
BLACK
6
CONTINUOUS
10
6.6122604330708663
20
-1.6351825196850394
11
6.6068709842519686
21
-1.6312668503937007
0
LINE
8
BLACK
6
CONTINUOUS
10
6.6068709842519686
20
-1.6312668503937007
11
6.6009353149606298
21
-1.6282424803149607
0
LINE
8
BLACK
6
CONTINUOUS
10
6.6009353149606298
20
-1.6282424803149607
11
6.5945996062992123
21
-1.6261838582677166
0
LINE
8
BLACK
6
CONTINUOUS
10
6.5945996062992123
20
-1.6261838582677166
11
6.5880198425196852
21
-1.6251417322834645
0
LINE
8
BLACK
6
CONTINUOUS
10
6.5880198425196852
20
-1.6251417322834645
11
6.58135811023622
21
-1.6251417322834645
0
LINE
8
BLACK
6
CONTINUOUS
10
6.58135811023622
20
-1.6251417322834645
11
6.5747783464566929
21
-1.6261838582677166
0
LINE
8
BLACK
6
CONTINUOUS
10
6.5747783464566929
20
-1.6261838582677166
11
6.5684426377952754
21
-1.6282424803149607
0
LINE
8
BLACK
6
CONTINUOUS
10
6.5684426377952754
20
-1.6282424803149607
11
6.5625069685039366
21
-1.6312668503937007
0
LINE
8
BLACK
6
CONTINUOUS
10
6.5625069685039366
20
-1.6312668503937007
11
6.5571175196850389
21
-1.6351825196850394
0
LINE
8
BLACK
6
CONTINUOUS
10
6.5571175196850389
20
-1.6351825196850394
11
6.5524069291338582
21
-1.6398931102362204
0
LINE
8
BLACK
6
CONTINUOUS
10
6.5524069291338582
20
-1.6398931102362204
11
6.5484912598425193
21
-1.6452825590551181
0
LINE
8
BLACK
6
CONTINUOUS
10
6.5484912598425193
20
-1.6452825590551181
11
6.5454668897637793
21
-1.6512182283464567
0
LINE
8
BLACK
6
CONTINUOUS
10
6.5454668897637793
20
-1.6512182283464567
11
6.5434082677165355
21
-1.657553937007874
0
LINE
8
BLACK
6
CONTINUOUS
10
6.5434082677165355
20
-1.657553937007874
11
6.5423661417322831
21
-1.6641337007874015
0
LINE
8
BLACK
6
CONTINUOUS
10
6.5423661417322831
20
-1.6641337007874015
11
6.5423661417322831
21
-1.6707954330708661
0
LINE
8
BLACK
6
CONTINUOUS
10
7.03744531496063
20
-0.8013229133858267
11
7.0422632283464566
21
-0.8018657874015748
0
LINE
8
BLACK
6
CONTINUOUS
10
7.0422632283464566
20
-0.8018657874015748
11
7.0468399999999995
21
-0.8034672440944882
0
LINE
8
BLACK
6
CONTINUOUS
10
7.0468399999999995
20
-0.8034672440944882
11
7.0509456299212596
21
-0.806046968503937
0
LINE
8
BLACK
6
CONTINUOUS
10
7.0509456299212596
20
-0.806046968503937
11
7.0543742913385827
21
-0.8094756299212599
0
LINE
8
BLACK
6
CONTINUOUS
10
7.0543742913385827
20
-0.8094756299212599
11
7.0569540157480315
21
-0.8135812598425197
0
LINE
8
BLACK
6
CONTINUOUS
10
7.0569540157480315
20
-0.8135812598425197
11
7.0585554724409443
21
-0.8181580314960629
0
LINE
8
BLACK
6
CONTINUOUS
10
7.0585554724409443
20
-0.8181580314960629
11
7.0590983070866145
21
-0.822975905511811
0
LINE
8
BLACK
6
CONTINUOUS
10
7.0590983070866145
20
-0.822975905511811
11
7.0590984251968498
21
-0.8229763779527559
0
LINE
8
BLACK
6
CONTINUOUS
10
7.0590984251968498
20
-0.8229763779527559
11
7.0590984645669286
21
-1.8023070472440945
0
LINE
8
BLACK
6
CONTINUOUS
10
7.0590984645669286
20
-1.8023070472440945
11
7.0590984251968498
21
-1.8023072440944881
0
LINE
8
BLACK
6
CONTINUOUS
10
7.0590984251968498
20
-1.8023072440944881
11
7.0590984251968498
21
-1.8047690551181101
0
LINE
8
BLACK
6
CONTINUOUS
10
7.0590984251968498
20
-1.8047690551181101
11
7.0603728346456691
21
-1.8095253149606298
0
LINE
8
BLACK
6
CONTINUOUS
10
7.0603728346456691
20
-1.8095253149606298
11
7.0628348425196847
21
-1.8137896456692912
0
LINE
8
BLACK
6
CONTINUOUS
10
7.0628348425196847
20
-1.8137896456692912
11
7.0663166535433071
21
-1.8172714566929133
0
LINE
8
BLACK
6
CONTINUOUS
10
7.0663166535433071
20
-1.8172714566929133
11
7.0705809842519685
21
-1.8197334645669292
0
LINE
8
BLACK
6
CONTINUOUS
10
7.0705809842519685
20
-1.8197334645669292
11
7.0753372047244092
21
-1.821007874015748
0
LINE
8
BLACK
6
CONTINUOUS
10
7.0753372047244092
20
-1.821007874015748
11
7.0777992125984248
21
-1.821007874015748
0
LINE
8
BLACK
6
CONTINUOUS
10
7.0777992125984248
20
-1.821007874015748
11
7.5502401574803146
21
-1.821007874015748
0
LINE
8
BLACK
6
CONTINUOUS
10
7.5502401574803146
20
-1.821007874015748
11
7.5548394881889758
21
-1.8215261023622047
0
LINE
8
BLACK
6
CONTINUOUS
10
7.5548394881889758
20
-1.8215261023622047
11
7.5592082283464563
21
-1.8230547637795276
0
LINE
8
BLACK
6
CONTINUOUS
10
7.5592082283464563
20
-1.8230547637795276
11
7.5631272440944883
21
-1.8255172440944882
0
LINE
8
BLACK
6
CONTINUOUS
10
7.5631272440944883
20
-1.8255172440944882
11
7.5664000787401573
21
-1.8287900787401574
0
LINE
8
BLACK
6
CONTINUOUS
10
7.5664000787401573
20
-1.8287900787401574
11
7.568862559055118
21
-1.832709094488189
0
LINE
8
BLACK
6
CONTINUOUS
10
7.568862559055118
20
-1.832709094488189
11
7.5703912204724411
21
-1.8370778346456693
0
LINE
8
BLACK
6
CONTINUOUS
10
7.5703912204724411
20
-1.8370778346456693
11
7.570909448818897
21
-1.8416771653543307
0
LINE
8
BLACK
6
CONTINUOUS
10
7.570909448818897
20
-1.8416771653543307
11
7.570909448818897
21
-4.6999448818897633
0
LINE
8
BLACK
6
CONTINUOUS
10
7.570909448818897
20
-4.6999448818897633
11
7.5703912204724411
21
-4.7045442125984254
0
LINE
8
BLACK
6
CONTINUOUS
10
7.5703912204724411
20
-4.7045442125984254
11
7.568862559055118
21
-4.708912952755905
0
LINE
8
BLACK
6
CONTINUOUS
10
7.568862559055118
20
-4.708912952755905
11
7.5664000787401573
21
-4.712831968503937
0
LINE
8
BLACK
6
CONTINUOUS
10
7.5664000787401573
20
-4.712831968503937
11
7.5631272440944883
21
-4.716104803149606
0
LINE
8
BLACK
6
CONTINUOUS
10
7.5631272440944883
20
-4.716104803149606
11
7.5592082283464563
21
-4.7185672834645667
0
LINE
8
BLACK
6
CONTINUOUS
10
7.5592082283464563
20
-4.7185672834645667
11
7.5548394881889758
21
-4.7200959448818898
0
LINE
8
BLACK
6
CONTINUOUS
10
7.5548394881889758
20
-4.7200959448818898
11
7.5502401574803146
21
-4.7206141732283466
0
LINE
8
BLACK
6
CONTINUOUS
10
7.5502401574803146
20
-4.7206141732283466
11
7.5502401574803146
21
-4.7206142125984254
0
LINE
8
BLACK
6
CONTINUOUS
10
7.5502401574803146
20
-4.7206142125984254
11
7.5502400393700784
21
-4.7206141732283466
0
LINE
8
BLACK
6
CONTINUOUS
10
7.5502400393700784
20
-4.7206141732283466
11
2.7667755905511808
21
-4.7206141732283466
0
LINE
8
BLACK
6
CONTINUOUS
10
2.7667755905511808
20
-4.7206141732283466
11
2.7621762598425197
21
-4.7200959448818898
0
LINE
8
BLACK
6
CONTINUOUS
10
2.7621762598425197
20
-4.7200959448818898
11
2.7578075196850391
21
-4.7185672834645667
0
LINE
8
BLACK
6
CONTINUOUS
10
2.7578075196850391
20
-4.7185672834645667
11
2.753888503937008
21
-4.716104803149606
0
LINE
8
BLACK
6
CONTINUOUS
10
2.753888503937008
20
-4.716104803149606
11
2.7506156692913386
21
-4.712831968503937
0
LINE
8
BLACK
6
CONTINUOUS
10
2.7506156692913386
20
-4.712831968503937
11
2.7481531889763779
21
-4.708912952755905
0
LINE
8
BLACK
6
CONTINUOUS
10
2.7481531889763779
20
-4.708912952755905
11
2.7466245275590548
21
-4.7045442125984254
0
LINE
8
BLACK
6
CONTINUOUS
10
2.7466245275590548
20
-4.7045442125984254
11
2.7461062992125984
21
-4.6999448818897633
0
LINE
8
BLACK
6
CONTINUOUS
10
2.7461062992125984
20
-4.6999448818897633
11
2.7461062992125984
21
-0.821992125984252
0
LINE
8
BLACK
6
CONTINUOUS
10
2.7461062992125984
20
-0.821992125984252
11
2.7461067322834647
21
-0.821989842519685
0
LINE
8
BLACK
6
CONTINUOUS
10
2.7461067322834647
20
-0.821989842519685
11
2.7466247244094486
21
-0.8173928346456693
0
LINE
8
BLACK
6
CONTINUOUS
10
2.7466247244094486
20
-0.8173928346456693
11
2.748153346456693
21
-0.8130242125984252
0
LINE
8
BLACK
6
CONTINUOUS
10
2.748153346456693
20
-0.8130242125984252
11
2.7506157874015749
21
-0.8091052362204724
0
LINE
8
BLACK
6
CONTINUOUS
10
2.7506157874015749
20
-0.8091052362204724
11
2.7538885433070868
21
-0.8058324409448818
0
LINE
8
BLACK
6
CONTINUOUS
10
2.7538885433070868
20
-0.8058324409448818
11
2.7578074803149604
21
-0.8033699606299213
0
LINE
8
BLACK
6
CONTINUOUS
10
2.7578074803149604
20
-0.8033699606299213
11
2.7621761023622047
21
-0.8018412992125984
0
LINE
8
BLACK
6
CONTINUOUS
10
2.7621761023622047
20
-0.8018412992125984
11
2.7667731102362203
21
-0.8013232677165354
0
LINE
8
BLACK
6
CONTINUOUS
10
2.7667731102362203
20
-0.8013232677165354
11
2.7667753937007875
21
-0.8013228346456692
0
LINE
8
BLACK
6
CONTINUOUS
10
2.7667753937007875
20
-0.8013228346456692
11
7.0374448818897637
21
-0.8013228346456692
0
LINE
8
BLACK
6
CONTINUOUS
10
7.0374448818897637
20
-0.8013228346456692
11
7.03744531496063
21
-0.8013229133858267
0
LINE
8
BLACK
6
CONTINUOUS
10
2.7667753937007875
20
-0.8032913385826771
11
2.7667753937007875
21
-0.8032915354330709
0
LINE
8
BLACK
6
CONTINUOUS
10
2.7667753937007875
20
-0.8032915354330709
11
2.7643134251968502
21
-0.8032915354330709
0
LINE
8
BLACK
6
CONTINUOUS
10
2.7643134251968502
20
-0.8032915354330709
11
2.759557283464567
21
-0.8045659842519685
0
LINE
8
BLACK
6
CONTINUOUS
10
2.759557283464567
20
-0.8045659842519685
11
2.7552930708661418
21
-0.8070279921259842
0
LINE
8
BLACK
6
CONTINUOUS
10
2.7552930708661418
20
-0.8070279921259842
11
2.751811338582677
21
-0.8105097637795275
0
LINE
8
BLACK
6
CONTINUOUS
10
2.751811338582677
20
-0.8105097637795275
11
2.7493493700787401
21
-0.8147740157480314
0
LINE
8
BLACK
6
CONTINUOUS
10
2.7493493700787401
20
-0.8147740157480314
11
2.748075
21
-0.819530157480315
0
LINE
8
BLACK
6
CONTINUOUS
10
2.748075
20
-0.819530157480315
11
2.748075
21
-0.821992125984252
0
LINE
8
BLACK
6
CONTINUOUS
10
2.748075
20
-0.821992125984252
11
2.7480748031496063
21
-0.821992716535433
0
LINE
8
BLACK
6
CONTINUOUS
10
2.7480748031496063
20
-0.821992716535433
11
2.7480748031496063
21
-4.6999448818897633
0
LINE
8
BLACK
6
CONTINUOUS
10
2.7480748031496063
20
-4.6999448818897633
11
2.7480748031496063
21
-4.7024068897637799
0
LINE
8
BLACK
6
CONTINUOUS
10
2.7480748031496063
20
-4.7024068897637799
11
2.7493492125984251
21
-4.7071631102362206
0
LINE
8
BLACK
6
CONTINUOUS
10
2.7493492125984251
20
-4.7071631102362206
11
2.7518112204724408
21
-4.711427440944882
0
LINE
8
BLACK
6
CONTINUOUS
10
2.7518112204724408
20
-4.711427440944882
11
2.7552930314960631
21
-4.7149092519685034
0
LINE
8
BLACK
6
CONTINUOUS
10
2.7552930314960631
20
-4.7149092519685034
11
2.7595573622047245
21
-4.7173712598425199
0
LINE
8
BLACK
6
CONTINUOUS
10
2.7595573622047245
20
-4.7173712598425199
11
2.7643135826771652
21
-4.7186456692913383
0
LINE
8
BLACK
6
CONTINUOUS
10
2.7643135826771652
20
-4.7186456692913383
11
2.7667755905511808
21
-4.7186456692913383
0
LINE
8
BLACK
6
CONTINUOUS
10
2.7667755905511808
20
-4.7186456692913383
11
7.5502401574803146
21
-4.7186456692913383
0
LINE
8
BLACK
6
CONTINUOUS
10
7.5502401574803146
20
-4.7186456692913383
11
7.5527021653543303
21
-4.7186456692913383
0
LINE
8
BLACK
6
CONTINUOUS
10
7.5527021653543303
20
-4.7186456692913383
11
7.5574583858267719
21
-4.7173712598425199
0
LINE
8
BLACK
6
CONTINUOUS
10
7.5574583858267719
20
-4.7173712598425199
11
7.5617227165354333
21
-4.7149092519685034
0
LINE
8
BLACK
6
CONTINUOUS
10
7.5617227165354333
20
-4.7149092519685034
11
7.5652045275590547
21
-4.711427440944882
0
LINE
8
BLACK
6
CONTINUOUS
10
7.5652045275590547
20
-4.711427440944882
11
7.5676665354330703
21
-4.7071631102362206
0
LINE
8
BLACK
6
CONTINUOUS
10
7.5676665354330703
20
-4.7071631102362206
11
7.5689409448818896
21
-4.7024068897637799
0
LINE
8
BLACK
6
CONTINUOUS
10
7.5689409448818896
20
-4.7024068897637799
11
7.5689409448818896
21
-4.6999448818897633
0
LINE
8
BLACK
6
CONTINUOUS
10
7.5689409448818896
20
-4.6999448818897633
11
7.5689409448818896
21
-1.8416771653543307
0
LINE
8
BLACK
6
CONTINUOUS
10
7.5689409448818896
20
-1.8416771653543307
11
7.5689409448818896
21
-1.8392151574803148
0
LINE
8
BLACK
6
CONTINUOUS
10
7.5689409448818896
20
-1.8392151574803148
11
7.5676665354330703
21
-1.8344589370078739
0
LINE
8
BLACK
6
CONTINUOUS
10
7.5676665354330703
20
-1.8344589370078739
11
7.5652045275590547
21
-1.8301946062992125
0
LINE
8
BLACK
6
CONTINUOUS
10
7.5652045275590547
20
-1.8301946062992125
11
7.5617227165354333
21
-1.8267127952755906
0
LINE
8
BLACK
6
CONTINUOUS
10
7.5617227165354333
20
-1.8267127952755906
11
7.5574583858267719
21
-1.8242507874015748
0
LINE
8
BLACK
6
CONTINUOUS
10
7.5574583858267719
20
-1.8242507874015748
11
7.5527021653543303
21
-1.8229763779527559
0
LINE
8
BLACK
6
CONTINUOUS
10
7.5527021653543303
20
-1.8229763779527559
11
7.5502401574803146
21
-1.8229763779527559
0
LINE
8
BLACK
6
CONTINUOUS
10
7.5502401574803146
20
-1.8229763779527559
11
7.0777992125984248
21
-1.8229763779527559
0
LINE
8
BLACK
6
CONTINUOUS
10
7.0777992125984248
20
-1.8229763779527559
11
7.0731998425196849
21
-1.8224581496062993
0
LINE
8
BLACK
6
CONTINUOUS
10
7.0731998425196849
20
-1.8224581496062993
11
7.0688311417322831
21
-1.8209294881889764
0
LINE
8
BLACK
6
CONTINUOUS
10
7.0688311417322831
20
-1.8209294881889764
11
7.064912125984252
21
-1.818466968503937
0
LINE
8
BLACK
6
CONTINUOUS
10
7.064912125984252
20
-1.818466968503937
11
7.0616392913385821
21
-1.8151941732283463
0
LINE
8
BLACK
6
CONTINUOUS
10
7.0616392913385821
20
-1.8151941732283463
11
7.0591768110236215
21
-1.8112751181102362
0
LINE
8
BLACK
6
CONTINUOUS
10
7.0591768110236215
20
-1.8112751181102362
11
7.0576481496062993
21
-1.8069064173228346
0
LINE
8
BLACK
6
CONTINUOUS
10
7.0576481496062993
20
-1.8069064173228346
11
7.0571299212598424
21
-1.8023070472440945
0
LINE
8
BLACK
6
CONTINUOUS
10
7.0571299212598424
20
-1.8023070472440945
11
7.0571298818897636
21
-1.8023070472440945
0
LINE
8
BLACK
6
CONTINUOUS
10
7.0571298818897636
20
-1.8023070472440945
11
7.0571299212598424
21
-1.8023067716535432
0
LINE
8
BLACK
6
CONTINUOUS
10
7.0571299212598424
20
-1.8023067716535432
11
7.0571299212598424
21
-0.8229763779527559
0
LINE
8
BLACK
6
CONTINUOUS
10
7.0571299212598424
20
-0.8229763779527559
11
7.0571298818897636
21
-0.8229763779527559
0
LINE
8
BLACK
6
CONTINUOUS
10
7.0571298818897636
20
-0.8229763779527559
11
7.0571298818897636
21
-0.8207584251968504
0
LINE
8
BLACK
6
CONTINUOUS
10
7.0571298818897636
20
-0.8207584251968504
11
7.0561427952755906
21
-0.8164337007874015
0
LINE
8
BLACK
6
CONTINUOUS
10
7.0561427952755906
20
-0.8164337007874015
11
7.0542181102362207
21
-0.8124370472440945
0
LINE
8
BLACK
6
CONTINUOUS
10
7.0542181102362207
20
-0.8124370472440945
11
7.0514523622047243
21
-0.8089688976377952
0
LINE
8
BLACK
6
CONTINUOUS
10
7.0514523622047243
20
-0.8089688976377952
11
7.0479842125984247
21
-0.8062031496062992
0
LINE
8
BLACK
6
CONTINUOUS
10
7.0479842125984247
20
-0.8062031496062992
11
7.0439875590551182
21
-0.8042784645669291
0
LINE
8
BLACK
6
CONTINUOUS
10
7.0439875590551182
20
-0.8042784645669291
11
7.0396628346456689
21
-0.8032913779527558
0
LINE
8
BLACK
6
CONTINUOUS
10
7.0396628346456689
20
-0.8032913779527558
11
7.0374448818897637
21
-0.8032913779527558
0
LINE
8
BLACK
6
CONTINUOUS
10
7.0374448818897637
20
-0.8032913779527558
11
7.0374447637795274
21
-0.8032913385826771
0
LINE
8
BLACK
6
CONTINUOUS
10
7.0374447637795274
20
-0.8032913385826771
11
2.7667753937007875
21
-0.8032913385826771
  0
ENDSEC
  0
EOF
