G04*
G04 #@! TF.GenerationSoftware,Altium Limited,Altium Designer,23.0.1 (38)*
G04*
G04 Layer_Color=16711935*
%FSAX25Y25*%
%MOIN*%
G70*
G04*
G04 #@! TF.SameCoordinates,6E8D14A1-A76B-48EF-8A5D-7AFE63AE9358*
G04*
G04*
G04 #@! TF.FilePolarity,Negative*
G04*
G01*
G75*
%ADD73R,1.37008X0.23524*%
G04:AMPARAMS|DCode=77|XSize=26.62mil|YSize=26.62mil|CornerRadius=7.41mil|HoleSize=0mil|Usage=FLASHONLY|Rotation=180.000|XOffset=0mil|YOffset=0mil|HoleType=Round|Shape=RoundedRectangle|*
%AMROUNDEDRECTD77*
21,1,0.02662,0.01181,0,0,180.0*
21,1,0.01181,0.02662,0,0,180.0*
1,1,0.01481,-0.00591,0.00591*
1,1,0.01481,0.00591,0.00591*
1,1,0.01481,0.00591,-0.00591*
1,1,0.01481,-0.00591,-0.00591*
%
%ADD77ROUNDEDRECTD77*%
G04:AMPARAMS|DCode=78|XSize=26.62mil|YSize=26.62mil|CornerRadius=7.41mil|HoleSize=0mil|Usage=FLASHONLY|Rotation=270.000|XOffset=0mil|YOffset=0mil|HoleType=Round|Shape=RoundedRectangle|*
%AMROUNDEDRECTD78*
21,1,0.02662,0.01181,0,0,270.0*
21,1,0.01181,0.02662,0,0,270.0*
1,1,0.01481,-0.00591,-0.00591*
1,1,0.01481,-0.00591,0.00591*
1,1,0.01481,0.00591,0.00591*
1,1,0.01481,0.00591,-0.00591*
%
%ADD78ROUNDEDRECTD78*%
G04:AMPARAMS|DCode=79|XSize=28.2mil|YSize=28.2mil|CornerRadius=7.8mil|HoleSize=0mil|Usage=FLASHONLY|Rotation=270.000|XOffset=0mil|YOffset=0mil|HoleType=Round|Shape=RoundedRectangle|*
%AMROUNDEDRECTD79*
21,1,0.02820,0.01260,0,0,270.0*
21,1,0.01260,0.02820,0,0,270.0*
1,1,0.01560,-0.00630,-0.00630*
1,1,0.01560,-0.00630,0.00630*
1,1,0.01560,0.00630,0.00630*
1,1,0.01560,0.00630,-0.00630*
%
%ADD79ROUNDEDRECTD79*%
G04:AMPARAMS|DCode=84|XSize=42.37mil|YSize=38.43mil|CornerRadius=10.36mil|HoleSize=0mil|Usage=FLASHONLY|Rotation=90.000|XOffset=0mil|YOffset=0mil|HoleType=Round|Shape=RoundedRectangle|*
%AMROUNDEDRECTD84*
21,1,0.04237,0.01772,0,0,90.0*
21,1,0.02165,0.03843,0,0,90.0*
1,1,0.02072,0.00886,0.01083*
1,1,0.02072,0.00886,-0.01083*
1,1,0.02072,-0.00886,-0.01083*
1,1,0.02072,-0.00886,0.01083*
%
%ADD84ROUNDEDRECTD84*%
G04:AMPARAMS|DCode=86|XSize=28.2mil|YSize=28.2mil|CornerRadius=7.8mil|HoleSize=0mil|Usage=FLASHONLY|Rotation=180.000|XOffset=0mil|YOffset=0mil|HoleType=Round|Shape=RoundedRectangle|*
%AMROUNDEDRECTD86*
21,1,0.02820,0.01260,0,0,180.0*
21,1,0.01260,0.02820,0,0,180.0*
1,1,0.01560,-0.00630,0.00630*
1,1,0.01560,0.00630,0.00630*
1,1,0.01560,0.00630,-0.00630*
1,1,0.01560,-0.00630,-0.00630*
%
%ADD86ROUNDEDRECTD86*%
G04:AMPARAMS|DCode=120|XSize=16.78mil|YSize=18.75mil|CornerRadius=4.95mil|HoleSize=0mil|Usage=FLASHONLY|Rotation=0.000|XOffset=0mil|YOffset=0mil|HoleType=Round|Shape=RoundedRectangle|*
%AMROUNDEDRECTD120*
21,1,0.01678,0.00886,0,0,0.0*
21,1,0.00689,0.01875,0,0,0.0*
1,1,0.00989,0.00345,-0.00443*
1,1,0.00989,-0.00345,-0.00443*
1,1,0.00989,-0.00345,0.00443*
1,1,0.00989,0.00345,0.00443*
%
%ADD120ROUNDEDRECTD120*%
%ADD121R,0.03056X0.16835*%
%ADD122R,0.03056X0.12898*%
G04:AMPARAMS|DCode=127|XSize=19.54mil|YSize=21.11mil|CornerRadius=5.63mil|HoleSize=0mil|Usage=FLASHONLY|Rotation=0.000|XOffset=0mil|YOffset=0mil|HoleType=Round|Shape=RoundedRectangle|*
%AMROUNDEDRECTD127*
21,1,0.01954,0.00984,0,0,0.0*
21,1,0.00827,0.02111,0,0,0.0*
1,1,0.01127,0.00413,-0.00492*
1,1,0.01127,-0.00413,-0.00492*
1,1,0.01127,-0.00413,0.00492*
1,1,0.01127,0.00413,0.00492*
%
%ADD127ROUNDEDRECTD127*%
%ADD128C,0.01496*%
%ADD129O,0.29828X0.04237*%
%ADD130O,0.29434X0.04237*%
%ADD131O,0.04237X0.34749*%
%ADD132R,0.05686X0.05686*%
%ADD133C,0.05686*%
%ADD134C,0.04591*%
%ADD135R,0.04591X0.04591*%
%ADD136C,0.08174*%
G04:AMPARAMS|DCode=137|XSize=62.06mil|YSize=62.06mil|CornerRadius=16.26mil|HoleSize=0mil|Usage=FLASHONLY|Rotation=270.000|XOffset=0mil|YOffset=0mil|HoleType=Round|Shape=RoundedRectangle|*
%AMROUNDEDRECTD137*
21,1,0.06206,0.02953,0,0,270.0*
21,1,0.02953,0.06206,0,0,270.0*
1,1,0.03253,-0.01476,-0.01476*
1,1,0.03253,-0.01476,0.01476*
1,1,0.03253,0.01476,0.01476*
1,1,0.03253,0.01476,-0.01476*
%
%ADD137ROUNDEDRECTD137*%
%ADD138C,0.06206*%
%ADD139C,0.21560*%
%ADD140C,0.04600*%
%ADD141C,0.06600*%
%ADD142C,0.12111*%
G04:AMPARAMS|DCode=143|XSize=62.06mil|YSize=62.06mil|CornerRadius=16.26mil|HoleSize=0mil|Usage=FLASHONLY|Rotation=0.000|XOffset=0mil|YOffset=0mil|HoleType=Round|Shape=RoundedRectangle|*
%AMROUNDEDRECTD143*
21,1,0.06206,0.02953,0,0,0.0*
21,1,0.02953,0.06206,0,0,0.0*
1,1,0.03253,0.01476,-0.01476*
1,1,0.03253,-0.01476,-0.01476*
1,1,0.03253,-0.01476,0.01476*
1,1,0.03253,0.01476,0.01476*
%
%ADD143ROUNDEDRECTD143*%
%ADD144O,0.31796X0.04237*%
%ADD145C,0.19985*%
%ADD146C,0.11639*%
G04:AMPARAMS|DCode=200|XSize=12mil|YSize=61mil|CornerRadius=3mil|HoleSize=0mil|Usage=FLASHONLY|Rotation=90.000|XOffset=0mil|YOffset=0mil|HoleType=Round|Shape=RoundedRectangle|*
%AMROUNDEDRECTD200*
21,1,0.01200,0.05500,0,0,90.0*
21,1,0.00600,0.06100,0,0,90.0*
1,1,0.00600,0.02750,0.00300*
1,1,0.00600,0.02750,-0.00300*
1,1,0.00600,-0.02750,-0.00300*
1,1,0.00600,-0.02750,0.00300*
%
%ADD200ROUNDEDRECTD200*%
%ADD202C,0.04237*%
G04:AMPARAMS|DCode=203|XSize=21.5mil|YSize=26.62mil|CornerRadius=6.13mil|HoleSize=0mil|Usage=FLASHONLY|Rotation=270.000|XOffset=0mil|YOffset=0mil|HoleType=Round|Shape=RoundedRectangle|*
%AMROUNDEDRECTD203*
21,1,0.02150,0.01437,0,0,270.0*
21,1,0.00925,0.02662,0,0,270.0*
1,1,0.01225,-0.00719,-0.00463*
1,1,0.01225,-0.00719,0.00463*
1,1,0.01225,0.00719,0.00463*
1,1,0.01225,0.00719,-0.00463*
%
%ADD203ROUNDEDRECTD203*%
G04:AMPARAMS|DCode=204|XSize=28.59mil|YSize=22.69mil|CornerRadius=6.42mil|HoleSize=0mil|Usage=FLASHONLY|Rotation=0.000|XOffset=0mil|YOffset=0mil|HoleType=Round|Shape=RoundedRectangle|*
%AMROUNDEDRECTD204*
21,1,0.02859,0.00984,0,0,0.0*
21,1,0.01575,0.02269,0,0,0.0*
1,1,0.01284,0.00787,-0.00492*
1,1,0.01284,-0.00787,-0.00492*
1,1,0.01284,-0.00787,0.00492*
1,1,0.01284,0.00787,0.00492*
%
%ADD204ROUNDEDRECTD204*%
G04:AMPARAMS|DCode=205|XSize=21.5mil|YSize=26.62mil|CornerRadius=6.13mil|HoleSize=0mil|Usage=FLASHONLY|Rotation=180.000|XOffset=0mil|YOffset=0mil|HoleType=Round|Shape=RoundedRectangle|*
%AMROUNDEDRECTD205*
21,1,0.02150,0.01437,0,0,180.0*
21,1,0.00925,0.02662,0,0,180.0*
1,1,0.01225,-0.00463,0.00719*
1,1,0.01225,0.00463,0.00719*
1,1,0.01225,0.00463,-0.00719*
1,1,0.01225,-0.00463,-0.00719*
%
%ADD205ROUNDEDRECTD205*%
G04:AMPARAMS|DCode=206|XSize=50.24mil|YSize=50.24mil|CornerRadius=13.31mil|HoleSize=0mil|Usage=FLASHONLY|Rotation=0.000|XOffset=0mil|YOffset=0mil|HoleType=Round|Shape=RoundedRectangle|*
%AMROUNDEDRECTD206*
21,1,0.05024,0.02362,0,0,0.0*
21,1,0.02362,0.05024,0,0,0.0*
1,1,0.02662,0.01181,-0.01181*
1,1,0.02662,-0.01181,-0.01181*
1,1,0.02662,-0.01181,0.01181*
1,1,0.02662,0.01181,0.01181*
%
%ADD206ROUNDEDRECTD206*%
G04:AMPARAMS|DCode=207|XSize=65.99mil|YSize=62.06mil|CornerRadius=16.26mil|HoleSize=0mil|Usage=FLASHONLY|Rotation=0.000|XOffset=0mil|YOffset=0mil|HoleType=Round|Shape=RoundedRectangle|*
%AMROUNDEDRECTD207*
21,1,0.06599,0.02953,0,0,0.0*
21,1,0.03347,0.06206,0,0,0.0*
1,1,0.03253,0.01673,-0.01476*
1,1,0.03253,-0.01673,-0.01476*
1,1,0.03253,-0.01673,0.01476*
1,1,0.03253,0.01673,0.01476*
%
%ADD207ROUNDEDRECTD207*%
G04:AMPARAMS|DCode=208|XSize=22.69mil|YSize=22.69mil|CornerRadius=6.42mil|HoleSize=0mil|Usage=FLASHONLY|Rotation=180.000|XOffset=0mil|YOffset=0mil|HoleType=Round|Shape=RoundedRectangle|*
%AMROUNDEDRECTD208*
21,1,0.02269,0.00984,0,0,180.0*
21,1,0.00984,0.02269,0,0,180.0*
1,1,0.01284,-0.00492,0.00492*
1,1,0.01284,0.00492,0.00492*
1,1,0.01284,0.00492,-0.00492*
1,1,0.01284,-0.00492,-0.00492*
%
%ADD208ROUNDEDRECTD208*%
G04:AMPARAMS|DCode=209|XSize=26.62mil|YSize=24.65mil|CornerRadius=6.91mil|HoleSize=0mil|Usage=FLASHONLY|Rotation=180.000|XOffset=0mil|YOffset=0mil|HoleType=Round|Shape=RoundedRectangle|*
%AMROUNDEDRECTD209*
21,1,0.02662,0.01083,0,0,180.0*
21,1,0.01280,0.02465,0,0,180.0*
1,1,0.01383,-0.00640,0.00541*
1,1,0.01383,0.00640,0.00541*
1,1,0.01383,0.00640,-0.00541*
1,1,0.01383,-0.00640,-0.00541*
%
%ADD209ROUNDEDRECTD209*%
G04:AMPARAMS|DCode=210|XSize=25.84mil|YSize=65.21mil|CornerRadius=7.21mil|HoleSize=0mil|Usage=FLASHONLY|Rotation=180.000|XOffset=0mil|YOffset=0mil|HoleType=Round|Shape=RoundedRectangle|*
%AMROUNDEDRECTD210*
21,1,0.02584,0.05079,0,0,180.0*
21,1,0.01142,0.06521,0,0,180.0*
1,1,0.01442,-0.00571,0.02539*
1,1,0.01442,0.00571,0.02539*
1,1,0.01442,0.00571,-0.02539*
1,1,0.01442,-0.00571,-0.02539*
%
%ADD210ROUNDEDRECTD210*%
G04:AMPARAMS|DCode=211|XSize=111.27mil|YSize=50.24mil|CornerRadius=3.86mil|HoleSize=0mil|Usage=FLASHONLY|Rotation=90.000|XOffset=0mil|YOffset=0mil|HoleType=Round|Shape=RoundedRectangle|*
%AMROUNDEDRECTD211*
21,1,0.11127,0.04252,0,0,90.0*
21,1,0.10354,0.05024,0,0,90.0*
1,1,0.00772,0.02126,0.05177*
1,1,0.00772,0.02126,-0.05177*
1,1,0.00772,-0.02126,-0.05177*
1,1,0.00772,-0.02126,0.05177*
%
%ADD211ROUNDEDRECTD211*%
G04:AMPARAMS|DCode=212|XSize=111.27mil|YSize=50.24mil|CornerRadius=3.86mil|HoleSize=0mil|Usage=FLASHONLY|Rotation=180.000|XOffset=0mil|YOffset=0mil|HoleType=Round|Shape=RoundedRectangle|*
%AMROUNDEDRECTD212*
21,1,0.11127,0.04252,0,0,180.0*
21,1,0.10354,0.05024,0,0,180.0*
1,1,0.00772,-0.05177,0.02126*
1,1,0.00772,0.05177,0.02126*
1,1,0.00772,0.05177,-0.02126*
1,1,0.00772,-0.05177,-0.02126*
%
%ADD212ROUNDEDRECTD212*%
G04:AMPARAMS|DCode=213|XSize=152.61mil|YSize=82.92mil|CornerRadius=5.5mil|HoleSize=0mil|Usage=FLASHONLY|Rotation=90.000|XOffset=0mil|YOffset=0mil|HoleType=Round|Shape=RoundedRectangle|*
%AMROUNDEDRECTD213*
21,1,0.15261,0.07193,0,0,90.0*
21,1,0.14161,0.08292,0,0,90.0*
1,1,0.01099,0.03597,0.07081*
1,1,0.01099,0.03597,-0.07081*
1,1,0.01099,-0.03597,-0.07081*
1,1,0.01099,-0.03597,0.07081*
%
%ADD213ROUNDEDRECTD213*%
G04:AMPARAMS|DCode=214|XSize=18.75mil|YSize=36.47mil|CornerRadius=5.44mil|HoleSize=0mil|Usage=FLASHONLY|Rotation=0.000|XOffset=0mil|YOffset=0mil|HoleType=Round|Shape=RoundedRectangle|*
%AMROUNDEDRECTD214*
21,1,0.01875,0.02559,0,0,0.0*
21,1,0.00787,0.03647,0,0,0.0*
1,1,0.01087,0.00394,-0.01280*
1,1,0.01087,-0.00394,-0.01280*
1,1,0.01087,-0.00394,0.01280*
1,1,0.01087,0.00394,0.01280*
%
%ADD214ROUNDEDRECTD214*%
G04:AMPARAMS|DCode=215|XSize=152.61mil|YSize=82.92mil|CornerRadius=5.5mil|HoleSize=0mil|Usage=FLASHONLY|Rotation=0.000|XOffset=0mil|YOffset=0mil|HoleType=Round|Shape=RoundedRectangle|*
%AMROUNDEDRECTD215*
21,1,0.15261,0.07193,0,0,0.0*
21,1,0.14161,0.08292,0,0,0.0*
1,1,0.01099,0.07081,-0.03597*
1,1,0.01099,-0.07081,-0.03597*
1,1,0.01099,-0.07081,0.03597*
1,1,0.01099,0.07081,0.03597*
%
%ADD215ROUNDEDRECTD215*%
G04:AMPARAMS|DCode=216|XSize=50mil|YSize=111mil|CornerRadius=6.2mil|HoleSize=0mil|Usage=FLASHONLY|Rotation=90.000|XOffset=0mil|YOffset=0mil|HoleType=Round|Shape=RoundedRectangle|*
%AMROUNDEDRECTD216*
21,1,0.05000,0.09860,0,0,90.0*
21,1,0.03760,0.11100,0,0,90.0*
1,1,0.01240,0.04930,0.01880*
1,1,0.01240,0.04930,-0.01880*
1,1,0.01240,-0.04930,-0.01880*
1,1,0.01240,-0.04930,0.01880*
%
%ADD216ROUNDEDRECTD216*%
D73*
X0244685Y0018652D02*
D03*
D77*
X0248917Y0365158D02*
D03*
Y0361614D02*
D03*
X0264567Y0364370D02*
D03*
Y0360827D02*
D03*
X0248917Y0347244D02*
D03*
Y0350787D02*
D03*
X0264567Y0353150D02*
D03*
Y0349606D02*
D03*
X0088189Y0096653D02*
D03*
Y0100197D02*
D03*
X0113287Y0096653D02*
D03*
Y0100197D02*
D03*
X0084646Y0096653D02*
D03*
Y0100197D02*
D03*
X0109744Y0096653D02*
D03*
Y0100197D02*
D03*
X0148622Y0109744D02*
D03*
Y0113287D02*
D03*
X0131004Y0088878D02*
D03*
Y0085335D02*
D03*
X0134744Y0088878D02*
D03*
Y0085335D02*
D03*
X0088189Y0177362D02*
D03*
Y0180905D02*
D03*
X0113287Y0177362D02*
D03*
Y0180905D02*
D03*
X0084646Y0177362D02*
D03*
Y0180905D02*
D03*
X0109744Y0177362D02*
D03*
Y0180905D02*
D03*
X0148622Y0190453D02*
D03*
Y0193996D02*
D03*
X0131004Y0169587D02*
D03*
Y0166043D02*
D03*
X0134744Y0169587D02*
D03*
Y0166043D02*
D03*
X0088189Y0258071D02*
D03*
Y0261614D02*
D03*
X0113287Y0258071D02*
D03*
Y0261614D02*
D03*
X0084646Y0258071D02*
D03*
Y0261614D02*
D03*
X0109744Y0258071D02*
D03*
Y0261614D02*
D03*
X0148622Y0271162D02*
D03*
Y0274705D02*
D03*
X0131004Y0250295D02*
D03*
Y0246752D02*
D03*
X0134744Y0250295D02*
D03*
Y0246752D02*
D03*
X0109744Y0342323D02*
D03*
Y0338779D02*
D03*
X0113287D02*
D03*
Y0342323D02*
D03*
X0134744Y0331004D02*
D03*
Y0327461D02*
D03*
X0148622Y0355413D02*
D03*
Y0351870D02*
D03*
X0084646Y0342323D02*
D03*
Y0338779D02*
D03*
X0088189D02*
D03*
Y0342323D02*
D03*
X0131004Y0331004D02*
D03*
Y0327461D02*
D03*
X0394488Y0249803D02*
D03*
Y0253346D02*
D03*
X0336614Y0281004D02*
D03*
Y0284547D02*
D03*
X0169587Y0362500D02*
D03*
Y0281890D02*
D03*
X0169587Y0201181D02*
D03*
Y0120472D02*
D03*
X0173327Y0116929D02*
D03*
Y0120472D02*
D03*
Y0197638D02*
D03*
Y0201181D02*
D03*
X0173327Y0358957D02*
D03*
Y0362500D02*
D03*
Y0278346D02*
D03*
Y0281890D02*
D03*
X0169587Y0116929D02*
D03*
Y0197638D02*
D03*
X0169587Y0278346D02*
D03*
Y0358957D02*
D03*
X0225590Y0124213D02*
D03*
Y0127756D02*
D03*
X0242618Y0092027D02*
D03*
Y0095571D02*
D03*
X0283169Y0282874D02*
D03*
Y0286417D02*
D03*
D78*
X0154232Y0071063D02*
D03*
X0157776D02*
D03*
X0140847Y0067126D02*
D03*
X0137303D02*
D03*
X0154232Y0151772D02*
D03*
X0157776D02*
D03*
X0140847Y0147835D02*
D03*
X0137303D02*
D03*
X0154232Y0232480D02*
D03*
X0157776D02*
D03*
X0140847Y0228543D02*
D03*
X0137303D02*
D03*
X0154232Y0313189D02*
D03*
X0157776D02*
D03*
X0137303Y0309252D02*
D03*
X0140847D02*
D03*
X0364469Y0288287D02*
D03*
X0368012D02*
D03*
Y0292126D02*
D03*
X0364469D02*
D03*
X0034547Y0372441D02*
D03*
X0038091D02*
D03*
X0037106Y0353937D02*
D03*
X0040650D02*
D03*
X0333268Y0139370D02*
D03*
X0336811D02*
D03*
X0333268Y0143701D02*
D03*
X0336811D02*
D03*
X0246161Y0061024D02*
D03*
X0242618D02*
D03*
X0267421Y0292323D02*
D03*
X0270965D02*
D03*
D79*
X0145039Y0105807D02*
D03*
X0148661D02*
D03*
X0145039Y0186516D02*
D03*
X0148661D02*
D03*
X0145039Y0267224D02*
D03*
X0148661D02*
D03*
Y0347933D02*
D03*
X0145039D02*
D03*
X0364331Y0284449D02*
D03*
X0367953D02*
D03*
X0340295Y0296260D02*
D03*
X0336673D02*
D03*
Y0292323D02*
D03*
X0340295D02*
D03*
X0315098Y0298721D02*
D03*
X0311476D02*
D03*
X0315098Y0294587D02*
D03*
X0311476D02*
D03*
X0315098Y0286516D02*
D03*
X0311476D02*
D03*
X0315098Y0290453D02*
D03*
X0311476D02*
D03*
X0315098Y0282579D02*
D03*
X0311476D02*
D03*
D84*
X0302953Y0113779D02*
D03*
X0309252D02*
D03*
X0202854Y0052559D02*
D03*
X0196555D02*
D03*
D86*
X0355217Y0309095D02*
D03*
Y0305472D02*
D03*
X0156398Y0119232D02*
D03*
Y0115610D02*
D03*
Y0199941D02*
D03*
Y0196319D02*
D03*
Y0280650D02*
D03*
Y0277028D02*
D03*
Y0357736D02*
D03*
Y0361358D02*
D03*
X0363090Y0305472D02*
D03*
Y0309095D02*
D03*
X0359154Y0305472D02*
D03*
Y0309095D02*
D03*
X0345374Y0305374D02*
D03*
Y0308996D02*
D03*
X0359547Y0281240D02*
D03*
Y0277618D02*
D03*
X0355610Y0281240D02*
D03*
Y0277618D02*
D03*
X0351279D02*
D03*
Y0281240D02*
D03*
X0345374D02*
D03*
Y0277618D02*
D03*
X0341437Y0281240D02*
D03*
Y0277618D02*
D03*
X0048327Y0367756D02*
D03*
Y0364134D02*
D03*
X0173327Y0274547D02*
D03*
Y0270925D02*
D03*
Y0193839D02*
D03*
Y0190217D02*
D03*
Y0113130D02*
D03*
Y0109508D02*
D03*
Y0355157D02*
D03*
Y0351535D02*
D03*
D120*
X0292815Y0066732D02*
D03*
Y0064173D02*
D03*
X0295571Y0066732D02*
D03*
Y0064173D02*
D03*
X0298721Y0066732D02*
D03*
Y0064173D02*
D03*
X0301476Y0066732D02*
D03*
Y0064173D02*
D03*
X0304626Y0066732D02*
D03*
Y0064173D02*
D03*
X0307382Y0066732D02*
D03*
Y0064173D02*
D03*
X0310531Y0066732D02*
D03*
Y0064173D02*
D03*
X0313287Y0066732D02*
D03*
Y0064173D02*
D03*
D121*
X0254528Y0021654D02*
D03*
X0238779D02*
D03*
X0195472D02*
D03*
X0187598D02*
D03*
X0215158D02*
D03*
X0203346D02*
D03*
X0199409D02*
D03*
X0242717D02*
D03*
X0230906D02*
D03*
X0207283D02*
D03*
X0219094D02*
D03*
X0191535D02*
D03*
X0183661D02*
D03*
X0234842D02*
D03*
X0246654D02*
D03*
X0211221D02*
D03*
X0250590D02*
D03*
X0282087D02*
D03*
X0262402D02*
D03*
X0301772D02*
D03*
X0274213D02*
D03*
X0266339D02*
D03*
X0293898D02*
D03*
X0305709D02*
D03*
X0289961D02*
D03*
X0286024D02*
D03*
X0297835D02*
D03*
X0309646D02*
D03*
X0258465D02*
D03*
X0270276D02*
D03*
X0278150D02*
D03*
D122*
X0179724Y0023622D02*
D03*
D127*
X0286122Y0090118D02*
D03*
Y0087441D02*
D03*
X0292421Y0090118D02*
D03*
Y0087441D02*
D03*
X0295571Y0090118D02*
D03*
Y0087441D02*
D03*
X0298721Y0090118D02*
D03*
Y0087441D02*
D03*
X0301870Y0090118D02*
D03*
Y0087441D02*
D03*
X0305020Y0090118D02*
D03*
Y0087441D02*
D03*
X0308169Y0090118D02*
D03*
Y0087441D02*
D03*
X0314469Y0090118D02*
D03*
Y0087441D02*
D03*
X0289272Y0090118D02*
D03*
Y0087441D02*
D03*
X0311319Y0090118D02*
D03*
Y0087441D02*
D03*
D128*
X0029862Y0392520D02*
D03*
X0412972Y0057284D02*
D03*
X0415492D02*
D03*
X0418012D02*
D03*
X0420532D02*
D03*
X0423051D02*
D03*
X0369468D02*
D03*
X0371988D02*
D03*
X0374508D02*
D03*
X0377028D02*
D03*
X0379547D02*
D03*
X0100216D02*
D03*
X0097697D02*
D03*
X0095177D02*
D03*
X0090138D02*
D03*
X0092658D02*
D03*
X0466535D02*
D03*
X0464016D02*
D03*
X0461496D02*
D03*
X0458976D02*
D03*
X0456457D02*
D03*
X0325965D02*
D03*
X0328484D02*
D03*
X0331004D02*
D03*
X0333524D02*
D03*
X0336043D02*
D03*
X0133110Y0024803D02*
D03*
X0135630D02*
D03*
X0138150D02*
D03*
X0140669D02*
D03*
X0143189D02*
D03*
X0145709D02*
D03*
X0148228D02*
D03*
X0160827D02*
D03*
X0158307D02*
D03*
X0155787D02*
D03*
X0153268D02*
D03*
X0150748D02*
D03*
X0047008D02*
D03*
X0049528D02*
D03*
X0052047D02*
D03*
X0054567D02*
D03*
X0057087D02*
D03*
X0012047D02*
D03*
X0009528D02*
D03*
X0007008D02*
D03*
X0004488D02*
D03*
X0001969D02*
D03*
X0019783Y0392520D02*
D03*
X0022303D02*
D03*
X0024823D02*
D03*
X0027343D02*
D03*
X0004488D02*
D03*
X0001969D02*
D03*
D129*
X0352756Y0056102D02*
D03*
X0396260D02*
D03*
X0439764D02*
D03*
D130*
X0116732D02*
D03*
X0073622D02*
D03*
D131*
X0061024Y0040846D02*
D03*
X0129331D02*
D03*
D132*
X0392520Y0333071D02*
D03*
D133*
Y0325197D02*
D03*
D134*
X0452638Y0365748D02*
D03*
Y0360748D02*
D03*
X0447638Y0365748D02*
D03*
Y0360748D02*
D03*
X0442638Y0365748D02*
D03*
Y0360748D02*
D03*
X0437638Y0365748D02*
D03*
Y0360748D02*
D03*
X0432638Y0365748D02*
D03*
D135*
Y0360748D02*
D03*
D136*
X0419685Y0281102D02*
D03*
Y0110630D02*
D03*
X0049114Y0323720D02*
D03*
Y0238484D02*
D03*
Y0153248D02*
D03*
Y0068012D02*
D03*
D137*
X0428740Y0219882D02*
D03*
D138*
Y0209882D02*
D03*
Y0199882D02*
D03*
Y0189882D02*
D03*
Y0179882D02*
D03*
Y0169882D02*
D03*
X0323693Y0077447D02*
D03*
X0256764D02*
D03*
X0329500Y0085321D02*
D03*
X0250957D02*
D03*
X0231760Y0222424D02*
D03*
Y0104510D02*
D03*
X0223886Y0216617D02*
D03*
Y0110318D02*
D03*
X0357744Y0222424D02*
D03*
Y0104510D02*
D03*
X0349870Y0216617D02*
D03*
Y0110318D02*
D03*
X0026063Y0372638D02*
D03*
D139*
X0223296Y0250081D02*
D03*
X0357155D02*
D03*
X0357155Y0076853D02*
D03*
X0223296Y0076853D02*
D03*
D140*
X0242126Y0115551D02*
D03*
D141*
Y0194291D02*
D03*
D142*
X0450394Y0266142D02*
D03*
Y0296063D02*
D03*
Y0095669D02*
D03*
Y0125591D02*
D03*
X0018406Y0338681D02*
D03*
Y0308760D02*
D03*
Y0253445D02*
D03*
Y0223524D02*
D03*
Y0168209D02*
D03*
Y0138287D02*
D03*
Y0082972D02*
D03*
Y0053051D02*
D03*
D143*
X0016063Y0372638D02*
D03*
D144*
X0029528Y0023622D02*
D03*
D145*
X0454724Y0234252D02*
D03*
X0443701Y0153543D02*
D03*
D146*
X0012008Y0395866D02*
D03*
D200*
X0262894Y0118504D02*
D03*
X0233169Y0119488D02*
D03*
X0262894Y0120473D02*
D03*
X0233169Y0121457D02*
D03*
X0262894Y0122441D02*
D03*
X0233169Y0123425D02*
D03*
X0262894Y0124409D02*
D03*
X0233169Y0125394D02*
D03*
X0262894Y0126378D02*
D03*
X0233169Y0127362D02*
D03*
X0262894Y0128347D02*
D03*
X0233169Y0129331D02*
D03*
X0262894Y0130315D02*
D03*
X0233169Y0131299D02*
D03*
X0262894Y0132283D02*
D03*
X0233169Y0133268D02*
D03*
X0262894Y0134252D02*
D03*
X0233169Y0135236D02*
D03*
X0262894Y0136221D02*
D03*
X0233169Y0137205D02*
D03*
X0262894Y0138189D02*
D03*
X0233169Y0139173D02*
D03*
X0262894Y0140157D02*
D03*
X0233169Y0141142D02*
D03*
X0262894Y0142126D02*
D03*
X0233169Y0143110D02*
D03*
X0262894Y0144095D02*
D03*
X0233169Y0145079D02*
D03*
X0262894Y0146063D02*
D03*
X0233169Y0147047D02*
D03*
X0262894Y0148031D02*
D03*
X0233169Y0149016D02*
D03*
X0262894Y0150000D02*
D03*
X0233169Y0150984D02*
D03*
X0262894Y0151969D02*
D03*
X0233169Y0152953D02*
D03*
X0262894Y0153937D02*
D03*
X0233169Y0154921D02*
D03*
X0262894Y0155905D02*
D03*
X0233169Y0156890D02*
D03*
X0262894Y0157874D02*
D03*
X0233169Y0158858D02*
D03*
X0262894Y0159843D02*
D03*
X0233169Y0160827D02*
D03*
X0262894Y0161811D02*
D03*
X0233169Y0162795D02*
D03*
X0262894Y0163779D02*
D03*
X0233169Y0164764D02*
D03*
X0262894Y0165748D02*
D03*
X0233169Y0166732D02*
D03*
X0262894Y0167717D02*
D03*
X0233169Y0168701D02*
D03*
X0262894Y0169685D02*
D03*
X0233169Y0170669D02*
D03*
X0262894Y0171653D02*
D03*
X0233169Y0172638D02*
D03*
X0262894Y0173622D02*
D03*
X0233169Y0174606D02*
D03*
X0262894Y0183465D02*
D03*
X0233169Y0184449D02*
D03*
X0262894Y0185433D02*
D03*
X0233169Y0186417D02*
D03*
X0262894Y0187402D02*
D03*
X0233169Y0188386D02*
D03*
X0262894Y0189370D02*
D03*
X0233169Y0190354D02*
D03*
X0262894Y0191339D02*
D03*
D202*
X0269980Y0349606D02*
D03*
X0278150Y0365945D02*
D03*
X0336427Y0369390D02*
D03*
X0346083Y0369390D02*
D03*
X0342323Y0339764D02*
D03*
X0079429Y0096752D02*
D03*
X0104527D02*
D03*
X0125886Y0088878D02*
D03*
X0179134Y0196260D02*
D03*
X0079429Y0177461D02*
D03*
X0104527D02*
D03*
X0125886Y0169587D02*
D03*
X0079429Y0258169D02*
D03*
X0104527D02*
D03*
X0125886Y0250295D02*
D03*
X0079429Y0338878D02*
D03*
X0104527D02*
D03*
X0125886Y0331004D02*
D03*
X0184646Y0318110D02*
D03*
X0195276Y0308268D02*
D03*
X0180709Y0334252D02*
D03*
X0362894Y0321850D02*
D03*
X0370965Y0124114D02*
D03*
X0400689Y0143799D02*
D03*
X0380512Y0353051D02*
D03*
X0269980Y0360827D02*
D03*
X0254035Y0370177D02*
D03*
Y0341732D02*
D03*
X0301476Y0365945D02*
D03*
X0320571Y0339764D02*
D03*
Y0347835D02*
D03*
X0320472Y0362894D02*
D03*
X0293307Y0302559D02*
D03*
X0179134Y0357579D02*
D03*
X0273228Y0301476D02*
D03*
X0289862Y0293504D02*
D03*
X0282382Y0299114D02*
D03*
X0179134Y0276870D02*
D03*
X0179035Y0264862D02*
D03*
Y0184153D02*
D03*
X0179134Y0115453D02*
D03*
X0179035Y0103445D02*
D03*
Y0345571D02*
D03*
X0377953Y0095276D02*
D03*
X0336811Y0149606D02*
D03*
X0377953Y0102756D02*
D03*
X0236122Y0095571D02*
D03*
X0245965Y0295768D02*
D03*
X0260138Y0269390D02*
D03*
X0258957Y0295768D02*
D03*
X0231594Y0273524D02*
D03*
X0243996Y0273524D02*
D03*
D203*
X0252854Y0361614D02*
D03*
X0260335Y0364173D02*
D03*
Y0359055D02*
D03*
X0252854Y0350787D02*
D03*
X0260335Y0353346D02*
D03*
Y0348228D02*
D03*
D204*
X0079626Y0111319D02*
D03*
X0070964D02*
D03*
X0104724D02*
D03*
X0096063D02*
D03*
X0079626Y0192027D02*
D03*
X0070964D02*
D03*
X0104724D02*
D03*
X0096063D02*
D03*
X0079626Y0272736D02*
D03*
X0070964D02*
D03*
X0104724D02*
D03*
X0096063D02*
D03*
Y0353445D02*
D03*
X0104724D02*
D03*
X0070964D02*
D03*
X0079626D02*
D03*
D205*
X0086614Y0111319D02*
D03*
X0089173Y0103839D02*
D03*
X0084055D02*
D03*
X0111713Y0111319D02*
D03*
X0114272Y0103839D02*
D03*
X0109153D02*
D03*
X0131004Y0073819D02*
D03*
X0128445Y0081299D02*
D03*
X0133563D02*
D03*
X0086614Y0192028D02*
D03*
X0089173Y0184547D02*
D03*
X0084055D02*
D03*
X0111713Y0192028D02*
D03*
X0114272Y0184547D02*
D03*
X0109153D02*
D03*
X0131004Y0154527D02*
D03*
X0128445Y0162008D02*
D03*
X0133563D02*
D03*
X0086614Y0272736D02*
D03*
X0089173Y0265256D02*
D03*
X0084055D02*
D03*
X0111713Y0272736D02*
D03*
X0114272Y0265256D02*
D03*
X0109153D02*
D03*
X0131004Y0235236D02*
D03*
X0128445Y0242717D02*
D03*
X0133563D02*
D03*
X0109153Y0345965D02*
D03*
X0111713Y0353445D02*
D03*
X0114272Y0345965D02*
D03*
X0084055D02*
D03*
X0086614Y0353445D02*
D03*
X0089173Y0345965D02*
D03*
X0131004Y0315945D02*
D03*
X0128445Y0323425D02*
D03*
X0133563D02*
D03*
D206*
X0150295Y0089961D02*
D03*
X0158169D02*
D03*
X0150295Y0170669D02*
D03*
X0158169D02*
D03*
X0150295Y0251378D02*
D03*
X0158169D02*
D03*
X0150295Y0332087D02*
D03*
X0158169D02*
D03*
D207*
X0154232Y0077165D02*
D03*
Y0157874D02*
D03*
Y0238583D02*
D03*
Y0319291D02*
D03*
D208*
X0199333Y0365812D02*
D03*
Y0285104D02*
D03*
Y0204395D02*
D03*
Y0123686D02*
D03*
X0199409Y0346260D02*
D03*
Y0265551D02*
D03*
Y0184843D02*
D03*
Y0104134D02*
D03*
X0327264Y0304232D02*
D03*
Y0284744D02*
D03*
D209*
X0199333Y0358036D02*
D03*
Y0277328D02*
D03*
Y0196619D02*
D03*
Y0115910D02*
D03*
X0199409Y0354035D02*
D03*
Y0273327D02*
D03*
Y0192618D02*
D03*
Y0111909D02*
D03*
X0327264Y0296457D02*
D03*
Y0292520D02*
D03*
D210*
X0195553Y0361875D02*
D03*
X0203113D02*
D03*
X0195553Y0281167D02*
D03*
X0203113D02*
D03*
X0195553Y0200458D02*
D03*
X0203113D02*
D03*
X0195553Y0119749D02*
D03*
X0203113D02*
D03*
X0203189Y0350197D02*
D03*
X0195630D02*
D03*
X0203189Y0269488D02*
D03*
X0195630D02*
D03*
X0203189Y0188779D02*
D03*
X0195630D02*
D03*
X0203189Y0108071D02*
D03*
X0195630D02*
D03*
X0323484Y0300295D02*
D03*
X0331043D02*
D03*
Y0288681D02*
D03*
X0323484D02*
D03*
D211*
X0412303Y0250000D02*
D03*
X0386614Y0247835D02*
D03*
Y0231102D02*
D03*
X0426575Y0250000D02*
D03*
X0407480Y0329134D02*
D03*
Y0345965D02*
D03*
Y0362894D02*
D03*
X0317717Y0113779D02*
D03*
X0294587D02*
D03*
X0188287Y0052461D02*
D03*
X0211319Y0052559D02*
D03*
D212*
X0386811Y0127264D02*
D03*
X0386319Y0163878D02*
D03*
X0363681Y0363878D02*
D03*
Y0344882D02*
D03*
D213*
X0450394Y0329134D02*
D03*
D214*
X0043209Y0358760D02*
D03*
X0040650D02*
D03*
X0038091D02*
D03*
Y0367618D02*
D03*
X0043209D02*
D03*
D215*
X0450787Y0070866D02*
D03*
D216*
X0259842Y0114173D02*
D03*
Y0195669D02*
D03*
M02*
